<svg viewBox="0.00 0.00 128.00 128.00" version="1.1" xmlns="http://www.w3.org/2000/svg">
<g stroke-linecap="butt" fill="none" stroke-width="2.00">
<path d="M 33.02 0.00
  L 33.00 126.61
  Q 33.00 126.84 33.23 126.84
  L 38.86 126.84
  A 0.20 0.20 0.0 0 0 39.06 126.64
  Q 39.02 98.60 39.19 70.37
  Q 39.21 65.74 40.54 61.14
  Q 40.84 60.11 41.54 60.93
  C 43.44 63.17 43.39 69.13 43.41 72.01
  Q 43.57 99.41 43.56 126.64
  Q 43.56 126.87 43.78 126.87
  L 49.20 126.86
  Q 49.48 126.86 49.48 126.58
  Q 49.53 97.11 49.53 67.75
  Q 49.53 53.83 47.77 40.03
  C 47.31 36.43 47.06 33.59 45.15 30.37
  A 1.51 1.50 43.6 0 0 42.53 30.43
  Q 39.46 36.24 40.06 43.05
  Q 40.09 43.32 39.82 43.32
  L 39.54 43.32
  Q 39.02 43.32 39.02 42.80
  L 39.05 0.00" stroke="#80b4f7"></path>
<path d="M 108.42 128.00
  C 111.25 124.74 111.42 119.79 112.24 115.72
  Q 112.28 115.55 112.46 115.57
  L 112.46 115.57
  Q 112.54 115.58 112.54 115.75
  L 112.42 126.46
  Q 112.42 126.74 112.71 126.75
  L 118.16 126.90
  Q 118.32 126.91 118.32 126.75
  L 118.32 30.49
  Q 118.32 30.34 118.17 30.34
  L 112.78 30.39
  Q 112.45 30.39 112.45 30.72
  L 112.50 41.49
  A 0.06 0.06 0.0 0 1 112.38 41.51
  C 111.54 37.72 111.32 31.78 108.36 29.00
  Q 108.00 28.67 107.63 28.99
  C 104.60 31.63 103.62 40.25 103.19 44.70
  C 101.45 62.57 101.44 80.33 102.14 98.24
  Q 102.55 108.43 103.97 118.50
  Q 104.74 123.95 107.29 128.00" stroke="#80b4f7"></path>
<path d="M 60.62 128.00
  Q 63.77 124.08 64.87 117.89
  C 68.68 96.68 68.56 73.92 66.77 52.50
  C 66.17 45.31 65.36 36.61 61.56 30.32
  Q 60.82 29.10 58.77 29.55
  C 54.08 30.58 52.21 54.85 51.97 59.00
  Q 50.50 84.74 53.29 110.36
  C 53.90 115.98 54.76 123.80 58.84 128.00" stroke="#80b4f7"></path>
<path d="M 25.32 128.00
  Q 29.27 122.69 30.01 113.75
  C 31.09 100.57 31.81 85.93 28.43 74.26
  C 26.20 66.59 19.93 64.71 22.58 55.46
  A 0.46 0.45 41.2 0 1 23.44 55.41
  Q 25.04 59.01 24.84 62.98
  Q 24.83 63.38 25.22 63.38
  L 30.20 63.42
  Q 30.43 63.42 30.43 63.19
  Q 30.35 52.81 28.82 42.25
  Q 27.77 35.02 26.19 31.79
  Q 25.03 29.41 23.62 29.23
  Q 21.36 28.95 20.42 31.03
  Q 18.48 35.36 17.91 39.74
  Q 15.45 58.35 17.69 76.96
  C 18.15 80.83 19.37 86.14 21.66 88.58
  Q 26.88 94.13 25.04 100.23
  Q 23.93 103.92 23.02 100.17
  Q 22.24 96.99 22.27 93.63
  Q 22.28 93.32 21.96 93.32
  L 16.95 93.32
  Q 16.66 93.32 16.66 93.60
  C 16.53 100.89 17.14 124.08 23.66 128.00" stroke="#80b4f7"></path>
<path d="M 7.59 34.16
  Q 8.38 34.63 8.47 37.26
  C 9.12 55.47 5.57 73.37 1.89 91.12
  Q 0.85 96.13 0.82 100.97
  Q 0.75 112.71 0.83 124.53
  Q 0.83 125.00 1.31 125.00
  L 14.50 125.00
  Q 15.01 125.00 15.01 124.50
  L 15.01 95.02
  Q 15.01 94.42 14.41 94.43
  L 9.28 94.52
  A 0.45 0.45 0.0 0 1 8.83 93.97
  Q 16.87 57.41 14.18 20.24
  Q 13.57 11.85 11.07 4.99
  Q 10.24 2.73 7.76 2.52
  A 0.97 0.96 -67.9 0 0 6.94 2.87
  C 3.65 6.92 2.84 13.47 2.28 18.51
  Q 0.60 33.43 0.78 48.22
  A 0.25 0.24 -1.2 0 0 1.03 48.45
  L 6.19 48.45
  Q 6.34 48.44 6.35 48.30
  L 6.96 34.50
  Q 6.99 33.80 7.59 34.16" stroke="#80b4f7"></path>
<path d="M 83.19 30.38
  L 82.59 30.22
  A 0.50 0.50 0.0 0 0 81.97 30.70
  Q 81.88 44.97 82.03 59.25
  Q 82.05 61.20 83.27 61.90
  Q 83.69 62.15 83.69 62.63
  Q 83.72 81.01 83.92 99.40
  C 84.01 107.32 84.60 116.14 87.12 123.69
  Q 88.26 127.14 91.84 126.93
  Q 92.29 126.90 92.29 126.46
  L 92.29 94.92
  Q 92.29 94.30 91.67 94.36
  L 90.77 94.44
  Q 90.31 94.49 90.24 94.03
  Q 89.96 92.01 89.93 90.00
  Q 89.76 75.99 89.84 61.96
  Q 89.84 61.46 90.34 61.52
  L 91.75 61.69
  Q 92.25 61.75 92.25 61.25
  L 92.26 30.52
  A 0.35 0.35 0.0 0 0 91.80 30.19
  Q 90.03 30.78 90.01 29.99
  Q 89.81 18.55 89.82 7.28
  A 0.28 0.28 0.0 0 0 89.54 7.00
  L 84.01 7.01
  Q 83.77 7.01 83.77 7.25
  L 83.76 29.94
  Q 83.76 30.53 83.19 30.38" stroke="#80b4f7"></path>
<path d="M 76.03 46.68
  L 75.99 30.52
  Q 75.99 30.34 75.81 30.34
  L 70.10 30.41
  A 0.22 0.21 0.0 0 0 69.88 30.62
  L 69.89 126.62
  Q 69.89 126.84 70.11 126.84
  L 75.76 126.84
  A 0.25 0.24 90.0 0 0 76.00 126.59
  Q 76.00 104.46 75.89 82.00
  Q 75.86 76.77 77.62 70.86
  A 1.31 1.31 0.0 0 1 79.59 70.14
  Q 80.07 70.45 80.46 70.31
  Q 80.99 70.10 80.99 69.53
  Q 81.06 49.84 81.01 30.15
  Q 81.01 29.97 80.92 29.88
  Q 80.80 29.76 80.61 29.74
  Q 80.26 29.71 80.10 30.02
  C 77.50 35.19 77.22 39.47 76.26 46.70
  A 0.12 0.11 49.4 0 1 76.03 46.68" stroke="#80b4f7"></path>
<path d="M 127.24 30.61
  A 0.26 0.26 0.0 0 0 126.98 30.35
  L 121.52 30.35
  A 0.26 0.26 0.0 0 0 121.26 30.61
  L 121.26 126.59
  A 0.26 0.26 0.0 0 0 121.52 126.85
  L 126.98 126.85
  A 0.26 0.26 0.0 0 0 127.24 126.59
  L 127.24 30.61" stroke="#80b4f7"></path>
<path d="M 100.21 90.85
  A 0.35 0.35 0.0 0 0 99.86 90.50
  L 94.56 90.50
  A 0.35 0.35 0.0 0 0 94.21 90.85
  L 94.21 126.49
  A 0.35 0.35 0.0 0 0 94.56 126.84
  L 99.86 126.84
  A 0.35 0.35 0.0 0 0 100.21 126.49
  L 100.21 90.85" stroke="#80b4f7"></path>
<path d="M 110.0700 94.7400
  A 16.31 2.35 90.0 0 0 112.4200 78.4300
  A 16.31 2.35 90.0 0 0 110.0700 62.1200
  A 16.31 2.35 90.0 0 0 107.7200 78.4300
  A 16.31 2.35 90.0 0 0 110.0700 94.7400" stroke="#80b4f7"></path>
<path d="M 59.6500 95.3300
  A 16.78 2.15 90.0 0 0 61.8000 78.5500
  A 16.78 2.15 90.0 0 0 59.6500 61.7700
  A 16.78 2.15 90.0 0 0 57.5000 78.5500
  A 16.78 2.15 90.0 0 0 59.6500 95.3300" stroke="#80b4f7"></path>
</g>
<path d="M 0.00 0.00
  L 33.02 0.00
  L 33.00 126.61
  Q 33.00 126.84 33.23 126.84
  L 38.86 126.84
  A 0.20 0.20 0.0 0 0 39.06 126.64
  Q 39.02 98.60 39.19 70.37
  Q 39.21 65.74 40.54 61.14
  Q 40.84 60.11 41.54 60.93
  C 43.44 63.17 43.39 69.13 43.41 72.01
  Q 43.57 99.41 43.56 126.64
  Q 43.56 126.87 43.78 126.87
  L 49.20 126.86
  Q 49.48 126.86 49.48 126.58
  Q 49.53 97.11 49.53 67.75
  Q 49.53 53.83 47.77 40.03
  C 47.31 36.43 47.06 33.59 45.15 30.37
  A 1.51 1.50 43.6 0 0 42.53 30.43
  Q 39.46 36.24 40.06 43.05
  Q 40.09 43.32 39.82 43.32
  L 39.54 43.32
  Q 39.02 43.32 39.02 42.80
  L 39.05 0.00
  L 128.00 0.00
  L 128.00 128.00
  L 108.42 128.00
  C 111.25 124.74 111.42 119.79 112.24 115.72
  Q 112.28 115.55 112.46 115.57
  L 112.46 115.57
  Q 112.54 115.58 112.54 115.75
  L 112.42 126.46
  Q 112.42 126.74 112.71 126.75
  L 118.16 126.90
  Q 118.32 126.91 118.32 126.75
  L 118.32 30.49
  Q 118.32 30.34 118.17 30.34
  L 112.78 30.39
  Q 112.45 30.39 112.45 30.72
  L 112.50 41.49
  A 0.06 0.06 0.0 0 1 112.38 41.51
  C 111.54 37.72 111.32 31.78 108.36 29.00
  Q 108.00 28.67 107.63 28.99
  C 104.60 31.63 103.62 40.25 103.19 44.70
  C 101.45 62.57 101.44 80.33 102.14 98.24
  Q 102.55 108.43 103.97 118.50
  Q 104.74 123.95 107.29 128.00
  L 60.62 128.00
  Q 63.77 124.08 64.87 117.89
  C 68.68 96.68 68.56 73.92 66.77 52.50
  C 66.17 45.31 65.36 36.61 61.56 30.32
  Q 60.82 29.10 58.77 29.55
  C 54.08 30.58 52.21 54.85 51.97 59.00
  Q 50.50 84.74 53.29 110.36
  C 53.90 115.98 54.76 123.80 58.84 128.00
  L 25.32 128.00
  Q 29.27 122.69 30.01 113.75
  C 31.09 100.57 31.81 85.93 28.43 74.26
  C 26.20 66.59 19.93 64.71 22.58 55.46
  A 0.46 0.45 41.2 0 1 23.44 55.41
  Q 25.04 59.01 24.84 62.98
  Q 24.83 63.38 25.22 63.38
  L 30.20 63.42
  Q 30.43 63.42 30.43 63.19
  Q 30.35 52.81 28.82 42.25
  Q 27.77 35.02 26.19 31.79
  Q 25.03 29.41 23.62 29.23
  Q 21.36 28.95 20.42 31.03
  Q 18.48 35.36 17.91 39.74
  Q 15.45 58.35 17.69 76.96
  C 18.15 80.83 19.37 86.14 21.66 88.58
  Q 26.88 94.13 25.04 100.23
  Q 23.93 103.92 23.02 100.17
  Q 22.24 96.99 22.27 93.63
  Q 22.28 93.32 21.96 93.32
  L 16.95 93.32
  Q 16.66 93.32 16.66 93.60
  C 16.53 100.89 17.14 124.08 23.66 128.00
  L 0.00 128.00
  L 0.00 0.00
  Z
  M 7.59 34.16
  Q 8.38 34.63 8.47 37.26
  C 9.12 55.47 5.57 73.37 1.89 91.12
  Q 0.85 96.13 0.82 100.97
  Q 0.75 112.71 0.83 124.53
  Q 0.83 125.00 1.31 125.00
  L 14.50 125.00
  Q 15.01 125.00 15.01 124.50
  L 15.01 95.02
  Q 15.01 94.42 14.41 94.43
  L 9.28 94.52
  A 0.45 0.45 0.0 0 1 8.83 93.97
  Q 16.87 57.41 14.18 20.24
  Q 13.57 11.85 11.07 4.99
  Q 10.24 2.73 7.76 2.52
  A 0.97 0.96 -67.9 0 0 6.94 2.87
  C 3.65 6.92 2.84 13.47 2.28 18.51
  Q 0.60 33.43 0.78 48.22
  A 0.25 0.24 -1.2 0 0 1.03 48.45
  L 6.19 48.45
  Q 6.34 48.44 6.35 48.30
  L 6.96 34.50
  Q 6.99 33.80 7.59 34.16
  Z
  M 83.19 30.38
  L 82.59 30.22
  A 0.50 0.50 0.0 0 0 81.97 30.70
  Q 81.88 44.97 82.03 59.25
  Q 82.05 61.20 83.27 61.90
  Q 83.69 62.15 83.69 62.63
  Q 83.72 81.01 83.92 99.40
  C 84.01 107.32 84.60 116.14 87.12 123.69
  Q 88.26 127.14 91.84 126.93
  Q 92.29 126.90 92.29 126.46
  L 92.29 94.92
  Q 92.29 94.30 91.67 94.36
  L 90.77 94.44
  Q 90.31 94.49 90.24 94.03
  Q 89.96 92.01 89.93 90.00
  Q 89.76 75.99 89.84 61.96
  Q 89.84 61.46 90.34 61.52
  L 91.75 61.69
  Q 92.25 61.75 92.25 61.25
  L 92.26 30.52
  A 0.35 0.35 0.0 0 0 91.80 30.19
  Q 90.03 30.78 90.01 29.99
  Q 89.81 18.55 89.82 7.28
  A 0.28 0.28 0.0 0 0 89.54 7.00
  L 84.01 7.01
  Q 83.77 7.01 83.77 7.25
  L 83.76 29.94
  Q 83.76 30.53 83.19 30.38
  Z
  M 76.03 46.68
  L 75.99 30.52
  Q 75.99 30.34 75.81 30.34
  L 70.10 30.41
  A 0.22 0.21 0.0 0 0 69.88 30.62
  L 69.89 126.62
  Q 69.89 126.84 70.11 126.84
  L 75.76 126.84
  A 0.25 0.24 90.0 0 0 76.00 126.59
  Q 76.00 104.46 75.89 82.00
  Q 75.86 76.77 77.62 70.86
  A 1.31 1.31 0.0 0 1 79.59 70.14
  Q 80.07 70.45 80.46 70.31
  Q 80.99 70.10 80.99 69.53
  Q 81.06 49.84 81.01 30.15
  Q 81.01 29.97 80.92 29.88
  Q 80.80 29.76 80.61 29.74
  Q 80.26 29.71 80.10 30.02
  C 77.50 35.19 77.22 39.47 76.26 46.70
  A 0.12 0.11 49.4 0 1 76.03 46.68
  Z
  M 127.24 30.61
  A 0.26 0.26 0.0 0 0 126.98 30.35
  L 121.52 30.35
  A 0.26 0.26 0.0 0 0 121.26 30.61
  L 121.26 126.59
  A 0.26 0.26 0.0 0 0 121.52 126.85
  L 126.98 126.85
  A 0.26 0.26 0.0 0 0 127.24 126.59
  L 127.24 30.61
  Z
  M 100.21 90.85
  A 0.35 0.35 0.0 0 0 99.86 90.50
  L 94.56 90.50
  A 0.35 0.35 0.0 0 0 94.21 90.85
  L 94.21 126.49
  A 0.35 0.35 0.0 0 0 94.56 126.84
  L 99.86 126.84
  A 0.35 0.35 0.0 0 0 100.21 126.49
  L 100.21 90.85
  Z" fill="#ffffff"></path>
<path d="M 33.02 0.00
  L 39.05 0.00
  L 39.02 42.80
  Q 39.02 43.32 39.54 43.32
  L 39.82 43.32
  Q 40.09 43.32 40.06 43.05
  Q 39.46 36.24 42.53 30.43
  A 1.51 1.50 43.6 0 1 45.15 30.37
  C 47.06 33.59 47.31 36.43 47.77 40.03
  Q 49.53 53.83 49.53 67.75
  Q 49.53 97.11 49.48 126.58
  Q 49.48 126.86 49.20 126.86
  L 43.78 126.87
  Q 43.56 126.87 43.56 126.64
  Q 43.57 99.41 43.41 72.01
  C 43.39 69.13 43.44 63.17 41.54 60.93
  Q 40.84 60.11 40.54 61.14
  Q 39.21 65.74 39.19 70.37
  Q 39.02 98.60 39.06 126.64
  A 0.20 0.20 0.0 0 1 38.86 126.84
  L 33.23 126.84
  Q 33.00 126.84 33.00 126.61
  L 33.02 0.00
  Z" fill="#0169ee"></path>
<path d="M 7.59 34.16
  Q 6.99 33.80 6.96 34.50
  L 6.35 48.30
  Q 6.34 48.44 6.19 48.45
  L 1.03 48.45
  A 0.25 0.24 -1.2 0 1 0.78 48.22
  Q 0.60 33.43 2.28 18.51
  C 2.84 13.47 3.65 6.92 6.94 2.87
  A 0.97 0.96 -67.9 0 1 7.76 2.52
  Q 10.24 2.73 11.07 4.99
  Q 13.57 11.85 14.18 20.24
  Q 16.87 57.41 8.83 93.97
  A 0.45 0.45 0.0 0 0 9.28 94.52
  L 14.41 94.43
  Q 15.01 94.42 15.01 95.02
  L 15.01 124.50
  Q 15.01 125.00 14.50 125.00
  L 1.31 125.00
  Q 0.83 125.00 0.83 124.53
  Q 0.75 112.71 0.82 100.97
  Q 0.85 96.13 1.89 91.12
  C 5.57 73.37 9.12 55.47 8.47 37.26
  Q 8.38 34.63 7.59 34.16
  Z" fill="#0169ee"></path>
<path d="M 83.76 29.94
  L 83.77 7.25
  Q 83.77 7.01 84.01 7.01
  L 89.54 7.00
  A 0.28 0.28 0.0 0 1 89.82 7.28
  Q 89.81 18.55 90.01 29.99
  Q 90.03 30.78 91.80 30.19
  A 0.35 0.35 0.0 0 1 92.26 30.52
  L 92.25 61.25
  Q 92.25 61.75 91.75 61.69
  L 90.34 61.52
  Q 89.84 61.46 89.84 61.96
  Q 89.76 75.99 89.93 90.00
  Q 89.96 92.01 90.24 94.03
  Q 90.31 94.49 90.77 94.44
  L 91.67 94.36
  Q 92.29 94.30 92.29 94.92
  L 92.29 126.46
  Q 92.29 126.90 91.84 126.93
  Q 88.26 127.14 87.12 123.69
  C 84.60 116.14 84.01 107.32 83.92 99.40
  Q 83.72 81.01 83.69 62.63
  Q 83.69 62.15 83.27 61.90
  Q 82.05 61.20 82.03 59.25
  Q 81.88 44.97 81.97 30.70
  A 0.50 0.50 0.0 0 1 82.59 30.22
  L 83.19 30.38
  Q 83.76 30.53 83.76 29.94
  Z" fill="#0169ee"></path>
<path d="M 25.32 128.00
  L 23.66 128.00
  C 17.14 124.08 16.53 100.89 16.66 93.60
  Q 16.66 93.32 16.95 93.32
  L 21.96 93.32
  Q 22.28 93.32 22.27 93.63
  Q 22.24 96.99 23.02 100.17
  Q 23.93 103.92 25.04 100.23
  Q 26.88 94.13 21.66 88.58
  C 19.37 86.14 18.15 80.83 17.69 76.96
  Q 15.45 58.35 17.91 39.74
  Q 18.48 35.36 20.42 31.03
  Q 21.36 28.95 23.62 29.23
  Q 25.03 29.41 26.19 31.79
  Q 27.77 35.02 28.82 42.25
  Q 30.35 52.81 30.43 63.19
  Q 30.43 63.42 30.20 63.42
  L 25.22 63.38
  Q 24.83 63.38 24.84 62.98
  Q 25.04 59.01 23.44 55.41
  A 0.46 0.45 41.2 0 0 22.58 55.46
  C 19.93 64.71 26.20 66.59 28.43 74.26
  C 31.81 85.93 31.09 100.57 30.01 113.75
  Q 29.27 122.69 25.32 128.00
  Z" fill="#0169ee"></path>
<path d="M 108.42 128.00
  L 107.29 128.00
  Q 104.74 123.95 103.97 118.50
  Q 102.55 108.43 102.14 98.24
  C 101.44 80.33 101.45 62.57 103.19 44.70
  C 103.62 40.25 104.60 31.63 107.63 28.99
  Q 108.00 28.67 108.36 29.00
  C 111.32 31.78 111.54 37.72 112.38 41.51
  A 0.06 0.06 0.0 0 0 112.50 41.49
  L 112.45 30.72
  Q 112.45 30.39 112.78 30.39
  L 118.17 30.34
  Q 118.32 30.34 118.32 30.49
  L 118.32 126.75
  Q 118.32 126.91 118.16 126.90
  L 112.71 126.75
  Q 112.42 126.74 112.42 126.46
  L 112.54 115.75
  Q 112.54 115.58 112.46 115.57
  L 112.46 115.57
  Q 112.28 115.55 112.24 115.72
  C 111.42 119.79 111.25 124.74 108.42 128.00
  Z
  M 110.0700 94.7400
  A 16.31 2.35 90.0 0 0 112.4200 78.4300
  A 16.31 2.35 90.0 0 0 110.0700 62.1200
  A 16.31 2.35 90.0 0 0 107.7200 78.4300
  A 16.31 2.35 90.0 0 0 110.0700 94.7400
  Z" fill="#0169ee"></path>
<path d="M 60.62 128.00
  L 58.84 128.00
  C 54.76 123.80 53.90 115.98 53.29 110.36
  Q 50.50 84.74 51.97 59.00
  C 52.21 54.85 54.08 30.58 58.77 29.55
  Q 60.82 29.10 61.56 30.32
  C 65.36 36.61 66.17 45.31 66.77 52.50
  C 68.56 73.92 68.68 96.68 64.87 117.89
  Q 63.77 124.08 60.62 128.00
  Z
  M 59.6500 95.3300
  A 16.78 2.15 90.0 0 0 61.8000 78.5500
  A 16.78 2.15 90.0 0 0 59.6500 61.7700
  A 16.78 2.15 90.0 0 0 57.5000 78.5500
  A 16.78 2.15 90.0 0 0 59.6500 95.3300
  Z" fill="#0169ee"></path>
<path d="M 76.26 46.70
  C 77.22 39.47 77.50 35.19 80.10 30.02
  Q 80.26 29.71 80.61 29.74
  Q 80.80 29.76 80.92 29.88
  Q 81.01 29.97 81.01 30.15
  Q 81.06 49.84 80.99 69.53
  Q 80.99 70.10 80.46 70.31
  Q 80.07 70.45 79.59 70.14
  A 1.31 1.31 0.0 0 0 77.62 70.86
  Q 75.86 76.77 75.89 82.00
  Q 76.00 104.46 76.00 126.59
  A 0.25 0.24 90.0 0 1 75.76 126.84
  L 70.11 126.84
  Q 69.89 126.84 69.89 126.62
  L 69.88 30.62
  A 0.22 0.21 -0.0 0 1 70.10 30.41
  L 75.81 30.34
  Q 75.99 30.34 75.99 30.52
  L 76.03 46.68
  A 0.12 0.11 49.4 0 0 76.26 46.70
  Z" fill="#0169ee"></path>
<rect rx="0.26" height="96.50" width="5.98" y="30.35" x="121.26" fill="#0169ee"></rect>
<ellipse ry="2.15" rx="16.78" transform="translate(59.65,78.55) rotate(90.0)" cy="0.00" cx="0.00" fill="#ffffff"></ellipse>
<ellipse ry="2.35" rx="16.31" transform="translate(110.07,78.43) rotate(90.0)" cy="0.00" cx="0.00" fill="#ffffff"></ellipse>
<rect rx="0.35" height="36.34" width="6.00" y="90.50" x="94.21" fill="#0169ee"></rect>
</svg>
