<svg viewBox="0.00 0.00 128.00 128.00" version="1.1" xmlns="http://www.w3.org/2000/svg">
<g stroke-linecap="butt" fill="none" stroke-width="2.00">
<path d="M 28.27 0.00
  Q 27.73 0.98 28.25 1.47
  Q 28.49 1.70 28.58 2.02
  L 30.45 8.91
  Q 30.56 9.32 30.88 9.59
  Q 31.91 10.48 31.90 11.86
  Q 31.90 12.38 32.23 12.77
  L 43.49 26.17" stroke="#d055c6"></path>
<path d="M 43.49 26.17
  L 38.36 51.31" stroke="#e1a4dc"></path>
<path d="M 38.36 51.31
  Q 36.64 49.96 34.82 49.60
  Q 34.36 49.51 34.01 49.23
  Q 33.51 48.84 32.94 48.66
  Q 31.50 48.22 31.18 48.00
  Q 30.00 47.19 29.14 45.98
  Q 28.85 45.58 28.42 45.35
  C 25.96 44.11 22.86 42.64 21.10 40.51
  Q 20.78 40.13 20.28 40.11
  Q 18.79 40.07 15.51 40.35
  Q 14.13 40.47 12.72 39.43
  Q 12.33 39.14 11.84 39.09
  Q 8.97 38.85 6.91 36.86
  Q 6.58 36.54 6.12 36.48
  L 3.27 36.08
  Q 3.12 36.06 3.12 35.91
  L 3.12 35.55
  Q 3.12 35.27 2.84 35.19
  Q 2.21 35.01 1.58 35.22
  Q 1.48 35.25 1.47 35.35
  Q 1.46 35.49 1.58 35.59
  Q 1.63 35.63 1.57 35.66
  Q 0.41 36.06 0.00 36.87" stroke="#ad43b1"></path>
<path d="M 45.99 0.00
  Q 46.39 2.78 47.98 5.79
  Q 48.57 6.90 48.02 10.90
  A 0.80 0.77 34.7 0 0 48.12 11.41
  L 54.27 21.70
  A 2.12 2.11 -13.5 0 0 55.96 22.73
  Q 57.91 22.87 57.88 24.31" stroke="#e76bdc"></path>
<path d="M 57.88 24.31
  C 54.35 24.38 45.70 23.42 43.49 26.17" stroke="#efafe8"></path>
<path d="M 67.81 0.00
  Q 66.86 3.33 67.36 7.21
  Q 67.42 7.67 67.74 8.01
  C 68.62 8.95 67.91 13.55 68.97 15.58
  Q 69.53 16.65 69.94 17.78
  C 70.65 19.70 72.01 20.83 72.97 22.62
  Q 73.03 22.74 72.94 22.84
  Q 72.80 22.98 72.65 23.01
  Q 72.36 23.06 72.48 23.33
  L 72.94 24.39" stroke="#f58cf2"></path>
<path d="M 72.94 24.39
  L 57.88 24.31" stroke="#f7baf2"></path>
<path d="M 128.00 25.94
  L 122.39 25.16
  A 1.24 1.20 -53.7 0 0 121.68 25.28
  C 118.86 26.75 116.46 25.57 113.55 26.42
  Q 113.11 26.55 112.66 26.42
  Q 110.35 25.76 108.20 27.13
  Q 108.07 27.21 107.94 27.13
  Q 107.72 26.99 107.65 26.82
  Q 107.53 26.53 107.23 26.60
  L 104.75 27.18
  A 0.53 0.53 0.0 0 0 104.59 28.14
  Q 105.95 29.02 105.84 30.66
  Q 105.79 31.40 105.05 31.36
  Q 101.62 31.15 100.48 32.06
  Q 100.10 32.37 99.61 32.51
  Q 98.06 32.93 96.59 32.60
  Q 96.13 32.49 95.77 32.20
  Q 95.16 31.70 94.58 32.14
  A 2.71 2.70 -33.1 0 1 90.59 31.30
  Q 90.51 31.16 89.26 31.10" stroke="#e6a1fd"></path>
<path d="M 89.26 31.10
  C 92.73 29.69 91.95 24.63 87.74 24.56
  Q 76.66 24.37 72.94 24.39" stroke="#fdd0fe"></path>
<path d="M 89.26 31.10
  L 72.17 31.31" stroke="#e9cffd"></path>
<path d="M 72.17 31.31
  L 50.43 31.28
  A 0.92 0.92 0.0 0 0 49.53 32.00
  L 43.85 56.74
  Q 43.42 58.64 44.99 57.49
  Q 50.49 53.50 57.97 52.27
  Q 71.48 50.03 82.62 56.06" stroke="#dfbaef"></path>
<path d="M 82.62 56.06
  L 89.56 62.48" stroke="#d1ccfc"></path>
<path d="M 89.56 62.48
  Q 93.71 69.19 93.86 76.50" stroke="#becbfc"></path>
<path d="M 93.86 76.50
  L 93.41 83.75" stroke="#adcbfc"></path>
<path d="M 93.41 83.75
  Q 91.21 93.79 82.53 99.11" stroke="#83c9fc"></path>
<path d="M 82.53 99.11
  Q 75.03 103.24 66.21 103.63" stroke="#8cb7eb"></path>
<path d="M 66.21 103.63
  Q 54.48 104.33 44.32 98.97" stroke="#93a2d6"></path>
<path d="M 44.32 98.97
  L 38.27 94.26" stroke="#9893c5"></path>
<path d="M 38.27 94.26
  Q 35.14 91.34 34.00 87.63" stroke="#a395c7"></path>
<path d="M 34.00 87.63
  Q 34.23 84.72 36.99 83.75" stroke="#b597cb"></path>
<path d="M 36.99 83.75
  Q 39.24 83.55 40.04 84.71
  Q 48.59 97.13 64.02 96.44" stroke="#ada6da"></path>
<path d="M 64.02 96.44
  C 74.28 96.99 84.30 92.07 86.02 81.51
  C 89.46 60.42 67.47 55.68 52.50 60.75" stroke="#b4b5e9"></path>
<path d="M 52.50 60.75
  Q 46.98 62.73 43.00 66.21
  Q 40.53 68.37 37.75 67.33" stroke="#ada6da"></path>
<path d="M 37.75 67.33
  Q 36.20 66.62 35.95 63.51" stroke="#b597cb"></path>
<path d="M 35.95 63.51
  L 38.36 51.31" stroke="#cb9dd3"></path>
<path d="M 128.00 48.04
  Q 119.42 46.67 111.33 49.31
  Q 110.90 49.45 110.69 49.86
  Q 110.32 50.57 109.47 50.41
  Q 106.24 49.80 103.76 50.11
  Q 103.28 50.16 102.90 49.86
  Q 101.85 49.00 100.66 49.61
  Q 100.18 49.86 99.93 49.38
  Q 99.44 48.39 98.23 48.49
  C 95.95 48.68 93.67 48.42 91.37 48.75
  Q 91.23 48.77 91.23 48.88
  Q 91.23 48.94 91.25 48.99
  Q 91.31 49.12 91.18 49.11
  Q 90.76 49.10 90.47 49.29" stroke="#bb9dfb"></path>
<path d="M 90.47 49.29
  L 90.02 49.27
  Q 89.56 49.26 89.35 48.85
  L 88.69 47.55
  Q 88.53 47.24 88.19 47.16
  Q 87.41 46.96 87.49 46.04
  Q 87.50 45.92 87.62 45.91
  Q 87.76 45.89 87.88 45.89
  A 0.33 0.14 34.2 0 0 87.61 45.48
  Q 87.12 45.29 86.78 44.86
  Q 86.40 44.39 87.01 44.39
  L 87.74 44.39
  A 0.41 0.40 59.3 0 0 87.93 43.63
  Q 87.06 43.14 86.43 42.37
  Q 86.10 41.97 85.60 41.88
  Q 84.34 41.66 83.11 41.88
  Q 82.91 41.92 82.96 42.11
  Q 83.00 42.25 82.96 42.36
  Q 82.84 42.72 82.52 42.52
  L 78.64 40.09
  Q 78.13 39.77 78.73 39.75
  Q 78.90 39.75 79.07 39.74
  Q 79.30 39.72 79.20 39.51
  L 78.62 38.30
  Q 78.15 37.33 79.06 37.92
  L 79.42 38.15
  Q 79.84 38.42 79.72 37.94
  L 79.60 37.45
  Q 79.53 37.16 79.81 37.25
  L 80.12 37.35
  Q 80.74 37.54 80.29 37.07
  Q 79.47 36.23 79.54 35.02
  Q 79.57 34.52 79.19 34.19
  Q 77.78 32.96 76.02 32.60
  Q 75.74 32.54 75.61 32.35
  Q 75.37 32.02 75.77 31.91
  Q 76.16 31.82 76.48 31.86
  Q 76.56 31.88 76.48 31.88
  Q 74.38 31.92 72.17 31.31" stroke="#c98bee"></path>
<path d="M 90.47 49.29
  Q 90.44 49.56 90.52 49.71
  Q 90.68 50.03 91.02 49.92
  Q 92.18 49.54 92.78 50.13
  Q 92.98 50.33 93.06 50.60
  Q 93.15 50.94 93.12 51.30
  Q 93.08 51.67 92.71 51.62
  Q 91.87 51.49 91.42 52.08
  Q 91.10 52.50 90.59 52.41
  Q 89.22 52.15 88.46 53.24
  Q 87.75 54.26 88.94 53.91
  Q 89.89 53.64 90.62 54.12
  A 0.29 0.29 0.0 0 1 90.54 54.65
  Q 89.98 54.80 89.60 55.09
  Q 89.21 55.40 88.73 55.29
  Q 85.07 54.48 82.62 56.06" stroke="#b188ed"></path>
<path d="M 35.95 63.51
  Q 34.39 62.61 32.50 61.64
  Q 32.37 61.57 32.27 61.60
  Q 32.13 61.63 32.06 61.76
  Q 31.94 61.96 31.73 61.86
  Q 29.73 60.97 27.66 60.23
  Q 24.59 59.14 22.24 56.86
  Q 21.90 56.52 21.42 56.43
  Q 20.05 56.16 18.75 55.70
  C 16.26 54.81 13.99 55.28 11.90 52.96
  Q 11.60 52.63 11.15 52.56
  L 8.01 52.07
  A 0.44 0.28 36.9 0 1 7.75 51.38
  L 8.19 51.38
  Q 8.43 51.38 8.32 51.16
  Q 8.19 50.90 7.87 50.88
  Q 7.19 50.84 5.46 50.87
  C 3.60 50.89 1.97 50.08 0.00 50.03" stroke="#81359f"></path>
<path d="M 128.00 60.21
  L 113.04 59.11
  Q 112.57 59.08 112.27 59.45
  Q 111.68 60.18 110.51 59.94
  Q 109.12 59.66 107.59 60.53
  A 1.32 1.31 -54.5 0 1 106.72 60.68
  L 103.46 60.13
  Q 102.99 60.05 102.51 60.14
  L 89.56 62.48" stroke="#9099fa"></path>
<path d="M 37.75 67.33
  Q 37.91 67.56 37.88 67.83
  Q 37.82 68.50 37.17 68.35
  Q 36.79 68.26 36.48 68.50
  Q 35.91 68.91 35.87 68.99
  Q 35.55 69.51 35.49 70.13
  Q 35.47 70.38 35.57 70.60
  Q 35.68 70.84 35.61 71.12
  Q 35.55 71.38 35.81 71.38
  Q 35.96 71.39 36.10 71.39
  Q 36.63 71.38 36.80 71.88
  Q 37.19 72.95 36.27 73.57
  Q 35.88 73.84 36.27 74.11
  L 37.68 75.08
  Q 38.06 75.35 38.22 75.79
  Q 38.55 76.74 38.21 77.64
  Q 38.09 77.97 38.24 78.29
  Q 38.54 78.91 37.91 79.44
  Q 37.54 79.74 37.71 80.19
  Q 38.45 82.17 36.99 83.75" stroke="#633fa6"></path>
<path d="M 34.00 87.63
  Q 33.22 86.99 32.41 86.29
  Q 31.81 85.77 30.73 85.14
  Q 28.51 83.83 27.06 81.63
  Q 26.78 81.20 26.27 81.19
  Q 25.06 81.17 24.04 80.45
  Q 23.94 80.39 23.83 80.38
  Q 23.35 80.38 23.56 80.76
  Q 23.91 81.38 23.00 80.89
  Q 21.51 80.08 19.83 80.79
  Q 19.77 80.81 19.77 80.87
  Q 19.77 80.90 19.77 80.93
  Q 19.78 81.05 19.73 81.06
  Q 18.04 81.44 16.36 81.84
  Q 15.89 81.95 15.49 81.68
  Q 14.68 81.13 13.79 81.42
  Q 13.36 81.56 12.91 81.58
  Q 10.48 81.68 8.11 81.98
  Q 8.03 81.99 8.00 82.07
  Q 7.93 82.26 8.16 82.39
  A 0.04 0.03 -20.8 0 1 8.13 82.45
  Q 6.47 82.07 4.84 82.47
  Q 4.42 82.57 3.99 82.46
  L 1.49 81.84
  Q 1.41 81.82 1.37 81.75
  Q 1.30 81.61 1.24 81.48
  A 0.20 0.20 0.0 0 0 0.88 81.49
  Q 0.55 82.34 0.00 82.65" stroke="#592d94"></path>
<path d="M 64.02 96.44
  Q 64.90 95.91 66.13 95.70
  Q 66.30 95.67 66.26 95.49
  L 66.19 95.18
  Q 66.16 95.05 66.29 95.08
  Q 67.40 95.34 68.35 94.76
  A 0.15 0.15 0.0 0 0 68.29 94.48
  Q 67.57 94.42 67.72 93.96
  Q 67.83 93.63 67.55 93.42
  Q 65.24 91.65 65.86 88.80
  Q 65.88 88.67 66.00 88.73
  Q 66.11 88.78 66.23 88.84
  A 0.43 0.42 15.8 0 0 66.83 88.51
  Q 67.19 85.54 64.21 84.68
  Q 64.06 84.63 64.01 84.78
  L 63.87 85.15
  A 0.11 0.11 0.0 0 1 63.70 85.20
  Q 63.12 84.66 62.40 84.58
  Q 61.92 84.53 61.87 84.05
  Q 61.84 83.74 61.60 83.66
  Q 61.08 83.49 61.24 82.97
  Q 61.46 82.29 61.36 81.54
  A 0.55 0.55 0.0 0 0 60.84 81.06
  Q 60.09 81.03 59.46 80.26
  Q 58.93 79.62 58.91 79.52
  Q 58.81 79.02 58.42 78.78
  Q 57.80 78.41 57.73 78.33
  Q 57.36 77.86 57.39 77.31
  Q 57.41 76.87 57.13 76.53
  C 56.16 75.38 55.38 74.08 56.09 72.75
  Q 56.30 72.37 56.16 71.96
  Q 55.98 71.40 56.28 70.90
  Q 56.46 70.61 56.71 70.84
  Q 56.88 71.00 57.03 71.05
  Q 57.24 71.13 57.00 70.72
  Q 56.87 70.49 56.59 69.95
  A 0.98 0.96 -41.7 0 1 56.66 68.92
  Q 57.08 68.32 56.84 67.67
  Q 56.71 67.33 56.43 67.08
  Q 55.55 66.32 54.92 65.29
  Q 54.89 65.23 54.92 65.16
  Q 54.98 65.02 55.07 64.95
  Q 55.21 64.84 55.18 64.66
  Q 55.01 63.90 54.25 64.12
  A 0.93 0.92 60.6 0 1 53.31 63.85
  Q 52.09 62.46 52.50 60.75" stroke="#625dc4"></path>
<path d="M 128.00 70.80
  C 125.86 70.07 121.47 69.35 119.97 71.59
  Q 119.71 71.98 119.24 71.92
  L 112.76 71.14
  A 1.62 1.59 -56.5 0 0 111.73 71.36
  Q 110.92 71.85 109.93 71.60
  A 0.14 0.14 0.0 0 0 109.76 71.74
  Q 109.76 71.88 109.76 72.02
  Q 109.76 72.26 109.53 72.30
  L 103.24 73.59
  Q 102.84 73.67 102.48 73.49
  Q 101.06 72.81 99.45 73.24
  Q 98.96 73.38 98.46 73.27
  Q 96.74 72.92 94.99 73.45
  Q 94.55 73.59 94.47 74.04
  Q 94.42 74.31 94.46 74.54
  Q 94.51 74.77 94.29 74.87
  Q 93.84 75.08 93.86 76.50" stroke="#6c98fa"></path>
<path d="M 128.00 80.53
  Q 122.93 80.16 116.74 80.60
  C 115.22 80.71 114.33 81.66 113.17 81.70
  Q 112.24 81.73 111.90 81.08
  Q 111.68 80.66 111.20 80.63
  L 105.64 80.27
  A 0.22 0.21 -28.2 0 1 105.53 80.24
  Q 104.36 79.49 103.21 80.17
  Q 102.78 80.42 102.29 80.34
  L 95.89 79.33
  A 1.10 1.10 0.0 0 0 94.69 80.82
  Q 95.67 83.32 93.41 83.75" stroke="#3195fa"></path>
<path d="M 91.61 128.00
  L 92.14 115.73
  Q 92.15 115.61 92.03 115.61
  Q 91.87 115.61 91.72 115.60
  Q 91.46 115.60 91.43 115.35
  Q 91.25 113.60 91.64 111.91
  Q 91.74 111.47 91.31 111.61
  L 90.00 112.03
  Q 89.64 112.15 89.62 111.77
  Q 89.61 111.63 89.61 111.51
  Q 89.62 111.05 88.98 111.04
  Q 88.81 111.04 88.55 110.72
  Q 88.23 110.34 88.55 109.96
  Q 89.06 109.34 88.85 108.52
  A 0.63 0.63 0.0 0 1 89.14 107.83
  L 89.90 107.36
  Q 90.26 107.14 90.29 106.72
  L 90.60 101.87
  Q 90.61 101.76 90.51 101.70
  Q 90.39 101.63 90.26 101.65
  Q 90.04 101.67 89.95 101.47
  L 89.03 99.58
  Q 88.88 99.28 88.58 99.14
  Q 88.43 99.07 88.29 98.95
  Q 87.97 98.66 87.62 98.92
  Q 87.26 99.20 86.91 99.12
  Q 86.25 98.99 86.00 99.00
  L 82.53 99.11" stroke="#1082e9"></path>
<path d="M 38.27 94.26
  Q 38.35 95.20 37.58 95.47
  Q 37.24 95.58 36.91 95.44
  Q 36.68 95.34 36.63 95.67
  Q 36.57 96.10 36.13 96.13
  Q 35.00 96.21 34.21 97.04
  Q 33.84 97.42 33.32 97.34
  Q 32.87 97.28 32.52 97.70
  Q 32.19 98.10 32.16 98.62
  L 31.84 104.19
  Q 31.81 104.62 31.41 104.80
  Q 30.20 105.31 28.90 105.10
  Q 28.37 105.02 28.37 104.49
  L 28.37 103.78
  A 0.50 0.49 -20.6 0 0 27.55 103.41
  Q 26.96 103.93 26.26 103.37
  Q 25.84 103.04 25.88 102.50
  Q 25.95 101.67 25.42 101.00
  Q 25.14 100.63 24.67 100.63
  Q 24.22 100.64 23.82 100.85
  Q 23.24 101.15 23.14 100.50
  L 22.55 96.56
  Q 22.49 96.12 22.05 96.12
  L 15.94 96.12
  Q 15.76 96.12 15.70 95.95
  Q 15.64 95.79 15.66 95.67
  Q 15.70 95.46 15.51 95.39
  Q 14.65 95.06 13.75 95.09
  Q 13.35 95.10 13.00 94.89
  Q 12.33 94.48 11.91 93.82
  Q 11.63 93.37 11.10 93.37
  Q 10.13 93.37 9.86 92.58
  Q 9.72 92.19 9.30 92.16
  Q 7.92 92.04 7.60 90.71
  Q 7.52 90.37 7.17 90.37
  L 6.82 90.37
  Q 6.47 90.37 6.17 90.19
  Q 4.15 88.92 3.63 90.06
  Q 3.48 90.39 3.14 90.28
  Q 1.29 89.67 0.00 90.17" stroke="#3b2a8e"></path>
<path d="M 44.32 98.97
  C 43.16 100.68 41.33 102.00 42.11 104.25
  Q 42.27 104.72 41.78 104.83
  Q 41.20 104.95 41.09 105.48
  A 1.36 0.30 -75.9 0 0 41.06 106.52
  Q 41.52 107.40 41.20 108.23
  A 0.61 0.60 8.8 0 1 40.66 108.62
  Q 38.86 108.74 39.14 110.49
  Q 39.20 110.88 38.81 110.92
  Q 37.90 111.02 37.65 111.67
  Q 37.51 112.01 37.22 111.78
  Q 37.00 111.61 36.97 111.19
  Q 36.94 110.77 36.53 110.77
  Q 36.20 110.77 36.22 110.41
  Q 36.24 109.85 35.68 109.79
  Q 34.80 109.70 34.77 110.67
  A 0.26 0.26 0.0 0 1 34.25 110.71
  Q 34.21 110.53 34.10 110.43
  Q 33.80 110.17 33.64 110.53
  Q 33.33 111.23 32.48 111.34
  Q 32.12 111.39 32.12 111.75
  L 32.12 115.50
  Q 32.12 116.03 31.73 116.39
  Q 30.50 117.54 30.63 119.36
  Q 30.66 119.89 30.13 119.85
  Q 29.72 119.81 29.64 120.35
  Q 29.57 120.79 29.63 121.23
  Q 29.68 121.59 29.56 121.98
  Q 29.42 122.46 29.61 122.91
  Q 30.80 125.81 29.95 128.00" stroke="#2b379d"></path>
<path d="M 64.66 128.00
  Q 64.88 126.01 64.10 124.08
  Q 63.89 123.58 64.18 123.13
  Q 64.63 122.43 64.68 121.64
  Q 64.71 121.24 64.56 120.87
  C 63.08 117.16 63.88 108.89 63.88 106.37
  Q 63.88 105.88 64.36 105.75
  Q 65.86 105.33 66.21 103.63" stroke="#205bc2"></path>
</g>
<path d="M 0.00 0.00
  L 28.27 0.00
  Q 27.73 0.98 28.25 1.47
  Q 28.49 1.70 28.58 2.02
  L 30.45 8.91
  Q 30.56 9.32 30.88 9.59
  Q 31.91 10.48 31.90 11.86
  Q 31.90 12.38 32.23 12.77
  L 43.49 26.17
  L 38.36 51.31
  Q 36.64 49.96 34.82 49.60
  Q 34.36 49.51 34.01 49.23
  Q 33.51 48.84 32.94 48.66
  Q 31.50 48.22 31.18 48.00
  Q 30.00 47.19 29.14 45.98
  Q 28.85 45.58 28.42 45.35
  C 25.96 44.11 22.86 42.64 21.10 40.51
  Q 20.78 40.13 20.28 40.11
  Q 18.79 40.07 15.51 40.35
  Q 14.13 40.47 12.72 39.43
  Q 12.33 39.14 11.84 39.09
  Q 8.97 38.85 6.91 36.86
  Q 6.58 36.54 6.12 36.48
  L 3.27 36.08
  Q 3.12 36.06 3.12 35.91
  L 3.12 35.55
  Q 3.12 35.27 2.84 35.19
  Q 2.21 35.01 1.58 35.22
  Q 1.48 35.25 1.47 35.35
  Q 1.46 35.49 1.58 35.59
  Q 1.63 35.63 1.57 35.66
  Q 0.41 36.06 0.00 36.87
  L 0.00 0.00
  Z" fill="#c24aba"></path>
<path d="M 28.27 0.00
  L 45.99 0.00
  Q 46.39 2.78 47.98 5.79
  Q 48.57 6.90 48.02 10.90
  A 0.80 0.77 34.7 0 0 48.12 11.41
  L 54.27 21.70
  A 2.12 2.11 -13.5 0 0 55.96 22.73
  Q 57.91 22.87 57.88 24.31
  C 54.35 24.38 45.70 23.42 43.49 26.17
  L 32.23 12.77
  Q 31.90 12.38 31.90 11.86
  Q 31.91 10.48 30.88 9.59
  Q 30.56 9.32 30.45 8.91
  L 28.58 2.02
  Q 28.49 1.70 28.25 1.47
  Q 27.73 0.98 28.27 0.00
  Z" fill="#de60d2"></path>
<path d="M 45.99 0.00
  L 67.81 0.00
  Q 66.86 3.33 67.36 7.21
  Q 67.42 7.67 67.74 8.01
  C 68.62 8.95 67.91 13.55 68.97 15.58
  Q 69.53 16.65 69.94 17.78
  C 70.65 19.70 72.01 20.83 72.97 22.62
  Q 73.03 22.74 72.94 22.84
  Q 72.80 22.98 72.65 23.01
  Q 72.36 23.06 72.48 23.33
  L 72.94 24.39
  L 57.88 24.31
  Q 57.91 22.87 55.96 22.73
  A 2.12 2.11 -13.5 0 1 54.27 21.70
  L 48.12 11.41
  A 0.80 0.77 34.7 0 1 48.02 10.90
  Q 48.57 6.90 47.98 5.79
  Q 46.39 2.78 45.99 0.00
  Z" fill="#ef76e6"></path>
<path d="M 67.81 0.00
  L 128.00 0.00
  L 128.00 25.94
  L 122.39 25.16
  A 1.24 1.20 -53.7 0 0 121.68 25.28
  C 118.86 26.75 116.46 25.57 113.55 26.42
  Q 113.11 26.55 112.66 26.42
  Q 110.35 25.76 108.20 27.13
  Q 108.07 27.21 107.94 27.13
  Q 107.72 26.99 107.65 26.82
  Q 107.53 26.53 107.23 26.60
  L 104.75 27.18
  A 0.53 0.53 0.0 0 0 104.59 28.14
  Q 105.95 29.02 105.84 30.66
  Q 105.79 31.40 105.05 31.36
  Q 101.62 31.15 100.48 32.06
  Q 100.10 32.37 99.61 32.51
  Q 98.06 32.93 96.59 32.60
  Q 96.13 32.49 95.77 32.20
  Q 95.16 31.70 94.58 32.14
  A 2.71 2.70 -33.1 0 1 90.59 31.30
  Q 90.51 31.16 89.26 31.10
  C 92.73 29.69 91.95 24.63 87.74 24.56
  Q 76.66 24.37 72.94 24.39
  L 72.48 23.33
  Q 72.36 23.06 72.65 23.01
  Q 72.80 22.98 72.94 22.84
  Q 73.03 22.74 72.97 22.62
  C 72.01 20.83 70.65 19.70 69.94 17.78
  Q 69.53 16.65 68.97 15.58
  C 67.91 13.55 68.62 8.95 67.74 8.01
  Q 67.42 7.67 67.36 7.21
  Q 66.86 3.33 67.81 0.00
  Z" fill="#faa2fd"></path>
<path d="M 57.88 24.31
  L 72.94 24.39
  Q 76.66 24.37 87.74 24.56
  C 91.95 24.63 92.73 29.69 89.26 31.10
  L 72.17 31.31
  L 50.43 31.28
  A 0.92 0.92 0.0 0 0 49.53 32.00
  L 43.85 56.74
  Q 43.42 58.64 44.99 57.49
  Q 50.49 53.50 57.97 52.27
  Q 71.48 50.03 82.62 56.06
  L 89.56 62.48
  Q 93.71 69.19 93.86 76.50
  L 93.41 83.75
  Q 91.21 93.79 82.53 99.11
  Q 75.03 103.24 66.21 103.63
  Q 54.48 104.33 44.32 98.97
  L 38.27 94.26
  Q 35.14 91.34 34.00 87.63
  Q 34.23 84.72 36.99 83.75
  Q 39.24 83.55 40.04 84.71
  Q 48.59 97.13 64.02 96.44
  C 74.28 96.99 84.30 92.07 86.02 81.51
  C 89.46 60.42 67.47 55.68 52.50 60.75
  Q 46.98 62.73 43.00 66.21
  Q 40.53 68.37 37.75 67.33
  Q 36.20 66.62 35.95 63.51
  L 38.36 51.31
  L 43.49 26.17
  C 45.70 23.42 54.35 24.38 57.88 24.31
  Z" fill="#fffefe"></path>
<path d="M 128.00 25.94
  L 128.00 48.04
  Q 119.42 46.67 111.33 49.31
  Q 110.90 49.45 110.69 49.86
  Q 110.32 50.57 109.47 50.41
  Q 106.24 49.80 103.76 50.11
  Q 103.28 50.16 102.90 49.86
  Q 101.85 49.00 100.66 49.61
  Q 100.18 49.86 99.93 49.38
  Q 99.44 48.39 98.23 48.49
  C 95.95 48.68 93.67 48.42 91.37 48.75
  Q 91.23 48.77 91.23 48.88
  Q 91.23 48.94 91.25 48.99
  Q 91.31 49.12 91.18 49.11
  Q 90.76 49.10 90.47 49.29
  L 90.02 49.27
  Q 89.56 49.26 89.35 48.85
  L 88.69 47.55
  Q 88.53 47.24 88.19 47.16
  Q 87.41 46.96 87.49 46.04
  Q 87.50 45.92 87.62 45.91
  Q 87.76 45.89 87.88 45.89
  A 0.33 0.14 34.2 0 0 87.61 45.48
  Q 87.12 45.29 86.78 44.86
  Q 86.40 44.39 87.01 44.39
  L 87.74 44.39
  A 0.41 0.40 59.3 0 0 87.93 43.63
  Q 87.06 43.14 86.43 42.37
  Q 86.10 41.97 85.60 41.88
  Q 84.34 41.66 83.11 41.88
  Q 82.91 41.92 82.96 42.11
  Q 83.00 42.25 82.96 42.36
  Q 82.84 42.72 82.52 42.52
  L 78.64 40.09
  Q 78.13 39.77 78.73 39.75
  Q 78.90 39.75 79.07 39.74
  Q 79.30 39.72 79.20 39.51
  L 78.62 38.30
  Q 78.15 37.33 79.06 37.92
  L 79.42 38.15
  Q 79.84 38.42 79.72 37.94
  L 79.60 37.45
  Q 79.53 37.16 79.81 37.25
  L 80.12 37.35
  Q 80.74 37.54 80.29 37.07
  Q 79.47 36.23 79.54 35.02
  Q 79.57 34.52 79.19 34.19
  Q 77.78 32.96 76.02 32.60
  Q 75.74 32.54 75.61 32.35
  Q 75.37 32.02 75.77 31.91
  Q 76.16 31.82 76.48 31.86
  Q 76.56 31.88 76.48 31.88
  Q 74.38 31.92 72.17 31.31
  L 89.26 31.10
  Q 90.51 31.16 90.59 31.30
  A 2.71 2.70 -33.1 0 0 94.58 32.14
  Q 95.16 31.70 95.77 32.20
  Q 96.13 32.49 96.59 32.60
  Q 98.06 32.93 99.61 32.51
  Q 100.10 32.37 100.48 32.06
  Q 101.62 31.15 105.05 31.36
  Q 105.79 31.40 105.84 30.66
  Q 105.95 29.02 104.59 28.14
  A 0.53 0.53 0.0 0 1 104.75 27.18
  L 107.23 26.60
  Q 107.53 26.53 107.65 26.82
  Q 107.72 26.99 107.94 27.13
  Q 108.07 27.21 108.20 27.13
  Q 110.35 25.76 112.66 26.42
  Q 113.11 26.55 113.55 26.42
  C 116.46 25.57 118.86 26.75 121.68 25.28
  A 1.24 1.20 -53.7 0 1 122.39 25.16
  L 128.00 25.94
  Z" fill="#d2a0fc"></path>
<path d="M 72.17 31.31
  Q 74.38 31.92 76.48 31.88
  Q 76.56 31.88 76.48 31.86
  Q 76.16 31.82 75.77 31.91
  Q 75.37 32.02 75.61 32.35
  Q 75.74 32.54 76.02 32.60
  Q 77.78 32.96 79.19 34.19
  Q 79.57 34.52 79.54 35.02
  Q 79.47 36.23 80.29 37.07
  Q 80.74 37.54 80.12 37.35
  L 79.81 37.25
  Q 79.53 37.16 79.60 37.45
  L 79.72 37.94
  Q 79.84 38.42 79.42 38.15
  L 79.06 37.92
  Q 78.15 37.33 78.62 38.30
  L 79.20 39.51
  Q 79.30 39.72 79.07 39.74
  Q 78.90 39.75 78.73 39.75
  Q 78.13 39.77 78.64 40.09
  L 82.52 42.52
  Q 82.84 42.72 82.96 42.36
  Q 83.00 42.25 82.96 42.11
  Q 82.91 41.92 83.11 41.88
  Q 84.34 41.66 85.60 41.88
  Q 86.10 41.97 86.43 42.37
  Q 87.06 43.14 87.93 43.63
  A 0.41 0.40 59.3 0 1 87.74 44.39
  L 87.01 44.39
  Q 86.40 44.39 86.78 44.86
  Q 87.12 45.29 87.61 45.48
  A 0.33 0.14 34.2 0 1 87.88 45.89
  Q 87.76 45.89 87.62 45.91
  Q 87.50 45.92 87.49 46.04
  Q 87.41 46.96 88.19 47.16
  Q 88.53 47.24 88.69 47.55
  L 89.35 48.85
  Q 89.56 49.26 90.02 49.27
  L 90.47 49.29
  Q 90.44 49.56 90.52 49.71
  Q 90.68 50.03 91.02 49.92
  Q 92.18 49.54 92.78 50.13
  Q 92.98 50.33 93.06 50.60
  Q 93.15 50.94 93.12 51.30
  Q 93.08 51.67 92.71 51.62
  Q 91.87 51.49 91.42 52.08
  Q 91.10 52.50 90.59 52.41
  Q 89.22 52.15 88.46 53.24
  Q 87.75 54.26 88.94 53.91
  Q 89.89 53.64 90.62 54.12
  A 0.29 0.29 0.0 0 1 90.54 54.65
  Q 89.98 54.80 89.60 55.09
  Q 89.21 55.40 88.73 55.29
  Q 85.07 54.48 82.62 56.06
  Q 71.48 50.03 57.97 52.27
  Q 50.49 53.50 44.99 57.49
  Q 43.42 58.64 43.85 56.74
  L 49.53 32.00
  A 0.92 0.92 0.0 0 1 50.43 31.28
  L 72.17 31.31
  Z" fill="#bf75e0"></path>
<path d="M 38.36 51.31
  L 35.95 63.51
  Q 34.39 62.61 32.50 61.64
  Q 32.37 61.57 32.27 61.60
  Q 32.13 61.63 32.06 61.76
  Q 31.94 61.96 31.73 61.86
  Q 29.73 60.97 27.66 60.23
  Q 24.59 59.14 22.24 56.86
  Q 21.90 56.52 21.42 56.43
  Q 20.05 56.16 18.75 55.70
  C 16.26 54.81 13.99 55.28 11.90 52.96
  Q 11.60 52.63 11.15 52.56
  L 8.01 52.07
  A 0.44 0.28 36.9 0 1 7.75 51.38
  L 8.19 51.38
  Q 8.43 51.38 8.32 51.16
  Q 8.19 50.90 7.87 50.88
  Q 7.19 50.84 5.46 50.87
  C 3.60 50.89 1.97 50.08 0.00 50.03
  L 0.00 36.87
  Q 0.41 36.06 1.57 35.66
  Q 1.63 35.63 1.58 35.59
  Q 1.46 35.49 1.47 35.35
  Q 1.48 35.25 1.58 35.22
  Q 2.21 35.01 2.84 35.19
  Q 3.12 35.27 3.12 35.55
  L 3.12 35.91
  Q 3.12 36.06 3.27 36.08
  L 6.12 36.48
  Q 6.58 36.54 6.91 36.86
  Q 8.97 38.85 11.84 39.09
  Q 12.33 39.14 12.72 39.43
  Q 14.13 40.47 15.51 40.35
  Q 18.79 40.07 20.28 40.11
  Q 20.78 40.13 21.10 40.51
  C 22.86 42.64 25.96 44.11 28.42 45.35
  Q 28.85 45.58 29.14 45.98
  Q 30.00 47.19 31.18 48.00
  Q 31.50 48.22 32.94 48.66
  Q 33.51 48.84 34.01 49.23
  Q 34.36 49.51 34.82 49.60
  Q 36.64 49.96 38.36 51.31
  Z" fill="#973ba7"></path>
<path d="M 128.00 48.04
  L 128.00 60.21
  L 113.04 59.11
  Q 112.57 59.08 112.27 59.45
  Q 111.68 60.18 110.51 59.94
  Q 109.12 59.66 107.59 60.53
  A 1.32 1.31 -54.5 0 1 106.72 60.68
  L 103.46 60.13
  Q 102.99 60.05 102.51 60.14
  L 89.56 62.48
  L 82.62 56.06
  Q 85.07 54.48 88.73 55.29
  Q 89.21 55.40 89.60 55.09
  Q 89.98 54.80 90.54 54.65
  A 0.29 0.29 0.0 0 0 90.62 54.12
  Q 89.89 53.64 88.94 53.91
  Q 87.75 54.26 88.46 53.24
  Q 89.22 52.15 90.59 52.41
  Q 91.10 52.50 91.42 52.08
  Q 91.87 51.49 92.71 51.62
  Q 93.08 51.67 93.12 51.30
  Q 93.15 50.94 93.06 50.60
  Q 92.98 50.33 92.78 50.13
  Q 92.18 49.54 91.02 49.92
  Q 90.68 50.03 90.52 49.71
  Q 90.44 49.56 90.47 49.29
  Q 90.76 49.10 91.18 49.11
  Q 91.31 49.12 91.25 48.99
  Q 91.23 48.94 91.23 48.88
  Q 91.23 48.77 91.37 48.75
  C 93.67 48.42 95.95 48.68 98.23 48.49
  Q 99.44 48.39 99.93 49.38
  Q 100.18 49.86 100.66 49.61
  Q 101.85 49.00 102.90 49.86
  Q 103.28 50.16 103.76 50.11
  Q 106.24 49.80 109.47 50.41
  Q 110.32 50.57 110.69 49.86
  Q 110.90 49.45 111.33 49.31
  Q 119.42 46.67 128.00 48.04
  Z" fill="#a39afa"></path>
<path d="M 0.00 50.03
  C 1.97 50.08 3.60 50.89 5.46 50.87
  Q 7.19 50.84 7.87 50.88
  Q 8.19 50.90 8.32 51.16
  Q 8.43 51.38 8.19 51.38
  L 7.75 51.38
  A 0.44 0.28 36.9 0 0 8.01 52.07
  L 11.15 52.56
  Q 11.60 52.63 11.90 52.96
  C 13.99 55.28 16.26 54.81 18.75 55.70
  Q 20.05 56.16 21.42 56.43
  Q 21.90 56.52 22.24 56.86
  Q 24.59 59.14 27.66 60.23
  Q 29.73 60.97 31.73 61.86
  Q 31.94 61.96 32.06 61.76
  Q 32.13 61.63 32.27 61.60
  Q 32.37 61.57 32.50 61.64
  Q 34.39 62.61 35.95 63.51
  Q 36.20 66.62 37.75 67.33
  Q 37.91 67.56 37.88 67.83
  Q 37.82 68.50 37.17 68.35
  Q 36.79 68.26 36.48 68.50
  Q 35.91 68.91 35.87 68.99
  Q 35.55 69.51 35.49 70.13
  Q 35.47 70.38 35.57 70.60
  Q 35.68 70.84 35.61 71.12
  Q 35.55 71.38 35.81 71.38
  Q 35.96 71.39 36.10 71.39
  Q 36.63 71.38 36.80 71.88
  Q 37.19 72.95 36.27 73.57
  Q 35.88 73.84 36.27 74.11
  L 37.68 75.08
  Q 38.06 75.35 38.22 75.79
  Q 38.55 76.74 38.21 77.64
  Q 38.09 77.97 38.24 78.29
  Q 38.54 78.91 37.91 79.44
  Q 37.54 79.74 37.71 80.19
  Q 38.45 82.17 36.99 83.75
  Q 34.23 84.72 34.00 87.63
  Q 33.22 86.99 32.41 86.29
  Q 31.81 85.77 30.73 85.14
  Q 28.51 83.83 27.06 81.63
  Q 26.78 81.20 26.27 81.19
  Q 25.06 81.17 24.04 80.45
  Q 23.94 80.39 23.83 80.38
  Q 23.35 80.38 23.56 80.76
  Q 23.91 81.38 23.00 80.89
  Q 21.51 80.08 19.83 80.79
  Q 19.77 80.81 19.77 80.87
  Q 19.77 80.90 19.77 80.93
  Q 19.78 81.05 19.73 81.06
  Q 18.04 81.44 16.36 81.84
  Q 15.89 81.95 15.49 81.68
  Q 14.68 81.13 13.79 81.42
  Q 13.36 81.56 12.91 81.58
  Q 10.48 81.68 8.11 81.98
  Q 8.03 81.99 8.00 82.07
  Q 7.93 82.26 8.16 82.39
  A 0.04 0.03 -20.8 0 1 8.13 82.45
  Q 6.47 82.07 4.84 82.47
  Q 4.42 82.57 3.99 82.46
  L 1.49 81.84
  Q 1.41 81.82 1.37 81.75
  Q 1.30 81.61 1.24 81.48
  A 0.20 0.20 0.0 0 0 0.88 81.49
  Q 0.55 82.34 0.00 82.65
  L 0.00 50.03
  Z" fill="#6b2f97"></path>
<path d="M 64.02 96.44
  Q 64.90 95.91 66.13 95.70
  Q 66.30 95.67 66.26 95.49
  L 66.19 95.18
  Q 66.16 95.05 66.29 95.08
  Q 67.40 95.34 68.35 94.76
  A 0.15 0.15 0.0 0 0 68.29 94.48
  Q 67.57 94.42 67.72 93.96
  Q 67.83 93.63 67.55 93.42
  Q 65.24 91.65 65.86 88.80
  Q 65.88 88.67 66.00 88.73
  Q 66.11 88.78 66.23 88.84
  A 0.43 0.42 15.8 0 0 66.83 88.51
  Q 67.19 85.54 64.21 84.68
  Q 64.06 84.63 64.01 84.78
  L 63.87 85.15
  A 0.11 0.11 0.0 0 1 63.70 85.20
  Q 63.12 84.66 62.40 84.58
  Q 61.92 84.53 61.87 84.05
  Q 61.84 83.74 61.60 83.66
  Q 61.08 83.49 61.24 82.97
  Q 61.46 82.29 61.36 81.54
  A 0.55 0.55 0.0 0 0 60.84 81.06
  Q 60.09 81.03 59.46 80.26
  Q 58.93 79.62 58.91 79.52
  Q 58.81 79.02 58.42 78.78
  Q 57.80 78.41 57.73 78.33
  Q 57.36 77.86 57.39 77.31
  Q 57.41 76.87 57.13 76.53
  C 56.16 75.38 55.38 74.08 56.09 72.75
  Q 56.30 72.37 56.16 71.96
  Q 55.98 71.40 56.28 70.90
  Q 56.46 70.61 56.71 70.84
  Q 56.88 71.00 57.03 71.05
  Q 57.24 71.13 57.00 70.72
  Q 56.87 70.49 56.59 69.95
  A 0.98 0.96 -41.7 0 1 56.66 68.92
  Q 57.08 68.32 56.84 67.67
  Q 56.71 67.33 56.43 67.08
  Q 55.55 66.32 54.92 65.29
  Q 54.89 65.23 54.92 65.16
  Q 54.98 65.02 55.07 64.95
  Q 55.21 64.84 55.18 64.66
  Q 55.01 63.90 54.25 64.12
  A 0.93 0.92 60.6 0 1 53.31 63.85
  Q 52.09 62.46 52.50 60.75
  C 67.47 55.68 89.46 60.42 86.02 81.51
  C 84.30 92.07 74.28 96.99 64.02 96.44
  Z" fill="#686bd3"></path>
<path d="M 128.00 60.21
  L 128.00 70.80
  C 125.86 70.07 121.47 69.35 119.97 71.59
  Q 119.71 71.98 119.24 71.92
  L 112.76 71.14
  A 1.62 1.59 -56.5 0 0 111.73 71.36
  Q 110.92 71.85 109.93 71.60
  A 0.14 0.14 0.0 0 0 109.76 71.74
  Q 109.76 71.88 109.76 72.02
  Q 109.76 72.26 109.53 72.30
  L 103.24 73.59
  Q 102.84 73.67 102.48 73.49
  Q 101.06 72.81 99.45 73.24
  Q 98.96 73.38 98.46 73.27
  Q 96.74 72.92 94.99 73.45
  Q 94.55 73.59 94.47 74.04
  Q 94.42 74.31 94.46 74.54
  Q 94.51 74.77 94.29 74.87
  Q 93.84 75.08 93.86 76.50
  Q 93.71 69.19 89.56 62.48
  L 102.51 60.14
  Q 102.99 60.05 103.46 60.13
  L 106.72 60.68
  A 1.32 1.31 -54.5 0 0 107.59 60.53
  Q 109.12 59.66 110.51 59.94
  Q 111.68 60.18 112.27 59.45
  Q 112.57 59.08 113.04 59.11
  L 128.00 60.21
  Z" fill="#7d98f9"></path>
<path d="M 52.50 60.75
  Q 52.09 62.46 53.31 63.85
  A 0.93 0.92 60.6 0 0 54.25 64.12
  Q 55.01 63.90 55.18 64.66
  Q 55.21 64.84 55.07 64.95
  Q 54.98 65.02 54.92 65.16
  Q 54.89 65.23 54.92 65.29
  Q 55.55 66.32 56.43 67.08
  Q 56.71 67.33 56.84 67.67
  Q 57.08 68.32 56.66 68.92
  A 0.98 0.96 -41.7 0 0 56.59 69.95
  Q 56.87 70.49 57.00 70.72
  Q 57.24 71.13 57.03 71.05
  Q 56.88 71.00 56.71 70.84
  Q 56.46 70.61 56.28 70.90
  Q 55.98 71.40 56.16 71.96
  Q 56.30 72.37 56.09 72.75
  C 55.38 74.08 56.16 75.38 57.13 76.53
  Q 57.41 76.87 57.39 77.31
  Q 57.36 77.86 57.73 78.33
  Q 57.80 78.41 58.42 78.78
  Q 58.81 79.02 58.91 79.52
  Q 58.93 79.62 59.46 80.26
  Q 60.09 81.03 60.84 81.06
  A 0.55 0.55 0.0 0 1 61.36 81.54
  Q 61.46 82.29 61.24 82.97
  Q 61.08 83.49 61.60 83.66
  Q 61.84 83.74 61.87 84.05
  Q 61.92 84.53 62.40 84.58
  Q 63.12 84.66 63.70 85.20
  A 0.11 0.11 0.0 0 0 63.87 85.15
  L 64.01 84.78
  Q 64.06 84.63 64.21 84.68
  Q 67.19 85.54 66.83 88.51
  A 0.43 0.42 15.8 0 1 66.23 88.84
  Q 66.11 88.78 66.00 88.73
  Q 65.88 88.67 65.86 88.80
  Q 65.24 91.65 67.55 93.42
  Q 67.83 93.63 67.72 93.96
  Q 67.57 94.42 68.29 94.48
  A 0.15 0.15 0.0 0 1 68.35 94.76
  Q 67.40 95.34 66.29 95.08
  Q 66.16 95.05 66.19 95.18
  L 66.26 95.49
  Q 66.30 95.67 66.13 95.70
  Q 64.90 95.91 64.02 96.44
  Q 48.59 97.13 40.04 84.71
  Q 39.24 83.55 36.99 83.75
  Q 38.45 82.17 37.71 80.19
  Q 37.54 79.74 37.91 79.44
  Q 38.54 78.91 38.24 78.29
  Q 38.09 77.97 38.21 77.64
  Q 38.55 76.74 38.22 75.79
  Q 38.06 75.35 37.68 75.08
  L 36.27 74.11
  Q 35.88 73.84 36.27 73.57
  Q 37.19 72.95 36.80 71.88
  Q 36.63 71.38 36.10 71.39
  Q 35.96 71.39 35.81 71.38
  Q 35.55 71.38 35.61 71.12
  Q 35.68 70.84 35.57 70.60
  Q 35.47 70.38 35.49 70.13
  Q 35.55 69.51 35.87 68.99
  Q 35.91 68.91 36.48 68.50
  Q 36.79 68.26 37.17 68.35
  Q 37.82 68.50 37.88 67.83
  Q 37.91 67.56 37.75 67.33
  Q 40.53 68.37 43.00 66.21
  Q 46.98 62.73 52.50 60.75
  Z" fill="#5b4eb5"></path>
<path d="M 128.00 70.80
  L 128.00 80.53
  Q 122.93 80.16 116.74 80.60
  C 115.22 80.71 114.33 81.66 113.17 81.70
  Q 112.24 81.73 111.90 81.08
  Q 111.68 80.66 111.20 80.63
  L 105.64 80.27
  A 0.22 0.21 -28.2 0 1 105.53 80.24
  Q 104.36 79.49 103.21 80.17
  Q 102.78 80.42 102.29 80.34
  L 95.89 79.33
  A 1.10 1.10 0.0 0 0 94.69 80.82
  Q 95.67 83.32 93.41 83.75
  L 93.86 76.50
  Q 93.84 75.08 94.29 74.87
  Q 94.51 74.77 94.46 74.54
  Q 94.42 74.31 94.47 74.04
  Q 94.55 73.59 94.99 73.45
  Q 96.74 72.92 98.46 73.27
  Q 98.96 73.38 99.45 73.24
  Q 101.06 72.81 102.48 73.49
  Q 102.84 73.67 103.24 73.59
  L 109.53 72.30
  Q 109.76 72.26 109.76 72.02
  Q 109.76 71.88 109.76 71.74
  A 0.14 0.14 0.0 0 1 109.93 71.60
  Q 110.92 71.85 111.73 71.36
  A 1.62 1.59 -56.5 0 1 112.76 71.14
  L 119.24 71.92
  Q 119.71 71.98 119.97 71.59
  C 121.47 69.35 125.86 70.07 128.00 70.80
  Z" fill="#5b97fa"></path>
<path d="M 128.00 80.53
  L 128.00 128.00
  L 91.61 128.00
  L 92.14 115.73
  Q 92.15 115.61 92.03 115.61
  Q 91.87 115.61 91.72 115.60
  Q 91.46 115.60 91.43 115.35
  Q 91.25 113.60 91.64 111.91
  Q 91.74 111.47 91.31 111.61
  L 90.00 112.03
  Q 89.64 112.15 89.62 111.77
  Q 89.61 111.63 89.61 111.51
  Q 89.62 111.05 88.98 111.04
  Q 88.81 111.04 88.55 110.72
  Q 88.23 110.34 88.55 109.96
  Q 89.06 109.34 88.85 108.52
  A 0.63 0.63 0.0 0 1 89.14 107.83
  L 89.90 107.36
  Q 90.26 107.14 90.29 106.72
  L 90.60 101.87
  Q 90.61 101.76 90.51 101.70
  Q 90.39 101.63 90.26 101.65
  Q 90.04 101.67 89.95 101.47
  L 89.03 99.58
  Q 88.88 99.28 88.58 99.14
  Q 88.43 99.07 88.29 98.95
  Q 87.97 98.66 87.62 98.92
  Q 87.26 99.20 86.91 99.12
  Q 86.25 98.99 86.00 99.00
  L 82.53 99.11
  Q 91.21 93.79 93.41 83.75
  Q 95.67 83.32 94.69 80.82
  A 1.10 1.10 0.0 0 1 95.89 79.33
  L 102.29 80.34
  Q 102.78 80.42 103.21 80.17
  Q 104.36 79.49 105.53 80.24
  A 0.22 0.21 -28.2 0 0 105.64 80.27
  L 111.20 80.63
  Q 111.68 80.66 111.90 81.08
  Q 112.24 81.73 113.17 81.70
  C 114.33 81.66 115.22 80.71 116.74 80.60
  Q 122.93 80.16 128.00 80.53
  Z" fill="#0793fa"></path>
<path d="M 34.00 87.63
  Q 35.14 91.34 38.27 94.26
  Q 38.35 95.20 37.58 95.47
  Q 37.24 95.58 36.91 95.44
  Q 36.68 95.34 36.63 95.67
  Q 36.57 96.10 36.13 96.13
  Q 35.00 96.21 34.21 97.04
  Q 33.84 97.42 33.32 97.34
  Q 32.87 97.28 32.52 97.70
  Q 32.19 98.10 32.16 98.62
  L 31.84 104.19
  Q 31.81 104.62 31.41 104.80
  Q 30.20 105.31 28.90 105.10
  Q 28.37 105.02 28.37 104.49
  L 28.37 103.78
  A 0.50 0.49 -20.6 0 0 27.55 103.41
  Q 26.96 103.93 26.26 103.37
  Q 25.84 103.04 25.88 102.50
  Q 25.95 101.67 25.42 101.00
  Q 25.14 100.63 24.67 100.63
  Q 24.22 100.64 23.82 100.85
  Q 23.24 101.15 23.14 100.50
  L 22.55 96.56
  Q 22.49 96.12 22.05 96.12
  L 15.94 96.12
  Q 15.76 96.12 15.70 95.95
  Q 15.64 95.79 15.66 95.67
  Q 15.70 95.46 15.51 95.39
  Q 14.65 95.06 13.75 95.09
  Q 13.35 95.10 13.00 94.89
  Q 12.33 94.48 11.91 93.82
  Q 11.63 93.37 11.10 93.37
  Q 10.13 93.37 9.86 92.58
  Q 9.72 92.19 9.30 92.16
  Q 7.92 92.04 7.60 90.71
  Q 7.52 90.37 7.17 90.37
  L 6.82 90.37
  Q 6.47 90.37 6.17 90.19
  Q 4.15 88.92 3.63 90.06
  Q 3.48 90.39 3.14 90.28
  Q 1.29 89.67 0.00 90.17
  L 0.00 82.65
  Q 0.55 82.34 0.88 81.49
  A 0.20 0.20 0.0 0 1 1.24 81.48
  Q 1.30 81.61 1.37 81.75
  Q 1.41 81.82 1.49 81.84
  L 3.99 82.46
  Q 4.42 82.57 4.84 82.47
  Q 6.47 82.07 8.13 82.45
  A 0.04 0.03 -20.8 0 0 8.16 82.39
  Q 7.93 82.26 8.00 82.07
  Q 8.03 81.99 8.11 81.98
  Q 10.48 81.68 12.91 81.58
  Q 13.36 81.56 13.79 81.42
  Q 14.68 81.13 15.49 81.68
  Q 15.89 81.95 16.36 81.84
  Q 18.04 81.44 19.73 81.06
  Q 19.78 81.05 19.77 80.93
  Q 19.77 80.90 19.77 80.87
  Q 19.77 80.81 19.83 80.79
  Q 21.51 80.08 23.00 80.89
  Q 23.91 81.38 23.56 80.76
  Q 23.35 80.38 23.83 80.38
  Q 23.94 80.39 24.04 80.45
  Q 25.06 81.17 26.27 81.19
  Q 26.78 81.20 27.06 81.63
  Q 28.51 83.83 30.73 85.14
  Q 31.81 85.77 32.41 86.29
  Q 33.22 86.99 34.00 87.63
  Z" fill="#462b90"></path>
<path d="M 38.27 94.26
  L 44.32 98.97
  C 43.16 100.68 41.33 102.00 42.11 104.25
  Q 42.27 104.72 41.78 104.83
  Q 41.20 104.95 41.09 105.48
  A 1.36 0.30 -75.9 0 0 41.06 106.52
  Q 41.52 107.40 41.20 108.23
  A 0.61 0.60 8.8 0 1 40.66 108.62
  Q 38.86 108.74 39.14 110.49
  Q 39.20 110.88 38.81 110.92
  Q 37.90 111.02 37.65 111.67
  Q 37.51 112.01 37.22 111.78
  Q 37.00 111.61 36.97 111.19
  Q 36.94 110.77 36.53 110.77
  Q 36.20 110.77 36.22 110.41
  Q 36.24 109.85 35.68 109.79
  Q 34.80 109.70 34.77 110.67
  A 0.26 0.26 0.0 0 1 34.25 110.71
  Q 34.21 110.53 34.10 110.43
  Q 33.80 110.17 33.64 110.53
  Q 33.33 111.23 32.48 111.34
  Q 32.12 111.39 32.12 111.75
  L 32.12 115.50
  Q 32.12 116.03 31.73 116.39
  Q 30.50 117.54 30.63 119.36
  Q 30.66 119.89 30.13 119.85
  Q 29.72 119.81 29.64 120.35
  Q 29.57 120.79 29.63 121.23
  Q 29.68 121.59 29.56 121.98
  Q 29.42 122.46 29.61 122.91
  Q 30.80 125.81 29.95 128.00
  L 0.00 128.00
  L 0.00 90.17
  Q 1.29 89.67 3.14 90.28
  Q 3.48 90.39 3.63 90.06
  Q 4.15 88.92 6.17 90.19
  Q 6.47 90.37 6.82 90.37
  L 7.17 90.37
  Q 7.52 90.37 7.60 90.71
  Q 7.92 92.04 9.30 92.16
  Q 9.72 92.19 9.86 92.58
  Q 10.13 93.37 11.10 93.37
  Q 11.63 93.37 11.91 93.82
  Q 12.33 94.48 13.00 94.89
  Q 13.35 95.10 13.75 95.09
  Q 14.65 95.06 15.51 95.39
  Q 15.70 95.46 15.66 95.67
  Q 15.64 95.79 15.70 95.95
  Q 15.76 96.12 15.94 96.12
  L 22.05 96.12
  Q 22.49 96.12 22.55 96.56
  L 23.14 100.50
  Q 23.24 101.15 23.82 100.85
  Q 24.22 100.64 24.67 100.63
  Q 25.14 100.63 25.42 101.00
  Q 25.95 101.67 25.88 102.50
  Q 25.84 103.04 26.26 103.37
  Q 26.96 103.93 27.55 103.41
  A 0.50 0.49 -20.6 0 1 28.37 103.78
  L 28.37 104.49
  Q 28.37 105.02 28.90 105.10
  Q 30.20 105.31 31.41 104.80
  Q 31.81 104.62 31.84 104.19
  L 32.16 98.62
  Q 32.19 98.10 32.52 97.70
  Q 32.87 97.28 33.32 97.34
  Q 33.84 97.42 34.21 97.04
  Q 35.00 96.21 36.13 96.13
  Q 36.57 96.10 36.63 95.67
  Q 36.68 95.34 36.91 95.44
  Q 37.24 95.58 37.58 95.47
  Q 38.35 95.20 38.27 94.26
  Z" fill="#30288c"></path>
<path d="M 91.61 128.00
  L 64.66 128.00
  Q 64.88 126.01 64.10 124.08
  Q 63.89 123.58 64.18 123.13
  Q 64.63 122.43 64.68 121.64
  Q 64.71 121.24 64.56 120.87
  C 63.08 117.16 63.88 108.89 63.88 106.37
  Q 63.88 105.88 64.36 105.75
  Q 65.86 105.33 66.21 103.63
  Q 75.03 103.24 82.53 99.11
  L 86.00 99.00
  Q 86.25 98.99 86.91 99.12
  Q 87.26 99.20 87.62 98.92
  Q 87.97 98.66 88.29 98.95
  Q 88.43 99.07 88.58 99.14
  Q 88.88 99.28 89.03 99.58
  L 89.95 101.47
  Q 90.04 101.67 90.26 101.65
  Q 90.39 101.63 90.51 101.70
  Q 90.61 101.76 90.60 101.87
  L 90.29 106.72
  Q 90.26 107.14 89.90 107.36
  L 89.14 107.83
  A 0.63 0.63 0.0 0 0 88.85 108.52
  Q 89.06 109.34 88.55 109.96
  Q 88.23 110.34 88.55 110.72
  Q 88.81 111.04 88.98 111.04
  Q 89.62 111.05 89.61 111.51
  Q 89.61 111.63 89.62 111.77
  Q 89.64 112.15 90.00 112.03
  L 91.31 111.61
  Q 91.74 111.47 91.64 111.91
  Q 91.25 113.60 91.43 115.35
  Q 91.46 115.60 91.72 115.60
  Q 91.87 115.61 92.03 115.61
  Q 92.15 115.61 92.14 115.73
  L 91.61 128.00
  Z" fill="#1970d7"></path>
<path d="M 44.32 98.97
  Q 54.48 104.33 66.21 103.63
  Q 65.86 105.33 64.36 105.75
  Q 63.88 105.88 63.88 106.37
  C 63.88 108.89 63.08 117.16 64.56 120.87
  Q 64.71 121.24 64.68 121.64
  Q 64.63 122.43 64.18 123.13
  Q 63.89 123.58 64.10 124.08
  Q 64.88 126.01 64.66 128.00
  L 29.95 128.00
  Q 30.80 125.81 29.61 122.91
  Q 29.42 122.46 29.56 121.98
  Q 29.68 121.59 29.63 121.23
  Q 29.57 120.79 29.64 120.35
  Q 29.72 119.81 30.13 119.85
  Q 30.66 119.89 30.63 119.36
  Q 30.50 117.54 31.73 116.39
  Q 32.12 116.03 32.12 115.50
  L 32.12 111.75
  Q 32.12 111.39 32.48 111.34
  Q 33.33 111.23 33.64 110.53
  Q 33.80 110.17 34.10 110.43
  Q 34.21 110.53 34.25 110.71
  A 0.26 0.26 0.0 0 0 34.77 110.67
  Q 34.80 109.70 35.68 109.79
  Q 36.24 109.85 36.22 110.41
  Q 36.20 110.77 36.53 110.77
  Q 36.94 110.77 36.97 111.19
  Q 37.00 111.61 37.22 111.78
  Q 37.51 112.01 37.65 111.67
  Q 37.90 111.02 38.81 110.92
  Q 39.20 110.88 39.14 110.49
  Q 38.86 108.74 40.66 108.62
  A 0.61 0.60 8.8 0 0 41.20 108.23
  Q 41.52 107.40 41.06 106.52
  A 1.36 0.30 -75.9 0 1 41.09 105.48
  Q 41.20 104.95 41.78 104.83
  Q 42.27 104.72 42.11 104.25
  C 41.33 102.00 43.16 100.68 44.32 98.97
  Z" fill="#2646ad"></path>
</svg>
