<svg viewBox="0.00 0.00 256.00 256.00" version="1.1" xmlns="http://www.w3.org/2000/svg">
<g stroke-linecap="butt" fill="none" stroke-width="2.00">
<path d="M 140.55 83.75
  Q 114.52 83.71 88.59 83.74
  Q 79.55 83.76 75.57 85.05
  C 65.86 88.21 58.05 98.28 58.03 108.25
  Q 57.96 138.42 58.01 168.59
  C 58.03 177.13 58.97 183.04 64.20 189.02
  C 73.57 199.72 86.09 198.14 98.95 197.96
  C 105.37 197.88 110.14 196.85 112.03 190.48
  Q 113.72 184.82 116.04 172.91
  Q 116.15 172.34 115.57 172.33
  C 104.51 172.18 89.83 175.00 84.83 161.53
  Q 83.51 157.98 83.54 148.83
  Q 83.56 139.54 83.55 130.23
  Q 83.54 123.31 84.91 119.94
  C 88.16 111.93 94.72 109.49 103.26 109.46
  Q 113.15 109.42 123.05 109.46
  C 134.42 109.50 135.45 105.61 137.99 95.05
  Q 139.35 89.42 140.55 83.75" stroke="#a0a7f6"></path>
<path d="M 140.55 83.75
  C 151.86 83.74 167.69 81.19 171.95 95.85
  Q 172.66 98.29 172.66 104.46
  Q 172.66 117.10 172.56 129.75
  C 172.49 139.13 165.14 146.76 155.75 146.72
  Q 143.52 146.68 131.28 146.74
  C 123.91 146.79 121.42 150.54 119.79 157.48
  Q 118.13 164.57 116.44 171.79
  Q 116.32 172.31 116.85 172.31
  Q 144.30 172.40 171.75 172.36
  C 185.84 172.34 198.41 161.56 198.44 147.00
  Q 198.48 115.63 198.36 84.25
  C 198.30 69.02 186.51 57.98 171.39 58.04
  Q 164.26 58.07 157.11 58.16
  Q 152.01 58.22 149.61 59.48
  Q 145.66 61.53 144.66 65.98
  Q 142.66 74.89 140.55 83.75" stroke="#a0a7f6"></path>
<path d="M 119.39 128.01
  A 7.64 7.64 0.0 0 0 111.75 120.37
  A 7.64 7.64 0.0 0 0 104.11 128.01
  A 7.64 7.64 0.0 0 0 111.75 135.65
  A 7.64 7.64 0.0 0 0 119.39 128.01" stroke="#90daff"></path>
<path d="M 152.22 128.02
  A 7.63 7.63 0.0 0 0 144.59 120.39
  A 7.63 7.63 0.0 0 0 136.96 128.02
  A 7.63 7.63 0.0 0 0 144.59 135.65
  A 7.63 7.63 0.0 0 0 152.22 128.02" stroke="#90daff"></path>
</g>
<path d="M 0.00 0.00
  L 256.00 0.00
  L 256.00 256.00
  L 0.00 256.00
  L 0.00 0.00
  Z
  M 140.55 83.75
  Q 114.52 83.71 88.59 83.74
  Q 79.55 83.76 75.57 85.05
  C 65.86 88.21 58.05 98.28 58.03 108.25
  Q 57.96 138.42 58.01 168.59
  C 58.03 177.13 58.97 183.04 64.20 189.02
  C 73.57 199.72 86.09 198.14 98.95 197.96
  C 105.37 197.88 110.14 196.85 112.03 190.48
  Q 113.72 184.82 116.04 172.91
  Q 116.15 172.34 115.57 172.33
  C 104.51 172.18 89.83 175.00 84.83 161.53
  Q 83.51 157.98 83.54 148.83
  Q 83.56 139.54 83.55 130.23
  Q 83.54 123.31 84.91 119.94
  C 88.16 111.93 94.72 109.49 103.26 109.46
  Q 113.15 109.42 123.05 109.46
  C 134.42 109.50 135.45 105.61 137.99 95.05
  Q 139.35 89.42 140.55 83.75
  C 151.86 83.74 167.69 81.19 171.95 95.85
  Q 172.66 98.29 172.66 104.46
  Q 172.66 117.10 172.56 129.75
  C 172.49 139.13 165.14 146.76 155.75 146.72
  Q 143.52 146.68 131.28 146.74
  C 123.91 146.79 121.42 150.54 119.79 157.48
  Q 118.13 164.57 116.44 171.79
  Q 116.32 172.31 116.85 172.31
  Q 144.30 172.40 171.75 172.36
  C 185.84 172.34 198.41 161.56 198.44 147.00
  Q 198.48 115.63 198.36 84.25
  C 198.30 69.02 186.51 57.98 171.39 58.04
  Q 164.26 58.07 157.11 58.16
  Q 152.01 58.22 149.61 59.48
  Q 145.66 61.53 144.66 65.98
  Q 142.66 74.89 140.55 83.75
  Z
  M 119.39 128.01
  A 7.64 7.64 0.0 0 0 111.75 120.37
  A 7.64 7.64 0.0 0 0 104.11 128.01
  A 7.64 7.64 0.0 0 0 111.75 135.65
  A 7.64 7.64 0.0 0 0 119.39 128.01
  Z
  M 152.22 128.02
  A 7.63 7.63 0.0 0 0 144.59 120.39
  A 7.63 7.63 0.0 0 0 136.96 128.02
  A 7.63 7.63 0.0 0 0 144.59 135.65
  A 7.63 7.63 0.0 0 0 152.22 128.02
  Z" fill="#ffffff"></path>
<path d="M 140.55 83.75
  Q 142.66 74.89 144.66 65.98
  Q 145.66 61.53 149.61 59.48
  Q 152.01 58.22 157.11 58.16
  Q 164.26 58.07 171.39 58.04
  C 186.51 57.98 198.30 69.02 198.36 84.25
  Q 198.48 115.63 198.44 147.00
  C 198.41 161.56 185.84 172.34 171.75 172.36
  Q 144.30 172.40 116.85 172.31
  Q 116.32 172.31 116.44 171.79
  Q 118.13 164.57 119.79 157.48
  C 121.42 150.54 123.91 146.79 131.28 146.74
  Q 143.52 146.68 155.75 146.72
  C 165.14 146.76 172.49 139.13 172.56 129.75
  Q 172.66 117.10 172.66 104.46
  Q 172.66 98.29 171.95 95.85
  C 167.69 81.19 151.86 83.74 140.55 83.75
  Z" fill="#414eed"></path>
<path d="M 140.55 83.75
  Q 139.35 89.42 137.99 95.05
  C 135.45 105.61 134.42 109.50 123.05 109.46
  Q 113.15 109.42 103.26 109.46
  C 94.72 109.49 88.16 111.93 84.91 119.94
  Q 83.54 123.31 83.55 130.23
  Q 83.56 139.54 83.54 148.83
  Q 83.51 157.98 84.83 161.53
  C 89.83 175.00 104.51 172.18 115.57 172.33
  Q 116.15 172.34 116.04 172.91
  Q 113.72 184.82 112.03 190.48
  C 110.14 196.85 105.37 197.88 98.95 197.96
  C 86.09 198.14 73.57 199.72 64.20 189.02
  C 58.97 183.04 58.03 177.13 58.01 168.59
  Q 57.96 138.42 58.03 108.25
  C 58.05 98.28 65.86 88.21 75.57 85.05
  Q 79.55 83.76 88.59 83.74
  Q 114.52 83.71 140.55 83.75
  Z" fill="#414eed"></path>
<circle r="7.64" cy="128.01" cx="111.75" fill="#20b4ff"></circle>
<circle r="7.63" cy="128.02" cx="144.59" fill="#20b4ff"></circle>
</svg>
