<svg viewBox="0.00 0.00 256.00 256.00" version="1.1" xmlns="http://www.w3.org/2000/svg">
<g stroke-linecap="butt" fill="none" stroke-width="2.00">
<path d="M 109.61 182.11
  A 0.49 0.49 0.0 0 1 110.08 181.75
  L 159.10 181.75
  A 0.49 0.49 0.0 0 0 159.59 181.23
  L 156.99 141.85
  A 0.49 0.49 0.0 0 1 157.48 141.33
  L 201.86 141.36
  A 0.49 0.49 0.0 0 0 202.33 140.72
  L 168.09 33.36
  A 0.49 0.49 0.0 0 0 167.62 33.02
  L 111.28 33.08
  A 0.49 0.49 0.0 0 0 110.81 33.42
  L 50.60 222.81
  A 0.49 0.49 0.0 0 0 51.07 223.45
  L 97.69 223.45
  A 0.49 0.49 0.0 0 0 98.16 223.09
  L 109.61 182.11" stroke="#939393"></path>
<path d="M 120.31 141.35
  A 0.32 0.32 0.0 0 0 120.62 141.76
  L 155.86 141.76
  A 0.32 0.32 0.0 0 0 156.17 141.35
  L 138.55 79.07
  A 0.32 0.32 0.0 0 0 137.93 79.07
  L 120.31 141.35" stroke="#939393"></path>
</g>
<path d="M 0.00 0.00
  L 256.00 0.00
  L 256.00 256.00
  L 0.00 256.00
  L 0.00 0.00
  Z
  M 109.61 182.11
  A 0.49 0.49 0.0 0 1 110.08 181.75
  L 159.10 181.75
  A 0.49 0.49 0.0 0 0 159.59 181.23
  L 156.99 141.85
  A 0.49 0.49 0.0 0 1 157.48 141.33
  L 201.86 141.36
  A 0.49 0.49 0.0 0 0 202.33 140.72
  L 168.09 33.36
  A 0.49 0.49 0.0 0 0 167.62 33.02
  L 111.28 33.08
  A 0.49 0.49 0.0 0 0 110.81 33.42
  L 50.60 222.81
  A 0.49 0.49 0.0 0 0 51.07 223.45
  L 97.69 223.45
  A 0.49 0.49 0.0 0 0 98.16 223.09
  L 109.61 182.11
  Z" fill="#262626"></path>
<path d="M 109.61 182.11
  L 98.16 223.09
  A 0.49 0.49 0.0 0 1 97.69 223.45
  L 51.07 223.45
  A 0.49 0.49 0.0 0 1 50.60 222.81
  L 110.81 33.42
  A 0.49 0.49 0.0 0 1 111.28 33.08
  L 167.62 33.02
  A 0.49 0.49 0.0 0 1 168.09 33.36
  L 202.33 140.72
  A 0.49 0.49 0.0 0 1 201.86 141.36
  L 157.48 141.33
  A 0.49 0.49 0.0 0 0 156.99 141.85
  L 159.59 181.23
  A 0.49 0.49 0.0 0 1 159.10 181.75
  L 110.08 181.75
  A 0.49 0.49 0.0 0 0 109.61 182.11
  Z
  M 120.31 141.35
  A 0.32 0.32 0.0 0 0 120.62 141.76
  L 155.86 141.76
  A 0.32 0.32 0.0 0 0 156.17 141.35
  L 138.55 79.07
  A 0.32 0.32 0.0 0 0 137.93 79.07
  L 120.31 141.35
  Z" fill="#ffffff"></path>
<path d="M 120.31 141.35
  L 137.93 79.07
  A 0.32 0.32 0.0 0 1 138.55 79.07
  L 156.17 141.35
  A 0.32 0.32 0.0 0 1 155.86 141.76
  L 120.62 141.76
  A 0.32 0.32 0.0 0 1 120.31 141.35
  Z" fill="#262626"></path>
</svg>
