<svg viewBox="0.00 0.00 192.00 192.00" version="1.1" xmlns="http://www.w3.org/2000/svg">
<g stroke-linecap="butt" fill="none" stroke-width="2.00">
<path d="M 81.74 53.99
  L 81.64 70.89" stroke="#532b51"></path>
<path d="M 81.64 70.89
  Q 70.33 64.36 59.21 57.96
  Q 54.74 55.39 52.31 54.95
  C 39.69 52.69 30.85 67.68 38.91 77.65
  Q 40.67 79.82 45.65 82.69
  Q 56.75 89.08 67.85 95.49" stroke="#5d5d5d"></path>
<path d="M 67.85 95.49
  Q 67.74 96.04 66.97 96.43
  Q 66.02 96.92 63.30 98.62" stroke="#335954"></path>
<path d="M 63.30 98.62
  L 51.37 105.50" stroke="#3b635e"></path>
<path d="M 51.37 105.50
  C 47.13 107.87 41.27 110.59 38.47 113.98
  C 30.56 123.59 38.79 138.60 50.93 136.91
  C 55.66 136.26 61.06 132.50 65.51 129.84" stroke="#4d716b"></path>
<path d="M 65.51 129.84
  L 77.31 123.04" stroke="#3b635e"></path>
<path d="M 77.31 123.04
  L 81.74 120.66" stroke="#335954"></path>
<path d="M 81.74 120.66
  Q 81.73 133.55 81.75 146.31
  Q 81.76 151.59 82.70 154.07
  C 87.07 165.51 103.66 165.68 108.52 155.09
  Q 109.99 151.89 109.98 144.20
  Q 109.96 132.14 109.99 119.86" stroke="#6b1266"></path>
<path d="M 109.99 119.86
  Q 121.62 126.52 133.06 133.15
  Q 137.82 135.92 140.46 136.37
  C 152.89 138.49 161.43 123.39 154.01 113.97
  Q 152.06 111.50 144.81 107.36
  Q 134.83 101.66 124.75 95.73" stroke="#5d5d5d"></path>
<path d="M 124.75 95.73
  L 128.09 93.78" stroke="#142d29"></path>
<path d="M 128.09 93.78
  L 140.68 86.45" stroke="#0f2420"></path>
<path d="M 140.68 86.45
  Q 146.72 83.24 150.18 80.92
  Q 155.93 77.09 156.15 69.75
  Q 156.40 61.37 149.19 57.34
  C 140.45 52.45 133.74 57.71 126.57 62.12" stroke="#071412"></path>
<path d="M 126.57 62.12
  L 114.34 69.15" stroke="#0f2420"></path>
<path d="M 114.34 69.15
  L 109.99 71.54" stroke="#142d29"></path>
<path d="M 109.99 71.54
  L 109.96 53.96" stroke="#532b51"></path>
<path d="M 109.96 53.96
  Q 110.01 48.29 109.95 42.00
  C 109.79 27.58 88.78 23.81 83.05 36.85
  C 81.01 41.48 81.69 48.56 81.74 53.99" stroke="#4b2f4a"></path>
<path d="M 109.96 53.96
  L 81.74 53.99" stroke="#9e599b"></path>
<path d="M 109.99 71.54
  Q 109.87 72.04 109.99 72.22" stroke="#67587a"></path>
<path d="M 109.99 72.22
  Q 109.72 72.12 109.48 72.11
  Q 109.26 72.10 108.99 72.25
  C 106.39 73.74 98.49 79.09 95.98 79.13" stroke="#9f76b4"></path>
<path d="M 95.98 79.13
  L 81.64 70.89" stroke="#b087ae"></path>
<path d="M 124.75 95.73
  L 124.06 95.43" stroke="#708a86"></path>
<path d="M 124.06 95.43
  L 110.15 87.38" stroke="#619e94"></path>
<path d="M 110.15 87.38
  L 109.99 72.22" stroke="#5f788c"></path>
<path d="M 110.15 87.38
  L 96.71 79.91" stroke="#99bcce"></path>
<path d="M 95.98 79.13
  Q 96.74 79.18 96.71 79.91" stroke="#a8a8bf"></path>
<path d="M 96.71 79.91
  Q 95.67 79.96 95.25 80.20
  Q 81.97 87.80 68.33 95.62" stroke="#aacdc8"></path>
<path d="M 68.33 95.62
  Q 68.11 95.68 67.85 95.49" stroke="#8fb6b0"></path>
<path d="M 124.06 95.43
  L 123.80 95.95
  Q 123.58 96.39 123.16 96.64
  L 96.59 112.05" stroke="#aacdc8"></path>
<path d="M 96.59 112.05
  L 81.86 103.57" stroke="#9dccda"></path>
<path d="M 81.86 103.57
  L 68.33 95.62" stroke="#80cabf"></path>
<path d="M 109.99 119.86
  L 96.48 112.03" stroke="#c86ec2"></path>
<path d="M 96.48 112.03
  Q 96.53 112.04 96.59 112.05" stroke="#adb8cb"></path>
<path d="M 128.09 93.78
  Q 128.16 92.25 126.71 89.77
  Q 124.81 86.53 122.83 83.36
  Q 118.51 76.44 114.34 69.15" stroke="#225149"></path>
<path d="M 81.86 103.57
  L 81.86 120.44" stroke="#83b5c2"></path>
<path d="M 81.86 120.44
  L 81.74 120.66" stroke="#9e6bb9"></path>
<path d="M 77.31 123.04
  C 77.74 120.50 75.30 119.83 74.64 117.74
  Q 74.01 115.73 72.55 114.21
  A 1.92 1.88 15.0 0 1 72.13 113.50
  Q 71.79 112.47 71.01 111.74
  Q 70.68 111.42 70.44 111.02
  L 63.30 98.62" stroke="#6ebcb1"></path>
<path d="M 96.48 112.03
  L 81.86 120.44" stroke="#bb6dd4"></path>
<path d="M 140.68 86.45
  L 128.18 65.22
  A 0.43 0.38 32.3 0 1 128.12 65.01
  Q 128.12 64.88 128.10 64.75
  Q 128.04 64.27 127.65 63.97
  Q 126.89 63.38 126.57 62.12" stroke="#163832"></path>
<path d="M 65.51 129.84
  Q 65.17 128.71 64.25 128.05
  Q 63.83 127.75 63.89 127.25
  C 64.10 125.31 62.70 124.54 62.03 123.32
  Q 59.80 119.31 57.17 115.55
  Q 57.14 115.50 57.13 115.43
  Q 57.13 115.31 57.13 115.18
  Q 57.13 115.06 57.07 114.95
  L 51.37 105.50" stroke="#88d4c9"></path>
</g>
<path d="M 23.57 0.00
  L 168.51 0.00
  Q 188.60 3.51 192.00 23.59
  L 192.00 168.50
  Q 188.48 188.62 168.39 192.00
  L 23.49 192.00
  Q 3.40 188.50 0.00 168.40
  L 0.00 23.47
  Q 3.54 3.40 23.57 0.00
  Z
  M 81.74 53.99
  L 81.64 70.89
  Q 70.33 64.36 59.21 57.96
  Q 54.74 55.39 52.31 54.95
  C 39.69 52.69 30.85 67.68 38.91 77.65
  Q 40.67 79.82 45.65 82.69
  Q 56.75 89.08 67.85 95.49
  Q 67.74 96.04 66.97 96.43
  Q 66.02 96.92 63.30 98.62
  L 51.37 105.50
  C 47.13 107.87 41.27 110.59 38.47 113.98
  C 30.56 123.59 38.79 138.60 50.93 136.91
  C 55.66 136.26 61.06 132.50 65.51 129.84
  L 77.31 123.04
  L 81.74 120.66
  Q 81.73 133.55 81.75 146.31
  Q 81.76 151.59 82.70 154.07
  C 87.07 165.51 103.66 165.68 108.52 155.09
  Q 109.99 151.89 109.98 144.20
  Q 109.96 132.14 109.99 119.86
  Q 121.62 126.52 133.06 133.15
  Q 137.82 135.92 140.46 136.37
  C 152.89 138.49 161.43 123.39 154.01 113.97
  Q 152.06 111.50 144.81 107.36
  Q 134.83 101.66 124.75 95.73
  L 128.09 93.78
  L 140.68 86.45
  Q 146.72 83.24 150.18 80.92
  Q 155.93 77.09 156.15 69.75
  Q 156.40 61.37 149.19 57.34
  C 140.45 52.45 133.74 57.71 126.57 62.12
  L 114.34 69.15
  L 109.99 71.54
  L 109.96 53.96
  Q 110.01 48.29 109.95 42.00
  C 109.79 27.58 88.78 23.81 83.05 36.85
  C 81.01 41.48 81.69 48.56 81.74 53.99
  Z" fill="#000000"></path>
<path d="M 109.96 53.96
  L 81.74 53.99
  C 81.69 48.56 81.01 41.48 83.05 36.85
  C 88.78 23.81 109.79 27.58 109.95 42.00
  Q 110.01 48.29 109.96 53.96
  Z" fill="#965d93"></path>
<path d="M 109.96 53.96
  L 109.99 71.54
  Q 109.87 72.04 109.99 72.22
  Q 109.72 72.12 109.48 72.11
  Q 109.26 72.10 108.99 72.25
  C 106.39 73.74 98.49 79.09 95.98 79.13
  L 81.64 70.89
  L 81.74 53.99
  L 109.96 53.96
  Z" fill="#a655a2"></path>
<path d="M 81.64 70.89
  L 95.98 79.13
  Q 96.74 79.18 96.71 79.91
  Q 95.67 79.96 95.25 80.20
  Q 81.97 87.80 68.33 95.62
  Q 68.11 95.68 67.85 95.49
  Q 56.75 89.08 45.65 82.69
  Q 40.67 79.82 38.91 77.65
  C 30.85 67.68 39.69 52.69 52.31 54.95
  Q 54.74 55.39 59.21 57.96
  Q 70.33 64.36 81.64 70.89
  Z" fill="#b9b9b9"></path>
<path d="M 140.68 86.45
  L 128.18 65.22
  A 0.43 0.38 32.3 0 1 128.12 65.01
  Q 128.12 64.88 128.10 64.75
  Q 128.04 64.27 127.65 63.97
  Q 126.89 63.38 126.57 62.12
  C 133.74 57.71 140.45 52.45 149.19 57.34
  Q 156.40 61.37 156.15 69.75
  Q 155.93 77.09 150.18 80.92
  Q 146.72 83.24 140.68 86.45
  Z" fill="#0e2824"></path>
<path d="M 126.57 62.12
  Q 126.89 63.38 127.65 63.97
  Q 128.04 64.27 128.10 64.75
  Q 128.12 64.88 128.12 65.01
  A 0.43 0.38 32.3 0 0 128.18 65.22
  L 140.68 86.45
  L 128.09 93.78
  Q 128.16 92.25 126.71 89.77
  Q 124.81 86.53 122.83 83.36
  Q 118.51 76.44 114.34 69.15
  L 126.57 62.12
  Z" fill="#1d4740"></path>
<path d="M 114.34 69.15
  Q 118.51 76.44 122.83 83.36
  Q 124.81 86.53 126.71 89.77
  Q 128.16 92.25 128.09 93.78
  L 124.75 95.73
  L 124.06 95.43
  L 110.15 87.38
  L 109.99 72.22
  Q 109.87 72.04 109.99 71.54
  L 114.34 69.15
  Z" fill="#275a52"></path>
<path d="M 109.99 72.22
  L 110.15 87.38
  L 96.71 79.91
  Q 96.74 79.18 95.98 79.13
  C 98.49 79.09 106.39 73.74 108.99 72.25
  Q 109.26 72.10 109.48 72.11
  Q 109.72 72.12 109.99 72.22
  Z" fill="#9796c5"></path>
<path d="M 96.71 79.91
  L 110.15 87.38
  L 124.06 95.43
  L 123.80 95.95
  Q 123.58 96.39 123.16 96.64
  L 96.59 112.05
  L 81.86 103.57
  L 68.33 95.62
  Q 81.97 87.80 95.25 80.20
  Q 95.67 79.96 96.71 79.91
  Z" fill="#9ae1d6"></path>
<path d="M 67.85 95.49
  Q 68.11 95.68 68.33 95.62
  L 81.86 103.57
  L 81.86 120.44
  L 81.74 120.66
  L 77.31 123.04
  C 77.74 120.50 75.30 119.83 74.64 117.74
  Q 74.01 115.73 72.55 114.21
  A 1.92 1.88 15.0 0 1 72.13 113.50
  Q 71.79 112.47 71.01 111.74
  Q 70.68 111.42 70.44 111.02
  L 63.30 98.62
  Q 66.02 96.92 66.97 96.43
  Q 67.74 96.04 67.85 95.49
  Z" fill="#65b2a7"></path>
<path d="M 124.06 95.43
  L 124.75 95.73
  Q 134.83 101.66 144.81 107.36
  Q 152.06 111.50 154.01 113.97
  C 161.43 123.39 152.89 138.49 140.46 136.37
  Q 137.82 135.92 133.06 133.15
  Q 121.62 126.52 109.99 119.86
  L 96.48 112.03
  Q 96.53 112.04 96.59 112.05
  L 123.16 96.64
  Q 123.58 96.39 123.80 95.95
  L 124.06 95.43
  Z" fill="#b9b9b9"></path>
<path d="M 63.30 98.62
  L 70.44 111.02
  Q 70.68 111.42 71.01 111.74
  Q 71.79 112.47 72.13 113.50
  A 1.92 1.88 15.0 0 0 72.55 114.21
  Q 74.01 115.73 74.64 117.74
  C 75.30 119.83 77.74 120.50 77.31 123.04
  L 65.51 129.84
  Q 65.17 128.71 64.25 128.05
  Q 63.83 127.75 63.89 127.25
  C 64.10 125.31 62.70 124.54 62.03 123.32
  Q 59.80 119.31 57.17 115.55
  Q 57.14 115.50 57.13 115.43
  Q 57.13 115.31 57.13 115.18
  Q 57.13 115.06 57.07 114.95
  L 51.37 105.50
  L 63.30 98.62
  Z" fill="#76c6bb"></path>
<path d="M 81.86 103.57
  L 96.59 112.05
  Q 96.53 112.04 96.48 112.03
  L 81.86 120.44
  L 81.86 103.57
  Z" fill="#a0b7dd"></path>
<path d="M 51.37 105.50
  L 57.07 114.95
  Q 57.13 115.06 57.13 115.18
  Q 57.13 115.31 57.13 115.43
  Q 57.14 115.50 57.17 115.55
  Q 59.80 119.31 62.03 123.32
  C 62.70 124.54 64.10 125.31 63.89 127.25
  Q 63.83 127.75 64.25 128.05
  Q 65.17 128.71 65.51 129.84
  C 61.06 132.50 55.66 136.26 50.93 136.91
  C 38.79 138.60 30.56 123.59 38.47 113.98
  C 41.27 110.59 47.13 107.87 51.37 105.50
  Z" fill="#9ae1d6"></path>
<path d="M 96.48 112.03
  L 109.99 119.86
  Q 109.96 132.14 109.98 144.20
  Q 109.99 151.89 108.52 155.09
  C 103.66 165.68 87.07 165.51 82.70 154.07
  Q 81.76 151.59 81.75 146.31
  Q 81.73 133.55 81.74 120.66
  L 81.86 120.44
  L 96.48 112.03
  Z" fill="#d623cb"></path>
</svg>
