<svg viewBox="0.00 0.00 32.00 32.00" version="1.1" xmlns="http://www.w3.org/2000/svg">
<g stroke-linecap="butt" fill="none" stroke-width="2.00">
<path d="M 19.38 3.08
  Q 13.55 2.88 7.51 3.28
  C 5.01 3.44 3.99 5.72 2.72 7.57" stroke-opacity="0.992" stroke="#eca8e0"></path>
<path d="M 30.00 7.14
  Q 28.70 7.18 27.78 6.68" stroke-opacity="0.757" stroke="#7b049a"></path>
<path d="M 27.78 6.68
  Q 25.40 2.36 19.38 3.08" stroke-opacity="0.757" stroke="#ceacd3"></path>
<path d="M 27.78 6.68
  C 28.93 11.51 28.19 18.43 28.20 23.50
  C 28.20 27.03 25.08 28.65 21.73 28.75
  Q 14.20 28.97 6.84 28.60" stroke="#c080d4"></path>
<path d="M 6.84 28.60
  Q 3.34 26.42 3.32 24.50
  Q 3.26 17.85 2.45 11.18" stroke-opacity="0.757" stroke="#bbbad1"></path>
<path d="M 6.97 30.37
  Q 7.37 29.28 6.84 28.60" stroke-opacity="0.757" stroke="#681298"></path>
<path d="M 8.41 17.52
  Q 7.48 19.69 7.39 22.22
  Q 7.36 23.08 7.97 22.46
  Q 11.16 19.23 15.77 19.00
  A 0.49 0.49 0.0 0 1 16.28 19.48
  L 16.35 22.23
  A 0.55 0.55 0.0 0 0 17.27 22.62
  L 22.08 18.20" stroke="#b9a3ff"></path>
<path d="M 22.08 18.20
  Q 25.79 16.04 23.03 13.54
  Q 20.19 10.96 17.23 8.43
  A 0.51 0.51 0.0 0 0 16.40 8.72
  Q 16.17 9.99 16.37 11.22
  Q 16.48 11.90 15.80 12.02
  Q 10.32 12.93 8.41 17.52" stroke="#ce97ff"></path>
<path d="M 22.08 18.20
  L 8.41 17.52" stroke="#883bff"></path>
</g>
<path d="M 19.70 1.85
  L 19.88 2.04
  A 0.30 0.29 -48.3 0 1 19.90 2.42
  L 19.38 3.08
  Q 13.55 2.88 7.51 3.28
  C 5.01 3.44 3.99 5.72 2.72 7.57
  C 3.01 3.41 5.75 2.19 9.50 2.19
  Q 14.63 2.20 19.70 1.85
  Z" fill-opacity="0.980" fill="#d850c1"></path>
<path d="M 19.70 1.85
  Q 23.96 1.44 25.26 1.74
  Q 29.46 2.69 30.00 7.14
  Q 28.70 7.18 27.78 6.68
  Q 25.40 2.36 19.38 3.08
  L 19.90 2.42
  A 0.30 0.29 -48.3 0 0 19.88 2.04
  L 19.70 1.85
  Z" fill-opacity="0.514" fill="#6e0b7e"></path>
<path d="M 19.38 3.08
  Q 25.40 2.36 27.78 6.68
  C 28.93 11.51 28.19 18.43 28.20 23.50
  C 28.20 27.03 25.08 28.65 21.73 28.75
  Q 14.20 28.97 6.84 28.60
  Q 3.34 26.42 3.32 24.50
  Q 3.26 17.85 2.45 11.18
  L 2.72 7.57
  C 3.99 5.72 5.01 3.44 7.51 3.28
  Q 13.55 2.88 19.38 3.08
  Z
  M 8.41 17.52
  Q 7.48 19.69 7.39 22.22
  Q 7.36 23.08 7.97 22.46
  Q 11.16 19.23 15.77 19.00
  A 0.49 0.49 0.0 0 1 16.28 19.48
  L 16.35 22.23
  A 0.55 0.55 0.0 0 0 17.27 22.62
  L 22.08 18.20
  Q 25.79 16.04 23.03 13.54
  Q 20.19 10.96 17.23 8.43
  A 0.51 0.51 0.0 0 0 16.40 8.72
  Q 16.17 9.99 16.37 11.22
  Q 16.48 11.90 15.80 12.02
  Q 10.32 12.93 8.41 17.52
  Z" fill="#ffffff"></path>
<path d="M 27.78 6.68
  Q 28.70 7.18 30.00 7.14
  Q 30.93 17.56 30.47 25.50
  C 30.23 29.66 27.26 30.97 23.34 31.01
  Q 17.18 31.06 11.03 30.98
  C 9.69 30.97 8.42 30.34 6.97 30.37
  Q 7.37 29.28 6.84 28.60
  Q 14.20 28.97 21.73 28.75
  C 25.08 28.65 28.20 27.03 28.20 23.50
  C 28.19 18.43 28.93 11.51 27.78 6.68
  Z" fill="#8100a9"></path>
<path d="M 22.08 18.20
  L 8.41 17.52
  Q 10.32 12.93 15.80 12.02
  Q 16.48 11.90 16.37 11.22
  Q 16.17 9.99 16.40 8.72
  A 0.51 0.51 0.0 0 1 17.23 8.43
  Q 20.19 10.96 23.03 13.54
  Q 25.79 16.04 22.08 18.20
  Z" fill="#9d2eff"></path>
<path d="M 2.45 11.18
  Q 3.26 17.85 3.32 24.50
  Q 3.34 26.42 6.84 28.60
  Q 7.37 29.28 6.97 30.37
  Q 2.57 29.57 2.15 24.75
  Q 1.57 17.98 2.45 11.18
  Z" fill-opacity="0.514" fill="#373477"></path>
<path d="M 8.41 17.52
  L 22.08 18.20
  L 17.27 22.62
  A 0.55 0.55 0.0 0 1 16.35 22.23
  L 16.28 19.48
  A 0.49 0.49 0.0 0 0 15.77 19.00
  Q 11.16 19.23 7.97 22.46
  Q 7.36 23.08 7.39 22.22
  Q 7.48 19.69 8.41 17.52
  Z" fill="#7247ff"></path>
</svg>
