<svg viewBox="0.00 0.00 65.00 65.00" version="1.1" xmlns="http://www.w3.org/2000/svg">
<g stroke-linecap="butt" fill="none" stroke-width="2.00">
<path d="M 19.51 26.58
  L 1.52 61.93
  Q 0.94 63.07 2.00 62.36
  L 28.12 45.10" stroke="#82f6ff"></path>
<path d="M 28.12 45.10
  L 32.44 42.26
  Q 32.79 42.03 33.13 42.26
  L 62.71 62.48
  Q 64.33 63.58 63.45 61.83
  L 32.83 1.14
  A 0.19 0.19 0.0 0 0 32.49 1.14
  L 19.51 26.58" stroke="#81c3ff"></path>
<path d="M 28.12 45.10
  L 24.89 41.16
  Q 24.59 40.79 24.20 40.51
  L 22.92 39.60" stroke="#04baff"></path>
<path d="M 22.92 39.60
  L 32.01 33.84
  Q 32.47 33.55 32.93 33.85
  L 44.32 41.17
  Q 44.72 41.43 44.50 41.00
  L 32.88 18.35
  A 0.48 0.47 44.8 0 0 32.03 18.35
  L 25.62 31.06" stroke="#81c3ff"></path>
<path d="M 25.62 31.06
  L 19.51 26.58" stroke="#04baff"></path>
<path d="M 22.92 39.60
  L 21.98 40.26
  A 0.50 0.49 58.3 0 1 21.25 40.08
  Q 20.99 39.60 21.33 39.01
  Q 23.77 34.79 25.62 31.06" stroke="#82f6ff"></path>
<path d="M 59.22 63.33
  L 32.70 46.47
  Q 32.38 46.26 32.06 46.47
  L 6.04 63.15
  Q 4.78 63.95 6.27 63.99
  C 10.29 64.08 17.58 64.87 21.14 62.66
  Q 26.13 59.57 31.26 55.98
  A 1.98 1.97 44.4 0 1 33.50 55.96
  L 44.93 63.69
  A 1.47 1.43 61.4 0 0 45.74 63.94
  L 59.01 64.04
  A 0.39 0.38 -28.6 0 0 59.22 63.33" stroke="#83ebff"></path>
</g>
<path d="M 0.00 0.00
  L 65.00 0.00
  L 65.00 65.00
  L 0.00 65.00
  L 0.00 0.00
  Z
  M 19.51 26.58
  L 1.52 61.93
  Q 0.94 63.07 2.00 62.36
  L 28.12 45.10
  L 32.44 42.26
  Q 32.79 42.03 33.13 42.26
  L 62.71 62.48
  Q 64.33 63.58 63.45 61.83
  L 32.83 1.14
  A 0.19 0.19 0.0 0 0 32.49 1.14
  L 19.51 26.58
  Z
  M 59.22 63.33
  L 32.70 46.47
  Q 32.38 46.26 32.06 46.47
  L 6.04 63.15
  Q 4.78 63.95 6.27 63.99
  C 10.29 64.08 17.58 64.87 21.14 62.66
  Q 26.13 59.57 31.26 55.98
  A 1.98 1.97 44.4 0 1 33.50 55.96
  L 44.93 63.69
  A 1.47 1.43 61.4 0 0 45.74 63.94
  L 59.01 64.04
  A 0.39 0.38 -28.6 0 0 59.22 63.33
  Z" fill="#ffffff"></path>
<path d="M 28.12 45.10
  L 24.89 41.16
  Q 24.59 40.79 24.20 40.51
  L 22.92 39.60
  L 32.01 33.84
  Q 32.47 33.55 32.93 33.85
  L 44.32 41.17
  Q 44.72 41.43 44.50 41.00
  L 32.88 18.35
  A 0.48 0.47 44.8 0 0 32.03 18.35
  L 25.62 31.06
  L 19.51 26.58
  L 32.49 1.14
  A 0.19 0.19 0.0 0 1 32.83 1.14
  L 63.45 61.83
  Q 64.33 63.58 62.71 62.48
  L 33.13 42.26
  Q 32.79 42.03 32.44 42.26
  L 28.12 45.10
  Z" fill="#0287fe"></path>
<path d="M 22.92 39.60
  L 21.98 40.26
  A 0.50 0.49 58.3 0 1 21.25 40.08
  Q 20.99 39.60 21.33 39.01
  Q 23.77 34.79 25.62 31.06
  L 32.03 18.35
  A 0.48 0.47 44.8 0 1 32.88 18.35
  L 44.50 41.00
  Q 44.72 41.43 44.32 41.17
  L 32.93 33.85
  Q 32.47 33.55 32.01 33.84
  L 22.92 39.60
  Z" fill="#ffffff"></path>
<path d="M 19.51 26.58
  L 25.62 31.06
  Q 23.77 34.79 21.33 39.01
  Q 20.99 39.60 21.25 40.08
  A 0.50 0.49 58.3 0 0 21.98 40.26
  L 22.92 39.60
  L 24.20 40.51
  Q 24.59 40.79 24.89 41.16
  L 28.12 45.10
  L 2.00 62.36
  Q 0.94 63.07 1.52 61.93
  L 19.51 26.58
  Z" fill="#05ecff"></path>
<path d="M 32.70 46.47
  L 59.22 63.33
  A 0.39 0.38 -28.6 0 1 59.01 64.04
  L 45.74 63.94
  A 1.47 1.43 61.4 0 1 44.93 63.69
  L 33.50 55.96
  A 1.98 1.97 44.4 0 0 31.26 55.98
  Q 26.13 59.57 21.14 62.66
  C 17.58 64.87 10.29 64.08 6.27 63.99
  Q 4.78 63.95 6.04 63.15
  L 32.06 46.47
  Q 32.38 46.26 32.70 46.47
  Z" fill="#07d6fe"></path>
</svg>
