<svg viewBox="0.00 0.00 246.00 246.00" version="1.1" xmlns="http://www.w3.org/2000/svg">
<g stroke-linecap="butt" fill="none" stroke-width="2.00">
<path d="M 246.00 80.49
  L 244.15 85.99
  Q 243.58 87.70 242.56 86.28
  Q 242.49 86.17 241.68 86.05
  Q 241.21 85.98 240.77 86.12
  Q 239.01 86.69 237.19 87.75
  A 1.31 1.29 -54.1 0 1 236.30 87.90
  Q 235.56 87.76 235.25 88.31
  Q 235.05 88.68 234.77 88.99
  Q 234.21 89.60 233.60 89.24
  Q 233.40 89.12 233.17 89.20
  Q 231.75 89.69 230.74 88.58
  A 0.93 0.91 -17.7 0 0 230.17 88.29
  Q 229.50 88.22 229.18 88.74
  Q 228.98 89.06 228.61 89.02
  Q 228.01 88.97 227.29 89.19
  Q 226.62 89.40 226.24 88.84
  Q 225.98 88.44 225.51 88.39
  C 223.57 88.17 221.82 87.81 219.84 88.04
  C 217.77 88.29 213.81 88.02 212.12 88.69
  Q 211.67 88.87 211.24 88.65
  C 210.12 88.08 209.49 88.79 208.67 88.92
  Q 207.23 89.16 205.77 89.11
  C 202.79 89.01 201.71 86.73 198.15 88.04
  C 195.10 89.16 192.30 89.85 189.12 90.48
  Q 188.69 90.56 188.54 90.15
  Q 188.44 89.85 187.97 90.00
  Q 187.57 90.13 187.48 90.54
  L 187.08 92.39" stroke="#003269"></path>
<path d="M 187.08 92.39
  C 183.51 83.52 177.66 82.24 168.18 82.27
  Q 160.98 82.29 153.82 82.26
  Q 153.17 82.25 152.88 81.67
  Q 149.33 74.45 145.41 67.07
  C 143.55 63.58 141.11 62.51 137.03 62.50
  Q 123.76 62.46 110.47 62.51
  C 105.99 62.52 103.24 63.71 101.29 67.60
  Q 97.78 74.65 94.25 81.78
  A 0.86 0.85 12.6 0 1 93.50 82.25
  Q 83.93 82.31 74.50 82.26
  Q 65.28 82.20 60.82 90.75" stroke="#809ab8"></path>
<path d="M 60.82 90.75
  L 60.31 88.19
  Q 60.23 87.78 59.93 88.08
  Q 59.76 88.26 59.50 88.50
  Q 59.33 88.65 59.15 88.51
  L 57.92 87.59
  Q 57.58 87.34 57.16 87.35
  L 55.51 87.39
  Q 55.09 87.41 54.72 87.21
  Q 51.27 85.44 47.52 86.47
  Q 45.52 87.01 43.58 86.32
  A 1.90 1.81 -37.4 0 0 42.75 86.23
  Q 36.54 87.00 30.29 86.83
  Q 29.82 86.81 29.47 87.12
  C 27.78 88.56 25.55 87.46 23.69 86.91
  A 2.57 2.57 0.0 0 0 20.98 87.74
  Q 19.98 88.93 18.46 88.73
  A 1.75 1.74 -54.4 0 0 17.45 88.90
  Q 14.65 90.28 11.51 89.66
  Q 11.17 89.59 10.99 89.30
  Q 10.82 89.04 10.51 88.95
  Q 10.13 88.85 10.00 88.80
  Q 9.10 88.44 8.44 89.20
  Q 8.10 89.59 7.62 89.41
  Q 5.95 88.80 4.15 89.03
  Q 3.66 89.09 3.20 88.90
  Q 1.21 88.06 0.00 86.39" stroke="#003269"></path>
<path d="M 33.00 38.23
  C 32.24 30.19 45.97 21.12 52.04 17.80
  A 0.36 0.35 63.1 0 0 52.19 17.33
  L 49.62 12.30
  A 0.33 0.32 65.1 0 0 49.20 12.14
  C 39.07 16.36 22.90 25.75 18.56 36.29
  C 14.90 45.19 15.27 59.21 24.99 64.52
  C 33.56 69.21 44.90 67.78 49.25 58.27
  C 54.24 47.34 44.63 37.67 33.58 38.70
  Q 33.05 38.75 33.00 38.23" stroke="#809ab8"></path>
<path d="M 73.73 38.14
  C 73.41 30.03 86.26 21.30 92.38 18.07
  A 0.84 0.84 0.0 0 0 92.74 16.96
  L 90.62 12.64
  A 0.82 0.81 -24.6 0 0 89.55 12.25
  C 80.33 16.32 70.70 22.03 63.81 29.56
  C 52.27 42.18 55.08 68.01 76.76 67.04
  C 96.64 66.15 95.89 37.11 74.33 38.67
  Q 73.75 38.71 73.73 38.14" stroke="#809ab8"></path>
<path d="M 187.08 92.39
  Q 187.54 94.34 187.55 96.75
  Q 187.66 120.42 187.67 144.01" stroke="#8097b1"></path>
<path d="M 187.67 144.01
  C 188.27 152.08 182.98 161.04 174.00 161.05
  Q 125.72 161.08 77.43 161.03
  Q 70.90 161.03 67.80 159.61
  Q 60.73 156.39 59.47 147.56" stroke="#8093a9"></path>
<path d="M 59.47 147.56
  Q 59.59 122.26 59.52 97.00
  Q 59.51 93.72 60.82 90.75" stroke="#8097b1"></path>
<path d="M 79.20 97.03
  A 4.97 4.97 0.0 0 0 74.23 92.06
  A 4.97 4.97 0.0 0 0 69.26 97.03
  A 4.97 4.97 0.0 0 0 74.23 102.00
  A 4.97 4.97 0.0 0 0 79.20 97.03" stroke="#8097b1"></path>
<path d="M 153.21 121.70
  A 29.63 29.63 0.0 0 0 123.58 92.07
  A 29.63 29.63 0.0 0 0 93.95 121.70
  A 29.63 29.63 0.0 0 0 123.58 151.33
  A 29.63 29.63 0.0 0 0 153.21 121.70" stroke="#8097b1"></path>
<path d="M 246.00 162.88
  C 245.40 161.59 245.50 160.36 244.79 159.12
  C 243.62 157.05 243.02 155.14 240.71 153.66
  C 239.20 152.69 238.08 151.27 236.46 150.34
  Q 236.02 150.09 235.51 150.15
  Q 233.17 150.45 231.40 148.83
  A 0.74 0.73 -58.4 0 1 231.21 148.01
  Q 231.52 147.20 230.99 146.53
  Q 230.71 146.18 230.27 146.12
  C 228.55 145.88 226.73 144.19 225.23 143.35
  Q 223.52 142.39 221.53 142.26
  Q 218.07 142.04 214.58 142.39
  Q 214.17 142.43 213.89 142.74
  Q 212.07 144.73 209.55 143.43
  A 0.80 0.78 -48.0 0 0 208.75 143.48
  Q 208.32 143.78 208.09 143.31
  Q 207.95 143.01 207.62 143.03
  L 201.00 143.27
  Q 200.56 143.28 200.26 142.96
  Q 199.74 142.40 199.32 142.68
  Q 198.85 143.01 198.34 142.74
  Q 197.25 142.18 196.00 142.34
  Q 193.22 142.70 190.54 143.55
  Q 190.13 143.68 189.88 144.03
  Q 188.89 145.40 187.67 144.01" stroke="#002b5a"></path>
<path d="M 59.47 147.56
  L 59.21 137.45
  Q 59.20 137.02 58.90 136.73
  L 58.60 136.42
  Q 58.41 136.23 58.34 135.98
  L 57.84 134.24
  Q 57.62 133.47 57.62 134.27
  L 57.62 135.51
  A 0.23 0.23 0.0 0 1 57.17 135.59
  Q 57.07 135.33 57.13 135.03
  Q 57.22 134.62 56.89 134.88
  L 55.30 136.09
  Q 54.97 136.34 54.76 136.70
  Q 54.32 137.42 53.68 137.94
  Q 53.35 138.21 52.98 137.99
  Q 52.37 137.63 51.55 137.49
  Q 51.21 137.43 50.89 137.59
  L 48.95 138.56
  Q 48.52 138.78 48.10 138.53
  Q 47.33 138.07 46.83 138.65
  Q 46.45 139.11 45.87 138.99
  Q 42.99 138.40 40.27 139.11
  Q 39.78 139.24 39.29 139.14
  Q 38.42 138.97 37.72 139.34
  Q 37.31 139.55 36.85 139.59
  C 33.25 139.88 29.62 138.75 27.70 142.64
  A 0.79 0.78 -80.0 0 1 27.09 143.07
  C 25.96 143.21 25.28 144.13 23.99 144.17
  Q 23.44 144.18 23.21 144.68
  L 21.48 148.50
  Q 21.30 148.89 20.90 149.03
  Q 20.75 149.08 20.61 149.16
  Q 20.42 149.27 20.30 149.46
  L 18.68 152.20
  Q 18.39 152.68 17.85 152.58
  C 15.56 152.16 14.04 153.52 12.23 153.94
  Q 8.04 154.91 4.33 157.15
  Q 3.86 157.43 3.74 157.96
  Q 3.35 159.55 2.03 160.42
  Q 1.57 160.72 1.26 161.18
  L 0.00 163.01" stroke="#002b5a"></path>
<path d="M 138.35 121.68
  A 14.77 14.77 0.0 0 0 123.58 106.91
  A 14.77 14.77 0.0 0 0 108.81 121.68
  A 14.77 14.77 0.0 0 0 123.58 136.45
  A 14.77 14.77 0.0 0 0 138.35 121.68" stroke="#8097b1"></path>
<path d="M 168.39 204.54
  C 168.34 213.03 156.20 221.22 149.67 224.69
  Q 149.08 225.00 149.38 225.59
  L 151.64 230.07
  A 0.66 0.65 -25.3 0 0 152.48 230.37
  C 168.46 223.68 187.13 211.52 184.89 192.24
  Q 183.22 177.89 169.95 175.84
  C 147.57 172.39 144.00 202.75 165.02 204.11
  C 165.84 204.17 166.92 203.92 167.88 203.99
  Q 168.39 204.02 168.39 204.54" stroke="#8093a9"></path>
<path d="M 209.28 204.60
  C 208.01 213.77 197.16 221.14 190.09 224.84
  A 0.31 0.30 -27.0 0 0 189.95 225.25
  L 192.62 230.37
  A 0.31 0.31 0.0 0 0 193.01 230.51
  Q 204.90 225.54 215.19 216.91
  Q 224.97 208.70 225.67 196.94
  Q 226.18 188.42 222.23 182.71
  C 217.52 175.89 206.40 173.32 198.88 177.69
  C 189.39 183.21 189.19 196.67 198.85 202.13
  Q 203.23 204.60 208.68 203.98
  Q 209.38 203.90 209.28 204.60" stroke="#8093a9"></path>
</g>
<path d="M 0.00 0.00
  L 246.00 0.00
  L 246.00 80.49
  L 244.15 85.99
  Q 243.58 87.70 242.56 86.28
  Q 242.49 86.17 241.68 86.05
  Q 241.21 85.98 240.77 86.12
  Q 239.01 86.69 237.19 87.75
  A 1.31 1.29 -54.1 0 1 236.30 87.90
  Q 235.56 87.76 235.25 88.31
  Q 235.05 88.68 234.77 88.99
  Q 234.21 89.60 233.60 89.24
  Q 233.40 89.12 233.17 89.20
  Q 231.75 89.69 230.74 88.58
  A 0.93 0.91 -17.7 0 0 230.17 88.29
  Q 229.50 88.22 229.18 88.74
  Q 228.98 89.06 228.61 89.02
  Q 228.01 88.97 227.29 89.19
  Q 226.62 89.40 226.24 88.84
  Q 225.98 88.44 225.51 88.39
  C 223.57 88.17 221.82 87.81 219.84 88.04
  C 217.77 88.29 213.81 88.02 212.12 88.69
  Q 211.67 88.87 211.24 88.65
  C 210.12 88.08 209.49 88.79 208.67 88.92
  Q 207.23 89.16 205.77 89.11
  C 202.79 89.01 201.71 86.73 198.15 88.04
  C 195.10 89.16 192.30 89.85 189.12 90.48
  Q 188.69 90.56 188.54 90.15
  Q 188.44 89.85 187.97 90.00
  Q 187.57 90.13 187.48 90.54
  L 187.08 92.39
  C 183.51 83.52 177.66 82.24 168.18 82.27
  Q 160.98 82.29 153.82 82.26
  Q 153.17 82.25 152.88 81.67
  Q 149.33 74.45 145.41 67.07
  C 143.55 63.58 141.11 62.51 137.03 62.50
  Q 123.76 62.46 110.47 62.51
  C 105.99 62.52 103.24 63.71 101.29 67.60
  Q 97.78 74.65 94.25 81.78
  A 0.86 0.85 12.6 0 1 93.50 82.25
  Q 83.93 82.31 74.50 82.26
  Q 65.28 82.20 60.82 90.75
  L 60.31 88.19
  Q 60.23 87.78 59.93 88.08
  Q 59.76 88.26 59.50 88.50
  Q 59.33 88.65 59.15 88.51
  L 57.92 87.59
  Q 57.58 87.34 57.16 87.35
  L 55.51 87.39
  Q 55.09 87.41 54.72 87.21
  Q 51.27 85.44 47.52 86.47
  Q 45.52 87.01 43.58 86.32
  A 1.90 1.81 -37.4 0 0 42.75 86.23
  Q 36.54 87.00 30.29 86.83
  Q 29.82 86.81 29.47 87.12
  C 27.78 88.56 25.55 87.46 23.69 86.91
  A 2.57 2.57 0.0 0 0 20.98 87.74
  Q 19.98 88.93 18.46 88.73
  A 1.75 1.74 -54.4 0 0 17.45 88.90
  Q 14.65 90.28 11.51 89.66
  Q 11.17 89.59 10.99 89.30
  Q 10.82 89.04 10.51 88.95
  Q 10.13 88.85 10.00 88.80
  Q 9.10 88.44 8.44 89.20
  Q 8.10 89.59 7.62 89.41
  Q 5.95 88.80 4.15 89.03
  Q 3.66 89.09 3.20 88.90
  Q 1.21 88.06 0.00 86.39
  L 0.00 0.00
  Z
  M 33.00 38.23
  C 32.24 30.19 45.97 21.12 52.04 17.80
  A 0.36 0.35 63.1 0 0 52.19 17.33
  L 49.62 12.30
  A 0.33 0.32 65.1 0 0 49.20 12.14
  C 39.07 16.36 22.90 25.75 18.56 36.29
  C 14.90 45.19 15.27 59.21 24.99 64.52
  C 33.56 69.21 44.90 67.78 49.25 58.27
  C 54.24 47.34 44.63 37.67 33.58 38.70
  Q 33.05 38.75 33.00 38.23
  Z
  M 73.73 38.14
  C 73.41 30.03 86.26 21.30 92.38 18.07
  A 0.84 0.84 0.0 0 0 92.74 16.96
  L 90.62 12.64
  A 0.82 0.81 -24.6 0 0 89.55 12.25
  C 80.33 16.32 70.70 22.03 63.81 29.56
  C 52.27 42.18 55.08 68.01 76.76 67.04
  C 96.64 66.15 95.89 37.11 74.33 38.67
  Q 73.75 38.71 73.73 38.14
  Z" fill="#003570"></path>
<path d="M 33.58 38.70
  C 44.63 37.67 54.24 47.34 49.25 58.27
  C 44.90 67.78 33.56 69.21 24.99 64.52
  C 15.27 59.21 14.90 45.19 18.56 36.29
  C 22.90 25.75 39.07 16.36 49.20 12.14
  A 0.33 0.32 65.1 0 1 49.62 12.30
  L 52.19 17.33
  A 0.36 0.35 63.1 0 1 52.04 17.80
  C 45.97 21.12 32.24 30.19 33.00 38.23
  Q 33.05 38.75 33.58 38.70
  Z" fill="#ffffff"></path>
<path d="M 74.33 38.67
  C 95.89 37.11 96.64 66.15 76.76 67.04
  C 55.08 68.01 52.27 42.18 63.81 29.56
  C 70.70 22.03 80.33 16.32 89.55 12.25
  A 0.82 0.81 -24.6 0 1 90.62 12.64
  L 92.74 16.96
  A 0.84 0.84 0.0 0 1 92.38 18.07
  C 86.26 21.30 73.41 30.03 73.73 38.14
  Q 73.75 38.71 74.33 38.67
  Z" fill="#ffffff"></path>
<path d="M 187.08 92.39
  Q 187.54 94.34 187.55 96.75
  Q 187.66 120.42 187.67 144.01
  C 188.27 152.08 182.98 161.04 174.00 161.05
  Q 125.72 161.08 77.43 161.03
  Q 70.90 161.03 67.80 159.61
  Q 60.73 156.39 59.47 147.56
  Q 59.59 122.26 59.52 97.00
  Q 59.51 93.72 60.82 90.75
  Q 65.28 82.20 74.50 82.26
  Q 83.93 82.31 93.50 82.25
  A 0.86 0.85 12.6 0 0 94.25 81.78
  Q 97.78 74.65 101.29 67.60
  C 103.24 63.71 105.99 62.52 110.47 62.51
  Q 123.76 62.46 137.03 62.50
  C 141.11 62.51 143.55 63.58 145.41 67.07
  Q 149.33 74.45 152.88 81.67
  Q 153.17 82.25 153.82 82.26
  Q 160.98 82.29 168.18 82.27
  C 177.66 82.24 183.51 83.52 187.08 92.39
  Z
  M 79.20 97.03
  A 4.97 4.97 0.0 0 0 74.23 92.06
  A 4.97 4.97 0.0 0 0 69.26 97.03
  A 4.97 4.97 0.0 0 0 74.23 102.00
  A 4.97 4.97 0.0 0 0 79.20 97.03
  Z
  M 153.21 121.70
  A 29.63 29.63 0.0 0 0 123.58 92.07
  A 29.63 29.63 0.0 0 0 93.95 121.70
  A 29.63 29.63 0.0 0 0 123.58 151.33
  A 29.63 29.63 0.0 0 0 153.21 121.70
  Z" fill="#ffffff"></path>
<path d="M 246.00 80.49
  L 246.00 162.88
  C 245.40 161.59 245.50 160.36 244.79 159.12
  C 243.62 157.05 243.02 155.14 240.71 153.66
  C 239.20 152.69 238.08 151.27 236.46 150.34
  Q 236.02 150.09 235.51 150.15
  Q 233.17 150.45 231.40 148.83
  A 0.74 0.73 -58.4 0 1 231.21 148.01
  Q 231.52 147.20 230.99 146.53
  Q 230.71 146.18 230.27 146.12
  C 228.55 145.88 226.73 144.19 225.23 143.35
  Q 223.52 142.39 221.53 142.26
  Q 218.07 142.04 214.58 142.39
  Q 214.17 142.43 213.89 142.74
  Q 212.07 144.73 209.55 143.43
  A 0.80 0.78 -48.0 0 0 208.75 143.48
  Q 208.32 143.78 208.09 143.31
  Q 207.95 143.01 207.62 143.03
  L 201.00 143.27
  Q 200.56 143.28 200.26 142.96
  Q 199.74 142.40 199.32 142.68
  Q 198.85 143.01 198.34 142.74
  Q 197.25 142.18 196.00 142.34
  Q 193.22 142.70 190.54 143.55
  Q 190.13 143.68 189.88 144.03
  Q 188.89 145.40 187.67 144.01
  Q 187.66 120.42 187.55 96.75
  Q 187.54 94.34 187.08 92.39
  L 187.48 90.54
  Q 187.57 90.13 187.97 90.00
  Q 188.44 89.85 188.54 90.15
  Q 188.69 90.56 189.12 90.48
  C 192.30 89.85 195.10 89.16 198.15 88.04
  C 201.71 86.73 202.79 89.01 205.77 89.11
  Q 207.23 89.16 208.67 88.92
  C 209.49 88.79 210.12 88.08 211.24 88.65
  Q 211.67 88.87 212.12 88.69
  C 213.81 88.02 217.77 88.29 219.84 88.04
  C 221.82 87.81 223.57 88.17 225.51 88.39
  Q 225.98 88.44 226.24 88.84
  Q 226.62 89.40 227.29 89.19
  Q 228.01 88.97 228.61 89.02
  Q 228.98 89.06 229.18 88.74
  Q 229.50 88.22 230.17 88.29
  A 0.93 0.91 -17.7 0 1 230.74 88.58
  Q 231.75 89.69 233.17 89.20
  Q 233.40 89.12 233.60 89.24
  Q 234.21 89.60 234.77 88.99
  Q 235.05 88.68 235.25 88.31
  Q 235.56 87.76 236.30 87.90
  A 1.31 1.29 -54.1 0 0 237.19 87.75
  Q 239.01 86.69 240.77 86.12
  Q 241.21 85.98 241.68 86.05
  Q 242.49 86.17 242.56 86.28
  Q 243.58 87.70 244.15 85.99
  L 246.00 80.49
  Z" fill="#002e62"></path>
<path d="M 60.82 90.75
  Q 59.51 93.72 59.52 97.00
  Q 59.59 122.26 59.47 147.56
  L 59.21 137.45
  Q 59.20 137.02 58.90 136.73
  L 58.60 136.42
  Q 58.41 136.23 58.34 135.98
  L 57.84 134.24
  Q 57.62 133.47 57.62 134.27
  L 57.62 135.51
  A 0.23 0.23 0.0 0 1 57.17 135.59
  Q 57.07 135.33 57.13 135.03
  Q 57.22 134.62 56.89 134.88
  L 55.30 136.09
  Q 54.97 136.34 54.76 136.70
  Q 54.32 137.42 53.68 137.94
  Q 53.35 138.21 52.98 137.99
  Q 52.37 137.63 51.55 137.49
  Q 51.21 137.43 50.89 137.59
  L 48.95 138.56
  Q 48.52 138.78 48.10 138.53
  Q 47.33 138.07 46.83 138.65
  Q 46.45 139.11 45.87 138.99
  Q 42.99 138.40 40.27 139.11
  Q 39.78 139.24 39.29 139.14
  Q 38.42 138.97 37.72 139.34
  Q 37.31 139.55 36.85 139.59
  C 33.25 139.88 29.62 138.75 27.70 142.64
  A 0.79 0.78 -80.0 0 1 27.09 143.07
  C 25.96 143.21 25.28 144.13 23.99 144.17
  Q 23.44 144.18 23.21 144.68
  L 21.48 148.50
  Q 21.30 148.89 20.90 149.03
  Q 20.75 149.08 20.61 149.16
  Q 20.42 149.27 20.30 149.46
  L 18.68 152.20
  Q 18.39 152.68 17.85 152.58
  C 15.56 152.16 14.04 153.52 12.23 153.94
  Q 8.04 154.91 4.33 157.15
  Q 3.86 157.43 3.74 157.96
  Q 3.35 159.55 2.03 160.42
  Q 1.57 160.72 1.26 161.18
  L 0.00 163.01
  L 0.00 86.39
  Q 1.21 88.06 3.20 88.90
  Q 3.66 89.09 4.15 89.03
  Q 5.95 88.80 7.62 89.41
  Q 8.10 89.59 8.44 89.20
  Q 9.10 88.44 10.00 88.80
  Q 10.13 88.85 10.51 88.95
  Q 10.82 89.04 10.99 89.30
  Q 11.17 89.59 11.51 89.66
  Q 14.65 90.28 17.45 88.90
  A 1.75 1.74 -54.4 0 1 18.46 88.73
  Q 19.98 88.93 20.98 87.74
  A 2.57 2.57 0.0 0 1 23.69 86.91
  C 25.55 87.46 27.78 88.56 29.47 87.12
  Q 29.82 86.81 30.29 86.83
  Q 36.54 87.00 42.75 86.23
  A 1.90 1.81 -37.4 0 1 43.58 86.32
  Q 45.52 87.01 47.52 86.47
  Q 51.27 85.44 54.72 87.21
  Q 55.09 87.41 55.51 87.39
  L 57.16 87.35
  Q 57.58 87.34 57.92 87.59
  L 59.15 88.51
  Q 59.33 88.65 59.50 88.50
  Q 59.76 88.26 59.93 88.08
  Q 60.23 87.78 60.31 88.19
  L 60.82 90.75
  Z" fill="#002e62"></path>
<circle r="4.97" cy="97.03" cx="74.23" fill="#002e62"></circle>
<path d="M 153.21 121.70
  A 29.63 29.63 0.0 0 1 123.58 151.33
  A 29.63 29.63 0.0 0 1 93.95 121.70
  A 29.63 29.63 0.0 0 1 123.58 92.07
  A 29.63 29.63 0.0 0 1 153.21 121.70
  Z
  M 138.35 121.68
  A 14.77 14.77 0.0 0 0 123.58 106.91
  A 14.77 14.77 0.0 0 0 108.81 121.68
  A 14.77 14.77 0.0 0 0 123.58 136.45
  A 14.77 14.77 0.0 0 0 138.35 121.68
  Z" fill="#002e62"></path>
<circle r="14.77" cy="121.68" cx="123.58" fill="#ffffff"></circle>
<path d="M 59.47 147.56
  Q 60.73 156.39 67.80 159.61
  Q 70.90 161.03 77.43 161.03
  Q 125.72 161.08 174.00 161.05
  C 182.98 161.04 188.27 152.08 187.67 144.01
  Q 188.89 145.40 189.88 144.03
  Q 190.13 143.68 190.54 143.55
  Q 193.22 142.70 196.00 142.34
  Q 197.25 142.18 198.34 142.74
  Q 198.85 143.01 199.32 142.68
  Q 199.74 142.40 200.26 142.96
  Q 200.56 143.28 201.00 143.27
  L 207.62 143.03
  Q 207.95 143.01 208.09 143.31
  Q 208.32 143.78 208.75 143.48
  A 0.80 0.78 -48.0 0 1 209.55 143.43
  Q 212.07 144.73 213.89 142.74
  Q 214.17 142.43 214.58 142.39
  Q 218.07 142.04 221.53 142.26
  Q 223.52 142.39 225.23 143.35
  C 226.73 144.19 228.55 145.88 230.27 146.12
  Q 230.71 146.18 230.99 146.53
  Q 231.52 147.20 231.21 148.01
  A 0.74 0.73 -58.4 0 0 231.40 148.83
  Q 233.17 150.45 235.51 150.15
  Q 236.02 150.09 236.46 150.34
  C 238.08 151.27 239.20 152.69 240.71 153.66
  C 243.02 155.14 243.62 157.05 244.79 159.12
  C 245.50 160.36 245.40 161.59 246.00 162.88
  L 246.00 246.00
  L 0.00 246.00
  L 0.00 163.01
  L 1.26 161.18
  Q 1.57 160.72 2.03 160.42
  Q 3.35 159.55 3.74 157.96
  Q 3.86 157.43 4.33 157.15
  Q 8.04 154.91 12.23 153.94
  C 14.04 153.52 15.56 152.16 17.85 152.58
  Q 18.39 152.68 18.68 152.20
  L 20.30 149.46
  Q 20.42 149.27 20.61 149.16
  Q 20.75 149.08 20.90 149.03
  Q 21.30 148.89 21.48 148.50
  L 23.21 144.68
  Q 23.44 144.18 23.99 144.17
  C 25.28 144.13 25.96 143.21 27.09 143.07
  A 0.79 0.78 -80.0 0 0 27.70 142.64
  C 29.62 138.75 33.25 139.88 36.85 139.59
  Q 37.31 139.55 37.72 139.34
  Q 38.42 138.97 39.29 139.14
  Q 39.78 139.24 40.27 139.11
  Q 42.99 138.40 45.87 138.99
  Q 46.45 139.11 46.83 138.65
  Q 47.33 138.07 48.10 138.53
  Q 48.52 138.78 48.95 138.56
  L 50.89 137.59
  Q 51.21 137.43 51.55 137.49
  Q 52.37 137.63 52.98 137.99
  Q 53.35 138.21 53.68 137.94
  Q 54.32 137.42 54.76 136.70
  Q 54.97 136.34 55.30 136.09
  L 56.89 134.88
  Q 57.22 134.62 57.13 135.03
  Q 57.07 135.33 57.17 135.59
  A 0.23 0.23 0.0 0 0 57.62 135.51
  L 57.62 134.27
  Q 57.62 133.47 57.84 134.24
  L 58.34 135.98
  Q 58.41 136.23 58.60 136.42
  L 58.90 136.73
  Q 59.20 137.02 59.21 137.45
  L 59.47 147.56
  Z
  M 168.39 204.54
  C 168.34 213.03 156.20 221.22 149.67 224.69
  Q 149.08 225.00 149.38 225.59
  L 151.64 230.07
  A 0.66 0.65 -25.3 0 0 152.48 230.37
  C 168.46 223.68 187.13 211.52 184.89 192.24
  Q 183.22 177.89 169.95 175.84
  C 147.57 172.39 144.00 202.75 165.02 204.11
  C 165.84 204.17 166.92 203.92 167.88 203.99
  Q 168.39 204.02 168.39 204.54
  Z
  M 209.28 204.60
  C 208.01 213.77 197.16 221.14 190.09 224.84
  A 0.31 0.30 -27.0 0 0 189.95 225.25
  L 192.62 230.37
  A 0.31 0.31 0.0 0 0 193.01 230.51
  Q 204.90 225.54 215.19 216.91
  Q 224.97 208.70 225.67 196.94
  Q 226.18 188.42 222.23 182.71
  C 217.52 175.89 206.40 173.32 198.88 177.69
  C 189.39 183.21 189.19 196.67 198.85 202.13
  Q 203.23 204.60 208.68 203.98
  Q 209.38 203.90 209.28 204.60
  Z" fill="#002752"></path>
<path d="M 167.88 203.99
  C 166.92 203.92 165.84 204.17 165.02 204.11
  C 144.00 202.75 147.57 172.39 169.95 175.84
  Q 183.22 177.89 184.89 192.24
  C 187.13 211.52 168.46 223.68 152.48 230.37
  A 0.66 0.65 -25.3 0 1 151.64 230.07
  L 149.38 225.59
  Q 149.08 225.00 149.67 224.69
  C 156.20 221.22 168.34 213.03 168.39 204.54
  Q 168.39 204.02 167.88 203.99
  Z" fill="#ffffff"></path>
<path d="M 208.68 203.98
  Q 203.23 204.60 198.85 202.13
  C 189.19 196.67 189.39 183.21 198.88 177.69
  C 206.40 173.32 217.52 175.89 222.23 182.71
  Q 226.18 188.42 225.67 196.94
  Q 224.97 208.70 215.19 216.91
  Q 204.90 225.54 193.01 230.51
  A 0.31 0.31 0.0 0 1 192.62 230.37
  L 189.95 225.25
  A 0.31 0.30 -27.0 0 1 190.09 224.84
  C 197.16 221.14 208.01 213.77 209.28 204.60
  Q 209.38 203.90 208.68 203.98
  Z" fill="#ffffff"></path>
</svg>
