<svg viewBox="0.00 0.00 152.00 152.00" version="1.1" xmlns="http://www.w3.org/2000/svg">
<g stroke-linecap="butt" fill="none" stroke-width="2.00">
<path d="M 50.67 38.00
  A 12.67 12.67 0.0 0 0 38.00 25.33
  A 12.67 12.67 0.0 0 0 25.33 38.00
  A 12.67 12.67 0.0 0 0 38.00 50.67
  A 12.67 12.67 0.0 0 0 50.67 38.00" stroke="#86a8ff"></path>
<path d="M 126.56 37.54
  A 12.14 12.14 0.0 0 0 114.42 25.40
  L 75.58 25.40
  A 12.14 12.14 0.0 0 0 63.44 37.54
  L 63.44 38.46
  A 12.14 12.14 0.0 0 0 75.58 50.60
  L 114.42 50.60
  A 12.14 12.14 0.0 0 0 126.56 38.46
  L 126.56 37.54" stroke="#86a8ff"></path>
<path d="M 88.5180 75.4499
  A 12.14 12.14 0.0 0 0 76.3357 63.3524
  L 37.5560 63.4878
  A 12.14 12.14 0.0 0 0 25.4584 75.6701
  L 25.4620 76.6901
  A 12.14 12.14 0.0 0 0 37.6443 88.7876
  L 76.4240 88.6522
  A 12.14 12.14 0.0 0 0 88.5216 76.4699
  L 88.5180 75.4499" stroke="#86a8ff"></path>
<path d="M 126.67 75.86
  A 12.66 12.66 0.0 0 0 114.01 63.20
  A 12.66 12.66 0.0 0 0 101.35 75.86
  A 12.66 12.66 0.0 0 0 114.01 88.52
  A 12.66 12.66 0.0 0 0 126.67 75.86" stroke="#86a8ff"></path>
<path d="M 50.67 114.00
  A 12.67 12.67 0.0 0 0 38.00 101.33
  A 12.67 12.67 0.0 0 0 25.33 114.00
  A 12.67 12.67 0.0 0 0 38.00 126.67
  A 12.67 12.67 0.0 0 0 50.67 114.00" stroke="#86a8ff"></path>
<path d="M 126.5608 113.5851
  A 12.13 12.13 0.0 0 0 114.4520 101.4339
  L 75.5920 101.3661
  A 12.13 12.13 0.0 0 0 63.4409 113.4749
  L 63.4392 114.4149
  A 12.13 12.13 0.0 0 0 75.5480 126.5661
  L 114.4080 126.6339
  A 12.13 12.13 0.0 0 0 126.5591 114.5251
  L 126.5608 113.5851" stroke="#86a8ff"></path>
</g>
<path d="M 22.64 0.00
  L 129.02 0.00
  Q 148.37 3.17 152.00 22.64
  L 152.00 129.02
  Q 148.84 148.37 129.36 152.00
  L 22.98 152.00
  Q 3.63 148.83 0.00 129.36
  L 0.00 22.98
  Q 3.17 3.63 22.64 0.00
  Z
  M 50.67 38.00
  A 12.67 12.67 0.0 0 0 38.00 25.33
  A 12.67 12.67 0.0 0 0 25.33 38.00
  A 12.67 12.67 0.0 0 0 38.00 50.67
  A 12.67 12.67 0.0 0 0 50.67 38.00
  Z
  M 126.56 37.54
  A 12.14 12.14 0.0 0 0 114.42 25.40
  L 75.58 25.40
  A 12.14 12.14 0.0 0 0 63.44 37.54
  L 63.44 38.46
  A 12.14 12.14 0.0 0 0 75.58 50.60
  L 114.42 50.60
  A 12.14 12.14 0.0 0 0 126.56 38.46
  L 126.56 37.54
  Z
  M 88.5180 75.4499
  A 12.14 12.14 0.0 0 0 76.3357 63.3524
  L 37.5560 63.4878
  A 12.14 12.14 0.0 0 0 25.4584 75.6701
  L 25.4620 76.6901
  A 12.14 12.14 0.0 0 0 37.6443 88.7876
  L 76.4240 88.6522
  A 12.14 12.14 0.0 0 0 88.5216 76.4699
  L 88.5180 75.4499
  Z
  M 126.67 75.86
  A 12.66 12.66 0.0 0 0 114.01 63.20
  A 12.66 12.66 0.0 0 0 101.35 75.86
  A 12.66 12.66 0.0 0 0 114.01 88.52
  A 12.66 12.66 0.0 0 0 126.67 75.86
  Z
  M 50.67 114.00
  A 12.67 12.67 0.0 0 0 38.00 101.33
  A 12.67 12.67 0.0 0 0 25.33 114.00
  A 12.67 12.67 0.0 0 0 38.00 126.67
  A 12.67 12.67 0.0 0 0 50.67 114.00
  Z
  M 126.5608 113.5851
  A 12.13 12.13 0.0 0 0 114.4520 101.4339
  L 75.5920 101.3661
  A 12.13 12.13 0.0 0 0 63.4409 113.4749
  L 63.4392 114.4149
  A 12.13 12.13 0.0 0 0 75.5480 126.5661
  L 114.4080 126.6339
  A 12.13 12.13 0.0 0 0 126.5591 114.5251
  L 126.5608 113.5851
  Z" fill="#0d50ff"></path>
<circle r="12.67" cy="38.00" cx="38.00" fill="#ffffff"></circle>
<rect rx="12.14" height="25.20" width="63.12" y="25.40" x="63.44" fill="#ffffff"></rect>
<rect rx="12.14" height="25.30" width="63.06" transform="translate(56.99,76.07) rotate(-0.2)" y="-12.65" x="-31.53" fill="#ffffff"></rect>
<circle r="12.66" cy="75.86" cx="114.01" fill="#ffffff"></circle>
<circle r="12.67" cy="114.00" cx="38.00" fill="#ffffff"></circle>
<rect rx="12.13" height="25.20" width="63.12" transform="translate(95.00,114.00) rotate(0.1)" y="-12.60" x="-31.56" fill="#ffffff"></rect>
</svg>
