<svg viewBox="0.00 0.00 128.00 129.00" version="1.1" xmlns="http://www.w3.org/2000/svg">
<path d="M 128.00 30.64
  L 128.00 32.74
  C 126.98 46.00 118.78 57.64 106.11 61.41
  Q 101.08 62.90 86.75 62.88
  Q 76.64 62.86 66.55 62.88
  Q 65.51 62.89 65.51 61.85
  Q 65.49 49.77 65.50 37.76
  Q 65.52 26.78 67.02 21.90
  C 72.12 5.36 90.39 -3.72 106.99 2.08
  C 119.67 6.50 126.70 17.02 128.00 30.64
  Z
  M 103.10 50.20
  C 117.64 45.23 120.90 25.94 109.15 16.34
  C 98.75 7.83 82.96 12.05 78.39 24.62
  C 75.96 31.31 77.04 42.52 77.01 50.70
  Q 77.01 51.22 77.54 51.23
  Q 85.91 51.30 94.28 51.24
  Q 100.20 51.19 103.10 50.20
  Z" fill="#6bc78a"></path>
<path d="M 50.44 117.17
  C 75.03 119.17 96.25 100.29 96.79 75.23
  A 0.49 0.49 0.0 0 1 97.28 74.75
  L 107.73 74.75
  A 0.58 0.57 90.0 0 1 108.30 75.33
  C 107.79 108.24 79.99 131.82 47.25 128.48
  C 21.67 125.88 0.22 102.34 0.24 76.67
  C 0.24 72.56 0.07 68.38 0.79 64.48
  C 5.30 40.07 27.61 19.38 53.31 20.25
  Q 53.84 20.27 53.84 20.79
  L 53.89 31.00
  A 0.74 0.73 -0.8 0 1 53.17 31.73
  C 22.85 32.51 3.16 63.20 14.89 91.30
  C 20.81 105.49 34.90 115.91 50.44 117.17
  Z" fill="#6bc78a"></path>
<path d="M 31.70 52.81
  Q 39.70 44.57 52.90 43.32
  A 0.95 0.94 -2.8 0 1 53.94 44.26
  L 53.93 54.26
  A 0.75 0.74 88.0 0 1 53.24 55.01
  C 34.19 56.54 27.21 79.66 42.72 91.00
  C 48.07 94.92 55.54 95.42 61.66 92.76
  Q 72.29 88.14 73.62 75.32
  Q 73.68 74.75 74.26 74.75
  L 84.47 74.76
  Q 84.98 74.76 84.98 75.27
  C 85.07 86.28 78.53 96.82 69.33 101.96
  C 37.71 119.59 6.57 78.66 31.70 52.81
  Z" fill="#6bc78a"></path>
</svg>
