<svg viewBox="0.00 0.00 100.00 100.00" version="1.1" xmlns="http://www.w3.org/2000/svg">
<path d="M 50.01 79.75
  Q 49.88 79.78 49.76 79.81
  Q 49.73 79.81 49.70 79.80
  Q 30.56 68.31 11.40 56.82
  C 4.78 52.85 1.44 49.56 0.00 42.31
  L 0.00 38.05
  Q 1.41 29.18 8.92 24.67
  Q 25.65 14.65 42.33 4.58
  C 46.64 1.98 49.94 3.02 49.99 8.46
  Q 50.04 13.96 49.98 19.47
  A 0.89 0.89 0.0 0 1 49.55 20.23
  Q 36.95 27.84 24.34 35.35
  C 21.69 36.94 20.28 39.89 22.06 42.61
  Q 22.74 43.66 25.47 45.29
  Q 37.15 52.33 48.68 59.24
  A 2.70 2.69 -74.8 0 1 50.00 61.56
  L 50.01 79.75
  Z" fill="#0033ff"></path>
<path d="M 100.00 57.71
  L 100.00 61.96
  Q 98.54 70.84 90.15 75.88
  Q 73.03 86.16 55.78 96.22
  C 52.77 97.98 50.06 95.65 50.04 92.50
  Q 50.00 86.13 50.01 79.75
  Q 50.17 79.77 50.31 79.77
  Q 50.46 79.77 50.61 79.68
  Q 62.30 72.61 74.03 65.62
  C 79.77 62.20 80.76 58.41 74.57 54.71
  Q 63.00 47.79 51.28 40.73
  A 2.64 2.63 15.6 0 1 50.00 38.47
  L 50.00 20.74
  A 0.42 0.41 15.7 0 1 50.63 20.39
  Q 71.17 32.77 91.75 45.05
  Q 98.27 48.94 100.00 57.71
  Z" fill="#0033ff"></path>
</svg>
