<svg viewBox="0.00 0.00 45.00 45.00" version="1.1" xmlns="http://www.w3.org/2000/svg">
<g stroke-linecap="butt" fill="none" stroke-width="2.00">
<path d="M 20.30 0.00
  Q 3.04 2.87 0.00 20.20" stroke="#35618b"></path>
<path d="M 25.14 0.00
  C 36.04 1.90 43.78 9.58 45.00 20.79" stroke="#35618b"></path>
<path d="M 45.00 24.41
  Q 42.38 42.09 24.46 45.00" stroke="#35618b"></path>
<path d="M 20.38 45.00
  Q 2.73 42.09 0.00 24.43" stroke="#35618b"></path>
<path d="M 7.71 29.86
  Q 7.21 30.06 7.17 30.59
  Q 7.14 30.94 7.42 31.38
  C 14.59 42.76 29.52 42.97 37.15 31.95
  Q 37.93 30.82 36.96 30.40" stroke="#315880"></path>
<path d="M 36.96 30.40
  Q 37.52 30.50 37.95 30.31
  Q 38.31 30.15 38.53 29.61
  C 43.11 18.40 35.70 5.70 23.64 5.05
  C 10.88 4.37 2.02 16.50 6.08 28.50
  Q 6.52 29.82 7.71 29.86" stroke="#a9d0f7"></path>
<path d="M 36.96 30.40
  L 29.16 28.02" stroke="#878788"></path>
<path d="M 29.16 28.02
  Q 28.86 26.59 29.60 25.82
  A 1.10 1.10 0.0 0 0 29.56 24.25
  Q 27.41 22.23 27.99 19.56
  A 3.78 3.78 0.0 0 0 26.98 16.09
  Q 24.98 14.09 26.48 11.47
  Q 26.61 11.24 26.62 10.98
  Q 26.62 10.50 27.03 10.24
  Q 27.55 9.90 27.93 10.39
  Q 29.41 12.26 30.19 14.52
  Q 30.24 14.67 30.28 14.66
  L 30.53 14.59
  Q 30.84 14.51 30.77 14.20
  C 29.41 7.62 25.64 4.37 18.88 7.59
  C 15.61 9.16 14.42 12.82 14.46 16.22
  C 14.48 17.62 13.83 18.83 13.73 20.24
  C 13.57 22.34 15.42 25.22 15.93 27.47" stroke="#dcbbae"></path>
<path d="M 15.93 27.47
  Q 16.20 27.88 15.92 28.20
  Q 15.75 28.40 15.35 28.45
  Q 12.55 28.78 10.21 29.50" stroke="#a49288"></path>
<path d="M 10.21 29.50
  L 7.71 29.86" stroke="#878788"></path>
<path d="M 21.07 35.69
  C 18.73 34.90 18.81 32.72 16.19 31.87
  Q 13.06 30.87 10.21 29.50" stroke="#2c1a11"></path>
<path d="M 29.16 28.02
  Q 28.01 29.28 28.42 31.71
  A 0.90 0.87 63.2 0 1 28.18 32.49
  L 23.10 37.67
  Q 22.74 38.04 22.44 37.62
  L 21.07 35.69" stroke="#634237"></path>
<path d="M 21.07 35.69
  Q 19.72 34.54 20.09 33.52
  A 0.72 0.72 0.0 0 1 20.99 33.09
  Q 22.81 33.68 24.25 32.52
  A 0.70 0.70 0.0 0 0 24.01 31.31
  Q 22.80 30.95 22.34 29.85
  A 0.53 0.53 0.0 0 1 22.97 29.13
  Q 23.45 29.26 23.54 28.76
  Q 23.65 28.18 23.06 28.15
  Q 21.06 28.06 20.74 25.97
  Q 20.66 25.44 21.15 25.23
  L 22.81 24.50
  A 0.68 0.67 -23.4 0 0 23.16 23.63
  L 22.87 22.96
  Q 22.52 22.16 21.66 22.26
  Q 18.39 22.63 18.36 25.89
  Q 18.35 26.37 17.97 26.65
  Q 17.20 27.21 15.93 27.47" stroke="#814e37"></path>
<path d="M 26.86 19.23
  Q 27.55 17.98 26.34 17.11
  Q 25.95 16.83 25.58 17.15
  Q 24.92 17.73 25.14 18.94
  A 0.93 0.93 0.0 0 0 26.86 19.23" stroke="#814e37"></path>
<path d="M 25.7705 27.6770
  A 1.66 0.82 52.5 0 0 25.4105 25.8608
  A 1.66 0.82 52.5 0 0 23.7495 25.0430
  A 1.66 0.82 52.5 0 0 24.1095 26.8592
  A 1.66 0.82 52.5 0 0 25.7705 27.6770" stroke="#d79f86"></path>
</g>
<path d="M 0.00 0.00
  L 20.30 0.00
  Q 3.04 2.87 0.00 20.20
  L 0.00 0.00
  Z" fill="#162028"></path>
<path d="M 20.30 0.00
  L 25.14 0.00
  C 36.04 1.90 43.78 9.58 45.00 20.79
  L 45.00 24.41
  Q 42.38 42.09 24.46 45.00
  L 20.38 45.00
  Q 2.73 42.09 0.00 24.43
  L 0.00 20.20
  Q 3.04 2.87 20.30 0.00
  Z
  M 7.71 29.86
  Q 7.21 30.06 7.17 30.59
  Q 7.14 30.94 7.42 31.38
  C 14.59 42.76 29.52 42.97 37.15 31.95
  Q 37.93 30.82 36.96 30.40
  Q 37.52 30.50 37.95 30.31
  Q 38.31 30.15 38.53 29.61
  C 43.11 18.40 35.70 5.70 23.64 5.05
  C 10.88 4.37 2.02 16.50 6.08 28.50
  Q 6.52 29.82 7.71 29.86
  Z" fill="#53a1ee"></path>
<path d="M 25.14 0.00
  L 45.00 0.00
  L 45.00 20.79
  C 43.78 9.58 36.04 1.90 25.14 0.00
  Z" fill="#162028"></path>
<path d="M 36.96 30.40
  L 29.16 28.02
  Q 28.86 26.59 29.60 25.82
  A 1.10 1.10 0.0 0 0 29.56 24.25
  Q 27.41 22.23 27.99 19.56
  A 3.78 3.78 0.0 0 0 26.98 16.09
  Q 24.98 14.09 26.48 11.47
  Q 26.61 11.24 26.62 10.98
  Q 26.62 10.50 27.03 10.24
  Q 27.55 9.90 27.93 10.39
  Q 29.41 12.26 30.19 14.52
  Q 30.24 14.67 30.28 14.66
  L 30.53 14.59
  Q 30.84 14.51 30.77 14.20
  C 29.41 7.62 25.64 4.37 18.88 7.59
  C 15.61 9.16 14.42 12.82 14.46 16.22
  C 14.48 17.62 13.83 18.83 13.73 20.24
  C 13.57 22.34 15.42 25.22 15.93 27.47
  Q 16.20 27.88 15.92 28.20
  Q 15.75 28.40 15.35 28.45
  Q 12.55 28.78 10.21 29.50
  L 7.71 29.86
  Q 6.52 29.82 6.08 28.50
  C 2.02 16.50 10.88 4.37 23.64 5.05
  C 35.70 5.70 43.11 18.40 38.53 29.61
  Q 38.31 30.15 37.95 30.31
  Q 37.52 30.50 36.96 30.40
  Z" fill="#ffffff"></path>
<path d="M 29.16 28.02
  Q 28.01 29.28 28.42 31.71
  A 0.90 0.87 63.2 0 1 28.18 32.49
  L 23.10 37.67
  Q 22.74 38.04 22.44 37.62
  L 21.07 35.69
  Q 19.72 34.54 20.09 33.52
  A 0.72 0.72 0.0 0 1 20.99 33.09
  Q 22.81 33.68 24.25 32.52
  A 0.70 0.70 0.0 0 0 24.01 31.31
  Q 22.80 30.95 22.34 29.85
  A 0.53 0.53 0.0 0 1 22.97 29.13
  Q 23.45 29.26 23.54 28.76
  Q 23.65 28.18 23.06 28.15
  Q 21.06 28.06 20.74 25.97
  Q 20.66 25.44 21.15 25.23
  L 22.81 24.50
  A 0.68 0.67 -23.4 0 0 23.16 23.63
  L 22.87 22.96
  Q 22.52 22.16 21.66 22.26
  Q 18.39 22.63 18.36 25.89
  Q 18.35 26.37 17.97 26.65
  Q 17.20 27.21 15.93 27.47
  C 15.42 25.22 13.57 22.34 13.73 20.24
  C 13.83 18.83 14.48 17.62 14.46 16.22
  C 14.42 12.82 15.61 9.16 18.88 7.59
  C 25.64 4.37 29.41 7.62 30.77 14.20
  Q 30.84 14.51 30.53 14.59
  L 30.28 14.66
  Q 30.24 14.67 30.19 14.52
  Q 29.41 12.26 27.93 10.39
  Q 27.55 9.90 27.03 10.24
  Q 26.62 10.50 26.62 10.98
  Q 26.61 11.24 26.48 11.47
  Q 24.98 14.09 26.98 16.09
  A 3.78 3.78 0.0 0 1 27.99 19.56
  Q 27.41 22.23 29.56 24.25
  A 1.10 1.10 0.0 0 1 29.60 25.82
  Q 28.86 26.59 29.16 28.02
  Z
  M 26.86 19.23
  Q 27.55 17.98 26.34 17.11
  Q 25.95 16.83 25.58 17.15
  Q 24.92 17.73 25.14 18.94
  A 0.93 0.93 0.0 0 0 26.86 19.23
  Z
  M 25.7705 27.6770
  A 1.66 0.82 52.5 0 0 25.4105 25.8608
  A 1.66 0.82 52.5 0 0 23.7495 25.0430
  A 1.66 0.82 52.5 0 0 24.1095 26.8592
  A 1.66 0.82 52.5 0 0 25.7705 27.6770
  Z" fill="#b8765d"></path>
<path d="M 26.86 19.23
  A 0.93 0.93 0.0 0 1 25.14 18.94
  Q 24.92 17.73 25.58 17.15
  Q 25.95 16.83 26.34 17.11
  Q 27.55 17.98 26.86 19.23
  Z" fill="#492511"></path>
<path d="M 21.07 35.69
  C 18.73 34.90 18.81 32.72 16.19 31.87
  Q 13.06 30.87 10.21 29.50
  Q 12.55 28.78 15.35 28.45
  Q 15.75 28.40 15.92 28.20
  Q 16.20 27.88 15.93 27.47
  Q 17.20 27.21 17.97 26.65
  Q 18.35 26.37 18.36 25.89
  Q 18.39 22.63 21.66 22.26
  Q 22.52 22.16 22.87 22.96
  L 23.16 23.63
  A 0.68 0.67 -23.4 0 1 22.81 24.50
  L 21.15 25.23
  Q 20.66 25.44 20.74 25.97
  Q 21.06 28.06 23.06 28.15
  Q 23.65 28.18 23.54 28.76
  Q 23.45 29.26 22.97 29.13
  A 0.53 0.53 0.0 0 0 22.34 29.85
  Q 22.80 30.95 24.01 31.31
  A 0.70 0.70 0.0 0 1 24.25 32.52
  Q 22.81 33.68 20.99 33.09
  A 0.72 0.72 0.0 0 0 20.09 33.52
  Q 19.72 34.54 21.07 35.69
  Z" fill="#492511"></path>
<path d="M 45.00 24.41
  L 45.00 45.00
  L 24.46 45.00
  Q 42.38 42.09 45.00 24.41
  Z" fill="#162028"></path>
<path d="M 0.00 24.43
  Q 2.73 42.09 20.38 45.00
  L 0.00 45.00
  L 0.00 24.43
  Z" fill="#162028"></path>
<ellipse ry="0.82" rx="1.66" transform="translate(24.76,26.36) rotate(52.5)" cy="0.00" cx="0.00" fill="#f5c8af"></ellipse>
<path d="M 29.16 28.02
  L 36.96 30.40
  Q 37.93 30.82 37.15 31.95
  C 29.52 42.97 14.59 42.76 7.42 31.38
  Q 7.14 30.94 7.17 30.59
  Q 7.21 30.06 7.71 29.86
  L 10.21 29.50
  Q 13.06 30.87 16.19 31.87
  C 18.81 32.72 18.73 34.90 21.07 35.69
  L 22.44 37.62
  Q 22.74 38.04 23.10 37.67
  L 28.18 32.49
  A 0.90 0.87 63.2 0 0 28.42 31.71
  Q 28.01 29.28 29.16 28.02
  Z" fill="#0e0e11"></path>
</svg>
