<svg viewBox="0.00 0.00 300.00 300.00" version="1.1" xmlns="http://www.w3.org/2000/svg">
<g stroke-linecap="butt" fill="none" stroke-width="2.00">
<path d="M 138.42 22.96
  L 138.17 28.02
  A 0.42 0.42 0.0 0 1 137.66 28.41
  C 136.36 28.14 135.21 27.75 133.94 27.76
  Q 94.41 28.05 82.50 27.82
  Q 57.84 27.35 39.75 27.88
  C 34.61 28.03 33.34 31.38 33.30 36.12
  Q 33.08 59.07 33.25 81.92" stroke="#f4f6f9"></path>
<path d="M 33.25 81.92
  L 33.30 182.38" stroke="#eff2f7"></path>
<path d="M 33.30 182.38
  L 33.38 206.75" stroke="#8ef0ea"></path>
<path d="M 33.38 206.75
  Q 33.33 220.99 33.16 235.26
  Q 33.09 241.52 38.75 241.53
  Q 73.45 241.62 108.20 241.48" stroke="#8eede1"></path>
<path d="M 108.20 241.48
  L 108.53 246.13
  Q 108.58 246.76 109.20 246.76
  L 135.97 246.76
  A 0.79 0.79 0.0 0 0 136.76 246.01
  L 137.02 241.51" stroke="#fcb2b8"></path>
<path d="M 137.02 241.51
  L 151.81 241.51" stroke="#8eede1"></path>
<path d="M 151.81 241.51
  L 151.77 246.53
  Q 151.77 247.05 152.28 247.04
  L 179.64 246.97
  A 1.29 1.29 0.0 0 0 180.93 245.78
  L 181.26 241.54" stroke="#fcb2b8"></path>
<path d="M 181.26 241.54
  Q 218.62 241.53 255.83 241.54
  C 261.58 241.54 266.04 242.19 266.13 235.24
  Q 266.29 222.14 266.21 208.98" stroke="#8eede1"></path>
<path d="M 266.21 208.98
  L 266.26 182.44" stroke="#8ef0ea"></path>
<path d="M 266.26 182.44
  L 266.19 59.60" stroke="#eff2f7"></path>
<path d="M 266.19 59.60
  Q 266.74 39.93 266.15 34.74
  C 265.17 25.97 255.09 27.90 249.00 27.90
  Q 204.63 27.91 160.25 27.97
  Q 155.98 27.98 151.99 27.07" stroke="#f4f6f9"></path>
<path d="M 151.99 27.07
  C 152.23 23.27 152.55 18.18 148.00 18.01
  C 143.57 17.85 138.16 17.22 138.42 22.96" stroke="#95a2ad"></path>
<path d="M 151.99 27.07
  L 151.98 52.85" stroke="#8998a7"></path>
<path d="M 151.98 52.85
  L 138.46 52.53" stroke="#915566"></path>
<path d="M 138.46 52.53
  L 138.42 22.96" stroke="#8998a7"></path>
<path d="M 179.33 56.38
  C 183.38 60.12 182.86 64.97 182.75 70.83
  Q 182.74 71.28 182.99 71.64
  L 183.23 71.98" stroke="#eba5b0"></path>
<path d="M 183.23 71.98
  Q 182.79 72.02 182.78 72.50
  Q 182.66 86.38 182.77 100.73" stroke="#915566"></path>
<path d="M 182.77 100.73
  Q 182.67 104.66 181.57 106.66" stroke="#eba5b0"></path>
<path d="M 181.57 106.66
  L 108.44 106.52" stroke="#fa5a63"></path>
<path d="M 108.44 106.52
  Q 107.66 104.69 107.60 100.88" stroke="#eba5b0"></path>
<path d="M 107.60 100.88
  L 107.29 72.12" stroke="#915566"></path>
<path d="M 138.46 52.53
  Q 138.05 53.05 137.75 53.05
  Q 129.98 52.94 122.20 52.99
  C 111.80 53.07 107.58 56.49 107.52 67.04
  Q 107.51 69.68 107.29 72.12" stroke="#f0a9b2"></path>
<path d="M 107.29 72.12
  L 94.99 72.19" stroke="#8998a7"></path>
<path d="M 94.99 72.19
  L 81.19 72.27
  Q 80.69 72.27 80.71 72.78
  L 80.98 78.98
  A 0.86 0.86 0.0 0 1 80.12 79.88
  L 73.64 79.90" stroke="#f0a9b2"></path>
<path d="M 73.64 79.90
  L 73.55 84.06
  Q 73.54 84.28 73.35 84.30
  L 73.34 84.30
  Q 73.27 84.31 73.14 83.98
  Q 72.88 83.37 72.28 83.06
  Q 72.07 82.95 71.90 83.12
  L 71.63 83.39
  A 0.19 0.18 -42.2 0 1 71.35 83.38
  Q 71.11 83.08 70.78 82.91
  Q 70.43 82.74 70.20 83.07
  Q 69.68 83.84 68.77 83.58
  Q 67.19 83.13 65.74 82.31
  Q 65.39 82.12 65.11 82.40
  L 64.85 82.66
  Q 64.38 83.13 64.08 82.54
  Q 63.73 81.83 63.88 81.02
  A 0.68 0.68 0.0 0 0 63.04 80.25
  Q 62.35 80.43 62.40 80.96
  Q 62.43 81.39 62.01 81.39
  L 61.55 81.39
  Q 61.15 81.39 61.28 81.76
  Q 61.52 82.43 61.83 83.07
  Q 62.09 83.60 61.55 83.84
  Q 60.45 84.33 59.55 83.59
  Q 59.18 83.29 58.72 83.43
  Q 57.41 83.84 56.91 84.98
  Q 56.28 86.40 55.90 85.07
  Q 55.80 84.73 54.96 84.88
  C 54.14 85.03 53.78 85.65 53.88 86.45
  Q 53.89 86.47 53.75 86.75
  Q 53.65 86.97 53.41 86.84
  Q 53.04 86.66 53.11 86.25
  Q 53.25 85.40 52.92 84.66
  A 0.61 0.57 -55.7 0 1 52.87 84.34
  Q 52.95 83.81 53.24 83.86
  Q 53.54 83.91 53.64 83.62
  Q 53.82 83.13 53.44 82.70
  A 0.27 0.27 0.0 0 0 52.98 82.79
  L 52.87 83.13
  Q 52.71 83.57 52.33 83.29
  Q 52.10 83.12 51.85 83.12
  Q 51.36 83.12 51.15 83.55
  Q 50.91 84.01 50.35 83.94
  Q 49.93 83.89 49.85 83.48
  Q 49.79 83.17 49.46 83.13
  A 0.20 0.20 0.0 0 0 49.24 83.28
  Q 49.07 84.02 48.41 83.91
  Q 47.91 83.84 47.49 84.10
  L 44.30 86.10
  Q 43.83 86.40 43.90 86.94
  Q 43.98 87.57 43.68 88.16
  Q 43.45 88.63 42.92 88.63
  L 41.79 88.63
  Q 41.37 88.63 41.54 88.24
  Q 41.89 87.42 42.58 86.88
  Q 42.79 86.71 42.83 86.54
  Q 42.90 86.30 42.81 86.10
  Q 42.56 85.53 42.05 85.87
  Q 41.37 86.33 40.50 86.06
  Q 40.08 85.94 39.81 85.60
  Q 39.44 85.15 38.46 85.58
  Q 38.22 85.68 38.09 85.91
  Q 38.01 86.07 37.83 86.15
  A 0.51 0.51 0.0 0 1 37.11 85.74
  Q 37.00 84.73 36.01 84.89
  Q 35.86 84.92 35.86 84.77
  Q 35.86 84.63 35.86 84.50
  Q 35.87 84.14 35.50 84.14
  L 35.01 84.14
  Q 34.62 84.14 34.48 83.78
  Q 34.05 82.69 33.25 81.92" stroke="#e3e8f0"></path>
<path d="M 266.19 59.60
  Q 263.75 56.96 260.82 56.89
  A 0.97 0.96 62.2 0 1 260.34 56.74
  Q 259.11 55.96 257.76 56.58
  Q 257.38 56.76 256.98 56.65
  Q 256.39 56.49 256.00 56.74
  Q 255.39 57.12 255.13 56.50
  Q 255.03 56.25 254.72 56.24
  Q 254.26 56.22 254.08 56.64
  Q 253.99 56.83 253.75 56.87
  Q 253.23 56.96 253.13 56.88
  Q 252.94 56.72 252.87 56.49
  Q 252.77 56.11 252.38 56.04
  Q 250.24 55.61 248.11 56.15
  Q 247.91 56.20 247.85 56.41
  L 247.79 56.66
  Q 247.65 57.20 247.36 56.73
  Q 247.22 56.49 247.08 56.24
  Q 246.89 55.90 246.52 56.01
  Q 245.47 56.32 244.93 55.43
  Q 244.68 55.01 244.25 55.24
  Q 244.04 55.35 244.15 55.57
  A 0.29 0.29 0.0 0 1 243.95 55.98
  Q 241.23 56.55 238.91 55.42
  C 237.94 54.95 237.46 55.09 236.65 55.66
  A 1.29 1.27 -67.2 0 1 236.17 55.86
  Q 235.33 56.00 234.91 55.41
  A 0.67 0.67 0.0 0 0 234.36 55.12
  L 220.46 55.12
  A 0.80 0.79 -70.4 0 0 219.84 55.42
  Q 219.51 55.82 219.17 55.43
  Q 218.89 55.11 218.46 55.11
  L 203.86 55.10
  Q 203.40 55.10 203.08 55.42
  L 202.73 55.77
  Q 202.45 56.05 202.22 55.73
  L 201.94 55.36
  Q 201.71 55.06 201.34 55.11
  Q 199.52 55.35 197.97 54.49
  Q 197.41 54.18 197.04 54.70
  Q 196.94 54.84 196.71 54.87
  Q 196.22 54.92 195.86 54.58
  Q 195.64 54.38 195.36 54.28
  Q 194.82 54.07 194.27 54.29
  Q 193.58 54.57 193.13 54.13
  A 0.55 0.55 0.0 0 0 192.22 54.35
  Q 191.93 55.21 190.97 55.13
  A 1.16 1.15 -18.7 0 1 190.23 54.77
  Q 189.56 54.02 188.66 54.21
  Q 188.31 54.28 187.96 54.22
  Q 182.69 53.29 179.33 56.38" stroke="#e3e8f0"></path>
<path d="M 179.33 56.38
  Q 176.13 53.14 171.75 53.09
  Q 161.89 52.98 151.98 52.85" stroke="#f0a9b2"></path>
<path d="M 194.74 72.24
  L 194.76 92.62" stroke="#915566"></path>
<path d="M 194.76 92.62
  L 194.67 100.85" stroke="#934a58"></path>
<path d="M 107.60 100.88
  L 95.15 100.89" stroke="#8494a5"></path>
<path d="M 95.15 100.89
  L 95.01 91.76" stroke="#934a58"></path>
<path d="M 95.01 91.76
  L 94.99 72.19" stroke="#915566"></path>
<path d="M 152.00 113.54
  L 138.46 113.52" stroke="#934a58"></path>
<path d="M 80.78 92.18
  L 80.77 100.49
  A 0.37 0.36 90.0 0 0 81.13 100.86
  L 95.15 100.89" stroke="#ed9aa2"></path>
<path d="M 108.44 106.52
  Q 111.81 113.48 118.50 113.49
  Q 128.48 113.51 138.46 113.52" stroke="#ed9aa2"></path>
<path d="M 138.46 113.52
  L 138.47 126.01" stroke="#8494a5"></path>
<path d="M 138.47 126.01
  Q 138.10 126.35 137.75 126.34
  Q 128.13 126.27 118.49 126.26
  C 113.35 126.25 109.60 130.18 107.46 134.89" stroke="#eba5b0"></path>
<path d="M 107.46 134.89
  L 79.02 146.18
  Q 78.56 146.37 78.10 146.18
  C 63.03 140.04 53.34 159.97 66.83 168.11
  Q 68.12 168.89 69.54 169.60
  Q 69.98 169.82 70.09 170.30
  L 72.98 182.36" stroke="#8494a5"></path>
<path d="M 72.98 182.36
  L 33.30 182.38" stroke="#7ee2e1"></path>
<path d="M 266.26 182.44
  L 175.30 182.42" stroke="#7ee2e1"></path>
<path d="M 175.30 182.42
  L 180.87 177.68" stroke="#ed9aa2"></path>
<path d="M 180.87 177.68
  Q 182.70 175.11 182.71 172.50
  Q 182.72 160.77 182.71 149.88" stroke="#eba5b0"></path>
<path d="M 182.71 149.88
  L 197.98 159.02
  Q 198.43 159.29 198.61 159.79
  C 199.05 161.00 199.23 162.54 199.76 163.52
  C 205.40 174.04 219.82 171.72 223.00 160.42
  C 223.41 158.97 223.25 157.32 223.27 155.76
  Q 223.28 155.22 223.65 154.83
  L 238.26 139.52
  Q 238.73 139.02 239.32 139.37
  C 253.76 147.72 266.59 126.91 252.89 116.98" stroke="#8494a5"></path>
<path d="M 252.89 116.98
  Q 252.26 113.30 251.84 105.74
  C 251.67 102.65 250.09 101.15 247.46 99.80
  Q 247.03 99.58 246.80 99.15
  L 244.19 94.13" stroke="#eaa07b"></path>
<path d="M 244.19 94.13
  C 247.35 92.20 249.86 88.63 247.85 85.22
  Q 247.20 84.12 244.20 82.17
  Q 239.07 78.83 236.60 72.81
  A 0.60 0.59 -39.9 0 0 235.55 72.72
  C 232.87 76.93 227.59 86.45 230.82 91.17
  Q 232.84 94.12 235.74 95.13" stroke="#8aaeed"></path>
<path d="M 235.74 95.13
  C 235.42 97.61 235.33 100.26 233.88 102.35
  C 232.94 103.71 231.46 104.90 231.72 106.76
  Q 232.61 113.18 235.04 119.67" stroke="#eaa07b"></path>
<path d="M 235.04 119.67
  Q 232.71 122.82 232.17 126.50
  Q 232.10 126.95 231.79 127.28
  L 214.37 145.61
  Q 214.01 145.98 213.52 145.86
  Q 208.56 144.61 204.29 147.20
  A 0.90 0.88 -43.8 0 1 203.33 147.19
  L 182.47 133.74" stroke="#8494a5"></path>
<path d="M 182.47 133.74
  C 178.64 129.22 177.48 126.47 170.75 126.37
  Q 161.41 126.24 151.98 126.36" stroke="#eba5b0"></path>
<path d="M 151.98 126.36
  L 152.00 113.54" stroke="#8494a5"></path>
<path d="M 152.00 113.54
  Q 162.28 113.52 172.50 113.48
  Q 178.00 113.45 181.57 106.66" stroke="#ed9aa2"></path>
<path d="M 182.77 100.73
  L 194.67 100.85" stroke="#8494a5"></path>
<path d="M 194.67 100.85
  L 208.49 100.89
  A 0.46 0.45 90.0 0 0 208.94 100.43
  L 208.91 92.89" stroke="#ed9aa2"></path>
<path d="M 208.91 92.89
  L 208.79 90.96
  A 0.74 0.73 -2.5 0 1 209.52 90.17
  L 215.60 90.12
  A 0.46 0.46 0.0 0 0 216.06 89.66
  L 216.03 80.54
  A 0.74 0.74 0.0 0 0 215.29 79.81
  L 209.51 79.79
  Q 208.98 79.79 208.98 79.26
  L 208.97 72.78
  Q 208.97 72.30 208.49 72.30
  L 194.74 72.24" stroke="#eba5b0"></path>
<path d="M 194.74 72.24
  L 183.23 71.98" stroke="#8494a5"></path>
<path d="M 95.01 91.76
  Q 88.22 92.74 80.78 92.18" stroke="#fa5a63"></path>
<path d="M 80.78 92.18
  Q 81.04 91.53 80.84 90.50
  Q 80.74 89.99 80.22 89.99
  L 74.24 90.04
  A 0.49 0.49 0.0 0 1 73.75 89.55
  L 73.64 79.90" stroke="#eba5b0"></path>
<path d="M 208.91 92.89
  L 194.76 92.62" stroke="#fa5a63"></path>
<path d="M 151.98 126.36
  L 138.76 126.38
  Q 138.63 126.38 138.58 126.26
  Q 138.53 126.13 138.47 126.01" stroke="#915566"></path>
<path d="M 180.87 177.68
  Q 180.70 176.83 180.25 176.83
  C 156.93 176.88 133.59 176.55 110.28 176.95
  A 0.64 0.64 0.0 0 0 109.68 177.41
  Q 109.57 177.78 109.65 178.27" stroke="#fa5a63"></path>
<path d="M 109.65 178.27
  Q 107.73 175.55 107.66 172.75
  Q 107.48 166.52 107.50 150.85
  Q 107.50 150.51 107.34 150.21
  Q 107.26 150.07 107.18 149.91" stroke="#eba5b0"></path>
<path d="M 107.18 149.91
  L 107.46 134.89" stroke="#915566"></path>
<path d="M 107.18 149.91
  L 86.40 157.42
  Q 85.91 157.59 85.78 158.09
  C 84.67 162.07 82.50 164.47 83.47 168.74
  Q 85.04 175.61 86.71 182.54" stroke="#8494a5"></path>
<path d="M 86.71 182.54
  Q 86.76 184.20 87.47 185.76
  Q 87.68 186.22 88.17 186.36
  C 96.88 188.90 99.85 197.89 96.34 205.86" stroke="#249298"></path>
<path d="M 96.34 205.86
  Q 88.95 216.20 77.42 210.11" stroke="#238f8f"></path>
<path d="M 77.42 210.11
  C 71.44 205.08 70.39 197.74 74.72 191.05
  Q 75.00 190.61 74.88 190.11
  L 72.98 182.36" stroke="#249298"></path>
<path d="M 77.42 210.11
  Q 77.56 210.28 77.28 210.36
  Q 77.13 210.40 77.24 210.51
  L 77.50 210.77
  A 0.23 0.23 0.0 0 1 77.26 211.15
  Q 76.54 210.92 76.21 211.20
  Q 75.91 211.47 76.30 211.59
  Q 77.07 211.81 77.68 211.43
  Q 77.99 211.25 78.24 211.50
  L 78.52 211.78
  A 0.37 0.37 0.0 0 1 78.21 212.41
  L 73.90 211.92
  Q 73.43 211.86 72.97 211.91
  Q 70.81 212.15 68.73 211.58
  Q 68.32 211.47 68.01 211.75
  Q 67.78 211.95 67.51 212.07
  Q 67.09 212.25 66.47 212.09
  Q 65.56 211.85 64.71 211.50
  Q 64.37 211.36 64.11 211.62
  L 63.86 211.87
  Q 63.49 212.23 63.13 211.87
  L 62.77 211.51
  Q 62.46 211.20 62.15 211.51
  L 60.78 212.84
  Q 60.44 213.18 60.10 212.84
  L 59.50 212.24
  A 0.22 0.22 0.0 0 0 59.12 212.39
  L 59.11 212.76
  Q 59.10 213.05 58.82 213.12
  Q 57.67 213.37 56.95 212.70
  Q 56.57 212.35 56.21 212.72
  Q 55.47 213.48 54.38 213.01
  Q 54.10 212.89 53.95 212.62
  Q 53.81 212.38 53.66 212.04
  Q 53.53 211.72 53.22 211.86
  C 51.37 212.66 49.87 211.62 47.85 212.83
  Q 47.42 213.09 47.04 212.76
  Q 46.85 212.60 46.88 212.38
  A 0.31 0.31 0.0 0 0 46.30 212.18
  L 46.02 212.66
  A 0.68 0.67 -71.6 0 1 45.38 212.99
  Q 43.52 212.84 41.87 213.50
  Q 41.47 213.66 41.10 213.45
  Q 39.65 212.66 37.94 212.70
  Q 37.42 212.71 36.93 212.52
  L 35.38 211.90
  Q 34.80 211.67 34.60 212.25
  Q 34.41 212.80 34.05 212.53
  Q 33.80 212.35 33.79 212.66
  Q 33.78 212.88 33.73 212.98
  Q 33.55 213.34 33.54 212.93
  L 33.38 206.75" stroke="#1dddcc"></path>
<path d="M 175.30 182.42
  L 173.00 182.60" stroke="#8c9895"></path>
<path d="M 173.00 182.60
  L 158.51 182.51" stroke="#934a58"></path>
<path d="M 158.51 182.51
  L 130.56 182.50" stroke="#8c9895"></path>
<path d="M 130.56 182.50
  L 115.80 182.50" stroke="#934a58"></path>
<path d="M 115.80 182.50
  Q 115.43 182.42 115.03 182.15" stroke="#8c9895"></path>
<path d="M 266.21 208.98
  L 264.86 211.70
  Q 264.64 212.15 264.14 212.15
  L 260.93 212.11
  Q 260.42 212.10 260.10 211.70
  Q 259.21 210.62 257.78 211.71
  Q 257.27 212.10 257.08 211.49
  Q 256.56 209.91 254.62 210.24
  Q 253.68 210.39 254.53 210.84
  Q 254.89 211.03 255.13 211.51
  A 0.37 0.36 6.5 0 1 254.57 211.95
  L 252.77 210.50
  Q 252.42 210.22 252.17 210.59
  Q 251.74 211.19 250.99 211.11
  Q 250.51 211.06 250.12 210.78
  C 248.24 209.44 247.40 211.16 245.71 211.14
  Q 245.36 211.13 245.11 211.38
  L 244.82 211.67
  Q 244.37 212.12 244.07 211.57
  L 243.76 210.99
  Q 243.53 210.57 243.11 210.80
  C 241.06 211.94 239.93 209.34 237.79 211.71
  A 0.42 0.42 0.0 0 1 237.10 211.60
  Q 236.84 211.07 236.78 210.44
  A 0.65 0.64 -0.5 0 0 236.18 209.86
  Q 234.65 209.76 233.91 210.94
  A 1.00 1.00 0.0 0 1 232.36 211.10
  L 231.77 210.52
  Q 231.06 209.81 231.15 210.80
  Q 231.20 211.39 230.87 211.90
  A 0.44 0.44 0.0 0 1 230.10 211.85
  Q 229.86 211.37 229.80 210.82
  A 0.52 0.51 86.2 0 0 229.29 210.37
  L 228.72 210.37
  Q 228.26 210.37 228.20 210.83
  Q 228.14 211.37 227.91 211.85
  A 0.44 0.43 41.8 0 1 227.15 211.89
  Q 226.36 210.62 224.89 210.31
  A 0.59 0.58 10.9 0 0 224.19 210.78
  L 224.02 211.76
  A 0.52 0.51 -69.6 0 1 223.25 212.12
  Q 222.80 211.85 222.31 211.76
  A 0.36 0.36 0.0 0 1 222.11 211.15
  L 222.36 210.90
  Q 222.99 210.26 222.10 210.38
  Q 221.62 210.44 221.24 210.24
  Q 220.81 210.00 220.43 210.31
  Q 218.67 211.75 216.31 210.91
  A 0.90 0.87 -10.0 0 1 215.91 210.64
  Q 215.49 210.18 214.77 210.20
  A 0.57 0.54 20.0 0 0 214.40 210.36
  Q 213.67 211.05 212.57 211.13
  A 0.56 0.56 0.0 0 1 211.98 210.72
  L 211.79 209.99
  Q 211.58 209.21 211.31 209.97
  Q 210.59 211.91 208.34 210.81
  Q 207.97 210.64 207.91 210.23
  Q 207.87 209.99 207.41 210.16
  Q 207.09 210.28 207.14 210.62
  Q 207.22 211.23 206.85 211.66
  Q 206.42 212.16 206.09 211.58
  Q 205.69 210.90 205.95 210.03
  Q 206.06 209.65 205.76 209.38
  Q 205.37 209.02 204.78 209.14
  A 0.97 0.92 10.0 0 0 204.19 209.53
  Q 203.65 210.31 202.76 210.11
  A 0.56 0.56 0.0 0 0 202.11 210.48
  Q 201.83 211.32 201.03 211.01
  Q 200.53 210.81 200.02 210.97
  Q 197.38 211.77 196.03 209.63
  Q 195.79 209.26 195.41 209.46
  Q 194.44 209.96 193.90 210.80
  Q 193.58 211.29 193.15 210.89
  Q 192.78 210.55 192.88 210.04
  Q 192.97 209.59 192.61 209.31
  Q 192.41 209.15 192.17 209.11
  Q 191.82 209.04 191.40 209.36
  Q 190.56 210.01 189.82 210.83
  Q 189.45 211.24 188.97 210.97
  Q 188.53 210.71 188.08 210.94
  Q 187.61 211.18 187.17 210.90
  Q 187.03 210.81 186.96 210.68
  Q 186.54 209.87 186.13 210.50
  L 185.91 210.84
  A 0.35 0.35 0.0 0 1 185.60 211.00
  Q 185.09 210.99 184.94 210.64
  Q 184.77 210.23 184.34 210.14
  Q 183.51 209.95 183.13 210.65
  A 0.65 0.65 0.0 0 1 182.23 210.89
  Q 181.50 210.46 180.73 210.72
  Q 180.26 210.88 179.86 210.58
  Q 179.20 210.09 178.68 210.67
  Q 178.12 211.30 178.14 210.46
  Q 178.26 205.79 177.25 208.32" stroke="#1dddcc"></path>
<path d="M 177.25 208.32
  C 177.82 203.26 176.34 201.28 173.03 197.93" stroke="#8ba3a3"></path>
<path d="M 173.03 197.93
  L 173.00 182.60" stroke="#249298"></path>
<path d="M 182.71 149.88
  L 182.47 133.74" stroke="#915566"></path>
<path d="M 244.19 94.13
  L 235.74 95.13" stroke="#956a7a"></path>
<path d="M 252.89 116.98
  Q 242.74 111.94 235.04 119.67" stroke="#905032"></path>
<path d="M 109.65 178.27
  L 115.03 182.15" stroke="#ed9aa2"></path>
<path d="M 115.03 182.15
  L 114.43 182.37
  Q 114.04 182.52 113.62 182.52
  L 86.71 182.54" stroke="#7ee2e1"></path>
<path d="M 115.80 182.50
  L 115.88 197.97" stroke="#249298"></path>
<path d="M 115.88 197.97
  Q 111.05 202.14 111.95 208.05" stroke="#8ba3a3"></path>
<path d="M 111.95 208.05
  Q 112.18 207.98 112.02 208.57" stroke="#8c9895"></path>
<path d="M 112.02 208.57
  Q 109.89 209.78 108.62 209.26
  Q 108.16 209.07 107.74 209.35
  Q 106.70 210.03 105.56 210.30
  Q 105.05 210.42 104.59 210.18
  L 102.18 208.95
  Q 101.65 208.67 101.26 209.12
  L 100.53 209.97
  Q 100.20 210.35 99.96 209.91
  Q 99.87 209.76 99.88 209.58
  Q 99.91 209.08 99.40 209.15
  Q 98.74 209.25 98.18 209.14
  Q 97.83 209.06 97.53 208.87
  Q 95.64 207.70 97.10 206.83
  A 0.50 0.50 0.0 0 0 96.88 205.90
  L 96.34 205.86" stroke="#1dddcc"></path>
<path d="M 112.02 208.57
  Q 113.08 212.10 115.82 214.31" stroke="#8c958c"></path>
<path d="M 115.82 214.31
  L 115.76 231.65" stroke="#238f8f"></path>
<path d="M 115.76 231.65
  Q 109.04 234.67 108.20 241.48" stroke="#8aa09a"></path>
<path d="M 158.51 182.51
  L 158.67 199.05" stroke="#249298"></path>
<path d="M 158.67 199.05
  Q 156.98 201.65 156.57 202.50
  Q 155.27 205.20 155.92 207.87" stroke="#8ba3a3"></path>
<path d="M 155.92 207.87
  Q 156.31 210.81 158.13 212.73" stroke="#8c9895"></path>
<path d="M 158.13 212.73
  Q 157.79 213.22 158.01 213.90
  Q 158.18 214.43 157.69 214.69
  Q 156.94 215.08 156.31 214.63
  Q 155.98 214.39 155.57 214.36
  Q 154.66 214.29 153.97 214.81
  Q 153.60 215.09 153.27 214.76
  L 152.95 214.43
  Q 152.62 214.11 152.17 214.11
  L 146.95 214.11
  A 1.24 1.24 0.0 0 1 145.89 213.51
  Q 145.61 213.06 145.67 212.49
  Q 145.72 211.88 145.28 212.44
  C 143.94 214.09 141.99 212.12 140.70 213.79
  A 0.42 0.42 0.0 0 1 139.99 213.73
  Q 139.81 213.37 139.90 212.95
  A 0.66 0.65 15.4 0 0 139.45 212.17
  C 138.06 211.77 137.08 212.62 135.72 211.67
  Q 135.40 211.45 135.02 211.44
  Q 134.11 211.41 132.82 209.98" stroke="#1dddcc"></path>
<path d="M 132.82 209.98
  Q 135.04 203.96 130.66 199.24" stroke="#8ba3a3"></path>
<path d="M 173.03 197.93
  Q 165.50 193.98 158.67 199.05" stroke="#915566"></path>
<path d="M 130.56 182.50
  L 130.66 199.24" stroke="#249298"></path>
<path d="M 130.66 199.24
  Q 123.92 193.67 115.88 197.97" stroke="#915566"></path>
<path d="M 177.25 208.32
  Q 176.34 211.66 173.79 213.60" stroke="#8aa09a"></path>
<path d="M 173.79 213.60
  Q 173.61 213.26 173.61 212.92
  Q 173.60 212.65 173.33 212.64
  Q 173.19 212.63 173.04 212.59
  Q 172.81 212.52 172.60 212.23
  Q 170.96 210.01 168.95 209.30
  Q 163.13 207.25 155.92 207.87" stroke="#fa5a63"></path>
<path d="M 181.26 241.54
  Q 180.26 233.99 173.27 231.58" stroke="#8aa09a"></path>
<path d="M 173.27 231.58
  L 173.08 214.61" stroke="#238f8f"></path>
<path d="M 173.08 214.61
  L 173.79 213.60" stroke="#8c958c"></path>
<path d="M 132.82 209.98
  L 130.46 213.47" stroke="#8aa09a"></path>
<path d="M 130.46 213.47
  Q 129.60 214.45 130.01 213.64" stroke="#915566"></path>
<path d="M 130.01 213.64
  C 126.15 207.14 118.68 207.80 111.95 208.05" stroke="#fa5a63"></path>
<path d="M 130.01 213.64
  Q 129.66 214.30 129.43 214.45
  Q 122.66 218.87 115.82 214.31" stroke="#934a58"></path>
<path d="M 130.56 231.91
  Q 123.39 230.56 115.76 231.65" stroke="#915566"></path>
<path d="M 158.80 213.72
  L 158.79 231.71" stroke="#238f8f"></path>
<path d="M 158.79 231.71
  Q 152.90 235.12 151.81 241.51" stroke="#8aa09a"></path>
<path d="M 137.02 241.51
  Q 136.33 235.40 130.56 231.91" stroke="#8aa09a"></path>
<path d="M 130.56 231.91
  L 130.46 213.47" stroke="#238f8f"></path>
<path d="M 173.08 214.61
  Q 165.41 218.71 158.80 213.72" stroke="#934a58"></path>
<path d="M 158.80 213.72
  L 158.13 212.73" stroke="#8c958c"></path>
<path d="M 173.27 231.58
  Q 166.24 230.73 158.79 231.71" stroke="#915566"></path>
<path d="M 74.13 290.14
  C 80.91 283.08 87.72 276.04 94.38 268.89
  Q 96.57 266.54 96.58 265.25
  C 96.63 258.62 89.88 259.06 84.52 259.35
  C 82.00 259.48 80.41 259.34 78.38 261.12
  Q 66.31 271.67 54.41 282.41
  C 51.19 285.32 50.93 290.09 55.75 291.36
  C 58.24 292.02 71.34 293.05 74.13 290.14" stroke="#c8a5a6"></path>
<path d="M 202.42 288.39
  Q 203.26 285.24 201.27 282.68
  Q 193.07 272.07 184.33 261.92
  C 181.25 258.34 176.27 258.98 171.90 259.28
  C 168.38 259.52 165.61 260.88 165.39 264.63
  A 2.96 2.96 0.0 0 0 165.81 266.32
  Q 171.97 276.60 177.91 286.89
  C 179.26 289.23 180.78 291.05 183.25 291.58
  C 186.57 292.30 201.09 293.42 202.42 288.39" stroke="#eec3ab"></path>
<path d="M 235.12 291.62
  Q 239.85 291.07 240.07 286.88
  C 240.20 284.49 238.65 282.77 236.97 281.27
  Q 225.95 271.42 214.97 261.53
  C 211.83 258.70 207.57 259.11 202.69 259.34
  C 198.59 259.53 194.13 263.72 197.75 267.74
  Q 207.34 278.40 217.06 288.95
  C 221.04 293.27 229.88 292.22 235.12 291.62" stroke="#faae84"></path>
<path d="M 91.50 290.91
  Q 98.94 292.96 107.96 291.44
  C 112.17 290.74 112.98 288.48 114.82 285.51" stroke="#8eaef1"></path>
<path d="M 114.82 285.51
  Q 120.11 276.88 125.70 268.49
  C 132.87 257.72 116.94 259.35 112.31 259.48
  Q 111.80 259.49 111.38 259.78
  Q 108.31 261.84 105.90 264.67
  Q 98.14 273.79 90.36 282.85
  Q 86.71 287.10 91.50 290.91" stroke="#9abcf5"></path>
<path d="M 114.82 285.51
  L 114.83 284.72
  Q 114.84 283.90 114.21 284.43
  L 113.67 284.89
  Q 113.30 285.20 112.84 285.03
  Q 111.82 284.64 110.77 285.01
  Q 110.30 285.17 109.81 285.11
  Q 106.09 284.61 102.34 284.65
  Q 101.12 284.67 98.25 284.08
  Q 96.03 283.63 93.78 284.28
  Q 93.44 284.38 93.27 284.07
  L 93.09 283.73
  Q 92.78 283.17 92.68 283.80
  Q 92.57 284.50 91.89 284.65
  A 1.02 1.01 -80.6 0 0 91.21 285.14
  Q 89.85 287.43 91.50 290.91" stroke="#296be7"></path>
<path d="M 134.18 284.22
  C 133.66 291.60 138.87 291.80 144.47 292.09
  C 149.88 292.38 159.47 292.61 158.52 285.00" stroke="#fda7aa"></path>
<path d="M 158.52 285.00
  Q 158.15 269.07 156.82 263.49
  Q 155.92 259.70 151.99 259.58
  Q 146.63 259.42 141.24 259.55
  Q 137.15 259.65 136.45 263.68
  Q 134.50 274.78 134.18 284.22" stroke="#fcb2b8"></path>
<path d="M 158.52 285.00
  L 157.55 283.98
  Q 157.24 283.65 156.79 283.66
  L 134.18 284.22" stroke="#fa5a63"></path>
<path d="M 160.39 82.98
  A 15.34 15.34 0.0 0 0 145.05 67.64
  A 15.34 15.34 0.0 0 0 129.71 82.98
  A 15.34 15.34 0.0 0 0 145.05 98.32
  A 15.34 15.34 0.0 0 0 160.39 82.98" stroke="#f0a9b2"></path>
<path d="M 152.6340 82.0136
  A 7.71 7.56 -7.5 0 0 144.0032 75.5247
  A 7.71 7.56 -7.5 0 0 137.3460 84.0264
  A 7.71 7.56 -7.5 0 0 145.9768 90.5153
  A 7.71 7.56 -7.5 0 0 152.6340 82.0136" stroke="#8fb2ef"></path>
<path d="M 248.5295 127.4295
  A 2.76 2.31 -5.0 0 0 245.5787 125.3688
  A 2.76 2.31 -5.0 0 0 243.0305 127.9105
  A 2.76 2.31 -5.0 0 0 245.9813 129.9712
  A 2.76 2.31 -5.0 0 0 248.5295 127.4295" stroke="#8998a7"></path>
<path d="M 213.11 157.62
  A 2.52 2.52 0.0 0 0 210.59 155.10
  A 2.52 2.52 0.0 0 0 208.07 157.62
  A 2.52 2.52 0.0 0 0 210.59 160.14
  A 2.52 2.52 0.0 0 0 213.11 157.62" stroke="#8494a5"></path>
<path d="M 157.0116 153.3224
  A 11.78 11.49 -3.2 0 0 144.6086 142.5079
  A 11.78 11.49 -3.2 0 0 133.4884 154.6376
  A 11.78 11.49 -3.2 0 0 145.8914 165.4521
  A 11.78 11.49 -3.2 0 0 157.0116 153.3224" stroke="#f0a9b2"></path>
<path d="M 75.61 157.30
  A 2.41 2.41 0.0 0 0 73.20 154.89
  A 2.41 2.41 0.0 0 0 70.79 157.30
  A 2.41 2.41 0.0 0 0 73.20 159.71
  A 2.41 2.41 0.0 0 0 75.61 157.30" stroke="#8494a5"></path>
<path d="M 87.76 198.97
  A 2.80 2.80 0.0 0 0 84.96 196.17
  A 2.80 2.80 0.0 0 0 82.16 198.97
  A 2.80 2.80 0.0 0 0 84.96 201.77
  A 2.80 2.80 0.0 0 0 87.76 198.97" stroke="#249298"></path>
<path d="M 147.0900 154.0562
  A 2.20 1.91 -0.1 0 0 144.8867 152.1500
  A 2.20 1.91 -0.1 0 0 142.6900 154.0638
  A 2.20 1.91 -0.1 0 0 144.8933 155.9700
  A 2.20 1.91 -0.1 0 0 147.0900 154.0562" stroke="#f0a9b2"></path>
</g>
<path d="M 0.00 0.00
  L 300.00 0.00
  L 300.00 300.00
  L 0.00 300.00
  L 0.00 0.00
  Z
  M 138.42 22.96
  L 138.17 28.02
  A 0.42 0.42 0.0 0 1 137.66 28.41
  C 136.36 28.14 135.21 27.75 133.94 27.76
  Q 94.41 28.05 82.50 27.82
  Q 57.84 27.35 39.75 27.88
  C 34.61 28.03 33.34 31.38 33.30 36.12
  Q 33.08 59.07 33.25 81.92
  L 33.30 182.38
  L 33.38 206.75
  Q 33.33 220.99 33.16 235.26
  Q 33.09 241.52 38.75 241.53
  Q 73.45 241.62 108.20 241.48
  L 108.53 246.13
  Q 108.58 246.76 109.20 246.76
  L 135.97 246.76
  A 0.79 0.79 0.0 0 0 136.76 246.01
  L 137.02 241.51
  L 151.81 241.51
  L 151.77 246.53
  Q 151.77 247.05 152.28 247.04
  L 179.64 246.97
  A 1.29 1.29 0.0 0 0 180.93 245.78
  L 181.26 241.54
  Q 218.62 241.53 255.83 241.54
  C 261.58 241.54 266.04 242.19 266.13 235.24
  Q 266.29 222.14 266.21 208.98
  L 266.26 182.44
  L 266.19 59.60
  Q 266.74 39.93 266.15 34.74
  C 265.17 25.97 255.09 27.90 249.00 27.90
  Q 204.63 27.91 160.25 27.97
  Q 155.98 27.98 151.99 27.07
  C 152.23 23.27 152.55 18.18 148.00 18.01
  C 143.57 17.85 138.16 17.22 138.42 22.96
  Z
  M 74.13 290.14
  C 80.91 283.08 87.72 276.04 94.38 268.89
  Q 96.57 266.54 96.58 265.25
  C 96.63 258.62 89.88 259.06 84.52 259.35
  C 82.00 259.48 80.41 259.34 78.38 261.12
  Q 66.31 271.67 54.41 282.41
  C 51.19 285.32 50.93 290.09 55.75 291.36
  C 58.24 292.02 71.34 293.05 74.13 290.14
  Z
  M 202.42 288.39
  Q 203.26 285.24 201.27 282.68
  Q 193.07 272.07 184.33 261.92
  C 181.25 258.34 176.27 258.98 171.90 259.28
  C 168.38 259.52 165.61 260.88 165.39 264.63
  A 2.96 2.96 0.0 0 0 165.81 266.32
  Q 171.97 276.60 177.91 286.89
  C 179.26 289.23 180.78 291.05 183.25 291.58
  C 186.57 292.30 201.09 293.42 202.42 288.39
  Z
  M 235.12 291.62
  Q 239.85 291.07 240.07 286.88
  C 240.20 284.49 238.65 282.77 236.97 281.27
  Q 225.95 271.42 214.97 261.53
  C 211.83 258.70 207.57 259.11 202.69 259.34
  C 198.59 259.53 194.13 263.72 197.75 267.74
  Q 207.34 278.40 217.06 288.95
  C 221.04 293.27 229.88 292.22 235.12 291.62
  Z
  M 91.50 290.91
  Q 98.94 292.96 107.96 291.44
  C 112.17 290.74 112.98 288.48 114.82 285.51
  Q 120.11 276.88 125.70 268.49
  C 132.87 257.72 116.94 259.35 112.31 259.48
  Q 111.80 259.49 111.38 259.78
  Q 108.31 261.84 105.90 264.67
  Q 98.14 273.79 90.36 282.85
  Q 86.71 287.10 91.50 290.91
  Z
  M 134.18 284.22
  C 133.66 291.60 138.87 291.80 144.47 292.09
  C 149.88 292.38 159.47 292.61 158.52 285.00
  Q 158.15 269.07 156.82 263.49
  Q 155.92 259.70 151.99 259.58
  Q 146.63 259.42 141.24 259.55
  Q 137.15 259.65 136.45 263.68
  Q 134.50 274.78 134.18 284.22
  Z" fill="#ffffff"></path>
<path d="M 151.99 27.07
  L 151.98 52.85
  L 138.46 52.53
  L 138.42 22.96
  C 138.16 17.22 143.57 17.85 148.00 18.01
  C 152.55 18.18 152.23 23.27 151.99 27.07
  Z" fill="#2a445b"></path>
<path d="M 138.42 22.96
  L 138.46 52.53
  Q 138.05 53.05 137.75 53.05
  Q 129.98 52.94 122.20 52.99
  C 111.80 53.07 107.58 56.49 107.52 67.04
  Q 107.51 69.68 107.29 72.12
  L 94.99 72.19
  L 81.19 72.27
  Q 80.69 72.27 80.71 72.78
  L 80.98 78.98
  A 0.86 0.86 0.0 0 1 80.12 79.88
  L 73.64 79.90
  L 73.55 84.06
  Q 73.54 84.28 73.35 84.30
  L 73.34 84.30
  Q 73.27 84.31 73.14 83.98
  Q 72.88 83.37 72.28 83.06
  Q 72.07 82.95 71.90 83.12
  L 71.63 83.39
  A 0.19 0.18 -42.2 0 1 71.35 83.38
  Q 71.11 83.08 70.78 82.91
  Q 70.43 82.74 70.20 83.07
  Q 69.68 83.84 68.77 83.58
  Q 67.19 83.13 65.74 82.31
  Q 65.39 82.12 65.11 82.40
  L 64.85 82.66
  Q 64.38 83.13 64.08 82.54
  Q 63.73 81.83 63.88 81.02
  A 0.68 0.68 0.0 0 0 63.04 80.25
  Q 62.35 80.43 62.40 80.96
  Q 62.43 81.39 62.01 81.39
  L 61.55 81.39
  Q 61.15 81.39 61.28 81.76
  Q 61.52 82.43 61.83 83.07
  Q 62.09 83.60 61.55 83.84
  Q 60.45 84.33 59.55 83.59
  Q 59.18 83.29 58.72 83.43
  Q 57.41 83.84 56.91 84.98
  Q 56.28 86.40 55.90 85.07
  Q 55.80 84.73 54.96 84.88
  C 54.14 85.03 53.78 85.65 53.88 86.45
  Q 53.89 86.47 53.75 86.75
  Q 53.65 86.97 53.41 86.84
  Q 53.04 86.66 53.11 86.25
  Q 53.25 85.40 52.92 84.66
  A 0.61 0.57 -55.7 0 1 52.87 84.34
  Q 52.95 83.81 53.24 83.86
  Q 53.54 83.91 53.64 83.62
  Q 53.82 83.13 53.44 82.70
  A 0.27 0.27 0.0 0 0 52.98 82.79
  L 52.87 83.13
  Q 52.71 83.57 52.33 83.29
  Q 52.10 83.12 51.85 83.12
  Q 51.36 83.12 51.15 83.55
  Q 50.91 84.01 50.35 83.94
  Q 49.93 83.89 49.85 83.48
  Q 49.79 83.17 49.46 83.13
  A 0.20 0.20 0.0 0 0 49.24 83.28
  Q 49.07 84.02 48.41 83.91
  Q 47.91 83.84 47.49 84.10
  L 44.30 86.10
  Q 43.83 86.40 43.90 86.94
  Q 43.98 87.57 43.68 88.16
  Q 43.45 88.63 42.92 88.63
  L 41.79 88.63
  Q 41.37 88.63 41.54 88.24
  Q 41.89 87.42 42.58 86.88
  Q 42.79 86.71 42.83 86.54
  Q 42.90 86.30 42.81 86.10
  Q 42.56 85.53 42.05 85.87
  Q 41.37 86.33 40.50 86.06
  Q 40.08 85.94 39.81 85.60
  Q 39.44 85.15 38.46 85.58
  Q 38.22 85.68 38.09 85.91
  Q 38.01 86.07 37.83 86.15
  A 0.51 0.51 0.0 0 1 37.11 85.74
  Q 37.00 84.73 36.01 84.89
  Q 35.86 84.92 35.86 84.77
  Q 35.86 84.63 35.86 84.50
  Q 35.87 84.14 35.50 84.14
  L 35.01 84.14
  Q 34.62 84.14 34.48 83.78
  Q 34.05 82.69 33.25 81.92
  Q 33.08 59.07 33.30 36.12
  C 33.34 31.38 34.61 28.03 39.75 27.88
  Q 57.84 27.35 82.50 27.82
  Q 94.41 28.05 133.94 27.76
  C 135.21 27.75 136.36 28.14 137.66 28.41
  A 0.42 0.42 0.0 0 0 138.17 28.02
  L 138.42 22.96
  Z" fill="#e8ecf2"></path>
<path d="M 151.99 27.07
  Q 155.98 27.98 160.25 27.97
  Q 204.63 27.91 249.00 27.90
  C 255.09 27.90 265.17 25.97 266.15 34.74
  Q 266.74 39.93 266.19 59.60
  Q 263.75 56.96 260.82 56.89
  A 0.97 0.96 62.2 0 1 260.34 56.74
  Q 259.11 55.96 257.76 56.58
  Q 257.38 56.76 256.98 56.65
  Q 256.39 56.49 256.00 56.74
  Q 255.39 57.12 255.13 56.50
  Q 255.03 56.25 254.72 56.24
  Q 254.26 56.22 254.08 56.64
  Q 253.99 56.83 253.75 56.87
  Q 253.23 56.96 253.13 56.88
  Q 252.94 56.72 252.87 56.49
  Q 252.77 56.11 252.38 56.04
  Q 250.24 55.61 248.11 56.15
  Q 247.91 56.20 247.85 56.41
  L 247.79 56.66
  Q 247.65 57.20 247.36 56.73
  Q 247.22 56.49 247.08 56.24
  Q 246.89 55.90 246.52 56.01
  Q 245.47 56.32 244.93 55.43
  Q 244.68 55.01 244.25 55.24
  Q 244.04 55.35 244.15 55.57
  A 0.29 0.29 0.0 0 1 243.95 55.98
  Q 241.23 56.55 238.91 55.42
  C 237.94 54.95 237.46 55.09 236.65 55.66
  A 1.29 1.27 -67.2 0 1 236.17 55.86
  Q 235.33 56.00 234.91 55.41
  A 0.67 0.67 0.0 0 0 234.36 55.12
  L 220.46 55.12
  A 0.80 0.79 -70.4 0 0 219.84 55.42
  Q 219.51 55.82 219.17 55.43
  Q 218.89 55.11 218.46 55.11
  L 203.86 55.10
  Q 203.40 55.10 203.08 55.42
  L 202.73 55.77
  Q 202.45 56.05 202.22 55.73
  L 201.94 55.36
  Q 201.71 55.06 201.34 55.11
  Q 199.52 55.35 197.97 54.49
  Q 197.41 54.18 197.04 54.70
  Q 196.94 54.84 196.71 54.87
  Q 196.22 54.92 195.86 54.58
  Q 195.64 54.38 195.36 54.28
  Q 194.82 54.07 194.27 54.29
  Q 193.58 54.57 193.13 54.13
  A 0.55 0.55 0.0 0 0 192.22 54.35
  Q 191.93 55.21 190.97 55.13
  A 1.16 1.15 -18.7 0 1 190.23 54.77
  Q 189.56 54.02 188.66 54.21
  Q 188.31 54.28 187.96 54.22
  Q 182.69 53.29 179.33 56.38
  Q 176.13 53.14 171.75 53.09
  Q 161.89 52.98 151.98 52.85
  L 151.99 27.07
  Z" fill="#e8ecf2"></path>
<path d="M 138.46 52.53
  L 151.98 52.85
  Q 161.89 52.98 171.75 53.09
  Q 176.13 53.14 179.33 56.38
  C 183.38 60.12 182.86 64.97 182.75 70.83
  Q 182.74 71.28 182.99 71.64
  L 183.23 71.98
  Q 182.79 72.02 182.78 72.50
  Q 182.66 86.38 182.77 100.73
  Q 182.67 104.66 181.57 106.66
  L 108.44 106.52
  Q 107.66 104.69 107.60 100.88
  L 107.29 72.12
  Q 107.51 69.68 107.52 67.04
  C 107.58 56.49 111.80 53.07 122.20 52.99
  Q 129.98 52.94 137.75 53.05
  Q 138.05 53.05 138.46 52.53
  Z
  M 160.39 82.98
  A 15.34 15.34 0.0 0 0 145.05 67.64
  A 15.34 15.34 0.0 0 0 129.71 82.98
  A 15.34 15.34 0.0 0 0 145.05 98.32
  A 15.34 15.34 0.0 0 0 160.39 82.98
  Z" fill="#f86571"></path>
<path d="M 266.19 59.60
  L 266.26 182.44
  L 175.30 182.42
  L 180.87 177.68
  Q 182.70 175.11 182.71 172.50
  Q 182.72 160.77 182.71 149.88
  L 197.98 159.02
  Q 198.43 159.29 198.61 159.79
  C 199.05 161.00 199.23 162.54 199.76 163.52
  C 205.40 174.04 219.82 171.72 223.00 160.42
  C 223.41 158.97 223.25 157.32 223.27 155.76
  Q 223.28 155.22 223.65 154.83
  L 238.26 139.52
  Q 238.73 139.02 239.32 139.37
  C 253.76 147.72 266.59 126.91 252.89 116.98
  Q 252.26 113.30 251.84 105.74
  C 251.67 102.65 250.09 101.15 247.46 99.80
  Q 247.03 99.58 246.80 99.15
  L 244.19 94.13
  C 247.35 92.20 249.86 88.63 247.85 85.22
  Q 247.20 84.12 244.20 82.17
  Q 239.07 78.83 236.60 72.81
  A 0.60 0.59 -39.9 0 0 235.55 72.72
  C 232.87 76.93 227.59 86.45 230.82 91.17
  Q 232.84 94.12 235.74 95.13
  C 235.42 97.61 235.33 100.26 233.88 102.35
  C 232.94 103.71 231.46 104.90 231.72 106.76
  Q 232.61 113.18 235.04 119.67
  Q 232.71 122.82 232.17 126.50
  Q 232.10 126.95 231.79 127.28
  L 214.37 145.61
  Q 214.01 145.98 213.52 145.86
  Q 208.56 144.61 204.29 147.20
  A 0.90 0.88 -43.8 0 1 203.33 147.19
  L 182.47 133.74
  C 178.64 129.22 177.48 126.47 170.75 126.37
  Q 161.41 126.24 151.98 126.36
  L 152.00 113.54
  Q 162.28 113.52 172.50 113.48
  Q 178.00 113.45 181.57 106.66
  Q 182.67 104.66 182.77 100.73
  L 194.67 100.85
  L 208.49 100.89
  A 0.46 0.45 90.0 0 0 208.94 100.43
  L 208.91 92.89
  L 208.79 90.96
  A 0.74 0.73 -2.5 0 1 209.52 90.17
  L 215.60 90.12
  A 0.46 0.46 0.0 0 0 216.06 89.66
  L 216.03 80.54
  A 0.74 0.74 0.0 0 0 215.29 79.81
  L 209.51 79.79
  Q 208.98 79.79 208.98 79.26
  L 208.97 72.78
  Q 208.97 72.30 208.49 72.30
  L 194.74 72.24
  L 183.23 71.98
  L 182.99 71.64
  Q 182.74 71.28 182.75 70.83
  C 182.86 64.97 183.38 60.12 179.33 56.38
  Q 182.69 53.29 187.96 54.22
  Q 188.31 54.28 188.66 54.21
  Q 189.56 54.02 190.23 54.77
  A 1.16 1.15 -18.7 0 0 190.97 55.13
  Q 191.93 55.21 192.22 54.35
  A 0.55 0.55 0.0 0 1 193.13 54.13
  Q 193.58 54.57 194.27 54.29
  Q 194.82 54.07 195.36 54.28
  Q 195.64 54.38 195.86 54.58
  Q 196.22 54.92 196.71 54.87
  Q 196.94 54.84 197.04 54.70
  Q 197.41 54.18 197.97 54.49
  Q 199.52 55.35 201.34 55.11
  Q 201.71 55.06 201.94 55.36
  L 202.22 55.73
  Q 202.45 56.05 202.73 55.77
  L 203.08 55.42
  Q 203.40 55.10 203.86 55.10
  L 218.46 55.11
  Q 218.89 55.11 219.17 55.43
  Q 219.51 55.82 219.84 55.42
  A 0.80 0.79 -70.4 0 1 220.46 55.12
  L 234.36 55.12
  A 0.67 0.67 0.0 0 1 234.91 55.41
  Q 235.33 56.00 236.17 55.86
  A 1.29 1.27 -67.2 0 0 236.65 55.66
  C 237.46 55.09 237.94 54.95 238.91 55.42
  Q 241.23 56.55 243.95 55.98
  A 0.29 0.29 0.0 0 0 244.15 55.57
  Q 244.04 55.35 244.25 55.24
  Q 244.68 55.01 244.93 55.43
  Q 245.47 56.32 246.52 56.01
  Q 246.89 55.90 247.08 56.24
  Q 247.22 56.49 247.36 56.73
  Q 247.65 57.20 247.79 56.66
  L 247.85 56.41
  Q 247.91 56.20 248.11 56.15
  Q 250.24 55.61 252.38 56.04
  Q 252.77 56.11 252.87 56.49
  Q 252.94 56.72 253.13 56.88
  Q 253.23 56.96 253.75 56.87
  Q 253.99 56.83 254.08 56.64
  Q 254.26 56.22 254.72 56.24
  Q 255.03 56.25 255.13 56.50
  Q 255.39 57.12 256.00 56.74
  Q 256.39 56.49 256.98 56.65
  Q 257.38 56.76 257.76 56.58
  Q 259.11 55.96 260.34 56.74
  A 0.97 0.96 62.2 0 0 260.82 56.89
  Q 263.75 56.96 266.19 59.60
  Z" fill="#dee4ee"></path>
<path d="M 160.39 82.98
  A 15.34 15.34 0.0 0 1 145.05 98.32
  A 15.34 15.34 0.0 0 1 129.71 82.98
  A 15.34 15.34 0.0 0 1 145.05 67.64
  A 15.34 15.34 0.0 0 1 160.39 82.98
  Z
  M 152.6340 82.0136
  A 7.71 7.56 -7.5 0 0 144.0032 75.5247
  A 7.71 7.56 -7.5 0 0 137.3460 84.0264
  A 7.71 7.56 -7.5 0 0 145.9768 90.5153
  A 7.71 7.56 -7.5 0 0 152.6340 82.0136
  Z" fill="#e8ecf2"></path>
<path d="M 107.29 72.12
  L 107.60 100.88
  L 95.15 100.89
  L 95.01 91.76
  L 94.99 72.19
  L 107.29 72.12
  Z" fill="#2a445b"></path>
<path d="M 183.23 71.98
  L 194.74 72.24
  L 194.76 92.62
  L 194.67 100.85
  L 182.77 100.73
  Q 182.66 86.38 182.78 72.50
  Q 182.79 72.02 183.23 71.98
  Z" fill="#2a445b"></path>
<path d="M 94.99 72.19
  L 95.01 91.76
  Q 88.22 92.74 80.78 92.18
  Q 81.04 91.53 80.84 90.50
  Q 80.74 89.99 80.22 89.99
  L 74.24 90.04
  A 0.49 0.49 0.0 0 1 73.75 89.55
  L 73.64 79.90
  L 80.12 79.88
  A 0.86 0.86 0.0 0 0 80.98 78.98
  L 80.71 72.78
  Q 80.69 72.27 81.19 72.27
  L 94.99 72.19
  Z" fill="#f86571"></path>
<path d="M 194.74 72.24
  L 208.49 72.30
  Q 208.97 72.30 208.97 72.78
  L 208.98 79.26
  Q 208.98 79.79 209.51 79.79
  L 215.29 79.81
  A 0.74 0.74 0.0 0 1 216.03 80.54
  L 216.06 89.66
  A 0.46 0.46 0.0 0 1 215.60 90.12
  L 209.52 90.17
  A 0.74 0.73 -2.5 0 0 208.79 90.96
  L 208.91 92.89
  L 194.76 92.62
  L 194.74 72.24
  Z" fill="#f86571"></path>
<path d="M 244.19 94.13
  L 235.74 95.13
  Q 232.84 94.12 230.82 91.17
  C 227.59 86.45 232.87 76.93 235.55 72.72
  A 0.60 0.59 -39.9 0 1 236.60 72.81
  Q 239.07 78.83 244.20 82.17
  Q 247.20 84.12 247.85 85.22
  C 249.86 88.63 247.35 92.20 244.19 94.13
  Z" fill="#3578eb"></path>
<ellipse ry="7.56" rx="7.71" transform="translate(144.99,83.02) rotate(-7.5)" cy="0.00" cx="0.00" fill="#3578eb"></ellipse>
<path d="M 73.64 79.90
  L 73.75 89.55
  A 0.49 0.49 0.0 0 0 74.24 90.04
  L 80.22 89.99
  Q 80.74 89.99 80.84 90.50
  Q 81.04 91.53 80.78 92.18
  L 80.77 100.49
  A 0.37 0.36 90.0 0 0 81.13 100.86
  L 95.15 100.89
  L 107.60 100.88
  Q 107.66 104.69 108.44 106.52
  Q 111.81 113.48 118.50 113.49
  Q 128.48 113.51 138.46 113.52
  L 138.47 126.01
  Q 138.10 126.35 137.75 126.34
  Q 128.13 126.27 118.49 126.26
  C 113.35 126.25 109.60 130.18 107.46 134.89
  L 79.02 146.18
  Q 78.56 146.37 78.10 146.18
  C 63.03 140.04 53.34 159.97 66.83 168.11
  Q 68.12 168.89 69.54 169.60
  Q 69.98 169.82 70.09 170.30
  L 72.98 182.36
  L 33.30 182.38
  L 33.25 81.92
  Q 34.05 82.69 34.48 83.78
  Q 34.62 84.14 35.01 84.14
  L 35.50 84.14
  Q 35.87 84.14 35.86 84.50
  Q 35.86 84.63 35.86 84.77
  Q 35.86 84.92 36.01 84.89
  Q 37.00 84.73 37.11 85.74
  A 0.51 0.51 0.0 0 0 37.83 86.15
  Q 38.01 86.07 38.09 85.91
  Q 38.22 85.68 38.46 85.58
  Q 39.44 85.15 39.81 85.60
  Q 40.08 85.94 40.50 86.06
  Q 41.37 86.33 42.05 85.87
  Q 42.56 85.53 42.81 86.10
  Q 42.90 86.30 42.83 86.54
  Q 42.79 86.71 42.58 86.88
  Q 41.89 87.42 41.54 88.24
  Q 41.37 88.63 41.79 88.63
  L 42.92 88.63
  Q 43.45 88.63 43.68 88.16
  Q 43.98 87.57 43.90 86.94
  Q 43.83 86.40 44.30 86.10
  L 47.49 84.10
  Q 47.91 83.84 48.41 83.91
  Q 49.07 84.02 49.24 83.28
  A 0.20 0.20 0.0 0 1 49.46 83.13
  Q 49.79 83.17 49.85 83.48
  Q 49.93 83.89 50.35 83.94
  Q 50.91 84.01 51.15 83.55
  Q 51.36 83.12 51.85 83.12
  Q 52.10 83.12 52.33 83.29
  Q 52.71 83.57 52.87 83.13
  L 52.98 82.79
  A 0.27 0.27 0.0 0 1 53.44 82.70
  Q 53.82 83.13 53.64 83.62
  Q 53.54 83.91 53.24 83.86
  Q 52.95 83.81 52.87 84.34
  A 0.61 0.57 -55.7 0 0 52.92 84.66
  Q 53.25 85.40 53.11 86.25
  Q 53.04 86.66 53.41 86.84
  Q 53.65 86.97 53.75 86.75
  Q 53.89 86.47 53.88 86.45
  C 53.78 85.65 54.14 85.03 54.96 84.88
  Q 55.80 84.73 55.90 85.07
  Q 56.28 86.40 56.91 84.98
  Q 57.41 83.84 58.72 83.43
  Q 59.18 83.29 59.55 83.59
  Q 60.45 84.33 61.55 83.84
  Q 62.09 83.60 61.83 83.07
  Q 61.52 82.43 61.28 81.76
  Q 61.15 81.39 61.55 81.39
  L 62.01 81.39
  Q 62.43 81.39 62.40 80.96
  Q 62.35 80.43 63.04 80.25
  A 0.68 0.68 0.0 0 1 63.88 81.02
  Q 63.73 81.83 64.08 82.54
  Q 64.38 83.13 64.85 82.66
  L 65.11 82.40
  Q 65.39 82.12 65.74 82.31
  Q 67.19 83.13 68.77 83.58
  Q 69.68 83.84 70.20 83.07
  Q 70.43 82.74 70.78 82.91
  Q 71.11 83.08 71.35 83.38
  A 0.19 0.18 -42.2 0 0 71.63 83.39
  L 71.90 83.12
  Q 72.07 82.95 72.28 83.06
  Q 72.88 83.37 73.14 83.98
  Q 73.27 84.31 73.34 84.30
  L 73.35 84.30
  Q 73.54 84.28 73.55 84.06
  L 73.64 79.90
  Z" fill="#dee4ee"></path>
<path d="M 95.01 91.76
  L 95.15 100.89
  L 81.13 100.86
  A 0.37 0.36 -90.0 0 1 80.77 100.49
  L 80.78 92.18
  Q 88.22 92.74 95.01 91.76
  Z" fill="#fb4f55"></path>
<path d="M 194.76 92.62
  L 208.91 92.89
  L 208.94 100.43
  A 0.46 0.45 -90.0 0 1 208.49 100.89
  L 194.67 100.85
  L 194.76 92.62
  Z" fill="#fb4f55"></path>
<path d="M 244.19 94.13
  L 246.80 99.15
  Q 247.03 99.58 247.46 99.80
  C 250.09 101.15 251.67 102.65 251.84 105.74
  Q 252.26 113.30 252.89 116.98
  Q 242.74 111.94 235.04 119.67
  Q 232.61 113.18 231.72 106.76
  C 231.46 104.90 232.94 103.71 233.88 102.35
  C 235.33 100.26 235.42 97.61 235.74 95.13
  L 244.19 94.13
  Z" fill="#f55c08"></path>
<path d="M 181.57 106.66
  Q 178.00 113.45 172.50 113.48
  Q 162.28 113.52 152.00 113.54
  L 138.46 113.52
  Q 128.48 113.51 118.50 113.49
  Q 111.81 113.48 108.44 106.52
  L 181.57 106.66
  Z" fill="#fb4f55"></path>
<path d="M 138.46 113.52
  L 152.00 113.54
  L 151.98 126.36
  L 138.76 126.38
  Q 138.63 126.38 138.58 126.26
  Q 138.53 126.13 138.47 126.01
  L 138.46 113.52
  Z" fill="#2a445b"></path>
<path d="M 252.89 116.98
  C 266.59 126.91 253.76 147.72 239.32 139.37
  Q 238.73 139.02 238.26 139.52
  L 223.65 154.83
  Q 223.28 155.22 223.27 155.76
  C 223.25 157.32 223.41 158.97 223.00 160.42
  C 219.82 171.72 205.40 174.04 199.76 163.52
  C 199.23 162.54 199.05 161.00 198.61 159.79
  Q 198.43 159.29 197.98 159.02
  L 182.71 149.88
  L 182.47 133.74
  L 203.33 147.19
  A 0.90 0.88 -43.8 0 0 204.29 147.20
  Q 208.56 144.61 213.52 145.86
  Q 214.01 145.98 214.37 145.61
  L 231.79 127.28
  Q 232.10 126.95 232.17 126.50
  Q 232.71 122.82 235.04 119.67
  Q 242.74 111.94 252.89 116.98
  Z
  M 248.5295 127.4295
  A 2.76 2.31 -5.0 0 0 245.5787 125.3688
  A 2.76 2.31 -5.0 0 0 243.0305 127.9105
  A 2.76 2.31 -5.0 0 0 245.9813 129.9712
  A 2.76 2.31 -5.0 0 0 248.5295 127.4295
  Z
  M 213.11 157.62
  A 2.52 2.52 0.0 0 0 210.59 155.10
  A 2.52 2.52 0.0 0 0 208.07 157.62
  A 2.52 2.52 0.0 0 0 210.59 160.14
  A 2.52 2.52 0.0 0 0 213.11 157.62
  Z" fill="#2a445b"></path>
<ellipse ry="2.31" rx="2.76" transform="translate(245.78,127.67) rotate(-5.0)" cy="0.00" cx="0.00" fill="#e8ecf2"></ellipse>
<path d="M 138.47 126.01
  Q 138.53 126.13 138.58 126.26
  Q 138.63 126.38 138.76 126.38
  L 151.98 126.36
  Q 161.41 126.24 170.75 126.37
  C 177.48 126.47 178.64 129.22 182.47 133.74
  L 182.71 149.88
  Q 182.72 160.77 182.71 172.50
  Q 182.70 175.11 180.87 177.68
  Q 180.70 176.83 180.25 176.83
  C 156.93 176.88 133.59 176.55 110.28 176.95
  A 0.64 0.64 0.0 0 0 109.68 177.41
  Q 109.57 177.78 109.65 178.27
  Q 107.73 175.55 107.66 172.75
  Q 107.48 166.52 107.50 150.85
  Q 107.50 150.51 107.34 150.21
  Q 107.26 150.07 107.18 149.91
  L 107.46 134.89
  C 109.60 130.18 113.35 126.25 118.49 126.26
  Q 128.13 126.27 137.75 126.34
  Q 138.10 126.35 138.47 126.01
  Z
  M 157.0116 153.3224
  A 11.78 11.49 -3.2 0 0 144.6086 142.5079
  A 11.78 11.49 -3.2 0 0 133.4884 154.6376
  A 11.78 11.49 -3.2 0 0 145.8914 165.4521
  A 11.78 11.49 -3.2 0 0 157.0116 153.3224
  Z" fill="#f86571"></path>
<path d="M 107.46 134.89
  L 107.18 149.91
  L 86.40 157.42
  Q 85.91 157.59 85.78 158.09
  C 84.67 162.07 82.50 164.47 83.47 168.74
  Q 85.04 175.61 86.71 182.54
  Q 86.76 184.20 87.47 185.76
  Q 87.68 186.22 88.17 186.36
  C 96.88 188.90 99.85 197.89 96.34 205.86
  Q 88.95 216.20 77.42 210.11
  C 71.44 205.08 70.39 197.74 74.72 191.05
  Q 75.00 190.61 74.88 190.11
  L 72.98 182.36
  L 70.09 170.30
  Q 69.98 169.82 69.54 169.60
  Q 68.12 168.89 66.83 168.11
  C 53.34 159.97 63.03 140.04 78.10 146.18
  Q 78.56 146.37 79.02 146.18
  L 107.46 134.89
  Z
  M 75.61 157.30
  A 2.41 2.41 0.0 0 0 73.20 154.89
  A 2.41 2.41 0.0 0 0 70.79 157.30
  A 2.41 2.41 0.0 0 0 73.20 159.71
  A 2.41 2.41 0.0 0 0 75.61 157.30
  Z
  M 87.76 198.97
  A 2.80 2.80 0.0 0 0 84.96 196.17
  A 2.80 2.80 0.0 0 0 82.16 198.97
  A 2.80 2.80 0.0 0 0 84.96 201.77
  A 2.80 2.80 0.0 0 0 87.76 198.97
  Z" fill="#2a445b"></path>
<path d="M 157.0116 153.3224
  A 11.78 11.49 -3.2 0 1 145.8914 165.4521
  A 11.78 11.49 -3.2 0 1 133.4884 154.6376
  A 11.78 11.49 -3.2 0 1 144.6086 142.5079
  A 11.78 11.49 -3.2 0 1 157.0116 153.3224
  Z
  M 147.0900 154.0562
  A 2.20 1.91 -0.1 0 0 144.8867 152.1500
  A 2.20 1.91 -0.1 0 0 142.6900 154.0638
  A 2.20 1.91 -0.1 0 0 144.8933 155.9700
  A 2.20 1.91 -0.1 0 0 147.0900 154.0562
  Z" fill="#e8ecf2"></path>
<path d="M 107.18 149.91
  Q 107.26 150.07 107.34 150.21
  Q 107.50 150.51 107.50 150.85
  Q 107.48 166.52 107.66 172.75
  Q 107.73 175.55 109.65 178.27
  L 115.03 182.15
  L 114.43 182.37
  Q 114.04 182.52 113.62 182.52
  L 86.71 182.54
  Q 85.04 175.61 83.47 168.74
  C 82.50 164.47 84.67 162.07 85.78 158.09
  Q 85.91 157.59 86.40 157.42
  L 107.18 149.91
  Z" fill="#dee4ee"></path>
<ellipse ry="1.91" rx="2.20" transform="translate(144.89,154.06) rotate(-0.1)" cy="0.00" cx="0.00" fill="#f86571"></ellipse>
<circle r="2.41" cy="157.30" cx="73.20" fill="#dee4ee"></circle>
<circle r="2.52" cy="157.62" cx="210.59" fill="#dee4ee"></circle>
<path d="M 180.87 177.68
  L 175.30 182.42
  L 173.00 182.60
  L 158.51 182.51
  L 130.56 182.50
  L 115.80 182.50
  Q 115.43 182.42 115.03 182.15
  L 109.65 178.27
  Q 109.57 177.78 109.68 177.41
  A 0.64 0.64 0.0 0 1 110.28 176.95
  C 133.59 176.55 156.93 176.88 180.25 176.83
  Q 180.70 176.83 180.87 177.68
  Z" fill="#fb4f55"></path>
<path d="M 72.98 182.36
  L 74.88 190.11
  Q 75.00 190.61 74.72 191.05
  C 70.39 197.74 71.44 205.08 77.42 210.11
  Q 77.56 210.28 77.28 210.36
  Q 77.13 210.40 77.24 210.51
  L 77.50 210.77
  A 0.23 0.23 0.0 0 1 77.26 211.15
  Q 76.54 210.92 76.21 211.20
  Q 75.91 211.47 76.30 211.59
  Q 77.07 211.81 77.68 211.43
  Q 77.99 211.25 78.24 211.50
  L 78.52 211.78
  A 0.37 0.37 0.0 0 1 78.21 212.41
  L 73.90 211.92
  Q 73.43 211.86 72.97 211.91
  Q 70.81 212.15 68.73 211.58
  Q 68.32 211.47 68.01 211.75
  Q 67.78 211.95 67.51 212.07
  Q 67.09 212.25 66.47 212.09
  Q 65.56 211.85 64.71 211.50
  Q 64.37 211.36 64.11 211.62
  L 63.86 211.87
  Q 63.49 212.23 63.13 211.87
  L 62.77 211.51
  Q 62.46 211.20 62.15 211.51
  L 60.78 212.84
  Q 60.44 213.18 60.10 212.84
  L 59.50 212.24
  A 0.22 0.22 0.0 0 0 59.12 212.39
  L 59.11 212.76
  Q 59.10 213.05 58.82 213.12
  Q 57.67 213.37 56.95 212.70
  Q 56.57 212.35 56.21 212.72
  Q 55.47 213.48 54.38 213.01
  Q 54.10 212.89 53.95 212.62
  Q 53.81 212.38 53.66 212.04
  Q 53.53 211.72 53.22 211.86
  C 51.37 212.66 49.87 211.62 47.85 212.83
  Q 47.42 213.09 47.04 212.76
  Q 46.85 212.60 46.88 212.38
  A 0.31 0.31 0.0 0 0 46.30 212.18
  L 46.02 212.66
  A 0.68 0.67 -71.6 0 1 45.38 212.99
  Q 43.52 212.84 41.87 213.50
  Q 41.47 213.66 41.10 213.45
  Q 39.65 212.66 37.94 212.70
  Q 37.42 212.71 36.93 212.52
  L 35.38 211.90
  Q 34.80 211.67 34.60 212.25
  Q 34.41 212.80 34.05 212.53
  Q 33.80 212.35 33.79 212.66
  Q 33.78 212.88 33.73 212.98
  Q 33.55 213.34 33.54 212.93
  L 33.38 206.75
  L 33.30 182.38
  L 72.98 182.36
  Z" fill="#1de0d4"></path>
<path d="M 115.03 182.15
  Q 115.43 182.42 115.80 182.50
  L 115.88 197.97
  Q 111.05 202.14 111.95 208.05
  Q 112.18 207.98 112.02 208.57
  Q 109.89 209.78 108.62 209.26
  Q 108.16 209.07 107.74 209.35
  Q 106.70 210.03 105.56 210.30
  Q 105.05 210.42 104.59 210.18
  L 102.18 208.95
  Q 101.65 208.67 101.26 209.12
  L 100.53 209.97
  Q 100.20 210.35 99.96 209.91
  Q 99.87 209.76 99.88 209.58
  Q 99.91 209.08 99.40 209.15
  Q 98.74 209.25 98.18 209.14
  Q 97.83 209.06 97.53 208.87
  Q 95.64 207.70 97.10 206.83
  A 0.50 0.50 0.0 0 0 96.88 205.90
  L 96.34 205.86
  C 99.85 197.89 96.88 188.90 88.17 186.36
  Q 87.68 186.22 87.47 185.76
  Q 86.76 184.20 86.71 182.54
  L 113.62 182.52
  Q 114.04 182.52 114.43 182.37
  L 115.03 182.15
  Z" fill="#1de0d4"></path>
<path d="M 175.30 182.42
  L 266.26 182.44
  L 266.21 208.98
  L 264.86 211.70
  Q 264.64 212.15 264.14 212.15
  L 260.93 212.11
  Q 260.42 212.10 260.10 211.70
  Q 259.21 210.62 257.78 211.71
  Q 257.27 212.10 257.08 211.49
  Q 256.56 209.91 254.62 210.24
  Q 253.68 210.39 254.53 210.84
  Q 254.89 211.03 255.13 211.51
  A 0.37 0.36 6.5 0 1 254.57 211.95
  L 252.77 210.50
  Q 252.42 210.22 252.17 210.59
  Q 251.74 211.19 250.99 211.11
  Q 250.51 211.06 250.12 210.78
  C 248.24 209.44 247.40 211.16 245.71 211.14
  Q 245.36 211.13 245.11 211.38
  L 244.82 211.67
  Q 244.37 212.12 244.07 211.57
  L 243.76 210.99
  Q 243.53 210.57 243.11 210.80
  C 241.06 211.94 239.93 209.34 237.79 211.71
  A 0.42 0.42 0.0 0 1 237.10 211.60
  Q 236.84 211.07 236.78 210.44
  A 0.65 0.64 -0.5 0 0 236.18 209.86
  Q 234.65 209.76 233.91 210.94
  A 1.00 1.00 0.0 0 1 232.36 211.10
  L 231.77 210.52
  Q 231.06 209.81 231.15 210.80
  Q 231.20 211.39 230.87 211.90
  A 0.44 0.44 0.0 0 1 230.10 211.85
  Q 229.86 211.37 229.80 210.82
  A 0.52 0.51 86.2 0 0 229.29 210.37
  L 228.72 210.37
  Q 228.26 210.37 228.20 210.83
  Q 228.14 211.37 227.91 211.85
  A 0.44 0.43 41.8 0 1 227.15 211.89
  Q 226.36 210.62 224.89 210.31
  A 0.59 0.58 10.9 0 0 224.19 210.78
  L 224.02 211.76
  A 0.52 0.51 -69.6 0 1 223.25 212.12
  Q 222.80 211.85 222.31 211.76
  A 0.36 0.36 0.0 0 1 222.11 211.15
  L 222.36 210.90
  Q 222.99 210.26 222.10 210.38
  Q 221.62 210.44 221.24 210.24
  Q 220.81 210.00 220.43 210.31
  Q 218.67 211.75 216.31 210.91
  A 0.90 0.87 -10.0 0 1 215.91 210.64
  Q 215.49 210.18 214.77 210.20
  A 0.57 0.54 20.0 0 0 214.40 210.36
  Q 213.67 211.05 212.57 211.13
  A 0.56 0.56 0.0 0 1 211.98 210.72
  L 211.79 209.99
  Q 211.58 209.21 211.31 209.97
  Q 210.59 211.91 208.34 210.81
  Q 207.97 210.64 207.91 210.23
  Q 207.87 209.99 207.41 210.16
  Q 207.09 210.28 207.14 210.62
  Q 207.22 211.23 206.85 211.66
  Q 206.42 212.16 206.09 211.58
  Q 205.69 210.90 205.95 210.03
  Q 206.06 209.65 205.76 209.38
  Q 205.37 209.02 204.78 209.14
  A 0.97 0.92 10.0 0 0 204.19 209.53
  Q 203.65 210.31 202.76 210.11
  A 0.56 0.56 0.0 0 0 202.11 210.48
  Q 201.83 211.32 201.03 211.01
  Q 200.53 210.81 200.02 210.97
  Q 197.38 211.77 196.03 209.63
  Q 195.79 209.26 195.41 209.46
  Q 194.44 209.96 193.90 210.80
  Q 193.58 211.29 193.15 210.89
  Q 192.78 210.55 192.88 210.04
  Q 192.97 209.59 192.61 209.31
  Q 192.41 209.15 192.17 209.11
  Q 191.82 209.04 191.40 209.36
  Q 190.56 210.01 189.82 210.83
  Q 189.45 211.24 188.97 210.97
  Q 188.53 210.71 188.08 210.94
  Q 187.61 211.18 187.17 210.90
  Q 187.03 210.81 186.96 210.68
  Q 186.54 209.87 186.13 210.50
  L 185.91 210.84
  A 0.35 0.35 0.0 0 1 185.60 211.00
  Q 185.09 210.99 184.94 210.64
  Q 184.77 210.23 184.34 210.14
  Q 183.51 209.95 183.13 210.65
  A 0.65 0.65 0.0 0 1 182.23 210.89
  Q 181.50 210.46 180.73 210.72
  Q 180.26 210.88 179.86 210.58
  Q 179.20 210.09 178.68 210.67
  Q 178.12 211.30 178.14 210.46
  Q 178.26 205.79 177.25 208.32
  C 177.82 203.26 176.34 201.28 173.03 197.93
  L 173.00 182.60
  L 175.30 182.42
  Z" fill="#1de0d4"></path>
<path d="M 115.80 182.50
  L 130.56 182.50
  L 130.66 199.24
  Q 123.92 193.67 115.88 197.97
  L 115.80 182.50
  Z" fill="#2a445b"></path>
<path d="M 130.56 182.50
  L 158.51 182.51
  L 158.67 199.05
  Q 156.98 201.65 156.57 202.50
  Q 155.27 205.20 155.92 207.87
  Q 156.31 210.81 158.13 212.73
  Q 157.79 213.22 158.01 213.90
  Q 158.18 214.43 157.69 214.69
  Q 156.94 215.08 156.31 214.63
  Q 155.98 214.39 155.57 214.36
  Q 154.66 214.29 153.97 214.81
  Q 153.60 215.09 153.27 214.76
  L 152.95 214.43
  Q 152.62 214.11 152.17 214.11
  L 146.95 214.11
  A 1.24 1.24 0.0 0 1 145.89 213.51
  Q 145.61 213.06 145.67 212.49
  Q 145.72 211.88 145.28 212.44
  C 143.94 214.09 141.99 212.12 140.70 213.79
  A 0.42 0.42 0.0 0 1 139.99 213.73
  Q 139.81 213.37 139.90 212.95
  A 0.66 0.65 15.4 0 0 139.45 212.17
  C 138.06 211.77 137.08 212.62 135.72 211.67
  Q 135.40 211.45 135.02 211.44
  Q 134.11 211.41 132.82 209.98
  Q 135.04 203.96 130.66 199.24
  L 130.56 182.50
  Z" fill="#1de0d4"></path>
<path d="M 158.51 182.51
  L 173.00 182.60
  L 173.03 197.93
  Q 165.50 193.98 158.67 199.05
  L 158.51 182.51
  Z" fill="#2a445b"></path>
<circle r="2.80" cy="198.97" cx="84.96" fill="#1de0d4"></circle>
<path d="M 130.66 199.24
  Q 135.04 203.96 132.82 209.98
  L 130.46 213.47
  Q 129.60 214.45 130.01 213.64
  C 126.15 207.14 118.68 207.80 111.95 208.05
  Q 111.05 202.14 115.88 197.97
  Q 123.92 193.67 130.66 199.24
  Z" fill="#f86571"></path>
<path d="M 173.03 197.93
  C 176.34 201.28 177.82 203.26 177.25 208.32
  Q 176.34 211.66 173.79 213.60
  Q 173.61 213.26 173.61 212.92
  Q 173.60 212.65 173.33 212.64
  Q 173.19 212.63 173.04 212.59
  Q 172.81 212.52 172.60 212.23
  Q 170.96 210.01 168.95 209.30
  Q 163.13 207.25 155.92 207.87
  Q 155.27 205.20 156.57 202.50
  Q 156.98 201.65 158.67 199.05
  Q 165.50 193.98 173.03 197.93
  Z" fill="#f86571"></path>
<path d="M 96.34 205.86
  L 96.88 205.90
  A 0.50 0.50 0.0 0 1 97.10 206.83
  Q 95.64 207.70 97.53 208.87
  Q 97.83 209.06 98.18 209.14
  Q 98.74 209.25 99.40 209.15
  Q 99.91 209.08 99.88 209.58
  Q 99.87 209.76 99.96 209.91
  Q 100.20 210.35 100.53 209.97
  L 101.26 209.12
  Q 101.65 208.67 102.18 208.95
  L 104.59 210.18
  Q 105.05 210.42 105.56 210.30
  Q 106.70 210.03 107.74 209.35
  Q 108.16 209.07 108.62 209.26
  Q 109.89 209.78 112.02 208.57
  Q 113.08 212.10 115.82 214.31
  L 115.76 231.65
  Q 109.04 234.67 108.20 241.48
  Q 73.45 241.62 38.75 241.53
  Q 33.09 241.52 33.16 235.26
  Q 33.33 220.99 33.38 206.75
  L 33.54 212.93
  Q 33.55 213.34 33.73 212.98
  Q 33.78 212.88 33.79 212.66
  Q 33.80 212.35 34.05 212.53
  Q 34.41 212.80 34.60 212.25
  Q 34.80 211.67 35.38 211.90
  L 36.93 212.52
  Q 37.42 212.71 37.94 212.70
  Q 39.65 212.66 41.10 213.45
  Q 41.47 213.66 41.87 213.50
  Q 43.52 212.84 45.38 212.99
  A 0.68 0.67 -71.6 0 0 46.02 212.66
  L 46.30 212.18
  A 0.31 0.31 0.0 0 1 46.88 212.38
  Q 46.85 212.60 47.04 212.76
  Q 47.42 213.09 47.85 212.83
  C 49.87 211.62 51.37 212.66 53.22 211.86
  Q 53.53 211.72 53.66 212.04
  Q 53.81 212.38 53.95 212.62
  Q 54.10 212.89 54.38 213.01
  Q 55.47 213.48 56.21 212.72
  Q 56.57 212.35 56.95 212.70
  Q 57.67 213.37 58.82 213.12
  Q 59.10 213.05 59.11 212.76
  L 59.12 212.39
  A 0.22 0.22 0.0 0 1 59.50 212.24
  L 60.10 212.84
  Q 60.44 213.18 60.78 212.84
  L 62.15 211.51
  Q 62.46 211.20 62.77 211.51
  L 63.13 211.87
  Q 63.49 212.23 63.86 211.87
  L 64.11 211.62
  Q 64.37 211.36 64.71 211.50
  Q 65.56 211.85 66.47 212.09
  Q 67.09 212.25 67.51 212.07
  Q 67.78 211.95 68.01 211.75
  Q 68.32 211.47 68.73 211.58
  Q 70.81 212.15 72.97 211.91
  Q 73.43 211.86 73.90 211.92
  L 78.21 212.41
  A 0.37 0.37 0.0 0 0 78.52 211.78
  L 78.24 211.50
  Q 77.99 211.25 77.68 211.43
  Q 77.07 211.81 76.30 211.59
  Q 75.91 211.47 76.21 211.20
  Q 76.54 210.92 77.26 211.15
  A 0.23 0.23 0.0 0 0 77.50 210.77
  L 77.24 210.51
  Q 77.13 210.40 77.28 210.36
  Q 77.56 210.28 77.42 210.11
  Q 88.95 216.20 96.34 205.86
  Z" fill="#1cdac3"></path>
<path d="M 266.21 208.98
  Q 266.29 222.14 266.13 235.24
  C 266.04 242.19 261.58 241.54 255.83 241.54
  Q 218.62 241.53 181.26 241.54
  Q 180.26 233.99 173.27 231.58
  L 173.08 214.61
  L 173.79 213.60
  Q 176.34 211.66 177.25 208.32
  Q 178.26 205.79 178.14 210.46
  Q 178.12 211.30 178.68 210.67
  Q 179.20 210.09 179.86 210.58
  Q 180.26 210.88 180.73 210.72
  Q 181.50 210.46 182.23 210.89
  A 0.65 0.65 0.0 0 0 183.13 210.65
  Q 183.51 209.95 184.34 210.14
  Q 184.77 210.23 184.94 210.64
  Q 185.09 210.99 185.60 211.00
  A 0.35 0.35 0.0 0 0 185.91 210.84
  L 186.13 210.50
  Q 186.54 209.87 186.96 210.68
  Q 187.03 210.81 187.17 210.90
  Q 187.61 211.18 188.08 210.94
  Q 188.53 210.71 188.97 210.97
  Q 189.45 211.24 189.82 210.83
  Q 190.56 210.01 191.40 209.36
  Q 191.82 209.04 192.17 209.11
  Q 192.41 209.15 192.61 209.31
  Q 192.97 209.59 192.88 210.04
  Q 192.78 210.55 193.15 210.89
  Q 193.58 211.29 193.90 210.80
  Q 194.44 209.96 195.41 209.46
  Q 195.79 209.26 196.03 209.63
  Q 197.38 211.77 200.02 210.97
  Q 200.53 210.81 201.03 211.01
  Q 201.83 211.32 202.11 210.48
  A 0.56 0.56 0.0 0 1 202.76 210.11
  Q 203.65 210.31 204.19 209.53
  A 0.97 0.92 10.0 0 1 204.78 209.14
  Q 205.37 209.02 205.76 209.38
  Q 206.06 209.65 205.95 210.03
  Q 205.69 210.90 206.09 211.58
  Q 206.42 212.16 206.85 211.66
  Q 207.22 211.23 207.14 210.62
  Q 207.09 210.28 207.41 210.16
  Q 207.87 209.99 207.91 210.23
  Q 207.97 210.64 208.34 210.81
  Q 210.59 211.91 211.31 209.97
  Q 211.58 209.21 211.79 209.99
  L 211.98 210.72
  A 0.56 0.56 0.0 0 0 212.57 211.13
  Q 213.67 211.05 214.40 210.36
  A 0.57 0.54 20.0 0 1 214.77 210.20
  Q 215.49 210.18 215.91 210.64
  A 0.90 0.87 -10.0 0 0 216.31 210.91
  Q 218.67 211.75 220.43 210.31
  Q 220.81 210.00 221.24 210.24
  Q 221.62 210.44 222.10 210.38
  Q 222.99 210.26 222.36 210.90
  L 222.11 211.15
  A 0.36 0.36 0.0 0 0 222.31 211.76
  Q 222.80 211.85 223.25 212.12
  A 0.52 0.51 -69.6 0 0 224.02 211.76
  L 224.19 210.78
  A 0.59 0.58 10.9 0 1 224.89 210.31
  Q 226.36 210.62 227.15 211.89
  A 0.44 0.43 41.8 0 0 227.91 211.85
  Q 228.14 211.37 228.20 210.83
  Q 228.26 210.37 228.72 210.37
  L 229.29 210.37
  A 0.52 0.51 86.2 0 1 229.80 210.82
  Q 229.86 211.37 230.10 211.85
  A 0.44 0.44 0.0 0 0 230.87 211.90
  Q 231.20 211.39 231.15 210.80
  Q 231.06 209.81 231.77 210.52
  L 232.36 211.10
  A 1.00 1.00 0.0 0 0 233.91 210.94
  Q 234.65 209.76 236.18 209.86
  A 0.65 0.64 -0.5 0 1 236.78 210.44
  Q 236.84 211.07 237.10 211.60
  A 0.42 0.42 0.0 0 0 237.79 211.71
  C 239.93 209.34 241.06 211.94 243.11 210.80
  Q 243.53 210.57 243.76 210.99
  L 244.07 211.57
  Q 244.37 212.12 244.82 211.67
  L 245.11 211.38
  Q 245.36 211.13 245.71 211.14
  C 247.40 211.16 248.24 209.44 250.12 210.78
  Q 250.51 211.06 250.99 211.11
  Q 251.74 211.19 252.17 210.59
  Q 252.42 210.22 252.77 210.50
  L 254.57 211.95
  A 0.37 0.36 6.5 0 0 255.13 211.51
  Q 254.89 211.03 254.53 210.84
  Q 253.68 210.39 254.62 210.24
  Q 256.56 209.91 257.08 211.49
  Q 257.27 212.10 257.78 211.71
  Q 259.21 210.62 260.10 211.70
  Q 260.42 212.10 260.93 212.11
  L 264.14 212.15
  Q 264.64 212.15 264.86 211.70
  L 266.21 208.98
  Z" fill="#1cdac3"></path>
<path d="M 173.79 213.60
  L 173.08 214.61
  Q 165.41 218.71 158.80 213.72
  L 158.13 212.73
  Q 156.31 210.81 155.92 207.87
  Q 163.13 207.25 168.95 209.30
  Q 170.96 210.01 172.60 212.23
  Q 172.81 212.52 173.04 212.59
  Q 173.19 212.63 173.33 212.64
  Q 173.60 212.65 173.61 212.92
  Q 173.61 213.26 173.79 213.60
  Z" fill="#fb4f55"></path>
<path d="M 130.01 213.64
  Q 129.66 214.30 129.43 214.45
  Q 122.66 218.87 115.82 214.31
  Q 113.08 212.10 112.02 208.57
  Q 112.18 207.98 111.95 208.05
  C 118.68 207.80 126.15 207.14 130.01 213.64
  Z" fill="#fb4f55"></path>
<path d="M 158.13 212.73
  L 158.80 213.72
  L 158.79 231.71
  Q 152.90 235.12 151.81 241.51
  L 137.02 241.51
  Q 136.33 235.40 130.56 231.91
  L 130.46 213.47
  L 132.82 209.98
  Q 134.11 211.41 135.02 211.44
  Q 135.40 211.45 135.72 211.67
  C 137.08 212.62 138.06 211.77 139.45 212.17
  A 0.66 0.65 15.4 0 1 139.90 212.95
  Q 139.81 213.37 139.99 213.73
  A 0.42 0.42 0.0 0 0 140.70 213.79
  C 141.99 212.12 143.94 214.09 145.28 212.44
  Q 145.72 211.88 145.67 212.49
  Q 145.61 213.06 145.89 213.51
  A 1.24 1.24 0.0 0 0 146.95 214.11
  L 152.17 214.11
  Q 152.62 214.11 152.95 214.43
  L 153.27 214.76
  Q 153.60 215.09 153.97 214.81
  Q 154.66 214.29 155.57 214.36
  Q 155.98 214.39 156.31 214.63
  Q 156.94 215.08 157.69 214.69
  Q 158.18 214.43 158.01 213.90
  Q 157.79 213.22 158.13 212.73
  Z" fill="#1cdac3"></path>
<path d="M 130.46 213.47
  L 130.56 231.91
  Q 123.39 230.56 115.76 231.65
  L 115.82 214.31
  Q 122.66 218.87 129.43 214.45
  Q 129.66 214.30 130.01 213.64
  Q 129.60 214.45 130.46 213.47
  Z" fill="#2a445b"></path>
<path d="M 158.80 213.72
  Q 165.41 218.71 173.08 214.61
  L 173.27 231.58
  Q 166.24 230.73 158.79 231.71
  L 158.80 213.72
  Z" fill="#2a445b"></path>
<path d="M 130.56 231.91
  Q 136.33 235.40 137.02 241.51
  L 136.76 246.01
  A 0.79 0.79 0.0 0 1 135.97 246.76
  L 109.20 246.76
  Q 108.58 246.76 108.53 246.13
  L 108.20 241.48
  Q 109.04 234.67 115.76 231.65
  Q 123.39 230.56 130.56 231.91
  Z" fill="#f86571"></path>
<path d="M 173.27 231.58
  Q 180.26 233.99 181.26 241.54
  L 180.93 245.78
  A 1.29 1.29 0.0 0 1 179.64 246.97
  L 152.28 247.04
  Q 151.77 247.05 151.77 246.53
  L 151.81 241.51
  Q 152.90 235.12 158.79 231.71
  Q 166.24 230.73 173.27 231.58
  Z" fill="#f86571"></path>
<path d="M 94.38 268.89
  C 87.72 276.04 80.91 283.08 74.13 290.14
  C 71.34 293.05 58.24 292.02 55.75 291.36
  C 50.93 290.09 51.19 285.32 54.41 282.41
  Q 66.31 271.67 78.38 261.12
  C 80.41 259.34 82.00 259.48 84.52 259.35
  C 89.88 259.06 96.63 258.62 96.58 265.25
  Q 96.57 266.54 94.38 268.89
  Z" fill="#914b4d"></path>
<path d="M 202.42 288.39
  C 201.09 293.42 186.57 292.30 183.25 291.58
  C 180.78 291.05 179.26 289.23 177.91 286.89
  Q 171.97 276.60 165.81 266.32
  A 2.96 2.96 0.0 0 1 165.39 264.63
  C 165.61 260.88 168.38 259.52 171.90 259.28
  C 176.27 258.98 181.25 258.34 184.33 261.92
  Q 193.07 272.07 201.27 282.68
  Q 203.26 285.24 202.42 288.39
  Z" fill="#dd8756"></path>
<path d="M 235.12 291.62
  C 229.88 292.22 221.04 293.27 217.06 288.95
  Q 207.34 278.40 197.75 267.74
  C 194.13 263.72 198.59 259.53 202.69 259.34
  C 207.57 259.11 211.83 258.70 214.97 261.53
  Q 225.95 271.42 236.97 281.27
  C 238.65 282.77 240.20 284.49 240.07 286.88
  Q 239.85 291.07 235.12 291.62
  Z" fill="#f55c08"></path>
<path d="M 114.82 285.51
  L 114.83 284.72
  Q 114.84 283.90 114.21 284.43
  L 113.67 284.89
  Q 113.30 285.20 112.84 285.03
  Q 111.82 284.64 110.77 285.01
  Q 110.30 285.17 109.81 285.11
  Q 106.09 284.61 102.34 284.65
  Q 101.12 284.67 98.25 284.08
  Q 96.03 283.63 93.78 284.28
  Q 93.44 284.38 93.27 284.07
  L 93.09 283.73
  Q 92.78 283.17 92.68 283.80
  Q 92.57 284.50 91.89 284.65
  A 1.02 1.01 -80.6 0 0 91.21 285.14
  Q 89.85 287.43 91.50 290.91
  Q 86.71 287.10 90.36 282.85
  Q 98.14 273.79 105.90 264.67
  Q 108.31 261.84 111.38 259.78
  Q 111.80 259.49 112.31 259.48
  C 116.94 259.35 132.87 257.72 125.70 268.49
  Q 120.11 276.88 114.82 285.51
  Z" fill="#3578eb"></path>
<path d="M 158.52 285.00
  L 157.55 283.98
  Q 157.24 283.65 156.79 283.66
  L 134.18 284.22
  Q 134.50 274.78 136.45 263.68
  Q 137.15 259.65 141.24 259.55
  Q 146.63 259.42 151.99 259.58
  Q 155.92 259.70 156.82 263.49
  Q 158.15 269.07 158.52 285.00
  Z" fill="#f86571"></path>
<path d="M 114.82 285.51
  C 112.98 288.48 112.17 290.74 107.96 291.44
  Q 98.94 292.96 91.50 290.91
  Q 89.85 287.43 91.21 285.14
  A 1.02 1.01 -80.6 0 1 91.89 284.65
  Q 92.57 284.50 92.68 283.80
  Q 92.78 283.17 93.09 283.73
  L 93.27 284.07
  Q 93.44 284.38 93.78 284.28
  Q 96.03 283.63 98.25 284.08
  Q 101.12 284.67 102.34 284.65
  Q 106.09 284.61 109.81 285.11
  Q 110.30 285.17 110.77 285.01
  Q 111.82 284.64 112.84 285.03
  Q 113.30 285.20 113.67 284.89
  L 114.21 284.43
  Q 114.84 283.90 114.83 284.72
  L 114.82 285.51
  Z" fill="#1d5de2"></path>
<path d="M 158.52 285.00
  C 159.47 292.61 149.88 292.38 144.47 292.09
  C 138.87 291.80 133.66 291.60 134.18 284.22
  L 156.79 283.66
  Q 157.24 283.65 157.55 283.98
  L 158.52 285.00
  Z" fill="#fb4f55"></path>
</svg>
