<svg viewBox="0.00 0.00 192.00 192.00" version="1.1" xmlns="http://www.w3.org/2000/svg">
<path d="M 0.00 52.50
  C 5.54 52.49 12.01 52.05 16.94 53.25
  C 26.91 55.68 35.11 63.67 37.51 73.76
  Q 38.26 76.94 38.26 84.31
  Q 38.26 98.28 38.28 112.25
  C 38.29 124.82 29.22 135.30 17.77 138.51
  C 12.49 140.00 5.85 139.56 0.00 139.45
  L 0.00 132.59
  C 9.47 132.36 17.31 133.76 24.92 126.66
  C 30.23 121.72 31.28 116.01 31.32 108.30
  Q 31.38 94.52 31.39 80.75
  C 31.40 71.42 25.45 63.11 16.58 60.41
  C 11.93 58.99 5.40 59.45 0.00 59.41
  L 0.00 52.50
  Z" fill="#000000"></path>
<path d="M 139.19 111.63
  A 27.87 27.87 0.0 0 1 111.32 139.50
  L 80.04 139.50
  A 27.87 27.87 0.0 0 1 52.17 111.63
  L 52.17 80.37
  A 27.87 27.87 0.0 0 1 80.04 52.50
  L 111.32 52.50
  A 27.87 27.87 0.0 0 1 139.19 80.37
  L 139.19 111.63
  Z
  M 132.24 80.34
  A 20.86 20.86 0.0 0 0 111.38 59.48
  L 80.04 59.48
  A 20.86 20.86 0.0 0 0 59.18 80.34
  L 59.18 111.66
  A 20.86 20.86 0.0 0 0 80.04 132.52
  L 111.38 132.52
  A 20.86 20.86 0.0 0 0 132.24 111.66
  L 132.24 80.34
  Z" fill="#000000"></path>
<path d="M 171.87 61.73
  C 161.23 67.07 160.02 74.60 160.02 86.56
  Q 160.02 94.69 159.98 102.82
  Q 159.94 114.71 161.46 119.02
  Q 164.71 128.17 174.58 131.46
  C 179.35 133.05 185.40 132.54 190.69 132.53
  A 0.69 0.69 0.0 0 1 191.38 133.23
  L 191.31 138.78
  Q 191.30 139.49 190.59 139.50
  C 185.49 139.54 179.47 139.86 174.85 138.83
  C 161.97 135.94 153.04 124.55 153.01 111.25
  Q 152.95 87.49 153.05 80.00
  C 153.22 67.30 161.86 56.59 174.04 53.40
  C 179.02 52.10 185.27 52.42 190.70 52.53
  Q 191.38 52.54 191.37 53.22
  L 191.32 58.78
  Q 191.31 59.49 190.60 59.48
  C 184.35 59.46 178.05 58.63 171.87 61.73
  Z" fill="#000000"></path>
<path d="M 103.67 88.65
  L 118.05 94.88
  A 1.22 1.22 0.0 0 1 118.05 97.12
  L 103.67 103.35
  A 1.22 1.22 0.0 0 0 103.04 103.98
  L 96.81 118.36
  A 1.22 1.22 0.0 0 1 94.57 118.36
  L 88.34 103.98
  A 1.22 1.22 0.0 0 0 87.71 103.35
  L 73.33 97.12
  A 1.22 1.22 0.0 0 1 73.33 94.88
  L 87.71 88.65
  A 1.22 1.22 0.0 0 0 88.34 88.02
  L 94.57 73.64
  A 1.22 1.22 0.0 0 1 96.81 73.64
  L 103.04 88.02
  A 1.22 1.22 0.0 0 0 103.67 88.65
  Z" fill="#000000"></path>
</svg>
