<svg viewBox="0.00 0.00 152.00 152.00" version="1.1" xmlns="http://www.w3.org/2000/svg">
<g stroke-linecap="butt" fill="none" stroke-width="2.00">
<path d="M 105.9900 32.4617
  A 6.69 6.42 0.1 0 0 99.3112 26.0300
  A 6.69 6.42 0.1 0 0 92.6100 32.4383
  A 6.69 6.42 0.1 0 0 99.2888 38.8700
  A 6.69 6.42 0.1 0 0 105.9900 32.4617" stroke="#8ecdf8"></path>
<path d="M 72.27 78.86
  Q 71.95 84.99 77.48 85.77
  C 82.44 86.47 84.24 82.72 84.25 78.26
  Q 84.27 63.73 84.23 49.21
  C 84.22 40.01 72.03 41.31 72.29 48.14
  Q 72.33 49.11 71.70 48.38
  C 66.27 42.12 57.57 40.92 49.91 43.43
  C 35.94 48.01 32.30 65.58 39.56 76.94
  C 44.83 85.17 55.64 87.97 64.76 84.70
  Q 69.45 83.02 71.91 78.75
  Q 72.31 78.07 72.27 78.86" stroke="#8ecdf8"></path>
<path d="M 105.25 48.16
  A 5.64 5.64 0.0 0 0 99.61 42.52
  L 99.01 42.52
  A 5.64 5.64 0.0 0 0 93.37 48.16
  L 93.37 80.10
  A 5.64 5.64 0.0 0 0 99.01 85.74
  L 99.61 85.74
  A 5.64 5.64 0.0 0 0 105.25 80.10
  L 105.25 48.16" stroke="#8ecdf8"></path>
<path d="M 72.2988 63.9895
  A 12.21 11.70 -0.8 0 0 59.9266 52.4611
  A 12.21 11.70 -0.8 0 0 47.8812 64.3305
  A 12.21 11.70 -0.8 0 0 60.2534 75.8589
  A 12.21 11.70 -0.8 0 0 72.2988 63.9895" stroke="#8ecdf8"></path>
</g>
<path d="M 61.89 116.70
  Q 49.89 116.93 46.49 116.30
  C 23.18 111.96 6.80 92.57 6.04 69.00
  C 5.87 63.63 5.71 55.11 6.44 49.36
  C 8.94 29.47 23.17 11.29 43.36 7.03
  Q 48.23 6.00 59.22 6.00
  Q 79.99 6.00 100.75 6.00
  Q 108.18 6.01 115.93 9.28
  C 132.44 16.26 143.24 31.57 145.55 49.28
  C 146.31 55.11 146.00 61.91 145.78 68.24
  Q 145.10 88.20 132.42 101.85
  Q 128.31 106.27 118.12 112.96
  Q 93.46 129.16 68.79 145.30
  C 66.49 146.81 63.92 145.67 62.95 143.45
  Q 62.49 142.41 62.50 139.47
  Q 62.55 128.38 62.48 117.27
  Q 62.47 116.69 61.89 116.70
  Z
  M 105.9900 32.4617
  A 6.69 6.42 0.1 0 0 99.3112 26.0300
  A 6.69 6.42 0.1 0 0 92.6100 32.4383
  A 6.69 6.42 0.1 0 0 99.2888 38.8700
  A 6.69 6.42 0.1 0 0 105.9900 32.4617
  Z
  M 72.27 78.86
  Q 71.95 84.99 77.48 85.77
  C 82.44 86.47 84.24 82.72 84.25 78.26
  Q 84.27 63.73 84.23 49.21
  C 84.22 40.01 72.03 41.31 72.29 48.14
  Q 72.33 49.11 71.70 48.38
  C 66.27 42.12 57.57 40.92 49.91 43.43
  C 35.94 48.01 32.30 65.58 39.56 76.94
  C 44.83 85.17 55.64 87.97 64.76 84.70
  Q 69.45 83.02 71.91 78.75
  Q 72.31 78.07 72.27 78.86
  Z
  M 105.25 48.16
  A 5.64 5.64 0.0 0 0 99.61 42.52
  L 99.01 42.52
  A 5.64 5.64 0.0 0 0 93.37 48.16
  L 93.37 80.10
  A 5.64 5.64 0.0 0 0 99.01 85.74
  L 99.61 85.74
  A 5.64 5.64 0.0 0 0 105.25 80.10
  L 105.25 48.16
  Z" fill="#1d9bf0"></path>
<ellipse ry="6.42" rx="6.69" transform="translate(99.30,32.45) rotate(0.1)" cy="0.00" cx="0.00" fill="#ffffff"></ellipse>
<path d="M 71.91 78.75
  Q 69.45 83.02 64.76 84.70
  C 55.64 87.97 44.83 85.17 39.56 76.94
  C 32.30 65.58 35.94 48.01 49.91 43.43
  C 57.57 40.92 66.27 42.12 71.70 48.38
  Q 72.33 49.11 72.29 48.14
  C 72.03 41.31 84.22 40.01 84.23 49.21
  Q 84.27 63.73 84.25 78.26
  C 84.24 82.72 82.44 86.47 77.48 85.77
  Q 71.95 84.99 72.27 78.86
  Q 72.31 78.07 71.91 78.75
  Z
  M 72.2988 63.9895
  A 12.21 11.70 -0.8 0 0 59.9266 52.4611
  A 12.21 11.70 -0.8 0 0 47.8812 64.3305
  A 12.21 11.70 -0.8 0 0 60.2534 75.8589
  A 12.21 11.70 -0.8 0 0 72.2988 63.9895
  Z" fill="#ffffff"></path>
<rect rx="5.64" height="43.22" width="11.88" y="42.52" x="93.37" fill="#ffffff"></rect>
<ellipse ry="11.70" rx="12.21" transform="translate(60.09,64.16) rotate(-0.8)" cy="0.00" cx="0.00" fill="#1d9bf0"></ellipse>
</svg>
