<svg viewBox="0.00 0.00 48.00 48.00" version="1.1" xmlns="http://www.w3.org/2000/svg">
<g stroke-linecap="butt" fill="none" stroke-width="2.00">
<path d="M 1.87 0.00
  L 0.00 1.78" stroke-opacity="0.580" stroke="#e1e1e1"></path>
<path d="M 46.22 0.00
  L 48.00 1.87" stroke-opacity="0.580" stroke="#e1e1e1"></path>
<path d="M 48.00 46.23
  L 46.13 48.00" stroke-opacity="0.580" stroke="#e1e1e1"></path>
<path d="M 1.77 48.00
  L 0.00 46.12" stroke-opacity="0.580" stroke="#e1e1e1"></path>
<path d="M 29.08 14.02
  L 32.91 17.08" stroke="#e6cbeb"></path>
<path d="M 32.91 17.08
  C 33.97 18.36 34.55 20.31 33.88 21.93
  Q 33.74 22.26 33.66 21.91
  Q 33.13 19.62 31.30 17.71" stroke="#cba8d6"></path>
<path d="M 31.30 17.71
  Q 29.90 15.38 25.71 16.27
  Q 25.63 16.29 25.63 16.37
  Q 25.63 16.51 25.62 16.65
  Q 25.61 16.87 25.40 16.89
  C 23.66 17.10 22.43 17.24 20.84 18.26
  Q 19.53 19.10 18.04 19.46" stroke="#f4f0f4"></path>
<path d="M 18.04 19.46
  Q 19.30 16.86 21.38 15.94
  Q 21.74 15.79 21.74 15.40
  Q 21.74 15.22 21.64 15.09
  Q 21.49 14.89 21.08 14.86
  Q 14.42 14.44 11.39 19.17" stroke="#c7a4e1"></path>
<path d="M 11.39 19.17
  L 9.04 22.22" stroke="#aa96bb"></path>
<path d="M 9.04 22.22
  C 7.72 28.82 12.32 35.35 18.28 37.97" stroke="#cba8d6"></path>
<path d="M 18.28 37.97
  Q 18.25 38.62 18.00 38.99
  Q 17.78 39.33 17.12 39.35
  Q 12.77 39.49 9.67 41.07
  Q 7.43 42.22 9.83 42.98
  C 12.28 43.75 14.78 44.57 17.47 44.69
  C 26.40 45.12 32.69 44.32 43.82 42.95
  Q 44.39 42.88 44.38 42.31
  L 44.38 42.04
  Q 44.38 41.50 43.91 41.21
  Q 42.92 40.61 42.84 40.97
  Q 42.69 41.69 41.97 41.57
  C 40.65 41.34 39.67 40.43 38.59 40.09
  Q 35.75 39.19 32.72 39.02
  A 0.53 0.53 0.0 0 1 32.24 38.35
  L 32.53 37.33" stroke="#f4f0f4"></path>
<path d="M 32.53 37.33
  Q 37.43 34.68 39.71 29.63" stroke="#cba8d6"></path>
<path d="M 39.71 29.63
  Q 42.51 23.31 40.05 16.67
  Q 39.86 16.16 39.31 16.17
  Q 38.04 16.20 37.01 15.32
  A 1.01 0.04 41.2 0 1 36.32 14.67
  Q 35.69 12.79 34.13 11.15" stroke="#e6cbeb"></path>
<path d="M 34.13 11.15
  Q 31.02 9.24 27.71 7.62
  C 26.06 6.82 24.76 6.89 23.02 7.10
  Q 22.12 7.20 21.71 6.52
  Q 21.47 6.12 21.92 5.96
  Q 22.12 5.89 22.13 5.75
  Q 22.21 5.09 22.10 4.89
  Q 21.77 4.30 21.17 4.34
  Q 20.83 4.37 20.84 4.71
  Q 20.88 5.90 19.42 6.91
  Q 17.17 8.46 14.72 9.70
  Q 14.20 9.97 14.36 9.40
  Q 14.68 8.26 15.39 7.29
  Q 15.48 7.17 15.40 7.04
  Q 15.31 6.91 15.23 6.78
  Q 15.07 6.52 14.83 6.70
  Q 12.88 8.15 12.97 10.58
  Q 12.99 11.02 12.72 11.36
  L 9.67 15.17
  Q 9.39 15.52 8.98 15.72
  Q 8.35 16.03 7.91 16.58
  Q 7.43 17.18 8.20 17.21
  C 9.36 17.26 10.18 17.14 10.95 16.15
  Q 12.67 13.94 14.69 11.28
  A 1.67 1.67 0.0 0 1 17.26 11.16
  Q 17.47 11.39 17.64 11.48
  Q 18.33 11.85 18.50 11.87
  Q 20.99 12.16 23.50 11.81
  A 0.93 0.90 -36.6 0 1 23.96 11.87
  L 29.08 14.02" stroke="#f9e7f8"></path>
<path d="M 34.13 11.15
  Q 32.54 10.96 32.06 11.51
  Q 31.76 11.85 31.30 11.90
  Q 28.61 12.22 29.08 14.02" stroke="#e1b4e5"></path>
<path d="M 39.71 29.63
  Q 40.09 26.75 39.36 25.61
  A 1.91 1.80 29.3 0 1 39.08 24.71
  C 38.97 21.01 36.22 18.72 34.53 16.01
  A 0.67 0.67 0.0 0 0 33.74 15.74
  Q 32.93 16.04 32.91 17.08" stroke="#b375c3"></path>
<path d="M 32.53 37.33
  L 27.95 38.94" stroke="#c19acc"></path>
<path d="M 27.95 38.94
  Q 25.09 37.86 21.30 38.85" stroke="#b183c0"></path>
<path d="M 21.30 38.85
  L 18.28 37.97" stroke="#c19acc"></path>
<path d="M 9.04 22.22
  C 10.28 24.99 9.93 29.09 12.22 31.03
  Q 15.03 33.40 17.95 35.64
  C 20.74 37.78 25.43 36.60 28.54 36.06
  C 30.05 35.80 31.14 34.96 32.44 34.19
  A 1.36 1.34 85.6 0 0 33.02 33.50
  C 33.88 31.23 35.83 30.29 36.53 28.32
  Q 37.52 25.53 35.66 25.62" stroke="#774093"></path>
<path d="M 35.66 25.62
  L 37.22 22.11
  Q 37.33 21.87 37.09 21.76
  L 36.60 21.53
  Q 36.43 21.45 36.34 21.62
  L 34.70 24.77" stroke="#c19acc"></path>
<path d="M 34.70 24.77
  Q 34.37 22.93 32.74 23.47
  Q 31.64 23.84 31.32 24.51" stroke="#774093"></path>
<path d="M 31.32 24.51
  C 31.52 18.80 25.87 17.38 21.99 20.25" stroke="#b183c0"></path>
<path d="M 21.99 20.25
  Q 22.01 19.81 21.28 19.79" stroke="#774093"></path>
<path d="M 21.28 19.79
  Q 25.62 15.82 31.30 17.71" stroke="#c19acc"></path>
<path d="M 31.32 24.51
  C 29.24 33.78 15.13 26.91 21.99 20.25" stroke="#9071a5"></path>
<path d="M 21.30 38.85
  Q 22.33 38.82 22.26 39.68
  A 0.62 0.62 0.0 0 1 21.61 40.25
  C 19.68 40.16 16.47 39.71 14.79 40.53
  Q 13.83 41.00 13.07 41.23
  A 0.73 0.73 0.0 0 0 13.02 42.60
  Q 13.59 42.83 14.76 42.97
  Q 24.38 44.14 33.99 43.05
  Q 35.45 42.88 36.24 42.16
  Q 36.81 41.64 36.06 41.44
  Q 34.59 41.05 33.37 40.05
  A 1.34 1.32 59.4 0 0 32.31 39.77
  Q 28.82 40.38 27.95 38.94" stroke="#dacbde"></path>
<path d="M 16.23 27.72
  C 16.70 29.47 19.82 35.18 22.23 34.36
  Q 22.72 34.19 22.29 33.89
  Q 18.76 31.37 21.81 31.31" stroke="#876694"></path>
<path d="M 21.28 19.79
  Q 16.90 23.87 20.35 27.88
  C 24.30 32.49 32.20 29.79 34.70 24.77" stroke="#a088b0"></path>
<path d="M 35.66 25.62
  C 32.71 30.16 27.22 33.54 21.81 31.31" stroke="#a088b0"></path>
<path d="M 21.81 31.31
  Q 17.44 28.28 16.35 23.24" stroke="#d0c0cd"></path>
<path d="M 18.04 19.46
  Q 16.78 20.53 16.35 23.24" stroke="#bd96d7"></path>
<path d="M 16.35 23.24
  Q 15.62 25.46 16.23 27.72" stroke="#a474bb"></path>
<path d="M 16.23 27.72
  C 15.27 25.53 14.14 25.30 12.34 23.98
  A 1.17 1.16 14.9 0 1 11.87 23.18
  L 11.39 19.17" stroke="#733c9e"></path>
<path d="M 30.2387 24.3280
  A 4.42 4.29 1.4 0 0 25.9248 19.9313
  A 4.42 4.29 1.4 0 0 21.4013 24.1120
  A 4.42 4.29 1.4 0 0 25.7152 28.5087
  A 4.42 4.29 1.4 0 0 30.2387 24.3280" stroke="#a470bd"></path>
</g>
<path d="M 0.00 0.00
  L 1.87 0.00
  L 0.00 1.78
  L 0.00 0.00
  Z" fill-opacity="0.157" fill="#282727"></path>
<path d="M 1.87 0.00
  L 46.22 0.00
  L 48.00 1.87
  L 48.00 46.23
  L 46.13 48.00
  L 1.77 48.00
  L 0.00 46.12
  L 0.00 1.78
  L 1.87 0.00
  Z
  M 29.08 14.02
  L 32.91 17.08
  C 33.97 18.36 34.55 20.31 33.88 21.93
  Q 33.74 22.26 33.66 21.91
  Q 33.13 19.62 31.30 17.71
  Q 29.90 15.38 25.71 16.27
  Q 25.63 16.29 25.63 16.37
  Q 25.63 16.51 25.62 16.65
  Q 25.61 16.87 25.40 16.89
  C 23.66 17.10 22.43 17.24 20.84 18.26
  Q 19.53 19.10 18.04 19.46
  Q 19.30 16.86 21.38 15.94
  Q 21.74 15.79 21.74 15.40
  Q 21.74 15.22 21.64 15.09
  Q 21.49 14.89 21.08 14.86
  Q 14.42 14.44 11.39 19.17
  L 9.04 22.22
  C 7.72 28.82 12.32 35.35 18.28 37.97
  Q 18.25 38.62 18.00 38.99
  Q 17.78 39.33 17.12 39.35
  Q 12.77 39.49 9.67 41.07
  Q 7.43 42.22 9.83 42.98
  C 12.28 43.75 14.78 44.57 17.47 44.69
  C 26.40 45.12 32.69 44.32 43.82 42.95
  Q 44.39 42.88 44.38 42.31
  L 44.38 42.04
  Q 44.38 41.50 43.91 41.21
  Q 42.92 40.61 42.84 40.97
  Q 42.69 41.69 41.97 41.57
  C 40.65 41.34 39.67 40.43 38.59 40.09
  Q 35.75 39.19 32.72 39.02
  A 0.53 0.53 0.0 0 1 32.24 38.35
  L 32.53 37.33
  Q 37.43 34.68 39.71 29.63
  Q 42.51 23.31 40.05 16.67
  Q 39.86 16.16 39.31 16.17
  Q 38.04 16.20 37.01 15.32
  A 1.01 0.04 41.2 0 1 36.32 14.67
  Q 35.69 12.79 34.13 11.15
  Q 31.02 9.24 27.71 7.62
  C 26.06 6.82 24.76 6.89 23.02 7.10
  Q 22.12 7.20 21.71 6.52
  Q 21.47 6.12 21.92 5.96
  Q 22.12 5.89 22.13 5.75
  Q 22.21 5.09 22.10 4.89
  Q 21.77 4.30 21.17 4.34
  Q 20.83 4.37 20.84 4.71
  Q 20.88 5.90 19.42 6.91
  Q 17.17 8.46 14.72 9.70
  Q 14.20 9.97 14.36 9.40
  Q 14.68 8.26 15.39 7.29
  Q 15.48 7.17 15.40 7.04
  Q 15.31 6.91 15.23 6.78
  Q 15.07 6.52 14.83 6.70
  Q 12.88 8.15 12.97 10.58
  Q 12.99 11.02 12.72 11.36
  L 9.67 15.17
  Q 9.39 15.52 8.98 15.72
  Q 8.35 16.03 7.91 16.58
  Q 7.43 17.18 8.20 17.21
  C 9.36 17.26 10.18 17.14 10.95 16.15
  Q 12.67 13.94 14.69 11.28
  A 1.67 1.67 0.0 0 1 17.26 11.16
  Q 17.47 11.39 17.64 11.48
  Q 18.33 11.85 18.50 11.87
  Q 20.99 12.16 23.50 11.81
  A 0.93 0.90 -36.6 0 1 23.96 11.87
  L 29.08 14.02
  Z" fill="#fefefe"></path>
<path d="M 46.22 0.00
  L 48.00 0.00
  L 48.00 1.87
  L 46.22 0.00
  Z" fill-opacity="0.157" fill="#282727"></path>
<path d="M 34.13 11.15
  Q 32.54 10.96 32.06 11.51
  Q 31.76 11.85 31.30 11.90
  Q 28.61 12.22 29.08 14.02
  L 23.96 11.87
  A 0.93 0.90 -36.6 0 0 23.50 11.81
  Q 20.99 12.16 18.50 11.87
  Q 18.33 11.85 17.64 11.48
  Q 17.47 11.39 17.26 11.16
  A 1.67 1.67 0.0 0 0 14.69 11.28
  Q 12.67 13.94 10.95 16.15
  C 10.18 17.14 9.36 17.26 8.20 17.21
  Q 7.43 17.18 7.91 16.58
  Q 8.35 16.03 8.98 15.72
  Q 9.39 15.52 9.67 15.17
  L 12.72 11.36
  Q 12.99 11.02 12.97 10.58
  Q 12.88 8.15 14.83 6.70
  Q 15.07 6.52 15.23 6.78
  Q 15.31 6.91 15.40 7.04
  Q 15.48 7.17 15.39 7.29
  Q 14.68 8.26 14.36 9.40
  Q 14.20 9.97 14.72 9.70
  Q 17.17 8.46 19.42 6.91
  Q 20.88 5.90 20.84 4.71
  Q 20.83 4.37 21.17 4.34
  Q 21.77 4.30 22.10 4.89
  Q 22.21 5.09 22.13 5.75
  Q 22.12 5.89 21.92 5.96
  Q 21.47 6.12 21.71 6.52
  Q 22.12 7.20 23.02 7.10
  C 24.76 6.89 26.06 6.82 27.71 7.62
  Q 31.02 9.24 34.13 11.15
  Z" fill="#f4cff1"></path>
<path d="M 34.13 11.15
  Q 35.69 12.79 36.32 14.67
  A 1.01 0.04 41.2 0 0 37.01 15.32
  Q 38.04 16.20 39.31 16.17
  Q 39.86 16.16 40.05 16.67
  Q 42.51 23.31 39.71 29.63
  Q 40.09 26.75 39.36 25.61
  A 1.91 1.80 29.3 0 1 39.08 24.71
  C 38.97 21.01 36.22 18.72 34.53 16.01
  A 0.67 0.67 0.0 0 0 33.74 15.74
  Q 32.93 16.04 32.91 17.08
  L 29.08 14.02
  Q 28.61 12.22 31.30 11.90
  Q 31.76 11.85 32.06 11.51
  Q 32.54 10.96 34.13 11.15
  Z" fill="#cd98d8"></path>
<path d="M 18.04 19.46
  Q 16.78 20.53 16.35 23.24
  Q 15.62 25.46 16.23 27.72
  C 15.27 25.53 14.14 25.30 12.34 23.98
  A 1.17 1.16 14.9 0 1 11.87 23.18
  L 11.39 19.17
  Q 14.42 14.44 21.08 14.86
  Q 21.49 14.89 21.64 15.09
  Q 21.74 15.22 21.74 15.40
  Q 21.74 15.79 21.38 15.94
  Q 19.30 16.86 18.04 19.46
  Z" fill="#9049c4"></path>
<path d="M 39.71 29.63
  Q 37.43 34.68 32.53 37.33
  L 27.95 38.94
  Q 25.09 37.86 21.30 38.85
  L 18.28 37.97
  C 12.32 35.35 7.72 28.82 9.04 22.22
  C 10.28 24.99 9.93 29.09 12.22 31.03
  Q 15.03 33.40 17.95 35.64
  C 20.74 37.78 25.43 36.60 28.54 36.06
  C 30.05 35.80 31.14 34.96 32.44 34.19
  A 1.36 1.34 85.6 0 0 33.02 33.50
  C 33.88 31.23 35.83 30.29 36.53 28.32
  Q 37.52 25.53 35.66 25.62
  L 37.22 22.11
  Q 37.33 21.87 37.09 21.76
  L 36.60 21.53
  Q 36.43 21.45 36.34 21.62
  L 34.70 24.77
  Q 34.37 22.93 32.74 23.47
  Q 31.64 23.84 31.32 24.51
  C 31.52 18.80 25.87 17.38 21.99 20.25
  Q 22.01 19.81 21.28 19.79
  Q 25.62 15.82 31.30 17.71
  Q 33.13 19.62 33.66 21.91
  Q 33.74 22.26 33.88 21.93
  C 34.55 20.31 33.97 18.36 32.91 17.08
  Q 32.93 16.04 33.74 15.74
  A 0.67 0.67 0.0 0 1 34.53 16.01
  C 36.22 18.72 38.97 21.01 39.08 24.71
  A 1.91 1.80 29.3 0 0 39.36 25.61
  Q 40.09 26.75 39.71 29.63
  Z" fill="#9851ae"></path>
<path d="M 31.30 17.71
  Q 25.62 15.82 21.28 19.79
  Q 16.90 23.87 20.35 27.88
  C 24.30 32.49 32.20 29.79 34.70 24.77
  L 36.34 21.62
  Q 36.43 21.45 36.60 21.53
  L 37.09 21.76
  Q 37.33 21.87 37.22 22.11
  L 35.66 25.62
  C 32.71 30.16 27.22 33.54 21.81 31.31
  Q 17.44 28.28 16.35 23.24
  Q 16.78 20.53 18.04 19.46
  Q 19.53 19.10 20.84 18.26
  C 22.43 17.24 23.66 17.10 25.40 16.89
  Q 25.61 16.87 25.62 16.65
  Q 25.63 16.51 25.63 16.37
  Q 25.63 16.29 25.71 16.27
  Q 29.90 15.38 31.30 17.71
  Z" fill="#e9e2e9"></path>
<path d="M 31.32 24.51
  C 29.24 33.78 15.13 26.91 21.99 20.25
  C 25.87 17.38 31.52 18.80 31.32 24.51
  Z
  M 30.2387 24.3280
  A 4.42 4.29 1.4 0 0 25.9248 19.9313
  A 4.42 4.29 1.4 0 0 21.4013 24.1120
  A 4.42 4.29 1.4 0 0 25.7152 28.5087
  A 4.42 4.29 1.4 0 0 30.2387 24.3280
  Z" fill="#cab4d2"></path>
<path d="M 11.39 19.17
  L 11.87 23.18
  A 1.17 1.16 14.9 0 0 12.34 23.98
  C 14.14 25.30 15.27 25.53 16.23 27.72
  C 16.70 29.47 19.82 35.18 22.23 34.36
  Q 22.72 34.19 22.29 33.89
  Q 18.76 31.37 21.81 31.31
  C 27.22 33.54 32.71 30.16 35.66 25.62
  Q 37.52 25.53 36.53 28.32
  C 35.83 30.29 33.88 31.23 33.02 33.50
  A 1.36 1.34 85.6 0 1 32.44 34.19
  C 31.14 34.96 30.05 35.80 28.54 36.06
  C 25.43 36.60 20.74 37.78 17.95 35.64
  Q 15.03 33.40 12.22 31.03
  C 9.93 29.09 10.28 24.99 9.04 22.22
  L 11.39 19.17
  Z" fill="#562e77"></path>
<path d="M 21.28 19.79
  Q 22.01 19.81 21.99 20.25
  C 15.13 26.91 29.24 33.78 31.32 24.51
  Q 31.64 23.84 32.74 23.47
  Q 34.37 22.93 34.70 24.77
  C 32.20 29.79 24.30 32.49 20.35 27.88
  Q 16.90 23.87 21.28 19.79
  Z" fill="#562e77"></path>
<ellipse ry="4.29" rx="4.42" transform="translate(25.82,24.22) rotate(1.4)" cy="0.00" cx="0.00" fill="#7d2ca7"></ellipse>
<path d="M 16.35 23.24
  Q 17.44 28.28 21.81 31.31
  Q 18.76 31.37 22.29 33.89
  Q 22.72 34.19 22.23 34.36
  C 19.82 35.18 16.70 29.47 16.23 27.72
  Q 15.62 25.46 16.35 23.24
  Z" fill="#b79eb1"></path>
<path d="M 32.53 37.33
  L 32.24 38.35
  A 0.53 0.53 0.0 0 0 32.72 39.02
  Q 35.75 39.19 38.59 40.09
  C 39.67 40.43 40.65 41.34 41.97 41.57
  Q 42.69 41.69 42.84 40.97
  Q 42.92 40.61 43.91 41.21
  Q 44.38 41.50 44.38 42.04
  L 44.38 42.31
  Q 44.39 42.88 43.82 42.95
  C 32.69 44.32 26.40 45.12 17.47 44.69
  C 14.78 44.57 12.28 43.75 9.83 42.98
  Q 7.43 42.22 9.67 41.07
  Q 12.77 39.49 17.12 39.35
  Q 17.78 39.33 18.00 38.99
  Q 18.25 38.62 18.28 37.97
  L 21.30 38.85
  Q 22.33 38.82 22.26 39.68
  A 0.62 0.62 0.0 0 1 21.61 40.25
  C 19.68 40.16 16.47 39.71 14.79 40.53
  Q 13.83 41.00 13.07 41.23
  A 0.73 0.73 0.0 0 0 13.02 42.60
  Q 13.59 42.83 14.76 42.97
  Q 24.38 44.14 33.99 43.05
  Q 35.45 42.88 36.24 42.16
  Q 36.81 41.64 36.06 41.44
  Q 34.59 41.05 33.37 40.05
  A 1.34 1.32 59.4 0 0 32.31 39.77
  Q 28.82 40.38 27.95 38.94
  L 32.53 37.33
  Z" fill="#e9e2e9"></path>
<path d="M 27.95 38.94
  Q 28.82 40.38 32.31 39.77
  A 1.34 1.32 59.4 0 1 33.37 40.05
  Q 34.59 41.05 36.06 41.44
  Q 36.81 41.64 36.24 42.16
  Q 35.45 42.88 33.99 43.05
  Q 24.38 44.14 14.76 42.97
  Q 13.59 42.83 13.02 42.60
  A 0.73 0.73 0.0 0 1 13.07 41.23
  Q 13.83 41.00 14.79 40.53
  C 16.47 39.71 19.68 40.16 21.61 40.25
  A 0.62 0.62 0.0 0 0 22.26 39.68
  Q 22.33 38.82 21.30 38.85
  Q 25.09 37.86 27.95 38.94
  Z" fill="#cab4d2"></path>
<path d="M 0.00 46.12
  L 1.77 48.00
  L 0.00 48.00
  L 0.00 46.12
  Z" fill-opacity="0.157" fill="#282727"></path>
<path d="M 48.00 46.23
  L 48.00 48.00
  L 46.13 48.00
  L 48.00 46.23
  Z" fill-opacity="0.157" fill="#282727"></path>
</svg>
