<svg viewBox="0.00 0.00 24.00 24.00" version="1.1" xmlns="http://www.w3.org/2000/svg">
<g stroke-linecap="butt" fill="none" stroke-width="2.00">
<path d="M 4.25 4.14
  Q 2.95 3.61 0.98 0.99" stroke="#80e756"></path>
<path d="M 22.43 23.15
  Q 22.71 20.94 20.25 19.94" stroke="#74e963"></path>
</g>
<path d="M 4.25 4.14
  Q 2.95 3.61 0.98 0.99
  Q 5.76 0.75 10.49 3.12
  Q 11.03 3.39 10.59 3.80
  L 9.20 5.12
  Q 8.79 5.51 8.26 5.35
  L 4.25 4.14
  Z" fill="#a6df39"></path>
<path d="M 19.48 4.17
  L 16.40 5.24
  Q 15.69 5.48 15.15 4.97
  L 13.81 3.71
  Q 13.32 3.24 13.96 3.02
  L 20.50 0.77
  A 2.32 2.32 0.0 0 1 23.44 3.74
  L 21.02 10.53
  A 0.18 0.17 32.4 0 1 20.73 10.59
  L 18.96 8.82
  Q 18.76 8.61 18.85 8.33
  L 20.04 4.73
  Q 20.32 3.88 19.48 4.17
  Z" fill="#e4d809"></path>
<path d="M 0.98 0.99
  Q 2.95 3.61 4.25 4.14
  L 5.60 8.08
  A 0.86 0.84 58.9 0 1 5.39 8.96
  L 4.05 10.28
  Q 3.67 10.65 3.42 10.17
  Q 1.33 6.15 0.98 0.99
  Z" fill="#59ee73"></path>
<path d="M 4.95 19.57
  Q 6.83 19.33 8.54 18.47
  Q 8.80 18.33 9.01 18.54
  L 10.96 20.49
  A 0.16 0.16 0.0 0 1 10.90 20.75
  L 3.82 23.12
  A 2.23 2.23 0.0 0 1 1.00 20.28
  L 3.27 13.72
  Q 3.50 13.06 4.00 13.55
  L 5.23 14.76
  Q 5.77 15.30 5.53 16.01
  L 4.49 19.01
  Q 4.27 19.66 4.95 19.57
  Z" fill="#29eda1"></path>
<path d="M 22.43 23.15
  Q 22.71 20.94 20.25 19.94
  L 18.79 15.66
  Q 18.69 15.38 18.90 15.16
  L 20.71 13.28
  A 0.18 0.17 56.4 0 1 21.00 13.34
  Q 22.43 16.99 23.56 20.74
  Q 23.84 21.66 22.43 23.15
  Z" fill="#a6df39"></path>
<path d="M 20.25 19.94
  Q 22.71 20.94 22.43 23.15
  L 13.94 20.80
  Q 13.37 20.64 13.79 20.23
  L 15.25 18.83
  Q 15.66 18.43 16.19 18.61
  L 20.25 19.94
  Z" fill="#41f28c"></path>
</svg>
