<svg viewBox="0.00 0.00 128.00 128.00" version="1.1" xmlns="http://www.w3.org/2000/svg">
<path d="M 33.21 63.37
  L 25.00 47.43
  A 0.34 0.34 0.0 0 1 24.99 47.13
  L 38.91 16.89
  A 0.34 0.34 0.0 0 1 39.52 16.88
  L 85.17 107.05
  A 0.34 0.34 0.0 0 1 84.86 107.55
  L 68.45 107.50
  A 0.34 0.34 0.0 0 1 68.15 107.31
  L 40.30 51.63
  A 0.34 0.34 0.0 0 0 39.70 51.63
  L 33.82 63.36
  A 0.34 0.34 0.0 0 1 33.21 63.37
  Z" fill="#027bfb"></path>
<path d="M 103.05 84.50
  A 0.32 0.32 0.0 0 0 102.82 84.96
  L 113.94 106.92
  A 0.41 0.41 0.0 0 1 113.57 107.52
  L 100.09 107.52
  A 1.57 1.55 76.0 0 1 98.71 106.68
  L 87.74 85.42
  Q 87.46 84.90 86.87 84.90
  L 80.94 84.93
  Q 80.40 84.93 80.17 84.44
  L 74.53 72.48
  Q 74.32 72.02 74.82 72.02
  Q 92.42 71.92 97.75 71.73
  C 102.90 71.54 107.17 68.72 105.99 62.99
  C 104.86 57.53 97.89 57.47 93.50 57.56
  Q 80.41 57.83 67.31 57.73
  Q 66.85 57.73 66.64 57.31
  L 59.47 43.27
  Q 59.23 42.79 59.77 42.78
  Q 87.25 42.67 96.75 42.77
  Q 101.17 42.82 106.21 44.61
  Q 119.33 49.25 120.25 63.28
  Q 120.81 71.93 114.89 78.14
  Q 109.96 83.31 103.05 84.50
  Z" fill="#027bfb"></path>
<path d="M 8.44 82.67
  L 21.98 54.27
  A 0.35 0.35 0.0 0 1 22.61 54.26
  L 36.85 82.32
  A 0.35 0.35 0.0 0 1 36.54 82.83
  L 8.76 83.17
  A 0.35 0.35 0.0 0 1 8.44 82.67
  Z" fill="#027bfb"></path>
</svg>
