<svg viewBox="0.00 0.00 256.00 256.00" version="1.1" xmlns="http://www.w3.org/2000/svg">
<g stroke-linecap="butt" fill="none" stroke-width="2.00">
<path d="M 134.50 57.12
  Q 134.51 55.51 135.90 56.32
  L 178.02 80.93
  A 1.18 1.17 -44.6 0 0 179.21 80.93
  L 195.31 71.50
  A 0.87 0.87 0.0 0 0 195.31 70.00
  Q 166.14 52.93 137.35 35.92
  C 132.24 32.90 128.29 32.00 123.25 34.97
  Q 93.38 52.52 64.09 69.46
  Q 62.78 70.21 64.08 70.98
  L 80.10 80.38
  A 1.22 1.19 44.8 0 0 81.33 80.39
  L 123.44 56.09
  A 0.74 0.73 -15.0 0 1 124.54 56.72
  Q 124.48 80.12 124.43 103.76
  C 124.42 111.49 134.55 111.39 134.53 103.25
  Q 134.47 79.80 134.50 57.12" stroke="#858091"></path>
<path d="M 119.79 134.74
  A 1.51 1.49 -75.2 0 1 120.53 136.04
  L 120.51 220.25
  Q 120.51 221.08 121.14 221.63
  C 127.13 226.82 132.68 226.52 138.59 221.40
  Q 138.99 221.06 138.99 220.54
  L 138.99 136.34
  A 1.94 1.94 0.0 0 1 139.96 134.66
  L 212.90 92.15
  A 2.58 2.58 0.0 0 0 214.18 89.94
  C 214.21 86.88 214.39 83.54 212.28 81.02
  Q 210.01 78.33 206.87 76.53
  Q 205.34 75.66 203.49 76.74
  Q 166.85 98.08 130.73 119.15
  Q 129.82 119.68 128.92 119.15
  L 54.78 75.74
  Q 54.41 75.52 54.02 75.71
  C 47.02 79.01 43.57 83.27 45.29 90.74
  Q 45.39 91.20 45.80 91.44
  L 119.79 134.74" stroke="#858091"></path>
<path d="M 63.15 160.04
  L 63.58 112.05
  A 2.43 2.41 -75.0 0 0 62.37 109.93
  L 46.36 100.69
  Q 45.34 100.10 45.34 101.27
  Q 45.24 137.50 44.99 172.26
  Q 44.95 177.73 49.30 180.21
  Q 80.15 197.83 111.12 215.53
  A 0.62 0.61 -74.7 0 0 112.04 215.00
  L 112.17 196.57
  A 1.68 1.68 0.0 0 0 111.33 195.10
  L 68.97 170.75
  A 0.43 0.43 0.0 0 1 68.98 170.00
  Q 88.50 158.89 108.08 147.61
  C 112.67 144.97 111.53 137.79 106.02 137.90
  Q 104.36 137.93 101.81 139.43
  Q 83.64 150.04 64.87 161.04
  Q 63.13 162.06 63.15 160.04" stroke="#858091"></path>
<path d="M 195.11 162.03
  Q 175.44 150.42 155.04 138.75
  Q 150.60 136.21 148.11 140.10
  C 145.62 144.00 147.97 146.39 151.40 148.38
  Q 169.70 158.94 188.09 169.34
  Q 188.75 169.71 189.11 169.83
  A 0.96 0.96 0.0 0 1 189.29 171.57
  L 147.88 195.16
  A 1.26 1.25 -14.8 0 0 147.24 196.25
  L 147.24 215.26
  A 0.45 0.45 0.0 0 0 147.91 215.65
  Q 176.68 199.26 205.10 183.01
  C 210.90 179.69 214.49 178.06 214.45 171.51
  Q 214.24 136.12 213.96 101.47
  Q 213.94 100.04 212.71 100.76
  L 196.97 109.94
  A 2.09 2.08 -15.4 0 0 195.93 111.76
  L 196.10 161.47
  Q 196.10 162.62 195.11 162.03" stroke="#858091"></path>
</g>
<path d="M 0.00 0.00
  L 256.00 0.00
  L 256.00 256.00
  L 0.00 256.00
  L 0.00 0.00
  Z
  M 134.50 57.12
  Q 134.51 55.51 135.90 56.32
  L 178.02 80.93
  A 1.18 1.17 -44.6 0 0 179.21 80.93
  L 195.31 71.50
  A 0.87 0.87 0.0 0 0 195.31 70.00
  Q 166.14 52.93 137.35 35.92
  C 132.24 32.90 128.29 32.00 123.25 34.97
  Q 93.38 52.52 64.09 69.46
  Q 62.78 70.21 64.08 70.98
  L 80.10 80.38
  A 1.22 1.19 44.8 0 0 81.33 80.39
  L 123.44 56.09
  A 0.74 0.73 -15.0 0 1 124.54 56.72
  Q 124.48 80.12 124.43 103.76
  C 124.42 111.49 134.55 111.39 134.53 103.25
  Q 134.47 79.80 134.50 57.12
  Z
  M 119.79 134.74
  A 1.51 1.49 -75.2 0 1 120.53 136.04
  L 120.51 220.25
  Q 120.51 221.08 121.14 221.63
  C 127.13 226.82 132.68 226.52 138.59 221.40
  Q 138.99 221.06 138.99 220.54
  L 138.99 136.34
  A 1.94 1.94 0.0 0 1 139.96 134.66
  L 212.90 92.15
  A 2.58 2.58 0.0 0 0 214.18 89.94
  C 214.21 86.88 214.39 83.54 212.28 81.02
  Q 210.01 78.33 206.87 76.53
  Q 205.34 75.66 203.49 76.74
  Q 166.85 98.08 130.73 119.15
  Q 129.82 119.68 128.92 119.15
  L 54.78 75.74
  Q 54.41 75.52 54.02 75.71
  C 47.02 79.01 43.57 83.27 45.29 90.74
  Q 45.39 91.20 45.80 91.44
  L 119.79 134.74
  Z
  M 63.15 160.04
  L 63.58 112.05
  A 2.43 2.41 -75.0 0 0 62.37 109.93
  L 46.36 100.69
  Q 45.34 100.10 45.34 101.27
  Q 45.24 137.50 44.99 172.26
  Q 44.95 177.73 49.30 180.21
  Q 80.15 197.83 111.12 215.53
  A 0.62 0.61 -74.7 0 0 112.04 215.00
  L 112.17 196.57
  A 1.68 1.68 0.0 0 0 111.33 195.10
  L 68.97 170.75
  A 0.43 0.43 0.0 0 1 68.98 170.00
  Q 88.50 158.89 108.08 147.61
  C 112.67 144.97 111.53 137.79 106.02 137.90
  Q 104.36 137.93 101.81 139.43
  Q 83.64 150.04 64.87 161.04
  Q 63.13 162.06 63.15 160.04
  Z
  M 195.11 162.03
  Q 175.44 150.42 155.04 138.75
  Q 150.60 136.21 148.11 140.10
  C 145.62 144.00 147.97 146.39 151.40 148.38
  Q 169.70 158.94 188.09 169.34
  Q 188.75 169.71 189.11 169.83
  A 0.96 0.96 0.0 0 1 189.29 171.57
  L 147.88 195.16
  A 1.26 1.25 -14.8 0 0 147.24 196.25
  L 147.24 215.26
  A 0.45 0.45 0.0 0 0 147.91 215.65
  Q 176.68 199.26 205.10 183.01
  C 210.90 179.69 214.49 178.06 214.45 171.51
  Q 214.24 136.12 213.96 101.47
  Q 213.94 100.04 212.71 100.76
  L 196.97 109.94
  A 2.09 2.08 -15.4 0 0 195.93 111.76
  L 196.10 161.47
  Q 196.10 162.62 195.11 162.03
  Z" fill="#0b0122"></path>
<path d="M 134.50 57.12
  Q 134.47 79.80 134.53 103.25
  C 134.55 111.39 124.42 111.49 124.43 103.76
  Q 124.48 80.12 124.54 56.72
  A 0.74 0.73 -15.0 0 0 123.44 56.09
  L 81.33 80.39
  A 1.22 1.19 44.8 0 1 80.10 80.38
  L 64.08 70.98
  Q 62.78 70.21 64.09 69.46
  Q 93.38 52.52 123.25 34.97
  C 128.29 32.00 132.24 32.90 137.35 35.92
  Q 166.14 52.93 195.31 70.00
  A 0.87 0.87 0.0 0 1 195.31 71.50
  L 179.21 80.93
  A 1.18 1.17 -44.6 0 1 178.02 80.93
  L 135.90 56.32
  Q 134.51 55.51 134.50 57.12
  Z" fill="#ffffff"></path>
<path d="M 119.79 134.74
  L 45.80 91.44
  Q 45.39 91.20 45.29 90.74
  C 43.57 83.27 47.02 79.01 54.02 75.71
  Q 54.41 75.52 54.78 75.74
  L 128.92 119.15
  Q 129.82 119.68 130.73 119.15
  Q 166.85 98.08 203.49 76.74
  Q 205.34 75.66 206.87 76.53
  Q 210.01 78.33 212.28 81.02
  C 214.39 83.54 214.21 86.88 214.18 89.94
  A 2.58 2.58 0.0 0 1 212.90 92.15
  L 139.96 134.66
  A 1.94 1.94 0.0 0 0 138.99 136.34
  L 138.99 220.54
  Q 138.99 221.06 138.59 221.40
  C 132.68 226.52 127.13 226.82 121.14 221.63
  Q 120.51 221.08 120.51 220.25
  L 120.53 136.04
  A 1.51 1.49 -75.2 0 0 119.79 134.74
  Z" fill="#ffffff"></path>
<path d="M 63.15 160.04
  Q 63.13 162.06 64.87 161.04
  Q 83.64 150.04 101.81 139.43
  Q 104.36 137.93 106.02 137.90
  C 111.53 137.79 112.67 144.97 108.08 147.61
  Q 88.50 158.89 68.98 170.00
  A 0.43 0.43 0.0 0 0 68.97 170.75
  L 111.33 195.10
  A 1.68 1.68 0.0 0 1 112.17 196.57
  L 112.04 215.00
  A 0.62 0.61 -74.7 0 1 111.12 215.53
  Q 80.15 197.83 49.30 180.21
  Q 44.95 177.73 44.99 172.26
  Q 45.24 137.50 45.34 101.27
  Q 45.34 100.10 46.36 100.69
  L 62.37 109.93
  A 2.43 2.41 -75.0 0 1 63.58 112.05
  L 63.15 160.04
  Z" fill="#ffffff"></path>
<path d="M 195.11 162.03
  Q 196.10 162.62 196.10 161.47
  L 195.93 111.76
  A 2.09 2.08 -15.4 0 1 196.97 109.94
  L 212.71 100.76
  Q 213.94 100.04 213.96 101.47
  Q 214.24 136.12 214.45 171.51
  C 214.49 178.06 210.90 179.69 205.10 183.01
  Q 176.68 199.26 147.91 215.65
  A 0.45 0.45 0.0 0 1 147.24 215.26
  L 147.24 196.25
  A 1.26 1.25 -14.8 0 1 147.88 195.16
  L 189.29 171.57
  A 0.96 0.96 0.0 0 0 189.11 169.83
  Q 188.75 169.71 188.09 169.34
  Q 169.70 158.94 151.40 148.38
  C 147.97 146.39 145.62 144.00 148.11 140.10
  Q 150.60 136.21 155.04 138.75
  Q 175.44 150.42 195.11 162.03
  Z" fill="#ffffff"></path>
</svg>
