<svg viewBox="0.00 0.00 957.00 971.00" version="1.1" xmlns="http://www.w3.org/2000/svg">
<path d="M 353.49 542.23
  Q 351.44 540.75 347.95 537.79
  Q 306.05 502.40 293.00 449.44
  Q 281.64 403.30 290.03 358.75
  C 296.81 322.74 310.86 287.65 331.61 257.37
  C 348.82 232.25 369.96 208.21 393.78 189.20
  C 439.16 153.00 493.87 130.44 551.25 122.19
  C 578.73 118.24 606.72 117.63 633.64 122.30
  Q 670.44 128.68 703.33 145.77
  Q 704.49 146.38 703.47 145.56
  Q 695.67 139.29 686.83 133.90
  Q 653.05 113.28 615.42 100.96
  Q 586.70 91.56 552.25 85.94
  C 481.37 74.39 409.56 87.90 349.25 127.04
  C 308.06 153.76 274.32 195.24 253.78 239.25
  C 225.22 300.43 220.00 369.81 239.86 434.75
  C 248.85 464.17 264.61 494.07 285.43 518.81
  C 298.05 533.80 310.75 546.69 326.18 557.86
  Q 355.99 579.45 389.75 588.82
  C 429.58 599.88 474.93 597.03 510.47 574.47
  Q 512.40 573.24 516.00 571.54
  Q 516.20 571.44 516.11 571.25
  L 516.11 571.24
  Q 516.02 571.04 515.82 571.12
  Q 473.62 587.72 431.58 570.63
  C 401.62 558.45 380.06 534.13 373.04 502.25
  C 359.31 439.87 402.21 377.66 467.99 374.13
  C 493.38 372.76 518.61 380.57 538.58 396.16
  C 577.63 426.64 590.69 479.91 572.80 526.27
  C 542.95 603.67 455.98 633.51 379.70 616.49
  C 295.83 597.79 229.15 529.03 198.97 450.62
  C 193.96 437.61 189.43 421.54 186.26 408.50
  Q 180.48 384.77 179.67 358.00
  C 178.53 320.12 184.02 281.71 196.81 246.06
  Q 203.36 227.78 207.78 218.48
  C 225.00 182.24 250.01 148.55 281.31 123.15
  Q 284.79 120.32 280.79 122.35
  Q 279.60 122.95 277.39 124.18
  C 239.14 145.51 204.01 172.90 175.28 206.05
  Q 160.02 223.66 152.08 234.59
  Q 139.63 251.73 127.56 275.32
  Q 113.69 302.44 106.07 335.21
  C 99.57 363.17 98.28 394.57 103.01 422.90
  C 108.07 453.24 117.35 482.49 131.79 509.70
  C 160.16 563.15 203.02 606.66 254.86 637.02
  C 288.72 656.85 327.46 669.61 366.23 675.54
  Q 401.24 680.90 432.00 677.52
  C 472.30 673.10 510.39 661.74 543.76 638.59
  C 550.93 633.62 557.79 627.63 564.40 621.65
  C 606.37 583.67 627.11 527.72 618.47 471.25
  C 614.51 445.31 602.51 420.97 586.25 400.71
  Q 585.49 399.76 586.47 400.48
  C 601.05 411.13 613.78 423.75 623.44 439.08
  Q 648.78 479.28 645.31 527.09
  C 643.94 545.86 640.53 563.75 633.71 581.14
  C 623.53 607.08 608.66 628.69 589.17 649.43
  C 557.94 682.68 515.59 705.43 471.71 716.89
  Q 447.79 723.14 432.00 725.22
  C 403.62 728.96 370.70 728.00 340.76 722.77
  C 301.51 715.92 264.19 702.93 230.16 683.20
  C 210.31 671.69 190.86 658.82 173.49 643.79
  C 114.28 592.56 70.05 520.64 66.93 440.77
  Q 66.93 440.63 66.79 440.63
  L 66.78 440.63
  Q 66.64 440.62 66.62 440.76
  C 61.02 494.28 66.67 547.79 85.60 598.45
  C 104.30 648.50 137.49 697.60 182.49 728.78
  C 200.14 741.01 219.86 751.40 240.32 759.08
  Q 276.93 772.83 312.24 777.28
  C 380.52 785.89 453.72 773.06 516.66 743.40
  Q 531.22 736.55 547.54 726.06
  C 582.89 703.34 613.32 675.30 635.87 640.12
  Q 661.66 599.88 669.86 552.74
  Q 679.93 494.88 653.41 443.03
  C 639.22 415.27 617.02 394.25 591.09 377.51
  C 575.11 367.19 557.08 360.20 538.49 355.07
  Q 527.95 352.17 517.81 351.94
  Q 517.62 351.94 517.61 351.74
  L 517.61 351.73
  Q 517.61 351.54 517.80 351.52
  Q 555.70 347.97 590.63 362.65
  C 637.49 382.36 675.43 421.46 694.65 468.85
  C 710.02 506.73 715.20 548.52 707.73 588.70
  C 690.40 681.77 626.08 755.35 541.48 794.89
  Q 514.77 807.37 487.71 815.90
  C 437.24 831.82 381.05 837.90 328.56 829.39
  Q 306.29 825.78 288.58 819.90
  C 271.66 814.29 256.28 806.77 240.67 798.27
  Q 240.59 798.23 240.56 798.30
  Q 240.54 798.34 240.52 798.38
  Q 240.45 798.52 240.58 798.63
  Q 266.48 819.73 296.69 834.05
  C 353.50 860.97 416.87 874.42 480.00 873.78
  C 520.90 873.36 565.26 864.52 603.27 849.54
  C 664.27 825.49 715.96 785.39 750.57 729.29
  C 767.54 701.79 778.22 670.32 784.48 638.75
  C 789.88 611.52 790.23 583.68 787.16 556.16
  C 785.73 543.32 783.00 531.70 779.58 518.99
  C 761.60 452.18 716.80 393.83 657.79 357.96
  C 590.43 317.00 506.78 311.54 435.56 346.60
  Q 430.64 349.02 426.20 351.80
  Q 425.52 352.22 426.06 351.63
  Q 427.11 350.50 428.59 349.33
  C 469.56 316.82 518.17 302.06 570.50 303.27
  C 623.25 304.49 674.62 324.28 716.51 355.46
  C 785.99 407.16 833.50 490.19 836.41 577.73
  Q 837.24 602.44 834.96 621.50
  Q 830.60 658.11 816.24 690.72
  Q 814.93 693.70 816.78 691.02
  Q 823.44 681.37 829.27 670.13
  C 848.57 632.99 861.11 593.29 866.83 551.86
  C 871.98 514.50 869.76 476.42 858.95 440.66
  C 838.10 371.71 784.91 316.00 721.42 284.24
  Q 659.16 253.10 589.73 253.36
  Q 579.83 253.40 569.76 254.24
  C 515.50 258.76 461.68 276.90 417.58 309.38
  C 395.61 325.56 374.61 346.48 360.47 369.97
  C 346.39 393.38 336.14 415.81 332.75 443.49
  Q 332.19 448.05 331.56 461.37
  Q 331.56 461.41 331.51 461.41
  Q 331.39 461.41 331.26 461.41
  Q 331.11 461.41 331.08 461.26
  Q 328.76 449.02 328.26 445.25
  Q 324.96 420.37 329.02 399.25
  C 346.79 306.88 432.24 247.31 518.74 226.88
  Q 529.43 224.35 538.30 222.68
  C 577.97 215.21 620.36 215.98 659.54 225.01
  C 727.75 240.72 788.10 274.33 832.06 329.41
  C 843.58 343.86 852.91 360.15 860.54 376.92
  C 862.06 380.26 863.34 384.18 864.73 387.64
  Q 865.45 389.44 865.12 387.53
  C 860.27 359.45 850.87 333.04 838.08 307.54
  C 802.23 236.01 736.46 176.59 656.74 160.32
  C 626.04 154.06 596.00 152.39 564.44 156.92
  C 519.21 163.41 476.12 178.34 437.59 202.86
  C 385.61 235.92 343.02 283.46 320.13 340.70
  Q 312.14 360.68 309.07 380.75
  C 304.74 409.09 305.37 440.86 313.96 468.74
  C 321.84 494.29 333.06 514.28 349.15 536.61
  C 350.43 538.39 352.23 540.17 353.69 542.01
  Q 354.39 542.89 353.49 542.23" stroke-linecap="butt" fill="none" stroke-width="2.00" stroke="#898989"></path>
<path d="M 957.00 476.88
  L 957.00 494.25
  C 956.58 501.70 956.44 509.98 956.01 516.57
  Q 947.74 642.59 880.71 748.66
  C 850.00 797.27 809.92 840.50 764.57 874.80
  Q 658.89 954.72 525.50 968.77
  Q 510.83 970.31 488.13 971.00
  L 468.75 971.00
  Q 436.36 970.16 407.51 965.74
  C 298.55 949.03 197.98 894.49 124.58 812.19
  Q 36.45 713.37 9.64 582.37
  Q 0.75 538.93 0.00 489.11
  L 0.00 481.79
  Q 1.18 383.49 37.95 296.20
  C 90.71 170.96 194.19 70.85 323.18 26.40
  Q 417.76 -6.20 517.79 1.82
  C 674.43 14.37 815.94 106.77 893.06 243.10
  Q 949.77 343.35 956.25 459.06
  C 956.53 463.95 956.57 470.93 957.00 476.88
  Z
  M 353.49 542.23
  Q 351.44 540.75 347.95 537.79
  Q 306.05 502.40 293.00 449.44
  Q 281.64 403.30 290.03 358.75
  C 296.81 322.74 310.86 287.65 331.61 257.37
  C 348.82 232.25 369.96 208.21 393.78 189.20
  C 439.16 153.00 493.87 130.44 551.25 122.19
  C 578.73 118.24 606.72 117.63 633.64 122.30
  Q 670.44 128.68 703.33 145.77
  Q 704.49 146.38 703.47 145.56
  Q 695.67 139.29 686.83 133.90
  Q 653.05 113.28 615.42 100.96
  Q 586.70 91.56 552.25 85.94
  C 481.37 74.39 409.56 87.90 349.25 127.04
  C 308.06 153.76 274.32 195.24 253.78 239.25
  C 225.22 300.43 220.00 369.81 239.86 434.75
  C 248.85 464.17 264.61 494.07 285.43 518.81
  C 298.05 533.80 310.75 546.69 326.18 557.86
  Q 355.99 579.45 389.75 588.82
  C 429.58 599.88 474.93 597.03 510.47 574.47
  Q 512.40 573.24 516.00 571.54
  Q 516.20 571.44 516.11 571.25
  L 516.11 571.24
  Q 516.02 571.04 515.82 571.12
  Q 473.62 587.72 431.58 570.63
  C 401.62 558.45 380.06 534.13 373.04 502.25
  C 359.31 439.87 402.21 377.66 467.99 374.13
  C 493.38 372.76 518.61 380.57 538.58 396.16
  C 577.63 426.64 590.69 479.91 572.80 526.27
  C 542.95 603.67 455.98 633.51 379.70 616.49
  C 295.83 597.79 229.15 529.03 198.97 450.62
  C 193.96 437.61 189.43 421.54 186.26 408.50
  Q 180.48 384.77 179.67 358.00
  C 178.53 320.12 184.02 281.71 196.81 246.06
  Q 203.36 227.78 207.78 218.48
  C 225.00 182.24 250.01 148.55 281.31 123.15
  Q 284.79 120.32 280.79 122.35
  Q 279.60 122.95 277.39 124.18
  C 239.14 145.51 204.01 172.90 175.28 206.05
  Q 160.02 223.66 152.08 234.59
  Q 139.63 251.73 127.56 275.32
  Q 113.69 302.44 106.07 335.21
  C 99.57 363.17 98.28 394.57 103.01 422.90
  C 108.07 453.24 117.35 482.49 131.79 509.70
  C 160.16 563.15 203.02 606.66 254.86 637.02
  C 288.72 656.85 327.46 669.61 366.23 675.54
  Q 401.24 680.90 432.00 677.52
  C 472.30 673.10 510.39 661.74 543.76 638.59
  C 550.93 633.62 557.79 627.63 564.40 621.65
  C 606.37 583.67 627.11 527.72 618.47 471.25
  C 614.51 445.31 602.51 420.97 586.25 400.71
  Q 585.49 399.76 586.47 400.48
  C 601.05 411.13 613.78 423.75 623.44 439.08
  Q 648.78 479.28 645.31 527.09
  C 643.94 545.86 640.53 563.75 633.71 581.14
  C 623.53 607.08 608.66 628.69 589.17 649.43
  C 557.94 682.68 515.59 705.43 471.71 716.89
  Q 447.79 723.14 432.00 725.22
  C 403.62 728.96 370.70 728.00 340.76 722.77
  C 301.51 715.92 264.19 702.93 230.16 683.20
  C 210.31 671.69 190.86 658.82 173.49 643.79
  C 114.28 592.56 70.05 520.64 66.93 440.77
  Q 66.93 440.63 66.79 440.63
  L 66.78 440.63
  Q 66.64 440.62 66.62 440.76
  C 61.02 494.28 66.67 547.79 85.60 598.45
  C 104.30 648.50 137.49 697.60 182.49 728.78
  C 200.14 741.01 219.86 751.40 240.32 759.08
  Q 276.93 772.83 312.24 777.28
  C 380.52 785.89 453.72 773.06 516.66 743.40
  Q 531.22 736.55 547.54 726.06
  C 582.89 703.34 613.32 675.30 635.87 640.12
  Q 661.66 599.88 669.86 552.74
  Q 679.93 494.88 653.41 443.03
  C 639.22 415.27 617.02 394.25 591.09 377.51
  C 575.11 367.19 557.08 360.20 538.49 355.07
  Q 527.95 352.17 517.81 351.94
  Q 517.62 351.94 517.61 351.74
  L 517.61 351.73
  Q 517.61 351.54 517.80 351.52
  Q 555.70 347.97 590.63 362.65
  C 637.49 382.36 675.43 421.46 694.65 468.85
  C 710.02 506.73 715.20 548.52 707.73 588.70
  C 690.40 681.77 626.08 755.35 541.48 794.89
  Q 514.77 807.37 487.71 815.90
  C 437.24 831.82 381.05 837.90 328.56 829.39
  Q 306.29 825.78 288.58 819.90
  C 271.66 814.29 256.28 806.77 240.67 798.27
  Q 240.59 798.23 240.56 798.30
  Q 240.54 798.34 240.52 798.38
  Q 240.45 798.52 240.58 798.63
  Q 266.48 819.73 296.69 834.05
  C 353.50 860.97 416.87 874.42 480.00 873.78
  C 520.90 873.36 565.26 864.52 603.27 849.54
  C 664.27 825.49 715.96 785.39 750.57 729.29
  C 767.54 701.79 778.22 670.32 784.48 638.75
  C 789.88 611.52 790.23 583.68 787.16 556.16
  C 785.73 543.32 783.00 531.70 779.58 518.99
  C 761.60 452.18 716.80 393.83 657.79 357.96
  C 590.43 317.00 506.78 311.54 435.56 346.60
  Q 430.64 349.02 426.20 351.80
  Q 425.52 352.22 426.06 351.63
  Q 427.11 350.50 428.59 349.33
  C 469.56 316.82 518.17 302.06 570.50 303.27
  C 623.25 304.49 674.62 324.28 716.51 355.46
  C 785.99 407.16 833.50 490.19 836.41 577.73
  Q 837.24 602.44 834.96 621.50
  Q 830.60 658.11 816.24 690.72
  Q 814.93 693.70 816.78 691.02
  Q 823.44 681.37 829.27 670.13
  C 848.57 632.99 861.11 593.29 866.83 551.86
  C 871.98 514.50 869.76 476.42 858.95 440.66
  C 838.10 371.71 784.91 316.00 721.42 284.24
  Q 659.16 253.10 589.73 253.36
  Q 579.83 253.40 569.76 254.24
  C 515.50 258.76 461.68 276.90 417.58 309.38
  C 395.61 325.56 374.61 346.48 360.47 369.97
  C 346.39 393.38 336.14 415.81 332.75 443.49
  Q 332.19 448.05 331.56 461.37
  Q 331.56 461.41 331.51 461.41
  Q 331.39 461.41 331.26 461.41
  Q 331.11 461.41 331.08 461.26
  Q 328.76 449.02 328.26 445.25
  Q 324.96 420.37 329.02 399.25
  C 346.79 306.88 432.24 247.31 518.74 226.88
  Q 529.43 224.35 538.30 222.68
  C 577.97 215.21 620.36 215.98 659.54 225.01
  C 727.75 240.72 788.10 274.33 832.06 329.41
  C 843.58 343.86 852.91 360.15 860.54 376.92
  C 862.06 380.26 863.34 384.18 864.73 387.64
  Q 865.45 389.44 865.12 387.53
  C 860.27 359.45 850.87 333.04 838.08 307.54
  C 802.23 236.01 736.46 176.59 656.74 160.32
  C 626.04 154.06 596.00 152.39 564.44 156.92
  C 519.21 163.41 476.12 178.34 437.59 202.86
  C 385.61 235.92 343.02 283.46 320.13 340.70
  Q 312.14 360.68 309.07 380.75
  C 304.74 409.09 305.37 440.86 313.96 468.74
  C 321.84 494.29 333.06 514.28 349.15 536.61
  C 350.43 538.39 352.23 540.17 353.69 542.01
  Q 354.39 542.89 353.49 542.23
  Z" fill="#ffffff"></path>
<path d="M 353.69 542.01
  C 352.23 540.17 350.43 538.39 349.15 536.61
  C 333.06 514.28 321.84 494.29 313.96 468.74
  C 305.37 440.86 304.74 409.09 309.07 380.75
  Q 312.14 360.68 320.13 340.70
  C 343.02 283.46 385.61 235.92 437.59 202.86
  C 476.12 178.34 519.21 163.41 564.44 156.92
  C 596.00 152.39 626.04 154.06 656.74 160.32
  C 736.46 176.59 802.23 236.01 838.08 307.54
  C 850.87 333.04 860.27 359.45 865.12 387.53
  Q 865.45 389.44 864.73 387.64
  C 863.34 384.18 862.06 380.26 860.54 376.92
  C 852.91 360.15 843.58 343.86 832.06 329.41
  C 788.10 274.33 727.75 240.72 659.54 225.01
  C 620.36 215.98 577.97 215.21 538.30 222.68
  Q 529.43 224.35 518.74 226.88
  C 432.24 247.31 346.79 306.88 329.02 399.25
  Q 324.96 420.37 328.26 445.25
  Q 328.76 449.02 331.08 461.26
  Q 331.11 461.41 331.26 461.41
  Q 331.39 461.41 331.51 461.41
  Q 331.56 461.41 331.56 461.37
  Q 332.19 448.05 332.75 443.49
  C 336.14 415.81 346.39 393.38 360.47 369.97
  C 374.61 346.48 395.61 325.56 417.58 309.38
  C 461.68 276.90 515.50 258.76 569.76 254.24
  Q 579.83 253.40 589.73 253.36
  Q 659.16 253.10 721.42 284.24
  C 784.91 316.00 838.10 371.71 858.95 440.66
  C 869.76 476.42 871.98 514.50 866.83 551.86
  C 861.11 593.29 848.57 632.99 829.27 670.13
  Q 823.44 681.37 816.78 691.02
  Q 814.93 693.70 816.24 690.72
  Q 830.60 658.11 834.96 621.50
  Q 837.24 602.44 836.41 577.73
  C 833.50 490.19 785.99 407.16 716.51 355.46
  C 674.62 324.28 623.25 304.49 570.50 303.27
  C 518.17 302.06 469.56 316.82 428.59 349.33
  Q 427.11 350.50 426.06 351.63
  Q 425.52 352.22 426.20 351.80
  Q 430.64 349.02 435.56 346.60
  C 506.78 311.54 590.43 317.00 657.79 357.96
  C 716.80 393.83 761.60 452.18 779.58 518.99
  C 783.00 531.70 785.73 543.32 787.16 556.16
  C 790.23 583.68 789.88 611.52 784.48 638.75
  C 778.22 670.32 767.54 701.79 750.57 729.29
  C 715.96 785.39 664.27 825.49 603.27 849.54
  C 565.26 864.52 520.90 873.36 480.00 873.78
  C 416.87 874.42 353.50 860.97 296.69 834.05
  Q 266.48 819.73 240.58 798.63
  Q 240.45 798.52 240.52 798.38
  Q 240.54 798.34 240.56 798.30
  Q 240.59 798.23 240.67 798.27
  C 256.28 806.77 271.66 814.29 288.58 819.90
  Q 306.29 825.78 328.56 829.39
  C 381.05 837.90 437.24 831.82 487.71 815.90
  Q 514.77 807.37 541.48 794.89
  C 626.08 755.35 690.40 681.77 707.73 588.70
  C 715.20 548.52 710.02 506.73 694.65 468.85
  C 675.43 421.46 637.49 382.36 590.63 362.65
  Q 555.70 347.97 517.80 351.52
  Q 517.61 351.54 517.61 351.73
  L 517.61 351.74
  Q 517.62 351.94 517.81 351.94
  Q 527.95 352.17 538.49 355.07
  C 557.08 360.20 575.11 367.19 591.09 377.51
  C 617.02 394.25 639.22 415.27 653.41 443.03
  Q 679.93 494.88 669.86 552.74
  Q 661.66 599.88 635.87 640.12
  C 613.32 675.30 582.89 703.34 547.54 726.06
  Q 531.22 736.55 516.66 743.40
  C 453.72 773.06 380.52 785.89 312.24 777.28
  Q 276.93 772.83 240.32 759.08
  C 219.86 751.40 200.14 741.01 182.49 728.78
  C 137.49 697.60 104.30 648.50 85.60 598.45
  C 66.67 547.79 61.02 494.28 66.62 440.76
  Q 66.64 440.62 66.78 440.63
  L 66.79 440.63
  Q 66.93 440.63 66.93 440.77
  C 70.05 520.64 114.28 592.56 173.49 643.79
  C 190.86 658.82 210.31 671.69 230.16 683.20
  C 264.19 702.93 301.51 715.92 340.76 722.77
  C 370.70 728.00 403.62 728.96 432.00 725.22
  Q 447.79 723.14 471.71 716.89
  C 515.59 705.43 557.94 682.68 589.17 649.43
  C 608.66 628.69 623.53 607.08 633.71 581.14
  C 640.53 563.75 643.94 545.86 645.31 527.09
  Q 648.78 479.28 623.44 439.08
  C 613.78 423.75 601.05 411.13 586.47 400.48
  Q 585.49 399.76 586.25 400.71
  C 602.51 420.97 614.51 445.31 618.47 471.25
  C 627.11 527.72 606.37 583.67 564.40 621.65
  C 557.79 627.63 550.93 633.62 543.76 638.59
  C 510.39 661.74 472.30 673.10 432.00 677.52
  Q 401.24 680.90 366.23 675.54
  C 327.46 669.61 288.72 656.85 254.86 637.02
  C 203.02 606.66 160.16 563.15 131.79 509.70
  C 117.35 482.49 108.07 453.24 103.01 422.90
  C 98.28 394.57 99.57 363.17 106.07 335.21
  Q 113.69 302.44 127.56 275.32
  Q 139.63 251.73 152.08 234.59
  Q 160.02 223.66 175.28 206.05
  C 204.01 172.90 239.14 145.51 277.39 124.18
  Q 279.60 122.95 280.79 122.35
  Q 284.79 120.32 281.31 123.15
  C 250.01 148.55 225.00 182.24 207.78 218.48
  Q 203.36 227.78 196.81 246.06
  C 184.02 281.71 178.53 320.12 179.67 358.00
  Q 180.48 384.77 186.26 408.50
  C 189.43 421.54 193.96 437.61 198.97 450.62
  C 229.15 529.03 295.83 597.79 379.70 616.49
  C 455.98 633.51 542.95 603.67 572.80 526.27
  C 590.69 479.91 577.63 426.64 538.58 396.16
  C 518.61 380.57 493.38 372.76 467.99 374.13
  C 402.21 377.66 359.31 439.87 373.04 502.25
  C 380.06 534.13 401.62 558.45 431.58 570.63
  Q 473.62 587.72 515.82 571.12
  Q 516.02 571.04 516.11 571.24
  L 516.11 571.25
  Q 516.20 571.44 516.00 571.54
  Q 512.40 573.24 510.47 574.47
  C 474.93 597.03 429.58 599.88 389.75 588.82
  Q 355.99 579.45 326.18 557.86
  C 310.75 546.69 298.05 533.80 285.43 518.81
  C 264.61 494.07 248.85 464.17 239.86 434.75
  C 220.00 369.81 225.22 300.43 253.78 239.25
  C 274.32 195.24 308.06 153.76 349.25 127.04
  C 409.56 87.90 481.37 74.39 552.25 85.94
  Q 586.70 91.56 615.42 100.96
  Q 653.05 113.28 686.83 133.90
  Q 695.67 139.29 703.47 145.56
  Q 704.49 146.38 703.33 145.77
  Q 670.44 128.68 633.64 122.30
  C 606.72 117.63 578.73 118.24 551.25 122.19
  C 493.87 130.44 439.16 153.00 393.78 189.20
  C 369.96 208.21 348.82 232.25 331.61 257.37
  C 310.86 287.65 296.81 322.74 290.03 358.75
  Q 281.64 403.30 293.00 449.44
  Q 306.05 502.40 347.95 537.79
  Q 351.44 540.75 353.49 542.23
  Q 354.39 542.89 353.69 542.01
  Z" fill="#131313"></path>
</svg>
