<svg viewBox="0.00 0.00 500.00 500.00" version="1.1" xmlns="http://www.w3.org/2000/svg">
<g stroke-linecap="butt" fill="none" stroke-width="2.00">
<path d="M 319.45 350.67
  Q 319.46 348.97 318.83 347.47
  Q 314.51 337.26 309.72 327.25
  Q 304.81 316.98 292.38 287.61
  C 291.18 284.77 289.45 281.66 288.15 278.58
  Q 283.41 267.40 278.68 256.21
  C 273.28 243.42 266.19 228.59 260.61 214.45
  C 259.68 212.11 257.94 209.18 256.84 206.47
  C 249.88 189.30 241.96 172.37 234.63 155.30
  Q 229.77 144.00 224.99 132.67
  Q 221.44 124.27 217.55 116.02
  C 213.92 108.31 210.91 98.86 206.36 90.65
  C 202.65 83.93 202.58 74.65 193.01 73.50
  C 188.68 72.98 179.92 72.21 177.80 76.30
  Q 175.36 81.01 174.65 82.68
  C 169.74 94.16 164.54 105.50 159.77 117.05
  C 154.37 130.11 147.21 144.78 141.37 158.89
  C 136.75 170.03 131.75 180.45 127.23 191.37
  C 125.50 195.56 123.10 200.01 121.40 204.18
  Q 117.36 214.08 113.48 222.63
  C 109.15 232.17 105.10 242.67 100.37 252.48
  C 98.75 255.86 97.45 259.24 96.03 262.66
  C 93.69 268.28 90.53 274.33 88.08 280.35
  Q 85.54 286.60 83.73 290.53
  C 79.15 300.52 75.27 310.87 70.57 320.74
  C 66.98 328.28 63.73 335.55 60.86 343.43
  C 60.10 345.50 57.63 346.64 57.60 348.71
  C 57.55 352.14 64.49 352.61 66.87 352.66
  Q 81.06 352.93 95.26 352.63
  Q 101.24 352.50 107.28 352.60
  C 117.77 352.79 119.53 347.09 123.42 337.78
  C 128.29 326.12 129.53 315.99 145.00 316.23
  Q 174.09 316.70 203.17 316.40
  C 214.27 316.29 225.38 316.62 236.50 316.76
  C 239.38 316.79 246.76 318.13 247.71 321.09
  Q 250.32 329.17 253.83 336.90
  C 255.27 340.09 256.21 344.23 258.07 347.50
  C 261.27 353.13 265.66 352.77 272.39 352.70
  Q 293.57 352.47 314.75 352.41
  Q 317.10 352.40 318.95 351.47
  A 0.92 0.92 0.0 0 0 319.45 350.67" stroke="#818187"></path>
<path d="M 358.32 79.82
  L 358.32 346.08
  A 6.47 6.47 0.0 0 0 364.79 352.55
  L 409.83 352.55
  A 5.45 4.36 -0.0 0 0 415.28 348.19
  L 415.28 77.71
  A 5.45 4.36 0.0 0 0 409.83 73.35
  L 364.79 73.35
  A 6.47 6.47 0.0 0 0 358.32 79.82" stroke="#818187"></path>
<path d="M 415.49 429.88
  L 415.49 405.08
  A 6.60 6.60 0.0 0 0 408.89 398.48
  L 68.17 398.48
  A 11.56 7.51 -0.0 0 0 56.61 405.99
  L 56.61 428.97
  A 11.56 7.51 -0.0 0 0 68.17 436.48
  L 408.89 436.48
  A 6.60 6.60 0.0 0 0 415.49 429.88" stroke="#86aff7"></path>
<path d="M 223.94 264.25
  C 219.38 255.97 216.13 247.42 212.96 238.54
  C 209.87 229.91 205.87 222.26 203.11 213.15
  C 200.06 203.09 195.25 194.02 193.12 183.60
  A 1.86 1.85 11.1 0 0 192.31 182.40
  C 188.90 180.15 186.28 186.47 185.29 188.74
  C 182.86 194.26 179.00 200.21 177.30 204.99
  C 171.11 222.40 164.87 236.73 159.55 251.83
  Q 158.53 254.72 156.88 257.99
  C 155.28 261.16 150.10 268.29 156.76 269.71
  Q 160.71 270.56 166.50 270.45
  Q 189.25 270.05 212.00 270.23
  C 216.10 270.26 227.40 270.55 223.94 264.25" stroke="#818187"></path>
</g>
<path d="M 0.00 0.00
  L 500.00 0.00
  L 500.00 500.00
  L 0.00 500.00
  L 0.00 0.00
  Z
  M 319.45 350.67
  Q 319.46 348.97 318.83 347.47
  Q 314.51 337.26 309.72 327.25
  Q 304.81 316.98 292.38 287.61
  C 291.18 284.77 289.45 281.66 288.15 278.58
  Q 283.41 267.40 278.68 256.21
  C 273.28 243.42 266.19 228.59 260.61 214.45
  C 259.68 212.11 257.94 209.18 256.84 206.47
  C 249.88 189.30 241.96 172.37 234.63 155.30
  Q 229.77 144.00 224.99 132.67
  Q 221.44 124.27 217.55 116.02
  C 213.92 108.31 210.91 98.86 206.36 90.65
  C 202.65 83.93 202.58 74.65 193.01 73.50
  C 188.68 72.98 179.92 72.21 177.80 76.30
  Q 175.36 81.01 174.65 82.68
  C 169.74 94.16 164.54 105.50 159.77 117.05
  C 154.37 130.11 147.21 144.78 141.37 158.89
  C 136.75 170.03 131.75 180.45 127.23 191.37
  C 125.50 195.56 123.10 200.01 121.40 204.18
  Q 117.36 214.08 113.48 222.63
  C 109.15 232.17 105.10 242.67 100.37 252.48
  C 98.75 255.86 97.45 259.24 96.03 262.66
  C 93.69 268.28 90.53 274.33 88.08 280.35
  Q 85.54 286.60 83.73 290.53
  C 79.15 300.52 75.27 310.87 70.57 320.74
  C 66.98 328.28 63.73 335.55 60.86 343.43
  C 60.10 345.50 57.63 346.64 57.60 348.71
  C 57.55 352.14 64.49 352.61 66.87 352.66
  Q 81.06 352.93 95.26 352.63
  Q 101.24 352.50 107.28 352.60
  C 117.77 352.79 119.53 347.09 123.42 337.78
  C 128.29 326.12 129.53 315.99 145.00 316.23
  Q 174.09 316.70 203.17 316.40
  C 214.27 316.29 225.38 316.62 236.50 316.76
  C 239.38 316.79 246.76 318.13 247.71 321.09
  Q 250.32 329.17 253.83 336.90
  C 255.27 340.09 256.21 344.23 258.07 347.50
  C 261.27 353.13 265.66 352.77 272.39 352.70
  Q 293.57 352.47 314.75 352.41
  Q 317.10 352.40 318.95 351.47
  A 0.92 0.92 0.0 0 0 319.45 350.67
  Z
  M 358.32 79.82
  L 358.32 346.08
  A 6.47 6.47 0.0 0 0 364.79 352.55
  L 409.83 352.55
  A 5.45 4.36 -0.0 0 0 415.28 348.19
  L 415.28 77.71
  A 5.45 4.36 0.0 0 0 409.83 73.35
  L 364.79 73.35
  A 6.47 6.47 0.0 0 0 358.32 79.82
  Z
  M 415.49 429.88
  L 415.49 405.08
  A 6.60 6.60 0.0 0 0 408.89 398.48
  L 68.17 398.48
  A 11.56 7.51 -0.0 0 0 56.61 405.99
  L 56.61 428.97
  A 11.56 7.51 -0.0 0 0 68.17 436.48
  L 408.89 436.48
  A 6.60 6.60 0.0 0 0 415.49 429.88
  Z" fill="#ffffff"></path>
<path d="M 319.45 350.67
  A 0.92 0.92 0.0 0 1 318.95 351.47
  Q 317.10 352.40 314.75 352.41
  Q 293.57 352.47 272.39 352.70
  C 265.66 352.77 261.27 353.13 258.07 347.50
  C 256.21 344.23 255.27 340.09 253.83 336.90
  Q 250.32 329.17 247.71 321.09
  C 246.76 318.13 239.38 316.79 236.50 316.76
  C 225.38 316.62 214.27 316.29 203.17 316.40
  Q 174.09 316.70 145.00 316.23
  C 129.53 315.99 128.29 326.12 123.42 337.78
  C 119.53 347.09 117.77 352.79 107.28 352.60
  Q 101.24 352.50 95.26 352.63
  Q 81.06 352.93 66.87 352.66
  C 64.49 352.61 57.55 352.14 57.60 348.71
  C 57.63 346.64 60.10 345.50 60.86 343.43
  C 63.73 335.55 66.98 328.28 70.57 320.74
  C 75.27 310.87 79.15 300.52 83.73 290.53
  Q 85.54 286.60 88.08 280.35
  C 90.53 274.33 93.69 268.28 96.03 262.66
  C 97.45 259.24 98.75 255.86 100.37 252.48
  C 105.10 242.67 109.15 232.17 113.48 222.63
  Q 117.36 214.08 121.40 204.18
  C 123.10 200.01 125.50 195.56 127.23 191.37
  C 131.75 180.45 136.75 170.03 141.37 158.89
  C 147.21 144.78 154.37 130.11 159.77 117.05
  C 164.54 105.50 169.74 94.16 174.65 82.68
  Q 175.36 81.01 177.80 76.30
  C 179.92 72.21 188.68 72.98 193.01 73.50
  C 202.58 74.65 202.65 83.93 206.36 90.65
  C 210.91 98.86 213.92 108.31 217.55 116.02
  Q 221.44 124.27 224.99 132.67
  Q 229.77 144.00 234.63 155.30
  C 241.96 172.37 249.88 189.30 256.84 206.47
  C 257.94 209.18 259.68 212.11 260.61 214.45
  C 266.19 228.59 273.28 243.42 278.68 256.21
  Q 283.41 267.40 288.15 278.58
  C 289.45 281.66 291.18 284.77 292.38 287.61
  Q 304.81 316.98 309.72 327.25
  Q 314.51 337.26 318.83 347.47
  Q 319.46 348.97 319.45 350.67
  Z
  M 223.94 264.25
  C 219.38 255.97 216.13 247.42 212.96 238.54
  C 209.87 229.91 205.87 222.26 203.11 213.15
  C 200.06 203.09 195.25 194.02 193.12 183.60
  A 1.86 1.85 11.1 0 0 192.31 182.40
  C 188.90 180.15 186.28 186.47 185.29 188.74
  C 182.86 194.26 179.00 200.21 177.30 204.99
  C 171.11 222.40 164.87 236.73 159.55 251.83
  Q 158.53 254.72 156.88 257.99
  C 155.28 261.16 150.10 268.29 156.76 269.71
  Q 160.71 270.56 166.50 270.45
  Q 189.25 270.05 212.00 270.23
  C 216.10 270.26 227.40 270.55 223.94 264.25
  Z" fill="#03020e"></path>
<path d="M 358.32 79.82
  A 6.47 6.47 0.0 0 1 364.79 73.35
  L 409.83 73.35
  A 5.45 4.36 -0.0 0 1 415.28 77.71
  L 415.28 348.19
  A 5.45 4.36 -0.0 0 1 409.83 352.55
  L 364.79 352.55
  A 6.47 6.47 0.0 0 1 358.32 346.08
  L 358.32 79.82
  Z" fill="#03020e"></path>
<path d="M 212.96 238.54
  C 216.13 247.42 219.38 255.97 223.94 264.25
  C 227.40 270.55 216.10 270.26 212.00 270.23
  Q 189.25 270.05 166.50 270.45
  Q 160.71 270.56 156.76 269.71
  C 150.10 268.29 155.28 261.16 156.88 257.99
  Q 158.53 254.72 159.55 251.83
  C 164.87 236.73 171.11 222.40 177.30 204.99
  C 179.00 200.21 182.86 194.26 185.29 188.74
  C 186.28 186.47 188.90 180.15 192.31 182.40
  A 1.86 1.85 11.1 0 1 193.12 183.60
  C 195.25 194.02 200.06 203.09 203.11 213.15
  C 205.87 222.26 209.87 229.91 212.96 238.54
  Z" fill="#ffffff"></path>
<path d="M 415.49 429.88
  A 6.60 6.60 0.0 0 1 408.89 436.48
  L 68.17 436.48
  A 11.56 7.51 -0.0 0 1 56.61 428.97
  L 56.61 405.99
  A 11.56 7.51 0.0 0 1 68.17 398.48
  L 408.89 398.48
  A 6.60 6.60 0.0 0 1 415.49 405.08
  L 415.49 429.88
  Z" fill="#0c5fef"></path>
</svg>
