<svg viewBox="0.00 0.00 360.00 360.00" version="1.1" xmlns="http://www.w3.org/2000/svg">
<g stroke-linecap="butt" fill="none" stroke-width="2.00">
<path d="M 239.01 160.57
  Q 233.20 157.50 225.74 156.44
  C 208.03 153.92 191.16 159.22 179.39 172.45
  Q 170.54 182.39 168.75 195.50
  C 163.05 237.46 193.23 264.53 234.26 261.52
  C 273.24 258.67 294.11 226.10 294.59 189.50
  C 294.85 170.30 291.38 152.17 281.33 135.66
  C 265.16 109.11 233.99 97.66 204.12 106.20
  C 185.45 111.54 175.96 127.85 182.46 146.78
  Q 183.46 149.67 185.81 152.59
  A 0.89 0.88 -34.8 0 0 186.95 152.79
  C 193.63 148.78 200.51 146.05 208.39 145.26
  C 216.94 144.41 230.17 144.57 237.89 149.02
  C 242.54 151.70 244.12 156.48 239.84 160.46
  Q 239.46 160.81 239.01 160.57" stroke="#808080"></path>
<path d="M 130.47 164.08
  C 121.39 159.83 110.15 159.23 100.75 161.07
  C 79.80 165.16 65.64 183.36 66.09 204.75
  C 66.68 232.66 83.04 250.98 109.99 255.16
  C 129.55 258.19 149.60 253.43 163.53 238.49
  Q 163.84 238.15 163.63 237.75
  C 157.13 225.59 154.76 211.20 155.95 197.78
  C 157.31 182.54 164.94 168.11 176.41 158.07
  A 0.69 0.68 60.4 0 0 176.61 157.33
  C 166.15 125.78 137.42 106.86 103.97 113.11
  C 95.28 114.74 83.01 120.41 79.43 129.23
  Q 73.88 142.91 81.83 156.00
  Q 82.06 156.38 82.44 156.15
  C 95.51 148.33 112.73 147.33 126.99 152.06
  C 132.47 153.87 135.97 159.17 131.37 163.92
  Q 130.98 164.32 130.47 164.08" stroke="#808080"></path>
</g>
<path d="M 174.84 0.00
  L 185.37 0.00
  Q 248.08 2.64 295.18 41.71
  C 335.28 74.97 358.03 122.89 360.00 174.83
  L 360.00 185.35
  C 357.66 245.19 327.34 299.60 276.80 331.82
  Q 235.31 358.27 185.17 360.00
  L 174.63 360.00
  Q 106.11 357.11 57.28 311.72
  Q 12.67 270.24 2.18 208.49
  Q 0.63 199.37 0.00 185.18
  L 0.00 174.51
  C 3.77 78.80 78.94 3.24 174.84 0.00
  Z
  M 239.01 160.57
  Q 233.20 157.50 225.74 156.44
  C 208.03 153.92 191.16 159.22 179.39 172.45
  Q 170.54 182.39 168.75 195.50
  C 163.05 237.46 193.23 264.53 234.26 261.52
  C 273.24 258.67 294.11 226.10 294.59 189.50
  C 294.85 170.30 291.38 152.17 281.33 135.66
  C 265.16 109.11 233.99 97.66 204.12 106.20
  C 185.45 111.54 175.96 127.85 182.46 146.78
  Q 183.46 149.67 185.81 152.59
  A 0.89 0.88 -34.8 0 0 186.95 152.79
  C 193.63 148.78 200.51 146.05 208.39 145.26
  C 216.94 144.41 230.17 144.57 237.89 149.02
  C 242.54 151.70 244.12 156.48 239.84 160.46
  Q 239.46 160.81 239.01 160.57
  Z
  M 130.47 164.08
  C 121.39 159.83 110.15 159.23 100.75 161.07
  C 79.80 165.16 65.64 183.36 66.09 204.75
  C 66.68 232.66 83.04 250.98 109.99 255.16
  C 129.55 258.19 149.60 253.43 163.53 238.49
  Q 163.84 238.15 163.63 237.75
  C 157.13 225.59 154.76 211.20 155.95 197.78
  C 157.31 182.54 164.94 168.11 176.41 158.07
  A 0.69 0.68 60.4 0 0 176.61 157.33
  C 166.15 125.78 137.42 106.86 103.97 113.11
  C 95.28 114.74 83.01 120.41 79.43 129.23
  Q 73.88 142.91 81.83 156.00
  Q 82.06 156.38 82.44 156.15
  C 95.51 148.33 112.73 147.33 126.99 152.06
  C 132.47 153.87 135.97 159.17 131.37 163.92
  Q 130.98 164.32 130.47 164.08
  Z" fill="#000000"></path>
<path d="M 239.84 160.46
  C 244.12 156.48 242.54 151.70 237.89 149.02
  C 230.17 144.57 216.94 144.41 208.39 145.26
  C 200.51 146.05 193.63 148.78 186.95 152.79
  A 0.89 0.88 -34.8 0 1 185.81 152.59
  Q 183.46 149.67 182.46 146.78
  C 175.96 127.85 185.45 111.54 204.12 106.20
  C 233.99 97.66 265.16 109.11 281.33 135.66
  C 291.38 152.17 294.85 170.30 294.59 189.50
  C 294.11 226.10 273.24 258.67 234.26 261.52
  C 193.23 264.53 163.05 237.46 168.75 195.50
  Q 170.54 182.39 179.39 172.45
  C 191.16 159.22 208.03 153.92 225.74 156.44
  Q 233.20 157.50 239.01 160.57
  Q 239.46 160.81 239.84 160.46
  Z" fill="#ffffff"></path>
<path d="M 131.37 163.92
  C 135.97 159.17 132.47 153.87 126.99 152.06
  C 112.73 147.33 95.51 148.33 82.44 156.15
  Q 82.06 156.38 81.83 156.00
  Q 73.88 142.91 79.43 129.23
  C 83.01 120.41 95.28 114.74 103.97 113.11
  C 137.42 106.86 166.15 125.78 176.61 157.33
  A 0.69 0.68 60.4 0 1 176.41 158.07
  C 164.94 168.11 157.31 182.54 155.95 197.78
  C 154.76 211.20 157.13 225.59 163.63 237.75
  Q 163.84 238.15 163.53 238.49
  C 149.60 253.43 129.55 258.19 109.99 255.16
  C 83.04 250.98 66.68 232.66 66.09 204.75
  C 65.64 183.36 79.80 165.16 100.75 161.07
  C 110.15 159.23 121.39 159.83 130.47 164.08
  Q 130.98 164.32 131.37 163.92
  Z" fill="#ffffff"></path>
</svg>
