<svg viewBox="0.00 0.00 256.00 256.00" version="1.1" xmlns="http://www.w3.org/2000/svg">
<g stroke-linecap="butt" fill="none" stroke-width="2.00">
<path d="M 131.04 1.73
  C 128.82 1.29 127.59 3.46 127.25 5.26
  Q 125.28 15.60 125.85 19.01
  C 126.54 23.14 126.32 27.48 126.73 31.32
  C 127.19 35.54 126.68 40.58 127.71 44.58
  C 128.37 47.17 128.40 49.42 129.09 51.49
  A 1.11 1.10 0.6 0 0 129.77 52.18
  Q 133.39 53.42 137.06 53.76
  Q 138.33 53.88 138.99 54.32
  Q 140.17 55.12 140.03 56.24" stroke="#001e59"></path>
<path d="M 140.03 56.24
  Q 119.68 56.31 99.50 56.39
  C 95.66 56.41 83.43 56.64 82.30 61.53
  C 80.18 70.77 79.36 82.28 76.22 91.75
  Q 74.25 97.67 77.29 99.65" stroke="#808aa4"></path>
<path d="M 77.29 99.65
  Q 78.03 100.21 78.82 100.68
  C 80.34 101.59 84.85 101.13 86.75 101.14
  C 87.69 101.14 88.59 100.68 89.74 101.10
  Q 90.22 101.28 90.70 101.08
  Q 94.75 99.41 98.45 101.81
  Q 98.59 101.90 98.65 101.74
  Q 98.70 101.62 98.76 101.48
  A 0.73 0.46 77.1 0 1 99.63 102.34
  Q 99.30 103.42 100.05 103.48
  Q 100.52 107.42 100.93 111.37
  Q 100.96 111.62 101.21 111.63
  Q 101.36 111.63 101.51 111.63
  Q 101.77 111.63 101.78 111.88
  Q 101.86 113.61 103.12 114.97" stroke="#001e59"></path>
<path d="M 103.12 114.97
  Q 104.76 121.66 107.44 128.06
  C 110.21 134.66 108.15 144.21 106.74 151.04
  C 105.83 155.48 106.62 159.52 112.01 159.69
  Q 119.31 159.91 124.92 159.64
  C 130.10 159.39 135.12 159.67 140.25 159.42
  C 146.58 159.12 147.01 153.32 146.34 148.51
  Q 145.60 143.28 145.37 138.00
  C 145.02 129.92 147.68 124.80 150.79 117.75
  Q 153.09 112.50 151.56 108.18" stroke="#808aa4"></path>
<path d="M 151.56 108.18
  L 149.61 106.11
  Q 149.27 105.76 149.19 105.27
  Q 149.10 104.74 148.55 104.42
  Q 148.19 104.21 148.44 103.87
  Q 148.86 103.30 149.36 102.86
  Q 150.32 102.02 149.77 101.60
  A 0.43 0.43 0.0 0 1 150.02 100.83
  L 165.33 100.31" stroke="#001e59"></path>
<path d="M 165.33 100.31
  L 177.13 100.31
  A 1.99 1.99 0.0 0 0 179.05 98.83
  Q 179.45 97.28 179.07 95.48
  Q 176.82 84.93 174.13 73.68" stroke="#808aa4"></path>
<path d="M 174.13 73.68
  Q 175.36 74.64 176.15 74.83
  Q 176.60 74.94 178.09 74.20
  Q 180.74 72.89 182.93 70.92
  Q 183.27 70.62 183.72 70.62
  L 184.52 70.62
  A 0.78 0.76 -61.8 0 0 184.96 70.48
  Q 185.86 69.79 186.96 69.87
  Q 187.43 69.90 187.85 69.71
  Q 190.04 68.67 192.75 68.87
  Q 197.47 69.22 204.25 69.03
  Q 210.63 68.85 217.00 68.52
  Q 218.29 68.45 219.37 69.53
  Q 219.68 69.84 220.08 69.66
  Q 220.45 69.50 220.75 69.64
  Q 222.42 70.44 223.75 70.60
  Q 223.88 70.61 223.88 70.74
  Q 223.88 70.87 223.88 71.00
  Q 223.87 71.68 224.55 71.62
  Q 224.72 71.60 224.96 71.66
  A 1.41 1.38 -54.3 0 0 226.10 71.46
  Q 227.28 70.67 227.89 69.53
  Q 228.09 69.17 228.41 68.93
  Q 229.08 68.43 229.10 67.72
  A 1.07 1.07 0.0 0 1 230.99 67.07
  Q 231.54 67.74 231.29 68.34
  Q 231.19 68.58 231.42 68.71
  Q 231.55 68.78 231.68 68.83
  Q 232.02 68.98 231.87 69.31
  Q 231.19 70.80 232.37 72.03
  Q 232.42 72.08 232.37 72.13
  Q 232.27 72.23 232.16 72.34
  Q 232.07 72.43 232.15 72.54
  Q 233.51 74.23 233.18 76.47
  A 1.24 1.24 0.0 0 0 233.43 77.42
  Q 235.01 79.49 234.15 82.02
  Q 234.12 82.12 234.20 82.20
  Q 234.35 82.35 234.50 82.52
  Q 234.74 82.80 234.75 83.17
  L 235.25 102.80
  Q 235.26 102.94 235.39 102.94
  L 235.64 102.94
  Q 235.77 102.94 235.78 102.81
  Q 235.89 94.07 235.86 85.34
  Q 235.85 82.58 235.12 79.25
  Q 234.46 76.23 234.05 73.17
  Q 234.05 73.13 234.07 73.13
  Q 234.09 73.13 234.10 73.13
  Q 234.16 73.12 234.15 73.17
  Q 233.88 74.80 234.63 74.79" stroke="#001e59"></path>
<path d="M 234.63 74.79
  Q 237.18 79.75 236.14 85.74
  C 235.80 87.74 236.40 90.42 236.16 92.74
  Q 235.70 97.02 235.88 101.34
  C 235.94 102.83 235.56 104.40 235.59 106.00
  Q 236.01 136.75 235.99 167.50
  Q 235.98 172.73 234.73 177.82
  Q 234.72 177.86 234.75 177.86
  Q 234.77 177.86 234.79 177.87
  Q 234.90 177.88 234.86 177.75
  Q 234.51 176.37 235.14 175.15
  Q 235.29 174.86 234.96 174.86
  L 234.55 174.87
  Q 234.29 174.87 234.25 175.13
  C 234.04 176.57 234.20 177.90 233.92 179.29
  Q 233.31 182.32 233.40 185.41
  Q 233.40 185.62 233.51 185.81
  Q 233.60 185.98 233.68 186.15
  A 1.94 1.90 33.1 0 1 233.89 187.10
  C 233.81 189.10 233.86 192.96 237.16 192.63" stroke="#234175"></path>
<path d="M 122.10 254.08
  Q 125.29 253.96 127.99 254.39
  Q 130.21 254.74 131.43 253.01
  Q 131.66 252.70 132.00 252.52
  Q 133.23 251.91 132.32 250.62
  Q 132.06 250.26 131.68 250.04
  Q 128.15 248.04 128.02 243.75
  C 127.89 239.43 126.57 235.19 126.95 230.44
  C 127.56 223.03 127.76 215.68 128.02 208.25
  C 128.13 205.09 126.92 202.49 126.91 199.48
  Q 126.90 197.93 126.58 196.42
  Q 125.98 193.66 125.77 191.98
  Q 125.25 187.68 122.96 184.51
  Q 122.28 183.56 120.93 184.01
  Q 120.53 184.15 120.41 183.74
  Q 120.13 182.77 119.34 183.11" stroke="#001e59"></path>
<path d="M 119.34 183.11
  C 115.34 176.26 108.33 170.85 102.61 165.38
  C 97.51 160.52 97.26 150.27 98.19 143.89
  C 98.91 138.95 99.95 132.55 94.80 129.61
  Q 86.73 124.99 79.28 119.45
  C 74.58 115.96 67.10 120.27 63.42 123.50
  Q 58.72 127.62 53.42 130.94
  C 51.01 132.45 44.39 137.15 46.04 140.46
  C 48.32 145.02 51.84 149.30 54.55 154.65" stroke="#808aa4"></path>
<path d="M 54.55 154.65
  Q 52.87 155.58 52.47 157.03
  Q 52.27 157.71 52.66 158.90
  Q 52.95 159.81 53.16 160.75
  Q 53.51 162.35 52.39 162.99
  A 0.95 0.94 -13.0 0 0 51.92 163.73
  C 51.81 165.22 50.02 165.92 48.72 166.13
  A 0.99 0.96 -31.3 0 1 47.98 165.96
  Q 46.67 165.06 45.06 165.41
  Q 44.59 165.52 44.14 165.32
  Q 40.72 163.85 36.95 163.93
  Q 36.39 163.94 35.94 163.61
  Q 35.45 163.25 34.99 163.49
  Q 34.52 163.73 34.02 163.57
  Q 31.85 162.90 29.57 162.88
  C 28.35 162.87 27.49 162.42 26.39 162.00
  Q 25.99 161.85 23.97 161.49
  Q 22.61 161.26 21.53 160.20
  A 1.14 1.10 66.4 0 0 20.75 159.88
  L 17.51 159.88
  Q 16.94 159.88 17.05 160.43
  Q 17.37 162.01 16.54 163.30" stroke="#001e59"></path>
<path d="M 119.34 183.11
  Q 119.07 187.69 115.03 191.54
  Q 109.79 196.54 104.51 201.51
  Q 99.57 206.15 93.92 206.24
  C 86.21 206.37 84.44 207.20 80.57 200.45
  C 71.85 185.24 63.64 169.63 54.55 154.65" stroke="#8093b4"></path>
<path d="M 165.33 100.31
  Q 151.35 99.89 137.43 99.33
  C 127.19 98.91 117.61 99.21 107.66 99.60
  C 103.76 99.75 99.91 99.00 95.98 99.10
  Q 87.04 99.34 77.29 99.65" stroke="#8093b4"></path>
<path d="M 106.44 245.53
  Q 107.54 245.16 108.43 245.50
  Q 108.81 245.65 108.57 245.39
  Q 108.46 245.28 108.17 245.26
  Q 107.83 245.23 107.73 244.91
  Q 107.47 244.12 106.55 244.37
  A 1.21 1.20 61.0 0 1 105.37 244.03
  L 103.35 241.89
  Q 102.94 241.45 103.52 241.61
  C 107.13 242.61 108.25 244.95 110.88 246.55
  A 0.84 0.84 0.0 0 1 111.28 247.19
  Q 111.31 247.49 111.44 247.66
  Q 112.04 248.47 111.81 247.39
  Q 111.63 246.54 110.80 246.00
  A 0.84 0.84 0.0 0 1 110.41 245.31
  Q 110.40 244.34 109.50 243.90
  Q 107.84 243.09 106.25 242.22
  Q 106.16 242.17 103.33 241.09
  Q 101.56 240.41 100.59 238.59
  Q 100.39 238.22 99.99 238.09
  Q 99.73 238.01 99.53 237.72
  Q 98.29 235.96 96.06 235.61
  Q 95.57 235.53 95.16 235.25
  Q 92.92 233.69 90.24 233.36
  Q 89.67 233.29 89.18 232.99
  Q 88.40 232.51 88.02 231.63
  A 0.92 0.91 85.1 0 0 87.41 231.11
  Q 82.65 229.84 78.37 227.39
  Q 77.97 227.16 77.49 227.11
  C 76.67 227.04 75.89 226.26 75.31 226.00
  Q 72.99 224.95 71.10 223.24
  C 70.14 222.37 69.11 222.23 68.09 221.41
  Q 67.72 221.11 67.25 221.10
  Q 66.38 221.08 66.10 220.91
  Q 58.30 216.06 50.17 211.77
  C 48.02 210.63 46.43 209.32 44.36 207.45
  C 42.70 205.96 40.82 206.09 39.25 205.25
  Q 37.87 204.50 36.59 203.61
  Q 36.27 203.39 35.88 203.41
  Q 34.79 203.45 34.25 202.56
  Q 34.05 202.22 33.68 202.07
  Q 31.70 201.28 30.01 199.96
  Q 29.65 199.67 29.19 199.62
  Q 27.88 199.47 28.05 200.20" stroke="#234a85"></path>
<path d="M 151.56 108.18
  C 143.17 107.13 132.23 107.80 124.07 108.06
  C 117.27 108.29 110.63 107.57 103.86 107.45
  A 1.51 1.50 -86.9 0 0 102.34 108.82
  Q 102.09 111.64 103.12 114.97" stroke="#8093b4"></path>
<path d="M 230.65 59.71
  Q 229.46 60.09 231.40 62.65
  Q 231.59 62.90 231.83 63.08
  Q 232.25 63.39 232.36 63.89
  Q 232.58 64.93 232.62 65.02
  Q 234.58 69.69 234.63 74.79" stroke="#234a85"></path>
<path d="M 174.13 73.68
  Q 172.58 68.19 171.60 61.73
  C 171.07 58.25 167.90 57.10 164.75 56.80
  C 156.50 56.00 148.25 56.49 140.03 56.24" stroke="#8093b4"></path>
<path d="M 157.23 151.11
  Q 157.89 159.84 152.04 166.01
  Q 148.57 169.66 144.70 172.86
  C 140.59 176.26 134.63 182.19 138.12 187.90
  C 140.36 191.55 141.35 194.09 144.96 196.34
  C 149.41 199.10 152.55 203.22 157.88 204.91
  C 160.78 205.84 163.63 205.19 166.51 204.54
  C 172.54 203.18 175.84 195.34 178.46 190.50
  Q 180.18 187.32 182.44 183.69
  C 185.52 178.75 188.32 173.02 191.02 168.49
  Q 196.72 158.93 202.10 149.18
  C 203.42 146.79 208.50 141.17 207.45 138.49
  C 205.85 134.41 200.62 131.12 197.17 128.35
  C 192.97 124.97 187.64 121.65 183.18 117.90
  A 3.79 3.79 0.0 0 0 178.60 117.66
  Q 175.85 119.54 172.85 121.38
  C 168.95 123.77 165.20 126.81 161.17 129.32
  C 158.35 131.08 156.87 132.77 156.78 136.00
  Q 156.60 142.68 157.23 151.11" stroke="#808aa4"></path>
</g>
<path d="M 131.04 1.73
  C 128.82 1.29 127.59 3.46 127.25 5.26
  Q 125.28 15.60 125.85 19.01
  C 126.54 23.14 126.32 27.48 126.73 31.32
  C 127.19 35.54 126.68 40.58 127.71 44.58
  C 128.37 47.17 128.40 49.42 129.09 51.49
  A 1.11 1.10 0.6 0 0 129.77 52.18
  Q 133.39 53.42 137.06 53.76
  Q 138.33 53.88 138.99 54.32
  Q 140.17 55.12 140.03 56.24
  Q 119.68 56.31 99.50 56.39
  C 95.66 56.41 83.43 56.64 82.30 61.53
  C 80.18 70.77 79.36 82.28 76.22 91.75
  Q 74.25 97.67 77.29 99.65
  Q 78.03 100.21 78.82 100.68
  C 80.34 101.59 84.85 101.13 86.75 101.14
  C 87.69 101.14 88.59 100.68 89.74 101.10
  Q 90.22 101.28 90.70 101.08
  Q 94.75 99.41 98.45 101.81
  Q 98.59 101.90 98.65 101.74
  Q 98.70 101.62 98.76 101.48
  A 0.73 0.46 77.1 0 1 99.63 102.34
  Q 99.30 103.42 100.05 103.48
  Q 100.52 107.42 100.93 111.37
  Q 100.96 111.62 101.21 111.63
  Q 101.36 111.63 101.51 111.63
  Q 101.77 111.63 101.78 111.88
  Q 101.86 113.61 103.12 114.97
  Q 104.76 121.66 107.44 128.06
  C 110.21 134.66 108.15 144.21 106.74 151.04
  C 105.83 155.48 106.62 159.52 112.01 159.69
  Q 119.31 159.91 124.92 159.64
  C 130.10 159.39 135.12 159.67 140.25 159.42
  C 146.58 159.12 147.01 153.32 146.34 148.51
  Q 145.60 143.28 145.37 138.00
  C 145.02 129.92 147.68 124.80 150.79 117.75
  Q 153.09 112.50 151.56 108.18
  L 149.61 106.11
  Q 149.27 105.76 149.19 105.27
  Q 149.10 104.74 148.55 104.42
  Q 148.19 104.21 148.44 103.87
  Q 148.86 103.30 149.36 102.86
  Q 150.32 102.02 149.77 101.60
  A 0.43 0.43 0.0 0 1 150.02 100.83
  L 165.33 100.31
  L 177.13 100.31
  A 1.99 1.99 0.0 0 0 179.05 98.83
  Q 179.45 97.28 179.07 95.48
  Q 176.82 84.93 174.13 73.68
  Q 175.36 74.64 176.15 74.83
  Q 176.60 74.94 178.09 74.20
  Q 180.74 72.89 182.93 70.92
  Q 183.27 70.62 183.72 70.62
  L 184.52 70.62
  A 0.78 0.76 -61.8 0 0 184.96 70.48
  Q 185.86 69.79 186.96 69.87
  Q 187.43 69.90 187.85 69.71
  Q 190.04 68.67 192.75 68.87
  Q 197.47 69.22 204.25 69.03
  Q 210.63 68.85 217.00 68.52
  Q 218.29 68.45 219.37 69.53
  Q 219.68 69.84 220.08 69.66
  Q 220.45 69.50 220.75 69.64
  Q 222.42 70.44 223.75 70.60
  Q 223.88 70.61 223.88 70.74
  Q 223.88 70.87 223.88 71.00
  Q 223.87 71.68 224.55 71.62
  Q 224.72 71.60 224.96 71.66
  A 1.41 1.38 -54.3 0 0 226.10 71.46
  Q 227.28 70.67 227.89 69.53
  Q 228.09 69.17 228.41 68.93
  Q 229.08 68.43 229.10 67.72
  A 1.07 1.07 0.0 0 1 230.99 67.07
  Q 231.54 67.74 231.29 68.34
  Q 231.19 68.58 231.42 68.71
  Q 231.55 68.78 231.68 68.83
  Q 232.02 68.98 231.87 69.31
  Q 231.19 70.80 232.37 72.03
  Q 232.42 72.08 232.37 72.13
  Q 232.27 72.23 232.16 72.34
  Q 232.07 72.43 232.15 72.54
  Q 233.51 74.23 233.18 76.47
  A 1.24 1.24 0.0 0 0 233.43 77.42
  Q 235.01 79.49 234.15 82.02
  Q 234.12 82.12 234.20 82.20
  Q 234.35 82.35 234.50 82.52
  Q 234.74 82.80 234.75 83.17
  L 235.25 102.80
  Q 235.26 102.94 235.39 102.94
  L 235.64 102.94
  Q 235.77 102.94 235.78 102.81
  Q 235.89 94.07 235.86 85.34
  Q 235.85 82.58 235.12 79.25
  Q 234.46 76.23 234.05 73.17
  Q 234.05 73.13 234.07 73.13
  Q 234.09 73.13 234.10 73.13
  Q 234.16 73.12 234.15 73.17
  Q 233.88 74.80 234.63 74.79
  Q 237.18 79.75 236.14 85.74
  C 235.80 87.74 236.40 90.42 236.16 92.74
  Q 235.70 97.02 235.88 101.34
  C 235.94 102.83 235.56 104.40 235.59 106.00
  Q 236.01 136.75 235.99 167.50
  Q 235.98 172.73 234.73 177.82
  Q 234.72 177.86 234.75 177.86
  Q 234.77 177.86 234.79 177.87
  Q 234.90 177.88 234.86 177.75
  Q 234.51 176.37 235.14 175.15
  Q 235.29 174.86 234.96 174.86
  L 234.55 174.87
  Q 234.29 174.87 234.25 175.13
  C 234.04 176.57 234.20 177.90 233.92 179.29
  Q 233.31 182.32 233.40 185.41
  Q 233.40 185.62 233.51 185.81
  Q 233.60 185.98 233.68 186.15
  A 1.94 1.90 33.1 0 1 233.89 187.10
  C 233.81 189.10 233.86 192.96 237.16 192.63
  Q 234.53 196.00 231.24 197.97
  C 219.40 205.08 205.46 212.50 195.27 218.40
  Q 177.64 228.62 160.12 239.02
  C 153.98 242.67 146.28 246.56 139.52 250.67
  C 137.50 251.90 135.37 252.61 133.21 253.62
  A 2.16 2.07 4.7 0 0 132.46 254.23
  C 130.63 256.62 124.57 255.29 122.10 254.08
  Q 125.29 253.96 127.99 254.39
  Q 130.21 254.74 131.43 253.01
  Q 131.66 252.70 132.00 252.52
  Q 133.23 251.91 132.32 250.62
  Q 132.06 250.26 131.68 250.04
  Q 128.15 248.04 128.02 243.75
  C 127.89 239.43 126.57 235.19 126.95 230.44
  C 127.56 223.03 127.76 215.68 128.02 208.25
  C 128.13 205.09 126.92 202.49 126.91 199.48
  Q 126.90 197.93 126.58 196.42
  Q 125.98 193.66 125.77 191.98
  Q 125.25 187.68 122.96 184.51
  Q 122.28 183.56 120.93 184.01
  Q 120.53 184.15 120.41 183.74
  Q 120.13 182.77 119.34 183.11
  C 115.34 176.26 108.33 170.85 102.61 165.38
  C 97.51 160.52 97.26 150.27 98.19 143.89
  C 98.91 138.95 99.95 132.55 94.80 129.61
  Q 86.73 124.99 79.28 119.45
  C 74.58 115.96 67.10 120.27 63.42 123.50
  Q 58.72 127.62 53.42 130.94
  C 51.01 132.45 44.39 137.15 46.04 140.46
  C 48.32 145.02 51.84 149.30 54.55 154.65
  Q 52.87 155.58 52.47 157.03
  Q 52.27 157.71 52.66 158.90
  Q 52.95 159.81 53.16 160.75
  Q 53.51 162.35 52.39 162.99
  A 0.95 0.94 -13.0 0 0 51.92 163.73
  C 51.81 165.22 50.02 165.92 48.72 166.13
  A 0.99 0.96 -31.3 0 1 47.98 165.96
  Q 46.67 165.06 45.06 165.41
  Q 44.59 165.52 44.14 165.32
  Q 40.72 163.85 36.95 163.93
  Q 36.39 163.94 35.94 163.61
  Q 35.45 163.25 34.99 163.49
  Q 34.52 163.73 34.02 163.57
  Q 31.85 162.90 29.57 162.88
  C 28.35 162.87 27.49 162.42 26.39 162.00
  Q 25.99 161.85 23.97 161.49
  Q 22.61 161.26 21.53 160.20
  A 1.14 1.10 66.4 0 0 20.75 159.88
  L 17.51 159.88
  Q 16.94 159.88 17.05 160.43
  Q 17.37 162.01 16.54 163.30
  Q 16.53 123.51 16.52 83.75
  C 16.52 80.76 15.59 62.35 20.92 60.07
  C 25.60 58.07 30.75 54.58 33.96 52.74
  Q 50.27 43.40 66.47 33.87
  C 69.85 31.89 76.75 28.34 81.68 25.24
  C 86.55 22.17 91.72 19.72 96.57 16.57
  C 100.84 13.80 105.35 11.48 109.61 8.66
  C 112.61 6.67 116.40 5.09 119.52 2.77
  Q 122.29 0.70 124.15 0.38
  Q 127.51 -0.20 130.87 1.14
  Q 131.07 1.23 131.11 1.44
  Q 131.14 1.62 131.04 1.73
  Z
  M 157.23 151.11
  Q 157.89 159.84 152.04 166.01
  Q 148.57 169.66 144.70 172.86
  C 140.59 176.26 134.63 182.19 138.12 187.90
  C 140.36 191.55 141.35 194.09 144.96 196.34
  C 149.41 199.10 152.55 203.22 157.88 204.91
  C 160.78 205.84 163.63 205.19 166.51 204.54
  C 172.54 203.18 175.84 195.34 178.46 190.50
  Q 180.18 187.32 182.44 183.69
  C 185.52 178.75 188.32 173.02 191.02 168.49
  Q 196.72 158.93 202.10 149.18
  C 203.42 146.79 208.50 141.17 207.45 138.49
  C 205.85 134.41 200.62 131.12 197.17 128.35
  C 192.97 124.97 187.64 121.65 183.18 117.90
  A 3.79 3.79 0.0 0 0 178.60 117.66
  Q 175.85 119.54 172.85 121.38
  C 168.95 123.77 165.20 126.81 161.17 129.32
  C 158.35 131.08 156.87 132.77 156.78 136.00
  Q 156.60 142.68 157.23 151.11
  Z" fill="#001449"></path>
<path d="M 131.04 1.73
  Q 131.26 1.52 131.52 1.72
  Q 134.45 3.96 137.64 5.80
  C 159.25 18.29 180.65 31.27 202.48 43.38
  Q 212.15 48.73 221.80 54.11
  Q 226.53 56.74 230.65 59.71
  Q 229.46 60.09 231.40 62.65
  Q 231.59 62.90 231.83 63.08
  Q 232.25 63.39 232.36 63.89
  Q 232.58 64.93 232.62 65.02
  Q 234.58 69.69 234.63 74.79
  Q 233.88 74.80 234.15 73.17
  Q 234.16 73.12 234.10 73.13
  Q 234.09 73.13 234.07 73.13
  Q 234.05 73.13 234.05 73.17
  Q 234.46 76.23 235.12 79.25
  Q 235.85 82.58 235.86 85.34
  Q 235.89 94.07 235.78 102.81
  Q 235.77 102.94 235.64 102.94
  L 235.39 102.94
  Q 235.26 102.94 235.25 102.80
  L 234.75 83.17
  Q 234.74 82.80 234.50 82.52
  Q 234.35 82.35 234.20 82.20
  Q 234.12 82.12 234.15 82.02
  Q 235.01 79.49 233.43 77.42
  A 1.24 1.24 0.0 0 1 233.18 76.47
  Q 233.51 74.23 232.15 72.54
  Q 232.07 72.43 232.16 72.34
  Q 232.27 72.23 232.37 72.13
  Q 232.42 72.08 232.37 72.03
  Q 231.19 70.80 231.87 69.31
  Q 232.02 68.98 231.68 68.83
  Q 231.55 68.78 231.42 68.71
  Q 231.19 68.58 231.29 68.34
  Q 231.54 67.74 230.99 67.07
  A 1.07 1.07 0.0 0 0 229.10 67.72
  Q 229.08 68.43 228.41 68.93
  Q 228.09 69.17 227.89 69.53
  Q 227.28 70.67 226.10 71.46
  A 1.41 1.38 -54.3 0 1 224.96 71.66
  Q 224.72 71.60 224.55 71.62
  Q 223.87 71.68 223.88 71.00
  Q 223.88 70.87 223.88 70.74
  Q 223.88 70.61 223.75 70.60
  Q 222.42 70.44 220.75 69.64
  Q 220.45 69.50 220.08 69.66
  Q 219.68 69.84 219.37 69.53
  Q 218.29 68.45 217.00 68.52
  Q 210.63 68.85 204.25 69.03
  Q 197.47 69.22 192.75 68.87
  Q 190.04 68.67 187.85 69.71
  Q 187.43 69.90 186.96 69.87
  Q 185.86 69.79 184.96 70.48
  A 0.78 0.76 -61.8 0 1 184.52 70.62
  L 183.72 70.62
  Q 183.27 70.62 182.93 70.92
  Q 180.74 72.89 178.09 74.20
  Q 176.60 74.94 176.15 74.83
  Q 175.36 74.64 174.13 73.68
  Q 172.58 68.19 171.60 61.73
  C 171.07 58.25 167.90 57.10 164.75 56.80
  C 156.50 56.00 148.25 56.49 140.03 56.24
  Q 140.17 55.12 138.99 54.32
  Q 138.33 53.88 137.06 53.76
  Q 133.39 53.42 129.77 52.18
  A 1.11 1.10 0.6 0 1 129.09 51.49
  C 128.40 49.42 128.37 47.17 127.71 44.58
  C 126.68 40.58 127.19 35.54 126.73 31.32
  C 126.32 27.48 126.54 23.14 125.85 19.01
  Q 125.28 15.60 127.25 5.26
  C 127.59 3.46 128.82 1.29 131.04 1.73
  Z" fill="#002768"></path>
<path d="M 140.03 56.24
  C 148.25 56.49 156.50 56.00 164.75 56.80
  C 167.90 57.10 171.07 58.25 171.60 61.73
  Q 172.58 68.19 174.13 73.68
  Q 176.82 84.93 179.07 95.48
  Q 179.45 97.28 179.05 98.83
  A 1.99 1.99 0.0 0 1 177.13 100.31
  L 165.33 100.31
  Q 151.35 99.89 137.43 99.33
  C 127.19 98.91 117.61 99.21 107.66 99.60
  C 103.76 99.75 99.91 99.00 95.98 99.10
  Q 87.04 99.34 77.29 99.65
  Q 74.25 97.67 76.22 91.75
  C 79.36 82.28 80.18 70.77 82.30 61.53
  C 83.43 56.64 95.66 56.41 99.50 56.39
  Q 119.68 56.31 140.03 56.24
  Z" fill="#ffffff"></path>
<path d="M 230.65 59.71
  C 238.18 64.14 239.65 70.69 239.66 79.00
  Q 239.70 117.00 239.98 155.00
  Q 240.05 164.49 239.78 180.25
  Q 239.65 187.59 237.16 192.63
  C 233.86 192.96 233.81 189.10 233.89 187.10
  A 1.94 1.90 33.1 0 0 233.68 186.15
  Q 233.60 185.98 233.51 185.81
  Q 233.40 185.62 233.40 185.41
  Q 233.31 182.32 233.92 179.29
  C 234.20 177.90 234.04 176.57 234.25 175.13
  Q 234.29 174.87 234.55 174.87
  L 234.96 174.86
  Q 235.29 174.86 235.14 175.15
  Q 234.51 176.37 234.86 177.75
  Q 234.90 177.88 234.79 177.87
  Q 234.77 177.86 234.75 177.86
  Q 234.72 177.86 234.73 177.82
  Q 235.98 172.73 235.99 167.50
  Q 236.01 136.75 235.59 106.00
  C 235.56 104.40 235.94 102.83 235.88 101.34
  Q 235.70 97.02 236.16 92.74
  C 236.40 90.42 235.80 87.74 236.14 85.74
  Q 237.18 79.75 234.63 74.79
  Q 234.58 69.69 232.62 65.02
  Q 232.58 64.93 232.36 63.89
  Q 232.25 63.39 231.83 63.08
  Q 231.59 62.90 231.40 62.65
  Q 229.46 60.09 230.65 59.71
  Z" fill-opacity="0.996" fill="#466ea2"></path>
<path d="M 165.33 100.31
  L 150.02 100.83
  A 0.43 0.43 0.0 0 0 149.77 101.60
  Q 150.32 102.02 149.36 102.86
  Q 148.86 103.30 148.44 103.87
  Q 148.19 104.21 148.55 104.42
  Q 149.10 104.74 149.19 105.27
  Q 149.27 105.76 149.61 106.11
  L 151.56 108.18
  C 143.17 107.13 132.23 107.80 124.07 108.06
  C 117.27 108.29 110.63 107.57 103.86 107.45
  A 1.51 1.50 -86.9 0 0 102.34 108.82
  Q 102.09 111.64 103.12 114.97
  Q 101.86 113.61 101.78 111.88
  Q 101.77 111.63 101.51 111.63
  Q 101.36 111.63 101.21 111.63
  Q 100.96 111.62 100.93 111.37
  Q 100.52 107.42 100.05 103.48
  Q 99.30 103.42 99.63 102.34
  A 0.73 0.46 77.1 0 0 98.76 101.48
  Q 98.70 101.62 98.65 101.74
  Q 98.59 101.90 98.45 101.81
  Q 94.75 99.41 90.70 101.08
  Q 90.22 101.28 89.74 101.10
  C 88.59 100.68 87.69 101.14 86.75 101.14
  C 84.85 101.13 80.34 101.59 78.82 100.68
  Q 78.03 100.21 77.29 99.65
  Q 87.04 99.34 95.98 99.10
  C 99.91 99.00 103.76 99.75 107.66 99.60
  C 117.61 99.21 127.19 98.91 137.43 99.33
  Q 151.35 99.89 165.33 100.31
  Z" fill="#002768"></path>
<path d="M 151.56 108.18
  Q 153.09 112.50 150.79 117.75
  C 147.68 124.80 145.02 129.92 145.37 138.00
  Q 145.60 143.28 146.34 148.51
  C 147.01 153.32 146.58 159.12 140.25 159.42
  C 135.12 159.67 130.10 159.39 124.92 159.64
  Q 119.31 159.91 112.01 159.69
  C 106.62 159.52 105.83 155.48 106.74 151.04
  C 108.15 144.21 110.21 134.66 107.44 128.06
  Q 104.76 121.66 103.12 114.97
  Q 102.09 111.64 102.34 108.82
  A 1.51 1.50 -86.9 0 1 103.86 107.45
  C 110.63 107.57 117.27 108.29 124.07 108.06
  C 132.23 107.80 143.17 107.13 151.56 108.18
  Z" fill="#ffffff"></path>
<path d="M 157.23 151.11
  Q 156.60 142.68 156.78 136.00
  C 156.87 132.77 158.35 131.08 161.17 129.32
  C 165.20 126.81 168.95 123.77 172.85 121.38
  Q 175.85 119.54 178.60 117.66
  A 3.79 3.79 0.0 0 1 183.18 117.90
  C 187.64 121.65 192.97 124.97 197.17 128.35
  C 200.62 131.12 205.85 134.41 207.45 138.49
  C 208.50 141.17 203.42 146.79 202.10 149.18
  Q 196.72 158.93 191.02 168.49
  C 188.32 173.02 185.52 178.75 182.44 183.69
  Q 180.18 187.32 178.46 190.50
  C 175.84 195.34 172.54 203.18 166.51 204.54
  C 163.63 205.19 160.78 205.84 157.88 204.91
  C 152.55 203.22 149.41 199.10 144.96 196.34
  C 141.35 194.09 140.36 191.55 138.12 187.90
  C 134.63 182.19 140.59 176.26 144.70 172.86
  Q 148.57 169.66 152.04 166.01
  Q 157.89 159.84 157.23 151.11
  Z" fill="#ffffff"></path>
<path d="M 119.34 183.11
  Q 119.07 187.69 115.03 191.54
  Q 109.79 196.54 104.51 201.51
  Q 99.57 206.15 93.92 206.24
  C 86.21 206.37 84.44 207.20 80.57 200.45
  C 71.85 185.24 63.64 169.63 54.55 154.65
  C 51.84 149.30 48.32 145.02 46.04 140.46
  C 44.39 137.15 51.01 132.45 53.42 130.94
  Q 58.72 127.62 63.42 123.50
  C 67.10 120.27 74.58 115.96 79.28 119.45
  Q 86.73 124.99 94.80 129.61
  C 99.95 132.55 98.91 138.95 98.19 143.89
  C 97.26 150.27 97.51 160.52 102.61 165.38
  C 108.33 170.85 115.34 176.26 119.34 183.11
  Z" fill="#ffffff"></path>
<path d="M 54.55 154.65
  C 63.64 169.63 71.85 185.24 80.57 200.45
  C 84.44 207.20 86.21 206.37 93.92 206.24
  Q 99.57 206.15 104.51 201.51
  Q 109.79 196.54 115.03 191.54
  Q 119.07 187.69 119.34 183.11
  Q 120.13 182.77 120.41 183.74
  Q 120.53 184.15 120.93 184.01
  Q 122.28 183.56 122.96 184.51
  Q 125.25 187.68 125.77 191.98
  Q 125.98 193.66 126.58 196.42
  Q 126.90 197.93 126.91 199.48
  C 126.92 202.49 128.13 205.09 128.02 208.25
  C 127.76 215.68 127.56 223.03 126.95 230.44
  C 126.57 235.19 127.89 239.43 128.02 243.75
  Q 128.15 248.04 131.68 250.04
  Q 132.06 250.26 132.32 250.62
  Q 133.23 251.91 132.00 252.52
  Q 131.66 252.70 131.43 253.01
  Q 130.21 254.74 127.99 254.39
  Q 125.29 253.96 122.10 254.08
  Q 114.15 250.70 106.44 245.53
  Q 107.54 245.16 108.43 245.50
  Q 108.81 245.65 108.57 245.39
  Q 108.46 245.28 108.17 245.26
  Q 107.83 245.23 107.73 244.91
  Q 107.47 244.12 106.55 244.37
  A 1.21 1.20 61.0 0 1 105.37 244.03
  L 103.35 241.89
  Q 102.94 241.45 103.52 241.61
  C 107.13 242.61 108.25 244.95 110.88 246.55
  A 0.84 0.84 0.0 0 1 111.28 247.19
  Q 111.31 247.49 111.44 247.66
  Q 112.04 248.47 111.81 247.39
  Q 111.63 246.54 110.80 246.00
  A 0.84 0.84 0.0 0 1 110.41 245.31
  Q 110.40 244.34 109.50 243.90
  Q 107.84 243.09 106.25 242.22
  Q 106.16 242.17 103.33 241.09
  Q 101.56 240.41 100.59 238.59
  Q 100.39 238.22 99.99 238.09
  Q 99.73 238.01 99.53 237.72
  Q 98.29 235.96 96.06 235.61
  Q 95.57 235.53 95.16 235.25
  Q 92.92 233.69 90.24 233.36
  Q 89.67 233.29 89.18 232.99
  Q 88.40 232.51 88.02 231.63
  A 0.92 0.91 85.1 0 0 87.41 231.11
  Q 82.65 229.84 78.37 227.39
  Q 77.97 227.16 77.49 227.11
  C 76.67 227.04 75.89 226.26 75.31 226.00
  Q 72.99 224.95 71.10 223.24
  C 70.14 222.37 69.11 222.23 68.09 221.41
  Q 67.72 221.11 67.25 221.10
  Q 66.38 221.08 66.10 220.91
  Q 58.30 216.06 50.17 211.77
  C 48.02 210.63 46.43 209.32 44.36 207.45
  C 42.70 205.96 40.82 206.09 39.25 205.25
  Q 37.87 204.50 36.59 203.61
  Q 36.27 203.39 35.88 203.41
  Q 34.79 203.45 34.25 202.56
  Q 34.05 202.22 33.68 202.07
  Q 31.70 201.28 30.01 199.96
  Q 29.65 199.67 29.19 199.62
  Q 27.88 199.47 28.05 200.20
  Q 22.33 197.36 20.34 196.16
  C 17.06 194.18 16.57 188.12 16.53 184.75
  Q 16.42 174.01 16.54 163.30
  Q 17.37 162.01 17.05 160.43
  Q 16.94 159.88 17.51 159.88
  L 20.75 159.88
  A 1.14 1.10 66.4 0 1 21.53 160.20
  Q 22.61 161.26 23.97 161.49
  Q 25.99 161.85 26.39 162.00
  C 27.49 162.42 28.35 162.87 29.57 162.88
  Q 31.85 162.90 34.02 163.57
  Q 34.52 163.73 34.99 163.49
  Q 35.45 163.25 35.94 163.61
  Q 36.39 163.94 36.95 163.93
  Q 40.72 163.85 44.14 165.32
  Q 44.59 165.52 45.06 165.41
  Q 46.67 165.06 47.98 165.96
  A 0.99 0.96 -31.3 0 0 48.72 166.13
  C 50.02 165.92 51.81 165.22 51.92 163.73
  A 0.95 0.94 -13.0 0 1 52.39 162.99
  Q 53.51 162.35 53.16 160.75
  Q 52.95 159.81 52.66 158.90
  Q 52.27 157.71 52.47 157.03
  Q 52.87 155.58 54.55 154.65
  Z" fill="#002768"></path>
<path d="M 106.44 245.53
  L 28.05 200.20
  Q 27.88 199.47 29.19 199.62
  Q 29.65 199.67 30.01 199.96
  Q 31.70 201.28 33.68 202.07
  Q 34.05 202.22 34.25 202.56
  Q 34.79 203.45 35.88 203.41
  Q 36.27 203.39 36.59 203.61
  Q 37.87 204.50 39.25 205.25
  C 40.82 206.09 42.70 205.96 44.36 207.45
  C 46.43 209.32 48.02 210.63 50.17 211.77
  Q 58.30 216.06 66.10 220.91
  Q 66.38 221.08 67.25 221.10
  Q 67.72 221.11 68.09 221.41
  C 69.11 222.23 70.14 222.37 71.10 223.24
  Q 72.99 224.95 75.31 226.00
  C 75.89 226.26 76.67 227.04 77.49 227.11
  Q 77.97 227.16 78.37 227.39
  Q 82.65 229.84 87.41 231.11
  A 0.92 0.91 85.1 0 1 88.02 231.63
  Q 88.40 232.51 89.18 232.99
  Q 89.67 233.29 90.24 233.36
  Q 92.92 233.69 95.16 235.25
  Q 95.57 235.53 96.06 235.61
  Q 98.29 235.96 99.53 237.72
  Q 99.73 238.01 99.99 238.09
  Q 100.39 238.22 100.59 238.59
  Q 101.56 240.41 103.33 241.09
  Q 106.16 242.17 106.25 242.22
  Q 107.84 243.09 109.50 243.90
  Q 110.40 244.34 110.41 245.31
  A 0.84 0.84 0.0 0 0 110.80 246.00
  Q 111.63 246.54 111.81 247.39
  Q 112.04 248.47 111.44 247.66
  Q 111.31 247.49 111.28 247.19
  A 0.84 0.84 0.0 0 0 110.88 246.55
  C 108.25 244.95 107.13 242.61 103.52 241.61
  Q 102.94 241.45 103.35 241.89
  L 105.37 244.03
  A 1.21 1.20 61.0 0 0 106.55 244.37
  Q 107.47 244.12 107.73 244.91
  Q 107.83 245.23 108.17 245.26
  Q 108.46 245.28 108.57 245.39
  Q 108.81 245.65 108.43 245.50
  Q 107.54 245.16 106.44 245.53
  Z" fill-opacity="0.996" fill="#466ea2"></path>
</svg>
