<svg viewBox="0.00 0.00 180.00 180.00" version="1.1" xmlns="http://www.w3.org/2000/svg">
<g stroke-linecap="butt" fill="none" stroke-width="2.00">
<path d="M 140.34 100.21
  L 138.31 98.63" stroke="#7f8081"></path>
<path d="M 130.09 97.28
  L 126.82 105.67" stroke="#7f8081"></path>
<path d="M 119.40 132.43
  L 117.92 137.10" stroke="#7f8081"></path>
<path d="M 140.68 105.54
  L 139.57 113.16" stroke="#7f8081"></path>
<path d="M 128.32 151.44
  L 127.06 151.78" stroke="#7f8081"></path>
<path d="M 127.69 148.52
  Q 128.32 147.94 129.04 147.76" stroke="#7f8081"></path>
<path d="M 138.76 139.25
  Q 139.31 139.26 139.30 138.75
  Q 139.16 129.72 139.82 121.83" stroke="#7f8081"></path>
<path d="M 58.27 29.37
  L 52.59 35.11" stroke="#7f8081"></path>
<path d="M 52.28 42.48
  Q 51.92 43.52 53.04 43.56
  A 0.70 0.68 21.9 0 0 53.60 43.33
  Q 55.47 41.29 58.23 40.99
  A 1.70 1.68 20.2 0 0 59.20 40.55
  Q 60.72 39.17 62.36 37.94
  Q 62.40 37.90 62.45 37.93
  Q 62.59 37.98 62.72 38.04
  A 0.20 0.19 -58.8 0 1 62.79 38.34
  C 53.88 49.15 50.62 63.42 55.04 76.99
  Q 55.20 77.47 55.69 77.32
  C 59.81 76.06 64.09 75.07 68.39 74.72
  Q 68.58 74.70 68.57 74.51
  L 68.57 74.51
  Q 68.56 74.32 68.37 74.32
  Q 63.00 74.40 57.62 74.81
  Q 56.32 74.90 56.47 73.63
  Q 56.50 73.40 56.27 73.45
  Q 56.10 73.49 55.93 73.51
  Q 55.50 73.56 55.43 73.13
  Q 55.31 72.34 55.93 71.84
  Q 56.33 71.51 57.17 71.53
  C 61.65 71.68 66.40 70.87 71.71 72.29
  Q 72.36 72.46 72.66 71.86
  L 73.49 70.21
  Q 73.86 69.47 74.05 70.28
  L 75.88 78.04
  Q 76.00 78.57 76.48 78.30
  Q 78.65 77.09 81.14 77.26
  Q 81.66 77.30 81.66 76.78
  Q 81.68 75.03 82.39 73.42
  A 0.80 0.78 -55.7 0 0 82.24 72.57
  Q 80.09 70.32 79.48 67.24
  Q 79.00 64.81 80.67 66.64
  Q 81.88 67.97 83.75 68.38
  A 0.55 0.55 0.0 0 0 84.41 67.94
  Q 84.53 67.29 85.88 66.41
  Q 89.15 64.31 92.80 63.04
  C 95.42 62.12 97.45 60.67 99.68 59.62
  A 4.34 4.31 44.2 0 1 103.29 59.58
  L 105.24 60.45
  Q 107.10 61.27 105.22 62.04
  Q 99.72 64.30 94.66 67.45
  A 0.24 0.24 0.0 0 0 94.85 67.88
  Q 99.97 66.55 105.56 66.79
  C 109.76 66.97 114.11 64.27 117.87 62.36
  Q 118.70 61.94 118.74 61.01
  Q 118.89 57.69 120.25 54.61
  Q 120.49 54.07 120.44 54.66
  L 119.92 60.84
  A 0.40 0.40 0.0 0 0 120.47 61.24
  Q 123.46 59.98 126.23 58.60
  C 128.12 57.67 130.12 58.36 131.88 57.43
  C 135.34 55.58 134.07 52.23 132.31 49.44
  C 130.46 46.52 129.35 44.42 128.32 40.68
  C 127.09 36.23 124.66 32.96 121.34 29.86
  C 119.01 27.68 115.95 28.17 113.20 28.30
  A 1.49 1.49 0.0 0 1 111.69 27.17
  C 110.37 21.91 104.88 23.82 101.77 25.87" stroke="#7f8081"></path>
<path d="M 97.47 24.35
  C 90.41 20.46 76.57 15.42 70.23 23.55" stroke="#7f8081"></path>
<path d="M 97.37 28.37
  Q 97.19 28.95 97.26 29.26
  Q 97.32 29.54 97.89 29.57
  Q 100.18 29.71 101.36 31.42
  Q 103.70 34.78 106.83 36.63
  C 113.20 40.42 119.06 46.58 120.12 53.50
  Q 120.27 54.48 120.56 53.53
  C 122.08 48.58 120.78 43.06 115.72 40.75
  C 112.36 39.21 108.18 36.92 106.02 33.85
  C 104.92 32.29 104.13 30.55 102.48 29.47
  Q 101.50 28.82 100.68 28.13" stroke="#7f8081"></path>
<path d="M 61.07 30.59
  Q 57.54 33.37 55.73 37.25
  Q 55.63 37.46 55.76 37.65
  Q 55.84 37.76 55.90 37.89
  A 0.26 0.26 0.0 0 0 56.34 37.93
  Q 60.58 32.41 67.24 33.84
  C 69.00 34.22 70.54 35.42 71.04 37.10
  A 1.47 1.47 0.0 0 0 73.40 37.79
  Q 80.18 31.95 89.22 32.07
  Q 89.32 32.08 89.37 31.98
  Q 89.45 31.84 89.52 31.71
  Q 89.65 31.51 89.42 31.44
  Q 81.69 28.80 74.97 33.05
  A 1.54 1.51 -43.1 0 1 73.26 33.01
  Q 70.12 30.76 66.01 29.86" stroke="#7f8081"></path>
<path d="M 48.54 61.54
  L 48.29 59.07
  Q 48.22 58.32 47.51 58.08
  L 47.22 57.98
  A 0.38 0.38 0.0 0 0 46.71 58.32
  Q 46.58 61.26 45.48 63.99
  Q 45.30 64.43 45.75 64.59
  Q 47.39 65.14 48.21 63.51" stroke="#7f8081"></path>
<path d="M 134.45 57.94
  Q 133.85 57.77 133.26 58.09
  Q 121.20 64.58 109.39 71.58
  Q 108.94 71.84 108.90 72.36
  C 108.46 78.67 110.12 82.99 103.52 86.79
  Q 100.16 88.72 97.06 88.78
  Q 93.86 88.83 96.73 90.24
  Q 101.68 92.67 106.30 95.17
  C 111.76 98.14 108.88 101.06 109.95 105.53
  Q 110.63 108.36 112.12 110.61
  Q 113.20 112.24 111.39 111.51
  Q 107.39 109.90 105.47 105.25
  C 104.72 103.43 103.65 102.69 101.76 103.36
  C 94.02 106.12 87.15 108.51 78.75 108.29
  C 74.03 108.17 74.73 114.89 75.34 117.69
  Q 75.37 117.84 75.28 117.72
  Q 71.57 112.80 72.38 106.61
  A 0.76 0.76 0.0 0 1 73.69 106.19
  C 74.59 107.16 75.53 107.47 76.91 107.33
  Q 90.67 105.93 103.76 101.50
  C 104.83 101.13 105.73 101.24 106.81 101.31
  A 0.41 0.41 0.0 0 0 107.19 100.68
  C 104.99 97.14 99.38 95.14 95.74 93.36
  Q 95.38 93.18 94.98 93.21
  Q 94.27 93.26 94.23 92.51
  Q 94.14 90.67 93.52 89.30
  Q 93.30 88.82 92.81 88.61
  Q 87.63 86.40 84.00 82.15
  C 82.16 80.00 80.38 79.40 77.89 80.63
  Q 77.42 80.86 77.39 81.38
  C 77.01 86.67 73.87 91.38 74.70 96.24
  Q 74.73 96.46 74.85 96.55
  Q 75.13 96.80 75.15 96.42
  Q 75.20 95.53 75.89 95.13
  Q 76.28 94.91 77.14 95.01
  Q 79.98 95.35 82.14 93.78
  A 0.82 0.82 0.0 0 1 83.45 94.47
  L 83.37 96.75
  A 0.66 0.66 0.0 0 0 84.07 97.43
  Q 85.01 97.37 85.75 96.80
  Q 86.19 96.46 86.25 97.02
  L 86.31 97.61
  A 0.49 0.49 0.0 0 1 86.02 98.10
  C 82.53 99.69 79.59 97.66 75.56 97.53
  Q 74.95 97.51 74.72 98.08
  L 70.55 108.48
  A 0.59 0.59 0.0 0 1 69.53 108.61
  L 69.20 108.17
  Q 68.43 107.14 68.79 105.90
  C 71.56 96.23 68.17 96.46 60.23 95.76
  A 0.44 0.44 0.0 0 0 59.79 96.39
  Q 63.66 104.56 67.51 112.65
  C 69.19 116.17 72.02 121.86 76.67 122.22
  Q 77.18 122.26 77.55 122.62
  C 80.17 125.12 82.29 127.69 85.80 124.28
  C 86.67 123.43 86.57 122.51 86.92 121.37
  Q 86.99 121.12 87.25 121.14
  A 0.43 0.43 0.0 0 1 87.66 121.55
  Q 87.85 124.42 90.98 123.71
  Q 95.21 122.75 99.45 123.60
  Q 99.95 123.71 100.46 123.63
  L 102.49 123.33
  A 0.26 0.26 0.0 0 1 102.67 123.80
  Q 98.83 126.56 97.01 127.03
  C 94.45 127.68 95.72 130.60 96.52 132.03
  A 0.71 0.71 0.0 0 0 97.64 132.18
  Q 99.66 130.19 102.16 128.70
  C 105.65 126.62 106.89 123.12 109.12 120.26
  A 0.51 0.51 0.0 0 0 108.96 119.49
  Q 107.67 118.77 107.61 117.94
  Q 107.55 117.15 108.67 116.65
  Q 109.79 116.15 111.05 116.03
  Q 111.55 115.98 111.91 116.23
  Q 112.38 116.57 112.50 116.99
  A 1.16 1.16 0.0 0 0 114.39 117.55
  C 118.53 113.85 121.67 108.14 124.75 103.53
  C 128.41 98.04 129.14 95.23 128.45 88.67" stroke="#7f8081"></path>
<path d="M 134.95 59.28
  Q 134.14 59.77 133.25 60.03
  Q 132.64 60.20 132.53 60.99
  Q 132.47 61.43 132.91 61.54
  Q 134.01 61.80 134.33 62.95
  Q 135.07 65.53 135.82 68.04" stroke="#7f8081"></path>
<path d="M 134.75 71.57
  Q 132.77 69.06 129.72 67.90
  Q 129.17 67.69 128.93 68.22
  C 127.88 70.43 130.50 72.65 131.41 74.68
  A 0.73 0.72 58.0 0 1 131.22 75.53
  Q 128.61 77.78 128.72 80.10
  Q 128.88 83.53 130.56 80.53
  Q 130.84 80.04 132.89 78.35" stroke="#7f8081"></path>
<path d="M 91.2069 64.8207
  A 1.42 0.51 -42.5 0 0 89.8154 65.4040
  A 1.42 0.51 -42.5 0 0 89.1131 66.7393
  A 1.42 0.51 -42.5 0 0 90.5046 66.1560
  A 1.42 0.51 -42.5 0 0 91.2069 64.8207" stroke="#7f8081"></path>
<path d="M 94.25 70.19
  A 0.76 0.76 0.0 0 0 94.11 71.66
  L 95.92 72.25
  A 0.76 0.76 0.0 0 0 96.16 72.29
  L 105.36 72.20
  A 0.76 0.76 0.0 0 0 105.67 70.75
  L 102.50 69.30
  A 0.76 0.76 0.0 0 0 102.10 69.24
  L 94.25 70.19" stroke="#7f8081"></path>
<path d="M 102.34 79.69
  Q 104.32 80.24 102.37 80.89
  C 98.96 82.02 92.60 82.80 89.68 79.57
  Q 87.38 77.03 84.78 74.76
  Q 84.33 74.37 84.24 74.96
  C 83.29 81.28 89.21 86.26 94.99 86.67
  C 103.83 87.31 107.77 82.52 106.87 74.23
  Q 106.81 73.71 106.29 73.71
  L 101.91 73.72
  Q 101.38 73.73 100.93 74.00
  Q 97.68 76.00 93.85 76.19
  A 0.71 0.70 7.3 0 0 93.22 76.67
  Q 92.89 77.62 94.08 77.84
  Q 98.77 78.70 102.34 79.69" stroke="#7f8081"></path>
<path d="M 60.42 83.32
  C 60.61 81.32 65.36 79.68 66.73 79.25
  Q 70.55 78.05 66.57 77.60
  Q 62.46 77.14 56.90 79.11
  A 0.57 0.57 0.0 0 0 56.56 79.85
  Q 58.78 85.60 58.26 91.79
  Q 58.13 93.45 59.75 93.82
  C 66.92 95.45 76.63 93.32 74.98 83.72
  Q 74.88 83.14 74.42 83.50
  C 71.00 86.19 69.37 87.31 65.24 88.45
  Q 63.65 88.89 65.01 87.96
  C 67.20 86.47 69.81 84.78 71.05 82.31
  A 0.40 0.40 0.0 0 0 70.59 81.75
  Q 67.39 82.64 64.16 82.60
  C 63.05 82.58 62.15 83.08 61.48 83.80
  Q 60.25 85.10 60.42 83.32" stroke="#7f8081"></path>
<path d="M 51.59 85.25
  Q 52.91 89.32 56.25 92.00
  Q 56.87 92.50 56.97 91.71
  Q 57.63 86.29 55.74 81.11
  Q 55.00 79.08 53.44 80.57
  L 52.58 81.39
  Q 50.86 83.01 51.59 85.25" stroke="#7f8081"></path>
<path d="M 114.30 123.78
  L 102.70 134.33" stroke="#7f8081"></path>
<path d="M 100.37 135.85
  L 95.77 135.27" stroke="#7f8081"></path>
<path d="M 94.19 137.86
  L 101.04 136.99" stroke="#7f8081"></path>
<path d="M 105.12 136.57
  Q 112.12 134.93 114.63 131.76" stroke="#7f8081"></path>
<path d="M 118.25 122.03
  L 120.33 116.58
  Q 120.77 115.41 119.94 116.34
  Q 118.60 117.85 117.57 119.73" stroke="#7f8081"></path>
<path d="M 120.80 70.74
  A 0.71 0.71 0.0 0 1 119.72 70.04
  Q 119.91 68.82 119.45 67.73
  A 0.23 0.23 0.0 0 0 119.00 67.82
  L 119.00 70.92
  Q 119.00 71.58 119.65 71.46
  L 123.04 70.83
  Q 123.10 70.82 123.09 70.75
  L 123.07 70.48
  A 0.29 0.29 0.0 0 0 122.80 70.21
  Q 121.72 70.15 120.80 70.74" stroke="#7f8081"></path>
<path d="M 93.1259 93.5930
  A 0.27 0.27 0.0 0 0 92.8403 93.3394
  L 86.3717 93.7238
  A 0.27 0.27 0.0 0 0 86.1182 94.0093
  L 86.1941 95.2870
  A 0.27 0.27 0.0 0 0 86.4797 95.5406
  L 92.9483 95.1562
  A 0.27 0.27 0.0 0 0 93.2018 94.8707
  L 93.1259 93.5930" stroke="#7f8081"></path>
<path d="M 82.60 118.04
  C 86.68 114.81 93.13 114.49 97.60 116.07
  Q 99.29 116.68 98.01 115.41
  C 96.11 113.54 94.76 110.54 92.25 109.75
  C 89.34 108.83 85.29 109.29 82.88 111.39
  A 1.54 1.53 71.3 0 0 82.36 112.45
  L 82.06 117.76
  A 0.33 0.33 0.0 0 0 82.60 118.04" stroke="#7f8081"></path>
</g>
<path d="M 140.34 100.21
  L 138.31 98.63
  Q 136.36 95.74 131.59 94.80
  A 1.81 1.81 0.0 0 0 129.50 96.08
  Q 129.03 97.72 130.09 97.28
  L 126.82 105.67
  Q 122.06 118.79 119.40 132.43
  L 117.92 137.10
  L 112.57 162.81
  A 0.42 0.41 -74.1 0 1 112.03 163.12
  L 111.79 163.04
  Q 111.65 162.99 111.66 162.84
  Q 111.88 160.67 112.87 154.77
  Q 113.02 153.83 112.40 153.13
  Q 111.96 152.63 111.65 153.22
  L 106.65 162.58
  Q 106.60 162.69 106.48 162.65
  Q 106.36 162.60 106.24 162.56
  Q 106.14 162.52 106.17 162.41
  L 108.89 151.18
  A 2.32 2.30 26.8 0 0 108.11 148.84
  L 103.46 144.98
  A 1.26 1.22 -24.5 0 0 102.67 144.70
  Q 100.01 144.74 97.53 145.71
  A 1.04 1.03 -0.8 0 0 96.95 146.30
  Q 95.65 149.80 94.66 153.33
  C 93.78 156.46 94.24 159.81 93.61 163.20
  Q 93.56 163.44 93.32 163.42
  L 93.07 163.40
  Q 93.01 163.39 93.01 163.33
  L 93.16 158.18
  Q 93.32 152.89 91.06 157.68
  Q 89.73 160.51 88.65 163.51
  A 0.20 0.20 0.0 0 1 88.34 163.60
  L 88.09 163.41
  Q 88.01 163.34 88.02 163.24
  L 88.88 153.96
  A 0.69 0.68 -8.2 0 0 87.94 153.26
  L 85.53 154.24
  A 1.43 1.43 0.0 0 1 83.60 153.22
  Q 81.98 145.90 80.20 139.00
  C 79.26 135.40 82.88 135.97 84.98 135.73
  A 1.09 1.08 -6.0 0 0 85.93 134.56
  C 85.67 131.43 87.78 128.55 83.05 127.55
  Q 80.64 127.04 78.62 125.71
  C 74.81 123.22 71.42 121.81 69.19 117.52
  Q 65.22 109.87 61.43 102.12
  C 60.48 100.17 59.89 97.58 58.75 95.38
  Q 58.51 94.92 58.06 94.67
  C 53.14 91.99 51.20 88.84 48.12 84.94
  C 45.40 81.50 50.81 78.83 52.87 77.24
  A 1.85 1.84 62.0 0 0 53.49 75.19
  C 52.26 71.59 50.51 65.71 45.68 66.04
  Q 45.36 66.06 45.05 66.01
  Q 44.52 65.91 44.56 65.37
  Q 44.80 62.04 45.78 58.89
  Q 46.13 57.77 46.00 56.61
  C 45.62 52.91 48.42 50.18 48.13 46.47
  C 47.97 44.27 46.85 42.14 46.91 40.14
  Q 47.03 36.10 49.85 33.59
  Q 56.30 27.85 58.22 25.75
  C 59.95 23.87 65.04 24.48 66.87 23.16
  C 69.76 21.06 72.82 18.38 76.43 17.55
  C 81.91 16.29 89.38 18.49 94.33 20.87
  C 96.84 22.07 100.63 23.63 102.49 23.02
  C 105.62 21.99 108.82 21.27 111.51 23.34
  Q 111.91 23.64 112.08 24.10
  C 112.99 26.45 114.39 26.84 116.95 26.58
  C 123.57 25.93 128.66 35.49 130.09 40.66
  C 131.09 44.26 132.44 46.53 134.35 49.36
  Q 135.90 51.67 135.01 54.31
  A 1.56 1.56 0.0 0 0 135.93 56.26
  L 137.97 57.03
  A 1.18 1.15 87.7 0 1 138.62 57.65
  C 141.48 64.04 137.76 68.64 137.12 74.88
  Q 136.85 77.57 136.22 79.50
  Q 134.93 83.44 134.18 88.14
  C 133.86 90.11 131.84 90.74 130.56 91.90
  A 0.46 0.46 0.0 0 0 130.68 92.66
  C 132.74 93.58 134.44 93.91 136.80 93.41
  C 141.21 92.48 146.60 91.85 150.46 94.04
  Q 152.84 95.39 150.16 94.86
  Q 146.85 94.20 143.49 94.64
  A 1.06 1.06 0.0 0 0 142.69 96.16
  L 144.04 98.87
  A 0.82 0.81 80.4 0 1 143.21 100.04
  Q 141.40 99.80 140.34 100.21
  Z
  M 70.23 23.55
  Q 67.58 25.52 64.32 25.83
  C 61.39 26.11 59.14 26.64 58.27 29.37
  L 52.59 35.11
  Q 49.38 38.13 51.21 42.02
  Q 51.52 42.67 52.28 42.48
  Q 51.92 43.52 53.04 43.56
  A 0.70 0.68 21.9 0 0 53.60 43.33
  Q 55.47 41.29 58.23 40.99
  A 1.70 1.68 20.2 0 0 59.20 40.55
  Q 60.72 39.17 62.36 37.94
  Q 62.40 37.90 62.45 37.93
  Q 62.59 37.98 62.72 38.04
  A 0.20 0.19 -58.8 0 1 62.79 38.34
  C 53.88 49.15 50.62 63.42 55.04 76.99
  Q 55.20 77.47 55.69 77.32
  C 59.81 76.06 64.09 75.07 68.39 74.72
  Q 68.58 74.70 68.57 74.51
  L 68.57 74.51
  Q 68.56 74.32 68.37 74.32
  Q 63.00 74.40 57.62 74.81
  Q 56.32 74.90 56.47 73.63
  Q 56.50 73.40 56.27 73.45
  Q 56.10 73.49 55.93 73.51
  Q 55.50 73.56 55.43 73.13
  Q 55.31 72.34 55.93 71.84
  Q 56.33 71.51 57.17 71.53
  C 61.65 71.68 66.40 70.87 71.71 72.29
  Q 72.36 72.46 72.66 71.86
  L 73.49 70.21
  Q 73.86 69.47 74.05 70.28
  L 75.88 78.04
  Q 76.00 78.57 76.48 78.30
  Q 78.65 77.09 81.14 77.26
  Q 81.66 77.30 81.66 76.78
  Q 81.68 75.03 82.39 73.42
  A 0.80 0.78 -55.7 0 0 82.24 72.57
  Q 80.09 70.32 79.48 67.24
  Q 79.00 64.81 80.67 66.64
  Q 81.88 67.97 83.75 68.38
  A 0.55 0.55 0.0 0 0 84.41 67.94
  Q 84.53 67.29 85.88 66.41
  Q 89.15 64.31 92.80 63.04
  C 95.42 62.12 97.45 60.67 99.68 59.62
  A 4.34 4.31 44.2 0 1 103.29 59.58
  L 105.24 60.45
  Q 107.10 61.27 105.22 62.04
  Q 99.72 64.30 94.66 67.45
  A 0.24 0.24 0.0 0 0 94.85 67.88
  Q 99.97 66.55 105.56 66.79
  C 109.76 66.97 114.11 64.27 117.87 62.36
  Q 118.70 61.94 118.74 61.01
  Q 118.89 57.69 120.25 54.61
  Q 120.49 54.07 120.44 54.66
  L 119.92 60.84
  A 0.40 0.40 0.0 0 0 120.47 61.24
  Q 123.46 59.98 126.23 58.60
  C 128.12 57.67 130.12 58.36 131.88 57.43
  C 135.34 55.58 134.07 52.23 132.31 49.44
  C 130.46 46.52 129.35 44.42 128.32 40.68
  C 127.09 36.23 124.66 32.96 121.34 29.86
  C 119.01 27.68 115.95 28.17 113.20 28.30
  A 1.49 1.49 0.0 0 1 111.69 27.17
  C 110.37 21.91 104.88 23.82 101.77 25.87
  Q 99.91 24.30 97.47 24.35
  C 90.41 20.46 76.57 15.42 70.23 23.55
  Z
  M 48.54 61.54
  L 48.29 59.07
  Q 48.22 58.32 47.51 58.08
  L 47.22 57.98
  A 0.38 0.38 0.0 0 0 46.71 58.32
  Q 46.58 61.26 45.48 63.99
  Q 45.30 64.43 45.75 64.59
  Q 47.39 65.14 48.21 63.51
  Q 49.06 65.95 50.60 66.63
  Q 52.05 67.26 51.96 65.67
  Q 51.69 60.67 52.73 55.75
  Q 53.59 51.71 51.07 55.05
  Q 50.34 56.02 50.04 57.90
  C 49.81 59.35 49.07 60.22 48.54 61.54
  Z
  M 128.45 88.67
  C 130.94 90.43 132.47 89.74 133.09 86.87
  Q 134.13 82.10 135.75 77.49
  C 136.12 76.45 135.80 75.33 136.00 74.50
  Q 137.00 70.20 138.31 65.97
  Q 138.98 63.79 138.71 62.18
  C 138.39 60.24 136.99 56.66 134.45 57.94
  Q 133.85 57.77 133.26 58.09
  Q 121.20 64.58 109.39 71.58
  Q 108.94 71.84 108.90 72.36
  C 108.46 78.67 110.12 82.99 103.52 86.79
  Q 100.16 88.72 97.06 88.78
  Q 93.86 88.83 96.73 90.24
  Q 101.68 92.67 106.30 95.17
  C 111.76 98.14 108.88 101.06 109.95 105.53
  Q 110.63 108.36 112.12 110.61
  Q 113.20 112.24 111.39 111.51
  Q 107.39 109.90 105.47 105.25
  C 104.72 103.43 103.65 102.69 101.76 103.36
  C 94.02 106.12 87.15 108.51 78.75 108.29
  C 74.03 108.17 74.73 114.89 75.34 117.69
  Q 75.37 117.84 75.28 117.72
  Q 71.57 112.80 72.38 106.61
  A 0.76 0.76 0.0 0 1 73.69 106.19
  C 74.59 107.16 75.53 107.47 76.91 107.33
  Q 90.67 105.93 103.76 101.50
  C 104.83 101.13 105.73 101.24 106.81 101.31
  A 0.41 0.41 0.0 0 0 107.19 100.68
  C 104.99 97.14 99.38 95.14 95.74 93.36
  Q 95.38 93.18 94.98 93.21
  Q 94.27 93.26 94.23 92.51
  Q 94.14 90.67 93.52 89.30
  Q 93.30 88.82 92.81 88.61
  Q 87.63 86.40 84.00 82.15
  C 82.16 80.00 80.38 79.40 77.89 80.63
  Q 77.42 80.86 77.39 81.38
  C 77.01 86.67 73.87 91.38 74.70 96.24
  Q 74.73 96.46 74.85 96.55
  Q 75.13 96.80 75.15 96.42
  Q 75.20 95.53 75.89 95.13
  Q 76.28 94.91 77.14 95.01
  Q 79.98 95.35 82.14 93.78
  A 0.82 0.82 0.0 0 1 83.45 94.47
  L 83.37 96.75
  A 0.66 0.66 0.0 0 0 84.07 97.43
  Q 85.01 97.37 85.75 96.80
  Q 86.19 96.46 86.25 97.02
  L 86.31 97.61
  A 0.49 0.49 0.0 0 1 86.02 98.10
  C 82.53 99.69 79.59 97.66 75.56 97.53
  Q 74.95 97.51 74.72 98.08
  L 70.55 108.48
  A 0.59 0.59 0.0 0 1 69.53 108.61
  L 69.20 108.17
  Q 68.43 107.14 68.79 105.90
  C 71.56 96.23 68.17 96.46 60.23 95.76
  A 0.44 0.44 0.0 0 0 59.79 96.39
  Q 63.66 104.56 67.51 112.65
  C 69.19 116.17 72.02 121.86 76.67 122.22
  Q 77.18 122.26 77.55 122.62
  C 80.17 125.12 82.29 127.69 85.80 124.28
  C 86.67 123.43 86.57 122.51 86.92 121.37
  Q 86.99 121.12 87.25 121.14
  A 0.43 0.43 0.0 0 1 87.66 121.55
  Q 87.85 124.42 90.98 123.71
  Q 95.21 122.75 99.45 123.60
  Q 99.95 123.71 100.46 123.63
  L 102.49 123.33
  A 0.26 0.26 0.0 0 1 102.67 123.80
  Q 98.83 126.56 97.01 127.03
  C 94.45 127.68 95.72 130.60 96.52 132.03
  A 0.71 0.71 0.0 0 0 97.64 132.18
  Q 99.66 130.19 102.16 128.70
  C 105.65 126.62 106.89 123.12 109.12 120.26
  A 0.51 0.51 0.0 0 0 108.96 119.49
  Q 107.67 118.77 107.61 117.94
  Q 107.55 117.15 108.67 116.65
  Q 109.79 116.15 111.05 116.03
  Q 111.55 115.98 111.91 116.23
  Q 112.38 116.57 112.50 116.99
  A 1.16 1.16 0.0 0 0 114.39 117.55
  C 118.53 113.85 121.67 108.14 124.75 103.53
  C 128.41 98.04 129.14 95.23 128.45 88.67
  Z
  M 91.2069 64.8207
  A 1.42 0.51 -42.5 0 0 89.8154 65.4040
  A 1.42 0.51 -42.5 0 0 89.1131 66.7393
  A 1.42 0.51 -42.5 0 0 90.5046 66.1560
  A 1.42 0.51 -42.5 0 0 91.2069 64.8207
  Z
  M 94.25 70.19
  A 0.76 0.76 0.0 0 0 94.11 71.66
  L 95.92 72.25
  A 0.76 0.76 0.0 0 0 96.16 72.29
  L 105.36 72.20
  A 0.76 0.76 0.0 0 0 105.67 70.75
  L 102.50 69.30
  A 0.76 0.76 0.0 0 0 102.10 69.24
  L 94.25 70.19
  Z
  M 102.34 79.69
  Q 104.32 80.24 102.37 80.89
  C 98.96 82.02 92.60 82.80 89.68 79.57
  Q 87.38 77.03 84.78 74.76
  Q 84.33 74.37 84.24 74.96
  C 83.29 81.28 89.21 86.26 94.99 86.67
  C 103.83 87.31 107.77 82.52 106.87 74.23
  Q 106.81 73.71 106.29 73.71
  L 101.91 73.72
  Q 101.38 73.73 100.93 74.00
  Q 97.68 76.00 93.85 76.19
  A 0.71 0.70 7.3 0 0 93.22 76.67
  Q 92.89 77.62 94.08 77.84
  Q 98.77 78.70 102.34 79.69
  Z
  M 60.42 83.32
  C 60.61 81.32 65.36 79.68 66.73 79.25
  Q 70.55 78.05 66.57 77.60
  Q 62.46 77.14 56.90 79.11
  A 0.57 0.57 0.0 0 0 56.56 79.85
  Q 58.78 85.60 58.26 91.79
  Q 58.13 93.45 59.75 93.82
  C 66.92 95.45 76.63 93.32 74.98 83.72
  Q 74.88 83.14 74.42 83.50
  C 71.00 86.19 69.37 87.31 65.24 88.45
  Q 63.65 88.89 65.01 87.96
  C 67.20 86.47 69.81 84.78 71.05 82.31
  A 0.40 0.40 0.0 0 0 70.59 81.75
  Q 67.39 82.64 64.16 82.60
  C 63.05 82.58 62.15 83.08 61.48 83.80
  Q 60.25 85.10 60.42 83.32
  Z
  M 51.59 85.25
  Q 52.91 89.32 56.25 92.00
  Q 56.87 92.50 56.97 91.71
  Q 57.63 86.29 55.74 81.11
  Q 55.00 79.08 53.44 80.57
  L 52.58 81.39
  Q 50.86 83.01 51.59 85.25
  Z
  M 117.57 119.73
  Q 115.35 121.76 114.30 123.78
  L 102.70 134.33
  L 100.37 135.85
  L 95.77 135.27
  L 88.64 131.10
  Q 87.35 130.34 87.69 131.80
  L 88.36 134.61
  A 2.68 2.67 2.5 0 0 90.11 136.51
  L 94.19 137.86
  L 101.04 136.99
  Q 104.23 138.38 105.12 136.57
  Q 112.12 134.93 114.63 131.76
  L 118.25 122.03
  L 120.33 116.58
  Q 120.77 115.41 119.94 116.34
  Q 118.60 117.85 117.57 119.73
  Z" fill="#020203"></path>
<path d="M 97.47 24.35
  L 97.37 28.37
  Q 97.19 28.95 97.26 29.26
  Q 97.32 29.54 97.89 29.57
  Q 100.18 29.71 101.36 31.42
  Q 103.70 34.78 106.83 36.63
  C 113.20 40.42 119.06 46.58 120.12 53.50
  Q 120.27 54.48 120.56 53.53
  C 122.08 48.58 120.78 43.06 115.72 40.75
  C 112.36 39.21 108.18 36.92 106.02 33.85
  C 104.92 32.29 104.13 30.55 102.48 29.47
  Q 101.50 28.82 100.68 28.13
  L 101.77 25.87
  C 104.88 23.82 110.37 21.91 111.69 27.17
  A 1.49 1.49 0.0 0 0 113.20 28.30
  C 115.95 28.17 119.01 27.68 121.34 29.86
  C 124.66 32.96 127.09 36.23 128.32 40.68
  C 129.35 44.42 130.46 46.52 132.31 49.44
  C 134.07 52.23 135.34 55.58 131.88 57.43
  C 130.12 58.36 128.12 57.67 126.23 58.60
  Q 123.46 59.98 120.47 61.24
  A 0.40 0.40 0.0 0 1 119.92 60.84
  L 120.44 54.66
  Q 120.49 54.07 120.25 54.61
  Q 118.89 57.69 118.74 61.01
  Q 118.70 61.94 117.87 62.36
  C 114.11 64.27 109.76 66.97 105.56 66.79
  Q 99.97 66.55 94.85 67.88
  A 0.24 0.24 0.0 0 1 94.66 67.45
  Q 99.72 64.30 105.22 62.04
  Q 107.10 61.27 105.24 60.45
  L 103.29 59.58
  A 4.34 4.31 44.2 0 0 99.68 59.62
  C 97.45 60.67 95.42 62.12 92.80 63.04
  Q 89.15 64.31 85.88 66.41
  Q 84.53 67.29 84.41 67.94
  A 0.55 0.55 0.0 0 1 83.75 68.38
  Q 81.88 67.97 80.67 66.64
  Q 79.00 64.81 79.48 67.24
  Q 80.09 70.32 82.24 72.57
  A 0.80 0.78 -55.7 0 1 82.39 73.42
  Q 81.68 75.03 81.66 76.78
  Q 81.66 77.30 81.14 77.26
  Q 78.65 77.09 76.48 78.30
  Q 76.00 78.57 75.88 78.04
  L 74.05 70.28
  Q 73.86 69.47 73.49 70.21
  L 72.66 71.86
  Q 72.36 72.46 71.71 72.29
  C 66.40 70.87 61.65 71.68 57.17 71.53
  Q 56.33 71.51 55.93 71.84
  Q 55.31 72.34 55.43 73.13
  Q 55.50 73.56 55.93 73.51
  Q 56.10 73.49 56.27 73.45
  Q 56.50 73.40 56.47 73.63
  Q 56.32 74.90 57.62 74.81
  Q 63.00 74.40 68.37 74.32
  Q 68.56 74.32 68.57 74.51
  L 68.57 74.51
  Q 68.58 74.70 68.39 74.72
  C 64.09 75.07 59.81 76.06 55.69 77.32
  Q 55.20 77.47 55.04 76.99
  C 50.62 63.42 53.88 49.15 62.79 38.34
  A 0.20 0.19 -58.8 0 0 62.72 38.04
  Q 62.59 37.98 62.45 37.93
  Q 62.40 37.90 62.36 37.94
  Q 60.72 39.17 59.20 40.55
  A 1.70 1.68 20.2 0 1 58.23 40.99
  Q 55.47 41.29 53.60 43.33
  A 0.70 0.68 21.9 0 1 53.04 43.56
  Q 51.92 43.52 52.28 42.48
  Q 54.88 39.28 52.59 35.11
  L 58.27 29.37
  L 61.07 30.59
  Q 57.54 33.37 55.73 37.25
  Q 55.63 37.46 55.76 37.65
  Q 55.84 37.76 55.90 37.89
  A 0.26 0.26 0.0 0 0 56.34 37.93
  Q 60.58 32.41 67.24 33.84
  C 69.00 34.22 70.54 35.42 71.04 37.10
  A 1.47 1.47 0.0 0 0 73.40 37.79
  Q 80.18 31.95 89.22 32.07
  Q 89.32 32.08 89.37 31.98
  Q 89.45 31.84 89.52 31.71
  Q 89.65 31.51 89.42 31.44
  Q 81.69 28.80 74.97 33.05
  A 1.54 1.51 -43.1 0 1 73.26 33.01
  Q 70.12 30.76 66.01 29.86
  C 69.33 28.22 69.87 27.24 70.23 23.55
  C 76.57 15.42 90.41 20.46 97.47 24.35
  Z" fill="#fbfdfe"></path>
<path d="M 100.68 28.13
  Q 101.50 28.82 102.48 29.47
  C 104.13 30.55 104.92 32.29 106.02 33.85
  C 108.18 36.92 112.36 39.21 115.72 40.75
  C 120.78 43.06 122.08 48.58 120.56 53.53
  Q 120.27 54.48 120.12 53.50
  C 119.06 46.58 113.20 40.42 106.83 36.63
  Q 103.70 34.78 101.36 31.42
  Q 100.18 29.71 97.89 29.57
  Q 97.32 29.54 97.26 29.26
  Q 97.19 28.95 97.37 28.37
  Q 98.13 29.63 100.68 28.13
  Z" fill="#020203"></path>
<path d="M 66.01 29.86
  Q 70.12 30.76 73.26 33.01
  A 1.54 1.51 -43.1 0 0 74.97 33.05
  Q 81.69 28.80 89.42 31.44
  Q 89.65 31.51 89.52 31.71
  Q 89.45 31.84 89.37 31.98
  Q 89.32 32.08 89.22 32.07
  Q 80.18 31.95 73.40 37.79
  A 1.47 1.47 0.0 0 1 71.04 37.10
  C 70.54 35.42 69.00 34.22 67.24 33.84
  Q 60.58 32.41 56.34 37.93
  A 0.26 0.26 0.0 0 1 55.90 37.89
  Q 55.84 37.76 55.76 37.65
  Q 55.63 37.46 55.73 37.25
  Q 57.54 33.37 61.07 30.59
  L 66.01 29.86
  Z" fill="#020203"></path>
<path d="M 134.45 57.94
  L 134.95 59.28
  Q 134.14 59.77 133.25 60.03
  Q 132.64 60.20 132.53 60.99
  Q 132.47 61.43 132.91 61.54
  Q 134.01 61.80 134.33 62.95
  Q 135.07 65.53 135.82 68.04
  Q 136.74 69.91 134.75 71.57
  Q 132.77 69.06 129.72 67.90
  Q 129.17 67.69 128.93 68.22
  C 127.88 70.43 130.50 72.65 131.41 74.68
  A 0.73 0.72 58.0 0 1 131.22 75.53
  Q 128.61 77.78 128.72 80.10
  Q 128.88 83.53 130.56 80.53
  Q 130.84 80.04 132.89 78.35
  Q 129.97 83.58 131.06 84.97
  Q 132.71 87.08 130.18 86.20
  Q 129.64 86.02 128.43 86.69
  Q 128.01 86.92 128.06 87.40
  Q 128.13 88.14 128.45 88.67
  C 129.14 95.23 128.41 98.04 124.75 103.53
  C 121.67 108.14 118.53 113.85 114.39 117.55
  A 1.16 1.16 0.0 0 1 112.50 116.99
  Q 112.38 116.57 111.91 116.23
  Q 111.55 115.98 111.05 116.03
  Q 109.79 116.15 108.67 116.65
  Q 107.55 117.15 107.61 117.94
  Q 107.67 118.77 108.96 119.49
  A 0.51 0.51 0.0 0 1 109.12 120.26
  C 106.89 123.12 105.65 126.62 102.16 128.70
  Q 99.66 130.19 97.64 132.18
  A 0.71 0.71 0.0 0 1 96.52 132.03
  C 95.72 130.60 94.45 127.68 97.01 127.03
  Q 98.83 126.56 102.67 123.80
  A 0.26 0.26 0.0 0 0 102.49 123.33
  L 100.46 123.63
  Q 99.95 123.71 99.45 123.60
  Q 95.21 122.75 90.98 123.71
  Q 87.85 124.42 87.66 121.55
  A 0.43 0.43 0.0 0 0 87.25 121.14
  Q 86.99 121.12 86.92 121.37
  C 86.57 122.51 86.67 123.43 85.80 124.28
  C 82.29 127.69 80.17 125.12 77.55 122.62
  Q 77.18 122.26 76.67 122.22
  C 72.02 121.86 69.19 116.17 67.51 112.65
  Q 63.66 104.56 59.79 96.39
  A 0.44 0.44 0.0 0 1 60.23 95.76
  C 68.17 96.46 71.56 96.23 68.79 105.90
  Q 68.43 107.14 69.20 108.17
  L 69.53 108.61
  A 0.59 0.59 0.0 0 0 70.55 108.48
  L 74.72 98.08
  Q 74.95 97.51 75.56 97.53
  C 79.59 97.66 82.53 99.69 86.02 98.10
  A 0.49 0.49 0.0 0 0 86.31 97.61
  L 86.25 97.02
  Q 86.19 96.46 85.75 96.80
  Q 85.01 97.37 84.07 97.43
  A 0.66 0.66 0.0 0 1 83.37 96.75
  L 83.45 94.47
  A 0.82 0.82 0.0 0 0 82.14 93.78
  Q 79.98 95.35 77.14 95.01
  Q 76.28 94.91 75.89 95.13
  Q 75.20 95.53 75.15 96.42
  Q 75.13 96.80 74.85 96.55
  Q 74.73 96.46 74.70 96.24
  C 73.87 91.38 77.01 86.67 77.39 81.38
  Q 77.42 80.86 77.89 80.63
  C 80.38 79.40 82.16 80.00 84.00 82.15
  Q 87.63 86.40 92.81 88.61
  Q 93.30 88.82 93.52 89.30
  Q 94.14 90.67 94.23 92.51
  Q 94.27 93.26 94.98 93.21
  Q 95.38 93.18 95.74 93.36
  C 99.38 95.14 104.99 97.14 107.19 100.68
  A 0.41 0.41 0.0 0 1 106.81 101.31
  C 105.73 101.24 104.83 101.13 103.76 101.50
  Q 90.67 105.93 76.91 107.33
  C 75.53 107.47 74.59 107.16 73.69 106.19
  A 0.76 0.76 0.0 0 0 72.38 106.61
  Q 71.57 112.80 75.28 117.72
  Q 75.37 117.84 75.34 117.69
  C 74.73 114.89 74.03 108.17 78.75 108.29
  C 87.15 108.51 94.02 106.12 101.76 103.36
  C 103.65 102.69 104.72 103.43 105.47 105.25
  Q 107.39 109.90 111.39 111.51
  Q 113.20 112.24 112.12 110.61
  Q 110.63 108.36 109.95 105.53
  C 108.88 101.06 111.76 98.14 106.30 95.17
  Q 101.68 92.67 96.73 90.24
  Q 93.86 88.83 97.06 88.78
  Q 100.16 88.72 103.52 86.79
  C 110.12 82.99 108.46 78.67 108.90 72.36
  Q 108.94 71.84 109.39 71.58
  Q 121.20 64.58 133.26 58.09
  Q 133.85 57.77 134.45 57.94
  Z
  M 120.80 70.74
  A 0.71 0.71 0.0 0 1 119.72 70.04
  Q 119.91 68.82 119.45 67.73
  A 0.23 0.23 0.0 0 0 119.00 67.82
  L 119.00 70.92
  Q 119.00 71.58 119.65 71.46
  L 123.04 70.83
  Q 123.10 70.82 123.09 70.75
  L 123.07 70.48
  A 0.29 0.29 0.0 0 0 122.80 70.21
  Q 121.72 70.15 120.80 70.74
  Z
  M 93.1259 93.5930
  A 0.27 0.27 0.0 0 0 92.8403 93.3394
  L 86.3717 93.7238
  A 0.27 0.27 0.0 0 0 86.1182 94.0093
  L 86.1941 95.2870
  A 0.27 0.27 0.0 0 0 86.4797 95.5406
  L 92.9483 95.1562
  A 0.27 0.27 0.0 0 0 93.2018 94.8707
  L 93.1259 93.5930
  Z
  M 82.60 118.04
  C 86.68 114.81 93.13 114.49 97.60 116.07
  Q 99.29 116.68 98.01 115.41
  C 96.11 113.54 94.76 110.54 92.25 109.75
  C 89.34 108.83 85.29 109.29 82.88 111.39
  A 1.54 1.53 71.3 0 0 82.36 112.45
  L 82.06 117.76
  A 0.33 0.33 0.0 0 0 82.60 118.04
  Z" fill="#fbfdfe"></path>
<path d="M 48.54 61.54
  L 48.21 63.51
  Q 47.39 65.14 45.75 64.59
  Q 45.30 64.43 45.48 63.99
  Q 46.58 61.26 46.71 58.32
  A 0.38 0.38 0.0 0 1 47.22 57.98
  L 47.51 58.08
  Q 48.22 58.32 48.29 59.07
  L 48.54 61.54
  Z" fill="#fbfdfe"></path>
<path d="M 134.95 59.28
  Q 138.94 62.27 135.82 68.04
  Q 135.07 65.53 134.33 62.95
  Q 134.01 61.80 132.91 61.54
  Q 132.47 61.43 132.53 60.99
  Q 132.64 60.20 133.25 60.03
  Q 134.14 59.77 134.95 59.28
  Z" fill="#020203"></path>
<ellipse ry="0.51" rx="1.42" transform="translate(90.16,65.78) rotate(-42.5)" cy="0.00" cx="0.00" fill="#fbfdfe"></ellipse>
<path d="M 120.80 70.74
  Q 121.72 70.15 122.80 70.21
  A 0.29 0.29 0.0 0 1 123.07 70.48
  L 123.09 70.75
  Q 123.10 70.82 123.04 70.83
  L 119.65 71.46
  Q 119.00 71.58 119.00 70.92
  L 119.00 67.82
  A 0.23 0.23 0.0 0 1 119.45 67.73
  Q 119.91 68.82 119.72 70.04
  A 0.71 0.71 0.0 0 0 120.80 70.74
  Z" fill="#020203"></path>
<path d="M 134.75 71.57
  Q 134.81 75.46 132.89 78.35
  Q 130.84 80.04 130.56 80.53
  Q 128.88 83.53 128.72 80.10
  Q 128.61 77.78 131.22 75.53
  A 0.73 0.72 58.0 0 0 131.41 74.68
  C 130.50 72.65 127.88 70.43 128.93 68.22
  Q 129.17 67.69 129.72 67.90
  Q 132.77 69.06 134.75 71.57
  Z" fill="#020203"></path>
<path d="M 94.25 70.19
  L 102.10 69.24
  A 0.76 0.76 0.0 0 1 102.50 69.30
  L 105.67 70.75
  A 0.76 0.76 0.0 0 1 105.36 72.20
  L 96.16 72.29
  A 0.76 0.76 0.0 0 1 95.92 72.25
  L 94.11 71.66
  A 0.76 0.76 0.0 0 1 94.25 70.19
  Z" fill="#fbfdfe"></path>
<path d="M 102.34 79.69
  Q 98.77 78.70 94.08 77.84
  Q 92.89 77.62 93.22 76.67
  A 0.71 0.70 7.3 0 1 93.85 76.19
  Q 97.68 76.00 100.93 74.00
  Q 101.38 73.73 101.91 73.72
  L 106.29 73.71
  Q 106.81 73.71 106.87 74.23
  C 107.77 82.52 103.83 87.31 94.99 86.67
  C 89.21 86.26 83.29 81.28 84.24 74.96
  Q 84.33 74.37 84.78 74.76
  Q 87.38 77.03 89.68 79.57
  C 92.60 82.80 98.96 82.02 102.37 80.89
  Q 104.32 80.24 102.34 79.69
  Z" fill="#fbfdfe"></path>
<path d="M 60.42 83.32
  Q 60.25 85.10 61.48 83.80
  C 62.15 83.08 63.05 82.58 64.16 82.60
  Q 67.39 82.64 70.59 81.75
  A 0.40 0.40 0.0 0 1 71.05 82.31
  C 69.81 84.78 67.20 86.47 65.01 87.96
  Q 63.65 88.89 65.24 88.45
  C 69.37 87.31 71.00 86.19 74.42 83.50
  Q 74.88 83.14 74.98 83.72
  C 76.63 93.32 66.92 95.45 59.75 93.82
  Q 58.13 93.45 58.26 91.79
  Q 58.78 85.60 56.56 79.85
  A 0.57 0.57 0.0 0 1 56.90 79.11
  Q 62.46 77.14 66.57 77.60
  Q 70.55 78.05 66.73 79.25
  C 65.36 79.68 60.61 81.32 60.42 83.32
  Z" fill="#fbfdfe"></path>
<path d="M 51.59 85.25
  Q 50.86 83.01 52.58 81.39
  L 53.44 80.57
  Q 55.00 79.08 55.74 81.11
  Q 57.63 86.29 56.97 91.71
  Q 56.87 92.50 56.25 92.00
  Q 52.91 89.32 51.59 85.25
  Z" fill="#fbfdfe"></path>
<rect rx="0.27" height="1.82" width="7.02" transform="translate(89.66,94.44) rotate(-3.4)" y="-0.91" x="-3.51" fill="#020203"></rect>
<path d="M 138.31 98.63
  L 140.34 100.21
  Q 141.08 103.00 140.68 105.54
  L 139.57 113.16
  Q 138.15 114.87 135.08 115.38
  Q 133.52 115.64 132.64 114.33
  L 126.82 105.67
  L 130.09 97.28
  L 138.31 98.63
  Z" fill="#fbfdfe"></path>
<path d="M 140.68 105.54
  Q 140.94 108.93 139.57 113.16
  L 140.68 105.54
  Z" fill="#020203"></path>
<path d="M 97.60 116.07
  C 93.13 114.49 86.68 114.81 82.60 118.04
  A 0.33 0.33 0.0 0 1 82.06 117.76
  L 82.36 112.45
  A 1.54 1.53 71.3 0 1 82.88 111.39
  C 85.29 109.29 89.34 108.83 92.25 109.75
  C 94.76 110.54 96.11 113.54 98.01 115.41
  Q 99.29 116.68 97.60 116.07
  Z" fill="#020203"></path>
<path d="M 118.25 122.03
  Q 117.24 121.00 117.57 119.73
  Q 118.60 117.85 119.94 116.34
  Q 120.77 115.41 120.33 116.58
  L 118.25 122.03
  Z" fill="#fbfdfe"></path>
<path d="M 128.32 151.44
  L 127.06 151.78
  Q 126.33 150.33 127.69 148.52
  Q 128.32 147.94 129.04 147.76
  Q 134.38 144.65 138.70 140.48
  Q 139.01 140.19 139.00 139.92
  Q 138.99 139.61 138.76 139.25
  Q 139.31 139.26 139.30 138.75
  Q 139.16 129.72 139.82 121.83
  L 140.52 116.65
  A 0.26 0.25 4.8 0 1 140.79 116.43
  L 141.04 116.44
  Q 141.14 116.45 141.14 116.55
  L 141.34 140.24
  A 2.21 2.21 0.0 0 1 140.48 142.01
  L 128.32 151.44
  Z" fill="#020203"></path>
<path d="M 139.82 121.83
  Q 139.16 129.72 139.30 138.75
  Q 139.31 139.26 138.76 139.25
  C 132.75 137.51 130.02 142.65 129.04 147.76
  Q 128.32 147.94 127.69 148.52
  C 125.38 147.55 122.24 146.23 120.61 144.35
  C 118.99 142.48 118.91 139.60 117.92 137.10
  L 119.40 132.43
  Q 121.43 130.73 122.70 128.49
  C 125.13 124.22 126.16 122.52 130.07 120.12
  Q 132.52 118.62 131.63 121.36
  C 130.83 123.83 128.89 129.38 132.39 130.79
  Q 134.28 131.55 135.03 129.66
  C 136.25 126.56 136.59 123.68 139.82 121.83
  Z" fill="#fbfdfe"></path>
<path d="M 114.30 123.78
  Q 113.78 127.77 114.63 131.76
  Q 112.12 134.93 105.12 136.57
  Q 104.26 135.38 102.70 134.33
  L 114.30 123.78
  Z" fill="#fbfdfe"></path>
<path d="M 95.77 135.27
  L 100.37 135.85
  Q 100.46 136.63 101.04 136.99
  L 94.19 137.86
  L 95.77 135.27
  Z" fill="#fbfdfe"></path>
<path d="M 128.32 151.44
  Q 128.23 153.71 127.17 155.11
  Q 126.72 155.70 126.79 154.97
  L 127.06 151.78
  L 128.32 151.44
  Z" fill="#fbfdfe"></path>
</svg>
