<svg viewBox="0.00 0.00 48.00 48.00" version="1.1" xmlns="http://www.w3.org/2000/svg">
<path d="M 39.97 35.12
  C 40.76 39.89 37.45 41.54 33.14 41.52
  Q 24.78 41.50 16.49 41.52
  Q 15.98 41.52 15.53 41.78
  L 8.95 45.72
  A 0.83 0.82 -15.5 0 1 7.70 45.02
  L 7.67 42.05
  Q 7.67 41.51 7.13 41.53
  Q 0.36 41.85 0.43 35.00
  Q 0.54 25.25 0.38 15.50
  Q 0.29 9.77 5.47 9.13
  Q 6.06 9.05 6.06 8.46
  C 6.04 3.81 7.70 1.78 12.54 1.76
  Q 27.73 1.69 42.43 1.74
  A 4.89 4.88 89.9 0 1 47.29 6.60
  Q 47.36 16.98 47.28 28.04
  C 47.25 32.97 45.06 34.15 40.52 34.42
  Q 39.86 34.46 39.97 35.12
  Z
  M 35.88 9.12
  C 38.96 9.33 40.04 12.63 40.06 15.52
  Q 40.10 23.46 40.00 30.36
  Q 39.97 32.78 42.34 32.28
  L 42.67 32.22
  Q 45.46 31.64 45.46 28.79
  L 45.45 6.94
  A 3.26 3.26 0.0 0 0 42.19 3.68
  L 10.95 3.68
  Q 8.67 3.68 8.29 5.92
  L 8.05 7.33
  Q 7.75 9.09 9.54 9.06
  Q 30.00 8.74 35.88 9.12
  Z
  M 9.51 40.97
  L 9.53 42.40
  Q 9.54 43.13 10.16 42.75
  L 14.81 39.89
  Q 15.22 39.64 15.71 39.64
  L 34.02 39.65
  Q 38.03 39.66 38.07 35.65
  Q 38.16 25.85 38.30 15.50
  Q 38.36 11.08 33.51 11.05
  Q 19.63 10.97 6.26 11.03
  Q 2.56 11.05 2.55 14.75
  Q 2.53 24.61 2.56 34.88
  C 2.57 39.55 4.38 39.62 8.37 39.80
  Q 9.49 39.84 9.51 40.97
  Z" fill-opacity="0.996" fill="#d2263f"></path>
<path d="M 27.73 21.69
  Q 29.10 22.03 29.11 23.74
  Q 29.17 30.35 29.10 36.67
  A 0.84 0.84 0.0 0 1 28.26 37.50
  L 12.24 37.50
  A 0.63 0.62 -0.0 0 1 11.61 36.88
  Q 11.59 30.02 11.70 23.11
  Q 11.71 21.90 12.92 21.84
  Q 13.50 21.82 13.46 21.24
  C 12.77 9.73 27.96 10.13 27.26 21.04
  Q 27.23 21.56 27.73 21.69
  Z
  M 17.21 20.69
  C 16.49 16.65 21.26 14.78 23.14 18.04
  C 23.70 19.01 23.55 20.17 23.56 21.27
  Q 23.56 21.86 24.15 21.89
  L 24.67 21.91
  Q 25.19 21.93 25.28 21.41
  C 26.68 12.67 14.17 12.19 15.43 21.47
  A 0.61 0.60 76.4 0 0 16.23 21.96
  L 16.55 21.84
  Q 17.36 21.54 17.21 20.69
  Z
  M 21.6567 19.2290
  A 0.75 0.75 0.0 0 0 20.9120 18.4738
  L 19.8320 18.4663
  A 0.75 0.75 0.0 0 0 19.0768 19.2110
  L 19.0633 21.1510
  A 0.75 0.75 0.0 0 0 19.8080 21.9062
  L 20.8880 21.9137
  A 0.75 0.75 0.0 0 0 21.6432 21.1690
  L 21.6567 19.2290
  Z
  M 27.14 24.13
  A 0.39 0.39 0.0 0 0 26.75 23.74
  L 13.89 23.74
  A 0.39 0.39 0.0 0 0 13.50 24.13
  L 13.50 35.23
  A 0.39 0.39 0.0 0 0 13.89 35.62
  L 26.75 35.62
  A 0.39 0.39 0.0 0 0 27.14 35.23
  L 27.14 24.13
  Z" fill-opacity="0.996" fill="#d2263f"></path>
<path d="M 21.37 31.32
  L 21.25 33.00
  A 0.82 0.82 0.0 0 1 20.59 33.75
  L 20.23 33.82
  A 0.62 0.61 83.7 0 1 19.50 33.23
  L 19.46 31.73
  Q 19.45 31.14 18.96 30.80
  C 15.08 28.13 19.97 23.28 22.62 26.65
  Q 24.35 28.86 21.81 30.55
  Q 21.40 30.82 21.37 31.32
  Z
  M 21.17 28.37
  A 0.85 0.85 0.0 0 0 20.32 27.52
  A 0.85 0.85 0.0 0 0 19.47 28.37
  A 0.85 0.85 0.0 0 0 20.32 29.22
  A 0.85 0.85 0.0 0 0 21.17 28.37
  Z" fill-opacity="0.996" fill="#d2263f"></path>
</svg>
