<svg viewBox="0.00 0.00 32.00 32.00" version="1.1" xmlns="http://www.w3.org/2000/svg">
<g stroke-linecap="butt" fill="none" stroke-width="2.00">
<path d="M 20.06 2.46
  Q 15.71 3.40 11.00 2.61
  Q 10.75 2.57 10.64 2.02" stroke="#f1bc95"></path>
<path d="M 28.41 3.94
  Q 27.94 4.54 27.57 4.11" stroke="#ebb9be"></path>
<path d="M 25.38 5.46
  Q 25.23 6.17 24.04 6.41" stroke="#ebb9be"></path>
<path d="M 23.84 6.96
  L 18.34 12.32
  A 1.26 1.25 -49.5 0 1 16.74 12.45
  L 16.44 12.23
  Q 15.22 11.37 16.25 10.29
  L 22.63 3.63" stroke="#ebb9be"></path>
<path d="M 20.09 29.51
  Q 15.78 28.57 11.17 29.33
  A 0.54 0.53 -86.6 0 0 10.73 29.73
  L 10.64 30.04" stroke="#f1bc95"></path>
<path d="M 6.74 22.78
  Q 7.97 21.33 9.79 20.12
  Q 10.43 19.70 10.63 19.32
  Q 11.02 18.56 10.42 17.98
  A 0.82 0.82 0.0 0 0 9.12 18.19
  Q 8.44 19.48 6.88 20.33" stroke="#ebb9be"></path>
</g>
<path d="M 11.11 0.00
  L 19.49 0.00
  Q 20.62 0.20 20.06 2.46
  Q 15.71 3.40 11.00 2.61
  Q 10.75 2.57 10.64 2.02
  Q 10.38 0.54 11.11 0.00
  Z" fill="#fdef9a"></path>
<path d="M 26.48 0.00
  Q 26.60 0.02 26.73 0.00
  Q 29.16 0.77 28.41 3.94
  Q 27.94 4.54 27.57 4.11
  Q 26.44 3.51 25.38 5.46
  Q 25.23 6.17 24.04 6.41
  Q 23.49 7.18 23.84 6.96
  L 18.34 12.32
  A 1.26 1.25 -49.5 0 1 16.74 12.45
  L 16.44 12.23
  Q 15.22 11.37 16.25 10.29
  L 22.63 3.63
  L 26.48 0.00
  Z" fill="#f2e9ed"></path>
<path d="M 10.64 2.02
  Q 10.75 2.57 11.00 2.61
  Q 15.71 3.40 20.06 2.46
  Q 20.68 3.12 22.63 3.63
  L 16.25 10.29
  Q 15.22 11.37 16.44 12.23
  L 16.74 12.45
  A 1.26 1.25 -49.5 0 0 18.34 12.32
  L 23.84 6.96
  L 23.90 13.31
  A 1.34 1.34 0.0 0 0 24.15 14.09
  Q 26.14 16.88 29.43 15.94
  Q 29.96 15.79 30.22 15.31
  C 32.09 11.85 29.98 10.62 28.10 8.54
  Q 27.76 8.17 27.25 8.14
  C 25.44 8.05 25.27 6.65 24.04 6.41
  Q 25.23 6.17 25.38 5.46
  Q 25.56 6.72 26.94 7.25
  A 0.53 0.53 0.0 0 0 27.67 6.74
  L 27.57 4.11
  Q 27.94 4.54 28.41 3.94
  L 28.56 6.57
  A 0.52 0.52 0.0 0 0 29.42 6.92
  Q 29.98 6.41 30.72 6.28
  A 0.31 0.31 0.0 0 1 31.03 6.75
  Q 30.51 7.54 29.60 7.83
  Q 28.94 8.04 29.42 8.54
  L 31.18 10.37
  Q 31.54 10.75 31.67 11.27
  C 33.04 16.91 28.67 18.51 24.29 15.94
  Q 23.81 15.66 23.82 16.21
  C 23.89 19.52 25.33 27.68 21.03 28.85
  Q 20.71 28.94 20.50 29.10
  Q 20.18 29.35 20.09 29.51
  Q 15.78 28.57 11.17 29.33
  A 0.54 0.53 -86.6 0 0 10.73 29.73
  L 10.64 30.04
  Q 10.76 29.05 9.98 28.90
  C 5.97 28.11 7.53 25.20 6.74 22.78
  Q 7.97 21.33 9.79 20.12
  Q 10.43 19.70 10.63 19.32
  Q 11.02 18.56 10.42 17.98
  A 0.82 0.82 0.0 0 0 9.12 18.19
  Q 8.44 19.48 6.88 20.33
  Q 6.87 13.42 6.87 6.62
  Q 6.88 3.77 9.99 3.07
  Q 10.52 2.95 10.59 2.41
  L 10.64 2.02
  Z" fill="#e4888f"></path>
<path d="M 6.74 22.78
  L 0.88 28.36
  Q 0.58 28.65 0.38 28.29
  L 0.23 28.02
  A 0.59 0.59 0.0 0 1 0.31 27.32
  L 6.88 20.33
  Q 8.44 19.48 9.12 18.19
  A 0.82 0.82 0.0 0 1 10.42 17.98
  Q 11.02 18.56 10.63 19.32
  Q 10.43 19.70 9.79 20.12
  Q 7.97 21.33 6.74 22.78
  Z" fill="#f2e9ed"></path>
<path d="M 20.09 29.51
  Q 20.65 31.85 19.37 32.00
  L 11.00 32.00
  Q 10.42 31.27 10.64 30.04
  L 10.73 29.73
  A 0.54 0.53 -86.6 0 1 11.17 29.33
  Q 15.78 28.57 20.09 29.51
  Z" fill="#fdef9a"></path>
</svg>
