<svg viewBox="0.00 0.00 128.00 126.00" version="1.1" xmlns="http://www.w3.org/2000/svg">
<path d="M 99.09 126.00
  L 25.76 126.00
  C 16.86 125.03 8.64 123.26 4.04 115.20
  C 0.99 109.87 0.52 103.47 0.51 96.46
  Q 0.40 46.38 0.50 27.00
  C 0.60 7.60 11.78 0.85 29.50 0.84
  Q 62.88 0.84 96.25 0.87
  C 115.29 0.89 125.41 8.61 125.44 28.50
  Q 125.51 64.25 125.50 100.00
  C 125.49 115.99 115.85 125.61 99.09 126.00
  Z
  M 117.33 28.50
  C 117.31 15.13 111.99 9.14 98.37 9.09
  Q 64.19 8.99 30.00 8.86
  Q 23.78 8.84 18.49 10.25
  C 9.24 12.73 8.56 22.40 8.55 30.50
  Q 8.52 64.00 8.54 97.50
  C 8.54 102.65 9.17 109.74 13.05 113.51
  C 15.88 116.27 21.56 117.75 25.50 117.76
  Q 60.50 117.82 95.50 117.76
  C 110.26 117.74 117.35 114.03 117.36 98.00
  Q 117.38 63.25 117.33 28.50
  Z" fill="#afa2eb"></path>
<path d="M 71.70 88.07
  L 45.50 39.17
  A 0.30 0.30 0.0 0 1 45.76 38.73
  L 53.25 38.71
  A 0.30 0.30 0.0 0 1 53.52 38.86
  L 81.01 87.78
  A 0.30 0.30 0.0 0 1 80.75 88.23
  L 71.96 88.23
  A 0.30 0.30 0.0 0 1 71.70 88.07
  Z" fill="#afa2eb"></path>
<path d="M 42.88 80.17
  L 42.99 87.30
  A 0.31 0.31 0.0 0 1 42.49 87.55
  L 16.72 67.24
  A 0.31 0.31 0.0 0 1 16.60 67.00
  L 16.64 59.64
  A 0.31 0.31 0.0 0 1 16.76 59.40
  L 42.45 39.14
  A 0.31 0.31 0.0 0 1 42.95 39.38
  L 42.95 46.45
  A 0.31 0.31 0.0 0 1 42.83 46.69
  L 21.59 63.13
  A 0.31 0.31 0.0 0 0 21.59 63.62
  L 42.76 79.93
  A 0.31 0.31 0.0 0 1 42.88 80.17
  Z" fill="#afa2eb"></path>
<path d="M 104.36 63.13
  L 83.11 46.67
  A 0.30 0.30 0.0 0 1 82.99 46.43
  L 82.98 39.37
  A 0.30 0.30 0.0 0 1 83.47 39.13
  L 109.17 59.38
  A 0.30 0.30 0.0 0 1 109.28 59.62
  L 109.29 67.06
  A 0.30 0.30 0.0 0 1 109.18 67.30
  L 83.44 87.58
  A 0.30 0.30 0.0 0 1 82.96 87.34
  L 83.02 80.21
  A 0.30 0.30 0.0 0 1 83.14 79.97
  L 104.36 63.61
  A 0.30 0.30 0.0 0 0 104.36 63.13
  Z" fill="#afa2eb"></path>
</svg>
