<svg viewBox="0.00 0.00 192.00 192.00" version="1.1" xmlns="http://www.w3.org/2000/svg">
<g stroke-linecap="butt" fill="none" stroke-width="2.00">
<path d="M 95.72 0.00
  L 60.13 20.63
  Q 59.74 20.85 59.74 21.29
  L 59.74 55.24
  Q 59.74 55.87 60.30 55.55
  L 95.48 35.24
  Q 95.93 34.98 96.38 35.24
  L 148.71 65.43" stroke="#8ccee4"></path>
<path d="M 148.71 65.43
  L 148.73 125.85
  A 1.04 1.04 0.0 0 1 148.21 126.75
  L 95.95 156.93" stroke="#84abcb"></path>
<path d="M 95.95 156.93
  L 43.71 126.80
  A 1.33 1.32 -75.2 0 1 43.05 125.65
  L 43.05 65.47" stroke="#99e3fa"></path>
<path d="M 43.05 65.47
  L 43.06 31.10
  A 0.37 0.37 0.0 0 0 42.51 30.78
  L 13.48 47.56
  Q 13.04 47.82 12.90 48.32
  L 12.78 48.78" stroke="#8ccee4"></path>
<path d="M 12.78 48.78
  L 12.78 143.76
  A 0.27 0.26 17.4 0 0 12.90 143.98
  L 95.15 191.46" stroke="#99e3fa"></path>
<path d="M 95.15 191.46
  L 95.69 191.62
  Q 96.22 191.77 96.69 191.50
  L 178.64 144.17
  Q 179.01 143.96 179.01 143.54
  L 179.00 47.95" stroke="#84abcb"></path>
<path d="M 179.00 47.95
  L 96.36 0.21
  A 0.15 0.14 -76.8 0 1 96.28 0.08
  Q 96.28 0.04 96.28 0.00" stroke="#8ccee4"></path>
<path d="M 59.81 75.93
  L 59.76 82.85
  Q 59.76 83.40 60.24 83.67
  L 84.64 97.63
  A 1.12 1.09 -42.7 0 0 85.71 97.66
  L 86.46 97.27
  A 1.00 1.00 0.0 0 1 87.33 97.25
  C 89.44 98.21 89.79 102.05 87.41 102.58
  A 1.77 1.76 76.6 0 1 85.31 101.28
  C 85.03 100.18 84.64 99.49 83.59 98.90
  Q 71.80 92.19 59.95 85.37
  A 0.14 0.13 -75.7 0 0 59.75 85.49
  L 59.74 95.45
  Q 59.74 95.74 59.99 95.89
  L 70.86 102.11
  Q 71.31 102.37 71.75 102.08
  L 72.19 101.78
  A 1.65 1.64 59.7 0 1 74.57 102.41
  Q 76.01 105.25 73.69 106.91
  A 0.88 0.87 -49.2 0 1 72.77 106.98
  Q 71.10 106.14 70.78 104.27
  A 0.89 0.89 0.0 0 0 70.35 103.65
  L 60.03 97.78
  Q 59.74 97.62 59.74 97.95
  L 59.74 107.17
  Q 59.74 107.37 59.92 107.47
  L 73.81 115.44
  Q 74.28 115.71 74.72 115.40
  L 80.04 111.68
  Q 80.48 111.38 80.94 111.64
  L 86.71 114.94
  A 0.99 0.98 38.8 0 0 87.84 114.82
  Q 89.18 113.62 90.32 115.20
  C 92.81 118.67 87.83 122.52 86.86 117.32
  A 1.09 1.07 10.0 0 0 86.33 116.58
  L 81.02 113.52
  Q 80.53 113.23 80.07 113.56
  L 74.82 117.22
  Q 74.33 117.56 73.81 117.26
  L 60.00 109.34
  Q 59.74 109.20 59.74 109.49
  L 59.74 116.49
  Q 59.74 116.76 59.98 116.90
  L 95.17 137.20" stroke="#99e3fa"></path>
<path d="M 95.17 137.20
  L 95.71 137.37
  A 1.26 1.25 -50.6 0 0 96.69 137.27
  L 109.13 130.04
  A 0.66 0.66 0.0 0 0 109.47 129.46
  L 109.30 105.41
  Q 109.30 104.90 108.96 104.53
  C 105.60 100.71 111.17 96.90 112.35 100.05
  C 112.92 101.57 111.05 103.71 111.05 104.99
  Q 111.02 116.71 111.10 128.65
  A 0.16 0.16 0.0 0 0 111.34 128.79
  L 120.48 123.51
  Q 120.77 123.34 120.76 123.01
  L 120.65 113.60
  Q 120.64 113.05 120.99 112.63
  L 126.43 106.08
  Q 126.78 105.65 126.77 105.10
  L 126.60 96.73
  Q 126.59 96.14 126.14 95.76
  C 123.76 93.78 125.91 89.60 128.68 90.27
  Q 129.26 90.41 129.44 90.98
  Q 130.14 93.20 128.58 94.85
  A 1.33 1.30 67.6 0 0 128.21 95.77
  L 128.34 105.67
  Q 128.35 106.22 127.99 106.65
  L 122.54 113.24
  Q 122.22 113.63 122.22 114.13
  L 122.37 122.19
  A 0.17 0.17 0.0 0 0 122.62 122.33
  L 131.75 116.98
  Q 132.00 116.83 132.00 116.54
  L 131.75 75.28" stroke="#84abcb"></path>
<path d="M 131.75 75.28
  L 96.36 54.46
  Q 95.91 54.20 95.46 54.46
  L 85.89 59.99
  Q 85.24 60.37 85.89 60.74
  L 93.46 65.05
  Q 93.92 65.32 94.46 65.23
  L 102.52 63.78
  A 2.49 2.49 0.0 0 1 104.21 64.08
  L 112.29 68.79
  Q 112.81 69.10 113.38 68.92
  Q 115.21 68.34 116.73 69.58
  A 1.73 1.73 0.0 0 1 116.56 72.39
  Q 114.25 73.84 112.04 72.23
  A 1.23 1.22 -73.1 0 1 111.54 71.28
  L 111.52 70.74
  Q 111.51 70.19 111.04 69.92
  L 103.54 65.59
  Q 103.13 65.35 102.66 65.44
  L 94.26 66.94
  Q 93.72 67.03 93.25 66.76
  L 83.92 61.45
  Q 83.67 61.31 83.43 61.45
  L 74.27 66.68
  A 0.26 0.25 -44.7 0 0 74.26 67.13
  L 96.31 79.68
  A 1.31 1.30 52.2 0 0 97.30 79.81
  Q 99.41 79.26 100.96 80.66
  A 1.58 1.58 0.0 0 1 100.76 83.15
  Q 98.30 84.75 95.90 83.04
  A 0.98 0.97 -70.9 0 1 95.49 82.19
  Q 95.55 81.12 94.97 80.79
  Q 83.93 74.40 72.75 68.13
  Q 72.31 67.89 71.87 68.14
  Q 66.07 71.44 60.51 74.69
  Q 60.13 74.91 59.98 75.19
  Q 59.76 75.58 59.81 75.93" stroke="#8ccee4"></path>
<path d="M 131.75 75.28
  Q 131.31 75.35 131.05 75.77
  Q 130.79 76.18 130.37 76.42
  L 119.55 82.78" stroke="#117ab0"></path>
<path d="M 119.55 82.78
  L 105.71 74.85
  Q 105.23 74.57 105.10 74.03
  Q 104.21 70.34 100.19 71.94
  A 1.66 1.64 79.4 0 0 99.16 73.46
  C 99.14 76.71 102.67 75.06 104.32 75.96
  Q 111.05 79.62 117.95 83.70" stroke="#8ccee4"></path>
<path d="M 117.95 83.70
  L 96.46 96.41" stroke="#117ab0"></path>
<path d="M 96.46 96.41
  L 61.40 76.17
  Q 61.00 75.94 60.56 76.04
  Q 60.25 76.11 59.81 75.93" stroke="#26b1df"></path>
<path d="M 119.55 82.78
  L 119.73 98.80
  Q 119.73 99.37 120.18 99.72
  L 120.89 100.28
  A 0.99 0.97 16.2 0 1 121.25 100.92
  C 121.44 102.72 120.28 105.49 118.12 105.25
  Q 116.66 105.08 116.55 103.09
  A 1.93 1.92 66.4 0 1 117.14 101.57
  Q 118.13 100.62 118.10 98.75
  Q 118.01 91.25 117.95 83.70" stroke="#84abcb"></path>
<path d="M 95.17 137.20
  Q 96.12 137.01 96.13 136.13
  Q 96.27 116.33 96.46 96.41" stroke="#1d8fc6"></path>
<path d="M 179.00 47.95
  L 148.71 65.43" stroke="#117ab0"></path>
<path d="M 43.05 65.47
  Q 28.83 57.18 14.64 49.13
  Q 13.80 48.66 12.78 48.78" stroke="#26b1df"></path>
<path d="M 95.15 191.46
  Q 95.97 191.01 95.97 190.00
  Q 96.05 173.57 95.95 156.93" stroke="#1d8fc6"></path>
</g>
<path d="M 0.00 0.00
  L 95.72 0.00
  L 60.13 20.63
  Q 59.74 20.85 59.74 21.29
  L 59.74 55.24
  Q 59.74 55.87 60.30 55.55
  L 95.48 35.24
  Q 95.93 34.98 96.38 35.24
  L 148.71 65.43
  L 148.73 125.85
  A 1.04 1.04 0.0 0 1 148.21 126.75
  L 95.95 156.93
  L 43.71 126.80
  A 1.33 1.32 -75.2 0 1 43.05 125.65
  L 43.05 65.47
  L 43.06 31.10
  A 0.37 0.37 0.0 0 0 42.51 30.78
  L 13.48 47.56
  Q 13.04 47.82 12.90 48.32
  L 12.78 48.78
  L 12.78 143.76
  A 0.27 0.26 17.4 0 0 12.90 143.98
  L 95.15 191.46
  L 95.69 191.62
  Q 96.22 191.77 96.69 191.50
  L 178.64 144.17
  Q 179.01 143.96 179.01 143.54
  L 179.00 47.95
  L 96.36 0.21
  A 0.15 0.14 -76.8 0 1 96.28 0.08
  Q 96.28 0.04 96.28 0.00
  L 192.00 0.00
  L 192.00 192.00
  L 0.00 192.00
  L 0.00 0.00
  Z
  M 59.81 75.93
  L 59.76 82.85
  Q 59.76 83.40 60.24 83.67
  L 84.64 97.63
  A 1.12 1.09 -42.7 0 0 85.71 97.66
  L 86.46 97.27
  A 1.00 1.00 0.0 0 1 87.33 97.25
  C 89.44 98.21 89.79 102.05 87.41 102.58
  A 1.77 1.76 76.6 0 1 85.31 101.28
  C 85.03 100.18 84.64 99.49 83.59 98.90
  Q 71.80 92.19 59.95 85.37
  A 0.14 0.13 -75.7 0 0 59.75 85.49
  L 59.74 95.45
  Q 59.74 95.74 59.99 95.89
  L 70.86 102.11
  Q 71.31 102.37 71.75 102.08
  L 72.19 101.78
  A 1.65 1.64 59.7 0 1 74.57 102.41
  Q 76.01 105.25 73.69 106.91
  A 0.88 0.87 -49.2 0 1 72.77 106.98
  Q 71.10 106.14 70.78 104.27
  A 0.89 0.89 0.0 0 0 70.35 103.65
  L 60.03 97.78
  Q 59.74 97.62 59.74 97.95
  L 59.74 107.17
  Q 59.74 107.37 59.92 107.47
  L 73.81 115.44
  Q 74.28 115.71 74.72 115.40
  L 80.04 111.68
  Q 80.48 111.38 80.94 111.64
  L 86.71 114.94
  A 0.99 0.98 38.8 0 0 87.84 114.82
  Q 89.18 113.62 90.32 115.20
  C 92.81 118.67 87.83 122.52 86.86 117.32
  A 1.09 1.07 10.0 0 0 86.33 116.58
  L 81.02 113.52
  Q 80.53 113.23 80.07 113.56
  L 74.82 117.22
  Q 74.33 117.56 73.81 117.26
  L 60.00 109.34
  Q 59.74 109.20 59.74 109.49
  L 59.74 116.49
  Q 59.74 116.76 59.98 116.90
  L 95.17 137.20
  L 95.71 137.37
  A 1.26 1.25 -50.6 0 0 96.69 137.27
  L 109.13 130.04
  A 0.66 0.66 0.0 0 0 109.47 129.46
  L 109.30 105.41
  Q 109.30 104.90 108.96 104.53
  C 105.60 100.71 111.17 96.90 112.35 100.05
  C 112.92 101.57 111.05 103.71 111.05 104.99
  Q 111.02 116.71 111.10 128.65
  A 0.16 0.16 0.0 0 0 111.34 128.79
  L 120.48 123.51
  Q 120.77 123.34 120.76 123.01
  L 120.65 113.60
  Q 120.64 113.05 120.99 112.63
  L 126.43 106.08
  Q 126.78 105.65 126.77 105.10
  L 126.60 96.73
  Q 126.59 96.14 126.14 95.76
  C 123.76 93.78 125.91 89.60 128.68 90.27
  Q 129.26 90.41 129.44 90.98
  Q 130.14 93.20 128.58 94.85
  A 1.33 1.30 67.6 0 0 128.21 95.77
  L 128.34 105.67
  Q 128.35 106.22 127.99 106.65
  L 122.54 113.24
  Q 122.22 113.63 122.22 114.13
  L 122.37 122.19
  A 0.17 0.17 0.0 0 0 122.62 122.33
  L 131.75 116.98
  Q 132.00 116.83 132.00 116.54
  L 131.75 75.28
  L 96.36 54.46
  Q 95.91 54.20 95.46 54.46
  L 85.89 59.99
  Q 85.24 60.37 85.89 60.74
  L 93.46 65.05
  Q 93.92 65.32 94.46 65.23
  L 102.52 63.78
  A 2.49 2.49 0.0 0 1 104.21 64.08
  L 112.29 68.79
  Q 112.81 69.10 113.38 68.92
  Q 115.21 68.34 116.73 69.58
  A 1.73 1.73 0.0 0 1 116.56 72.39
  Q 114.25 73.84 112.04 72.23
  A 1.23 1.22 -73.1 0 1 111.54 71.28
  L 111.52 70.74
  Q 111.51 70.19 111.04 69.92
  L 103.54 65.59
  Q 103.13 65.35 102.66 65.44
  L 94.26 66.94
  Q 93.72 67.03 93.25 66.76
  L 83.92 61.45
  Q 83.67 61.31 83.43 61.45
  L 74.27 66.68
  A 0.26 0.25 -44.7 0 0 74.26 67.13
  L 96.31 79.68
  A 1.31 1.30 52.2 0 0 97.30 79.81
  Q 99.41 79.26 100.96 80.66
  A 1.58 1.58 0.0 0 1 100.76 83.15
  Q 98.30 84.75 95.90 83.04
  A 0.98 0.97 -70.9 0 1 95.49 82.19
  Q 95.55 81.12 94.97 80.79
  Q 83.93 74.40 72.75 68.13
  Q 72.31 67.89 71.87 68.14
  Q 66.07 71.44 60.51 74.69
  Q 60.13 74.91 59.98 75.19
  Q 59.76 75.58 59.81 75.93
  Z" fill="#ffffff"></path>
<path d="M 95.72 0.00
  L 96.28 0.00
  Q 96.28 0.04 96.28 0.08
  A 0.15 0.14 -76.8 0 0 96.36 0.21
  L 179.00 47.95
  L 148.71 65.43
  L 96.38 35.24
  Q 95.93 34.98 95.48 35.24
  L 60.30 55.55
  Q 59.74 55.87 59.74 55.24
  L 59.74 21.29
  Q 59.74 20.85 60.13 20.63
  L 95.72 0.00
  Z" fill="#199cc9"></path>
<path d="M 43.05 65.47
  Q 28.83 57.18 14.64 49.13
  Q 13.80 48.66 12.78 48.78
  L 12.90 48.32
  Q 13.04 47.82 13.48 47.56
  L 42.51 30.78
  A 0.37 0.37 0.0 0 1 43.06 31.10
  L 43.05 65.47
  Z" fill="#199cc9"></path>
<path d="M 179.00 47.95
  L 179.01 143.54
  Q 179.01 143.96 178.64 144.17
  L 96.69 191.50
  Q 96.22 191.77 95.69 191.62
  L 95.15 191.46
  Q 95.97 191.01 95.97 190.00
  Q 96.05 173.57 95.95 156.93
  L 148.21 126.75
  A 1.04 1.04 0.0 0 0 148.73 125.85
  L 148.71 65.43
  L 179.00 47.95
  Z" fill="#085797"></path>
<path d="M 12.78 48.78
  Q 13.80 48.66 14.64 49.13
  Q 28.83 57.18 43.05 65.47
  L 43.05 125.65
  A 1.33 1.32 -75.2 0 0 43.71 126.80
  L 95.95 156.93
  Q 96.05 173.57 95.97 190.00
  Q 95.97 191.01 95.15 191.46
  L 12.90 143.98
  A 0.27 0.26 17.4 0 1 12.78 143.76
  L 12.78 48.78
  Z" fill="#32c6f4"></path>
<path d="M 131.75 75.28
  Q 131.31 75.35 131.05 75.77
  Q 130.79 76.18 130.37 76.42
  L 119.55 82.78
  L 105.71 74.85
  Q 105.23 74.57 105.10 74.03
  Q 104.21 70.34 100.19 71.94
  A 1.66 1.64 79.4 0 0 99.16 73.46
  C 99.14 76.71 102.67 75.06 104.32 75.96
  Q 111.05 79.62 117.95 83.70
  L 96.46 96.41
  L 61.40 76.17
  Q 61.00 75.94 60.56 76.04
  Q 60.25 76.11 59.81 75.93
  Q 59.76 75.58 59.98 75.19
  Q 60.13 74.91 60.51 74.69
  Q 66.07 71.44 71.87 68.14
  Q 72.31 67.89 72.75 68.13
  Q 83.93 74.40 94.97 80.79
  Q 95.55 81.12 95.49 82.19
  A 0.98 0.97 -70.9 0 0 95.90 83.04
  Q 98.30 84.75 100.76 83.15
  A 1.58 1.58 0.0 0 0 100.96 80.66
  Q 99.41 79.26 97.30 79.81
  A 1.31 1.30 52.2 0 1 96.31 79.68
  L 74.26 67.13
  A 0.26 0.25 -44.7 0 1 74.27 66.68
  L 83.43 61.45
  Q 83.67 61.31 83.92 61.45
  L 93.25 66.76
  Q 93.72 67.03 94.26 66.94
  L 102.66 65.44
  Q 103.13 65.35 103.54 65.59
  L 111.04 69.92
  Q 111.51 70.19 111.52 70.74
  L 111.54 71.28
  A 1.23 1.22 -73.1 0 0 112.04 72.23
  Q 114.25 73.84 116.56 72.39
  A 1.73 1.73 0.0 0 0 116.73 69.58
  Q 115.21 68.34 113.38 68.92
  Q 112.81 69.10 112.29 68.79
  L 104.21 64.08
  A 2.49 2.49 0.0 0 0 102.52 63.78
  L 94.46 65.23
  Q 93.92 65.32 93.46 65.05
  L 85.89 60.74
  Q 85.24 60.37 85.89 59.99
  L 95.46 54.46
  Q 95.91 54.20 96.36 54.46
  L 131.75 75.28
  Z" fill="#199cc9"></path>
<path d="M 119.55 82.78
  L 119.73 98.80
  Q 119.73 99.37 120.18 99.72
  L 120.89 100.28
  A 0.99 0.97 16.2 0 1 121.25 100.92
  C 121.44 102.72 120.28 105.49 118.12 105.25
  Q 116.66 105.08 116.55 103.09
  A 1.93 1.92 66.4 0 1 117.14 101.57
  Q 118.13 100.62 118.10 98.75
  Q 118.01 91.25 117.95 83.70
  Q 111.05 79.62 104.32 75.96
  C 102.67 75.06 99.14 76.71 99.16 73.46
  A 1.66 1.64 79.4 0 1 100.19 71.94
  Q 104.21 70.34 105.10 74.03
  Q 105.23 74.57 105.71 74.85
  L 119.55 82.78
  Z" fill="#ffffff"></path>
<path d="M 131.75 75.28
  L 132.00 116.54
  Q 132.00 116.83 131.75 116.98
  L 122.62 122.33
  A 0.17 0.17 0.0 0 1 122.37 122.19
  L 122.22 114.13
  Q 122.22 113.63 122.54 113.24
  L 127.99 106.65
  Q 128.35 106.22 128.34 105.67
  L 128.21 95.77
  A 1.33 1.30 67.6 0 1 128.58 94.85
  Q 130.14 93.20 129.44 90.98
  Q 129.26 90.41 128.68 90.27
  C 125.91 89.60 123.76 93.78 126.14 95.76
  Q 126.59 96.14 126.60 96.73
  L 126.77 105.10
  Q 126.78 105.65 126.43 106.08
  L 120.99 112.63
  Q 120.64 113.05 120.65 113.60
  L 120.76 123.01
  Q 120.77 123.34 120.48 123.51
  L 111.34 128.79
  A 0.16 0.16 0.0 0 1 111.10 128.65
  Q 111.02 116.71 111.05 104.99
  C 111.05 103.71 112.92 101.57 112.35 100.05
  C 111.17 96.90 105.60 100.71 108.96 104.53
  Q 109.30 104.90 109.30 105.41
  L 109.47 129.46
  A 0.66 0.66 0.0 0 1 109.13 130.04
  L 96.69 137.27
  A 1.26 1.25 -50.6 0 1 95.71 137.37
  L 95.17 137.20
  Q 96.12 137.01 96.13 136.13
  Q 96.27 116.33 96.46 96.41
  L 117.95 83.70
  Q 118.01 91.25 118.10 98.75
  Q 118.13 100.62 117.14 101.57
  A 1.93 1.92 66.4 0 0 116.55 103.09
  Q 116.66 105.08 118.12 105.25
  C 120.28 105.49 121.44 102.72 121.25 100.92
  A 0.99 0.97 16.2 0 0 120.89 100.28
  L 120.18 99.72
  Q 119.73 99.37 119.73 98.80
  L 119.55 82.78
  L 130.37 76.42
  Q 130.79 76.18 131.05 75.77
  Q 131.31 75.35 131.75 75.28
  Z" fill="#085797"></path>
<path d="M 96.46 96.41
  Q 96.27 116.33 96.13 136.13
  Q 96.12 137.01 95.17 137.20
  L 59.98 116.90
  Q 59.74 116.76 59.74 116.49
  L 59.74 109.49
  Q 59.74 109.20 60.00 109.34
  L 73.81 117.26
  Q 74.33 117.56 74.82 117.22
  L 80.07 113.56
  Q 80.53 113.23 81.02 113.52
  L 86.33 116.58
  A 1.09 1.07 10.0 0 1 86.86 117.32
  C 87.83 122.52 92.81 118.67 90.32 115.20
  Q 89.18 113.62 87.84 114.82
  A 0.99 0.98 38.8 0 1 86.71 114.94
  L 80.94 111.64
  Q 80.48 111.38 80.04 111.68
  L 74.72 115.40
  Q 74.28 115.71 73.81 115.44
  L 59.92 107.47
  Q 59.74 107.37 59.74 107.17
  L 59.74 97.95
  Q 59.74 97.62 60.03 97.78
  L 70.35 103.65
  A 0.89 0.89 0.0 0 1 70.78 104.27
  Q 71.10 106.14 72.77 106.98
  A 0.88 0.87 -49.2 0 0 73.69 106.91
  Q 76.01 105.25 74.57 102.41
  A 1.65 1.64 59.7 0 0 72.19 101.78
  L 71.75 102.08
  Q 71.31 102.37 70.86 102.11
  L 59.99 95.89
  Q 59.74 95.74 59.74 95.45
  L 59.75 85.49
  A 0.14 0.13 -75.7 0 1 59.95 85.37
  Q 71.80 92.19 83.59 98.90
  C 84.64 99.49 85.03 100.18 85.31 101.28
  A 1.77 1.76 76.6 0 0 87.41 102.58
  C 89.79 102.05 89.44 98.21 87.33 97.25
  A 1.00 1.00 0.0 0 0 86.46 97.27
  L 85.71 97.66
  A 1.12 1.09 -42.7 0 1 84.64 97.63
  L 60.24 83.67
  Q 59.76 83.40 59.76 82.85
  L 59.81 75.93
  Q 60.25 76.11 60.56 76.04
  Q 61.00 75.94 61.40 76.17
  L 96.46 96.41
  Z" fill="#32c6f4"></path>
</svg>
