<svg viewBox="0.00 0.00 128.00 128.00" version="1.1" xmlns="http://www.w3.org/2000/svg">
<g stroke-linecap="butt" fill="none" stroke-width="2.00">
<path d="M 101.92 27.77
  L 97.26 32.98
  A 2.39 2.38 62.0 0 0 96.67 34.92
  Q 97.95 43.89 95.95 53.23
  C 93.59 64.21 88.05 71.43 79.75 78.64
  Q 79.57 78.80 79.60 79.05
  Q 80.98 89.05 75.97 95.72
  Q 72.01 100.96 62.63 108.94
  C 61.05 110.28 57.07 114.00 55.18 112.58
  A 2.05 2.05 0.0 0 1 54.48 110.25
  Q 57.13 102.92 59.86 95.84
  C 60.36 94.54 60.38 93.09 59.41 92.12
  A 1.20 1.18 -30.5 0 0 58.25 91.83
  L 45.24 95.63
  Q 44.74 95.78 44.30 95.49
  L 42.99 94.60
  A 0.71 0.71 0.0 0 0 42.17 94.62
  L 39.23 96.85
  Q 38.76 97.21 38.20 96.99
  L 37.14 96.58
  Q 36.60 96.38 36.17 96.75
  L 15.26 115.19
  A 0.70 0.69 45.2 0 0 15.26 116.24
  C 20.40 120.78 25.58 121.72 32.93 121.73
  Q 65.97 121.78 99.00 121.63
  C 110.26 121.58 121.35 113.00 121.53 101.25
  Q 121.80 83.63 121.52 32.40
  C 121.48 25.58 120.56 20.62 116.46 15.79
  Q 109.59 7.67 98.50 7.70
  Q 65.93 7.78 33.37 7.84
  Q 26.77 7.85 24.19 8.50
  C 17.07 10.30 10.98 16.16 8.79 23.08
  Q 7.75 26.40 7.74 35.02
  Q 7.72 66.70 7.75 98.39
  C 7.76 103.97 8.68 107.86 11.52 112.23
  A 0.84 0.84 0.0 0 0 12.85 112.34
  L 31.23 92.04
  Q 31.61 91.61 31.59 91.04
  Q 31.49 88.66 33.13 86.89
  Q 34.36 85.57 33.28 84.38
  A 1.56 1.56 0.0 0 1 32.93 82.88
  L 36.62 70.59
  A 1.57 1.57 0.0 0 0 35.55 68.63
  Q 34.05 68.19 33.03 68.56
  Q 25.78 71.25 18.26 74.02
  A 1.84 1.83 -21.0 0 1 15.92 72.98
  Q 15.21 71.19 16.87 69.11
  Q 22.27 62.30 28.43 56.18
  C 33.75 50.87 40.70 47.14 48.43 49.06
  A 1.65 1.62 -63.2 0 0 50.09 48.50
  Q 66.40 28.59 92.76 31.85
  C 95.47 32.19 98.52 28.37 100.46 26.66
  Q 101.31 25.91 101.98 26.93
  Q 102.28 27.37 101.92 27.77" stroke="#af9ff5"></path>
<path d="M 84.88 48.77
  A 5.12 5.12 0.0 0 0 79.76 43.65
  A 5.12 5.12 0.0 0 0 74.64 48.77
  A 5.12 5.12 0.0 0 0 79.76 53.89
  A 5.12 5.12 0.0 0 0 84.88 48.77" stroke="#af9ff5"></path>
<path d="M 71.29 62.37
  A 5.14 5.14 0.0 0 0 66.15 57.23
  A 5.14 5.14 0.0 0 0 61.01 62.37
  A 5.14 5.14 0.0 0 0 66.15 67.51
  A 5.14 5.14 0.0 0 0 71.29 62.37" stroke="#af9ff5"></path>
<path d="M 33.6335 93.1839
  A 0.27 0.27 0.0 0 0 33.6235 92.8022
  L 33.2753 92.4718
  A 0.27 0.27 0.0 0 0 32.8936 92.4818
  L 24.2065 101.6361
  A 0.27 0.27 0.0 0 0 24.2165 102.0178
  L 24.5647 102.3482
  A 0.27 0.27 0.0 0 0 24.9464 102.3382
  L 33.6335 93.1839" stroke="#af9ff5"></path>
<path d="M 35.70 94.90
  L 35.18 94.34
  A 0.19 0.19 0.0 0 0 34.91 94.33
  L 34.83 94.42
  A 12.99 0.50 -42.9 0 0 25.65 103.63
  L 25.75 103.73
  A 12.99 0.50 -42.9 0 0 35.60 95.25
  L 35.69 95.17
  A 0.19 0.19 0.0 0 0 35.70 94.90" stroke="#af9ff5"></path>
</g>
<path d="M 0.00 0.00
  L 128.00 0.00
  L 128.00 128.00
  L 0.00 128.00
  L 0.00 0.00
  Z
  M 101.92 27.77
  L 97.26 32.98
  A 2.39 2.38 62.0 0 0 96.67 34.92
  Q 97.95 43.89 95.95 53.23
  C 93.59 64.21 88.05 71.43 79.75 78.64
  Q 79.57 78.80 79.60 79.05
  Q 80.98 89.05 75.97 95.72
  Q 72.01 100.96 62.63 108.94
  C 61.05 110.28 57.07 114.00 55.18 112.58
  A 2.05 2.05 0.0 0 1 54.48 110.25
  Q 57.13 102.92 59.86 95.84
  C 60.36 94.54 60.38 93.09 59.41 92.12
  A 1.20 1.18 -30.5 0 0 58.25 91.83
  L 45.24 95.63
  Q 44.74 95.78 44.30 95.49
  L 42.99 94.60
  A 0.71 0.71 0.0 0 0 42.17 94.62
  L 39.23 96.85
  Q 38.76 97.21 38.20 96.99
  L 37.14 96.58
  Q 36.60 96.38 36.17 96.75
  L 15.26 115.19
  A 0.70 0.69 45.2 0 0 15.26 116.24
  C 20.40 120.78 25.58 121.72 32.93 121.73
  Q 65.97 121.78 99.00 121.63
  C 110.26 121.58 121.35 113.00 121.53 101.25
  Q 121.80 83.63 121.52 32.40
  C 121.48 25.58 120.56 20.62 116.46 15.79
  Q 109.59 7.67 98.50 7.70
  Q 65.93 7.78 33.37 7.84
  Q 26.77 7.85 24.19 8.50
  C 17.07 10.30 10.98 16.16 8.79 23.08
  Q 7.75 26.40 7.74 35.02
  Q 7.72 66.70 7.75 98.39
  C 7.76 103.97 8.68 107.86 11.52 112.23
  A 0.84 0.84 0.0 0 0 12.85 112.34
  L 31.23 92.04
  Q 31.61 91.61 31.59 91.04
  Q 31.49 88.66 33.13 86.89
  Q 34.36 85.57 33.28 84.38
  A 1.56 1.56 0.0 0 1 32.93 82.88
  L 36.62 70.59
  A 1.57 1.57 0.0 0 0 35.55 68.63
  Q 34.05 68.19 33.03 68.56
  Q 25.78 71.25 18.26 74.02
  A 1.84 1.83 -21.0 0 1 15.92 72.98
  Q 15.21 71.19 16.87 69.11
  Q 22.27 62.30 28.43 56.18
  C 33.75 50.87 40.70 47.14 48.43 49.06
  A 1.65 1.62 -63.2 0 0 50.09 48.50
  Q 66.40 28.59 92.76 31.85
  C 95.47 32.19 98.52 28.37 100.46 26.66
  Q 101.31 25.91 101.98 26.93
  Q 102.28 27.37 101.92 27.77
  Z
  M 84.88 48.77
  A 5.12 5.12 0.0 0 0 79.76 43.65
  A 5.12 5.12 0.0 0 0 74.64 48.77
  A 5.12 5.12 0.0 0 0 79.76 53.89
  A 5.12 5.12 0.0 0 0 84.88 48.77
  Z
  M 71.29 62.37
  A 5.14 5.14 0.0 0 0 66.15 57.23
  A 5.14 5.14 0.0 0 0 61.01 62.37
  A 5.14 5.14 0.0 0 0 66.15 67.51
  A 5.14 5.14 0.0 0 0 71.29 62.37
  Z
  M 33.6335 93.1839
  A 0.27 0.27 0.0 0 0 33.6235 92.8022
  L 33.2753 92.4718
  A 0.27 0.27 0.0 0 0 32.8936 92.4818
  L 24.2065 101.6361
  A 0.27 0.27 0.0 0 0 24.2165 102.0178
  L 24.5647 102.3482
  A 0.27 0.27 0.0 0 0 24.9464 102.3382
  L 33.6335 93.1839
  Z
  M 35.70 94.90
  L 35.18 94.34
  A 0.19 0.19 0.0 0 0 34.91 94.33
  L 34.83 94.42
  A 12.99 0.50 -42.9 0 0 25.65 103.63
  L 25.75 103.73
  A 12.99 0.50 -42.9 0 0 35.60 95.25
  L 35.69 95.17
  A 0.19 0.19 0.0 0 0 35.70 94.90
  Z" fill="#f7f2ef"></path>
<path d="M 101.98 26.93
  Q 101.31 25.91 100.46 26.66
  C 98.52 28.37 95.47 32.19 92.76 31.85
  Q 66.40 28.59 50.09 48.50
  A 1.65 1.62 -63.2 0 1 48.43 49.06
  C 40.70 47.14 33.75 50.87 28.43 56.18
  Q 22.27 62.30 16.87 69.11
  Q 15.21 71.19 15.92 72.98
  A 1.84 1.83 -21.0 0 0 18.26 74.02
  Q 25.78 71.25 33.03 68.56
  Q 34.05 68.19 35.55 68.63
  A 1.57 1.57 0.0 0 1 36.62 70.59
  L 32.93 82.88
  A 1.56 1.56 0.0 0 0 33.28 84.38
  Q 34.36 85.57 33.13 86.89
  Q 31.49 88.66 31.59 91.04
  Q 31.61 91.61 31.23 92.04
  L 12.85 112.34
  A 0.84 0.84 0.0 0 1 11.52 112.23
  C 8.68 107.86 7.76 103.97 7.75 98.39
  Q 7.72 66.70 7.74 35.02
  Q 7.75 26.40 8.79 23.08
  C 10.98 16.16 17.07 10.30 24.19 8.50
  Q 26.77 7.85 33.37 7.84
  Q 65.93 7.78 98.50 7.70
  Q 109.59 7.67 116.46 15.79
  C 120.56 20.62 121.48 25.58 121.52 32.40
  Q 121.80 83.63 121.53 101.25
  C 121.35 113.00 110.26 121.58 99.00 121.63
  Q 65.97 121.78 32.93 121.73
  C 25.58 121.72 20.40 120.78 15.26 116.24
  A 0.70 0.69 45.2 0 1 15.26 115.19
  L 36.17 96.75
  Q 36.60 96.38 37.14 96.58
  L 38.20 96.99
  Q 38.76 97.21 39.23 96.85
  L 42.17 94.62
  A 0.71 0.71 0.0 0 1 42.99 94.60
  L 44.30 95.49
  Q 44.74 95.78 45.24 95.63
  L 58.25 91.83
  A 1.20 1.18 -30.5 0 1 59.41 92.12
  C 60.38 93.09 60.36 94.54 59.86 95.84
  Q 57.13 102.92 54.48 110.25
  A 2.05 2.05 0.0 0 0 55.18 112.58
  C 57.07 114.00 61.05 110.28 62.63 108.94
  Q 72.01 100.96 75.97 95.72
  Q 80.98 89.05 79.60 79.05
  Q 79.57 78.80 79.75 78.64
  C 88.05 71.43 93.59 64.21 95.95 53.23
  Q 97.95 43.89 96.67 34.92
  A 2.39 2.38 62.0 0 1 97.26 32.98
  L 101.92 27.77
  Q 102.28 27.37 101.98 26.93
  Z" fill="#664bfa"></path>
<circle r="5.12" cy="48.77" cx="79.76" fill="#664bfa"></circle>
<circle r="5.14" cy="62.37" cx="66.15" fill="#664bfa"></circle>
<rect rx="0.27" height="13.16" width="1.02" transform="translate(28.92,97.41) rotate(43.5)" y="-6.58" x="-0.51" fill="#664bfa"></rect>
<path d="M 35.70 94.90
  A 0.19 0.19 0.0 0 1 35.69 95.17
  L 35.60 95.25
  A 12.99 0.50 -42.9 0 1 25.75 103.73
  L 25.65 103.63
  A 12.99 0.50 -42.9 0 1 34.83 94.42
  L 34.91 94.33
  A 0.19 0.19 0.0 0 1 35.18 94.34
  L 35.70 94.90
  Z" fill="#664bfa"></path>
</svg>
