<svg viewBox="0.00 0.00 128.00 128.00" version="1.1" xmlns="http://www.w3.org/2000/svg">
<path d="M 72.73 24.48
  C 55.87 22.55 40.61 29.33 36.22 46.79
  Q 32.04 63.42 35.69 80.06
  Q 36.18 82.28 37.04 84.34
  Q 37.90 86.43 38.90 88.46
  Q 45.54 102.00 60.50 104.73
  C 75.72 107.49 88.88 102.35 96.19 88.46
  Q 97.48 86.01 98.54 83.66
  A 0.40 0.39 -68.0 0 1 99.03 83.45
  L 119.32 91.12
  Q 119.72 91.27 119.56 91.67
  Q 108.38 119.12 79.01 123.66
  C 64.29 125.93 47.21 124.00 34.50 116.38
  C 18.46 106.75 10.90 89.62 9.59 71.26
  C 7.57 42.91 17.03 15.24 46.98 7.26
  Q 64.87 2.49 85.21 7.21
  Q 110.02 12.97 118.20 36.94
  Q 118.31 37.26 117.99 37.34
  L 97.28 43.02
  Q 96.92 43.11 96.80 42.77
  C 93.10 32.17 83.73 25.74 72.73 24.48
  Z" fill="#059669"></path>
</svg>
