<svg viewBox="0.00 0.00 48.00 48.00" version="1.1" xmlns="http://www.w3.org/2000/svg">
<path d="M 32.77 23.04
  Q 37.83 25.00 37.79 30.53
  Q 37.70 40.02 27.98 40.97
  Q 22.11 41.55 11.49 41.05
  Q 10.97 41.02 10.97 40.51
  L 10.96 5.77
  Q 10.96 5.32 11.41 5.30
  C 19.24 5.09 34.64 3.05 36.76 12.80
  Q 38.07 18.85 32.71 22.53
  Q 32.26 22.84 32.77 23.04
  Z
  M 18.51 11.57
  L 18.53 19.95
  A 0.31 0.31 0.0 0 0 18.85 20.26
  L 25.04 20.24
  A 4.48 4.00 -0.2 0 0 29.50 16.22
  L 29.50 15.22
  A 4.48 4.00 -0.2 0 0 25.00 11.24
  L 18.81 11.26
  A 0.31 0.31 0.0 0 0 18.51 11.57
  Z
  M 18.52 25.95
  L 18.52 34.79
  A 0.41 0.41 0.0 0 0 18.93 35.20
  L 25.64 35.20
  A 4.78 4.64 -0.0 0 0 30.42 30.56
  L 30.42 30.18
  A 4.78 4.64 0.0 0 0 25.64 25.54
  L 18.93 25.54
  A 0.41 0.41 0.0 0 0 18.52 25.95
  Z" fill="#111827"></path>
</svg>
