<svg viewBox="0.00 0.00 134.00 142.00" version="1.1" xmlns="http://www.w3.org/2000/svg">
<path d="M 80.14 0.00
  L 81.72 0.00
  C 88.46 1.88 89.36 10.45 82.48 12.38
  Q 82.01 12.51 81.91 12.99
  L 79.64 24.51
  A 0.30 0.29 5.6 0 0 79.93 24.86
  C 85.39 24.90 93.03 24.18 97.44 25.66
  C 104.71 28.09 105.43 34.10 105.39 41.47
  Q 105.35 48.53 105.38 55.60
  Q 105.41 63.56 104.28 66.26
  Q 101.94 71.88 94.86 73.28
  Q 94.28 73.40 94.28 73.98
  L 94.27 80.32
  Q 94.27 80.86 94.82 80.86
  L 107.52 80.87
  A 1.17 1.15 -69.8 0 0 108.41 80.45
  C 113.20 74.70 121.69 80.41 118.42 87.76
  Q 118.25 88.15 118.44 88.52
  L 122.43 96.32
  Q 122.66 96.78 123.18 96.82
  Q 131.04 97.41 133.21 105.00
  C 133.87 107.32 132.03 109.73 129.91 108.22
  C 129.00 107.56 128.90 106.41 128.58 105.39
  C 126.30 98.22 116.79 100.60 117.22 108.29
  A 1.74 1.73 85.1 0 1 115.69 110.11
  L 115.17 110.18
  A 2.14 2.14 0.0 0 1 112.79 108.16
  Q 112.48 101.70 117.77 98.26
  A 0.58 0.58 0.0 0 0 117.97 97.50
  L 114.66 91.07
  Q 114.44 90.64 113.96 90.66
  Q 108.54 90.84 106.94 85.78
  A 0.72 0.71 -9.0 0 0 106.26 85.29
  L 94.75 85.29
  Q 94.28 85.29 94.28 85.77
  C 94.25 94.12 96.10 103.03 86.71 107.14
  Q 86.26 107.34 86.25 107.83
  Q 86.09 116.69 86.19 119.24
  Q 86.54 127.95 78.74 129.94
  Q 78.27 130.06 78.25 130.55
  C 78.11 134.42 79.10 139.79 74.48 141.39
  Q 71.62 142.38 69.22 140.66
  C 66.05 138.39 67.05 133.99 66.90 130.50
  Q 66.87 129.97 66.36 129.86
  C 59.81 128.46 58.93 124.10 58.97 117.79
  Q 58.99 112.83 58.96 107.80
  Q 58.96 107.30 58.50 107.08
  C 49.86 102.96 51.25 95.42 51.22 87.36
  Q 51.22 86.87 50.73 86.87
  L 32.73 86.87
  Q 32.26 86.87 31.93 87.21
  C 26.53 92.71 18.42 87.45 21.39 80.65
  A 0.99 0.96 41.6 0 0 21.32 79.75
  L 10.58 62.68
  Q 10.30 62.25 9.79 62.19
  Q 2.18 61.30 0.00 53.86
  L 0.00 52.54
  Q 1.73 49.92 4.07 51.80
  A 1.27 1.22 14.6 0 1 4.50 52.50
  C 5.77 58.39 13.18 59.49 15.54 54.10
  C 16.10 52.81 16.02 51.40 16.04 50.05
  A 2.11 2.11 0.0 0 1 18.62 48.02
  Q 20.14 48.37 20.36 50.02
  Q 21.28 56.76 15.35 60.86
  Q 14.95 61.14 15.21 61.55
  L 24.80 76.78
  Q 25.08 77.23 25.60 77.16
  Q 31.36 76.35 33.24 81.82
  Q 33.41 82.31 33.94 82.31
  L 50.72 82.31
  Q 51.25 82.31 51.25 81.78
  L 51.25 73.80
  Q 51.25 73.38 50.84 73.30
  Q 43.75 71.99 41.35 66.43
  Q 40.17 63.70 40.20 55.93
  Q 40.23 47.95 40.22 39.97
  Q 40.22 34.03 41.61 31.27
  C 44.63 25.27 49.83 24.85 56.54 24.86
  Q 65.53 24.88 74.52 24.88
  Q 74.96 24.88 75.04 24.45
  L 77.50 12.02
  A 0.57 0.57 0.0 0 0 77.26 11.44
  C 72.36 7.96 74.63 1.45 80.14 0.00
  Z
  M 83.33 6.34
  A 2.42 2.42 0.0 0 0 80.91 3.92
  A 2.42 2.42 0.0 0 0 78.49 6.34
  A 2.42 2.42 0.0 0 0 80.91 8.76
  A 2.42 2.42 0.0 0 0 83.33 6.34
  Z
  M 59.6399 40.7055
  A 2.52 2.52 0.0 0 0 57.1155 38.1899
  L 56.9355 38.1902
  A 2.52 2.52 0.0 0 0 54.4199 40.7146
  L 54.4401 52.3345
  A 2.52 2.52 0.0 0 0 56.9645 54.8501
  L 57.1445 54.8498
  A 2.52 2.52 0.0 0 0 59.6601 52.3254
  L 59.6399 40.7055
  Z
  M 77.3097 40.6910
  A 2.51 2.51 0.0 0 0 74.7909 38.1897
  L 74.6109 38.1904
  A 2.51 2.51 0.0 0 0 72.1097 40.7091
  L 72.1503 52.3490
  A 2.51 2.51 0.0 0 0 74.6691 54.8503
  L 74.8491 54.8496
  A 2.51 2.51 0.0 0 0 77.3503 52.3309
  L 77.3097 40.6910
  Z
  M 29.53 83.35
  A 2.41 2.41 0.0 0 0 27.12 80.94
  A 2.41 2.41 0.0 0 0 24.71 83.35
  A 2.41 2.41 0.0 0 0 27.12 85.76
  A 2.41 2.41 0.0 0 0 29.53 83.35
  Z
  M 115.53 84.43
  A 2.41 2.41 0.0 0 0 113.12 82.02
  A 2.41 2.41 0.0 0 0 110.71 84.43
  A 2.41 2.41 0.0 0 0 113.12 86.84
  A 2.41 2.41 0.0 0 0 115.53 84.43
  Z
  M 76.47 115.28
  C 78.84 117.60 78.24 121.47 78.25 124.36
  Q 78.26 125.94 79.50 124.96
  L 80.29 124.33
  Q 81.69 123.23 81.69 121.45
  L 81.70 108.24
  A 0.23 0.22 0.0 0 0 81.47 108.02
  L 64.00 108.01
  Q 63.51 108.01 63.51 108.50
  L 63.52 121.60
  A 3.37 3.33 -70.1 0 0 64.70 124.16
  L 65.61 124.94
  Q 66.88 126.02 66.94 124.35
  C 67.03 122.13 66.65 119.28 67.42 117.30
  C 68.90 113.49 73.59 112.45 76.47 115.28
  Z" fill="#bd195d"></path>
<path d="M 9.99 38.75
  L 5.88 39.57
  A 0.98 0.98 0.0 0 1 4.71 38.61
  L 4.71 26.32
  Q 4.71 24.86 6.17 24.87
  L 11.24 24.89
  A 1.20 1.20 0.0 0 1 12.42 26.24
  L 11.66 32.22
  A 0.50 0.50 0.0 0 0 12.22 32.78
  L 18.27 32.04
  A 0.65 0.65 0.0 0 1 18.92 32.99
  Q 14.31 41.56 9.68 49.99
  Q 9.56 50.19 9.36 50.30
  A 0.28 0.28 0.0 0 1 8.95 50.01
  L 10.37 39.11
  Q 10.43 38.66 9.99 38.75
  Z" fill="#bd195d"></path>
</svg>
