<svg viewBox="0.00 0.00 192.00 192.00" version="1.1" xmlns="http://www.w3.org/2000/svg">
<g stroke-linecap="butt" fill="none" stroke-width="2.00">
<path d="M 46.57 150.78
  L 46.57 164.62
  Q 46.57 165.14 47.10 165.14
  L 60.73 165.13" stroke="#81b3ea"></path>
<path d="M 60.73 165.13
  Q 83.02 165.17 105.20 165.19
  Q 118.15 165.21 123.66 163.69
  C 145.10 157.81 155.39 132.45 144.39 112.71" stroke="#a7f4d4"></path>
<path d="M 144.39 112.71
  Q 142.06 108.67 138.83 105.42
  Q 134.27 100.83 129.70 96.14" stroke="#9defcd"></path>
<path d="M 129.70 96.14
  Q 138.76 87.47 141.18 84.43
  C 159.07 61.96 143.66 27.63 114.75 27.27
  Q 102.73 27.13 61.18 27.36" stroke="#9cc0ff"></path>
<path d="M 61.18 27.36
  L 47.12 27.30
  Q 46.52 27.30 46.52 27.90
  L 46.57 150.78" stroke="#9defcd"></path>
<path d="M 61.18 27.36
  L 80.98 47.46" stroke="#3aafcd"></path>
<path d="M 80.98 47.46
  L 115.55 81.90" stroke="#9defcd"></path>
<path d="M 115.55 81.90
  L 102.13 95.35" stroke="#3aafcd"></path>
<path d="M 102.13 95.35
  Q 101.90 95.87 101.23 96.16" stroke="#1fa3b7"></path>
<path d="M 101.23 96.16
  L 67.11 62.00
  A 0.26 0.26 0.0 0 0 66.67 62.18
  L 66.73 130.68" stroke="#9defcd"></path>
<path d="M 66.73 130.68
  L 46.57 150.78" stroke="#1fa3b7"></path>
<path d="M 116.28 109.53
  Q 115.72 109.96 115.52 110.40" stroke="#1fa3b7"></path>
<path d="M 115.52 110.40
  L 81.06 144.86" stroke="#81b3ea"></path>
<path d="M 81.06 144.86
  L 60.73 165.13" stroke="#28a8be"></path>
<path d="M 129.70 96.14
  L 116.28 109.53" stroke="#3aafcd"></path>
<path d="M 116.28 109.53
  Q 116.30 108.76 117.10 108.06
  A 0.78 0.78 0.0 0 0 117.32 107.21
  C 116.75 105.58 115.08 105.26 114.10 104.46
  Q 112.38 103.06 110.45 101.98
  C 108.99 101.15 108.43 99.76 106.86 98.95
  Q 104.60 97.80 102.32 96.66
  Q 101.92 96.45 102.18 96.09
  Q 102.45 95.72 102.13 95.35" stroke="#1d74ea"></path>
<path d="M 115.55 81.90
  C 119.42 78.08 125.66 72.85 127.67 68.26
  C 130.84 61.04 126.98 51.85 120.09 48.77
  Q 116.89 47.35 110.23 47.35
  Q 95.79 47.35 80.98 47.46" stroke="#9cc0ff"></path>
<path d="M 101.23 96.16
  L 66.73 130.68" stroke="#81b3ea"></path>
<path d="M 144.39 112.71
  L 143.93 113.46
  Q 143.71 113.79 143.35 113.62
  Q 143.09 113.48 142.64 113.66
  C 138.50 115.22 134.23 116.62 130.29 118.66
  Q 129.86 118.89 129.38 118.77
  L 128.80 118.62
  Q 128.30 118.49 128.21 119.01
  Q 128.15 119.39 127.95 119.71
  Q 127.67 120.15 127.23 119.87
  Q 125.76 118.92 123.61 118.49" stroke="#45e4a1"></path>
<path d="M 123.61 118.49
  L 115.52 110.40" stroke="#9defcd"></path>
<path d="M 123.61 118.49
  C 131.32 125.81 130.25 138.84 120.63 143.42
  Q 117.35 144.98 109.66 145.02
  Q 95.67 145.08 81.06 144.86" stroke="#a7f4d4"></path>
</g>
<path d="M 90.67 0.00
  L 101.46 0.00
  C 150.94 3.76 188.31 41.18 192.00 90.66
  L 192.00 101.45
  C 188.34 150.98 150.80 188.21 101.33 192.00
  L 90.54 192.00
  C 41.05 188.17 3.67 150.87 0.00 101.34
  L 0.00 90.54
  C 3.87 41.09 41.12 3.59 90.67 0.00
  Z
  M 46.57 150.78
  L 46.57 164.62
  Q 46.57 165.14 47.10 165.14
  L 60.73 165.13
  Q 83.02 165.17 105.20 165.19
  Q 118.15 165.21 123.66 163.69
  C 145.10 157.81 155.39 132.45 144.39 112.71
  Q 142.06 108.67 138.83 105.42
  Q 134.27 100.83 129.70 96.14
  Q 138.76 87.47 141.18 84.43
  C 159.07 61.96 143.66 27.63 114.75 27.27
  Q 102.73 27.13 61.18 27.36
  L 47.12 27.30
  Q 46.52 27.30 46.52 27.90
  L 46.57 150.78
  Z" fill="#ffffff"></path>
<path d="M 61.18 27.36
  L 80.98 47.46
  L 115.55 81.90
  L 102.13 95.35
  Q 101.90 95.87 101.23 96.16
  L 67.11 62.00
  A 0.26 0.26 0.0 0 0 66.67 62.18
  L 66.73 130.68
  L 46.57 150.78
  L 46.52 27.90
  Q 46.52 27.30 47.12 27.30
  L 61.18 27.36
  Z" fill="#3bde9a"></path>
<path d="M 61.18 27.36
  Q 102.73 27.13 114.75 27.27
  C 143.66 27.63 159.07 61.96 141.18 84.43
  Q 138.76 87.47 129.70 96.14
  L 116.28 109.53
  Q 116.30 108.76 117.10 108.06
  A 0.78 0.78 0.0 0 0 117.32 107.21
  C 116.75 105.58 115.08 105.26 114.10 104.46
  Q 112.38 103.06 110.45 101.98
  C 108.99 101.15 108.43 99.76 106.86 98.95
  Q 104.60 97.80 102.32 96.66
  Q 101.92 96.45 102.18 96.09
  Q 102.45 95.72 102.13 95.35
  L 115.55 81.90
  C 119.42 78.08 125.66 72.85 127.67 68.26
  C 130.84 61.04 126.98 51.85 120.09 48.77
  Q 116.89 47.35 110.23 47.35
  Q 95.79 47.35 80.98 47.46
  L 61.18 27.36
  Z" fill="#3880ff"></path>
<path d="M 115.55 81.90
  L 80.98 47.46
  Q 95.79 47.35 110.23 47.35
  Q 116.89 47.35 120.09 48.77
  C 126.98 51.85 130.84 61.04 127.67 68.26
  C 125.66 72.85 119.42 78.08 115.55 81.90
  Z" fill="#ffffff"></path>
<path d="M 101.23 96.16
  L 66.73 130.68
  L 66.67 62.18
  A 0.26 0.26 0.0 0 1 67.11 62.00
  L 101.23 96.16
  Z" fill="#ffffff"></path>
<path d="M 102.13 95.35
  Q 102.45 95.72 102.18 96.09
  Q 101.92 96.45 102.32 96.66
  Q 104.60 97.80 106.86 98.95
  C 108.43 99.76 108.99 101.15 110.45 101.98
  Q 112.38 103.06 114.10 104.46
  C 115.08 105.26 116.75 105.58 117.32 107.21
  A 0.78 0.78 0.0 0 1 117.10 108.06
  Q 116.30 108.76 116.28 109.53
  Q 115.72 109.96 115.52 110.40
  L 81.06 144.86
  L 60.73 165.13
  L 47.10 165.14
  Q 46.57 165.14 46.57 164.62
  L 46.57 150.78
  L 66.73 130.68
  L 101.23 96.16
  Q 101.90 95.87 102.13 95.35
  Z" fill="#0267d4"></path>
<path d="M 129.70 96.14
  Q 134.27 100.83 138.83 105.42
  Q 142.06 108.67 144.39 112.71
  L 143.93 113.46
  Q 143.71 113.79 143.35 113.62
  Q 143.09 113.48 142.64 113.66
  C 138.50 115.22 134.23 116.62 130.29 118.66
  Q 129.86 118.89 129.38 118.77
  L 128.80 118.62
  Q 128.30 118.49 128.21 119.01
  Q 128.15 119.39 127.95 119.71
  Q 127.67 120.15 127.23 119.87
  Q 125.76 118.92 123.61 118.49
  L 115.52 110.40
  Q 115.72 109.96 116.28 109.53
  L 129.70 96.14
  Z" fill="#3bde9a"></path>
<path d="M 115.52 110.40
  L 123.61 118.49
  C 131.32 125.81 130.25 138.84 120.63 143.42
  Q 117.35 144.98 109.66 145.02
  Q 95.67 145.08 81.06 144.86
  L 115.52 110.40
  Z" fill="#ffffff"></path>
<path d="M 144.39 112.71
  C 155.39 132.45 145.10 157.81 123.66 163.69
  Q 118.15 165.21 105.20 165.19
  Q 83.02 165.17 60.73 165.13
  L 81.06 144.86
  Q 95.67 145.08 109.66 145.02
  Q 117.35 144.98 120.63 143.42
  C 130.25 138.84 131.32 125.81 123.61 118.49
  Q 125.76 118.92 127.23 119.87
  Q 127.67 120.15 127.95 119.71
  Q 128.15 119.39 128.21 119.01
  Q 128.30 118.49 128.80 118.62
  L 129.38 118.77
  Q 129.86 118.89 130.29 118.66
  C 134.23 116.62 138.50 115.22 142.64 113.66
  Q 143.09 113.48 143.35 113.62
  Q 143.71 113.79 143.93 113.46
  L 144.39 112.71
  Z" fill="#4ee9a8"></path>
</svg>
