<svg viewBox="0.00 0.00 512.00 512.00" version="1.1" xmlns="http://www.w3.org/2000/svg">
<g stroke-linecap="butt" fill="none" stroke-width="2.00">
<path d="M 510.32 256.00
  A 254.75 254.75 0.0 0 0 255.57 1.25
  A 254.75 254.75 0.0 0 0 0.82 256.00
  A 254.75 254.75 0.0 0 0 255.57 510.75
  A 254.75 254.75 0.0 0 0 510.32 256.00" stroke="#f49fa1"></path>
<path d="M 199.01 202.14
  L 198.98 145.47
  Q 198.98 144.28 197.79 144.26
  C 169.92 143.74 142.08 144.01 114.20 143.65
  C 102.87 143.51 93.00 143.81 82.36 144.42
  Q 82.02 144.44 82.02 144.75
  L 81.96 359.69
  Q 81.96 360.21 82.49 360.21
  C 86.72 360.23 91.12 360.55 95.14 360.55
  Q 251.19 360.63 407.25 360.36
  Q 416.97 360.34 426.43 360.24
  A 1.07 1.07 0.0 0 0 427.49 359.21
  C 428.01 344.58 427.49 327.19 427.49 315.50
  Q 427.49 233.12 427.65 150.75
  Q 427.65 147.77 427.73 145.05
  A 0.67 0.67 0.0 0 0 427.08 144.36
  C 392.27 143.18 357.34 144.02 322.50 143.96
  C 319.57 143.95 315.89 144.36 312.53 144.27
  Q 310.24 144.21 310.24 146.49
  L 310.26 201.77
  A 1.04 1.03 90.0 0 1 309.23 202.81
  L 199.75 202.78
  A 0.74 0.64 -0.0 0 1 199.01 202.14" stroke="#f49fa1"></path>
<path d="M 344.77 228.95
  C 339.33 229.09 333.75 229.50 328.40 229.50
  Q 256.04 229.49 183.69 229.51
  C 177.43 229.51 171.30 229.19 165.06 228.90
  A 1.38 1.37 1.5 0 1 163.75 227.53
  L 163.73 171.14
  A 0.60 0.59 90.0 0 0 163.14 170.54
  L 118.10 170.53
  A 0.87 0.87 0.0 0 0 117.23 171.40
  L 117.29 332.76
  Q 117.29 333.60 118.13 333.64
  Q 122.50 333.87 127.00 333.87
  Q 259.52 333.91 391.93 333.94
  A 0.54 0.54 0.0 0 0 392.47 333.40
  L 392.40 171.01
  Q 392.40 170.62 392.00 170.62
  L 346.07 170.53
  A 0.72 0.64 -90.0 0 0 345.43 171.25
  L 345.47 228.24
  A 0.72 0.71 -0.8 0 1 344.77 228.95" stroke="#f49fa1"></path>
</g>
<path d="M 0.00 0.00
  L 512.00 0.00
  L 512.00 512.00
  L 0.00 512.00
  L 0.00 0.00
  Z
  M 510.32 256.00
  A 254.75 254.75 0.0 0 0 255.57 1.25
  A 254.75 254.75 0.0 0 0 0.82 256.00
  A 254.75 254.75 0.0 0 0 255.57 510.75
  A 254.75 254.75 0.0 0 0 510.32 256.00
  Z" fill="#ffffff"></path>
<path d="M 510.32 256.00
  A 254.75 254.75 0.0 0 1 255.57 510.75
  A 254.75 254.75 0.0 0 1 0.82 256.00
  A 254.75 254.75 0.0 0 1 255.57 1.25
  A 254.75 254.75 0.0 0 1 510.32 256.00
  Z
  M 199.01 202.14
  L 198.98 145.47
  Q 198.98 144.28 197.79 144.26
  C 169.92 143.74 142.08 144.01 114.20 143.65
  C 102.87 143.51 93.00 143.81 82.36 144.42
  Q 82.02 144.44 82.02 144.75
  L 81.96 359.69
  Q 81.96 360.21 82.49 360.21
  C 86.72 360.23 91.12 360.55 95.14 360.55
  Q 251.19 360.63 407.25 360.36
  Q 416.97 360.34 426.43 360.24
  A 1.07 1.07 0.0 0 0 427.49 359.21
  C 428.01 344.58 427.49 327.19 427.49 315.50
  Q 427.49 233.12 427.65 150.75
  Q 427.65 147.77 427.73 145.05
  A 0.67 0.67 0.0 0 0 427.08 144.36
  C 392.27 143.18 357.34 144.02 322.50 143.96
  C 319.57 143.95 315.89 144.36 312.53 144.27
  Q 310.24 144.21 310.24 146.49
  L 310.26 201.77
  A 1.04 1.03 90.0 0 1 309.23 202.81
  L 199.75 202.78
  A 0.74 0.64 -0.0 0 1 199.01 202.14
  Z" fill="#e83f43"></path>
<path d="M 199.01 202.14
  A 0.74 0.64 -0.0 0 0 199.75 202.78
  L 309.23 202.81
  A 1.04 1.03 -90.0 0 0 310.26 201.77
  L 310.24 146.49
  Q 310.24 144.21 312.53 144.27
  C 315.89 144.36 319.57 143.95 322.50 143.96
  C 357.34 144.02 392.27 143.18 427.08 144.36
  A 0.67 0.67 0.0 0 1 427.73 145.05
  Q 427.65 147.77 427.65 150.75
  Q 427.49 233.12 427.49 315.50
  C 427.49 327.19 428.01 344.58 427.49 359.21
  A 1.07 1.07 0.0 0 1 426.43 360.24
  Q 416.97 360.34 407.25 360.36
  Q 251.19 360.63 95.14 360.55
  C 91.12 360.55 86.72 360.23 82.49 360.21
  Q 81.96 360.21 81.96 359.69
  L 82.02 144.75
  Q 82.02 144.44 82.36 144.42
  C 93.00 143.81 102.87 143.51 114.20 143.65
  C 142.08 144.01 169.92 143.74 197.79 144.26
  Q 198.98 144.28 198.98 145.47
  L 199.01 202.14
  Z
  M 344.77 228.95
  C 339.33 229.09 333.75 229.50 328.40 229.50
  Q 256.04 229.49 183.69 229.51
  C 177.43 229.51 171.30 229.19 165.06 228.90
  A 1.38 1.37 1.5 0 1 163.75 227.53
  L 163.73 171.14
  A 0.60 0.59 90.0 0 0 163.14 170.54
  L 118.10 170.53
  A 0.87 0.87 0.0 0 0 117.23 171.40
  L 117.29 332.76
  Q 117.29 333.60 118.13 333.64
  Q 122.50 333.87 127.00 333.87
  Q 259.52 333.91 391.93 333.94
  A 0.54 0.54 0.0 0 0 392.47 333.40
  L 392.40 171.01
  Q 392.40 170.62 392.00 170.62
  L 346.07 170.53
  A 0.72 0.64 -90.0 0 0 345.43 171.25
  L 345.47 228.24
  A 0.72 0.71 -0.8 0 1 344.77 228.95
  Z" fill="#ffffff"></path>
<path d="M 344.77 228.95
  A 0.72 0.71 -0.8 0 0 345.47 228.24
  L 345.43 171.25
  A 0.72 0.64 90.0 0 1 346.07 170.53
  L 392.00 170.62
  Q 392.40 170.62 392.40 171.01
  L 392.47 333.40
  A 0.54 0.54 0.0 0 1 391.93 333.94
  Q 259.52 333.91 127.00 333.87
  Q 122.50 333.87 118.13 333.64
  Q 117.29 333.60 117.29 332.76
  L 117.23 171.40
  A 0.87 0.87 0.0 0 1 118.10 170.53
  L 163.14 170.54
  A 0.60 0.59 90.0 0 1 163.73 171.14
  L 163.75 227.53
  A 1.38 1.37 1.5 0 0 165.06 228.90
  C 171.30 229.19 177.43 229.51 183.69 229.51
  Q 256.04 229.49 328.40 229.50
  C 333.75 229.50 339.33 229.09 344.77 228.95
  Z" fill="#e83f43"></path>
</svg>
