<svg viewBox="0.00 0.00 256.00 256.00" version="1.1" xmlns="http://www.w3.org/2000/svg">
<g stroke-linecap="butt" fill="none" stroke-width="2.00">
<path d="M 78.22 0.29
  Q 78.45 0.81 78.52 0.40" stroke-opacity="0.522" stroke="#0076f5"></path>
<path d="M 78.52 0.40
  Q 78.62 0.98 78.78 1.20" stroke-opacity="0.545" stroke="#0072ec"></path>
<path d="M 78.78 1.20
  Q 78.30 2.67 79.18 3.96" stroke-opacity="0.592" stroke="#026bdc"></path>
<path d="M 79.18 3.96
  L 79.78 7.94" stroke-opacity="0.706" stroke="#0565cf"></path>
<path d="M 79.78 7.94
  Q 79.04 21.42 79.85 31.24
  Q 79.93 32.18 81.07 32.79
  Q 81.19 32.85 81.25 32.74
  Q 81.32 32.63 81.35 32.50
  A 0.01 0.01 0.0 0 1 81.37 32.50
  Q 81.41 32.62 81.52 32.73
  Q 81.68 32.89 81.64 33.12
  Q 81.29 35.06 82.22 36.38" stroke-opacity="0.839" stroke="#066edd"></path>
<path d="M 82.22 36.38
  Q 81.26 38.33 83.00 38.63
  Q 84.22 38.84 87.32 38.61" stroke-opacity="0.592" stroke="#026bdc"></path>
<path d="M 87.32 38.61
  L 90.78 38.69" stroke-opacity="0.545" stroke="#0072ec"></path>
<path d="M 90.78 38.69
  Q 94.07 39.14 96.35 38.66
  A 2.12 2.11 -6.1 0 0 98.02 36.60
  L 98.04 5.56" stroke-opacity="0.592" stroke="#026bdc"></path>
<path d="M 98.23 4.35
  Q 98.99 3.56 99.75 2.92
  C 100.50 2.27 101.51 2.24 101.80 0.84" stroke-opacity="0.839" stroke="#066edd"></path>
<path d="M 155.41 1.28
  Q 158.15 2.60 158.79 5.31" stroke-opacity="0.592" stroke="#026bdc"></path>
<path d="M 158.79 5.31
  L 160.05 18.54" stroke-opacity="0.545" stroke="#0072ec"></path>
<path d="M 160.05 18.54
  L 160.24 21.46" stroke-opacity="0.592" stroke="#026bdc"></path>
<path d="M 160.24 21.46
  L 159.84 36.63
  Q 159.83 37.13 160.20 37.48
  Q 161.72 38.93 163.89 38.09" stroke-opacity="0.706" stroke="#0565cf"></path>
<path d="M 170.41 38.72
  C 175.38 39.40 174.84 35.18 174.52 31.90" stroke-opacity="0.706" stroke="#0565cf"></path>
<path d="M 174.52 31.90
  L 174.08 27.94" stroke-opacity="0.592" stroke="#026bdc"></path>
<path d="M 173.37 22.31
  Q 174.71 17.07 175.04 9.25
  Q 175.11 7.60 176.45 2.29" stroke-opacity="0.545" stroke="#0072ec"></path>
<path d="M 199.98 34.21
  Q 200.50 36.33 202.81 37.07" stroke-opacity="0.592" stroke="#026bdc"></path>
<path d="M 202.81 37.07
  L 204.78 37.87" stroke-opacity="0.522" stroke="#0076f5"></path>
<path d="M 235.72 58.74
  Q 237.04 59.36 238.17 59.29" stroke-opacity="0.522" stroke="#0076f5"></path>
<path d="M 238.17 59.29
  Q 239.98 59.85 241.84 59.55" stroke-opacity="0.545" stroke="#0072ec"></path>
<path d="M 241.84 59.55
  Q 244.14 60.26 246.84 59.45" stroke-opacity="0.592" stroke="#026bdc"></path>
<path d="M 246.84 59.45
  Q 248.25 59.87 249.98 59.69" stroke-opacity="0.522" stroke="#0076f5"></path>
<path d="M 256.00 74.73
  L 255.59 79.24" stroke-opacity="0.522" stroke="#0076f5"></path>
<path d="M 255.59 79.24
  Q 253.99 78.59 252.64 79.34" stroke-opacity="0.545" stroke="#0072ec"></path>
<path d="M 252.64 79.34
  C 241.21 79.78 230.61 77.66 220.15 79.65
  C 218.45 79.97 217.66 81.15 218.10 82.79" stroke-opacity="0.839" stroke="#066edd"></path>
<path d="M 218.10 82.79
  L 218.10 95.36
  A 1.97 1.97 0.0 0 0 220.01 97.32
  L 251.51 98.30" stroke-opacity="0.592" stroke="#026bdc"></path>
<path d="M 251.51 98.30
  L 255.55 101.25" stroke-opacity="0.706" stroke="#0565cf"></path>
<path d="M 255.55 101.25
  L 256.00 103.89" stroke-opacity="0.545" stroke="#0072ec"></path>
<path d="M 256.00 115.23
  Q 255.43 116.91 255.51 118.49" stroke-opacity="0.522" stroke="#0076f5"></path>
<path d="M 255.51 118.49
  Q 255.06 119.84 254.25 119.88
  Q 237.26 120.77 219.27 120.30
  Q 218.07 120.27 218.04 121.47
  Q 217.88 127.60 218.05 134.38
  Q 218.10 136.39 220.06 136.17" stroke-opacity="0.545" stroke="#0072ec"></path>
<path d="M 220.06 136.17
  L 226.15 136.23" stroke-opacity="0.522" stroke="#0076f5"></path>
<path d="M 226.15 136.23
  Q 230.86 136.50 237.25 136.13
  Q 246.26 135.61 255.26 138.04" stroke-opacity="0.592" stroke="#026bdc"></path>
<path d="M 255.26 138.04
  L 256.00 142.39" stroke-opacity="0.522" stroke="#0076f5"></path>
<path d="M 256.00 151.48
  L 255.48 158.47" stroke-opacity="0.522" stroke="#0076f5"></path>
<path d="M 255.48 158.47
  Q 255.19 158.64 254.82 158.61" stroke-opacity="0.545" stroke="#0072ec"></path>
<path d="M 254.82 158.61
  L 254.59 158.25
  Q 254.41 157.97 254.08 157.98
  C 242.70 158.42 231.38 158.09 219.98 158.54
  Q 217.57 158.63 218.04 161.84" stroke-opacity="0.706" stroke="#0565cf"></path>
<path d="M 218.04 161.84
  L 218.23 171.23" stroke-opacity="0.545" stroke="#0072ec"></path>
<path d="M 218.23 171.23
  C 217.76 174.04 219.01 176.03 222.00 176.40
  C 231.00 177.53 240.82 177.12 249.88 176.61
  Q 250.75 176.56 253.35 177.38
  Q 253.76 177.51 254.10 177.43
  Q 254.64 177.31 254.80 177.09" stroke-opacity="0.706" stroke="#0565cf"></path>
<path d="M 254.80 177.09
  Q 255.19 177.05 255.40 177.09
  Q 255.63 177.15 255.62 177.53
  Q 255.61 179.28 256.00 180.89" stroke-opacity="0.545" stroke="#0072ec"></path>
<path d="M 256.00 191.47
  L 255.36 196.23" stroke-opacity="0.522" stroke="#0076f5"></path>
<path d="M 255.36 196.23
  Q 254.31 195.34 252.51 196.40" stroke-opacity="0.592" stroke="#026bdc"></path>
<path d="M 252.51 196.40
  C 241.92 195.97 233.16 194.69 224.34 198.20" stroke-opacity="0.706" stroke="#0565cf"></path>
<path d="M 224.34 198.20
  L 219.43 198.37
  A 0.83 0.82 -5.0 0 0 218.63 199.31
  Q 218.80 200.52 218.45 202.11" stroke-opacity="0.592" stroke="#026bdc"></path>
<path d="M 218.45 202.11
  C 217.87 212.45 215.17 217.80 203.86 218.48
  C 201.16 218.64 198.16 220.09 198.69 223.18" stroke-opacity="0.545" stroke="#0072ec"></path>
<path d="M 198.69 223.18
  L 198.74 233.58" stroke-opacity="0.592" stroke="#026bdc"></path>
<path d="M 198.74 233.58
  L 198.55 238.17" stroke-opacity="0.545" stroke="#0072ec"></path>
<path d="M 198.55 238.17
  L 197.86 249.74" stroke-opacity="0.592" stroke="#026bdc"></path>
<path d="M 197.86 249.74
  L 196.15 253.47
  Q 195.92 253.95 196.45 253.88
  Q 196.71 253.85 196.97 253.54" stroke-opacity="0.839" stroke="#066edd"></path>
<path d="M 196.97 253.54
  Q 197.26 254.18 195.67 255.34" stroke-opacity="0.592" stroke="#026bdc"></path>
<path d="M 195.67 255.34
  L 192.08 256.00" stroke-opacity="0.545" stroke="#0072ec"></path>
<path d="M 183.04 256.00
  Q 180.32 255.38 177.82 256.00" stroke-opacity="0.522" stroke="#0076f5"></path>
<path d="M 177.50 256.00
  Q 177.50 255.90 177.49 255.79" stroke-opacity="0.545" stroke="#0072ec"></path>
<path d="M 177.49 255.79
  C 177.52 254.14 176.97 252.54 176.97 251.05
  Q 177.01 240.48 176.58 229.99" stroke-opacity="0.706" stroke="#0565cf"></path>
<path d="M 176.58 229.99
  Q 176.75 228.19 176.13 226.92" stroke-opacity="0.839" stroke="#066edd"></path>
<path d="M 176.13 226.92
  L 174.26 223.85" stroke-opacity="0.706" stroke="#0565cf"></path>
<path d="M 174.26 223.85
  L 174.13 219.53
  Q 174.11 218.94 173.53 218.85
  L 169.66 218.24" stroke-opacity="0.545" stroke="#0072ec"></path>
<path d="M 169.66 218.24
  Q 167.15 217.85 164.70 218.32" stroke-opacity="0.592" stroke="#026bdc"></path>
<path d="M 164.70 218.32
  Q 163.98 218.29 163.58 218.57" stroke-opacity="0.545" stroke="#0072ec"></path>
<path d="M 163.58 218.57
  Q 162.18 218.42 160.79 218.77
  Q 160.34 218.89 160.22 219.34
  Q 158.95 224.42 159.83 229.41" stroke-opacity="0.592" stroke="#026bdc"></path>
<path d="M 159.83 229.41
  Q 161.11 232.62 160.81 235.45" stroke-opacity="0.706" stroke="#0565cf"></path>
<path d="M 160.81 235.45
  Q 160.99 234.26 160.73 233.43
  Q 160.50 232.66 160.25 233.42
  Q 159.77 234.94 160.42 236.61" stroke-opacity="0.839" stroke="#066edd"></path>
<path d="M 160.42 236.61
  L 159.73 244.53
  Q 159.68 245.08 160.09 244.70
  Q 160.27 244.54 160.44 244.36
  Q 160.73 244.03 160.80 243.52
  Q 161.19 240.72 161.43 237.90
  Q 161.43 237.88 161.42 237.88
  Q 161.41 237.88 161.40 237.88
  Q 161.37 237.88 161.37 237.91
  C 161.47 240.42 161.59 243.72 160.05 245.10
  A 1.14 1.14 0.0 0 0 159.66 245.96
  L 159.69 251.26" stroke-opacity="0.592" stroke="#026bdc"></path>
<path d="M 159.69 251.26
  Q 159.77 251.57 159.70 251.85" stroke-opacity="0.545" stroke="#0072ec"></path>
<path d="M 159.70 251.85
  Q 159.26 253.00 159.31 254.94" stroke-opacity="0.592" stroke="#026bdc"></path>
<path d="M 159.31 254.94
  L 149.61 256.00" stroke-opacity="0.545" stroke="#0072ec"></path>
<path d="M 105.77 256.00
  Q 103.97 255.50 101.70 255.68" stroke-opacity="0.545" stroke="#0072ec"></path>
<path d="M 101.70 255.68
  Q 101.55 252.24 98.00 252.31" stroke-opacity="0.706" stroke="#0565cf"></path>
<path d="M 98.00 252.31
  Q 97.90 239.78 98.01 227.50
  Q 98.05 222.90 96.43 218.47" stroke-opacity="0.592" stroke="#026bdc"></path>
<path d="M 96.43 218.47
  L 82.81 218.02
  Q 82.26 218.01 82.21 218.55
  Q 81.95 220.97 82.56 223.02" stroke-opacity="0.545" stroke="#0072ec"></path>
<path d="M 82.56 223.02
  Q 81.46 224.13 80.80 225.80
  Q 80.63 226.22 80.19 226.29
  Q 79.50 226.41 79.48 227.39
  Q 79.38 233.18 79.40 238.97
  C 79.40 239.59 79.87 240.13 79.87 240.80
  Q 79.84 245.03 80.24 249.24" stroke-opacity="0.839" stroke="#066edd"></path>
<path d="M 80.24 249.24
  Q 79.34 250.15 79.72 251.74" stroke-opacity="0.839" stroke="#066edd"></path>
<path d="M 79.72 251.74
  Q 78.34 253.13 79.05 255.63" stroke-opacity="0.706" stroke="#0565cf"></path>
<path d="M 79.05 255.63
  L 74.86 256.00" stroke-opacity="0.545" stroke="#0072ec"></path>
<path d="M 60.42 255.74
  Q 60.57 254.65 60.13 253.53" stroke-opacity="0.545" stroke="#0072ec"></path>
<path d="M 60.13 253.53
  C 60.27 244.82 60.55 238.79 59.28 232.70" stroke-opacity="0.706" stroke="#0565cf"></path>
<path d="M 59.28 232.70
  L 59.06 225.52" stroke-opacity="0.545" stroke="#0072ec"></path>
<path d="M 38.74 205.36
  L 38.69 200.17
  A 1.77 1.77 0.0 0 0 37.15 198.44
  Q 31.66 197.73 26.38 198.76" stroke-opacity="0.592" stroke="#026bdc"></path>
<path d="M 26.38 198.76
  L 18.49 198.13
  Q 18.06 198.10 17.78 197.78
  Q 17.27 197.20 16.50 197.39
  A 0.11 0.10 -9.5 0 1 16.37 197.30
  Q 16.37 197.24 16.35 197.20
  A 0.38 0.28 -3.6 0 0 16.04 197.00
  L 3.44 195.99" stroke-opacity="0.706" stroke="#0565cf"></path>
<path d="M 3.44 195.99
  Q 1.86 194.31 1.35 192.66
  C 1.17 192.04 0.82 191.74 0.30 191.44" stroke-opacity="0.839" stroke="#066edd"></path>
<path d="M 0.00 183.77
  L 0.47 181.34" stroke-opacity="0.522" stroke="#0076f5"></path>
<path d="M 0.47 181.34
  Q 2.80 179.89 3.71 177.38
  Q 3.90 176.87 4.44 176.85
  L 26.48 176.20" stroke-opacity="0.839" stroke="#066edd"></path>
<path d="M 26.48 176.20
  Q 26.67 176.05 27.26 176.37" stroke-opacity="0.706" stroke="#0565cf"></path>
<path d="M 27.26 176.37
  L 30.72 176.38
  Q 31.21 176.38 31.54 176.03
  Q 31.91 175.64 32.40 175.83
  Q 32.93 176.03 33.29 175.59
  L 33.73 175.05" stroke-opacity="0.839" stroke="#066edd"></path>
<path d="M 33.73 175.05
  Q 35.18 174.68 37.75 174.62
  Q 38.21 174.61 38.30 173.97" stroke-opacity="0.706" stroke="#0565cf"></path>
<path d="M 38.30 173.97
  Q 38.74 173.68 38.73 172.99
  C 38.68 170.74 39.61 168.60 39.56 166.66
  Q 39.43 162.47 37.36 160.52" stroke-opacity="0.592" stroke="#026bdc"></path>
<path d="M 37.36 160.52
  L 34.88 160.38
  Q 34.42 160.35 34.09 160.03
  Q 32.97 158.92 32.31 158.88
  C 23.61 158.27 14.92 158.63 6.17 158.27" stroke-opacity="0.706" stroke="#0565cf"></path>
<path d="M 6.17 158.27
  Q 5.26 158.16 4.56 158.30" stroke-opacity="0.592" stroke="#026bdc"></path>
<path d="M 4.56 158.30
  L 3.92 157.71
  A 1.74 1.67 -77.4 0 1 3.45 156.93
  Q 2.79 154.47 0.22 153.53" stroke-opacity="0.706" stroke="#0565cf"></path>
<path d="M 0.22 153.53
  Q 0.44 152.30 0.00 151.87" stroke-opacity="0.522" stroke="#0076f5"></path>
<path d="M 9.45 135.96
  L 30.35 135.96" stroke-opacity="0.522" stroke="#0076f5"></path>
<path d="M 4.56 119.59
  L 1.87 117.44" stroke-opacity="0.592" stroke="#026bdc"></path>
<path d="M 0.00 105.54
  Q 0.39 101.07 3.54 99.09
  C 6.02 97.52 12.30 97.22 15.00 97.32
  Q 28.85 97.83 37.04 97.31
  Q 37.67 97.27 37.95 96.71
  C 39.12 94.29 39.12 89.93 39.01 87.37" stroke-opacity="0.522" stroke="#0076f5"></path>
<path d="M 39.01 87.37
  L 38.67 82.63
  Q 38.61 81.81 37.78 81.86
  L 30.97 82.29" stroke-opacity="0.545" stroke="#0072ec"></path>
<path d="M 30.97 82.29
  L 29.21 82.08
  Q 28.66 82.02 28.65 81.46
  Q 28.63 80.83 27.95 80.55
  A 0.92 0.92 0.0 0 0 27.32 80.52
  Q 26.64 80.73 26.17 80.16
  Q 25.87 79.80 25.41 79.75
  Q 17.46 78.91 9.44 80.00" stroke-opacity="0.839" stroke="#066edd"></path>
<path d="M 9.44 80.00
  Q 6.70 80.08 4.34 79.30" stroke-opacity="0.706" stroke="#0565cf"></path>
<path d="M 4.34 79.30
  Q 3.68 78.55 2.62 78.17
  A 0.80 0.78 -83.1 0 1 2.11 77.50
  Q 1.94 75.64 0.00 75.64" stroke-opacity="0.839" stroke="#066edd"></path>
<path d="M 59.25 17.35
  L 59.73 2.92" stroke-opacity="0.545" stroke="#0072ec"></path>
<path d="M 154.26 90.60
  Q 153.90 125.69 154.43 159.87
  Q 154.46 161.43 155.38 161.51" stroke-opacity="0.592" stroke="#026bdc"></path>
<path d="M 155.38 161.51
  Q 156.56 161.93 158.08 161.76" stroke-opacity="0.706" stroke="#0565cf"></path>
<path d="M 158.08 161.76
  L 176.33 161.76
  Q 176.91 161.76 176.91 161.18
  L 176.94 90.39" stroke-opacity="0.592" stroke="#026bdc"></path>
<path d="M 176.94 90.39
  L 176.77 87.47
  Q 176.74 86.86 176.13 86.85
  L 155.38 86.57
  A 0.98 0.98 0.0 0 0 154.41 87.33
  Q 153.88 89.49 154.26 90.60" stroke-opacity="0.706" stroke="#0565cf"></path>
<path d="M 77.49 150.07
  L 76.25 153.03" stroke-opacity="0.592" stroke="#026bdc"></path>
<path d="M 76.25 153.03
  Q 74.56 155.62 74.05 158.33
  A 2.05 2.04 11.0 0 0 75.66 160.71
  Q 83.33 162.24 91.38 161.22" stroke-opacity="0.592" stroke="#026bdc"></path>
<path d="M 91.38 161.22
  Q 93.72 161.33 94.58 159.05" stroke-opacity="0.706" stroke="#0565cf"></path>
<path d="M 94.58 159.05
  L 97.06 153.29" stroke-opacity="0.839" stroke="#066edd"></path>
<path d="M 124.95 155.89
  L 125.51 157.68" stroke-opacity="0.592" stroke="#026bdc"></path>
<path d="M 125.51 157.68
  Q 126.40 160.43 130.08 160.81" stroke-opacity="0.706" stroke="#0565cf"></path>
<path d="M 130.08 160.81
  Q 138.21 162.64 146.69 161.58
  Q 147.19 161.52 147.25 161.01
  Q 147.63 157.50 146.32 154.23" stroke-opacity="0.592" stroke="#026bdc"></path>
<path d="M 146.32 154.23
  Q 146.30 154.14 146.27 154.04" stroke-opacity="0.545" stroke="#0072ec"></path>
<path d="M 146.27 154.04
  Q 145.74 151.81 144.34 149.68" stroke-opacity="0.592" stroke="#026bdc"></path>
<path d="M 144.34 149.68
  L 137.41 130.41" stroke-opacity="0.545" stroke="#0072ec"></path>
<path d="M 118.73 88.52
  Q 118.76 88.17 118.40 88.32" stroke-opacity="0.522" stroke="#0076f5"></path>
<path d="M 118.40 88.32
  Q 109.76 86.32 101.99 89.51
  C 99.77 90.42 98.45 92.25 97.64 94.36
  Q 93.68 104.75 87.07 123.01
  C 86.25 125.28 85.21 129.12 83.85 132.07
  Q 82.61 134.77 81.51 138.05
  C 80.19 141.99 78.08 145.44 77.49 150.07" stroke-opacity="0.545" stroke="#0072ec"></path>
<path d="M 108.34 136.08
  Q 106.80 135.50 105.17 136.27" stroke-opacity="0.545" stroke="#0072ec"></path>
</g>
<path d="M 67.39 0.00
  L 74.74 0.00
  Q 76.24 0.61 78.22 0.29
  Q 78.45 0.81 78.52 0.40
  Q 78.62 0.98 78.78 1.20
  Q 78.30 2.67 79.18 3.96
  L 79.78 7.94
  Q 79.04 21.42 79.85 31.24
  Q 79.93 32.18 81.07 32.79
  Q 81.19 32.85 81.25 32.74
  Q 81.32 32.63 81.35 32.50
  A 0.01 0.01 0.0 0 1 81.37 32.50
  Q 81.41 32.62 81.52 32.73
  Q 81.68 32.89 81.64 33.12
  Q 81.29 35.06 82.22 36.38
  Q 81.26 38.33 83.00 38.63
  Q 84.22 38.84 87.32 38.61
  L 90.78 38.69
  Q 94.07 39.14 96.35 38.66
  A 2.12 2.11 -6.1 0 0 98.02 36.60
  L 98.04 5.56
  Q 98.29 4.97 98.23 4.35
  Q 98.99 3.56 99.75 2.92
  C 100.50 2.27 101.51 2.24 101.80 0.84
  C 105.42 0.13 118.49 -0.88 119.66 3.91
  C 122.46 15.41 119.55 26.59 120.73 38.10
  A 0.82 0.81 86.5 0 0 121.55 38.83
  L 134.22 38.72
  Q 136.26 38.71 136.23 36.67
  Q 136.02 24.36 135.97 12.25
  C 135.95 7.70 136.77 1.81 140.98 0.72
  Q 147.35 -0.92 155.41 1.28
  Q 158.15 2.60 158.79 5.31
  L 160.05 18.54
  L 160.24 21.46
  L 159.84 36.63
  Q 159.83 37.13 160.20 37.48
  Q 161.72 38.93 163.89 38.09
  Q 166.73 39.58 170.41 38.72
  C 175.38 39.40 174.84 35.18 174.52 31.90
  L 174.08 27.94
  L 173.37 22.31
  Q 174.71 17.07 175.04 9.25
  Q 175.11 7.60 176.45 2.29
  Q 181.72 -0.56 190.99 0.48
  C 198.12 1.27 198.45 5.83 198.51 11.75
  Q 198.60 19.81 198.92 27.86
  Q 199.10 32.18 199.98 34.21
  Q 200.50 36.33 202.81 37.07
  L 204.78 37.87
  Q 209.98 39.04 214.05 42.34
  C 218.82 46.20 219.00 51.98 219.72 57.24
  A 1.11 1.10 86.9 0 0 220.77 58.19
  L 235.72 58.74
  Q 237.04 59.36 238.17 59.29
  Q 239.98 59.85 241.84 59.55
  Q 244.14 60.26 246.84 59.45
  Q 248.25 59.87 249.98 59.69
  L 254.39 60.51
  Q 254.96 60.62 255.13 61.17
  L 256.00 64.14
  L 256.00 74.73
  L 255.59 79.24
  Q 253.99 78.59 252.64 79.34
  C 241.21 79.78 230.61 77.66 220.15 79.65
  C 218.45 79.97 217.66 81.15 218.10 82.79
  L 218.10 95.36
  A 1.97 1.97 0.0 0 0 220.01 97.32
  L 251.51 98.30
  L 255.55 101.25
  L 256.00 103.89
  L 256.00 115.23
  Q 255.43 116.91 255.51 118.49
  Q 255.06 119.84 254.25 119.88
  Q 237.26 120.77 219.27 120.30
  Q 218.07 120.27 218.04 121.47
  Q 217.88 127.60 218.05 134.38
  Q 218.10 136.39 220.06 136.17
  L 226.15 136.23
  Q 230.86 136.50 237.25 136.13
  Q 246.26 135.61 255.26 138.04
  L 256.00 142.39
  L 256.00 151.48
  L 255.48 158.47
  Q 255.19 158.64 254.82 158.61
  L 254.59 158.25
  Q 254.41 157.97 254.08 157.98
  C 242.70 158.42 231.38 158.09 219.98 158.54
  Q 217.57 158.63 218.04 161.84
  L 218.23 171.23
  C 217.76 174.04 219.01 176.03 222.00 176.40
  C 231.00 177.53 240.82 177.12 249.88 176.61
  Q 250.75 176.56 253.35 177.38
  Q 253.76 177.51 254.10 177.43
  Q 254.64 177.31 254.80 177.09
  Q 255.19 177.05 255.40 177.09
  Q 255.63 177.15 255.62 177.53
  Q 255.61 179.28 256.00 180.89
  L 256.00 191.47
  L 255.36 196.23
  Q 254.31 195.34 252.51 196.40
  C 241.92 195.97 233.16 194.69 224.34 198.20
  L 219.43 198.37
  A 0.83 0.82 -5.0 0 0 218.63 199.31
  Q 218.80 200.52 218.45 202.11
  C 217.87 212.45 215.17 217.80 203.86 218.48
  C 201.16 218.64 198.16 220.09 198.69 223.18
  L 198.74 233.58
  L 198.55 238.17
  L 197.86 249.74
  L 196.15 253.47
  Q 195.92 253.95 196.45 253.88
  Q 196.71 253.85 196.97 253.54
  Q 197.26 254.18 195.67 255.34
  L 192.08 256.00
  L 183.04 256.00
  Q 180.32 255.38 177.82 256.00
  Q 177.96 256.08 177.50 256.00
  Q 177.50 255.90 177.49 255.79
  C 177.52 254.14 176.97 252.54 176.97 251.05
  Q 177.01 240.48 176.58 229.99
  Q 176.75 228.19 176.13 226.92
  L 174.26 223.85
  L 174.13 219.53
  Q 174.11 218.94 173.53 218.85
  L 169.66 218.24
  Q 167.15 217.85 164.70 218.32
  Q 163.98 218.29 163.58 218.57
  Q 162.18 218.42 160.79 218.77
  Q 160.34 218.89 160.22 219.34
  Q 158.95 224.42 159.83 229.41
  Q 161.11 232.62 160.81 235.45
  Q 160.99 234.26 160.73 233.43
  Q 160.50 232.66 160.25 233.42
  Q 159.77 234.94 160.42 236.61
  L 159.73 244.53
  Q 159.68 245.08 160.09 244.70
  Q 160.27 244.54 160.44 244.36
  Q 160.73 244.03 160.80 243.52
  Q 161.19 240.72 161.43 237.90
  Q 161.43 237.88 161.42 237.88
  Q 161.41 237.88 161.40 237.88
  Q 161.37 237.88 161.37 237.91
  C 161.47 240.42 161.59 243.72 160.05 245.10
  A 1.14 1.14 0.0 0 0 159.66 245.96
  L 159.69 251.26
  Q 159.77 251.57 159.70 251.85
  Q 159.26 253.00 159.31 254.94
  L 149.61 256.00
  L 145.26 256.00
  L 138.68 255.11
  A 2.13 2.13 0.0 0 1 136.85 253.19
  C 136.45 248.66 135.96 244.28 136.09 239.62
  Q 136.38 229.32 135.98 218.99
  A 0.75 0.75 0.0 0 0 135.25 218.26
  L 122.01 217.94
  Q 120.68 217.91 120.68 219.24
  L 120.49 253.44
  A 1.57 1.56 86.2 0 1 119.15 254.98
  L 111.86 256.00
  L 105.77 256.00
  Q 103.97 255.50 101.70 255.68
  Q 101.55 252.24 98.00 252.31
  Q 97.90 239.78 98.01 227.50
  Q 98.05 222.90 96.43 218.47
  L 82.81 218.02
  Q 82.26 218.01 82.21 218.55
  Q 81.95 220.97 82.56 223.02
  Q 81.46 224.13 80.80 225.80
  Q 80.63 226.22 80.19 226.29
  Q 79.50 226.41 79.48 227.39
  Q 79.38 233.18 79.40 238.97
  C 79.40 239.59 79.87 240.13 79.87 240.80
  Q 79.84 245.03 80.24 249.24
  Q 79.34 250.15 79.72 251.74
  Q 78.34 253.13 79.05 255.63
  L 74.86 256.00
  L 67.01 256.00
  Q 63.77 255.32 60.42 255.74
  Q 60.57 254.65 60.13 253.53
  C 60.27 244.82 60.55 238.79 59.28 232.70
  L 59.06 225.52
  L 58.41 220.24
  A 1.74 1.74 0.0 0 0 56.82 218.73
  C 47.17 217.99 39.70 216.98 38.74 205.36
  L 38.69 200.17
  A 1.77 1.77 0.0 0 0 37.15 198.44
  Q 31.66 197.73 26.38 198.76
  L 18.49 198.13
  Q 18.06 198.10 17.78 197.78
  Q 17.27 197.20 16.50 197.39
  A 0.11 0.10 -9.5 0 1 16.37 197.30
  Q 16.37 197.24 16.35 197.20
  A 0.38 0.28 -3.6 0 0 16.04 197.00
  L 3.44 195.99
  Q 1.86 194.31 1.35 192.66
  C 1.17 192.04 0.82 191.74 0.30 191.44
  Q 0.34 190.44 0.00 190.12
  L 0.00 183.77
  L 0.47 181.34
  Q 2.80 179.89 3.71 177.38
  Q 3.90 176.87 4.44 176.85
  L 26.48 176.20
  Q 26.67 176.05 27.26 176.37
  L 30.72 176.38
  Q 31.21 176.38 31.54 176.03
  Q 31.91 175.64 32.40 175.83
  Q 32.93 176.03 33.29 175.59
  L 33.73 175.05
  Q 35.18 174.68 37.75 174.62
  Q 38.21 174.61 38.30 173.97
  Q 38.74 173.68 38.73 172.99
  C 38.68 170.74 39.61 168.60 39.56 166.66
  Q 39.43 162.47 37.36 160.52
  L 34.88 160.38
  Q 34.42 160.35 34.09 160.03
  Q 32.97 158.92 32.31 158.88
  C 23.61 158.27 14.92 158.63 6.17 158.27
  Q 5.26 158.16 4.56 158.30
  L 3.92 157.71
  A 1.74 1.67 -77.4 0 1 3.45 156.93
  Q 2.79 154.47 0.22 153.53
  Q 0.44 152.30 0.00 151.87
  L 0.00 143.99
  Q 1.28 136.53 9.45 135.96
  L 30.35 135.96
  L 37.98 136.08
  A 0.63 0.63 0.0 0 0 38.62 135.47
  L 38.88 122.07
  A 1.59 1.59 0.0 0 0 37.27 120.45
  C 26.91 120.62 14.95 121.49 4.56 119.59
  L 1.87 117.44
  C 0.08 116.18 0.47 114.21 0.00 112.37
  L 0.00 105.54
  Q 0.39 101.07 3.54 99.09
  C 6.02 97.52 12.30 97.22 15.00 97.32
  Q 28.85 97.83 37.04 97.31
  Q 37.67 97.27 37.95 96.71
  C 39.12 94.29 39.12 89.93 39.01 87.37
  L 38.67 82.63
  Q 38.61 81.81 37.78 81.86
  L 30.97 82.29
  L 29.21 82.08
  Q 28.66 82.02 28.65 81.46
  Q 28.63 80.83 27.95 80.55
  A 0.92 0.92 0.0 0 0 27.32 80.52
  Q 26.64 80.73 26.17 80.16
  Q 25.87 79.80 25.41 79.75
  Q 17.46 78.91 9.44 80.00
  Q 6.70 80.08 4.34 79.30
  Q 3.68 78.55 2.62 78.17
  A 0.80 0.78 -83.1 0 1 2.11 77.50
  Q 1.94 75.64 0.00 75.64
  L 0.00 66.01
  C 1.14 60.44 2.44 59.52 8.25 59.41
  Q 13.81 59.31 19.36 58.97
  C 24.53 58.66 31.08 59.03 36.97 58.24
  A 0.82 0.81 -88.5 0 0 37.66 57.58
  C 38.95 50.46 38.68 44.08 45.81 40.21
  C 48.92 38.52 53.14 38.66 56.77 38.53
  A 2.25 2.25 0.0 0 0 58.94 36.31
  L 59.25 17.35
  L 59.73 2.92
  C 61.93 0.35 64.15 0.70 67.39 0.00
  Z
  M 154.26 90.60
  Q 153.90 125.69 154.43 159.87
  Q 154.46 161.43 155.38 161.51
  Q 156.56 161.93 158.08 161.76
  L 176.33 161.76
  Q 176.91 161.76 176.91 161.18
  L 176.94 90.39
  L 176.77 87.47
  Q 176.74 86.86 176.13 86.85
  L 155.38 86.57
  A 0.98 0.98 0.0 0 0 154.41 87.33
  Q 153.88 89.49 154.26 90.60
  Z
  M 77.49 150.07
  L 76.25 153.03
  Q 74.56 155.62 74.05 158.33
  A 2.05 2.04 11.0 0 0 75.66 160.71
  Q 83.33 162.24 91.38 161.22
  Q 93.72 161.33 94.58 159.05
  L 97.06 153.29
  C 101.33 148.05 116.07 150.18 121.94 152.08
  Q 124.08 152.78 124.95 155.89
  L 125.51 157.68
  Q 126.40 160.43 130.08 160.81
  Q 138.21 162.64 146.69 161.58
  Q 147.19 161.52 147.25 161.01
  Q 147.63 157.50 146.32 154.23
  Q 146.30 154.14 146.27 154.04
  Q 145.74 151.81 144.34 149.68
  L 137.41 130.41
  Q 130.67 112.06 123.90 93.56
  Q 123.34 92.03 121.87 89.40
  Q 121.62 88.96 121.15 88.81
  Q 120.01 88.43 118.73 88.52
  Q 118.76 88.17 118.40 88.32
  Q 109.76 86.32 101.99 89.51
  C 99.77 90.42 98.45 92.25 97.64 94.36
  Q 93.68 104.75 87.07 123.01
  C 86.25 125.28 85.21 129.12 83.85 132.07
  Q 82.61 134.77 81.51 138.05
  C 80.19 141.99 78.08 145.44 77.49 150.07
  Z" fill="#007bff"></path>
<path d="M 78.22 0.29
  Q 80.43 0.16 82.52 1.14
  A 0.32 0.32 0.0 0 1 82.53 1.72
  L 81.82 2.08
  Q 81.54 2.22 81.75 2.45
  Q 81.87 2.59 82.08 2.66
  Q 82.22 2.69 82.40 2.65
  Q 83.19 2.46 83.49 3.05
  Q 83.66 3.37 84.02 3.38
  Q 85.25 3.40 86.29 3.92
  A 0.77 0.76 -79.4 0 1 86.70 4.53
  L 86.93 6.96
  A 1.02 1.02 0.0 0 0 88.51 7.72
  Q 89.28 7.22 89.82 7.94
  Q 90.13 8.36 90.12 9.13
  C 90.11 10.94 90.95 12.15 90.89 13.93
  Q 90.87 14.41 91.22 14.75
  Q 91.90 15.40 92.99 15.09
  Q 93.43 14.97 93.41 14.52
  Q 93.27 11.55 93.50 8.61
  C 93.68 6.29 95.12 6.25 96.96 6.85
  Q 95.94 7.55 94.78 7.62
  Q 94.28 7.64 94.28 8.14
  L 94.14 28.68
  L 93.70 31.35
  Q 93.61 31.94 93.01 31.92
  L 90.74 31.87
  Q 90.31 31.86 90.20 31.44
  C 89.13 27.17 89.92 20.98 89.82 16.19
  Q 89.80 15.13 88.74 15.13
  L 87.99 15.13
  A 0.56 0.55 -1.6 0 1 87.43 14.61
  C 87.27 11.88 88.02 6.75 84.00 6.61
  Q 83.44 6.59 83.58 6.04
  Q 83.84 4.96 83.31 4.33
  Q 82.86 3.77 82.71 3.54
  Q 81.91 2.28 80.18 2.80
  Q 80.75 0.74 78.52 0.40
  Q 78.45 0.81 78.22 0.29
  Z" fill-opacity="0.043" fill="#030404"></path>
<path d="M 78.52 0.40
  Q 80.75 0.74 80.18 2.80
  Q 79.81 2.56 79.13 2.57
  Q 79.24 1.25 78.78 1.20
  Q 78.62 0.98 78.52 0.40
  Z" fill-opacity="0.086" fill="#06080a"></path>
<path d="M 101.80 0.84
  C 101.51 2.24 100.50 2.27 99.75 2.92
  Q 98.99 3.56 98.23 4.35
  Q 98.91 0.91 101.80 0.84
  Z" fill-opacity="0.678" fill="#0e5bac"></path>
<path d="M 161.76 36.65
  Q 160.48 32.86 160.55 27.83
  Q 165.28 22.49 161.92 18.80
  Q 161.73 18.59 161.69 18.87
  Q 161.65 19.09 161.50 19.13
  Q 161.17 19.22 161.07 18.96
  Q 160.95 18.64 160.71 18.88
  Q 160.55 19.03 160.58 19.32
  Q 160.59 19.49 160.74 19.69
  Q 161.48 20.66 161.96 21.89
  Q 162.21 22.55 161.76 22.02
  Q 160.73 20.82 160.05 18.54
  L 158.79 5.31
  Q 158.80 1.75 155.73 1.11
  Q 156.02 0.56 156.92 0.62
  A 0.42 0.38 -24.9 0 1 157.15 0.69
  L 159.91 2.59
  Q 160.31 2.87 160.80 2.84
  Q 162.29 2.75 162.34 4.51
  Q 162.39 6.84 162.37 8.85
  A 1.78 1.77 2.6 0 0 164.02 10.65
  Q 166.04 10.79 166.16 12.76
  Q 166.20 13.32 165.87 13.76
  Q 165.50 14.25 165.60 14.88
  A 0.81 0.78 44.0 0 1 165.61 15.16
  Q 165.50 16.15 164.83 16.13
  Q 164.43 16.12 164.29 16.48
  Q 164.12 16.92 163.57 17.06
  Q 163.24 17.15 163.15 17.47
  Q 162.97 18.05 163.35 18.22
  Q 163.75 18.39 163.80 18.83
  Q 164.03 20.93 164.18 23.01
  Q 164.28 24.42 163.20 25.01
  Q 162.75 25.26 162.55 25.73
  C 161.40 28.48 160.88 32.30 162.01 35.15
  Q 162.52 36.46 161.76 36.65
  Z" fill-opacity="0.086" fill="#06080a"></path>
<path d="M 78.78 1.20
  Q 79.24 1.25 79.13 2.57
  Q 79.61 2.99 81.23 3.49
  Q 82.61 3.92 81.18 3.73
  Q 80.39 3.63 79.18 3.96
  Q 78.30 2.67 78.78 1.20
  Z" fill-opacity="0.180" fill="#0b1117"></path>
<path d="M 155.41 1.28
  Q 155.57 1.20 155.73 1.11
  Q 158.80 1.75 158.79 5.31
  Q 158.15 2.60 155.41 1.28
  Z" fill-opacity="0.180" fill="#0b1117"></path>
<path d="M 79.13 2.57
  Q 79.81 2.56 80.18 2.80
  L 81.42 3.19
  Q 81.87 3.33 82.08 3.76
  Q 82.97 5.64 82.70 7.75
  L 79.78 7.94
  L 79.18 3.96
  Q 80.39 3.63 81.18 3.73
  Q 82.61 3.92 81.23 3.49
  Q 79.61 2.99 79.13 2.57
  Z" fill-opacity="0.408" fill="#10305a"></path>
<path d="M 80.18 2.80
  Q 81.91 2.28 82.71 3.54
  Q 82.86 3.77 83.31 4.33
  Q 83.84 4.96 83.58 6.04
  Q 83.44 6.59 84.00 6.61
  C 88.02 6.75 87.27 11.88 87.43 14.61
  A 0.56 0.55 -1.6 0 0 87.99 15.13
  L 88.74 15.13
  Q 89.80 15.13 89.82 16.19
  C 89.92 20.98 89.13 27.17 90.20 31.44
  Q 90.31 31.86 90.74 31.87
  L 93.01 31.92
  Q 93.61 31.94 93.70 31.35
  L 94.14 28.68
  L 94.08 33.20
  A 0.67 0.67 0.0 0 0 94.75 33.87
  L 96.29 33.86
  Q 96.84 33.86 96.91 34.41
  L 97.15 36.15
  A 0.69 0.68 -0.6 0 1 96.39 36.92
  Q 94.90 36.74 94.59 37.56
  Q 94.43 37.98 93.97 37.91
  Q 91.55 37.54 90.78 38.69
  L 87.32 38.61
  Q 86.33 38.47 85.82 37.90
  Q 85.53 37.57 85.09 37.58
  L 83.31 37.64
  Q 82.87 37.66 82.86 37.21
  L 82.72 30.53
  L 82.70 7.75
  Q 82.97 5.64 82.08 3.76
  Q 81.87 3.33 81.42 3.19
  L 80.18 2.80
  Z" fill-opacity="0.086" fill="#06080a"></path>
<path d="M 176.45 2.29
  Q 175.11 7.60 175.04 9.25
  Q 174.71 17.07 173.37 22.31
  L 173.42 8.70
  Q 173.42 8.28 173.76 8.02
  C 175.48 6.72 174.31 5.18 175.21 3.80
  Q 175.63 3.15 176.45 2.29
  Z" fill-opacity="0.086" fill="#06080a"></path>
<path d="M 59.73 2.92
  L 59.25 17.35
  Q 57.46 9.61 59.73 2.92
  Z" fill-opacity="0.086" fill="#06080a"></path>
<path d="M 98.04 5.56
  L 98.02 36.60
  A 2.12 2.11 -6.1 0 1 96.35 38.66
  Q 94.07 39.14 90.78 38.69
  Q 91.55 37.54 93.97 37.91
  Q 94.43 37.98 94.59 37.56
  Q 94.90 36.74 96.39 36.92
  A 0.69 0.68 -0.6 0 0 97.15 36.15
  L 96.91 34.41
  Q 96.84 33.86 96.29 33.86
  L 94.75 33.87
  A 0.67 0.67 0.0 0 1 94.08 33.20
  L 94.14 28.68
  L 94.28 8.14
  Q 94.28 7.64 94.78 7.62
  Q 95.94 7.55 96.96 6.85
  Q 96.86 5.06 97.55 3.67
  Q 97.83 3.11 98.05 3.70
  Q 98.32 4.43 98.04 5.56
  Z" fill-opacity="0.180" fill="#0b1117"></path>
<path d="M 82.70 7.75
  L 82.72 30.53
  L 82.22 36.38
  Q 81.29 35.06 81.64 33.12
  Q 81.68 32.89 81.52 32.73
  Q 81.41 32.62 81.37 32.50
  A 0.01 0.01 0.0 0 0 81.35 32.50
  Q 81.32 32.63 81.25 32.74
  Q 81.19 32.85 81.07 32.79
  Q 79.93 32.18 79.85 31.24
  Q 79.04 21.42 79.78 7.94
  L 82.70 7.75
  Z" fill-opacity="0.678" fill="#0e5bac"></path>
<path d="M 160.05 18.54
  Q 160.73 20.82 161.76 22.02
  Q 162.21 22.55 161.96 21.89
  Q 161.48 20.66 160.74 19.69
  Q 160.59 19.49 160.58 19.32
  Q 160.55 19.03 160.71 18.88
  Q 160.95 18.64 161.07 18.96
  Q 161.17 19.22 161.50 19.13
  Q 161.65 19.09 161.69 18.87
  Q 161.73 18.59 161.92 18.80
  Q 165.28 22.49 160.55 27.83
  Q 160.55 26.60 161.09 25.19
  Q 161.27 24.73 161.02 24.31
  Q 160.38 23.25 160.56 22.00
  Q 160.65 21.39 160.24 21.46
  L 160.05 18.54
  Z" fill-opacity="0.180" fill="#0b1117"></path>
<path d="M 160.24 21.46
  Q 160.65 21.39 160.56 22.00
  Q 160.38 23.25 161.02 24.31
  Q 161.27 24.73 161.09 25.19
  Q 160.55 26.60 160.55 27.83
  Q 160.48 32.86 161.76 36.65
  Q 162.61 37.61 163.89 38.09
  Q 161.72 38.93 160.20 37.48
  Q 159.83 37.13 159.84 36.63
  L 160.24 21.46
  Z" fill-opacity="0.408" fill="#10305a"></path>
<path d="M 174.08 27.94
  L 174.52 31.90
  L 173.98 33.71
  Q 173.37 30.84 174.08 27.94
  Z" fill-opacity="0.180" fill="#0b1117"></path>
<path d="M 82.72 30.53
  L 82.86 37.21
  Q 82.87 37.66 83.31 37.64
  L 85.09 37.58
  Q 85.53 37.57 85.82 37.90
  Q 86.33 38.47 87.32 38.61
  Q 84.22 38.84 83.00 38.63
  Q 81.26 38.33 82.22 36.38
  L 82.72 30.53
  Z" fill-opacity="0.180" fill="#0b1117"></path>
<path d="M 174.52 31.90
  C 174.84 35.18 175.38 39.40 170.41 38.72
  L 172.34 37.72
  Q 172.79 37.49 172.95 37.00
  L 173.98 33.71
  L 174.52 31.90
  Z" fill-opacity="0.408" fill="#10305a"></path>
<path d="M 199.98 34.21
  Q 200.52 34.22 201.16 34.71
  Q 202.22 35.80 202.81 37.07
  Q 200.50 36.33 199.98 34.21
  Z" fill-opacity="0.180" fill="#0b1117"></path>
<path d="M 201.16 34.71
  C 202.79 35.20 202.95 37.09 204.68 36.87
  Q 205.09 36.81 204.97 37.21
  L 204.78 37.87
  L 202.81 37.07
  Q 202.22 35.80 201.16 34.71
  Z" fill-opacity="0.043" fill="#030404"></path>
<path d="M 249.98 59.69
  Q 248.25 59.87 246.84 59.45
  Q 244.74 58.62 242.64 58.71
  Q 243.40 58.74 243.81 58.55
  Q 244.71 58.14 243.75 58.08
  Q 242.22 57.99 241.00 58.92
  A 1.16 1.14 28.9 0 1 240.21 59.14
  Q 239.14 59.05 238.17 59.29
  Q 237.04 59.36 235.72 58.74
  L 240.41 58.42
  Q 240.83 58.40 241.07 58.03
  C 241.78 56.94 243.26 56.92 244.33 56.94
  Q 245.32 56.96 245.60 58.08
  Q 245.72 58.55 246.20 58.58
  Q 248.47 58.70 249.98 59.69
  Z" fill-opacity="0.043" fill="#030404"></path>
<path d="M 242.64 58.71
  L 241.84 59.55
  Q 239.98 59.85 238.17 59.29
  Q 239.14 59.05 240.21 59.14
  A 1.16 1.14 28.9 0 0 241.00 58.92
  Q 242.22 57.99 243.75 58.08
  Q 244.71 58.14 243.81 58.55
  Q 243.40 58.74 242.64 58.71
  Z" fill-opacity="0.086" fill="#06080a"></path>
<path d="M 242.64 58.71
  Q 244.74 58.62 246.84 59.45
  Q 244.14 60.26 241.84 59.55
  L 242.64 58.71
  Z" fill-opacity="0.180" fill="#0b1117"></path>
<path d="M 256.00 74.73
  L 256.00 84.01
  L 255.59 79.24
  L 256.00 74.73
  Z" fill-opacity="0.043" fill="#030404"></path>
<path d="M 0.00 75.64
  Q 1.94 75.64 2.11 77.50
  A 0.80 0.78 -83.1 0 0 2.62 78.17
  Q 3.68 78.55 4.34 79.30
  Q 3.13 79.26 2.00 78.87
  Q 1.85 78.81 1.73 79.27
  Q 1.51 79.22 1.16 79.30
  Q 0.12 78.75 0.00 76.73
  L 0.00 75.64
  Z" fill-opacity="0.678" fill="#0e5bac"></path>
<path d="M 0.00 76.73
  Q 0.12 78.75 1.16 79.30
  Q 1.50 79.58 1.57 80.05
  L 2.72 82.03
  A 2.01 2.00 -13.2 0 0 4.35 83.03
  L 10.22 83.39
  Q 10.64 83.41 10.65 83.83
  Q 10.67 84.87 11.02 85.77
  Q 11.23 86.31 11.81 86.31
  C 14.18 86.34 16.43 86.82 18.68 86.87
  Q 26.30 87.06 33.94 87.18
  Q 34.53 87.18 34.63 86.60
  Q 34.81 85.47 34.31 84.51
  Q 34.20 84.30 33.98 84.38
  Q 33.78 84.46 33.66 84.58
  A 0.32 0.32 0.0 0 1 33.12 84.35
  L 33.12 83.24
  Q 33.12 82.85 33.51 82.88
  L 37.56 83.20
  Q 37.95 83.23 37.92 83.63
  Q 37.76 85.32 39.01 87.37
  C 39.12 89.93 39.12 94.29 37.95 96.71
  Q 37.67 97.27 37.04 97.31
  Q 28.85 97.83 15.00 97.32
  C 12.30 97.22 6.02 97.52 3.54 99.09
  Q 0.39 101.07 0.00 105.54
  L 0.00 76.73
  Z" fill-opacity="0.043" fill="#030404"></path>
<path d="M 4.34 79.30
  Q 6.70 80.08 9.44 80.00
  Q 10.29 81.04 11.72 80.54
  Q 11.75 80.53 11.76 80.56
  L 11.78 80.83
  Q 11.81 81.08 11.56 81.09
  Q 10.14 81.14 8.71 81.11
  Q 8.06 81.10 7.62 81.40
  Q 6.72 82.00 7.00 82.49
  L 4.17 82.37
  L 4.12 80.84
  Q 4.11 80.40 3.72 80.21
  L 1.73 79.27
  Q 1.85 78.81 2.00 78.87
  Q 3.13 79.26 4.34 79.30
  Z" fill-opacity="0.408" fill="#10305a"></path>
<path d="M 255.59 79.24
  L 256.00 84.01
  L 256.00 103.89
  L 255.55 101.25
  Q 255.76 100.16 255.47 98.88
  Q 255.06 97.56 253.16 97.71
  A 1.41 1.40 -29.1 0 1 252.27 97.46
  Q 251.27 96.77 250.16 97.35
  A 0.94 0.94 0.0 0 1 248.90 96.98
  Q 248.40 96.11 248.39 95.05
  A 0.85 0.85 0.0 0 0 247.56 94.21
  L 222.70 93.65
  Q 222.01 93.63 222.06 92.94
  L 222.41 87.96
  Q 222.45 87.36 222.99 87.10
  Q 223.80 86.71 224.74 86.90
  A 0.96 0.95 27.5 0 0 225.61 86.63
  L 226.26 85.99
  Q 226.67 85.57 227.26 85.61
  L 228.51 85.68
  Q 229.12 85.72 229.12 85.11
  L 229.12 83.97
  Q 229.12 83.40 229.69 83.39
  L 250.30 82.94
  L 251.52 82.60
  Q 252.01 82.47 252.23 82.02
  Q 253.07 80.30 252.64 79.34
  Q 253.99 78.59 255.59 79.24
  Z" fill-opacity="0.086" fill="#06080a"></path>
<path d="M 252.64 79.34
  Q 253.07 80.30 252.23 82.02
  Q 252.01 82.47 251.52 82.60
  L 250.30 82.94
  L 218.10 82.79
  C 217.66 81.15 218.45 79.97 220.15 79.65
  C 230.61 77.66 241.21 79.78 252.64 79.34
  Z" fill-opacity="0.678" fill="#0e5bac"></path>
<path d="M 1.16 79.30
  Q 1.51 79.22 1.73 79.27
  L 3.72 80.21
  Q 4.11 80.40 4.12 80.84
  L 4.17 82.37
  Q 3.15 81.81 2.63 80.75
  Q 2.71 80.14 1.57 80.05
  Q 1.50 79.58 1.16 79.30
  Z" fill-opacity="0.180" fill="#0b1117"></path>
<path d="M 30.97 82.29
  Q 19.03 83.19 7.00 82.49
  Q 6.72 82.00 7.62 81.40
  Q 8.06 81.10 8.71 81.11
  Q 10.14 81.14 11.56 81.09
  Q 11.81 81.08 11.78 80.83
  L 11.76 80.56
  Q 11.75 80.53 11.72 80.54
  Q 10.29 81.04 9.44 80.00
  Q 17.46 78.91 25.41 79.75
  Q 25.87 79.80 26.17 80.16
  Q 26.64 80.73 27.32 80.52
  A 0.92 0.92 0.0 0 1 27.95 80.55
  Q 28.63 80.83 28.65 81.46
  Q 28.66 82.02 29.21 82.08
  L 30.97 82.29
  Z" fill-opacity="0.678" fill="#0e5bac"></path>
<path d="M 1.57 80.05
  Q 2.71 80.14 2.63 80.75
  Q 3.15 81.81 4.17 82.37
  L 7.00 82.49
  Q 19.03 83.19 30.97 82.29
  L 37.78 81.86
  Q 38.61 81.81 38.67 82.63
  L 39.01 87.37
  Q 37.76 85.32 37.92 83.63
  Q 37.95 83.23 37.56 83.20
  L 33.51 82.88
  Q 33.12 82.85 33.12 83.24
  L 33.12 84.35
  A 0.32 0.32 0.0 0 0 33.66 84.58
  Q 33.78 84.46 33.98 84.38
  Q 34.20 84.30 34.31 84.51
  Q 34.81 85.47 34.63 86.60
  Q 34.53 87.18 33.94 87.18
  Q 26.30 87.06 18.68 86.87
  C 16.43 86.82 14.18 86.34 11.81 86.31
  Q 11.23 86.31 11.02 85.77
  Q 10.67 84.87 10.65 83.83
  Q 10.64 83.41 10.22 83.39
  L 4.35 83.03
  A 2.01 2.00 -13.2 0 1 2.72 82.03
  L 1.57 80.05
  Z" fill-opacity="0.086" fill="#06080a"></path>
<path d="M 250.30 82.94
  L 229.69 83.39
  Q 229.12 83.40 229.12 83.97
  L 229.12 85.11
  Q 229.12 85.72 228.51 85.68
  L 227.26 85.61
  Q 226.67 85.57 226.26 85.99
  L 225.61 86.63
  A 0.96 0.95 27.5 0 1 224.74 86.90
  Q 223.80 86.71 222.99 87.10
  Q 222.45 87.36 222.41 87.96
  L 222.06 92.94
  Q 222.01 93.63 222.70 93.65
  L 247.56 94.21
  A 0.85 0.85 0.0 0 1 248.39 95.05
  Q 248.40 96.11 248.90 96.98
  A 0.94 0.94 0.0 0 0 250.16 97.35
  Q 251.27 96.77 252.27 97.46
  A 1.41 1.40 -29.1 0 0 253.16 97.71
  Q 255.06 97.56 255.47 98.88
  Q 253.71 98.12 251.51 98.30
  L 220.01 97.32
  A 1.97 1.97 0.0 0 1 218.10 95.36
  L 218.10 82.79
  L 250.30 82.94
  Z" fill-opacity="0.180" fill="#0b1117"></path>
<path d="M 176.94 90.39
  Q 165.30 89.62 154.26 90.60
  Q 153.88 89.49 154.41 87.33
  A 0.98 0.98 0.0 0 1 155.38 86.57
  L 176.13 86.85
  Q 176.74 86.86 176.77 87.47
  L 176.94 90.39
  Z" fill-opacity="0.408" fill="#10305a"></path>
<path d="M 118.40 88.32
  Q 116.44 88.79 115.54 90.00
  Q 115.19 90.47 115.70 90.74
  C 119.65 92.84 120.97 93.29 121.02 98.27
  L 109.78 98.08
  Q 109.10 98.07 109.10 98.75
  L 109.10 100.22
  A 1.04 1.04 0.0 0 1 108.93 100.79
  Q 108.44 101.49 107.65 101.39
  Q 107.21 101.34 106.77 101.47
  Q 105.75 101.80 105.18 102.62
  Q 104.89 103.03 105.39 103.13
  L 105.75 103.19
  A 0.40 0.40 0.0 0 1 106.06 103.52
  Q 106.11 103.93 105.73 104.06
  Q 105.33 104.20 105.31 104.62
  Q 105.22 107.12 103.09 108.27
  Q 103.01 108.31 102.94 108.31
  Q 102.81 108.30 102.69 108.19
  Q 102.57 108.09 102.50 108.23
  Q 101.83 109.54 102.27 110.97
  Q 102.42 111.45 102.26 111.93
  C 101.78 113.48 101.71 115.46 100.80 116.79
  Q 100.54 117.16 100.63 117.61
  Q 101.01 119.70 99.07 120.44
  Q 98.64 120.61 98.53 121.06
  L 97.74 124.25
  A 0.18 0.18 0.0 0 1 97.52 124.37
  Q 97.33 124.32 97.25 124.50
  Q 97.17 124.66 97.21 124.70
  Q 97.30 124.81 97.35 124.94
  A 0.13 0.13 0.0 0 1 97.35 125.06
  Q 97.16 125.41 96.87 125.32
  Q 96.62 125.25 96.62 125.50
  L 96.62 126.49
  A 0.27 0.26 66.3 0 0 97.08 126.67
  Q 97.67 126.03 97.84 127.48
  A 0.39 0.37 62.0 0 1 97.77 127.73
  L 94.33 132.08
  Q 94.07 132.41 94.14 132.82
  Q 94.42 134.63 93.13 135.85
  Q 92.81 136.15 92.64 136.56
  L 92.24 137.54
  Q 92.06 137.98 91.69 138.27
  Q 90.68 139.08 90.39 141.02
  Q 89.71 145.58 89.32 150.19
  Q 89.28 150.68 88.98 151.08
  C 87.98 152.42 88.63 154.29 89.30 155.86
  Q 89.48 156.28 89.92 156.41
  Q 90.95 156.73 91.83 157.36
  Q 92.22 157.64 92.45 157.21
  Q 92.97 156.22 93.92 155.88
  Q 94.39 155.72 94.75 155.37
  Q 95.21 154.93 95.79 154.68
  L 95.05 156.23
  Q 94.65 156.11 93.71 156.78
  Q 92.83 156.77 92.42 158.20
  Q 91.64 160.84 88.75 159.69
  Q 88.63 159.65 88.63 159.52
  Q 88.63 159.37 88.64 159.22
  Q 88.65 158.96 88.39 158.95
  C 86.87 158.88 85.94 158.02 84.56 157.89
  Q 81.29 157.58 77.93 157.62
  Q 77.28 157.63 77.38 156.99
  Q 77.52 156.09 76.78 156.13
  A 0.61 0.61 0.0 0 1 76.13 155.49
  L 76.25 153.03
  Q 78.78 151.56 77.49 150.07
  C 78.08 145.44 80.19 141.99 81.51 138.05
  Q 82.61 134.77 83.85 132.07
  C 85.21 129.12 86.25 125.28 87.07 123.01
  Q 93.68 104.75 97.64 94.36
  C 98.45 92.25 99.77 90.42 101.99 89.51
  Q 109.76 86.32 118.40 88.32
  Z" fill-opacity="0.086" fill="#06080a"></path>
<path d="M 118.40 88.32
  Q 118.76 88.17 118.73 88.52
  Q 118.48 89.30 117.76 89.12
  Q 117.02 89.45 116.68 90.14
  Q 116.45 90.61 116.97 90.68
  Q 117.68 90.78 118.03 91.26
  Q 118.32 91.65 118.77 91.83
  Q 123.01 93.43 121.02 98.27
  C 120.97 93.29 119.65 92.84 115.70 90.74
  Q 115.19 90.47 115.54 90.00
  Q 116.44 88.79 118.40 88.32
  Z" fill-opacity="0.043" fill="#030404"></path>
<path d="M 176.94 90.39
  L 176.91 161.18
  Q 176.91 161.76 176.33 161.76
  L 158.08 161.76
  Q 157.40 160.48 155.38 161.51
  Q 154.46 161.43 154.43 159.87
  Q 153.90 125.69 154.26 90.60
  Q 165.30 89.62 176.94 90.39
  Z
  M 167.06 157.87
  L 172.58 157.83
  Q 173.07 157.83 173.07 157.34
  L 173.08 102.49
  L 172.72 94.06
  Q 172.70 93.53 172.17 93.55
  L 162.60 93.88
  A 1.05 1.04 86.1 0 0 161.60 95.03
  Q 161.67 95.63 161.62 96.88
  Q 161.59 97.44 161.33 97.79
  Q 160.78 98.51 160.27 98.05
  A 1.24 1.21 -69.3 0 0 158.24 99.00
  L 157.89 156.84
  A 0.78 0.77 -89.2 0 0 158.64 157.62
  L 167.06 157.87
  Z" fill-opacity="0.180" fill="#0b1117"></path>
<path d="M 173.08 102.49
  L 172.41 95.56
  Q 172.37 95.24 172.05 95.21
  L 166.92 94.86
  A 0.54 0.53 -2.5 0 0 166.35 95.48
  Q 166.90 98.73 163.25 98.05
  A 0.98 0.97 2.7 0 0 162.10 99.09
  C 162.26 100.98 161.87 102.99 161.87 104.62
  Q 161.88 129.06 161.91 153.50
  Q 161.91 155.16 162.18 156.75
  Q 162.25 157.20 162.66 157.40
  Q 163.48 157.81 164.16 157.52
  Q 164.62 157.33 165.11 157.44
  L 167.06 157.87
  L 158.64 157.62
  A 0.78 0.77 -89.2 0 1 157.89 156.84
  L 158.24 99.00
  A 1.24 1.21 -69.3 0 1 160.27 98.05
  Q 160.78 98.51 161.33 97.79
  Q 161.59 97.44 161.62 96.88
  Q 161.67 95.63 161.60 95.03
  A 1.05 1.04 86.1 0 1 162.60 93.88
  L 172.17 93.55
  Q 172.70 93.53 172.72 94.06
  L 173.08 102.49
  Z" fill-opacity="0.086" fill="#06080a"></path>
<path d="M 173.08 102.49
  L 173.07 157.34
  Q 173.07 157.83 172.58 157.83
  L 167.06 157.87
  L 165.11 157.44
  Q 164.62 157.33 164.16 157.52
  Q 163.48 157.81 162.66 157.40
  Q 162.25 157.20 162.18 156.75
  Q 161.91 155.16 161.91 153.50
  Q 161.88 129.06 161.87 104.62
  C 161.87 102.99 162.26 100.98 162.10 99.09
  A 0.98 0.97 2.7 0 1 163.25 98.05
  Q 166.90 98.73 166.35 95.48
  A 0.54 0.53 -2.5 0 1 166.92 94.86
  L 172.05 95.21
  Q 172.37 95.24 172.41 95.56
  L 173.08 102.49
  Z" fill-opacity="0.043" fill="#030404"></path>
<path d="M 251.51 98.30
  Q 253.71 98.12 255.47 98.88
  Q 255.76 100.16 255.55 101.25
  L 251.51 98.30
  Z" fill-opacity="0.408" fill="#10305a"></path>
<path d="M 108.34 136.08
  Q 106.80 135.50 105.17 136.27
  Q 104.30 136.31 103.82 135.99
  Q 103.40 135.70 103.42 134.87
  Q 103.47 132.62 104.16 130.49
  Q 106.12 124.38 108.02 118.24
  Q 108.48 116.76 108.50 115.57
  A 2.11 2.09 78.3 0 1 109.71 113.71
  Q 111.22 112.99 111.87 114.57
  Q 115.34 123.06 117.48 132.01
  Q 117.92 133.85 117.95 135.48
  A 0.87 0.87 0.0 0 1 117.05 136.36
  L 108.34 136.08
  Z" fill="#007bff"></path>
<path d="M 256.00 115.23
  L 256.00 142.39
  L 255.26 138.04
  Q 255.15 137.25 253.71 136.53
  C 252.47 135.92 251.04 136.23 249.62 135.95
  Q 249.13 135.86 248.64 135.98
  Q 247.28 136.33 246.05 135.51
  Q 245.60 135.20 245.06 135.18
  Q 235.66 134.80 226.15 136.23
  L 220.06 136.17
  Q 218.90 135.00 219.35 133.39
  Q 219.42 133.13 219.68 133.16
  L 225.14 133.81
  Q 225.62 133.87 226.09 133.78
  L 229.30 133.20
  A 0.62 0.62 0.0 0 0 229.81 132.60
  L 229.83 128.64
  A 0.78 0.78 0.0 0 1 230.61 127.87
  L 248.50 127.87
  Q 249.30 127.87 249.04 127.12
  Q 248.82 126.48 249.31 125.73
  Q 249.50 125.45 249.84 125.44
  Q 250.96 125.40 251.92 124.84
  Q 252.33 124.61 252.81 124.64
  Q 254.15 124.74 255.18 125.46
  A 0.37 0.37 0.0 0 0 255.76 125.14
  L 255.51 118.49
  Q 255.43 116.91 256.00 115.23
  Z" fill-opacity="0.043" fill="#030404"></path>
<path d="M 1.87 117.44
  L 4.56 119.59
  Q 4.04 120.12 3.41 119.80
  Q 3.04 119.62 2.73 119.02
  Q 2.34 118.29 1.87 117.44
  Z" fill-opacity="0.180" fill="#0b1117"></path>
<path d="M 255.51 118.49
  L 255.76 125.14
  A 0.37 0.37 0.0 0 1 255.18 125.46
  Q 254.15 124.74 252.81 124.64
  Q 252.33 124.61 251.92 124.84
  Q 250.96 125.40 249.84 125.44
  Q 249.50 125.45 249.31 125.73
  Q 248.82 126.48 249.04 127.12
  Q 249.30 127.87 248.50 127.87
  L 230.61 127.87
  A 0.78 0.78 0.0 0 0 229.83 128.64
  L 229.81 132.60
  A 0.62 0.62 0.0 0 1 229.30 133.20
  L 226.09 133.78
  Q 225.62 133.87 225.14 133.81
  L 219.68 133.16
  Q 219.42 133.13 219.35 133.39
  Q 218.90 135.00 220.06 136.17
  Q 218.10 136.39 218.05 134.38
  Q 217.88 127.60 218.04 121.47
  Q 218.07 120.27 219.27 120.30
  Q 237.26 120.77 254.25 119.88
  Q 255.06 119.84 255.51 118.49
  Z" fill-opacity="0.086" fill="#06080a"></path>
<path d="M 30.35 135.96
  L 9.45 135.96
  L 21.34 135.62
  A 0.03 0.03 0.0 0 1 21.35 135.67
  Q 20.50 135.93 19.53 135.27
  Q 19.16 135.02 18.72 135.04
  L 10.97 135.40
  Q 10.51 135.42 10.10 135.21
  Q 9.31 134.81 8.25 134.90
  Q 7.83 134.93 8.12 134.63
  L 8.31 134.43
  Q 8.50 134.24 8.69 134.43
  L 8.97 134.72
  Q 9.17 134.93 9.46 134.89
  L 12.42 134.47
  Q 12.64 134.44 12.64 134.22
  Q 12.65 132.36 11.85 130.93
  A 1.13 1.11 72.4 0 0 10.77 130.36
  Q 10.04 130.44 9.45 129.82
  Q 9.15 129.52 8.80 129.26
  Q 7.19 128.09 5.16 127.71
  A 1.31 1.30 16.5 0 1 4.19 125.93
  Q 4.72 124.63 4.66 123.14
  Q 4.65 122.69 5.06 122.50
  Q 6.01 122.06 5.71 120.99
  A 0.60 0.59 -12.5 0 0 5.02 120.56
  Q 4.20 120.71 3.53 120.53
  Q 2.87 120.35 3.54 120.21
  Q 6.41 119.60 8.47 121.36
  Q 8.84 121.68 8.60 122.11
  Q 8.25 122.73 7.51 122.88
  A 0.49 0.49 0.0 0 0 7.33 123.77
  Q 7.86 124.13 8.13 124.71
  Q 8.36 125.23 8.92 125.13
  Q 10.00 124.95 10.77 125.86
  Q 10.95 126.08 10.84 126.34
  Q 10.77 126.50 10.65 126.61
  A 0.49 0.48 -43.0 0 0 10.62 127.31
  Q 11.22 127.93 11.95 128.17
  Q 12.35 128.30 12.47 128.46
  Q 12.57 128.59 12.61 128.74
  Q 12.69 129.06 13.01 129.09
  L 16.92 129.46
  A 0.71 0.70 2.7 0 1 17.56 130.16
  L 17.56 130.73
  A 0.46 0.46 0.0 0 1 16.99 131.18
  Q 15.40 130.78 13.77 130.93
  A 0.16 0.16 0.0 0 0 13.62 131.09
  L 13.62 131.42
  Q 13.62 131.62 13.82 131.58
  Q 14.49 131.46 15.23 131.63
  Q 15.63 131.73 15.98 131.52
  Q 16.52 131.19 17.25 131.48
  Q 18.70 132.08 18.77 133.73
  Q 18.80 134.23 19.30 134.30
  L 30.35 135.96
  Z" fill-opacity="0.043" fill="#030404"></path>
<path d="M 34.39 122.07
  L 34.05 121.81
  Q 33.83 121.64 34.03 121.45
  Q 34.48 121.01 35.14 121.12
  Q 35.62 121.19 35.62 121.68
  L 35.62 122.03
  Q 35.62 122.24 35.83 122.29
  Q 37.00 122.56 36.87 123.92
  Q 36.82 124.47 36.52 124.00
  Q 36.38 123.76 36.29 123.50
  Q 36.16 123.13 35.77 123.13
  Q 35.00 123.13 34.73 122.50
  Q 34.62 122.24 34.39 122.07
  Z" fill-opacity="0.043" fill="#030404"></path>
<path d="M 137.41 130.41
  L 144.34 149.68
  Q 143.64 151.35 144.70 152.16
  Q 145.03 152.40 145.11 152.80
  Q 145.30 153.65 146.27 154.04
  Q 146.30 154.14 146.32 154.23
  Q 146.07 154.76 146.12 155.40
  A 1.85 1.77 -64.3 0 0 146.36 156.14
  Q 146.77 156.82 146.60 157.61
  Q 146.49 158.13 145.96 158.13
  Q 138.72 158.12 131.50 158.14
  Q 130.89 158.14 130.88 158.67
  Q 130.86 159.02 130.52 159.10
  Q 129.43 159.37 128.72 158.58
  Q 128.56 158.40 128.79 158.37
  L 129.25 158.31
  Q 129.77 158.24 129.28 158.06
  Q 128.39 157.73 127.98 157.14
  L 140.07 157.93
  Q 140.12 157.93 140.15 157.89
  Q 140.23 157.77 140.31 157.69
  Q 140.35 157.64 140.25 157.63
  L 138.77 157.52
  Q 138.62 157.51 138.63 157.36
  Q 138.63 157.16 138.48 156.99
  A 0.14 0.14 0.0 0 0 138.25 157.02
  Q 138.19 157.14 138.14 157.27
  Q 137.99 157.61 137.69 157.40
  Q 137.58 157.32 137.51 157.21
  Q 137.31 156.92 137.67 156.88
  Q 137.92 156.86 138.15 156.84
  Q 138.68 156.80 139.07 156.43
  L 141.51 154.07
  A 0.66 0.61 21.8 0 1 141.95 153.90
  Q 142.10 153.90 142.25 153.90
  Q 142.38 153.90 142.38 153.76
  L 142.38 151.25
  Q 142.38 150.86 142.00 150.86
  L 140.96 150.86
  Q 140.42 150.86 140.14 150.41
  Q 139.55 149.48 139.82 148.43
  A 0.75 0.72 32.8 0 0 139.66 147.76
  C 139.26 147.31 139.00 146.99 138.95 146.36
  Q 138.72 143.27 138.75 140.14
  Q 138.76 139.70 138.34 139.56
  Q 137.64 139.32 136.88 139.41
  A 0.72 0.72 0.0 0 1 136.13 138.99
  Q 135.75 138.18 135.89 137.28
  A 1.08 1.08 0.0 0 0 135.66 136.44
  Q 134.06 134.45 135.60 132.44
  A 0.22 0.21 46.4 0 1 135.95 132.45
  Q 136.07 132.63 136.29 132.65
  Q 136.68 132.69 136.71 132.30
  Q 136.83 130.93 137.41 130.41
  Z" fill-opacity="0.086" fill="#06080a"></path>
<path d="M 255.26 138.04
  Q 246.26 135.61 237.25 136.13
  Q 230.86 136.50 226.15 136.23
  Q 235.66 134.80 245.06 135.18
  Q 245.60 135.20 246.05 135.51
  Q 247.28 136.33 248.64 135.98
  Q 249.13 135.86 249.62 135.95
  C 251.04 136.23 252.47 135.92 253.71 136.53
  Q 255.15 137.25 255.26 138.04
  Z" fill-opacity="0.180" fill="#0b1117"></path>
<path d="M 108.34 136.08
  Q 106.34 137.13 105.17 136.27
  Q 106.80 135.50 108.34 136.08
  Z" fill-opacity="0.086" fill="#06080a"></path>
<path d="M 144.34 149.68
  Q 145.74 151.81 146.27 154.04
  Q 145.30 153.65 145.11 152.80
  Q 145.03 152.40 144.70 152.16
  Q 143.64 151.35 144.34 149.68
  Z" fill-opacity="0.180" fill="#0b1117"></path>
<path d="M 77.49 150.07
  Q 78.78 151.56 76.25 153.03
  L 77.49 150.07
  Z" fill-opacity="0.180" fill="#0b1117"></path>
<path d="M 256.00 151.48
  L 256.00 163.12
  L 255.48 158.47
  L 256.00 151.48
  Z" fill-opacity="0.043" fill="#030404"></path>
<path d="M 0.00 151.87
  Q 0.44 152.30 0.22 153.53
  L 0.50 156.90
  Q 0.46 157.83 1.01 158.08
  Q 2.07 158.55 2.82 159.29
  L 3.68 161.80
  Q 3.85 162.31 4.39 162.34
  L 10.53 162.70
  Q 11.06 162.73 10.91 163.25
  Q 10.67 164.11 11.08 164.73
  Q 11.48 165.35 12.64 165.49
  C 19.80 166.33 27.02 166.03 33.11 166.41
  Q 33.63 166.44 33.52 166.95
  Q 33.28 168.06 33.77 169.05
  Q 33.96 169.46 33.68 169.81
  Q 33.46 170.07 33.37 170.09
  Q 32.41 170.29 33.26 170.62
  Q 33.61 170.76 33.85 171.10
  Q 34.09 171.42 33.88 171.76
  Q 33.72 172.03 33.85 172.39
  Q 34.01 172.87 34.52 172.87
  L 36.46 172.87
  Q 36.97 172.87 36.77 172.41
  Q 36.37 171.49 37.61 171.42
  Q 36.76 173.51 36.33 173.11
  L 12.24 173.21
  Q 8.94 173.03 5.71 173.34
  C 4.27 173.47 3.40 174.38 2.74 175.52
  Q 0.62 178.23 0.47 181.34
  L 0.00 183.77
  L 0.00 151.87
  Z" fill-opacity="0.043" fill="#030404"></path>
<path d="M 76.25 153.03
  L 76.13 155.49
  A 0.61 0.61 0.0 0 0 76.78 156.13
  Q 77.52 156.09 77.38 156.99
  Q 77.28 157.63 77.93 157.62
  Q 81.29 157.58 84.56 157.89
  C 85.94 158.02 86.87 158.88 88.39 158.95
  Q 88.65 158.96 88.64 159.22
  Q 88.63 159.37 88.63 159.52
  Q 88.63 159.65 88.75 159.69
  Q 91.64 160.84 92.42 158.20
  Q 92.83 156.77 93.71 156.78
  Q 93.21 159.24 91.38 161.22
  Q 83.33 162.24 75.66 160.71
  A 2.05 2.04 11.0 0 1 74.05 158.33
  Q 74.56 155.62 76.25 153.03
  Z" fill-opacity="0.180" fill="#0b1117"></path>
<path d="M 97.06 153.29
  L 94.58 159.05
  Q 93.65 157.52 95.05 156.23
  L 95.79 154.68
  Q 96.07 153.62 97.06 153.29
  Z" fill-opacity="0.678" fill="#0e5bac"></path>
<path d="M 0.22 153.53
  Q 2.79 154.47 3.45 156.93
  A 1.74 1.67 -77.4 0 0 3.92 157.71
  L 4.56 158.30
  Q 2.61 158.46 0.50 156.90
  L 0.22 153.53
  Z" fill-opacity="0.408" fill="#10305a"></path>
<path d="M 146.32 154.23
  Q 147.63 157.50 147.25 161.01
  Q 147.19 161.52 146.69 161.58
  Q 138.21 162.64 130.08 160.81
  Q 129.06 159.49 127.74 159.34
  Q 127.30 159.29 127.08 158.90
  Q 126.54 157.89 125.51 157.68
  L 124.95 155.89
  Q 126.45 156.16 127.98 157.14
  Q 128.39 157.73 129.28 158.06
  Q 129.77 158.24 129.25 158.31
  L 128.79 158.37
  Q 128.56 158.40 128.72 158.58
  Q 129.43 159.37 130.52 159.10
  Q 130.86 159.02 130.88 158.67
  Q 130.89 158.14 131.50 158.14
  Q 138.72 158.12 145.96 158.13
  Q 146.49 158.13 146.60 157.61
  Q 146.77 156.82 146.36 156.14
  A 1.85 1.77 -64.3 0 1 146.12 155.40
  Q 146.07 154.76 146.32 154.23
  Z" fill-opacity="0.180" fill="#0b1117"></path>
<path d="M 95.05 156.23
  Q 93.65 157.52 94.58 159.05
  Q 93.72 161.33 91.38 161.22
  Q 93.21 159.24 93.71 156.78
  Q 94.65 156.11 95.05 156.23
  Z" fill-opacity="0.408" fill="#10305a"></path>
<path d="M 0.50 156.90
  Q 2.61 158.46 4.56 158.30
  Q 5.26 158.16 6.17 158.27
  Q 6.26 158.74 6.95 159.12
  Q 7.39 159.36 7.39 159.86
  Q 7.40 161.24 8.33 161.86
  Q 6.30 162.35 4.54 161.90
  A 1.10 1.10 0.0 0 1 3.71 160.82
  Q 3.73 159.20 2.82 159.29
  Q 2.07 158.55 1.01 158.08
  Q 0.46 157.83 0.50 156.90
  Z" fill-opacity="0.180" fill="#0b1117"></path>
<path d="M 125.51 157.68
  Q 126.54 157.89 127.08 158.90
  Q 127.30 159.29 127.74 159.34
  Q 129.06 159.49 130.08 160.81
  Q 126.40 160.43 125.51 157.68
  Z" fill-opacity="0.408" fill="#10305a"></path>
<path d="M 254.82 158.61
  Q 253.79 159.09 252.39 158.84
  Q 252.37 158.83 252.37 158.84
  Q 252.37 158.85 252.37 158.86
  Q 252.37 158.88 252.39 158.88
  Q 253.73 158.84 255.11 159.03
  Q 255.26 159.05 255.11 159.09
  L 252.11 159.71
  Q 251.88 159.75 251.87 159.99
  Q 251.87 160.12 251.87 160.26
  Q 251.88 160.69 252.13 160.33
  Q 252.26 160.14 252.45 159.98
  Q 252.60 159.86 252.82 159.85
  Q 253.14 159.82 253.23 159.83
  A 0.02 0.01 -31.2 0 0 253.24 159.80
  Q 253.12 159.78 252.97 159.85
  Q 252.78 159.94 252.66 160.11
  Q 252.27 160.67 252.10 161.28
  Q 251.94 161.83 251.36 161.83
  L 218.04 161.84
  Q 217.57 158.63 219.98 158.54
  C 231.38 158.09 242.70 158.42 254.08 157.98
  Q 254.41 157.97 254.59 158.25
  L 254.82 158.61
  Z" fill-opacity="0.408" fill="#10305a"></path>
<path d="M 6.17 158.27
  C 14.92 158.63 23.61 158.27 32.31 158.88
  Q 32.97 158.92 34.09 160.03
  Q 34.42 160.35 34.88 160.38
  L 37.36 160.52
  Q 33.90 161.19 31.47 161.13
  Q 31.14 161.12 31.10 161.22
  Q 31.05 161.37 31.03 161.72
  L 8.33 161.86
  Q 7.40 161.24 7.39 159.86
  Q 7.39 159.36 6.95 159.12
  Q 6.26 158.74 6.17 158.27
  Z" fill-opacity="0.408" fill="#10305a"></path>
<path d="M 254.82 158.61
  Q 255.19 158.64 255.48 158.47
  L 256.00 163.12
  L 256.00 180.89
  Q 255.61 179.28 255.62 177.53
  Q 255.63 177.15 255.40 177.09
  Q 255.19 177.05 254.80 177.09
  L 253.99 176.74
  L 252.97 175.71
  Q 252.63 175.37 252.64 174.88
  Q 252.64 174.04 252.04 173.42
  Q 238.77 172.51 225.66 173.42
  C 223.84 173.55 221.80 173.29 219.85 173.40
  A 1.06 1.03 68.0 0 1 218.99 173.02
  Q 218.42 172.35 218.23 171.23
  L 218.04 161.84
  L 251.36 161.83
  Q 251.94 161.83 252.10 161.28
  Q 252.27 160.67 252.66 160.11
  Q 252.78 159.94 252.97 159.85
  Q 253.12 159.78 253.24 159.80
  A 0.02 0.01 -31.2 0 1 253.23 159.83
  Q 253.14 159.82 252.82 159.85
  Q 252.60 159.86 252.45 159.98
  Q 252.26 160.14 252.13 160.33
  Q 251.88 160.69 251.87 160.26
  Q 251.87 160.12 251.87 159.99
  Q 251.88 159.75 252.11 159.71
  L 255.11 159.09
  Q 255.26 159.05 255.11 159.03
  Q 253.73 158.84 252.39 158.88
  Q 252.37 158.88 252.37 158.86
  Q 252.37 158.85 252.37 158.84
  Q 252.37 158.83 252.39 158.84
  Q 253.79 159.09 254.82 158.61
  Z" fill-opacity="0.086" fill="#06080a"></path>
<path d="M 2.82 159.29
  Q 3.73 159.20 3.71 160.82
  A 1.10 1.10 0.0 0 0 4.54 161.90
  Q 6.30 162.35 8.33 161.86
  L 31.03 161.72
  L 36.82 162.03
  Q 37.33 162.05 37.58 162.50
  C 38.63 164.34 39.41 167.52 38.17 169.48
  A 0.07 0.07 0.0 0 1 38.05 169.42
  Q 38.10 169.25 38.09 169.11
  Q 38.02 168.45 37.69 169.02
  Q 37.53 169.29 37.70 169.63
  Q 37.91 170.04 37.81 170.49
  L 37.61 171.42
  Q 36.37 171.49 36.77 172.41
  Q 36.97 172.87 36.46 172.87
  L 34.52 172.87
  Q 34.01 172.87 33.85 172.39
  Q 33.72 172.03 33.88 171.76
  Q 34.09 171.42 33.85 171.10
  Q 33.61 170.76 33.26 170.62
  Q 32.41 170.29 33.37 170.09
  Q 33.46 170.07 33.68 169.81
  Q 33.96 169.46 33.77 169.05
  Q 33.28 168.06 33.52 166.95
  Q 33.63 166.44 33.11 166.41
  C 27.02 166.03 19.80 166.33 12.64 165.49
  Q 11.48 165.35 11.08 164.73
  Q 10.67 164.11 10.91 163.25
  Q 11.06 162.73 10.53 162.70
  L 4.39 162.34
  Q 3.85 162.31 3.68 161.80
  L 2.82 159.29
  Z
  M 36.19 163.79
  Q 36.67 164.27 36.78 164.85
  Q 37.07 166.44 37.72 164.95
  Q 38.48 163.22 36.28 162.51
  Q 35.59 162.29 35.04 162.61
  Q 34.72 162.80 35.03 163.02
  Q 35.19 163.13 35.37 163.14
  A 1.20 0.16 46.0 0 1 36.19 163.79
  Z" fill-opacity="0.086" fill="#06080a"></path>
<path d="M 37.36 160.52
  Q 39.43 162.47 39.56 166.66
  C 39.61 168.60 38.68 170.74 38.73 172.99
  Q 38.74 173.68 38.30 173.97
  L 35.28 173.90
  Q 34.52 173.89 35.27 173.76
  Q 35.96 173.64 37.05 173.62
  Q 35.94 173.74 36.33 173.11
  Q 36.76 173.51 37.61 171.42
  L 37.81 170.49
  Q 37.91 170.04 37.70 169.63
  Q 37.53 169.29 37.69 169.02
  Q 38.02 168.45 38.09 169.11
  Q 38.10 169.25 38.05 169.42
  A 0.07 0.07 0.0 0 0 38.17 169.48
  C 39.41 167.52 38.63 164.34 37.58 162.50
  Q 37.33 162.05 36.82 162.03
  L 31.03 161.72
  Q 31.05 161.37 31.10 161.22
  Q 31.14 161.12 31.47 161.13
  Q 33.90 161.19 37.36 160.52
  Z" fill-opacity="0.180" fill="#0b1117"></path>
<path d="M 158.08 161.76
  Q 156.56 161.93 155.38 161.51
  Q 157.40 160.48 158.08 161.76
  Z" fill-opacity="0.408" fill="#10305a"></path>
<path d="M 35.37 163.14
  Q 35.19 163.13 35.03 163.02
  Q 34.72 162.80 35.04 162.61
  Q 35.59 162.29 36.28 162.51
  Q 38.48 163.22 37.72 164.95
  Q 37.07 166.44 36.78 164.85
  Q 36.67 164.27 36.19 163.79
  A 1.20 0.16 46.0 0 0 35.37 163.14
  Z" fill-opacity="0.043" fill="#030404"></path>
<path d="M 218.23 171.23
  Q 218.42 172.35 218.99 173.02
  A 1.06 1.03 68.0 0 0 219.85 173.40
  C 221.80 173.29 223.84 173.55 225.66 173.42
  Q 238.77 172.51 252.04 173.42
  Q 251.02 176.92 253.99 176.74
  L 254.80 177.09
  Q 254.64 177.31 254.10 177.43
  Q 253.76 177.51 253.35 177.38
  Q 250.75 176.56 249.88 176.61
  C 240.82 177.12 231.00 177.53 222.00 176.40
  C 219.01 176.03 217.76 174.04 218.23 171.23
  Z" fill-opacity="0.408" fill="#10305a"></path>
<path d="M 36.33 173.11
  Q 35.94 173.74 37.05 173.62
  Q 35.96 173.64 35.27 173.76
  Q 34.52 173.89 35.28 173.90
  L 38.30 173.97
  Q 38.21 174.61 37.75 174.62
  Q 35.18 174.68 33.73 175.05
  Q 32.61 174.69 31.96 175.25
  Q 31.72 175.45 31.50 175.22
  Q 31.35 175.06 31.14 175.18
  Q 30.90 175.31 30.87 175.32
  Q 29.10 175.91 27.26 176.37
  Q 26.67 176.05 26.48 176.20
  L 10.08 176.20
  A 1.02 0.98 -26.0 0 1 9.49 176.01
  Q 9.15 175.76 8.73 175.82
  Q 6.38 176.16 4.01 176.15
  Q 3.63 176.15 3.82 175.83
  Q 3.96 175.60 3.95 175.21
  Q 5.91 175.24 7.51 174.34
  Q 7.89 174.13 8.32 174.13
  L 9.48 174.13
  Q 9.55 174.13 9.48 174.14
  Q 9.09 174.20 8.60 174.04
  Q 8.49 174.01 8.44 173.94
  Q 8.34 173.81 8.39 173.69
  Q 8.44 173.56 8.57 173.55
  L 12.24 173.21
  L 36.33 173.11
  Z" fill-opacity="0.408" fill="#10305a"></path>
<path d="M 12.24 173.21
  L 8.57 173.55
  Q 8.44 173.56 8.39 173.69
  Q 8.34 173.81 8.44 173.94
  Q 8.49 174.01 8.60 174.04
  Q 9.09 174.20 9.48 174.14
  Q 9.55 174.13 9.48 174.13
  L 8.32 174.13
  Q 7.89 174.13 7.51 174.34
  Q 5.91 175.24 3.95 175.21
  L 2.74 175.52
  C 3.40 174.38 4.27 173.47 5.71 173.34
  Q 8.94 173.03 12.24 173.21
  Z" fill-opacity="0.180" fill="#0b1117"></path>
<path d="M 252.04 173.42
  Q 252.64 174.04 252.64 174.88
  Q 252.63 175.37 252.97 175.71
  L 253.99 176.74
  Q 251.02 176.92 252.04 173.42
  Z" fill-opacity="0.180" fill="#0b1117"></path>
<path d="M 33.73 175.05
  L 33.29 175.59
  Q 32.93 176.03 32.40 175.83
  Q 31.91 175.64 31.54 176.03
  Q 31.21 176.38 30.72 176.38
  L 27.26 176.37
  Q 29.10 175.91 30.87 175.32
  Q 30.90 175.31 31.14 175.18
  Q 31.35 175.06 31.50 175.22
  Q 31.72 175.45 31.96 175.25
  Q 32.61 174.69 33.73 175.05
  Z" fill-opacity="0.678" fill="#0e5bac"></path>
<path d="M 3.95 175.21
  Q 3.96 175.60 3.82 175.83
  Q 3.63 176.15 4.01 176.15
  Q 6.38 176.16 8.73 175.82
  Q 9.15 175.76 9.49 176.01
  A 1.02 0.98 -26.0 0 0 10.08 176.20
  L 26.48 176.20
  L 4.44 176.85
  Q 3.90 176.87 3.71 177.38
  Q 2.80 179.89 0.47 181.34
  Q 0.62 178.23 2.74 175.52
  L 3.95 175.21
  Z" fill-opacity="0.678" fill="#0e5bac"></path>
<path d="M 0.30 191.44
  C 0.82 191.74 1.17 192.04 1.35 192.66
  Q 1.86 194.31 3.44 195.99
  Q 1.13 195.29 0.36 192.97
  Q 0.06 192.46 0.30 191.44
  Z" fill-opacity="0.678" fill="#0e5bac"></path>
<path d="M 256.00 191.47
  L 256.00 200.36
  L 255.51 198.01
  Q 255.43 197.64 255.16 197.91
  Q 253.69 199.37 251.25 199.58
  C 252.74 198.98 255.57 198.25 255.36 196.23
  L 256.00 191.47
  Z" fill-opacity="0.043" fill="#030404"></path>
<path d="M 0.36 192.97
  Q 1.13 195.29 3.44 195.99
  L 16.04 197.00
  A 0.38 0.28 -3.6 0 1 16.35 197.20
  Q 16.37 197.24 16.37 197.30
  A 0.11 0.10 -9.5 0 0 16.50 197.39
  Q 17.27 197.20 17.78 197.78
  Q 18.06 198.10 18.49 198.13
  L 26.38 198.76
  Q 16.89 200.26 7.42 198.55
  Q 7.39 198.55 7.38 198.58
  Q 7.26 199.02 7.37 198.63
  Q 7.38 198.60 7.41 198.60
  Q 8.93 198.86 10.46 198.96
  Q 10.70 198.97 10.69 199.21
  L 10.69 199.22
  Q 10.69 199.47 10.44 199.47
  Q 7.14 199.44 4.18 198.01
  C 3.41 197.04 2.83 196.74 1.43 196.18
  Q -0.19 195.52 0.36 192.97
  Z" fill-opacity="0.408" fill="#10305a"></path>
<path d="M 252.51 196.40
  Q 252.74 196.52 252.59 196.84
  Q 252.51 197.02 252.34 197.09
  Q 252.13 197.17 251.94 197.13
  Q 251.91 197.13 252.00 197.13
  L 252.48 197.13
  Q 252.62 197.13 252.60 196.98
  Q 252.57 196.76 252.62 196.68
  A 0.28 0.28 0.0 0 1 253.13 196.84
  Q 253.13 198.35 252.23 198.60
  Q 251.55 198.79 251.25 198.86
  Q 250.98 198.93 250.74 198.74
  Q 250.71 198.72 250.02 198.77
  Q 249.42 198.82 249.27 199.14
  Q 249.08 199.52 248.65 199.53
  L 243.66 199.61
  L 232.83 199.68
  Q 227.99 199.97 224.34 198.20
  C 233.16 194.69 241.92 195.97 252.51 196.40
  Z" fill-opacity="0.408" fill="#10305a"></path>
<path d="M 255.36 196.23
  C 255.57 198.25 252.74 198.98 251.25 199.58
  Q 247.63 200.25 243.66 199.61
  L 248.65 199.53
  Q 249.08 199.52 249.27 199.14
  Q 249.42 198.82 250.02 198.77
  Q 250.71 198.72 250.74 198.74
  Q 250.98 198.93 251.25 198.86
  Q 251.55 198.79 252.23 198.60
  Q 253.13 198.35 253.13 196.84
  A 0.28 0.28 0.0 0 0 252.62 196.68
  Q 252.57 196.76 252.60 196.98
  Q 252.62 197.13 252.48 197.13
  L 252.00 197.13
  Q 251.91 197.13 251.94 197.13
  Q 252.13 197.17 252.34 197.09
  Q 252.51 197.02 252.59 196.84
  Q 252.74 196.52 252.51 196.40
  Q 254.31 195.34 255.36 196.23
  Z" fill-opacity="0.180" fill="#0b1117"></path>
<path d="M 0.00 195.85
  Q 1.60 196.69 1.84 198.70
  Q 1.90 199.16 2.34 199.30
  Q 4.40 199.95 4.70 201.94
  Q 4.77 202.38 5.22 202.36
  Q 6.55 202.29 7.63 203.14
  Q 7.97 203.41 8.41 203.48
  C 9.92 203.75 12.46 203.53 12.14 205.98
  Q 12.08 206.46 12.56 206.39
  Q 14.23 206.16 15.74 206.90
  Q 16.15 207.11 16.61 207.11
  Q 24.56 207.14 32.51 207.21
  C 34.88 207.23 36.06 205.00 35.41 202.79
  Q 35.29 202.39 35.62 202.13
  Q 36.09 201.76 36.06 200.31
  A 0.73 0.72 5.9 0 1 36.95 199.59
  Q 37.12 199.63 37.25 199.62
  A 0.49 0.27 -56.7 0 1 37.20 200.35
  Q 36.62 200.91 36.89 201.94
  Q 37.01 202.40 36.81 202.83
  Q 36.06 204.42 35.91 206.18
  Q 35.86 206.66 35.43 206.88
  Q 34.49 207.37 34.23 208.36
  Q 34.12 208.77 33.85 209.10
  C 32.01 211.34 28.81 210.53 26.35 210.37
  Q 24.16 210.24 21.63 210.50
  Q 14.73 211.24 7.80 210.55
  Q 7.32 210.50 6.90 210.24
  Q 6.02 209.71 4.95 209.90
  Q 4.66 209.95 4.23 209.24
  Q 4.09 209.01 4.36 208.57
  A 0.68 0.67 34.8 0 0 4.20 207.69
  Q 2.72 206.55 1.01 207.13
  Q 0.42 207.33 0.40 206.72
  Q 0.36 205.87 0.00 205.62
  L 0.00 195.85
  Z" fill-opacity="0.043" fill="#030404"></path>
<path d="M 4.18 198.01
  Q 7.14 199.44 10.44 199.47
  Q 10.69 199.47 10.69 199.22
  L 10.69 199.21
  Q 10.70 198.97 10.46 198.96
  Q 8.93 198.86 7.41 198.60
  Q 7.38 198.60 7.37 198.63
  Q 7.26 199.02 7.38 198.58
  Q 7.39 198.55 7.42 198.55
  Q 16.89 200.26 26.38 198.76
  Q 31.66 197.73 37.15 198.44
  A 1.77 1.77 0.0 0 1 38.69 200.17
  L 38.74 205.36
  L 37.82 199.84
  Q 37.73 199.28 37.16 199.29
  L 27.39 199.53
  Q 27.04 199.54 26.92 199.86
  Q 26.83 200.09 26.72 200.30
  Q 26.63 200.47 26.43 200.47
  L 5.09 200.08
  Q 4.48 200.07 4.20 199.54
  Q 2.55 196.40 4.18 198.01
  Z" fill-opacity="0.180" fill="#0b1117"></path>
<path d="M 256.00 200.36
  L 256.00 202.36
  L 255.56 206.31
  Q 255.49 206.91 254.89 206.92
  L 230.83 207.31
  Q 230.31 207.32 230.08 207.78
  Q 229.64 208.63 229.97 209.61
  Q 230.14 210.11 229.73 210.43
  Q 228.46 211.46 226.73 211.06
  A 0.31 0.31 0.0 0 0 226.36 211.39
  Q 226.58 213.74 225.31 215.77
  Q 225.02 216.22 225.13 216.75
  Q 225.33 217.75 224.26 217.81
  Q 221.58 217.96 222.17 220.89
  A 1.04 1.04 0.0 0 1 221.05 222.13
  Q 219.70 221.99 218.43 222.50
  Q 217.86 222.72 217.86 223.33
  L 217.86 224.33
  A 0.78 0.74 69.1 0 1 217.63 224.88
  Q 217.24 225.23 216.66 225.13
  Q 216.12 225.04 215.66 225.36
  Q 213.90 226.62 211.72 226.20
  A 0.51 0.50 -88.0 0 0 211.12 226.77
  Q 211.31 228.12 210.92 229.38
  Q 210.74 229.98 210.13 230.09
  L 208.13 230.45
  Q 207.62 230.54 207.58 231.06
  Q 206.96 238.78 207.34 246.50
  Q 207.41 247.91 206.71 249.09
  Q 206.51 249.44 206.59 249.84
  Q 206.79 250.73 206.03 251.19
  Q 205.79 251.34 205.62 251.57
  Q 204.92 252.55 203.74 252.85
  Q 203.27 252.97 203.08 253.42
  C 201.91 256.14 199.47 254.49 197.50 256.00
  L 192.08 256.00
  L 195.67 255.34
  Q 197.51 255.33 198.94 253.60
  Q 199.24 253.24 199.22 252.77
  L 198.55 238.17
  L 198.74 233.58
  Q 199.85 232.09 199.62 230.75
  Q 198.80 225.86 198.69 223.18
  C 198.16 220.09 201.16 218.64 203.86 218.48
  C 215.17 217.80 217.87 212.45 218.45 202.11
  L 220.23 199.90
  A 0.94 0.94 0.0 0 1 220.99 199.54
  L 232.83 199.68
  L 243.66 199.61
  Q 247.63 200.25 251.25 199.58
  Q 253.69 199.37 255.16 197.91
  Q 255.43 197.64 255.51 198.01
  L 256.00 200.36
  Z" fill-opacity="0.086" fill="#06080a"></path>
<path d="M 224.34 198.20
  Q 227.99 199.97 232.83 199.68
  L 220.99 199.54
  A 0.94 0.94 0.0 0 0 220.23 199.90
  L 218.45 202.11
  Q 218.80 200.52 218.63 199.31
  A 0.83 0.82 -5.0 0 1 219.43 198.37
  L 224.34 198.20
  Z" fill-opacity="0.180" fill="#0b1117"></path>
<path d="M 33.65 200.08
  Q 32.43 200.22 31.22 200.02
  A 0.27 0.27 0.0 0 1 31.27 199.48
  L 35.68 199.50
  Q 35.87 199.50 35.87 199.69
  L 35.87 200.47
  Q 35.87 200.82 35.53 200.87
  Q 34.81 200.98 34.41 200.42
  A 0.83 0.83 0.0 0 0 33.65 200.08
  Z" fill-opacity="0.043" fill="#030404"></path>
<path d="M 96.43 218.47
  Q 96.73 220.98 96.14 223.55
  Q 95.95 224.39 95.00 225.65
  Q 94.13 226.81 94.13 228.00
  Q 94.11 237.50 94.08 247.01
  Q 94.08 249.20 96.06 249.17
  A 0.58 0.57 84.0 0 1 96.63 249.64
  L 97.72 255.47
  L 101.70 255.68
  Q 103.97 255.50 105.77 256.00
  L 74.86 256.00
  L 79.05 255.63
  Q 79.16 255.51 79.27 255.39
  Q 81.84 256.48 82.62 254.25
  Q 83.92 250.57 82.82 245.41
  L 82.56 223.02
  Q 81.95 220.97 82.21 218.55
  Q 82.26 218.01 82.81 218.02
  L 96.43 218.47
  Z" fill-opacity="0.086" fill="#06080a"></path>
<path d="M 169.66 218.24
  Q 167.37 219.15 165.18 218.78
  Q 164.98 218.75 164.87 218.64
  Q 164.72 218.49 164.70 218.32
  Q 167.15 217.85 169.66 218.24
  Z" fill-opacity="0.180" fill="#0b1117"></path>
<path d="M 164.70 218.32
  Q 164.72 218.49 164.87 218.64
  Q 164.98 218.75 165.18 218.78
  Q 167.37 219.15 169.66 218.24
  L 173.53 218.85
  Q 174.11 218.94 174.13 219.53
  L 174.26 223.85
  L 173.09 233.88
  Q 172.00 236.12 173.15 238.99
  L 173.29 251.23
  Q 173.31 253.21 174.98 253.95
  Q 175.36 254.12 175.45 254.54
  Q 175.69 255.71 176.69 255.54
  Q 176.93 256.01 177.49 255.79
  Q 177.50 255.90 177.50 256.00
  L 149.61 256.00
  L 159.31 254.94
  Q 160.32 254.39 160.62 253.25
  Q 160.96 251.97 159.70 251.85
  Q 159.77 251.57 159.69 251.26
  L 160.00 251.66
  Q 160.24 251.96 160.35 251.59
  Q 160.44 251.29 160.29 251.06
  Q 160.10 250.77 160.22 250.45
  C 161.08 248.19 159.92 246.51 161.62 244.55
  Q 161.96 244.15 161.92 243.63
  Q 161.67 240.53 162.38 237.53
  C 162.95 235.11 162.92 233.40 162.86 231.10
  Q 162.84 230.60 162.49 230.24
  L 161.85 229.61
  A 1.36 1.35 -70.6 0 1 161.46 228.79
  C 161.10 225.73 160.09 222.47 161.46 219.59
  Q 161.67 219.15 162.15 219.08
  Q 162.90 218.96 163.58 218.57
  Q 163.98 218.29 164.70 218.32
  Z
  M 168.67 219.73
  C 169.82 220.84 170.78 222.94 171.22 224.45
  Q 171.34 224.87 171.78 224.87
  L 172.25 224.87
  A 0.37 0.37 0.0 0 0 172.62 224.50
  L 172.62 220.73
  A 0.96 0.92 -75.0 0 0 172.17 219.92
  Q 170.64 218.97 168.75 219.45
  Q 168.46 219.52 168.67 219.73
  Z" fill-opacity="0.086" fill="#06080a"></path>
<path d="M 96.43 218.47
  Q 98.05 222.90 98.01 227.50
  Q 97.90 239.78 98.00 252.31
  Q 98.46 253.76 97.72 255.47
  L 96.63 249.64
  A 0.58 0.57 84.0 0 0 96.06 249.17
  Q 94.08 249.20 94.08 247.01
  Q 94.11 237.50 94.13 228.00
  Q 94.13 226.81 95.00 225.65
  Q 95.95 224.39 96.14 223.55
  Q 96.73 220.98 96.43 218.47
  Z" fill-opacity="0.180" fill="#0b1117"></path>
<path d="M 163.58 218.57
  Q 162.90 218.96 162.15 219.08
  Q 161.67 219.15 161.46 219.59
  C 160.09 222.47 161.10 225.73 161.46 228.79
  A 1.36 1.35 -70.6 0 0 161.85 229.61
  L 162.49 230.24
  Q 162.84 230.60 162.86 231.10
  C 162.92 233.40 162.95 235.11 162.38 237.53
  Q 161.67 240.53 161.92 243.63
  Q 161.96 244.15 161.62 244.55
  C 159.92 246.51 161.08 248.19 160.22 250.45
  Q 160.10 250.77 160.29 251.06
  Q 160.44 251.29 160.35 251.59
  Q 160.24 251.96 160.00 251.66
  L 159.69 251.26
  L 159.66 245.96
  A 1.14 1.14 0.0 0 1 160.05 245.10
  C 161.59 243.72 161.47 240.42 161.37 237.91
  Q 161.37 237.88 161.40 237.88
  Q 161.41 237.88 161.42 237.88
  Q 161.43 237.88 161.43 237.90
  Q 161.19 240.72 160.80 243.52
  Q 160.73 244.03 160.44 244.36
  Q 160.27 244.54 160.09 244.70
  Q 159.68 245.08 159.73 244.53
  L 160.42 236.61
  Q 160.49 236.46 160.56 236.30
  Q 161.31 235.96 161.31 235.45
  C 161.34 232.66 161.91 231.04 159.83 229.41
  Q 158.95 224.42 160.22 219.34
  Q 160.34 218.89 160.79 218.77
  Q 162.18 218.42 163.58 218.57
  Z" fill-opacity="0.180" fill="#0b1117"></path>
<path d="M 41.72 219.10
  L 46.02 220.37
  A 2.05 2.02 48.4 0 0 46.91 220.43
  Q 49.21 220.05 51.29 221.09
  A 0.83 0.83 0.0 0 1 51.77 221.86
  Q 51.75 222.57 52.27 222.98
  A 2.12 2.08 66.7 0 1 50.81 226.74
  Q 49.47 226.59 48.44 226.26
  Q 47.95 226.10 47.45 226.13
  Q 46.41 226.20 45.45 225.82
  A 0.91 0.89 11.3 0 1 44.88 224.99
  L 44.88 222.97
  A 0.62 0.62 0.0 0 0 44.16 222.36
  Q 42.87 222.58 41.72 221.97
  Q 41.13 221.66 41.13 220.99
  L 41.13 219.54
  A 0.46 0.46 0.0 0 1 41.72 219.10
  Z" fill-opacity="0.043" fill="#030404"></path>
<path d="M 82.56 223.02
  L 82.82 245.41
  L 82.70 247.67
  L 80.24 249.24
  Q 79.84 245.03 79.87 240.80
  C 79.87 240.13 79.40 239.59 79.40 238.97
  Q 79.38 233.18 79.48 227.39
  Q 79.50 226.41 80.19 226.29
  Q 80.63 226.22 80.80 225.80
  Q 81.46 224.13 82.56 223.02
  Z" fill-opacity="0.678" fill="#0e5bac"></path>
<path d="M 198.69 223.18
  Q 198.80 225.86 199.62 230.75
  Q 199.85 232.09 198.74 233.58
  L 198.69 223.18
  Z" fill-opacity="0.180" fill="#0b1117"></path>
<path d="M 174.26 223.85
  L 176.13 226.92
  Q 175.35 228.90 176.58 229.99
  Q 177.01 240.48 176.97 251.05
  C 176.97 252.54 177.52 254.14 177.49 255.79
  Q 176.93 256.01 176.69 255.54
  Q 176.92 254.47 176.57 253.15
  Q 176.56 253.12 176.58 253.12
  Q 176.58 253.12 176.59 253.12
  Q 176.60 253.12 176.61 253.15
  Q 176.78 253.84 176.51 254.44
  Q 176.22 255.07 176.19 254.38
  L 176.08 252.45
  Q 176.05 251.87 175.47 251.90
  Q 174.07 251.96 173.29 251.23
  L 173.15 238.99
  L 173.09 233.88
  L 174.26 223.85
  Z" fill-opacity="0.408" fill="#10305a"></path>
<path d="M 59.06 225.52
  L 59.28 232.70
  Q 58.82 232.63 58.90 233.66
  C 58.42 237.09 57.93 240.22 57.11 243.69
  Q 55.95 248.62 59.17 252.89
  Q 59.79 252.82 60.13 253.53
  Q 60.57 254.65 60.42 255.74
  Q 59.72 255.95 59.24 254.07
  Q 59.13 253.61 58.74 253.34
  Q 57.84 252.71 57.09 252.05
  C 54.78 250.00 56.10 241.59 56.98 238.96
  Q 57.53 237.30 57.64 235.42
  C 57.79 233.06 58.55 231.16 58.56 228.68
  Q 58.57 227.06 59.06 225.52
  Z" fill-opacity="0.086" fill="#06080a"></path>
<path d="M 176.13 226.92
  Q 176.75 228.19 176.58 229.99
  Q 175.35 228.90 176.13 226.92
  Z" fill-opacity="0.678" fill="#0e5bac"></path>
<path d="M 159.83 229.41
  C 161.91 231.04 161.34 232.66 161.31 235.45
  Q 161.31 235.96 160.56 236.30
  Q 160.43 235.72 160.81 235.45
  Q 161.11 232.62 159.83 229.41
  Z" fill-opacity="0.408" fill="#10305a"></path>
<path d="M 59.28 232.70
  C 60.55 238.79 60.27 244.82 60.13 253.53
  Q 59.79 252.82 59.17 252.89
  C 59.28 250.30 58.03 246.23 59.34 244.16
  Q 59.61 243.74 59.57 243.24
  L 58.90 233.66
  Q 58.82 232.63 59.28 232.70
  Z" fill-opacity="0.408" fill="#10305a"></path>
<path d="M 160.81 235.45
  Q 160.43 235.72 160.56 236.30
  Q 160.49 236.46 160.42 236.61
  Q 159.77 234.94 160.25 233.42
  Q 160.50 232.66 160.73 233.43
  Q 160.99 234.26 160.81 235.45
  Z" fill-opacity="0.678" fill="#0e5bac"></path>
<path d="M 58.90 233.66
  L 59.57 243.24
  Q 59.61 243.74 59.34 244.16
  C 58.03 246.23 59.28 250.30 59.17 252.89
  Q 55.95 248.62 57.11 243.69
  C 57.93 240.22 58.42 237.09 58.90 233.66
  Z" fill-opacity="0.180" fill="#0b1117"></path>
<path d="M 173.09 233.88
  L 173.15 238.99
  Q 172.00 236.12 173.09 233.88
  Z" fill-opacity="0.180" fill="#0b1117"></path>
<path d="M 198.55 238.17
  L 199.22 252.77
  Q 199.24 253.24 198.94 253.60
  Q 197.51 255.33 195.67 255.34
  Q 197.26 254.18 196.97 253.54
  Q 198.33 252.57 197.86 249.74
  L 198.55 238.17
  Z" fill-opacity="0.180" fill="#0b1117"></path>
<path d="M 82.82 245.41
  Q 83.92 250.57 82.62 254.25
  Q 81.84 256.48 79.27 255.39
  Q 79.35 253.63 81.13 253.00
  Q 81.61 252.83 81.85 252.39
  Q 82.99 250.24 82.70 247.67
  L 82.82 245.41
  Z" fill-opacity="0.180" fill="#0b1117"></path>
<path d="M 82.70 247.67
  Q 82.99 250.24 81.85 252.39
  Q 81.61 252.83 81.13 253.00
  Q 79.35 253.63 79.27 255.39
  Q 79.16 255.51 79.05 255.63
  Q 78.34 253.13 79.72 251.74
  Q 79.99 251.91 80.36 251.82
  Q 80.90 251.68 81.03 251.14
  L 81.30 250.00
  Q 81.43 249.46 80.98 249.78
  Q 80.72 249.95 80.64 250.26
  Q 80.44 251.03 80.40 250.07
  Q 80.37 249.59 80.24 249.24
  L 82.70 247.67
  Z" fill-opacity="0.408" fill="#10305a"></path>
<path d="M 80.24 249.24
  Q 80.37 249.59 80.40 250.07
  Q 80.44 251.03 80.64 250.26
  Q 80.72 249.95 80.98 249.78
  Q 81.43 249.46 81.30 250.00
  L 81.03 251.14
  Q 80.90 251.68 80.36 251.82
  Q 79.99 251.91 79.72 251.74
  Q 79.34 250.15 80.24 249.24
  Z" fill-opacity="0.678" fill="#0e5bac"></path>
<path d="M 129.01 254.55
  Q 129.13 252.77 127.80 252.65
  Q 126.81 252.33 126.59 251.83
  Q 126.43 251.45 126.01 251.39
  Q 125.85 251.37 125.70 251.38
  A 0.01 0.01 0.0 0 1 125.70 251.36
  Q 126.01 251.31 126.31 251.55
  A 0.46 0.46 0.0 0 1 126.00 252.37
  Q 125.44 252.34 125.38 253.00
  A 0.41 0.41 0.0 0 1 124.61 253.15
  Q 124.22 252.39 124.39 251.49
  Q 124.53 250.81 125.21 250.91
  Q 125.79 251.00 125.94 250.35
  Q 126.05 249.88 126.53 249.88
  L 127.03 249.88
  Q 127.67 249.88 127.63 250.52
  Q 127.57 251.30 128.16 251.65
  A 0.64 0.60 -1.8 0 1 128.33 251.80
  Q 129.90 253.64 129.01 254.55
  Z" fill-opacity="0.086" fill="#06080a"></path>
<path d="M 197.86 249.74
  Q 198.33 252.57 196.97 253.54
  Q 196.71 253.85 196.45 253.88
  Q 195.92 253.95 196.15 253.47
  L 197.86 249.74
  Z" fill-opacity="0.678" fill="#0e5bac"></path>
<path d="M 173.29 251.23
  Q 174.07 251.96 175.47 251.90
  Q 176.05 251.87 176.08 252.45
  L 176.19 254.38
  Q 176.22 255.07 176.51 254.44
  Q 176.78 253.84 176.61 253.15
  Q 176.60 253.12 176.59 253.12
  Q 176.58 253.12 176.58 253.12
  Q 176.56 253.12 176.57 253.15
  Q 176.92 254.47 176.69 255.54
  Q 175.69 255.71 175.45 254.54
  Q 175.36 254.12 174.98 253.95
  Q 173.31 253.21 173.29 251.23
  Z" fill-opacity="0.180" fill="#0b1117"></path>
<path d="M 159.70 251.85
  Q 160.96 251.97 160.62 253.25
  Q 160.32 254.39 159.31 254.94
  Q 159.26 253.00 159.70 251.85
  Z" fill-opacity="0.180" fill="#0b1117"></path>
<path d="M 98.00 252.31
  Q 101.55 252.24 101.70 255.68
  L 97.72 255.47
  Q 98.46 253.76 98.00 252.31
  Z" fill-opacity="0.408" fill="#10305a"></path>
<path d="M 127.80 252.65
  Q 129.13 252.77 129.01 254.55
  Q 128.44 255.25 127.30 254.17
  A 0.80 0.80 0.0 0 1 127.38 252.95
  L 127.80 252.65
  Z" fill-opacity="0.180" fill="#0b1117"></path>
<path d="M 183.04 256.00
  L 177.82 256.00
  Q 180.32 255.38 183.04 256.00
  Z" fill-opacity="0.043" fill="#030404"></path>
</svg>
