<svg viewBox="0.00 0.00 180.00 180.00" version="1.1" xmlns="http://www.w3.org/2000/svg">
<g stroke-linecap="butt" fill="none" stroke-width="2.00">
<path d="M 90.52 106.49
  C 101.88 126.19 126.72 129.98 143.59 114.83
  C 154.92 104.64 154.89 90.42 145.38 78.93
  Q 142.66 75.65 144.28 79.59
  Q 150.86 95.63 139.63 107.65
  C 119.51 129.19 84.64 106.76 95.96 79.75
  C 100.10 69.86 106.91 66.45 117.65 63.17
  Q 142.06 55.72 166.74 48.41
  A 7.47 7.46 1.3 0 0 171.65 43.73
  L 172.34 41.74
  Q 173.58 38.20 169.99 39.28
  L 90.69 63.20
  A 2.04 1.99 44.2 0 1 89.48 63.20
  L 10.23 39.30
  Q 6.54 38.18 7.89 41.80
  L 8.64 43.81
  Q 9.97 47.39 13.63 48.48
  Q 38.61 55.90 63.25 63.41
  Q 71.52 65.93 75.10 68.47
  C 88.82 78.20 89.98 98.52 77.31 109.62
  C 56.02 128.25 24.29 104.94 36.00 79.29
  Q 37.30 76.42 35.13 78.70
  C 28.90 85.21 24.90 97.61 29.83 106.17
  C 42.69 128.48 72.64 130.63 87.73 109.28
  Q 88.76 107.83 89.87 106.44
  Q 90.23 105.99 90.52 106.49" stroke="#b4b4fb"></path>
<path d="M 47.75 74.03
  A 0.33 0.33 0.0 0 1 47.87 74.60
  C 37.95 82.95 37.74 98.30 48.63 105.78
  C 64.05 116.36 84.10 101.65 78.16 84.07
  Q 74.98 74.66 64.93 71.50
  Q 44.24 64.99 25.11 59.05
  Q 21.41 57.91 22.66 61.57
  L 23.35 63.56
  Q 24.58 67.16 28.23 68.25
  L 47.75 74.03" stroke="#b4b4fb"></path>
<path d="M 132.23 73.93
  L 151.68 68.15
  A 7.54 7.53 -88.7 0 0 156.64 63.41
  L 157.31 61.47
  Q 158.58 57.82 154.89 58.96
  Q 135.81 64.87 115.35 71.09
  C 103.94 74.56 97.52 86.76 102.60 97.97
  C 106.12 105.73 114.29 110.27 122.71 109.14
  C 139.91 106.85 145.25 85.42 132.11 74.53
  A 0.35 0.34 56.7 0 1 132.23 73.93" stroke="#b4b4fb"></path>
<path d="M 97.94 126.95
  Q 93.56 124.75 90.34 121.03
  Q 90.01 120.65 89.71 121.05
  C 87.68 123.71 85.17 125.11 82.55 126.87
  Q 82.09 127.17 82.36 127.65
  L 89.75 140.99
  Q 90.10 141.62 90.45 141.00
  L 98.04 127.27
  Q 98.16 127.06 97.94 126.95" stroke="#b4b4fb"></path>
<path d="M 68.51 85.98
  C 64.55 93.50 56.50 84.32 62.25 81.20
  Q 63.42 80.57 62.11 80.31
  C 49.80 77.95 45.11 95.10 56.75 99.51
  C 61.40 101.27 66.77 98.62 68.85 94.28
  Q 70.66 90.50 69.04 86.01
  Q 68.81 85.40 68.51 85.98" stroke="#b4b4fb"></path>
<path d="M 128.77 86.02
  C 125.29 93.18 116.70 84.88 122.66 81.12
  Q 123.53 80.58 122.53 80.35
  C 110.84 77.71 105.56 94.36 116.04 98.94
  C 124.28 102.54 133.02 94.73 129.24 86.03
  Q 129.01 85.51 128.77 86.02" stroke="#b4b4fb"></path>
</g>
<path d="M 0.00 0.00
  L 180.00 0.00
  L 180.00 180.00
  L 0.00 180.00
  L 0.00 0.00
  Z
  M 90.52 106.49
  C 101.88 126.19 126.72 129.98 143.59 114.83
  C 154.92 104.64 154.89 90.42 145.38 78.93
  Q 142.66 75.65 144.28 79.59
  Q 150.86 95.63 139.63 107.65
  C 119.51 129.19 84.64 106.76 95.96 79.75
  C 100.10 69.86 106.91 66.45 117.65 63.17
  Q 142.06 55.72 166.74 48.41
  A 7.47 7.46 1.3 0 0 171.65 43.73
  L 172.34 41.74
  Q 173.58 38.20 169.99 39.28
  L 90.69 63.20
  A 2.04 1.99 44.2 0 1 89.48 63.20
  L 10.23 39.30
  Q 6.54 38.18 7.89 41.80
  L 8.64 43.81
  Q 9.97 47.39 13.63 48.48
  Q 38.61 55.90 63.25 63.41
  Q 71.52 65.93 75.10 68.47
  C 88.82 78.20 89.98 98.52 77.31 109.62
  C 56.02 128.25 24.29 104.94 36.00 79.29
  Q 37.30 76.42 35.13 78.70
  C 28.90 85.21 24.90 97.61 29.83 106.17
  C 42.69 128.48 72.64 130.63 87.73 109.28
  Q 88.76 107.83 89.87 106.44
  Q 90.23 105.99 90.52 106.49
  Z
  M 47.75 74.03
  A 0.33 0.33 0.0 0 1 47.87 74.60
  C 37.95 82.95 37.74 98.30 48.63 105.78
  C 64.05 116.36 84.10 101.65 78.16 84.07
  Q 74.98 74.66 64.93 71.50
  Q 44.24 64.99 25.11 59.05
  Q 21.41 57.91 22.66 61.57
  L 23.35 63.56
  Q 24.58 67.16 28.23 68.25
  L 47.75 74.03
  Z
  M 132.23 73.93
  L 151.68 68.15
  A 7.54 7.53 -88.7 0 0 156.64 63.41
  L 157.31 61.47
  Q 158.58 57.82 154.89 58.96
  Q 135.81 64.87 115.35 71.09
  C 103.94 74.56 97.52 86.76 102.60 97.97
  C 106.12 105.73 114.29 110.27 122.71 109.14
  C 139.91 106.85 145.25 85.42 132.11 74.53
  A 0.35 0.34 56.7 0 1 132.23 73.93
  Z
  M 97.94 126.95
  Q 93.56 124.75 90.34 121.03
  Q 90.01 120.65 89.71 121.05
  C 87.68 123.71 85.17 125.11 82.55 126.87
  Q 82.09 127.17 82.36 127.65
  L 89.75 140.99
  Q 90.10 141.62 90.45 141.00
  L 98.04 127.27
  Q 98.16 127.06 97.94 126.95
  Z" fill="#6968f7"></path>
<path d="M 89.87 106.44
  Q 88.76 107.83 87.73 109.28
  C 72.64 130.63 42.69 128.48 29.83 106.17
  C 24.90 97.61 28.90 85.21 35.13 78.70
  Q 37.30 76.42 36.00 79.29
  C 24.29 104.94 56.02 128.25 77.31 109.62
  C 89.98 98.52 88.82 78.20 75.10 68.47
  Q 71.52 65.93 63.25 63.41
  Q 38.61 55.90 13.63 48.48
  Q 9.97 47.39 8.64 43.81
  L 7.89 41.80
  Q 6.54 38.18 10.23 39.30
  L 89.48 63.20
  A 2.04 1.99 44.2 0 0 90.69 63.20
  L 169.99 39.28
  Q 173.58 38.20 172.34 41.74
  L 171.65 43.73
  A 7.47 7.46 1.3 0 1 166.74 48.41
  Q 142.06 55.72 117.65 63.17
  C 106.91 66.45 100.10 69.86 95.96 79.75
  C 84.64 106.76 119.51 129.19 139.63 107.65
  Q 150.86 95.63 144.28 79.59
  Q 142.66 75.65 145.38 78.93
  C 154.89 90.42 154.92 104.64 143.59 114.83
  C 126.72 129.98 101.88 126.19 90.52 106.49
  Q 90.23 105.99 89.87 106.44
  Z" fill="#ffffff"></path>
<path d="M 47.75 74.03
  L 28.23 68.25
  Q 24.58 67.16 23.35 63.56
  L 22.66 61.57
  Q 21.41 57.91 25.11 59.05
  Q 44.24 64.99 64.93 71.50
  Q 74.98 74.66 78.16 84.07
  C 84.10 101.65 64.05 116.36 48.63 105.78
  C 37.74 98.30 37.95 82.95 47.87 74.60
  A 0.33 0.33 0.0 0 0 47.75 74.03
  Z
  M 68.51 85.98
  C 64.55 93.50 56.50 84.32 62.25 81.20
  Q 63.42 80.57 62.11 80.31
  C 49.80 77.95 45.11 95.10 56.75 99.51
  C 61.40 101.27 66.77 98.62 68.85 94.28
  Q 70.66 90.50 69.04 86.01
  Q 68.81 85.40 68.51 85.98
  Z" fill="#ffffff"></path>
<path d="M 132.23 73.93
  A 0.35 0.34 56.7 0 0 132.11 74.53
  C 145.25 85.42 139.91 106.85 122.71 109.14
  C 114.29 110.27 106.12 105.73 102.60 97.97
  C 97.52 86.76 103.94 74.56 115.35 71.09
  Q 135.81 64.87 154.89 58.96
  Q 158.58 57.82 157.31 61.47
  L 156.64 63.41
  A 7.54 7.53 -88.7 0 1 151.68 68.15
  L 132.23 73.93
  Z
  M 128.77 86.02
  C 125.29 93.18 116.70 84.88 122.66 81.12
  Q 123.53 80.58 122.53 80.35
  C 110.84 77.71 105.56 94.36 116.04 98.94
  C 124.28 102.54 133.02 94.73 129.24 86.03
  Q 129.01 85.51 128.77 86.02
  Z" fill="#ffffff"></path>
<path d="M 62.25 81.20
  C 56.50 84.32 64.55 93.50 68.51 85.98
  Q 68.81 85.40 69.04 86.01
  Q 70.66 90.50 68.85 94.28
  C 66.77 98.62 61.40 101.27 56.75 99.51
  C 45.11 95.10 49.80 77.95 62.11 80.31
  Q 63.42 80.57 62.25 81.20
  Z" fill="#6968f7"></path>
<path d="M 122.66 81.12
  C 116.70 84.88 125.29 93.18 128.77 86.02
  Q 129.01 85.51 129.24 86.03
  C 133.02 94.73 124.28 102.54 116.04 98.94
  C 105.56 94.36 110.84 77.71 122.53 80.35
  Q 123.53 80.58 122.66 81.12
  Z" fill="#6968f7"></path>
<path d="M 97.94 126.95
  Q 98.16 127.06 98.04 127.27
  L 90.45 141.00
  Q 90.10 141.62 89.75 140.99
  L 82.36 127.65
  Q 82.09 127.17 82.55 126.87
  C 85.17 125.11 87.68 123.71 89.71 121.05
  Q 90.01 120.65 90.34 121.03
  Q 93.56 124.75 97.94 126.95
  Z" fill="#ffffff"></path>
</svg>
