<svg viewBox="0.00 0.00 512.00 512.00" version="1.1" xmlns="http://www.w3.org/2000/svg">
<path d="M 478.55 122.90
  L 257.68 236.50
  A 0.34 0.34 0.0 0 1 257.36 236.50
  L 38.84 122.90
  A 0.34 0.34 0.0 0 1 38.84 122.30
  L 257.36 9.10
  A 0.34 0.34 0.0 0 1 257.68 9.10
  L 478.55 122.30
  A 0.34 0.34 0.0 0 1 478.55 122.90
  Z" fill="#231f20"></path>
<path d="M 408.82 222.43
  L 478.58 256.40
  A 0.31 0.31 0.0 0 1 478.58 256.96
  L 257.66 364.51
  A 0.31 0.31 0.0 0 1 257.38 364.51
  L 38.82 256.97
  A 0.31 0.31 0.0 0 1 38.82 256.41
  L 107.79 222.42
  A 0.31 0.31 0.0 0 1 108.07 222.42
  L 257.38 295.85
  A 0.31 0.31 0.0 0 0 257.66 295.85
  L 408.54 222.43
  A 0.31 0.31 0.0 0 1 408.82 222.43
  Z" fill="#231f20"></path>
<path d="M 257.66 431.39
  L 408.54 350.43
  A 0.30 0.30 0.0 0 1 408.82 350.43
  L 478.65 387.76
  A 0.30 0.30 0.0 0 1 478.65 388.28
  L 257.66 506.72
  A 0.30 0.30 0.0 0 1 257.38 506.72
  L 38.74 388.27
  A 0.30 0.30 0.0 0 1 38.74 387.75
  L 107.78 350.44
  A 0.30 0.30 0.0 0 1 108.06 350.44
  L 257.38 431.39
  A 0.30 0.30 0.0 0 0 257.66 431.39
  Z" fill="#231f20"></path>
</svg>
