<svg viewBox="0.00 0.00 256.00 256.00" version="1.1" xmlns="http://www.w3.org/2000/svg">
<g stroke-linecap="butt" fill="none" stroke-width="2.00">
<path d="M 126.78 6.31
  C 127.07 7.02 127.20 7.49 126.75 8.19
  Q 105.97 40.73 85.34 73.08" stroke="#6722fc"></path>
<path d="M 85.34 73.08
  Q 85.22 72.91 85.13 72.73
  Q 67.56 40.40 49.90 8.11
  Q 49.37 7.15 48.41 6.93" stroke="#854dff"></path>
<path d="M 128.51 6.27
  C 128.62 6.76 128.59 7.14 128.86 7.56
  Q 149.35 39.63 169.70 71.79
  Q 169.92 72.15 170.11 72.51" stroke="#7538fb"></path>
<path d="M 170.11 72.51
  L 169.79 73.12" stroke="#6722fc"></path>
<path d="M 169.79 73.12
  L 85.92 73.13
  A 0.45 0.44 82.9 0 0 85.49 73.69
  Q 106.17 159.24 126.80 244.74
  Q 127.29 246.77 127.70 247.79
  Q 127.87 248.21 128.17 248.33
  Q 128.54 248.47 128.96 248.30" stroke="#7538fb"></path>
<path d="M 0.01 73.08
  L 85.34 73.08" stroke="#7538fb"></path>
<path d="M 207.11 6.25
  L 171.14 72.20" stroke="#7538fb"></path>
<path d="M 171.14 72.20
  Q 170.90 72.91 170.11 72.51" stroke="#854dff"></path>
<path d="M 129.33 247.86
  C 129.22 246.47 129.19 244.94 129.53 243.54
  Q 149.91 158.88 170.33 74.23
  Q 170.59 73.18 169.79 73.12" stroke="#854dff"></path>
<path d="M 255.68 73.06
  Q 213.59 73.05 171.50 73.12
  Q 170.95 73.12 171.14 72.20" stroke="#6722fc"></path>
</g>
<path d="M 126.78 6.31
  C 127.07 7.02 127.20 7.49 126.75 8.19
  Q 105.97 40.73 85.34 73.08
  Q 85.22 72.91 85.13 72.73
  Q 67.56 40.40 49.90 8.11
  Q 49.37 7.15 48.41 6.93
  Q 48.53 6.64 48.78 6.47
  Q 48.97 6.33 49.32 6.33
  Q 88.06 6.20 126.78 6.31
  Z" fill="#7637ff"></path>
<path d="M 126.78 6.31
  L 128.51 6.27
  C 128.62 6.76 128.59 7.14 128.86 7.56
  Q 149.35 39.63 169.70 71.79
  Q 169.92 72.15 170.11 72.51
  L 169.79 73.12
  L 85.92 73.13
  A 0.45 0.44 82.9 0 0 85.49 73.69
  Q 106.17 159.24 126.80 244.74
  Q 127.29 246.77 127.70 247.79
  Q 127.87 248.21 128.17 248.33
  Q 128.54 248.47 128.96 248.30
  Q 128.70 248.97 128.30 249.32
  Q 127.91 249.66 127.60 249.24
  L 0.01 73.08
  L 85.34 73.08
  Q 105.97 40.73 126.75 8.19
  C 127.20 7.49 127.07 7.02 126.78 6.31
  Z" fill="#570df8"></path>
<path d="M 128.51 6.27
  L 207.11 6.25
  L 171.14 72.20
  Q 170.90 72.91 170.11 72.51
  Q 169.92 72.15 169.70 71.79
  Q 149.35 39.63 128.86 7.56
  C 128.59 7.14 128.62 6.76 128.51 6.27
  Z" fill="#9362fe"></path>
<path d="M 207.11 6.25
  L 255.68 73.06
  Q 213.59 73.05 171.50 73.12
  Q 170.95 73.12 171.14 72.20
  L 207.11 6.25
  Z" fill="#570df8"></path>
<path d="M 48.41 6.93
  Q 49.37 7.15 49.90 8.11
  Q 67.56 40.40 85.13 72.73
  Q 85.22 72.91 85.34 73.08
  L 0.01 73.08
  L 48.41 6.93
  Z" fill="#9362fe"></path>
<path d="M 171.14 72.20
  Q 170.95 73.12 171.50 73.12
  Q 213.59 73.05 255.68 73.06
  L 129.33 247.86
  C 129.22 246.47 129.19 244.94 129.53 243.54
  Q 149.91 158.88 170.33 74.23
  Q 170.59 73.18 169.79 73.12
  L 170.11 72.51
  Q 170.90 72.91 171.14 72.20
  Z" fill="#7637ff"></path>
<path d="M 169.79 73.12
  Q 170.59 73.18 170.33 74.23
  Q 149.91 158.88 129.53 243.54
  C 129.19 244.94 129.22 246.47 129.33 247.86
  Q 129.20 248.10 128.96 248.30
  Q 128.54 248.47 128.17 248.33
  Q 127.87 248.21 127.70 247.79
  Q 127.29 246.77 126.80 244.74
  Q 106.17 159.24 85.49 73.69
  A 0.45 0.44 82.9 0 1 85.92 73.13
  L 169.79 73.12
  Z" fill="#9362fe"></path>
</svg>
