<svg viewBox="0.00 0.00 512.00 512.00" version="1.1" xmlns="http://www.w3.org/2000/svg">
<g stroke-linecap="butt" fill="none" stroke-width="2.00">
<path d="M 437.62 425.67
  L 436.50 424.18" stroke="#72553b"></path>
<path d="M 436.50 424.18
  Q 433.33 419.26 437.02 415.02
  Q 481.90 363.53 493.86 295.43
  A 0.54 0.53 3.4 0 0 493.30 294.81
  Q 488.14 295.13 482.75 295.29
  C 446.12 296.35 413.44 275.20 399.46 241.17
  C 397.82 237.17 396.54 230.81 391.91 229.33
  Q 389.75 228.63 385.08 227.61
  C 327.88 215.01 284.66 163.48 280.90 105.00
  Q 278.25 63.75 298.75 28.18
  Q 301.09 24.12 303.18 20.53
  A 0.72 0.72 0.0 0 0 302.69 19.46
  C 228.63 5.55 154.28 24.90 97.64 74.64
  Q 93.22 78.52 88.08 75.74" stroke="#7b5d3f"></path>
<path d="M 88.08 75.74
  L 86.30 74.39" stroke="#72553b"></path>
<path d="M 436.50 424.18
  L 421.03 435.00" stroke="#ecb279"></path>
<path d="M 421.03 435.00
  C 416.33 434.64 411.15 440.31 406.24 444.38" stroke="#7b5d3f"></path>
<path d="M 406.24 444.38
  Q 405.64 443.96 404.88 444.38
  Q 369.32 463.71 328.53 470.87
  C 326.28 471.27 323.49 471.87 321.31 471.97
  C 318.33 472.12 315.65 472.94 312.66 473.00
  C 309.56 473.05 305.99 473.82 303.50 473.91
  Q 285.12 474.57 266.75 473.87
  Q 265.64 473.83 263.08 473.36
  C 261.00 472.97 258.57 473.20 256.30 472.73
  C 252.49 471.94 248.58 471.75 244.74 471.09
  C 178.61 459.65 121.70 423.37 82.89 369.10
  C 34.70 301.70 24.26 211.38 55.05 134.13
  Q 56.21 131.22 61.00 120.73
  Q 64.04 114.08 66.72 107.23" stroke="#ecb279"></path>
<path d="M 66.72 107.23
  Q 70.93 102.05 75.31 96.79
  Q 77.32 94.37 77.09 90.78" stroke="#7b5d3f"></path>
<path d="M 77.09 90.78
  L 88.08 75.74" stroke="#ecb279"></path>
<path d="M 213.1185 82.2684
  A 7.17 7.17 0.0 0 0 202.9788 82.1976
  L 202.5231 82.6470
  A 7.17 7.17 0.0 0 0 202.4523 92.7867
  L 210.6815 101.1316
  A 7.17 7.17 0.0 0 0 220.8212 101.2024
  L 221.2769 100.7530
  A 7.17 7.17 0.0 0 0 221.3477 90.6133
  L 213.1185 82.2684" stroke="#7b5d3f"></path>
<path d="M 253.4850 140.8983
  A 7.17 7.17 0.0 0 0 253.4496 130.7585
  L 252.9955 130.3075
  A 7.17 7.17 0.0 0 0 242.8556 130.3429
  L 234.5550 138.7017
  A 7.17 7.17 0.0 0 0 234.5904 148.8415
  L 235.0445 149.2925
  A 7.17 7.17 0.0 0 0 245.1844 149.2571
  L 253.4850 140.8983" stroke="#7b5d3f"></path>
<path d="M 183.32 175.83
  A 39.55 39.55 0.0 0 0 143.77 136.28
  A 39.55 39.55 0.0 0 0 104.22 175.83
  A 39.55 39.55 0.0 0 0 143.77 215.38
  A 39.55 39.55 0.0 0 0 183.32 175.83" stroke="#7b5d3f"></path>
<path d="M 271.49 215.91
  A 23.51 23.51 0.0 0 0 247.98 192.40
  A 23.51 23.51 0.0 0 0 224.47 215.91
  A 23.51 23.51 0.0 0 0 247.98 239.42
  A 23.51 23.51 0.0 0 0 271.49 215.91" stroke="#7b5d3f"></path>
<path d="M 94.2278 244.4546
  A 7.21 7.21 0.0 0 0 84.5358 241.2868
  L 84.0186 241.5492
  A 7.21 7.21 0.0 0 0 80.8508 251.2411
  L 89.1122 267.5254
  A 7.21 7.21 0.0 0 0 98.8042 270.6932
  L 99.3214 270.4308
  A 7.21 7.21 0.0 0 0 102.4892 260.7389
  L 94.2278 244.4546" stroke="#7b5d3f"></path>
<path d="M 205.3540 285.0032
  A 7.15 7.15 0.0 0 0 205.3540 274.8916
  L 197.0384 266.5760
  A 7.15 7.15 0.0 0 0 186.9268 266.5760
  L 186.4460 267.0568
  A 7.15 7.15 0.0 0 0 186.4460 277.1684
  L 194.7616 285.4840
  A 7.15 7.15 0.0 0 0 204.8732 285.4840
  L 205.3540 285.0032" stroke="#7b5d3f"></path>
<path d="M 334.6042 268.3930
  A 7.21 7.21 0.0 0 0 324.9123 265.2252
  L 308.6102 273.4957
  A 7.21 7.21 0.0 0 0 305.4424 283.1876
  L 305.6958 283.6870
  A 7.21 7.21 0.0 0 0 315.3877 286.8548
  L 331.6898 278.5843
  A 7.21 7.21 0.0 0 0 334.8576 268.8924
  L 334.6042 268.3930" stroke="#7b5d3f"></path>
<path d="M 191.34 336.17
  A 31.54 31.54 0.0 0 0 159.80 304.63
  A 31.54 31.54 0.0 0 0 128.26 336.17
  A 31.54 31.54 0.0 0 0 159.80 367.71
  A 31.54 31.54 0.0 0 0 191.34 336.17" stroke="#7b5d3f"></path>
<path d="M 398.8522 308.6192
  A 7.19 7.19 0.0 0 0 389.1983 305.4265
  L 388.6980 305.6781
  A 7.19 7.19 0.0 0 0 385.5052 315.3321
  L 393.7278 331.6808
  A 7.19 7.19 0.0 0 0 403.3817 334.8735
  L 403.8820 334.6219
  A 7.19 7.19 0.0 0 0 407.0748 324.9679
  L 398.8522 308.6192" stroke="#7b5d3f"></path>
<path d="M 351.67 360.21
  A 39.54 39.54 0.0 0 0 312.13 320.67
  A 39.54 39.54 0.0 0 0 272.59 360.21
  A 39.54 39.54 0.0 0 0 312.13 399.75
  A 39.54 39.54 0.0 0 0 351.67 360.21" stroke="#7b5d3f"></path>
<path d="M 222.3597 396.6441
  A 7.19 7.19 0.0 0 0 212.6947 393.4851
  L 196.3569 401.7737
  A 7.19 7.19 0.0 0 0 193.1979 411.4387
  L 193.4603 411.9559
  A 7.19 7.19 0.0 0 0 203.1253 415.1149
  L 219.4631 406.8263
  A 7.19 7.19 0.0 0 0 222.6221 397.1613
  L 222.3597 396.6441" stroke="#7b5d3f"></path>
<path d="M 295.56 440.05
  A 6.98 6.98 0.0 0 0 288.58 433.07
  L 287.62 433.07
  A 6.98 6.98 0.0 0 0 280.64 440.05
  L 280.64 448.81
  A 6.98 6.98 0.0 0 0 287.62 455.79
  L 288.58 455.79
  A 6.98 6.98 0.0 0 0 295.56 448.81
  L 295.56 440.05" stroke="#7b5d3f"></path>
<path d="M 378.37 60.51
  C 368.05 63.99 366.67 71.67 365.26 81.13
  C 364.07 89.16 362.73 95.57 368.73 101.64
  C 373.87 106.82 385.15 109.63 392.47 112.47
  Q 396.30 113.96 399.99 114.27
  Q 407.34 114.89 414.46 108.57" stroke="#72553b"></path>
<path d="M 414.46 108.57
  Q 420.28 91.73 424.33 73.73
  Q 427.05 61.62 417.26 54.93
  C 412.55 51.72 408.02 51.75 402.26 53.39
  Q 390.14 56.83 378.37 60.51" stroke="#7b5d3f"></path>
<path d="M 414.46 108.57
  Q 404.47 104.99 396.24 101.83
  C 383.04 96.77 375.47 84.27 377.06 70.14
  Q 377.60 65.38 378.37 60.51" stroke="#ecb279"></path>
<path d="M 77.09 90.78
  L 74.40 86.32" stroke="#72553b"></path>
<path d="M 66.72 107.23
  C 3.66 188.13 -2.37 297.67 52.10 384.56
  C 103.90 467.18 201.91 510.72 298.49 493.24
  Q 358.39 482.41 406.24 444.38" stroke="#72553b"></path>
<path d="M 421.03 435.00
  Q 423.84 436.12 425.65 437.65" stroke="#72553b"></path>
<path d="M 497.01 111.70
  A 8.53 8.53 0.0 0 0 488.48 103.17
  A 8.53 8.53 0.0 0 0 479.95 111.70
  A 8.53 8.53 0.0 0 0 488.48 120.23
  A 8.53 8.53 0.0 0 0 497.01 111.70" stroke="#7b5d3f"></path>
<path d="M 128.50 156.58
  C 111.24 170.56 119.31 197.22 140.73 200.21
  Q 153.53 202.00 162.64 191.65" stroke="#5b4030"></path>
<path d="M 162.64 191.65
  Q 167.77 185.53 168.26 178.49
  C 169.78 156.55 146.23 143.08 128.50 156.58" stroke="#674937"></path>
<path d="M 162.64 191.65
  Q 158.83 191.02 155.18 190.30
  C 142.63 187.81 133.61 179.69 129.95 167.39
  C 128.96 164.04 128.91 160.28 128.50 156.58" stroke="#c28867"></path>
<path d="M 438.25 169.23
  C 431.16 172.29 427.33 175.52 430.59 183.70
  Q 433.68 191.46 436.97 199.14
  C 439.30 204.57 444.70 207.92 450.26 204.29
  Q 452.60 202.76 453.25 201.30" stroke="#72553b"></path>
<path d="M 453.25 201.30
  Q 458.60 195.22 463.00 189.73
  Q 466.20 185.74 466.67 183.27
  C 467.95 176.70 458.56 171.55 452.63 167.40
  C 447.52 163.83 443.34 166.61 438.25 169.23" stroke="#7b5d3f"></path>
<path d="M 453.25 201.30
  Q 443.78 186.39 438.25 169.23" stroke="#ecb279"></path>
<path d="M 256.49 215.90
  A 8.50 8.50 0.0 0 0 247.99 207.40
  A 8.50 8.50 0.0 0 0 239.49 215.90
  A 8.50 8.50 0.0 0 0 247.99 224.40
  A 8.50 8.50 0.0 0 0 256.49 215.90" stroke="#674937"></path>
<path d="M 147.87 324.54
  C 133.87 341.90 155.70 362.40 171.19 348.13" stroke="#5b4030"></path>
<path d="M 171.19 348.13
  Q 175.29 344.73 176.16 338.49
  C 178.36 322.73 159.28 313.24 147.87 324.54" stroke="#674937"></path>
<path d="M 171.19 348.13
  Q 156.04 345.72 150.44 333.36
  C 149.26 330.77 148.68 327.57 147.87 324.54" stroke="#c28867"></path>
<path d="M 296.67 341.09
  C 280.91 353.96 286.41 378.33 305.88 383.91
  Q 319.85 387.91 331.42 375.57" stroke="#5b4030"></path>
<path d="M 331.42 375.57
  Q 336.51 368.85 336.64 360.50
  C 336.97 339.69 312.71 328.05 296.67 341.09" stroke="#674937"></path>
<path d="M 331.42 375.57
  C 327.91 375.09 324.31 375.11 321.18 374.24
  C 305.43 369.83 297.39 357.21 296.67 341.09" stroke="#c28867"></path>
</g>
<path d="M 246.06 0.00
  L 266.06 0.00
  Q 272.16 0.55 278.24 1.03
  Q 290.36 1.97 302.25 4.22
  Q 309.47 5.58 312.54 7.97
  C 318.03 12.26 320.56 21.76 316.42 27.88
  C 267.69 99.85 308.69 197.45 392.97 214.09
  Q 403.47 216.16 408.93 225.02
  C 411.05 228.46 412.36 233.53 414.10 237.47
  C 425.14 262.52 449.29 278.93 476.59 280.42
  C 481.54 280.69 487.04 280.21 492.26 279.80
  C 499.60 279.22 506.29 283.97 508.28 290.86
  Q 509.23 294.12 508.25 299.64
  Q 495.82 369.43 449.81 423.12
  C 446.16 427.39 442.50 429.08 437.62 425.67
  L 436.50 424.18
  Q 433.33 419.26 437.02 415.02
  Q 481.90 363.53 493.86 295.43
  A 0.54 0.53 3.4 0 0 493.30 294.81
  Q 488.14 295.13 482.75 295.29
  C 446.12 296.35 413.44 275.20 399.46 241.17
  C 397.82 237.17 396.54 230.81 391.91 229.33
  Q 389.75 228.63 385.08 227.61
  C 327.88 215.01 284.66 163.48 280.90 105.00
  Q 278.25 63.75 298.75 28.18
  Q 301.09 24.12 303.18 20.53
  A 0.72 0.72 0.0 0 0 302.69 19.46
  C 228.63 5.55 154.28 24.90 97.64 74.64
  Q 93.22 78.52 88.08 75.74
  L 86.30 74.39
  C 83.12 69.26 84.79 65.91 89.13 62.17
  Q 144.12 14.78 216.25 2.98
  Q 226.91 1.24 246.06 0.00
  Z" fill="#000000"></path>
<path d="M 436.50 424.18
  L 421.03 435.00
  C 416.33 434.64 411.15 440.31 406.24 444.38
  Q 405.64 443.96 404.88 444.38
  Q 369.32 463.71 328.53 470.87
  C 326.28 471.27 323.49 471.87 321.31 471.97
  C 318.33 472.12 315.65 472.94 312.66 473.00
  C 309.56 473.05 305.99 473.82 303.50 473.91
  Q 285.12 474.57 266.75 473.87
  Q 265.64 473.83 263.08 473.36
  C 261.00 472.97 258.57 473.20 256.30 472.73
  C 252.49 471.94 248.58 471.75 244.74 471.09
  C 178.61 459.65 121.70 423.37 82.89 369.10
  C 34.70 301.70 24.26 211.38 55.05 134.13
  Q 56.21 131.22 61.00 120.73
  Q 64.04 114.08 66.72 107.23
  Q 70.93 102.05 75.31 96.79
  Q 77.32 94.37 77.09 90.78
  L 88.08 75.74
  Q 93.22 78.52 97.64 74.64
  C 154.28 24.90 228.63 5.55 302.69 19.46
  A 0.72 0.72 0.0 0 1 303.18 20.53
  Q 301.09 24.12 298.75 28.18
  Q 278.25 63.75 280.90 105.00
  C 284.66 163.48 327.88 215.01 385.08 227.61
  Q 389.75 228.63 391.91 229.33
  C 396.54 230.81 397.82 237.17 399.46 241.17
  C 413.44 275.20 446.12 296.35 482.75 295.29
  Q 488.14 295.13 493.30 294.81
  A 0.54 0.53 3.4 0 1 493.86 295.43
  Q 481.90 363.53 437.02 415.02
  Q 433.33 419.26 436.50 424.18
  Z
  M 213.1185 82.2684
  A 7.17 7.17 0.0 0 0 202.9788 82.1976
  L 202.5231 82.6470
  A 7.17 7.17 0.0 0 0 202.4523 92.7867
  L 210.6815 101.1316
  A 7.17 7.17 0.0 0 0 220.8212 101.2024
  L 221.2769 100.7530
  A 7.17 7.17 0.0 0 0 221.3477 90.6133
  L 213.1185 82.2684
  Z
  M 253.4850 140.8983
  A 7.17 7.17 0.0 0 0 253.4496 130.7585
  L 252.9955 130.3075
  A 7.17 7.17 0.0 0 0 242.8556 130.3429
  L 234.5550 138.7017
  A 7.17 7.17 0.0 0 0 234.5904 148.8415
  L 235.0445 149.2925
  A 7.17 7.17 0.0 0 0 245.1844 149.2571
  L 253.4850 140.8983
  Z
  M 183.32 175.83
  A 39.55 39.55 0.0 0 0 143.77 136.28
  A 39.55 39.55 0.0 0 0 104.22 175.83
  A 39.55 39.55 0.0 0 0 143.77 215.38
  A 39.55 39.55 0.0 0 0 183.32 175.83
  Z
  M 271.49 215.91
  A 23.51 23.51 0.0 0 0 247.98 192.40
  A 23.51 23.51 0.0 0 0 224.47 215.91
  A 23.51 23.51 0.0 0 0 247.98 239.42
  A 23.51 23.51 0.0 0 0 271.49 215.91
  Z
  M 94.2278 244.4546
  A 7.21 7.21 0.0 0 0 84.5358 241.2868
  L 84.0186 241.5492
  A 7.21 7.21 0.0 0 0 80.8508 251.2411
  L 89.1122 267.5254
  A 7.21 7.21 0.0 0 0 98.8042 270.6932
  L 99.3214 270.4308
  A 7.21 7.21 0.0 0 0 102.4892 260.7389
  L 94.2278 244.4546
  Z
  M 205.3540 285.0032
  A 7.15 7.15 0.0 0 0 205.3540 274.8916
  L 197.0384 266.5760
  A 7.15 7.15 0.0 0 0 186.9268 266.5760
  L 186.4460 267.0568
  A 7.15 7.15 0.0 0 0 186.4460 277.1684
  L 194.7616 285.4840
  A 7.15 7.15 0.0 0 0 204.8732 285.4840
  L 205.3540 285.0032
  Z
  M 334.6042 268.3930
  A 7.21 7.21 0.0 0 0 324.9123 265.2252
  L 308.6102 273.4957
  A 7.21 7.21 0.0 0 0 305.4424 283.1876
  L 305.6958 283.6870
  A 7.21 7.21 0.0 0 0 315.3877 286.8548
  L 331.6898 278.5843
  A 7.21 7.21 0.0 0 0 334.8576 268.8924
  L 334.6042 268.3930
  Z
  M 191.34 336.17
  A 31.54 31.54 0.0 0 0 159.80 304.63
  A 31.54 31.54 0.0 0 0 128.26 336.17
  A 31.54 31.54 0.0 0 0 159.80 367.71
  A 31.54 31.54 0.0 0 0 191.34 336.17
  Z
  M 398.8522 308.6192
  A 7.19 7.19 0.0 0 0 389.1983 305.4265
  L 388.6980 305.6781
  A 7.19 7.19 0.0 0 0 385.5052 315.3321
  L 393.7278 331.6808
  A 7.19 7.19 0.0 0 0 403.3817 334.8735
  L 403.8820 334.6219
  A 7.19 7.19 0.0 0 0 407.0748 324.9679
  L 398.8522 308.6192
  Z
  M 351.67 360.21
  A 39.54 39.54 0.0 0 0 312.13 320.67
  A 39.54 39.54 0.0 0 0 272.59 360.21
  A 39.54 39.54 0.0 0 0 312.13 399.75
  A 39.54 39.54 0.0 0 0 351.67 360.21
  Z
  M 222.3597 396.6441
  A 7.19 7.19 0.0 0 0 212.6947 393.4851
  L 196.3569 401.7737
  A 7.19 7.19 0.0 0 0 193.1979 411.4387
  L 193.4603 411.9559
  A 7.19 7.19 0.0 0 0 203.1253 415.1149
  L 219.4631 406.8263
  A 7.19 7.19 0.0 0 0 222.6221 397.1613
  L 222.3597 396.6441
  Z
  M 295.56 440.05
  A 6.98 6.98 0.0 0 0 288.58 433.07
  L 287.62 433.07
  A 6.98 6.98 0.0 0 0 280.64 440.05
  L 280.64 448.81
  A 6.98 6.98 0.0 0 0 287.62 455.79
  L 288.58 455.79
  A 6.98 6.98 0.0 0 0 295.56 448.81
  L 295.56 440.05
  Z" fill="#f5b97d"></path>
<path d="M 390.29 127.41
  C 383.68 125.10 377.05 122.69 370.52 120.16
  C 358.72 115.59 351.10 106.59 349.34 94.05
  Q 348.75 89.85 349.79 83.49
  Q 351.42 73.56 351.97 70.50
  C 353.76 60.68 360.52 52.26 369.43 47.95
  Q 371.22 47.08 383.63 43.27
  Q 390.79 41.07 397.94 38.85
  Q 413.56 33.99 426.32 42.92
  C 435.74 49.51 442.03 62.31 439.29 74.22
  Q 433.91 97.60 431.39 106.34
  C 427.56 119.59 415.80 129.08 401.95 129.31
  Q 396.04 129.41 390.29 127.41
  Z
  M 378.37 60.51
  C 368.05 63.99 366.67 71.67 365.26 81.13
  C 364.07 89.16 362.73 95.57 368.73 101.64
  C 373.87 106.82 385.15 109.63 392.47 112.47
  Q 396.30 113.96 399.99 114.27
  Q 407.34 114.89 414.46 108.57
  Q 420.28 91.73 424.33 73.73
  Q 427.05 61.62 417.26 54.93
  C 412.55 51.72 408.02 51.75 402.26 53.39
  Q 390.14 56.83 378.37 60.51
  Z" fill="#000000"></path>
<path d="M 414.46 108.57
  Q 404.47 104.99 396.24 101.83
  C 383.04 96.77 375.47 84.27 377.06 70.14
  Q 377.60 65.38 378.37 60.51
  Q 390.14 56.83 402.26 53.39
  C 408.02 51.75 412.55 51.72 417.26 54.93
  Q 427.05 61.62 424.33 73.73
  Q 420.28 91.73 414.46 108.57
  Z" fill="#f5b97d"></path>
<path d="M 378.37 60.51
  Q 377.60 65.38 377.06 70.14
  C 375.47 84.27 383.04 96.77 396.24 101.83
  Q 404.47 104.99 414.46 108.57
  Q 407.34 114.89 399.99 114.27
  Q 396.30 113.96 392.47 112.47
  C 385.15 109.63 373.87 106.82 368.73 101.64
  C 362.73 95.57 364.07 89.16 365.26 81.13
  C 366.67 71.67 368.05 63.99 378.37 60.51
  Z" fill="#e3aa75"></path>
<path d="M 86.30 74.39
  L 88.08 75.74
  L 77.09 90.78
  L 74.40 86.32
  L 86.30 74.39
  Z" fill="#e3aa75"></path>
<rect rx="7.17" height="26.06" width="14.98" transform="translate(211.90,91.70) rotate(-44.6)" y="-13.03" x="-7.49" fill="#000000"></rect>
<path d="M 74.40 86.32
  L 77.09 90.78
  Q 77.32 94.37 75.31 96.79
  Q 70.93 102.05 66.72 107.23
  C 3.66 188.13 -2.37 297.67 52.10 384.56
  C 103.90 467.18 201.91 510.72 298.49 493.24
  Q 358.39 482.41 406.24 444.38
  C 411.15 440.31 416.33 434.64 421.03 435.00
  Q 423.84 436.12 425.65 437.65
  C 429.20 442.62 427.28 446.26 422.97 449.95
  C 382.39 484.71 332.37 506.31 278.74 510.87
  Q 272.10 511.44 265.46 512.00
  L 245.90 512.00
  C 226.82 510.80 210.40 508.71 194.59 504.67
  C 93.97 478.93 19.77 398.36 2.99 295.75
  Q 1.19 284.75 0.00 266.17
  L 0.00 245.89
  C 0.66 239.22 0.94 231.86 1.72 225.82
  Q 11.91 146.35 63.77 87.26
  Q 68.04 82.40 74.40 86.32
  Z" fill="#000000"></path>
<path d="M 512.00 108.80
  L 512.00 114.75
  Q 508.94 129.72 495.16 134.27
  C 491.90 135.35 485.88 135.52 482.49 134.50
  C 458.47 127.27 459.23 93.47 484.52 88.53
  C 498.18 85.85 509.53 95.92 512.00 108.80
  Z
  M 497.01 111.70
  A 8.53 8.53 0.0 0 0 488.48 103.17
  A 8.53 8.53 0.0 0 0 479.95 111.70
  A 8.53 8.53 0.0 0 0 488.48 120.23
  A 8.53 8.53 0.0 0 0 497.01 111.70
  Z" fill="#000000"></path>
<circle r="8.53" cy="111.70" cx="488.48" fill="#f5b97d"></circle>
<path d="M 66.72 107.23
  Q 64.04 114.08 61.00 120.73
  Q 56.21 131.22 55.05 134.13
  C 24.26 211.38 34.70 301.70 82.89 369.10
  C 121.70 423.37 178.61 459.65 244.74 471.09
  C 248.58 471.75 252.49 471.94 256.30 472.73
  C 258.57 473.20 261.00 472.97 263.08 473.36
  Q 265.64 473.83 266.75 473.87
  Q 285.12 474.57 303.50 473.91
  C 305.99 473.82 309.56 473.05 312.66 473.00
  C 315.65 472.94 318.33 472.12 321.31 471.97
  C 323.49 471.87 326.28 471.27 328.53 470.87
  Q 369.32 463.71 404.88 444.38
  Q 405.64 443.96 406.24 444.38
  Q 358.39 482.41 298.49 493.24
  C 201.91 510.72 103.90 467.18 52.10 384.56
  C -2.37 297.67 3.66 188.13 66.72 107.23
  Z" fill="#e3aa75"></path>
<rect rx="7.17" height="26.12" width="14.98" transform="translate(244.02,139.80) rotate(44.8)" y="-13.06" x="-7.49" fill="#000000"></rect>
<path d="M 183.32 175.83
  A 39.55 39.55 0.0 0 1 143.77 215.38
  A 39.55 39.55 0.0 0 1 104.22 175.83
  A 39.55 39.55 0.0 0 1 143.77 136.28
  A 39.55 39.55 0.0 0 1 183.32 175.83
  Z
  M 128.50 156.58
  C 111.24 170.56 119.31 197.22 140.73 200.21
  Q 153.53 202.00 162.64 191.65
  Q 167.77 185.53 168.26 178.49
  C 169.78 156.55 146.23 143.08 128.50 156.58
  Z" fill="#000000"></path>
<path d="M 416.21 188.29
  C 411.53 177.51 415.74 164.81 425.78 158.80
  Q 427.80 157.59 434.64 154.28
  Q 440.42 151.48 443.94 150.94
  Q 453.48 149.48 461.74 155.54
  C 466.89 159.31 473.51 163.39 477.00 167.96
  C 482.22 174.78 483.30 184.59 479.40 192.37
  Q 478.06 195.02 473.86 200.07
  C 469.06 205.82 463.37 213.85 457.92 217.31
  C 448.50 223.30 434.95 221.03 427.94 212.68
  Q 425.36 209.61 421.58 200.76
  Q 418.91 194.51 416.21 188.29
  Z
  M 438.25 169.23
  C 431.16 172.29 427.33 175.52 430.59 183.70
  Q 433.68 191.46 436.97 199.14
  C 439.30 204.57 444.70 207.92 450.26 204.29
  Q 452.60 202.76 453.25 201.30
  Q 458.60 195.22 463.00 189.73
  Q 466.20 185.74 466.67 183.27
  C 467.95 176.70 458.56 171.55 452.63 167.40
  C 447.52 163.83 443.34 166.61 438.25 169.23
  Z" fill="#000000"></path>
<path d="M 162.64 191.65
  Q 158.83 191.02 155.18 190.30
  C 142.63 187.81 133.61 179.69 129.95 167.39
  C 128.96 164.04 128.91 160.28 128.50 156.58
  C 146.23 143.08 169.78 156.55 168.26 178.49
  Q 167.77 185.53 162.64 191.65
  Z" fill="#cd916e"></path>
<path d="M 128.50 156.58
  C 128.91 160.28 128.96 164.04 129.95 167.39
  C 133.61 179.69 142.63 187.81 155.18 190.30
  Q 158.83 191.02 162.64 191.65
  Q 153.53 202.00 140.73 200.21
  C 119.31 197.22 111.24 170.56 128.50 156.58
  Z" fill="#b67f5f"></path>
<path d="M 453.25 201.30
  Q 443.78 186.39 438.25 169.23
  C 443.34 166.61 447.52 163.83 452.63 167.40
  C 458.56 171.55 467.95 176.70 466.67 183.27
  Q 466.20 185.74 463.00 189.73
  Q 458.60 195.22 453.25 201.30
  Z" fill="#f5b97d"></path>
<path d="M 438.25 169.23
  Q 443.78 186.39 453.25 201.30
  Q 452.60 202.76 450.26 204.29
  C 444.70 207.92 439.30 204.57 436.97 199.14
  Q 433.68 191.46 430.59 183.70
  C 427.33 175.52 431.16 172.29 438.25 169.23
  Z" fill="#e3aa75"></path>
<path d="M 271.49 215.91
  A 23.51 23.51 0.0 0 1 247.98 239.42
  A 23.51 23.51 0.0 0 1 224.47 215.91
  A 23.51 23.51 0.0 0 1 247.98 192.40
  A 23.51 23.51 0.0 0 1 271.49 215.91
  Z
  M 256.49 215.90
  A 8.50 8.50 0.0 0 0 247.99 207.40
  A 8.50 8.50 0.0 0 0 239.49 215.90
  A 8.50 8.50 0.0 0 0 247.99 224.40
  A 8.50 8.50 0.0 0 0 256.49 215.90
  Z" fill="#000000"></path>
<circle r="8.50" cy="215.90" cx="247.99" fill="#cd916e"></circle>
<rect rx="7.21" height="32.68" width="15.00" transform="translate(91.67,255.99) rotate(-26.9)" y="-16.34" x="-7.50" fill="#000000"></rect>
<rect rx="7.15" height="14.98" width="26.06" transform="translate(195.90,276.03) rotate(45.0)" y="-7.49" x="-13.03" fill="#000000"></rect>
<rect rx="7.21" height="14.98" width="32.70" transform="translate(320.15,276.04) rotate(-26.9)" y="-7.49" x="-16.35" fill="#000000"></rect>
<path d="M 191.34 336.17
  A 31.54 31.54 0.0 0 1 159.80 367.71
  A 31.54 31.54 0.0 0 1 128.26 336.17
  A 31.54 31.54 0.0 0 1 159.80 304.63
  A 31.54 31.54 0.0 0 1 191.34 336.17
  Z
  M 147.87 324.54
  C 133.87 341.90 155.70 362.40 171.19 348.13
  Q 175.29 344.73 176.16 338.49
  C 178.36 322.73 159.28 313.24 147.87 324.54
  Z" fill="#000000"></path>
<rect rx="7.19" height="32.68" width="14.94" transform="translate(396.29,320.15) rotate(-26.7)" y="-16.34" x="-7.47" fill="#000000"></rect>
<path d="M 171.19 348.13
  Q 156.04 345.72 150.44 333.36
  C 149.26 330.77 148.68 327.57 147.87 324.54
  C 159.28 313.24 178.36 322.73 176.16 338.49
  Q 175.29 344.73 171.19 348.13
  Z" fill="#cd916e"></path>
<path d="M 351.67 360.21
  A 39.54 39.54 0.0 0 1 312.13 399.75
  A 39.54 39.54 0.0 0 1 272.59 360.21
  A 39.54 39.54 0.0 0 1 312.13 320.67
  A 39.54 39.54 0.0 0 1 351.67 360.21
  Z
  M 296.67 341.09
  C 280.91 353.96 286.41 378.33 305.88 383.91
  Q 319.85 387.91 331.42 375.57
  Q 336.51 368.85 336.64 360.50
  C 336.97 339.69 312.71 328.05 296.67 341.09
  Z" fill="#000000"></path>
<path d="M 147.87 324.54
  C 148.68 327.57 149.26 330.77 150.44 333.36
  Q 156.04 345.72 171.19 348.13
  C 155.70 362.40 133.87 341.90 147.87 324.54
  Z" fill="#b67f5f"></path>
<path d="M 331.42 375.57
  C 327.91 375.09 324.31 375.11 321.18 374.24
  C 305.43 369.83 297.39 357.21 296.67 341.09
  C 312.71 328.05 336.97 339.69 336.64 360.50
  Q 336.51 368.85 331.42 375.57
  Z" fill="#cd916e"></path>
<path d="M 296.67 341.09
  C 297.39 357.21 305.43 369.83 321.18 374.24
  C 324.31 375.11 327.91 375.09 331.42 375.57
  Q 319.85 387.91 305.88 383.91
  C 286.41 378.33 280.91 353.96 296.67 341.09
  Z" fill="#b67f5f"></path>
<rect rx="7.19" height="14.96" width="32.70" transform="translate(207.91,404.30) rotate(-26.9)" y="-7.48" x="-16.35" fill="#000000"></rect>
<path d="M 436.50 424.18
  L 437.62 425.67
  L 425.65 437.65
  Q 423.84 436.12 421.03 435.00
  L 436.50 424.18
  Z" fill="#e3aa75"></path>
<rect rx="6.98" height="22.72" width="14.92" y="433.07" x="280.64" fill="#000000"></rect>
</svg>
