<svg viewBox="0.00 0.00 32.00 32.00" version="1.1" xmlns="http://www.w3.org/2000/svg">
<g stroke-linecap="butt" fill="none" stroke-width="2.00">
<path d="M 32.00 3.70
  L 22.38 5.19" stroke="#cbb2ff"></path>
<path d="M 22.38 5.19
  L 23.65 0.67
  A 0.36 0.36 0.0 0 0 23.23 0.22
  L 12.43 2.27
  Q 11.87 2.38 11.81 2.94
  L 11.56 5.50" stroke="#ffe591"></path>
<path d="M 11.56 5.50
  L 0.00 3.54" stroke="#add8ff"></path>
<path d="M 22.38 5.19
  Q 21.90 6.00 21.67 7.45
  A 0.63 0.62 -1.7 0 0 22.42 8.15
  L 25.20 7.56
  A 0.48 0.47 -82.5 0 1 25.72 8.25
  L 21.46 16.72" stroke="#cb9891"></path>
<path d="M 21.46 16.72
  L 16.79 26.45
  A 0.52 0.52 0.0 0 1 16.17 26.73
  L 15.82 26.62
  Q 15.57 26.55 15.63 26.29
  L 17.13 19.26
  A 0.47 0.46 -4.8 0 0 16.50 18.73
  Q 13.44 19.97 14.28 17.86" stroke="#d58b91"></path>
<path d="M 14.28 17.86
  Q 15.01 15.97 14.87 14.23
  Q 14.82 13.61 14.22 13.79
  L 11.99 14.45
  A 0.78 0.78 0.0 0 1 10.99 13.66
  L 11.25 9.30" stroke="#bdaa91"></path>
<path d="M 11.25 9.30
  L 11.56 5.50" stroke="#adbe91"></path>
<path d="M 11.25 9.30
  Q 10.51 8.99 9.84 9.12
  A 1.40 1.32 -78.2 0 0 8.96 9.73
  Q 8.14 11.03 6.79 11.15
  Q 6.28 11.20 5.98 11.60
  Q 5.49 12.27 4.70 12.71" stroke="#6a9dfe"></path>
<path d="M 4.70 12.71
  L 0.00 4.46" stroke="#add8ff"></path>
<path d="M 32.00 4.57
  L 25.31 16.47" stroke="#cbb2ff"></path>
<path d="M 25.31 16.47
  L 21.46 16.72" stroke="#a158ff"></path>
<path d="M 4.70 12.71
  L 8.64 19.48" stroke="#bdc4ff"></path>
<path d="M 8.64 19.48
  L 15.81 32.00" stroke="#d5a5ff"></path>
<path d="M 16.52 32.00
  L 25.31 16.47" stroke="#d5a5ff"></path>
<path d="M 14.28 17.86
  Q 13.94 16.55 12.68 16.90
  A 1.57 1.53 -78.8 0 0 11.89 17.44
  Q 10.69 19.01 8.64 19.48" stroke="#936afe"></path>
</g>
<path d="M 0.00 0.00
  L 32.00 0.00
  L 32.00 3.70
  L 22.38 5.19
  L 23.65 0.67
  A 0.36 0.36 0.0 0 0 23.23 0.22
  L 12.43 2.27
  Q 11.87 2.38 11.81 2.94
  L 11.56 5.50
  L 0.00 3.54
  L 0.00 0.00
  Z" fill="#ffffff"></path>
<path d="M 22.38 5.19
  Q 21.90 6.00 21.67 7.45
  A 0.63 0.62 -1.7 0 0 22.42 8.15
  L 25.20 7.56
  A 0.48 0.47 -82.5 0 1 25.72 8.25
  L 21.46 16.72
  L 16.79 26.45
  A 0.52 0.52 0.0 0 1 16.17 26.73
  L 15.82 26.62
  Q 15.57 26.55 15.63 26.29
  L 17.13 19.26
  A 0.47 0.46 -4.8 0 0 16.50 18.73
  Q 13.44 19.97 14.28 17.86
  Q 15.01 15.97 14.87 14.23
  Q 14.82 13.61 14.22 13.79
  L 11.99 14.45
  A 0.78 0.78 0.0 0 1 10.99 13.66
  L 11.25 9.30
  L 11.56 5.50
  L 11.81 2.94
  Q 11.87 2.38 12.43 2.27
  L 23.23 0.22
  A 0.36 0.36 0.0 0 1 23.65 0.67
  L 22.38 5.19
  Z" fill="#ffcb23"></path>
<path d="M 11.56 5.50
  L 11.25 9.30
  Q 10.51 8.99 9.84 9.12
  A 1.40 1.32 -78.2 0 0 8.96 9.73
  Q 8.14 11.03 6.79 11.15
  Q 6.28 11.20 5.98 11.60
  Q 5.49 12.27 4.70 12.71
  L 0.00 4.46
  L 0.00 3.54
  L 11.56 5.50
  Z" fill="#5ab1fe"></path>
<path d="M 32.00 3.70
  L 32.00 4.57
  L 25.31 16.47
  L 21.46 16.72
  L 25.72 8.25
  A 0.48 0.47 -82.5 0 0 25.20 7.56
  L 22.42 8.15
  A 0.63 0.62 -1.7 0 1 21.67 7.45
  Q 21.90 6.00 22.38 5.19
  L 32.00 3.70
  Z" fill="#9664ff"></path>
<path d="M 0.00 4.46
  L 4.70 12.71
  L 8.64 19.48
  L 15.81 32.00
  L 0.00 32.00
  L 0.00 4.46
  Z" fill="#ffffff"></path>
<path d="M 32.00 4.57
  L 32.00 32.00
  L 16.52 32.00
  L 25.31 16.47
  L 32.00 4.57
  Z" fill="#ffffff"></path>
<path d="M 11.25 9.30
  L 10.99 13.66
  A 0.78 0.78 0.0 0 0 11.99 14.45
  L 14.22 13.79
  Q 14.82 13.61 14.87 14.23
  Q 15.01 15.97 14.28 17.86
  Q 13.94 16.55 12.68 16.90
  A 1.57 1.53 -78.8 0 0 11.89 17.44
  Q 10.69 19.01 8.64 19.48
  L 4.70 12.71
  Q 5.49 12.27 5.98 11.60
  Q 6.28 11.20 6.79 11.15
  Q 8.14 11.03 8.96 9.73
  A 1.40 1.32 -78.2 0 1 9.84 9.12
  Q 10.51 8.99 11.25 9.30
  Z" fill="#7a89fe"></path>
<path d="M 25.31 16.47
  L 16.52 32.00
  L 15.81 32.00
  L 8.64 19.48
  Q 10.69 19.01 11.89 17.44
  A 1.57 1.53 -78.8 0 1 12.68 16.90
  Q 13.94 16.55 14.28 17.86
  Q 13.44 19.97 16.50 18.73
  A 0.47 0.46 -4.8 0 1 17.13 19.26
  L 15.63 26.29
  Q 15.57 26.55 15.82 26.62
  L 16.17 26.73
  A 0.52 0.52 0.0 0 0 16.79 26.45
  L 21.46 16.72
  L 25.31 16.47
  Z" fill="#ab4bfe"></path>
</svg>
