<svg viewBox="0.00 0.00 200.00 200.00" version="1.1" xmlns="http://www.w3.org/2000/svg">
<path d="M 68.66 0.00
  L 131.47 0.00
  C 146.73 2.34 157.26 14.23 157.24 29.75
  Q 157.14 100.37 157.12 171.00
  C 157.11 186.76 145.41 198.57 129.87 200.00
  L 69.76 200.00
  C 54.50 198.46 42.92 186.79 42.91 171.25
  Q 42.87 99.87 42.92 28.50
  C 42.94 13.41 54.02 2.14 68.66 0.00
  Z
  M 142.87 28.66
  A 14.42 14.42 0.0 0 0 128.45 14.24
  L 71.55 14.24
  A 14.42 14.42 0.0 0 0 57.13 28.66
  L 57.13 171.32
  A 14.42 14.42 0.0 0 0 71.55 185.74
  L 128.45 185.74
  A 14.42 14.42 0.0 0 0 142.87 171.32
  L 142.87 28.66
  Z" fill="#05aec3"></path>
<path d="M 0.00 152.09
  L 0.00 47.26
  C 2.37 36.65 8.66 29.64 19.65 28.76
  Q 23.16 28.48 25.18 29.56
  C 29.91 32.11 29.52 39.75 24.76 42.11
  C 22.97 43.00 20.63 42.68 18.98 43.18
  C 15.13 44.34 14.27 47.58 14.27 51.50
  Q 14.25 99.66 14.27 147.82
  C 14.27 152.13 14.84 155.66 19.16 156.89
  C 20.66 157.32 22.88 157.01 24.56 157.80
  Q 28.91 159.81 28.49 165.00
  C 27.73 174.56 14.77 171.33 9.81 168.18
  Q 1.37 162.81 0.00 152.09
  Z" fill="#05aec3"></path>
<path d="M 200.00 48.40
  L 200.00 152.23
  Q 197.20 168.89 181.03 171.32
  Q 172.59 172.59 171.57 165.10
  C 171.17 162.12 172.38 159.40 174.98 158.00
  C 176.86 156.98 179.48 157.28 181.26 156.75
  C 185.11 155.61 185.73 151.82 185.73 147.94
  Q 185.75 99.22 185.73 50.50
  C 185.73 38.72 173.51 46.80 171.70 37.37
  C 170.22 29.68 176.99 27.55 183.35 29.15
  Q 197.79 32.78 200.00 48.40
  Z" fill="#05aec3"></path>
</svg>
