<svg viewBox="0.00 0.00 180.00 180.00" version="1.1" xmlns="http://www.w3.org/2000/svg">
<g stroke-linecap="butt" fill="none" stroke-width="2.00">
<path d="M 20.42 31.93
  C 19.87 29.58 20.60 26.80 22.05 25.09
  Q 24.15 22.62 21.44 24.41
  Q 18.05 26.64 19.28 31.80
  Q 19.34 32.08 19.63 32.14
  L 20.14 32.23
  Q 20.51 32.30 20.42 31.93" stroke="#968aa0"></path>
<path d="M 27.73 58.72
  L 28.11 58.65
  A 0.46 0.46 0.0 0 1 28.56 59.36
  Q 25.77 63.42 23.10 67.76
  Q 8.22 91.99 16.56 119.46
  Q 18.84 126.97 23.14 129.68" stroke="#fffef4"></path>
<path d="M 23.14 129.68
  Q 29.38 133.48 34.52 138.11
  Q 42.14 144.97 42.82 145.49
  C 48.14 149.52 54.73 153.81 60.99 155.42
  Q 87.60 162.27 108.87 145.63
  Q 111.67 143.44 114.85 140.43" stroke="#968aa0"></path>
<path d="M 114.85 140.43
  Q 115.78 139.85 116.45 138.35
  C 118.00 134.91 120.84 131.44 122.97 128.28
  C 127.71 121.23 131.11 112.27 132.09 103.87
  Q 132.73 98.39 131.75 89.52
  Q 131.56 87.77 132.95 87.92" stroke="#fffef4"></path>
<path d="M 132.95 87.92
  Q 144.01 89.99 154.57 93.87
  C 158.29 95.24 162.16 95.97 164.27 92.27
  C 170.60 81.16 168.00 62.41 164.39 50.84
  C 162.77 45.66 157.86 30.18 149.49 37.15
  C 139.58 45.41 131.29 53.21 119.61 61.38" stroke="#968aa0"></path>
<path d="M 119.61 61.38
  C 115.78 56.93 110.61 51.25 104.94 49.29" stroke="#fffef4"></path>
<path d="M 104.94 49.29
  Q 104.48 48.98 104.30 49.25" stroke="#fecf82"></path>
<path d="M 104.30 49.25
  Q 101.27 47.80 99.43 45.94" stroke="#fffef4"></path>
<path d="M 99.43 45.94
  L 102.48 42.72
  A 1.05 1.04 40.5 0 0 102.35 41.17
  L 99.48 38.98
  Q 98.94 38.57 98.83 39.23
  L 97.87 44.76" stroke="#fecf82"></path>
<path d="M 97.87 44.76
  Q 88.76 41.37 84.74 40.82
  C 77.84 39.88 71.18 39.12 64.26 40.52" stroke="#fffef4"></path>
<path d="M 64.26 40.52
  C 60.12 35.38 55.36 35.13 48.54 35.10
  Q 38.53 35.05 29.62 38.91
  Q 27.44 39.85 29.14 38.19
  C 31.10 36.28 32.73 34.79 32.42 31.90
  C 32.08 28.68 29.32 27.00 26.29 28.58
  A 1.47 1.45 -13.2 0 0 25.50 29.84
  L 25.49 30.26
  A 0.50 0.50 0.0 0 0 26.23 30.71
  C 29.79 28.74 30.68 32.71 29.14 34.89
  C 26.15 39.12 18.55 43.26 14.28 37.95
  A 0.30 0.30 0.0 0 0 13.79 37.98
  Q 13.61 38.28 13.74 38.54
  Q 16.62 44.40 23.49 43.85
  Q 25.02 43.72 26.62 43.68
  Q 27.26 43.66 26.76 44.06
  Q 21.14 48.46 24.95 54.78
  A 0.98 0.98 0.0 0 1 24.15 56.26
  C 20.49 56.41 15.22 54.58 16.42 61.07
  Q 16.87 63.47 17.24 61.06
  C 17.47 59.60 17.54 58.63 19.16 58.20
  Q 19.67 58.07 20.14 58.28
  Q 24.06 60.06 27.73 58.72" stroke="#968aa0"></path>
<path d="M 64.26 40.52
  C 67.63 44.11 71.65 49.08 76.10 51.20
  C 81.26 53.66 87.12 57.30 81.43 63.50
  A 0.69 0.69 0.0 0 0 81.45 64.45
  Q 81.75 64.76 82.16 64.91
  A 0.54 0.54 0.0 0 1 82.48 65.57
  Q 82.04 67.00 82.45 68.43
  A 0.58 0.55 61.9 0 1 82.29 69.01
  L 81.88 69.38
  A 0.37 0.37 0.0 0 0 82.01 70.01
  C 85.20 71.05 87.79 73.55 84.41 76.67
  A 0.18 0.17 40.4 0 0 84.44 76.95
  C 89.88 80.30 89.75 85.84 85.54 90.03
  Q 85.17 90.40 85.27 90.91
  Q 85.76 93.41 86.80 95.19
  C 90.59 101.72 93.61 106.59 94.86 113.67
  Q 94.94 114.15 95.43 114.24
  C 98.06 114.73 100.09 114.63 102.36 112.94
  Q 106.25 110.05 109.30 106.40
  A 1.28 1.28 0.0 0 0 109.17 104.63
  C 108.35 103.87 107.94 102.98 107.80 101.77
  C 107.55 99.68 106.36 97.77 106.65 95.85
  C 107.07 93.17 109.33 90.49 111.03 88.38
  A 1.65 1.64 17.1 0 0 109.61 85.71
  L 108.04 85.84
  A 0.66 0.66 0.0 0 0 107.46 86.68
  Q 107.76 87.73 108.64 88.37
  A 0.68 0.67 -64.7 0 1 108.89 89.09
  Q 108.68 89.83 107.73 89.74
  Q 105.73 89.54 104.79 87.52
  A 0.47 0.46 -32.1 0 0 104.07 87.36
  L 103.61 87.74
  Q 103.16 88.11 102.59 88.25
  C 96.04 89.77 90.42 68.07 100.56 68.25
  Q 101.06 68.26 101.28 67.80
  Q 101.59 67.12 101.95 66.49
  Q 103.08 64.50 104.60 65.11
  Q 106.30 65.80 104.77 66.82
  Q 103.81 67.46 103.72 68.71
  A 0.39 0.39 0.0 0 0 104.23 69.11
  Q 112.67 66.52 119.61 61.38" stroke="#968895"></path>
<path d="M 132.95 87.92
  L 121.83 86.09
  Q 121.35 86.02 121.30 86.50
  Q 121.27 86.85 121.50 87.18
  A 0.56 0.43 79.4 0 0 121.61 87.28
  L 125.00 89.07
  Q 125.55 89.36 125.53 89.98
  C 125.39 94.15 125.10 98.28 123.95 102.30
  C 123.29 104.63 123.66 108.06 120.34 108.33
  Q 119.79 108.37 119.80 108.93
  Q 119.98 125.39 114.85 140.43" stroke="#968895"></path>
<path d="M 23.14 129.68
  L 24.46 126.76
  A 1.20 1.17 -34.8 0 0 24.56 126.24
  Q 24.39 120.71 25.88 115.39
  C 28.45 106.27 35.53 103.77 42.83 99.49
  A 0.26 0.26 0.0 0 0 42.80 99.03
  Q 32.14 94.72 23.20 87.50
  A 0.37 0.36 -53.8 0 1 23.13 87.00
  C 31.77 74.22 37.97 60.96 38.14 45.25
  A 0.83 0.83 0.0 0 0 37.15 44.42
  C 33.64 45.11 27.12 46.89 27.37 51.48
  C 27.52 54.09 29.70 55.22 31.86 53.43
  Q 32.29 53.07 32.52 53.59
  Q 32.72 54.07 32.50 54.52
  Q 31.06 57.45 27.73 58.72" stroke="#968895"></path>
<path d="M 104.30 49.25
  Q 102.95 50.84 100.63 50.75
  Q 100.36 50.74 100.27 51.00
  Q 100.22 51.15 100.16 51.30
  A 0.35 0.35 0.0 0 0 100.37 51.76
  Q 102.44 52.49 104.09 53.90
  A 0.52 0.51 20.2 0 0 104.94 53.51
  L 104.94 49.29" stroke="#fecd77"></path>
<path d="M 99.43 45.94
  L 98.32 47.13
  A 0.44 0.44 0.0 0 1 97.57 46.76
  L 97.87 44.76" stroke="#fecd77"></path>
<path d="M 105.97 46.19
  Q 108.39 46.94 110.89 47.26
  A 0.82 0.81 20.8 0 0 111.66 46.92
  L 114.85 42.51
  A 0.53 0.53 0.0 0 0 114.65 41.73
  Q 112.15 40.55 110.16 38.63
  A 0.32 0.32 0.0 0 0 109.63 38.96
  L 111.30 43.85
  A 1.42 1.41 83.3 0 1 109.83 45.72
  Q 107.89 45.53 106.05 45.61
  Q 104.36 45.69 105.97 46.19" stroke="#fecf82"></path>
<path d="M 44.22 38.01
  Q 41.54 37.76 38.24 39.07" stroke="#44569b"></path>
<path d="M 38.24 39.07
  Q 33.71 39.37 28.22 42.70
  Q 28.05 42.80 28.02 43.04
  Q 27.97 43.43 28.35 43.30
  C 36.32 40.60 43.16 39.75 50.21 45.18
  A 0.42 0.42 0.0 0 1 50.07 45.91
  L 49.53 46.06" stroke="#313873"></path>
<path d="M 49.53 46.06
  L 47.32 45.49" stroke="#44569b"></path>
<path d="M 47.32 45.49
  Q 44.79 43.87 43.58 44.73
  Q 42.80 45.28 42.75 47.52
  C 42.47 57.98 37.35 69.91 32.16 79.20
  Q 32.13 79.23 32.15 79.27
  Q 32.19 79.43 32.39 79.53
  A 0.32 0.30 -52.7 0 0 32.76 79.47
  Q 39.63 72.43 49.48 74.39
  Q 49.91 74.47 50.19 74.15
  L 60.50 62.61" stroke="#313873"></path>
<path d="M 60.50 62.61
  C 65.73 57.97 72.81 54.19 79.61 58.15
  Q 80.24 58.52 79.84 57.91
  Q 79.16 56.87 78.06 56.16
  C 73.66 53.31 69.12 50.48 65.43 46.65
  C 61.87 42.96 59.69 39.45 54.26 38.31
  Q 49.47 37.31 44.22 38.01" stroke="#5c7aa0"></path>
<path d="M 60.50 62.61
  Q 60.08 62.37 59.88 61.97" stroke="#619dd2"></path>
<path d="M 59.88 61.97
  L 68.25 54.97
  A 0.66 0.66 0.0 0 0 68.30 54.00
  Q 64.04 49.62 60.27 44.69
  C 55.92 39.03 51.42 39.28 44.93 39.14
  A 1.00 1.00 0.0 0 1 43.96 38.31
  Q 43.94 38.24 44.22 38.01" stroke="#74bbfb"></path>
<path d="M 59.88 61.97
  C 56.86 63.16 54.38 66.54 51.81 68.75
  Q 50.84 69.58 50.30 68.42
  Q 45.69 58.45 45.50 46.90
  Q 45.49 46.04 45.83 45.70
  Q 46.34 45.21 47.32 45.49" stroke="#4979ce"></path>
<path d="M 49.53 46.06
  L 52.14 46.69
  Q 54.10 47.15 52.72 45.68
  Q 47.75 40.37 38.24 39.07" stroke="#4979ce"></path>
<path d="M 161.3705 91.0645
  A 26.53 7.94 82.2 0 0 165.6365 63.7024
  A 26.53 7.94 82.2 0 0 154.1695 38.4955
  A 26.53 7.94 82.2 0 0 149.9035 65.8576
  A 26.53 7.94 82.2 0 0 161.3705 91.0645" stroke="#955922"></path>
<path d="M 111.18 73.04
  Q 110.89 74.66 111.49 76.57" stroke="#955922"></path>
<path d="M 111.49 76.57
  Q 111.93 81.14 114.72 83.15" stroke="#833f21"></path>
<path d="M 114.72 83.15
  C 128.53 83.66 140.13 86.45 153.33 90.34
  Q 153.90 90.51 153.74 89.94
  Q 153.48 88.96 152.55 88.29" stroke="#94765a"></path>
<path d="M 152.55 88.29
  Q 148.79 78.84 147.03 68.88" stroke="#833f21"></path>
<path d="M 147.03 68.88
  Q 145.67 61.27 145.70 53.27" stroke="#955922"></path>
<path d="M 145.70 53.27
  L 147.13 43.02
  Q 147.23 42.30 146.67 42.77
  C 143.60 45.31 140.55 48.23 137.62 50.47
  Q 134.11 53.16 130.68 55.93
  C 124.58 60.84 118.26 65.04 111.86 69.31
  A 1.27 1.26 -11.0 0 0 111.34 70.07
  Q 111.01 71.51 111.18 73.04" stroke="#968aa0"></path>
<path d="M 145.70 53.27
  C 137.48 63.49 123.60 70.16 111.18 73.04" stroke="#fecf82"></path>
<path d="M 147.03 68.88
  C 137.02 74.46 122.83 76.32 111.49 76.57" stroke="#ec8403"></path>
<path d="M 152.55 88.29
  C 141.93 85.01 132.23 82.43 121.00 82.09
  Q 117.11 81.98 114.72 83.15" stroke="#eba13b"></path>
<path d="M 74.41 79.88
  Q 75.38 79.25 75.96 78.48
  Q 76.28 78.06 75.91 77.70
  Q 74.06 75.87 75.97 73.48" stroke="#955922"></path>
<path d="M 75.97 73.48
  Q 78.66 72.67 76.60 75.12
  A 0.81 0.73 -15.5 0 0 76.46 75.34
  Q 76.28 75.78 76.45 76.12
  A 0.66 0.66 0.0 0 0 77.49 76.30
  Q 77.79 76.01 78.19 75.91
  A 1.08 1.08 0.0 0 1 79.01 76.01
  Q 81.28 77.30 82.93 76.14" stroke="#833f21"></path>
<path d="M 82.93 76.14
  Q 85.02 74.45 83.88 72.78
  A 1.44 1.41 78.5 0 0 83.02 72.20
  Q 80.74 71.72 78.82 70.14" stroke="#94765a"></path>
<path d="M 78.82 70.14
  Q 77.88 69.42 77.09 68.57
  Q 76.76 68.21 76.78 67.82
  Q 76.80 67.42 76.98 66.95" stroke="#955922"></path>
<path d="M 76.98 66.95
  Q 78.08 65.75 79.46 67.41
  A 0.62 0.62 0.0 0 0 80.40 67.42
  L 80.58 67.22
  A 0.74 0.74 0.0 0 0 80.53 66.19
  Q 79.40 65.17 78.96 63.81" stroke="#94765a"></path>
<path d="M 78.96 63.81
  C 78.10 60.56 76.26 58.67 72.66 59.15
  C 66.07 60.02 62.45 63.43 58.25 68.51
  Q 57.89 68.95 58.14 69.46
  Q 60.70 74.66 62.66 80.11
  Q 64.16 84.26 66.27 85.22
  C 70.28 87.05 72.81 82.75 74.41 79.88" stroke="#833f21"></path>
<path d="M 78.96 63.81
  C 76.45 63.29 73.42 60.64 70.52 61.46" stroke="#eba13b"></path>
<path d="M 70.52 61.46
  C 65.27 63.02 61.85 66.91 62.66 72.65
  C 63.45 78.24 65.68 83.37 72.31 78.94
  Q 72.74 78.65 73.16 78.96
  L 74.41 79.88" stroke="#ec8403"></path>
<path d="M 70.56 63.80
  Q 68.38 64.14 66.05 66.05
  A 1.53 1.52 -27.8 0 0 65.56 67.62
  L 65.68 68.05
  Q 66.00 69.17 66.86 68.39
  C 68.98 66.48 71.43 67.06 74.01 67.31
  Q 75.17 67.43 75.52 66.47" stroke="#955922"></path>
<path d="M 78.82 70.14
  Q 78.06 70.50 78.15 71.57" stroke="#fcbb3c"></path>
<path d="M 78.15 71.57
  Q 77.71 70.90 77.04 70.79
  A 0.51 0.51 0.0 0 0 76.45 71.19
  L 75.97 73.48" stroke="#ec8403"></path>
<path d="M 76.98 66.95
  Q 76.50 67.36 75.52 66.47" stroke="#fcbb3c"></path>
<path d="M 75.52 66.47
  Q 75.78 65.78 75.68 65.26
  Q 75.57 64.70 75.00 64.59
  L 70.56 63.80" stroke="#94765a"></path>
<path d="M 70.56 63.80
  Q 69.63 62.74 70.52 61.46" stroke="#fcbb3c"></path>
<path d="M 82.93 76.14
  C 83.00 73.65 79.60 73.03 78.15 71.57" stroke="#eba13b"></path>
<path d="M 102.34 74.89
  Q 102.14 76.74 102.69 78.67" stroke="#955922"></path>
<path d="M 102.69 78.67
  Q 103.01 81.59 104.74 83.84
  Q 105.09 84.30 105.62 84.09
  Q 108.21 83.08 111.00 83.29
  A 0.45 0.44 -6.1 0 0 111.47 82.72
  L 109.79 77.25" stroke="#833f21"></path>
<path d="M 109.79 77.25
  L 109.31 73.37" stroke="#955922"></path>
<path d="M 109.31 73.37
  Q 109.60 72.15 109.47 70.76
  Q 109.41 70.24 108.89 70.34
  L 102.83 71.53
  A 0.60 0.59 -0.7 0 0 102.36 72.01
  Q 102.11 73.40 102.34 74.89" stroke="#968aa0"></path>
<path d="M 109.31 73.37
  L 102.34 74.89" stroke="#fecf82"></path>
<path d="M 109.79 77.25
  L 102.69 78.67" stroke="#ec8403"></path>
<path d="M 90.04 131.15
  C 92.95 123.67 92.14 113.51 89.67 106.12
  C 88.11 101.44 83.88 94.56 82.40 87.65
  Q 82.27 87.05 81.72 87.32
  Q 81.09 87.61 81.07 88.51
  Q 80.88 94.48 83.15 99.96
  Q 83.34 100.41 82.86 100.33
  C 79.47 99.82 76.25 99.42 75.05 96.18
  Q 74.39 94.40 74.09 96.28
  C 73.71 98.77 74.65 100.86 76.45 103.40
  Q 76.89 104.02 76.24 103.63
  C 72.26 101.21 71.74 95.96 73.39 92.02
  C 74.16 90.15 75.85 88.21 77.01 86.22
  C 78.13 84.31 79.97 83.29 80.82 81.00
  A 1.24 1.23 -1.9 0 1 81.46 80.32
  Q 82.31 79.94 82.90 80.42
  Q 83.34 80.77 83.50 81.88
  Q 83.82 84.18 85.00 86.18
  A 0.31 0.30 41.7 0 0 85.54 86.15
  C 87.01 82.93 86.61 78.64 82.23 78.21
  C 80.72 78.06 79.02 79.03 77.32 79.28
  Q 76.85 79.35 76.49 79.66
  C 72.88 82.80 73.75 87.94 68.28 89.68
  Q 68.05 89.75 67.98 89.52
  L 67.91 89.27
  Q 67.89 89.23 67.94 89.21
  Q 68.93 88.86 69.62 88.10
  A 0.38 0.38 0.0 0 0 69.29 87.47
  Q 65.74 87.89 63.69 85.07
  Q 63.64 84.99 63.54 85.00
  Q 63.40 85.01 63.26 85.03
  Q 63.07 85.06 63.16 85.22
  Q 63.51 85.88 63.58 86.62
  Q 63.64 87.38 63.16 86.79
  C 61.37 84.57 61.39 81.61 60.53 79.13
  Q 60.16 78.07 60.05 79.18
  L 59.55 83.93" stroke="#968895"></path>
<path d="M 59.55 83.93
  Q 58.95 89.11 59.82 93.66
  Q 60.68 98.19 58.92 93.93
  Q 58.22 92.24 58.10 88.00
  C 57.97 83.44 59.31 75.46 56.57 71.68
  A 0.83 0.82 49.7 0 0 55.32 71.57
  C 53.78 73.10 52.73 74.70 52.87 77.06
  Q 53.35 85.03 53.92 93.00
  C 54.92 107.10 66.79 113.43 77.45 119.32
  C 82.32 122.01 87.40 127.93 88.56 133.92
  Q 88.74 134.87 89.06 133.96
  L 90.04 131.15" stroke="#7e7a91"></path>
<path d="M 59.55 83.93
  Q 61.10 86.69 61.94 89.68
  C 63.33 94.63 64.44 98.96 67.90 103.37
  C 74.65 112.00 88.72 118.60 88.87 130.75
  Q 88.87 131.29 89.14 131.39
  Q 89.47 131.51 90.04 131.15" stroke="#e8eee6"></path>
<path d="M 97.76 76.62
  Q 97.74 79.37 99.38 81.88
  Q 99.63 82.26 100.09 82.27
  Q 100.27 82.27 100.43 82.22
  Q 100.91 82.05 100.83 81.54
  L 99.93 75.55" stroke="#313873"></path>
<path d="M 99.93 75.55
  L 100.03 72.54
  Q 100.08 70.72 98.75 71.95
  Q 97.31 73.29 97.76 76.62" stroke="#5c7aa0"></path>
<path d="M 99.93 75.55
  Q 99.03 76.84 97.76 76.62" stroke="#619dd2"></path>
<path d="M 47.09 86.46
  Q 48.16 87.59 50.39 87.18
  Q 50.95 87.08 51.16 86.56
  Q 51.90 84.77 51.50 82.84
  Q 51.31 81.95 50.62 82.54
  Q 49.75 83.29 49.68 84.42
  Q 49.64 85.07 49.04 84.83
  Q 48.58 84.65 48.73 83.93
  C 48.97 82.82 48.57 82.20 47.97 81.26
  Q 47.23 80.13 47.95 79.24" stroke="#833f21"></path>
<path d="M 47.95 79.24
  C 49.22 79.28 49.42 80.74 50.69 80.84
  Q 51.26 80.88 51.08 80.34
  C 48.84 73.39 39.22 79.99 47.09 86.46" stroke="#94765a"></path>
<path d="M 47.95 79.24
  Q 46.51 78.89 45.69 80.15
  A 1.08 1.07 -36.2 0 0 45.55 81.03
  L 47.09 86.46" stroke="#eba13b"></path>
<path d="M 82.20 86.23
  L 82.03 84.96
  A 0.28 0.28 0.0 0 0 81.71 84.72
  L 81.25 84.79
  A 2.64 0.78 -7.9 0 0 78.75 85.92
  L 78.79 86.20
  A 2.64 0.78 -7.9 0 0 81.51 86.61
  L 81.96 86.55
  A 0.28 0.28 0.0 0 0 82.20 86.23" stroke="#955922"></path>
<path d="M 113.98 89.13
  Q 115.23 89.42 115.12 88.14
  Q 115.02 87.03 114.30 86.21
  A 0.84 0.84 0.0 0 0 112.88 86.49
  Q 112.11 88.70 113.98 89.13" stroke="#833f21"></path>
<path d="M 120.96 96.25
  Q 118.13 95.34 115.39 96.40
  A 0.90 0.89 -11.6 0 0 114.82 97.26
  L 114.83 97.57
  Q 114.85 98.09 115.33 97.90
  Q 117.89 96.88 119.77 98.04
  Q 121.00 98.79 119.57 98.99
  L 115.03 99.59
  A 0.52 0.52 0.0 0 0 114.59 100.20
  L 114.69 100.73
  Q 114.80 101.32 115.33 101.05
  Q 118.36 99.56 120.04 101.44
  Q 121.03 102.54 119.56 102.37
  Q 117.31 102.11 115.58 102.82
  Q 115.21 102.97 115.04 103.24
  Q 114.88 103.51 114.87 103.86
  A 0.53 0.52 -0.5 0 0 115.42 104.39
  Q 116.37 104.36 117.21 103.93
  Q 117.59 103.73 118.02 103.76
  Q 119.44 103.88 119.52 104.25
  Q 120.39 108.08 121.64 104.28
  Q 123.81 97.69 123.75 90.72
  Q 123.74 90.22 123.35 89.91
  Q 121.53 88.50 119.42 89.14
  Q 118.69 89.36 118.82 90.19
  A 0.68 0.68 0.0 0 0 119.46 90.77
  Q 120.73 90.84 121.56 91.70
  A 0.45 0.44 -20.7 0 1 121.22 92.45
  Q 115.75 92.26 115.28 93.53
  Q 114.96 94.42 115.87 94.17
  Q 118.53 93.46 120.88 94.92
  A 0.84 0.83 18.5 0 1 121.27 95.69
  L 121.25 96.05
  Q 121.23 96.33 120.96 96.25" stroke="#94765a"></path>
<path d="M 112.66 93.79
  Q 113.52 93.11 113.95 91.94
  A 1.20 1.20 0.0 0 0 112.00 90.65
  C 107.32 95.04 108.76 96.46 110.12 101.82
  Q 110.40 102.95 111.46 103.44
  L 111.96 103.67
  Q 112.93 104.12 112.86 103.05
  L 112.29 94.61
  Q 112.25 94.10 112.66 93.79" stroke="#833f21"></path>
<path d="M 36.59 116.56
  C 47.76 116.35 56.16 122.50 58.77 133.39
  Q 59.33 135.75 60.16 138.10" stroke="#955922"></path>
<path d="M 60.16 138.10
  Q 59.96 137.94 59.93 138.17
  Q 59.91 138.34 59.75 138.38
  Q 59.57 138.42 59.49 138.23
  A 0.13 0.13 0.0 0 0 59.24 138.26
  L 57.90 149.70
  Q 57.83 150.30 58.36 150.61
  Q 60.29 151.73 61.78 151.99" stroke="#833f21"></path>
<path d="M 61.78 151.99
  Q 82.17 157.28 99.52 147.92" stroke="#955922"></path>
<path d="M 99.52 147.92
  Q 100.66 147.51 101.21 147.01
  Q 101.75 146.53 101.53 145.34
  Q 99.73 135.66 97.28 125.46" stroke="#94765a"></path>
<path d="M 97.28 125.46
  Q 97.35 122.88 95.96 120.08
  Q 95.02 118.19 94.96 120.29
  C 94.86 123.81 95.01 127.81 94.15 131.19
  Q 92.03 139.53 86.65 146.83
  Q 86.07 147.62 86.01 146.64
  C 85.45 137.09 76.55 129.24 68.57 125.00" stroke="#955922"></path>
<path d="M 68.57 125.00
  C 59.54 118.09 53.17 112.96 49.22 102.95
  Q 49.03 102.46 48.52 102.56
  Q 36.20 104.99 31.50 116.49
  A 0.56 0.56 0.0 0 0 32.10 117.26
  L 36.59 116.56" stroke="#833f21"></path>
<path d="M 68.57 125.00
  Q 67.35 125.08 66.98 125.69
  Q 66.70 126.15 67.09 126.54
  C 69.37 128.81 73.02 131.56 73.34 134.61
  Q 73.57 136.91 72.16 135.08
  Q 69.18 131.25 64.79 128.29
  C 60.05 125.10 56.04 120.23 51.45 117.74
  Q 43.96 113.68 35.14 115.65
  Q 34.97 115.69 34.86 115.79
  Q 34.76 115.89 34.70 115.99
  Q 34.45 116.44 34.95 116.56
  Q 35.64 116.72 36.59 116.56" stroke="#ec8403"></path>
<path d="M 97.28 125.46
  Q 96.40 136.87 99.52 147.92" stroke="#fcbb3c"></path>
<path d="M 61.78 151.99
  L 60.16 138.10" stroke="#ec8403"></path>
<path d="M 114.21 110.06
  Q 114.60 110.95 115.41 111.29
  Q 115.88 111.49 116.06 111.02
  Q 116.92 108.90 115.99 107.17" stroke="#94765a"></path>
<path d="M 115.99 107.17
  Q 113.48 104.82 114.21 110.06" stroke="#833f21"></path>
<path d="M 115.99 107.17
  Q 114.91 107.54 114.21 110.06" stroke="#eba13b"></path>
<path d="M 99.97 127.68
  Q 100.15 132.77 102.06 136.75
  A 0.85 0.84 -12.9 0 0 102.82 137.22
  Q 103.93 137.20 104.92 136.44" stroke="#833f21"></path>
<path d="M 104.92 136.44
  Q 104.89 136.28 104.87 136.12" stroke="#955922"></path>
<path d="M 104.87 136.12
  Q 108.37 135.21 110.81 132.04
  Q 116.58 124.56 117.50 115.75
  Q 117.58 115.00 116.13 114.68" stroke="#94765a"></path>
<path d="M 116.13 114.68
  L 113.04 112.57
  Q 112.58 112.26 112.33 112.75
  Q 109.86 117.66 104.74 119.74
  A 0.44 0.44 0.0 0 0 104.56 120.42
  Q 106.57 122.97 106.47 125.29
  Q 106.38 127.26 105.56 125.47
  Q 103.61 121.18 99.81 118.40
  A 0.31 0.30 9.0 0 0 99.34 118.74
  C 100.03 120.88 101.59 123.71 101.37 126.21
  Q 101.32 126.83 100.99 126.30
  L 99.45 123.84
  Q 98.86 122.89 98.91 124.01
  Q 99.01 126.33 99.97 127.68" stroke="#955922"></path>
<path d="M 116.13 114.68
  Q 113.91 126.68 104.87 136.12" stroke="#fcbb3c"></path>
<path d="M 104.92 136.44
  L 99.97 127.68" stroke="#ec8403"></path>
<path d="M 37.93 131.70
  Q 35.91 131.10 33.76 131.63
  A 0.22 0.22 0.0 0 0 33.64 131.98
  Q 36.09 135.17 38.90 135.33" stroke="#833f21"></path>
<path d="M 38.90 135.33
  Q 39.80 135.10 40.98 135.37" stroke="#955922"></path>
<path d="M 40.98 135.37
  Q 48.82 136.83 54.15 145.04" stroke="#94765a"></path>
<path d="M 54.15 145.04
  Q 55.07 144.73 55.67 142.80
  C 56.25 140.95 55.85 138.82 55.82 136.82
  Q 55.80 135.57 56.30 136.72
  Q 56.75 137.76 56.81 138.88
  Q 56.89 140.44 57.79 139.17
  C 61.64 133.73 52.15 123.95 48.12 121.36
  Q 42.92 118.01 36.12 118.72
  A 6.30 6.29 -73.7 0 0 31.83 121.07
  L 30.80 122.34
  Q 29.42 124.07 31.63 124.00
  Q 35.13 123.89 38.06 125.68
  Q 38.77 126.11 37.94 126.10
  Q 32.38 126.05 30.45 127.61
  Q 28.76 128.98 30.93 128.79
  Q 35.72 128.37 39.75 131.00
  Q 40.66 131.60 39.49 131.87
  Q 39.03 131.98 37.93 131.70" stroke="#955922"></path>
<path d="M 54.15 145.04
  Q 52.95 136.38 42.65 134.80
  Q 42.20 134.73 41.80 134.94
  L 40.98 135.37" stroke="#fcbb3c"></path>
<path d="M 38.90 135.33
  Q 35.14 131.38 37.93 131.70" stroke="#ec8403"></path>
<path d="M 161.78 88.19
  C 168.53 80.46 163.76 49.06 156.83 41.89
  A 2.33 2.33 0.0 0 0 153.41 41.97
  Q 152.01 43.56 151.47 46.24
  C 149.07 58.22 151.75 78.19 159.38 88.11
  A 1.56 1.55 46.7 0 0 161.78 88.19" stroke="#955922"></path>
<path d="M 95.32 54.27
  L 97.07 50.48
  Q 97.32 49.94 96.87 49.54
  L 95.63 48.43
  Q 95.07 47.93 94.93 48.66
  Q 94.39 51.49 94.87 54.22
  Q 95.00 54.97 95.32 54.27" stroke="#fecd77"></path>
<path d="M 94.93 60.15
  A 0.42 0.42 0.0 0 0 94.95 60.87
  L 98.10 62.57
  A 0.42 0.42 0.0 0 0 98.71 62.28
  L 99.62 58.07
  A 0.42 0.42 0.0 0 0 98.99 57.62
  L 94.93 60.15" stroke="#fecd77"></path>
<path d="M 158.0710 65.6676
  A 1.31 1.11 79.4 0 0 158.9211 64.1758
  A 1.31 1.11 79.4 0 0 157.5890 63.0924
  A 1.31 1.11 79.4 0 0 156.7389 64.5842
  A 1.31 1.11 79.4 0 0 158.0710 65.6676" stroke="#955922"></path>
<path d="M 69.03 71.79
  Q 68.81 72.84 67.80 73.63
  Q 67.42 73.93 67.57 74.39
  C 68.86 78.19 74.05 78.20 73.83 73.16" stroke="#fcbb3c"></path>
<path d="M 73.83 73.16
  Q 74.70 72.06 73.82 70.37
  Q 73.58 69.91 73.09 69.76
  Q 70.37 68.91 68.67 71.23
  Q 68.47 71.49 68.74 71.69
  Q 68.88 71.80 69.03 71.79" stroke="#955922"></path>
<path d="M 73.83 73.16
  Q 73.24 73.24 72.69 73.09
  A 0.51 0.50 21.4 0 1 72.37 72.36
  L 72.63 71.88
  A 0.45 0.04 87.4 0 0 72.65 71.50
  Q 72.63 70.90 71.12 71.03
  Q 70.53 71.08 70.00 71.33
  L 69.03 71.79" stroke="#94765a"></path>
</g>
<path d="M 0.00 0.00
  L 180.00 0.00
  L 180.00 180.00
  L 0.00 180.00
  L 0.00 0.00
  Z
  M 20.42 31.93
  C 19.87 29.58 20.60 26.80 22.05 25.09
  Q 24.15 22.62 21.44 24.41
  Q 18.05 26.64 19.28 31.80
  Q 19.34 32.08 19.63 32.14
  L 20.14 32.23
  Q 20.51 32.30 20.42 31.93
  Z
  M 27.73 58.72
  L 28.11 58.65
  A 0.46 0.46 0.0 0 1 28.56 59.36
  Q 25.77 63.42 23.10 67.76
  Q 8.22 91.99 16.56 119.46
  Q 18.84 126.97 23.14 129.68
  Q 29.38 133.48 34.52 138.11
  Q 42.14 144.97 42.82 145.49
  C 48.14 149.52 54.73 153.81 60.99 155.42
  Q 87.60 162.27 108.87 145.63
  Q 111.67 143.44 114.85 140.43
  Q 115.78 139.85 116.45 138.35
  C 118.00 134.91 120.84 131.44 122.97 128.28
  C 127.71 121.23 131.11 112.27 132.09 103.87
  Q 132.73 98.39 131.75 89.52
  Q 131.56 87.77 132.95 87.92
  Q 144.01 89.99 154.57 93.87
  C 158.29 95.24 162.16 95.97 164.27 92.27
  C 170.60 81.16 168.00 62.41 164.39 50.84
  C 162.77 45.66 157.86 30.18 149.49 37.15
  C 139.58 45.41 131.29 53.21 119.61 61.38
  C 115.78 56.93 110.61 51.25 104.94 49.29
  Q 104.48 48.98 104.30 49.25
  Q 101.27 47.80 99.43 45.94
  L 102.48 42.72
  A 1.05 1.04 40.5 0 0 102.35 41.17
  L 99.48 38.98
  Q 98.94 38.57 98.83 39.23
  L 97.87 44.76
  Q 88.76 41.37 84.74 40.82
  C 77.84 39.88 71.18 39.12 64.26 40.52
  C 60.12 35.38 55.36 35.13 48.54 35.10
  Q 38.53 35.05 29.62 38.91
  Q 27.44 39.85 29.14 38.19
  C 31.10 36.28 32.73 34.79 32.42 31.90
  C 32.08 28.68 29.32 27.00 26.29 28.58
  A 1.47 1.45 -13.2 0 0 25.50 29.84
  L 25.49 30.26
  A 0.50 0.50 0.0 0 0 26.23 30.71
  C 29.79 28.74 30.68 32.71 29.14 34.89
  C 26.15 39.12 18.55 43.26 14.28 37.95
  A 0.30 0.30 0.0 0 0 13.79 37.98
  Q 13.61 38.28 13.74 38.54
  Q 16.62 44.40 23.49 43.85
  Q 25.02 43.72 26.62 43.68
  Q 27.26 43.66 26.76 44.06
  Q 21.14 48.46 24.95 54.78
  A 0.98 0.98 0.0 0 1 24.15 56.26
  C 20.49 56.41 15.22 54.58 16.42 61.07
  Q 16.87 63.47 17.24 61.06
  C 17.47 59.60 17.54 58.63 19.16 58.20
  Q 19.67 58.07 20.14 58.28
  Q 24.06 60.06 27.73 58.72
  Z
  M 105.97 46.19
  Q 108.39 46.94 110.89 47.26
  A 0.82 0.81 20.8 0 0 111.66 46.92
  L 114.85 42.51
  A 0.53 0.53 0.0 0 0 114.65 41.73
  Q 112.15 40.55 110.16 38.63
  A 0.32 0.32 0.0 0 0 109.63 38.96
  L 111.30 43.85
  A 1.42 1.41 83.3 0 1 109.83 45.72
  Q 107.89 45.53 106.05 45.61
  Q 104.36 45.69 105.97 46.19
  Z" fill="#ffffff"></path>
<path d="M 22.05 25.09
  C 20.60 26.80 19.87 29.58 20.42 31.93
  Q 20.51 32.30 20.14 32.23
  L 19.63 32.14
  Q 19.34 32.08 19.28 31.80
  Q 18.05 26.64 21.44 24.41
  Q 24.15 22.62 22.05 25.09
  Z" fill="#2c1440"></path>
<path d="M 64.26 40.52
  C 67.63 44.11 71.65 49.08 76.10 51.20
  C 81.26 53.66 87.12 57.30 81.43 63.50
  A 0.69 0.69 0.0 0 0 81.45 64.45
  Q 81.75 64.76 82.16 64.91
  A 0.54 0.54 0.0 0 1 82.48 65.57
  Q 82.04 67.00 82.45 68.43
  A 0.58 0.55 61.9 0 1 82.29 69.01
  L 81.88 69.38
  A 0.37 0.37 0.0 0 0 82.01 70.01
  C 85.20 71.05 87.79 73.55 84.41 76.67
  A 0.18 0.17 40.4 0 0 84.44 76.95
  C 89.88 80.30 89.75 85.84 85.54 90.03
  Q 85.17 90.40 85.27 90.91
  Q 85.76 93.41 86.80 95.19
  C 90.59 101.72 93.61 106.59 94.86 113.67
  Q 94.94 114.15 95.43 114.24
  C 98.06 114.73 100.09 114.63 102.36 112.94
  Q 106.25 110.05 109.30 106.40
  A 1.28 1.28 0.0 0 0 109.17 104.63
  C 108.35 103.87 107.94 102.98 107.80 101.77
  C 107.55 99.68 106.36 97.77 106.65 95.85
  C 107.07 93.17 109.33 90.49 111.03 88.38
  A 1.65 1.64 17.1 0 0 109.61 85.71
  L 108.04 85.84
  A 0.66 0.66 0.0 0 0 107.46 86.68
  Q 107.76 87.73 108.64 88.37
  A 0.68 0.67 -64.7 0 1 108.89 89.09
  Q 108.68 89.83 107.73 89.74
  Q 105.73 89.54 104.79 87.52
  A 0.47 0.46 -32.1 0 0 104.07 87.36
  L 103.61 87.74
  Q 103.16 88.11 102.59 88.25
  C 96.04 89.77 90.42 68.07 100.56 68.25
  Q 101.06 68.26 101.28 67.80
  Q 101.59 67.12 101.95 66.49
  Q 103.08 64.50 104.60 65.11
  Q 106.30 65.80 104.77 66.82
  Q 103.81 67.46 103.72 68.71
  A 0.39 0.39 0.0 0 0 104.23 69.11
  Q 112.67 66.52 119.61 61.38
  C 131.29 53.21 139.58 45.41 149.49 37.15
  C 157.86 30.18 162.77 45.66 164.39 50.84
  C 168.00 62.41 170.60 81.16 164.27 92.27
  C 162.16 95.97 158.29 95.24 154.57 93.87
  Q 144.01 89.99 132.95 87.92
  L 121.83 86.09
  Q 121.35 86.02 121.30 86.50
  Q 121.27 86.85 121.50 87.18
  A 0.56 0.43 79.4 0 0 121.61 87.28
  L 125.00 89.07
  Q 125.55 89.36 125.53 89.98
  C 125.39 94.15 125.10 98.28 123.95 102.30
  C 123.29 104.63 123.66 108.06 120.34 108.33
  Q 119.79 108.37 119.80 108.93
  Q 119.98 125.39 114.85 140.43
  Q 111.67 143.44 108.87 145.63
  Q 87.60 162.27 60.99 155.42
  C 54.73 153.81 48.14 149.52 42.82 145.49
  Q 42.14 144.97 34.52 138.11
  Q 29.38 133.48 23.14 129.68
  L 24.46 126.76
  A 1.20 1.17 -34.8 0 0 24.56 126.24
  Q 24.39 120.71 25.88 115.39
  C 28.45 106.27 35.53 103.77 42.83 99.49
  A 0.26 0.26 0.0 0 0 42.80 99.03
  Q 32.14 94.72 23.20 87.50
  A 0.37 0.36 -53.8 0 1 23.13 87.00
  C 31.77 74.22 37.97 60.96 38.14 45.25
  A 0.83 0.83 0.0 0 0 37.15 44.42
  C 33.64 45.11 27.12 46.89 27.37 51.48
  C 27.52 54.09 29.70 55.22 31.86 53.43
  Q 32.29 53.07 32.52 53.59
  Q 32.72 54.07 32.50 54.52
  Q 31.06 57.45 27.73 58.72
  Q 24.06 60.06 20.14 58.28
  Q 19.67 58.07 19.16 58.20
  C 17.54 58.63 17.47 59.60 17.24 61.06
  Q 16.87 63.47 16.42 61.07
  C 15.22 54.58 20.49 56.41 24.15 56.26
  A 0.98 0.98 0.0 0 0 24.95 54.78
  Q 21.14 48.46 26.76 44.06
  Q 27.26 43.66 26.62 43.68
  Q 25.02 43.72 23.49 43.85
  Q 16.62 44.40 13.74 38.54
  Q 13.61 38.28 13.79 37.98
  A 0.30 0.30 0.0 0 1 14.28 37.95
  C 18.55 43.26 26.15 39.12 29.14 34.89
  C 30.68 32.71 29.79 28.74 26.23 30.71
  A 0.50 0.50 0.0 0 1 25.49 30.26
  L 25.50 29.84
  A 1.47 1.45 -13.2 0 1 26.29 28.58
  C 29.32 27.00 32.08 28.68 32.42 31.90
  C 32.73 34.79 31.10 36.28 29.14 38.19
  Q 27.44 39.85 29.62 38.91
  Q 38.53 35.05 48.54 35.10
  C 55.36 35.13 60.12 35.38 64.26 40.52
  Z
  M 44.22 38.01
  Q 41.54 37.76 38.24 39.07
  Q 33.71 39.37 28.22 42.70
  Q 28.05 42.80 28.02 43.04
  Q 27.97 43.43 28.35 43.30
  C 36.32 40.60 43.16 39.75 50.21 45.18
  A 0.42 0.42 0.0 0 1 50.07 45.91
  L 49.53 46.06
  L 47.32 45.49
  Q 44.79 43.87 43.58 44.73
  Q 42.80 45.28 42.75 47.52
  C 42.47 57.98 37.35 69.91 32.16 79.20
  Q 32.13 79.23 32.15 79.27
  Q 32.19 79.43 32.39 79.53
  A 0.32 0.30 -52.7 0 0 32.76 79.47
  Q 39.63 72.43 49.48 74.39
  Q 49.91 74.47 50.19 74.15
  L 60.50 62.61
  C 65.73 57.97 72.81 54.19 79.61 58.15
  Q 80.24 58.52 79.84 57.91
  Q 79.16 56.87 78.06 56.16
  C 73.66 53.31 69.12 50.48 65.43 46.65
  C 61.87 42.96 59.69 39.45 54.26 38.31
  Q 49.47 37.31 44.22 38.01
  Z
  M 161.3705 91.0645
  A 26.53 7.94 82.2 0 0 165.6365 63.7024
  A 26.53 7.94 82.2 0 0 154.1695 38.4955
  A 26.53 7.94 82.2 0 0 149.9035 65.8576
  A 26.53 7.94 82.2 0 0 161.3705 91.0645
  Z
  M 111.18 73.04
  Q 110.89 74.66 111.49 76.57
  Q 111.93 81.14 114.72 83.15
  C 128.53 83.66 140.13 86.45 153.33 90.34
  Q 153.90 90.51 153.74 89.94
  Q 153.48 88.96 152.55 88.29
  Q 148.79 78.84 147.03 68.88
  Q 145.67 61.27 145.70 53.27
  L 147.13 43.02
  Q 147.23 42.30 146.67 42.77
  C 143.60 45.31 140.55 48.23 137.62 50.47
  Q 134.11 53.16 130.68 55.93
  C 124.58 60.84 118.26 65.04 111.86 69.31
  A 1.27 1.26 -11.0 0 0 111.34 70.07
  Q 111.01 71.51 111.18 73.04
  Z
  M 74.41 79.88
  Q 75.38 79.25 75.96 78.48
  Q 76.28 78.06 75.91 77.70
  Q 74.06 75.87 75.97 73.48
  Q 78.66 72.67 76.60 75.12
  A 0.81 0.73 -15.5 0 0 76.46 75.34
  Q 76.28 75.78 76.45 76.12
  A 0.66 0.66 0.0 0 0 77.49 76.30
  Q 77.79 76.01 78.19 75.91
  A 1.08 1.08 0.0 0 1 79.01 76.01
  Q 81.28 77.30 82.93 76.14
  Q 85.02 74.45 83.88 72.78
  A 1.44 1.41 78.5 0 0 83.02 72.20
  Q 80.74 71.72 78.82 70.14
  Q 77.88 69.42 77.09 68.57
  Q 76.76 68.21 76.78 67.82
  Q 76.80 67.42 76.98 66.95
  Q 78.08 65.75 79.46 67.41
  A 0.62 0.62 0.0 0 0 80.40 67.42
  L 80.58 67.22
  A 0.74 0.74 0.0 0 0 80.53 66.19
  Q 79.40 65.17 78.96 63.81
  C 78.10 60.56 76.26 58.67 72.66 59.15
  C 66.07 60.02 62.45 63.43 58.25 68.51
  Q 57.89 68.95 58.14 69.46
  Q 60.70 74.66 62.66 80.11
  Q 64.16 84.26 66.27 85.22
  C 70.28 87.05 72.81 82.75 74.41 79.88
  Z
  M 102.34 74.89
  Q 102.14 76.74 102.69 78.67
  Q 103.01 81.59 104.74 83.84
  Q 105.09 84.30 105.62 84.09
  Q 108.21 83.08 111.00 83.29
  A 0.45 0.44 -6.1 0 0 111.47 82.72
  L 109.79 77.25
  L 109.31 73.37
  Q 109.60 72.15 109.47 70.76
  Q 109.41 70.24 108.89 70.34
  L 102.83 71.53
  A 0.60 0.59 -0.7 0 0 102.36 72.01
  Q 102.11 73.40 102.34 74.89
  Z
  M 90.04 131.15
  C 92.95 123.67 92.14 113.51 89.67 106.12
  C 88.11 101.44 83.88 94.56 82.40 87.65
  Q 82.27 87.05 81.72 87.32
  Q 81.09 87.61 81.07 88.51
  Q 80.88 94.48 83.15 99.96
  Q 83.34 100.41 82.86 100.33
  C 79.47 99.82 76.25 99.42 75.05 96.18
  Q 74.39 94.40 74.09 96.28
  C 73.71 98.77 74.65 100.86 76.45 103.40
  Q 76.89 104.02 76.24 103.63
  C 72.26 101.21 71.74 95.96 73.39 92.02
  C 74.16 90.15 75.85 88.21 77.01 86.22
  C 78.13 84.31 79.97 83.29 80.82 81.00
  A 1.24 1.23 -1.9 0 1 81.46 80.32
  Q 82.31 79.94 82.90 80.42
  Q 83.34 80.77 83.50 81.88
  Q 83.82 84.18 85.00 86.18
  A 0.31 0.30 41.7 0 0 85.54 86.15
  C 87.01 82.93 86.61 78.64 82.23 78.21
  C 80.72 78.06 79.02 79.03 77.32 79.28
  Q 76.85 79.35 76.49 79.66
  C 72.88 82.80 73.75 87.94 68.28 89.68
  Q 68.05 89.75 67.98 89.52
  L 67.91 89.27
  Q 67.89 89.23 67.94 89.21
  Q 68.93 88.86 69.62 88.10
  A 0.38 0.38 0.0 0 0 69.29 87.47
  Q 65.74 87.89 63.69 85.07
  Q 63.64 84.99 63.54 85.00
  Q 63.40 85.01 63.26 85.03
  Q 63.07 85.06 63.16 85.22
  Q 63.51 85.88 63.58 86.62
  Q 63.64 87.38 63.16 86.79
  C 61.37 84.57 61.39 81.61 60.53 79.13
  Q 60.16 78.07 60.05 79.18
  L 59.55 83.93
  Q 58.95 89.11 59.82 93.66
  Q 60.68 98.19 58.92 93.93
  Q 58.22 92.24 58.10 88.00
  C 57.97 83.44 59.31 75.46 56.57 71.68
  A 0.83 0.82 49.7 0 0 55.32 71.57
  C 53.78 73.10 52.73 74.70 52.87 77.06
  Q 53.35 85.03 53.92 93.00
  C 54.92 107.10 66.79 113.43 77.45 119.32
  C 82.32 122.01 87.40 127.93 88.56 133.92
  Q 88.74 134.87 89.06 133.96
  L 90.04 131.15
  Z
  M 97.76 76.62
  Q 97.74 79.37 99.38 81.88
  Q 99.63 82.26 100.09 82.27
  Q 100.27 82.27 100.43 82.22
  Q 100.91 82.05 100.83 81.54
  L 99.93 75.55
  L 100.03 72.54
  Q 100.08 70.72 98.75 71.95
  Q 97.31 73.29 97.76 76.62
  Z
  M 47.09 86.46
  Q 48.16 87.59 50.39 87.18
  Q 50.95 87.08 51.16 86.56
  Q 51.90 84.77 51.50 82.84
  Q 51.31 81.95 50.62 82.54
  Q 49.75 83.29 49.68 84.42
  Q 49.64 85.07 49.04 84.83
  Q 48.58 84.65 48.73 83.93
  C 48.97 82.82 48.57 82.20 47.97 81.26
  Q 47.23 80.13 47.95 79.24
  C 49.22 79.28 49.42 80.74 50.69 80.84
  Q 51.26 80.88 51.08 80.34
  C 48.84 73.39 39.22 79.99 47.09 86.46
  Z
  M 82.20 86.23
  L 82.03 84.96
  A 0.28 0.28 0.0 0 0 81.71 84.72
  L 81.25 84.79
  A 2.64 0.78 -7.9 0 0 78.75 85.92
  L 78.79 86.20
  A 2.64 0.78 -7.9 0 0 81.51 86.61
  L 81.96 86.55
  A 0.28 0.28 0.0 0 0 82.20 86.23
  Z
  M 113.98 89.13
  Q 115.23 89.42 115.12 88.14
  Q 115.02 87.03 114.30 86.21
  A 0.84 0.84 0.0 0 0 112.88 86.49
  Q 112.11 88.70 113.98 89.13
  Z
  M 120.96 96.25
  Q 118.13 95.34 115.39 96.40
  A 0.90 0.89 -11.6 0 0 114.82 97.26
  L 114.83 97.57
  Q 114.85 98.09 115.33 97.90
  Q 117.89 96.88 119.77 98.04
  Q 121.00 98.79 119.57 98.99
  L 115.03 99.59
  A 0.52 0.52 0.0 0 0 114.59 100.20
  L 114.69 100.73
  Q 114.80 101.32 115.33 101.05
  Q 118.36 99.56 120.04 101.44
  Q 121.03 102.54 119.56 102.37
  Q 117.31 102.11 115.58 102.82
  Q 115.21 102.97 115.04 103.24
  Q 114.88 103.51 114.87 103.86
  A 0.53 0.52 -0.5 0 0 115.42 104.39
  Q 116.37 104.36 117.21 103.93
  Q 117.59 103.73 118.02 103.76
  Q 119.44 103.88 119.52 104.25
  Q 120.39 108.08 121.64 104.28
  Q 123.81 97.69 123.75 90.72
  Q 123.74 90.22 123.35 89.91
  Q 121.53 88.50 119.42 89.14
  Q 118.69 89.36 118.82 90.19
  A 0.68 0.68 0.0 0 0 119.46 90.77
  Q 120.73 90.84 121.56 91.70
  A 0.45 0.44 -20.7 0 1 121.22 92.45
  Q 115.75 92.26 115.28 93.53
  Q 114.96 94.42 115.87 94.17
  Q 118.53 93.46 120.88 94.92
  A 0.84 0.83 18.5 0 1 121.27 95.69
  L 121.25 96.05
  Q 121.23 96.33 120.96 96.25
  Z
  M 112.66 93.79
  Q 113.52 93.11 113.95 91.94
  A 1.20 1.20 0.0 0 0 112.00 90.65
  C 107.32 95.04 108.76 96.46 110.12 101.82
  Q 110.40 102.95 111.46 103.44
  L 111.96 103.67
  Q 112.93 104.12 112.86 103.05
  L 112.29 94.61
  Q 112.25 94.10 112.66 93.79
  Z
  M 36.59 116.56
  C 47.76 116.35 56.16 122.50 58.77 133.39
  Q 59.33 135.75 60.16 138.10
  Q 59.96 137.94 59.93 138.17
  Q 59.91 138.34 59.75 138.38
  Q 59.57 138.42 59.49 138.23
  A 0.13 0.13 0.0 0 0 59.24 138.26
  L 57.90 149.70
  Q 57.83 150.30 58.36 150.61
  Q 60.29 151.73 61.78 151.99
  Q 82.17 157.28 99.52 147.92
  Q 100.66 147.51 101.21 147.01
  Q 101.75 146.53 101.53 145.34
  Q 99.73 135.66 97.28 125.46
  Q 97.35 122.88 95.96 120.08
  Q 95.02 118.19 94.96 120.29
  C 94.86 123.81 95.01 127.81 94.15 131.19
  Q 92.03 139.53 86.65 146.83
  Q 86.07 147.62 86.01 146.64
  C 85.45 137.09 76.55 129.24 68.57 125.00
  C 59.54 118.09 53.17 112.96 49.22 102.95
  Q 49.03 102.46 48.52 102.56
  Q 36.20 104.99 31.50 116.49
  A 0.56 0.56 0.0 0 0 32.10 117.26
  L 36.59 116.56
  Z
  M 114.21 110.06
  Q 114.60 110.95 115.41 111.29
  Q 115.88 111.49 116.06 111.02
  Q 116.92 108.90 115.99 107.17
  Q 113.48 104.82 114.21 110.06
  Z
  M 99.97 127.68
  Q 100.15 132.77 102.06 136.75
  A 0.85 0.84 -12.9 0 0 102.82 137.22
  Q 103.93 137.20 104.92 136.44
  Q 104.89 136.28 104.87 136.12
  Q 108.37 135.21 110.81 132.04
  Q 116.58 124.56 117.50 115.75
  Q 117.58 115.00 116.13 114.68
  L 113.04 112.57
  Q 112.58 112.26 112.33 112.75
  Q 109.86 117.66 104.74 119.74
  A 0.44 0.44 0.0 0 0 104.56 120.42
  Q 106.57 122.97 106.47 125.29
  Q 106.38 127.26 105.56 125.47
  Q 103.61 121.18 99.81 118.40
  A 0.31 0.30 9.0 0 0 99.34 118.74
  C 100.03 120.88 101.59 123.71 101.37 126.21
  Q 101.32 126.83 100.99 126.30
  L 99.45 123.84
  Q 98.86 122.89 98.91 124.01
  Q 99.01 126.33 99.97 127.68
  Z
  M 37.93 131.70
  Q 35.91 131.10 33.76 131.63
  A 0.22 0.22 0.0 0 0 33.64 131.98
  Q 36.09 135.17 38.90 135.33
  Q 39.80 135.10 40.98 135.37
  Q 48.82 136.83 54.15 145.04
  Q 55.07 144.73 55.67 142.80
  C 56.25 140.95 55.85 138.82 55.82 136.82
  Q 55.80 135.57 56.30 136.72
  Q 56.75 137.76 56.81 138.88
  Q 56.89 140.44 57.79 139.17
  C 61.64 133.73 52.15 123.95 48.12 121.36
  Q 42.92 118.01 36.12 118.72
  A 6.30 6.29 -73.7 0 0 31.83 121.07
  L 30.80 122.34
  Q 29.42 124.07 31.63 124.00
  Q 35.13 123.89 38.06 125.68
  Q 38.77 126.11 37.94 126.10
  Q 32.38 126.05 30.45 127.61
  Q 28.76 128.98 30.93 128.79
  Q 35.72 128.37 39.75 131.00
  Q 40.66 131.60 39.49 131.87
  Q 39.03 131.98 37.93 131.70
  Z" fill="#2c1440"></path>
<path d="M 60.50 62.61
  Q 60.08 62.37 59.88 61.97
  L 68.25 54.97
  A 0.66 0.66 0.0 0 0 68.30 54.00
  Q 64.04 49.62 60.27 44.69
  C 55.92 39.03 51.42 39.28 44.93 39.14
  A 1.00 1.00 0.0 0 1 43.96 38.31
  Q 43.94 38.24 44.22 38.01
  Q 49.47 37.31 54.26 38.31
  C 59.69 39.45 61.87 42.96 65.43 46.65
  C 69.12 50.48 73.66 53.31 78.06 56.16
  Q 79.16 56.87 79.84 57.91
  Q 80.24 58.52 79.61 58.15
  C 72.81 54.19 65.73 57.97 60.50 62.61
  Z" fill="#8cdfff"></path>
<path d="M 44.22 38.01
  Q 43.94 38.24 43.96 38.31
  A 1.00 1.00 0.0 0 0 44.93 39.14
  C 51.42 39.28 55.92 39.03 60.27 44.69
  Q 64.04 49.62 68.30 54.00
  A 0.66 0.66 0.0 0 1 68.25 54.97
  L 59.88 61.97
  C 56.86 63.16 54.38 66.54 51.81 68.75
  Q 50.84 69.58 50.30 68.42
  Q 45.69 58.45 45.50 46.90
  Q 45.49 46.04 45.83 45.70
  Q 46.34 45.21 47.32 45.49
  L 49.53 46.06
  L 52.14 46.69
  Q 54.10 47.15 52.72 45.68
  Q 47.75 40.37 38.24 39.07
  Q 41.54 37.76 44.22 38.01
  Z" fill="#5c97f6"></path>
<path d="M 106.05 45.61
  Q 107.89 45.53 109.83 45.72
  A 1.42 1.41 83.3 0 0 111.30 43.85
  L 109.63 38.96
  A 0.32 0.32 0.0 0 1 110.16 38.63
  Q 112.15 40.55 114.65 41.73
  A 0.53 0.53 0.0 0 1 114.85 42.51
  L 111.66 46.92
  A 0.82 0.81 20.8 0 1 110.89 47.26
  Q 108.39 46.94 105.97 46.19
  Q 104.36 45.69 106.05 45.61
  Z" fill="#fd9e04"></path>
<path d="M 161.3705 91.0645
  A 26.53 7.94 82.2 0 1 149.9035 65.8576
  A 26.53 7.94 82.2 0 1 154.1695 38.4955
  A 26.53 7.94 82.2 0 1 165.6365 63.7024
  A 26.53 7.94 82.2 0 1 161.3705 91.0645
  Z
  M 161.78 88.19
  C 168.53 80.46 163.76 49.06 156.83 41.89
  A 2.33 2.33 0.0 0 0 153.41 41.97
  Q 152.01 43.56 151.47 46.24
  C 149.07 58.22 151.75 78.19 159.38 88.11
  A 1.56 1.55 46.7 0 0 161.78 88.19
  Z" fill="#fd9e04"></path>
<path d="M 38.24 39.07
  Q 47.75 40.37 52.72 45.68
  Q 54.10 47.15 52.14 46.69
  L 49.53 46.06
  L 50.07 45.91
  A 0.42 0.42 0.0 0 0 50.21 45.18
  C 43.16 39.75 36.32 40.60 28.35 43.30
  Q 27.97 43.43 28.02 43.04
  Q 28.05 42.80 28.22 42.70
  Q 33.71 39.37 38.24 39.07
  Z" fill="#355ba5"></path>
<path d="M 99.43 45.94
  L 98.32 47.13
  A 0.44 0.44 0.0 0 1 97.57 46.76
  L 97.87 44.76
  L 98.83 39.23
  Q 98.94 38.57 99.48 38.98
  L 102.35 41.17
  A 1.05 1.04 40.5 0 1 102.48 42.72
  L 99.43 45.94
  Z" fill="#fd9e04"></path>
<path d="M 97.87 44.76
  L 97.57 46.76
  A 0.44 0.44 0.0 0 0 98.32 47.13
  L 99.43 45.94
  Q 101.27 47.80 104.30 49.25
  Q 102.95 50.84 100.63 50.75
  Q 100.36 50.74 100.27 51.00
  Q 100.22 51.15 100.16 51.30
  A 0.35 0.35 0.0 0 0 100.37 51.76
  Q 102.44 52.49 104.09 53.90
  A 0.52 0.51 20.2 0 0 104.94 53.51
  L 104.94 49.29
  C 110.61 51.25 115.78 56.93 119.61 61.38
  Q 112.67 66.52 104.23 69.11
  A 0.39 0.39 0.0 0 1 103.72 68.71
  Q 103.81 67.46 104.77 66.82
  Q 106.30 65.80 104.60 65.11
  Q 103.08 64.50 101.95 66.49
  Q 101.59 67.12 101.28 67.80
  Q 101.06 68.26 100.56 68.25
  C 90.42 68.07 96.04 89.77 102.59 88.25
  Q 103.16 88.11 103.61 87.74
  L 104.07 87.36
  A 0.47 0.46 -32.1 0 1 104.79 87.52
  Q 105.73 89.54 107.73 89.74
  Q 108.68 89.83 108.89 89.09
  A 0.68 0.67 -64.7 0 0 108.64 88.37
  Q 107.76 87.73 107.46 86.68
  A 0.66 0.66 0.0 0 1 108.04 85.84
  L 109.61 85.71
  A 1.65 1.64 17.1 0 1 111.03 88.38
  C 109.33 90.49 107.07 93.17 106.65 95.85
  C 106.36 97.77 107.55 99.68 107.80 101.77
  C 107.94 102.98 108.35 103.87 109.17 104.63
  A 1.28 1.28 0.0 0 1 109.30 106.40
  Q 106.25 110.05 102.36 112.94
  C 100.09 114.63 98.06 114.73 95.43 114.24
  Q 94.94 114.15 94.86 113.67
  C 93.61 106.59 90.59 101.72 86.80 95.19
  Q 85.76 93.41 85.27 90.91
  Q 85.17 90.40 85.54 90.03
  C 89.75 85.84 89.88 80.30 84.44 76.95
  A 0.18 0.17 40.4 0 1 84.41 76.67
  C 87.79 73.55 85.20 71.05 82.01 70.01
  A 0.37 0.37 0.0 0 1 81.88 69.38
  L 82.29 69.01
  A 0.58 0.55 61.9 0 0 82.45 68.43
  Q 82.04 67.00 82.48 65.57
  A 0.54 0.54 0.0 0 0 82.16 64.91
  Q 81.75 64.76 81.45 64.45
  A 0.69 0.69 0.0 0 1 81.43 63.50
  C 87.12 57.30 81.26 53.66 76.10 51.20
  C 71.65 49.08 67.63 44.11 64.26 40.52
  C 71.18 39.12 77.84 39.88 84.74 40.82
  Q 88.76 41.37 97.87 44.76
  Z
  M 95.32 54.27
  L 97.07 50.48
  Q 97.32 49.94 96.87 49.54
  L 95.63 48.43
  Q 95.07 47.93 94.93 48.66
  Q 94.39 51.49 94.87 54.22
  Q 95.00 54.97 95.32 54.27
  Z
  M 94.93 60.15
  A 0.42 0.42 0.0 0 0 94.95 60.87
  L 98.10 62.57
  A 0.42 0.42 0.0 0 0 98.71 62.28
  L 99.62 58.07
  A 0.42 0.42 0.0 0 0 98.99 57.62
  L 94.93 60.15
  Z" fill="#fffce9"></path>
<path d="M 156.83 41.89
  C 163.76 49.06 168.53 80.46 161.78 88.19
  A 1.56 1.55 46.7 0 1 159.38 88.11
  C 151.75 78.19 149.07 58.22 151.47 46.24
  Q 152.01 43.56 153.41 41.97
  A 2.33 2.33 0.0 0 1 156.83 41.89
  Z
  M 158.0710 65.6676
  A 1.31 1.11 79.4 0 0 158.9211 64.1758
  A 1.31 1.11 79.4 0 0 157.5890 63.0924
  A 1.31 1.11 79.4 0 0 156.7389 64.5842
  A 1.31 1.11 79.4 0 0 158.0710 65.6676
  Z" fill="#2c1440"></path>
<path d="M 145.70 53.27
  C 137.48 63.49 123.60 70.16 111.18 73.04
  Q 111.01 71.51 111.34 70.07
  A 1.27 1.26 -11.0 0 1 111.86 69.31
  C 118.26 65.04 124.58 60.84 130.68 55.93
  Q 134.11 53.16 137.62 50.47
  C 140.55 48.23 143.60 45.31 146.67 42.77
  Q 147.23 42.30 147.13 43.02
  L 145.70 53.27
  Z" fill="#ffffff"></path>
<path d="M 23.14 129.68
  Q 18.84 126.97 16.56 119.46
  Q 8.22 91.99 23.10 67.76
  Q 25.77 63.42 28.56 59.36
  A 0.46 0.46 0.0 0 0 28.11 58.65
  L 27.73 58.72
  Q 31.06 57.45 32.50 54.52
  Q 32.72 54.07 32.52 53.59
  Q 32.29 53.07 31.86 53.43
  C 29.70 55.22 27.52 54.09 27.37 51.48
  C 27.12 46.89 33.64 45.11 37.15 44.42
  A 0.83 0.83 0.0 0 1 38.14 45.25
  C 37.97 60.96 31.77 74.22 23.13 87.00
  A 0.37 0.36 -53.8 0 0 23.20 87.50
  Q 32.14 94.72 42.80 99.03
  A 0.26 0.26 0.0 0 1 42.83 99.49
  C 35.53 103.77 28.45 106.27 25.88 115.39
  Q 24.39 120.71 24.56 126.24
  A 1.20 1.17 -34.8 0 1 24.46 126.76
  L 23.14 129.68
  Z" fill="#fffce9"></path>
<path d="M 47.32 45.49
  Q 46.34 45.21 45.83 45.70
  Q 45.49 46.04 45.50 46.90
  Q 45.69 58.45 50.30 68.42
  Q 50.84 69.58 51.81 68.75
  C 54.38 66.54 56.86 63.16 59.88 61.97
  Q 60.08 62.37 60.50 62.61
  L 50.19 74.15
  Q 49.91 74.47 49.48 74.39
  Q 39.63 72.43 32.76 79.47
  A 0.32 0.30 -52.7 0 1 32.39 79.53
  Q 32.19 79.43 32.15 79.27
  Q 32.13 79.23 32.16 79.20
  C 37.35 69.91 42.47 57.98 42.75 47.52
  Q 42.80 45.28 43.58 44.73
  Q 44.79 43.87 47.32 45.49
  Z" fill="#355ba5"></path>
<path d="M 94.87 54.22
  Q 94.39 51.49 94.93 48.66
  Q 95.07 47.93 95.63 48.43
  L 96.87 49.54
  Q 97.32 49.94 97.07 50.48
  L 95.32 54.27
  Q 95.00 54.97 94.87 54.22
  Z" fill="#fd9e04"></path>
<path d="M 104.94 49.29
  L 104.94 53.51
  A 0.52 0.51 20.2 0 1 104.09 53.90
  Q 102.44 52.49 100.37 51.76
  A 0.35 0.35 0.0 0 1 100.16 51.30
  Q 100.22 51.15 100.27 51.00
  Q 100.36 50.74 100.63 50.75
  Q 102.95 50.84 104.30 49.25
  Q 104.48 48.98 104.94 49.29
  Z" fill="#fd9e04"></path>
<path d="M 145.70 53.27
  Q 145.67 61.27 147.03 68.88
  C 137.02 74.46 122.83 76.32 111.49 76.57
  Q 110.89 74.66 111.18 73.04
  C 123.60 70.16 137.48 63.49 145.70 53.27
  Z" fill="#fd9e04"></path>
<path d="M 94.93 60.15
  L 98.99 57.62
  A 0.42 0.42 0.0 0 1 99.62 58.07
  L 98.71 62.28
  A 0.42 0.42 0.0 0 1 98.10 62.57
  L 94.95 60.87
  A 0.42 0.42 0.0 0 1 94.93 60.15
  Z" fill="#fd9e04"></path>
<path d="M 78.96 63.81
  C 76.45 63.29 73.42 60.64 70.52 61.46
  C 65.27 63.02 61.85 66.91 62.66 72.65
  C 63.45 78.24 65.68 83.37 72.31 78.94
  Q 72.74 78.65 73.16 78.96
  L 74.41 79.88
  C 72.81 82.75 70.28 87.05 66.27 85.22
  Q 64.16 84.26 62.66 80.11
  Q 60.70 74.66 58.14 69.46
  Q 57.89 68.95 58.25 68.51
  C 62.45 63.43 66.07 60.02 72.66 59.15
  C 76.26 58.67 78.10 60.56 78.96 63.81
  Z" fill="#da6a02"></path>
<path d="M 78.96 63.81
  Q 79.40 65.17 80.53 66.19
  A 0.74 0.74 0.0 0 1 80.58 67.22
  L 80.40 67.42
  A 0.62 0.62 0.0 0 1 79.46 67.41
  Q 78.08 65.75 76.98 66.95
  Q 76.50 67.36 75.52 66.47
  Q 75.78 65.78 75.68 65.26
  Q 75.57 64.70 75.00 64.59
  L 70.56 63.80
  Q 69.63 62.74 70.52 61.46
  C 73.42 60.64 76.45 63.29 78.96 63.81
  Z" fill="#fbd773"></path>
<path d="M 70.52 61.46
  Q 69.63 62.74 70.56 63.80
  Q 68.38 64.14 66.05 66.05
  A 1.53 1.52 -27.8 0 0 65.56 67.62
  L 65.68 68.05
  Q 66.00 69.17 66.86 68.39
  C 68.98 66.48 71.43 67.06 74.01 67.31
  Q 75.17 67.43 75.52 66.47
  Q 76.50 67.36 76.98 66.95
  Q 76.80 67.42 76.78 67.82
  Q 76.76 68.21 77.09 68.57
  Q 77.88 69.42 78.82 70.14
  Q 78.06 70.50 78.15 71.57
  Q 77.71 70.90 77.04 70.79
  A 0.51 0.51 0.0 0 0 76.45 71.19
  L 75.97 73.48
  Q 74.06 75.87 75.91 77.70
  Q 76.28 78.06 75.96 78.48
  Q 75.38 79.25 74.41 79.88
  L 73.16 78.96
  Q 72.74 78.65 72.31 78.94
  C 65.68 83.37 63.45 78.24 62.66 72.65
  C 61.85 66.91 65.27 63.02 70.52 61.46
  Z
  M 69.03 71.79
  Q 68.81 72.84 67.80 73.63
  Q 67.42 73.93 67.57 74.39
  C 68.86 78.19 74.05 78.20 73.83 73.16
  Q 74.70 72.06 73.82 70.37
  Q 73.58 69.91 73.09 69.76
  Q 70.37 68.91 68.67 71.23
  Q 68.47 71.49 68.74 71.69
  Q 68.88 71.80 69.03 71.79
  Z" fill="#fd9e04"></path>
<ellipse ry="1.11" rx="1.31" transform="translate(157.83,64.38) rotate(79.4)" cy="0.00" cx="0.00" fill="#fd9e04"></ellipse>
<path d="M 70.56 63.80
  L 75.00 64.59
  Q 75.57 64.70 75.68 65.26
  Q 75.78 65.78 75.52 66.47
  Q 75.17 67.43 74.01 67.31
  C 71.43 67.06 68.98 66.48 66.86 68.39
  Q 66.00 69.17 65.68 68.05
  L 65.56 67.62
  A 1.53 1.52 -27.8 0 1 66.05 66.05
  Q 68.38 64.14 70.56 63.80
  Z" fill="#2c1440"></path>
<path d="M 147.03 68.88
  Q 148.79 78.84 152.55 88.29
  C 141.93 85.01 132.23 82.43 121.00 82.09
  Q 117.11 81.98 114.72 83.15
  Q 111.93 81.14 111.49 76.57
  C 122.83 76.32 137.02 74.46 147.03 68.88
  Z" fill="#da6a02"></path>
<path d="M 73.83 73.16
  Q 73.24 73.24 72.69 73.09
  A 0.51 0.50 21.4 0 1 72.37 72.36
  L 72.63 71.88
  A 0.45 0.04 87.4 0 0 72.65 71.50
  Q 72.63 70.90 71.12 71.03
  Q 70.53 71.08 70.00 71.33
  L 69.03 71.79
  Q 68.88 71.80 68.74 71.69
  Q 68.47 71.49 68.67 71.23
  Q 70.37 68.91 73.09 69.76
  Q 73.58 69.91 73.82 70.37
  Q 74.70 72.06 73.83 73.16
  Z" fill="#2c1440"></path>
<path d="M 109.31 73.37
  L 102.34 74.89
  Q 102.11 73.40 102.36 72.01
  A 0.60 0.59 -0.7 0 1 102.83 71.53
  L 108.89 70.34
  Q 109.41 70.24 109.47 70.76
  Q 109.60 72.15 109.31 73.37
  Z" fill="#ffffff"></path>
<path d="M 78.82 70.14
  Q 80.74 71.72 83.02 72.20
  A 1.44 1.41 78.5 0 1 83.88 72.78
  Q 85.02 74.45 82.93 76.14
  C 83.00 73.65 79.60 73.03 78.15 71.57
  Q 78.06 70.50 78.82 70.14
  Z" fill="#fbd773"></path>
<path d="M 73.83 73.16
  C 74.05 78.20 68.86 78.19 67.57 74.39
  Q 67.42 73.93 67.80 73.63
  Q 68.81 72.84 69.03 71.79
  L 70.00 71.33
  Q 70.53 71.08 71.12 71.03
  Q 72.63 70.90 72.65 71.50
  A 0.45 0.04 87.4 0 1 72.63 71.88
  L 72.37 72.36
  A 0.51 0.50 21.4 0 0 72.69 73.09
  Q 73.24 73.24 73.83 73.16
  Z" fill="#fbd773"></path>
<path d="M 78.15 71.57
  C 79.60 73.03 83.00 73.65 82.93 76.14
  Q 81.28 77.30 79.01 76.01
  A 1.08 1.08 0.0 0 0 78.19 75.91
  Q 77.79 76.01 77.49 76.30
  A 0.66 0.66 0.0 0 1 76.45 76.12
  Q 76.28 75.78 76.46 75.34
  A 0.81 0.73 -15.5 0 1 76.60 75.12
  Q 78.66 72.67 75.97 73.48
  L 76.45 71.19
  A 0.51 0.51 0.0 0 1 77.04 70.79
  Q 77.71 70.90 78.15 71.57
  Z" fill="#da6a02"></path>
<path d="M 59.55 83.93
  Q 61.10 86.69 61.94 89.68
  C 63.33 94.63 64.44 98.96 67.90 103.37
  C 74.65 112.00 88.72 118.60 88.87 130.75
  Q 88.87 131.29 89.14 131.39
  Q 89.47 131.51 90.04 131.15
  L 89.06 133.96
  Q 88.74 134.87 88.56 133.92
  C 87.40 127.93 82.32 122.01 77.45 119.32
  C 66.79 113.43 54.92 107.10 53.92 93.00
  Q 53.35 85.03 52.87 77.06
  C 52.73 74.70 53.78 73.10 55.32 71.57
  A 0.83 0.82 49.7 0 1 56.57 71.68
  C 59.31 75.46 57.97 83.44 58.10 88.00
  Q 58.22 92.24 58.92 93.93
  Q 60.68 98.19 59.82 93.66
  Q 58.95 89.11 59.55 83.93
  Z" fill="#d0dfe2"></path>
<path d="M 99.93 75.55
  Q 99.03 76.84 97.76 76.62
  Q 97.31 73.29 98.75 71.95
  Q 100.08 70.72 100.03 72.54
  L 99.93 75.55
  Z" fill="#8cdfff"></path>
<path d="M 109.31 73.37
  L 109.79 77.25
  L 102.69 78.67
  Q 102.14 76.74 102.34 74.89
  L 109.31 73.37
  Z" fill="#fd9e04"></path>
<path d="M 99.93 75.55
  L 100.83 81.54
  Q 100.91 82.05 100.43 82.22
  Q 100.27 82.27 100.09 82.27
  Q 99.63 82.26 99.38 81.88
  Q 97.74 79.37 97.76 76.62
  Q 99.03 76.84 99.93 75.55
  Z" fill="#355ba5"></path>
<path d="M 109.79 77.25
  L 111.47 82.72
  A 0.45 0.44 -6.1 0 1 111.00 83.29
  Q 108.21 83.08 105.62 84.09
  Q 105.09 84.30 104.74 83.84
  Q 103.01 81.59 102.69 78.67
  L 109.79 77.25
  Z" fill="#da6a02"></path>
<path d="M 47.95 79.24
  Q 46.51 78.89 45.69 80.15
  A 1.08 1.07 -36.2 0 0 45.55 81.03
  L 47.09 86.46
  C 39.22 79.99 48.84 73.39 51.08 80.34
  Q 51.26 80.88 50.69 80.84
  C 49.42 80.74 49.22 79.28 47.95 79.24
  Z" fill="#fbd773"></path>
<path d="M 90.04 131.15
  Q 89.47 131.51 89.14 131.39
  Q 88.87 131.29 88.87 130.75
  C 88.72 118.60 74.65 112.00 67.90 103.37
  C 64.44 98.96 63.33 94.63 61.94 89.68
  Q 61.10 86.69 59.55 83.93
  L 60.05 79.18
  Q 60.16 78.07 60.53 79.13
  C 61.39 81.61 61.37 84.57 63.16 86.79
  Q 63.64 87.38 63.58 86.62
  Q 63.51 85.88 63.16 85.22
  Q 63.07 85.06 63.26 85.03
  Q 63.40 85.01 63.54 85.00
  Q 63.64 84.99 63.69 85.07
  Q 65.74 87.89 69.29 87.47
  A 0.38 0.38 0.0 0 1 69.62 88.10
  Q 68.93 88.86 67.94 89.21
  Q 67.89 89.23 67.91 89.27
  L 67.98 89.52
  Q 68.05 89.75 68.28 89.68
  C 73.75 87.94 72.88 82.80 76.49 79.66
  Q 76.85 79.35 77.32 79.28
  C 79.02 79.03 80.72 78.06 82.23 78.21
  C 86.61 78.64 87.01 82.93 85.54 86.15
  A 0.31 0.30 41.7 0 1 85.00 86.18
  Q 83.82 84.18 83.50 81.88
  Q 83.34 80.77 82.90 80.42
  Q 82.31 79.94 81.46 80.32
  A 1.24 1.23 -1.9 0 0 80.82 81.00
  C 79.97 83.29 78.13 84.31 77.01 86.22
  C 75.85 88.21 74.16 90.15 73.39 92.02
  C 71.74 95.96 72.26 101.21 76.24 103.63
  Q 76.89 104.02 76.45 103.40
  C 74.65 100.86 73.71 98.77 74.09 96.28
  Q 74.39 94.40 75.05 96.18
  C 76.25 99.42 79.47 99.82 82.86 100.33
  Q 83.34 100.41 83.15 99.96
  Q 80.88 94.48 81.07 88.51
  Q 81.09 87.61 81.72 87.32
  Q 82.27 87.05 82.40 87.65
  C 83.88 94.56 88.11 101.44 89.67 106.12
  C 92.14 113.51 92.95 123.67 90.04 131.15
  Z" fill="#fffce9"></path>
<path d="M 47.95 79.24
  Q 47.23 80.13 47.97 81.26
  C 48.57 82.20 48.97 82.82 48.73 83.93
  Q 48.58 84.65 49.04 84.83
  Q 49.64 85.07 49.68 84.42
  Q 49.75 83.29 50.62 82.54
  Q 51.31 81.95 51.50 82.84
  Q 51.90 84.77 51.16 86.56
  Q 50.95 87.08 50.39 87.18
  Q 48.16 87.59 47.09 86.46
  L 45.55 81.03
  A 1.08 1.07 -36.2 0 1 45.69 80.15
  Q 46.51 78.89 47.95 79.24
  Z" fill="#da6a02"></path>
<path d="M 152.55 88.29
  Q 153.48 88.96 153.74 89.94
  Q 153.90 90.51 153.33 90.34
  C 140.13 86.45 128.53 83.66 114.72 83.15
  Q 117.11 81.98 121.00 82.09
  C 132.23 82.43 141.93 85.01 152.55 88.29
  Z" fill="#fbd773"></path>
<path d="M 82.20 86.23
  A 0.28 0.28 0.0 0 1 81.96 86.55
  L 81.51 86.61
  A 2.64 0.78 -7.9 0 1 78.79 86.20
  L 78.75 85.92
  A 2.64 0.78 -7.9 0 1 81.25 84.79
  L 81.71 84.72
  A 0.28 0.28 0.0 0 1 82.03 84.96
  L 82.20 86.23
  Z" fill="#fd9e04"></path>
<path d="M 113.98 89.13
  Q 112.11 88.70 112.88 86.49
  A 0.84 0.84 0.0 0 1 114.30 86.21
  Q 115.02 87.03 115.12 88.14
  Q 115.23 89.42 113.98 89.13
  Z" fill="#da6a02"></path>
<path d="M 132.95 87.92
  Q 131.56 87.77 131.75 89.52
  Q 132.73 98.39 132.09 103.87
  C 131.11 112.27 127.71 121.23 122.97 128.28
  C 120.84 131.44 118.00 134.91 116.45 138.35
  Q 115.78 139.85 114.85 140.43
  Q 119.98 125.39 119.80 108.93
  Q 119.79 108.37 120.34 108.33
  C 123.66 108.06 123.29 104.63 123.95 102.30
  C 125.10 98.28 125.39 94.15 125.53 89.98
  Q 125.55 89.36 125.00 89.07
  L 121.61 87.28
  A 0.56 0.43 79.4 0 1 121.50 87.18
  Q 121.27 86.85 121.30 86.50
  Q 121.35 86.02 121.83 86.09
  L 132.95 87.92
  Z" fill="#fffce9"></path>
<path d="M 120.96 96.25
  Q 121.23 96.33 121.25 96.05
  L 121.27 95.69
  A 0.84 0.83 18.5 0 0 120.88 94.92
  Q 118.53 93.46 115.87 94.17
  Q 114.96 94.42 115.28 93.53
  Q 115.75 92.26 121.22 92.45
  A 0.45 0.44 -20.7 0 0 121.56 91.70
  Q 120.73 90.84 119.46 90.77
  A 0.68 0.68 0.0 0 1 118.82 90.19
  Q 118.69 89.36 119.42 89.14
  Q 121.53 88.50 123.35 89.91
  Q 123.74 90.22 123.75 90.72
  Q 123.81 97.69 121.64 104.28
  Q 120.39 108.08 119.52 104.25
  Q 119.44 103.88 118.02 103.76
  Q 117.59 103.73 117.21 103.93
  Q 116.37 104.36 115.42 104.39
  A 0.53 0.52 -0.5 0 1 114.87 103.86
  Q 114.88 103.51 115.04 103.24
  Q 115.21 102.97 115.58 102.82
  Q 117.31 102.11 119.56 102.37
  Q 121.03 102.54 120.04 101.44
  Q 118.36 99.56 115.33 101.05
  Q 114.80 101.32 114.69 100.73
  L 114.59 100.20
  A 0.52 0.52 0.0 0 1 115.03 99.59
  L 119.57 98.99
  Q 121.00 98.79 119.77 98.04
  Q 117.89 96.88 115.33 97.90
  Q 114.85 98.09 114.83 97.57
  L 114.82 97.26
  A 0.90 0.89 -11.6 0 1 115.39 96.40
  Q 118.13 95.34 120.96 96.25
  Z" fill="#fbd773"></path>
<path d="M 112.29 94.61
  L 112.86 103.05
  Q 112.93 104.12 111.96 103.67
  L 111.46 103.44
  Q 110.40 102.95 110.12 101.82
  C 108.76 96.46 107.32 95.04 112.00 90.65
  A 1.20 1.20 0.0 0 1 113.95 91.94
  Q 113.52 93.11 112.66 93.79
  Q 112.25 94.10 112.29 94.61
  Z" fill="#da6a02"></path>
<path d="M 68.57 125.00
  Q 67.35 125.08 66.98 125.69
  Q 66.70 126.15 67.09 126.54
  C 69.37 128.81 73.02 131.56 73.34 134.61
  Q 73.57 136.91 72.16 135.08
  Q 69.18 131.25 64.79 128.29
  C 60.05 125.10 56.04 120.23 51.45 117.74
  Q 43.96 113.68 35.14 115.65
  Q 34.97 115.69 34.86 115.79
  Q 34.76 115.89 34.70 115.99
  Q 34.45 116.44 34.95 116.56
  Q 35.64 116.72 36.59 116.56
  L 32.10 117.26
  A 0.56 0.56 0.0 0 1 31.50 116.49
  Q 36.20 104.99 48.52 102.56
  Q 49.03 102.46 49.22 102.95
  C 53.17 112.96 59.54 118.09 68.57 125.00
  Z" fill="#da6a02"></path>
<path d="M 115.99 107.17
  Q 114.91 107.54 114.21 110.06
  Q 113.48 104.82 115.99 107.17
  Z" fill="#da6a02"></path>
<path d="M 115.99 107.17
  Q 116.92 108.90 116.06 111.02
  Q 115.88 111.49 115.41 111.29
  Q 114.60 110.95 114.21 110.06
  Q 114.91 107.54 115.99 107.17
  Z" fill="#fbd773"></path>
<path d="M 116.13 114.68
  Q 113.91 126.68 104.87 136.12
  Q 104.89 136.28 104.92 136.44
  L 99.97 127.68
  Q 99.01 126.33 98.91 124.01
  Q 98.86 122.89 99.45 123.84
  L 100.99 126.30
  Q 101.32 126.83 101.37 126.21
  C 101.59 123.71 100.03 120.88 99.34 118.74
  A 0.31 0.30 9.0 0 1 99.81 118.40
  Q 103.61 121.18 105.56 125.47
  Q 106.38 127.26 106.47 125.29
  Q 106.57 122.97 104.56 120.42
  A 0.44 0.44 0.0 0 1 104.74 119.74
  Q 109.86 117.66 112.33 112.75
  Q 112.58 112.26 113.04 112.57
  L 116.13 114.68
  Z" fill="#fd9e04"></path>
<path d="M 68.57 125.00
  C 76.55 129.24 85.45 137.09 86.01 146.64
  Q 86.07 147.62 86.65 146.83
  Q 92.03 139.53 94.15 131.19
  C 95.01 127.81 94.86 123.81 94.96 120.29
  Q 95.02 118.19 95.96 120.08
  Q 97.35 122.88 97.28 125.46
  Q 96.40 136.87 99.52 147.92
  Q 82.17 157.28 61.78 151.99
  L 60.16 138.10
  Q 59.33 135.75 58.77 133.39
  C 56.16 122.50 47.76 116.35 36.59 116.56
  Q 35.64 116.72 34.95 116.56
  Q 34.45 116.44 34.70 115.99
  Q 34.76 115.89 34.86 115.79
  Q 34.97 115.69 35.14 115.65
  Q 43.96 113.68 51.45 117.74
  C 56.04 120.23 60.05 125.10 64.79 128.29
  Q 69.18 131.25 72.16 135.08
  Q 73.57 136.91 73.34 134.61
  C 73.02 131.56 69.37 128.81 67.09 126.54
  Q 66.70 126.15 66.98 125.69
  Q 67.35 125.08 68.57 125.00
  Z" fill="#fd9e04"></path>
<path d="M 116.13 114.68
  Q 117.58 115.00 117.50 115.75
  Q 116.58 124.56 110.81 132.04
  Q 108.37 135.21 104.87 136.12
  Q 113.91 126.68 116.13 114.68
  Z" fill="#fbd773"></path>
<path d="M 54.15 145.04
  Q 52.95 136.38 42.65 134.80
  Q 42.20 134.73 41.80 134.94
  L 40.98 135.37
  Q 39.80 135.10 38.90 135.33
  Q 35.14 131.38 37.93 131.70
  Q 39.03 131.98 39.49 131.87
  Q 40.66 131.60 39.75 131.00
  Q 35.72 128.37 30.93 128.79
  Q 28.76 128.98 30.45 127.61
  Q 32.38 126.05 37.94 126.10
  Q 38.77 126.11 38.06 125.68
  Q 35.13 123.89 31.63 124.00
  Q 29.42 124.07 30.80 122.34
  L 31.83 121.07
  A 6.30 6.29 -73.7 0 1 36.12 118.72
  Q 42.92 118.01 48.12 121.36
  C 52.15 123.95 61.64 133.73 57.79 139.17
  Q 56.89 140.44 56.81 138.88
  Q 56.75 137.76 56.30 136.72
  Q 55.80 135.57 55.82 136.82
  C 55.85 138.82 56.25 140.95 55.67 142.80
  Q 55.07 144.73 54.15 145.04
  Z" fill="#fd9e04"></path>
<path d="M 97.28 125.46
  Q 99.73 135.66 101.53 145.34
  Q 101.75 146.53 101.21 147.01
  Q 100.66 147.51 99.52 147.92
  Q 96.40 136.87 97.28 125.46
  Z" fill="#fbd773"></path>
<path d="M 99.97 127.68
  L 104.92 136.44
  Q 103.93 137.20 102.82 137.22
  A 0.85 0.84 -12.9 0 1 102.06 136.75
  Q 100.15 132.77 99.97 127.68
  Z" fill="#da6a02"></path>
<path d="M 37.93 131.70
  Q 35.14 131.38 38.90 135.33
  Q 36.09 135.17 33.64 131.98
  A 0.22 0.22 0.0 0 1 33.76 131.63
  Q 35.91 131.10 37.93 131.70
  Z" fill="#da6a02"></path>
<path d="M 54.15 145.04
  Q 48.82 136.83 40.98 135.37
  L 41.80 134.94
  Q 42.20 134.73 42.65 134.80
  Q 52.95 136.38 54.15 145.04
  Z" fill="#fbd773"></path>
<path d="M 60.16 138.10
  L 61.78 151.99
  Q 60.29 151.73 58.36 150.61
  Q 57.83 150.30 57.90 149.70
  L 59.24 138.26
  A 0.13 0.13 0.0 0 1 59.49 138.23
  Q 59.57 138.42 59.75 138.38
  Q 59.91 138.34 59.93 138.17
  Q 59.96 137.94 60.16 138.10
  Z" fill="#da6a02"></path>
</svg>
