<svg viewBox="0.00 0.00 512.00 512.00" version="1.1" xmlns="http://www.w3.org/2000/svg">
<g stroke-linecap="butt" fill="none" stroke-width="2.00">
<path d="M 426.34 131.78
  Q 429.45 135.78 432.44 139.82
  Q 467.74 187.49 471.45 246.93" stroke-opacity="0.616" stroke="#078fa2"></path>
<path d="M 471.45 246.93
  L 471.48 266.94" stroke-opacity="0.686" stroke="#0c8697"></path>
<path d="M 471.48 266.94
  Q 470.77 269.02 471.16 271.13" stroke-opacity="0.616" stroke="#078fa2"></path>
<path d="M 471.16 271.13
  L 469.20 286.33" stroke-opacity="0.686" stroke="#0c8697"></path>
<path d="M 469.20 286.33
  L 468.77 288.47" stroke-opacity="0.616" stroke="#078fa2"></path>
<path d="M 468.77 288.47
  C 452.91 376.77 381.62 440.25 294.25 453.36
  C 247.06 460.45 198.06 454.61 154.92 433.97
  Q 154.47 433.75 153.99 433.91
  Q 114.76 446.91 75.61 460.02
  Q 69.70 462.00 66.19 461.75
  Q 56.00 461.03 52.18 449.87" stroke-opacity="0.686" stroke="#0c8697"></path>
<path d="M 52.18 449.87
  Q 51.41 444.44 53.61 439.38" stroke-opacity="0.616" stroke="#078fa2"></path>
<path d="M 53.61 439.38
  L 78.34 377.64" stroke-opacity="0.616" stroke="#078fa2"></path>
<path d="M 78.34 377.64
  L 80.02 373.28
  Q 80.21 372.79 79.90 372.38
  Q 38.67 316.67 40.91 246.72" stroke-opacity="0.686" stroke="#0c8697"></path>
<path d="M 40.91 246.72
  Q 44.22 192.42 74.40 147.32" stroke-opacity="0.616" stroke="#078fa2"></path>
<path d="M 74.74 146.83
  L 78.62 141.17" stroke-opacity="0.616" stroke="#078fa2"></path>
<path d="M 81.74 137.07
  L 85.12 132.71" stroke-opacity="0.616" stroke="#078fa2"></path>
<path d="M 71.99 265.77
  Q 74.44 305.86 95.49 340.54" stroke-opacity="0.616" stroke="#078fa2"></path>
<path d="M 97.32 343.36
  L 102.13 350.67" stroke-opacity="0.616" stroke="#078fa2"></path>
<path d="M 115.33 368.65
  Q 114.06 370.55 113.94 371.62" stroke-opacity="0.616" stroke="#078fa2"></path>
<path d="M 113.94 371.62
  L 94.41 420.54
  Q 94.17 421.15 94.79 420.95
  L 99.91 419.36" stroke-opacity="0.686" stroke="#0c8697"></path>
<path d="M 99.91 419.36
  L 102.98 418.36" stroke-opacity="0.616" stroke="#078fa2"></path>
<path d="M 375.49 386.64
  Q 376.95 385.82 378.08 384.53" stroke-opacity="0.616" stroke="#078fa2"></path>
<path d="M 380.70 382.46
  Q 381.74 381.87 382.51 381.00" stroke-opacity="0.616" stroke="#078fa2"></path>
<path d="M 386.01 377.85
  L 389.34 374.80" stroke-opacity="0.616" stroke="#078fa2"></path>
<path d="M 389.34 374.80
  Q 391.34 373.04 393.29 371.04
  Q 434.50 328.87 440.17 270.16" stroke-opacity="0.616" stroke="#078fa2"></path>
<path d="M 440.17 270.16
  C 446.94 185.20 390.39 114.10 309.47 93.59
  C 236.87 75.19 152.86 94.81 105.56 156.37
  Q 71.73 200.43 71.50 257.50
  Q 71.49 260.33 71.99 265.77" stroke-opacity="0.686" stroke="#0c8697"></path>
<path d="M 300.29 181.29
  L 299.82 187.97" stroke-opacity="0.616" stroke="#078fa2"></path>
<path d="M 299.82 187.97
  Q 266.72 258.88 233.60 329.77
  C 230.43 336.55 224.31 343.77 216.22 337.79
  Q 211.81 334.52 210.20 328.24" stroke-opacity="0.686" stroke="#0c8697"></path>
<path d="M 210.20 328.24
  Q 209.20 323.09 211.94 317.25
  Q 243.80 249.41 275.61 181.55" stroke-opacity="0.616" stroke="#078fa2"></path>
<path d="M 202.92 201.07
  Q 204.87 206.13 203.87 211.06" stroke-opacity="0.616" stroke="#078fa2"></path>
<path d="M 203.87 211.06
  C 202.70 213.25 201.69 215.11 199.90 216.91
  Q 187.76 229.11 175.72 241.38
  C 170.30 246.91 167.66 251.34 170.94 258.60" stroke-opacity="0.686" stroke="#0c8697"></path>
<path d="M 170.94 258.60
  C 172.84 262.24 177.00 265.67 179.95 268.59" stroke-opacity="0.616" stroke="#078fa2"></path>
<path d="M 204.35 296.15
  L 203.86 302.23" stroke-opacity="0.616" stroke="#078fa2"></path>
<path d="M 203.86 302.23
  C 200.07 311.50 189.54 314.91 182.10 307.40
  Q 159.83 284.92 137.58 262.42
  Q 135.26 260.07 134.02 256.98" stroke-opacity="0.686" stroke="#0c8697"></path>
<path d="M 134.02 256.98
  Q 132.88 252.15 134.51 247.19" stroke-opacity="0.616" stroke="#078fa2"></path>
<path d="M 155.31 225.38
  L 183.24 197.27" stroke-opacity="0.616" stroke="#078fa2"></path>
<path d="M 377.55 246.55
  Q 379.39 252.98 377.42 259.27" stroke-opacity="0.616" stroke="#078fa2"></path>
<path d="M 377.42 259.27
  Q 354.88 282.37 331.91 305.44
  C 328.09 309.27 324.59 312.06 319.51 311.49
  Q 311.05 310.55 308.13 301.64" stroke-opacity="0.686" stroke="#0c8697"></path>
<path d="M 308.13 301.64
  Q 307.15 297.26 309.03 292.98" stroke-opacity="0.616" stroke="#078fa2"></path>
<path d="M 309.09 292.48
  L 311.38 289.53" stroke-opacity="0.616" stroke="#078fa2"></path>
<path d="M 336.30 264.39
  L 341.05 258.79" stroke-opacity="0.616" stroke="#078fa2"></path>
<path d="M 341.05 258.79
  Q 344.99 249.93 338.15 243.08
  Q 324.56 229.47 311.02 215.73
  Q 309.23 213.91 308.01 209.91" stroke-opacity="0.686" stroke="#0c8697"></path>
<path d="M 308.01 209.91
  Q 307.34 206.32 308.64 202.50" stroke-opacity="0.616" stroke="#078fa2"></path>
</g>
<path d="M 426.34 131.78
  Q 429.45 135.78 432.44 139.82
  Q 467.74 187.49 471.45 246.93
  L 471.48 266.94
  Q 470.77 269.02 471.16 271.13
  L 469.20 286.33
  L 468.77 288.47
  C 452.91 376.77 381.62 440.25 294.25 453.36
  C 247.06 460.45 198.06 454.61 154.92 433.97
  Q 154.47 433.75 153.99 433.91
  Q 114.76 446.91 75.61 460.02
  Q 69.70 462.00 66.19 461.75
  Q 56.00 461.03 52.18 449.87
  Q 51.41 444.44 53.61 439.38
  L 78.34 377.64
  L 80.02 373.28
  Q 80.21 372.79 79.90 372.38
  Q 38.67 316.67 40.91 246.72
  Q 44.22 192.42 74.40 147.32
  Q 74.16 147.34 74.74 146.83
  L 78.62 141.17
  L 81.74 137.07
  L 85.12 132.71
  Q 130.42 78.84 198.02 62.94
  C 244.42 52.03 294.60 53.96 339.49 70.60
  C 373.77 83.31 402.69 103.91 426.34 131.78
  Z
  M 71.99 265.77
  Q 74.44 305.86 95.49 340.54
  L 97.32 343.36
  L 102.13 350.67
  L 115.33 368.65
  Q 114.06 370.55 113.94 371.62
  L 94.41 420.54
  Q 94.17 421.15 94.79 420.95
  L 99.91 419.36
  L 102.98 418.36
  L 156.02 400.70
  Q 156.48 400.55 156.93 400.76
  Q 163.88 404.06 170.86 407.30
  C 235.28 437.22 318.87 430.26 375.49 386.64
  Q 376.95 385.82 378.08 384.53
  L 380.70 382.46
  Q 381.74 381.87 382.51 381.00
  L 386.01 377.85
  L 389.34 374.80
  Q 391.34 373.04 393.29 371.04
  Q 434.50 328.87 440.17 270.16
  C 446.94 185.20 390.39 114.10 309.47 93.59
  C 236.87 75.19 152.86 94.81 105.56 156.37
  Q 71.73 200.43 71.50 257.50
  Q 71.49 260.33 71.99 265.77
  Z" fill="#03aac1"></path>
<path d="M 440.17 270.16
  L 439.90 252.39
  Q 439.90 252.37 439.88 252.36
  Q 439.79 252.28 439.70 252.19
  Q 439.48 252.00 439.47 251.71
  Q 439.20 245.32 438.78 238.94
  Q 438.78 238.88 438.69 238.87
  Q 438.65 238.86 438.62 238.85
  Q 438.49 238.80 438.46 238.59
  Q 436.47 225.42 433.14 212.52
  C 432.83 211.31 432.07 209.91 431.80 208.54
  Q 431.37 206.25 431.11 205.53
  Q 428.57 198.51 425.47 191.71
  C 424.62 189.83 423.53 186.65 422.13 184.31
  Q 419.46 179.85 419.41 179.77
  Q 412.01 166.15 401.57 154.66
  Q 400.75 153.76 399.06 151.72
  C 397.02 149.27 394.64 147.11 392.50 144.68
  Q 390.57 142.50 388.34 140.62
  C 385.32 138.08 382.90 135.27 379.82 133.05
  Q 378.65 132.20 377.56 131.24
  Q 375.36 129.27 374.25 128.48
  Q 367.61 123.80 360.73 119.42
  A 0.16 0.08 63.4 0 1 360.69 119.39
  Q 355.27 116.44 351.00 113.86
  Q 345.09 110.30 330.55 104.45
  C 323.53 101.62 315.54 99.22 308.01 96.60
  Q 306.69 96.14 304.68 95.96
  C 301.93 95.70 299.70 94.53 296.80 94.45
  Q 296.31 94.44 295.94 94.14
  Q 295.58 93.84 295.14 93.84
  Q 294.40 93.84 294.35 93.83
  Q 285.94 92.63 277.48 91.81
  Q 272.99 91.37 268.47 91.13
  Q 268.38 91.12 268.32 91.06
  Q 268.21 90.96 268.10 90.84
  Q 267.90 90.62 267.60 90.62
  C 259.67 90.63 251.48 90.24 243.58 90.90
  C 238.28 91.34 232.72 91.58 227.79 92.28
  Q 219.99 93.40 212.22 94.77
  C 211.33 94.92 210.68 95.51 209.55 95.37
  Q 209.06 95.31 208.60 95.50
  Q 206.92 96.18 205.17 96.51
  C 201.98 97.11 198.47 97.85 195.44 98.99
  Q 189.75 101.13 184.10 103.39
  Q 178.89 105.48 173.73 107.71
  Q 172.08 108.42 170.35 108.91
  C 166.92 109.88 163.92 111.72 160.82 113.40
  Q 160.00 113.84 158.37 115.14
  C 157.11 116.16 155.57 116.53 154.39 117.51
  C 151.65 119.81 148.52 121.55 145.49 123.40
  Q 143.28 124.75 140.77 126.70
  C 138.62 128.36 136.05 129.76 134.10 131.62
  Q 133.18 132.50 132.22 133.31
  Q 123.90 140.42 116.39 148.39
  C 115.08 149.77 113.13 150.88 111.67 152.66
  Q 105.88 159.76 101.69 165.73
  C 100.48 167.46 99.86 167.28 99.50 169.72
  Q 99.34 170.83 97.98 171.34
  Q 97.58 171.49 97.40 171.88
  Q 94.93 177.22 91.69 182.13
  Q 91.39 182.59 91.00 182.99
  Q 90.57 183.43 90.38 183.86
  Q 88.31 188.61 86.16 193.31
  C 85.65 194.42 84.62 195.55 84.16 196.88
  Q 83.29 199.44 83.26 199.51
  Q 80.45 205.89 78.97 212.70
  C 78.65 214.18 77.71 215.93 77.64 217.80
  A 2.40 2.37 59.3 0 1 77.41 218.73
  C 76.60 220.38 76.60 222.62 76.33 223.83
  Q 75.04 229.75 73.88 235.71
  Q 73.25 238.95 73.30 242.24
  Q 73.30 242.79 72.81 243.43
  Q 72.55 243.76 72.54 244.19
  L 71.99 265.77
  Q 71.49 260.33 71.50 257.50
  Q 71.73 200.43 105.56 156.37
  C 152.86 94.81 236.87 75.19 309.47 93.59
  C 390.39 114.10 446.94 185.20 440.17 270.16
  Z" fill-opacity="0.373" fill="#242626"></path>
<path d="M 440.17 270.16
  Q 434.50 328.87 393.29 371.04
  Q 391.34 373.04 389.34 374.80
  Q 388.78 374.01 389.51 373.52
  Q 391.08 372.46 391.98 370.82
  Q 392.20 370.42 392.59 370.17
  Q 394.22 369.09 394.90 368.27
  Q 396.58 366.22 398.50 364.36
  Q 398.85 364.02 398.86 363.54
  Q 398.88 362.82 399.55 362.61
  Q 399.86 362.51 399.87 362.19
  Q 399.89 361.91 400.01 361.75
  Q 402.02 358.96 405.11 355.53
  Q 405.33 355.29 405.34 354.96
  Q 405.35 354.74 405.48 354.57
  Q 405.61 354.41 406.04 354.30
  Q 407.93 353.83 407.97 351.94
  Q 407.97 351.49 408.38 351.27
  C 409.25 350.80 409.42 349.56 410.18 348.71
  C 411.37 347.39 411.80 345.70 412.86 344.25
  C 414.48 342.03 415.56 339.97 417.23 337.74
  Q 417.62 337.22 417.62 336.43
  A 1.69 1.67 62.4 0 1 417.89 335.55
  Q 419.79 332.71 421.04 329.56
  Q 422.21 326.61 423.35 323.62
  A 0.64 0.62 84.8 0 1 423.56 323.36
  Q 424.03 322.99 424.57 322.44
  Q 424.92 322.07 425.02 321.57
  Q 425.36 319.82 426.86 317.11
  Q 428.57 314.02 432.13 300.75
  Q 433.63 295.19 434.07 292.08
  C 434.19 291.21 434.69 290.87 434.70 289.84
  Q 434.73 288.44 434.79 288.17
  C 438.04 272.84 438.07 255.95 436.65 239.97
  Q 436.64 239.88 436.53 239.88
  Q 436.48 239.87 436.44 239.86
  A 0.41 0.27 -88.5 0 1 436.24 239.54
  C 434.78 227.15 432.75 216.44 428.13 205.18
  C 427.25 203.05 426.64 200.22 425.36 197.82
  C 424.59 196.39 424.35 194.67 423.59 193.19
  C 422.13 190.35 421.30 187.71 419.29 185.33
  C 418.65 184.58 418.82 183.49 418.25 182.61
  Q 417.13 180.84 416.05 179.04
  C 414.86 177.05 412.89 174.48 411.67 171.93
  Q 410.72 169.94 409.48 168.41
  Q 407.63 166.15 406.10 163.66
  Q 404.56 161.15 402.84 159.24
  Q 401.00 157.19 399.31 155.00
  C 398.22 153.59 396.63 152.07 395.23 150.28
  Q 392.28 146.52 382.91 138.62
  A 0.85 0.07 71.2 0 1 382.63 137.98
  Q 382.51 137.61 382.10 137.41
  C 379.64 136.23 378.03 134.42 375.82 132.94
  C 373.87 131.62 372.39 129.60 370.73 128.43
  Q 367.67 126.26 364.60 124.12
  C 363.92 123.65 363.45 123.09 362.71 122.77
  Q 361.09 122.04 359.69 120.95
  Q 359.30 120.65 358.81 120.66
  Q 358.45 120.66 358.23 120.51
  Q 355.31 118.58 352.37 116.70
  C 350.34 115.41 347.85 114.54 345.48 113.29
  Q 340.68 110.74 334.52 108.32
  Q 333.90 108.07 332.34 107.23
  C 330.58 106.28 327.97 105.88 326.55 105.32
  Q 323.56 104.17 320.43 103.43
  Q 320.25 103.39 320.11 103.26
  Q 320.02 103.16 319.92 103.07
  Q 319.75 102.91 319.53 102.85
  C 317.03 102.12 314.57 101.35 312.07 100.64
  Q 308.16 99.53 304.16 98.76
  C 301.10 98.16 297.26 96.73 293.54 96.54
  Q 293.26 96.53 293.16 96.26
  Q 293.09 96.08 292.87 96.11
  C 291.54 96.26 289.80 95.39 288.44 95.32
  Q 284.61 95.14 280.82 94.57
  C 277.74 94.11 274.68 94.50 271.51 94.11
  Q 257.15 92.33 248.25 93.16
  Q 241.76 93.77 235.26 94.31
  C 225.83 95.09 217.92 96.23 206.78 98.99
  Q 201.88 100.20 197.00 101.48
  Q 196.94 101.50 194.18 102.69
  C 192.06 103.60 190.08 103.06 188.04 104.70
  Q 187.67 105.00 187.20 105.07
  C 185.58 105.33 181.91 106.39 180.50 107.47
  C 178.53 108.96 176.63 108.70 174.53 109.84
  Q 173.77 110.25 172.86 110.31
  Q 172.38 110.34 172.13 110.75
  Q 171.94 111.06 171.76 111.14
  Q 163.36 115.14 157.62 118.36
  Q 157.02 118.69 156.49 118.65
  Q 155.97 118.60 155.53 118.91
  L 132.08 135.37
  Q 131.66 135.66 131.62 136.17
  Q 131.56 136.88 130.88 137.07
  Q 130.36 137.22 130.04 137.65
  Q 128.39 139.88 125.64 141.14
  Q 125.29 141.29 125.33 141.69
  Q 125.37 142.12 125.06 142.41
  Q 120.71 146.40 116.68 150.73
  Q 116.64 150.77 116.63 150.83
  Q 116.63 150.97 116.61 151.10
  Q 116.60 151.20 116.53 151.27
  L 112.85 155.03
  Q 112.53 155.35 112.39 155.78
  Q 112.06 156.71 111.03 156.95
  Q 110.64 157.04 110.42 157.37
  L 92.23 184.79
  Q 91.96 185.19 91.80 185.65
  C 90.07 190.41 87.45 195.05 85.84 199.50
  Q 84.43 203.44 82.92 207.35
  Q 81.29 211.56 80.30 215.31
  Q 78.07 223.82 77.40 227.26
  Q 76.22 233.29 75.32 241.90
  C 74.27 251.99 74.53 262.50 74.78 272.80
  Q 74.79 273.26 75.08 273.60
  C 75.90 274.55 75.56 275.86 75.68 276.77
  C 76.06 279.55 76.25 282.36 76.80 285.05
  C 78.03 291.09 78.98 297.35 80.86 303.22
  Q 81.81 306.19 82.73 309.17
  Q 84.43 314.60 86.93 319.72
  C 87.57 321.03 87.33 322.04 88.03 323.35
  Q 89.78 326.59 90.85 330.09
  Q 91.00 330.57 91.33 330.93
  Q 92.05 331.73 92.22 332.81
  Q 92.30 333.31 92.68 333.67
  Q 96.08 336.87 95.49 340.54
  Q 74.44 305.86 71.99 265.77
  L 72.54 244.19
  Q 72.55 243.76 72.81 243.43
  Q 73.30 242.79 73.30 242.24
  Q 73.25 238.95 73.88 235.71
  Q 75.04 229.75 76.33 223.83
  C 76.60 222.62 76.60 220.38 77.41 218.73
  A 2.40 2.37 59.3 0 0 77.64 217.80
  C 77.71 215.93 78.65 214.18 78.97 212.70
  Q 80.45 205.89 83.26 199.51
  Q 83.29 199.44 84.16 196.88
  C 84.62 195.55 85.65 194.42 86.16 193.31
  Q 88.31 188.61 90.38 183.86
  Q 90.57 183.43 91.00 182.99
  Q 91.39 182.59 91.69 182.13
  Q 94.93 177.22 97.40 171.88
  Q 97.58 171.49 97.98 171.34
  Q 99.34 170.83 99.50 169.72
  C 99.86 167.28 100.48 167.46 101.69 165.73
  Q 105.88 159.76 111.67 152.66
  C 113.13 150.88 115.08 149.77 116.39 148.39
  Q 123.90 140.42 132.22 133.31
  Q 133.18 132.50 134.10 131.62
  C 136.05 129.76 138.62 128.36 140.77 126.70
  Q 143.28 124.75 145.49 123.40
  C 148.52 121.55 151.65 119.81 154.39 117.51
  C 155.57 116.53 157.11 116.16 158.37 115.14
  Q 160.00 113.84 160.82 113.40
  C 163.92 111.72 166.92 109.88 170.35 108.91
  Q 172.08 108.42 173.73 107.71
  Q 178.89 105.48 184.10 103.39
  Q 189.75 101.13 195.44 98.99
  C 198.47 97.85 201.98 97.11 205.17 96.51
  Q 206.92 96.18 208.60 95.50
  Q 209.06 95.31 209.55 95.37
  C 210.68 95.51 211.33 94.92 212.22 94.77
  Q 219.99 93.40 227.79 92.28
  C 232.72 91.58 238.28 91.34 243.58 90.90
  C 251.48 90.24 259.67 90.63 267.60 90.62
  Q 267.90 90.62 268.10 90.84
  Q 268.21 90.96 268.32 91.06
  Q 268.38 91.12 268.47 91.13
  Q 272.99 91.37 277.48 91.81
  Q 285.94 92.63 294.35 93.83
  Q 294.40 93.84 295.14 93.84
  Q 295.58 93.84 295.94 94.14
  Q 296.31 94.44 296.80 94.45
  C 299.70 94.53 301.93 95.70 304.68 95.96
  Q 306.69 96.14 308.01 96.60
  C 315.54 99.22 323.53 101.62 330.55 104.45
  Q 345.09 110.30 351.00 113.86
  Q 355.27 116.44 360.69 119.39
  A 0.16 0.08 63.4 0 0 360.73 119.42
  Q 367.61 123.80 374.25 128.48
  Q 375.36 129.27 377.56 131.24
  Q 378.65 132.20 379.82 133.05
  C 382.90 135.27 385.32 138.08 388.34 140.62
  Q 390.57 142.50 392.50 144.68
  C 394.64 147.11 397.02 149.27 399.06 151.72
  Q 400.75 153.76 401.57 154.66
  Q 412.01 166.15 419.41 179.77
  Q 419.46 179.85 422.13 184.31
  C 423.53 186.65 424.62 189.83 425.47 191.71
  Q 428.57 198.51 431.11 205.53
  Q 431.37 206.25 431.80 208.54
  C 432.07 209.91 432.83 211.31 433.14 212.52
  Q 436.47 225.42 438.46 238.59
  Q 438.49 238.80 438.62 238.85
  Q 438.65 238.86 438.69 238.87
  Q 438.78 238.88 438.78 238.94
  Q 439.20 245.32 439.47 251.71
  Q 439.48 252.00 439.70 252.19
  Q 439.79 252.28 439.88 252.36
  Q 439.90 252.37 439.90 252.39
  L 440.17 270.16
  Z" fill-opacity="0.227" fill="#161818"></path>
<path d="M 426.34 131.78
  C 427.32 131.94 427.50 132.24 428.12 133.17
  Q 428.40 133.59 428.96 133.65
  Q 429.48 133.71 429.77 134.15
  L 432.40 138.24
  Q 432.70 138.72 433.24 138.91
  Q 433.97 139.17 434.03 140.03
  A 4.31 2.25 23.0 0 0 436.23 142.71
  Q 437.04 143.19 437.16 144.25
  Q 437.16 144.27 437.52 144.87
  Q 437.88 145.46 438.49 145.79
  Q 438.92 146.03 438.94 146.53
  Q 438.97 147.16 439.62 147.62
  Q 440.76 148.41 441.14 149.89
  Q 441.26 150.34 441.57 150.68
  Q 442.60 151.82 443.25 153.26
  Q 443.45 153.69 443.79 154.00
  Q 444.51 154.67 444.93 155.53
  Q 445.77 157.26 445.92 157.51
  Q 447.09 159.34 448.18 161.22
  Q 448.07 161.88 448.65 161.97
  Q 449.12 162.04 449.12 162.51
  L 449.12 162.92
  Q 449.12 163.35 449.41 163.68
  Q 450.48 164.92 450.84 166.52
  A 1.31 1.31 0.0 0 0 451.43 167.35
  Q 451.62 167.47 451.78 167.61
  Q 451.91 167.72 451.96 167.90
  Q 452.82 170.83 454.42 173.41
  Q 454.62 173.73 454.62 174.11
  Q 454.62 174.24 454.63 174.38
  Q 454.63 174.49 454.69 174.60
  Q 456.71 178.37 458.50 182.25
  Q 458.61 182.48 458.62 182.80
  Q 458.62 182.98 458.63 183.17
  Q 458.64 183.36 458.74 183.53
  Q 461.03 187.82 462.59 192.43
  Q 464.30 197.48 467.87 210.25
  Q 469.42 215.78 470.04 219.10
  Q 470.83 223.32 470.84 223.36
  C 471.98 228.61 472.95 233.28 473.22 238.91
  C 473.52 245.26 474.44 252.42 474.43 257.84
  C 474.42 263.93 473.63 270.63 473.54 276.04
  Q 473.49 279.30 472.86 283.56
  Q 472.22 287.97 471.46 292.39
  C 471.10 294.51 470.15 297.77 469.85 300.75
  Q 469.56 303.66 468.36 307.37
  Q 466.87 311.96 465.41 316.55
  Q 463.22 323.43 460.79 330.22
  Q 457.99 338.02 454.36 345.47
  C 453.80 346.62 453.36 348.35 452.50 349.64
  C 451.67 350.87 451.23 352.05 450.49 353.37
  Q 450.27 353.77 449.91 353.86
  Q 449.45 353.98 449.20 354.37
  Q 448.09 356.09 447.09 357.86
  C 446.69 358.59 445.83 359.07 445.84 360.25
  A 1.30 1.28 -26.5 0 1 445.55 361.09
  C 443.95 363.04 443.17 365.39 441.87 367.24
  Q 437.43 373.54 432.89 379.74
  C 432.09 380.83 430.78 381.75 430.11 383.24
  A 0.64 0.63 -77.8 0 1 429.53 383.62
  Q 429.38 383.62 429.24 383.62
  Q 429.12 383.62 429.12 383.74
  L 429.12 384.20
  Q 429.12 384.65 428.81 384.98
  L 426.02 387.89
  Q 425.80 388.13 425.52 388.32
  Q 424.89 388.76 424.60 389.45
  Q 424.41 389.89 424.07 390.23
  Q 423.04 391.26 421.09 393.47
  Q 416.64 398.51 411.74 403.12
  C 410.80 404.00 409.84 404.46 408.93 405.48
  Q 408.02 406.51 406.76 407.14
  Q 406.38 407.34 406.37 407.77
  Q 406.37 407.91 406.37 408.05
  Q 406.37 408.33 406.09 408.34
  Q 405.35 408.38 405.07 409.00
  Q 404.89 409.42 404.52 409.70
  L 391.56 419.61
  Q 391.16 419.91 390.89 420.33
  Q 390.54 420.87 390.00 421.26
  C 387.83 422.79 385.52 424.04 383.50 425.78
  C 382.70 426.46 381.70 426.63 380.89 427.16
  C 377.85 429.16 374.57 431.48 371.22 432.91
  C 369.48 433.65 368.09 435.09 366.30 435.78
  Q 364.27 436.55 363.07 437.42
  C 361.23 438.75 359.37 438.90 357.71 439.94
  C 354.10 442.17 349.65 443.62 345.75 445.39
  Q 343.46 446.43 334.91 449.08
  C 333.63 449.48 332.07 450.64 331.00 450.86
  Q 326.94 451.70 323.02 453.05
  Q 320.13 454.05 317.30 454.33
  C 310.44 455.15 303.20 457.34 297.19 458.22
  C 279.29 460.84 261.63 461.55 243.57 461.01
  C 234.15 460.73 224.81 460.06 215.56 458.18
  Q 212.78 457.61 207.23 457.01
  C 206.22 456.90 205.51 456.41 204.46 456.19
  Q 191.75 453.51 179.61 448.96
  Q 174.44 447.02 169.15 445.39
  C 166.44 444.56 164.09 443.39 161.65 442.16
  Q 161.45 442.06 161.22 442.04
  Q 161.02 442.02 160.82 441.99
  Q 160.43 441.95 160.11 441.71
  Q 159.19 441.01 158.08 440.99
  Q 157.58 440.97 157.12 440.79
  Q 154.73 439.88 151.75 440.49
  Q 145.78 441.70 141.74 443.11
  Q 134.12 445.75 126.54 448.49
  Q 124.76 449.13 122.92 449.55
  C 121.75 449.82 120.79 450.66 119.29 450.49
  Q 118.79 450.44 118.34 450.67
  Q 115.78 451.99 115.00 452.24
  C 108.64 454.29 102.09 456.99 95.57 458.36
  Q 95.30 458.41 95.14 458.56
  Q 94.56 459.08 94.54 459.09
  C 90.63 460.63 86.70 461.95 82.60 462.88
  Q 80.85 463.28 78.80 464.23
  Q 72.56 467.13 65.93 466.41
  Q 59.95 465.77 55.69 461.78
  Q 47.28 453.90 51.81 441.01
  Q 52.01 440.43 52.37 440.49
  Q 52.69 440.55 52.73 440.23
  Q 52.86 439.31 53.61 439.38
  Q 51.41 444.44 52.18 449.87
  Q 51.35 456.71 56.54 461.11
  C 58.30 462.60 60.80 463.48 62.99 464.64
  Q 64.53 465.45 69.75 465.08
  Q 71.42 464.96 72.24 464.05
  A 1.30 1.27 15.3 0 1 72.96 463.65
  Q 80.18 462.39 87.22 460.35
  C 89.00 459.83 90.61 458.44 92.73 458.08
  Q 93.22 457.99 93.64 457.72
  C 94.86 456.94 96.69 456.67 97.59 456.33
  C 103.36 454.13 109.22 453.59 114.38 450.88
  Q 115.24 450.43 118.48 449.44
  C 119.71 449.06 121.33 449.24 122.65 448.12
  A 1.68 1.65 -69.2 0 1 123.50 447.73
  C 126.05 447.36 128.58 446.03 130.55 445.44
  Q 136.79 443.58 142.96 441.49
  C 144.35 441.02 146.18 439.91 148.06 439.62
  A 2.99 2.84 -61.4 0 0 148.96 439.33
  C 151.14 438.24 155.64 438.92 157.85 439.39
  Q 160.00 439.84 164.46 441.87
  Q 173.97 446.19 180.64 448.35
  Q 191.21 451.77 206.74 454.96
  C 208.14 455.25 209.99 456.00 211.80 456.12
  C 213.93 456.26 215.75 456.81 218.00 457.13
  Q 230.55 458.92 235.25 459.15
  Q 236.71 459.22 237.60 459.35
  Q 239.68 459.65 239.91 459.66
  C 259.60 460.21 275.47 460.13 292.50 457.36
  C 297.52 456.54 301.71 456.13 306.71 454.98
  Q 309.44 454.34 313.76 453.53
  Q 318.02 452.72 330.81 448.58
  Q 332.13 448.15 334.87 447.04
  C 337.69 445.91 340.87 445.16 343.41 444.13
  Q 345.58 443.25 347.74 442.35
  Q 348.08 442.21 348.43 441.68
  A 1.31 1.26 -81.8 0 1 349.11 441.15
  C 356.21 438.84 362.21 435.43 368.77 432.00
  Q 369.19 431.77 369.32 431.31
  Q 369.44 430.89 369.74 430.74
  Q 373.59 428.87 377.38 426.88
  Q 377.80 426.66 377.88 426.35
  Q 377.99 425.92 378.38 425.70
  Q 380.73 424.40 383.15 423.23
  C 384.17 422.73 384.97 421.75 385.74 421.37
  Q 387.90 420.28 389.63 418.62
  C 391.45 416.88 393.53 416.23 395.47 414.25
  Q 397.07 412.63 399.00 411.42
  C 400.26 410.62 401.00 409.50 402.42 408.82
  A 0.54 0.53 -79.1 0 0 402.58 408.71
  L 413.70 398.20
  Q 415.61 396.39 421.72 389.60
  Q 426.22 384.59 430.42 379.24
  C 431.43 377.96 433.20 376.09 434.34 374.31
  Q 434.95 373.35 436.42 371.37
  Q 437.42 370.01 438.10 368.44
  Q 438.29 368.00 438.61 367.64
  L 440.82 365.22
  A 0.87 0.86 -21.1 0 0 441.04 364.73
  Q 441.16 363.60 442.18 362.97
  Q 442.65 362.68 442.62 362.13
  Q 442.56 361.09 443.20 360.24
  Q 443.50 359.86 443.58 359.39
  Q 443.81 358.14 444.64 357.27
  Q 445.92 355.91 446.20 355.42
  Q 454.64 340.55 456.26 335.50
  Q 457.05 333.05 457.85 330.60
  Q 457.88 330.50 457.83 330.40
  Q 457.77 330.26 457.70 330.19
  Q 457.67 330.15 457.70 330.12
  C 460.15 327.66 460.43 324.96 461.16 321.20
  Q 461.18 321.14 461.24 321.13
  Q 461.39 321.12 461.52 321.12
  A 0.53 0.53 0.0 0 0 462.02 320.71
  Q 462.52 318.36 463.33 316.11
  C 463.72 315.03 463.62 313.74 464.18 312.61
  Q 465.01 310.95 465.17 310.21
  Q 466.02 306.39 467.50 302.75
  C 467.80 302.01 467.55 300.76 467.81 299.77
  Q 469.19 294.53 469.46 289.10
  Q 469.47 288.91 469.64 288.82
  Q 469.76 288.76 469.82 288.64
  Q 469.93 288.44 469.81 288.30
  Q 469.57 288.02 468.77 288.47
  L 469.20 286.33
  Q 470.49 286.83 470.63 283.99
  Q 470.66 283.23 470.89 282.81
  Q 471.13 282.38 471.13 281.90
  L 471.16 271.13
  Q 470.77 269.02 471.48 266.94
  Q 473.10 256.77 471.45 246.93
  Q 467.74 187.49 432.44 139.82
  Q 429.45 135.78 426.34 131.78
  Z" fill-opacity="0.227" fill="#161818"></path>
<path d="M 85.12 132.71
  L 81.74 137.07
  L 81.95 134.88
  Q 81.98 134.63 82.23 134.63
  Q 82.37 134.63 82.52 134.63
  Q 82.74 134.62 82.86 134.43
  Q 83.81 132.82 85.12 132.71
  Z" fill-opacity="0.227" fill="#161818"></path>
<path d="M 78.62 141.17
  L 74.74 146.83
  Q 74.55 146.84 74.43 146.64
  Q 74.24 146.29 74.49 145.99
  Q 75.30 144.99 75.78 143.81
  Q 76.26 142.67 76.86 142.19
  Q 77.69 141.52 78.62 141.17
  Z" fill-opacity="0.227" fill="#161818"></path>
<path d="M 74.40 147.32
  Q 44.22 192.42 40.91 246.72
  Q 40.32 247.37 40.42 248.51
  C 40.74 252.16 39.88 256.16 39.86 259.18
  C 39.76 273.99 41.41 288.58 45.17 302.92
  Q 47.01 309.96 49.07 316.94
  Q 50.39 321.41 51.81 325.85
  Q 51.83 325.89 51.86 325.92
  Q 51.99 326.02 52.15 326.08
  Q 52.46 326.18 52.58 326.48
  L 54.01 329.99
  Q 54.19 330.44 54.10 330.91
  Q 53.98 331.58 54.54 331.89
  Q 54.96 332.11 55.08 332.57
  Q 55.55 334.38 56.38 336.01
  Q 57.80 338.80 58.02 339.31
  C 58.75 341.03 59.31 342.64 60.37 344.25
  C 61.24 345.55 61.72 347.55 62.31 348.64
  Q 64.66 352.94 67.31 357.07
  C 67.90 358.00 68.01 359.09 68.71 360.01
  C 69.87 361.54 70.47 362.67 71.50 363.88
  Q 71.87 364.31 71.91 364.95
  A 1.12 1.11 23.3 0 0 72.18 365.62
  Q 76.91 371.09 78.34 377.64
  L 53.61 439.38
  Q 52.86 439.31 52.73 440.23
  Q 52.69 440.55 52.37 440.49
  Q 52.01 440.43 51.81 441.01
  Q 47.28 453.90 55.69 461.78
  Q 59.95 465.77 65.93 466.41
  Q 72.56 467.13 78.80 464.23
  Q 80.85 463.28 82.60 462.88
  C 86.70 461.95 90.63 460.63 94.54 459.09
  Q 94.56 459.08 95.14 458.56
  Q 95.30 458.41 95.57 458.36
  C 102.09 456.99 108.64 454.29 115.00 452.24
  Q 115.78 451.99 118.34 450.67
  Q 118.79 450.44 119.29 450.49
  C 120.79 450.66 121.75 449.82 122.92 449.55
  Q 124.76 449.13 126.54 448.49
  Q 134.12 445.75 141.74 443.11
  Q 145.78 441.70 151.75 440.49
  Q 154.73 439.88 157.12 440.79
  Q 157.58 440.97 158.08 440.99
  Q 159.19 441.01 160.11 441.71
  Q 160.43 441.95 160.82 441.99
  Q 161.02 442.02 161.22 442.04
  Q 161.45 442.06 161.65 442.16
  C 164.09 443.39 166.44 444.56 169.15 445.39
  Q 174.44 447.02 179.61 448.96
  Q 191.75 453.51 204.46 456.19
  C 205.51 456.41 206.22 456.90 207.23 457.01
  Q 212.78 457.61 215.56 458.18
  C 224.81 460.06 234.15 460.73 243.57 461.01
  C 261.63 461.55 279.29 460.84 297.19 458.22
  C 303.20 457.34 310.44 455.15 317.30 454.33
  Q 315.08 454.87 313.13 455.60
  Q 311.34 456.27 309.76 456.54
  Q 308.02 456.83 306.29 457.19
  Q 297.40 459.08 293.24 459.37
  Q 291.84 459.46 291.10 459.65
  C 286.98 460.69 282.07 460.89 277.81 461.32
  C 266.54 462.44 254.79 461.87 243.42 461.87
  Q 242.64 461.87 240.65 461.43
  C 239.38 461.15 237.91 461.40 236.78 461.29
  Q 227.52 460.39 218.25 459.58
  Q 215.38 459.33 208.58 457.97
  A 1.28 1.24 71.3 0 1 207.98 457.66
  Q 207.41 457.10 206.50 457.32
  A 1.64 1.62 48.9 0 1 205.52 457.25
  C 202.92 456.20 199.70 456.22 196.95 455.56
  C 192.46 454.48 188.12 453.16 183.73 451.68
  Q 183.50 451.60 183.42 451.39
  Q 183.30 451.12 183.01 451.03
  Q 178.96 449.80 174.93 448.49
  C 169.07 446.58 162.46 443.29 157.26 441.61
  Q 153.73 440.47 149.65 441.71
  Q 140.65 444.46 131.75 447.51
  Q 131.43 447.62 131.09 447.63
  Q 130.62 447.65 130.19 447.81
  L 124.15 450.07
  Q 123.72 450.23 123.37 450.54
  Q 123.12 450.76 122.86 450.84
  Q 113.70 453.83 104.58 456.92
  Q 102.13 457.75 99.04 458.47
  C 95.44 459.30 93.17 460.45 90.29 461.24
  Q 89.50 461.46 88.36 462.00
  C 87.45 462.42 86.54 462.41 85.62 462.76
  C 79.07 465.26 68.72 469.38 61.83 466.51
  C 60.86 466.10 60.04 466.23 59.15 465.72
  Q 49.07 459.85 49.45 448.49
  C 49.58 444.46 51.25 440.01 52.60 435.95
  C 53.19 434.16 54.40 432.10 54.86 429.85
  Q 54.96 429.36 55.29 428.98
  C 56.46 427.66 56.63 426.06 57.13 424.82
  Q 63.75 408.13 70.47 391.49
  Q 70.68 390.97 71.12 390.51
  A 0.68 0.61 -18.9 0 0 71.27 390.24
  Q 72.33 385.98 74.38 382.13
  Q 75.03 380.93 75.13 377.75
  Q 75.18 376.15 74.42 374.40
  C 73.76 372.88 73.44 371.63 72.39 370.23
  C 69.27 366.09 66.10 360.68 63.95 356.78
  C 63.11 355.26 61.56 353.42 60.95 351.24
  Q 59.75 346.96 56.84 342.39
  Q 55.87 340.86 55.15 338.33
  Q 55.02 337.85 54.68 337.48
  C 53.76 336.49 53.76 335.26 53.30 334.25
  Q 48.40 323.57 47.63 320.50
  Q 46.77 317.01 45.94 315.28
  Q 45.73 314.86 45.63 314.40
  Q 45.37 313.27 44.84 312.24
  Q 44.63 311.83 44.63 311.37
  C 44.62 308.83 43.49 306.67 42.99 304.22
  Q 42.25 300.54 41.91 299.34
  Q 40.60 294.65 40.37 293.01
  Q 37.05 269.69 38.08 246.21
  C 38.39 239.14 39.91 231.08 40.64 223.46
  Q 40.72 222.68 41.24 221.15
  C 41.58 220.14 41.52 219.05 41.94 218.00
  Q 43.36 214.45 43.89 210.68
  Q 44.12 209.03 44.98 206.99
  Q 45.69 205.32 46.11 203.25
  C 46.90 199.30 49.07 194.53 50.11 191.57
  Q 52.28 185.37 54.80 179.30
  C 55.23 178.27 55.91 177.76 56.37 176.75
  Q 58.40 172.32 60.58 167.97
  A 0.94 0.91 -1.5 0 1 60.97 167.57
  Q 61.40 167.34 61.49 166.87
  Q 61.60 166.36 61.66 166.21
  Q 63.37 162.43 65.66 159.01
  Q 65.93 158.60 66.39 158.44
  Q 67.09 158.20 66.89 157.37
  Q 66.77 156.86 67.07 156.44
  Q 67.23 156.22 67.48 156.13
  Q 67.74 156.05 67.80 155.79
  C 68.07 154.73 68.51 154.17 69.34 153.52
  Q 69.65 153.28 69.78 152.90
  A 1.17 1.08 -16.1 0 1 69.98 152.57
  Q 71.40 151.01 72.00 149.06
  Q 72.13 148.62 72.48 148.32
  Q 73.34 147.59 74.40 147.32
  Z" fill-opacity="0.227" fill="#161818"></path>
<path d="M 300.29 181.29
  L 299.82 187.97
  Q 266.72 258.88 233.60 329.77
  C 230.43 336.55 224.31 343.77 216.22 337.79
  Q 211.81 334.52 210.20 328.24
  Q 209.20 323.09 211.94 317.25
  Q 243.80 249.41 275.61 181.55
  C 277.24 177.63 280.56 175.36 284.17 173.39
  Q 286.60 172.06 289.05 172.30
  Q 297.44 173.12 300.29 181.29
  Z" fill="#03aac1"></path>
<path d="M 275.61 181.55
  Q 243.80 249.41 211.94 317.25
  Q 209.20 323.09 210.20 328.24
  Q 209.72 332.67 211.82 336.67
  C 213.04 339.01 217.39 342.20 219.86 342.70
  Q 225.72 343.88 229.70 339.93
  Q 231.63 338.01 233.61 334.14
  Q 235.45 330.52 236.87 328.00
  Q 240.00 322.47 242.08 316.24
  L 242.79 315.81
  Q 243.22 315.56 243.02 316.01
  L 234.90 334.43
  C 232.24 340.17 226.63 345.76 219.79 343.98
  Q 214.19 342.53 211.51 338.46
  C 208.26 333.56 207.08 328.91 208.34 323.11
  Q 209.63 317.15 214.40 309.27
  Q 214.78 308.65 215.51 306.45
  C 216.76 302.69 219.13 298.99 220.78 295.34
  Q 220.99 294.88 221.41 294.59
  Q 221.73 294.37 221.80 294.01
  A 1.09 0.02 -79.6 0 1 221.99 293.06
  C 222.69 291.42 223.01 289.30 224.66 288.26
  Q 224.81 288.17 224.65 288.10
  Q 224.54 288.05 224.46 287.94
  Q 224.36 287.79 224.44 287.63
  L 225.93 284.56
  A 0.33 0.32 -76.6 0 1 226.22 284.38
  Q 226.36 284.38 226.50 284.38
  Q 226.59 284.38 226.63 284.25
  Q 226.67 284.09 226.51 284.01
  A 0.33 0.32 -73.9 0 1 226.34 283.69
  Q 226.41 282.78 227.21 282.39
  Q 227.41 282.30 227.43 282.08
  Q 227.48 281.71 227.62 281.37
  Q 232.50 269.83 236.36 262.24
  Q 237.16 260.69 237.52 259.65
  Q 237.68 259.19 237.98 258.80
  Q 238.58 258.04 238.61 257.02
  Q 238.63 256.53 238.91 256.14
  C 240.48 254.01 241.31 251.16 242.27 249.33
  Q 243.22 247.53 244.06 245.98
  A 14.20 13.98 -25.9 0 0 245.56 241.77
  Q 245.66 241.20 247.13 239.17
  A 1.36 1.34 -29.0 0 0 247.38 238.33
  Q 247.34 237.40 248.01 236.74
  Q 248.35 236.41 248.37 235.94
  Q 248.39 235.51 248.72 235.28
  Q 249.07 235.03 249.22 234.64
  C 249.67 233.48 249.85 232.54 250.61 231.47
  Q 251.59 230.10 251.90 228.37
  A 1.25 1.24 77.1 0 1 252.38 227.60
  Q 253.41 226.84 253.49 225.53
  A 1.29 1.23 -20.5 0 1 253.90 224.68
  Q 254.40 224.23 254.54 223.59
  C 254.99 221.60 256.36 220.39 256.69 218.39
  Q 257.06 216.23 257.59 215.23
  Q 260.21 210.26 262.71 205.23
  Q 262.82 205.02 263.14 204.82
  Q 263.63 204.52 263.83 203.98
  Q 266.10 197.81 269.12 191.98
  Q 269.44 191.37 269.75 190.74
  Q 271.65 186.89 273.46 183.03
  Q 273.71 182.51 274.27 182.43
  Q 274.71 182.36 274.74 181.77
  Q 275.14 181.17 275.61 181.55
  Z" fill-opacity="0.227" fill="#161818"></path>
<path d="M 300.29 181.29
  Q 303.29 183.72 302.22 190.00
  Q 302.10 190.76 301.90 191.20
  Q 301.73 191.59 301.73 192.00
  Q 301.76 193.69 300.75 194.98
  Q 300.45 195.37 300.28 195.83
  Q 299.80 197.17 298.82 199.35
  Q 294.38 209.22 292.01 214.01
  C 291.61 214.83 291.73 215.46 291.37 216.12
  Q 288.37 221.57 286.12 227.35
  Q 285.94 227.82 285.56 228.16
  C 284.43 229.18 284.68 230.54 284.25 231.61
  Q 282.75 235.32 280.69 238.73
  C 279.19 241.21 277.43 244.53 276.55 247.33
  Q 276.03 248.96 275.14 250.40
  Q 274.04 252.19 273.58 253.34
  Q 272.36 256.39 270.79 259.30
  Q 270.62 259.62 270.62 259.99
  Q 270.62 260.18 270.62 260.36
  Q 270.63 260.73 270.41 261.04
  Q 268.73 263.49 268.01 266.34
  C 267.79 267.22 267.59 267.36 267.03 268.00
  Q 266.74 268.33 266.69 268.77
  C 266.46 270.52 265.07 271.20 264.69 272.98
  Q 264.58 273.45 264.27 273.82
  Q 263.30 274.94 262.36 277.74
  C 261.48 280.40 259.15 284.01 257.44 288.60
  C 257.19 289.27 256.53 289.84 256.26 290.52
  Q 255.31 292.88 254.31 295.23
  Q 254.11 295.71 253.70 296.03
  Q 252.42 297.08 252.61 298.79
  Q 252.67 299.28 252.41 299.70
  Q 250.53 302.81 249.08 306.09
  Q 248.66 307.06 248.19 308.03
  Q 246.50 311.61 244.81 315.18
  Q 244.60 315.63 244.63 316.13
  Q 244.66 316.52 244.48 316.73
  C 242.30 319.37 242.02 322.19 240.38 324.97
  Q 238.20 328.63 237.66 329.70
  Q 236.42 332.12 234.90 334.43
  L 243.02 316.01
  Q 243.22 315.56 242.79 315.81
  L 242.08 316.24
  L 245.15 309.86
  Q 245.36 309.43 245.37 308.95
  C 245.42 307.49 246.41 306.61 246.85 305.70
  Q 248.98 301.33 251.15 296.99
  C 252.32 294.64 253.40 291.38 254.98 288.72
  Q 255.25 288.27 255.25 287.75
  Q 255.26 287.16 255.69 287.11
  Q 256.21 287.06 256.41 286.57
  C 258.74 280.94 261.78 275.71 263.93 270.00
  C 264.62 268.15 266.21 265.45 266.53 262.67
  Q 266.58 262.18 266.91 261.81
  Q 267.10 261.58 267.22 261.26
  Q 267.58 260.25 267.37 261.32
  Q 267.32 261.55 267.19 261.75
  Q 266.94 262.15 267.02 262.45
  Q 267.13 262.87 267.36 262.50
  Q 268.94 259.91 270.63 255.26
  Q 272.62 249.78 278.87 238.12
  C 279.89 236.22 280.26 233.76 281.28 231.73
  Q 285.00 224.38 288.17 216.77
  C 288.70 215.50 289.74 214.53 290.28 213.47
  Q 292.54 209.02 294.43 204.41
  C 294.83 203.44 295.70 202.58 296.03 201.47
  C 296.78 199.00 297.75 196.89 298.86 194.58
  C 299.50 193.24 299.70 191.67 300.13 190.02
  Q 300.45 188.78 299.82 187.97
  L 300.29 181.29
  Z" fill-opacity="0.227" fill="#161818"></path>
<path d="M 299.82 187.97
  Q 300.45 188.78 300.13 190.02
  C 299.70 191.67 299.50 193.24 298.86 194.58
  C 297.75 196.89 296.78 199.00 296.03 201.47
  C 295.70 202.58 294.83 203.44 294.43 204.41
  Q 292.54 209.02 290.28 213.47
  C 289.74 214.53 288.70 215.50 288.17 216.77
  Q 285.00 224.38 281.28 231.73
  C 280.26 233.76 279.89 236.22 278.87 238.12
  Q 272.62 249.78 270.63 255.26
  Q 268.94 259.91 267.36 262.50
  Q 267.13 262.87 267.02 262.45
  Q 266.94 262.15 267.19 261.75
  Q 267.32 261.55 267.37 261.32
  Q 267.58 260.25 267.22 261.26
  Q 267.10 261.58 266.91 261.81
  Q 266.58 262.18 266.53 262.67
  C 266.21 265.45 264.62 268.15 263.93 270.00
  C 261.78 275.71 258.74 280.94 256.41 286.57
  Q 256.21 287.06 255.69 287.11
  Q 255.26 287.16 255.25 287.75
  Q 255.25 288.27 254.98 288.72
  C 253.40 291.38 252.32 294.64 251.15 296.99
  Q 248.98 301.33 246.85 305.70
  C 246.41 306.61 245.42 307.49 245.37 308.95
  Q 245.36 309.43 245.15 309.86
  L 242.08 316.24
  Q 240.00 322.47 236.87 328.00
  Q 235.45 330.52 233.61 334.14
  Q 231.63 338.01 229.70 339.93
  Q 225.72 343.88 219.86 342.70
  C 217.39 342.20 213.04 339.01 211.82 336.67
  Q 209.72 332.67 210.20 328.24
  Q 211.81 334.52 216.22 337.79
  C 224.31 343.77 230.43 336.55 233.60 329.77
  Q 266.72 258.88 299.82 187.97
  Z" fill-opacity="0.373" fill="#242626"></path>
<path d="M 202.92 201.07
  Q 204.87 206.13 203.87 211.06
  C 202.70 213.25 201.69 215.11 199.90 216.91
  Q 187.76 229.11 175.72 241.38
  C 170.30 246.91 167.66 251.34 170.94 258.60
  C 172.84 262.24 177.00 265.67 179.95 268.59
  Q 190.46 279.14 200.90 289.85
  Q 202.93 291.93 204.35 296.15
  L 203.86 302.23
  C 200.07 311.50 189.54 314.91 182.10 307.40
  Q 159.83 284.92 137.58 262.42
  Q 135.26 260.07 134.02 256.98
  Q 132.88 252.15 134.51 247.19
  Q 136.18 244.71 136.93 243.95
  Q 146.11 234.64 155.31 225.38
  L 183.24 197.27
  C 189.92 191.89 198.48 194.05 202.92 201.07
  Z" fill="#03aac1"></path>
<path d="M 377.55 246.55
  Q 379.39 252.98 377.42 259.27
  Q 354.88 282.37 331.91 305.44
  C 328.09 309.27 324.59 312.06 319.51 311.49
  Q 311.05 310.55 308.13 301.64
  Q 307.15 297.26 309.03 292.98
  Q 309.54 291.99 309.09 292.48
  L 311.38 289.53
  L 336.30 264.39
  L 341.05 258.79
  Q 344.99 249.93 338.15 243.08
  Q 324.56 229.47 311.02 215.73
  Q 309.23 213.91 308.01 209.91
  Q 307.34 206.32 308.64 202.50
  C 311.75 195.57 319.85 191.84 326.70 195.77
  Q 328.39 196.74 331.59 199.97
  Q 352.45 220.98 373.29 242.00
  Q 373.88 242.59 375.35 244.33
  Q 376.38 245.53 377.55 246.55
  Z" fill="#03aac1"></path>
<path d="M 183.24 197.27
  L 155.31 225.38
  Q 154.81 224.73 155.31 224.31
  Q 157.54 222.46 158.63 221.04
  A 50.71 48.04 -50.8 0 1 163.37 215.66
  Q 166.08 212.97 171.98 207.00
  Q 172.17 206.81 172.27 206.54
  Q 172.34 206.35 172.42 206.18
  Q 172.50 206.01 172.65 205.87
  Q 175.94 202.80 179.00 199.49
  Q 179.58 198.86 181.33 198.23
  Q 181.70 198.09 181.82 197.87
  Q 181.91 197.71 181.95 197.52
  Q 182.02 197.20 182.33 197.13
  Q 182.81 197.03 183.24 197.27
  Z" fill-opacity="0.227" fill="#161818"></path>
<path d="M 202.92 201.07
  Q 208.07 206.47 206.34 213.50
  Q 205.30 217.74 201.16 222.70
  Q 201.12 222.74 201.12 222.80
  L 201.12 223.20
  Q 201.12 223.27 201.08 223.31
  Q 192.31 232.36 183.21 241.09
  C 181.29 242.93 179.97 244.53 177.61 246.80
  Q 175.64 248.70 174.38 251.51
  C 172.28 256.18 174.38 260.98 177.28 264.61
  Q 177.91 264.74 177.89 265.26
  Q 177.87 265.73 178.15 266.10
  Q 178.54 266.62 179.12 266.64
  Q 179.63 266.66 179.81 267.14
  Q 180.09 267.88 179.95 268.59
  C 177.00 265.67 172.84 262.24 170.94 258.60
  C 171.22 256.44 170.63 254.50 171.22 252.53
  Q 173.04 246.53 178.50 242.72
  C 179.93 241.72 180.94 239.86 182.02 238.79
  Q 190.71 230.08 199.41 221.41
  Q 203.93 216.91 203.87 211.06
  Q 204.87 206.13 202.92 201.07
  Z" fill-opacity="0.227" fill="#161818"></path>
<path d="M 308.64 202.50
  Q 307.34 206.32 308.01 209.91
  C 307.14 213.35 308.27 214.69 309.72 217.59
  Q 309.87 217.89 310.16 217.93
  Q 310.50 217.97 310.70 218.26
  C 314.25 223.43 320.05 228.72 323.01 231.94
  Q 327.30 236.59 331.79 241.05
  C 332.42 241.67 333.17 242.00 333.84 242.66
  Q 337.41 246.20 339.71 250.65
  C 341.11 253.36 340.95 255.77 341.05 258.79
  L 336.30 264.39
  L 336.06 263.58
  Q 335.95 263.21 336.32 263.08
  Q 336.48 263.03 336.63 263.05
  Q 336.85 263.07 336.88 262.86
  C 337.06 261.67 337.85 260.91 338.09 259.83
  Q 338.85 256.35 338.60 252.77
  Q 338.51 251.51 337.60 250.85
  Q 337.22 250.57 337.02 250.15
  Q 336.07 248.16 334.23 246.91
  Q 333.95 246.72 333.89 246.52
  Q 333.84 246.35 333.87 246.16
  Q 333.90 245.92 333.73 245.74
  L 312.28 224.24
  Q 312.08 224.05 312.02 223.78
  Q 311.98 223.62 311.94 223.49
  Q 311.90 223.37 311.80 223.29
  Q 303.85 216.62 306.06 206.25
  Q 306.17 205.75 306.61 205.50
  Q 307.02 205.27 307.12 204.75
  Q 307.18 204.40 307.06 204.30
  Q 306.97 204.22 306.91 204.09
  Q 306.86 203.97 306.93 203.87
  Q 307.86 202.59 308.64 202.50
  Z" fill-opacity="0.227" fill="#161818"></path>
<path d="M 308.01 209.91
  Q 309.23 213.91 311.02 215.73
  Q 324.56 229.47 338.15 243.08
  Q 344.99 249.93 341.05 258.79
  C 340.95 255.77 341.11 253.36 339.71 250.65
  Q 337.41 246.20 333.84 242.66
  C 333.17 242.00 332.42 241.67 331.79 241.05
  Q 327.30 236.59 323.01 231.94
  C 320.05 228.72 314.25 223.43 310.70 218.26
  Q 310.50 217.97 310.16 217.93
  Q 309.87 217.89 309.72 217.59
  C 308.27 214.69 307.14 213.35 308.01 209.91
  Z" fill-opacity="0.373" fill="#242626"></path>
<path d="M 203.87 211.06
  Q 203.93 216.91 199.41 221.41
  Q 190.71 230.08 182.02 238.79
  C 180.94 239.86 179.93 241.72 178.50 242.72
  Q 173.04 246.53 171.22 252.53
  C 170.63 254.50 171.22 256.44 170.94 258.60
  C 167.66 251.34 170.30 246.91 175.72 241.38
  Q 187.76 229.11 199.90 216.91
  C 201.69 215.11 202.70 213.25 203.87 211.06
  Z" fill-opacity="0.373" fill="#242626"></path>
<path d="M 40.91 246.72
  Q 38.67 316.67 79.90 372.38
  Q 80.21 372.79 80.02 373.28
  L 78.34 377.64
  Q 76.91 371.09 72.18 365.62
  A 1.12 1.11 23.3 0 1 71.91 364.95
  Q 71.87 364.31 71.50 363.88
  C 70.47 362.67 69.87 361.54 68.71 360.01
  C 68.01 359.09 67.90 358.00 67.31 357.07
  Q 64.66 352.94 62.31 348.64
  C 61.72 347.55 61.24 345.55 60.37 344.25
  C 59.31 342.64 58.75 341.03 58.02 339.31
  Q 57.80 338.80 56.38 336.01
  Q 55.55 334.38 55.08 332.57
  Q 54.96 332.11 54.54 331.89
  Q 53.98 331.58 54.10 330.91
  Q 54.19 330.44 54.01 329.99
  L 52.58 326.48
  Q 52.46 326.18 52.15 326.08
  Q 51.99 326.02 51.86 325.92
  Q 51.83 325.89 51.81 325.85
  Q 50.39 321.41 49.07 316.94
  Q 47.01 309.96 45.17 302.92
  C 41.41 288.58 39.76 273.99 39.86 259.18
  C 39.88 256.16 40.74 252.16 40.42 248.51
  Q 40.32 247.37 40.91 246.72
  Z" fill-opacity="0.373" fill="#242626"></path>
<path d="M 377.55 246.55
  Q 383.09 252.87 379.80 262.22
  C 379.27 263.71 378.04 264.77 377.67 266.64
  A 0.83 0.81 74.2 0 1 377.43 267.08
  L 333.48 311.26
  Q 333.11 311.63 332.60 311.74
  Q 330.91 312.08 329.92 313.40
  Q 329.63 313.78 329.15 313.84
  Q 327.69 314.03 326.77 315.15
  Q 326.49 315.50 326.06 315.63
  Q 318.34 318.00 312.50 314.26
  Q 311.54 313.64 309.11 311.14
  C 305.79 307.73 305.63 303.42 305.96 298.77
  Q 306.03 297.74 306.49 297.25
  Q 307.08 296.63 307.10 296.60
  Q 307.42 295.98 307.34 295.28
  Q 307.29 294.88 307.61 294.64
  Q 308.05 294.32 307.84 293.66
  Q 307.66 293.10 308.21 292.90
  Q 308.54 292.78 309.03 292.98
  Q 307.15 297.26 308.13 301.64
  Q 307.28 305.52 309.65 308.88
  Q 312.11 312.38 313.14 312.90
  Q 323.33 318.08 331.10 310.59
  Q 340.42 301.60 366.92 274.70
  C 370.39 271.17 374.47 266.55 376.63 263.12
  Q 377.87 261.16 377.42 259.27
  Q 379.39 252.98 377.55 246.55
  Z" fill-opacity="0.227" fill="#161818"></path>
<path d="M 471.45 246.93
  Q 473.10 256.77 471.48 266.94
  L 471.45 246.93
  Z" fill-opacity="0.373" fill="#242626"></path>
<path d="M 134.51 247.19
  Q 132.88 252.15 134.02 256.98
  C 133.09 262.27 137.43 265.02 140.00 268.88
  Q 140.23 269.23 140.62 269.39
  Q 140.90 269.52 141.00 269.62
  C 143.31 272.13 145.98 274.34 148.15 276.80
  Q 152.85 282.12 157.95 287.05
  Q 161.38 290.37 164.75 293.75
  Q 170.99 299.99 177.24 306.25
  C 177.74 306.75 178.77 307.41 179.27 308.26
  Q 179.54 308.72 179.96 309.03
  L 183.57 311.66
  Q 183.95 311.93 184.17 312.35
  Q 184.62 313.21 185.88 313.63
  Q 195.58 316.84 201.72 309.61
  Q 204.25 306.63 203.86 302.23
  L 204.35 296.15
  Q 207.38 299.74 205.53 305.60
  Q 205.15 306.82 204.77 308.04
  C 204.14 310.04 202.30 311.66 200.95 313.22
  C 199.74 314.61 198.63 314.82 197.07 315.67
  C 195.03 316.79 191.75 316.74 189.48 316.64
  C 187.10 316.54 185.15 315.35 183.06 314.26
  C 181.55 313.48 180.63 312.07 179.13 311.11
  Q 178.07 310.44 177.53 309.91
  Q 171.44 303.85 165.41 297.72
  Q 163.74 296.02 162.05 294.32
  Q 152.63 284.84 143.43 275.14
  C 141.09 272.68 137.10 269.64 134.57 266.06
  A 0.98 0.98 0.0 0 1 134.40 265.42
  Q 134.44 264.89 134.06 264.50
  C 131.72 262.16 131.28 256.20 131.77 253.26
  Q 132.28 250.19 134.51 247.19
  Z" fill-opacity="0.227" fill="#161818"></path>
<path d="M 134.02 256.98
  Q 135.26 260.07 137.58 262.42
  Q 159.83 284.92 182.10 307.40
  C 189.54 314.91 200.07 311.50 203.86 302.23
  Q 204.25 306.63 201.72 309.61
  Q 195.58 316.84 185.88 313.63
  Q 184.62 313.21 184.17 312.35
  Q 183.95 311.93 183.57 311.66
  L 179.96 309.03
  Q 179.54 308.72 179.27 308.26
  C 178.77 307.41 177.74 306.75 177.24 306.25
  Q 170.99 299.99 164.75 293.75
  Q 161.38 290.37 157.95 287.05
  Q 152.85 282.12 148.15 276.80
  C 145.98 274.34 143.31 272.13 141.00 269.62
  Q 140.90 269.52 140.62 269.39
  Q 140.23 269.23 140.00 268.88
  C 137.43 265.02 133.09 262.27 134.02 256.98
  Z" fill-opacity="0.373" fill="#242626"></path>
<path d="M 377.42 259.27
  Q 377.87 261.16 376.63 263.12
  C 374.47 266.55 370.39 271.17 366.92 274.70
  Q 340.42 301.60 331.10 310.59
  Q 323.33 318.08 313.14 312.90
  Q 312.11 312.38 309.65 308.88
  Q 307.28 305.52 308.13 301.64
  Q 311.05 310.55 319.51 311.49
  C 324.59 312.06 328.09 309.27 331.91 305.44
  Q 354.88 282.37 377.42 259.27
  Z" fill-opacity="0.373" fill="#242626"></path>
<path d="M 471.16 271.13
  L 471.13 281.90
  Q 471.13 282.38 470.89 282.81
  Q 470.66 283.23 470.63 283.99
  Q 470.49 286.83 469.20 286.33
  L 471.16 271.13
  Z" fill-opacity="0.373" fill="#242626"></path>
<path d="M 52.18 449.87
  Q 56.00 461.03 66.19 461.75
  Q 69.70 462.00 75.61 460.02
  Q 114.76 446.91 153.99 433.91
  Q 154.47 433.75 154.92 433.97
  C 198.06 454.61 247.06 460.45 294.25 453.36
  C 381.62 440.25 452.91 376.77 468.77 288.47
  Q 469.57 288.02 469.81 288.30
  Q 469.93 288.44 469.82 288.64
  Q 469.76 288.76 469.64 288.82
  Q 469.47 288.91 469.46 289.10
  Q 469.19 294.53 467.81 299.77
  C 467.55 300.76 467.80 302.01 467.50 302.75
  Q 466.02 306.39 465.17 310.21
  Q 465.01 310.95 464.18 312.61
  C 463.62 313.74 463.72 315.03 463.33 316.11
  Q 462.52 318.36 462.02 320.71
  A 0.53 0.53 0.0 0 1 461.52 321.12
  Q 461.39 321.12 461.24 321.13
  Q 461.18 321.14 461.16 321.20
  C 460.43 324.96 460.15 327.66 457.70 330.12
  Q 457.67 330.15 457.70 330.19
  Q 457.77 330.26 457.83 330.40
  Q 457.88 330.50 457.85 330.60
  Q 457.05 333.05 456.26 335.50
  Q 454.64 340.55 446.20 355.42
  Q 445.92 355.91 444.64 357.27
  Q 443.81 358.14 443.58 359.39
  Q 443.50 359.86 443.20 360.24
  Q 442.56 361.09 442.62 362.13
  Q 442.65 362.68 442.18 362.97
  Q 441.16 363.60 441.04 364.73
  A 0.87 0.86 -21.1 0 1 440.82 365.22
  L 438.61 367.64
  Q 438.29 368.00 438.10 368.44
  Q 437.42 370.01 436.42 371.37
  Q 434.95 373.35 434.34 374.31
  C 433.20 376.09 431.43 377.96 430.42 379.24
  Q 426.22 384.59 421.72 389.60
  Q 415.61 396.39 413.70 398.20
  L 402.58 408.71
  A 0.54 0.53 -79.1 0 1 402.42 408.82
  C 401.00 409.50 400.26 410.62 399.00 411.42
  Q 397.07 412.63 395.47 414.25
  C 393.53 416.23 391.45 416.88 389.63 418.62
  Q 387.90 420.28 385.74 421.37
  C 384.97 421.75 384.17 422.73 383.15 423.23
  Q 380.73 424.40 378.38 425.70
  Q 377.99 425.92 377.88 426.35
  Q 377.80 426.66 377.38 426.88
  Q 373.59 428.87 369.74 430.74
  Q 369.44 430.89 369.32 431.31
  Q 369.19 431.77 368.77 432.00
  C 362.21 435.43 356.21 438.84 349.11 441.15
  A 1.31 1.26 -81.8 0 0 348.43 441.68
  Q 348.08 442.21 347.74 442.35
  Q 345.58 443.25 343.41 444.13
  C 340.87 445.16 337.69 445.91 334.87 447.04
  Q 332.13 448.15 330.81 448.58
  Q 318.02 452.72 313.76 453.53
  Q 309.44 454.34 306.71 454.98
  C 301.71 456.13 297.52 456.54 292.50 457.36
  C 275.47 460.13 259.60 460.21 239.91 459.66
  Q 239.68 459.65 237.60 459.35
  Q 236.71 459.22 235.25 459.15
  Q 230.55 458.92 218.00 457.13
  C 215.75 456.81 213.93 456.26 211.80 456.12
  C 209.99 456.00 208.14 455.25 206.74 454.96
  Q 191.21 451.77 180.64 448.35
  Q 173.97 446.19 164.46 441.87
  Q 160.00 439.84 157.85 439.39
  C 155.64 438.92 151.14 438.24 148.96 439.33
  A 2.99 2.84 -61.4 0 1 148.06 439.62
  C 146.18 439.91 144.35 441.02 142.96 441.49
  Q 136.79 443.58 130.55 445.44
  C 128.58 446.03 126.05 447.36 123.50 447.73
  A 1.68 1.65 -69.2 0 0 122.65 448.12
  C 121.33 449.24 119.71 449.06 118.48 449.44
  Q 115.24 450.43 114.38 450.88
  C 109.22 453.59 103.36 454.13 97.59 456.33
  C 96.69 456.67 94.86 456.94 93.64 457.72
  Q 93.22 457.99 92.73 458.08
  C 90.61 458.44 89.00 459.83 87.22 460.35
  Q 80.18 462.39 72.96 463.65
  A 1.30 1.27 15.3 0 0 72.24 464.05
  Q 71.42 464.96 69.75 465.08
  Q 64.53 465.45 62.99 464.64
  C 60.80 463.48 58.30 462.60 56.54 461.11
  Q 51.35 456.71 52.18 449.87
  Z" fill-opacity="0.373" fill="#242626"></path>
<path d="M 311.38 289.53
  L 309.09 292.48
  Q 309.60 289.23 311.38 289.53
  Z" fill-opacity="0.227" fill="#161818"></path>
<path d="M 102.13 350.67
  L 97.32 343.36
  Q 98.10 343.91 98.78 344.44
  C 99.66 345.13 99.96 345.94 100.39 346.92
  Q 100.58 347.35 100.93 347.68
  Q 102.08 348.77 102.13 350.67
  Z" fill-opacity="0.227" fill="#161818"></path>
<path d="M 115.33 368.65
  Q 116.74 372.92 115.66 376.15
  Q 113.99 381.15 112.26 386.18
  C 111.57 388.19 110.44 390.18 109.61 392.24
  Q 105.84 401.59 102.27 411.01
  Q 100.32 416.18 102.98 418.36
  L 99.91 419.36
  Q 98.33 415.78 99.92 412.28
  Q 100.75 410.48 100.77 410.42
  C 103.66 403.13 106.57 395.83 109.53 388.56
  Q 112.17 382.10 114.27 375.49
  Q 115.06 372.99 113.94 371.62
  Q 114.06 370.55 115.33 368.65
  Z" fill-opacity="0.227" fill="#161818"></path>
<path d="M 113.94 371.62
  Q 115.06 372.99 114.27 375.49
  Q 112.17 382.10 109.53 388.56
  C 106.57 395.83 103.66 403.13 100.77 410.42
  Q 100.75 410.48 99.92 412.28
  Q 98.33 415.78 99.91 419.36
  L 94.79 420.95
  Q 94.17 421.15 94.41 420.54
  L 113.94 371.62
  Z" fill-opacity="0.373" fill="#242626"></path>
<path d="M 389.34 374.80
  L 386.01 377.85
  Q 385.66 377.09 386.14 376.64
  Q 386.39 376.41 386.67 376.37
  Q 387.10 376.30 387.29 375.90
  Q 387.96 374.48 389.34 374.80
  Z" fill-opacity="0.227" fill="#161818"></path>
<path d="M 382.51 381.00
  Q 381.74 381.87 380.70 382.46
  Q 380.69 381.87 380.94 381.35
  Q 381.14 380.91 381.62 380.87
  Q 382.06 380.83 382.51 381.00
  Z" fill-opacity="0.227" fill="#161818"></path>
<path d="M 378.08 384.53
  Q 376.95 385.82 375.49 386.64
  Q 375.44 384.74 378.08 384.53
  Z" fill-opacity="0.227" fill="#161818"></path>
</svg>
