<svg viewBox="0.00 0.00 32.00 32.00" version="1.1" xmlns="http://www.w3.org/2000/svg">
<g stroke-linecap="butt" fill="none" stroke-width="2.00">
<path d="M 19.08 15.58
  Q 18.59 16.02 17.94 16.19
  A 0.50 0.50 0.0 0 0 17.63 16.91
  L 18.13 17.84
  Q 18.47 18.46 18.72 17.80
  C 19.59 15.55 23.09 15.41 25.17 14.77
  Q 25.29 14.73 25.28 14.61
  Q 25.27 14.48 25.17 14.36
  Q 25.09 14.27 24.98 14.29
  L 20.91 14.90
  Q 20.39 14.98 20.03 14.60
  Q 18.96 13.48 17.58 14.28
  Q 17.08 14.57 16.53 14.38
  Q 15.19 13.90 13.76 14.17
  A 0.41 0.41 0.0 0 1 13.41 13.47
  Q 13.98 12.94 14.74 13.00
  A 1.55 1.54 -55.1 0 0 15.56 12.85
  Q 16.75 12.26 17.57 11.23
  Q 17.72 11.04 17.51 10.92
  L 17.27 10.79
  A 0.24 0.24 0.0 0 0 16.94 10.89
  Q 16.51 11.68 15.73 11.94
  Q 12.79 12.93 10.41 13.76
  Q 9.23 14.16 9.76 13.03
  L 10.42 11.62
  Q 10.99 10.40 12.34 10.30
  L 15.00 10.12
  Q 15.14 10.11 15.14 10.04
  L 15.14 10.04
  Q 15.15 9.96 15.01 9.94
  Q 9.04 9.12 4.04 12.35
  Q 3.36 12.79 3.83 13.45
  Q 4.27 14.08 5.01 14.35
  A 0.34 0.34 0.0 0 0 5.40 13.82
  Q 5.17 13.51 5.35 12.96
  A 0.73 0.72 -1.1 0 1 5.77 12.53
  L 9.11 11.25
  Q 9.97 10.92 9.62 11.77
  L 7.47 17.11
  Q 7.27 17.61 7.80 17.71
  L 8.15 17.77
  A 0.11 0.11 0.0 0 0 8.28 17.67
  Q 8.35 16.48 9.03 15.60
  Q 9.34 15.20 9.84 15.28
  Q 11.17 15.48 12.30 14.77
  Q 12.79 14.46 13.32 14.69
  Q 14.63 15.27 16.08 15.26
  Q 16.55 15.25 16.99 15.05
  Q 17.92 14.63 18.96 14.99
  Q 19.52 15.18 19.08 15.58" stroke="#7f7e7e"></path>
<path d="M 2.38 20.24
  Q 2.14 19.50 2.28 18.72
  Q 2.37 18.15 1.80 18.25
  Q 1.54 18.30 1.46 18.62
  Q 1.16 19.89 2.02 20.51
  A 0.24 0.23 -81.3 0 0 2.38 20.24" stroke="#7f7e7e"></path>
<path d="M 6.49 19.23
  Q 6.78 19.02 6.90 18.82
  Q 7.10 18.46 6.71 18.32
  Q 6.25 18.16 5.90 18.49
  Q 5.66 18.70 5.67 19.07
  Q 5.69 19.86 6.18 20.35
  Q 6.33 20.51 6.42 20.30
  Q 6.49 20.15 6.49 20.03
  Q 6.48 19.24 6.49 19.23" stroke="#7f7e7e"></path>
<path d="M 11.78 19.80
  L 12.05 20.03
  Q 12.24 20.19 12.36 19.97
  Q 13.25 18.40 11.45 18.12
  A 0.98 0.98 0.0 0 0 10.32 19.07
  Q 10.31 19.59 10.51 20.00
  A 0.17 0.17 0.0 0 0 10.77 20.06
  L 11.12 19.79
  Q 11.46 19.53 11.78 19.80" stroke="#7f7e7e"></path>
<path d="M 15.75 19.35
  Q 15.56 19.90 16.14 19.96
  Q 16.36 19.98 16.63 19.89
  Q 16.95 19.78 16.91 19.45
  L 16.80 18.55
  A 0.38 0.38 0.0 0 0 16.07 18.47
  L 15.75 19.35" stroke="#7f7e7e"></path>
<path d="M 20.70 20.26
  A 0.33 0.32 -47.6 0 0 21.30 20.23
  Q 21.57 19.52 21.50 18.73
  Q 21.44 18.02 20.77 18.24
  Q 20.43 18.35 20.33 18.75
  Q 20.21 19.21 20.70 20.26" stroke="#7f7e7e"></path>
<path d="M 25.46 19.50
  Q 25.65 19.17 25.67 18.81
  Q 25.70 18.23 25.13 18.17
  Q 24.76 18.14 24.60 18.54
  Q 24.24 19.48 24.87 20.19
  Q 25.29 20.65 25.50 20.06
  Q 25.60 19.78 25.46 19.50" stroke="#7f7e7e"></path>
<path d="M 29.49 19.00
  L 29.57 20.37
  A 0.28 0.28 0.0 0 0 30.12 20.44
  Q 30.46 19.37 30.19 18.21
  A 0.35 0.35 0.0 0 0 29.57 18.08
  Q 29.27 18.46 29.42 18.76
  Q 29.48 18.87 29.49 19.00" stroke="#7f7e7e"></path>
</g>
<path d="M 0.00 0.00
  L 32.00 0.00
  L 32.00 32.00
  L 0.00 32.00
  L 0.00 0.00
  Z
  M 19.08 15.58
  Q 18.59 16.02 17.94 16.19
  A 0.50 0.50 0.0 0 0 17.63 16.91
  L 18.13 17.84
  Q 18.47 18.46 18.72 17.80
  C 19.59 15.55 23.09 15.41 25.17 14.77
  Q 25.29 14.73 25.28 14.61
  Q 25.27 14.48 25.17 14.36
  Q 25.09 14.27 24.98 14.29
  L 20.91 14.90
  Q 20.39 14.98 20.03 14.60
  Q 18.96 13.48 17.58 14.28
  Q 17.08 14.57 16.53 14.38
  Q 15.19 13.90 13.76 14.17
  A 0.41 0.41 0.0 0 1 13.41 13.47
  Q 13.98 12.94 14.74 13.00
  A 1.55 1.54 -55.1 0 0 15.56 12.85
  Q 16.75 12.26 17.57 11.23
  Q 17.72 11.04 17.51 10.92
  L 17.27 10.79
  A 0.24 0.24 0.0 0 0 16.94 10.89
  Q 16.51 11.68 15.73 11.94
  Q 12.79 12.93 10.41 13.76
  Q 9.23 14.16 9.76 13.03
  L 10.42 11.62
  Q 10.99 10.40 12.34 10.30
  L 15.00 10.12
  Q 15.14 10.11 15.14 10.04
  L 15.14 10.04
  Q 15.15 9.96 15.01 9.94
  Q 9.04 9.12 4.04 12.35
  Q 3.36 12.79 3.83 13.45
  Q 4.27 14.08 5.01 14.35
  A 0.34 0.34 0.0 0 0 5.40 13.82
  Q 5.17 13.51 5.35 12.96
  A 0.73 0.72 -1.1 0 1 5.77 12.53
  L 9.11 11.25
  Q 9.97 10.92 9.62 11.77
  L 7.47 17.11
  Q 7.27 17.61 7.80 17.71
  L 8.15 17.77
  A 0.11 0.11 0.0 0 0 8.28 17.67
  Q 8.35 16.48 9.03 15.60
  Q 9.34 15.20 9.84 15.28
  Q 11.17 15.48 12.30 14.77
  Q 12.79 14.46 13.32 14.69
  Q 14.63 15.27 16.08 15.26
  Q 16.55 15.25 16.99 15.05
  Q 17.92 14.63 18.96 14.99
  Q 19.52 15.18 19.08 15.58
  Z
  M 2.38 20.24
  Q 2.14 19.50 2.28 18.72
  Q 2.37 18.15 1.80 18.25
  Q 1.54 18.30 1.46 18.62
  Q 1.16 19.89 2.02 20.51
  A 0.24 0.23 -81.3 0 0 2.38 20.24
  Z
  M 6.49 19.23
  Q 6.78 19.02 6.90 18.82
  Q 7.10 18.46 6.71 18.32
  Q 6.25 18.16 5.90 18.49
  Q 5.66 18.70 5.67 19.07
  Q 5.69 19.86 6.18 20.35
  Q 6.33 20.51 6.42 20.30
  Q 6.49 20.15 6.49 20.03
  Q 6.48 19.24 6.49 19.23
  Z
  M 11.78 19.80
  L 12.05 20.03
  Q 12.24 20.19 12.36 19.97
  Q 13.25 18.40 11.45 18.12
  A 0.98 0.98 0.0 0 0 10.32 19.07
  Q 10.31 19.59 10.51 20.00
  A 0.17 0.17 0.0 0 0 10.77 20.06
  L 11.12 19.79
  Q 11.46 19.53 11.78 19.80
  Z
  M 15.75 19.35
  Q 15.56 19.90 16.14 19.96
  Q 16.36 19.98 16.63 19.89
  Q 16.95 19.78 16.91 19.45
  L 16.80 18.55
  A 0.38 0.38 0.0 0 0 16.07 18.47
  L 15.75 19.35
  Z
  M 20.70 20.26
  A 0.33 0.32 -47.6 0 0 21.30 20.23
  Q 21.57 19.52 21.50 18.73
  Q 21.44 18.02 20.77 18.24
  Q 20.43 18.35 20.33 18.75
  Q 20.21 19.21 20.70 20.26
  Z
  M 25.46 19.50
  Q 25.65 19.17 25.67 18.81
  Q 25.70 18.23 25.13 18.17
  Q 24.76 18.14 24.60 18.54
  Q 24.24 19.48 24.87 20.19
  Q 25.29 20.65 25.50 20.06
  Q 25.60 19.78 25.46 19.50
  Z
  M 29.49 19.00
  L 29.57 20.37
  A 0.28 0.28 0.0 0 0 30.12 20.44
  Q 30.46 19.37 30.19 18.21
  A 0.35 0.35 0.0 0 0 29.57 18.08
  Q 29.27 18.46 29.42 18.76
  Q 29.48 18.87 29.49 19.00
  Z" fill="#000000"></path>
<path d="M 18.96 14.99
  Q 17.92 14.63 16.99 15.05
  Q 16.55 15.25 16.08 15.26
  Q 14.63 15.27 13.32 14.69
  Q 12.79 14.46 12.30 14.77
  Q 11.17 15.48 9.84 15.28
  Q 9.34 15.20 9.03 15.60
  Q 8.35 16.48 8.28 17.67
  A 0.11 0.11 0.0 0 1 8.15 17.77
  L 7.80 17.71
  Q 7.27 17.61 7.47 17.11
  L 9.62 11.77
  Q 9.97 10.92 9.11 11.25
  L 5.77 12.53
  A 0.73 0.72 -1.1 0 0 5.35 12.96
  Q 5.17 13.51 5.40 13.82
  A 0.34 0.34 0.0 0 1 5.01 14.35
  Q 4.27 14.08 3.83 13.45
  Q 3.36 12.79 4.04 12.35
  Q 9.04 9.12 15.01 9.94
  Q 15.15 9.96 15.14 10.04
  L 15.14 10.04
  Q 15.14 10.11 15.00 10.12
  L 12.34 10.30
  Q 10.99 10.40 10.42 11.62
  L 9.76 13.03
  Q 9.23 14.16 10.41 13.76
  Q 12.79 12.93 15.73 11.94
  Q 16.51 11.68 16.94 10.89
  A 0.24 0.24 0.0 0 1 17.27 10.79
  L 17.51 10.92
  Q 17.72 11.04 17.57 11.23
  Q 16.75 12.26 15.56 12.85
  A 1.55 1.54 -55.1 0 1 14.74 13.00
  Q 13.98 12.94 13.41 13.47
  A 0.41 0.41 0.0 0 0 13.76 14.17
  Q 15.19 13.90 16.53 14.38
  Q 17.08 14.57 17.58 14.28
  Q 18.96 13.48 20.03 14.60
  Q 20.39 14.98 20.91 14.90
  L 24.98 14.29
  Q 25.09 14.27 25.17 14.36
  Q 25.27 14.48 25.28 14.61
  Q 25.29 14.73 25.17 14.77
  C 23.09 15.41 19.59 15.55 18.72 17.80
  Q 18.47 18.46 18.13 17.84
  L 17.63 16.91
  A 0.50 0.50 0.0 0 1 17.94 16.19
  Q 18.59 16.02 19.08 15.58
  Q 19.52 15.18 18.96 14.99
  Z" fill="#fdfcfb"></path>
<path d="M 2.38 20.24
  A 0.24 0.23 -81.3 0 1 2.02 20.51
  Q 1.16 19.89 1.46 18.62
  Q 1.54 18.30 1.80 18.25
  Q 2.37 18.15 2.28 18.72
  Q 2.14 19.50 2.38 20.24
  Z" fill="#fdfcfb"></path>
<path d="M 6.49 20.03
  Q 6.49 20.15 6.42 20.30
  Q 6.33 20.51 6.18 20.35
  Q 5.69 19.86 5.67 19.07
  Q 5.66 18.70 5.90 18.49
  Q 6.25 18.16 6.71 18.32
  Q 7.10 18.46 6.90 18.82
  Q 6.78 19.02 6.49 19.23
  Q 6.48 19.24 6.49 20.03
  Z" fill="#fdfcfb"></path>
<path d="M 11.12 19.79
  L 10.77 20.06
  A 0.17 0.17 0.0 0 1 10.51 20.00
  Q 10.31 19.59 10.32 19.07
  A 0.98 0.98 0.0 0 1 11.45 18.12
  Q 13.25 18.40 12.36 19.97
  Q 12.24 20.19 12.05 20.03
  L 11.78 19.80
  Q 11.46 19.53 11.12 19.79
  Z" fill="#fdfcfb"></path>
<path d="M 15.75 19.35
  L 16.07 18.47
  A 0.38 0.38 0.0 0 1 16.80 18.55
  L 16.91 19.45
  Q 16.95 19.78 16.63 19.89
  Q 16.36 19.98 16.14 19.96
  Q 15.56 19.90 15.75 19.35
  Z" fill="#fdfcfb"></path>
<path d="M 20.70 20.26
  Q 20.21 19.21 20.33 18.75
  Q 20.43 18.35 20.77 18.24
  Q 21.44 18.02 21.50 18.73
  Q 21.57 19.52 21.30 20.23
  A 0.33 0.32 -47.6 0 1 20.70 20.26
  Z" fill="#fdfcfb"></path>
<path d="M 25.46 19.50
  Q 25.60 19.78 25.50 20.06
  Q 25.29 20.65 24.87 20.19
  Q 24.24 19.48 24.60 18.54
  Q 24.76 18.14 25.13 18.17
  Q 25.70 18.23 25.67 18.81
  Q 25.65 19.17 25.46 19.50
  Z" fill="#fdfcfb"></path>
<path d="M 29.42 18.76
  Q 29.27 18.46 29.57 18.08
  A 0.35 0.35 0.0 0 1 30.19 18.21
  Q 30.46 19.37 30.12 20.44
  A 0.28 0.28 0.0 0 1 29.57 20.37
  L 29.49 19.00
  Q 29.48 18.87 29.42 18.76
  Z" fill="#fdfcfb"></path>
</svg>
