<svg viewBox="0.00 0.00 192.00 192.00" version="1.1" xmlns="http://www.w3.org/2000/svg">
<g stroke-linecap="butt" fill="none" stroke-width="2.00">
<path d="M 120.45 8.24
  Q 118.80 9.56 117.18 10.72
  Q 115.36 12.02 114.05 13.33
  Q 95.40 31.99 76.75 50.65
  Q 76.15 51.24 75.87 52.10
  Q 75.70 52.60 75.40 52.17
  Q 75.16 51.84 74.80 51.70" stroke="#0da0d8"></path>
<path d="M 74.80 51.70
  C 76.39 39.94 66.93 31.37 55.37 33.57" stroke="#06b5d1"></path>
<path d="M 55.37 33.57
  Q 55.48 32.62 57.78 32.66
  A 0.66 0.04 -44.5 0 0 58.25 32.25
  Q 58.44 32.05 58.32 31.86
  Q 58.05 31.42 58.42 31.05
  L 82.58 7.37
  Q 82.85 7.11 82.49 6.98
  Q 81.23 6.52 79.95 6.74
  Q 79.53 6.81 79.11 6.79
  Q 78.01 6.73 76.74 6.95" stroke="#0aaad5"></path>
<path d="M 147.00 20.48
  L 146.72 20.91
  Q 146.47 21.29 146.08 21.06
  Q 145.52 20.72 144.95 21.32
  Q 144.87 21.40 144.80 21.31
  Q 144.72 21.20 144.58 21.15
  Q 144.50 21.13 144.45 21.18
  L 93.96 71.40" stroke="#1194db"></path>
<path d="M 93.96 71.40
  L 74.58 54.94
  Q 74.18 54.60 74.29 54.08
  L 74.80 51.70" stroke="#08afd3"></path>
<path d="M 55.37 33.57
  Q 45.98 36.65 43.75 46.23" stroke="#04b9d0"></path>
<path d="M 43.75 46.23
  Q 42.73 47.17 41.88 48.33
  Q 40.82 49.79 40.12 50.49
  Q 24.78 65.85 9.28 81.33
  A 1.47 1.47 0.0 0 1 7.11 81.23
  Q 6.49 80.49 6.40 79.27" stroke="#0aaad5"></path>
<path d="M 113.57 88.05
  L 133.50 105.00
  A 3.29 3.29 0.0 0 0 138.84 103.20
  L 143.32 82.95
  A 0.61 0.61 0.0 0 0 143.06 82.31
  Q 136.99 78.18 136.01 70.71" stroke="#0ca3d6"></path>
<path d="M 151.53 53.41
  C 163.86 53.81 170.39 65.08 165.67 76.47" stroke="#0ca3d6"></path>
<path d="M 165.67 76.47
  Q 161.77 83.24 154.11 84.70
  A 0.70 0.68 -88.6 0 0 153.56 85.24
  L 148.90 106.40
  Q 148.74 107.11 149.31 107.56
  Q 157.48 113.95 155.79 124.04" stroke="#0e9dd8"></path>
<path d="M 155.79 124.04
  Q 151.91 136.35 138.82 136.25" stroke="#1097da"></path>
<path d="M 138.82 136.25
  C 127.80 134.46 121.37 123.63 126.37 113.58
  A 0.92 0.91 -57.0 0 0 126.14 112.47
  L 120.54 107.75" stroke="#0e9dd8"></path>
<path d="M 120.54 107.75
  L 100.85 91.02
  A 0.94 0.94 0.0 0 0 99.74 90.95
  L 71.86 108.89
  A 0.85 0.85 0.0 0 0 71.48 109.77
  Q 72.66 115.83 69.43 120.96
  Q 69.16 121.40 69.47 121.81
  L 80.17 136.01
  A 0.84 0.82 -21.3 0 0 80.92 136.33
  L 86.66 135.67" stroke="#0ca3d6"></path>
<path d="M 86.66 135.67
  C 97.98 137.16 104.96 149.52 98.66 159.44
  C 93.31 167.87 83.34 169.44 75.12 163.61" stroke="#0e9dd8"></path>
<path d="M 75.12 163.61
  Q 65.85 154.48 71.86 143.14
  A 0.79 0.79 0.0 0 0 71.79 142.30
  L 64.60 132.80" stroke="#0ca3d6"></path>
<path d="M 64.60 132.80
  L 61.19 128.25
  Q 60.86 127.80 60.32 127.92
  Q 47.62 130.69 41.35 118.73" stroke="#0aa9d5"></path>
<path d="M 41.35 118.73
  Q 39.57 113.86 40.92 108.75
  C 43.79 97.85 56.13 93.87 65.24 99.98
  Q 65.72 100.30 66.20 100.00
  L 91.41 83.93
  A 0.54 0.53 48.6 0 0 91.46 83.07
  L 67.77 62.97
  A 0.91 0.90 55.7 0 0 66.90 62.80
  C 63.93 63.78 62.40 64.73 58.58 64.65" stroke="#08afd3"></path>
<path d="M 58.58 64.65
  C 48.50 63.97 42.83 55.96 43.75 46.23" stroke="#06b5d1"></path>
<path d="M 166.39 38.19
  Q 158.74 43.91 152.07 51.30
  Q 151.87 51.52 151.89 51.82
  Q 151.90 52.02 151.82 52.21
  Q 151.66 52.58 151.25 52.57
  Q 150.95 52.57 150.68 52.74
  Q 150.09 53.10 150.77 53.25
  L 151.53 53.41" stroke="#1588df"></path>
<path d="M 151.53 53.41
  C 142.18 53.75 135.28 61.30 136.01 70.71" stroke="#0aa9d5"></path>
<path d="M 136.01 70.71
  Q 135.49 70.97 135.49 70.84
  A 0.63 0.54 -40.6 0 1 135.53 70.58
  Q 135.96 69.34 135.72 68.72
  A 0.55 0.54 -33.3 0 0 134.83 68.54
  L 115.32 88.07
  Q 115.18 88.22 115.11 88.02
  Q 115.01 87.68 114.76 87.63
  Q 113.90 87.45 113.57 88.05" stroke="#1588df"></path>
<path d="M 113.57 88.05
  L 93.96 71.40" stroke="#0aa9d5"></path>
<path d="M 58.58 64.65
  Q 58.06 65.20 57.13 65.35
  Q 57.11 65.35 57.11 65.38
  Q 57.11 65.62 57.22 65.87
  A 0.18 0.17 -12.4 0 1 57.06 66.11
  Q 56.88 66.11 56.68 66.11
  Q 56.52 66.10 56.40 66.22
  L 9.70 112.92
  Q 9.32 113.30 8.93 112.92
  Q 8.56 112.56 8.05 112.36
  Q 7.87 112.29 7.87 112.49
  Q 7.87 112.62 7.88 112.76
  Q 7.90 113.00 7.37 112.62
  Q 7.25 112.53 7.19 112.37
  Q 7.12 112.19 7.13 111.99
  Q 7.17 111.00 7.10 110.16
  Q 7.03 109.39 6.61 110.03
  Q 6.24 110.59 6.15 111.22" stroke="#0da0d8"></path>
<path d="M 120.54 107.75
  Q 118.74 108.36 118.07 106.83
  A 1.19 1.18 55.6 0 0 116.15 106.47
  L 96.49 126.14
  Q 96.12 126.50 96.12 127.02
  L 96.12 127.50
  Q 96.12 128.12 95.50 128.12
  L 94.94 128.12
  Q 94.49 128.12 94.17 128.43
  L 86.66 135.67" stroke="#1a7ce2"></path>
<path d="M 64.60 132.80
  L 35.64 162.31
  Q 35.32 162.64 34.86 162.75
  Q 34.44 162.85 34.03 162.79" stroke="#1588df"></path>
<path d="M 179.65 59.95
  Q 179.25 60.72 178.43 60.87
  Q 177.95 60.95 177.56 61.24
  Q 173.36 64.31 169.80 68.09
  Q 167.77 70.25 168.17 73.29
  A 0.74 0.74 0.0 0 1 167.59 74.11
  Q 166.62 74.30 166.89 75.43
  Q 167.00 75.90 166.63 76.22
  Q 166.00 76.77 165.67 76.47" stroke="#1a7ce2"></path>
<path d="M 186.87 90.29
  Q 185.47 92.33 186.02 94.42
  Q 186.04 94.47 186.00 94.51
  Q 185.97 94.53 185.95 94.55
  Q 185.86 94.64 185.86 94.50
  L 185.86 93.78
  Q 185.87 93.39 185.54 93.61
  Q 182.99 95.38 181.49 96.88
  Q 170.80 107.61 160.08 118.30
  Q 159.89 118.49 159.89 118.75
  L 159.89 119.07
  Q 159.89 119.53 159.56 119.85
  C 158.79 120.59 158.19 121.40 157.40 122.14
  Q 157.00 122.51 156.98 123.08
  Q 156.95 123.75 156.80 123.91
  Q 156.47 124.28 155.79 124.04" stroke="#1e6fe6"></path>
<path d="M 91.97 186.98
  Q 92.85 186.71 91.65 186.38
  Q 91.16 186.24 91.47 185.84
  C 91.97 185.20 92.21 184.40 92.77 183.84
  Q 116.09 160.52 139.34 137.27
  Q 139.65 136.95 139.31 136.67
  L 138.82 136.25" stroke="#1e6fe6"></path>
<path d="M 57.29 178.46
  L 72.22 163.42
  Q 72.59 163.06 73.09 163.17
  L 75.12 163.61" stroke="#1a7ce2"></path>
<path d="M 41.35 118.73
  Q 36.63 121.12 32.48 126.03
  Q 32.12 126.46 32.12 127.03
  L 32.12 127.50
  Q 32.12 128.12 31.50 128.12
  L 31.04 128.12
  Q 30.49 128.12 30.10 128.51
  Q 26.55 132.07 22.99 135.64
  Q 22.74 135.88 19.77 138.30
  Q 17.96 139.78 17.17 141.69" stroke="#1194db"></path>
<path d="M 64.58 48.96
  A 5.23 5.23 0.0 0 0 59.35 43.73
  A 5.23 5.23 0.0 0 0 54.12 48.96
  A 5.23 5.23 0.0 0 0 59.35 54.19
  A 5.23 5.23 0.0 0 0 64.58 48.96" stroke="#06b5d1"></path>
<path d="M 156.95 69.19
  A 5.26 5.26 0.0 0 0 151.69 63.93
  A 5.26 5.26 0.0 0 0 146.43 69.19
  A 5.26 5.26 0.0 0 0 151.69 74.45
  A 5.26 5.26 0.0 0 0 156.95 69.19" stroke="#0ca3d6"></path>
<path d="M 61.31 112.78
  A 5.23 5.23 0.0 0 0 56.08 107.55
  A 5.23 5.23 0.0 0 0 50.85 112.78
  A 5.23 5.23 0.0 0 0 56.08 118.01
  A 5.23 5.23 0.0 0 0 61.31 112.78" stroke="#0aa9d5"></path>
<path d="M 145.66 120.50
  A 5.24 5.24 0.0 0 0 140.42 115.26
  A 5.24 5.24 0.0 0 0 135.18 120.50
  A 5.24 5.24 0.0 0 0 140.42 125.74
  A 5.24 5.24 0.0 0 0 145.66 120.50" stroke="#0e9dd8"></path>
<path d="M 90.49 151.41
  A 5.24 5.24 0.0 0 0 85.25 146.17
  A 5.24 5.24 0.0 0 0 80.01 151.41
  A 5.24 5.24 0.0 0 0 85.25 156.65
  A 5.24 5.24 0.0 0 0 90.49 151.41" stroke="#0e9dd8"></path>
</g>
<path d="M 120.45 8.24
  Q 118.80 9.56 117.18 10.72
  Q 115.36 12.02 114.05 13.33
  Q 95.40 31.99 76.75 50.65
  Q 76.15 51.24 75.87 52.10
  Q 75.70 52.60 75.40 52.17
  Q 75.16 51.84 74.80 51.70
  C 76.39 39.94 66.93 31.37 55.37 33.57
  Q 55.48 32.62 57.78 32.66
  A 0.66 0.04 -44.5 0 0 58.25 32.25
  Q 58.44 32.05 58.32 31.86
  Q 58.05 31.42 58.42 31.05
  L 82.58 7.37
  Q 82.85 7.11 82.49 6.98
  Q 81.23 6.52 79.95 6.74
  Q 79.53 6.81 79.11 6.79
  Q 78.01 6.73 76.74 6.95
  Q 98.61 2.24 120.45 8.24
  Z" fill="#0ba5d6"></path>
<path d="M 55.37 33.57
  Q 45.98 36.65 43.75 46.23
  Q 42.73 47.17 41.88 48.33
  Q 40.82 49.79 40.12 50.49
  Q 24.78 65.85 9.28 81.33
  A 1.47 1.47 0.0 0 1 7.11 81.23
  Q 6.49 80.49 6.40 79.27
  C 12.93 43.42 41.18 14.42 76.74 6.95
  Q 78.01 6.73 79.11 6.79
  Q 79.53 6.81 79.95 6.74
  Q 81.23 6.52 82.49 6.98
  Q 82.85 7.11 82.58 7.37
  L 58.42 31.05
  Q 58.05 31.42 58.32 31.86
  Q 58.44 32.05 58.25 32.25
  A 0.66 0.04 -44.5 0 1 57.78 32.66
  Q 55.48 32.62 55.37 33.57
  Z" fill="#08aed3"></path>
<path d="M 120.45 8.24
  Q 134.53 12.15 147.00 20.48
  L 146.72 20.91
  Q 146.47 21.29 146.08 21.06
  Q 145.52 20.72 144.95 21.32
  Q 144.87 21.40 144.80 21.31
  Q 144.72 21.20 144.58 21.15
  Q 144.50 21.13 144.45 21.18
  L 93.96 71.40
  L 74.58 54.94
  Q 74.18 54.60 74.29 54.08
  L 74.80 51.70
  Q 75.16 51.84 75.40 52.17
  Q 75.70 52.60 75.87 52.10
  Q 76.15 51.24 76.75 50.65
  Q 95.40 31.99 114.05 13.33
  Q 115.36 12.02 117.18 10.72
  Q 118.80 9.56 120.45 8.24
  Z" fill="#0f9ad9"></path>
<path d="M 147.00 20.48
  Q 158.52 28.45 166.39 38.19
  Q 158.74 43.91 152.07 51.30
  Q 151.87 51.52 151.89 51.82
  Q 151.90 52.02 151.82 52.21
  Q 151.66 52.58 151.25 52.57
  Q 150.95 52.57 150.68 52.74
  Q 150.09 53.10 150.77 53.25
  L 151.53 53.41
  C 142.18 53.75 135.28 61.30 136.01 70.71
  Q 135.49 70.97 135.49 70.84
  A 0.63 0.54 -40.6 0 1 135.53 70.58
  Q 135.96 69.34 135.72 68.72
  A 0.55 0.54 -33.3 0 0 134.83 68.54
  L 115.32 88.07
  Q 115.18 88.22 115.11 88.02
  Q 115.01 87.68 114.76 87.63
  Q 113.90 87.45 113.57 88.05
  L 93.96 71.40
  L 144.45 21.18
  Q 144.50 21.13 144.58 21.15
  Q 144.72 21.20 144.80 21.31
  Q 144.87 21.40 144.95 21.32
  Q 145.52 20.72 146.08 21.06
  Q 146.47 21.29 146.72 20.91
  L 147.00 20.48
  Z" fill="#138ddd"></path>
<path d="M 74.80 51.70
  L 74.29 54.08
  Q 74.18 54.60 74.58 54.94
  L 93.96 71.40
  L 113.57 88.05
  L 133.50 105.00
  A 3.29 3.29 0.0 0 0 138.84 103.20
  L 143.32 82.95
  A 0.61 0.61 0.0 0 0 143.06 82.31
  Q 136.99 78.18 136.01 70.71
  C 135.28 61.30 142.18 53.75 151.53 53.41
  C 163.86 53.81 170.39 65.08 165.67 76.47
  Q 161.77 83.24 154.11 84.70
  A 0.70 0.68 -88.6 0 0 153.56 85.24
  L 148.90 106.40
  Q 148.74 107.11 149.31 107.56
  Q 157.48 113.95 155.79 124.04
  Q 151.91 136.35 138.82 136.25
  C 127.80 134.46 121.37 123.63 126.37 113.58
  A 0.92 0.91 -57.0 0 0 126.14 112.47
  L 120.54 107.75
  L 100.85 91.02
  A 0.94 0.94 0.0 0 0 99.74 90.95
  L 71.86 108.89
  A 0.85 0.85 0.0 0 0 71.48 109.77
  Q 72.66 115.83 69.43 120.96
  Q 69.16 121.40 69.47 121.81
  L 80.17 136.01
  A 0.84 0.82 -21.3 0 0 80.92 136.33
  L 86.66 135.67
  C 97.98 137.16 104.96 149.52 98.66 159.44
  C 93.31 167.87 83.34 169.44 75.12 163.61
  Q 65.85 154.48 71.86 143.14
  A 0.79 0.79 0.0 0 0 71.79 142.30
  L 64.60 132.80
  L 61.19 128.25
  Q 60.86 127.80 60.32 127.92
  Q 47.62 130.69 41.35 118.73
  Q 39.57 113.86 40.92 108.75
  C 43.79 97.85 56.13 93.87 65.24 99.98
  Q 65.72 100.30 66.20 100.00
  L 91.41 83.93
  A 0.54 0.53 48.6 0 0 91.46 83.07
  L 67.77 62.97
  A 0.91 0.90 55.7 0 0 66.90 62.80
  C 63.93 63.78 62.40 64.73 58.58 64.65
  C 48.50 63.97 42.83 55.96 43.75 46.23
  Q 45.98 36.65 55.37 33.57
  C 66.93 31.37 76.39 39.94 74.80 51.70
  Z
  M 64.58 48.96
  A 5.23 5.23 0.0 0 0 59.35 43.73
  A 5.23 5.23 0.0 0 0 54.12 48.96
  A 5.23 5.23 0.0 0 0 59.35 54.19
  A 5.23 5.23 0.0 0 0 64.58 48.96
  Z
  M 156.95 69.19
  A 5.26 5.26 0.0 0 0 151.69 63.93
  A 5.26 5.26 0.0 0 0 146.43 69.19
  A 5.26 5.26 0.0 0 0 151.69 74.45
  A 5.26 5.26 0.0 0 0 156.95 69.19
  Z
  M 61.31 112.78
  A 5.23 5.23 0.0 0 0 56.08 107.55
  A 5.23 5.23 0.0 0 0 50.85 112.78
  A 5.23 5.23 0.0 0 0 56.08 118.01
  A 5.23 5.23 0.0 0 0 61.31 112.78
  Z
  M 145.66 120.50
  A 5.24 5.24 0.0 0 0 140.42 115.26
  A 5.24 5.24 0.0 0 0 135.18 120.50
  A 5.24 5.24 0.0 0 0 140.42 125.74
  A 5.24 5.24 0.0 0 0 145.66 120.50
  Z
  M 90.49 151.41
  A 5.24 5.24 0.0 0 0 85.25 146.17
  A 5.24 5.24 0.0 0 0 80.01 151.41
  A 5.24 5.24 0.0 0 0 85.25 156.65
  A 5.24 5.24 0.0 0 0 90.49 151.41
  Z" fill="#00c4cc"></path>
<path d="M 166.39 38.19
  Q 174.96 48.77 179.65 59.95
  Q 179.25 60.72 178.43 60.87
  Q 177.95 60.95 177.56 61.24
  Q 173.36 64.31 169.80 68.09
  Q 167.77 70.25 168.17 73.29
  A 0.74 0.74 0.0 0 1 167.59 74.11
  Q 166.62 74.30 166.89 75.43
  Q 167.00 75.90 166.63 76.22
  Q 166.00 76.77 165.67 76.47
  C 170.39 65.08 163.86 53.81 151.53 53.41
  L 150.77 53.25
  Q 150.09 53.10 150.68 52.74
  Q 150.95 52.57 151.25 52.57
  Q 151.66 52.58 151.82 52.21
  Q 151.90 52.02 151.89 51.82
  Q 151.87 51.52 152.07 51.30
  Q 158.74 43.91 166.39 38.19
  Z" fill="#1782e0"></path>
<circle r="5.23" cy="48.96" cx="59.35" fill="#0ba5d6"></circle>
<path d="M 43.75 46.23
  C 42.83 55.96 48.50 63.97 58.58 64.65
  Q 58.06 65.20 57.13 65.35
  Q 57.11 65.35 57.11 65.38
  Q 57.11 65.62 57.22 65.87
  A 0.18 0.17 -12.4 0 1 57.06 66.11
  Q 56.88 66.11 56.68 66.11
  Q 56.52 66.10 56.40 66.22
  L 9.70 112.92
  Q 9.32 113.30 8.93 112.92
  Q 8.56 112.56 8.05 112.36
  Q 7.87 112.29 7.87 112.49
  Q 7.87 112.62 7.88 112.76
  Q 7.90 113.00 7.37 112.62
  Q 7.25 112.53 7.19 112.37
  Q 7.12 112.19 7.13 111.99
  Q 7.17 111.00 7.10 110.16
  Q 7.03 109.39 6.61 110.03
  Q 6.24 110.59 6.15 111.22
  Q 3.46 95.26 6.40 79.27
  Q 6.49 80.49 7.11 81.23
  A 1.47 1.47 0.0 0 0 9.28 81.33
  Q 24.78 65.85 40.12 50.49
  Q 40.82 49.79 41.88 48.33
  Q 42.73 47.17 43.75 46.23
  Z" fill="#0ba5d6"></path>
<path d="M 179.65 59.95
  Q 185.88 74.48 186.87 90.29
  Q 185.47 92.33 186.02 94.42
  Q 186.04 94.47 186.00 94.51
  Q 185.97 94.53 185.95 94.55
  Q 185.86 94.64 185.86 94.50
  L 185.86 93.78
  Q 185.87 93.39 185.54 93.61
  Q 182.99 95.38 181.49 96.88
  Q 170.80 107.61 160.08 118.30
  Q 159.89 118.49 159.89 118.75
  L 159.89 119.07
  Q 159.89 119.53 159.56 119.85
  C 158.79 120.59 158.19 121.40 157.40 122.14
  Q 157.00 122.51 156.98 123.08
  Q 156.95 123.75 156.80 123.91
  Q 156.47 124.28 155.79 124.04
  Q 157.48 113.95 149.31 107.56
  Q 148.74 107.11 148.90 106.40
  L 153.56 85.24
  A 0.70 0.68 -88.6 0 1 154.11 84.70
  Q 161.77 83.24 165.67 76.47
  Q 166.00 76.77 166.63 76.22
  Q 167.00 75.90 166.89 75.43
  Q 166.62 74.30 167.59 74.11
  A 0.74 0.74 0.0 0 0 168.17 73.29
  Q 167.77 70.25 169.80 68.09
  Q 173.36 64.31 177.56 61.24
  Q 177.95 60.95 178.43 60.87
  Q 179.25 60.72 179.65 59.95
  Z" fill="#1c75e4"></path>
<path d="M 41.35 118.73
  Q 36.63 121.12 32.48 126.03
  Q 32.12 126.46 32.12 127.03
  L 32.12 127.50
  Q 32.12 128.12 31.50 128.12
  L 31.04 128.12
  Q 30.49 128.12 30.10 128.51
  Q 26.55 132.07 22.99 135.64
  Q 22.74 135.88 19.77 138.30
  Q 17.96 139.78 17.17 141.69
  Q 8.86 127.52 6.15 111.22
  Q 6.24 110.59 6.61 110.03
  Q 7.03 109.39 7.10 110.16
  Q 7.17 111.00 7.13 111.99
  Q 7.12 112.19 7.19 112.37
  Q 7.25 112.53 7.37 112.62
  Q 7.90 113.00 7.88 112.76
  Q 7.87 112.62 7.87 112.49
  Q 7.87 112.29 8.05 112.36
  Q 8.56 112.56 8.93 112.92
  Q 9.32 113.30 9.70 112.92
  L 56.40 66.22
  Q 56.52 66.10 56.68 66.11
  Q 56.88 66.11 57.06 66.11
  A 0.18 0.17 -12.4 0 0 57.22 65.87
  Q 57.11 65.62 57.11 65.38
  Q 57.11 65.35 57.13 65.35
  Q 58.06 65.20 58.58 64.65
  C 62.40 64.73 63.93 63.78 66.90 62.80
  A 0.91 0.90 55.7 0 1 67.77 62.97
  L 91.46 83.07
  A 0.54 0.53 48.6 0 1 91.41 83.93
  L 66.20 100.00
  Q 65.72 100.30 65.24 99.98
  C 56.13 93.87 43.79 97.85 40.92 108.75
  Q 39.57 113.86 41.35 118.73
  Z" fill="#0f9ad9"></path>
<circle r="5.26" cy="69.19" cx="151.69" fill="#1782e0"></circle>
<path d="M 136.01 70.71
  Q 136.99 78.18 143.06 82.31
  A 0.61 0.61 0.0 0 1 143.32 82.95
  L 138.84 103.20
  A 3.29 3.29 0.0 0 1 133.50 105.00
  L 113.57 88.05
  Q 113.90 87.45 114.76 87.63
  Q 115.01 87.68 115.11 88.02
  Q 115.18 88.22 115.32 88.07
  L 134.83 68.54
  A 0.55 0.54 -33.3 0 1 135.72 68.72
  Q 135.96 69.34 135.53 70.58
  A 0.63 0.54 -40.6 0 0 135.49 70.84
  Q 135.49 70.97 136.01 70.71
  Z" fill="#1782e0"></path>
<path d="M 186.87 90.29
  C 189.65 144.17 146.57 189.60 91.97 186.98
  Q 92.85 186.71 91.65 186.38
  Q 91.16 186.24 91.47 185.84
  C 91.97 185.20 92.21 184.40 92.77 183.84
  Q 116.09 160.52 139.34 137.27
  Q 139.65 136.95 139.31 136.67
  L 138.82 136.25
  Q 151.91 136.35 155.79 124.04
  Q 156.47 124.28 156.80 123.91
  Q 156.95 123.75 156.98 123.08
  Q 157.00 122.51 157.40 122.14
  C 158.19 121.40 158.79 120.59 159.56 119.85
  Q 159.89 119.53 159.89 119.07
  L 159.89 118.75
  Q 159.89 118.49 160.08 118.30
  Q 170.80 107.61 181.49 96.88
  Q 182.99 95.38 185.54 93.61
  Q 185.87 93.39 185.86 93.78
  L 185.86 94.50
  Q 185.86 94.64 185.95 94.55
  Q 185.97 94.53 186.00 94.51
  Q 186.04 94.47 186.02 94.42
  Q 185.47 92.33 186.87 90.29
  Z" fill="#2069e8"></path>
<path d="M 120.54 107.75
  Q 118.74 108.36 118.07 106.83
  A 1.19 1.18 55.6 0 0 116.15 106.47
  L 96.49 126.14
  Q 96.12 126.50 96.12 127.02
  L 96.12 127.50
  Q 96.12 128.12 95.50 128.12
  L 94.94 128.12
  Q 94.49 128.12 94.17 128.43
  L 86.66 135.67
  L 80.92 136.33
  A 0.84 0.82 -21.3 0 1 80.17 136.01
  L 69.47 121.81
  Q 69.16 121.40 69.43 120.96
  Q 72.66 115.83 71.48 109.77
  A 0.85 0.85 0.0 0 1 71.86 108.89
  L 99.74 90.95
  A 0.94 0.94 0.0 0 1 100.85 91.02
  L 120.54 107.75
  Z" fill="#1782e0"></path>
<path d="M 120.54 107.75
  L 126.14 112.47
  A 0.92 0.91 -57.0 0 1 126.37 113.58
  C 121.37 123.63 127.80 134.46 138.82 136.25
  L 139.31 136.67
  Q 139.65 136.95 139.34 137.27
  Q 116.09 160.52 92.77 183.84
  C 92.21 184.40 91.97 185.20 91.47 185.84
  Q 91.16 186.24 91.65 186.38
  Q 92.85 186.71 91.97 186.98
  Q 74.01 186.21 57.29 178.46
  L 72.22 163.42
  Q 72.59 163.06 73.09 163.17
  L 75.12 163.61
  C 83.34 169.44 93.31 167.87 98.66 159.44
  C 104.96 149.52 97.98 137.16 86.66 135.67
  L 94.17 128.43
  Q 94.49 128.12 94.94 128.12
  L 95.50 128.12
  Q 96.12 128.12 96.12 127.50
  L 96.12 127.02
  Q 96.12 126.50 96.49 126.14
  L 116.15 106.47
  A 1.19 1.18 55.6 0 1 118.07 106.83
  Q 118.74 108.36 120.54 107.75
  Z" fill="#1c75e4"></path>
<circle r="5.23" cy="112.78" cx="56.08" fill="#138ddd"></circle>
<circle r="5.24" cy="120.50" cx="140.42" fill="#1c75e4"></circle>
<path d="M 41.35 118.73
  Q 47.62 130.69 60.32 127.92
  Q 60.86 127.80 61.19 128.25
  L 64.60 132.80
  L 35.64 162.31
  Q 35.32 162.64 34.86 162.75
  Q 34.44 162.85 34.03 162.79
  Q 24.06 153.51 17.17 141.69
  Q 17.96 139.78 19.77 138.30
  Q 22.74 135.88 22.99 135.64
  Q 26.55 132.07 30.10 128.51
  Q 30.49 128.12 31.04 128.12
  L 31.50 128.12
  Q 32.12 128.12 32.12 127.50
  L 32.12 127.03
  Q 32.12 126.46 32.48 126.03
  Q 36.63 121.12 41.35 118.73
  Z" fill="#138ddd"></path>
<path d="M 64.60 132.80
  L 71.79 142.30
  A 0.79 0.79 0.0 0 1 71.86 143.14
  Q 65.85 154.48 75.12 163.61
  L 73.09 163.17
  Q 72.59 163.06 72.22 163.42
  L 57.29 178.46
  Q 44.71 172.53 34.03 162.79
  Q 34.44 162.85 34.86 162.75
  Q 35.32 162.64 35.64 162.31
  L 64.60 132.80
  Z" fill="#1782e0"></path>
<circle r="5.24" cy="151.41" cx="85.25" fill="#1c75e4"></circle>
</svg>
