<svg viewBox="0.00 0.00 48.00 48.00" version="1.1" xmlns="http://www.w3.org/2000/svg">
<path d="M 34.81 42.93
  L 35.57 44.18
  A 0.37 0.37 0.0 0 1 35.25 44.74
  L 0.69 44.74
  A 0.37 0.37 0.0 0 1 0.37 44.19
  L 23.64 3.79
  A 0.37 0.37 0.0 0 1 24.22 3.71
  L 25.24 4.69
  A 0.37 0.37 0.0 0 1 25.30 5.14
  L 3.86 42.19
  A 0.37 0.37 0.0 0 0 4.18 42.75
  L 34.49 42.75
  A 0.37 0.37 0.0 0 1 34.81 42.93
  Z" fill="#2664ee"></path>
<path d="M 26.81 13.34
  L 13.36 36.74
  A 0.34 0.34 0.0 0 0 13.66 37.25
  L 31.57 37.22
  A 0.34 0.34 0.0 0 1 31.89 37.45
  L 32.39 38.90
  A 0.34 0.34 0.0 0 1 32.07 39.35
  L 9.99 39.35
  A 0.34 0.34 0.0 0 1 9.69 38.84
  L 26.81 9.13
  A 0.34 0.34 0.0 0 1 27.39 9.13
  L 47.73 44.32
  A 0.34 0.34 0.0 0 1 47.41 44.83
  L 45.65 44.68
  A 0.34 0.34 0.0 0 1 45.38 44.51
  L 27.40 13.34
  A 0.34 0.34 0.0 0 0 26.81 13.34
  Z" fill="#000000"></path>
<path d="M 27.15 19.32
  A 0.28 0.28 0.0 0 1 27.53 19.42
  L 40.96 42.77
  A 1.95 0.74 60.1 0 1 41.29 44.83
  L 40.77 45.13
  A 1.95 0.74 60.1 0 1 39.15 43.81
  L 25.73 20.46
  A 0.28 0.28 0.0 0 1 25.83 20.08
  L 27.15 19.32
  Z" fill="#2664ee"></path>
</svg>
