<svg viewBox="0.00 0.00 512.00 512.00" version="1.1" xmlns="http://www.w3.org/2000/svg">
<path d="M 153.58 204.75
  C 160.62 194.11 166.61 180.59 167.28 167.55
  Q 167.31 167.00 166.76 167.00
  L 107.75 167.00
  Q 107.50 167.00 107.50 167.25
  L 107.50 350.25
  Q 107.50 350.75 108.00 350.75
  L 174.00 350.75
  A 0.35 0.35 0.0 0 0 174.35 350.40
  Q 174.37 299.57 174.54 249.12
  C 174.57 239.06 175.63 229.08 181.71 221.16
  C 187.10 214.13 194.59 211.45 203.26 212.32
  C 217.48 213.75 223.62 224.97 223.62 238.20
  Q 223.63 294.23 223.62 350.35
  Q 223.62 350.75 224.03 350.75
  L 289.00 350.75
  A 0.38 0.38 0.0 0 0 289.38 350.37
  Q 289.36 300.43 289.40 250.50
  C 289.41 236.54 292.09 215.99 309.24 212.74
  C 326.86 209.40 337.91 219.71 337.99 237.00
  Q 338.26 293.80 338.28 350.52
  A 0.24 0.23 0.0 0 0 338.52 350.75
  L 405.24 350.75
  Q 405.73 350.75 405.73 350.26
  Q 405.80 292.88 405.73 235.50
  Q 405.71 221.38 404.92 215.53
  C 400.92 185.92 382.78 163.67 351.91 161.38
  C 322.68 159.20 300.70 176.47 293.34 204.51
  A 0.85 0.84 7.0 0 1 292.52 205.14
  L 273.96 205.13
  Q 273.38 205.13 273.27 204.56
  C 271.57 196.04 269.50 188.57 265.45 182.04
  Q 254.84 164.94 234.22 161.96
  Q 219.92 159.89 208.51 164.29
  C 192.01 170.65 182.66 188.02 179.36 204.46
  A 0.86 0.85 5.8 0 1 178.52 205.14
  L 153.78 205.12
  Q 153.33 205.12 153.58 204.75" stroke-linecap="butt" fill="none" stroke-width="2.00" stroke="#b7abff"></path>
<path d="M 75.64 0.00
  L 436.49 0.00
  C 477.91 3.01 508.74 34.30 512.00 75.63
  L 512.00 436.49
  C 508.96 478.22 477.33 509.09 435.63 512.00
  L 75.51 512.00
  C 33.97 508.56 2.39 477.41 0.00 435.62
  L 0.00 75.52
  C 3.24 34.25 34.25 2.92 75.64 0.00
  Z
  M 153.58 204.75
  C 160.62 194.11 166.61 180.59 167.28 167.55
  Q 167.31 167.00 166.76 167.00
  L 107.75 167.00
  Q 107.50 167.00 107.50 167.25
  L 107.50 350.25
  Q 107.50 350.75 108.00 350.75
  L 174.00 350.75
  A 0.35 0.35 0.0 0 0 174.35 350.40
  Q 174.37 299.57 174.54 249.12
  C 174.57 239.06 175.63 229.08 181.71 221.16
  C 187.10 214.13 194.59 211.45 203.26 212.32
  C 217.48 213.75 223.62 224.97 223.62 238.20
  Q 223.63 294.23 223.62 350.35
  Q 223.62 350.75 224.03 350.75
  L 289.00 350.75
  A 0.38 0.38 0.0 0 0 289.38 350.37
  Q 289.36 300.43 289.40 250.50
  C 289.41 236.54 292.09 215.99 309.24 212.74
  C 326.86 209.40 337.91 219.71 337.99 237.00
  Q 338.26 293.80 338.28 350.52
  A 0.24 0.23 0.0 0 0 338.52 350.75
  L 405.24 350.75
  Q 405.73 350.75 405.73 350.26
  Q 405.80 292.88 405.73 235.50
  Q 405.71 221.38 404.92 215.53
  C 400.92 185.92 382.78 163.67 351.91 161.38
  C 322.68 159.20 300.70 176.47 293.34 204.51
  A 0.85 0.84 7.0 0 1 292.52 205.14
  L 273.96 205.13
  Q 273.38 205.13 273.27 204.56
  C 271.57 196.04 269.50 188.57 265.45 182.04
  Q 254.84 164.94 234.22 161.96
  Q 219.92 159.89 208.51 164.29
  C 192.01 170.65 182.66 188.02 179.36 204.46
  A 0.86 0.85 5.8 0 1 178.52 205.14
  L 153.78 205.12
  Q 153.33 205.12 153.58 204.75
  Z" fill="#6e57ff"></path>
<path d="M 153.78 205.12
  L 178.52 205.14
  A 0.86 0.85 5.8 0 0 179.36 204.46
  C 182.66 188.02 192.01 170.65 208.51 164.29
  Q 219.92 159.89 234.22 161.96
  Q 254.84 164.94 265.45 182.04
  C 269.50 188.57 271.57 196.04 273.27 204.56
  Q 273.38 205.13 273.96 205.13
  L 292.52 205.14
  A 0.85 0.84 7.0 0 0 293.34 204.51
  C 300.70 176.47 322.68 159.20 351.91 161.38
  C 382.78 163.67 400.92 185.92 404.92 215.53
  Q 405.71 221.38 405.73 235.50
  Q 405.80 292.88 405.73 350.26
  Q 405.73 350.75 405.24 350.75
  L 338.52 350.75
  A 0.24 0.23 -0.0 0 1 338.28 350.52
  Q 338.26 293.80 337.99 237.00
  C 337.91 219.71 326.86 209.40 309.24 212.74
  C 292.09 215.99 289.41 236.54 289.40 250.50
  Q 289.36 300.43 289.38 350.37
  A 0.38 0.38 0.0 0 1 289.00 350.75
  L 224.03 350.75
  Q 223.62 350.75 223.62 350.35
  Q 223.63 294.23 223.62 238.20
  C 223.62 224.97 217.48 213.75 203.26 212.32
  C 194.59 211.45 187.10 214.13 181.71 221.16
  C 175.63 229.08 174.57 239.06 174.54 249.12
  Q 174.37 299.57 174.35 350.40
  A 0.35 0.35 0.0 0 1 174.00 350.75
  L 108.00 350.75
  Q 107.50 350.75 107.50 350.25
  L 107.50 167.25
  Q 107.50 167.00 107.75 167.00
  L 166.76 167.00
  Q 167.31 167.00 167.28 167.55
  C 166.61 180.59 160.62 194.11 153.58 204.75
  Q 153.33 205.12 153.78 205.12
  Z" fill="#ffffff"></path>
</svg>
