<svg viewBox="0.00 0.00 48.00 48.00" version="1.1" xmlns="http://www.w3.org/2000/svg">
<path d="M 26.26 15.76
  L 23.24 15.88
  A 0.48 0.48 0.0 0 1 22.75 15.31
  C 23.74 10.04 16.32 11.26 18.16 15.68
  Q 18.37 16.19 18.84 16.47
  L 19.27 16.74
  Q 19.76 17.04 19.48 17.54
  C 15.70 24.50 19.72 37.18 29.05 36.96
  Q 29.49 36.95 29.74 36.75
  Q 30.06 36.48 30.06 36.03
  A 0.62 0.62 0.0 0 0 29.55 35.43
  C 22.62 34.20 21.13 26.24 22.20 20.43
  C 23.14 15.28 27.92 16.62 28.71 21.28
  Q 28.81 21.84 29.30 21.55
  Q 29.93 21.18 29.95 20.40
  Q 30.01 17.48 31.33 15.55
  A 2.29 2.28 -55.2 0 0 30.77 12.41
  C 28.62 10.87 26.03 12.64 26.64 15.27
  Q 26.75 15.74 26.26 15.76" stroke-linecap="butt" fill="none" stroke-width="2.00" stroke="#7f7f7f"></path>
<path d="M 24.1614 46.1700
  A 22.09 20.99 90.1 0 1 3.2100 24.0434
  A 22.09 20.99 90.1 0 1 24.2386 1.9900
  A 22.09 20.99 90.1 0 1 45.1900 24.1166
  A 22.09 20.99 90.1 0 1 24.1614 46.1700
  Z
  M 26.26 15.76
  L 23.24 15.88
  A 0.48 0.48 0.0 0 1 22.75 15.31
  C 23.74 10.04 16.32 11.26 18.16 15.68
  Q 18.37 16.19 18.84 16.47
  L 19.27 16.74
  Q 19.76 17.04 19.48 17.54
  C 15.70 24.50 19.72 37.18 29.05 36.96
  Q 29.49 36.95 29.74 36.75
  Q 30.06 36.48 30.06 36.03
  A 0.62 0.62 0.0 0 0 29.55 35.43
  C 22.62 34.20 21.13 26.24 22.20 20.43
  C 23.14 15.28 27.92 16.62 28.71 21.28
  Q 28.81 21.84 29.30 21.55
  Q 29.93 21.18 29.95 20.40
  Q 30.01 17.48 31.33 15.55
  A 2.29 2.28 -55.2 0 0 30.77 12.41
  C 28.62 10.87 26.03 12.64 26.64 15.27
  Q 26.75 15.74 26.26 15.76
  Z" fill="#000000"></path>
<path d="M 26.64 15.27
  C 26.03 12.64 28.62 10.87 30.77 12.41
  A 2.29 2.28 -55.2 0 1 31.33 15.55
  Q 30.01 17.48 29.95 20.40
  Q 29.93 21.18 29.30 21.55
  Q 28.81 21.84 28.71 21.28
  C 27.92 16.62 23.14 15.28 22.20 20.43
  C 21.13 26.24 22.62 34.20 29.55 35.43
  A 0.62 0.62 0.0 0 1 30.06 36.03
  Q 30.06 36.48 29.74 36.75
  Q 29.49 36.95 29.05 36.96
  C 19.72 37.18 15.70 24.50 19.48 17.54
  Q 19.76 17.04 19.27 16.74
  L 18.84 16.47
  Q 18.37 16.19 18.16 15.68
  C 16.32 11.26 23.74 10.04 22.75 15.31
  A 0.48 0.48 0.0 0 0 23.24 15.88
  L 26.26 15.76
  Q 26.75 15.74 26.64 15.27
  Z" fill="#fefefe"></path>
</svg>
