<svg viewBox="0.00 0.00 32.00 32.00" version="1.1" xmlns="http://www.w3.org/2000/svg">
<g stroke-linecap="butt" fill="none" stroke-width="2.00">
<path d="M 24.5035 5.5623
  A 1.12 1.12 0.0 0 0 23.3641 4.4620
  L 22.4242 4.4784
  A 1.12 1.12 0.0 0 0 21.3240 5.6178
  L 21.3365 6.3377
  A 1.12 1.12 0.0 0 0 22.4759 7.4380
  L 23.4158 7.4216
  A 1.12 1.12 0.0 0 0 24.5160 6.2822
  L 24.5035 5.5623" stroke="#e88f98"></path>
<path d="M 14.71 13.22
  C 11.56 13.34 7.66 13.53 7.46 17.17
  C 7.20 22.17 11.86 21.41 15.03 20.82
  A 1.32 1.28 -37.1 0 1 15.83 20.92
  Q 16.84 21.41 17.98 21.25
  Q 18.41 21.19 18.36 20.76
  C 18.00 17.76 19.01 9.94 16.06 8.66
  Q 11.59 6.72 7.85 10.46
  A 1.01 1.00 -73.0 0 0 8.75 12.16
  Q 10.36 11.84 11.36 10.75
  A 2.05 2.05 0.0 0 1 13.95 10.38
  Q 15.41 11.27 15.25 12.72
  Q 15.20 13.20 14.71 13.22" stroke="#e88f98"></path>
<path d="M 24.41 9.06
  A 0.53 0.53 0.0 0 0 23.88 8.53
  L 22.02 8.53
  A 0.53 0.53 0.0 0 0 21.49 9.06
  L 21.49 21.12
  A 0.53 0.53 0.0 0 0 22.02 21.65
  L 23.88 21.65
  A 0.53 0.53 0.0 0 0 24.41 21.12
  L 24.41 9.06" stroke="#e88f98"></path>
<path d="M 15.3159 16.2182
  A 2.59 1.92 -19.2 0 0 12.2386 15.2568
  A 2.59 1.92 -19.2 0 0 10.4241 17.9218
  A 2.59 1.92 -19.2 0 0 13.5014 18.8832
  A 2.59 1.92 -19.2 0 0 15.3159 16.2182" stroke="#e88f98"></path>
</g>
<path d="M 7.51 27.45
  C 5.07 27.46 4.43 29.40 3.00 30.84
  Q 2.66 31.18 2.17 31.19
  L 1.53 31.19
  A 0.93 0.92 -89.1 0 1 0.60 30.22
  Q 1.08 20.28 1.00 10.67
  C 0.95 4.90 2.45 1.08 8.69 1.06
  Q 16.24 1.03 23.76 1.05
  C 30.16 1.07 31.38 5.11 31.50 10.85
  C 31.61 16.54 32.52 23.49 28.32 26.29
  Q 26.53 27.48 22.47 27.47
  Q 14.97 27.44 7.51 27.45
  Z
  M 24.5035 5.5623
  A 1.12 1.12 0.0 0 0 23.3641 4.4620
  L 22.4242 4.4784
  A 1.12 1.12 0.0 0 0 21.3240 5.6178
  L 21.3365 6.3377
  A 1.12 1.12 0.0 0 0 22.4759 7.4380
  L 23.4158 7.4216
  A 1.12 1.12 0.0 0 0 24.5160 6.2822
  L 24.5035 5.5623
  Z
  M 14.71 13.22
  C 11.56 13.34 7.66 13.53 7.46 17.17
  C 7.20 22.17 11.86 21.41 15.03 20.82
  A 1.32 1.28 -37.1 0 1 15.83 20.92
  Q 16.84 21.41 17.98 21.25
  Q 18.41 21.19 18.36 20.76
  C 18.00 17.76 19.01 9.94 16.06 8.66
  Q 11.59 6.72 7.85 10.46
  A 1.01 1.00 -73.0 0 0 8.75 12.16
  Q 10.36 11.84 11.36 10.75
  A 2.05 2.05 0.0 0 1 13.95 10.38
  Q 15.41 11.27 15.25 12.72
  Q 15.20 13.20 14.71 13.22
  Z
  M 24.41 9.06
  A 0.53 0.53 0.0 0 0 23.88 8.53
  L 22.02 8.53
  A 0.53 0.53 0.0 0 0 21.49 9.06
  L 21.49 21.12
  A 0.53 0.53 0.0 0 0 22.02 21.65
  L 23.88 21.65
  A 0.53 0.53 0.0 0 0 24.41 21.12
  L 24.41 9.06
  Z" fill="#d02031"></path>
<rect rx="1.12" height="2.96" width="3.18" transform="translate(22.92,5.95) rotate(-1.0)" y="-1.48" x="-1.59" fill="#fffefe"></rect>
<path d="M 15.25 12.72
  Q 15.41 11.27 13.95 10.38
  A 2.05 2.05 0.0 0 0 11.36 10.75
  Q 10.36 11.84 8.75 12.16
  A 1.01 1.00 -73.0 0 1 7.85 10.46
  Q 11.59 6.72 16.06 8.66
  C 19.01 9.94 18.00 17.76 18.36 20.76
  Q 18.41 21.19 17.98 21.25
  Q 16.84 21.41 15.83 20.92
  A 1.32 1.28 -37.1 0 0 15.03 20.82
  C 11.86 21.41 7.20 22.17 7.46 17.17
  C 7.66 13.53 11.56 13.34 14.71 13.22
  Q 15.20 13.20 15.25 12.72
  Z
  M 15.3159 16.2182
  A 2.59 1.92 -19.2 0 0 12.2386 15.2568
  A 2.59 1.92 -19.2 0 0 10.4241 17.9218
  A 2.59 1.92 -19.2 0 0 13.5014 18.8832
  A 2.59 1.92 -19.2 0 0 15.3159 16.2182
  Z" fill="#fffefe"></path>
<rect rx="0.53" height="13.12" width="2.92" y="8.53" x="21.49" fill="#fffefe"></rect>
<ellipse ry="1.92" rx="2.59" transform="translate(12.87,17.07) rotate(-19.2)" cy="0.00" cx="0.00" fill="#d02031"></ellipse>
</svg>
