<svg viewBox="0.00 0.00 192.00 192.00" version="1.1" xmlns="http://www.w3.org/2000/svg">
<path d="M 132.73 65.54
  L 140.80 47.02
  Q 141.01 46.54 140.60 46.20
  C 124.35 32.61 100.49 29.42 80.98 34.24
  C 56.46 40.29 41.73 58.94 38.03 83.19
  C 35.67 98.71 37.55 117.08 45.07 130.69
  C 60.60 158.77 95.51 165.40 124.03 155.58
  Q 132.98 152.51 140.62 145.79
  A 0.70 0.70 0.0 0 0 140.80 144.98
  L 132.80 126.60
  A 0.73 0.72 58.9 0 0 131.69 126.32
  C 121.58 134.35 108.61 139.05 95.51 137.77
  C 80.68 136.33 70.22 127.48 66.76 112.72
  C 62.35 93.91 63.81 62.97 87.25 55.80
  C 102.55 51.12 119.42 56.16 131.95 65.74
  A 0.51 0.51 0.0 0 0 132.73 65.54" stroke-linecap="butt" fill="none" stroke-width="2.00" stroke="#823e42"></path>
<path d="M 90.80 0.00
  L 100.82 0.00
  C 150.58 3.46 188.63 41.01 192.00 90.89
  L 192.00 100.80
  C 188.55 150.73 150.72 188.91 100.64 192.00
  L 90.52 192.00
  C 40.90 188.35 3.38 150.52 0.00 100.89
  L 0.00 90.75
  C 3.52 41.14 41.22 3.56 90.80 0.00
  Z
  M 132.73 65.54
  L 140.80 47.02
  Q 141.01 46.54 140.60 46.20
  C 124.35 32.61 100.49 29.42 80.98 34.24
  C 56.46 40.29 41.73 58.94 38.03 83.19
  C 35.67 98.71 37.55 117.08 45.07 130.69
  C 60.60 158.77 95.51 165.40 124.03 155.58
  Q 132.98 152.51 140.62 145.79
  A 0.70 0.70 0.0 0 0 140.80 144.98
  L 132.80 126.60
  A 0.73 0.72 58.9 0 0 131.69 126.32
  C 121.58 134.35 108.61 139.05 95.51 137.77
  C 80.68 136.33 70.22 127.48 66.76 112.72
  C 62.35 93.91 63.81 62.97 87.25 55.80
  C 102.55 51.12 119.42 56.16 131.95 65.74
  A 0.51 0.51 0.0 0 0 132.73 65.54
  Z" fill="#171a29"></path>
<path d="M 140.80 47.02
  L 132.73 65.54
  A 0.51 0.51 0.0 0 1 131.95 65.74
  C 119.42 56.16 102.55 51.12 87.25 55.80
  C 63.81 62.97 62.35 93.91 66.76 112.72
  C 70.22 127.48 80.68 136.33 95.51 137.77
  C 108.61 139.05 121.58 134.35 131.69 126.32
  A 0.73 0.72 58.9 0 1 132.80 126.60
  L 140.80 144.98
  A 0.70 0.70 0.0 0 1 140.62 145.79
  Q 132.98 152.51 124.03 155.58
  C 95.51 165.40 60.60 158.77 45.07 130.69
  C 37.55 117.08 35.67 98.71 38.03 83.19
  C 41.73 58.94 56.46 40.29 80.98 34.24
  C 100.49 29.42 124.35 32.61 140.60 46.20
  Q 141.01 46.54 140.80 47.02
  Z" fill="#ec615b"></path>
</svg>
