<svg viewBox="0.00 0.00 64.00 64.00" version="1.1" xmlns="http://www.w3.org/2000/svg">
<g stroke-linecap="butt" fill="none" stroke-width="2.00">
<path d="M 63.48 1.56
  A 1.03 1.03 0.0 0 0 62.45 0.53
  L 1.55 0.53
  A 1.03 1.03 0.0 0 0 0.52 1.56
  L 0.52 62.44
  A 1.03 1.03 0.0 0 0 1.55 63.47
  L 62.45 63.47
  A 1.03 1.03 0.0 0 0 63.48 62.44
  L 63.48 1.56" stroke-opacity="0.937" stroke="#ececec"></path>
<path d="M 12.66 11.09
  Q 11.09 11.63 12.71 11.99
  L 30.88 16.05
  Q 31.81 16.26 31.12 15.60
  L 23.16 7.93
  Q 22.81 7.58 22.33 7.75
  L 12.66 11.09" stroke="#969696"></path>
<path d="M 10.83 12.81
  L 8.61 23.78
  Q 8.50 24.28 8.87 24.64
  L 15.74 31.31
  A 0.34 0.34 0.0 0 0 16.31 30.98
  L 11.46 12.79
  Q 11.11 11.47 10.83 12.81" stroke="#969696"></path>
<path d="M 35.85 18.18
  A 0.30 0.30 0.0 0 0 35.79 18.76
  L 54.08 25.38
  A 0.30 0.30 0.0 0 0 54.40 24.90
  L 47.10 16.50
  A 0.30 0.30 0.0 0 0 46.83 16.40
  L 35.85 18.18" stroke="#b9b9b9"></path>
<path d="M 54.67 26.73
  A 0.31 0.31 0.0 0 0 54.18 26.39
  L 39.39 38.71
  A 0.31 0.31 0.0 0 0 39.64 39.26
  L 50.58 37.35
  A 0.31 0.31 0.0 0 0 50.82 37.15
  L 54.67 26.73" stroke="#b9b9b9"></path>
<path d="M 21.39 53.92
  Q 20.44 54.14 20.28 53.18
  Q 18.80 44.29 17.54 35.84
  Q 17.32 34.35 16.76 35.75
  L 13.33 44.29
  A 1.00 0.99 37.6 0 0 13.46 45.26
  L 19.71 53.59
  A 2.22 2.19 -22.0 0 0 21.77 54.45
  L 32.17 53.06
  A 1.05 1.03 -82.4 0 0 32.99 52.42
  L 37.09 42.24
  Q 37.42 41.45 36.74 41.97
  L 21.56 53.84
  A 0.48 0.39 -64.6 0 1 21.39 53.92" stroke="#dbe1ff"></path>
</g>
<path d="M 0.00 0.00
  L 64.00 0.00
  L 64.00 64.00
  L 0.00 64.00
  L 0.00 0.00
  Z
  M 63.48 1.56
  A 1.03 1.03 0.0 0 0 62.45 0.53
  L 1.55 0.53
  A 1.03 1.03 0.0 0 0 0.52 1.56
  L 0.52 62.44
  A 1.03 1.03 0.0 0 0 1.55 63.47
  L 62.45 63.47
  A 1.03 1.03 0.0 0 0 63.48 62.44
  L 63.48 1.56
  Z" fill-opacity="0.875" fill="#d6d6d6"></path>
<path d="M 63.48 62.44
  A 1.03 1.03 0.0 0 1 62.45 63.47
  L 1.55 63.47
  A 1.03 1.03 0.0 0 1 0.52 62.44
  L 0.52 1.56
  A 1.03 1.03 0.0 0 1 1.55 0.53
  L 62.45 0.53
  A 1.03 1.03 0.0 0 1 63.48 1.56
  L 63.48 62.44
  Z
  M 12.66 11.09
  Q 11.09 11.63 12.71 11.99
  L 30.88 16.05
  Q 31.81 16.26 31.12 15.60
  L 23.16 7.93
  Q 22.81 7.58 22.33 7.75
  L 12.66 11.09
  Z
  M 10.83 12.81
  L 8.61 23.78
  Q 8.50 24.28 8.87 24.64
  L 15.74 31.31
  A 0.34 0.34 0.0 0 0 16.31 30.98
  L 11.46 12.79
  Q 11.11 11.47 10.83 12.81
  Z
  M 35.85 18.18
  A 0.30 0.30 0.0 0 0 35.79 18.76
  L 54.08 25.38
  A 0.30 0.30 0.0 0 0 54.40 24.90
  L 47.10 16.50
  A 0.30 0.30 0.0 0 0 46.83 16.40
  L 35.85 18.18
  Z
  M 54.67 26.73
  A 0.31 0.31 0.0 0 0 54.18 26.39
  L 39.39 38.71
  A 0.31 0.31 0.0 0 0 39.64 39.26
  L 50.58 37.35
  A 0.31 0.31 0.0 0 0 50.82 37.15
  L 54.67 26.73
  Z
  M 21.39 53.92
  Q 20.44 54.14 20.28 53.18
  Q 18.80 44.29 17.54 35.84
  Q 17.32 34.35 16.76 35.75
  L 13.33 44.29
  A 1.00 0.99 37.6 0 0 13.46 45.26
  L 19.71 53.59
  A 2.22 2.19 -22.0 0 0 21.77 54.45
  L 32.17 53.06
  A 1.05 1.03 -82.4 0 0 32.99 52.42
  L 37.09 42.24
  Q 37.42 41.45 36.74 41.97
  L 21.56 53.84
  A 0.48 0.39 -64.6 0 1 21.39 53.92
  Z" fill="#ffffff"></path>
<path d="M 12.66 11.09
  L 22.33 7.75
  Q 22.81 7.58 23.16 7.93
  L 31.12 15.60
  Q 31.81 16.26 30.88 16.05
  L 12.71 11.99
  Q 11.09 11.63 12.66 11.09
  Z" fill="#2d2d2d"></path>
<path d="M 11.46 12.79
  L 16.31 30.98
  A 0.34 0.34 0.0 0 1 15.74 31.31
  L 8.87 24.64
  Q 8.50 24.28 8.61 23.78
  L 10.83 12.81
  Q 11.11 11.47 11.46 12.79
  Z" fill="#2d2d2d"></path>
<path d="M 35.85 18.18
  L 46.83 16.40
  A 0.30 0.30 0.0 0 1 47.10 16.50
  L 54.40 24.90
  A 0.30 0.30 0.0 0 1 54.08 25.38
  L 35.79 18.76
  A 0.30 0.30 0.0 0 1 35.85 18.18
  Z" fill="#727272"></path>
<path d="M 54.67 26.73
  L 50.82 37.15
  A 0.31 0.31 0.0 0 1 50.58 37.35
  L 39.64 39.26
  A 0.31 0.31 0.0 0 1 39.39 38.71
  L 54.18 26.39
  A 0.31 0.31 0.0 0 1 54.67 26.73
  Z" fill="#727272"></path>
<path d="M 21.39 53.92
  A 0.48 0.39 -64.6 0 0 21.56 53.84
  L 36.74 41.97
  Q 37.42 41.45 37.09 42.24
  L 32.99 52.42
  A 1.05 1.03 -82.4 0 1 32.17 53.06
  L 21.77 54.45
  A 2.22 2.19 -22.0 0 1 19.71 53.59
  L 13.46 45.26
  A 1.00 0.99 37.6 0 1 13.33 44.29
  L 16.76 35.75
  Q 17.32 34.35 17.54 35.84
  Q 18.80 44.29 20.28 53.18
  Q 20.44 54.14 21.39 53.92
  Z" fill="#b6c2ff"></path>
</svg>
