<svg viewBox="0.00 0.00 192.00 192.00" version="1.1" xmlns="http://www.w3.org/2000/svg">
<path d="M 65.25 72.38
  Q 65.14 69.81 63.46 68.62
  Q 61.35 67.13 61.28 67.05
  Q 55.54 61.40 49.95 55.40" stroke-linecap="butt" fill="none" stroke-width="2.00" stroke="#fa391d"></path>
<path d="M 65.25 72.38
  Q 65.14 69.81 63.46 68.62
  Q 61.35 67.13 61.28 67.05
  Q 55.54 61.40 49.95 55.40
  C 60.29 46.22 73.63 45.31 86.19 48.88
  A 1.55 1.53 -60.1 0 0 87.74 48.45
  C 113.28 21.27 158.17 18.69 180.52 51.43
  Q 188.46 63.07 191.68 77.79
  A 0.90 0.90 0.0 0 1 190.79 78.89
  L 169.60 78.87
  A 1.05 1.04 -8.7 0 1 168.60 78.14
  C 161.12 54.64 134.88 43.77 113.42 56.89
  Q 102.70 63.45 96.67 76.06
  A 0.52 0.51 -61.7 0 1 95.94 76.29
  C 85.63 70.18 76.82 67.23 65.25 72.38
  Z" fill="#fa6303"></path>
<path d="M 49.95 55.40
  Q 55.54 61.40 61.28 67.05
  Q 61.35 67.13 63.46 68.62
  Q 65.14 69.81 65.25 72.38
  Q 57.06 76.59 52.46 84.63
  Q 52.21 85.07 51.72 85.19
  Q 49.73 85.67 47.79 85.96
  C 30.45 88.48 20.78 104.91 25.98 121.46
  C 30.45 135.69 42.34 141.54 57.00 141.74
  Q 75.55 142.00 94.52 142.05
  Q 95.81 142.05 95.82 143.34
  L 95.85 164.42
  A 0.57 0.56 -0.0 0 1 95.28 164.98
  Q 74.76 164.91 54.00 165.01
  C 29.36 165.13 9.59 151.04 2.59 127.72
  C -6.19 98.46 10.82 68.52 41.84 63.07
  C 42.65 62.92 43.81 62.36 44.30 61.70
  Q 47.05 57.96 49.95 55.40
  Z" fill="#f90e37"></path>
<path d="M 192.00 87.63
  L 192.00 163.24
  L 191.68 164.82
  Q 191.59 165.31 191.00 165.32
  L 169.46 165.43
  A 0.45 0.45 0.0 0 1 169.00 164.97
  L 169.08 86.72
  Q 169.08 86.26 169.54 86.26
  L 191.01 86.26
  Q 191.54 86.26 191.70 86.76
  L 192.00 87.63
  Z" fill="#fa6303"></path>
<rect rx="1.05" height="60.26" width="22.74" y="105.15" x="140.48" fill="#fa4c11"></rect>
<rect rx="1.23" height="40.80" width="22.82" transform="translate(123.19,145.03) rotate(-0.3)" y="-20.40" x="-11.41" fill="#f90e37"></rect>
</svg>
