<svg viewBox="0.00 0.00 256.00 256.00" version="1.1" xmlns="http://www.w3.org/2000/svg">
<g stroke-linecap="butt" fill="none" stroke-width="2.00">
<path d="M 90.05 0.51
  Q 89.14 1.11 88.07 0.90
  Q 87.93 0.87 87.91 1.02
  L 87.91 1.02
  Q 87.89 1.20 87.99 1.20
  L 96.32 1.42
  Q 96.75 1.43 96.59 1.83
  Q 95.79 3.86 97.64 5.23
  Q 98.04 5.52 97.71 5.88
  Q 97.59 6.01 97.40 6.11
  Q 97.00 6.30 97.28 6.64
  Q 97.74 7.19 98.11 7.77
  Q 98.28 8.04 98.48 8.11
  Q 98.84 8.22 99.06 7.87
  Q 99.12 7.77 99.10 7.66
  Q 99.09 7.54 99.11 7.39
  Q 99.16 6.91 99.51 7.25
  L 104.89 12.51
  A 0.22 0.21 70.1 0 1 104.72 12.88
  Q 104.34 12.85 104.12 13.13
  Q 103.87 13.47 104.21 13.71
  Q 104.94 14.23 105.47 14.98
  Q 105.72 15.34 105.99 15.00
  Q 106.16 14.78 106.11 14.50
  A 0.34 0.34 0.0 0 1 106.48 14.10
  Q 106.85 14.14 106.89 14.50
  Q 106.95 15.05 107.50 15.11
  Q 107.82 15.15 107.88 15.45
  Q 107.96 15.86 107.54 15.88
  Q 107.39 15.89 107.25 15.88
  A 0.42 0.38 56.9 0 0 107.13 16.65
  Q 107.92 17.05 108.10 17.87
  A 0.52 0.52 0.0 0 0 109.12 17.74
  Q 109.11 17.59 109.12 17.44
  Q 109.14 17.07 109.51 17.11
  Q 109.91 17.16 109.90 17.63
  A 0.46 0.46 0.0 0 0 110.37 18.10
  Q 110.97 18.09 110.89 18.76
  Q 110.87 18.89 110.74 18.89
  Q 110.56 18.89 110.38 18.89
  Q 109.75 18.89 109.95 19.49
  Q 110.06 19.83 110.56 20.21
  Q 110.69 20.31 111.14 20.87
  Q 111.48 21.29 111.95 21.02
  Q 112.11 20.93 112.11 20.75
  Q 112.11 20.60 112.12 20.45
  Q 112.14 20.06 112.53 20.12
  Q 112.85 20.16 112.89 20.50
  Q 112.95 21.05 113.50 21.11
  Q 113.79 21.14 113.86 21.38
  Q 113.98 21.75 113.61 21.84
  L 112.98 21.99
  A 0.27 0.26 55.0 0 0 112.90 22.47
  Q 113.82 23.09 114.48 23.99
  Q 114.72 24.33 114.99 24.00
  Q 115.16 23.78 115.11 23.50
  A 0.34 0.34 0.0 0 1 115.48 23.10
  Q 115.85 23.14 115.89 23.50
  Q 115.95 24.05 116.50 24.11
  Q 116.79 24.14 116.86 24.38
  Q 116.98 24.75 116.61 24.84
  L 115.98 24.99
  A 0.27 0.26 55.0 0 0 115.90 25.47
  Q 116.82 26.09 117.48 26.99
  Q 117.72 27.33 117.99 27.00
  Q 118.16 26.78 118.11 26.50
  A 0.34 0.34 0.0 0 1 118.48 26.10
  Q 118.85 26.14 118.89 26.50
  Q 118.95 27.05 119.50 27.11
  Q 119.79 27.14 119.86 27.38
  Q 119.98 27.75 119.61 27.84
  L 118.98 27.99
  A 0.27 0.26 55.0 0 0 118.90 28.47
  Q 119.82 29.09 120.48 29.99
  Q 120.72 30.33 120.99 30.00
  Q 121.16 29.78 121.11 29.50
  A 0.34 0.34 0.0 0 1 121.48 29.10
  Q 121.85 29.14 121.89 29.50
  Q 121.95 30.05 122.50 30.11
  Q 122.84 30.15 122.88 30.47
  Q 122.95 30.94 122.48 30.88
  Q 122.13 30.83 121.88 31.12
  A 0.16 0.15 43.6 0 0 121.89 31.32
  L 124.55 34.00
  Q 124.81 34.26 125.02 33.96
  Q 125.16 33.76 125.11 33.50
  A 0.34 0.34 0.0 0 1 125.48 33.10
  Q 125.85 33.14 125.89 33.50
  Q 125.95 34.05 126.50 34.11
  Q 126.79 34.14 126.86 34.38
  Q 126.98 34.75 126.61 34.84
  L 125.98 34.99
  A 0.27 0.26 55.0 0 0 125.90 35.47
  Q 126.82 36.09 127.48 36.99
  Q 127.72 37.33 127.99 37.00
  Q 128.16 36.78 128.11 36.50
  A 0.34 0.34 0.0 0 1 128.48 36.10
  Q 128.85 36.14 128.89 36.50
  Q 128.95 37.05 129.50 37.11
  Q 129.79 37.14 129.86 37.38
  Q 129.98 37.75 129.61 37.84
  L 128.98 37.99
  A 0.27 0.26 55.0 0 0 128.90 38.47
  Q 129.82 39.09 130.48 39.99
  Q 130.71 40.31 130.98 40.01
  Q 131.18 39.78 131.10 39.50
  Q 130.83 38.55 131.62 39.39
  L 132.46 40.28
  Q 132.84 40.69 132.34 40.95
  Q 132.22 41.02 132.13 41.13
  A 0.37 0.13 -52.6 0 0 132.01 41.49
  Q 132.07 41.56 132.13 41.62
  Q 132.44 41.91 132.87 41.62
  Q 133.01 41.52 133.07 41.35
  A 0.32 0.31 41.8 0 1 133.65 41.32
  L 134.21 42.47
  Q 134.37 42.78 134.20 43.09
  Q 134.06 43.36 134.19 43.67
  Q 134.27 43.86 134.48 43.86
  Q 134.65 43.86 134.81 43.87
  Q 135.09 43.89 135.11 44.17
  Q 135.18 45.10 135.97 44.85
  Q 136.30 44.75 136.28 45.09
  Q 136.28 45.28 136.35 45.42
  Q 136.43 45.60 136.74 45.65
  Q 141.32 46.44 146.01 46.35
  C 147.48 46.32 148.52 46.83 150.01 46.89
  Q 150.10 46.90 150.05 46.95
  Q 150.02 46.98 149.99 47.02
  Q 149.88 47.17 149.70 47.18
  L 141.44 47.68" stroke="#a62df4"></path>
<path d="M 141.44 47.68
  L 71.80 47.71
  Q 71.25 47.71 71.18 47.16
  C 70.83 44.45 71.19 40.99 70.00 38.89
  C 67.30 34.13 60.17 35.97 59.21 41.50
  Q 58.64 44.79 60.22 55.55" stroke="#cc5afa"></path>
<path d="M 60.22 55.55
  L 59.17 55.68
  Q 58.62 55.74 58.62 56.29
  L 58.62 57.50
  Q 58.62 58.17 58.26 57.60
  Q 57.97 57.12 57.88 56.47
  Q 57.82 56.06 57.43 55.89
  Q 56.46 55.46 56.06 54.38
  Q 55.87 53.89 55.43 53.62
  Q 54.66 53.15 54.08 52.46
  Q 53.93 52.28 53.89 52.51
  Q 53.84 52.74 53.75 52.77
  A 0.40 0.33 6.7 0 1 53.25 52.25
  L 53.49 52.02
  Q 53.64 51.86 53.49 51.71
  C 52.91 51.10 52.76 50.46 52.21 49.91
  Q 44.10 41.81 35.91 33.55
  Q 35.75 33.39 35.89 33.21
  L 36.20 32.79
  Q 36.32 32.63 36.48 32.75
  Q 36.90 33.06 37.12 33.52
  Q 37.32 33.92 37.65 33.62
  Q 38.02 33.28 37.88 32.75
  Q 37.70 32.12 37.05 32.12
  L 33.98 32.12
  A 0.25 0.24 19.7 0 1 33.79 31.72
  Q 33.97 31.51 33.87 31.24
  A 0.20 0.20 0.0 0 1 34.01 30.99
  Q 35.03 30.73 34.89 29.70
  Q 34.80 29.05 34.14 29.11
  L 33.26 29.17
  Q 33.21 29.18 33.21 29.22
  L 33.09 29.74
  Q 33.01 30.12 32.62 30.12
  Q 32.41 30.12 32.20 30.12
  Q 32.01 30.12 31.97 29.94
  L 31.90 29.66
  Q 31.86 29.49 31.74 29.37
  L 29.83 27.41
  A 0.98 0.05 26.1 0 0 29.11 27.01
  Q 28.85 26.88 28.88 26.50
  Q 28.90 26.08 28.49 26.12
  Q 28.06 26.17 27.98 25.76
  Q 27.91 25.43 27.65 25.20
  Q 26.52 24.22 25.49 23.13
  Q 24.81 23.03 24.83 22.47
  Q 24.84 22.15 24.52 22.13
  Q 24.38 22.12 24.25 22.12
  Q 23.88 22.12 23.88 21.75
  Q 23.88 21.59 23.87 21.43
  Q 23.85 21.15 23.57 21.13
  Q 23.41 21.12 23.25 21.12
  Q 22.88 21.12 22.88 20.75
  Q 22.88 20.61 22.87 20.48
  Q 22.85 20.09 22.47 20.13
  Q 21.95 20.17 21.88 19.73
  Q 21.81 19.29 21.48 19.01
  Q 18.87 16.80 16.53 14.34
  Q 16.45 14.25 15.60 13.58
  Q 14.91 13.03 14.97 12.24
  Q 14.98 12.04 14.92 11.85
  Q 14.68 11.08 14.02 11.64
  Q 13.83 11.80 13.69 11.60
  Q 13.51 11.37 13.76 11.00
  Q 13.93 10.76 14.24 10.63
  Q 14.50 10.53 14.47 10.25
  L 14.39 9.39" stroke="#8c2df4"></path>
<path d="M 256.00 148.87
  L 255.60 149.22
  Q 255.10 149.65 255.03 149.00
  Q 255.00 148.76 254.88 148.53
  A 0.29 0.29 0.0 0 1 255.23 148.12
  Q 255.44 148.20 255.38 148.00
  Q 255.35 147.92 255.30 147.96
  Q 255.26 147.99 255.22 148.01
  A 0.29 0.22 76.8 0 1 254.91 147.75
  Q 254.71 146.51 254.94 145.29
  Q 254.97 145.09 254.88 144.91
  L 254.52 144.26
  Q 254.38 144.00 254.19 144.23
  Q 254.04 144.40 254.02 144.70
  Q 253.99 145.20 253.52 145.03
  Q 253.09 144.87 252.47 144.24
  A 4.17 1.35 50.9 0 0 252.07 143.86
  Q 251.70 143.53 251.97 143.04
  Q 252.06 142.88 252.25 142.88
  Q 252.40 142.88 252.55 142.87
  Q 252.91 142.85 252.88 142.49
  Q 252.84 142.10 252.38 142.11
  A 0.47 0.47 0.0 0 1 251.89 141.63
  Q 251.90 141.04 251.24 141.12
  Q 251.12 141.14 251.12 141.26
  Q 251.12 141.44 251.12 141.62
  Q 251.12 142.25 250.52 142.07
  Q 250.08 141.95 249.51 141.24
  Q 249.38 141.08 249.21 140.96
  Q 248.66 140.61 248.97 140.04
  Q 249.06 139.88 249.25 139.88
  Q 249.40 139.88 249.55 139.87
  Q 249.91 139.85 249.88 139.49
  Q 249.84 139.10 249.38 139.11
  A 0.47 0.47 0.0 0 1 248.89 138.63
  Q 248.90 138.04 248.24 138.12
  Q 248.12 138.14 248.12 138.26
  Q 248.12 138.44 248.12 138.62
  Q 248.12 139.25 247.52 139.07
  Q 247.08 138.95 246.51 138.24
  Q 246.38 138.08 246.21 137.96
  Q 245.66 137.61 245.97 137.04
  Q 246.06 136.88 246.25 136.88
  Q 246.40 136.88 246.55 136.87
  Q 246.91 136.85 246.88 136.49
  Q 246.84 136.10 246.38 136.11
  A 0.47 0.47 0.0 0 1 245.89 135.63
  Q 245.90 135.04 245.24 135.12
  Q 245.12 135.14 245.12 135.26
  Q 245.12 135.44 245.12 135.62
  Q 245.12 136.25 244.52 136.07
  Q 244.08 135.95 243.51 135.24
  Q 243.38 135.08 243.21 134.96
  Q 242.66 134.61 242.97 134.04
  Q 243.06 133.88 243.25 133.88
  Q 243.40 133.88 243.55 133.87
  Q 243.91 133.85 243.88 133.49
  Q 243.84 133.10 243.38 133.11
  A 0.47 0.47 0.0 0 1 242.89 132.63
  Q 242.90 132.04 242.24 132.12
  Q 242.12 132.14 242.12 132.26
  Q 242.12 132.44 242.12 132.62
  Q 242.12 133.25 241.52 133.07
  Q 241.08 132.95 240.51 132.24
  Q 240.38 132.08 240.21 131.96
  Q 239.66 131.61 239.97 131.04
  Q 240.06 130.88 240.25 130.88
  Q 240.40 130.88 240.55 130.87
  Q 240.91 130.85 240.88 130.49
  Q 240.84 130.10 240.38 130.11
  A 0.47 0.47 0.0 0 1 239.89 129.63
  Q 239.90 129.04 239.24 129.12
  Q 239.12 129.14 239.12 129.26
  Q 239.12 129.44 239.12 129.62
  Q 239.12 130.26 238.51 130.05
  Q 238.12 129.91 237.61 129.25
  Q 237.46 129.06 237.25 128.94
  Q 236.64 128.61 236.99 128.01
  Q 237.06 127.88 237.21 127.88
  Q 237.36 127.88 237.49 127.89
  Q 238.32 128.01 237.66 127.34
  L 216.46 106.14
  A 0.20 0.20 0.0 0 0 216.12 106.28
  L 216.12 106.76
  A 0.39 0.38 -80.4 0 1 215.61 107.13
  Q 215.17 106.97 214.64 106.30
  Q 214.48 106.10 214.26 105.96
  Q 213.63 105.58 214.00 105.00
  Q 214.08 104.88 214.23 104.88
  Q 214.39 104.88 214.55 104.87
  Q 214.91 104.85 214.88 104.49
  Q 214.84 104.10 214.38 104.11
  A 0.47 0.47 0.0 0 1 213.89 103.63
  Q 213.90 103.04 213.24 103.12
  Q 213.12 103.14 213.12 103.26
  Q 213.12 103.44 213.12 103.62
  Q 213.12 104.25 212.52 104.07
  Q 212.08 103.95 211.51 103.24
  Q 211.38 103.08 211.21 102.96
  Q 210.66 102.61 210.97 102.04
  Q 211.06 101.88 211.25 101.88
  Q 211.40 101.88 211.55 101.87
  Q 211.91 101.85 211.88 101.49
  Q 211.84 101.10 211.38 101.11
  A 0.47 0.47 0.0 0 1 210.89 100.63
  Q 210.90 100.04 210.24 100.12
  Q 210.12 100.14 210.12 100.26
  Q 210.12 100.44 210.12 100.62
  Q 210.12 101.25 209.52 101.07
  Q 209.08 100.95 208.51 100.24
  Q 208.38 100.08 208.21 99.96
  Q 207.66 99.61 207.97 99.04
  Q 208.06 98.88 208.25 98.88
  Q 208.39 98.88 208.54 98.88
  Q 209.18 98.90 208.86 98.36
  Q 208.72 98.12 208.50 98.12
  Q 207.94 98.11 207.88 97.50
  Q 207.85 97.15 207.49 97.12
  Q 207.07 97.09 207.13 97.51
  Q 207.17 97.79 206.99 98.01
  A 0.37 0.36 -47.1 0 1 206.46 98.04
  L 202.96 94.54
  A 0.36 0.35 -42.9 0 1 202.98 94.02
  Q 203.20 93.83 203.50 93.88
  A 0.34 0.34 0.0 0 0 203.89 93.52
  Q 203.85 93.10 203.38 93.11
  A 0.47 0.47 0.0 0 1 202.89 92.63
  Q 202.90 92.04 202.24 92.12
  Q 202.12 92.14 202.12 92.26
  Q 202.12 92.44 202.12 92.62
  Q 202.12 93.25 201.52 93.07
  Q 201.08 92.95 200.51 92.24
  Q 200.38 92.08 200.21 91.96
  Q 199.66 91.61 199.97 91.04
  Q 200.06 90.88 200.25 90.88
  Q 200.40 90.88 200.55 90.87
  Q 200.91 90.85 200.88 90.49
  Q 200.84 90.10 200.38 90.11
  A 0.47 0.47 0.0 0 1 199.89 89.63
  Q 199.90 89.04 199.24 89.12
  Q 199.12 89.14 199.12 89.26
  Q 199.12 89.44 199.12 89.62
  Q 199.12 90.25 198.52 90.07
  Q 198.08 89.95 197.51 89.24
  Q 197.38 89.08 197.21 88.96
  Q 196.66 88.61 196.97 88.04
  Q 197.06 87.88 197.25 87.88
  Q 197.40 87.88 197.55 87.87
  Q 197.91 87.85 197.88 87.49
  Q 197.84 87.10 197.38 87.11
  A 0.47 0.47 0.0 0 1 196.89 86.63
  Q 196.90 86.04 196.24 86.12
  Q 196.12 86.14 196.12 86.26
  Q 196.12 86.44 196.12 86.61
  Q 196.12 87.24 195.52 87.04
  Q 195.13 86.91 194.57 86.33
  A 1.34 0.04 46.8 0 0 194.12 85.88
  Q 193.97 85.74 193.89 85.55
  A 0.51 0.51 0.0 0 1 194.48 84.87
  Q 194.94 84.98 194.88 84.76
  Q 194.72 84.26 194.69 84.25
  Q 193.95 83.85 193.47 83.24
  A 0.11 0.10 -25.8 0 0 193.36 83.21
  Q 192.99 83.31 193.17 83.62
  A 0.36 0.35 -1.3 0 1 192.70 84.11
  Q 192.24 83.87 192.13 83.50
  A 0.79 0.42 61.8 0 1 192.13 83.00
  Q 192.19 82.88 192.29 82.76
  Q 192.86 82.08 191.93 82.61
  Q 191.73 82.73 191.50 82.77
  Q 191.13 82.82 191.13 82.45
  Q 191.13 82.30 191.10 82.12
  Q 191.08 81.90 190.86 81.88
  Q 190.55 81.86 190.38 81.62
  Q 190.09 81.22 190.11 81.12
  Q 190.19 80.76 190.15 80.37
  Q 190.14 80.32 190.12 80.37
  Q 190.08 80.48 189.91 80.50
  Q 189.63 80.53 189.63 80.25
  L 189.63 79.76
  Q 189.63 79.27 189.26 79.59
  Q 188.77 79.99 188.35 79.93" stroke="#a62df4"></path>
<path d="M 188.35 79.93
  Q 196.94 62.50 197.31 43.17
  C 197.49 34.04 185.83 34.39 185.58 41.81
  Q 185.45 45.52 185.42 47.12
  A 0.60 0.60 0.0 0 1 184.82 47.71
  L 141.44 47.68" stroke="#d95af9"></path>
<path d="M 60.22 55.55
  Q 65.17 83.62 84.83 102.83
  C 93.41 111.21 106.79 119.93 117.79 127.93
  Q 118.23 128.25 117.79 128.58
  C 106.34 136.95 92.50 145.81 83.48 155.08
  Q 59.84 179.37 59.13 214.94" stroke="#bf59fa"></path>
<path d="M 59.13 214.94
  Q 58.66 214.73 58.33 215.17
  Q 58.13 215.43 58.13 215.89
  Q 58.13 216.46 58.13 217.02
  Q 58.13 217.38 57.78 217.38
  L 56.99 217.38
  Q 56.58 217.38 56.63 216.97
  Q 56.68 216.56 56.49 216.24
  A 0.13 0.13 0.0 0 0 56.25 216.27
  Q 56.15 216.70 55.76 216.68
  Q 55.31 216.66 55.35 216.22
  Q 55.38 215.91 55.59 215.69
  Q 55.84 215.42 55.48 215.37
  Q 55.12 215.32 54.86 215.64
  Q 54.62 215.93 54.36 215.67
  L 49.13 210.47
  A 0.21 0.20 67.2 0 1 49.27 210.12
  L 49.74 210.12
  Q 50.65 210.12 50.01 209.48
  Q 42.30 201.82 34.65 194.10
  Q 33.17 192.61 32.81 191.92
  Q 32.78 191.86 32.71 191.86
  Q 32.56 191.88 32.41 191.88
  Q 32.12 191.89 32.12 191.59
  L 32.12 189.05
  A 1.14 1.10 23.6 0 0 31.80 188.27
  L 27.61 184.01
  Q 27.18 183.57 26.92 184.13
  Q 26.85 184.28 26.87 184.46
  Q 26.91 184.85 26.52 184.87
  Q 26.38 184.88 26.24 184.88
  Q 26.12 184.88 26.12 184.76
  L 26.12 184.28
  A 0.28 0.27 -72.6 0 0 26.01 184.06
  Q 24.80 183.21 23.95 182.01
  Q 23.85 181.87 23.68 181.87
  Q 23.55 181.88 23.42 181.88
  Q 23.15 181.88 23.13 181.62
  Q 23.12 181.43 23.12 181.25
  A 0.37 0.37 0.0 0 0 22.75 180.88
  Q 22.63 180.88 22.50 180.87
  Q 22.14 180.86 22.13 180.50
  Q 22.12 180.38 22.12 180.25
  Q 22.12 179.88 21.75 179.88
  Q 21.61 179.88 21.48 179.87
  A 0.11 0.10 -15.0 0 1 21.39 179.82
  Q 20.66 178.59 19.49 177.82
  Q 19.15 177.60 18.95 177.24
  Q 18.75 176.85 18.30 176.44
  Q 13.00 171.59 5.49 163.78
  Q 5.06 163.33 5.62 163.08
  Q 5.90 162.96 5.89 162.58
  Q 5.87 161.77 5.24 162.28
  L 4.87 162.59
  Q 4.35 163.01 3.95 162.47
  Q 3.16 161.41 2.11 162.05
  Q 1.76 162.26 1.56 161.91
  Q 1.20 161.28 1.34 160.50
  Q 1.42 160.07 1.15 159.93
  Q 0.88 159.78 0.92 159.47
  Q 1.28 156.74 1.09 154.00
  Q 1.01 152.88 0.66 153.77
  Q 0.56 154.01 0.51 154.46" stroke="#6e2cf5"></path>
<path d="M 188.35 79.93
  Q 178.97 98.42 163.43 109.67
  Q 151.95 117.99 140.40 126.46" stroke="#cc5afa"></path>
<path d="M 140.40 126.46
  Q 120.05 141.21 99.69 156.21
  Q 96.04 158.89 92.98 161.91
  Q 92.33 162.56 93.25 162.56
  L 162.99 162.60
  Q 163.57 162.60 163.20 162.16
  C 159.26 157.46 152.94 153.43 147.98 149.74
  C 143.29 146.26 145.59 138.87 151.05 139.07
  C 154.85 139.20 161.45 145.13 164.66 147.49" stroke="#bf59fa"></path>
<path d="M 164.66 147.49
  Q 164.73 147.72 165.01 147.75" stroke="#cc5afa"></path>
<path d="M 165.01 147.75
  C 184.83 163.70 197.00 187.40 197.28 213.04
  Q 197.32 216.46 196.07 218.18
  C 193.77 221.34 188.22 220.87 186.30 217.35
  C 185.12 215.18 185.58 211.93 185.30 209.25
  Q 185.24 208.76 184.75 208.76
  L 71.76 208.73
  Q 71.30 208.73 71.23 209.20
  C 70.81 212.00 71.25 215.81 69.66 217.86
  Q 67.57 220.53 63.27 219.72" stroke="#bf59fa"></path>
<path d="M 63.27 219.72
  Q 59.86 218.53 59.13 214.94" stroke="#ae59fa"></path>
<path d="M 73.06 59.92
  C 75.30 67.72 78.24 74.98 82.70 81.82
  Q 82.98 82.25 83.50 82.25
  L 172.99 82.24
  A 0.96 0.95 16.3 0 0 173.79 81.81
  Q 180.36 71.65 183.38 59.93
  A 0.42 0.41 -82.9 0 0 182.98 59.41
  L 73.47 59.38
  A 0.43 0.42 -8.2 0 0 73.06 59.92" stroke="#cc5afa"></path>
<path d="M 102.38 102.37
  Q 115.05 111.57 127.77 120.65
  A 0.87 0.86 -45.3 0 0 128.79 120.64
  Q 141.79 111.01 154.87 101.35
  Q 159.27 98.10 163.21 94.31
  A 0.29 0.28 23.0 0 0 163.01 93.82
  L 92.99 93.79
  Q 92.29 93.79 92.79 94.28
  Q 97.23 98.62 102.38 102.37" stroke="#cc5afa"></path>
<path d="M 82.76 174.64
  C 78.65 180.96 74.63 189.12 73.17 196.57
  A 0.55 0.54 5.6 0 0 73.71 197.22
  L 183.00 197.11
  Q 183.51 197.11 183.38 196.62
  Q 180.33 184.91 173.82 174.71
  A 0.97 0.95 -15.9 0 0 173.01 174.27
  L 83.47 174.25
  Q 83.01 174.25 82.76 174.64" stroke="#bf59fa"></path>
<path d="M 251.85 235.04
  Q 251.66 233.66 250.68 235.44
  Q 250.44 235.87 250.05 235.57
  Q 249.55 235.19 249.63 234.53
  Q 249.66 234.29 249.46 234.42
  Q 249.34 234.50 249.29 234.65
  Q 249.13 235.16 248.87 234.87
  Q 248.78 234.77 248.66 234.66
  Q 248.57 234.57 248.64 234.47
  Q 249.63 233.14 248.75 232.26
  Q 219.39 202.83 189.93 173.50
  Q 189.90 173.47 188.47 172.38
  Q 187.55 171.69 187.18 170.42
  Q 187.06 170.00 186.65 169.86
  Q 185.90 169.59 185.88 168.75
  Q 185.88 168.64 185.80 168.71
  Q 185.70 168.79 185.58 168.85
  Q 185.48 168.89 185.43 168.80
  Q 183.78 165.83 181.77 163.11
  Q 180.90 161.93 179.62 161.34
  Q 179.47 161.27 179.47 161.10
  Q 179.48 160.97 179.63 160.87
  Q 179.94 160.66 179.63 160.24
  Q 179.45 160.00 179.01 160.13
  Q 178.73 160.21 178.51 160.00
  Q 178.31 159.81 178.42 159.62
  Q 178.71 159.12 178.30 158.71
  L 168.82 149.15
  Q 168.54 148.87 168.15 148.88
  Q 167.76 148.89 167.64 148.56
  Q 167.49 148.10 167.06 147.85
  Q 166.00 147.23 165.01 147.75" stroke="#8c2df4"></path>
<path d="M 164.66 147.49
  Q 164.53 146.86 164.71 146.58
  Q 164.90 146.29 164.65 146.05
  L 163.14 144.54
  Q 162.74 144.14 162.17 144.23
  Q 161.59 144.32 161.35 143.80
  Q 161.23 143.53 161.00 143.34
  Q 157.54 140.41 154.02 137.54
  Q 154.00 137.53 154.00 137.51
  Q 154.00 137.34 154.01 137.19
  Q 154.03 136.85 153.77 136.65
  Q 149.55 133.39 145.96 129.43
  Q 145.90 129.36 145.54 129.06
  Q 145.28 128.85 145.18 128.56
  Q 145.04 128.13 144.60 128.19
  Q 140.34 128.70 140.40 126.46" stroke="#8c2df4"></path>
<path d="M 95.27 256.00
  Q 95.49 255.66 94.97 254.98
  Q 94.64 254.54 94.10 254.58
  Q 92.98 254.65 92.21 253.63
  A 0.32 0.31 -19.6 0 1 92.45 253.13
  Q 92.59 253.12 92.73 253.12
  Q 93.59 253.13 92.98 252.52
  L 64.70 224.20
  Q 64.38 223.88 63.93 223.88
  L 62.42 223.88
  A 0.35 0.35 0.0 0 1 62.21 223.25
  L 63.10 222.57
  A 0.41 0.41 0.0 0 0 62.85 221.83
  Q 61.02 221.85 60.93 220.12
  Q 60.92 219.96 61.13 219.94
  L 61.14 219.93
  Q 61.17 219.93 61.37 220.25
  Q 61.80 220.95 62.47 221.36
  A 0.59 0.59 0.0 0 0 63.30 221.11
  Q 63.55 220.57 63.27 219.72" stroke="#6e2cf5"></path>
</g>
<path d="M 90.05 0.51
  Q 89.14 1.11 88.07 0.90
  Q 87.93 0.87 87.91 1.02
  L 87.91 1.02
  Q 87.89 1.20 87.99 1.20
  L 96.32 1.42
  Q 96.75 1.43 96.59 1.83
  Q 95.79 3.86 97.64 5.23
  Q 98.04 5.52 97.71 5.88
  Q 97.59 6.01 97.40 6.11
  Q 97.00 6.30 97.28 6.64
  Q 97.74 7.19 98.11 7.77
  Q 98.28 8.04 98.48 8.11
  Q 98.84 8.22 99.06 7.87
  Q 99.12 7.77 99.10 7.66
  Q 99.09 7.54 99.11 7.39
  Q 99.16 6.91 99.51 7.25
  L 104.89 12.51
  A 0.22 0.21 70.1 0 1 104.72 12.88
  Q 104.34 12.85 104.12 13.13
  Q 103.87 13.47 104.21 13.71
  Q 104.94 14.23 105.47 14.98
  Q 105.72 15.34 105.99 15.00
  Q 106.16 14.78 106.11 14.50
  A 0.34 0.34 0.0 0 1 106.48 14.10
  Q 106.85 14.14 106.89 14.50
  Q 106.95 15.05 107.50 15.11
  Q 107.82 15.15 107.88 15.45
  Q 107.96 15.86 107.54 15.88
  Q 107.39 15.89 107.25 15.88
  A 0.42 0.38 56.9 0 0 107.13 16.65
  Q 107.92 17.05 108.10 17.87
  A 0.52 0.52 0.0 0 0 109.12 17.74
  Q 109.11 17.59 109.12 17.44
  Q 109.14 17.07 109.51 17.11
  Q 109.91 17.16 109.90 17.63
  A 0.46 0.46 0.0 0 0 110.37 18.10
  Q 110.97 18.09 110.89 18.76
  Q 110.87 18.89 110.74 18.89
  Q 110.56 18.89 110.38 18.89
  Q 109.75 18.89 109.95 19.49
  Q 110.06 19.83 110.56 20.21
  Q 110.69 20.31 111.14 20.87
  Q 111.48 21.29 111.95 21.02
  Q 112.11 20.93 112.11 20.75
  Q 112.11 20.60 112.12 20.45
  Q 112.14 20.06 112.53 20.12
  Q 112.85 20.16 112.89 20.50
  Q 112.95 21.05 113.50 21.11
  Q 113.79 21.14 113.86 21.38
  Q 113.98 21.75 113.61 21.84
  L 112.98 21.99
  A 0.27 0.26 55.0 0 0 112.90 22.47
  Q 113.82 23.09 114.48 23.99
  Q 114.72 24.33 114.99 24.00
  Q 115.16 23.78 115.11 23.50
  A 0.34 0.34 0.0 0 1 115.48 23.10
  Q 115.85 23.14 115.89 23.50
  Q 115.95 24.05 116.50 24.11
  Q 116.79 24.14 116.86 24.38
  Q 116.98 24.75 116.61 24.84
  L 115.98 24.99
  A 0.27 0.26 55.0 0 0 115.90 25.47
  Q 116.82 26.09 117.48 26.99
  Q 117.72 27.33 117.99 27.00
  Q 118.16 26.78 118.11 26.50
  A 0.34 0.34 0.0 0 1 118.48 26.10
  Q 118.85 26.14 118.89 26.50
  Q 118.95 27.05 119.50 27.11
  Q 119.79 27.14 119.86 27.38
  Q 119.98 27.75 119.61 27.84
  L 118.98 27.99
  A 0.27 0.26 55.0 0 0 118.90 28.47
  Q 119.82 29.09 120.48 29.99
  Q 120.72 30.33 120.99 30.00
  Q 121.16 29.78 121.11 29.50
  A 0.34 0.34 0.0 0 1 121.48 29.10
  Q 121.85 29.14 121.89 29.50
  Q 121.95 30.05 122.50 30.11
  Q 122.84 30.15 122.88 30.47
  Q 122.95 30.94 122.48 30.88
  Q 122.13 30.83 121.88 31.12
  A 0.16 0.15 43.6 0 0 121.89 31.32
  L 124.55 34.00
  Q 124.81 34.26 125.02 33.96
  Q 125.16 33.76 125.11 33.50
  A 0.34 0.34 0.0 0 1 125.48 33.10
  Q 125.85 33.14 125.89 33.50
  Q 125.95 34.05 126.50 34.11
  Q 126.79 34.14 126.86 34.38
  Q 126.98 34.75 126.61 34.84
  L 125.98 34.99
  A 0.27 0.26 55.0 0 0 125.90 35.47
  Q 126.82 36.09 127.48 36.99
  Q 127.72 37.33 127.99 37.00
  Q 128.16 36.78 128.11 36.50
  A 0.34 0.34 0.0 0 1 128.48 36.10
  Q 128.85 36.14 128.89 36.50
  Q 128.95 37.05 129.50 37.11
  Q 129.79 37.14 129.86 37.38
  Q 129.98 37.75 129.61 37.84
  L 128.98 37.99
  A 0.27 0.26 55.0 0 0 128.90 38.47
  Q 129.82 39.09 130.48 39.99
  Q 130.71 40.31 130.98 40.01
  Q 131.18 39.78 131.10 39.50
  Q 130.83 38.55 131.62 39.39
  L 132.46 40.28
  Q 132.84 40.69 132.34 40.95
  Q 132.22 41.02 132.13 41.13
  A 0.37 0.13 -52.6 0 0 132.01 41.49
  Q 132.07 41.56 132.13 41.62
  Q 132.44 41.91 132.87 41.62
  Q 133.01 41.52 133.07 41.35
  A 0.32 0.31 41.8 0 1 133.65 41.32
  L 134.21 42.47
  Q 134.37 42.78 134.20 43.09
  Q 134.06 43.36 134.19 43.67
  Q 134.27 43.86 134.48 43.86
  Q 134.65 43.86 134.81 43.87
  Q 135.09 43.89 135.11 44.17
  Q 135.18 45.10 135.97 44.85
  Q 136.30 44.75 136.28 45.09
  Q 136.28 45.28 136.35 45.42
  Q 136.43 45.60 136.74 45.65
  Q 141.32 46.44 146.01 46.35
  C 147.48 46.32 148.52 46.83 150.01 46.89
  Q 150.10 46.90 150.05 46.95
  Q 150.02 46.98 149.99 47.02
  Q 149.88 47.17 149.70 47.18
  L 141.44 47.68
  L 71.80 47.71
  Q 71.25 47.71 71.18 47.16
  C 70.83 44.45 71.19 40.99 70.00 38.89
  C 67.30 34.13 60.17 35.97 59.21 41.50
  Q 58.64 44.79 60.22 55.55
  L 59.17 55.68
  Q 58.62 55.74 58.62 56.29
  L 58.62 57.50
  Q 58.62 58.17 58.26 57.60
  Q 57.97 57.12 57.88 56.47
  Q 57.82 56.06 57.43 55.89
  Q 56.46 55.46 56.06 54.38
  Q 55.87 53.89 55.43 53.62
  Q 54.66 53.15 54.08 52.46
  Q 53.93 52.28 53.89 52.51
  Q 53.84 52.74 53.75 52.77
  A 0.40 0.33 6.7 0 1 53.25 52.25
  L 53.49 52.02
  Q 53.64 51.86 53.49 51.71
  C 52.91 51.10 52.76 50.46 52.21 49.91
  Q 44.10 41.81 35.91 33.55
  Q 35.75 33.39 35.89 33.21
  L 36.20 32.79
  Q 36.32 32.63 36.48 32.75
  Q 36.90 33.06 37.12 33.52
  Q 37.32 33.92 37.65 33.62
  Q 38.02 33.28 37.88 32.75
  Q 37.70 32.12 37.05 32.12
  L 33.98 32.12
  A 0.25 0.24 19.7 0 1 33.79 31.72
  Q 33.97 31.51 33.87 31.24
  A 0.20 0.20 0.0 0 1 34.01 30.99
  Q 35.03 30.73 34.89 29.70
  Q 34.80 29.05 34.14 29.11
  L 33.26 29.17
  Q 33.21 29.18 33.21 29.22
  L 33.09 29.74
  Q 33.01 30.12 32.62 30.12
  Q 32.41 30.12 32.20 30.12
  Q 32.01 30.12 31.97 29.94
  L 31.90 29.66
  Q 31.86 29.49 31.74 29.37
  L 29.83 27.41
  A 0.98 0.05 26.1 0 0 29.11 27.01
  Q 28.85 26.88 28.88 26.50
  Q 28.90 26.08 28.49 26.12
  Q 28.06 26.17 27.98 25.76
  Q 27.91 25.43 27.65 25.20
  Q 26.52 24.22 25.49 23.13
  Q 24.81 23.03 24.83 22.47
  Q 24.84 22.15 24.52 22.13
  Q 24.38 22.12 24.25 22.12
  Q 23.88 22.12 23.88 21.75
  Q 23.88 21.59 23.87 21.43
  Q 23.85 21.15 23.57 21.13
  Q 23.41 21.12 23.25 21.12
  Q 22.88 21.12 22.88 20.75
  Q 22.88 20.61 22.87 20.48
  Q 22.85 20.09 22.47 20.13
  Q 21.95 20.17 21.88 19.73
  Q 21.81 19.29 21.48 19.01
  Q 18.87 16.80 16.53 14.34
  Q 16.45 14.25 15.60 13.58
  Q 14.91 13.03 14.97 12.24
  Q 14.98 12.04 14.92 11.85
  Q 14.68 11.08 14.02 11.64
  Q 13.83 11.80 13.69 11.60
  Q 13.51 11.37 13.76 11.00
  Q 13.93 10.76 14.24 10.63
  Q 14.50 10.53 14.47 10.25
  L 14.39 9.39
  Q 25.14 0.50 38.25 0.50
  Q 64.14 0.49 90.05 0.51
  Z" fill="#992df4"></path>
<path d="M 90.05 0.51
  Q 149.44 0.48 208.85 0.51
  Q 223.08 0.52 228.52 2.07
  C 243.71 6.44 254.37 20.05 256.00 35.90
  L 256.00 148.87
  L 255.60 149.22
  Q 255.10 149.65 255.03 149.00
  Q 255.00 148.76 254.88 148.53
  A 0.29 0.29 0.0 0 1 255.23 148.12
  Q 255.44 148.20 255.38 148.00
  Q 255.35 147.92 255.30 147.96
  Q 255.26 147.99 255.22 148.01
  A 0.29 0.22 76.8 0 1 254.91 147.75
  Q 254.71 146.51 254.94 145.29
  Q 254.97 145.09 254.88 144.91
  L 254.52 144.26
  Q 254.38 144.00 254.19 144.23
  Q 254.04 144.40 254.02 144.70
  Q 253.99 145.20 253.52 145.03
  Q 253.09 144.87 252.47 144.24
  A 4.17 1.35 50.9 0 0 252.07 143.86
  Q 251.70 143.53 251.97 143.04
  Q 252.06 142.88 252.25 142.88
  Q 252.40 142.88 252.55 142.87
  Q 252.91 142.85 252.88 142.49
  Q 252.84 142.10 252.38 142.11
  A 0.47 0.47 0.0 0 1 251.89 141.63
  Q 251.90 141.04 251.24 141.12
  Q 251.12 141.14 251.12 141.26
  Q 251.12 141.44 251.12 141.62
  Q 251.12 142.25 250.52 142.07
  Q 250.08 141.95 249.51 141.24
  Q 249.38 141.08 249.21 140.96
  Q 248.66 140.61 248.97 140.04
  Q 249.06 139.88 249.25 139.88
  Q 249.40 139.88 249.55 139.87
  Q 249.91 139.85 249.88 139.49
  Q 249.84 139.10 249.38 139.11
  A 0.47 0.47 0.0 0 1 248.89 138.63
  Q 248.90 138.04 248.24 138.12
  Q 248.12 138.14 248.12 138.26
  Q 248.12 138.44 248.12 138.62
  Q 248.12 139.25 247.52 139.07
  Q 247.08 138.95 246.51 138.24
  Q 246.38 138.08 246.21 137.96
  Q 245.66 137.61 245.97 137.04
  Q 246.06 136.88 246.25 136.88
  Q 246.40 136.88 246.55 136.87
  Q 246.91 136.85 246.88 136.49
  Q 246.84 136.10 246.38 136.11
  A 0.47 0.47 0.0 0 1 245.89 135.63
  Q 245.90 135.04 245.24 135.12
  Q 245.12 135.14 245.12 135.26
  Q 245.12 135.44 245.12 135.62
  Q 245.12 136.25 244.52 136.07
  Q 244.08 135.95 243.51 135.24
  Q 243.38 135.08 243.21 134.96
  Q 242.66 134.61 242.97 134.04
  Q 243.06 133.88 243.25 133.88
  Q 243.40 133.88 243.55 133.87
  Q 243.91 133.85 243.88 133.49
  Q 243.84 133.10 243.38 133.11
  A 0.47 0.47 0.0 0 1 242.89 132.63
  Q 242.90 132.04 242.24 132.12
  Q 242.12 132.14 242.12 132.26
  Q 242.12 132.44 242.12 132.62
  Q 242.12 133.25 241.52 133.07
  Q 241.08 132.95 240.51 132.24
  Q 240.38 132.08 240.21 131.96
  Q 239.66 131.61 239.97 131.04
  Q 240.06 130.88 240.25 130.88
  Q 240.40 130.88 240.55 130.87
  Q 240.91 130.85 240.88 130.49
  Q 240.84 130.10 240.38 130.11
  A 0.47 0.47 0.0 0 1 239.89 129.63
  Q 239.90 129.04 239.24 129.12
  Q 239.12 129.14 239.12 129.26
  Q 239.12 129.44 239.12 129.62
  Q 239.12 130.26 238.51 130.05
  Q 238.12 129.91 237.61 129.25
  Q 237.46 129.06 237.25 128.94
  Q 236.64 128.61 236.99 128.01
  Q 237.06 127.88 237.21 127.88
  Q 237.36 127.88 237.49 127.89
  Q 238.32 128.01 237.66 127.34
  L 216.46 106.14
  A 0.20 0.20 0.0 0 0 216.12 106.28
  L 216.12 106.76
  A 0.39 0.38 -80.4 0 1 215.61 107.13
  Q 215.17 106.97 214.64 106.30
  Q 214.48 106.10 214.26 105.96
  Q 213.63 105.58 214.00 105.00
  Q 214.08 104.88 214.23 104.88
  Q 214.39 104.88 214.55 104.87
  Q 214.91 104.85 214.88 104.49
  Q 214.84 104.10 214.38 104.11
  A 0.47 0.47 0.0 0 1 213.89 103.63
  Q 213.90 103.04 213.24 103.12
  Q 213.12 103.14 213.12 103.26
  Q 213.12 103.44 213.12 103.62
  Q 213.12 104.25 212.52 104.07
  Q 212.08 103.95 211.51 103.24
  Q 211.38 103.08 211.21 102.96
  Q 210.66 102.61 210.97 102.04
  Q 211.06 101.88 211.25 101.88
  Q 211.40 101.88 211.55 101.87
  Q 211.91 101.85 211.88 101.49
  Q 211.84 101.10 211.38 101.11
  A 0.47 0.47 0.0 0 1 210.89 100.63
  Q 210.90 100.04 210.24 100.12
  Q 210.12 100.14 210.12 100.26
  Q 210.12 100.44 210.12 100.62
  Q 210.12 101.25 209.52 101.07
  Q 209.08 100.95 208.51 100.24
  Q 208.38 100.08 208.21 99.96
  Q 207.66 99.61 207.97 99.04
  Q 208.06 98.88 208.25 98.88
  Q 208.39 98.88 208.54 98.88
  Q 209.18 98.90 208.86 98.36
  Q 208.72 98.12 208.50 98.12
  Q 207.94 98.11 207.88 97.50
  Q 207.85 97.15 207.49 97.12
  Q 207.07 97.09 207.13 97.51
  Q 207.17 97.79 206.99 98.01
  A 0.37 0.36 -47.1 0 1 206.46 98.04
  L 202.96 94.54
  A 0.36 0.35 -42.9 0 1 202.98 94.02
  Q 203.20 93.83 203.50 93.88
  A 0.34 0.34 0.0 0 0 203.89 93.52
  Q 203.85 93.10 203.38 93.11
  A 0.47 0.47 0.0 0 1 202.89 92.63
  Q 202.90 92.04 202.24 92.12
  Q 202.12 92.14 202.12 92.26
  Q 202.12 92.44 202.12 92.62
  Q 202.12 93.25 201.52 93.07
  Q 201.08 92.95 200.51 92.24
  Q 200.38 92.08 200.21 91.96
  Q 199.66 91.61 199.97 91.04
  Q 200.06 90.88 200.25 90.88
  Q 200.40 90.88 200.55 90.87
  Q 200.91 90.85 200.88 90.49
  Q 200.84 90.10 200.38 90.11
  A 0.47 0.47 0.0 0 1 199.89 89.63
  Q 199.90 89.04 199.24 89.12
  Q 199.12 89.14 199.12 89.26
  Q 199.12 89.44 199.12 89.62
  Q 199.12 90.25 198.52 90.07
  Q 198.08 89.95 197.51 89.24
  Q 197.38 89.08 197.21 88.96
  Q 196.66 88.61 196.97 88.04
  Q 197.06 87.88 197.25 87.88
  Q 197.40 87.88 197.55 87.87
  Q 197.91 87.85 197.88 87.49
  Q 197.84 87.10 197.38 87.11
  A 0.47 0.47 0.0 0 1 196.89 86.63
  Q 196.90 86.04 196.24 86.12
  Q 196.12 86.14 196.12 86.26
  Q 196.12 86.44 196.12 86.61
  Q 196.12 87.24 195.52 87.04
  Q 195.13 86.91 194.57 86.33
  A 1.34 0.04 46.8 0 0 194.12 85.88
  Q 193.97 85.74 193.89 85.55
  A 0.51 0.51 0.0 0 1 194.48 84.87
  Q 194.94 84.98 194.88 84.76
  Q 194.72 84.26 194.69 84.25
  Q 193.95 83.85 193.47 83.24
  A 0.11 0.10 -25.8 0 0 193.36 83.21
  Q 192.99 83.31 193.17 83.62
  A 0.36 0.35 -1.3 0 1 192.70 84.11
  Q 192.24 83.87 192.13 83.50
  A 0.79 0.42 61.8 0 1 192.13 83.00
  Q 192.19 82.88 192.29 82.76
  Q 192.86 82.08 191.93 82.61
  Q 191.73 82.73 191.50 82.77
  Q 191.13 82.82 191.13 82.45
  Q 191.13 82.30 191.10 82.12
  Q 191.08 81.90 190.86 81.88
  Q 190.55 81.86 190.38 81.62
  Q 190.09 81.22 190.11 81.12
  Q 190.19 80.76 190.15 80.37
  Q 190.14 80.32 190.12 80.37
  Q 190.08 80.48 189.91 80.50
  Q 189.63 80.53 189.63 80.25
  L 189.63 79.76
  Q 189.63 79.27 189.26 79.59
  Q 188.77 79.99 188.35 79.93
  Q 196.94 62.50 197.31 43.17
  C 197.49 34.04 185.83 34.39 185.58 41.81
  Q 185.45 45.52 185.42 47.12
  A 0.60 0.60 0.0 0 1 184.82 47.71
  L 141.44 47.68
  L 149.70 47.18
  Q 149.88 47.17 149.99 47.02
  Q 150.02 46.98 150.05 46.95
  Q 150.10 46.90 150.01 46.89
  C 148.52 46.83 147.48 46.32 146.01 46.35
  Q 141.32 46.44 136.74 45.65
  Q 136.43 45.60 136.35 45.42
  Q 136.28 45.28 136.28 45.09
  Q 136.30 44.75 135.97 44.85
  Q 135.18 45.10 135.11 44.17
  Q 135.09 43.89 134.81 43.87
  Q 134.65 43.86 134.48 43.86
  Q 134.27 43.86 134.19 43.67
  Q 134.06 43.36 134.20 43.09
  Q 134.37 42.78 134.21 42.47
  L 133.65 41.32
  A 0.32 0.31 41.8 0 0 133.07 41.35
  Q 133.01 41.52 132.87 41.62
  Q 132.44 41.91 132.13 41.62
  Q 132.07 41.56 132.01 41.49
  A 0.37 0.13 -52.6 0 1 132.13 41.13
  Q 132.22 41.02 132.34 40.95
  Q 132.84 40.69 132.46 40.28
  L 131.62 39.39
  Q 130.83 38.55 131.10 39.50
  Q 131.18 39.78 130.98 40.01
  Q 130.71 40.31 130.48 39.99
  Q 129.82 39.09 128.90 38.47
  A 0.27 0.26 55.0 0 1 128.98 37.99
  L 129.61 37.84
  Q 129.98 37.75 129.86 37.38
  Q 129.79 37.14 129.50 37.11
  Q 128.95 37.05 128.89 36.50
  Q 128.85 36.14 128.48 36.10
  A 0.34 0.34 0.0 0 0 128.11 36.50
  Q 128.16 36.78 127.99 37.00
  Q 127.72 37.33 127.48 36.99
  Q 126.82 36.09 125.90 35.47
  A 0.27 0.26 55.0 0 1 125.98 34.99
  L 126.61 34.84
  Q 126.98 34.75 126.86 34.38
  Q 126.79 34.14 126.50 34.11
  Q 125.95 34.05 125.89 33.50
  Q 125.85 33.14 125.48 33.10
  A 0.34 0.34 0.0 0 0 125.11 33.50
  Q 125.16 33.76 125.02 33.96
  Q 124.81 34.26 124.55 34.00
  L 121.89 31.32
  A 0.16 0.15 43.6 0 1 121.88 31.12
  Q 122.13 30.83 122.48 30.88
  Q 122.95 30.94 122.88 30.47
  Q 122.84 30.15 122.50 30.11
  Q 121.95 30.05 121.89 29.50
  Q 121.85 29.14 121.48 29.10
  A 0.34 0.34 0.0 0 0 121.11 29.50
  Q 121.16 29.78 120.99 30.00
  Q 120.72 30.33 120.48 29.99
  Q 119.82 29.09 118.90 28.47
  A 0.27 0.26 55.0 0 1 118.98 27.99
  L 119.61 27.84
  Q 119.98 27.75 119.86 27.38
  Q 119.79 27.14 119.50 27.11
  Q 118.95 27.05 118.89 26.50
  Q 118.85 26.14 118.48 26.10
  A 0.34 0.34 0.0 0 0 118.11 26.50
  Q 118.16 26.78 117.99 27.00
  Q 117.72 27.33 117.48 26.99
  Q 116.82 26.09 115.90 25.47
  A 0.27 0.26 55.0 0 1 115.98 24.99
  L 116.61 24.84
  Q 116.98 24.75 116.86 24.38
  Q 116.79 24.14 116.50 24.11
  Q 115.95 24.05 115.89 23.50
  Q 115.85 23.14 115.48 23.10
  A 0.34 0.34 0.0 0 0 115.11 23.50
  Q 115.16 23.78 114.99 24.00
  Q 114.72 24.33 114.48 23.99
  Q 113.82 23.09 112.90 22.47
  A 0.27 0.26 55.0 0 1 112.98 21.99
  L 113.61 21.84
  Q 113.98 21.75 113.86 21.38
  Q 113.79 21.14 113.50 21.11
  Q 112.95 21.05 112.89 20.50
  Q 112.85 20.16 112.53 20.12
  Q 112.14 20.06 112.12 20.45
  Q 112.11 20.60 112.11 20.75
  Q 112.11 20.93 111.95 21.02
  Q 111.48 21.29 111.14 20.87
  Q 110.69 20.31 110.56 20.21
  Q 110.06 19.83 109.95 19.49
  Q 109.75 18.89 110.38 18.89
  Q 110.56 18.89 110.74 18.89
  Q 110.87 18.89 110.89 18.76
  Q 110.97 18.09 110.37 18.10
  A 0.46 0.46 0.0 0 1 109.90 17.63
  Q 109.91 17.16 109.51 17.11
  Q 109.14 17.07 109.12 17.44
  Q 109.11 17.59 109.12 17.74
  A 0.52 0.52 0.0 0 1 108.10 17.87
  Q 107.92 17.05 107.13 16.65
  A 0.42 0.38 56.9 0 1 107.25 15.88
  Q 107.39 15.89 107.54 15.88
  Q 107.96 15.86 107.88 15.45
  Q 107.82 15.15 107.50 15.11
  Q 106.95 15.05 106.89 14.50
  Q 106.85 14.14 106.48 14.10
  A 0.34 0.34 0.0 0 0 106.11 14.50
  Q 106.16 14.78 105.99 15.00
  Q 105.72 15.34 105.47 14.98
  Q 104.94 14.23 104.21 13.71
  Q 103.87 13.47 104.12 13.13
  Q 104.34 12.85 104.72 12.88
  A 0.22 0.21 70.1 0 0 104.89 12.51
  L 99.51 7.25
  Q 99.16 6.91 99.11 7.39
  Q 99.09 7.54 99.10 7.66
  Q 99.12 7.77 99.06 7.87
  Q 98.84 8.22 98.48 8.11
  Q 98.28 8.04 98.11 7.77
  Q 97.74 7.19 97.28 6.64
  Q 97.00 6.30 97.40 6.11
  Q 97.59 6.01 97.71 5.88
  Q 98.04 5.52 97.64 5.23
  Q 95.79 3.86 96.59 1.83
  Q 96.75 1.43 96.32 1.42
  L 87.99 1.20
  Q 87.89 1.20 87.91 1.02
  L 87.91 1.02
  Q 87.93 0.87 88.07 0.90
  Q 89.14 1.11 90.05 0.51
  Z" fill="#b32df3"></path>
<path d="M 14.39 9.39
  L 14.47 10.25
  Q 14.50 10.53 14.24 10.63
  Q 13.93 10.76 13.76 11.00
  Q 13.51 11.37 13.69 11.60
  Q 13.83 11.80 14.02 11.64
  Q 14.68 11.08 14.92 11.85
  Q 14.98 12.04 14.97 12.24
  Q 14.91 13.03 15.60 13.58
  Q 16.45 14.25 16.53 14.34
  Q 18.87 16.80 21.48 19.01
  Q 21.81 19.29 21.88 19.73
  Q 21.95 20.17 22.47 20.13
  Q 22.85 20.09 22.87 20.48
  Q 22.88 20.61 22.88 20.75
  Q 22.88 21.12 23.25 21.12
  Q 23.41 21.12 23.57 21.13
  Q 23.85 21.15 23.87 21.43
  Q 23.88 21.59 23.88 21.75
  Q 23.88 22.12 24.25 22.12
  Q 24.38 22.12 24.52 22.13
  Q 24.84 22.15 24.83 22.47
  Q 24.81 23.03 25.49 23.13
  Q 26.52 24.22 27.65 25.20
  Q 27.91 25.43 27.98 25.76
  Q 28.06 26.17 28.49 26.12
  Q 28.90 26.08 28.88 26.50
  Q 28.85 26.88 29.11 27.01
  A 0.98 0.05 26.1 0 1 29.83 27.41
  L 31.74 29.37
  Q 31.86 29.49 31.90 29.66
  L 31.97 29.94
  Q 32.01 30.12 32.20 30.12
  Q 32.41 30.12 32.62 30.12
  Q 33.01 30.12 33.09 29.74
  L 33.21 29.22
  Q 33.21 29.18 33.26 29.17
  L 34.14 29.11
  Q 34.80 29.05 34.89 29.70
  Q 35.03 30.73 34.01 30.99
  A 0.20 0.20 0.0 0 0 33.87 31.24
  Q 33.97 31.51 33.79 31.72
  A 0.25 0.24 19.7 0 0 33.98 32.12
  L 37.05 32.12
  Q 37.70 32.12 37.88 32.75
  Q 38.02 33.28 37.65 33.62
  Q 37.32 33.92 37.12 33.52
  Q 36.90 33.06 36.48 32.75
  Q 36.32 32.63 36.20 32.79
  L 35.89 33.21
  Q 35.75 33.39 35.91 33.55
  Q 44.10 41.81 52.21 49.91
  C 52.76 50.46 52.91 51.10 53.49 51.71
  Q 53.64 51.86 53.49 52.02
  L 53.25 52.25
  A 0.40 0.33 6.7 0 0 53.75 52.77
  Q 53.84 52.74 53.89 52.51
  Q 53.93 52.28 54.08 52.46
  Q 54.66 53.15 55.43 53.62
  Q 55.87 53.89 56.06 54.38
  Q 56.46 55.46 57.43 55.89
  Q 57.82 56.06 57.88 56.47
  Q 57.97 57.12 58.26 57.60
  Q 58.62 58.17 58.62 57.50
  L 58.62 56.29
  Q 58.62 55.74 59.17 55.68
  L 60.22 55.55
  Q 65.17 83.62 84.83 102.83
  C 93.41 111.21 106.79 119.93 117.79 127.93
  Q 118.23 128.25 117.79 128.58
  C 106.34 136.95 92.50 145.81 83.48 155.08
  Q 59.84 179.37 59.13 214.94
  Q 58.66 214.73 58.33 215.17
  Q 58.13 215.43 58.13 215.89
  Q 58.13 216.46 58.13 217.02
  Q 58.13 217.38 57.78 217.38
  L 56.99 217.38
  Q 56.58 217.38 56.63 216.97
  Q 56.68 216.56 56.49 216.24
  A 0.13 0.13 0.0 0 0 56.25 216.27
  Q 56.15 216.70 55.76 216.68
  Q 55.31 216.66 55.35 216.22
  Q 55.38 215.91 55.59 215.69
  Q 55.84 215.42 55.48 215.37
  Q 55.12 215.32 54.86 215.64
  Q 54.62 215.93 54.36 215.67
  L 49.13 210.47
  A 0.21 0.20 67.2 0 1 49.27 210.12
  L 49.74 210.12
  Q 50.65 210.12 50.01 209.48
  Q 42.30 201.82 34.65 194.10
  Q 33.17 192.61 32.81 191.92
  Q 32.78 191.86 32.71 191.86
  Q 32.56 191.88 32.41 191.88
  Q 32.12 191.89 32.12 191.59
  L 32.12 189.05
  A 1.14 1.10 23.6 0 0 31.80 188.27
  L 27.61 184.01
  Q 27.18 183.57 26.92 184.13
  Q 26.85 184.28 26.87 184.46
  Q 26.91 184.85 26.52 184.87
  Q 26.38 184.88 26.24 184.88
  Q 26.12 184.88 26.12 184.76
  L 26.12 184.28
  A 0.28 0.27 -72.6 0 0 26.01 184.06
  Q 24.80 183.21 23.95 182.01
  Q 23.85 181.87 23.68 181.87
  Q 23.55 181.88 23.42 181.88
  Q 23.15 181.88 23.13 181.62
  Q 23.12 181.43 23.12 181.25
  A 0.37 0.37 0.0 0 0 22.75 180.88
  Q 22.63 180.88 22.50 180.87
  Q 22.14 180.86 22.13 180.50
  Q 22.12 180.38 22.12 180.25
  Q 22.12 179.88 21.75 179.88
  Q 21.61 179.88 21.48 179.87
  A 0.11 0.10 -15.0 0 1 21.39 179.82
  Q 20.66 178.59 19.49 177.82
  Q 19.15 177.60 18.95 177.24
  Q 18.75 176.85 18.30 176.44
  Q 13.00 171.59 5.49 163.78
  Q 5.06 163.33 5.62 163.08
  Q 5.90 162.96 5.89 162.58
  Q 5.87 161.77 5.24 162.28
  L 4.87 162.59
  Q 4.35 163.01 3.95 162.47
  Q 3.16 161.41 2.11 162.05
  Q 1.76 162.26 1.56 161.91
  Q 1.20 161.28 1.34 160.50
  Q 1.42 160.07 1.15 159.93
  Q 0.88 159.78 0.92 159.47
  Q 1.28 156.74 1.09 154.00
  Q 1.01 152.88 0.66 153.77
  Q 0.56 154.01 0.51 154.46
  Q 0.49 101.23 0.50 48.01
  Q 0.50 33.54 2.04 28.14
  Q 5.15 17.25 14.39 9.39
  Z" fill="#7e2cf4"></path>
<path d="M 141.44 47.68
  L 184.82 47.71
  A 0.60 0.60 0.0 0 0 185.42 47.12
  Q 185.45 45.52 185.58 41.81
  C 185.83 34.39 197.49 34.04 197.31 43.17
  Q 196.94 62.50 188.35 79.93
  Q 178.97 98.42 163.43 109.67
  Q 151.95 117.99 140.40 126.46
  Q 120.05 141.21 99.69 156.21
  Q 96.04 158.89 92.98 161.91
  Q 92.33 162.56 93.25 162.56
  L 162.99 162.60
  Q 163.57 162.60 163.20 162.16
  C 159.26 157.46 152.94 153.43 147.98 149.74
  C 143.29 146.26 145.59 138.87 151.05 139.07
  C 154.85 139.20 161.45 145.13 164.66 147.49
  Q 164.73 147.72 165.01 147.75
  C 184.83 163.70 197.00 187.40 197.28 213.04
  Q 197.32 216.46 196.07 218.18
  C 193.77 221.34 188.22 220.87 186.30 217.35
  C 185.12 215.18 185.58 211.93 185.30 209.25
  Q 185.24 208.76 184.75 208.76
  L 71.76 208.73
  Q 71.30 208.73 71.23 209.20
  C 70.81 212.00 71.25 215.81 69.66 217.86
  Q 67.57 220.53 63.27 219.72
  Q 59.86 218.53 59.13 214.94
  Q 59.84 179.37 83.48 155.08
  C 92.50 145.81 106.34 136.95 117.79 128.58
  Q 118.23 128.25 117.79 127.93
  C 106.79 119.93 93.41 111.21 84.83 102.83
  Q 65.17 83.62 60.22 55.55
  Q 58.64 44.79 59.21 41.50
  C 60.17 35.97 67.30 34.13 70.00 38.89
  C 71.19 40.99 70.83 44.45 71.18 47.16
  Q 71.25 47.71 71.80 47.71
  L 141.44 47.68
  Z
  M 73.06 59.92
  C 75.30 67.72 78.24 74.98 82.70 81.82
  Q 82.98 82.25 83.50 82.25
  L 172.99 82.24
  A 0.96 0.95 16.3 0 0 173.79 81.81
  Q 180.36 71.65 183.38 59.93
  A 0.42 0.41 -82.9 0 0 182.98 59.41
  L 73.47 59.38
  A 0.43 0.42 -8.2 0 0 73.06 59.92
  Z
  M 102.38 102.37
  Q 115.05 111.57 127.77 120.65
  A 0.87 0.86 -45.3 0 0 128.79 120.64
  Q 141.79 111.01 154.87 101.35
  Q 159.27 98.10 163.21 94.31
  A 0.29 0.28 23.0 0 0 163.01 93.82
  L 92.99 93.79
  Q 92.29 93.79 92.79 94.28
  Q 97.23 98.62 102.38 102.37
  Z
  M 82.76 174.64
  C 78.65 180.96 74.63 189.12 73.17 196.57
  A 0.55 0.54 5.6 0 0 73.71 197.22
  L 183.00 197.11
  Q 183.51 197.11 183.38 196.62
  Q 180.33 184.91 173.82 174.71
  A 0.97 0.95 -15.9 0 0 173.01 174.27
  L 83.47 174.25
  Q 83.01 174.25 82.76 174.64
  Z" fill="#ff86ff"></path>
<path d="M 82.70 81.82
  C 78.24 74.98 75.30 67.72 73.06 59.92
  A 0.43 0.42 -8.2 0 1 73.47 59.38
  L 182.98 59.41
  A 0.42 0.41 -82.9 0 1 183.38 59.93
  Q 180.36 71.65 173.79 81.81
  A 0.96 0.95 16.3 0 1 172.99 82.24
  L 83.50 82.25
  Q 82.98 82.25 82.70 81.82
  Z" fill="#992df4"></path>
<path d="M 256.00 148.87
  L 256.00 220.73
  Q 255.13 228.30 251.85 235.04
  Q 251.66 233.66 250.68 235.44
  Q 250.44 235.87 250.05 235.57
  Q 249.55 235.19 249.63 234.53
  Q 249.66 234.29 249.46 234.42
  Q 249.34 234.50 249.29 234.65
  Q 249.13 235.16 248.87 234.87
  Q 248.78 234.77 248.66 234.66
  Q 248.57 234.57 248.64 234.47
  Q 249.63 233.14 248.75 232.26
  Q 219.39 202.83 189.93 173.50
  Q 189.90 173.47 188.47 172.38
  Q 187.55 171.69 187.18 170.42
  Q 187.06 170.00 186.65 169.86
  Q 185.90 169.59 185.88 168.75
  Q 185.88 168.64 185.80 168.71
  Q 185.70 168.79 185.58 168.85
  Q 185.48 168.89 185.43 168.80
  Q 183.78 165.83 181.77 163.11
  Q 180.90 161.93 179.62 161.34
  Q 179.47 161.27 179.47 161.10
  Q 179.48 160.97 179.63 160.87
  Q 179.94 160.66 179.63 160.24
  Q 179.45 160.00 179.01 160.13
  Q 178.73 160.21 178.51 160.00
  Q 178.31 159.81 178.42 159.62
  Q 178.71 159.12 178.30 158.71
  L 168.82 149.15
  Q 168.54 148.87 168.15 148.88
  Q 167.76 148.89 167.64 148.56
  Q 167.49 148.10 167.06 147.85
  Q 166.00 147.23 165.01 147.75
  Q 164.73 147.72 164.66 147.49
  Q 164.53 146.86 164.71 146.58
  Q 164.90 146.29 164.65 146.05
  L 163.14 144.54
  Q 162.74 144.14 162.17 144.23
  Q 161.59 144.32 161.35 143.80
  Q 161.23 143.53 161.00 143.34
  Q 157.54 140.41 154.02 137.54
  Q 154.00 137.53 154.00 137.51
  Q 154.00 137.34 154.01 137.19
  Q 154.03 136.85 153.77 136.65
  Q 149.55 133.39 145.96 129.43
  Q 145.90 129.36 145.54 129.06
  Q 145.28 128.85 145.18 128.56
  Q 145.04 128.13 144.60 128.19
  Q 140.34 128.70 140.40 126.46
  Q 151.95 117.99 163.43 109.67
  Q 178.97 98.42 188.35 79.93
  Q 188.77 79.99 189.26 79.59
  Q 189.63 79.27 189.63 79.76
  L 189.63 80.25
  Q 189.63 80.53 189.91 80.50
  Q 190.08 80.48 190.12 80.37
  Q 190.14 80.32 190.15 80.37
  Q 190.19 80.76 190.11 81.12
  Q 190.09 81.22 190.38 81.62
  Q 190.55 81.86 190.86 81.88
  Q 191.08 81.90 191.10 82.12
  Q 191.13 82.30 191.13 82.45
  Q 191.13 82.82 191.50 82.77
  Q 191.73 82.73 191.93 82.61
  Q 192.86 82.08 192.29 82.76
  Q 192.19 82.88 192.13 83.00
  A 0.79 0.42 61.8 0 0 192.13 83.50
  Q 192.24 83.87 192.70 84.11
  A 0.36 0.35 -1.3 0 0 193.17 83.62
  Q 192.99 83.31 193.36 83.21
  A 0.11 0.10 -25.8 0 1 193.47 83.24
  Q 193.95 83.85 194.69 84.25
  Q 194.72 84.26 194.88 84.76
  Q 194.94 84.98 194.48 84.87
  A 0.51 0.51 0.0 0 0 193.89 85.55
  Q 193.97 85.74 194.12 85.88
  A 1.34 0.04 46.8 0 1 194.57 86.33
  Q 195.13 86.91 195.52 87.04
  Q 196.12 87.24 196.12 86.61
  Q 196.12 86.44 196.12 86.26
  Q 196.12 86.14 196.24 86.12
  Q 196.90 86.04 196.89 86.63
  A 0.47 0.47 0.0 0 0 197.38 87.11
  Q 197.84 87.10 197.88 87.49
  Q 197.91 87.85 197.55 87.87
  Q 197.40 87.88 197.25 87.88
  Q 197.06 87.88 196.97 88.04
  Q 196.66 88.61 197.21 88.96
  Q 197.38 89.08 197.51 89.24
  Q 198.08 89.95 198.52 90.07
  Q 199.12 90.25 199.12 89.62
  Q 199.12 89.44 199.12 89.26
  Q 199.12 89.14 199.24 89.12
  Q 199.90 89.04 199.89 89.63
  A 0.47 0.47 0.0 0 0 200.38 90.11
  Q 200.84 90.10 200.88 90.49
  Q 200.91 90.85 200.55 90.87
  Q 200.40 90.88 200.25 90.88
  Q 200.06 90.88 199.97 91.04
  Q 199.66 91.61 200.21 91.96
  Q 200.38 92.08 200.51 92.24
  Q 201.08 92.95 201.52 93.07
  Q 202.12 93.25 202.12 92.62
  Q 202.12 92.44 202.12 92.26
  Q 202.12 92.14 202.24 92.12
  Q 202.90 92.04 202.89 92.63
  A 0.47 0.47 0.0 0 0 203.38 93.11
  Q 203.85 93.10 203.89 93.52
  A 0.34 0.34 0.0 0 1 203.50 93.88
  Q 203.20 93.83 202.98 94.02
  A 0.36 0.35 -42.9 0 0 202.96 94.54
  L 206.46 98.04
  A 0.37 0.36 -47.1 0 0 206.99 98.01
  Q 207.17 97.79 207.13 97.51
  Q 207.07 97.09 207.49 97.12
  Q 207.85 97.15 207.88 97.50
  Q 207.94 98.11 208.50 98.12
  Q 208.72 98.12 208.86 98.36
  Q 209.18 98.90 208.54 98.88
  Q 208.39 98.88 208.25 98.88
  Q 208.06 98.88 207.97 99.04
  Q 207.66 99.61 208.21 99.96
  Q 208.38 100.08 208.51 100.24
  Q 209.08 100.95 209.52 101.07
  Q 210.12 101.25 210.12 100.62
  Q 210.12 100.44 210.12 100.26
  Q 210.12 100.14 210.24 100.12
  Q 210.90 100.04 210.89 100.63
  A 0.47 0.47 0.0 0 0 211.38 101.11
  Q 211.84 101.10 211.88 101.49
  Q 211.91 101.85 211.55 101.87
  Q 211.40 101.88 211.25 101.88
  Q 211.06 101.88 210.97 102.04
  Q 210.66 102.61 211.21 102.96
  Q 211.38 103.08 211.51 103.24
  Q 212.08 103.95 212.52 104.07
  Q 213.12 104.25 213.12 103.62
  Q 213.12 103.44 213.12 103.26
  Q 213.12 103.14 213.24 103.12
  Q 213.90 103.04 213.89 103.63
  A 0.47 0.47 0.0 0 0 214.38 104.11
  Q 214.84 104.10 214.88 104.49
  Q 214.91 104.85 214.55 104.87
  Q 214.39 104.88 214.23 104.88
  Q 214.08 104.88 214.00 105.00
  Q 213.63 105.58 214.26 105.96
  Q 214.48 106.10 214.64 106.30
  Q 215.17 106.97 215.61 107.13
  A 0.39 0.38 -80.4 0 0 216.12 106.76
  L 216.12 106.28
  A 0.20 0.20 0.0 0 1 216.46 106.14
  L 237.66 127.34
  Q 238.32 128.01 237.49 127.89
  Q 237.36 127.88 237.21 127.88
  Q 237.06 127.88 236.99 128.01
  Q 236.64 128.61 237.25 128.94
  Q 237.46 129.06 237.61 129.25
  Q 238.12 129.91 238.51 130.05
  Q 239.12 130.26 239.12 129.62
  Q 239.12 129.44 239.12 129.26
  Q 239.12 129.14 239.24 129.12
  Q 239.90 129.04 239.89 129.63
  A 0.47 0.47 0.0 0 0 240.38 130.11
  Q 240.84 130.10 240.88 130.49
  Q 240.91 130.85 240.55 130.87
  Q 240.40 130.88 240.25 130.88
  Q 240.06 130.88 239.97 131.04
  Q 239.66 131.61 240.21 131.96
  Q 240.38 132.08 240.51 132.24
  Q 241.08 132.95 241.52 133.07
  Q 242.12 133.25 242.12 132.62
  Q 242.12 132.44 242.12 132.26
  Q 242.12 132.14 242.24 132.12
  Q 242.90 132.04 242.89 132.63
  A 0.47 0.47 0.0 0 0 243.38 133.11
  Q 243.84 133.10 243.88 133.49
  Q 243.91 133.85 243.55 133.87
  Q 243.40 133.88 243.25 133.88
  Q 243.06 133.88 242.97 134.04
  Q 242.66 134.61 243.21 134.96
  Q 243.38 135.08 243.51 135.24
  Q 244.08 135.95 244.52 136.07
  Q 245.12 136.25 245.12 135.62
  Q 245.12 135.44 245.12 135.26
  Q 245.12 135.14 245.24 135.12
  Q 245.90 135.04 245.89 135.63
  A 0.47 0.47 0.0 0 0 246.38 136.11
  Q 246.84 136.10 246.88 136.49
  Q 246.91 136.85 246.55 136.87
  Q 246.40 136.88 246.25 136.88
  Q 246.06 136.88 245.97 137.04
  Q 245.66 137.61 246.21 137.96
  Q 246.38 138.08 246.51 138.24
  Q 247.08 138.95 247.52 139.07
  Q 248.12 139.25 248.12 138.62
  Q 248.12 138.44 248.12 138.26
  Q 248.12 138.14 248.24 138.12
  Q 248.90 138.04 248.89 138.63
  A 0.47 0.47 0.0 0 0 249.38 139.11
  Q 249.84 139.10 249.88 139.49
  Q 249.91 139.85 249.55 139.87
  Q 249.40 139.88 249.25 139.88
  Q 249.06 139.88 248.97 140.04
  Q 248.66 140.61 249.21 140.96
  Q 249.38 141.08 249.51 141.24
  Q 250.08 141.95 250.52 142.07
  Q 251.12 142.25 251.12 141.62
  Q 251.12 141.44 251.12 141.26
  Q 251.12 141.14 251.24 141.12
  Q 251.90 141.04 251.89 141.63
  A 0.47 0.47 0.0 0 0 252.38 142.11
  Q 252.84 142.10 252.88 142.49
  Q 252.91 142.85 252.55 142.87
  Q 252.40 142.88 252.25 142.88
  Q 252.06 142.88 251.97 143.04
  Q 251.70 143.53 252.07 143.86
  A 4.17 1.35 50.9 0 1 252.47 144.24
  Q 253.09 144.87 253.52 145.03
  Q 253.99 145.20 254.02 144.70
  Q 254.04 144.40 254.19 144.23
  Q 254.38 144.00 254.52 144.26
  L 254.88 144.91
  Q 254.97 145.09 254.94 145.29
  Q 254.71 146.51 254.91 147.75
  A 0.29 0.22 76.8 0 0 255.22 148.01
  Q 255.26 147.99 255.30 147.96
  Q 255.35 147.92 255.38 148.00
  Q 255.44 148.20 255.23 148.12
  A 0.29 0.29 0.0 0 0 254.88 148.53
  Q 255.00 148.76 255.03 149.00
  Q 255.10 149.65 255.60 149.22
  L 256.00 148.87
  Z" fill="#992df4"></path>
<path d="M 102.38 102.37
  Q 97.23 98.62 92.79 94.28
  Q 92.29 93.79 92.99 93.79
  L 163.01 93.82
  A 0.29 0.28 23.0 0 1 163.21 94.31
  Q 159.27 98.10 154.87 101.35
  Q 141.79 111.01 128.79 120.64
  A 0.87 0.86 -45.3 0 1 127.77 120.65
  Q 115.05 111.57 102.38 102.37
  Z" fill="#992df4"></path>
<path d="M 140.40 126.46
  Q 140.34 128.70 144.60 128.19
  Q 145.04 128.13 145.18 128.56
  Q 145.28 128.85 145.54 129.06
  Q 145.90 129.36 145.96 129.43
  Q 149.55 133.39 153.77 136.65
  Q 154.03 136.85 154.01 137.19
  Q 154.00 137.34 154.00 137.51
  Q 154.00 137.53 154.02 137.54
  Q 157.54 140.41 161.00 143.34
  Q 161.23 143.53 161.35 143.80
  Q 161.59 144.32 162.17 144.23
  Q 162.74 144.14 163.14 144.54
  L 164.65 146.05
  Q 164.90 146.29 164.71 146.58
  Q 164.53 146.86 164.66 147.49
  C 161.45 145.13 154.85 139.20 151.05 139.07
  C 145.59 138.87 143.29 146.26 147.98 149.74
  C 152.94 153.43 159.26 157.46 163.20 162.16
  Q 163.57 162.60 162.99 162.60
  L 93.25 162.56
  Q 92.33 162.56 92.98 161.91
  Q 96.04 158.89 99.69 156.21
  Q 120.05 141.21 140.40 126.46
  Z" fill="#7e2cf4"></path>
<path d="M 251.85 235.04
  Q 241.85 253.36 220.87 256.00
  L 95.27 256.00
  Q 95.49 255.66 94.97 254.98
  Q 94.64 254.54 94.10 254.58
  Q 92.98 254.65 92.21 253.63
  A 0.32 0.31 -19.6 0 1 92.45 253.13
  Q 92.59 253.12 92.73 253.12
  Q 93.59 253.13 92.98 252.52
  L 64.70 224.20
  Q 64.38 223.88 63.93 223.88
  L 62.42 223.88
  A 0.35 0.35 0.0 0 1 62.21 223.25
  L 63.10 222.57
  A 0.41 0.41 0.0 0 0 62.85 221.83
  Q 61.02 221.85 60.93 220.12
  Q 60.92 219.96 61.13 219.94
  L 61.14 219.93
  Q 61.17 219.93 61.37 220.25
  Q 61.80 220.95 62.47 221.36
  A 0.59 0.59 0.0 0 0 63.30 221.11
  Q 63.55 220.57 63.27 219.72
  Q 67.57 220.53 69.66 217.86
  C 71.25 215.81 70.81 212.00 71.23 209.20
  Q 71.30 208.73 71.76 208.73
  L 184.75 208.76
  Q 185.24 208.76 185.30 209.25
  C 185.58 211.93 185.12 215.18 186.30 217.35
  C 188.22 220.87 193.77 221.34 196.07 218.18
  Q 197.32 216.46 197.28 213.04
  C 197.00 187.40 184.83 163.70 165.01 147.75
  Q 166.00 147.23 167.06 147.85
  Q 167.49 148.10 167.64 148.56
  Q 167.76 148.89 168.15 148.88
  Q 168.54 148.87 168.82 149.15
  L 178.30 158.71
  Q 178.71 159.12 178.42 159.62
  Q 178.31 159.81 178.51 160.00
  Q 178.73 160.21 179.01 160.13
  Q 179.45 160.00 179.63 160.24
  Q 179.94 160.66 179.63 160.87
  Q 179.48 160.97 179.47 161.10
  Q 179.47 161.27 179.62 161.34
  Q 180.90 161.93 181.77 163.11
  Q 183.78 165.83 185.43 168.80
  Q 185.48 168.89 185.58 168.85
  Q 185.70 168.79 185.80 168.71
  Q 185.88 168.64 185.88 168.75
  Q 185.90 169.59 186.65 169.86
  Q 187.06 170.00 187.18 170.42
  Q 187.55 171.69 188.47 172.38
  Q 189.90 173.47 189.93 173.50
  Q 219.39 202.83 248.75 232.26
  Q 249.63 233.14 248.64 234.47
  Q 248.57 234.57 248.66 234.66
  Q 248.78 234.77 248.87 234.87
  Q 249.13 235.16 249.29 234.65
  Q 249.34 234.50 249.46 234.42
  Q 249.66 234.29 249.63 234.53
  Q 249.55 235.19 250.05 235.57
  Q 250.44 235.87 250.68 235.44
  Q 251.66 233.66 251.85 235.04
  Z" fill="#7e2cf4"></path>
<path d="M 59.13 214.94
  Q 59.86 218.53 63.27 219.72
  Q 63.55 220.57 63.30 221.11
  A 0.59 0.59 0.0 0 1 62.47 221.36
  Q 61.80 220.95 61.37 220.25
  Q 61.17 219.93 61.14 219.93
  L 61.13 219.94
  Q 60.92 219.96 60.93 220.12
  Q 61.02 221.85 62.85 221.83
  A 0.41 0.41 0.0 0 1 63.10 222.57
  L 62.21 223.25
  A 0.35 0.35 0.0 0 0 62.42 223.88
  L 63.93 223.88
  Q 64.38 223.88 64.70 224.20
  L 92.98 252.52
  Q 93.59 253.13 92.73 253.12
  Q 92.59 253.12 92.45 253.13
  A 0.32 0.31 -19.6 0 0 92.21 253.63
  Q 92.98 254.65 94.10 254.58
  Q 94.64 254.54 94.97 254.98
  Q 95.49 255.66 95.27 256.00
  L 35.52 256.00
  C 14.86 253.41 0.13 237.09 0.27 216.25
  Q 0.48 185.35 0.51 154.46
  Q 0.56 154.01 0.66 153.77
  Q 1.01 152.88 1.09 154.00
  Q 1.28 156.74 0.92 159.47
  Q 0.88 159.78 1.15 159.93
  Q 1.42 160.07 1.34 160.50
  Q 1.20 161.28 1.56 161.91
  Q 1.76 162.26 2.11 162.05
  Q 3.16 161.41 3.95 162.47
  Q 4.35 163.01 4.87 162.59
  L 5.24 162.28
  Q 5.87 161.77 5.89 162.58
  Q 5.90 162.96 5.62 163.08
  Q 5.06 163.33 5.49 163.78
  Q 13.00 171.59 18.30 176.44
  Q 18.75 176.85 18.95 177.24
  Q 19.15 177.60 19.49 177.82
  Q 20.66 178.59 21.39 179.82
  A 0.11 0.10 -15.0 0 0 21.48 179.87
  Q 21.61 179.88 21.75 179.88
  Q 22.12 179.88 22.12 180.25
  Q 22.12 180.38 22.13 180.50
  Q 22.14 180.86 22.50 180.87
  Q 22.63 180.88 22.75 180.88
  A 0.37 0.37 0.0 0 1 23.12 181.25
  Q 23.12 181.43 23.13 181.62
  Q 23.15 181.88 23.42 181.88
  Q 23.55 181.88 23.68 181.87
  Q 23.85 181.87 23.95 182.01
  Q 24.80 183.21 26.01 184.06
  A 0.28 0.27 -72.6 0 1 26.12 184.28
  L 26.12 184.76
  Q 26.12 184.88 26.24 184.88
  Q 26.38 184.88 26.52 184.87
  Q 26.91 184.85 26.87 184.46
  Q 26.85 184.28 26.92 184.13
  Q 27.18 183.57 27.61 184.01
  L 31.80 188.27
  A 1.14 1.10 23.6 0 1 32.12 189.05
  L 32.12 191.59
  Q 32.12 191.89 32.41 191.88
  Q 32.56 191.88 32.71 191.86
  Q 32.78 191.86 32.81 191.92
  Q 33.17 192.61 34.65 194.10
  Q 42.30 201.82 50.01 209.48
  Q 50.65 210.12 49.74 210.12
  L 49.27 210.12
  A 0.21 0.20 67.2 0 0 49.13 210.47
  L 54.36 215.67
  Q 54.62 215.93 54.86 215.64
  Q 55.12 215.32 55.48 215.37
  Q 55.84 215.42 55.59 215.69
  Q 55.38 215.91 55.35 216.22
  Q 55.31 216.66 55.76 216.68
  Q 56.15 216.70 56.25 216.27
  A 0.13 0.13 0.0 0 1 56.49 216.24
  Q 56.68 216.56 56.63 216.97
  Q 56.58 217.38 56.99 217.38
  L 57.78 217.38
  Q 58.13 217.38 58.13 217.02
  Q 58.13 216.46 58.13 215.89
  Q 58.13 215.43 58.33 215.17
  Q 58.66 214.73 59.13 214.94
  Z" fill="#5d2bf5"></path>
<path d="M 73.17 196.57
  C 74.63 189.12 78.65 180.96 82.76 174.64
  Q 83.01 174.25 83.47 174.25
  L 173.01 174.27
  A 0.97 0.95 -15.9 0 1 173.82 174.71
  Q 180.33 184.91 183.38 196.62
  Q 183.51 197.11 183.00 197.11
  L 73.71 197.22
  A 0.55 0.54 5.6 0 1 73.17 196.57
  Z" fill="#7e2cf4"></path>
</svg>
