<svg viewBox="0.00 0.00 261.00 270.00" version="1.1" xmlns="http://www.w3.org/2000/svg">
<g stroke-linecap="butt" fill="none" stroke-width="2.00">
<path d="M 192.43 75.87
  L 103.38 229.96" stroke="#95b4cd"></path>
<path d="M 186.80 231.53
  L 152.09 171.28
  Q 151.84 170.84 151.40 170.58
  Q 147.18 168.06 143.68 171.35
  C 142.72 172.25 142.49 173.35 141.82 174.51
  Q 130.40 194.07 119.03 213.65
  Q 113.86 222.55 109.01 231.36" stroke="#a8e5b6"></path>
</g>
<path d="M 192.43 75.87
  L 103.38 229.96
  Q 98.33 238.75 93.17 247.55
  C 89.71 253.43 85.32 252.23 82.29 246.98
  Q 57.11 203.30 31.90 159.65
  C 27.38 151.83 30.07 149.59 33.94 142.86
  Q 58.65 99.88 83.45 56.94
  C 85.95 52.62 87.93 49.13 93.50 49.13
  Q 145.44 49.12 197.38 49.10
  Q 203.29 49.10 203.72 54.39
  C 203.86 56.12 202.64 58.18 201.90 59.41
  Q 196.93 67.61 192.43 75.87
  Z" fill="#4682b4"></path>
<path d="M 192.43 75.87
  Q 194.61 77.36 195.17 78.33
  Q 215.40 113.45 235.67 148.56
  C 237.99 152.57 236.65 155.70 234.31 159.76
  Q 214.79 193.52 195.31 227.29
  C 193.71 230.07 190.69 230.85 186.80 231.53
  L 152.09 171.28
  Q 151.84 170.84 151.40 170.58
  Q 147.18 168.06 143.68 171.35
  C 142.72 172.25 142.49 173.35 141.82 174.51
  Q 130.40 194.07 119.03 213.65
  Q 113.86 222.55 109.01 231.36
  Q 105.79 231.50 103.38 229.96
  L 192.43 75.87
  Z" fill="#e4e5e6"></path>
<path d="M 186.80 231.53
  Q 188.16 234.47 189.88 237.00
  C 190.91 238.52 191.80 240.65 193.00 242.28
  C 194.62 244.46 194.47 246.92 193.15 249.21
  Q 192.91 249.63 192.49 249.86
  C 191.14 250.62 190.11 251.38 188.48 251.38
  Q 148.85 251.37 109.22 251.38
  Q 105.32 251.39 103.74 250.34
  C 100.56 248.24 101.18 243.90 103.31 241.04
  C 104.87 238.96 105.66 237.14 106.80 235.00
  C 107.42 233.84 108.67 232.93 109.01 231.36
  Q 113.86 222.55 119.03 213.65
  Q 130.40 194.07 141.82 174.51
  C 142.49 173.35 142.72 172.25 143.68 171.35
  Q 147.18 168.06 151.40 170.58
  Q 151.84 170.84 152.09 171.28
  L 186.80 231.53
  Z" fill="#6ce486"></path>
</svg>
