<svg viewBox="0.00 0.00 192.00 192.00" version="1.1" xmlns="http://www.w3.org/2000/svg">
<path d="M 192.00 5.22
  L 192.00 41.56
  Q 162.77 67.32 133.68 92.93
  C 128.19 97.76 120.27 99.17 113.20 97.37
  C 98.46 93.60 92.00 75.41 100.02 62.81
  Q 101.83 59.97 107.40 55.06
  Q 133.02 32.51 158.61 9.94
  Q 165.80 3.60 169.91 1.94
  Q 180.86 -2.46 192.00 5.22
  Z" fill="#5584ff"></path>
<rect rx="22.30" height="45.80" width="123.70" transform="translate(54.36,49.45) rotate(-41.5)" y="-22.90" x="-61.85" fill="#0e1a35"></rect>
<path d="M 192.00 100.42
  L 192.00 122.80
  Q 189.56 126.63 188.13 127.88
  Q 160.57 152.12 133.07 176.43
  Q 125.64 182.99 121.46 184.70
  C 100.80 193.16 82.08 168.63 94.31 150.51
  Q 96.07 147.91 102.23 142.48
  Q 130.08 117.95 157.94 93.43
  C 162.31 89.58 169.20 87.92 175.02 88.75
  Q 185.85 90.29 192.00 100.42
  Z" fill="#0e1a35"></path>
<path d="M 0.00 186.69
  L 0.00 150.44
  Q 28.89 125.05 57.74 99.75
  Q 67.74 90.98 80.01 95.01
  C 93.43 99.42 99.49 115.82 92.71 127.94
  Q 90.56 131.78 83.56 137.95
  Q 56.48 161.79 29.47 185.72
  C 21.09 193.15 8.85 193.72 0.00 186.69
  Z" fill="#0e1a35"></path>
</svg>
