<svg viewBox="0.00 0.00 192.00 192.00" version="1.1" xmlns="http://www.w3.org/2000/svg">
<g stroke-linecap="butt" fill="none" stroke-width="2.00">
<path d="M 64.37 63.76
  Q 64.85 63.59 65.50 63.59
  Q 92.26 63.53 118.94 63.45
  A 5.11 5.10 22.9 0 0 122.45 62.03
  L 157.29 28.28
  Q 157.82 27.77 157.08 27.77
  Q 97.85 27.88 38.25 27.82
  Q 31.87 27.82 29.37 32.46
  Q 28.02 34.97 28.02 41.28
  Q 28.02 95.88 28.02 150.28
  A 0.37 0.37 0.0 0 0 28.63 150.56
  Q 44.94 136.19 61.04 121.99
  C 63.36 119.95 63.70 118.72 63.69 115.75
  Q 63.62 90.21 63.71 64.67
  A 0.98 0.97 81.1 0 1 64.37 63.76" stroke="#bb9aee"></path>
<path d="M 128.04 128.27
  Q 127.65 128.48 127.00 128.49
  Q 100.25 128.61 73.50 128.53
  Q 71.30 128.52 69.76 129.99
  Q 52.37 146.61 34.94 163.18
  Q 34.09 163.99 35.26 163.98
  Q 92.95 163.93 151.12 163.96
  Q 157.10 163.96 159.61 162.52
  Q 164.26 159.84 164.26 153.25
  Q 164.25 96.30 164.18 39.49
  A 0.39 0.38 68.0 0 0 163.53 39.21
  Q 147.37 54.99 130.91 70.66
  Q 128.79 72.66 128.79 76.50
  Q 128.78 101.88 128.78 127.02
  A 1.44 1.42 -14.6 0 1 128.04 128.27" stroke="#bb9aee"></path>
<path d="M 56.23 64.75
  C 56.28 58.93 61.00 55.78 66.50 55.78
  Q 91.96 55.75 116.78 55.77
  A 2.92 2.91 22.5 0 0 118.83 54.93
  L 138.10 36.19
  Q 138.81 35.50 137.81 35.50
  L 37.22 35.50
  A 1.54 1.53 0.0 0 0 35.68 37.03
  L 35.69 135.25
  Q 35.69 136.03 36.24 135.49
  L 54.94 117.34
  A 3.45 3.38 68.5 0 0 55.97 114.91
  Q 56.00 89.98 56.23 64.75" stroke="#bb9aee"></path>
<path d="M 136.50 126.42
  C 136.50 131.60 132.55 136.22 127.50 136.24
  Q 101.18 136.30 75.09 136.25
  A 1.93 1.93 0.0 0 0 73.75 136.79
  L 54.22 155.67
  Q 53.60 156.27 54.46 156.27
  L 154.74 156.27
  A 1.76 1.76 0.0 0 0 156.50 154.51
  L 156.51 57.70
  A 0.42 0.42 0.0 0 0 155.80 57.40
  L 137.54 75.05
  A 3.41 3.39 68.0 0 0 136.51 77.49
  Q 136.50 101.74 136.50 126.42" stroke="#bb9aee"></path>
</g>
<path d="M 9.13 0.00
  L 182.49 0.00
  Q 188.69 1.35 192.00 6.61
  L 192.00 185.28
  C 188.79 190.25 184.84 191.77 178.67 191.77
  Q 95.62 191.78 12.58 191.77
  C 6.84 191.77 3.05 190.53 0.00 185.92
  L 0.00 5.74
  Q 3.44 1.21 9.13 0.00
  Z
  M 64.37 63.76
  Q 64.85 63.59 65.50 63.59
  Q 92.26 63.53 118.94 63.45
  A 5.11 5.10 22.9 0 0 122.45 62.03
  L 157.29 28.28
  Q 157.82 27.77 157.08 27.77
  Q 97.85 27.88 38.25 27.82
  Q 31.87 27.82 29.37 32.46
  Q 28.02 34.97 28.02 41.28
  Q 28.02 95.88 28.02 150.28
  A 0.37 0.37 0.0 0 0 28.63 150.56
  Q 44.94 136.19 61.04 121.99
  C 63.36 119.95 63.70 118.72 63.69 115.75
  Q 63.62 90.21 63.71 64.67
  A 0.98 0.97 81.1 0 1 64.37 63.76
  Z
  M 128.04 128.27
  Q 127.65 128.48 127.00 128.49
  Q 100.25 128.61 73.50 128.53
  Q 71.30 128.52 69.76 129.99
  Q 52.37 146.61 34.94 163.18
  Q 34.09 163.99 35.26 163.98
  Q 92.95 163.93 151.12 163.96
  Q 157.10 163.96 159.61 162.52
  Q 164.26 159.84 164.26 153.25
  Q 164.25 96.30 164.18 39.49
  A 0.39 0.38 68.0 0 0 163.53 39.21
  Q 147.37 54.99 130.91 70.66
  Q 128.79 72.66 128.79 76.50
  Q 128.78 101.88 128.78 127.02
  A 1.44 1.42 -14.6 0 1 128.04 128.27
  Z" fill="#7635dc"></path>
<path d="M 64.37 63.76
  A 0.98 0.97 81.1 0 0 63.71 64.67
  Q 63.62 90.21 63.69 115.75
  C 63.70 118.72 63.36 119.95 61.04 121.99
  Q 44.94 136.19 28.63 150.56
  A 0.37 0.37 0.0 0 1 28.02 150.28
  Q 28.02 95.88 28.02 41.28
  Q 28.02 34.97 29.37 32.46
  Q 31.87 27.82 38.25 27.82
  Q 97.85 27.88 157.08 27.77
  Q 157.82 27.77 157.29 28.28
  L 122.45 62.03
  A 5.11 5.10 22.9 0 1 118.94 63.45
  Q 92.26 63.53 65.50 63.59
  Q 64.85 63.59 64.37 63.76
  Z
  M 56.23 64.75
  C 56.28 58.93 61.00 55.78 66.50 55.78
  Q 91.96 55.75 116.78 55.77
  A 2.92 2.91 22.5 0 0 118.83 54.93
  L 138.10 36.19
  Q 138.81 35.50 137.81 35.50
  L 37.22 35.50
  A 1.54 1.53 0.0 0 0 35.68 37.03
  L 35.69 135.25
  Q 35.69 136.03 36.24 135.49
  L 54.94 117.34
  A 3.45 3.38 68.5 0 0 55.97 114.91
  Q 56.00 89.98 56.23 64.75
  Z" fill="#ffffff"></path>
<path d="M 66.50 55.78
  C 61.00 55.78 56.28 58.93 56.23 64.75
  Q 56.00 89.98 55.97 114.91
  A 3.45 3.38 68.5 0 1 54.94 117.34
  L 36.24 135.49
  Q 35.69 136.03 35.69 135.25
  L 35.68 37.03
  A 1.54 1.53 0.0 0 1 37.22 35.50
  L 137.81 35.50
  Q 138.81 35.50 138.10 36.19
  L 118.83 54.93
  A 2.92 2.91 22.5 0 1 116.78 55.77
  Q 91.96 55.75 66.50 55.78
  Z" fill="#7635dc"></path>
<path d="M 128.04 128.27
  A 1.44 1.42 -14.6 0 0 128.78 127.02
  Q 128.78 101.88 128.79 76.50
  Q 128.79 72.66 130.91 70.66
  Q 147.37 54.99 163.53 39.21
  A 0.39 0.38 68.0 0 1 164.18 39.49
  Q 164.25 96.30 164.26 153.25
  Q 164.26 159.84 159.61 162.52
  Q 157.10 163.96 151.12 163.96
  Q 92.95 163.93 35.26 163.98
  Q 34.09 163.99 34.94 163.18
  Q 52.37 146.61 69.76 129.99
  Q 71.30 128.52 73.50 128.53
  Q 100.25 128.61 127.00 128.49
  Q 127.65 128.48 128.04 128.27
  Z
  M 136.50 126.42
  C 136.50 131.60 132.55 136.22 127.50 136.24
  Q 101.18 136.30 75.09 136.25
  A 1.93 1.93 0.0 0 0 73.75 136.79
  L 54.22 155.67
  Q 53.60 156.27 54.46 156.27
  L 154.74 156.27
  A 1.76 1.76 0.0 0 0 156.50 154.51
  L 156.51 57.70
  A 0.42 0.42 0.0 0 0 155.80 57.40
  L 137.54 75.05
  A 3.41 3.39 68.0 0 0 136.51 77.49
  Q 136.50 101.74 136.50 126.42
  Z" fill="#ffffff"></path>
<path d="M 127.50 136.24
  C 132.55 136.22 136.50 131.60 136.50 126.42
  Q 136.50 101.74 136.51 77.49
  A 3.41 3.39 68.0 0 1 137.54 75.05
  L 155.80 57.40
  A 0.42 0.42 0.0 0 1 156.51 57.70
  L 156.50 154.51
  A 1.76 1.76 0.0 0 1 154.74 156.27
  L 54.46 156.27
  Q 53.60 156.27 54.22 155.67
  L 73.75 136.79
  A 1.93 1.93 0.0 0 1 75.09 136.25
  Q 101.18 136.30 127.50 136.24
  Z" fill="#7635dc"></path>
</svg>
