<svg viewBox="0.00 0.00 256.00 256.00" version="1.1" xmlns="http://www.w3.org/2000/svg">
<g stroke-linecap="butt" fill="none" stroke-width="2.00">
<path d="M 107.49 52.37
  C 91.69 58.50 80.52 72.55 78.64 89.45" stroke="#23816a"></path>
<path d="M 78.64 89.45
  Q 78.28 92.86 78.28 94.50
  Q 78.28 127.63 78.37 160.75
  C 78.42 177.83 103.46 177.46 103.48 160.75
  Q 103.51 139.39 103.47 118.04" stroke="#318157"></path>
<path d="M 103.47 118.04
  Q 103.45 108.37 103.52 98.70
  Q 103.57 90.75 105.07 87.00
  Q 108.88 77.42 120.50 74.71" stroke="#23816a"></path>
<path d="M 120.50 74.71
  Q 127.62 73.88 133.50 77.29
  Q 157.13 90.98 180.91 104.48
  Q 181.52 104.82 181.17 104.22
  Q 172.15 88.43 163.01 72.72
  C 151.67 53.25 128.96 44.36 107.49 52.37" stroke="#1f8170"></path>
<path d="M 120.50 74.71
  L 119.18 71.83
  Q 118.96 71.36 118.60 71.00
  L 117.35 69.73
  Q 117.11 69.49 117.11 69.14
  L 117.11 68.78
  A 0.70 0.69 -67.2 0 0 116.92 68.30
  L 115.48 66.82
  Q 115.10 66.44 115.13 65.90
  Q 115.17 65.29 114.69 64.95
  Q 114.27 64.65 114.16 64.15
  Q 113.87 62.84 112.62 62.03
  Q 112.21 61.76 112.13 61.27
  Q 111.89 59.72 110.42 58.89
  Q 110.02 58.66 110.11 58.21
  Q 110.26 57.46 109.73 56.97
  Q 109.36 56.64 109.22 56.16
  Q 108.79 54.76 107.52 53.95
  Q 107.16 53.72 107.41 53.38
  Q 107.81 52.84 107.49 52.37" stroke="#42ffc7"></path>
<path d="M 103.47 118.04
  Q 103.44 120.63 102.17 123.01
  Q 101.89 123.54 101.47 123.12
  L 99.13 120.74
  Q 98.89 120.50 98.89 120.16
  L 98.88 119.75
  Q 98.88 119.33 98.53 119.10
  Q 97.22 118.27 96.83 116.85
  Q 96.70 116.37 96.30 116.05
  Q 95.86 115.70 95.87 115.20
  Q 95.88 114.69 95.58 114.27
  Q 94.98 113.46 94.21 112.91
  Q 93.89 112.67 93.89 112.27
  L 93.88 111.75
  Q 93.88 111.33 93.53 111.10
  Q 92.22 110.27 91.83 108.85
  Q 91.70 108.37 91.30 108.05
  Q 90.86 107.70 90.87 107.20
  Q 90.88 106.69 90.58 106.27
  Q 89.98 105.46 89.21 104.91
  Q 88.89 104.67 88.89 104.27
  L 88.88 103.75
  Q 88.88 103.33 88.53 103.10
  Q 87.24 102.28 86.84 100.89
  Q 86.70 100.41 86.32 100.08
  Q 85.74 99.58 85.88 98.82
  Q 85.97 98.37 85.58 98.13
  Q 84.22 97.29 83.82 95.83
  Q 83.69 95.34 83.29 95.03
  Q 82.79 94.64 82.88 94.05
  Q 82.96 93.55 82.60 93.21
  L 81.12 91.77
  A 0.87 0.85 30.0 0 1 80.89 90.95
  Q 81.07 90.27 80.42 90.08
  A 0.72 0.68 -3.6 0 1 80.01 89.74
  L 79.61 88.94
  Q 79.58 88.87 79.56 88.94
  Q 79.53 89.08 79.50 89.21
  Q 79.39 89.59 79.53 89.95
  Q 79.77 90.55 79.32 90.99
  Q 78.87 91.41 78.70 90.82
  Q 78.52 90.25 78.64 89.45" stroke="#54ffae"></path>
<path d="M 156.15 128.07
  Q 164.78 133.13 173.46 138.01
  C 184.41 144.17 187.87 157.50 180.61 167.98" stroke="#1f8170"></path>
<path d="M 180.61 167.98
  Q 177.92 171.38 175.67 172.69
  Q 151.30 186.82 127.07 200.77
  Q 126.33 201.19 127.19 201.20
  Q 141.82 201.26 156.66 201.20
  Q 170.65 201.15 176.33 199.62
  Q 186.07 197.00 194.17 190.11" stroke="#23816a"></path>
<path d="M 194.17 190.11
  C 217.24 169.86 213.88 132.84 187.82 117.42
  Q 175.70 110.25 134.03 86.19" stroke="#1f8170"></path>
<path d="M 134.03 86.19
  Q 129.64 83.28 126.76 82.43
  C 115.64 79.15 105.99 92.85 113.41 102.13
  Q 114.99 104.12 120.73 107.48
  Q 138.43 117.84 156.15 128.07" stroke="#23816a"></path>
<path d="M 134.03 86.19
  L 134.23 86.81
  Q 134.34 87.18 133.95 87.12
  Q 133.54 87.06 133.19 87.28
  A 0.41 0.40 36.1 0 0 133.31 88.01
  Q 134.06 88.21 133.89 88.94
  Q 133.78 89.44 134.14 89.79
  L 135.63 91.24
  Q 135.88 91.48 135.88 91.83
  L 135.88 92.22
  A 0.68 0.67 22.8 0 0 136.08 92.70
  L 137.52 94.18
  Q 137.89 94.56 137.86 95.10
  Q 137.82 95.79 138.44 96.13
  Q 138.79 96.32 138.85 96.71
  Q 139.11 98.28 140.59 99.12
  Q 140.99 99.35 140.89 99.81
  Q 140.71 100.61 141.31 101.04
  Q 141.67 101.30 141.79 101.74
  Q 142.22 103.26 143.55 104.14
  Q 143.88 104.36 143.88 104.75
  L 143.88 105.22
  A 0.68 0.67 22.8 0 0 144.08 105.70
  L 145.52 107.18
  Q 145.89 107.56 145.86 108.10
  Q 145.81 108.78 146.43 109.11
  Q 146.78 109.30 146.85 109.70
  Q 147.09 111.24 148.49 112.05
  Q 148.88 112.28 148.88 112.73
  L 148.88 113.22
  A 0.68 0.67 22.8 0 0 149.08 113.70
  L 150.52 115.18
  Q 150.89 115.56 150.86 116.10
  Q 150.81 116.78 151.43 117.11
  Q 151.78 117.30 151.85 117.70
  Q 152.09 119.24 153.49 120.05
  Q 153.88 120.28 153.88 120.73
  L 153.88 121.22
  A 0.68 0.67 22.8 0 0 154.08 121.70
  L 155.52 123.18
  Q 155.90 123.57 155.86 124.10
  Q 155.81 124.85 156.52 125.12
  Q 156.98 125.29 156.89 125.77
  Q 156.72 126.66 157.39 127.13
  Q 158.04 127.57 157.28 127.77
  L 156.15 128.07" stroke="#42ffc7"></path>
<path d="M 194.17 190.11
  Q 193.24 187.19 190.29 184.89
  Q 190.00 184.66 190.00 184.29
  L 190.00 183.78
  Q 190.00 183.27 189.55 183.05
  Q 188.78 182.66 188.98 181.78
  A 0.65 0.64 -68.4 0 0 188.68 181.07
  Q 187.46 180.35 187.02 179.18
  Q 186.87 178.77 186.66 178.38
  Q 186.16 177.46 185.36 176.93
  Q 184.88 176.60 185.00 176.04
  Q 185.15 175.30 184.55 174.96
  Q 184.16 174.73 184.07 174.30
  Q 183.76 172.75 182.35 171.95
  Q 181.95 171.72 181.99 171.26
  Q 182.17 169.29 180.61 167.98" stroke="#42ffc7"></path>
<path d="M 132.25 189.39
  Q 150.47 178.96 168.57 168.40
  Q 172.61 166.04 174.00 164.51
  C 183.59 153.93 170.58 138.36 157.72 145.72
  Q 139.34 156.24 121.31 166.73" stroke="#23816a"></path>
<path d="M 121.31 166.73
  Q 114.53 170.56 107.93 174.41
  Q 98.13 180.13 94.01 180.87
  C 81.96 183.04 70.77 173.52 70.76 161.25
  Q 70.75 133.79 70.66 106.68
  Q 70.65 105.64 70.14 106.54
  Q 62.74 119.42 55.27 132.46
  C 48.48 144.32 44.46 153.06 45.78 165.51
  C 48.75 193.32 75.42 212.29 102.71 204.73
  C 112.05 202.14 122.95 194.86 132.25 189.39" stroke="#318157"></path>
<path d="M 121.31 166.73
  Q 120.25 168.19 120.12 169.19
  A 0.71 0.70 -74.7 0 0 120.54 169.93
  Q 121.21 170.21 121.11 170.96
  Q 121.04 171.46 121.41 171.82
  L 122.87 173.24
  A 0.75 0.74 -68.3 0 1 123.10 173.78
  L 123.10 174.25
  Q 123.10 174.68 123.46 174.91
  Q 124.75 175.72 125.14 177.10
  Q 125.28 177.59 125.66 177.92
  Q 126.24 178.42 126.10 179.17
  Q 126.01 179.63 126.41 179.88
  Q 127.76 180.71 128.15 182.14
  Q 128.28 182.64 128.69 182.95
  Q 129.19 183.35 129.11 183.96
  Q 129.04 184.46 129.41 184.82
  L 130.85 186.23
  Q 131.10 186.46 131.10 186.80
  L 131.10 187.21
  Q 131.10 187.60 131.40 187.83
  Q 132.04 188.31 132.25 189.39" stroke="#54ffae"></path>
</g>
<path d="M 0.00 0.00
  L 256.00 0.00
  L 256.00 256.00
  L 0.00 256.00
  L 0.00 0.00
  Z
  M 107.49 52.37
  C 91.69 58.50 80.52 72.55 78.64 89.45
  Q 78.28 92.86 78.28 94.50
  Q 78.28 127.63 78.37 160.75
  C 78.42 177.83 103.46 177.46 103.48 160.75
  Q 103.51 139.39 103.47 118.04
  Q 103.45 108.37 103.52 98.70
  Q 103.57 90.75 105.07 87.00
  Q 108.88 77.42 120.50 74.71
  Q 127.62 73.88 133.50 77.29
  Q 157.13 90.98 180.91 104.48
  Q 181.52 104.82 181.17 104.22
  Q 172.15 88.43 163.01 72.72
  C 151.67 53.25 128.96 44.36 107.49 52.37
  Z
  M 156.15 128.07
  Q 164.78 133.13 173.46 138.01
  C 184.41 144.17 187.87 157.50 180.61 167.98
  Q 177.92 171.38 175.67 172.69
  Q 151.30 186.82 127.07 200.77
  Q 126.33 201.19 127.19 201.20
  Q 141.82 201.26 156.66 201.20
  Q 170.65 201.15 176.33 199.62
  Q 186.07 197.00 194.17 190.11
  C 217.24 169.86 213.88 132.84 187.82 117.42
  Q 175.70 110.25 134.03 86.19
  Q 129.64 83.28 126.76 82.43
  C 115.64 79.15 105.99 92.85 113.41 102.13
  Q 114.99 104.12 120.73 107.48
  Q 138.43 117.84 156.15 128.07
  Z
  M 132.25 189.39
  Q 150.47 178.96 168.57 168.40
  Q 172.61 166.04 174.00 164.51
  C 183.59 153.93 170.58 138.36 157.72 145.72
  Q 139.34 156.24 121.31 166.73
  Q 114.53 170.56 107.93 174.41
  Q 98.13 180.13 94.01 180.87
  C 81.96 183.04 70.77 173.52 70.76 161.25
  Q 70.75 133.79 70.66 106.68
  Q 70.65 105.64 70.14 106.54
  Q 62.74 119.42 55.27 132.46
  C 48.48 144.32 44.46 153.06 45.78 165.51
  C 48.75 193.32 75.42 212.29 102.71 204.73
  C 112.05 202.14 122.95 194.86 132.25 189.39
  Z" fill="#000212"></path>
<path d="M 120.50 74.71
  L 119.18 71.83
  Q 118.96 71.36 118.60 71.00
  L 117.35 69.73
  Q 117.11 69.49 117.11 69.14
  L 117.11 68.78
  A 0.70 0.69 -67.2 0 0 116.92 68.30
  L 115.48 66.82
  Q 115.10 66.44 115.13 65.90
  Q 115.17 65.29 114.69 64.95
  Q 114.27 64.65 114.16 64.15
  Q 113.87 62.84 112.62 62.03
  Q 112.21 61.76 112.13 61.27
  Q 111.89 59.72 110.42 58.89
  Q 110.02 58.66 110.11 58.21
  Q 110.26 57.46 109.73 56.97
  Q 109.36 56.64 109.22 56.16
  Q 108.79 54.76 107.52 53.95
  Q 107.16 53.72 107.41 53.38
  Q 107.81 52.84 107.49 52.37
  C 128.96 44.36 151.67 53.25 163.01 72.72
  Q 172.15 88.43 181.17 104.22
  Q 181.52 104.82 180.91 104.48
  Q 157.13 90.98 133.50 77.29
  Q 127.62 73.88 120.50 74.71
  Z" fill="#3dffcd"></path>
<path d="M 107.49 52.37
  Q 107.81 52.84 107.41 53.38
  Q 107.16 53.72 107.52 53.95
  Q 108.79 54.76 109.22 56.16
  Q 109.36 56.64 109.73 56.97
  Q 110.26 57.46 110.11 58.21
  Q 110.02 58.66 110.42 58.89
  Q 111.89 59.72 112.13 61.27
  Q 112.21 61.76 112.62 62.03
  Q 113.87 62.84 114.16 64.15
  Q 114.27 64.65 114.69 64.95
  Q 115.17 65.29 115.13 65.90
  Q 115.10 66.44 115.48 66.82
  L 116.92 68.30
  A 0.70 0.69 -67.2 0 1 117.11 68.78
  L 117.11 69.14
  Q 117.11 69.49 117.35 69.73
  L 118.60 71.00
  Q 118.96 71.36 119.18 71.83
  L 120.50 74.71
  Q 108.88 77.42 105.07 87.00
  Q 103.57 90.75 103.52 98.70
  Q 103.45 108.37 103.47 118.04
  Q 103.44 120.63 102.17 123.01
  Q 101.89 123.54 101.47 123.12
  L 99.13 120.74
  Q 98.89 120.50 98.89 120.16
  L 98.88 119.75
  Q 98.88 119.33 98.53 119.10
  Q 97.22 118.27 96.83 116.85
  Q 96.70 116.37 96.30 116.05
  Q 95.86 115.70 95.87 115.20
  Q 95.88 114.69 95.58 114.27
  Q 94.98 113.46 94.21 112.91
  Q 93.89 112.67 93.89 112.27
  L 93.88 111.75
  Q 93.88 111.33 93.53 111.10
  Q 92.22 110.27 91.83 108.85
  Q 91.70 108.37 91.30 108.05
  Q 90.86 107.70 90.87 107.20
  Q 90.88 106.69 90.58 106.27
  Q 89.98 105.46 89.21 104.91
  Q 88.89 104.67 88.89 104.27
  L 88.88 103.75
  Q 88.88 103.33 88.53 103.10
  Q 87.24 102.28 86.84 100.89
  Q 86.70 100.41 86.32 100.08
  Q 85.74 99.58 85.88 98.82
  Q 85.97 98.37 85.58 98.13
  Q 84.22 97.29 83.82 95.83
  Q 83.69 95.34 83.29 95.03
  Q 82.79 94.64 82.88 94.05
  Q 82.96 93.55 82.60 93.21
  L 81.12 91.77
  A 0.87 0.85 30.0 0 1 80.89 90.95
  Q 81.07 90.27 80.42 90.08
  A 0.72 0.68 -3.6 0 1 80.01 89.74
  L 79.61 88.94
  Q 79.58 88.87 79.56 88.94
  Q 79.53 89.08 79.50 89.21
  Q 79.39 89.59 79.53 89.95
  Q 79.77 90.55 79.32 90.99
  Q 78.87 91.41 78.70 90.82
  Q 78.52 90.25 78.64 89.45
  C 80.52 72.55 91.69 58.50 107.49 52.37
  Z" fill="#46ffc1"></path>
<path d="M 134.03 86.19
  L 134.23 86.81
  Q 134.34 87.18 133.95 87.12
  Q 133.54 87.06 133.19 87.28
  A 0.41 0.40 36.1 0 0 133.31 88.01
  Q 134.06 88.21 133.89 88.94
  Q 133.78 89.44 134.14 89.79
  L 135.63 91.24
  Q 135.88 91.48 135.88 91.83
  L 135.88 92.22
  A 0.68 0.67 22.8 0 0 136.08 92.70
  L 137.52 94.18
  Q 137.89 94.56 137.86 95.10
  Q 137.82 95.79 138.44 96.13
  Q 138.79 96.32 138.85 96.71
  Q 139.11 98.28 140.59 99.12
  Q 140.99 99.35 140.89 99.81
  Q 140.71 100.61 141.31 101.04
  Q 141.67 101.30 141.79 101.74
  Q 142.22 103.26 143.55 104.14
  Q 143.88 104.36 143.88 104.75
  L 143.88 105.22
  A 0.68 0.67 22.8 0 0 144.08 105.70
  L 145.52 107.18
  Q 145.89 107.56 145.86 108.10
  Q 145.81 108.78 146.43 109.11
  Q 146.78 109.30 146.85 109.70
  Q 147.09 111.24 148.49 112.05
  Q 148.88 112.28 148.88 112.73
  L 148.88 113.22
  A 0.68 0.67 22.8 0 0 149.08 113.70
  L 150.52 115.18
  Q 150.89 115.56 150.86 116.10
  Q 150.81 116.78 151.43 117.11
  Q 151.78 117.30 151.85 117.70
  Q 152.09 119.24 153.49 120.05
  Q 153.88 120.28 153.88 120.73
  L 153.88 121.22
  A 0.68 0.67 22.8 0 0 154.08 121.70
  L 155.52 123.18
  Q 155.90 123.57 155.86 124.10
  Q 155.81 124.85 156.52 125.12
  Q 156.98 125.29 156.89 125.77
  Q 156.72 126.66 157.39 127.13
  Q 158.04 127.57 157.28 127.77
  L 156.15 128.07
  Q 138.43 117.84 120.73 107.48
  Q 114.99 104.12 113.41 102.13
  C 105.99 92.85 115.64 79.15 126.76 82.43
  Q 129.64 83.28 134.03 86.19
  Z" fill="#46ffc1"></path>
<path d="M 134.03 86.19
  Q 175.70 110.25 187.82 117.42
  C 213.88 132.84 217.24 169.86 194.17 190.11
  Q 193.24 187.19 190.29 184.89
  Q 190.00 184.66 190.00 184.29
  L 190.00 183.78
  Q 190.00 183.27 189.55 183.05
  Q 188.78 182.66 188.98 181.78
  A 0.65 0.64 -68.4 0 0 188.68 181.07
  Q 187.46 180.35 187.02 179.18
  Q 186.87 178.77 186.66 178.38
  Q 186.16 177.46 185.36 176.93
  Q 184.88 176.60 185.00 176.04
  Q 185.15 175.30 184.55 174.96
  Q 184.16 174.73 184.07 174.30
  Q 183.76 172.75 182.35 171.95
  Q 181.95 171.72 181.99 171.26
  Q 182.17 169.29 180.61 167.98
  C 187.87 157.50 184.41 144.17 173.46 138.01
  Q 164.78 133.13 156.15 128.07
  L 157.28 127.77
  Q 158.04 127.57 157.39 127.13
  Q 156.72 126.66 156.89 125.77
  Q 156.98 125.29 156.52 125.12
  Q 155.81 124.85 155.86 124.10
  Q 155.90 123.57 155.52 123.18
  L 154.08 121.70
  A 0.68 0.67 22.8 0 1 153.88 121.22
  L 153.88 120.73
  Q 153.88 120.28 153.49 120.05
  Q 152.09 119.24 151.85 117.70
  Q 151.78 117.30 151.43 117.11
  Q 150.81 116.78 150.86 116.10
  Q 150.89 115.56 150.52 115.18
  L 149.08 113.70
  A 0.68 0.67 22.8 0 1 148.88 113.22
  L 148.88 112.73
  Q 148.88 112.28 148.49 112.05
  Q 147.09 111.24 146.85 109.70
  Q 146.78 109.30 146.43 109.11
  Q 145.81 108.78 145.86 108.10
  Q 145.89 107.56 145.52 107.18
  L 144.08 105.70
  A 0.68 0.67 22.8 0 1 143.88 105.22
  L 143.88 104.75
  Q 143.88 104.36 143.55 104.14
  Q 142.22 103.26 141.79 101.74
  Q 141.67 101.30 141.31 101.04
  Q 140.71 100.61 140.89 99.81
  Q 140.99 99.35 140.59 99.12
  Q 139.11 98.28 138.85 96.71
  Q 138.79 96.32 138.44 96.13
  Q 137.82 95.79 137.86 95.10
  Q 137.89 94.56 137.52 94.18
  L 136.08 92.70
  A 0.68 0.67 22.8 0 1 135.88 92.22
  L 135.88 91.83
  Q 135.88 91.48 135.63 91.24
  L 134.14 89.79
  Q 133.78 89.44 133.89 88.94
  Q 134.06 88.21 133.31 88.01
  A 0.41 0.40 36.1 0 1 133.19 87.28
  Q 133.54 87.06 133.95 87.12
  Q 134.34 87.18 134.23 86.81
  L 134.03 86.19
  Z" fill="#3dffcd"></path>
<path d="M 103.47 118.04
  Q 103.51 139.39 103.48 160.75
  C 103.46 177.46 78.42 177.83 78.37 160.75
  Q 78.28 127.63 78.28 94.50
  Q 78.28 92.86 78.64 89.45
  Q 78.52 90.25 78.70 90.82
  Q 78.87 91.41 79.32 90.99
  Q 79.77 90.55 79.53 89.95
  Q 79.39 89.59 79.50 89.21
  Q 79.53 89.08 79.56 88.94
  Q 79.58 88.87 79.61 88.94
  L 80.01 89.74
  A 0.72 0.68 -3.6 0 0 80.42 90.08
  Q 81.07 90.27 80.89 90.95
  A 0.87 0.85 30.0 0 0 81.12 91.77
  L 82.60 93.21
  Q 82.96 93.55 82.88 94.05
  Q 82.79 94.64 83.29 95.03
  Q 83.69 95.34 83.82 95.83
  Q 84.22 97.29 85.58 98.13
  Q 85.97 98.37 85.88 98.82
  Q 85.74 99.58 86.32 100.08
  Q 86.70 100.41 86.84 100.89
  Q 87.24 102.28 88.53 103.10
  Q 88.88 103.33 88.88 103.75
  L 88.89 104.27
  Q 88.89 104.67 89.21 104.91
  Q 89.98 105.46 90.58 106.27
  Q 90.88 106.69 90.87 107.20
  Q 90.86 107.70 91.30 108.05
  Q 91.70 108.37 91.83 108.85
  Q 92.22 110.27 93.53 111.10
  Q 93.88 111.33 93.88 111.75
  L 93.89 112.27
  Q 93.89 112.67 94.21 112.91
  Q 94.98 113.46 95.58 114.27
  Q 95.88 114.69 95.87 115.20
  Q 95.86 115.70 96.30 116.05
  Q 96.70 116.37 96.83 116.85
  Q 97.22 118.27 98.53 119.10
  Q 98.88 119.33 98.88 119.75
  L 98.89 120.16
  Q 98.89 120.50 99.13 120.74
  L 101.47 123.12
  Q 101.89 123.54 102.17 123.01
  Q 103.44 120.63 103.47 118.04
  Z" fill="#62ff9b"></path>
<path d="M 121.31 166.73
  Q 120.25 168.19 120.12 169.19
  A 0.71 0.70 -74.7 0 0 120.54 169.93
  Q 121.21 170.21 121.11 170.96
  Q 121.04 171.46 121.41 171.82
  L 122.87 173.24
  A 0.75 0.74 -68.3 0 1 123.10 173.78
  L 123.10 174.25
  Q 123.10 174.68 123.46 174.91
  Q 124.75 175.72 125.14 177.10
  Q 125.28 177.59 125.66 177.92
  Q 126.24 178.42 126.10 179.17
  Q 126.01 179.63 126.41 179.88
  Q 127.76 180.71 128.15 182.14
  Q 128.28 182.64 128.69 182.95
  Q 129.19 183.35 129.11 183.96
  Q 129.04 184.46 129.41 184.82
  L 130.85 186.23
  Q 131.10 186.46 131.10 186.80
  L 131.10 187.21
  Q 131.10 187.60 131.40 187.83
  Q 132.04 188.31 132.25 189.39
  C 122.95 194.86 112.05 202.14 102.71 204.73
  C 75.42 212.29 48.75 193.32 45.78 165.51
  C 44.46 153.06 48.48 144.32 55.27 132.46
  Q 62.74 119.42 70.14 106.54
  Q 70.65 105.64 70.66 106.68
  Q 70.75 133.79 70.76 161.25
  C 70.77 173.52 81.96 183.04 94.01 180.87
  Q 98.13 180.13 107.93 174.41
  Q 114.53 170.56 121.31 166.73
  Z" fill="#62ff9b"></path>
<path d="M 132.25 189.39
  Q 132.04 188.31 131.40 187.83
  Q 131.10 187.60 131.10 187.21
  L 131.10 186.80
  Q 131.10 186.46 130.85 186.23
  L 129.41 184.82
  Q 129.04 184.46 129.11 183.96
  Q 129.19 183.35 128.69 182.95
  Q 128.28 182.64 128.15 182.14
  Q 127.76 180.71 126.41 179.88
  Q 126.01 179.63 126.10 179.17
  Q 126.24 178.42 125.66 177.92
  Q 125.28 177.59 125.14 177.10
  Q 124.75 175.72 123.46 174.91
  Q 123.10 174.68 123.10 174.25
  L 123.10 173.78
  A 0.75 0.74 -68.3 0 0 122.87 173.24
  L 121.41 171.82
  Q 121.04 171.46 121.11 170.96
  Q 121.21 170.21 120.54 169.93
  A 0.71 0.70 -74.7 0 1 120.12 169.19
  Q 120.25 168.19 121.31 166.73
  Q 139.34 156.24 157.72 145.72
  C 170.58 138.36 183.59 153.93 174.00 164.51
  Q 172.61 166.04 168.57 168.40
  Q 150.47 178.96 132.25 189.39
  Z" fill="#46ffc1"></path>
<path d="M 180.61 167.98
  Q 182.17 169.29 181.99 171.26
  Q 181.95 171.72 182.35 171.95
  Q 183.76 172.75 184.07 174.30
  Q 184.16 174.73 184.55 174.96
  Q 185.15 175.30 185.00 176.04
  Q 184.88 176.60 185.36 176.93
  Q 186.16 177.46 186.66 178.38
  Q 186.87 178.77 187.02 179.18
  Q 187.46 180.35 188.68 181.07
  A 0.65 0.64 -68.4 0 1 188.98 181.78
  Q 188.78 182.66 189.55 183.05
  Q 190.00 183.27 190.00 183.78
  L 190.00 184.29
  Q 190.00 184.66 190.29 184.89
  Q 193.24 187.19 194.17 190.11
  Q 186.07 197.00 176.33 199.62
  Q 170.65 201.15 156.66 201.20
  Q 141.82 201.26 127.19 201.20
  Q 126.33 201.19 127.07 200.77
  Q 151.30 186.82 175.67 172.69
  Q 177.92 171.38 180.61 167.98
  Z" fill="#46ffc1"></path>
</svg>
