<svg viewBox="0.00 0.00 196.00 196.00" version="1.1" xmlns="http://www.w3.org/2000/svg">
<path d="M 96.90 42.33
  Q 122.65 68.07 148.70 94.11
  Q 154.95 100.37 158.80 102.15
  Q 168.77 106.78 179.54 100.36
  Q 179.85 100.18 179.23 100.94" stroke-linecap="butt" fill="none" stroke-width="2.00" stroke-opacity="0.553" stroke="#0c0c0c"></path>
<path d="M 96.90 42.33
  Q 122.65 68.07 148.70 94.11
  Q 154.95 100.37 158.80 102.15
  Q 168.77 106.78 179.54 100.36
  Q 179.85 100.18 179.23 100.94
  Q 148.30 131.69 117.45 162.54
  C 115.32 164.67 112.93 168.02 110.91 169.66
  C 103.13 175.96 92.35 175.92 84.27 170.35
  Q 82.52 169.14 76.11 162.73
  Q 44.77 131.40 13.37 100.12
  C 5.64 92.42 3.63 80.35 9.00 70.80
  Q 10.67 67.82 16.46 62.03
  Q 30.76 47.75 45.03 33.46
  Q 52.26 26.23 56.06 24.36
  C 63.21 20.84 72.42 21.34 79.28 25.69
  Q 81.70 27.22 86.03 31.55
  Q 91.34 36.86 96.90 42.33
  Z
  M 37.28 83.93
  A 8.97 8.97 0.0 0 0 28.31 74.96
  A 8.97 8.97 0.0 0 0 19.34 83.93
  A 8.97 8.97 0.0 0 0 28.31 92.90
  A 8.97 8.97 0.0 0 0 37.28 83.93
  Z" fill="#0d0d0d"></path>
<path d="M 179.23 100.94
  Q 179.85 100.18 179.54 100.36
  Q 168.77 106.78 158.80 102.15
  Q 154.95 100.37 148.70 94.11
  Q 122.65 68.07 96.90 42.33
  Q 103.31 35.66 109.99 29.27
  Q 113.74 25.70 117.16 24.23
  Q 127.85 19.66 137.74 24.53
  Q 141.86 26.56 148.65 33.29
  Q 164.16 48.69 179.63 64.11
  Q 185.51 69.98 187.08 73.44
  C 191.05 82.16 188.83 92.64 181.39 98.88
  Q 181.19 99.05 181.12 99.27
  Q 181.03 99.57 180.73 99.64
  Q 180.14 99.78 180.10 100.46
  Q 180.07 100.91 179.61 100.93
  L 179.23 100.94
  Z" fill-opacity="0.102" fill="#000000"></path>
</svg>
