<svg viewBox="0.00 0.00 108.00 120.00" version="1.1" xmlns="http://www.w3.org/2000/svg">
<g stroke-linecap="butt" fill="none" stroke-width="2.00">
<path d="M 96.95 86.29
  Q 97.38 83.97 98.23 81.80
  C 99.91 77.57 99.68 73.60 99.20 69.22" stroke-opacity="0.925" stroke="#32a8ce"></path>
<path d="M 99.20 69.22
  C 99.32 63.55 99.28 58.53 99.56 52.27
  Q 99.95 43.60 99.04 34.98
  Q 98.41 28.94 96.28 25.44
  Q 92.96 19.97 86.85 17.11
  C 86.09 16.75 85.29 16.94 84.45 16.47
  Q 83.05 15.69 82.97 15.66
  Q 68.51 10.14 53.73 5.20" stroke-opacity="0.925" stroke="#39b2d5"></path>
<path d="M 99.20 69.22
  L 98.66 65.14
  Q 98.66 65.12 98.65 65.12
  Q 98.64 65.12 98.63 65.12
  Q 98.61 65.13 98.61 65.15
  Q 98.67 66.64 98.60 68.16
  Q 98.58 68.72 98.15 69.10
  L 94.75 72.13
  Q 94.31 72.52 93.75 72.64
  Q 93.08 72.77 92.51 73.17
  Q 92.20 73.39 91.82 73.35
  Q 91.27 73.29 91.14 73.85
  Q 91.03 74.33 90.54 74.34
  L 86.51 74.42
  Q 86.05 74.43 85.64 74.22
  Q 84.33 73.52 82.83 73.39
  Q 82.31 73.34 82.09 72.87
  Q 81.92 72.48 81.63 72.20
  Q 81.36 71.94 80.99 71.86
  C 79.54 71.54 78.58 70.29 77.58 69.62
  Q 77.19 69.36 76.93 68.96
  Q 76.32 68.03 76.11 66.93
  Q 76.01 66.44 75.62 66.12
  Q 75.40 65.93 75.16 65.79
  Q 74.75 65.55 74.59 65.10
  L 72.66 59.40
  Q 72.55 59.08 72.33 58.83
  Q 71.92 58.36 72.30 57.73
  Q 72.43 57.52 72.31 57.31
  Q 72.18 57.09 72.00 57.12
  Q 71.52 57.22 71.32 56.77
  L 69.04 51.69" stroke="#33b2dc"></path>
<path d="M 40.59 34.56
  Q 38.55 35.17 36.58 34.69
  C 34.14 34.10 31.90 34.70 29.55 33.78
  C 26.32 32.52 23.09 31.18 19.68 30.50
  Q 17.64 30.09 18.40 28.34" stroke-opacity="0.925" stroke="#515dcd"></path>
<path d="M 44.46 35.94
  Q 39.98 36.01 35.86 35.91
  C 34.40 35.88 32.97 35.33 31.45 35.16
  A 1.38 1.35 -23.3 0 1 30.80 34.91
  Q 29.76 34.17 28.25 34.21
  Q 27.91 34.21 27.82 33.95
  Q 27.69 33.54 27.25 33.57
  L 21.20 34.04
  Q 20.63 34.09 20.16 34.40
  Q 19.16 35.07 17.97 35.26
  Q 17.55 35.33 17.22 35.60
  Q 11.03 40.64 9.63 46.25
  Q 8.39 51.22 9.42 60.75
  C 9.79 64.20 9.78 67.72 10.81 71.09
  Q 11.36 72.90 12.05 75.30
  Q 12.37 76.42 12.44 75.26
  Q 12.45 75.08 12.16 74.79
  Q 12.00 74.62 11.93 74.40
  Q 11.79 74.02 12.04 73.74
  A 0.14 0.14 0.0 0 1 12.28 73.78
  Q 16.35 84.07 25.08 90.42
  Q 27.84 92.42 31.97 94.95
  C 33.49 95.87 35.20 96.27 36.86 96.99
  C 41.12 98.85 46.85 100.78 51.87 100.22
  Q 52.33 100.17 52.74 100.37
  Q 53.98 100.99 55.28 100.24
  Q 57.83 98.78 60.51 97.62
  Q 60.94 97.43 61.04 96.99
  L 61.61 94.40" stroke="#535fd8"></path>
<path d="M 61.61 94.40
  Q 62.48 101.40 60.54 107.55
  Q 60.40 108.00 60.01 108.28
  Q 59.47 108.68 59.62 109.51
  Q 59.73 110.14 60.26 110.38" stroke-opacity="0.925" stroke="#515dcd"></path>
<path d="M 50.97 38.30
  Q 50.69 39.08 51.25 39.12
  Q 52.32 39.21 52.23 40.28" stroke="#535fd8"></path>
<path d="M 52.23 40.28
  Q 51.22 39.98 50.78 39.16
  A 1.02 1.02 0.0 0 0 50.08 38.65
  Q 49.03 38.45 48.04 38.18
  C 46.24 37.69 45.06 36.68 42.82 36.88
  Q 42.65 36.89 42.52 36.77
  Q 42.37 36.61 42.37 36.40
  A 0.21 0.21 0.0 0 0 42.03 36.23
  Q 40.21 37.62 38.02 37.09
  A 0.79 0.77 28.8 0 0 37.27 37.30
  Q 36.19 38.43 34.74 38.17
  Q 28.61 37.03 23.57 39.69
  C 22.29 40.36 20.86 40.27 19.84 41.87
  Q 19.54 42.34 18.99 42.31
  Q 18.44 42.28 18.61 42.94
  Q 18.79 43.61 18.12 43.80
  Q 17.55 43.96 17.47 44.47
  Q 17.40 44.98 17.36 45.08
  Q 15.21 51.63 16.55 58.36
  C 16.82 59.75 16.60 61.83 17.10 63.01
  Q 18.45 66.15 19.83 69.30
  C 20.86 71.66 22.80 73.14 24.16 75.42
  Q 24.41 75.83 24.81 76.11
  Q 25.69 76.74 26.37 77.58
  C 29.85 81.93 34.28 84.15 39.02 86.81
  Q 42.92 88.99 45.84 89.55
  C 50.84 90.52 57.50 90.52 59.79 84.89
  Q 59.88 84.65 60.14 84.63
  Q 60.30 84.61 60.44 84.54
  Q 60.65 84.42 60.64 84.18
  Q 60.51 80.58 61.35 77.11
  Q 61.37 77.01 61.27 77.00
  Q 61.12 77.00 60.95 77.01
  Q 60.74 77.02 60.75 76.80
  Q 61.12 69.65 61.35 62.51
  Q 61.37 61.67 61.50 60.83
  C 61.82 58.60 61.14 55.62 61.06 53.29
  C 61.02 52.22 60.56 51.48 60.13 50.54
  Q 59.96 50.15 59.67 49.84
  Q 58.89 49.02 58.51 47.97
  Q 58.33 47.48 57.89 47.20
  Q 56.59 46.34 55.76 45.00
  Q 55.70 44.90 55.81 44.87
  Q 55.96 44.83 56.12 44.71" stroke="#5b67df"></path>
<path d="M 56.12 44.71
  C 58.32 46.11 58.97 48.30 60.72 49.67
  Q 61.10 49.97 61.28 50.43
  C 63.33 55.70 61.93 62.57 61.88 66.96
  Q 61.79 75.83 61.88 84.70" stroke="#535fd8"></path>
<path d="M 61.88 84.70
  L 61.61 94.40" stroke-opacity="0.925" stroke="#5561d1"></path>
<path d="M 52.23 40.28
  Q 54.50 41.13 55.06 43.42
  Q 55.17 43.86 55.56 44.10
  Q 55.91 44.31 56.12 44.71" stroke="#5863dc"></path>
<path d="M 58.08 41.88
  L 57.61 42.30
  Q 57.11 42.75 57.55 43.25
  L 60.93 47.19
  Q 61.01 47.29 61.13 47.32
  Q 61.26 47.36 61.37 47.43
  Q 61.56 47.55 61.67 47.93
  C 62.21 49.77 63.09 51.22 63.30 53.09
  Q 63.87 58.29 63.45 63.47
  Q 63.41 63.95 63.11 64.33
  Q 62.57 65.05 62.51 66.01
  C 62.15 72.22 62.64 78.54 61.88 84.70" stroke-opacity="0.925" stroke="#515dcd"></path>
<path d="M 66.25 22.05
  Q 65.71 22.97 64.68 22.86
  A 0.66 0.65 11.5 0 0 63.99 23.31
  Q 63.80 23.92 63.25 24.18
  Q 62.83 24.39 62.75 24.85
  Q 62.14 28.60 63.60 32.03
  A 1.32 1.27 8.4 0 0 64.00 32.55
  Q 64.66 33.06 64.91 33.82
  A 2.39 2.30 -76.7 0 0 65.40 34.65
  Q 66.44 35.76 67.39 36.92
  Q 67.59 37.16 69.02 39.49
  Q 69.99 41.08 72.06 43.06
  C 74.25 45.15 77.12 49.73 79.97 52.66
  C 82.43 55.18 83.50 56.05 86.89 56.90
  Q 87.37 57.02 87.83 56.84
  Q 88.97 56.39 90.18 56.78
  Q 90.64 56.92 91.02 56.61
  Q 92.18 55.62 92.73 54.18
  Q 92.91 53.71 93.23 53.33
  C 94.83 51.42 96.02 48.50 97.11 46.00
  C 97.76 44.48 97.83 42.60 98.23 40.74
  Q 98.94 37.42 98.27 32.25
  Q 98.15 31.34 96.51 28.30
  Q 96.43 28.14 96.24 28.14
  Q 96.10 28.13 95.94 28.14
  Q 95.59 28.16 95.41 27.86
  C 93.07 23.82 88.49 23.09 84.51 21.98
  C 81.04 21.01 77.52 21.14 73.83 20.89
  C 71.20 20.71 68.96 19.65 65.90 21.06
  Q 65.30 21.34 65.82 21.43
  Q 65.97 21.45 66.12 21.53
  Q 66.45 21.72 66.25 22.05" stroke="#42c6e8"></path>
<path d="M 55.46 47.58
  C 54.22 46.46 51.19 46.40 49.58 46.26
  Q 48.00 46.13 45.43 45.77
  Q 39.69 44.97 33.97 46.12
  C 31.45 46.63 31.13 49.11 29.71 50.78
  Q 29.44 51.09 29.52 51.49
  L 31.03 59.44
  Q 31.13 59.92 31.59 60.03
  Q 31.99 60.13 32.17 60.46
  C 36.05 67.45 43.25 74.34 51.59 75.13
  A 1.74 1.68 33.0 0 0 52.51 74.95
  C 53.96 74.20 55.00 74.06 56.03 72.70
  C 57.99 70.10 58.84 67.83 60.12 65.19
  Q 60.78 63.80 60.85 62.57
  Q 61.27 55.20 60.46 52.34
  Q 59.67 49.55 56.14 48.12
  A 1.10 0.08 42.4 0 1 55.46 47.58" stroke="#6671e8"></path>
</g>
<path d="M 96.95 86.29
  Q 97.38 83.97 98.23 81.80
  C 99.91 77.57 99.68 73.60 99.20 69.22
  C 99.32 63.55 99.28 58.53 99.56 52.27
  Q 99.95 43.60 99.04 34.98
  Q 98.41 28.94 96.28 25.44
  Q 92.96 19.97 86.85 17.11
  C 86.09 16.75 85.29 16.94 84.45 16.47
  Q 83.05 15.69 82.97 15.66
  Q 68.51 10.14 53.73 5.20
  Q 58.80 2.70 63.29 4.39
  Q 73.14 8.09 82.99 11.80
  Q 93.46 15.75 96.78 18.70
  C 104.21 25.30 103.52 32.35 103.66 43.51
  Q 103.95 66.56 103.88 75.00
  Q 103.82 82.25 96.95 86.29
  Z" fill-opacity="0.851" fill="#38a7c5"></path>
<path d="M 53.73 5.20
  Q 68.51 10.14 82.97 15.66
  Q 83.05 15.69 84.45 16.47
  C 85.29 16.94 86.09 16.75 86.85 17.11
  Q 92.96 19.97 96.28 25.44
  Q 98.41 28.94 99.04 34.98
  Q 99.95 43.60 99.56 52.27
  C 99.28 58.53 99.32 63.55 99.20 69.22
  L 98.66 65.14
  Q 98.66 65.12 98.65 65.12
  Q 98.64 65.12 98.63 65.12
  Q 98.61 65.13 98.61 65.15
  Q 98.67 66.64 98.60 68.16
  Q 98.58 68.72 98.15 69.10
  L 94.75 72.13
  Q 94.31 72.52 93.75 72.64
  Q 93.08 72.77 92.51 73.17
  Q 92.20 73.39 91.82 73.35
  Q 91.27 73.29 91.14 73.85
  Q 91.03 74.33 90.54 74.34
  L 86.51 74.42
  Q 86.05 74.43 85.64 74.22
  Q 84.33 73.52 82.83 73.39
  Q 82.31 73.34 82.09 72.87
  Q 81.92 72.48 81.63 72.20
  Q 81.36 71.94 80.99 71.86
  C 79.54 71.54 78.58 70.29 77.58 69.62
  Q 77.19 69.36 76.93 68.96
  Q 76.32 68.03 76.11 66.93
  Q 76.01 66.44 75.62 66.12
  Q 75.40 65.93 75.16 65.79
  Q 74.75 65.55 74.59 65.10
  L 72.66 59.40
  Q 72.55 59.08 72.33 58.83
  Q 71.92 58.36 72.30 57.73
  Q 72.43 57.52 72.31 57.31
  Q 72.18 57.09 72.00 57.12
  Q 71.52 57.22 71.32 56.77
  L 69.04 51.69
  C 65.07 37.72 54.76 35.42 42.45 30.63
  Q 41.18 30.13 41.16 28.77
  C 41.06 21.39 39.97 13.98 46.59 8.93
  C 48.49 7.49 51.36 6.45 53.73 5.20
  Z
  M 66.25 22.05
  Q 65.71 22.97 64.68 22.86
  A 0.66 0.65 11.5 0 0 63.99 23.31
  Q 63.80 23.92 63.25 24.18
  Q 62.83 24.39 62.75 24.85
  Q 62.14 28.60 63.60 32.03
  A 1.32 1.27 8.4 0 0 64.00 32.55
  Q 64.66 33.06 64.91 33.82
  A 2.39 2.30 -76.7 0 0 65.40 34.65
  Q 66.44 35.76 67.39 36.92
  Q 67.59 37.16 69.02 39.49
  Q 69.99 41.08 72.06 43.06
  C 74.25 45.15 77.12 49.73 79.97 52.66
  C 82.43 55.18 83.50 56.05 86.89 56.90
  Q 87.37 57.02 87.83 56.84
  Q 88.97 56.39 90.18 56.78
  Q 90.64 56.92 91.02 56.61
  Q 92.18 55.62 92.73 54.18
  Q 92.91 53.71 93.23 53.33
  C 94.83 51.42 96.02 48.50 97.11 46.00
  C 97.76 44.48 97.83 42.60 98.23 40.74
  Q 98.94 37.42 98.27 32.25
  Q 98.15 31.34 96.51 28.30
  Q 96.43 28.14 96.24 28.14
  Q 96.10 28.13 95.94 28.14
  Q 95.59 28.16 95.41 27.86
  C 93.07 23.82 88.49 23.09 84.51 21.98
  C 81.04 21.01 77.52 21.14 73.83 20.89
  C 71.20 20.71 68.96 19.65 65.90 21.06
  Q 65.30 21.34 65.82 21.43
  Q 65.97 21.45 66.12 21.53
  Q 66.45 21.72 66.25 22.05
  Z" fill="#3abce2"></path>
<path d="M 66.12 21.53
  Q 65.97 21.45 65.82 21.43
  Q 65.30 21.34 65.90 21.06
  C 68.96 19.65 71.20 20.71 73.83 20.89
  C 77.52 21.14 81.04 21.01 84.51 21.98
  C 88.49 23.09 93.07 23.82 95.41 27.86
  Q 95.59 28.16 95.94 28.14
  Q 96.10 28.13 96.24 28.14
  Q 96.43 28.14 96.51 28.30
  Q 98.15 31.34 98.27 32.25
  Q 98.94 37.42 98.23 40.74
  C 97.83 42.60 97.76 44.48 97.11 46.00
  C 96.02 48.50 94.83 51.42 93.23 53.33
  Q 92.91 53.71 92.73 54.18
  Q 92.18 55.62 91.02 56.61
  Q 90.64 56.92 90.18 56.78
  Q 88.97 56.39 87.83 56.84
  Q 87.37 57.02 86.89 56.90
  C 83.50 56.05 82.43 55.18 79.97 52.66
  C 77.12 49.73 74.25 45.15 72.06 43.06
  Q 69.99 41.08 69.02 39.49
  Q 67.59 37.16 67.39 36.92
  Q 66.44 35.76 65.40 34.65
  A 2.39 2.30 -76.7 0 1 64.91 33.82
  Q 64.66 33.06 64.00 32.55
  A 1.32 1.27 8.4 0 1 63.60 32.03
  Q 62.14 28.60 62.75 24.85
  Q 62.83 24.39 63.25 24.18
  Q 63.80 23.92 63.99 23.31
  A 0.66 0.65 11.5 0 1 64.68 22.86
  Q 65.71 22.97 66.25 22.05
  Q 66.45 21.72 66.12 21.53
  Z" fill="#49cfed"></path>
<path d="M 40.59 34.56
  Q 38.55 35.17 36.58 34.69
  C 34.14 34.10 31.90 34.70 29.55 33.78
  C 26.32 32.52 23.09 31.18 19.68 30.50
  Q 17.64 30.09 18.40 28.34
  Q 28.63 27.65 40.59 34.56
  Z" fill-opacity="0.851" fill="#5460c5"></path>
<path d="M 18.40 28.34
  Q 17.64 30.09 19.68 30.50
  C 23.09 31.18 26.32 32.52 29.55 33.78
  C 31.90 34.70 34.14 34.10 36.58 34.69
  Q 38.55 35.17 40.59 34.56
  Q 41.96 34.29 44.46 35.94
  Q 39.98 36.01 35.86 35.91
  C 34.40 35.88 32.97 35.33 31.45 35.16
  A 1.38 1.35 -23.3 0 1 30.80 34.91
  Q 29.76 34.17 28.25 34.21
  Q 27.91 34.21 27.82 33.95
  Q 27.69 33.54 27.25 33.57
  L 21.20 34.04
  Q 20.63 34.09 20.16 34.40
  Q 19.16 35.07 17.97 35.26
  Q 17.55 35.33 17.22 35.60
  Q 11.03 40.64 9.63 46.25
  Q 8.39 51.22 9.42 60.75
  C 9.79 64.20 9.78 67.72 10.81 71.09
  Q 11.36 72.90 12.05 75.30
  Q 12.37 76.42 12.44 75.26
  Q 12.45 75.08 12.16 74.79
  Q 12.00 74.62 11.93 74.40
  Q 11.79 74.02 12.04 73.74
  A 0.14 0.14 0.0 0 1 12.28 73.78
  Q 16.35 84.07 25.08 90.42
  Q 27.84 92.42 31.97 94.95
  C 33.49 95.87 35.20 96.27 36.86 96.99
  C 41.12 98.85 46.85 100.78 51.87 100.22
  Q 52.33 100.17 52.74 100.37
  Q 53.98 100.99 55.28 100.24
  Q 57.83 98.78 60.51 97.62
  Q 60.94 97.43 61.04 96.99
  L 61.61 94.40
  Q 62.48 101.40 60.54 107.55
  Q 60.40 108.00 60.01 108.28
  Q 59.47 108.68 59.62 109.51
  Q 59.73 110.14 60.26 110.38
  C 52.83 114.04 49.76 116.73 41.03 113.34
  Q 23.02 106.35 5.32 99.47
  A 2.08 2.06 10.9 0 1 4.01 97.55
  Q 3.99 71.00 4.00 44.00
  C 4.00 37.71 7.85 33.99 13.21 31.28
  Q 15.61 30.07 18.40 28.34
  Z" fill="#4f5bd4"></path>
<path d="M 44.46 35.94
  L 50.97 38.30
  Q 50.69 39.08 51.25 39.12
  Q 52.32 39.21 52.23 40.28
  Q 51.22 39.98 50.78 39.16
  A 1.02 1.02 0.0 0 0 50.08 38.65
  Q 49.03 38.45 48.04 38.18
  C 46.24 37.69 45.06 36.68 42.82 36.88
  Q 42.65 36.89 42.52 36.77
  Q 42.37 36.61 42.37 36.40
  A 0.21 0.21 0.0 0 0 42.03 36.23
  Q 40.21 37.62 38.02 37.09
  A 0.79 0.77 28.8 0 0 37.27 37.30
  Q 36.19 38.43 34.74 38.17
  Q 28.61 37.03 23.57 39.69
  C 22.29 40.36 20.86 40.27 19.84 41.87
  Q 19.54 42.34 18.99 42.31
  Q 18.44 42.28 18.61 42.94
  Q 18.79 43.61 18.12 43.80
  Q 17.55 43.96 17.47 44.47
  Q 17.40 44.98 17.36 45.08
  Q 15.21 51.63 16.55 58.36
  C 16.82 59.75 16.60 61.83 17.10 63.01
  Q 18.45 66.15 19.83 69.30
  C 20.86 71.66 22.80 73.14 24.16 75.42
  Q 24.41 75.83 24.81 76.11
  Q 25.69 76.74 26.37 77.58
  C 29.85 81.93 34.28 84.15 39.02 86.81
  Q 42.92 88.99 45.84 89.55
  C 50.84 90.52 57.50 90.52 59.79 84.89
  Q 59.88 84.65 60.14 84.63
  Q 60.30 84.61 60.44 84.54
  Q 60.65 84.42 60.64 84.18
  Q 60.51 80.58 61.35 77.11
  Q 61.37 77.01 61.27 77.00
  Q 61.12 77.00 60.95 77.01
  Q 60.74 77.02 60.75 76.80
  Q 61.12 69.65 61.35 62.51
  Q 61.37 61.67 61.50 60.83
  C 61.82 58.60 61.14 55.62 61.06 53.29
  C 61.02 52.22 60.56 51.48 60.13 50.54
  Q 59.96 50.15 59.67 49.84
  Q 58.89 49.02 58.51 47.97
  Q 58.33 47.48 57.89 47.20
  Q 56.59 46.34 55.76 45.00
  Q 55.70 44.90 55.81 44.87
  Q 55.96 44.83 56.12 44.71
  C 58.32 46.11 58.97 48.30 60.72 49.67
  Q 61.10 49.97 61.28 50.43
  C 63.33 55.70 61.93 62.57 61.88 66.96
  Q 61.79 75.83 61.88 84.70
  L 61.61 94.40
  L 61.04 96.99
  Q 60.94 97.43 60.51 97.62
  Q 57.83 98.78 55.28 100.24
  Q 53.98 100.99 52.74 100.37
  Q 52.33 100.17 51.87 100.22
  C 46.85 100.78 41.12 98.85 36.86 96.99
  C 35.20 96.27 33.49 95.87 31.97 94.95
  Q 27.84 92.42 25.08 90.42
  Q 16.35 84.07 12.28 73.78
  A 0.14 0.14 0.0 0 0 12.04 73.74
  Q 11.79 74.02 11.93 74.40
  Q 12.00 74.62 12.16 74.79
  Q 12.45 75.08 12.44 75.26
  Q 12.37 76.42 12.05 75.30
  Q 11.36 72.90 10.81 71.09
  C 9.78 67.72 9.79 64.20 9.42 60.75
  Q 8.39 51.22 9.63 46.25
  Q 11.03 40.64 17.22 35.60
  Q 17.55 35.33 17.97 35.26
  Q 19.16 35.07 20.16 34.40
  Q 20.63 34.09 21.20 34.04
  L 27.25 33.57
  Q 27.69 33.54 27.82 33.95
  Q 27.91 34.21 28.25 34.21
  Q 29.76 34.17 30.80 34.91
  A 1.38 1.35 -23.3 0 0 31.45 35.16
  C 32.97 35.33 34.40 35.88 35.86 35.91
  Q 39.98 36.01 44.46 35.94
  Z" fill="#5662db"></path>
<path d="M 52.23 40.28
  Q 54.50 41.13 55.06 43.42
  Q 55.17 43.86 55.56 44.10
  Q 55.91 44.31 56.12 44.71
  Q 55.96 44.83 55.81 44.87
  Q 55.70 44.90 55.76 45.00
  Q 56.59 46.34 57.89 47.20
  Q 58.33 47.48 58.51 47.97
  Q 58.89 49.02 59.67 49.84
  Q 59.96 50.15 60.13 50.54
  C 60.56 51.48 61.02 52.22 61.06 53.29
  C 61.14 55.62 61.82 58.60 61.50 60.83
  Q 61.37 61.67 61.35 62.51
  Q 61.12 69.65 60.75 76.80
  Q 60.74 77.02 60.95 77.01
  Q 61.12 77.00 61.27 77.00
  Q 61.37 77.01 61.35 77.11
  Q 60.51 80.58 60.64 84.18
  Q 60.65 84.42 60.44 84.54
  Q 60.30 84.61 60.14 84.63
  Q 59.88 84.65 59.79 84.89
  C 57.50 90.52 50.84 90.52 45.84 89.55
  Q 42.92 88.99 39.02 86.81
  C 34.28 84.15 29.85 81.93 26.37 77.58
  Q 25.69 76.74 24.81 76.11
  Q 24.41 75.83 24.16 75.42
  C 22.80 73.14 20.86 71.66 19.83 69.30
  Q 18.45 66.15 17.10 63.01
  C 16.60 61.83 16.82 59.75 16.55 58.36
  Q 15.21 51.63 17.36 45.08
  Q 17.40 44.98 17.47 44.47
  Q 17.55 43.96 18.12 43.80
  Q 18.79 43.61 18.61 42.94
  Q 18.44 42.28 18.99 42.31
  Q 19.54 42.34 19.84 41.87
  C 20.86 40.27 22.29 40.36 23.57 39.69
  Q 28.61 37.03 34.74 38.17
  Q 36.19 38.43 37.27 37.30
  A 0.79 0.77 28.8 0 1 38.02 37.09
  Q 40.21 37.62 42.03 36.23
  A 0.21 0.21 0.0 0 1 42.37 36.40
  Q 42.37 36.61 42.52 36.77
  Q 42.65 36.89 42.82 36.88
  C 45.06 36.68 46.24 37.69 48.04 38.18
  Q 49.03 38.45 50.08 38.65
  A 1.02 1.02 0.0 0 1 50.78 39.16
  Q 51.22 39.98 52.23 40.28
  Z
  M 55.46 47.58
  C 54.22 46.46 51.19 46.40 49.58 46.26
  Q 48.00 46.13 45.43 45.77
  Q 39.69 44.97 33.97 46.12
  C 31.45 46.63 31.13 49.11 29.71 50.78
  Q 29.44 51.09 29.52 51.49
  L 31.03 59.44
  Q 31.13 59.92 31.59 60.03
  Q 31.99 60.13 32.17 60.46
  C 36.05 67.45 43.25 74.34 51.59 75.13
  A 1.74 1.68 33.0 0 0 52.51 74.95
  C 53.96 74.20 55.00 74.06 56.03 72.70
  C 57.99 70.10 58.84 67.83 60.12 65.19
  Q 60.78 63.80 60.85 62.57
  Q 61.27 55.20 60.46 52.34
  Q 59.67 49.55 56.14 48.12
  A 1.10 0.08 42.4 0 1 55.46 47.58
  Z" fill="#606be3"></path>
<path d="M 50.97 38.30
  L 58.08 41.88
  L 57.61 42.30
  Q 57.11 42.75 57.55 43.25
  L 60.93 47.19
  Q 61.01 47.29 61.13 47.32
  Q 61.26 47.36 61.37 47.43
  Q 61.56 47.55 61.67 47.93
  C 62.21 49.77 63.09 51.22 63.30 53.09
  Q 63.87 58.29 63.45 63.47
  Q 63.41 63.95 63.11 64.33
  Q 62.57 65.05 62.51 66.01
  C 62.15 72.22 62.64 78.54 61.88 84.70
  Q 61.79 75.83 61.88 66.96
  C 61.93 62.57 63.33 55.70 61.28 50.43
  Q 61.10 49.97 60.72 49.67
  C 58.97 48.30 58.32 46.11 56.12 44.71
  Q 55.91 44.31 55.56 44.10
  Q 55.17 43.86 55.06 43.42
  Q 54.50 41.13 52.23 40.28
  Q 52.32 39.21 51.25 39.12
  Q 50.69 39.08 50.97 38.30
  Z" fill="#4f5bd4"></path>
<path d="M 58.08 41.88
  Q 66.33 48.22 66.36 57.50
  Q 66.47 90.11 66.35 98.75
  Q 66.25 106.14 60.26 110.38
  Q 59.73 110.14 59.62 109.51
  Q 59.47 108.68 60.01 108.28
  Q 60.40 108.00 60.54 107.55
  Q 62.48 101.40 61.61 94.40
  L 61.88 84.70
  C 62.64 78.54 62.15 72.22 62.51 66.01
  Q 62.57 65.05 63.11 64.33
  Q 63.41 63.95 63.45 63.47
  Q 63.87 58.29 63.30 53.09
  C 63.09 51.22 62.21 49.77 61.67 47.93
  Q 61.56 47.55 61.37 47.43
  Q 61.26 47.36 61.13 47.32
  Q 61.01 47.29 60.93 47.19
  L 57.55 43.25
  Q 57.11 42.75 57.61 42.30
  L 58.08 41.88
  Z" fill-opacity="0.851" fill="#5460c5"></path>
<path d="M 56.14 48.12
  Q 59.67 49.55 60.46 52.34
  Q 61.27 55.20 60.85 62.57
  Q 60.78 63.80 60.12 65.19
  C 58.84 67.83 57.99 70.10 56.03 72.70
  C 55.00 74.06 53.96 74.20 52.51 74.95
  A 1.74 1.68 33.0 0 1 51.59 75.13
  C 43.25 74.34 36.05 67.45 32.17 60.46
  Q 31.99 60.13 31.59 60.03
  Q 31.13 59.92 31.03 59.44
  L 29.52 51.49
  Q 29.44 51.09 29.71 50.78
  C 31.13 49.11 31.45 46.63 33.97 46.12
  Q 39.69 44.97 45.43 45.77
  Q 48.00 46.13 49.58 46.26
  C 51.19 46.40 54.22 46.46 55.46 47.58
  A 1.10 0.08 42.4 0 0 56.14 48.12
  Z" fill="#6b76ec"></path>
<path d="M 69.04 51.69
  L 71.32 56.77
  Q 71.52 57.22 72.00 57.12
  Q 72.18 57.09 72.31 57.31
  Q 72.43 57.52 72.30 57.73
  Q 71.92 58.36 72.33 58.83
  Q 72.55 59.08 72.66 59.40
  L 74.59 65.10
  Q 74.75 65.55 75.16 65.79
  Q 75.40 65.93 75.62 66.12
  Q 76.01 66.44 76.11 66.93
  Q 76.32 68.03 76.93 68.96
  Q 77.19 69.36 77.58 69.62
  C 78.58 70.29 79.54 71.54 80.99 71.86
  Q 81.36 71.94 81.63 72.20
  Q 81.92 72.48 82.09 72.87
  Q 82.31 73.34 82.83 73.39
  Q 84.33 73.52 85.64 74.22
  Q 86.05 74.43 86.51 74.42
  L 90.54 74.34
  Q 91.03 74.33 91.14 73.85
  Q 91.27 73.29 91.82 73.35
  Q 92.20 73.39 92.51 73.17
  Q 93.08 72.77 93.75 72.64
  Q 94.31 72.52 94.75 72.13
  L 98.15 69.10
  Q 98.58 68.72 98.60 68.16
  Q 98.67 66.64 98.61 65.15
  Q 98.61 65.13 98.63 65.12
  Q 98.64 65.12 98.65 65.12
  Q 98.66 65.12 98.66 65.14
  L 99.20 69.22
  C 99.68 73.60 99.91 77.57 98.23 81.80
  Q 97.38 83.97 96.95 86.29
  Q 91.56 89.41 89.71 89.94
  C 83.30 91.77 77.68 88.49 71.81 86.27
  Q 70.07 85.62 70.01 83.75
  L 69.04 51.69
  Z" fill="#2ca8d6"></path>
</svg>
