<svg viewBox="0.00 0.00 1344.00 1008.00" version="1.1" xmlns="http://www.w3.org/2000/svg">
<g stroke-linecap="butt" fill="none" stroke-width="2.00">
<path d="M 612.31 530.99
  L 886.75 531.37
  Q 887.12 531.37 887.26 531.85
  L 888.62 536.51
  Q 888.70 536.80 888.98 536.69
  L 889.23 536.58
  Q 889.40 536.51 889.39 536.33
  L 889.26 531.77
  A 0.60 0.59 -0.9 0 1 889.86 531.16
  L 900.06 531.22
  A 1.51 1.40 -33.3 0 1 900.54 531.30
  L 902.66 532.02
  Q 903.29 532.23 903.28 531.57
  L 903.23 528.72
  Q 903.22 527.72 904.21 527.65
  C 913.09 527.02 913.83 524.00 917.48 517.00
  C 922.26 507.88 929.51 504.66 939.40 504.28
  C 946.73 504.00 953.08 504.10 958.49 509.02
  C 962.55 512.72 965.81 515.70 967.33 521.24
  C 968.57 525.76 969.58 530.27 969.01 534.96
  C 966.91 552.33 957.58 563.00 939.05 561.69
  C 937.47 561.58 936.44 560.63 934.67 560.55
  C 929.66 560.34 926.94 558.33 923.06 555.04
  C 919.05 551.63 916.60 546.29 914.58 541.55
  A 0.90 0.90 0.0 0 0 913.75 541.00
  L 901.00 541.00
  A 0.60 0.60 0.0 0 0 900.40 541.60
  Q 900.59 586.67 900.45 631.46
  C 900.40 645.96 898.91 658.17 896.75 672.24
  C 895.95 677.46 893.92 683.05 892.87 686.65
  C 887.91 703.54 881.19 719.25 872.34 733.54
  C 868.71 739.41 863.79 745.26 859.33 751.01
  C 856.85 754.21 853.81 756.97 851.02 760.04
  C 841.52 770.49 832.01 777.88 817.78 787.27
  C 812.23 790.94 806.45 793.51 800.45 796.24
  C 797.40 797.63 794.33 799.51 791.18 801.04
  C 785.79 803.68 779.16 804.78 773.27 807.07
  Q 769.47 808.55 759.77 809.45
  Q 759.30 809.49 759.19 809.04
  C 757.72 802.79 756.62 795.61 754.18 790.24
  C 749.83 780.69 742.50 772.92 732.77 768.79
  Q 727.19 766.42 723.50 765.77
  C 702.75 762.14 680.89 771.83 674.57 792.67
  C 672.16 800.60 671.38 806.73 673.53 814.42
  C 675.33 820.85 675.99 823.20 675.96 828.75
  Q 675.79 860.35 676.00 944.00
  Q 676.01 946.06 675.99 947.69
  Q 675.98 948.53 676.82 948.53
  Q 698.50 948.55 719.75 948.49
  Q 730.51 948.46 739.70 947.43
  C 762.41 944.87 783.49 939.04 805.96 930.05
  C 810.01 928.43 814.64 926.26 819.03 924.46
  C 826.95 921.22 834.44 916.20 841.87 913.12
  Q 849.35 910.02 855.18 906.10
  Q 863.64 900.40 863.69 900.37
  C 868.97 897.21 874.86 894.52 879.56 890.44
  C 884.14 886.47 889.12 883.85 893.67 880.05
  C 899.73 874.99 907.49 869.79 913.52 863.30
  Q 916.01 860.62 918.82 858.61
  C 925.62 853.76 931.26 846.58 936.96 840.47
  C 939.43 837.82 943.95 834.20 946.74 830.18
  C 952.23 822.27 958.51 815.05 964.60 807.59
  C 968.06 803.35 970.66 798.25 973.96 793.78
  C 976.40 790.48 978.08 787.28 979.91 783.80
  C 981.73 780.34 984.39 777.06 986.36 773.39
  C 991.93 762.98 996.59 752.18 1002.13 741.73
  C 1004.58 737.08 1005.63 731.97 1007.74 726.74
  C 1009.11 723.37 1009.93 719.77 1011.20 716.46
  C 1013.47 710.55 1014.86 704.03 1016.56 697.91
  C 1019.42 687.57 1021.12 677.11 1023.10 666.65
  C 1025.33 654.83 1026.46 641.45 1026.51 631.00
  Q 1026.72 584.87 1026.16 415.25
  Q 1026.09 392.50 1025.91 369.75
  Q 1025.84 360.03 1023.15 339.09
  C 1022.35 332.93 1020.65 326.32 1019.53 319.87
  C 1018.27 312.65 1016.03 306.10 1014.15 298.38
  C 1010.68 284.14 1005.32 272.01 998.98 257.20
  C 996.24 250.81 992.61 245.17 989.86 238.64
  C 986.58 230.85 981.62 224.50 977.52 217.40
  Q 974.69 212.50 971.74 208.21
  C 968.80 203.95 966.22 199.12 962.88 195.19
  C 960.17 192.01 957.85 189.39 955.29 185.65
  Q 951.95 180.77 947.45 175.78
  C 939.99 167.49 933.24 159.80 925.50 153.25
  C 919.96 148.57 914.69 141.36 910.30 138.16
  Q 896.34 128.01 883.61 116.37
  C 866.48 100.71 845.92 89.40 824.36 79.84
  Q 781.69 60.92 736.41 49.53
  Q 735.11 49.21 733.75 49.20
  Q 578.13 49.00 422.41 48.97
  A 0.43 0.43 0.0 0 0 421.98 49.40
  Q 422.00 85.37 422.12 121.50
  Q 422.19 144.03 439.48 158.04
  Q 455.23 170.80 474.51 171.93
  Q 489.38 172.79 512.68 172.47
  C 517.46 172.40 522.18 172.99 526.92 173.42
  C 541.20 174.72 555.75 178.54 569.48 182.59
  C 577.17 184.86 584.61 189.10 592.02 192.24
  C 600.23 195.72 607.48 201.11 615.08 205.70
  C 618.67 207.86 621.80 210.94 625.43 213.39
  C 629.57 216.19 634.02 220.44 637.40 223.94
  C 642.05 228.76 646.93 233.35 651.01 238.50
  Q 660.67 250.68 664.69 257.31
  Q 671.32 268.24 680.17 289.04
  C 682.12 293.64 682.89 300.23 685.05 305.73
  C 687.15 311.11 687.58 316.55 688.50 322.00
  Q 689.32 326.80 687.68 334.16
  C 686.96 337.41 687.06 340.43 686.67 343.69
  Q 686.14 348.08 686.25 350.85
  C 686.70 361.82 688.06 371.35 693.28 380.92
  C 695.49 384.98 698.98 388.88 701.96 392.80
  C 706.38 398.61 712.09 401.70 718.02 405.39
  C 727.85 411.50 737.13 413.13 748.01 414.36
  Q 750.98 414.70 753.51 414.46
  C 763.54 413.53 771.18 412.87 780.12 408.02
  C 785.36 405.17 790.81 402.87 795.15 398.94
  C 803.63 391.24 809.84 380.94 814.41 370.23
  Q 818.08 361.63 820.04 358.02
  C 825.10 348.73 830.37 341.56 835.18 332.96
  Q 836.02 331.46 834.49 330.69
  Q 827.55 327.17 820.88 322.19
  C 814.92 317.75 811.54 312.19 807.73 305.78
  C 803.00 297.83 800.14 283.68 802.16 275.43
  C 803.65 269.37 804.72 262.73 807.57 257.55
  Q 812.29 248.93 820.32 243.12
  Q 821.55 242.23 824.28 239.92
  C 828.25 236.55 835.99 232.79 841.10 231.91
  Q 851.01 230.20 855.50 230.56
  Q 865.16 231.35 867.91 232.33
  C 877.08 235.64 885.17 240.68 891.51 248.26
  C 895.65 253.21 899.76 258.20 901.64 264.51
  Q 903.12 269.44 904.19 274.48
  C 904.54 276.11 904.40 277.88 904.67 279.61
  C 905.34 283.93 904.15 290.66 903.03 294.82
  C 898.42 312.01 885.80 324.80 869.57 331.46
  Q 867.86 332.15 868.81 333.74
  C 873.95 342.37 877.90 349.21 884.26 359.60
  C 890.79 370.26 896.45 382.78 900.12 394.79
  C 900.90 397.33 900.87 399.73 900.86 402.36
  Q 900.83 464.44 900.42 526.50
  A 0.52 0.52 0.0 0 1 899.92 527.02
  C 896.45 527.16 892.79 526.42 889.69 526.42
  C 866.30 526.42 842.90 526.07 819.50 526.04
  Q 715.32 525.89 611.44 525.93
  Q 610.74 525.93 610.66 525.24
  C 608.19 504.14 593.03 493.80 574.26 488.45
  C 561.96 484.95 548.16 487.93 536.49 492.51
  C 528.06 495.81 519.68 499.05 511.12 502.00
  Q 506.56 503.57 502.27 505.81
  C 497.88 508.10 493.66 512.03 489.17 515.03
  C 482.83 519.27 478.41 523.25 473.11 527.86
  C 467.36 532.86 462.57 538.96 457.45 544.62
  Q 454.39 548.00 451.94 552.09
  C 447.90 558.82 442.84 565.29 439.86 572.48
  C 437.16 579.01 433.97 585.62 432.38 592.60
  C 431.48 596.54 429.44 600.60 428.86 605.01
  Q 427.30 616.83 427.30 628.75
  Q 427.37 788.40 427.09 947.82
  A 0.62 0.62 0.0 0 0 427.72 948.44
  L 496.74 948.27
  Q 497.18 948.27 497.18 947.82
  Q 497.20 795.48 497.15 643.39
  C 497.15 627.77 504.84 608.82 516.15 597.48
  C 519.09 594.53 520.18 591.40 523.89 588.94
  C 534.66 581.80 545.11 576.48 558.35 576.32
  C 569.00 576.19 584.98 576.61 593.13 567.89
  C 595.50 565.36 598.74 563.71 600.86 561.65
  C 603.76 558.84 605.12 556.41 607.16 552.36
  C 610.50 545.74 612.07 538.97 611.80 531.52
  A 0.51 0.51 0.0 0 1 612.31 530.99" stroke="#7f7f7f"></path>
<path d="M 630.08 720.87
  A 0.34 0.33 43.0 0 1 629.57 720.88
  C 624.57 715.19 619.69 709.24 612.20 706.61
  Q 607.75 705.05 603.74 704.06
  C 599.21 702.94 593.89 703.09 589.51 703.47
  C 574.90 704.72 559.31 717.68 554.78 731.63
  Q 553.36 735.99 553.35 739.81
  Q 552.94 843.86 552.99 947.80
  Q 552.99 948.53 553.73 948.53
  L 619.98 948.51
  A 0.28 0.28 0.0 0 0 620.26 948.23
  Q 620.07 877.52 620.01 806.75
  Q 620.00 793.63 620.55 780.51
  Q 620.63 778.50 622.37 776.08
  Q 625.55 771.64 632.79 760.59
  C 635.84 755.92 638.64 749.17 637.66 743.71
  C 637.19 741.09 637.28 738.13 636.71 735.95
  Q 635.93 732.91 634.58 730.13
  Q 634.17 729.27 634.85 728.60
  Q 640.93 722.66 647.84 717.41
  Q 652.01 714.24 656.39 710.22
  Q 663.87 703.37 672.48 697.95
  C 675.09 696.31 677.40 694.20 679.90 692.34
  A 0.48 0.48 0.0 0 1 680.57 692.42
  C 687.60 701.15 700.07 706.25 710.71 706.53
  C 714.14 706.61 718.08 705.69 721.73 705.22
  Q 724.84 704.82 732.50 700.52
  Q 740.53 696.00 744.48 689.30
  C 750.92 678.39 752.73 667.46 749.44 655.41
  C 747.36 647.78 741.80 640.28 736.58 635.92
  C 726.44 627.44 711.55 625.59 698.87 629.31
  C 692.47 631.19 683.49 636.90 679.89 642.61
  C 677.55 646.32 675.08 649.87 673.94 654.05
  Q 669.89 668.92 675.20 683.67
  Q 675.38 684.19 674.93 684.50
  C 665.18 691.22 656.07 699.12 646.63 706.30
  C 642.54 709.42 638.37 713.61 633.89 716.96
  C 632.32 718.13 631.26 719.39 630.08 720.87" stroke="#7f7f7f"></path>
</g>
<path d="M 0.00 0.00
  L 1344.00 0.00
  L 1344.00 1008.00
  L 0.00 1008.00
  L 0.00 0.00
  Z
  M 612.31 530.99
  L 886.75 531.37
  Q 887.12 531.37 887.26 531.85
  L 888.62 536.51
  Q 888.70 536.80 888.98 536.69
  L 889.23 536.58
  Q 889.40 536.51 889.39 536.33
  L 889.26 531.77
  A 0.60 0.59 -0.9 0 1 889.86 531.16
  L 900.06 531.22
  A 1.51 1.40 -33.3 0 1 900.54 531.30
  L 902.66 532.02
  Q 903.29 532.23 903.28 531.57
  L 903.23 528.72
  Q 903.22 527.72 904.21 527.65
  C 913.09 527.02 913.83 524.00 917.48 517.00
  C 922.26 507.88 929.51 504.66 939.40 504.28
  C 946.73 504.00 953.08 504.10 958.49 509.02
  C 962.55 512.72 965.81 515.70 967.33 521.24
  C 968.57 525.76 969.58 530.27 969.01 534.96
  C 966.91 552.33 957.58 563.00 939.05 561.69
  C 937.47 561.58 936.44 560.63 934.67 560.55
  C 929.66 560.34 926.94 558.33 923.06 555.04
  C 919.05 551.63 916.60 546.29 914.58 541.55
  A 0.90 0.90 0.0 0 0 913.75 541.00
  L 901.00 541.00
  A 0.60 0.60 0.0 0 0 900.40 541.60
  Q 900.59 586.67 900.45 631.46
  C 900.40 645.96 898.91 658.17 896.75 672.24
  C 895.95 677.46 893.92 683.05 892.87 686.65
  C 887.91 703.54 881.19 719.25 872.34 733.54
  C 868.71 739.41 863.79 745.26 859.33 751.01
  C 856.85 754.21 853.81 756.97 851.02 760.04
  C 841.52 770.49 832.01 777.88 817.78 787.27
  C 812.23 790.94 806.45 793.51 800.45 796.24
  C 797.40 797.63 794.33 799.51 791.18 801.04
  C 785.79 803.68 779.16 804.78 773.27 807.07
  Q 769.47 808.55 759.77 809.45
  Q 759.30 809.49 759.19 809.04
  C 757.72 802.79 756.62 795.61 754.18 790.24
  C 749.83 780.69 742.50 772.92 732.77 768.79
  Q 727.19 766.42 723.50 765.77
  C 702.75 762.14 680.89 771.83 674.57 792.67
  C 672.16 800.60 671.38 806.73 673.53 814.42
  C 675.33 820.85 675.99 823.20 675.96 828.75
  Q 675.79 860.35 676.00 944.00
  Q 676.01 946.06 675.99 947.69
  Q 675.98 948.53 676.82 948.53
  Q 698.50 948.55 719.75 948.49
  Q 730.51 948.46 739.70 947.43
  C 762.41 944.87 783.49 939.04 805.96 930.05
  C 810.01 928.43 814.64 926.26 819.03 924.46
  C 826.95 921.22 834.44 916.20 841.87 913.12
  Q 849.35 910.02 855.18 906.10
  Q 863.64 900.40 863.69 900.37
  C 868.97 897.21 874.86 894.52 879.56 890.44
  C 884.14 886.47 889.12 883.85 893.67 880.05
  C 899.73 874.99 907.49 869.79 913.52 863.30
  Q 916.01 860.62 918.82 858.61
  C 925.62 853.76 931.26 846.58 936.96 840.47
  C 939.43 837.82 943.95 834.20 946.74 830.18
  C 952.23 822.27 958.51 815.05 964.60 807.59
  C 968.06 803.35 970.66 798.25 973.96 793.78
  C 976.40 790.48 978.08 787.28 979.91 783.80
  C 981.73 780.34 984.39 777.06 986.36 773.39
  C 991.93 762.98 996.59 752.18 1002.13 741.73
  C 1004.58 737.08 1005.63 731.97 1007.74 726.74
  C 1009.11 723.37 1009.93 719.77 1011.20 716.46
  C 1013.47 710.55 1014.86 704.03 1016.56 697.91
  C 1019.42 687.57 1021.12 677.11 1023.10 666.65
  C 1025.33 654.83 1026.46 641.45 1026.51 631.00
  Q 1026.72 584.87 1026.16 415.25
  Q 1026.09 392.50 1025.91 369.75
  Q 1025.84 360.03 1023.15 339.09
  C 1022.35 332.93 1020.65 326.32 1019.53 319.87
  C 1018.27 312.65 1016.03 306.10 1014.15 298.38
  C 1010.68 284.14 1005.32 272.01 998.98 257.20
  C 996.24 250.81 992.61 245.17 989.86 238.64
  C 986.58 230.85 981.62 224.50 977.52 217.40
  Q 974.69 212.50 971.74 208.21
  C 968.80 203.95 966.22 199.12 962.88 195.19
  C 960.17 192.01 957.85 189.39 955.29 185.65
  Q 951.95 180.77 947.45 175.78
  C 939.99 167.49 933.24 159.80 925.50 153.25
  C 919.96 148.57 914.69 141.36 910.30 138.16
  Q 896.34 128.01 883.61 116.37
  C 866.48 100.71 845.92 89.40 824.36 79.84
  Q 781.69 60.92 736.41 49.53
  Q 735.11 49.21 733.75 49.20
  Q 578.13 49.00 422.41 48.97
  A 0.43 0.43 0.0 0 0 421.98 49.40
  Q 422.00 85.37 422.12 121.50
  Q 422.19 144.03 439.48 158.04
  Q 455.23 170.80 474.51 171.93
  Q 489.38 172.79 512.68 172.47
  C 517.46 172.40 522.18 172.99 526.92 173.42
  C 541.20 174.72 555.75 178.54 569.48 182.59
  C 577.17 184.86 584.61 189.10 592.02 192.24
  C 600.23 195.72 607.48 201.11 615.08 205.70
  C 618.67 207.86 621.80 210.94 625.43 213.39
  C 629.57 216.19 634.02 220.44 637.40 223.94
  C 642.05 228.76 646.93 233.35 651.01 238.50
  Q 660.67 250.68 664.69 257.31
  Q 671.32 268.24 680.17 289.04
  C 682.12 293.64 682.89 300.23 685.05 305.73
  C 687.15 311.11 687.58 316.55 688.50 322.00
  Q 689.32 326.80 687.68 334.16
  C 686.96 337.41 687.06 340.43 686.67 343.69
  Q 686.14 348.08 686.25 350.85
  C 686.70 361.82 688.06 371.35 693.28 380.92
  C 695.49 384.98 698.98 388.88 701.96 392.80
  C 706.38 398.61 712.09 401.70 718.02 405.39
  C 727.85 411.50 737.13 413.13 748.01 414.36
  Q 750.98 414.70 753.51 414.46
  C 763.54 413.53 771.18 412.87 780.12 408.02
  C 785.36 405.17 790.81 402.87 795.15 398.94
  C 803.63 391.24 809.84 380.94 814.41 370.23
  Q 818.08 361.63 820.04 358.02
  C 825.10 348.73 830.37 341.56 835.18 332.96
  Q 836.02 331.46 834.49 330.69
  Q 827.55 327.17 820.88 322.19
  C 814.92 317.75 811.54 312.19 807.73 305.78
  C 803.00 297.83 800.14 283.68 802.16 275.43
  C 803.65 269.37 804.72 262.73 807.57 257.55
  Q 812.29 248.93 820.32 243.12
  Q 821.55 242.23 824.28 239.92
  C 828.25 236.55 835.99 232.79 841.10 231.91
  Q 851.01 230.20 855.50 230.56
  Q 865.16 231.35 867.91 232.33
  C 877.08 235.64 885.17 240.68 891.51 248.26
  C 895.65 253.21 899.76 258.20 901.64 264.51
  Q 903.12 269.44 904.19 274.48
  C 904.54 276.11 904.40 277.88 904.67 279.61
  C 905.34 283.93 904.15 290.66 903.03 294.82
  C 898.42 312.01 885.80 324.80 869.57 331.46
  Q 867.86 332.15 868.81 333.74
  C 873.95 342.37 877.90 349.21 884.26 359.60
  C 890.79 370.26 896.45 382.78 900.12 394.79
  C 900.90 397.33 900.87 399.73 900.86 402.36
  Q 900.83 464.44 900.42 526.50
  A 0.52 0.52 0.0 0 1 899.92 527.02
  C 896.45 527.16 892.79 526.42 889.69 526.42
  C 866.30 526.42 842.90 526.07 819.50 526.04
  Q 715.32 525.89 611.44 525.93
  Q 610.74 525.93 610.66 525.24
  C 608.19 504.14 593.03 493.80 574.26 488.45
  C 561.96 484.95 548.16 487.93 536.49 492.51
  C 528.06 495.81 519.68 499.05 511.12 502.00
  Q 506.56 503.57 502.27 505.81
  C 497.88 508.10 493.66 512.03 489.17 515.03
  C 482.83 519.27 478.41 523.25 473.11 527.86
  C 467.36 532.86 462.57 538.96 457.45 544.62
  Q 454.39 548.00 451.94 552.09
  C 447.90 558.82 442.84 565.29 439.86 572.48
  C 437.16 579.01 433.97 585.62 432.38 592.60
  C 431.48 596.54 429.44 600.60 428.86 605.01
  Q 427.30 616.83 427.30 628.75
  Q 427.37 788.40 427.09 947.82
  A 0.62 0.62 0.0 0 0 427.72 948.44
  L 496.74 948.27
  Q 497.18 948.27 497.18 947.82
  Q 497.20 795.48 497.15 643.39
  C 497.15 627.77 504.84 608.82 516.15 597.48
  C 519.09 594.53 520.18 591.40 523.89 588.94
  C 534.66 581.80 545.11 576.48 558.35 576.32
  C 569.00 576.19 584.98 576.61 593.13 567.89
  C 595.50 565.36 598.74 563.71 600.86 561.65
  C 603.76 558.84 605.12 556.41 607.16 552.36
  C 610.50 545.74 612.07 538.97 611.80 531.52
  A 0.51 0.51 0.0 0 1 612.31 530.99
  Z
  M 630.08 720.87
  A 0.34 0.33 43.0 0 1 629.57 720.88
  C 624.57 715.19 619.69 709.24 612.20 706.61
  Q 607.75 705.05 603.74 704.06
  C 599.21 702.94 593.89 703.09 589.51 703.47
  C 574.90 704.72 559.31 717.68 554.78 731.63
  Q 553.36 735.99 553.35 739.81
  Q 552.94 843.86 552.99 947.80
  Q 552.99 948.53 553.73 948.53
  L 619.98 948.51
  A 0.28 0.28 0.0 0 0 620.26 948.23
  Q 620.07 877.52 620.01 806.75
  Q 620.00 793.63 620.55 780.51
  Q 620.63 778.50 622.37 776.08
  Q 625.55 771.64 632.79 760.59
  C 635.84 755.92 638.64 749.17 637.66 743.71
  C 637.19 741.09 637.28 738.13 636.71 735.95
  Q 635.93 732.91 634.58 730.13
  Q 634.17 729.27 634.85 728.60
  Q 640.93 722.66 647.84 717.41
  Q 652.01 714.24 656.39 710.22
  Q 663.87 703.37 672.48 697.95
  C 675.09 696.31 677.40 694.20 679.90 692.34
  A 0.48 0.48 0.0 0 1 680.57 692.42
  C 687.60 701.15 700.07 706.25 710.71 706.53
  C 714.14 706.61 718.08 705.69 721.73 705.22
  Q 724.84 704.82 732.50 700.52
  Q 740.53 696.00 744.48 689.30
  C 750.92 678.39 752.73 667.46 749.44 655.41
  C 747.36 647.78 741.80 640.28 736.58 635.92
  C 726.44 627.44 711.55 625.59 698.87 629.31
  C 692.47 631.19 683.49 636.90 679.89 642.61
  C 677.55 646.32 675.08 649.87 673.94 654.05
  Q 669.89 668.92 675.20 683.67
  Q 675.38 684.19 674.93 684.50
  C 665.18 691.22 656.07 699.12 646.63 706.30
  C 642.54 709.42 638.37 713.61 633.89 716.96
  C 632.32 718.13 631.26 719.39 630.08 720.87
  Z" fill="#fdfdfd"></path>
<path d="M 612.31 530.99
  A 0.51 0.51 0.0 0 0 611.80 531.52
  C 612.07 538.97 610.50 545.74 607.16 552.36
  C 605.12 556.41 603.76 558.84 600.86 561.65
  C 598.74 563.71 595.50 565.36 593.13 567.89
  C 584.98 576.61 569.00 576.19 558.35 576.32
  C 545.11 576.48 534.66 581.80 523.89 588.94
  C 520.18 591.40 519.09 594.53 516.15 597.48
  C 504.84 608.82 497.15 627.77 497.15 643.39
  Q 497.20 795.48 497.18 947.82
  Q 497.18 948.27 496.74 948.27
  L 427.72 948.44
  A 0.62 0.62 0.0 0 1 427.09 947.82
  Q 427.37 788.40 427.30 628.75
  Q 427.30 616.83 428.86 605.01
  C 429.44 600.60 431.48 596.54 432.38 592.60
  C 433.97 585.62 437.16 579.01 439.86 572.48
  C 442.84 565.29 447.90 558.82 451.94 552.09
  Q 454.39 548.00 457.45 544.62
  C 462.57 538.96 467.36 532.86 473.11 527.86
  C 478.41 523.25 482.83 519.27 489.17 515.03
  C 493.66 512.03 497.88 508.10 502.27 505.81
  Q 506.56 503.57 511.12 502.00
  C 519.68 499.05 528.06 495.81 536.49 492.51
  C 548.16 487.93 561.96 484.95 574.26 488.45
  C 593.03 493.80 608.19 504.14 610.66 525.24
  Q 610.74 525.93 611.44 525.93
  Q 715.32 525.89 819.50 526.04
  C 842.90 526.07 866.30 526.42 889.69 526.42
  C 892.79 526.42 896.45 527.16 899.92 527.02
  A 0.52 0.52 0.0 0 0 900.42 526.50
  Q 900.83 464.44 900.86 402.36
  C 900.87 399.73 900.90 397.33 900.12 394.79
  C 896.45 382.78 890.79 370.26 884.26 359.60
  C 877.90 349.21 873.95 342.37 868.81 333.74
  Q 867.86 332.15 869.57 331.46
  C 885.80 324.80 898.42 312.01 903.03 294.82
  C 904.15 290.66 905.34 283.93 904.67 279.61
  C 904.40 277.88 904.54 276.11 904.19 274.48
  Q 903.12 269.44 901.64 264.51
  C 899.76 258.20 895.65 253.21 891.51 248.26
  C 885.17 240.68 877.08 235.64 867.91 232.33
  Q 865.16 231.35 855.50 230.56
  Q 851.01 230.20 841.10 231.91
  C 835.99 232.79 828.25 236.55 824.28 239.92
  Q 821.55 242.23 820.32 243.12
  Q 812.29 248.93 807.57 257.55
  C 804.72 262.73 803.65 269.37 802.16 275.43
  C 800.14 283.68 803.00 297.83 807.73 305.78
  C 811.54 312.19 814.92 317.75 820.88 322.19
  Q 827.55 327.17 834.49 330.69
  Q 836.02 331.46 835.18 332.96
  C 830.37 341.56 825.10 348.73 820.04 358.02
  Q 818.08 361.63 814.41 370.23
  C 809.84 380.94 803.63 391.24 795.15 398.94
  C 790.81 402.87 785.36 405.17 780.12 408.02
  C 771.18 412.87 763.54 413.53 753.51 414.46
  Q 750.98 414.70 748.01 414.36
  C 737.13 413.13 727.85 411.50 718.02 405.39
  C 712.09 401.70 706.38 398.61 701.96 392.80
  C 698.98 388.88 695.49 384.98 693.28 380.92
  C 688.06 371.35 686.70 361.82 686.25 350.85
  Q 686.14 348.08 686.67 343.69
  C 687.06 340.43 686.96 337.41 687.68 334.16
  Q 689.32 326.80 688.50 322.00
  C 687.58 316.55 687.15 311.11 685.05 305.73
  C 682.89 300.23 682.12 293.64 680.17 289.04
  Q 671.32 268.24 664.69 257.31
  Q 660.67 250.68 651.01 238.50
  C 646.93 233.35 642.05 228.76 637.40 223.94
  C 634.02 220.44 629.57 216.19 625.43 213.39
  C 621.80 210.94 618.67 207.86 615.08 205.70
  C 607.48 201.11 600.23 195.72 592.02 192.24
  C 584.61 189.10 577.17 184.86 569.48 182.59
  C 555.75 178.54 541.20 174.72 526.92 173.42
  C 522.18 172.99 517.46 172.40 512.68 172.47
  Q 489.38 172.79 474.51 171.93
  Q 455.23 170.80 439.48 158.04
  Q 422.19 144.03 422.12 121.50
  Q 422.00 85.37 421.98 49.40
  A 0.43 0.43 0.0 0 1 422.41 48.97
  Q 578.13 49.00 733.75 49.20
  Q 735.11 49.21 736.41 49.53
  Q 781.69 60.92 824.36 79.84
  C 845.92 89.40 866.48 100.71 883.61 116.37
  Q 896.34 128.01 910.30 138.16
  C 914.69 141.36 919.96 148.57 925.50 153.25
  C 933.24 159.80 939.99 167.49 947.45 175.78
  Q 951.95 180.77 955.29 185.65
  C 957.85 189.39 960.17 192.01 962.88 195.19
  C 966.22 199.12 968.80 203.95 971.74 208.21
  Q 974.69 212.50 977.52 217.40
  C 981.62 224.50 986.58 230.85 989.86 238.64
  C 992.61 245.17 996.24 250.81 998.98 257.20
  C 1005.32 272.01 1010.68 284.14 1014.15 298.38
  C 1016.03 306.10 1018.27 312.65 1019.53 319.87
  C 1020.65 326.32 1022.35 332.93 1023.15 339.09
  Q 1025.84 360.03 1025.91 369.75
  Q 1026.09 392.50 1026.16 415.25
  Q 1026.72 584.87 1026.51 631.00
  C 1026.46 641.45 1025.33 654.83 1023.10 666.65
  C 1021.12 677.11 1019.42 687.57 1016.56 697.91
  C 1014.86 704.03 1013.47 710.55 1011.20 716.46
  C 1009.93 719.77 1009.11 723.37 1007.74 726.74
  C 1005.63 731.97 1004.58 737.08 1002.13 741.73
  C 996.59 752.18 991.93 762.98 986.36 773.39
  C 984.39 777.06 981.73 780.34 979.91 783.80
  C 978.08 787.28 976.40 790.48 973.96 793.78
  C 970.66 798.25 968.06 803.35 964.60 807.59
  C 958.51 815.05 952.23 822.27 946.74 830.18
  C 943.95 834.20 939.43 837.82 936.96 840.47
  C 931.26 846.58 925.62 853.76 918.82 858.61
  Q 916.01 860.62 913.52 863.30
  C 907.49 869.79 899.73 874.99 893.67 880.05
  C 889.12 883.85 884.14 886.47 879.56 890.44
  C 874.86 894.52 868.97 897.21 863.69 900.37
  Q 863.64 900.40 855.18 906.10
  Q 849.35 910.02 841.87 913.12
  C 834.44 916.20 826.95 921.22 819.03 924.46
  C 814.64 926.26 810.01 928.43 805.96 930.05
  C 783.49 939.04 762.41 944.87 739.70 947.43
  Q 730.51 948.46 719.75 948.49
  Q 698.50 948.55 676.82 948.53
  Q 675.98 948.53 675.99 947.69
  Q 676.01 946.06 676.00 944.00
  Q 675.79 860.35 675.96 828.75
  C 675.99 823.20 675.33 820.85 673.53 814.42
  C 671.38 806.73 672.16 800.60 674.57 792.67
  C 680.89 771.83 702.75 762.14 723.50 765.77
  Q 727.19 766.42 732.77 768.79
  C 742.50 772.92 749.83 780.69 754.18 790.24
  C 756.62 795.61 757.72 802.79 759.19 809.04
  Q 759.30 809.49 759.77 809.45
  Q 769.47 808.55 773.27 807.07
  C 779.16 804.78 785.79 803.68 791.18 801.04
  C 794.33 799.51 797.40 797.63 800.45 796.24
  C 806.45 793.51 812.23 790.94 817.78 787.27
  C 832.01 777.88 841.52 770.49 851.02 760.04
  C 853.81 756.97 856.85 754.21 859.33 751.01
  C 863.79 745.26 868.71 739.41 872.34 733.54
  C 881.19 719.25 887.91 703.54 892.87 686.65
  C 893.92 683.05 895.95 677.46 896.75 672.24
  C 898.91 658.17 900.40 645.96 900.45 631.46
  Q 900.59 586.67 900.40 541.60
  A 0.60 0.60 0.0 0 1 901.00 541.00
  L 913.75 541.00
  A 0.90 0.90 0.0 0 1 914.58 541.55
  C 916.60 546.29 919.05 551.63 923.06 555.04
  C 926.94 558.33 929.66 560.34 934.67 560.55
  C 936.44 560.63 937.47 561.58 939.05 561.69
  C 957.58 563.00 966.91 552.33 969.01 534.96
  C 969.58 530.27 968.57 525.76 967.33 521.24
  C 965.81 515.70 962.55 512.72 958.49 509.02
  C 953.08 504.10 946.73 504.00 939.40 504.28
  C 929.51 504.66 922.26 507.88 917.48 517.00
  C 913.83 524.00 913.09 527.02 904.21 527.65
  Q 903.22 527.72 903.23 528.72
  L 903.28 531.57
  Q 903.29 532.23 902.66 532.02
  L 900.54 531.30
  A 1.51 1.40 -33.3 0 0 900.06 531.22
  L 889.86 531.16
  A 0.60 0.59 -0.9 0 0 889.26 531.77
  L 889.39 536.33
  Q 889.40 536.51 889.23 536.58
  L 888.98 536.69
  Q 888.70 536.80 888.62 536.51
  L 887.26 531.85
  Q 887.12 531.37 886.75 531.37
  L 612.31 530.99
  Z" fill="#010101"></path>
<path d="M 630.08 720.87
  C 631.26 719.39 632.32 718.13 633.89 716.96
  C 638.37 713.61 642.54 709.42 646.63 706.30
  C 656.07 699.12 665.18 691.22 674.93 684.50
  Q 675.38 684.19 675.20 683.67
  Q 669.89 668.92 673.94 654.05
  C 675.08 649.87 677.55 646.32 679.89 642.61
  C 683.49 636.90 692.47 631.19 698.87 629.31
  C 711.55 625.59 726.44 627.44 736.58 635.92
  C 741.80 640.28 747.36 647.78 749.44 655.41
  C 752.73 667.46 750.92 678.39 744.48 689.30
  Q 740.53 696.00 732.50 700.52
  Q 724.84 704.82 721.73 705.22
  C 718.08 705.69 714.14 706.61 710.71 706.53
  C 700.07 706.25 687.60 701.15 680.57 692.42
  A 0.48 0.48 0.0 0 0 679.90 692.34
  C 677.40 694.20 675.09 696.31 672.48 697.95
  Q 663.87 703.37 656.39 710.22
  Q 652.01 714.24 647.84 717.41
  Q 640.93 722.66 634.85 728.60
  Q 634.17 729.27 634.58 730.13
  Q 635.93 732.91 636.71 735.95
  C 637.28 738.13 637.19 741.09 637.66 743.71
  C 638.64 749.17 635.84 755.92 632.79 760.59
  Q 625.55 771.64 622.37 776.08
  Q 620.63 778.50 620.55 780.51
  Q 620.00 793.63 620.01 806.75
  Q 620.07 877.52 620.26 948.23
  A 0.28 0.28 0.0 0 1 619.98 948.51
  L 553.73 948.53
  Q 552.99 948.53 552.99 947.80
  Q 552.94 843.86 553.35 739.81
  Q 553.36 735.99 554.78 731.63
  C 559.31 717.68 574.90 704.72 589.51 703.47
  C 593.89 703.09 599.21 702.94 603.74 704.06
  Q 607.75 705.05 612.20 706.61
  C 619.69 709.24 624.57 715.19 629.57 720.88
  A 0.34 0.33 43.0 0 0 630.08 720.87
  Z" fill="#010101"></path>
</svg>
