<svg viewBox="0.00 0.00 48.00 48.00" version="1.1" xmlns="http://www.w3.org/2000/svg">
<g stroke-linecap="butt" fill="none" stroke-width="2.00">
<path d="M 18.87 19.37
  A 2.08 2.08 0.0 0 1 20.58 21.57
  C 20.15 27.43 15.10 32.66 10.43 35.27
  Q 8.33 36.45 10.73 36.43
  L 36.95 36.31
  Q 37.19 36.31 37.27 36.08
  Q 39.11 30.57 38.19 24.75
  C 36.85 16.27 27.31 9.55 18.75 12.21
  Q 13.44 13.85 12.06 19.81
  Q 11.92 20.44 12.51 20.17
  Q 15.54 18.78 18.87 19.37" stroke="#808080"></path>
<path d="M 28.73 20.04
  Q 29.76 18.83 30.65 20.14
  L 32.34 22.64
  A 1.10 1.10 0.0 0 0 34.29 22.38
  L 34.37 22.13
  Q 34.93 20.54 33.97 19.15
  C 29.94 13.33 19.36 9.80 14.65 17.25
  A 0.33 0.32 14.9 0 0 14.94 17.75
  C 18.42 17.55 22.53 17.23 21.87 22.33
  A 0.41 0.41 0.0 0 0 22.64 22.57
  Q 23.37 21.20 24.60 20.44
  A 0.86 0.85 60.9 0 1 25.82 20.79
  Q 26.39 21.94 26.93 23.09
  Q 27.12 23.48 27.35 23.62
  Q 27.70 23.81 28.09 23.75
  A 0.63 0.62 -11.0 0 0 28.60 23.00
  Q 28.13 20.74 28.73 20.04" stroke="#808080"></path>
</g>
<path d="M 0.00 0.00
  L 48.00 0.00
  L 48.00 48.00
  L 0.00 48.00
  L 0.00 0.00
  Z
  M 18.87 19.37
  A 2.08 2.08 0.0 0 1 20.58 21.57
  C 20.15 27.43 15.10 32.66 10.43 35.27
  Q 8.33 36.45 10.73 36.43
  L 36.95 36.31
  Q 37.19 36.31 37.27 36.08
  Q 39.11 30.57 38.19 24.75
  C 36.85 16.27 27.31 9.55 18.75 12.21
  Q 13.44 13.85 12.06 19.81
  Q 11.92 20.44 12.51 20.17
  Q 15.54 18.78 18.87 19.37
  Z" fill="#000000"></path>
<path d="M 18.87 19.37
  Q 15.54 18.78 12.51 20.17
  Q 11.92 20.44 12.06 19.81
  Q 13.44 13.85 18.75 12.21
  C 27.31 9.55 36.85 16.27 38.19 24.75
  Q 39.11 30.57 37.27 36.08
  Q 37.19 36.31 36.95 36.31
  L 10.73 36.43
  Q 8.33 36.45 10.43 35.27
  C 15.10 32.66 20.15 27.43 20.58 21.57
  A 2.08 2.08 0.0 0 0 18.87 19.37
  Z
  M 28.73 20.04
  Q 29.76 18.83 30.65 20.14
  L 32.34 22.64
  A 1.10 1.10 0.0 0 0 34.29 22.38
  L 34.37 22.13
  Q 34.93 20.54 33.97 19.15
  C 29.94 13.33 19.36 9.80 14.65 17.25
  A 0.33 0.32 14.9 0 0 14.94 17.75
  C 18.42 17.55 22.53 17.23 21.87 22.33
  A 0.41 0.41 0.0 0 0 22.64 22.57
  Q 23.37 21.20 24.60 20.44
  A 0.86 0.85 60.9 0 1 25.82 20.79
  Q 26.39 21.94 26.93 23.09
  Q 27.12 23.48 27.35 23.62
  Q 27.70 23.81 28.09 23.75
  A 0.63 0.62 -11.0 0 0 28.60 23.00
  Q 28.13 20.74 28.73 20.04
  Z" fill="#ffffff"></path>
<path d="M 28.73 20.04
  Q 28.13 20.74 28.60 23.00
  A 0.63 0.62 -11.0 0 1 28.09 23.75
  Q 27.70 23.81 27.35 23.62
  Q 27.12 23.48 26.93 23.09
  Q 26.39 21.94 25.82 20.79
  A 0.86 0.85 60.9 0 0 24.60 20.44
  Q 23.37 21.20 22.64 22.57
  A 0.41 0.41 0.0 0 1 21.87 22.33
  C 22.53 17.23 18.42 17.55 14.94 17.75
  A 0.33 0.32 14.9 0 1 14.65 17.25
  C 19.36 9.80 29.94 13.33 33.97 19.15
  Q 34.93 20.54 34.37 22.13
  L 34.29 22.38
  A 1.10 1.10 0.0 0 1 32.34 22.64
  L 30.65 20.14
  Q 29.76 18.83 28.73 20.04
  Z" fill="#000000"></path>
</svg>
