<svg viewBox="0.00 0.00 192.00 192.00" version="1.1" xmlns="http://www.w3.org/2000/svg">
<g stroke-linecap="butt" fill="none" stroke-width="2.00">
<path d="M 84.37 152.48
  Q 112.50 134.16 128.85 104.46" stroke="#80d0e8"></path>
<path d="M 136.15 87.08
  Q 138.62 78.48 138.72 70.89" stroke="#80cbe9"></path>
<path d="M 98.89 87.09
  Q 101.35 85.70 103.27 83.00
  C 103.75 82.34 103.77 81.61 104.53 80.89
  Q 105.58 79.90 105.76 79.65
  Q 108.89 75.35 112.81 71.75
  Q 112.96 71.62 112.76 71.62
  Q 112.62 71.61 112.48 71.61
  A 0.23 0.23 0.0 0 1 112.30 71.24
  L 112.47 71.02" stroke="#3580d9"></path>
<path d="M 83.22 104.43
  Q 82.37 105.19 82.19 106.27
  Q 82.11 106.76 81.73 107.07
  Q 80.77 107.84 79.97 108.72
  Q 78.61 110.21 78.10 109.23" stroke="#2a8dd6"></path>
<path d="M 70.99 130.64
  Q 69.76 131.42 69.24 132.72
  Q 69.05 133.19 68.65 133.50
  L 62.99 137.97" stroke="#2a88d7"></path>
</g>
<circle r="5.61" cy="30.57" cx="123.07" fill="#5378db"></circle>
<path d="M 84.37 152.48
  Q 112.50 134.16 128.85 104.46
  Q 133.20 96.41 136.15 87.08
  Q 138.62 78.48 138.72 70.89
  C 137.88 52.22 125.64 46.17 108.64 50.42
  A 0.68 0.67 84.3 0 0 108.13 51.05
  C 107.66 60.79 97.67 66.58 89.42 61.00
  A 0.53 0.53 0.0 0 1 89.54 60.06
  L 98.30 56.95
  Q 98.83 56.77 98.94 56.21
  L 100.07 50.42
  A 1.05 1.05 0.0 0 0 99.73 49.42
  L 95.14 45.46
  A 0.93 0.92 -34.2 0 0 94.21 45.29
  L 85.03 48.56
  A 0.35 0.35 0.0 0 1 84.58 48.12
  C 87.46 38.90 99.16 35.80 105.43 43.69
  A 1.41 1.40 -26.2 0 0 106.87 44.17
  C 124.59 39.53 142.45 46.17 144.19 66.53
  C 145.58 82.83 138.20 99.85 129.43 113.46
  C 117.64 131.75 100.59 148.55 80.75 159.06
  C 71.54 163.94 58.62 168.31 48.14 166.11
  A 1.09 1.09 0.0 0 1 47.29 164.83
  L 47.35 164.52
  Q 47.62 163.19 48.97 163.27
  C 61.70 164.00 73.67 159.23 84.37 152.48
  Z" fill="#ffffff"></path>
<circle r="2.45" cy="50.96" cx="30.62" fill="#6869de"></circle>
<circle r="2.98" cy="61.62" cx="65.22" fill="#6869de"></circle>
<path d="M 138.72 70.89
  Q 138.62 78.48 136.15 87.08
  L 98.89 87.09
  Q 101.35 85.70 103.27 83.00
  C 103.75 82.34 103.77 81.61 104.53 80.89
  Q 105.58 79.90 105.76 79.65
  Q 108.89 75.35 112.81 71.75
  Q 112.96 71.62 112.76 71.62
  Q 112.62 71.61 112.48 71.61
  A 0.23 0.23 0.0 0 1 112.30 71.24
  L 112.47 71.02
  L 138.72 70.89
  Z" fill="#0197d3"></path>
<path d="M 112.47 71.02
  L 112.30 71.24
  A 0.23 0.23 0.0 0 0 112.48 71.61
  Q 112.62 71.61 112.76 71.62
  Q 112.96 71.62 112.81 71.75
  Q 108.89 75.35 105.76 79.65
  Q 105.58 79.90 104.53 80.89
  C 103.77 81.61 103.75 82.34 103.27 83.00
  Q 101.35 85.70 98.89 87.09
  L 32.28 87.08
  Q 31.73 87.08 31.70 86.52
  Q 31.50 81.65 31.67 77.00
  Q 31.88 71.16 37.75 71.14
  Q 75.10 70.99 112.47 71.02
  Z" fill="#6869de"></path>
<path d="M 144.98 86.73
  Q 146.93 79.36 147.01 71.75
  Q 147.02 71.18 147.58 71.13
  C 161.11 69.77 159.13 76.58 158.96 86.57
  Q 158.96 87.02 158.51 87.02
  L 145.24 87.06
  A 0.26 0.26 0.0 0 1 144.98 86.73
  Z" fill="#00b1cc"></path>
<circle r="5.05" cy="98.55" cx="174.22" fill="#00c7c6"></circle>
<path d="M 83.22 104.43
  Q 82.37 105.19 82.19 106.27
  Q 82.11 106.76 81.73 107.07
  Q 80.77 107.84 79.97 108.72
  Q 78.61 110.21 78.10 109.23
  L 71.67 109.00
  A 0.58 0.58 0.0 0 0 71.07 109.58
  L 70.99 130.64
  Q 69.76 131.42 69.24 132.72
  Q 69.05 133.19 68.65 133.50
  L 62.99 137.97
  L 62.77 122.15
  Q 62.76 121.42 62.04 121.43
  L 56.47 121.51
  A 0.78 0.78 0.0 0 0 55.70 122.28
  L 55.49 151.79
  A 0.53 0.52 0.0 0 1 54.96 152.31
  L 48.22 152.29
  A 0.58 0.57 0.0 0 1 47.64 151.72
  L 47.69 134.54
  A 0.90 0.89 0.3 0 0 46.79 133.64
  L 41.08 133.60
  Q 40.27 133.60 40.27 134.42
  L 40.27 151.70
  Q 40.27 152.06 39.91 152.12
  Q 31.65 153.44 31.63 145.27
  Q 31.58 124.98 31.71 105.00
  Q 31.71 104.40 32.31 104.41
  L 83.22 104.43
  Z" fill="#5378db"></path>
<path d="M 83.22 104.43
  L 128.85 104.46
  Q 112.50 134.16 84.37 152.48
  Q 81.82 151.95 79.49 152.46
  A 1.01 1.00 83.5 0 1 78.27 151.48
  L 78.10 109.23
  Q 78.61 110.21 79.97 108.72
  Q 80.77 107.84 81.73 107.07
  Q 82.11 106.76 82.19 106.27
  Q 82.37 105.19 83.22 104.43
  Z" fill="#00a1d0"></path>
<path d="M 137.51 131.12
  L 158.13 131.13
  A 0.76 0.75 0.4 0 1 158.88 131.88
  L 158.88 135.51
  A 0.88 0.88 0.0 0 1 158.00 136.39
  L 141.44 136.39
  Q 140.01 136.39 140.00 137.81
  L 139.99 138.27
  A 1.04 1.04 0.0 0 0 141.03 139.32
  L 158.51 139.28
  A 0.45 0.45 0.0 0 1 158.97 139.71
  C 159.09 143.31 159.83 149.94 155.88 151.69
  Q 154.56 152.28 150.56 152.28
  Q 124.26 152.32 97.99 152.30
  Q 97.12 152.30 97.82 151.77
  Q 123.15 132.87 137.96 104.92
  Q 138.20 104.46 138.73 104.46
  L 158.48 104.47
  A 0.51 0.51 0.0 0 1 158.99 104.98
  L 158.95 123.27
  A 0.96 0.95 0.3 0 1 157.98 124.22
  L 137.51 124.14
  Q 136.90 124.14 136.90 124.74
  L 136.91 130.51
  A 0.61 0.60 90.0 0 0 137.51 131.12
  Z" fill="#00c7c6"></path>
<circle r="4.28" cy="119.30" cx="17.07" fill="#6869de"></circle>
<path d="M 70.99 130.64
  L 71.00 151.83
  Q 71.00 152.30 70.54 152.30
  L 63.29 152.29
  Q 62.90 152.29 62.90 151.90
  L 62.99 137.97
  L 68.65 133.50
  Q 69.05 133.19 69.24 132.72
  Q 69.76 131.42 70.99 130.64
  Z" fill="#0197d3"></path>
<ellipse ry="1.61" rx="2.29" transform="translate(41.80,162.85) rotate(21.1)" cy="0.00" cx="0.00" fill="#ffffff"></ellipse>
</svg>
