<svg viewBox="0.00 0.00 160.00 160.00" version="1.1" xmlns="http://www.w3.org/2000/svg">
<g stroke-linecap="butt" fill="none" stroke-width="2.00">
<path d="M 85.28 11.42
  Q 85.67 14.91 88.44 19.21
  Q 88.75 19.70 89.13 21.29
  C 89.70 23.69 90.93 26.01 91.63 28.40
  Q 92.28 30.65 93.54 33.35
  Q 94.75 35.92 95.39 38.70
  C 95.67 39.89 96.53 40.89 96.90 42.12
  C 97.49 44.04 98.48 46.72 99.58 48.27
  Q 100.83 50.04 101.17 52.23
  Q 101.25 52.72 101.55 53.14
  Q 102.24 54.11 102.65 55.61
  Q 103.72 59.48 106.13 63.18
  C 107.53 65.32 108.41 67.69 109.05 69.51
  A 40.82 36.67 65.3 0 0 111.29 74.83
  C 112.40 77.05 112.58 80.02 113.77 82.36
  Q 114.01 82.83 113.89 83.34
  Q 113.63 84.48 114.44 85.20
  Q 114.78 85.50 114.89 85.94
  Q 115.28 87.48 115.12 89.08
  Q 115.07 89.59 115.31 90.04
  L 115.66 90.74
  Q 115.87 91.16 115.87 91.62
  L 115.91 96.63
  Q 115.91 97.18 116.33 97.53
  Q 117.07 98.15 116.87 99.49
  Q 116.77 100.11 116.94 102.19
  A 0.95 0.94 15.9 0 0 117.31 102.85
  Q 117.89 103.27 117.88 104.24
  C 117.85 106.68 120.01 107.69 120.98 108.97
  Q 122.55 111.03 124.13 113.04" stroke="#0a95dc"></path>
<path d="M 111.39 142.50
  L 111.66 141.54
  Q 111.76 141.16 111.44 140.96
  Q 111.29 140.86 111.12 140.87
  Q 110.86 140.87 110.73 141.10
  L 110.46 141.61
  Q 110.39 141.73 110.26 141.70
  Q 108.80 141.33 107.68 142.25
  Q 107.27 142.59 106.75 142.59
  Q 104.95 142.62 103.77 144.08
  Q 103.39 144.55 102.79 144.57
  Q 100.46 144.66 98.84 146.35
  A 1.73 1.70 -73.7 0 1 97.98 146.83
  C 95.80 147.31 93.51 148.11 91.33 148.44
  C 89.67 148.69 88.39 149.38 86.89 149.51
  C 80.84 150.03 74.83 150.53 69.60 148.69
  Q 69.11 148.51 68.61 148.63
  Q 67.43 148.90 66.87 147.99
  Q 66.61 147.57 66.13 147.47
  Q 62.03 146.62 58.32 144.69
  C 57.66 144.35 56.86 144.37 56.15 144.38
  Q 55.72 144.38 55.38 144.12
  Q 54.67 143.56 53.85 143.62
  Q 53.44 143.65 53.25 143.29
  Q 52.97 142.78 52.26 142.90
  Q 51.20 143.08 50.48 142.40
  Q 49.02 141.03 47.68 142.29" stroke="#26bcf8"></path>
<path d="M 35.22 110.97
  C 38.72 108.80 38.70 106.73 39.66 103.24
  Q 42.07 94.52 43.44 85.58
  Q 43.50 85.17 43.82 84.92
  C 44.19 84.63 44.39 84.34 44.46 83.83
  Q 45.12 78.87 46.54 74.02
  Q 46.68 73.55 47.05 73.22
  Q 48.47 71.94 48.61 70.00
  Q 48.64 69.59 48.87 69.25
  Q 49.62 68.13 49.62 66.77
  A 1.15 1.13 66.0 0 1 49.90 66.02
  Q 51.90 63.76 52.45 60.74
  Q 52.54 60.29 52.84 59.94
  Q 53.93 58.71 54.36 57.10
  Q 54.45 56.75 54.69 56.48
  Q 55.36 55.73 55.38 54.75
  Q 55.40 54.26 55.63 53.83
  C 56.28 52.66 58.66 48.95 58.89 47.06
  Q 58.95 46.60 59.22 46.23
  C 60.94 43.89 61.25 40.93 62.81 38.18
  C 64.99 34.35 66.11 29.77 67.92 25.72
  Q 69.26 22.73 69.20 19.44" stroke="#0a95dc"></path>
<path d="M 53.42 86.77
  L 52.16 93.52" stroke="#55c7f8"></path>
<path d="M 52.16 93.52
  Q 52.05 101.67 52.91 109.74
  C 53.20 112.47 55.40 114.58 56.06 117.11
  A 1.81 1.80 -74.6 0 0 56.51 117.91
  Q 61.74 123.39 63.76 124.13
  Q 71.59 126.98 79.71 125.36
  C 81.70 124.96 83.48 123.70 85.60 123.10
  Q 88.33 122.32 91.69 117.81
  C 93.29 115.66 95.38 114.65 97.06 112.54
  A 1.19 1.11 4.8 0 1 97.49 112.20
  C 99.35 111.31 100.75 110.26 102.62 109.07
  C 103.98 108.20 105.84 106.10 105.85 104.36
  Q 105.85 103.94 106.04 103.58
  C 107.09 101.54 107.26 99.24 106.90 96.99" stroke="#23b5f8"></path>
<path d="M 106.90 96.99
  L 106.36 90.99" stroke="#55c7f8"></path>
<path d="M 106.36 90.99
  C 105.52 84.31 103.19 77.32 100.82 71.33
  Q 99.84 68.85 98.34 64.49
  C 91.90 45.79 88.24 30.35 83.03 13.27
  Q 82.39 11.16 80.59 9.00
  A 1.75 1.74 47.9 0 0 78.03 8.87
  Q 76.47 10.39 75.63 13.04
  C 70.39 29.56 66.58 46.49 61.37 63.06
  C 59.37 69.42 55.52 78.63 53.42 86.77" stroke="#74d1f8"></path>
<path d="M 106.36 90.99
  L 106.21 92.40
  A 0.91 0.91 0.0 0 1 104.64 92.93
  Q 103.27 91.48 101.19 91.63
  Q 101.12 91.63 101.12 91.56
  L 101.11 91.25
  Q 101.11 91.20 100.94 91.11
  L 94.75 87.88
  Q 94.68 87.84 94.73 87.77
  Q 94.79 87.68 94.66 87.59
  Q 92.07 85.77 89.20 86.48
  Q 88.75 86.59 88.30 86.46
  Q 87.78 86.32 87.24 86.37
  Q 87.15 86.37 87.21 86.30
  Q 87.25 86.25 87.26 86.20
  Q 87.31 86.03 87.09 85.89
  C 85.51 84.84 84.21 85.84 82.97 85.92
  C 77.23 86.26 73.06 86.23 67.45 89.71
  C 65.99 90.61 64.39 90.95 62.79 91.63
  Q 62.29 91.85 61.78 91.63
  Q 61.00 91.30 60.41 91.83
  Q 60.02 92.18 59.51 92.07
  L 54.16 90.93
  A 0.71 0.71 0.0 0 1 53.59 90.27
  L 53.42 86.77" stroke="#b6f0ff"></path>
<path d="M 106.90 96.99
  C 106.69 100.26 105.31 101.50 103.65 103.91
  C 102.36 105.77 99.95 106.67 98.07 107.81
  Q 97.65 108.07 97.15 108.08
  Q 95.38 108.08 93.87 108.96
  Q 92.28 109.89 90.68 110.90
  Q 90.25 111.17 89.76 111.01
  Q 88.58 110.63 87.46 111.15
  Q 87.03 111.35 86.55 111.30
  C 83.30 110.96 80.33 111.94 77.31 111.67
  Q 72.54 111.24 67.76 110.91
  C 66.27 110.81 65.17 110.21 63.65 109.94
  A 1.60 1.60 0.0 0 1 62.90 109.60
  C 62.08 108.94 60.86 109.12 60.17 108.90
  C 53.21 106.68 52.81 99.18 52.16 93.52" stroke="#65d5ff"></path>
</g>
<path d="M 85.28 11.42
  Q 85.67 14.91 88.44 19.21
  Q 88.75 19.70 89.13 21.29
  C 89.70 23.69 90.93 26.01 91.63 28.40
  Q 92.28 30.65 93.54 33.35
  Q 94.75 35.92 95.39 38.70
  C 95.67 39.89 96.53 40.89 96.90 42.12
  C 97.49 44.04 98.48 46.72 99.58 48.27
  Q 100.83 50.04 101.17 52.23
  Q 101.25 52.72 101.55 53.14
  Q 102.24 54.11 102.65 55.61
  Q 103.72 59.48 106.13 63.18
  C 107.53 65.32 108.41 67.69 109.05 69.51
  A 40.82 36.67 65.3 0 0 111.29 74.83
  C 112.40 77.05 112.58 80.02 113.77 82.36
  Q 114.01 82.83 113.89 83.34
  Q 113.63 84.48 114.44 85.20
  Q 114.78 85.50 114.89 85.94
  Q 115.28 87.48 115.12 89.08
  Q 115.07 89.59 115.31 90.04
  L 115.66 90.74
  Q 115.87 91.16 115.87 91.62
  L 115.91 96.63
  Q 115.91 97.18 116.33 97.53
  Q 117.07 98.15 116.87 99.49
  Q 116.77 100.11 116.94 102.19
  A 0.95 0.94 15.9 0 0 117.31 102.85
  Q 117.89 103.27 117.88 104.24
  C 117.85 106.68 120.01 107.69 120.98 108.97
  Q 122.55 111.03 124.13 113.04
  Q 122.93 130.34 111.39 142.50
  L 111.66 141.54
  Q 111.76 141.16 111.44 140.96
  Q 111.29 140.86 111.12 140.87
  Q 110.86 140.87 110.73 141.10
  L 110.46 141.61
  Q 110.39 141.73 110.26 141.70
  Q 108.80 141.33 107.68 142.25
  Q 107.27 142.59 106.75 142.59
  Q 104.95 142.62 103.77 144.08
  Q 103.39 144.55 102.79 144.57
  Q 100.46 144.66 98.84 146.35
  A 1.73 1.70 -73.7 0 1 97.98 146.83
  C 95.80 147.31 93.51 148.11 91.33 148.44
  C 89.67 148.69 88.39 149.38 86.89 149.51
  C 80.84 150.03 74.83 150.53 69.60 148.69
  Q 69.11 148.51 68.61 148.63
  Q 67.43 148.90 66.87 147.99
  Q 66.61 147.57 66.13 147.47
  Q 62.03 146.62 58.32 144.69
  C 57.66 144.35 56.86 144.37 56.15 144.38
  Q 55.72 144.38 55.38 144.12
  Q 54.67 143.56 53.85 143.62
  Q 53.44 143.65 53.25 143.29
  Q 52.97 142.78 52.26 142.90
  Q 51.20 143.08 50.48 142.40
  Q 49.02 141.03 47.68 142.29
  Q 35.70 129.24 35.22 110.97
  C 38.72 108.80 38.70 106.73 39.66 103.24
  Q 42.07 94.52 43.44 85.58
  Q 43.50 85.17 43.82 84.92
  C 44.19 84.63 44.39 84.34 44.46 83.83
  Q 45.12 78.87 46.54 74.02
  Q 46.68 73.55 47.05 73.22
  Q 48.47 71.94 48.61 70.00
  Q 48.64 69.59 48.87 69.25
  Q 49.62 68.13 49.62 66.77
  A 1.15 1.13 66.0 0 1 49.90 66.02
  Q 51.90 63.76 52.45 60.74
  Q 52.54 60.29 52.84 59.94
  Q 53.93 58.71 54.36 57.10
  Q 54.45 56.75 54.69 56.48
  Q 55.36 55.73 55.38 54.75
  Q 55.40 54.26 55.63 53.83
  C 56.28 52.66 58.66 48.95 58.89 47.06
  Q 58.95 46.60 59.22 46.23
  C 60.94 43.89 61.25 40.93 62.81 38.18
  C 64.99 34.35 66.11 29.77 67.92 25.72
  Q 69.26 22.73 69.20 19.44
  C 71.78 13.84 77.81 -0.99 85.28 11.42
  Z
  M 53.42 86.77
  L 52.16 93.52
  Q 52.05 101.67 52.91 109.74
  C 53.20 112.47 55.40 114.58 56.06 117.11
  A 1.81 1.80 -74.6 0 0 56.51 117.91
  Q 61.74 123.39 63.76 124.13
  Q 71.59 126.98 79.71 125.36
  C 81.70 124.96 83.48 123.70 85.60 123.10
  Q 88.33 122.32 91.69 117.81
  C 93.29 115.66 95.38 114.65 97.06 112.54
  A 1.19 1.11 4.8 0 1 97.49 112.20
  C 99.35 111.31 100.75 110.26 102.62 109.07
  C 103.98 108.20 105.84 106.10 105.85 104.36
  Q 105.85 103.94 106.04 103.58
  C 107.09 101.54 107.26 99.24 106.90 96.99
  L 106.36 90.99
  C 105.52 84.31 103.19 77.32 100.82 71.33
  Q 99.84 68.85 98.34 64.49
  C 91.90 45.79 88.24 30.35 83.03 13.27
  Q 82.39 11.16 80.59 9.00
  A 1.75 1.74 47.9 0 0 78.03 8.87
  Q 76.47 10.39 75.63 13.04
  C 70.39 29.56 66.58 46.49 61.37 63.06
  C 59.37 69.42 55.52 78.63 53.42 86.77
  Z" fill="#12a7f0"></path>
<path d="M 106.36 90.99
  L 106.21 92.40
  A 0.91 0.91 0.0 0 1 104.64 92.93
  Q 103.27 91.48 101.19 91.63
  Q 101.12 91.63 101.12 91.56
  L 101.11 91.25
  Q 101.11 91.20 100.94 91.11
  L 94.75 87.88
  Q 94.68 87.84 94.73 87.77
  Q 94.79 87.68 94.66 87.59
  Q 92.07 85.77 89.20 86.48
  Q 88.75 86.59 88.30 86.46
  Q 87.78 86.32 87.24 86.37
  Q 87.15 86.37 87.21 86.30
  Q 87.25 86.25 87.26 86.20
  Q 87.31 86.03 87.09 85.89
  C 85.51 84.84 84.21 85.84 82.97 85.92
  C 77.23 86.26 73.06 86.23 67.45 89.71
  C 65.99 90.61 64.39 90.95 62.79 91.63
  Q 62.29 91.85 61.78 91.63
  Q 61.00 91.30 60.41 91.83
  Q 60.02 92.18 59.51 92.07
  L 54.16 90.93
  A 0.71 0.71 0.0 0 1 53.59 90.27
  L 53.42 86.77
  C 55.52 78.63 59.37 69.42 61.37 63.06
  C 66.58 46.49 70.39 29.56 75.63 13.04
  Q 76.47 10.39 78.03 8.87
  A 1.75 1.74 47.9 0 1 80.59 9.00
  Q 82.39 11.16 83.03 13.27
  C 88.24 30.35 91.90 45.79 98.34 64.49
  Q 99.84 68.85 100.82 71.33
  C 103.19 77.32 105.52 84.31 106.36 90.99
  Z" fill="#d5faff"></path>
<path d="M 85.28 11.42
  Q 105.76 51.04 114.55 69.48
  Q 122.45 86.04 124.10 105.00
  Q 124.51 109.65 124.13 113.04
  Q 122.55 111.03 120.98 108.97
  C 120.01 107.69 117.85 106.68 117.88 104.24
  Q 117.89 103.27 117.31 102.85
  A 0.95 0.94 15.9 0 1 116.94 102.19
  Q 116.77 100.11 116.87 99.49
  Q 117.07 98.15 116.33 97.53
  Q 115.91 97.18 115.91 96.63
  L 115.87 91.62
  Q 115.87 91.16 115.66 90.74
  L 115.31 90.04
  Q 115.07 89.59 115.12 89.08
  Q 115.28 87.48 114.89 85.94
  Q 114.78 85.50 114.44 85.20
  Q 113.63 84.48 113.89 83.34
  Q 114.01 82.83 113.77 82.36
  C 112.58 80.02 112.40 77.05 111.29 74.83
  A 40.82 36.67 65.3 0 1 109.05 69.51
  C 108.41 67.69 107.53 65.32 106.13 63.18
  Q 103.72 59.48 102.65 55.61
  Q 102.24 54.11 101.55 53.14
  Q 101.25 52.72 101.17 52.23
  Q 100.83 50.04 99.58 48.27
  C 98.48 46.72 97.49 44.04 96.90 42.12
  C 96.53 40.89 95.67 39.89 95.39 38.70
  Q 94.75 35.92 93.54 33.35
  Q 92.28 30.65 91.63 28.40
  C 90.93 26.01 89.70 23.69 89.13 21.29
  Q 88.75 19.70 88.44 19.21
  Q 85.67 14.91 85.28 11.42
  Z" fill="#0183c8"></path>
<path d="M 69.20 19.44
  Q 69.26 22.73 67.92 25.72
  C 66.11 29.77 64.99 34.35 62.81 38.18
  C 61.25 40.93 60.94 43.89 59.22 46.23
  Q 58.95 46.60 58.89 47.06
  C 58.66 48.95 56.28 52.66 55.63 53.83
  Q 55.40 54.26 55.38 54.75
  Q 55.36 55.73 54.69 56.48
  Q 54.45 56.75 54.36 57.10
  Q 53.93 58.71 52.84 59.94
  Q 52.54 60.29 52.45 60.74
  Q 51.90 63.76 49.90 66.02
  A 1.15 1.13 66.0 0 0 49.62 66.77
  Q 49.62 68.13 48.87 69.25
  Q 48.64 69.59 48.61 70.00
  Q 48.47 71.94 47.05 73.22
  Q 46.68 73.55 46.54 74.02
  Q 45.12 78.87 44.46 83.83
  C 44.39 84.34 44.19 84.63 43.82 84.92
  Q 43.50 85.17 43.44 85.58
  Q 42.07 94.52 39.66 103.24
  C 38.70 106.73 38.72 108.80 35.22 110.97
  Q 35.28 88.63 45.70 67.20
  Q 57.31 43.30 69.20 19.44
  Z" fill="#0183c8"></path>
<path d="M 106.36 90.99
  L 106.90 96.99
  C 106.69 100.26 105.31 101.50 103.65 103.91
  C 102.36 105.77 99.95 106.67 98.07 107.81
  Q 97.65 108.07 97.15 108.08
  Q 95.38 108.08 93.87 108.96
  Q 92.28 109.89 90.68 110.90
  Q 90.25 111.17 89.76 111.01
  Q 88.58 110.63 87.46 111.15
  Q 87.03 111.35 86.55 111.30
  C 83.30 110.96 80.33 111.94 77.31 111.67
  Q 72.54 111.24 67.76 110.91
  C 66.27 110.81 65.17 110.21 63.65 109.94
  A 1.60 1.60 0.0 0 1 62.90 109.60
  C 62.08 108.94 60.86 109.12 60.17 108.90
  C 53.21 106.68 52.81 99.18 52.16 93.52
  L 53.42 86.77
  L 53.59 90.27
  A 0.71 0.71 0.0 0 0 54.16 90.93
  L 59.51 92.07
  Q 60.02 92.18 60.41 91.83
  Q 61.00 91.30 61.78 91.63
  Q 62.29 91.85 62.79 91.63
  C 64.39 90.95 65.99 90.61 67.45 89.71
  C 73.06 86.23 77.23 86.26 82.97 85.92
  C 84.21 85.84 85.51 84.84 87.09 85.89
  Q 87.31 86.03 87.26 86.20
  Q 87.25 86.25 87.21 86.30
  Q 87.15 86.37 87.24 86.37
  Q 87.78 86.32 88.30 86.46
  Q 88.75 86.59 89.20 86.48
  Q 92.07 85.77 94.66 87.59
  Q 94.79 87.68 94.73 87.77
  Q 94.68 87.84 94.75 87.88
  L 100.94 91.11
  Q 101.11 91.20 101.11 91.25
  L 101.12 91.56
  Q 101.12 91.63 101.19 91.63
  Q 103.27 91.48 104.64 92.93
  A 0.91 0.91 0.0 0 0 106.21 92.40
  L 106.36 90.99
  Z" fill="#97e6ff"></path>
<path d="M 52.16 93.52
  C 52.81 99.18 53.21 106.68 60.17 108.90
  C 60.86 109.12 62.08 108.94 62.90 109.60
  A 1.60 1.60 0.0 0 0 63.65 109.94
  C 65.17 110.21 66.27 110.81 67.76 110.91
  Q 72.54 111.24 77.31 111.67
  C 80.33 111.94 83.30 110.96 86.55 111.30
  Q 87.03 111.35 87.46 111.15
  Q 88.58 110.63 89.76 111.01
  Q 90.25 111.17 90.68 110.90
  Q 92.28 109.89 93.87 108.96
  Q 95.38 108.08 97.15 108.08
  Q 97.65 108.07 98.07 107.81
  C 99.95 106.67 102.36 105.77 103.65 103.91
  C 105.31 101.50 106.69 100.26 106.90 96.99
  C 107.26 99.24 107.09 101.54 106.04 103.58
  Q 105.85 103.94 105.85 104.36
  C 105.84 106.10 103.98 108.20 102.62 109.07
  C 100.75 110.26 99.35 111.31 97.49 112.20
  A 1.19 1.11 4.8 0 0 97.06 112.54
  C 95.38 114.65 93.29 115.66 91.69 117.81
  Q 88.33 122.32 85.60 123.10
  C 83.48 123.70 81.70 124.96 79.71 125.36
  Q 71.59 126.98 63.76 124.13
  Q 61.74 123.39 56.51 117.91
  A 1.81 1.80 -74.6 0 1 56.06 117.11
  C 55.40 114.58 53.20 112.47 52.91 109.74
  Q 52.05 101.67 52.16 93.52
  Z" fill="#33c3ff"></path>
<path d="M 111.39 142.50
  C 93.77 160.89 65.15 160.29 47.68 142.29
  Q 49.02 141.03 50.48 142.40
  Q 51.20 143.08 52.26 142.90
  Q 52.97 142.78 53.25 143.29
  Q 53.44 143.65 53.85 143.62
  Q 54.67 143.56 55.38 144.12
  Q 55.72 144.38 56.15 144.38
  C 56.86 144.37 57.66 144.35 58.32 144.69
  Q 62.03 146.62 66.13 147.47
  Q 66.61 147.57 66.87 147.99
  Q 67.43 148.90 68.61 148.63
  Q 69.11 148.51 69.60 148.69
  C 74.83 150.53 80.84 150.03 86.89 149.51
  C 88.39 149.38 89.67 148.69 91.33 148.44
  C 93.51 148.11 95.80 147.31 97.98 146.83
  A 1.73 1.70 -73.7 0 0 98.84 146.35
  Q 100.46 144.66 102.79 144.57
  Q 103.39 144.55 103.77 144.08
  Q 104.95 142.62 106.75 142.59
  Q 107.27 142.59 107.68 142.25
  Q 108.80 141.33 110.26 141.70
  Q 110.39 141.73 110.46 141.61
  L 110.73 141.10
  Q 110.86 140.87 111.12 140.87
  Q 111.29 140.86 111.44 140.96
  Q 111.76 141.16 111.66 141.54
  L 111.39 142.50
  Z" fill="#3ad0ff"></path>
</svg>
