<svg viewBox="0.00 0.00 512.00 512.00" version="1.1" xmlns="http://www.w3.org/2000/svg">
<g stroke-linecap="butt" fill="none" stroke-width="2.00">
<path d="M 283.52 106.27
  L 222.19 122.43" stroke="#93b2f5"></path>
<path d="M 222.19 122.43
  L 193.72 129.94" stroke="#3e84f4"></path>
<path d="M 193.72 129.94
  L 165.30 137.44" stroke="#5099c7"></path>
<path d="M 165.30 137.44
  L 136.72 145.23" stroke="#929ba0"></path>
<path d="M 136.72 145.23
  Q 120.56 149.73 116.01 165.23
  C 113.80 172.74 116.27 181.46 118.33 189.02
  Q 147.74 297.01 177.22 404.99
  Q 178.47 409.56 179.87 413.16" stroke="#935aaa"></path>
<path d="M 179.87 413.16
  C 182.56 427.73 191.05 438.00 206.25 440.01
  Q 209.79 440.47 216.85 438.85" stroke="#74519d"></path>
<path d="M 216.85 438.85
  L 245.58 431.53" stroke="#748296"></path>
<path d="M 245.58 431.53
  L 273.90 424.10
  Q 275.06 423.79 274.00 423.22
  Q 273.95 423.20 273.68 422.86
  Q 273.52 422.67 273.47 422.43
  Q 272.53 417.86 270.86 413.33" stroke="#4180b3"></path>
<path d="M 270.86 413.33
  Q 270.84 413.21 271.18 413.07" stroke="#5099c7"></path>
<path d="M 271.18 413.07
  Q 272.86 413.05 274.82 412.51
  Q 287.06 409.10 299.44 405.81" stroke="#3e84f4"></path>
<path d="M 299.44 405.81
  L 302.27 416.18
  A 0.47 0.46 -14.8 0 0 302.83 416.50
  Q 331.87 408.85 361.00 401.23
  Q 365.60 400.03 373.78 397.32
  C 386.43 393.13 394.53 381.74 393.16 368.40
  Q 392.55 362.53 390.55 356.87" stroke="#7494d7"></path>
<path d="M 390.55 356.87
  L 341.49 175.93" stroke="#93b2f5"></path>
<path d="M 341.49 175.93
  Q 335.55 153.70 329.32 131.50
  Q 326.53 121.53 322.88 114.99" stroke="#8baaed"></path>
<path d="M 322.88 114.99
  Q 322.42 114.51 322.62 113.79
  Q 330.29 85.38 338.04 57.02
  Q 340.69 47.30 333.28 39.36" stroke="#7494d7"></path>
<path d="M 333.28 39.36
  C 325.07 30.63 310.35 31.39 303.56 40.68
  Q 301.02 44.15 298.38 53.88
  Q 291.42 79.52 284.43 105.16
  C 284.27 105.74 283.96 105.90 283.52 106.27" stroke="#8baaed"></path>
<path d="M 333.28 39.36
  C 332.91 42.75 335.04 46.02 334.51 50.03
  C 333.99 53.95 333.82 56.69 333.00 59.50
  Q 332.00 62.95 331.65 64.78
  Q 331.60 65.05 331.35 65.18
  Q 331.17 65.27 331.12 65.50
  Q 330.44 68.62 329.93 71.78
  Q 329.88 72.06 329.62 72.16
  Q 329.42 72.25 329.35 72.49
  C 328.28 76.33 327.78 80.48 326.39 84.18
  C 324.68 88.74 323.60 91.76 322.74 95.00
  C 322.47 96.00 322.78 96.84 322.33 97.94
  C 320.97 101.33 321.12 104.65 319.63 107.55
  Q 319.41 107.98 319.39 108.47
  C 319.28 110.77 318.24 112.76 317.98 114.93
  Q 317.77 116.61 317.36 117.74
  Q 315.13 123.96 313.98 130.46
  C 313.81 131.44 313.11 132.27 313.12 133.43
  Q 313.13 133.89 312.93 134.32
  C 312.23 135.83 312.47 138.24 311.71 139.31
  Q 311.43 139.71 311.34 140.18
  C 310.61 143.81 309.21 147.21 308.26 150.66
  Q 307.66 152.81 306.95 154.91
  C 306.58 156.00 306.79 157.27 305.93 158.39
  Q 305.63 158.79 305.63 159.29
  C 305.62 161.13 304.67 162.60 304.61 164.53
  Q 304.61 164.81 304.36 164.92
  Q 304.17 165.01 304.10 165.25
  Q 303.31 167.99 302.84 170.80
  Q 302.60 172.28 301.86 174.01
  C 300.85 176.38 300.37 179.93 299.94 181.46
  Q 298.11 188.12 296.35 194.81
  C 296.04 196.02 296.24 197.54 295.10 198.84
  Q 294.77 199.21 294.72 199.70
  Q 294.48 202.02 293.92 203.51
  Q 292.29 207.85 291.71 211.25
  Q 291.69 211.38 291.57 211.37
  Q 291.42 211.37 291.28 211.46
  Q 291.12 211.56 291.13 211.75
  Q 291.20 213.36 290.38 214.75
  A 1.08 1.06 49.3 0 0 290.32 215.69
  Q 290.62 216.42 290.13 216.65
  Q 289.71 216.84 289.64 217.30
  C 289.56 217.88 289.64 218.35 289.45 218.90
  Q 287.25 225.02 285.21 231.19
  Q 283.96 234.99 283.23 236.24
  Q 280.85 240.25 278.85 244.49
  C 278.51 245.20 277.82 245.47 277.36 246.42
  Q 274.80 251.80 272.15 257.14
  Q 270.58 260.31 268.59 263.21
  C 267.15 265.31 264.12 264.06 262.38 263.35
  Q 262.15 263.25 262.00 263.45
  L 259.68 266.32
  A 0.16 0.15 28.0 0 0 259.76 266.56
  L 265.68 268.23
  Q 266.14 268.36 266.17 268.83
  C 266.35 271.47 263.63 273.16 262.84 275.84
  Q 262.09 278.34 261.30 279.69
  Q 259.33 283.00 257.56 286.44
  Q 257.33 286.90 257.41 287.40
  Q 257.48 287.82 257.15 287.92
  Q 256.85 288.01 256.70 288.28
  Q 253.34 294.38 247.93 295.44" stroke="#d9d9d9"></path>
<path d="M 247.93 295.44
  L 251.43 229.49" stroke="#a2c9f6"></path>
<path d="M 251.43 229.49
  Q 252.01 226.03 252.62 222.83
  Q 253.20 219.80 254.17 216.24
  Q 268.93 162.01 283.68 107.77
  Q 283.74 107.56 283.89 107.42
  Q 284.00 107.32 284.05 107.20
  Q 284.11 107.04 284.02 106.81
  Q 283.82 106.33 283.52 106.27" stroke="#f7f7f7"></path>
<path d="M 270.61 299.96
  L 299.39 405.54" stroke="#aad1fe"></path>
<path d="M 299.39 405.54
  Q 299.39 406.15 299.44 405.81" stroke="#8cb2df"></path>
<path d="M 271.18 413.07
  L 193.72 129.94" stroke="#67b7cf"></path>
<path d="M 322.88 114.99
  Q 322.11 115.11 322.06 115.60
  Q 322.03 115.85 322.02 115.89
  Q 306.86 171.64 291.63 227.36
  C 290.47 231.61 288.88 236.11 287.12 239.52
  Q 276.41 260.36 265.71 281.20
  C 265.58 281.45 265.59 281.68 265.55 281.95" stroke="#d9d9d9"></path>
<path d="M 265.55 281.95
  Q 265.40 281.99 265.27 282.08
  Q 265.17 282.15 265.09 282.29
  Q 260.85 290.50 256.66 298.77
  C 255.10 301.85 252.48 303.88 249.27 301.68
  Q 246.67 299.90 247.93 295.44" stroke="#8cb2df"></path>
<path d="M 251.43 229.49
  L 222.19 122.43" stroke="#aad1fe"></path>
<path d="M 390.55 356.87
  C 390.37 360.76 390.35 364.70 389.16 368.27
  C 383.96 383.77 371.11 386.97 356.87 390.68
  Q 330.05 397.68 303.25 404.77
  Q 301.32 405.28 299.39 405.54" stroke="#e1e1e1"></path>
<path d="M 341.49 175.93
  Q 339.32 177.19 339.96 180.09
  A 0.69 0.68 75.0 0 1 339.51 180.89
  Q 339.07 181.04 338.85 181.48
  A 0.93 0.89 53.3 0 0 338.77 182.12
  Q 339.54 185.41 337.04 187.26
  Q 336.73 187.48 337.00 187.75
  L 337.25 187.99
  Q 337.56 188.31 337.38 188.72
  Q 336.51 190.71 336.93 192.93
  Q 337.04 193.52 336.55 193.86
  Q 335.46 194.62 335.93 196.03
  A 0.69 0.68 72.0 0 1 335.50 196.89
  Q 335.33 196.95 335.21 197.04
  Q 334.88 197.29 334.88 197.70
  L 334.88 200.04
  Q 334.88 200.67 334.33 200.97
  Q 333.73 201.30 333.89 202.11
  A 0.74 0.74 0.0 0 1 333.53 202.89
  Q 332.49 203.45 332.93 204.79
  A 0.75 0.75 0.0 0 1 332.61 205.66
  Q 331.73 206.22 331.88 207.25
  Q 331.95 207.75 331.46 207.90
  Q 331.18 207.98 331.04 208.28
  Q 330.88 208.63 331.15 208.89
  L 331.36 209.11
  Q 331.70 209.45 331.37 209.80
  C 330.23 210.99 331.47 212.59 330.34 213.99
  Q 330.01 214.40 329.97 214.92
  Q 329.76 217.76 328.07 220.12
  A 1.02 1.00 -29.6 0 0 327.90 220.71
  Q 327.96 221.65 327.12 222.06
  A 0.52 0.52 0.0 0 0 326.89 222.78
  L 327.15 223.25
  Q 327.38 223.67 327.18 224.10
  Q 326.51 225.51 325.86 226.97
  C 325.53 227.72 324.83 228.25 324.84 229.24
  Q 324.84 229.72 324.65 230.17
  C 324.04 231.63 323.66 233.23 322.96 234.58
  Q 318.65 242.83 315.14 251.44
  C 314.25 253.61 312.76 256.26 311.66 259.02
  Q 309.83 263.63 304.72 272.65
  C 303.69 274.47 302.79 276.70 301.63 278.68
  C 300.28 280.98 299.58 283.90 297.66 286.20
  Q 297.34 286.58 296.86 286.71
  Q 296.53 286.81 296.27 287.02
  Q 295.89 287.34 295.89 287.83
  Q 295.88 288.65 295.28 288.63
  Q 294.73 288.61 294.33 288.98
  C 292.42 290.71 292.14 293.11 289.18 293.94
  A 0.71 0.69 5.9 0 0 288.75 294.28
  L 288.54 294.65
  Q 288.30 295.10 287.81 294.96
  Q 286.03 294.46 285.67 295.99
  A 0.69 0.68 -85.6 0 1 285.04 296.53
  Q 283.94 296.59 283.63 297.69
  A 1.65 1.64 16.9 0 1 281.53 298.81
  Q 279.63 298.17 278.29 299.43
  Q 277.93 299.77 277.43 299.78
  L 270.61 299.96" stroke="#f7f7f7"></path>
<path d="M 270.61 299.96
  L 265.55 281.95" stroke="#a2c9f6"></path>
<path d="M 270.86 413.33
  L 242.68 420.67" stroke="#6bb48f"></path>
<path d="M 242.68 420.67
  Q 242.61 420.71 242.54 420.76" stroke="#9db672"></path>
<path d="M 242.54 420.76
  L 165.30 137.44" stroke="#bccf7c"></path>
<path d="M 242.54 420.76
  L 213.92 428.12" stroke="#e0b84b"></path>
<path d="M 213.92 428.12
  L 136.72 145.23" stroke="#ff905f"></path>
<path d="M 245.58 431.53
  L 242.68 420.67" stroke="#8f9d5e"></path>
<path d="M 213.92 428.12
  L 216.85 438.85" stroke="#c26e48"></path>
<path d="M 213.92 428.12
  Q 213.86 428.02 213.71 427.95
  Q 213.54 427.87 213.35 427.92
  C 199.63 431.86 186.83 425.38 179.87 413.16" stroke="#e1465c"></path>
</g>
<path d="M 89.89 0.00
  L 422.49 0.00
  C 470.88 3.76 508.73 39.49 512.00 88.38
  L 512.00 415.00
  Q 510.81 429.80 506.98 440.27
  C 495.32 472.16 468.08 495.63 433.86 501.77
  Q 427.17 502.97 417.55 502.98
  Q 257.91 503.02 98.26 502.99
  Q 85.54 502.99 78.33 501.75
  C 34.94 494.26 3.10 458.79 0.00 414.62
  L 0.00 88.01
  C 3.85 39.30 41.34 3.16 89.89 0.00
  Z
  M 283.52 106.27
  L 222.19 122.43
  L 193.72 129.94
  L 165.30 137.44
  L 136.72 145.23
  Q 120.56 149.73 116.01 165.23
  C 113.80 172.74 116.27 181.46 118.33 189.02
  Q 147.74 297.01 177.22 404.99
  Q 178.47 409.56 179.87 413.16
  C 182.56 427.73 191.05 438.00 206.25 440.01
  Q 209.79 440.47 216.85 438.85
  L 245.58 431.53
  L 273.90 424.10
  Q 275.06 423.79 274.00 423.22
  Q 273.95 423.20 273.68 422.86
  Q 273.52 422.67 273.47 422.43
  Q 272.53 417.86 270.86 413.33
  Q 270.84 413.21 271.18 413.07
  Q 272.86 413.05 274.82 412.51
  Q 287.06 409.10 299.44 405.81
  L 302.27 416.18
  A 0.47 0.46 -14.8 0 0 302.83 416.50
  Q 331.87 408.85 361.00 401.23
  Q 365.60 400.03 373.78 397.32
  C 386.43 393.13 394.53 381.74 393.16 368.40
  Q 392.55 362.53 390.55 356.87
  L 341.49 175.93
  Q 335.55 153.70 329.32 131.50
  Q 326.53 121.53 322.88 114.99
  Q 322.42 114.51 322.62 113.79
  Q 330.29 85.38 338.04 57.02
  Q 340.69 47.30 333.28 39.36
  C 325.07 30.63 310.35 31.39 303.56 40.68
  Q 301.02 44.15 298.38 53.88
  Q 291.42 79.52 284.43 105.16
  C 284.27 105.74 283.96 105.90 283.52 106.27
  Z" fill="#2665eb"></path>
<path d="M 333.28 39.36
  C 332.91 42.75 335.04 46.02 334.51 50.03
  C 333.99 53.95 333.82 56.69 333.00 59.50
  Q 332.00 62.95 331.65 64.78
  Q 331.60 65.05 331.35 65.18
  Q 331.17 65.27 331.12 65.50
  Q 330.44 68.62 329.93 71.78
  Q 329.88 72.06 329.62 72.16
  Q 329.42 72.25 329.35 72.49
  C 328.28 76.33 327.78 80.48 326.39 84.18
  C 324.68 88.74 323.60 91.76 322.74 95.00
  C 322.47 96.00 322.78 96.84 322.33 97.94
  C 320.97 101.33 321.12 104.65 319.63 107.55
  Q 319.41 107.98 319.39 108.47
  C 319.28 110.77 318.24 112.76 317.98 114.93
  Q 317.77 116.61 317.36 117.74
  Q 315.13 123.96 313.98 130.46
  C 313.81 131.44 313.11 132.27 313.12 133.43
  Q 313.13 133.89 312.93 134.32
  C 312.23 135.83 312.47 138.24 311.71 139.31
  Q 311.43 139.71 311.34 140.18
  C 310.61 143.81 309.21 147.21 308.26 150.66
  Q 307.66 152.81 306.95 154.91
  C 306.58 156.00 306.79 157.27 305.93 158.39
  Q 305.63 158.79 305.63 159.29
  C 305.62 161.13 304.67 162.60 304.61 164.53
  Q 304.61 164.81 304.36 164.92
  Q 304.17 165.01 304.10 165.25
  Q 303.31 167.99 302.84 170.80
  Q 302.60 172.28 301.86 174.01
  C 300.85 176.38 300.37 179.93 299.94 181.46
  Q 298.11 188.12 296.35 194.81
  C 296.04 196.02 296.24 197.54 295.10 198.84
  Q 294.77 199.21 294.72 199.70
  Q 294.48 202.02 293.92 203.51
  Q 292.29 207.85 291.71 211.25
  Q 291.69 211.38 291.57 211.37
  Q 291.42 211.37 291.28 211.46
  Q 291.12 211.56 291.13 211.75
  Q 291.20 213.36 290.38 214.75
  A 1.08 1.06 49.3 0 0 290.32 215.69
  Q 290.62 216.42 290.13 216.65
  Q 289.71 216.84 289.64 217.30
  C 289.56 217.88 289.64 218.35 289.45 218.90
  Q 287.25 225.02 285.21 231.19
  Q 283.96 234.99 283.23 236.24
  Q 280.85 240.25 278.85 244.49
  C 278.51 245.20 277.82 245.47 277.36 246.42
  Q 274.80 251.80 272.15 257.14
  Q 270.58 260.31 268.59 263.21
  C 267.15 265.31 264.12 264.06 262.38 263.35
  Q 262.15 263.25 262.00 263.45
  L 259.68 266.32
  A 0.16 0.15 28.0 0 0 259.76 266.56
  L 265.68 268.23
  Q 266.14 268.36 266.17 268.83
  C 266.35 271.47 263.63 273.16 262.84 275.84
  Q 262.09 278.34 261.30 279.69
  Q 259.33 283.00 257.56 286.44
  Q 257.33 286.90 257.41 287.40
  Q 257.48 287.82 257.15 287.92
  Q 256.85 288.01 256.70 288.28
  Q 253.34 294.38 247.93 295.44
  L 251.43 229.49
  Q 252.01 226.03 252.62 222.83
  Q 253.20 219.80 254.17 216.24
  Q 268.93 162.01 283.68 107.77
  Q 283.74 107.56 283.89 107.42
  Q 284.00 107.32 284.05 107.20
  Q 284.11 107.04 284.02 106.81
  Q 283.82 106.33 283.52 106.27
  C 283.96 105.90 284.27 105.74 284.43 105.16
  Q 291.42 79.52 298.38 53.88
  Q 301.02 44.15 303.56 40.68
  C 310.35 31.39 325.07 30.63 333.28 39.36
  Z" fill="#efefef"></path>
<path d="M 333.28 39.36
  Q 340.69 47.30 338.04 57.02
  Q 330.29 85.38 322.62 113.79
  Q 322.42 114.51 322.88 114.99
  Q 322.11 115.11 322.06 115.60
  Q 322.03 115.85 322.02 115.89
  Q 306.86 171.64 291.63 227.36
  C 290.47 231.61 288.88 236.11 287.12 239.52
  Q 276.41 260.36 265.71 281.20
  C 265.58 281.45 265.59 281.68 265.55 281.95
  Q 265.40 281.99 265.27 282.08
  Q 265.17 282.15 265.09 282.29
  Q 260.85 290.50 256.66 298.77
  C 255.10 301.85 252.48 303.88 249.27 301.68
  Q 246.67 299.90 247.93 295.44
  Q 253.34 294.38 256.70 288.28
  Q 256.85 288.01 257.15 287.92
  Q 257.48 287.82 257.41 287.40
  Q 257.33 286.90 257.56 286.44
  Q 259.33 283.00 261.30 279.69
  Q 262.09 278.34 262.84 275.84
  C 263.63 273.16 266.35 271.47 266.17 268.83
  Q 266.14 268.36 265.68 268.23
  L 259.76 266.56
  A 0.16 0.15 28.0 0 1 259.68 266.32
  L 262.00 263.45
  Q 262.15 263.25 262.38 263.35
  C 264.12 264.06 267.15 265.31 268.59 263.21
  Q 270.58 260.31 272.15 257.14
  Q 274.80 251.80 277.36 246.42
  C 277.82 245.47 278.51 245.20 278.85 244.49
  Q 280.85 240.25 283.23 236.24
  Q 283.96 234.99 285.21 231.19
  Q 287.25 225.02 289.45 218.90
  C 289.64 218.35 289.56 217.88 289.64 217.30
  Q 289.71 216.84 290.13 216.65
  Q 290.62 216.42 290.32 215.69
  A 1.08 1.06 49.3 0 1 290.38 214.75
  Q 291.20 213.36 291.13 211.75
  Q 291.12 211.56 291.28 211.46
  Q 291.42 211.37 291.57 211.37
  Q 291.69 211.38 291.71 211.25
  Q 292.29 207.85 293.92 203.51
  Q 294.48 202.02 294.72 199.70
  Q 294.77 199.21 295.10 198.84
  C 296.24 197.54 296.04 196.02 296.35 194.81
  Q 298.11 188.12 299.94 181.46
  C 300.37 179.93 300.85 176.38 301.86 174.01
  Q 302.60 172.28 302.84 170.80
  Q 303.31 167.99 304.10 165.25
  Q 304.17 165.01 304.36 164.92
  Q 304.61 164.81 304.61 164.53
  C 304.67 162.60 305.62 161.13 305.63 159.29
  Q 305.63 158.79 305.93 158.39
  C 306.79 157.27 306.58 156.00 306.95 154.91
  Q 307.66 152.81 308.26 150.66
  C 309.21 147.21 310.61 143.81 311.34 140.18
  Q 311.43 139.71 311.71 139.31
  C 312.47 138.24 312.23 135.83 312.93 134.32
  Q 313.13 133.89 313.12 133.43
  C 313.11 132.27 313.81 131.44 313.98 130.46
  Q 315.13 123.96 317.36 117.74
  Q 317.77 116.61 317.98 114.93
  C 318.24 112.76 319.28 110.77 319.39 108.47
  Q 319.41 107.98 319.63 107.55
  C 321.12 104.65 320.97 101.33 322.33 97.94
  C 322.78 96.84 322.47 96.00 322.74 95.00
  C 323.60 91.76 324.68 88.74 326.39 84.18
  C 327.78 80.48 328.28 76.33 329.35 72.49
  Q 329.42 72.25 329.62 72.16
  Q 329.88 72.06 329.93 71.78
  Q 330.44 68.62 331.12 65.50
  Q 331.17 65.27 331.35 65.18
  Q 331.60 65.05 331.65 64.78
  Q 332.00 62.95 333.00 59.50
  C 333.82 56.69 333.99 53.95 334.51 50.03
  C 335.04 46.02 332.91 42.75 333.28 39.36
  Z" fill="#c2c2c2"></path>
<path d="M 283.52 106.27
  Q 283.82 106.33 284.02 106.81
  Q 284.11 107.04 284.05 107.20
  Q 284.00 107.32 283.89 107.42
  Q 283.74 107.56 283.68 107.77
  Q 268.93 162.01 254.17 216.24
  Q 253.20 219.80 252.62 222.83
  Q 252.01 226.03 251.43 229.49
  L 222.19 122.43
  L 283.52 106.27
  Z" fill="#ffffff"></path>
<path d="M 322.88 114.99
  Q 326.53 121.53 329.32 131.50
  Q 335.55 153.70 341.49 175.93
  Q 339.32 177.19 339.96 180.09
  A 0.69 0.68 75.0 0 1 339.51 180.89
  Q 339.07 181.04 338.85 181.48
  A 0.93 0.89 53.3 0 0 338.77 182.12
  Q 339.54 185.41 337.04 187.26
  Q 336.73 187.48 337.00 187.75
  L 337.25 187.99
  Q 337.56 188.31 337.38 188.72
  Q 336.51 190.71 336.93 192.93
  Q 337.04 193.52 336.55 193.86
  Q 335.46 194.62 335.93 196.03
  A 0.69 0.68 72.0 0 1 335.50 196.89
  Q 335.33 196.95 335.21 197.04
  Q 334.88 197.29 334.88 197.70
  L 334.88 200.04
  Q 334.88 200.67 334.33 200.97
  Q 333.73 201.30 333.89 202.11
  A 0.74 0.74 0.0 0 1 333.53 202.89
  Q 332.49 203.45 332.93 204.79
  A 0.75 0.75 0.0 0 1 332.61 205.66
  Q 331.73 206.22 331.88 207.25
  Q 331.95 207.75 331.46 207.90
  Q 331.18 207.98 331.04 208.28
  Q 330.88 208.63 331.15 208.89
  L 331.36 209.11
  Q 331.70 209.45 331.37 209.80
  C 330.23 210.99 331.47 212.59 330.34 213.99
  Q 330.01 214.40 329.97 214.92
  Q 329.76 217.76 328.07 220.12
  A 1.02 1.00 -29.6 0 0 327.90 220.71
  Q 327.96 221.65 327.12 222.06
  A 0.52 0.52 0.0 0 0 326.89 222.78
  L 327.15 223.25
  Q 327.38 223.67 327.18 224.10
  Q 326.51 225.51 325.86 226.97
  C 325.53 227.72 324.83 228.25 324.84 229.24
  Q 324.84 229.72 324.65 230.17
  C 324.04 231.63 323.66 233.23 322.96 234.58
  Q 318.65 242.83 315.14 251.44
  C 314.25 253.61 312.76 256.26 311.66 259.02
  Q 309.83 263.63 304.72 272.65
  C 303.69 274.47 302.79 276.70 301.63 278.68
  C 300.28 280.98 299.58 283.90 297.66 286.20
  Q 297.34 286.58 296.86 286.71
  Q 296.53 286.81 296.27 287.02
  Q 295.89 287.34 295.89 287.83
  Q 295.88 288.65 295.28 288.63
  Q 294.73 288.61 294.33 288.98
  C 292.42 290.71 292.14 293.11 289.18 293.94
  A 0.71 0.69 5.9 0 0 288.75 294.28
  L 288.54 294.65
  Q 288.30 295.10 287.81 294.96
  Q 286.03 294.46 285.67 295.99
  A 0.69 0.68 -85.6 0 1 285.04 296.53
  Q 283.94 296.59 283.63 297.69
  A 1.65 1.64 16.9 0 1 281.53 298.81
  Q 279.63 298.17 278.29 299.43
  Q 277.93 299.77 277.43 299.78
  L 270.61 299.96
  L 265.55 281.95
  C 265.59 281.68 265.58 281.45 265.71 281.20
  Q 276.41 260.36 287.12 239.52
  C 288.88 236.11 290.47 231.61 291.63 227.36
  Q 306.86 171.64 322.02 115.89
  Q 322.03 115.85 322.06 115.60
  Q 322.11 115.11 322.88 114.99
  Z" fill="#efefef"></path>
<path d="M 222.19 122.43
  L 251.43 229.49
  L 247.93 295.44
  Q 246.67 299.90 249.27 301.68
  C 252.48 303.88 255.10 301.85 256.66 298.77
  Q 260.85 290.50 265.09 282.29
  Q 265.17 282.15 265.27 282.08
  Q 265.40 281.99 265.55 281.95
  L 270.61 299.96
  L 299.39 405.54
  Q 299.39 406.15 299.44 405.81
  Q 287.06 409.10 274.82 412.51
  Q 272.86 413.05 271.18 413.07
  L 193.72 129.94
  L 222.19 122.43
  Z" fill="#55a2fc"></path>
<path d="M 193.72 129.94
  L 271.18 413.07
  Q 270.84 413.21 270.86 413.33
  L 242.68 420.67
  Q 242.61 420.71 242.54 420.76
  L 165.30 137.44
  L 193.72 129.94
  Z" fill="#79cca2"></path>
<path d="M 165.30 137.44
  L 242.54 420.76
  L 213.92 428.12
  L 136.72 145.23
  L 165.30 137.44
  Z" fill="#fed155"></path>
<path d="M 136.72 145.23
  L 213.92 428.12
  Q 213.86 428.02 213.71 427.95
  Q 213.54 427.87 213.35 427.92
  C 199.63 431.86 186.83 425.38 179.87 413.16
  Q 178.47 409.56 177.22 404.99
  Q 147.74 297.01 118.33 189.02
  C 116.27 181.46 113.80 172.74 116.01 165.23
  Q 120.56 149.73 136.72 145.23
  Z" fill="#ff4f68"></path>
<path d="M 341.49 175.93
  L 390.55 356.87
  C 390.37 360.76 390.35 364.70 389.16 368.27
  C 383.96 383.77 371.11 386.97 356.87 390.68
  Q 330.05 397.68 303.25 404.77
  Q 301.32 405.28 299.39 405.54
  L 270.61 299.96
  L 277.43 299.78
  Q 277.93 299.77 278.29 299.43
  Q 279.63 298.17 281.53 298.81
  A 1.65 1.64 16.9 0 0 283.63 297.69
  Q 283.94 296.59 285.04 296.53
  A 0.69 0.68 -85.6 0 0 285.67 295.99
  Q 286.03 294.46 287.81 294.96
  Q 288.30 295.10 288.54 294.65
  L 288.75 294.28
  A 0.71 0.69 5.9 0 1 289.18 293.94
  C 292.14 293.11 292.42 290.71 294.33 288.98
  Q 294.73 288.61 295.28 288.63
  Q 295.88 288.65 295.89 287.83
  Q 295.89 287.34 296.27 287.02
  Q 296.53 286.81 296.86 286.71
  Q 297.34 286.58 297.66 286.20
  C 299.58 283.90 300.28 280.98 301.63 278.68
  C 302.79 276.70 303.69 274.47 304.72 272.65
  Q 309.83 263.63 311.66 259.02
  C 312.76 256.26 314.25 253.61 315.14 251.44
  Q 318.65 242.83 322.96 234.58
  C 323.66 233.23 324.04 231.63 324.65 230.17
  Q 324.84 229.72 324.84 229.24
  C 324.83 228.25 325.53 227.72 325.86 226.97
  Q 326.51 225.51 327.18 224.10
  Q 327.38 223.67 327.15 223.25
  L 326.89 222.78
  A 0.52 0.52 0.0 0 1 327.12 222.06
  Q 327.96 221.65 327.90 220.71
  A 1.02 1.00 -29.6 0 1 328.07 220.12
  Q 329.76 217.76 329.97 214.92
  Q 330.01 214.40 330.34 213.99
  C 331.47 212.59 330.23 210.99 331.37 209.80
  Q 331.70 209.45 331.36 209.11
  L 331.15 208.89
  Q 330.88 208.63 331.04 208.28
  Q 331.18 207.98 331.46 207.90
  Q 331.95 207.75 331.88 207.25
  Q 331.73 206.22 332.61 205.66
  A 0.75 0.75 0.0 0 0 332.93 204.79
  Q 332.49 203.45 333.53 202.89
  A 0.74 0.74 0.0 0 0 333.89 202.11
  Q 333.73 201.30 334.33 200.97
  Q 334.88 200.67 334.88 200.04
  L 334.88 197.70
  Q 334.88 197.29 335.21 197.04
  Q 335.33 196.95 335.50 196.89
  A 0.69 0.68 72.0 0 0 335.93 196.03
  Q 335.46 194.62 336.55 193.86
  Q 337.04 193.52 336.93 192.93
  Q 336.51 190.71 337.38 188.72
  Q 337.56 188.31 337.25 187.99
  L 337.00 187.75
  Q 336.73 187.48 337.04 187.26
  Q 339.54 185.41 338.77 182.12
  A 0.93 0.89 53.3 0 1 338.85 181.48
  Q 339.07 181.04 339.51 180.89
  A 0.69 0.68 75.0 0 0 339.96 180.09
  Q 339.32 177.19 341.49 175.93
  Z" fill="#ffffff"></path>
<path d="M 390.55 356.87
  Q 392.55 362.53 393.16 368.40
  C 394.53 381.74 386.43 393.13 373.78 397.32
  Q 365.60 400.03 361.00 401.23
  Q 331.87 408.85 302.83 416.50
  A 0.47 0.46 -14.8 0 1 302.27 416.18
  L 299.44 405.81
  Q 299.39 406.15 299.39 405.54
  Q 301.32 405.28 303.25 404.77
  Q 330.05 397.68 356.87 390.68
  C 371.11 386.97 383.96 383.77 389.16 368.27
  C 390.35 364.70 390.37 360.76 390.55 356.87
  Z" fill="#c2c2c2"></path>
<path d="M 179.87 413.16
  C 186.83 425.38 199.63 431.86 213.35 427.92
  Q 213.54 427.87 213.71 427.95
  Q 213.86 428.02 213.92 428.12
  L 216.85 438.85
  Q 209.79 440.47 206.25 440.01
  C 191.05 438.00 182.56 427.73 179.87 413.16
  Z" fill="#c23c4f"></path>
<path d="M 270.86 413.33
  Q 272.53 417.86 273.47 422.43
  Q 273.52 422.67 273.68 422.86
  Q 273.95 423.20 274.00 423.22
  Q 275.06 423.79 273.90 424.10
  L 245.58 431.53
  L 242.68 420.67
  L 270.86 413.33
  Z" fill="#5c9b7b"></path>
<path d="M 242.54 420.76
  Q 242.61 420.71 242.68 420.67
  L 245.58 431.53
  L 216.85 438.85
  L 213.92 428.12
  L 242.54 420.76
  Z" fill="#c19f41"></path>
</svg>
