<svg viewBox="0.00 0.00 256.00 256.00" version="1.1" xmlns="http://www.w3.org/2000/svg">
<g stroke-linecap="butt" fill="none" stroke-width="2.00">
<path d="M 226.37 256.00
  Q 226.34 255.44 227.19 255.48
  Q 227.69 255.50 227.87 255.03
  Q 228.20 254.13 227.55 254.06
  A 0.73 0.72 -4.6 0 1 226.92 253.53
  Q 226.81 253.14 226.47 252.89
  A 0.37 0.36 9.0 0 0 225.90 253.30
  Q 226.25 254.26 225.56 254.92
  A 0.35 0.34 66.5 0 1 224.98 254.69
  Q 224.91 253.57 225.60 252.67
  Q 225.81 252.40 225.68 252.08
  Q 225.62 251.92 225.66 251.73
  Q 225.68 251.60 225.56 251.53
  Q 225.20 251.35 224.82 251.98
  A 0.47 0.47 0.0 0 1 223.95 251.75
  L 223.93 250.23
  A 0.19 0.19 0.0 0 0 223.58 250.13
  Q 223.14 250.82 222.39 250.76
  A 0.27 0.27 0.0 0 1 222.20 250.31
  Q 222.34 250.16 222.51 250.14
  Q 222.89 250.10 222.92 249.72
  Q 222.97 249.25 222.44 249.01
  Q 222.12 248.87 221.77 248.86
  Q 221.53 248.85 221.33 248.70
  Q 220.87 248.33 221.00 247.87
  A 0.41 0.41 0.0 0 0 220.72 247.37
  Q 219.57 247.07 219.63 245.85
  A 0.54 0.53 -2.7 0 0 219.02 245.30
  Q 216.88 245.60 216.74 243.77
  Q 216.68 243.03 215.94 243.12
  Q 215.67 243.15 215.43 243.07
  A 0.80 0.79 -82.4 0 1 214.89 242.36
  Q 214.81 240.80 213.24 240.86
  A 1.40 1.39 -85.4 0 1 211.82 239.19
  Q 212.05 238.05 210.85 238.04
  Q 210.26 238.03 210.06 238.58
  Q 209.99 238.76 209.86 238.89
  Q 209.38 239.36 209.11 238.75
  Q 208.56 237.52 209.17 237.04
  Q 209.42 236.85 209.72 236.83
  L 210.49 236.78
  Q 211.21 236.73 210.62 236.30
  Q 210.10 235.93 209.80 235.35
  A 0.38 0.37 37.5 0 0 209.10 235.44
  Q 208.95 236.12 208.17 236.12
  A 0.40 0.40 0.0 0 1 207.92 235.41
  Q 208.64 234.84 208.70 233.98
  Q 208.74 233.58 208.36 233.72
  Q 207.48 234.06 206.92 234.76
  Q 206.61 235.15 206.18 234.90
  Q 205.80 234.67 206.01 234.26
  Q 206.15 233.98 206.55 233.88
  Q 206.88 233.81 206.89 233.47
  Q 206.91 233.08 206.75 232.74
  Q 206.49 232.18 206.08 232.63
  Q 205.73 233.01 205.22 232.87
  Q 204.61 232.71 205.02 232.23
  Q 205.24 231.97 205.28 231.61
  Q 205.31 231.35 205.05 231.31
  Q 203.92 231.09 203.69 229.94
  Q 203.59 229.45 203.10 229.36
  L 201.52 229.07
  Q 201.15 229.00 201.05 229.36
  Q 200.98 229.62 200.75 229.77
  Q 200.40 229.99 200.17 229.77
  Q 199.79 229.40 200.24 229.14
  Q 201.15 228.61 200.87 227.53
  Q 200.74 227.01 200.22 227.10
  Q 199.70 227.19 199.24 226.99
  Q 198.91 226.85 198.91 226.49
  L 198.91 225.91
  Q 198.91 225.34 198.37 225.16
  Q 198.04 225.05 197.68 225.05
  Q 197.26 225.05 197.03 225.40
  Q 196.55 226.16 195.54 225.70
  Q 194.94 225.43 195.54 225.16
  Q 195.94 224.98 196.49 225.04
  A 0.25 0.24 -77.8 0 0 196.76 224.86
  Q 196.84 224.55 196.77 224.25
  Q 196.74 224.11 196.70 224.11
  Q 196.56 224.10 196.41 224.09
  A 0.41 0.39 83.0 0 1 196.04 223.79
  Q 195.37 221.42 193.72 219.58
  Q 193.43 219.25 193.14 219.57
  L 192.85 219.88
  Q 192.45 220.32 192.10 219.84
  Q 191.70 219.30 192.06 218.66
  Q 192.15 218.50 192.00 218.39
  L 191.66 218.15
  Q 191.54 218.06 191.45 218.18
  Q 191.01 218.81 190.38 219.10
  A 0.33 0.33 0.0 0 1 189.92 218.83
  Q 189.86 218.09 190.51 217.89
  Q 191.08 217.73 190.78 217.22
  Q 190.66 217.01 190.69 216.75
  Q 190.75 216.14 190.16 216.65
  Q 189.87 216.90 189.71 216.97
  Q 189.19 217.19 188.96 216.65
  A 0.63 0.62 -38.2 0 1 189.04 216.03
  L 189.26 215.76
  Q 189.54 215.39 189.08 215.37
  Q 187.53 215.30 187.65 213.85
  Q 187.71 213.17 187.03 213.28
  Q 184.77 213.67 184.84 211.67
  A 0.55 0.54 87.3 0 0 184.23 211.11
  Q 182.86 211.28 182.61 209.92
  Q 182.50 209.37 181.94 209.34
  Q 181.16 209.31 180.53 209.80
  A 0.13 0.13 0.0 0 1 180.36 209.79
  Q 180.26 209.69 180.16 209.59
  Q 179.94 209.38 180.16 209.16
  L 180.52 208.81
  Q 180.73 208.59 180.51 208.39
  C 178.71 206.74 178.68 203.32 175.68 204.26" stroke="#605eff"></path>
<path d="M 175.68 204.26
  L 184.04 139.71
  A 0.47 0.46 -86.5 0 1 184.50 139.30
  L 212.54 139.31
  Q 213.15 139.31 213.23 138.71
  L 216.88 111.49
  A 0.40 0.39 -86.2 0 0 216.49 111.04
  L 188.02 111.06
  Q 187.46 111.06 187.52 110.50
  C 188.25 102.88 189.67 93.26 195.62 88.05
  C 201.58 82.83 209.20 82.82 216.36 81.45
  C 219.91 80.78 221.99 79.27 222.42 75.67
  Q 223.66 65.34 224.94 55.08
  Q 225.00 54.63 224.56 54.49
  Q 216.80 52.08 208.75 51.93
  C 173.69 51.26 147.87 75.59 144.99 110.39
  A 0.74 0.72 -87.4 0 1 144.27 111.06
  L 105.09 111.06
  Q 104.48 111.06 104.55 110.45
  C 105.70 100.12 107.23 89.47 118.26 84.68
  C 123.13 82.56 128.26 82.32 133.24 81.50
  C 137.72 80.76 138.92 78.94 139.52 74.43
  Q 140.79 64.81 141.91 55.14
  Q 141.97 54.64 141.48 54.48
  Q 136.72 52.93 131.76 52.39
  C 106.34 49.63 81.16 61.14 69.31 84.37" stroke="#b4b0ff"></path>
<path d="M 69.31 84.37
  Q 68.10 83.74 67.50 85.71
  A 0.27 0.27 0.0 0 1 66.99 85.73
  Q 66.79 85.21 66.91 84.64
  Q 67.02 84.12 66.48 84.12
  L 65.55 84.12
  A 0.61 0.61 0.0 0 1 64.95 83.63
  Q 64.58 81.88 63.12 80.84
  Q 62.71 80.55 62.94 80.11
  Q 63.01 79.98 63.12 79.89
  Q 63.30 79.73 63.19 79.51
  Q 62.94 78.98 62.49 79.12
  Q 62.20 79.21 62.11 79.51
  Q 62.04 79.76 61.82 79.91
  Q 61.30 80.24 61.04 79.69
  Q 60.82 79.23 60.37 79.00
  Q 59.92 78.77 59.85 78.27
  Q 59.67 77.03 58.49 77.13
  Q 57.82 77.18 57.88 76.51
  Q 57.92 76.09 57.66 75.76
  Q 57.47 75.53 57.26 75.73
  Q 57.09 75.89 56.87 75.87
  Q 56.14 75.80 56.12 75.77
  Q 55.69 75.18 55.91 74.31
  Q 55.96 74.12 55.76 74.12
  L 55.27 74.12
  Q 54.83 74.12 54.88 73.69
  Q 54.93 73.28 54.62 73.13
  Q 54.14 72.91 54.17 73.43
  Q 54.20 73.92 53.74 74.08
  Q 53.52 74.15 53.32 74.05
  Q 53.12 73.94 53.03 73.79
  Q 52.82 73.44 53.11 73.15
  L 53.63 72.63
  Q 53.85 72.41 53.58 72.25
  Q 52.69 71.72 52.87 70.78
  Q 52.96 70.33 52.52 70.18
  Q 51.18 69.71 51.01 70.64
  Q 50.88 71.33 50.27 70.97
  Q 49.72 70.64 49.93 70.09
  Q 50.01 69.88 50.24 69.88
  Q 50.36 69.88 50.49 69.89
  A 0.38 0.38 0.0 0 0 50.88 69.51
  L 50.88 68.63
  Q 50.88 68.12 50.37 68.12
  L 49.55 68.12
  A 0.61 0.59 83.2 0 1 48.97 67.65
  Q 48.52 65.68 46.84 64.55
  Q 46.50 64.32 46.11 64.22
  C 44.93 63.91 44.12 62.95 43.77 61.81
  Q 43.52 61.01 42.50 61.11
  Q 41.87 61.18 41.90 60.55
  Q 41.92 60.08 41.62 59.71
  Q 41.27 59.30 40.99 59.76
  Q 40.72 60.23 40.18 59.99
  A 0.63 0.62 -68.7 0 1 39.85 59.22
  Q 40.28 57.97 39.26 58.11
  Q 38.80 58.18 38.89 57.72
  Q 38.96 57.35 38.66 57.15
  A 0.35 0.35 0.0 0 0 38.12 57.48
  Q 38.19 58.19 37.50 58.12
  Q 37.36 58.10 37.31 58.05
  Q 37.22 57.96 37.12 57.86
  Q 36.77 57.49 37.13 57.12
  L 37.39 56.87
  Q 37.80 56.46 37.35 56.09
  Q 36.72 55.59 36.87 54.78
  Q 36.96 54.33 36.52 54.18
  Q 35.18 53.71 35.01 54.64
  Q 34.88 55.33 34.27 54.97
  Q 33.72 54.64 33.93 54.09
  Q 34.01 53.88 34.24 53.88
  Q 34.36 53.88 34.49 53.89
  A 0.38 0.38 0.0 0 0 34.88 53.51
  L 34.88 52.52
  Q 34.88 51.98 34.36 52.09
  Q 33.84 52.21 33.36 52.04
  A 0.62 0.60 -86.9 0 1 32.96 51.58
  Q 32.59 49.80 31.12 48.84
  Q 30.73 48.59 30.91 48.17
  Q 30.97 48.04 31.06 47.94
  Q 31.32 47.67 31.10 47.36
  Q 30.86 47.01 30.49 47.12
  Q 30.20 47.21 30.11 47.51
  Q 30.04 47.77 29.81 47.91
  Q 29.20 48.29 28.97 47.61
  Q 28.82 47.16 28.33 47.02
  A 0.65 0.65 0.0 0 1 27.87 46.41
  Q 27.83 44.99 26.51 45.12
  A 0.58 0.58 0.0 0 1 25.88 44.50
  Q 25.92 44.10 25.66 43.73
  Q 25.30 43.24 24.99 43.76
  Q 24.71 44.24 24.16 43.96
  A 0.63 0.62 23.3 0 1 23.85 43.21
  Q 24.27 41.99 23.29 42.11
  Q 22.83 42.17 22.88 41.71
  Q 22.94 41.16 22.50 41.11
  Q 22.07 41.06 22.12 41.49
  Q 22.20 42.07 21.66 42.13
  A 0.51 0.50 -24.9 0 1 21.21 41.97
  Q 20.63 41.33 21.34 40.89
  Q 21.93 40.52 21.37 40.10
  Q 20.71 39.60 20.87 38.79
  Q 20.96 38.33 20.52 38.18
  Q 19.18 37.71 19.01 38.64
  Q 18.88 39.33 18.27 38.97
  Q 17.72 38.64 17.93 38.09
  Q 18.01 37.88 18.24 37.88
  Q 18.36 37.88 18.49 37.89
  A 0.38 0.38 0.0 0 0 18.88 37.51
  L 18.88 36.50
  Q 18.88 35.96 18.36 36.08
  Q 17.08 36.38 16.85 35.31
  A 4.00 3.20 82.5 0 0 13.56 32.15
  Q 12.69 32.15 11.93 30.20
  Q 11.53 29.16 10.44 29.09
  Q 9.86 29.05 9.89 28.47
  Q 9.91 28.08 9.66 27.76
  Q 9.48 27.52 9.26 27.73
  Q 9.09 27.89 8.87 27.87
  Q 8.14 27.80 8.12 27.77
  Q 7.69 27.18 7.91 26.31
  Q 7.96 26.12 7.76 26.12
  L 7.26 26.12
  Q 6.82 26.12 6.89 25.69
  Q 6.95 25.34 6.65 25.15
  A 0.35 0.35 0.0 0 0 6.12 25.48
  Q 6.19 26.19 5.50 26.12
  Q 5.36 26.10 5.31 26.05
  Q 5.22 25.96 5.12 25.86
  Q 4.77 25.49 5.13 25.12
  L 5.39 24.87
  Q 5.81 24.46 5.35 24.09
  Q 4.73 23.60 4.87 22.79
  Q 4.95 22.33 4.51 22.17
  Q 3.10 21.66 2.90 22.88
  A 0.41 0.41 0.0 0 1 2.09 22.85
  Q 2.03 22.11 1.44 22.09
  A 0.61 0.61 0.0 0 1 0.96 21.14
  Q 1.10 20.93 1.15 20.71
  Q 1.25 20.32 0.98 20.01
  Q 0.44 19.38 0.65 18.40
  Q 0.65 18.38 0.64 18.37
  Q 0.61 18.36 0.64 18.38
  Q 0.65 18.39 0.65 18.40
  Q 0.53 19.01 0.62 20.98
  Q 0.66 21.87 0.00 22.25" stroke="#605eff"></path>
<path d="M 69.31 84.37
  Q 63.35 96.83 62.21 110.47
  A 0.64 0.64 0.0 0 1 61.56 111.06
  L 44.31 111.06
  Q 43.68 111.06 43.61 111.69
  L 40.47 139.00
  A 0.28 0.28 0.0 0 0 40.75 139.31
  L 58.25 139.31
  Q 58.54 139.31 58.51 139.61
  L 44.54 256.00" stroke="#acadff"></path>
<path d="M 175.68 204.26
  L 168.98 256.00" stroke="#acadff"></path>
<path d="M 127.25 256.00
  L 141.22 139.88
  Q 141.29 139.31 140.72 139.31
  L 101.53 139.31
  Q 101.21 139.31 101.17 139.62
  L 86.14 256.00" stroke="#acadff"></path>
</g>
<path d="M 0.00 0.00
  L 256.00 0.00
  L 256.00 256.00
  L 226.37 256.00
  Q 226.34 255.44 227.19 255.48
  Q 227.69 255.50 227.87 255.03
  Q 228.20 254.13 227.55 254.06
  A 0.73 0.72 -4.6 0 1 226.92 253.53
  Q 226.81 253.14 226.47 252.89
  A 0.37 0.36 9.0 0 0 225.90 253.30
  Q 226.25 254.26 225.56 254.92
  A 0.35 0.34 66.5 0 1 224.98 254.69
  Q 224.91 253.57 225.60 252.67
  Q 225.81 252.40 225.68 252.08
  Q 225.62 251.92 225.66 251.73
  Q 225.68 251.60 225.56 251.53
  Q 225.20 251.35 224.82 251.98
  A 0.47 0.47 0.0 0 1 223.95 251.75
  L 223.93 250.23
  A 0.19 0.19 0.0 0 0 223.58 250.13
  Q 223.14 250.82 222.39 250.76
  A 0.27 0.27 0.0 0 1 222.20 250.31
  Q 222.34 250.16 222.51 250.14
  Q 222.89 250.10 222.92 249.72
  Q 222.97 249.25 222.44 249.01
  Q 222.12 248.87 221.77 248.86
  Q 221.53 248.85 221.33 248.70
  Q 220.87 248.33 221.00 247.87
  A 0.41 0.41 0.0 0 0 220.72 247.37
  Q 219.57 247.07 219.63 245.85
  A 0.54 0.53 -2.7 0 0 219.02 245.30
  Q 216.88 245.60 216.74 243.77
  Q 216.68 243.03 215.94 243.12
  Q 215.67 243.15 215.43 243.07
  A 0.80 0.79 -82.4 0 1 214.89 242.36
  Q 214.81 240.80 213.24 240.86
  A 1.40 1.39 -85.4 0 1 211.82 239.19
  Q 212.05 238.05 210.85 238.04
  Q 210.26 238.03 210.06 238.58
  Q 209.99 238.76 209.86 238.89
  Q 209.38 239.36 209.11 238.75
  Q 208.56 237.52 209.17 237.04
  Q 209.42 236.85 209.72 236.83
  L 210.49 236.78
  Q 211.21 236.73 210.62 236.30
  Q 210.10 235.93 209.80 235.35
  A 0.38 0.37 37.5 0 0 209.10 235.44
  Q 208.95 236.12 208.17 236.12
  A 0.40 0.40 0.0 0 1 207.92 235.41
  Q 208.64 234.84 208.70 233.98
  Q 208.74 233.58 208.36 233.72
  Q 207.48 234.06 206.92 234.76
  Q 206.61 235.15 206.18 234.90
  Q 205.80 234.67 206.01 234.26
  Q 206.15 233.98 206.55 233.88
  Q 206.88 233.81 206.89 233.47
  Q 206.91 233.08 206.75 232.74
  Q 206.49 232.18 206.08 232.63
  Q 205.73 233.01 205.22 232.87
  Q 204.61 232.71 205.02 232.23
  Q 205.24 231.97 205.28 231.61
  Q 205.31 231.35 205.05 231.31
  Q 203.92 231.09 203.69 229.94
  Q 203.59 229.45 203.10 229.36
  L 201.52 229.07
  Q 201.15 229.00 201.05 229.36
  Q 200.98 229.62 200.75 229.77
  Q 200.40 229.99 200.17 229.77
  Q 199.79 229.40 200.24 229.14
  Q 201.15 228.61 200.87 227.53
  Q 200.74 227.01 200.22 227.10
  Q 199.70 227.19 199.24 226.99
  Q 198.91 226.85 198.91 226.49
  L 198.91 225.91
  Q 198.91 225.34 198.37 225.16
  Q 198.04 225.05 197.68 225.05
  Q 197.26 225.05 197.03 225.40
  Q 196.55 226.16 195.54 225.70
  Q 194.94 225.43 195.54 225.16
  Q 195.94 224.98 196.49 225.04
  A 0.25 0.24 -77.8 0 0 196.76 224.86
  Q 196.84 224.55 196.77 224.25
  Q 196.74 224.11 196.70 224.11
  Q 196.56 224.10 196.41 224.09
  A 0.41 0.39 83.0 0 1 196.04 223.79
  Q 195.37 221.42 193.72 219.58
  Q 193.43 219.25 193.14 219.57
  L 192.85 219.88
  Q 192.45 220.32 192.10 219.84
  Q 191.70 219.30 192.06 218.66
  Q 192.15 218.50 192.00 218.39
  L 191.66 218.15
  Q 191.54 218.06 191.45 218.18
  Q 191.01 218.81 190.38 219.10
  A 0.33 0.33 0.0 0 1 189.92 218.83
  Q 189.86 218.09 190.51 217.89
  Q 191.08 217.73 190.78 217.22
  Q 190.66 217.01 190.69 216.75
  Q 190.75 216.14 190.16 216.65
  Q 189.87 216.90 189.71 216.97
  Q 189.19 217.19 188.96 216.65
  A 0.63 0.62 -38.2 0 1 189.04 216.03
  L 189.26 215.76
  Q 189.54 215.39 189.08 215.37
  Q 187.53 215.30 187.65 213.85
  Q 187.71 213.17 187.03 213.28
  Q 184.77 213.67 184.84 211.67
  A 0.55 0.54 87.3 0 0 184.23 211.11
  Q 182.86 211.28 182.61 209.92
  Q 182.50 209.37 181.94 209.34
  Q 181.16 209.31 180.53 209.80
  A 0.13 0.13 0.0 0 1 180.36 209.79
  Q 180.26 209.69 180.16 209.59
  Q 179.94 209.38 180.16 209.16
  L 180.52 208.81
  Q 180.73 208.59 180.51 208.39
  C 178.71 206.74 178.68 203.32 175.68 204.26
  L 184.04 139.71
  A 0.47 0.46 -86.5 0 1 184.50 139.30
  L 212.54 139.31
  Q 213.15 139.31 213.23 138.71
  L 216.88 111.49
  A 0.40 0.39 -86.2 0 0 216.49 111.04
  L 188.02 111.06
  Q 187.46 111.06 187.52 110.50
  C 188.25 102.88 189.67 93.26 195.62 88.05
  C 201.58 82.83 209.20 82.82 216.36 81.45
  C 219.91 80.78 221.99 79.27 222.42 75.67
  Q 223.66 65.34 224.94 55.08
  Q 225.00 54.63 224.56 54.49
  Q 216.80 52.08 208.75 51.93
  C 173.69 51.26 147.87 75.59 144.99 110.39
  A 0.74 0.72 -87.4 0 1 144.27 111.06
  L 105.09 111.06
  Q 104.48 111.06 104.55 110.45
  C 105.70 100.12 107.23 89.47 118.26 84.68
  C 123.13 82.56 128.26 82.32 133.24 81.50
  C 137.72 80.76 138.92 78.94 139.52 74.43
  Q 140.79 64.81 141.91 55.14
  Q 141.97 54.64 141.48 54.48
  Q 136.72 52.93 131.76 52.39
  C 106.34 49.63 81.16 61.14 69.31 84.37
  Q 68.10 83.74 67.50 85.71
  A 0.27 0.27 0.0 0 1 66.99 85.73
  Q 66.79 85.21 66.91 84.64
  Q 67.02 84.12 66.48 84.12
  L 65.55 84.12
  A 0.61 0.61 0.0 0 1 64.95 83.63
  Q 64.58 81.88 63.12 80.84
  Q 62.71 80.55 62.94 80.11
  Q 63.01 79.98 63.12 79.89
  Q 63.30 79.73 63.19 79.51
  Q 62.94 78.98 62.49 79.12
  Q 62.20 79.21 62.11 79.51
  Q 62.04 79.76 61.82 79.91
  Q 61.30 80.24 61.04 79.69
  Q 60.82 79.23 60.37 79.00
  Q 59.92 78.77 59.85 78.27
  Q 59.67 77.03 58.49 77.13
  Q 57.82 77.18 57.88 76.51
  Q 57.92 76.09 57.66 75.76
  Q 57.47 75.53 57.26 75.73
  Q 57.09 75.89 56.87 75.87
  Q 56.14 75.80 56.12 75.77
  Q 55.69 75.18 55.91 74.31
  Q 55.96 74.12 55.76 74.12
  L 55.27 74.12
  Q 54.83 74.12 54.88 73.69
  Q 54.93 73.28 54.62 73.13
  Q 54.14 72.91 54.17 73.43
  Q 54.20 73.92 53.74 74.08
  Q 53.52 74.15 53.32 74.05
  Q 53.12 73.94 53.03 73.79
  Q 52.82 73.44 53.11 73.15
  L 53.63 72.63
  Q 53.85 72.41 53.58 72.25
  Q 52.69 71.72 52.87 70.78
  Q 52.96 70.33 52.52 70.18
  Q 51.18 69.71 51.01 70.64
  Q 50.88 71.33 50.27 70.97
  Q 49.72 70.64 49.93 70.09
  Q 50.01 69.88 50.24 69.88
  Q 50.36 69.88 50.49 69.89
  A 0.38 0.38 0.0 0 0 50.88 69.51
  L 50.88 68.63
  Q 50.88 68.12 50.37 68.12
  L 49.55 68.12
  A 0.61 0.59 83.2 0 1 48.97 67.65
  Q 48.52 65.68 46.84 64.55
  Q 46.50 64.32 46.11 64.22
  C 44.93 63.91 44.12 62.95 43.77 61.81
  Q 43.52 61.01 42.50 61.11
  Q 41.87 61.18 41.90 60.55
  Q 41.92 60.08 41.62 59.71
  Q 41.27 59.30 40.99 59.76
  Q 40.72 60.23 40.18 59.99
  A 0.63 0.62 -68.7 0 1 39.85 59.22
  Q 40.28 57.97 39.26 58.11
  Q 38.80 58.18 38.89 57.72
  Q 38.96 57.35 38.66 57.15
  A 0.35 0.35 0.0 0 0 38.12 57.48
  Q 38.19 58.19 37.50 58.12
  Q 37.36 58.10 37.31 58.05
  Q 37.22 57.96 37.12 57.86
  Q 36.77 57.49 37.13 57.12
  L 37.39 56.87
  Q 37.80 56.46 37.35 56.09
  Q 36.72 55.59 36.87 54.78
  Q 36.96 54.33 36.52 54.18
  Q 35.18 53.71 35.01 54.64
  Q 34.88 55.33 34.27 54.97
  Q 33.72 54.64 33.93 54.09
  Q 34.01 53.88 34.24 53.88
  Q 34.36 53.88 34.49 53.89
  A 0.38 0.38 0.0 0 0 34.88 53.51
  L 34.88 52.52
  Q 34.88 51.98 34.36 52.09
  Q 33.84 52.21 33.36 52.04
  A 0.62 0.60 -86.9 0 1 32.96 51.58
  Q 32.59 49.80 31.12 48.84
  Q 30.73 48.59 30.91 48.17
  Q 30.97 48.04 31.06 47.94
  Q 31.32 47.67 31.10 47.36
  Q 30.86 47.01 30.49 47.12
  Q 30.20 47.21 30.11 47.51
  Q 30.04 47.77 29.81 47.91
  Q 29.20 48.29 28.97 47.61
  Q 28.82 47.16 28.33 47.02
  A 0.65 0.65 0.0 0 1 27.87 46.41
  Q 27.83 44.99 26.51 45.12
  A 0.58 0.58 0.0 0 1 25.88 44.50
  Q 25.92 44.10 25.66 43.73
  Q 25.30 43.24 24.99 43.76
  Q 24.71 44.24 24.16 43.96
  A 0.63 0.62 23.3 0 1 23.85 43.21
  Q 24.27 41.99 23.29 42.11
  Q 22.83 42.17 22.88 41.71
  Q 22.94 41.16 22.50 41.11
  Q 22.07 41.06 22.12 41.49
  Q 22.20 42.07 21.66 42.13
  A 0.51 0.50 -24.9 0 1 21.21 41.97
  Q 20.63 41.33 21.34 40.89
  Q 21.93 40.52 21.37 40.10
  Q 20.71 39.60 20.87 38.79
  Q 20.96 38.33 20.52 38.18
  Q 19.18 37.71 19.01 38.64
  Q 18.88 39.33 18.27 38.97
  Q 17.72 38.64 17.93 38.09
  Q 18.01 37.88 18.24 37.88
  Q 18.36 37.88 18.49 37.89
  A 0.38 0.38 0.0 0 0 18.88 37.51
  L 18.88 36.50
  Q 18.88 35.96 18.36 36.08
  Q 17.08 36.38 16.85 35.31
  A 4.00 3.20 82.5 0 0 13.56 32.15
  Q 12.69 32.15 11.93 30.20
  Q 11.53 29.16 10.44 29.09
  Q 9.86 29.05 9.89 28.47
  Q 9.91 28.08 9.66 27.76
  Q 9.48 27.52 9.26 27.73
  Q 9.09 27.89 8.87 27.87
  Q 8.14 27.80 8.12 27.77
  Q 7.69 27.18 7.91 26.31
  Q 7.96 26.12 7.76 26.12
  L 7.26 26.12
  Q 6.82 26.12 6.89 25.69
  Q 6.95 25.34 6.65 25.15
  A 0.35 0.35 0.0 0 0 6.12 25.48
  Q 6.19 26.19 5.50 26.12
  Q 5.36 26.10 5.31 26.05
  Q 5.22 25.96 5.12 25.86
  Q 4.77 25.49 5.13 25.12
  L 5.39 24.87
  Q 5.81 24.46 5.35 24.09
  Q 4.73 23.60 4.87 22.79
  Q 4.95 22.33 4.51 22.17
  Q 3.10 21.66 2.90 22.88
  A 0.41 0.41 0.0 0 1 2.09 22.85
  Q 2.03 22.11 1.44 22.09
  A 0.61 0.61 0.0 0 1 0.96 21.14
  Q 1.10 20.93 1.15 20.71
  Q 1.25 20.32 0.98 20.01
  Q 0.44 19.38 0.65 18.40
  Q 0.65 18.38 0.64 18.37
  Q 0.61 18.36 0.64 18.38
  Q 0.65 18.39 0.65 18.40
  Q 0.53 19.01 0.62 20.98
  Q 0.66 21.87 0.00 22.25
  L 0.00 0.00
  Z" fill="#6860ff"></path>
<path d="M 69.31 84.37
  Q 63.35 96.83 62.21 110.47
  A 0.64 0.64 0.0 0 1 61.56 111.06
  L 44.31 111.06
  Q 43.68 111.06 43.61 111.69
  L 40.47 139.00
  A 0.28 0.28 0.0 0 0 40.75 139.31
  L 58.25 139.31
  Q 58.54 139.31 58.51 139.61
  L 44.54 256.00
  L 0.00 256.00
  L 0.00 22.25
  Q 0.66 21.87 0.62 20.98
  Q 0.53 19.01 0.65 18.40
  Q 0.65 18.39 0.64 18.38
  Q 0.61 18.36 0.64 18.37
  Q 0.65 18.38 0.65 18.40
  Q 0.44 19.38 0.98 20.01
  Q 1.25 20.32 1.15 20.71
  Q 1.10 20.93 0.96 21.14
  A 0.61 0.61 0.0 0 0 1.44 22.09
  Q 2.03 22.11 2.09 22.85
  A 0.41 0.41 0.0 0 0 2.90 22.88
  Q 3.10 21.66 4.51 22.17
  Q 4.95 22.33 4.87 22.79
  Q 4.73 23.60 5.35 24.09
  Q 5.81 24.46 5.39 24.87
  L 5.13 25.12
  Q 4.77 25.49 5.12 25.86
  Q 5.22 25.96 5.31 26.05
  Q 5.36 26.10 5.50 26.12
  Q 6.19 26.19 6.12 25.48
  A 0.35 0.35 0.0 0 1 6.65 25.15
  Q 6.95 25.34 6.89 25.69
  Q 6.82 26.12 7.26 26.12
  L 7.76 26.12
  Q 7.96 26.12 7.91 26.31
  Q 7.69 27.18 8.12 27.77
  Q 8.14 27.80 8.87 27.87
  Q 9.09 27.89 9.26 27.73
  Q 9.48 27.52 9.66 27.76
  Q 9.91 28.08 9.89 28.47
  Q 9.86 29.05 10.44 29.09
  Q 11.53 29.16 11.93 30.20
  Q 12.69 32.15 13.56 32.15
  A 4.00 3.20 82.5 0 1 16.85 35.31
  Q 17.08 36.38 18.36 36.08
  Q 18.88 35.96 18.88 36.50
  L 18.88 37.51
  A 0.38 0.38 0.0 0 1 18.49 37.89
  Q 18.36 37.88 18.24 37.88
  Q 18.01 37.88 17.93 38.09
  Q 17.72 38.64 18.27 38.97
  Q 18.88 39.33 19.01 38.64
  Q 19.18 37.71 20.52 38.18
  Q 20.96 38.33 20.87 38.79
  Q 20.71 39.60 21.37 40.10
  Q 21.93 40.52 21.34 40.89
  Q 20.63 41.33 21.21 41.97
  A 0.51 0.50 -24.9 0 0 21.66 42.13
  Q 22.20 42.07 22.12 41.49
  Q 22.07 41.06 22.50 41.11
  Q 22.94 41.16 22.88 41.71
  Q 22.83 42.17 23.29 42.11
  Q 24.27 41.99 23.85 43.21
  A 0.63 0.62 23.3 0 0 24.16 43.96
  Q 24.71 44.24 24.99 43.76
  Q 25.30 43.24 25.66 43.73
  Q 25.92 44.10 25.88 44.50
  A 0.58 0.58 0.0 0 0 26.51 45.12
  Q 27.83 44.99 27.87 46.41
  A 0.65 0.65 0.0 0 0 28.33 47.02
  Q 28.82 47.16 28.97 47.61
  Q 29.20 48.29 29.81 47.91
  Q 30.04 47.77 30.11 47.51
  Q 30.20 47.21 30.49 47.12
  Q 30.86 47.01 31.10 47.36
  Q 31.32 47.67 31.06 47.94
  Q 30.97 48.04 30.91 48.17
  Q 30.73 48.59 31.12 48.84
  Q 32.59 49.80 32.96 51.58
  A 0.62 0.60 -86.9 0 0 33.36 52.04
  Q 33.84 52.21 34.36 52.09
  Q 34.88 51.98 34.88 52.52
  L 34.88 53.51
  A 0.38 0.38 0.0 0 1 34.49 53.89
  Q 34.36 53.88 34.24 53.88
  Q 34.01 53.88 33.93 54.09
  Q 33.72 54.64 34.27 54.97
  Q 34.88 55.33 35.01 54.64
  Q 35.18 53.71 36.52 54.18
  Q 36.96 54.33 36.87 54.78
  Q 36.72 55.59 37.35 56.09
  Q 37.80 56.46 37.39 56.87
  L 37.13 57.12
  Q 36.77 57.49 37.12 57.86
  Q 37.22 57.96 37.31 58.05
  Q 37.36 58.10 37.50 58.12
  Q 38.19 58.19 38.12 57.48
  A 0.35 0.35 0.0 0 1 38.66 57.15
  Q 38.96 57.35 38.89 57.72
  Q 38.80 58.18 39.26 58.11
  Q 40.28 57.97 39.85 59.22
  A 0.63 0.62 -68.7 0 0 40.18 59.99
  Q 40.72 60.23 40.99 59.76
  Q 41.27 59.30 41.62 59.71
  Q 41.92 60.08 41.90 60.55
  Q 41.87 61.18 42.50 61.11
  Q 43.52 61.01 43.77 61.81
  C 44.12 62.95 44.93 63.91 46.11 64.22
  Q 46.50 64.32 46.84 64.55
  Q 48.52 65.68 48.97 67.65
  A 0.61 0.59 83.2 0 0 49.55 68.12
  L 50.37 68.12
  Q 50.88 68.12 50.88 68.63
  L 50.88 69.51
  A 0.38 0.38 0.0 0 1 50.49 69.89
  Q 50.36 69.88 50.24 69.88
  Q 50.01 69.88 49.93 70.09
  Q 49.72 70.64 50.27 70.97
  Q 50.88 71.33 51.01 70.64
  Q 51.18 69.71 52.52 70.18
  Q 52.96 70.33 52.87 70.78
  Q 52.69 71.72 53.58 72.25
  Q 53.85 72.41 53.63 72.63
  L 53.11 73.15
  Q 52.82 73.44 53.03 73.79
  Q 53.12 73.94 53.32 74.05
  Q 53.52 74.15 53.74 74.08
  Q 54.20 73.92 54.17 73.43
  Q 54.14 72.91 54.62 73.13
  Q 54.93 73.28 54.88 73.69
  Q 54.83 74.12 55.27 74.12
  L 55.76 74.12
  Q 55.96 74.12 55.91 74.31
  Q 55.69 75.18 56.12 75.77
  Q 56.14 75.80 56.87 75.87
  Q 57.09 75.89 57.26 75.73
  Q 57.47 75.53 57.66 75.76
  Q 57.92 76.09 57.88 76.51
  Q 57.82 77.18 58.49 77.13
  Q 59.67 77.03 59.85 78.27
  Q 59.92 78.77 60.37 79.00
  Q 60.82 79.23 61.04 79.69
  Q 61.30 80.24 61.82 79.91
  Q 62.04 79.76 62.11 79.51
  Q 62.20 79.21 62.49 79.12
  Q 62.94 78.98 63.19 79.51
  Q 63.30 79.73 63.12 79.89
  Q 63.01 79.98 62.94 80.11
  Q 62.71 80.55 63.12 80.84
  Q 64.58 81.88 64.95 83.63
  A 0.61 0.61 0.0 0 0 65.55 84.12
  L 66.48 84.12
  Q 67.02 84.12 66.91 84.64
  Q 66.79 85.21 66.99 85.73
  A 0.27 0.27 0.0 0 0 67.50 85.71
  Q 68.10 83.74 69.31 84.37
  Z" fill="#585bff"></path>
<path d="M 175.68 204.26
  L 168.98 256.00
  L 127.25 256.00
  L 141.22 139.88
  Q 141.29 139.31 140.72 139.31
  L 101.53 139.31
  Q 101.21 139.31 101.17 139.62
  L 86.14 256.00
  L 44.54 256.00
  L 58.51 139.61
  Q 58.54 139.31 58.25 139.31
  L 40.75 139.31
  A 0.28 0.28 0.0 0 1 40.47 139.00
  L 43.61 111.69
  Q 43.68 111.06 44.31 111.06
  L 61.56 111.06
  A 0.64 0.64 0.0 0 0 62.21 110.47
  Q 63.35 96.83 69.31 84.37
  C 81.16 61.14 106.34 49.63 131.76 52.39
  Q 136.72 52.93 141.48 54.48
  Q 141.97 54.64 141.91 55.14
  Q 140.79 64.81 139.52 74.43
  C 138.92 78.94 137.72 80.76 133.24 81.50
  C 128.26 82.32 123.13 82.56 118.26 84.68
  C 107.23 89.47 105.70 100.12 104.55 110.45
  Q 104.48 111.06 105.09 111.06
  L 144.27 111.06
  A 0.74 0.72 -87.4 0 0 144.99 110.39
  C 147.87 75.59 173.69 51.26 208.75 51.93
  Q 216.80 52.08 224.56 54.49
  Q 225.00 54.63 224.94 55.08
  Q 223.66 65.34 222.42 75.67
  C 221.99 79.27 219.91 80.78 216.36 81.45
  C 209.20 82.82 201.58 82.83 195.62 88.05
  C 189.67 93.26 188.25 102.88 187.52 110.50
  Q 187.46 111.06 188.02 111.06
  L 216.49 111.04
  A 0.40 0.39 -86.2 0 1 216.88 111.49
  L 213.23 138.71
  Q 213.15 139.31 212.54 139.31
  L 184.50 139.30
  A 0.47 0.46 -86.5 0 0 184.04 139.71
  L 175.68 204.26
  Z" fill="#ffffff"></path>
<path d="M 127.25 256.00
  L 86.14 256.00
  L 101.17 139.62
  Q 101.21 139.31 101.53 139.31
  L 140.72 139.31
  Q 141.29 139.31 141.22 139.88
  L 127.25 256.00
  Z" fill="#585bff"></path>
<path d="M 226.37 256.00
  L 168.98 256.00
  L 175.68 204.26
  C 178.68 203.32 178.71 206.74 180.51 208.39
  Q 180.73 208.59 180.52 208.81
  L 180.16 209.16
  Q 179.94 209.38 180.16 209.59
  Q 180.26 209.69 180.36 209.79
  A 0.13 0.13 0.0 0 0 180.53 209.80
  Q 181.16 209.31 181.94 209.34
  Q 182.50 209.37 182.61 209.92
  Q 182.86 211.28 184.23 211.11
  A 0.55 0.54 87.3 0 1 184.84 211.67
  Q 184.77 213.67 187.03 213.28
  Q 187.71 213.17 187.65 213.85
  Q 187.53 215.30 189.08 215.37
  Q 189.54 215.39 189.26 215.76
  L 189.04 216.03
  A 0.63 0.62 -38.2 0 0 188.96 216.65
  Q 189.19 217.19 189.71 216.97
  Q 189.87 216.90 190.16 216.65
  Q 190.75 216.14 190.69 216.75
  Q 190.66 217.01 190.78 217.22
  Q 191.08 217.73 190.51 217.89
  Q 189.86 218.09 189.92 218.83
  A 0.33 0.33 0.0 0 0 190.38 219.10
  Q 191.01 218.81 191.45 218.18
  Q 191.54 218.06 191.66 218.15
  L 192.00 218.39
  Q 192.15 218.50 192.06 218.66
  Q 191.70 219.30 192.10 219.84
  Q 192.45 220.32 192.85 219.88
  L 193.14 219.57
  Q 193.43 219.25 193.72 219.58
  Q 195.37 221.42 196.04 223.79
  A 0.41 0.39 83.0 0 0 196.41 224.09
  Q 196.56 224.10 196.70 224.11
  Q 196.74 224.11 196.77 224.25
  Q 196.84 224.55 196.76 224.86
  A 0.25 0.24 -77.8 0 1 196.49 225.04
  Q 195.94 224.98 195.54 225.16
  Q 194.94 225.43 195.54 225.70
  Q 196.55 226.16 197.03 225.40
  Q 197.26 225.05 197.68 225.05
  Q 198.04 225.05 198.37 225.16
  Q 198.91 225.34 198.91 225.91
  L 198.91 226.49
  Q 198.91 226.85 199.24 226.99
  Q 199.70 227.19 200.22 227.10
  Q 200.74 227.01 200.87 227.53
  Q 201.15 228.61 200.24 229.14
  Q 199.79 229.40 200.17 229.77
  Q 200.40 229.99 200.75 229.77
  Q 200.98 229.62 201.05 229.36
  Q 201.15 229.00 201.52 229.07
  L 203.10 229.36
  Q 203.59 229.45 203.69 229.94
  Q 203.92 231.09 205.05 231.31
  Q 205.31 231.35 205.28 231.61
  Q 205.24 231.97 205.02 232.23
  Q 204.61 232.71 205.22 232.87
  Q 205.73 233.01 206.08 232.63
  Q 206.49 232.18 206.75 232.74
  Q 206.91 233.08 206.89 233.47
  Q 206.88 233.81 206.55 233.88
  Q 206.15 233.98 206.01 234.26
  Q 205.80 234.67 206.18 234.90
  Q 206.61 235.15 206.92 234.76
  Q 207.48 234.06 208.36 233.72
  Q 208.74 233.58 208.70 233.98
  Q 208.64 234.84 207.92 235.41
  A 0.40 0.40 0.0 0 0 208.17 236.12
  Q 208.95 236.12 209.10 235.44
  A 0.38 0.37 37.5 0 1 209.80 235.35
  Q 210.10 235.93 210.62 236.30
  Q 211.21 236.73 210.49 236.78
  L 209.72 236.83
  Q 209.42 236.85 209.17 237.04
  Q 208.56 237.52 209.11 238.75
  Q 209.38 239.36 209.86 238.89
  Q 209.99 238.76 210.06 238.58
  Q 210.26 238.03 210.85 238.04
  Q 212.05 238.05 211.82 239.19
  A 1.40 1.39 -85.4 0 0 213.24 240.86
  Q 214.81 240.80 214.89 242.36
  A 0.80 0.79 -82.4 0 0 215.43 243.07
  Q 215.67 243.15 215.94 243.12
  Q 216.68 243.03 216.74 243.77
  Q 216.88 245.60 219.02 245.30
  A 0.54 0.53 -2.7 0 1 219.63 245.85
  Q 219.57 247.07 220.72 247.37
  A 0.41 0.41 0.0 0 1 221.00 247.87
  Q 220.87 248.33 221.33 248.70
  Q 221.53 248.85 221.77 248.86
  Q 222.12 248.87 222.44 249.01
  Q 222.97 249.25 222.92 249.72
  Q 222.89 250.10 222.51 250.14
  Q 222.34 250.16 222.20 250.31
  A 0.27 0.27 0.0 0 0 222.39 250.76
  Q 223.14 250.82 223.58 250.13
  A 0.19 0.19 0.0 0 1 223.93 250.23
  L 223.95 251.75
  A 0.47 0.47 0.0 0 0 224.82 251.98
  Q 225.20 251.35 225.56 251.53
  Q 225.68 251.60 225.66 251.73
  Q 225.62 251.92 225.68 252.08
  Q 225.81 252.40 225.60 252.67
  Q 224.91 253.57 224.98 254.69
  A 0.35 0.34 66.5 0 0 225.56 254.92
  Q 226.25 254.26 225.90 253.30
  A 0.37 0.36 9.0 0 1 226.47 252.89
  Q 226.81 253.14 226.92 253.53
  A 0.73 0.72 -4.6 0 0 227.55 254.06
  Q 228.20 254.13 227.87 255.03
  Q 227.69 255.50 227.19 255.48
  Q 226.34 255.44 226.37 256.00
  Z" fill="#585bff"></path>
</svg>
