<svg viewBox="0.00 0.00 300.00 300.00" version="1.1" xmlns="http://www.w3.org/2000/svg">
<path d="M 181.26 48.42
  L 182.05 44.87
  Q 182.15 44.39 181.98 43.94
  C 181.20 41.92 181.23 37.16 182.00 35.12
  Q 182.17 34.67 181.95 34.24
  Q 181.36 33.08 182.50 32.23
  A 0.61 0.60 -33.0 0 0 182.67 31.44
  Q 182.16 30.56 182.66 29.75
  A 0.78 0.77 32.9 0 0 182.43 28.70
  Q 180.98 27.71 182.22 26.52
  Q 182.58 26.18 182.61 25.68
  Q 182.87 22.10 182.64 18.55
  Q 182.63 18.36 182.72 17.46
  Q 182.81 16.58 182.06 16.22
  A 0.77 0.77 0.0 0 1 181.63 15.53
  Q 181.64 14.84 182.25 14.65
  A 0.16 0.16 0.0 0 0 182.26 14.35
  Q 182.14 14.31 182.02 14.25
  Q 181.79 14.13 181.71 13.89
  Q 180.66 10.88 180.88 8.05" stroke-linecap="butt" fill="none" stroke-width="2.00" stroke="#2bbcc6"></path>
<path d="M 211.64 0.00
  L 216.71 0.00
  C 234.06 3.61 236.44 26.44 219.76 32.74
  C 216.71 33.89 211.23 33.69 208.08 34.27
  Q 192.60 37.09 181.26 48.42
  L 182.05 44.87
  Q 182.15 44.39 181.98 43.94
  C 181.20 41.92 181.23 37.16 182.00 35.12
  Q 182.17 34.67 181.95 34.24
  Q 181.36 33.08 182.50 32.23
  A 0.61 0.60 -33.0 0 0 182.67 31.44
  Q 182.16 30.56 182.66 29.75
  A 0.78 0.77 32.9 0 0 182.43 28.70
  Q 180.98 27.71 182.22 26.52
  Q 182.58 26.18 182.61 25.68
  Q 182.87 22.10 182.64 18.55
  Q 182.63 18.36 182.72 17.46
  Q 182.81 16.58 182.06 16.22
  A 0.77 0.77 0.0 0 1 181.63 15.53
  Q 181.64 14.84 182.25 14.65
  A 0.16 0.16 0.0 0 0 182.26 14.35
  Q 182.14 14.31 182.02 14.25
  Q 181.79 14.13 181.71 13.89
  Q 180.66 10.88 180.88 8.05
  Q 195.51 1.25 211.64 0.00
  Z" fill="#38bfc0"></path>
<path d="M 211.82 166.46
  C 221.47 156.70 221.29 143.21 211.86 133.70
  Q 211.50 133.33 212.02 133.31
  Q 215.34 133.19 218.49 133.09
  C 242.11 132.36 261.02 115.52 265.68 92.75
  C 270.65 68.50 256.45 45.47 234.01 36.56
  Q 230.84 35.31 227.40 34.77
  A 0.24 0.23 28.9 0 1 227.28 34.36
  C 236.16 26.63 238.48 16.28 233.02 5.73
  C 232.29 4.32 231.00 2.89 229.99 1.48
  Q 229.69 1.05 230.20 1.14
  C 271.68 8.36 300.99 44.30 299.48 86.49
  C 297.92 129.88 262.83 165.82 218.70 166.74
  Q 215.36 166.81 212.01 166.90
  Q 211.37 166.92 211.82 166.46
  Z" fill="#5bc3b2"></path>
<path d="M 180.88 8.05
  Q 180.66 10.88 181.71 13.89
  Q 181.79 14.13 182.02 14.25
  Q 182.14 14.31 182.26 14.35
  A 0.16 0.16 0.0 0 1 182.25 14.65
  Q 181.64 14.84 181.63 15.53
  A 0.77 0.77 0.0 0 0 182.06 16.22
  Q 182.81 16.58 182.72 17.46
  Q 182.63 18.36 182.64 18.55
  Q 182.87 22.10 182.61 25.68
  Q 182.58 26.18 182.22 26.52
  Q 180.98 27.71 182.43 28.70
  A 0.78 0.77 32.9 0 1 182.66 29.75
  Q 182.16 30.56 182.67 31.44
  A 0.61 0.60 -33.0 0 1 182.50 32.23
  Q 181.36 33.08 181.95 34.24
  Q 182.17 34.67 182.00 35.12
  C 181.23 37.16 181.20 41.92 181.98 43.94
  Q 182.15 44.39 182.05 44.87
  L 181.26 48.42
  Q 171.45 58.63 168.36 71.86
  Q 167.00 77.66 167.01 91.75
  Q 167.02 112.29 167.00 132.64
  A 0.61 0.61 0.0 0 0 167.61 133.25
  Q 183.13 133.24 198.75 133.27
  Q 205.17 133.28 210.15 138.85
  C 217.82 147.44 214.98 161.03 204.33 165.42
  Q 201.03 166.78 194.49 166.76
  Q 180.97 166.74 167.40 166.76
  A 0.40 0.40 0.0 0 0 167.00 167.16
  Q 167.02 191.38 167.01 215.75
  C 167.00 261.21 133.40 296.76 88.14 300.00
  L 84.01 300.00
  Q 73.49 298.00 70.26 288.94
  C 67.13 280.18 71.34 270.63 80.17 267.43
  Q 81.66 266.90 88.43 266.26
  C 109.65 264.28 127.46 248.69 132.20 228.14
  Q 133.58 222.13 133.60 208.25
  Q 133.63 187.75 133.56 167.28
  A 0.52 0.52 0.0 0 0 133.05 166.76
  C 127.50 166.72 120.54 167.40 115.76 165.83
  C 105.20 162.36 100.94 149.30 107.78 140.05
  C 114.20 131.36 123.84 133.19 132.90 133.25
  Q 133.61 133.25 133.61 132.54
  Q 133.57 106.82 133.63 81.50
  C 133.70 50.20 153.02 21.75 180.88 8.05
  Z" fill="#1db9cc"></path>
<path d="M 72.79 265.95
  C 62.28 274.93 62.30 288.03 70.55 298.42
  Q 70.99 298.97 70.29 298.85
  C 21.74 290.65 -9.00 242.45 3.67 194.99
  C 9.66 172.56 24.96 153.24 45.51 142.59
  Q 63.91 133.06 82.25 133.22
  Q 94.61 133.33 106.98 133.13
  Q 107.56 133.13 107.15 133.53
  C 97.65 142.94 97.51 156.56 106.97 166.19
  Q 107.55 166.77 106.72 166.77
  Q 100.83 166.74 84.01 166.72
  C 48.30 166.67 24.53 203.50 38.28 236.06
  Q 46.54 255.61 67.51 263.70
  Q 70.25 264.75 72.51 265.03
  Q 73.68 265.18 72.79 265.95
  Z" fill="#2897c9"></path>
</svg>
