<svg viewBox="0.00 0.00 53.00 53.00" version="1.1" xmlns="http://www.w3.org/2000/svg">
<path d="M 19.24 14.70
  L 41.48 14.16
  Q 43.84 14.10 43.56 11.76
  L 43.49 11.19
  A 1.93 1.92 -3.3 0 0 41.57 9.49
  Q 29.01 9.50 16.00 9.62
  C 11.26 9.67 11.85 15.84 11.72 19.08
  Q 11.34 29.01 11.80 37.00
  C 11.93 39.24 12.87 42.14 15.75 42.05
  C 24.70 41.75 33.35 43.01 41.97 42.11
  A 1.65 1.65 0.0 0 0 43.45 40.47
  L 43.45 39.99
  Q 43.44 37.54 40.99 37.53
  L 19.41 37.48
  A 1.89 1.89 0.0 0 1 17.52 35.56
  L 17.62 30.19
  Q 17.65 28.52 19.31 28.47
  L 37.22 27.87
  A 1.87 1.86 89.7 0 0 39.03 26.03
  L 39.04 25.67
  A 2.37 2.37 0.0 0 0 36.67 23.25
  L 18.96 23.24
  Q 17.68 23.24 17.69 21.96
  L 17.71 16.26
  Q 17.71 14.73 19.24 14.70" stroke-linecap="butt" fill="none" stroke-width="2.00" stroke="#90cbf9"></path>
<path d="M 0.00 0.00
  L 53.00 0.00
  L 53.00 53.00
  L 0.00 53.00
  L 0.00 0.00
  Z
  M 19.24 14.70
  L 41.48 14.16
  Q 43.84 14.10 43.56 11.76
  L 43.49 11.19
  A 1.93 1.92 -3.3 0 0 41.57 9.49
  Q 29.01 9.50 16.00 9.62
  C 11.26 9.67 11.85 15.84 11.72 19.08
  Q 11.34 29.01 11.80 37.00
  C 11.93 39.24 12.87 42.14 15.75 42.05
  C 24.70 41.75 33.35 43.01 41.97 42.11
  A 1.65 1.65 0.0 0 0 43.45 40.47
  L 43.45 39.99
  Q 43.44 37.54 40.99 37.53
  L 19.41 37.48
  A 1.89 1.89 0.0 0 1 17.52 35.56
  L 17.62 30.19
  Q 17.65 28.52 19.31 28.47
  L 37.22 27.87
  A 1.87 1.86 89.7 0 0 39.03 26.03
  L 39.04 25.67
  A 2.37 2.37 0.0 0 0 36.67 23.25
  L 18.96 23.24
  Q 17.68 23.24 17.69 21.96
  L 17.71 16.26
  Q 17.71 14.73 19.24 14.70
  Z" fill="#ffffff"></path>
<path d="M 19.24 14.70
  Q 17.71 14.73 17.71 16.26
  L 17.69 21.96
  Q 17.68 23.24 18.96 23.24
  L 36.67 23.25
  A 2.37 2.37 0.0 0 1 39.04 25.67
  L 39.03 26.03
  A 1.87 1.86 89.7 0 1 37.22 27.87
  L 19.31 28.47
  Q 17.65 28.52 17.62 30.19
  L 17.52 35.56
  A 1.89 1.89 0.0 0 0 19.41 37.48
  L 40.99 37.53
  Q 43.44 37.54 43.45 39.99
  L 43.45 40.47
  A 1.65 1.65 0.0 0 1 41.97 42.11
  C 33.35 43.01 24.70 41.75 15.75 42.05
  C 12.87 42.14 11.93 39.24 11.80 37.00
  Q 11.34 29.01 11.72 19.08
  C 11.85 15.84 11.26 9.67 16.00 9.62
  Q 29.01 9.50 41.57 9.49
  A 1.93 1.92 -3.3 0 1 43.49 11.19
  L 43.56 11.76
  Q 43.84 14.10 41.48 14.16
  L 19.24 14.70
  Z" fill="#2196f3"></path>
</svg>
