<svg viewBox="0.00 0.00 192.00 192.00" version="1.1" xmlns="http://www.w3.org/2000/svg">
<path d="M 102.75 111.22
  Q 114.84 112.79 124.23 107.77
  C 135.89 101.54 141.80 92.43 145.27 79.87
  Q 146.05 77.06 147.27 75.80
  C 149.79 73.18 153.39 72.31 156.72 74.08
  C 165.84 78.91 157.48 94.62 153.44 101.43
  C 141.29 121.86 120.92 129.55 97.97 126.77
  Q 97.40 126.70 97.23 127.25
  L 93.01 141.03
  Q 92.83 141.63 92.21 141.63
  L 70.38 141.63
  Q 69.70 141.63 70.04 141.03
  L 81.30 121.29
  Q 81.44 121.05 81.19 120.91
  L 77.70 118.88
  Q 77.42 118.72 77.26 119.00
  L 64.31 141.19
  Q 64.06 141.63 63.55 141.63
  L 32.05 141.62
  A 0.29 0.29 0.0 0 1 31.83 141.14
  L 63.51 106.52
  A 0.58 0.58 0.0 0 0 63.55 105.77
  C 52.88 91.82 50.43 71.98 55.92 55.50
  C 65.30 27.37 92.72 14.64 121.01 20.54
  Q 121.73 20.69 121.15 21.14
  Q 114.50 26.39 114.59 34.97
  Q 114.59 35.44 114.13 35.37
  C 96.39 32.75 85.42 37.96 75.39 52.08
  C 66.69 64.34 66.99 80.93 74.83 93.54
  A 0.33 0.33 0.0 0 0 75.35 93.59
  L 120.47 44.25
  Q 121.65 42.96 120.77 44.47
  L 85.61 104.69
  Q 85.48 104.92 85.71 105.04
  L 89.24 106.90
  A 0.24 0.24 0.0 0 0 89.56 106.81
  L 118.67 55.74
  Q 119.96 53.47 119.19 55.97
  L 102.36 110.60
  Q 102.19 111.15 102.75 111.22
  Z" fill="#ffcc16"></path>
<circle r="10.10" cy="34.24" cx="131.02" fill="#ffcc16"></circle>
<path d="M 35.47 161.21
  L 39.79 161.23
  Q 40.36 161.23 40.30 161.79
  L 40.12 163.41
  A 0.65 0.64 -86.6 0 1 39.47 163.99
  L 35.19 163.94
  A 0.92 0.92 0.0 0 0 34.26 164.81
  L 34.22 165.48
  Q 34.17 166.29 34.98 166.29
  L 43.99 166.28
  A 0.40 0.40 0.0 0 1 44.38 166.74
  L 44.09 168.52
  Q 44.01 169.00 43.53 169.01
  Q 39.08 169.10 34.52 168.99
  C 32.43 168.94 31.24 167.91 31.50 165.77
  C 32.10 160.82 32.04 157.39 37.72 157.37
  Q 41.69 157.34 45.47 157.37
  A 0.51 0.50 6.5 0 1 45.96 157.98
  L 45.63 159.48
  A 0.82 0.81 -82.9 0 1 44.83 160.11
  L 35.80 160.03
  A 0.59 0.58 -84.6 0 0 35.23 160.51
  L 35.16 160.84
  Q 35.09 161.21 35.47 161.21
  Z" fill="#ffcc16"></path>
<path d="M 50.72 161.23
  L 56.11 161.23
  Q 56.70 161.23 56.81 160.65
  L 57.34 157.85
  Q 57.43 157.37 57.91 157.37
  L 59.73 157.36
  Q 60.24 157.36 60.14 157.86
  L 59.36 161.69
  A 0.51 0.51 0.0 0 0 59.36 161.89
  Q 60.10 165.28 59.03 168.63
  Q 58.90 169.02 58.49 169.02
  L 56.79 169.04
  Q 56.27 169.05 56.35 168.54
  L 56.90 165.01
  Q 57.06 163.97 56.01 163.97
  L 50.52 163.96
  Q 49.48 163.96 49.31 164.99
  L 48.77 168.43
  Q 48.68 169.03 48.07 169.03
  L 46.45 169.04
  A 0.50 0.50 0.0 0 1 45.96 168.45
  L 47.81 157.77
  A 0.52 0.52 0.0 0 1 48.33 157.34
  L 50.01 157.36
  A 0.56 0.56 0.0 0 1 50.55 158.01
  L 50.13 160.53
  Q 50.01 161.23 50.72 161.23
  Z" fill="#ffcc16"></path>
<path d="M 64.94 166.29
  L 74.01 166.27
  A 0.44 0.43 -86.5 0 1 74.44 166.76
  L 74.20 168.58
  Q 74.14 169.03 73.67 169.03
  L 64.27 169.03
  A 2.79 2.79 0.0 0 1 61.52 165.77
  L 62.91 157.79
  Q 62.99 157.33 63.46 157.34
  L 65.45 157.39
  A 0.26 0.26 0.0 0 1 65.70 157.69
  L 64.34 165.58
  A 0.61 0.60 5.1 0 0 64.94 166.29
  Z" fill="#ffcc16"></path>
<path d="M 76.08 168.63
  L 77.99 157.66
  A 0.35 0.35 0.0 0 1 78.33 157.37
  L 80.38 157.37
  A 0.35 0.35 0.0 0 1 80.73 157.78
  L 78.85 168.74
  A 0.35 0.35 0.0 0 1 78.51 169.03
  L 76.43 169.04
  A 0.35 0.35 0.0 0 1 76.08 168.63
  Z" fill="#ffcc16"></path>
<path d="M 83.95 165.17
  L 83.34 168.76
  A 0.35 0.34 5.0 0 1 83.00 169.04
  L 80.78 169.04
  Q 80.55 169.04 80.59 168.81
  C 82.06 159.55 81.31 156.25 92.60 157.54
  Q 96.26 157.96 95.00 161.43
  L 94.72 162.20
  A 3.65 3.64 -80.1 0 1 91.31 164.60
  L 84.58 164.63
  Q 84.04 164.63 83.95 165.17
  Z
  M 92.3095 160.9063
  A 0.84 0.84 0.0 0 0 91.4622 160.0737
  L 85.4224 160.1264
  A 0.84 0.84 0.0 0 0 84.5898 160.9737
  L 84.5905 161.0537
  A 0.84 0.84 0.0 0 0 85.4378 161.8863
  L 91.4776 161.8336
  A 0.84 0.84 0.0 0 0 92.3102 160.9863
  L 92.3095 160.9063
  Z" fill="#ffcc16"></path>
<path d="M 105.98 164.63
  L 99.90 164.62
  A 2.99 2.99 0.0 0 1 97.00 160.90
  L 97.21 160.08
  A 3.58 3.57 -83.0 0 1 100.66 157.38
  L 110.27 157.34
  A 0.37 0.37 0.0 0 1 110.64 157.77
  L 110.31 159.80
  Q 110.25 160.14 109.90 160.14
  L 100.76 160.10
  A 0.97 0.97 0.0 0 0 99.80 160.93
  L 99.75 161.26
  A 0.51 0.51 0.0 0 0 100.25 161.85
  L 106.40 161.88
  A 2.98 2.98 0.0 0 1 109.29 165.53
  L 109.11 166.32
  A 3.48 3.48 0.0 0 1 105.73 169.03
  L 95.96 169.05
  Q 95.62 169.05 95.67 168.71
  L 95.94 166.76
  A 0.56 0.55 4.2 0 1 96.49 166.29
  L 105.82 166.29
  Q 106.44 166.29 106.49 165.68
  L 106.52 165.23
  Q 106.57 164.63 105.98 164.63
  Z" fill="#ffcc16"></path>
<path d="M 115.25 161.22
  L 119.78 161.23
  A 0.47 0.46 -84.8 0 1 120.23 161.78
  L 119.98 163.21
  Q 119.84 164.00 119.04 163.99
  L 115.09 163.94
  Q 113.83 163.93 114.08 165.16
  L 114.14 165.49
  Q 114.30 166.29 115.12 166.29
  L 123.79 166.28
  Q 124.31 166.28 124.24 166.79
  L 124.01 168.43
  Q 123.93 169.04 123.32 169.04
  L 113.78 169.03
  A 2.56 2.56 0.0 0 1 111.24 166.14
  C 111.86 161.39 111.63 157.40 117.84 157.37
  Q 121.73 157.35 125.50 157.37
  Q 125.90 157.38 125.82 157.76
  L 125.47 159.74
  A 0.46 0.45 -84.1 0 1 125.01 160.12
  L 115.54 160.06
  A 0.54 0.53 -84.8 0 0 115.02 160.50
  L 114.96 160.87
  Q 114.89 161.22 115.25 161.22
  Z" fill="#ffcc16"></path>
<path d="M 134.30 166.29
  L 140.29 166.30
  Q 140.95 166.30 141.20 165.69
  Q 141.49 165.02 141.49 164.29
  A 0.42 0.42 0.0 0 0 141.02 163.88
  L 139.78 164.02
  Q 139.23 164.08 139.32 163.53
  L 139.58 161.79
  Q 139.67 161.22 140.24 161.23
  L 144.25 161.25
  Q 144.90 161.26 144.75 161.88
  C 144.26 164.05 144.34 166.83 142.24 168.29
  C 140.49 169.51 136.53 169.05 134.31 169.03
  C 132.31 169.01 130.46 167.89 130.85 165.75
  C 131.62 161.51 131.24 157.40 137.02 157.38
  Q 141.17 157.37 145.07 157.33
  Q 145.47 157.33 145.41 157.73
  L 145.13 159.52
  Q 145.05 160.02 144.54 160.03
  L 135.52 160.11
  Q 134.65 160.12 134.50 160.98
  L 133.68 165.54
  Q 133.54 166.28 134.30 166.29
  Z" fill="#ffcc16"></path>
<path d="M 149.44 166.30
  C 151.07 166.31 153.05 166.15 154.92 166.33
  Q 156.23 166.45 156.49 164.86
  Q 156.65 163.85 155.64 163.95
  L 154.81 164.03
  Q 154.29 164.08 154.37 163.56
  L 154.61 161.94
  Q 154.72 161.22 155.44 161.23
  L 159.29 161.24
  Q 159.98 161.25 159.84 161.92
  C 159.19 165.03 159.21 168.89 154.71 169.00
  Q 151.53 169.08 148.55 169.02
  A 2.60 2.60 0.0 0 1 146.01 166.37
  C 146.22 155.14 151.78 157.36 160.10 157.34
  Q 160.48 157.34 160.43 157.72
  L 160.16 159.67
  Q 160.12 160.02 159.77 160.02
  L 150.53 160.12
  A 1.01 1.01 0.0 0 0 149.55 160.96
  L 148.76 165.50
  Q 148.62 166.30 149.44 166.30
  Z" fill="#ffcc16"></path>
<path d="M 125.99 167.50
  Q 126.27 165.70 128.45 166.45
  Q 128.96 166.62 128.86 167.15
  L 128.60 168.53
  Q 128.50 169.04 127.98 169.04
  L 126.25 169.04
  Q 125.70 169.04 125.81 168.49
  Q 125.89 168.10 125.99 167.50
  Z" fill="#ffcc16"></path>
</svg>
