<svg viewBox="0.00 0.00 32.00 32.00" version="1.1" xmlns="http://www.w3.org/2000/svg">
<g stroke-linecap="butt" fill="none" stroke-width="2.00">
<path d="M 30.2952 7.2749
  A 5.52 5.52 0.0 0 0 24.7849 1.7453
  L 7.2849 1.7148
  A 5.52 5.52 0.0 0 0 1.7553 7.2251
  L 1.7248 24.7051
  A 5.52 5.52 0.0 0 0 7.2351 30.2347
  L 24.7351 30.2652
  A 5.52 5.52 0.0 0 0 30.2647 24.7549
  L 30.2952 7.2749" stroke="#116994"></path>
<path d="M 24.22 9.28
  Q 23.57 8.96 22.88 9.38
  A 1.11 1.08 -51.3 0 1 21.98 9.49
  C 18.39 8.34 17.08 10.80 14.55 11.63
  Q 10.47 12.97 6.62 12.64
  Q 4.83 12.49 4.10 13.73
  C 3.73 14.37 4.00 15.38 3.94 16.20
  A 0.26 0.25 -21.3 0 0 4.38 16.39
  Q 5.00 15.71 4.68 14.74
  A 0.86 0.85 -31.1 0 1 4.90 13.87
  Q 5.68 13.13 6.62 13.68
  Q 7.12 13.98 6.94 14.54
  L 4.17 23.26
  Q 4.04 23.64 4.45 23.61
  L 4.80 23.58
  Q 5.21 23.55 5.19 23.14
  C 5.14 21.50 7.57 19.05 8.55 17.97
  A 1.03 1.02 55.8 0 1 10.27 18.30
  Q 11.27 20.97 12.47 22.82
  Q 12.68 23.15 12.93 23.25
  Q 13.29 23.39 13.70 23.18
  A 0.39 0.38 48.9 0 0 13.74 22.52
  Q 12.01 21.30 12.12 19.21
  Q 12.15 18.49 12.82 18.76
  Q 14.28 19.33 15.72 18.67
  A 1.44 1.44 0.0 0 1 17.60 19.33
  Q 18.56 21.25 19.53 23.19
  C 19.77 23.67 20.28 23.92 20.77 23.86
  Q 21.27 23.81 20.92 23.44
  Q 19.42 21.87 19.39 19.63
  Q 19.38 19.24 19.74 19.09
  L 21.31 18.47
  A 0.46 0.46 0.0 0 1 21.95 18.91
  Q 21.94 19.63 21.26 20.01
  A 0.48 0.48 0.0 0 0 21.08 20.67
  Q 21.19 20.86 21.35 20.97
  Q 21.76 21.26 22.11 20.88
  L 23.77 19.11
  Q 24.19 18.66 23.80 18.18
  Q 23.06 17.31 21.98 16.92
  Q 21.84 16.87 21.86 16.72
  L 22.17 14.22
  A 0.30 0.30 0.0 0 1 22.56 13.98
  L 25.51 14.95
  Q 28.01 15.77 26.84 13.40
  Q 26.82 13.36 26.51 13.05
  A 0.74 0.73 -34.1 0 1 26.74 11.87
  Q 27.46 11.54 28.07 10.94
  A 0.29 0.29 0.0 0 0 27.69 10.51
  Q 27.10 10.97 26.34 11.00
  Q 25.67 11.02 25.72 10.35
  L 25.81 9.11
  Q 25.85 8.59 25.35 8.76
  Q 25.07 8.86 24.87 9.12
  Q 24.61 9.47 24.22 9.28" stroke="#136aa2"></path>
</g>
<path d="M 31.4649 24.6470
  A 6.86 6.86 0.0 0 1 24.5930 31.4950
  L 7.3530 31.4649
  A 6.86 6.86 0.0 0 1 0.5050 24.5930
  L 0.5351 7.3530
  A 6.86 6.86 0.0 0 1 7.4070 0.5050
  L 24.6470 0.5351
  A 6.86 6.86 0.0 0 1 31.4950 7.4070
  L 31.4649 24.6470
  Z
  M 30.2952 7.2749
  A 5.52 5.52 0.0 0 0 24.7849 1.7453
  L 7.2849 1.7148
  A 5.52 5.52 0.0 0 0 1.7553 7.2251
  L 1.7248 24.7051
  A 5.52 5.52 0.0 0 0 7.2351 30.2347
  L 24.7351 30.2652
  A 5.52 5.52 0.0 0 0 30.2647 24.7549
  L 30.2952 7.2749
  Z" fill-opacity="0.996" fill="#062946"></path>
<path d="M 30.2647 24.7549
  A 5.52 5.52 0.0 0 1 24.7351 30.2652
  L 7.2351 30.2347
  A 5.52 5.52 0.0 0 1 1.7248 24.7051
  L 1.7553 7.2251
  A 5.52 5.52 0.0 0 1 7.2849 1.7148
  L 24.7849 1.7453
  A 5.52 5.52 0.0 0 1 30.2952 7.2749
  L 30.2647 24.7549
  Z
  M 24.22 9.28
  Q 23.57 8.96 22.88 9.38
  A 1.11 1.08 -51.3 0 1 21.98 9.49
  C 18.39 8.34 17.08 10.80 14.55 11.63
  Q 10.47 12.97 6.62 12.64
  Q 4.83 12.49 4.10 13.73
  C 3.73 14.37 4.00 15.38 3.94 16.20
  A 0.26 0.25 -21.3 0 0 4.38 16.39
  Q 5.00 15.71 4.68 14.74
  A 0.86 0.85 -31.1 0 1 4.90 13.87
  Q 5.68 13.13 6.62 13.68
  Q 7.12 13.98 6.94 14.54
  L 4.17 23.26
  Q 4.04 23.64 4.45 23.61
  L 4.80 23.58
  Q 5.21 23.55 5.19 23.14
  C 5.14 21.50 7.57 19.05 8.55 17.97
  A 1.03 1.02 55.8 0 1 10.27 18.30
  Q 11.27 20.97 12.47 22.82
  Q 12.68 23.15 12.93 23.25
  Q 13.29 23.39 13.70 23.18
  A 0.39 0.38 48.9 0 0 13.74 22.52
  Q 12.01 21.30 12.12 19.21
  Q 12.15 18.49 12.82 18.76
  Q 14.28 19.33 15.72 18.67
  A 1.44 1.44 0.0 0 1 17.60 19.33
  Q 18.56 21.25 19.53 23.19
  C 19.77 23.67 20.28 23.92 20.77 23.86
  Q 21.27 23.81 20.92 23.44
  Q 19.42 21.87 19.39 19.63
  Q 19.38 19.24 19.74 19.09
  L 21.31 18.47
  A 0.46 0.46 0.0 0 1 21.95 18.91
  Q 21.94 19.63 21.26 20.01
  A 0.48 0.48 0.0 0 0 21.08 20.67
  Q 21.19 20.86 21.35 20.97
  Q 21.76 21.26 22.11 20.88
  L 23.77 19.11
  Q 24.19 18.66 23.80 18.18
  Q 23.06 17.31 21.98 16.92
  Q 21.84 16.87 21.86 16.72
  L 22.17 14.22
  A 0.30 0.30 0.0 0 1 22.56 13.98
  L 25.51 14.95
  Q 28.01 15.77 26.84 13.40
  Q 26.82 13.36 26.51 13.05
  A 0.74 0.73 -34.1 0 1 26.74 11.87
  Q 27.46 11.54 28.07 10.94
  A 0.29 0.29 0.0 0 0 27.69 10.51
  Q 27.10 10.97 26.34 11.00
  Q 25.67 11.02 25.72 10.35
  L 25.81 9.11
  Q 25.85 8.59 25.35 8.76
  Q 25.07 8.86 24.87 9.12
  Q 24.61 9.47 24.22 9.28
  Z" fill="#1ba8e1"></path>
<path d="M 24.87 9.12
  Q 25.07 8.86 25.35 8.76
  Q 25.85 8.59 25.81 9.11
  L 25.72 10.35
  Q 25.67 11.02 26.34 11.00
  Q 27.10 10.97 27.69 10.51
  A 0.29 0.29 0.0 0 1 28.07 10.94
  Q 27.46 11.54 26.74 11.87
  A 0.74 0.73 -34.1 0 0 26.51 13.05
  Q 26.82 13.36 26.84 13.40
  Q 28.01 15.77 25.51 14.95
  L 22.56 13.98
  A 0.30 0.30 0.0 0 0 22.17 14.22
  L 21.86 16.72
  Q 21.84 16.87 21.98 16.92
  Q 23.06 17.31 23.80 18.18
  Q 24.19 18.66 23.77 19.11
  L 22.11 20.88
  Q 21.76 21.26 21.35 20.97
  Q 21.19 20.86 21.08 20.67
  A 0.48 0.48 0.0 0 1 21.26 20.01
  Q 21.94 19.63 21.95 18.91
  A 0.46 0.46 0.0 0 0 21.31 18.47
  L 19.74 19.09
  Q 19.38 19.24 19.39 19.63
  Q 19.42 21.87 20.92 23.44
  Q 21.27 23.81 20.77 23.86
  C 20.28 23.92 19.77 23.67 19.53 23.19
  Q 18.56 21.25 17.60 19.33
  A 1.44 1.44 0.0 0 0 15.72 18.67
  Q 14.28 19.33 12.82 18.76
  Q 12.15 18.49 12.12 19.21
  Q 12.01 21.30 13.74 22.52
  A 0.39 0.38 48.9 0 1 13.70 23.18
  Q 13.29 23.39 12.93 23.25
  Q 12.68 23.15 12.47 22.82
  Q 11.27 20.97 10.27 18.30
  A 1.03 1.02 55.8 0 0 8.55 17.97
  C 7.57 19.05 5.14 21.50 5.19 23.14
  Q 5.21 23.55 4.80 23.58
  L 4.45 23.61
  Q 4.04 23.64 4.17 23.26
  L 6.94 14.54
  Q 7.12 13.98 6.62 13.68
  Q 5.68 13.13 4.90 13.87
  A 0.86 0.85 -31.1 0 0 4.68 14.74
  Q 5.00 15.71 4.38 16.39
  A 0.26 0.25 -21.3 0 1 3.94 16.20
  C 4.00 15.38 3.73 14.37 4.10 13.73
  Q 4.83 12.49 6.62 12.64
  Q 10.47 12.97 14.55 11.63
  C 17.08 10.80 18.39 8.34 21.98 9.49
  A 1.11 1.08 -51.3 0 0 22.88 9.38
  Q 23.57 8.96 24.22 9.28
  Q 24.61 9.47 24.87 9.12
  Z" fill="#0a2b62"></path>
</svg>
