<svg viewBox="0.00 0.00 180.00 180.00" version="1.1" xmlns="http://www.w3.org/2000/svg">
<path d="M 70.67 93.94
  Q 66.81 92.18 62.65 93.87
  Q 52.74 97.91 54.53 108.51
  C 56.37 119.45 66.09 129.74 76.50 133.19
  Q 102.81 141.93 120.45 122.46
  Q 124.80 117.66 126.14 110.97
  C 129.24 95.47 117.62 81.43 103.24 77.54
  Q 96.63 75.75 89.75 75.68
  Q 67.07 75.45 44.38 75.72
  C 33.44 75.85 22.63 82.56 22.49 94.50
  Q 22.26 114.88 22.36 135.25
  C 22.42 147.55 33.14 154.63 44.50 154.68
  Q 90.12 154.91 135.75 154.61
  Q 144.77 154.55 151.33 149.10
  C 156.76 144.60 157.73 139.53 157.73 132.12
  Q 157.73 106.42 157.77 80.74
  C 157.78 71.43 152.07 67.26 144.11 61.11
  Q 127.93 48.62 111.71 36.15
  Q 101.26 28.12 96.64 26.54
  C 86.14 22.96 78.71 26.30 69.29 32.61
  Q 52.00 44.18 34.67 55.67
  C 31.00 58.11 25.13 57.23 22.90 53.13
  C 20.55 48.83 24.01 46.38 27.45 44.05
  Q 41.49 34.50 55.51 24.94
  Q 67.54 16.74 72.68 14.78
  C 86.77 9.39 103.08 11.64 115.25 21.01
  Q 135.95 36.94 156.64 52.86
  C 163.72 58.31 170.48 63.70 172.62 72.30
  Q 173.49 75.79 173.50 83.27
  Q 173.51 109.64 173.49 136.00
  C 173.49 151.90 158.32 162.89 143.88 165.50
  Q 140.11 166.18 131.09 166.19
  Q 93.30 166.23 55.50 166.18
  Q 39.68 166.16 35.56 165.37
  C 24.10 163.18 12.02 154.85 8.46 143.21
  Q 7.26 139.26 7.25 131.69
  Q 7.23 111.58 7.25 91.50
  C 7.27 77.26 21.02 66.25 33.73 63.11
  Q 38.56 61.92 50.40 61.84
  Q 78.14 61.65 92.75 61.84
  C 116.63 62.16 141.51 75.70 143.64 101.62
  C 145.56 124.90 126.14 140.65 105.75 145.69
  C 101.26 146.80 92.93 147.16 87.77 146.81
  C 69.23 145.57 50.10 134.88 43.08 117.20
  C 37.85 104.05 40.12 91.59 53.03 83.83
  C 62.07 78.40 74.40 78.06 82.58 85.23
  A 1.95 1.94 59.4 0 0 84.28 85.67
  C 97.30 82.89 112.82 87.01 116.24 101.50
  C 118.51 111.16 110.95 120.15 102.24 123.44
  Q 92.49 127.13 82.61 123.65
  C 70.29 119.32 63.53 106.82 70.90 94.70
  A 0.53 0.53 0.0 0 0 70.67 93.94
  Z
  M 100.04 104.99
  A 9.34 7.76 0.0 0 0 90.70 97.23
  A 9.34 7.76 0.0 0 0 81.36 104.99
  A 9.34 7.76 0.0 0 0 90.70 112.75
  A 9.34 7.76 0.0 0 0 100.04 104.99
  Z" fill="#fc5e02"></path>
</svg>
