<svg version="1.0" preserveAspectRatio="xMidYMid meet" height="463" viewBox="0 0 347.25 347.249987" zoomAndPan="magnify" width="463" xmlns:xlink="http://www.w3.org/1999/xlink" xmlns="http://www.w3.org/2000/svg"><defs><clipPath id="d6789d9bb5"><path clip-rule="nonzero" d="M 0.464844 0.464844 L 346.21875 0.464844 L 346.21875 346.21875 L 0.464844 346.21875 Z M 0.464844 0.464844"></path></clipPath><clipPath id="532cfe275d"><path clip-rule="nonzero" d="M 346.324219 173.394531 C 346.324219 176.222656 346.253906 179.050781 346.113281 181.878906 C 345.976562 184.703125 345.765625 187.527344 345.488281 190.34375 C 345.210938 193.160156 344.867188 195.96875 344.449219 198.765625 C 344.035156 201.566406 343.550781 204.355469 343 207.128906 C 342.449219 209.90625 341.828125 212.667969 341.140625 215.410156 C 340.453125 218.15625 339.699219 220.882812 338.875 223.589844 C 338.054688 226.300781 337.167969 228.988281 336.214844 231.652344 C 335.261719 234.316406 334.242188 236.957031 333.160156 239.570312 C 332.074219 242.183594 330.929688 244.769531 329.71875 247.328125 C 328.507812 249.886719 327.238281 252.414062 325.902344 254.910156 C 324.570312 257.40625 323.175781 259.867188 321.71875 262.296875 C 320.265625 264.722656 318.75 267.113281 317.179688 269.46875 C 315.605469 271.820312 313.976562 274.132812 312.292969 276.40625 C 310.605469 278.679688 308.863281 280.910156 307.070312 283.097656 C 305.273438 285.285156 303.425781 287.429688 301.523438 289.523438 C 299.625 291.621094 297.671875 293.671875 295.671875 295.671875 C 293.671875 297.671875 291.621094 299.625 289.523438 301.523438 C 287.429688 303.425781 285.285156 305.273438 283.097656 307.070312 C 280.910156 308.863281 278.679688 310.605469 276.40625 312.292969 C 274.132812 313.976562 271.820312 315.605469 269.46875 317.179688 C 267.113281 318.75 264.722656 320.265625 262.296875 321.71875 C 259.867188 323.175781 257.40625 324.570312 254.910156 325.902344 C 252.414062 327.238281 249.886719 328.507812 247.328125 329.71875 C 244.769531 330.929688 242.183594 332.074219 239.570312 333.160156 C 236.957031 334.242188 234.316406 335.261719 231.652344 336.214844 C 228.988281 337.167969 226.300781 338.054688 223.589844 338.875 C 220.882812 339.699219 218.15625 340.453125 215.410156 341.140625 C 212.667969 341.828125 209.90625 342.449219 207.128906 343 C 204.355469 343.550781 201.566406 344.035156 198.765625 344.449219 C 195.96875 344.867188 193.160156 345.210938 190.34375 345.488281 C 187.527344 345.765625 184.703125 345.976562 181.878906 346.113281 C 179.050781 346.253906 176.222656 346.324219 173.394531 346.324219 C 170.5625 346.324219 167.734375 346.253906 164.90625 346.113281 C 162.082031 345.976562 159.257812 345.765625 156.441406 345.488281 C 153.625 345.210938 150.820312 344.867188 148.019531 344.449219 C 145.21875 344.035156 142.433594 343.550781 139.65625 343 C 136.878906 342.449219 134.121094 341.828125 131.375 341.140625 C 128.628906 340.453125 125.902344 339.699219 123.195312 338.875 C 120.484375 338.054688 117.800781 337.167969 115.136719 336.214844 C 112.46875 335.261719 109.832031 334.242188 107.214844 333.160156 C 104.601562 332.074219 102.015625 330.929688 99.457031 329.71875 C 96.898438 328.507812 94.371094 327.238281 91.875 325.902344 C 89.378906 324.570312 86.917969 323.175781 84.488281 321.71875 C 82.0625 320.265625 79.671875 318.75 77.320312 317.179688 C 74.964844 315.605469 72.652344 313.976562 70.378906 312.292969 C 68.105469 310.605469 65.875 308.863281 63.6875 307.070312 C 61.5 305.273438 59.359375 303.425781 57.261719 301.523438 C 55.164062 299.625 53.113281 297.671875 51.113281 295.671875 C 49.113281 293.671875 47.160156 291.621094 45.261719 289.523438 C 43.359375 287.429688 41.511719 285.285156 39.71875 283.097656 C 37.921875 280.910156 36.179688 278.679688 34.496094 276.40625 C 32.808594 274.132812 31.179688 271.820312 29.609375 269.46875 C 28.035156 267.113281 26.523438 264.722656 25.066406 262.296875 C 23.613281 259.867188 22.21875 257.40625 20.882812 254.910156 C 19.550781 252.414062 18.277344 249.886719 17.066406 247.328125 C 15.855469 244.769531 14.710938 242.183594 13.628906 239.570312 C 12.542969 236.957031 11.527344 234.316406 10.574219 231.652344 C 9.621094 228.988281 8.730469 226.300781 7.910156 223.589844 C 7.089844 220.882812 6.335938 218.15625 5.644531 215.410156 C 4.957031 212.667969 4.339844 209.90625 3.785156 207.128906 C 3.234375 204.355469 2.75 201.566406 2.335938 198.765625 C 1.921875 195.96875 1.574219 193.160156 1.296875 190.34375 C 1.019531 187.527344 0.8125 184.703125 0.671875 181.878906 C 0.535156 179.050781 0.464844 176.222656 0.464844 173.394531 C 0.464844 170.5625 0.535156 167.734375 0.671875 164.90625 C 0.8125 162.082031 1.019531 159.257812 1.296875 156.441406 C 1.574219 153.625 1.921875 150.820312 2.335938 148.019531 C 2.75 145.21875 3.234375 142.433594 3.785156 139.65625 C 4.339844 136.878906 4.957031 134.121094 5.644531 131.375 C 6.335938 128.628906 7.089844 125.902344 7.910156 123.195312 C 8.730469 120.484375 9.621094 117.800781 10.574219 115.136719 C 11.527344 112.46875 12.542969 109.832031 13.628906 107.214844 C 14.710938 104.601562 15.855469 102.015625 17.066406 99.457031 C 18.277344 96.898438 19.550781 94.371094 20.882812 91.875 C 22.21875 89.378906 23.613281 86.917969 25.066406 84.488281 C 26.523438 82.0625 28.035156 79.671875 29.609375 77.320312 C 31.179688 74.964844 32.808594 72.652344 34.496094 70.378906 C 36.179688 68.105469 37.921875 65.875 39.71875 63.6875 C 41.511719 61.5 43.359375 59.359375 45.261719 57.261719 C 47.160156 55.164062 49.113281 53.113281 51.113281 51.113281 C 53.113281 49.113281 55.164062 47.160156 57.261719 45.261719 C 59.359375 43.359375 61.5 41.511719 63.6875 39.71875 C 65.875 37.921875 68.105469 36.179688 70.378906 34.496094 C 72.652344 32.808594 74.964844 31.179688 77.320312 29.609375 C 79.671875 28.035156 82.0625 26.523438 84.488281 25.066406 C 86.917969 23.613281 89.378906 22.21875 91.875 20.882812 C 94.371094 19.550781 96.898438 18.277344 99.457031 17.066406 C 102.015625 15.855469 104.601562 14.710938 107.214844 13.628906 C 109.832031 12.542969 112.46875 11.527344 115.136719 10.574219 C 117.800781 9.621094 120.484375 8.730469 123.195312 7.910156 C 125.902344 7.089844 128.628906 6.335938 131.375 5.644531 C 134.121094 4.957031 136.878906 4.339844 139.65625 3.785156 C 142.433594 3.234375 145.21875 2.75 148.019531 2.335938 C 150.820312 1.921875 153.625 1.574219 156.441406 1.296875 C 159.257812 1.019531 162.082031 0.8125 164.90625 0.671875 C 167.734375 0.535156 170.5625 0.464844 173.394531 0.464844 C 176.222656 0.464844 179.050781 0.535156 181.878906 0.671875 C 184.703125 0.8125 187.527344 1.019531 190.34375 1.296875 C 193.160156 1.574219 195.96875 1.921875 198.765625 2.335938 C 201.566406 2.75 204.355469 3.234375 207.128906 3.785156 C 209.90625 4.339844 212.667969 4.957031 215.410156 5.644531 C 218.15625 6.335938 220.882812 7.089844 223.589844 7.910156 C 226.300781 8.730469 228.988281 9.621094 231.652344 10.574219 C 234.316406 11.527344 236.957031 12.542969 239.570312 13.628906 C 242.183594 14.710938 244.769531 15.855469 247.328125 17.066406 C 249.886719 18.277344 252.414062 19.550781 254.910156 20.882812 C 257.40625 22.21875 259.867188 23.613281 262.296875 25.066406 C 264.722656 26.523438 267.113281 28.035156 269.46875 29.609375 C 271.820312 31.179688 274.132812 32.808594 276.40625 34.496094 C 278.679688 36.179688 280.910156 37.921875 283.097656 39.71875 C 285.285156 41.511719 287.429688 43.359375 289.523438 45.261719 C 291.621094 47.160156 293.671875 49.113281 295.671875 51.113281 C 297.671875 53.113281 299.625 55.164062 301.523438 57.261719 C 303.425781 59.359375 305.273438 61.5 307.070312 63.6875 C 308.863281 65.875 310.605469 68.105469 312.292969 70.378906 C 313.976562 72.652344 315.605469 74.964844 317.179688 77.320312 C 318.75 79.671875 320.265625 82.0625 321.71875 84.488281 C 323.175781 86.917969 324.570312 89.378906 325.902344 91.875 C 327.238281 94.371094 328.507812 96.898438 329.71875 99.457031 C 330.929688 102.015625 332.074219 104.601562 333.160156 107.214844 C 334.242188 109.832031 335.261719 112.46875 336.214844 115.136719 C 337.167969 117.800781 338.054688 120.484375 338.875 123.195312 C 339.699219 125.902344 340.453125 128.628906 341.140625 131.375 C 341.828125 134.121094 342.449219 136.878906 343 139.65625 C 343.550781 142.433594 344.035156 145.21875 344.449219 148.019531 C 344.867188 150.820312 345.210938 153.625 345.488281 156.441406 C 345.765625 159.257812 345.976562 162.082031 346.113281 164.90625 C 346.253906 167.734375 346.324219 170.5625 346.324219 173.394531 Z M 346.324219 173.394531"></path></clipPath><linearGradient id="f25b18c3eb" y2="0.994747" gradientUnits="userSpaceOnUse" x2="1.004596" y1="0.0000000187244" gradientTransform="matrix(345.858433, 0, 0, 345.858433, 0.463858, 0.463838)" x1="0.0000000189098"><stop offset="0" stop-color="rgb(100%, 46.699524%, 46.299744%)" stop-opacity="1"></stop><stop offset="0.0078125" stop-color="rgb(100%, 46.548462%, 46.14563%)" stop-opacity="1"></stop><stop offset="0.015625" stop-color="rgb(100%, 46.247864%, 45.840454%)" stop-opacity="1"></stop><stop offset="0.0234375" stop-color="rgb(100%, 45.948792%, 45.535278%)" stop-opacity="1"></stop><stop offset="0.03125" stop-color="rgb(100%, 45.648193%, 45.228577%)" stop-opacity="1"></stop><stop offset="0.0390625" stop-color="rgb(100%, 45.347595%, 44.923401%)" stop-opacity="1"></stop><stop offset="0.046875" stop-color="rgb(100%, 45.046997%, 44.618225%)" stop-opacity="1"></stop><stop offset="0.0546875" stop-color="rgb(100%, 44.747925%, 44.313049%)" stop-opacity="1"></stop><stop offset="0.0625" stop-color="rgb(100%, 44.447327%, 44.006348%)" stop-opacity="1"></stop><stop offset="0.0703125" stop-color="rgb(100%, 44.146729%, 43.701172%)" stop-opacity="1"></stop><stop offset="0.078125" stop-color="rgb(100%, 43.84613%, 43.395996%)" stop-opacity="1"></stop><stop offset="0.0859375" stop-color="rgb(100%, 43.545532%, 43.089294%)" stop-opacity="1"></stop><stop offset="0.09375" stop-color="rgb(100%, 43.24646%, 42.784119%)" stop-opacity="1"></stop><stop offset="0.101563" stop-color="rgb(100%, 42.945862%, 42.478943%)" stop-opacity="1"></stop><stop offset="0.109375" stop-color="rgb(100%, 42.645264%, 42.172241%)" stop-opacity="1"></stop><stop offset="0.117188" stop-color="rgb(100%, 42.344666%, 41.867065%)" stop-opacity="1"></stop><stop offset="0.125" stop-color="rgb(100%, 42.045593%, 41.56189%)" stop-opacity="1"></stop><stop offset="0.132812" stop-color="rgb(100%, 41.744995%, 41.256714%)" stop-opacity="1"></stop><stop offset="0.140625" stop-color="rgb(100%, 41.444397%, 40.950012%)" stop-opacity="1"></stop><stop offset="0.148438" stop-color="rgb(100%, 41.143799%, 40.644836%)" stop-opacity="1"></stop><stop offset="0.15625" stop-color="rgb(100%, 40.844727%, 40.339661%)" stop-opacity="1"></stop><stop offset="0.164062" stop-color="rgb(100%, 40.544128%, 40.032959%)" stop-opacity="1"></stop><stop offset="0.171875" stop-color="rgb(100%, 40.24353%, 39.727783%)" stop-opacity="1"></stop><stop offset="0.179688" stop-color="rgb(100%, 39.942932%, 39.422607%)" stop-opacity="1"></stop><stop offset="0.1875" stop-color="rgb(100%, 39.64386%, 39.115906%)" stop-opacity="1"></stop><stop offset="0.195312" stop-color="rgb(100%, 39.343262%, 38.81073%)" stop-opacity="1"></stop><stop offset="0.203125" stop-color="rgb(100%, 39.042664%, 38.505554%)" stop-opacity="1"></stop><stop offset="0.210938" stop-color="rgb(100%, 38.742065%, 38.200378%)" stop-opacity="1"></stop><stop offset="0.21875" stop-color="rgb(100%, 38.442993%, 37.893677%)" stop-opacity="1"></stop><stop offset="0.226563" stop-color="rgb(100%, 38.142395%, 37.588501%)" stop-opacity="1"></stop><stop offset="0.234375" stop-color="rgb(100%, 37.841797%, 37.283325%)" stop-opacity="1"></stop><stop offset="0.242188" stop-color="rgb(100%, 37.541199%, 36.976624%)" stop-opacity="1"></stop><stop offset="0.25" stop-color="rgb(100%, 37.242126%, 36.671448%)" stop-opacity="1"></stop><stop offset="0.257812" stop-color="rgb(100%, 36.941528%, 36.366272%)" stop-opacity="1"></stop><stop offset="0.265625" stop-color="rgb(100%, 36.64093%, 36.061096%)" stop-opacity="1"></stop><stop offset="0.273438" stop-color="rgb(100%, 36.340332%, 35.754395%)" stop-opacity="1"></stop><stop offset="0.28125" stop-color="rgb(100%, 36.04126%, 35.449219%)" stop-opacity="1"></stop><stop offset="0.289062" stop-color="rgb(100%, 35.740662%, 35.144043%)" stop-opacity="1"></stop><stop offset="0.296875" stop-color="rgb(100%, 35.440063%, 34.837341%)" stop-opacity="1"></stop><stop offset="0.304688" stop-color="rgb(100%, 35.139465%, 34.532166%)" stop-opacity="1"></stop><stop offset="0.3125" stop-color="rgb(100%, 34.838867%, 34.22699%)" stop-opacity="1"></stop><stop offset="0.320312" stop-color="rgb(100%, 34.539795%, 33.920288%)" stop-opacity="1"></stop><stop offset="0.328125" stop-color="rgb(100%, 34.239197%, 33.615112%)" stop-opacity="1"></stop><stop offset="0.335938" stop-color="rgb(100%, 33.938599%, 33.309937%)" stop-opacity="1"></stop><stop offset="0.34375" stop-color="rgb(100%, 33.638%, 33.004761%)" stop-opacity="1"></stop><stop offset="0.351562" stop-color="rgb(100%, 33.338928%, 32.698059%)" stop-opacity="1"></stop><stop offset="0.359375" stop-color="rgb(100%, 33.03833%, 32.392883%)" stop-opacity="1"></stop><stop offset="0.367187" stop-color="rgb(100%, 32.737732%, 32.087708%)" stop-opacity="1"></stop><stop offset="0.375" stop-color="rgb(100%, 32.437134%, 31.781006%)" stop-opacity="1"></stop><stop offset="0.382812" stop-color="rgb(100%, 32.138062%, 31.47583%)" stop-opacity="1"></stop><stop offset="0.390625" stop-color="rgb(100%, 31.837463%, 31.170654%)" stop-opacity="1"></stop><stop offset="0.398437" stop-color="rgb(100%, 31.536865%, 30.863953%)" stop-opacity="1"></stop><stop offset="0.40625" stop-color="rgb(100%, 31.236267%, 30.558777%)" stop-opacity="1"></stop><stop offset="0.414063" stop-color="rgb(100%, 30.937195%, 30.253601%)" stop-opacity="1"></stop><stop offset="0.421875" stop-color="rgb(100%, 30.636597%, 29.948425%)" stop-opacity="1"></stop><stop offset="0.429688" stop-color="rgb(100%, 30.335999%, 29.641724%)" stop-opacity="1"></stop><stop offset="0.4375" stop-color="rgb(100%, 30.0354%, 29.336548%)" stop-opacity="1"></stop><stop offset="0.445313" stop-color="rgb(100%, 29.736328%, 29.031372%)" stop-opacity="1"></stop><stop offset="0.453125" stop-color="rgb(100%, 29.43573%, 28.72467%)" stop-opacity="1"></stop><stop offset="0.460938" stop-color="rgb(100%, 29.135132%, 28.419495%)" stop-opacity="1"></stop><stop offset="0.46875" stop-color="rgb(100%, 28.834534%, 28.114319%)" stop-opacity="1"></stop><stop offset="0.476562" stop-color="rgb(100%, 28.535461%, 27.807617%)" stop-opacity="1"></stop><stop offset="0.484375" stop-color="rgb(100%, 28.234863%, 27.502441%)" stop-opacity="1"></stop><stop offset="0.492188" stop-color="rgb(100%, 27.934265%, 27.197266%)" stop-opacity="1"></stop><stop offset="0.497537" stop-color="rgb(100%, 27.633667%, 26.89209%)" stop-opacity="1"></stop><stop offset="0.5" stop-color="rgb(100%, 27.484131%, 26.739502%)" stop-opacity="1"></stop><stop offset="0.502463" stop-color="rgb(100%, 27.334595%, 26.585388%)" stop-opacity="1"></stop><stop offset="0.507812" stop-color="rgb(100%, 27.185059%, 26.4328%)" stop-opacity="1"></stop><stop offset="0.515625" stop-color="rgb(100%, 27.033997%, 26.280212%)" stop-opacity="1"></stop><stop offset="0.523438" stop-color="rgb(100%, 26.733398%, 25.975037%)" stop-opacity="1"></stop><stop offset="0.53125" stop-color="rgb(100%, 26.4328%, 25.668335%)" stop-opacity="1"></stop><stop offset="0.539062" stop-color="rgb(100%, 26.132202%, 25.363159%)" stop-opacity="1"></stop><stop offset="0.546875" stop-color="rgb(100%, 25.83313%, 25.057983%)" stop-opacity="1"></stop><stop offset="0.554688" stop-color="rgb(100%, 25.532532%, 24.751282%)" stop-opacity="1"></stop><stop offset="0.5625" stop-color="rgb(100%, 25.231934%, 24.446106%)" stop-opacity="1"></stop><stop offset="0.570312" stop-color="rgb(100%, 24.931335%, 24.14093%)" stop-opacity="1"></stop><stop offset="0.578125" stop-color="rgb(100%, 24.632263%, 23.835754%)" stop-opacity="1"></stop><stop offset="0.585938" stop-color="rgb(100%, 24.331665%, 23.529053%)" stop-opacity="1"></stop><stop offset="0.59375" stop-color="rgb(100%, 24.031067%, 23.223877%)" stop-opacity="1"></stop><stop offset="0.601562" stop-color="rgb(100%, 23.730469%, 22.918701%)" stop-opacity="1"></stop><stop offset="0.609375" stop-color="rgb(100%, 23.431396%, 22.612%)" stop-opacity="1"></stop><stop offset="0.617188" stop-color="rgb(100%, 23.130798%, 22.306824%)" stop-opacity="1"></stop><stop offset="0.625" stop-color="rgb(100%, 22.8302%, 22.001648%)" stop-opacity="1"></stop><stop offset="0.632812" stop-color="rgb(100%, 22.529602%, 21.694946%)" stop-opacity="1"></stop><stop offset="0.640625" stop-color="rgb(100%, 22.23053%, 21.389771%)" stop-opacity="1"></stop><stop offset="0.648438" stop-color="rgb(100%, 21.929932%, 21.084595%)" stop-opacity="1"></stop><stop offset="0.65625" stop-color="rgb(100%, 21.629333%, 20.779419%)" stop-opacity="1"></stop><stop offset="0.664062" stop-color="rgb(100%, 21.328735%, 20.472717%)" stop-opacity="1"></stop><stop offset="0.671875" stop-color="rgb(100%, 21.029663%, 20.167542%)" stop-opacity="1"></stop><stop offset="0.679688" stop-color="rgb(100%, 20.729065%, 19.862366%)" stop-opacity="1"></stop><stop offset="0.6875" stop-color="rgb(100%, 20.428467%, 19.555664%)" stop-opacity="1"></stop><stop offset="0.695313" stop-color="rgb(100%, 20.127869%, 19.250488%)" stop-opacity="1"></stop><stop offset="0.703125" stop-color="rgb(100%, 19.828796%, 18.945312%)" stop-opacity="1"></stop><stop offset="0.710937" stop-color="rgb(100%, 19.528198%, 18.638611%)" stop-opacity="1"></stop><stop offset="0.71875" stop-color="rgb(100%, 19.2276%, 18.333435%)" stop-opacity="1"></stop><stop offset="0.726562" stop-color="rgb(100%, 18.927002%, 18.028259%)" stop-opacity="1"></stop><stop offset="0.734375" stop-color="rgb(100%, 18.62793%, 17.723083%)" stop-opacity="1"></stop><stop offset="0.742188" stop-color="rgb(100%, 18.327332%, 17.416382%)" stop-opacity="1"></stop><stop offset="0.75" stop-color="rgb(100%, 18.026733%, 17.111206%)" stop-opacity="1"></stop><stop offset="0.757812" stop-color="rgb(100%, 17.726135%, 16.80603%)" stop-opacity="1"></stop><stop offset="0.765625" stop-color="rgb(100%, 17.427063%, 16.499329%)" stop-opacity="1"></stop><stop offset="0.773438" stop-color="rgb(100%, 17.126465%, 16.194153%)" stop-opacity="1"></stop><stop offset="0.78125" stop-color="rgb(100%, 16.825867%, 15.888977%)" stop-opacity="1"></stop><stop offset="0.789062" stop-color="rgb(100%, 16.525269%, 15.582275%)" stop-opacity="1"></stop><stop offset="0.796875" stop-color="rgb(100%, 16.22467%, 15.2771%)" stop-opacity="1"></stop><stop offset="0.804687" stop-color="rgb(100%, 15.925598%, 14.971924%)" stop-opacity="1"></stop><stop offset="0.8125" stop-color="rgb(100%, 15.625%, 14.666748%)" stop-opacity="1"></stop><stop offset="0.820312" stop-color="rgb(100%, 15.324402%, 14.360046%)" stop-opacity="1"></stop><stop offset="0.828125" stop-color="rgb(100%, 15.023804%, 14.054871%)" stop-opacity="1"></stop><stop offset="0.835938" stop-color="rgb(100%, 14.724731%, 13.749695%)" stop-opacity="1"></stop><stop offset="0.84375" stop-color="rgb(100%, 14.424133%, 13.442993%)" stop-opacity="1"></stop><stop offset="0.851562" stop-color="rgb(100%, 14.123535%, 13.137817%)" stop-opacity="1"></stop><stop offset="0.859375" stop-color="rgb(100%, 13.822937%, 12.832642%)" stop-opacity="1"></stop><stop offset="0.867187" stop-color="rgb(100%, 13.523865%, 12.52594%)" stop-opacity="1"></stop><stop offset="0.875" stop-color="rgb(100%, 13.223267%, 12.220764%)" stop-opacity="1"></stop><stop offset="0.882812" stop-color="rgb(100%, 12.922668%, 11.915588%)" stop-opacity="1"></stop><stop offset="0.890625" stop-color="rgb(100%, 12.62207%, 11.610413%)" stop-opacity="1"></stop><stop offset="0.898438" stop-color="rgb(100%, 12.322998%, 11.303711%)" stop-opacity="1"></stop><stop offset="0.90625" stop-color="rgb(100%, 12.0224%, 10.998535%)" stop-opacity="1"></stop><stop offset="0.914062" stop-color="rgb(100%, 11.721802%, 10.693359%)" stop-opacity="1"></stop><stop offset="0.921875" stop-color="rgb(100%, 11.421204%, 10.386658%)" stop-opacity="1"></stop><stop offset="0.929687" stop-color="rgb(100%, 11.122131%, 10.081482%)" stop-opacity="1"></stop><stop offset="0.9375" stop-color="rgb(100%, 10.821533%, 9.776306%)" stop-opacity="1"></stop><stop offset="0.945312" stop-color="rgb(100%, 10.520935%, 9.47113%)" stop-opacity="1"></stop><stop offset="0.953125" stop-color="rgb(100%, 10.220337%, 9.164429%)" stop-opacity="1"></stop><stop offset="0.960938" stop-color="rgb(100%, 9.921265%, 8.859253%)" stop-opacity="1"></stop><stop offset="0.96875" stop-color="rgb(100%, 9.620667%, 8.554077%)" stop-opacity="1"></stop><stop offset="0.976562" stop-color="rgb(100%, 9.320068%, 8.247375%)" stop-opacity="1"></stop><stop offset="0.984375" stop-color="rgb(100%, 9.01947%, 7.9422%)" stop-opacity="1"></stop><stop offset="0.992188" stop-color="rgb(100%, 8.720398%, 7.637024%)" stop-opacity="1"></stop><stop offset="1" stop-color="rgb(100%, 8.4198%, 7.330322%)" stop-opacity="1"></stop></linearGradient><clipPath id="eb79338eb1"><path clip-rule="nonzero" d="M 115.375 191 L 237.855469 191 L 237.855469 262.640625 L 115.375 262.640625 Z M 115.375 191"></path></clipPath><clipPath id="322b77ea29"><path clip-rule="nonzero" d="M 115.375 90.59375 L 237.855469 90.59375 L 237.855469 162 L 115.375 162 Z M 115.375 90.59375"></path></clipPath><clipPath id="60fd421134"><path clip-rule="nonzero" d="M 115.375 140 L 237.855469 140 L 237.855469 212 L 115.375 212 Z M 115.375 140"></path></clipPath></defs><g clip-path="url(#d6789d9bb5)"><g clip-path="url(#532cfe275d)"><path fill-rule="nonzero" d="M 0.464844 0.464844 L 0.464844 346.21875 L 346.21875 346.21875 L 346.21875 0.464844 Z M 0.464844 0.464844" fill="url(#f25b18c3eb)"></path></g></g><g clip-path="url(#eb79338eb1)"><path fill-rule="evenodd" fill-opacity="1" d="M 220.015625 234.671875 L 115.375 262.703125 L 115.375 243.589844 C 115.375 233.078125 123.394531 222.355469 133.160156 219.699219 L 237.855469 191.667969 L 237.855469 210.78125 C 237.855469 221.292969 229.835938 232.015625 220.015625 234.671875 Z M 220.015625 234.671875" fill="#ffffff"></path></g><g clip-path="url(#322b77ea29)"><path fill-rule="evenodd" fill-opacity="1" d="M 220.015625 133.535156 L 115.375 161.566406 L 115.375 142.453125 C 115.375 131.941406 123.394531 121.21875 133.160156 118.566406 L 237.855469 90.535156 L 237.855469 109.644531 C 237.855469 120.15625 229.835938 130.882812 220.015625 133.535156 Z M 220.015625 133.535156" fill="#ffffff"></path></g><g clip-path="url(#60fd421134)"><path fill-rule="evenodd" fill-opacity="1" d="M 220.015625 183.492188 L 115.375 211.578125 L 115.375 192.464844 C 115.375 181.953125 123.394531 171.230469 133.160156 168.574219 L 237.855469 140.542969 L 237.855469 159.65625 C 237.855469 170.167969 229.835938 180.890625 220.015625 183.492188 Z M 220.015625 183.492188" fill="#ffffff"></path></g></svg>