<svg viewBox="0.00 0.00 384.00 384.00" version="1.1" xmlns="http://www.w3.org/2000/svg">
<g stroke-linecap="butt" fill="none" stroke-width="2.00">
<path d="M 304.24 76.32
  L 196.82 74.87" stroke="#ee4728"></path>
<path d="M 196.82 74.87
  Q 196.47 73.41 196.47 73.00
  Q 196.60 57.12 196.40 41.25
  Q 196.32 34.96 191.30 31.48
  Q 190.68 31.06 190.43 29.80" stroke="#d82344"></path>
<path d="M 188.73 30.36
  C 188.07 31.42 187.58 32.65 186.70 33.54
  Q 149.89 70.32 113.00 107.36" stroke="#c31d6c"></path>
<path d="M 113.00 107.36
  Q 101.29 95.68 89.19 83.57
  C 86.03 80.41 82.31 78.84 78.02 80.11
  Q 76.90 80.43 75.92 80.44" stroke="#a02386"></path>
<path d="M 196.82 74.87
  Q 196.43 75.71 196.43 76.50
  Q 196.28 97.45 196.55 118.44" stroke="#da433e"></path>
<path d="M 196.55 118.44
  Q 165.92 117.15 142.80 137.36" stroke="#e28fac"></path>
<path d="M 142.80 137.36
  L 113.00 107.36" stroke="#a12474"></path>
<path d="M 305.02 76.65
  Q 304.69 76.96 304.78 77.25
  Q 306.74 84.20 302.20 88.71
  Q 289.74 101.11 277.39 113.59" stroke="#f37c20"></path>
<path d="M 277.39 113.59
  L 247.75 143.06" stroke="#f8971b"></path>
<path d="M 247.75 143.06
  Q 227.07 120.68 196.55 118.44" stroke="#f8b391"></path>
<path d="M 353.38 189.02
  L 277.39 113.59" stroke="#faac19"></path>
<path d="M 142.80 137.36
  Q 120.70 157.59 118.15 188.22" stroke="#bf95c7"></path>
<path d="M 118.15 188.22
  L 75.82 187.57" stroke="#5d2e8f"></path>
<path d="M 75.82 187.57
  L 75.53 80.73" stroke="#702e8f"></path>
<path d="M 75.82 187.57
  Q 60.36 187.31 44.51 186.91
  Q 34.57 186.67 31.87 195.84
  Q 31.87 195.86 31.86 195.96
  Q 31.86 196.16 31.44 196.31" stroke="#4e3290"></path>
<path d="M 353.42 189.81
  C 350.35 199.14 341.81 198.27 332.75 197.96
  Q 321.19 197.58 309.56 197.42" stroke="#f8d916"></path>
<path d="M 309.56 197.42
  C 307.86 188.54 302.35 187.56 293.88 187.41
  Q 280.30 187.19 266.66 186.80" stroke="#c5c62a"></path>
<path d="M 266.66 186.80
  Q 264.10 161.28 247.75 143.06" stroke="#ffe38a"></path>
<path d="M 266.66 186.80
  Q 268.50 223.66 241.68 248.54" stroke="#c5e39f"></path>
<path d="M 241.68 248.54
  Q 218.49 268.41 188.05 267.16" stroke="#93dccd"></path>
<path d="M 188.05 267.16
  Q 181.77 266.53 179.00 265.98
  Q 153.90 260.97 137.05 242.45" stroke="#8db3d9"></path>
<path d="M 137.05 242.45
  Q 116.63 218.73 118.15 188.22" stroke="#9d99c7"></path>
<path d="M 148.57 142.99
  C 135.42 154.67 127.26 170.82 126.15 188.64" stroke="#bf95c7"></path>
<path d="M 126.15 188.64
  Q 124.78 216.23 142.97 237.07" stroke="#9d99c7"></path>
<path d="M 142.97 237.07
  Q 161.17 257.02 188.38 259.12" stroke="#8db3d9"></path>
<path d="M 188.38 259.12
  C 205.91 260.32 223.14 254.05 236.26 242.67" stroke="#93dccd"></path>
<path d="M 236.26 242.67
  C 251.84 228.78 261.08 207.66 258.46 186.49" stroke="#c5e39f"></path>
<path d="M 258.46 186.49
  Q 256.41 165.22 242.34 149.10" stroke="#ffe38a"></path>
<path d="M 242.34 149.10
  C 231.71 135.53 213.17 127.56 196.46 126.47" stroke="#f8b391"></path>
<path d="M 196.46 126.47
  Q 169.02 125.24 148.57 142.99" stroke="#e28fac"></path>
<path d="M 196.46 126.47
  L 196.76 135.69" stroke="#da433e"></path>
<path d="M 196.76 135.69
  Q 173.16 134.22 155.15 149.35" stroke="#e28fac"></path>
<path d="M 155.15 149.35
  L 148.57 142.99" stroke="#a12474"></path>
<path d="M 242.34 149.10
  L 235.65 155.26" stroke="#f8971b"></path>
<path d="M 235.65 155.26
  Q 219.85 137.71 196.76 135.69" stroke="#f8b391"></path>
<path d="M 135.36 188.38
  L 126.15 188.64" stroke="#5d2e8f"></path>
<path d="M 235.65 155.26
  Q 247.17 168.60 249.38 186.73" stroke="#ffe38a"></path>
<path d="M 249.38 186.73
  Q 251.49 216.74 229.58 236.33" stroke="#c5e39f"></path>
<path d="M 229.58 236.33
  Q 211.85 251.09 188.59 249.93" stroke="#93dccd"></path>
<path d="M 188.59 249.93
  Q 165.35 247.98 149.59 230.73" stroke="#8db3d9"></path>
<path d="M 149.59 230.73
  Q 133.98 212.63 135.36 188.38" stroke="#9d99c7"></path>
<path d="M 135.36 188.38
  Q 137.59 164.89 155.15 149.35" stroke="#bf95c7"></path>
<path d="M 258.46 186.49
  L 249.38 186.73" stroke="#c5c62a"></path>
<path d="M 149.59 230.73
  L 142.97 237.07" stroke="#2b4da1"></path>
<path d="M 188.59 249.93
  Q 187.25 254.48 188.38 259.12" stroke="#2090a6"></path>
<path d="M 236.26 242.67
  L 229.58 236.33" stroke="#59c06d"></path>
<path d="M 178.73 195.86
  L 205.98 195.75
  A 1.54 1.54 0.0 0 0 207.51 194.27
  L 207.53 193.78
  Q 207.61 191.70 205.53 191.69
  L 178.93 191.58
  A 0.66 0.65 -0.0 0 1 178.27 190.93
  L 178.31 172.71
  A 0.74 0.73 -0.4 0 1 179.04 171.98
  L 205.87 171.53
  Q 208.00 171.50 207.80 169.38
  L 207.75 168.87
  A 1.62 1.61 -3.1 0 0 206.12 167.41
  L 177.82 167.71
  A 3.72 3.72 0.0 0 0 174.14 171.43
  L 174.14 216.57
  A 3.93 3.93 0.0 0 0 178.07 220.50
  L 206.76 220.49
  A 1.65 1.64 -0.8 0 0 208.41 218.80
  L 208.40 218.45
  Q 208.33 216.38 206.26 216.38
  L 178.94 216.37
  A 0.68 0.68 0.0 0 1 178.26 215.69
  L 178.32 196.27
  A 0.41 0.41 0.0 0 1 178.73 195.86" stroke="#838485"></path>
<path d="M 309.56 197.42
  L 307.63 305.61
  Q 307.62 305.71 307.71 305.75
  Q 307.83 305.82 307.96 305.75" stroke="#bed92b"></path>
<path d="M 307.66 305.97
  Q 300.77 307.67 295.12 302.13
  Q 283.74 290.96 272.63 279.52" stroke="#56ba45"></path>
<path d="M 272.63 279.52
  L 241.68 248.54" stroke="#59c06d"></path>
<path d="M 137.05 242.45
  L 106.73 271.86" stroke="#2b4da1"></path>
<path d="M 106.73 271.86
  Q 103.58 268.19 100.06 264.69
  Q 66.93 231.82 33.91 198.84
  Q 33.50 198.44 31.80 197.51" stroke="#32358f"></path>
<path d="M 106.73 271.86
  Q 94.77 283.31 83.26 294.50
  C 80.48 297.20 79.93 301.87 81.24 305.71
  Q 81.67 306.96 81.88 308.24" stroke="#2150a1"></path>
<path d="M 188.05 267.16
  Q 187.60 269.90 187.54 274.00
  Q 187.31 291.70 187.02 310.05" stroke="#2090a6"></path>
<path d="M 187.02 310.05
  Q 135.65 309.18 84.50 308.26
  Q 83.14 308.23 82.72 308.80" stroke="#1584bd"></path>
<path d="M 272.63 279.52
  Q 237.70 313.07 202.95 346.70
  Q 199.58 349.97 198.19 351.90" stroke="#23b373"></path>
<path d="M 197.18 352.21
  Q 197.17 352.15 197.15 352.09
  Q 197.13 351.96 197.01 351.95
  Q 189.85 351.04 187.52 345.55
  Q 186.38 342.88 186.53 335.31
  Q 186.78 322.45 187.02 310.05" stroke="#1badb1"></path>
</g>
<path d="M 304.24 76.32
  L 196.82 74.87
  Q 196.47 73.41 196.47 73.00
  Q 196.60 57.12 196.40 41.25
  Q 196.32 34.96 191.30 31.48
  Q 190.68 31.06 190.43 29.80
  Q 201.89 18.29 213.38 6.82
  Q 218.46 1.76 221.01 0.80
  C 226.30 -1.18 230.16 1.22 234.11 5.17
  Q 268.53 39.61 302.95 74.05
  Q 303.35 74.45 304.24 76.32
  Z" fill="#eb272e"></path>
<path d="M 188.73 30.36
  C 188.07 31.42 187.58 32.65 186.70 33.54
  Q 149.89 70.32 113.00 107.36
  Q 101.29 95.68 89.19 83.57
  C 86.03 80.41 82.31 78.84 78.02 80.11
  Q 76.90 80.43 75.92 80.44
  Q 75.96 62.70 75.91 44.92
  Q 75.88 38.38 77.20 35.77
  C 79.55 31.10 83.55 30.01 88.86 29.92
  Q 97.69 29.76 106.50 29.79
  Q 146.44 29.95 186.38 30.09
  Q 187.53 30.09 188.73 30.36
  Z" fill="#c11b7e"></path>
<path d="M 190.43 29.80
  Q 190.68 31.06 191.30 31.48
  Q 196.32 34.96 196.40 41.25
  Q 196.60 57.12 196.47 73.00
  Q 196.47 73.41 196.82 74.87
  Q 196.43 75.71 196.43 76.50
  Q 196.28 97.45 196.55 118.44
  Q 165.92 117.15 142.80 137.36
  L 113.00 107.36
  Q 149.89 70.32 186.70 33.54
  C 187.58 32.65 188.07 31.42 188.73 30.36
  Q 189.65 30.53 190.43 29.80
  Z" fill="#c41e59"></path>
<path d="M 304.24 76.32
  L 305.02 76.65
  Q 304.69 76.96 304.78 77.25
  Q 306.74 84.20 302.20 88.71
  Q 289.74 101.11 277.39 113.59
  L 247.75 143.06
  Q 227.07 120.68 196.55 118.44
  Q 196.28 97.45 196.43 76.50
  Q 196.43 75.71 196.82 74.87
  L 304.24 76.32
  Z" fill="#f06722"></path>
<path d="M 305.02 76.65
  Q 324.50 76.92 344.00 77.29
  Q 351.29 77.43 354.01 82.89
  Q 355.46 85.81 355.33 93.07
  Q 354.48 139.54 353.63 186.00
  Q 353.60 187.52 353.38 189.02
  L 277.39 113.59
  Q 289.74 101.11 302.20 88.71
  Q 306.74 84.20 304.78 77.25
  Q 304.69 76.96 305.02 76.65
  Z" fill="#f5911e"></path>
<path d="M 113.00 107.36
  L 142.80 137.36
  Q 120.70 157.59 118.15 188.22
  L 75.82 187.57
  L 75.53 80.73
  Q 75.64 80.48 75.92 80.44
  Q 76.90 80.43 78.02 80.11
  C 82.31 78.84 86.03 80.41 89.19 83.57
  Q 101.29 95.68 113.00 107.36
  Z" fill="#7e2a8e"></path>
<path d="M 75.53 80.73
  L 75.82 187.57
  Q 60.36 187.31 44.51 186.91
  Q 34.57 186.67 31.87 195.84
  Q 31.87 195.86 31.86 195.96
  Q 31.86 196.16 31.44 196.31
  Q 18.01 182.87 4.57 169.43
  Q 0.76 165.62 0.00 161.38
  L 0.00 159.25
  Q 0.72 155.15 2.42 153.45
  Q 37.97 117.86 73.62 82.37
  Q 74.46 81.53 75.53 80.73
  Z" fill="#613190"></path>
<path d="M 277.39 113.59
  L 353.38 189.02
  Q 353.83 189.85 353.42 189.81
  C 350.35 199.14 341.81 198.27 332.75 197.96
  Q 321.19 197.58 309.56 197.42
  C 307.86 188.54 302.35 187.56 293.88 187.41
  Q 280.30 187.19 266.66 186.80
  Q 264.10 161.28 247.75 143.06
  L 277.39 113.59
  Z" fill="#ffc614"></path>
<path d="M 196.55 118.44
  Q 227.07 120.68 247.75 143.06
  Q 264.10 161.28 266.66 186.80
  Q 268.50 223.66 241.68 248.54
  Q 218.49 268.41 188.05 267.16
  Q 181.77 266.53 179.00 265.98
  Q 153.90 260.97 137.05 242.45
  Q 116.63 218.73 118.15 188.22
  Q 120.70 157.59 142.80 137.36
  Q 165.92 117.15 196.55 118.44
  Z
  M 148.57 142.99
  C 135.42 154.67 127.26 170.82 126.15 188.64
  Q 124.78 216.23 142.97 237.07
  Q 161.17 257.02 188.38 259.12
  C 205.91 260.32 223.14 254.05 236.26 242.67
  C 251.84 228.78 261.08 207.66 258.46 186.49
  Q 256.41 165.22 242.34 149.10
  C 231.71 135.53 213.17 127.56 196.46 126.47
  Q 169.02 125.24 148.57 142.99
  Z" fill="#ffffff"></path>
<path d="M 196.46 126.47
  L 196.76 135.69
  Q 173.16 134.22 155.15 149.35
  L 148.57 142.99
  Q 169.02 125.24 196.46 126.47
  Z" fill="#c41e59"></path>
<path d="M 196.46 126.47
  C 213.17 127.56 231.71 135.53 242.34 149.10
  L 235.65 155.26
  Q 219.85 137.71 196.76 135.69
  L 196.46 126.47
  Z" fill="#f06722"></path>
<path d="M 196.76 135.69
  Q 219.85 137.71 235.65 155.26
  Q 247.17 168.60 249.38 186.73
  Q 251.49 216.74 229.58 236.33
  Q 211.85 251.09 188.59 249.93
  Q 165.35 247.98 149.59 230.73
  Q 133.98 212.63 135.36 188.38
  Q 137.59 164.89 155.15 149.35
  Q 173.16 134.22 196.76 135.69
  Z
  M 178.73 195.86
  L 205.98 195.75
  A 1.54 1.54 0.0 0 0 207.51 194.27
  L 207.53 193.78
  Q 207.61 191.70 205.53 191.69
  L 178.93 191.58
  A 0.66 0.65 -0.0 0 1 178.27 190.93
  L 178.31 172.71
  A 0.74 0.73 -0.4 0 1 179.04 171.98
  L 205.87 171.53
  Q 208.00 171.50 207.80 169.38
  L 207.75 168.87
  A 1.62 1.61 -3.1 0 0 206.12 167.41
  L 177.82 167.71
  A 3.72 3.72 0.0 0 0 174.14 171.43
  L 174.14 216.57
  A 3.93 3.93 0.0 0 0 178.07 220.50
  L 206.76 220.49
  A 1.65 1.64 -0.8 0 0 208.41 218.80
  L 208.40 218.45
  Q 208.33 216.38 206.26 216.38
  L 178.94 216.37
  A 0.68 0.68 0.0 0 1 178.26 215.69
  L 178.32 196.27
  A 0.41 0.41 0.0 0 1 178.73 195.86
  Z" fill="#ffffff"></path>
<path d="M 148.57 142.99
  L 155.15 149.35
  Q 137.59 164.89 135.36 188.38
  L 126.15 188.64
  C 127.26 170.82 135.42 154.67 148.57 142.99
  Z" fill="#7e2a8e"></path>
<path d="M 242.34 149.10
  Q 256.41 165.22 258.46 186.49
  L 249.38 186.73
  Q 247.17 168.60 235.65 155.26
  L 242.34 149.10
  Z" fill="#ffc614"></path>
<path d="M 178.73 195.86
  A 0.41 0.41 0.0 0 0 178.32 196.27
  L 178.26 215.69
  A 0.68 0.68 0.0 0 0 178.94 216.37
  L 206.26 216.38
  Q 208.33 216.38 208.40 218.45
  L 208.41 218.80
  A 1.65 1.64 -0.8 0 1 206.76 220.49
  L 178.07 220.50
  A 3.93 3.93 0.0 0 1 174.14 216.57
  L 174.14 171.43
  A 3.72 3.72 0.0 0 1 177.82 167.71
  L 206.12 167.41
  A 1.62 1.61 -3.1 0 1 207.75 168.87
  L 207.80 169.38
  Q 208.00 171.50 205.87 171.53
  L 179.04 171.98
  A 0.74 0.73 -0.4 0 0 178.31 172.71
  L 178.27 190.93
  A 0.66 0.65 -0.0 0 0 178.93 191.58
  L 205.53 191.69
  Q 207.61 191.70 207.53 193.78
  L 207.51 194.27
  A 1.54 1.54 0.0 0 1 205.98 195.75
  L 178.73 195.86
  Z" fill="#07080a"></path>
<path d="M 258.46 186.49
  C 261.08 207.66 251.84 228.78 236.26 242.67
  L 229.58 236.33
  Q 251.49 216.74 249.38 186.73
  L 258.46 186.49
  Z" fill="#8bc63f"></path>
<path d="M 266.66 186.80
  Q 280.30 187.19 293.88 187.41
  C 302.35 187.56 307.86 188.54 309.56 197.42
  L 307.63 305.61
  Q 307.62 305.71 307.71 305.75
  Q 307.83 305.82 307.96 305.75
  Q 307.91 305.92 307.66 305.97
  Q 300.77 307.67 295.12 302.13
  Q 283.74 290.96 272.63 279.52
  L 241.68 248.54
  Q 268.50 223.66 266.66 186.80
  Z" fill="#8bc63f"></path>
<path d="M 75.82 187.57
  L 118.15 188.22
  Q 116.63 218.73 137.05 242.45
  L 106.73 271.86
  Q 103.58 268.19 100.06 264.69
  Q 66.93 231.82 33.91 198.84
  Q 33.50 198.44 31.80 197.51
  Q 31.93 196.70 31.44 196.31
  Q 31.86 196.16 31.86 195.96
  Q 31.87 195.86 31.87 195.84
  Q 34.57 186.67 44.51 186.91
  Q 60.36 187.31 75.82 187.57
  Z" fill="#3b328f"></path>
<path d="M 135.36 188.38
  Q 133.98 212.63 149.59 230.73
  L 142.97 237.07
  Q 124.78 216.23 126.15 188.64
  L 135.36 188.38
  Z" fill="#3b328f"></path>
<path d="M 353.42 189.81
  Q 369.70 205.17 384.00 220.84
  L 384.00 230.78
  Q 348.81 266.40 312.71 302.47
  Q 310.61 304.57 307.96 305.75
  Q 307.83 305.82 307.71 305.75
  Q 307.62 305.71 307.63 305.61
  L 309.56 197.42
  Q 321.19 197.58 332.75 197.96
  C 341.81 198.27 350.35 199.14 353.42 189.81
  Z" fill="#f1eb17"></path>
<path d="M 31.80 197.51
  Q 33.50 198.44 33.91 198.84
  Q 66.93 231.82 100.06 264.69
  Q 103.58 268.19 106.73 271.86
  Q 94.77 283.31 83.26 294.50
  C 80.48 297.20 79.93 301.87 81.24 305.71
  Q 81.67 306.96 81.88 308.24
  Q 63.55 307.94 45.39 307.59
  C 38.50 307.45 33.36 307.09 30.87 300.69
  Q 29.98 298.40 30.06 293.70
  Q 30.88 245.64 31.80 197.51
  Z" fill="#28388f"></path>
<path d="M 149.59 230.73
  Q 165.35 247.98 188.59 249.93
  Q 187.25 254.48 188.38 259.12
  Q 161.17 257.02 142.97 237.07
  L 149.59 230.73
  Z" fill="#1a67b2"></path>
<path d="M 229.58 236.33
  L 236.26 242.67
  C 223.14 254.05 205.91 260.32 188.38 259.12
  Q 187.25 254.48 188.59 249.93
  Q 211.85 251.09 229.58 236.33
  Z" fill="#26b99a"></path>
<path d="M 137.05 242.45
  Q 153.90 260.97 179.00 265.98
  Q 181.77 266.53 188.05 267.16
  Q 187.60 269.90 187.54 274.00
  Q 187.31 291.70 187.02 310.05
  Q 135.65 309.18 84.50 308.26
  Q 83.14 308.23 82.72 308.80
  L 81.88 308.24
  Q 81.67 306.96 81.24 305.71
  C 79.93 301.87 80.48 297.20 83.26 294.50
  Q 94.77 283.31 106.73 271.86
  L 137.05 242.45
  Z" fill="#1a67b2"></path>
<path d="M 241.68 248.54
  L 272.63 279.52
  Q 237.70 313.07 202.95 346.70
  Q 199.58 349.97 198.19 351.90
  L 197.18 352.21
  Q 197.17 352.15 197.15 352.09
  Q 197.13 351.96 197.01 351.95
  Q 189.85 351.04 187.52 345.55
  Q 186.38 342.88 186.53 335.31
  Q 186.78 322.45 187.02 310.05
  Q 187.31 291.70 187.54 274.00
  Q 187.60 269.90 188.05 267.16
  Q 218.49 268.41 241.68 248.54
  Z" fill="#26b99a"></path>
<path d="M 272.63 279.52
  Q 283.74 290.96 295.12 302.13
  Q 300.77 307.67 307.66 305.97
  Q 307.34 322.15 307.10 338.35
  Q 307.00 345.30 305.64 347.93
  C 303.08 352.88 298.68 353.68 293.07 353.59
  Q 245.65 352.79 198.19 351.90
  Q 199.58 349.97 202.95 346.70
  Q 237.70 313.07 272.63 279.52
  Z" fill="#20ad4b"></path>
<path d="M 187.02 310.05
  Q 186.78 322.45 186.53 335.31
  Q 186.38 342.88 187.52 345.55
  Q 189.85 351.04 197.01 351.95
  Q 197.13 351.96 197.15 352.09
  Q 197.17 352.15 197.18 352.21
  Q 174.95 373.58 168.19 380.19
  Q 165.02 383.29 160.87 384.00
  L 158.76 384.00
  Q 154.63 383.28 152.56 381.18
  Q 138.07 366.43 82.72 308.80
  Q 83.14 308.23 84.50 308.26
  Q 135.65 309.18 187.02 310.05
  Z" fill="#10a1c7"></path>
</svg>
