<svg xmlns="http://www.w3.org/2000/svg" fill="none" viewBox="0 0 200 200" height="200" width="200">
<rect fill="white" height="200" width="200"></rect>
<path fill="#FC7027" d="M99.6834 165.456C81.2991 165.456 63.9361 158.744 50.3667 146.415L65.8329 130.949C75.171 139.119 87.0624 143.57 99.6834 143.57C112.304 143.57 124.123 139.119 133.534 130.949L149 146.415C135.431 158.671 118.068 165.456 99.6834 165.456Z"></path>
<path fill="#FC7027" d="M99.6832 128.03C125.631 128.03 146.665 106.996 146.665 81.0484C146.665 55.1008 125.631 34.0662 99.6832 34.0662C73.7357 34.0662 52.701 55.1008 52.701 81.0484C52.701 106.996 73.7357 128.03 99.6832 128.03Z"></path>
<path fill="white" d="M99.6834 110.149C115.755 110.149 128.784 97.1204 128.784 81.0483C128.784 64.9762 115.755 51.9472 99.6834 51.9472C83.6113 51.9472 70.5823 64.9762 70.5823 81.0483C70.5823 97.1204 83.6113 110.149 99.6834 110.149Z"></path>
</svg>
