<svg viewBox="0.00 0.00 128.00 128.00" version="1.1" xmlns="http://www.w3.org/2000/svg">
<g stroke-linecap="butt" fill="none" stroke-width="2.00">
<path d="M 120.99 34.93
  Q 117.17 36.25 113.35 38.71
  Q 112.79 39.07 112.29 38.80
  Q 111.89 38.58 111.45 38.72
  L 107.54 39.98
  Q 107.06 40.14 106.82 40.59
  L 105.24 43.55
  Q 104.99 44.02 104.69 43.58
  Q 104.53 43.34 104.52 42.97
  A 0.26 0.26 0.0 0 0 104.19 42.73
  Q 102.91 43.09 102.02 44.02
  A 1.33 1.33 0.0 0 1 99.88 43.74
  L 97.75 39.82
  Q 97.52 39.40 97.05 39.53
  Q 95.67 39.91 96.12 41.69
  Q 96.21 42.06 95.86 42.22
  Q 95.42 42.43 94.93 42.89
  Q 94.63 43.17 94.78 43.55
  L 95.37 45.07
  A 0.37 0.36 67.4 0 1 95.19 45.52
  L 94.68 45.75
  Q 94.02 46.06 94.43 46.66
  L 94.91 47.35
  Q 95.65 48.41 94.41 48.77
  Q 93.29 49.10 92.85 50.13
  A 0.58 0.58 0.0 0 0 93.05 50.84
  Q 93.36 51.06 93.54 51.36
  A 0.79 0.78 -33.9 0 1 93.34 52.37
  L 90.27 54.77
  Q 89.96 55.02 90.14 55.37
  L 90.73 56.51
  Q 90.99 57.00 90.49 57.24
  L 90.05 57.44
  Q 89.53 57.68 89.75 58.21
  L 92.19 63.97
  Q 92.25 64.12 92.42 64.12
  Q 92.62 64.10 92.83 64.15
  Q 93.21 64.22 93.13 64.60
  Q 92.77 66.36 93.84 67.82
  Q 94.25 68.39 94.59 67.76
  L 94.71 67.54
  Q 95.10 66.80 95.42 67.58
  Q 97.20 72.00 93.63 74.56
  A 0.68 0.67 -35.8 0 0 93.47 75.51
  Q 94.77 77.28 94.70 79.44
  A 0.16 0.15 59.9 0 0 94.99 79.52
  Q 95.05 79.40 95.09 79.27
  Q 95.21 78.96 95.34 79.26
  Q 95.46 79.54 95.68 79.75
  Q 96.27 80.33 96.14 79.52
  Q 96.02 78.76 96.21 78.04
  Q 96.32 77.62 96.57 77.97
  Q 97.61 79.40 97.67 81.13
  Q 97.69 81.64 97.42 82.08
  Q 96.76 83.14 97.75 83.97
  A 0.60 0.60 0.0 0 1 97.83 84.81
  Q 95.72 87.42 95.86 90.91" stroke="#444167"></path>
<path d="M 95.86 90.91
  Q 94.92 93.49 92.83 88.76
  Q 92.58 88.18 92.12 88.63
  L 91.74 89.01
  Q 91.38 89.37 91.01 89.02
  Q 89.91 87.98 89.43 86.55
  A 0.48 0.48 0.0 0 0 88.64 86.36
  L 88.15 86.85
  Q 87.86 87.15 87.68 86.76
  L 84.63 80.10
  Q 84.38 79.55 84.00 80.03
  L 82.89 81.43
  Q 82.30 82.19 82.21 81.23
  Q 82.14 80.39 81.30 79.99
  Q 80.83 79.76 80.40 80.07
  L 79.53 80.70
  Q 79.47 80.74 79.44 80.67
  Q 78.90 79.41 78.40 78.13
  Q 78.34 77.96 78.50 77.88
  Q 78.63 77.81 78.78 77.75
  A 0.43 0.42 69.7 0 0 79.03 77.19
  L 78.10 75.01
  Q 77.97 74.69 78.07 74.36
  Q 78.15 74.06 78.42 73.82
  Q 79.00 73.31 78.57 72.67
  L 76.26 69.30
  A 0.48 0.48 0.0 0 0 75.39 69.54
  Q 75.35 70.09 75.00 70.50
  Q 74.74 70.82 74.49 70.50
  Q 74.17 70.08 73.67 69.95" stroke="#384163"></path>
<path d="M 73.67 69.95
  Q 73.56 52.87 73.79 35.75
  C 73.90 27.47 64.47 22.48 57.95 27.73
  Q 53.96 30.94 54.28 37.39" stroke="#5e6b92"></path>
<path d="M 54.28 37.39
  Q 53.61 35.40 53.17 35.49
  Q 52.07 32.99 50.34 30.88
  Q 50.06 30.55 50.03 30.11
  Q 49.91 28.60 48.48 28.10
  Q 48.04 27.94 48.02 27.47
  Q 47.92 25.52 47.03 23.81
  Q 46.77 23.32 46.89 22.78
  Q 47.16 21.51 46.47 20.44
  Q 46.25 20.11 46.21 19.71
  L 45.89 16.45
  Q 45.87 16.17 46.03 15.96
  Q 46.15 15.79 46.12 15.50
  Q 46.09 15.20 45.97 14.99
  Q 45.77 14.63 45.99 14.27
  Q 46.21 13.91 46.12 13.37
  Q 46.06 13.01 46.41 12.90
  Q 47.17 12.67 47.07 11.78
  Q 46.94 10.63 47.66 10.24
  Q 48.03 10.03 48.10 9.62
  L 49.49 1.63" stroke="#313458"></path>
<path d="M 54.28 37.39
  L 54.30 81.08" stroke="#4d6788"></path>
<path d="M 54.30 81.08
  Q 54.32 87.25 54.37 94.15
  Q 54.38 95.79 56.19 98.44" stroke="#69508a"></path>
<path d="M 56.19 98.44
  Q 56.49 99.88 57.91 101.18
  A 0.66 0.64 -52.3 0 1 58.01 102.02
  Q 57.69 102.51 58.12 102.89
  A 0.73 0.73 0.0 0 1 58.32 103.66
  C 56.63 108.67 55.16 113.79 54.41 119.05
  C 54.32 119.69 54.61 120.35 54.09 120.99
  Q 53.79 121.38 53.88 121.86
  Q 54.11 123.10 53.62 124.19
  Q 53.43 124.60 53.57 125.03
  Q 53.80 125.74 53.44 126.30
  Q 53.22 126.66 53.56 126.92
  L 53.99 127.24" stroke="#273e5a"></path>
<path d="M 73.67 69.95
  L 73.64 81.85" stroke="#547594"></path>
<path d="M 73.64 81.85
  Q 72.29 80.69 70.21 80.76
  Q 67.04 80.86 66.76 80.84
  Q 60.60 80.37 54.30 81.08" stroke="#9687c4"></path>
<path d="M 106.43 111.88
  C 105.18 110.01 103.67 108.54 103.20 106.34
  C 102.62 103.66 102.41 101.04 101.14 98.48
  Q 100.90 97.99 101.15 97.50
  L 101.67 96.50
  Q 101.95 95.95 101.35 96.08
  Q 100.19 96.34 99.88 95.52
  Q 98.76 92.52 97.26 89.66
  Q 96.99 89.15 96.68 89.63
  L 95.86 90.91" stroke="#3b4b69"></path>
<path d="M 56.19 98.44
  C 60.73 103.95 69.19 103.82 72.45 97.48
  C 74.38 93.74 73.56 86.59 73.64 81.85" stroke="#705d96"></path>
</g>
<path d="M 59.64 0.00
  L 68.50 0.00
  C 90.93 2.19 110.74 14.50 120.99 34.93
  Q 117.17 36.25 113.35 38.71
  Q 112.79 39.07 112.29 38.80
  Q 111.89 38.58 111.45 38.72
  L 107.54 39.98
  Q 107.06 40.14 106.82 40.59
  L 105.24 43.55
  Q 104.99 44.02 104.69 43.58
  Q 104.53 43.34 104.52 42.97
  A 0.26 0.26 0.0 0 0 104.19 42.73
  Q 102.91 43.09 102.02 44.02
  A 1.33 1.33 0.0 0 1 99.88 43.74
  L 97.75 39.82
  Q 97.52 39.40 97.05 39.53
  Q 95.67 39.91 96.12 41.69
  Q 96.21 42.06 95.86 42.22
  Q 95.42 42.43 94.93 42.89
  Q 94.63 43.17 94.78 43.55
  L 95.37 45.07
  A 0.37 0.36 67.4 0 1 95.19 45.52
  L 94.68 45.75
  Q 94.02 46.06 94.43 46.66
  L 94.91 47.35
  Q 95.65 48.41 94.41 48.77
  Q 93.29 49.10 92.85 50.13
  A 0.58 0.58 0.0 0 0 93.05 50.84
  Q 93.36 51.06 93.54 51.36
  A 0.79 0.78 -33.9 0 1 93.34 52.37
  L 90.27 54.77
  Q 89.96 55.02 90.14 55.37
  L 90.73 56.51
  Q 90.99 57.00 90.49 57.24
  L 90.05 57.44
  Q 89.53 57.68 89.75 58.21
  L 92.19 63.97
  Q 92.25 64.12 92.42 64.12
  Q 92.62 64.10 92.83 64.15
  Q 93.21 64.22 93.13 64.60
  Q 92.77 66.36 93.84 67.82
  Q 94.25 68.39 94.59 67.76
  L 94.71 67.54
  Q 95.10 66.80 95.42 67.58
  Q 97.20 72.00 93.63 74.56
  A 0.68 0.67 -35.8 0 0 93.47 75.51
  Q 94.77 77.28 94.70 79.44
  A 0.16 0.15 59.9 0 0 94.99 79.52
  Q 95.05 79.40 95.09 79.27
  Q 95.21 78.96 95.34 79.26
  Q 95.46 79.54 95.68 79.75
  Q 96.27 80.33 96.14 79.52
  Q 96.02 78.76 96.21 78.04
  Q 96.32 77.62 96.57 77.97
  Q 97.61 79.40 97.67 81.13
  Q 97.69 81.64 97.42 82.08
  Q 96.76 83.14 97.75 83.97
  A 0.60 0.60 0.0 0 1 97.83 84.81
  Q 95.72 87.42 95.86 90.91
  Q 94.92 93.49 92.83 88.76
  Q 92.58 88.18 92.12 88.63
  L 91.74 89.01
  Q 91.38 89.37 91.01 89.02
  Q 89.91 87.98 89.43 86.55
  A 0.48 0.48 0.0 0 0 88.64 86.36
  L 88.15 86.85
  Q 87.86 87.15 87.68 86.76
  L 84.63 80.10
  Q 84.38 79.55 84.00 80.03
  L 82.89 81.43
  Q 82.30 82.19 82.21 81.23
  Q 82.14 80.39 81.30 79.99
  Q 80.83 79.76 80.40 80.07
  L 79.53 80.70
  Q 79.47 80.74 79.44 80.67
  Q 78.90 79.41 78.40 78.13
  Q 78.34 77.96 78.50 77.88
  Q 78.63 77.81 78.78 77.75
  A 0.43 0.42 69.7 0 0 79.03 77.19
  L 78.10 75.01
  Q 77.97 74.69 78.07 74.36
  Q 78.15 74.06 78.42 73.82
  Q 79.00 73.31 78.57 72.67
  L 76.26 69.30
  A 0.48 0.48 0.0 0 0 75.39 69.54
  Q 75.35 70.09 75.00 70.50
  Q 74.74 70.82 74.49 70.50
  Q 74.17 70.08 73.67 69.95
  Q 73.56 52.87 73.79 35.75
  C 73.90 27.47 64.47 22.48 57.95 27.73
  Q 53.96 30.94 54.28 37.39
  Q 53.61 35.40 53.17 35.49
  Q 52.07 32.99 50.34 30.88
  Q 50.06 30.55 50.03 30.11
  Q 49.91 28.60 48.48 28.10
  Q 48.04 27.94 48.02 27.47
  Q 47.92 25.52 47.03 23.81
  Q 46.77 23.32 46.89 22.78
  Q 47.16 21.51 46.47 20.44
  Q 46.25 20.11 46.21 19.71
  L 45.89 16.45
  Q 45.87 16.17 46.03 15.96
  Q 46.15 15.79 46.12 15.50
  Q 46.09 15.20 45.97 14.99
  Q 45.77 14.63 45.99 14.27
  Q 46.21 13.91 46.12 13.37
  Q 46.06 13.01 46.41 12.90
  Q 47.17 12.67 47.07 11.78
  Q 46.94 10.63 47.66 10.24
  Q 48.03 10.03 48.10 9.62
  L 49.49 1.63
  L 59.64 0.00
  Z" fill="#413761"></path>
<path d="M 49.49 1.63
  L 48.10 9.62
  Q 48.03 10.03 47.66 10.24
  Q 46.94 10.63 47.07 11.78
  Q 47.17 12.67 46.41 12.90
  Q 46.06 13.01 46.12 13.37
  Q 46.21 13.91 45.99 14.27
  Q 45.77 14.63 45.97 14.99
  Q 46.09 15.20 46.12 15.50
  Q 46.15 15.79 46.03 15.96
  Q 45.87 16.17 45.89 16.45
  L 46.21 19.71
  Q 46.25 20.11 46.47 20.44
  Q 47.16 21.51 46.89 22.78
  Q 46.77 23.32 47.03 23.81
  Q 47.92 25.52 48.02 27.47
  Q 48.04 27.94 48.48 28.10
  Q 49.91 28.60 50.03 30.11
  Q 50.06 30.55 50.34 30.88
  Q 52.07 32.99 53.17 35.49
  Q 53.61 35.40 54.28 37.39
  L 54.30 81.08
  Q 54.32 87.25 54.37 94.15
  Q 54.38 95.79 56.19 98.44
  Q 56.49 99.88 57.91 101.18
  A 0.66 0.64 -52.3 0 1 58.01 102.02
  Q 57.69 102.51 58.12 102.89
  A 0.73 0.73 0.0 0 1 58.32 103.66
  C 56.63 108.67 55.16 113.79 54.41 119.05
  C 54.32 119.69 54.61 120.35 54.09 120.99
  Q 53.79 121.38 53.88 121.86
  Q 54.11 123.10 53.62 124.19
  Q 53.43 124.60 53.57 125.03
  Q 53.80 125.74 53.44 126.30
  Q 53.22 126.66 53.56 126.92
  L 53.99 127.24
  L 48.18 126.17
  Q 47.72 126.08 47.37 125.76
  Q 47.05 125.46 46.56 125.49
  Q 46.17 125.51 45.79 125.39
  Q 40.84 123.80 39.18 123.07
  C 16.57 113.20 2.05 92.84 0.00 68.36
  L 0.00 59.50
  Q 2.25 34.35 20.04 17.41
  Q 32.32 5.72 49.49 1.63
  Z" fill="#20304e"></path>
<path d="M 73.67 69.95
  L 73.64 81.85
  Q 72.29 80.69 70.21 80.76
  Q 67.04 80.86 66.76 80.84
  Q 60.60 80.37 54.30 81.08
  L 54.28 37.39
  Q 53.96 30.94 57.95 27.73
  C 64.47 22.48 73.90 27.47 73.79 35.75
  Q 73.56 52.87 73.67 69.95
  Z" fill="#7a9ec2"></path>
<path d="M 120.99 34.93
  Q 124.58 41.80 126.31 49.50
  Q 127.33 54.04 128.00 60.07
  L 128.00 68.06
  Q 125.69 94.42 106.43 111.88
  C 105.18 110.01 103.67 108.54 103.20 106.34
  C 102.62 103.66 102.41 101.04 101.14 98.48
  Q 100.90 97.99 101.15 97.50
  L 101.67 96.50
  Q 101.95 95.95 101.35 96.08
  Q 100.19 96.34 99.88 95.52
  Q 98.76 92.52 97.26 89.66
  Q 96.99 89.15 96.68 89.63
  L 95.86 90.91
  Q 95.72 87.42 97.83 84.81
  A 0.60 0.60 0.0 0 0 97.75 83.97
  Q 96.76 83.14 97.42 82.08
  Q 97.69 81.64 97.67 81.13
  Q 97.61 79.40 96.57 77.97
  Q 96.32 77.62 96.21 78.04
  Q 96.02 78.76 96.14 79.52
  Q 96.27 80.33 95.68 79.75
  Q 95.46 79.54 95.34 79.26
  Q 95.21 78.96 95.09 79.27
  Q 95.05 79.40 94.99 79.52
  A 0.16 0.15 59.9 0 1 94.70 79.44
  Q 94.77 77.28 93.47 75.51
  A 0.68 0.67 -35.8 0 1 93.63 74.56
  Q 97.20 72.00 95.42 67.58
  Q 95.10 66.80 94.71 67.54
  L 94.59 67.76
  Q 94.25 68.39 93.84 67.82
  Q 92.77 66.36 93.13 64.60
  Q 93.21 64.22 92.83 64.15
  Q 92.62 64.10 92.42 64.12
  Q 92.25 64.12 92.19 63.97
  L 89.75 58.21
  Q 89.53 57.68 90.05 57.44
  L 90.49 57.24
  Q 90.99 57.00 90.73 56.51
  L 90.14 55.37
  Q 89.96 55.02 90.27 54.77
  L 93.34 52.37
  A 0.79 0.78 -33.9 0 0 93.54 51.36
  Q 93.36 51.06 93.05 50.84
  A 0.58 0.58 0.0 0 1 92.85 50.13
  Q 93.29 49.10 94.41 48.77
  Q 95.65 48.41 94.91 47.35
  L 94.43 46.66
  Q 94.02 46.06 94.68 45.75
  L 95.19 45.52
  A 0.37 0.36 67.4 0 0 95.37 45.07
  L 94.78 43.55
  Q 94.63 43.17 94.93 42.89
  Q 95.42 42.43 95.86 42.22
  Q 96.21 42.06 96.12 41.69
  Q 95.67 39.91 97.05 39.53
  Q 97.52 39.40 97.75 39.82
  L 99.88 43.74
  A 1.33 1.33 0.0 0 0 102.02 44.02
  Q 102.91 43.09 104.19 42.73
  A 0.26 0.26 0.0 0 1 104.52 42.97
  Q 104.53 43.34 104.69 43.58
  Q 104.99 44.02 105.24 43.55
  L 106.82 40.59
  Q 107.06 40.14 107.54 39.98
  L 111.45 38.72
  Q 111.89 38.58 112.29 38.80
  Q 112.79 39.07 113.35 38.71
  Q 117.17 36.25 120.99 34.93
  Z" fill="#474b6c"></path>
<path d="M 95.86 90.91
  L 96.68 89.63
  Q 96.99 89.15 97.26 89.66
  Q 98.76 92.52 99.88 95.52
  Q 100.19 96.34 101.35 96.08
  Q 101.95 95.95 101.67 96.50
  L 101.15 97.50
  Q 100.90 97.99 101.14 98.48
  C 102.41 101.04 102.62 103.66 103.20 106.34
  C 103.67 108.54 105.18 110.01 106.43 111.88
  Q 104.37 113.51 102.32 115.05
  Q 87.55 126.13 68.87 128.00
  L 59.51 128.00
  L 53.99 127.24
  L 53.56 126.92
  Q 53.22 126.66 53.44 126.30
  Q 53.80 125.74 53.57 125.03
  Q 53.43 124.60 53.62 124.19
  Q 54.11 123.10 53.88 121.86
  Q 53.79 121.38 54.09 120.99
  C 54.61 120.35 54.32 119.69 54.41 119.05
  C 55.16 113.79 56.63 108.67 58.32 103.66
  A 0.73 0.73 0.0 0 0 58.12 102.89
  Q 57.69 102.51 58.01 102.02
  A 0.66 0.64 -52.3 0 0 57.91 101.18
  Q 56.49 99.88 56.19 98.44
  C 60.73 103.95 69.19 103.82 72.45 97.48
  C 74.38 93.74 73.56 86.59 73.64 81.85
  L 73.67 69.95
  Q 74.17 70.08 74.49 70.50
  Q 74.74 70.82 75.00 70.50
  Q 75.35 70.09 75.39 69.54
  A 0.48 0.48 0.0 0 1 76.26 69.30
  L 78.57 72.67
  Q 79.00 73.31 78.42 73.82
  Q 78.15 74.06 78.07 74.36
  Q 77.97 74.69 78.10 75.01
  L 79.03 77.19
  A 0.43 0.42 69.7 0 1 78.78 77.75
  Q 78.63 77.81 78.50 77.88
  Q 78.34 77.96 78.40 78.13
  Q 78.90 79.41 79.44 80.67
  Q 79.47 80.74 79.53 80.70
  L 80.40 80.07
  Q 80.83 79.76 81.30 79.99
  Q 82.14 80.39 82.21 81.23
  Q 82.30 82.19 82.89 81.43
  L 84.00 80.03
  Q 84.38 79.55 84.63 80.10
  L 87.68 86.76
  Q 87.86 87.15 88.15 86.85
  L 88.64 86.36
  A 0.48 0.48 0.0 0 1 89.43 86.55
  Q 89.91 87.98 91.01 89.02
  Q 91.38 89.37 91.74 89.01
  L 92.12 88.63
  Q 92.58 88.18 92.83 88.76
  Q 94.92 93.49 95.86 90.91
  Z" fill="#2e4b65"></path>
<path d="M 54.30 81.08
  Q 60.60 80.37 66.76 80.84
  Q 67.04 80.86 70.21 80.76
  Q 72.29 80.69 73.64 81.85
  C 73.56 86.59 74.38 93.74 72.45 97.48
  C 69.19 103.82 60.73 103.95 56.19 98.44
  Q 54.38 95.79 54.37 94.15
  Q 54.32 87.25 54.30 81.08
  Z" fill="#b26fc6"></path>
</svg>
