<svg viewBox="0.00 0.00 128.00 128.00" version="1.1" xmlns="http://www.w3.org/2000/svg">
<g stroke-linecap="butt" fill="none" stroke-width="2.00">
<path d="M 86.89 0.00
  Q 86.58 0.59 85.79 0.76
  A 1.05 1.02 9.9 0 0 85.14 1.20
  C 84.35 2.37 82.34 2.58 82.81 4.42
  A 0.38 0.36 67.4 0 1 82.65 4.83
  Q 82.40 4.98 82.23 4.80
  Q 81.89 4.46 81.56 4.80
  L 70.51 16.04
  Q 70.11 16.45 70.00 17.02
  L 69.91 17.50
  A 0.44 0.43 -74.5 0 1 69.34 17.83
  Q 68.07 17.39 67.83 18.95
  Q 67.81 19.10 67.86 19.24
  Q 67.95 19.46 67.86 19.74
  Q 67.80 19.94 67.60 19.89
  Q 66.97 19.75 66.49 20.24
  Q 65.42 21.36 64.32 22.47
  Q 63.96 22.83 63.94 23.34
  Q 63.92 23.94 63.63 24.38
  Q 63.40 24.72 62.35 25.18
  Q 61.01 25.76 60.66 27.24
  Q 60.57 27.64 60.20 27.81
  Q 58.45 28.62 57.68 30.41
  Q 57.49 30.85 57.01 30.88
  Q 56.31 30.91 56.10 31.62
  A 0.31 0.31 0.0 0 0 56.40 32.02
  Q 57.10 32.03 56.78 32.20
  Q 56.73 32.23 56.69 32.28
  Q 56.60 32.43 56.43 32.54
  Q 56.26 32.66 56.05 32.61
  Q 55.89 32.57 55.77 32.75
  Q 54.69 34.28 53.34 35.05
  Q 52.92 35.29 52.76 35.73
  C 52.37 36.80 51.02 37.54 50.52 38.10
  Q 49.83 38.87 49.01 39.54
  Q 48.65 39.83 48.19 39.87
  Q 47.40 39.92 47.14 40.80" stroke="#1c88e9"></path>
<path d="M 47.14 40.80
  L 40.85 40.75" stroke="#8079f3"></path>
<path d="M 97.94 2.24
  L 90.60 10.28
  Q 90.42 10.48 90.16 10.54
  Q 89.37 10.73 88.99 11.56
  Q 88.79 11.99 88.42 12.28
  Q 86.77 13.55 84.61 16.62
  Q 83.64 18.01 78.84 22.46
  Q 76.19 24.92 74.70 28.14
  Q 74.50 28.57 74.08 28.78
  Q 72.91 29.36 72.12 30.42
  Q 71.87 30.75 71.47 30.85
  Q 70.70 31.05 70.78 31.94
  Q 70.78 32.01 70.85 32.04
  Q 70.96 32.10 71.09 32.12
  Q 71.35 32.18 71.12 32.30
  C 69.71 33.02 69.27 34.33 68.38 35.17
  Q 66.56 36.89 64.70 38.58
  C 63.67 39.51 63.56 40.55 62.36 41.48
  Q 60.44 42.98 61.43 44.46" stroke="#1c9bed"></path>
<path d="M 61.43 44.46
  L 58.67 43.48" stroke="#7458f4"></path>
<path d="M 58.67 43.48
  L 50.28 41.31" stroke="#7c70f5"></path>
<path d="M 50.28 41.31
  L 47.14 40.80" stroke="#8084f5"></path>
<path d="M 105.30 5.39
  L 100.82 10.04
  Q 100.80 10.06 100.82 10.07
  Q 100.96 10.21 101.10 10.35
  Q 101.27 10.51 101.10 10.67
  L 95.31 15.76
  Q 95.01 16.02 95.06 16.41
  Q 95.12 16.89 94.53 17.13
  C 93.34 17.61 93.34 18.24 92.71 18.88
  Q 90.41 21.19 88.06 23.44
  Q 87.75 23.73 87.67 24.14
  Q 87.47 25.17 86.46 25.04
  Q 86.03 24.99 85.32 25.60
  Q 85.30 25.62 85.21 25.91
  Q 85.07 26.38 84.72 26.72
  L 79.55 31.63
  Q 79.46 31.71 79.55 31.80
  Q 79.66 31.92 79.78 32.03
  Q 79.90 32.15 79.77 32.26
  C 78.34 33.56 76.74 34.45 75.47 35.85
  Q 70.62 41.18 65.26 46.40" stroke="#1cb0f2"></path>
<path d="M 65.26 46.40
  L 61.43 44.46" stroke="#7461f6"></path>
<path d="M 118.53 16.56
  L 113.83 21.45
  Q 113.67 21.61 113.44 21.61
  Q 113.31 21.61 113.18 21.66
  Q 112.98 21.73 112.91 21.95
  Q 112.85 22.12 112.87 22.31
  A 0.49 0.47 -27.0 0 1 112.73 22.71
  L 96.71 38.83
  Q 96.63 38.91 96.54 38.88
  L 96.22 38.78
  Q 95.88 38.67 95.88 39.02
  L 95.88 39.75
  A 0.96 0.96 0.0 0 1 95.37 40.60
  Q 93.33 41.68 92.55 43.78
  Q 92.37 44.27 91.93 44.57
  Q 90.97 45.22 90.84 46.37
  Q 90.77 46.89 90.37 47.24
  Q 88.33 48.96 86.27 50.67
  Q 84.06 52.51 82.51 54.59
  Q 80.88 56.77 79.21 59.13" stroke="#1dc7f6"></path>
<path d="M 79.21 59.13
  Q 75.81 54.31 71.61 50.92" stroke="#6a6df5"></path>
<path d="M 71.61 50.92
  L 65.26 46.40" stroke="#746df9"></path>
<path d="M 122.69 22.99
  Q 122.54 23.60 122.26 23.64
  Q 121.91 23.70 121.66 23.58
  Q 121.28 23.41 120.94 23.65
  Q 118.97 25.04 117.61 27.02
  Q 117.39 27.34 117.00 27.38
  Q 116.74 27.41 116.54 27.65
  Q 114.70 29.80 112.60 31.67
  C 110.81 33.26 109.41 34.94 107.79 36.58
  Q 107.36 37.02 106.76 38.09
  C 106.07 39.32 104.24 40.31 103.60 40.93
  Q 99.85 44.58 96.35 48.50
  A 1.30 1.23 6.0 0 1 95.97 48.79
  Q 92.38 50.68 89.95 53.94
  Q 89.80 54.14 89.86 54.38
  Q 89.93 54.66 89.61 54.83
  Q 88.83 55.25 88.89 56.05
  Q 88.93 56.55 88.45 56.69
  Q 87.70 56.92 87.22 57.55
  Q 87.05 57.76 87.12 58.01
  Q 87.17 58.19 87.12 58.38
  Q 87.05 58.64 86.66 58.88
  Q 83.90 60.53 81.98 63.41" stroke="#1ddcfa"></path>
<path d="M 81.98 63.41
  L 79.21 59.13" stroke="#6b78f7"></path>
<path d="M 127.48 37.23
  L 111.54 53.60
  A 1.64 1.56 -75.4 0 1 110.86 54.02
  Q 110.21 54.22 109.76 54.76
  Q 107.91 56.98 106.05 59.14
  Q 105.51 59.77 103.67 61.55
  Q 99.49 65.58 86.96 78.87" stroke="#40eefe"></path>
<path d="M 86.96 78.87
  Q 86.32 73.60 84.10 68.13" stroke="#5e82f5"></path>
<path d="M 84.10 68.13
  L 81.98 63.41" stroke="#6b82f9"></path>
<path d="M 87.27 87.19
  L 86.96 78.87" stroke="#818af6"></path>
<path d="M 50.28 41.31
  L 32.12 58.82
  A 0.08 0.07 52.2 0 1 32.01 58.80
  Q 31.99 58.76 31.97 58.74
  Q 31.91 58.65 31.74 58.74
  Q 31.45 58.89 31.55 59.42
  A 0.04 0.04 0.0 0 1 31.51 59.47
  Q 30.22 59.44 30.09 60.42
  A 0.77 0.71 -20.3 0 1 29.86 60.87
  L 4.37 85.35
  A 0.62 0.62 0.0 0 1 3.92 85.52
  Q 2.91 85.49 3.19 85.75
  Q 3.55 86.07 3.20 86.40
  L 0.33 89.13" stroke="#df62ff"></path>
<path d="M 0.76 77.64
  L 8.62 70.52
  A 1.01 0.87 -14.4 0 0 8.82 70.23
  C 9.45 68.66 13.03 65.72 14.34 64.39
  Q 14.59 64.14 14.94 64.13
  Q 15.14 64.12 15.32 64.08
  Q 15.61 64.01 15.91 63.72
  Q 20.59 59.17 25.01 54.38
  C 27.53 51.64 31.18 48.99 33.82 45.72
  Q 35.49 43.65 37.93 41.17" stroke="#e789ff"></path>
<path d="M 58.67 43.48
  Q 57.66 44.28 57.04 45.24
  Q 56.72 45.75 56.14 45.87
  Q 55.44 46.02 55.20 46.62
  Q 55.05 46.97 54.77 47.23
  L 40.42 60.24
  A 0.45 0.45 0.0 0 1 40.13 60.37
  Q 39.59 60.42 39.39 60.92
  Q 39.28 61.20 39.07 61.42
  L 35.60 65.16
  A 0.64 0.63 -67.6 0 1 35.14 65.36
  Q 34.47 65.38 34.45 66.05
  A 0.93 0.92 -14.2 0 1 33.97 66.84
  Q 31.92 67.97 31.00 70.18
  Q 30.80 70.67 30.29 70.82
  Q 29.32 71.09 28.86 72.01
  A 1.34 1.34 0.0 0 1 28.26 72.61
  Q 25.61 73.85 24.51 76.61
  A 1.04 1.04 0.0 0 1 23.19 77.21
  Q 22.37 76.91 22.16 77.50
  Q 22.07 77.75 21.42 78.39
  L 15.43 84.29
  Q 15.09 84.61 14.91 85.04
  Q 14.48 86.04 13.63 86.61
  Q 11.86 87.80 11.65 88.03
  Q 8.38 91.43 5.00 94.73
  Q 4.86 94.87 4.66 94.86
  Q 4.48 94.86 4.32 94.91
  Q 3.98 95.02 3.98 95.37
  Q 3.93 97.01 2.17 97.79" stroke="#d436fe"></path>
<path d="M 71.61 50.92
  L 70.52 52.25
  Q 70.29 52.54 69.93 52.64
  Q 69.20 52.85 68.98 54.47
  A 0.76 0.76 0.0 0 1 68.24 55.12
  L 67.83 55.12
  Q 67.48 55.12 67.24 55.37
  L 65.49 57.18
  Q 65.12 57.56 65.13 58.08
  Q 65.15 59.07 64.20 59.49
  A 0.21 0.21 0.0 0 1 63.94 59.40
  Q 63.85 59.25 63.89 59.07
  A 0.18 0.18 0.0 0 0 63.58 58.92
  L 62.47 60.28
  Q 62.14 60.67 62.14 61.18
  Q 62.14 61.41 62.07 61.60
  A 0.68 0.68 0.0 0 1 61.45 62.04
  C 59.98 62.08 59.28 63.76 58.14 64.58
  C 56.08 66.05 54.62 68.28 52.56 69.91
  Q 52.21 70.19 52.13 70.63
  Q 52.02 71.23 51.42 71.46
  A 0.21 0.21 0.0 0 1 51.13 71.27
  Q 51.14 71.12 51.12 70.97
  Q 51.10 70.64 50.85 70.86
  L 49.17 72.42
  Q 49.10 72.48 49.14 72.56
  Q 49.20 72.69 49.23 72.81
  Q 49.27 73.00 49.14 73.14
  Q 49.00 73.28 48.80 73.34
  Q 48.47 73.43 48.34 73.75
  Q 47.92 74.78 46.91 75.03
  Q 46.56 75.11 46.30 75.35
  L 39.58 81.42
  Q 39.21 81.75 39.08 82.23
  Q 38.84 83.06 37.84 83.17
  Q 37.38 83.22 37.04 83.55
  L 32.54 87.92
  Q 32.29 88.17 32.20 88.50
  L 32.01 89.25
  A 0.02 0.02 0.0 0 1 31.99 89.27
  L 31.54 89.13
  Q 31.41 89.09 31.31 89.18
  L 28.21 92.28
  Q 28.00 92.49 27.79 92.28
  Q 27.66 92.16 27.54 92.02
  A 0.24 0.24 0.0 0 0 27.12 92.17
  L 27.12 93.04
  Q 27.12 93.50 26.78 93.83
  L 23.44 97.06
  Q 23.13 97.35 22.74 97.19
  Q 22.28 97.00 21.85 97.11
  Q 21.45 97.22 21.09 97.85
  Q 19.98 99.76 18.08 100.99
  Q 17.92 101.10 18.02 101.27
  Q 18.16 101.52 17.94 101.69
  Q 16.67 102.69 15.67 103.94
  C 13.63 106.46 11.23 108.47 8.90 110.76" stroke="#c21efa"></path>
<path d="M 84.10 68.13
  Q 80.48 70.31 77.52 73.77
  Q 77.42 73.89 77.27 73.88
  Q 77.13 73.88 77.00 73.88
  Q 76.60 73.89 76.42 74.23
  C 75.11 76.68 72.94 78.16 71.14 80.20
  C 70.06 81.44 68.52 81.51 67.71 83.35
  Q 67.56 83.70 67.25 83.93
  L 64.25 86.23
  Q 63.84 86.55 63.88 87.07
  Q 63.97 87.94 63.27 88.29
  Q 62.96 88.45 62.73 88.69
  L 60.57 90.96
  Q 60.30 91.25 59.94 91.08
  Q 58.92 90.56 58.30 91.20
  Q 57.99 91.52 58.26 91.86
  L 59.24 93.07" stroke="#ab1df2"></path>
<path d="M 59.24 93.07
  C 50.72 93.13 43.63 92.14 37.82 99.83
  Q 34.13 104.70 34.97 112.77" stroke="#801b88"></path>
<path d="M 34.97 112.77
  L 27.20 121.02
  Q 26.87 121.37 27.06 121.81
  Q 27.38 122.53 26.63 122.90
  Q 25.63 123.38 26.09 124.32" stroke="#ab1df2"></path>
<path d="M 86.45 93.13
  L 59.24 93.07" stroke="#731b83"></path>
<path d="M 47.02 128.00
  Q 35.56 123.22 34.97 112.77" stroke="#731b83"></path>
<path d="M 57.33 110.25
  Q 56.69 110.04 57.28 109.71
  C 63.52 106.32 60.00 98.99 53.72 98.92
  Q 49.38 98.88 44.94 99.07
  Q 44.50 99.09 44.50 99.53
  L 44.50 121.49
  Q 44.50 121.97 44.99 121.98
  Q 49.87 122.06 54.75 121.95
  C 61.91 121.80 63.94 112.42 57.33 110.25" stroke="#a48c8c"></path>
<path d="M 69.69 108.25
  A 0.32 0.32 0.0 0 1 69.37 107.93
  L 69.37 103.82
  A 0.32 0.32 0.0 0 1 69.69 103.50
  L 78.67 103.50
  A 0.32 0.32 0.0 0 0 78.99 103.18
  L 79.00 99.32
  A 0.32 0.32 0.0 0 0 78.68 99.00
  L 64.57 99.00
  A 0.32 0.32 0.0 0 0 64.25 99.32
  L 64.25 121.68
  A 0.32 0.32 0.0 0 0 64.57 122.00
  L 78.68 122.00
  A 0.32 0.32 0.0 0 0 79.00 121.68
  L 79.00 117.82
  A 0.32 0.32 0.0 0 0 78.68 117.50
  L 69.69 117.50
  A 0.32 0.32 0.0 0 1 69.37 117.18
  L 69.37 113.07
  A 0.32 0.32 0.0 0 1 69.69 112.75
  L 77.93 112.75
  A 0.32 0.32 0.0 0 0 78.25 112.43
  L 78.25 108.57
  A 0.32 0.32 0.0 0 0 77.93 108.25
  L 69.69 108.25" stroke="#a48c8c"></path>
<path d="M 93.50 103.81
  A 0.32 0.32 0.0 0 1 93.82 103.49
  L 99.55 103.50
  A 0.32 0.32 0.0 0 0 99.87 103.18
  L 99.87 99.32
  A 0.32 0.32 0.0 0 0 99.55 99.00
  L 82.43 99.00
  A 0.32 0.32 0.0 0 0 82.11 99.32
  L 82.13 103.18
  A 0.32 0.32 0.0 0 0 82.45 103.50
  L 88.18 103.50
  A 0.32 0.32 0.0 0 1 88.50 103.82
  L 88.50 121.68
  A 0.32 0.32 0.0 0 0 88.82 122.00
  L 93.18 122.00
  A 0.32 0.32 0.0 0 0 93.50 121.68
  L 93.50 103.81" stroke="#a48c8c"></path>
<path d="M 113.32 117.25
  A 0.35 0.35 0.0 0 1 113.65 117.50
  L 114.92 121.76
  A 0.35 0.35 0.0 0 0 115.25 122.01
  L 119.97 121.99
  A 0.35 0.35 0.0 0 0 120.30 121.54
  L 113.40 99.25
  A 0.35 0.35 0.0 0 0 113.06 99.00
  L 106.82 99.00
  A 0.35 0.35 0.0 0 0 106.48 99.25
  L 99.59 121.55
  A 0.35 0.35 0.0 0 0 99.92 122.00
  L 104.72 122.00
  A 0.35 0.35 0.0 0 0 105.06 121.74
  L 106.12 117.52
  A 0.35 0.35 0.0 0 1 106.46 117.26
  L 113.32 117.25" stroke="#a48c8c"></path>
<path d="M 49.49 103.75
  L 49.51 108.23
  A 0.27 0.27 0.0 0 0 49.78 108.50
  L 52.47 108.49
  A 2.78 2.29 -0.2 0 0 55.24 106.19
  L 55.24 105.75
  A 2.78 2.29 -0.2 0 0 52.45 103.47
  L 49.76 103.48
  A 0.27 0.27 0.0 0 0 49.49 103.75" stroke="#a48c8c"></path>
<path d="M 49.49 112.49
  L 49.49 117.25
  A 0.38 0.38 0.0 0 0 49.87 117.64
  L 53.03 117.64
  A 2.86 2.52 0.1 0 0 55.89 115.13
  L 55.89 114.65
  A 2.86 2.52 0.1 0 0 53.03 112.12
  L 49.87 112.12
  A 0.38 0.38 0.0 0 0 49.49 112.49" stroke="#a48c8c"></path>
<path d="M 107.66 112.58
  A 0.33 0.33 0.0 0 0 107.97 113.00
  L 111.94 112.99
  A 0.33 0.33 0.0 0 0 112.25 112.57
  L 110.26 105.73
  A 0.33 0.33 0.0 0 0 109.63 105.73
  L 107.66 112.58" stroke="#a48c8c"></path>
</g>
<path d="M 80.69 0.00
  L 86.89 0.00
  Q 86.58 0.59 85.79 0.76
  A 1.05 1.02 9.9 0 0 85.14 1.20
  C 84.35 2.37 82.34 2.58 82.81 4.42
  A 0.38 0.36 67.4 0 1 82.65 4.83
  Q 82.40 4.98 82.23 4.80
  Q 81.89 4.46 81.56 4.80
  L 70.51 16.04
  Q 70.11 16.45 70.00 17.02
  L 69.91 17.50
  A 0.44 0.43 -74.5 0 1 69.34 17.83
  Q 68.07 17.39 67.83 18.95
  Q 67.81 19.10 67.86 19.24
  Q 67.95 19.46 67.86 19.74
  Q 67.80 19.94 67.60 19.89
  Q 66.97 19.75 66.49 20.24
  Q 65.42 21.36 64.32 22.47
  Q 63.96 22.83 63.94 23.34
  Q 63.92 23.94 63.63 24.38
  Q 63.40 24.72 62.35 25.18
  Q 61.01 25.76 60.66 27.24
  Q 60.57 27.64 60.20 27.81
  Q 58.45 28.62 57.68 30.41
  Q 57.49 30.85 57.01 30.88
  Q 56.31 30.91 56.10 31.62
  A 0.31 0.31 0.0 0 0 56.40 32.02
  Q 57.10 32.03 56.78 32.20
  Q 56.73 32.23 56.69 32.28
  Q 56.60 32.43 56.43 32.54
  Q 56.26 32.66 56.05 32.61
  Q 55.89 32.57 55.77 32.75
  Q 54.69 34.28 53.34 35.05
  Q 52.92 35.29 52.76 35.73
  C 52.37 36.80 51.02 37.54 50.52 38.10
  Q 49.83 38.87 49.01 39.54
  Q 48.65 39.83 48.19 39.87
  Q 47.40 39.92 47.14 40.80
  L 40.85 40.75
  C 42.57 18.84 58.95 2.42 80.69 0.00
  Z" fill="#1c7de7"></path>
<path d="M 86.89 0.00
  L 87.47 0.00
  L 97.94 2.24
  L 90.60 10.28
  Q 90.42 10.48 90.16 10.54
  Q 89.37 10.73 88.99 11.56
  Q 88.79 11.99 88.42 12.28
  Q 86.77 13.55 84.61 16.62
  Q 83.64 18.01 78.84 22.46
  Q 76.19 24.92 74.70 28.14
  Q 74.50 28.57 74.08 28.78
  Q 72.91 29.36 72.12 30.42
  Q 71.87 30.75 71.47 30.85
  Q 70.70 31.05 70.78 31.94
  Q 70.78 32.01 70.85 32.04
  Q 70.96 32.10 71.09 32.12
  Q 71.35 32.18 71.12 32.30
  C 69.71 33.02 69.27 34.33 68.38 35.17
  Q 66.56 36.89 64.70 38.58
  C 63.67 39.51 63.56 40.55 62.36 41.48
  Q 60.44 42.98 61.43 44.46
  L 58.67 43.48
  L 50.28 41.31
  L 47.14 40.80
  Q 47.40 39.92 48.19 39.87
  Q 48.65 39.83 49.01 39.54
  Q 49.83 38.87 50.52 38.10
  C 51.02 37.54 52.37 36.80 52.76 35.73
  Q 52.92 35.29 53.34 35.05
  Q 54.69 34.28 55.77 32.75
  Q 55.89 32.57 56.05 32.61
  Q 56.26 32.66 56.43 32.54
  Q 56.60 32.43 56.69 32.28
  Q 56.73 32.23 56.78 32.20
  Q 57.10 32.03 56.40 32.02
  A 0.31 0.31 0.0 0 1 56.10 31.62
  Q 56.31 30.91 57.01 30.88
  Q 57.49 30.85 57.68 30.41
  Q 58.45 28.62 60.20 27.81
  Q 60.57 27.64 60.66 27.24
  Q 61.01 25.76 62.35 25.18
  Q 63.40 24.72 63.63 24.38
  Q 63.92 23.94 63.94 23.34
  Q 63.96 22.83 64.32 22.47
  Q 65.42 21.36 66.49 20.24
  Q 66.97 19.75 67.60 19.89
  Q 67.80 19.94 67.86 19.74
  Q 67.95 19.46 67.86 19.24
  Q 67.81 19.10 67.83 18.95
  Q 68.07 17.39 69.34 17.83
  A 0.44 0.43 -74.5 0 0 69.91 17.50
  L 70.00 17.02
  Q 70.11 16.45 70.51 16.04
  L 81.56 4.80
  Q 81.89 4.46 82.23 4.80
  Q 82.40 4.98 82.65 4.83
  A 0.38 0.36 67.4 0 0 82.81 4.42
  C 82.34 2.58 84.35 2.37 85.14 1.20
  A 1.05 1.02 9.9 0 1 85.79 0.76
  Q 86.58 0.59 86.89 0.00
  Z" fill="#1c92eb"></path>
<path d="M 97.94 2.24
  L 105.30 5.39
  L 100.82 10.04
  Q 100.80 10.06 100.82 10.07
  Q 100.96 10.21 101.10 10.35
  Q 101.27 10.51 101.10 10.67
  L 95.31 15.76
  Q 95.01 16.02 95.06 16.41
  Q 95.12 16.89 94.53 17.13
  C 93.34 17.61 93.34 18.24 92.71 18.88
  Q 90.41 21.19 88.06 23.44
  Q 87.75 23.73 87.67 24.14
  Q 87.47 25.17 86.46 25.04
  Q 86.03 24.99 85.32 25.60
  Q 85.30 25.62 85.21 25.91
  Q 85.07 26.38 84.72 26.72
  L 79.55 31.63
  Q 79.46 31.71 79.55 31.80
  Q 79.66 31.92 79.78 32.03
  Q 79.90 32.15 79.77 32.26
  C 78.34 33.56 76.74 34.45 75.47 35.85
  Q 70.62 41.18 65.26 46.40
  L 61.43 44.46
  Q 60.44 42.98 62.36 41.48
  C 63.56 40.55 63.67 39.51 64.70 38.58
  Q 66.56 36.89 68.38 35.17
  C 69.27 34.33 69.71 33.02 71.12 32.30
  Q 71.35 32.18 71.09 32.12
  Q 70.96 32.10 70.85 32.04
  Q 70.78 32.01 70.78 31.94
  Q 70.70 31.05 71.47 30.85
  Q 71.87 30.75 72.12 30.42
  Q 72.91 29.36 74.08 28.78
  Q 74.50 28.57 74.70 28.14
  Q 76.19 24.92 78.84 22.46
  Q 83.64 18.01 84.61 16.62
  Q 86.77 13.55 88.42 12.28
  Q 88.79 11.99 88.99 11.56
  Q 89.37 10.73 90.16 10.54
  Q 90.42 10.48 90.60 10.28
  L 97.94 2.24
  Z" fill="#1ca3ef"></path>
<path d="M 105.30 5.39
  Q 113.03 9.54 118.53 16.56
  L 113.83 21.45
  Q 113.67 21.61 113.44 21.61
  Q 113.31 21.61 113.18 21.66
  Q 112.98 21.73 112.91 21.95
  Q 112.85 22.12 112.87 22.31
  A 0.49 0.47 -27.0 0 1 112.73 22.71
  L 96.71 38.83
  Q 96.63 38.91 96.54 38.88
  L 96.22 38.78
  Q 95.88 38.67 95.88 39.02
  L 95.88 39.75
  A 0.96 0.96 0.0 0 1 95.37 40.60
  Q 93.33 41.68 92.55 43.78
  Q 92.37 44.27 91.93 44.57
  Q 90.97 45.22 90.84 46.37
  Q 90.77 46.89 90.37 47.24
  Q 88.33 48.96 86.27 50.67
  Q 84.06 52.51 82.51 54.59
  Q 80.88 56.77 79.21 59.13
  Q 75.81 54.31 71.61 50.92
  L 65.26 46.40
  Q 70.62 41.18 75.47 35.85
  C 76.74 34.45 78.34 33.56 79.77 32.26
  Q 79.90 32.15 79.78 32.03
  Q 79.66 31.92 79.55 31.80
  Q 79.46 31.71 79.55 31.63
  L 84.72 26.72
  Q 85.07 26.38 85.21 25.91
  Q 85.30 25.62 85.32 25.60
  Q 86.03 24.99 86.46 25.04
  Q 87.47 25.17 87.67 24.14
  Q 87.75 23.73 88.06 23.44
  Q 90.41 21.19 92.71 18.88
  C 93.34 18.24 93.34 17.61 94.53 17.13
  Q 95.12 16.89 95.06 16.41
  Q 95.01 16.02 95.31 15.76
  L 101.10 10.67
  Q 101.27 10.51 101.10 10.35
  Q 100.96 10.21 100.82 10.07
  Q 100.80 10.06 100.82 10.04
  L 105.30 5.39
  Z" fill="#1cbcf4"></path>
<path d="M 118.53 16.56
  L 122.69 22.99
  Q 122.54 23.60 122.26 23.64
  Q 121.91 23.70 121.66 23.58
  Q 121.28 23.41 120.94 23.65
  Q 118.97 25.04 117.61 27.02
  Q 117.39 27.34 117.00 27.38
  Q 116.74 27.41 116.54 27.65
  Q 114.70 29.80 112.60 31.67
  C 110.81 33.26 109.41 34.94 107.79 36.58
  Q 107.36 37.02 106.76 38.09
  C 106.07 39.32 104.24 40.31 103.60 40.93
  Q 99.85 44.58 96.35 48.50
  A 1.30 1.23 6.0 0 1 95.97 48.79
  Q 92.38 50.68 89.95 53.94
  Q 89.80 54.14 89.86 54.38
  Q 89.93 54.66 89.61 54.83
  Q 88.83 55.25 88.89 56.05
  Q 88.93 56.55 88.45 56.69
  Q 87.70 56.92 87.22 57.55
  Q 87.05 57.76 87.12 58.01
  Q 87.17 58.19 87.12 58.38
  Q 87.05 58.64 86.66 58.88
  Q 83.90 60.53 81.98 63.41
  L 79.21 59.13
  Q 80.88 56.77 82.51 54.59
  Q 84.06 52.51 86.27 50.67
  Q 88.33 48.96 90.37 47.24
  Q 90.77 46.89 90.84 46.37
  Q 90.97 45.22 91.93 44.57
  Q 92.37 44.27 92.55 43.78
  Q 93.33 41.68 95.37 40.60
  A 0.96 0.96 0.0 0 0 95.88 39.75
  L 95.88 39.02
  Q 95.88 38.67 96.22 38.78
  L 96.54 38.88
  Q 96.63 38.91 96.71 38.83
  L 112.73 22.71
  A 0.49 0.47 -27.0 0 0 112.87 22.31
  Q 112.85 22.12 112.91 21.95
  Q 112.98 21.73 113.18 21.66
  Q 113.31 21.61 113.44 21.61
  Q 113.67 21.61 113.83 21.45
  L 118.53 16.56
  Z" fill="#1dd2f8"></path>
<path d="M 122.69 22.99
  Q 126.45 29.74 127.48 37.23
  L 111.54 53.60
  A 1.64 1.56 -75.4 0 1 110.86 54.02
  Q 110.21 54.22 109.76 54.76
  Q 107.91 56.98 106.05 59.14
  Q 105.51 59.77 103.67 61.55
  Q 99.49 65.58 86.96 78.87
  Q 86.32 73.60 84.10 68.13
  L 81.98 63.41
  Q 83.90 60.53 86.66 58.88
  Q 87.05 58.64 87.12 58.38
  Q 87.17 58.19 87.12 58.01
  Q 87.05 57.76 87.22 57.55
  Q 87.70 56.92 88.45 56.69
  Q 88.93 56.55 88.89 56.05
  Q 88.83 55.25 89.61 54.83
  Q 89.93 54.66 89.86 54.38
  Q 89.80 54.14 89.95 53.94
  Q 92.38 50.68 95.97 48.79
  A 1.30 1.23 6.0 0 0 96.35 48.50
  Q 99.85 44.58 103.60 40.93
  C 104.24 40.31 106.07 39.32 106.76 38.09
  Q 107.36 37.02 107.79 36.58
  C 109.41 34.94 110.81 33.26 112.60 31.67
  Q 114.70 29.80 116.54 27.65
  Q 116.74 27.41 117.00 27.38
  Q 117.39 27.34 117.61 27.02
  Q 118.97 25.04 120.94 23.65
  Q 121.28 23.41 121.66 23.58
  Q 121.91 23.70 122.26 23.64
  Q 122.54 23.60 122.69 22.99
  Z" fill="#1de6fc"></path>
<path d="M 127.48 37.23
  L 128.00 40.64
  L 128.00 46.47
  C 126.13 68.62 109.47 85.22 87.27 87.19
  L 86.96 78.87
  Q 99.49 65.58 103.67 61.55
  Q 105.51 59.77 106.05 59.14
  Q 107.91 56.98 109.76 54.76
  Q 110.21 54.22 110.86 54.02
  A 1.64 1.56 -75.4 0 0 111.54 53.60
  L 127.48 37.23
  Z" fill="#63f6ff"></path>
<path d="M 40.85 40.75
  L 47.14 40.80
  L 50.28 41.31
  L 32.12 58.82
  A 0.08 0.07 52.2 0 1 32.01 58.80
  Q 31.99 58.76 31.97 58.74
  Q 31.91 58.65 31.74 58.74
  Q 31.45 58.89 31.55 59.42
  A 0.04 0.04 0.0 0 1 31.51 59.47
  Q 30.22 59.44 30.09 60.42
  A 0.77 0.71 -20.3 0 1 29.86 60.87
  L 4.37 85.35
  A 0.62 0.62 0.0 0 1 3.92 85.52
  Q 2.91 85.49 3.19 85.75
  Q 3.55 86.07 3.20 86.40
  L 0.33 89.13
  Q 0.28 87.89 0.00 87.37
  L 0.00 81.51
  L 0.76 77.64
  L 8.62 70.52
  A 1.01 0.87 -14.4 0 0 8.82 70.23
  C 9.45 68.66 13.03 65.72 14.34 64.39
  Q 14.59 64.14 14.94 64.13
  Q 15.14 64.12 15.32 64.08
  Q 15.61 64.01 15.91 63.72
  Q 20.59 59.17 25.01 54.38
  C 27.53 51.64 31.18 48.99 33.82 45.72
  Q 35.49 43.65 37.93 41.17
  L 40.85 40.75
  Z" fill="#e375ff"></path>
<path d="M 37.93 41.17
  Q 35.49 43.65 33.82 45.72
  C 31.18 48.99 27.53 51.64 25.01 54.38
  Q 20.59 59.17 15.91 63.72
  Q 15.61 64.01 15.32 64.08
  Q 15.14 64.12 14.94 64.13
  Q 14.59 64.14 14.34 64.39
  C 13.03 65.72 9.45 68.66 8.82 70.23
  A 1.01 0.87 -14.4 0 1 8.62 70.52
  L 0.76 77.64
  Q 0.98 74.40 1.74 71.99
  C 6.93 55.47 20.56 43.51 37.93 41.17
  Z" fill="#eb9dff"></path>
<path d="M 50.28 41.31
  L 58.67 43.48
  Q 57.66 44.28 57.04 45.24
  Q 56.72 45.75 56.14 45.87
  Q 55.44 46.02 55.20 46.62
  Q 55.05 46.97 54.77 47.23
  L 40.42 60.24
  A 0.45 0.45 0.0 0 1 40.13 60.37
  Q 39.59 60.42 39.39 60.92
  Q 39.28 61.20 39.07 61.42
  L 35.60 65.16
  A 0.64 0.63 -67.6 0 1 35.14 65.36
  Q 34.47 65.38 34.45 66.05
  A 0.93 0.92 -14.2 0 1 33.97 66.84
  Q 31.92 67.97 31.00 70.18
  Q 30.80 70.67 30.29 70.82
  Q 29.32 71.09 28.86 72.01
  A 1.34 1.34 0.0 0 1 28.26 72.61
  Q 25.61 73.85 24.51 76.61
  A 1.04 1.04 0.0 0 1 23.19 77.21
  Q 22.37 76.91 22.16 77.50
  Q 22.07 77.75 21.42 78.39
  L 15.43 84.29
  Q 15.09 84.61 14.91 85.04
  Q 14.48 86.04 13.63 86.61
  Q 11.86 87.80 11.65 88.03
  Q 8.38 91.43 5.00 94.73
  Q 4.86 94.87 4.66 94.86
  Q 4.48 94.86 4.32 94.91
  Q 3.98 95.02 3.98 95.37
  Q 3.93 97.01 2.17 97.79
  L 0.33 89.13
  L 3.20 86.40
  Q 3.55 86.07 3.19 85.75
  Q 2.91 85.49 3.92 85.52
  A 0.62 0.62 0.0 0 0 4.37 85.35
  L 29.86 60.87
  A 0.77 0.71 -20.3 0 0 30.09 60.42
  Q 30.22 59.44 31.51 59.47
  A 0.04 0.04 0.0 0 0 31.55 59.42
  Q 31.45 58.89 31.74 58.74
  Q 31.91 58.65 31.97 58.74
  Q 31.99 58.76 32.01 58.80
  A 0.08 0.07 52.2 0 0 32.12 58.82
  L 50.28 41.31
  Z" fill="#db4eff"></path>
<path d="M 58.67 43.48
  L 61.43 44.46
  L 65.26 46.40
  L 71.61 50.92
  L 70.52 52.25
  Q 70.29 52.54 69.93 52.64
  Q 69.20 52.85 68.98 54.47
  A 0.76 0.76 0.0 0 1 68.24 55.12
  L 67.83 55.12
  Q 67.48 55.12 67.24 55.37
  L 65.49 57.18
  Q 65.12 57.56 65.13 58.08
  Q 65.15 59.07 64.20 59.49
  A 0.21 0.21 0.0 0 1 63.94 59.40
  Q 63.85 59.25 63.89 59.07
  A 0.18 0.18 0.0 0 0 63.58 58.92
  L 62.47 60.28
  Q 62.14 60.67 62.14 61.18
  Q 62.14 61.41 62.07 61.60
  A 0.68 0.68 0.0 0 1 61.45 62.04
  C 59.98 62.08 59.28 63.76 58.14 64.58
  C 56.08 66.05 54.62 68.28 52.56 69.91
  Q 52.21 70.19 52.13 70.63
  Q 52.02 71.23 51.42 71.46
  A 0.21 0.21 0.0 0 1 51.13 71.27
  Q 51.14 71.12 51.12 70.97
  Q 51.10 70.64 50.85 70.86
  L 49.17 72.42
  Q 49.10 72.48 49.14 72.56
  Q 49.20 72.69 49.23 72.81
  Q 49.27 73.00 49.14 73.14
  Q 49.00 73.28 48.80 73.34
  Q 48.47 73.43 48.34 73.75
  Q 47.92 74.78 46.91 75.03
  Q 46.56 75.11 46.30 75.35
  L 39.58 81.42
  Q 39.21 81.75 39.08 82.23
  Q 38.84 83.06 37.84 83.17
  Q 37.38 83.22 37.04 83.55
  L 32.54 87.92
  Q 32.29 88.17 32.20 88.50
  L 32.01 89.25
  A 0.02 0.02 0.0 0 1 31.99 89.27
  L 31.54 89.13
  Q 31.41 89.09 31.31 89.18
  L 28.21 92.28
  Q 28.00 92.49 27.79 92.28
  Q 27.66 92.16 27.54 92.02
  A 0.24 0.24 0.0 0 0 27.12 92.17
  L 27.12 93.04
  Q 27.12 93.50 26.78 93.83
  L 23.44 97.06
  Q 23.13 97.35 22.74 97.19
  Q 22.28 97.00 21.85 97.11
  Q 21.45 97.22 21.09 97.85
  Q 19.98 99.76 18.08 100.99
  Q 17.92 101.10 18.02 101.27
  Q 18.16 101.52 17.94 101.69
  Q 16.67 102.69 15.67 103.94
  C 13.63 106.46 11.23 108.47 8.90 110.76
  Q 4.48 104.87 2.17 97.79
  Q 3.93 97.01 3.98 95.37
  Q 3.98 95.02 4.32 94.91
  Q 4.48 94.86 4.66 94.86
  Q 4.86 94.87 5.00 94.73
  Q 8.38 91.43 11.65 88.03
  Q 11.86 87.80 13.63 86.61
  Q 14.48 86.04 14.91 85.04
  Q 15.09 84.61 15.43 84.29
  L 21.42 78.39
  Q 22.07 77.75 22.16 77.50
  Q 22.37 76.91 23.19 77.21
  A 1.04 1.04 0.0 0 0 24.51 76.61
  Q 25.61 73.85 28.26 72.61
  A 1.34 1.34 0.0 0 0 28.86 72.01
  Q 29.32 71.09 30.29 70.82
  Q 30.80 70.67 31.00 70.18
  Q 31.92 67.97 33.97 66.84
  A 0.93 0.92 -14.2 0 0 34.45 66.05
  Q 34.47 65.38 35.14 65.36
  A 0.64 0.63 -67.6 0 0 35.60 65.16
  L 39.07 61.42
  Q 39.28 61.20 39.39 60.92
  Q 39.59 60.42 40.13 60.37
  A 0.45 0.45 0.0 0 0 40.42 60.24
  L 54.77 47.23
  Q 55.05 46.97 55.20 46.62
  Q 55.44 46.02 56.14 45.87
  Q 56.72 45.75 57.04 45.24
  Q 57.66 44.28 58.67 43.48
  Z" fill="#cc1efd"></path>
<path d="M 71.61 50.92
  Q 75.81 54.31 79.21 59.13
  L 81.98 63.41
  L 84.10 68.13
  Q 80.48 70.31 77.52 73.77
  Q 77.42 73.89 77.27 73.88
  Q 77.13 73.88 77.00 73.88
  Q 76.60 73.89 76.42 74.23
  C 75.11 76.68 72.94 78.16 71.14 80.20
  C 70.06 81.44 68.52 81.51 67.71 83.35
  Q 67.56 83.70 67.25 83.93
  L 64.25 86.23
  Q 63.84 86.55 63.88 87.07
  Q 63.97 87.94 63.27 88.29
  Q 62.96 88.45 62.73 88.69
  L 60.57 90.96
  Q 60.30 91.25 59.94 91.08
  Q 58.92 90.56 58.30 91.20
  Q 57.99 91.52 58.26 91.86
  L 59.24 93.07
  C 50.72 93.13 43.63 92.14 37.82 99.83
  Q 34.13 104.70 34.97 112.77
  L 27.20 121.02
  Q 26.87 121.37 27.06 121.81
  Q 27.38 122.53 26.63 122.90
  Q 25.63 123.38 26.09 124.32
  Q 15.64 119.63 8.90 110.76
  C 11.23 108.47 13.63 106.46 15.67 103.94
  Q 16.67 102.69 17.94 101.69
  Q 18.16 101.52 18.02 101.27
  Q 17.92 101.10 18.08 100.99
  Q 19.98 99.76 21.09 97.85
  Q 21.45 97.22 21.85 97.11
  Q 22.28 97.00 22.74 97.19
  Q 23.13 97.35 23.44 97.06
  L 26.78 93.83
  Q 27.12 93.50 27.12 93.04
  L 27.12 92.17
  A 0.24 0.24 0.0 0 1 27.54 92.02
  Q 27.66 92.16 27.79 92.28
  Q 28.00 92.49 28.21 92.28
  L 31.31 89.18
  Q 31.41 89.09 31.54 89.13
  L 31.99 89.27
  A 0.02 0.02 0.0 0 0 32.01 89.25
  L 32.20 88.50
  Q 32.29 88.17 32.54 87.92
  L 37.04 83.55
  Q 37.38 83.22 37.84 83.17
  Q 38.84 83.06 39.08 82.23
  Q 39.21 81.75 39.58 81.42
  L 46.30 75.35
  Q 46.56 75.11 46.91 75.03
  Q 47.92 74.78 48.34 73.75
  Q 48.47 73.43 48.80 73.34
  Q 49.00 73.28 49.14 73.14
  Q 49.27 73.00 49.23 72.81
  Q 49.20 72.69 49.14 72.56
  Q 49.10 72.48 49.17 72.42
  L 50.85 70.86
  Q 51.10 70.64 51.12 70.97
  Q 51.14 71.12 51.13 71.27
  A 0.21 0.21 0.0 0 0 51.42 71.46
  Q 52.02 71.23 52.13 70.63
  Q 52.21 70.19 52.56 69.91
  C 54.62 68.28 56.08 66.05 58.14 64.58
  C 59.28 63.76 59.98 62.08 61.45 62.04
  A 0.68 0.68 0.0 0 0 62.07 61.60
  Q 62.14 61.41 62.14 61.18
  Q 62.14 60.67 62.47 60.28
  L 63.58 58.92
  A 0.18 0.18 0.0 0 1 63.89 59.07
  Q 63.85 59.25 63.94 59.40
  A 0.21 0.21 0.0 0 0 64.20 59.49
  Q 65.15 59.07 65.13 58.08
  Q 65.12 57.56 65.49 57.18
  L 67.24 55.37
  Q 67.48 55.12 67.83 55.12
  L 68.24 55.12
  A 0.76 0.76 0.0 0 0 68.98 54.47
  Q 69.20 52.85 69.93 52.64
  Q 70.29 52.54 70.52 52.25
  L 71.61 50.92
  Z" fill="#b81df6"></path>
<path d="M 84.10 68.13
  Q 86.32 73.60 86.96 78.87
  L 87.27 87.19
  L 86.45 93.13
  L 59.24 93.07
  L 58.26 91.86
  Q 57.99 91.52 58.30 91.20
  Q 58.92 90.56 59.94 91.08
  Q 60.30 91.25 60.57 90.96
  L 62.73 88.69
  Q 62.96 88.45 63.27 88.29
  Q 63.97 87.94 63.88 87.07
  Q 63.84 86.55 64.25 86.23
  L 67.25 83.93
  Q 67.56 83.70 67.71 83.35
  C 68.52 81.51 70.06 81.44 71.14 80.20
  C 72.94 78.16 75.11 76.68 76.42 74.23
  Q 76.60 73.89 77.00 73.88
  Q 77.13 73.88 77.27 73.88
  Q 77.42 73.89 77.52 73.77
  Q 80.48 70.31 84.10 68.13
  Z" fill="#9e1ded"></path>
<path d="M 59.24 93.07
  L 86.45 93.13
  Q 98.58 93.08 110.65 93.17
  Q 115.75 93.21 118.63 94.53
  Q 126.19 98.01 128.00 107.06
  L 128.00 114.05
  Q 125.61 125.66 113.95 128.00
  L 47.02 128.00
  Q 35.56 123.22 34.97 112.77
  Q 34.13 104.70 37.82 99.83
  C 43.63 92.14 50.72 93.13 59.24 93.07
  Z
  M 57.33 110.25
  Q 56.69 110.04 57.28 109.71
  C 63.52 106.32 60.00 98.99 53.72 98.92
  Q 49.38 98.88 44.94 99.07
  Q 44.50 99.09 44.50 99.53
  L 44.50 121.49
  Q 44.50 121.97 44.99 121.98
  Q 49.87 122.06 54.75 121.95
  C 61.91 121.80 63.94 112.42 57.33 110.25
  Z
  M 69.69 108.25
  A 0.32 0.32 0.0 0 1 69.37 107.93
  L 69.37 103.82
  A 0.32 0.32 0.0 0 1 69.69 103.50
  L 78.67 103.50
  A 0.32 0.32 0.0 0 0 78.99 103.18
  L 79.00 99.32
  A 0.32 0.32 0.0 0 0 78.68 99.00
  L 64.57 99.00
  A 0.32 0.32 0.0 0 0 64.25 99.32
  L 64.25 121.68
  A 0.32 0.32 0.0 0 0 64.57 122.00
  L 78.68 122.00
  A 0.32 0.32 0.0 0 0 79.00 121.68
  L 79.00 117.82
  A 0.32 0.32 0.0 0 0 78.68 117.50
  L 69.69 117.50
  A 0.32 0.32 0.0 0 1 69.37 117.18
  L 69.37 113.07
  A 0.32 0.32 0.0 0 1 69.69 112.75
  L 77.93 112.75
  A 0.32 0.32 0.0 0 0 78.25 112.43
  L 78.25 108.57
  A 0.32 0.32 0.0 0 0 77.93 108.25
  L 69.69 108.25
  Z
  M 93.50 103.81
  A 0.32 0.32 0.0 0 1 93.82 103.49
  L 99.55 103.50
  A 0.32 0.32 0.0 0 0 99.87 103.18
  L 99.87 99.32
  A 0.32 0.32 0.0 0 0 99.55 99.00
  L 82.43 99.00
  A 0.32 0.32 0.0 0 0 82.11 99.32
  L 82.13 103.18
  A 0.32 0.32 0.0 0 0 82.45 103.50
  L 88.18 103.50
  A 0.32 0.32 0.0 0 1 88.50 103.82
  L 88.50 121.68
  A 0.32 0.32 0.0 0 0 88.82 122.00
  L 93.18 122.00
  A 0.32 0.32 0.0 0 0 93.50 121.68
  L 93.50 103.81
  Z
  M 113.32 117.25
  A 0.35 0.35 0.0 0 1 113.65 117.50
  L 114.92 121.76
  A 0.35 0.35 0.0 0 0 115.25 122.01
  L 119.97 121.99
  A 0.35 0.35 0.0 0 0 120.30 121.54
  L 113.40 99.25
  A 0.35 0.35 0.0 0 0 113.06 99.00
  L 106.82 99.00
  A 0.35 0.35 0.0 0 0 106.48 99.25
  L 99.59 121.55
  A 0.35 0.35 0.0 0 0 99.92 122.00
  L 104.72 122.00
  A 0.35 0.35 0.0 0 0 105.06 121.74
  L 106.12 117.52
  A 0.35 0.35 0.0 0 1 106.46 117.26
  L 113.32 117.25
  Z" fill="#481919"></path>
<path d="M 57.33 110.25
  C 63.94 112.42 61.91 121.80 54.75 121.95
  Q 49.87 122.06 44.99 121.98
  Q 44.50 121.97 44.50 121.49
  L 44.50 99.53
  Q 44.50 99.09 44.94 99.07
  Q 49.38 98.88 53.72 98.92
  C 60.00 98.99 63.52 106.32 57.28 109.71
  Q 56.69 110.04 57.33 110.25
  Z
  M 49.49 103.75
  L 49.51 108.23
  A 0.27 0.27 0.0 0 0 49.78 108.50
  L 52.47 108.49
  A 2.78 2.29 -0.2 0 0 55.24 106.19
  L 55.24 105.75
  A 2.78 2.29 -0.2 0 0 52.45 103.47
  L 49.76 103.48
  A 0.27 0.27 0.0 0 0 49.49 103.75
  Z
  M 49.49 112.49
  L 49.49 117.25
  A 0.38 0.38 0.0 0 0 49.87 117.64
  L 53.03 117.64
  A 2.86 2.52 0.1 0 0 55.89 115.13
  L 55.89 114.65
  A 2.86 2.52 0.1 0 0 53.03 112.12
  L 49.87 112.12
  A 0.38 0.38 0.0 0 0 49.49 112.49
  Z" fill="#ffffff"></path>
<path d="M 69.69 108.25
  L 77.93 108.25
  A 0.32 0.32 0.0 0 1 78.25 108.57
  L 78.25 112.43
  A 0.32 0.32 0.0 0 1 77.93 112.75
  L 69.69 112.75
  A 0.32 0.32 0.0 0 0 69.37 113.07
  L 69.37 117.18
  A 0.32 0.32 0.0 0 0 69.69 117.50
  L 78.68 117.50
  A 0.32 0.32 0.0 0 1 79.00 117.82
  L 79.00 121.68
  A 0.32 0.32 0.0 0 1 78.68 122.00
  L 64.57 122.00
  A 0.32 0.32 0.0 0 1 64.25 121.68
  L 64.25 99.32
  A 0.32 0.32 0.0 0 1 64.57 99.00
  L 78.68 99.00
  A 0.32 0.32 0.0 0 1 79.00 99.32
  L 78.99 103.18
  A 0.32 0.32 0.0 0 1 78.67 103.50
  L 69.69 103.50
  A 0.32 0.32 0.0 0 0 69.37 103.82
  L 69.37 107.93
  A 0.32 0.32 0.0 0 0 69.69 108.25
  Z" fill="#ffffff"></path>
<path d="M 93.50 103.81
  L 93.50 121.68
  A 0.32 0.32 0.0 0 1 93.18 122.00
  L 88.82 122.00
  A 0.32 0.32 0.0 0 1 88.50 121.68
  L 88.50 103.82
  A 0.32 0.32 0.0 0 0 88.18 103.50
  L 82.45 103.50
  A 0.32 0.32 0.0 0 1 82.13 103.18
  L 82.11 99.32
  A 0.32 0.32 0.0 0 1 82.43 99.00
  L 99.55 99.00
  A 0.32 0.32 0.0 0 1 99.87 99.32
  L 99.87 103.18
  A 0.32 0.32 0.0 0 1 99.55 103.50
  L 93.82 103.49
  A 0.32 0.32 0.0 0 0 93.50 103.81
  Z" fill="#ffffff"></path>
<path d="M 113.32 117.25
  L 106.46 117.26
  A 0.35 0.35 0.0 0 0 106.12 117.52
  L 105.06 121.74
  A 0.35 0.35 0.0 0 1 104.72 122.00
  L 99.92 122.00
  A 0.35 0.35 0.0 0 1 99.59 121.55
  L 106.48 99.25
  A 0.35 0.35 0.0 0 1 106.82 99.00
  L 113.06 99.00
  A 0.35 0.35 0.0 0 1 113.40 99.25
  L 120.30 121.54
  A 0.35 0.35 0.0 0 1 119.97 121.99
  L 115.25 122.01
  A 0.35 0.35 0.0 0 1 114.92 121.76
  L 113.65 117.50
  A 0.35 0.35 0.0 0 0 113.32 117.25
  Z
  M 107.66 112.58
  A 0.33 0.33 0.0 0 0 107.97 113.00
  L 111.94 112.99
  A 0.33 0.33 0.0 0 0 112.25 112.57
  L 110.26 105.73
  A 0.33 0.33 0.0 0 0 109.63 105.73
  L 107.66 112.58
  Z" fill="#ffffff"></path>
<path d="M 49.49 103.75
  A 0.27 0.27 0.0 0 1 49.76 103.48
  L 52.45 103.47
  A 2.78 2.29 -0.2 0 1 55.24 105.75
  L 55.24 106.19
  A 2.78 2.29 -0.2 0 1 52.47 108.49
  L 49.78 108.50
  A 0.27 0.27 0.0 0 1 49.51 108.23
  L 49.49 103.75
  Z" fill="#481919"></path>
<path d="M 107.66 112.58
  L 109.63 105.73
  A 0.33 0.33 0.0 0 1 110.26 105.73
  L 112.25 112.57
  A 0.33 0.33 0.0 0 1 111.94 112.99
  L 107.97 113.00
  A 0.33 0.33 0.0 0 1 107.66 112.58
  Z" fill="#481919"></path>
<path d="M 49.49 112.49
  A 0.38 0.38 0.0 0 1 49.87 112.12
  L 53.03 112.12
  A 2.86 2.52 0.1 0 1 55.89 114.65
  L 55.89 115.13
  A 2.86 2.52 0.1 0 1 53.03 117.64
  L 49.87 117.64
  A 0.38 0.38 0.0 0 1 49.49 117.25
  L 49.49 112.49
  Z" fill="#481919"></path>
<path d="M 34.97 112.77
  Q 35.56 123.22 47.02 128.00
  L 40.52 128.00
  Q 32.90 127.18 26.09 124.32
  Q 25.63 123.38 26.63 122.90
  Q 27.38 122.53 27.06 121.81
  Q 26.87 121.37 27.20 121.02
  L 34.97 112.77
  Z" fill="#9e1ded"></path>
</svg>
