<svg viewBox="0.00 0.00 300.00 300.00" version="1.1" xmlns="http://www.w3.org/2000/svg">
<g stroke-linecap="butt" fill="none" stroke-width="2.00">
<path d="M 108.17 111.62
  C 109.10 118.46 115.76 122.98 122.00 123.21
  Q 125.40 123.33 131.22 121.01
  Q 168.78 106.03 206.39 91.15
  C 214.49 87.94 216.74 78.31 210.90 71.87
  Q 203.58 63.80 193.29 67.85
  Q 156.51 82.34 119.74 96.82
  C 111.93 99.90 106.96 102.69 108.17 111.62" stroke="#c58f82"></path>
<path d="M 172.76 110.79
  C 148.97 120.23 125.19 129.63 101.43 139.12
  C 95.75 141.38 91.25 144.02 90.56 150.00
  C 89.62 158.14 97.04 165.19 105.03 165.60
  Q 108.24 165.77 114.07 163.46
  Q 148.99 149.68 183.86 135.78
  C 186.31 134.81 191.47 133.14 193.24 131.23
  C 202.04 121.78 194.16 108.67 182.54 108.38
  Q 179.03 108.30 172.76 110.79" stroke="#c58f82"></path>
<path d="M 197.18 136.66
  Q 161.11 151.04 124.98 165.27
  C 110.07 171.14 117.03 190.23 131.09 190.84
  Q 134.42 190.99 140.00 188.77
  Q 175.86 174.56 211.72 160.35
  Q 217.50 158.05 219.58 156.04
  C 228.07 147.79 220.52 135.83 210.74 133.87
  C 205.77 132.87 201.95 134.76 197.18 136.66" stroke="#c58f82"></path>
<path d="M 182.94 176.52
  C 158.58 185.98 134.34 195.77 110.06 205.40
  Q 105.14 207.36 103.33 208.91
  C 98.34 213.21 98.14 220.11 101.79 225.37
  C 106.23 231.78 113.97 233.27 121.34 230.35
  Q 157.47 216.05 193.58 201.69
  Q 199.95 199.16 202.11 197.17
  C 207.77 191.93 206.38 183.55 201.03 178.67
  C 195.67 173.78 189.77 173.86 182.94 176.52" stroke="#c58f82"></path>
</g>
<path d="M 0.00 0.00
  L 300.00 0.00
  L 300.00 300.00
  L 0.00 300.00
  L 0.00 0.00
  Z
  M 108.17 111.62
  C 109.10 118.46 115.76 122.98 122.00 123.21
  Q 125.40 123.33 131.22 121.01
  Q 168.78 106.03 206.39 91.15
  C 214.49 87.94 216.74 78.31 210.90 71.87
  Q 203.58 63.80 193.29 67.85
  Q 156.51 82.34 119.74 96.82
  C 111.93 99.90 106.96 102.69 108.17 111.62
  Z
  M 172.76 110.79
  C 148.97 120.23 125.19 129.63 101.43 139.12
  C 95.75 141.38 91.25 144.02 90.56 150.00
  C 89.62 158.14 97.04 165.19 105.03 165.60
  Q 108.24 165.77 114.07 163.46
  Q 148.99 149.68 183.86 135.78
  C 186.31 134.81 191.47 133.14 193.24 131.23
  C 202.04 121.78 194.16 108.67 182.54 108.38
  Q 179.03 108.30 172.76 110.79
  Z
  M 197.18 136.66
  Q 161.11 151.04 124.98 165.27
  C 110.07 171.14 117.03 190.23 131.09 190.84
  Q 134.42 190.99 140.00 188.77
  Q 175.86 174.56 211.72 160.35
  Q 217.50 158.05 219.58 156.04
  C 228.07 147.79 220.52 135.83 210.74 133.87
  C 205.77 132.87 201.95 134.76 197.18 136.66
  Z
  M 182.94 176.52
  C 158.58 185.98 134.34 195.77 110.06 205.40
  Q 105.14 207.36 103.33 208.91
  C 98.34 213.21 98.14 220.11 101.79 225.37
  C 106.23 231.78 113.97 233.27 121.34 230.35
  Q 157.47 216.05 193.58 201.69
  Q 199.95 199.16 202.11 197.17
  C 207.77 191.93 206.38 183.55 201.03 178.67
  C 195.67 173.78 189.77 173.86 182.94 176.52
  Z" fill="#8b51ff"></path>
<path d="M 108.17 111.62
  C 106.96 102.69 111.93 99.90 119.74 96.82
  Q 156.51 82.34 193.29 67.85
  Q 203.58 63.80 210.90 71.87
  C 216.74 78.31 214.49 87.94 206.39 91.15
  Q 168.78 106.03 131.22 121.01
  Q 125.40 123.33 122.00 123.21
  C 115.76 122.98 109.10 118.46 108.17 111.62
  Z" fill="#fecd04"></path>
<path d="M 101.43 139.12
  C 125.19 129.63 148.97 120.23 172.76 110.79
  Q 179.03 108.30 182.54 108.38
  C 194.16 108.67 202.04 121.78 193.24 131.23
  C 191.47 133.14 186.31 134.81 183.86 135.78
  Q 148.99 149.68 114.07 163.46
  Q 108.24 165.77 105.03 165.60
  C 97.04 165.19 89.62 158.14 90.56 150.00
  C 91.25 144.02 95.75 141.38 101.43 139.12
  Z" fill="#fecd04"></path>
<path d="M 197.18 136.66
  C 201.95 134.76 205.77 132.87 210.74 133.87
  C 220.52 135.83 228.07 147.79 219.58 156.04
  Q 217.50 158.05 211.72 160.35
  Q 175.86 174.56 140.00 188.77
  Q 134.42 190.99 131.09 190.84
  C 117.03 190.23 110.07 171.14 124.98 165.27
  Q 161.11 151.04 197.18 136.66
  Z" fill="#fecd04"></path>
<path d="M 110.06 205.40
  C 134.34 195.77 158.58 185.98 182.94 176.52
  C 189.77 173.86 195.67 173.78 201.03 178.67
  C 206.38 183.55 207.77 191.93 202.11 197.17
  Q 199.95 199.16 193.58 201.69
  Q 157.47 216.05 121.34 230.35
  C 113.97 233.27 106.23 231.78 101.79 225.37
  C 98.14 220.11 98.34 213.21 103.33 208.91
  Q 105.14 207.36 110.06 205.40
  Z" fill="#fecd04"></path>
</svg>
