<svg viewBox="0.00 0.00 64.00 64.00" version="1.1" xmlns="http://www.w3.org/2000/svg">
<g stroke-linecap="butt" fill="none" stroke-width="2.00">
<path d="M 16.29 31.88
  L 16.48 27.37
  Q 16.51 26.81 17.03 26.62
  L 22.07 24.81
  Q 22.75 24.56 22.83 25.29
  L 23.02 26.99
  A 0.68 0.67 80.6 0 1 22.50 27.73
  L 20.01 28.26
  Q 19.24 28.42 19.62 29.11
  L 19.82 29.48
  A 0.72 0.71 72.5 0 0 20.52 29.85
  L 29.64 28.89
  A 0.90 0.89 -3.8 0 0 30.44 27.98
  L 30.43 27.68
  A 0.62 0.62 0.0 0 0 29.75 27.07
  L 25.32 27.49
  Q 24.86 27.53 24.82 27.07
  L 24.50 23.04
  A 0.58 0.58 0.0 0 0 23.78 22.52
  L 21.98 23.00
  A 0.75 0.74 -20.8 0 1 21.12 22.62
  L 18.61 17.60
  A 0.78 0.78 0.0 0 0 17.45 17.32
  L 17.16 17.54
  A 0.65 0.64 -32.1 0 0 16.97 18.36
  L 19.45 23.17
  Q 19.75 23.75 19.14 23.98
  L 17.98 24.43
  A 0.95 0.95 0.0 0 1 16.98 24.24
  Q 14.00 21.50 14.22 17.50
  Q 14.26 16.76 13.53 16.65
  L 13.26 16.61
  A 0.66 0.66 0.0 0 0 12.50 17.26
  L 12.49 20.77
  Q 12.49 21.30 12.03 21.57
  Q 11.06 22.13 10.06 22.62
  Q 9.24 23.03 9.61 23.79
  A 0.75 0.74 64.7 0 0 10.58 24.14
  L 13.08 23.06
  Q 13.48 22.88 13.83 23.15
  Q 15.04 24.07 14.74 25.75
  Q 14.38 27.74 14.61 31.77" stroke="#7ab078"></path>
<path d="M 23.52 17.29
  L 23.48 15.23
  A 0.90 0.88 76.2 0 1 23.96 14.42
  L 29.47 11.52
  A 0.58 0.58 0.0 0 0 29.72 10.76
  L 29.56 10.42
  A 0.80 0.79 63.1 0 0 28.48 10.06
  L 22.97 12.92
  A 0.60 0.60 0.0 0 1 22.13 12.60
  Q 21.65 11.34 20.45 11.06
  A 0.78 0.78 0.0 0 0 19.72 12.37
  Q 22.23 14.89 21.71 18.44
  A 1.07 1.07 0.0 0 0 22.75 19.66
  L 29.77 19.76
  A 0.71 0.70 -3.2 0 0 30.48 18.97
  L 30.44 18.58
  A 0.67 0.66 -3.4 0 0 29.78 18.00
  L 24.16 17.93
  Q 23.53 17.92 23.52 17.29" stroke="#7ab078"></path>
<path d="M 17.5143 16.0515
  A 1.26 1.05 63.9 0 0 17.9029 14.4581
  A 1.26 1.05 63.9 0 0 16.4057 13.7885
  A 1.26 1.05 63.9 0 0 16.0171 15.3819
  A 1.26 1.05 63.9 0 0 17.5143 16.0515" stroke="#7ab078"></path>
<path d="M 30.8391 23.7401
  A 0.83 0.83 0.0 0 0 29.9976 22.9218
  L 27.3778 22.9584
  A 0.83 0.83 0.0 0 0 26.5595 23.7999
  L 26.5609 23.8999
  A 0.83 0.83 0.0 0 0 27.4024 24.7182
  L 30.0222 24.6816
  A 0.83 0.83 0.0 0 0 30.8405 23.8401
  L 30.8391 23.7401" stroke="#7ab078"></path>
<path d="M 26.81 34.28
  Q 28.35 33.90 29.41 32.77
  A 0.67 0.66 14.9 0 0 28.77 31.67
  Q 26.09 32.28 24.26 33.76
  C 22.77 34.96 21.54 35.31 19.97 36.26
  A 0.43 0.42 -39.1 0 0 19.90 36.93
  L 20.20 37.23
  Q 20.68 37.69 21.31 37.44
  L 24.63 36.09
  Q 25.18 35.86 25.51 36.35
  Q 26.34 37.57 27.28 38.72
  Q 27.78 39.34 28.51 38.98
  A 0.59 0.58 65.7 0 0 28.79 38.22
  Q 27.99 36.39 26.62 34.92
  A 0.39 0.39 0.0 0 1 26.81 34.28" stroke="#7ab078"></path>
<path d="M 37.73 13.61
  A 0.28 0.28 0.0 0 0 38.22 13.43
  Q 38.28 11.93 37.02 11.21
  A 0.27 0.27 0.0 0 0 36.63 11.51
  Q 36.93 12.70 37.73 13.61" stroke="#7ab078"></path>
<path d="M 43.74 15.85
  L 44.90 17.60
  Q 45.48 18.49 45.45 17.43
  Q 45.40 15.73 44.14 15.32
  Q 43.18 14.99 43.74 15.85" stroke="#7ab078"></path>
<path d="M 40.80 19.51
  Q 41.77 19.34 42.48 18.69
  A 0.77 0.77 0.0 0 0 41.74 17.38
  L 35.80 19.11
  A 0.72 0.71 -19.1 0 0 35.33 20.06
  L 35.46 20.35
  A 0.58 0.57 75.0 0 0 36.07 20.71
  L 37.98 20.44
  A 0.71 0.70 70.3 0 1 38.67 20.77
  L 41.03 24.59
  A 0.85 0.84 -28.9 0 0 42.13 24.90
  L 49.89 20.99
  A 0.51 0.51 0.0 0 0 50.11 20.30
  L 49.92 19.94
  A 0.82 0.81 -27.0 0 0 48.83 19.59
  L 42.85 22.58
  Q 42.14 22.93 41.71 22.26
  L 40.46 20.27
  Q 40.05 19.63 40.80 19.51" stroke="#7ab078"></path>
<path d="M 38.6802 23.6867
  A 0.88 0.88 0.0 0 0 37.8033 22.8036
  L 35.7433 22.7964
  A 0.88 0.88 0.0 0 0 34.8603 23.6733
  L 34.8598 23.8133
  A 0.88 0.88 0.0 0 0 35.7367 24.6964
  L 37.7967 24.7036
  A 0.88 0.88 0.0 0 0 38.6797 23.8267
  L 38.6802 23.6867" stroke="#7ab078"></path>
<path d="M 51.41 26.06
  Q 51.88 26.24 52.42 26.23
  A 0.32 0.31 68.0 0 0 52.64 25.70
  Q 51.56 24.53 50.00 25.20
  A 0.34 0.34 0.0 0 0 49.96 25.81
  Q 50.34 26.04 50.81 25.99
  Q 51.12 25.95 51.41 26.06" stroke="#7ab078"></path>
<path d="M 40.49 29.64
  L 37.42 32.70
  A 1.15 1.13 -33.3 0 0 37.16 33.92
  Q 38.19 36.60 39.48 39.26
  Q 39.88 40.10 40.76 39.58
  Q 41.17 39.34 41.09 38.87
  Q 40.94 38.04 40.48 37.35
  Q 40.17 36.89 40.65 36.61
  Q 42.21 35.72 43.76 34.79
  Q 44.66 34.26 43.74 33.34
  Q 43.32 32.93 42.82 33.23
  L 40.31 34.72
  A 0.75 0.75 0.0 0 1 39.43 34.64
  L 39.19 34.43
  A 0.65 0.64 -46.4 0 1 39.17 33.48
  L 41.88 30.91
  A 1.08 1.06 -64.4 0 1 42.68 30.62
  L 52.78 31.18
  Q 53.48 31.22 53.68 30.54
  L 53.78 30.21
  A 0.55 0.55 0.0 0 0 53.30 29.51
  L 49.29 29.18
  A 0.75 0.74 76.0 0 1 48.72 28.83
  L 47.08 26.12
  Q 46.61 25.34 45.82 25.80
  L 45.57 25.94
  A 0.59 0.58 -31.6 0 0 45.37 26.76
  L 46.44 28.42
  A 0.38 0.38 0.0 0 1 46.09 29.01
  L 43.06 28.79
  A 0.89 0.86 79.2 0 1 42.34 28.28
  C 41.47 26.36 37.31 26.97 35.57 26.90
  Q 34.65 26.86 34.86 27.75
  L 34.93 28.02
  A 0.87 0.86 -5.9 0 0 35.76 28.69
  L 40.15 28.79
  A 0.50 0.50 0.0 0 1 40.49 29.64" stroke="#7ab078"></path>
<path d="M 49.60 34.56
  A 0.30 0.30 0.0 0 0 49.47 34.01
  Q 48.40 33.89 47.37 34.15
  A 0.36 0.36 0.0 0 0 47.34 34.84
  Q 48.52 35.25 49.60 34.56" stroke="#7ab078"></path>
<path d="M 51.52 36.31
  L 49.87 37.13
  Q 48.71 37.70 50.00 37.85
  Q 51.57 38.04 52.06 36.81
  Q 52.44 35.86 51.52 36.31" stroke="#7ab078"></path>
<path d="M 37.5126 40.5254
  A 1.23 0.49 47.4 0 0 37.0407 39.2883
  A 1.23 0.49 47.4 0 0 35.8474 38.7146
  A 1.23 0.49 47.4 0 0 36.3193 39.9517
  A 1.23 0.49 47.4 0 0 37.5126 40.5254" stroke="#7ab078"></path>
<path d="M 47.2080 40.2537
  A 1.23 0.51 27.8 0 0 46.3579 39.2289
  A 1.23 0.51 27.8 0 0 45.0320 39.1063
  A 1.23 0.51 27.8 0 0 45.8821 40.1311
  A 1.23 0.51 27.8 0 0 47.2080 40.2537" stroke="#7ab078"></path>
</g>
<path d="M 16.29 31.88
  L 16.48 27.37
  Q 16.51 26.81 17.03 26.62
  L 22.07 24.81
  Q 22.75 24.56 22.83 25.29
  L 23.02 26.99
  A 0.68 0.67 80.6 0 1 22.50 27.73
  L 20.01 28.26
  Q 19.24 28.42 19.62 29.11
  L 19.82 29.48
  A 0.72 0.71 72.5 0 0 20.52 29.85
  L 29.64 28.89
  A 0.90 0.89 -3.8 0 0 30.44 27.98
  L 30.43 27.68
  A 0.62 0.62 0.0 0 0 29.75 27.07
  L 25.32 27.49
  Q 24.86 27.53 24.82 27.07
  L 24.50 23.04
  A 0.58 0.58 0.0 0 0 23.78 22.52
  L 21.98 23.00
  A 0.75 0.74 -20.8 0 1 21.12 22.62
  L 18.61 17.60
  A 0.78 0.78 0.0 0 0 17.45 17.32
  L 17.16 17.54
  A 0.65 0.64 -32.1 0 0 16.97 18.36
  L 19.45 23.17
  Q 19.75 23.75 19.14 23.98
  L 17.98 24.43
  A 0.95 0.95 0.0 0 1 16.98 24.24
  Q 14.00 21.50 14.22 17.50
  Q 14.26 16.76 13.53 16.65
  L 13.26 16.61
  A 0.66 0.66 0.0 0 0 12.50 17.26
  L 12.49 20.77
  Q 12.49 21.30 12.03 21.57
  Q 11.06 22.13 10.06 22.62
  Q 9.24 23.03 9.61 23.79
  A 0.75 0.74 64.7 0 0 10.58 24.14
  L 13.08 23.06
  Q 13.48 22.88 13.83 23.15
  Q 15.04 24.07 14.74 25.75
  Q 14.38 27.74 14.61 31.77
  Q 11.06 32.32 10.59 29.06
  Q 10.51 28.52 10.68 28.01
  L 10.86 27.47
  A 0.31 0.31 0.0 0 0 10.56 27.07
  C 6.91 27.09 6.40 23.22 7.98 20.74
  Q 8.26 20.31 8.23 19.80
  Q 8.08 16.30 10.87 14.28
  Q 11.31 13.97 11.56 13.49
  Q 13.20 10.42 16.75 10.05
  A 1.62 1.56 21.3 0 0 17.61 9.69
  Q 20.31 7.43 23.79 8.56
  A 1.11 1.10 36.0 0 0 24.77 8.41
  Q 27.95 6.14 31.06 7.91
  C 32.24 8.59 32.16 10.22 32.17 11.54
  Q 32.25 25.40 32.20 39.25
  C 32.20 40.07 31.51 41.26 30.74 41.77
  Q 26.68 44.45 23.70 40.57
  A 0.72 0.70 62.0 0 0 22.92 40.32
  C 18.66 41.64 14.33 37.08 17.75 33.67
  Q 18.10 33.33 18.56 33.17
  Q 18.90 33.06 19.16 32.85
  Q 19.63 32.46 19.02 32.50
  Q 17.50 32.60 16.29 31.88
  Z
  M 23.52 17.29
  L 23.48 15.23
  A 0.90 0.88 76.2 0 1 23.96 14.42
  L 29.47 11.52
  A 0.58 0.58 0.0 0 0 29.72 10.76
  L 29.56 10.42
  A 0.80 0.79 63.1 0 0 28.48 10.06
  L 22.97 12.92
  A 0.60 0.60 0.0 0 1 22.13 12.60
  Q 21.65 11.34 20.45 11.06
  A 0.78 0.78 0.0 0 0 19.72 12.37
  Q 22.23 14.89 21.71 18.44
  A 1.07 1.07 0.0 0 0 22.75 19.66
  L 29.77 19.76
  A 0.71 0.70 -3.2 0 0 30.48 18.97
  L 30.44 18.58
  A 0.67 0.66 -3.4 0 0 29.78 18.00
  L 24.16 17.93
  Q 23.53 17.92 23.52 17.29
  Z
  M 17.5143 16.0515
  A 1.26 1.05 63.9 0 0 17.9029 14.4581
  A 1.26 1.05 63.9 0 0 16.4057 13.7885
  A 1.26 1.05 63.9 0 0 16.0171 15.3819
  A 1.26 1.05 63.9 0 0 17.5143 16.0515
  Z
  M 30.8391 23.7401
  A 0.83 0.83 0.0 0 0 29.9976 22.9218
  L 27.3778 22.9584
  A 0.83 0.83 0.0 0 0 26.5595 23.7999
  L 26.5609 23.8999
  A 0.83 0.83 0.0 0 0 27.4024 24.7182
  L 30.0222 24.6816
  A 0.83 0.83 0.0 0 0 30.8405 23.8401
  L 30.8391 23.7401
  Z
  M 26.81 34.28
  Q 28.35 33.90 29.41 32.77
  A 0.67 0.66 14.9 0 0 28.77 31.67
  Q 26.09 32.28 24.26 33.76
  C 22.77 34.96 21.54 35.31 19.97 36.26
  A 0.43 0.42 -39.1 0 0 19.90 36.93
  L 20.20 37.23
  Q 20.68 37.69 21.31 37.44
  L 24.63 36.09
  Q 25.18 35.86 25.51 36.35
  Q 26.34 37.57 27.28 38.72
  Q 27.78 39.34 28.51 38.98
  A 0.59 0.58 65.7 0 0 28.79 38.22
  Q 27.99 36.39 26.62 34.92
  A 0.39 0.39 0.0 0 1 26.81 34.28
  Z" fill="#438445"></path>
<path d="M 38.32 43.10
  Q 36.38 43.93 38.44 44.38
  Q 43.54 45.51 48.16 43.71
  Q 48.24 43.68 48.27 43.75
  L 48.37 43.99
  Q 48.46 44.22 48.24 44.33
  C 45.68 45.56 38.98 46.95 36.95 43.88
  Q 36.70 43.50 36.25 43.41
  C 34.08 43.00 33.37 41.76 33.37 39.55
  Q 33.39 24.82 33.35 10.17
  A 2.12 2.12 0.0 0 1 35.02 8.10
  Q 39.73 7.09 42.35 10.95
  Q 42.68 11.42 43.25 11.44
  Q 46.99 11.55 48.67 14.85
  A 1.15 1.13 85.8 0 0 49.32 15.42
  Q 53.44 16.84 53.81 21.30
  Q 53.85 21.81 54.24 22.13
  Q 56.03 23.64 55.95 24.99
  C 55.79 27.73 57.78 30.19 56.22 33.27
  A 1.55 1.52 -37.3 0 0 56.08 34.23
  Q 56.82 38.36 52.95 39.63
  Q 52.41 39.80 52.14 40.30
  Q 50.18 43.94 45.99 42.83
  Q 45.52 42.71 45.15 43.01
  Q 42.99 44.78 40.37 43.55
  Q 38.90 42.85 38.32 43.10
  Z
  M 37.73 13.61
  A 0.28 0.28 0.0 0 0 38.22 13.43
  Q 38.28 11.93 37.02 11.21
  A 0.27 0.27 0.0 0 0 36.63 11.51
  Q 36.93 12.70 37.73 13.61
  Z
  M 43.74 15.85
  L 44.90 17.60
  Q 45.48 18.49 45.45 17.43
  Q 45.40 15.73 44.14 15.32
  Q 43.18 14.99 43.74 15.85
  Z
  M 40.80 19.51
  Q 41.77 19.34 42.48 18.69
  A 0.77 0.77 0.0 0 0 41.74 17.38
  L 35.80 19.11
  A 0.72 0.71 -19.1 0 0 35.33 20.06
  L 35.46 20.35
  A 0.58 0.57 75.0 0 0 36.07 20.71
  L 37.98 20.44
  A 0.71 0.70 70.3 0 1 38.67 20.77
  L 41.03 24.59
  A 0.85 0.84 -28.9 0 0 42.13 24.90
  L 49.89 20.99
  A 0.51 0.51 0.0 0 0 50.11 20.30
  L 49.92 19.94
  A 0.82 0.81 -27.0 0 0 48.83 19.59
  L 42.85 22.58
  Q 42.14 22.93 41.71 22.26
  L 40.46 20.27
  Q 40.05 19.63 40.80 19.51
  Z
  M 38.6802 23.6867
  A 0.88 0.88 0.0 0 0 37.8033 22.8036
  L 35.7433 22.7964
  A 0.88 0.88 0.0 0 0 34.8603 23.6733
  L 34.8598 23.8133
  A 0.88 0.88 0.0 0 0 35.7367 24.6964
  L 37.7967 24.7036
  A 0.88 0.88 0.0 0 0 38.6797 23.8267
  L 38.6802 23.6867
  Z
  M 51.41 26.06
  Q 51.88 26.24 52.42 26.23
  A 0.32 0.31 68.0 0 0 52.64 25.70
  Q 51.56 24.53 50.00 25.20
  A 0.34 0.34 0.0 0 0 49.96 25.81
  Q 50.34 26.04 50.81 25.99
  Q 51.12 25.95 51.41 26.06
  Z
  M 40.49 29.64
  L 37.42 32.70
  A 1.15 1.13 -33.3 0 0 37.16 33.92
  Q 38.19 36.60 39.48 39.26
  Q 39.88 40.10 40.76 39.58
  Q 41.17 39.34 41.09 38.87
  Q 40.94 38.04 40.48 37.35
  Q 40.17 36.89 40.65 36.61
  Q 42.21 35.72 43.76 34.79
  Q 44.66 34.26 43.74 33.34
  Q 43.32 32.93 42.82 33.23
  L 40.31 34.72
  A 0.75 0.75 0.0 0 1 39.43 34.64
  L 39.19 34.43
  A 0.65 0.64 -46.4 0 1 39.17 33.48
  L 41.88 30.91
  A 1.08 1.06 -64.4 0 1 42.68 30.62
  L 52.78 31.18
  Q 53.48 31.22 53.68 30.54
  L 53.78 30.21
  A 0.55 0.55 0.0 0 0 53.30 29.51
  L 49.29 29.18
  A 0.75 0.74 76.0 0 1 48.72 28.83
  L 47.08 26.12
  Q 46.61 25.34 45.82 25.80
  L 45.57 25.94
  A 0.59 0.58 -31.6 0 0 45.37 26.76
  L 46.44 28.42
  A 0.38 0.38 0.0 0 1 46.09 29.01
  L 43.06 28.79
  A 0.89 0.86 79.2 0 1 42.34 28.28
  C 41.47 26.36 37.31 26.97 35.57 26.90
  Q 34.65 26.86 34.86 27.75
  L 34.93 28.02
  A 0.87 0.86 -5.9 0 0 35.76 28.69
  L 40.15 28.79
  A 0.50 0.50 0.0 0 1 40.49 29.64
  Z
  M 49.60 34.56
  A 0.30 0.30 0.0 0 0 49.47 34.01
  Q 48.40 33.89 47.37 34.15
  A 0.36 0.36 0.0 0 0 47.34 34.84
  Q 48.52 35.25 49.60 34.56
  Z
  M 51.52 36.31
  L 49.87 37.13
  Q 48.71 37.70 50.00 37.85
  Q 51.57 38.04 52.06 36.81
  Q 52.44 35.86 51.52 36.31
  Z
  M 37.5126 40.5254
  A 1.23 0.49 47.4 0 0 37.0407 39.2883
  A 1.23 0.49 47.4 0 0 35.8474 38.7146
  A 1.23 0.49 47.4 0 0 36.3193 39.9517
  A 1.23 0.49 47.4 0 0 37.5126 40.5254
  Z
  M 47.2080 40.2537
  A 1.23 0.51 27.8 0 0 46.3579 39.2289
  A 1.23 0.51 27.8 0 0 45.0320 39.1063
  A 1.23 0.51 27.8 0 0 45.8821 40.1311
  A 1.23 0.51 27.8 0 0 47.2080 40.2537
  Z" fill="#438445"></path>
<path d="M 24.16 17.93
  L 29.78 18.00
  A 0.67 0.66 -3.4 0 1 30.44 18.58
  L 30.48 18.97
  A 0.71 0.70 -3.2 0 1 29.77 19.76
  L 22.75 19.66
  A 1.07 1.07 0.0 0 1 21.71 18.44
  Q 22.23 14.89 19.72 12.37
  A 0.78 0.78 0.0 0 1 20.45 11.06
  Q 21.65 11.34 22.13 12.60
  A 0.60 0.60 0.0 0 0 22.97 12.92
  L 28.48 10.06
  A 0.80 0.79 63.1 0 1 29.56 10.42
  L 29.72 10.76
  A 0.58 0.58 0.0 0 1 29.47 11.52
  L 23.96 14.42
  A 0.90 0.88 76.2 0 0 23.48 15.23
  L 23.52 17.29
  Q 23.53 17.92 24.16 17.93
  Z" fill="#b0dbab"></path>
<path d="M 37.73 13.61
  Q 36.93 12.70 36.63 11.51
  A 0.27 0.27 0.0 0 1 37.02 11.21
  Q 38.28 11.93 38.22 13.43
  A 0.28 0.28 0.0 0 1 37.73 13.61
  Z" fill="#b0dbab"></path>
<ellipse ry="1.05" rx="1.26" transform="translate(16.96,14.92) rotate(63.9)" cy="0.00" cx="0.00" fill="#b0dbab"></ellipse>
<path d="M 43.74 15.85
  Q 43.18 14.99 44.14 15.32
  Q 45.40 15.73 45.45 17.43
  Q 45.48 18.49 44.90 17.60
  L 43.74 15.85
  Z" fill="#b0dbab"></path>
<path d="M 16.29 31.88
  L 14.61 31.77
  Q 14.38 27.74 14.74 25.75
  Q 15.04 24.07 13.83 23.15
  Q 13.48 22.88 13.08 23.06
  L 10.58 24.14
  A 0.75 0.74 64.7 0 1 9.61 23.79
  Q 9.24 23.03 10.06 22.62
  Q 11.06 22.13 12.03 21.57
  Q 12.49 21.30 12.49 20.77
  L 12.50 17.26
  A 0.66 0.66 0.0 0 1 13.26 16.61
  L 13.53 16.65
  Q 14.26 16.76 14.22 17.50
  Q 14.00 21.50 16.98 24.24
  A 0.95 0.95 0.0 0 0 17.98 24.43
  L 19.14 23.98
  Q 19.75 23.75 19.45 23.17
  L 16.97 18.36
  A 0.65 0.64 -32.1 0 1 17.16 17.54
  L 17.45 17.32
  A 0.78 0.78 0.0 0 1 18.61 17.60
  L 21.12 22.62
  A 0.75 0.74 -20.8 0 0 21.98 23.00
  L 23.78 22.52
  A 0.58 0.58 0.0 0 1 24.50 23.04
  L 24.82 27.07
  Q 24.86 27.53 25.32 27.49
  L 29.75 27.07
  A 0.62 0.62 0.0 0 1 30.43 27.68
  L 30.44 27.98
  A 0.90 0.89 -3.8 0 1 29.64 28.89
  L 20.52 29.85
  A 0.72 0.71 72.5 0 1 19.82 29.48
  L 19.62 29.11
  Q 19.24 28.42 20.01 28.26
  L 22.50 27.73
  A 0.68 0.67 80.6 0 0 23.02 26.99
  L 22.83 25.29
  Q 22.75 24.56 22.07 24.81
  L 17.03 26.62
  Q 16.51 26.81 16.48 27.37
  L 16.29 31.88
  Z" fill="#b0dbab"></path>
<path d="M 40.80 19.51
  Q 40.05 19.63 40.46 20.27
  L 41.71 22.26
  Q 42.14 22.93 42.85 22.58
  L 48.83 19.59
  A 0.82 0.81 -27.0 0 1 49.92 19.94
  L 50.11 20.30
  A 0.51 0.51 0.0 0 1 49.89 20.99
  L 42.13 24.90
  A 0.85 0.84 -28.9 0 1 41.03 24.59
  L 38.67 20.77
  A 0.71 0.70 70.3 0 0 37.98 20.44
  L 36.07 20.71
  A 0.58 0.57 75.0 0 1 35.46 20.35
  L 35.33 20.06
  A 0.72 0.71 -19.1 0 1 35.80 19.11
  L 41.74 17.38
  A 0.77 0.77 0.0 0 1 42.48 18.69
  Q 41.77 19.34 40.80 19.51
  Z" fill="#b0dbab"></path>
<rect rx="0.88" height="1.90" width="3.82" transform="translate(36.77,23.75) rotate(0.2)" y="-0.95" x="-1.91" fill="#b0dbab"></rect>
<rect rx="0.83" height="1.76" width="4.28" transform="translate(28.70,23.82) rotate(-0.8)" y="-0.88" x="-2.14" fill="#b0dbab"></rect>
<path d="M 50.81 25.99
  Q 50.34 26.04 49.96 25.81
  A 0.34 0.34 0.0 0 1 50.00 25.20
  Q 51.56 24.53 52.64 25.70
  A 0.32 0.31 68.0 0 1 52.42 26.23
  Q 51.88 26.24 51.41 26.06
  Q 51.12 25.95 50.81 25.99
  Z" fill="#b0dbab"></path>
<path d="M 40.15 28.79
  L 35.76 28.69
  A 0.87 0.86 -5.9 0 1 34.93 28.02
  L 34.86 27.75
  Q 34.65 26.86 35.57 26.90
  C 37.31 26.97 41.47 26.36 42.34 28.28
  A 0.89 0.86 79.2 0 0 43.06 28.79
  L 46.09 29.01
  A 0.38 0.38 0.0 0 0 46.44 28.42
  L 45.37 26.76
  A 0.59 0.58 -31.6 0 1 45.57 25.94
  L 45.82 25.80
  Q 46.61 25.34 47.08 26.12
  L 48.72 28.83
  A 0.75 0.74 76.0 0 0 49.29 29.18
  L 53.30 29.51
  A 0.55 0.55 0.0 0 1 53.78 30.21
  L 53.68 30.54
  Q 53.48 31.22 52.78 31.18
  L 42.68 30.62
  A 1.08 1.06 -64.4 0 0 41.88 30.91
  L 39.17 33.48
  A 0.65 0.64 -46.4 0 0 39.19 34.43
  L 39.43 34.64
  A 0.75 0.75 0.0 0 0 40.31 34.72
  L 42.82 33.23
  Q 43.32 32.93 43.74 33.34
  Q 44.66 34.26 43.76 34.79
  Q 42.21 35.72 40.65 36.61
  Q 40.17 36.89 40.48 37.35
  Q 40.94 38.04 41.09 38.87
  Q 41.17 39.34 40.76 39.58
  Q 39.88 40.10 39.48 39.26
  Q 38.19 36.60 37.16 33.92
  A 1.15 1.13 -33.3 0 1 37.42 32.70
  L 40.49 29.64
  A 0.50 0.50 0.0 0 0 40.15 28.79
  Z" fill="#b0dbab"></path>
<path d="M 26.81 34.28
  A 0.39 0.39 0.0 0 0 26.62 34.92
  Q 27.99 36.39 28.79 38.22
  A 0.59 0.58 65.7 0 1 28.51 38.98
  Q 27.78 39.34 27.28 38.72
  Q 26.34 37.57 25.51 36.35
  Q 25.18 35.86 24.63 36.09
  L 21.31 37.44
  Q 20.68 37.69 20.20 37.23
  L 19.90 36.93
  A 0.43 0.42 -39.1 0 1 19.97 36.26
  C 21.54 35.31 22.77 34.96 24.26 33.76
  Q 26.09 32.28 28.77 31.67
  A 0.67 0.66 14.9 0 1 29.41 32.77
  Q 28.35 33.90 26.81 34.28
  Z" fill="#b0dbab"></path>
<path d="M 49.60 34.56
  Q 48.52 35.25 47.34 34.84
  A 0.36 0.36 0.0 0 1 47.37 34.15
  Q 48.40 33.89 49.47 34.01
  A 0.30 0.30 0.0 0 1 49.60 34.56
  Z" fill="#b0dbab"></path>
<path d="M 51.52 36.31
  Q 52.44 35.86 52.06 36.81
  Q 51.57 38.04 50.00 37.85
  Q 48.71 37.70 49.87 37.13
  L 51.52 36.31
  Z" fill="#b0dbab"></path>
<ellipse ry="0.49" rx="1.23" transform="translate(36.68,39.62) rotate(47.4)" cy="0.00" cx="0.00" fill="#b0dbab"></ellipse>
<ellipse ry="0.51" rx="1.23" transform="translate(46.12,39.68) rotate(27.8)" cy="0.00" cx="0.00" fill="#b0dbab"></ellipse>
<path d="M 32.69 41.88
  C 34.59 47.08 36.59 50.64 36.54 56.41
  Q 36.53 56.73 36.22 56.75
  L 35.84 56.79
  Q 35.32 56.83 35.28 56.32
  Q 34.65 49.80 29.68 45.63
  A 1.45 1.45 0.0 0 1 29.80 43.32
  L 32.19 41.71
  Q 32.55 41.47 32.69 41.88
  Z" fill="#438445"></path>
<path d="M 35.27 44.87
  C 38.59 47.67 43.05 47.84 46.80 46.59
  A 0.24 0.24 0.0 0 1 47.01 47.01
  Q 42.59 49.96 37.21 49.76
  Q 36.68 49.74 36.48 49.25
  L 34.86 45.17
  A 0.26 0.26 0.0 0 1 35.27 44.87
  Z" fill="#438445"></path>
</svg>
