<svg viewBox="0.00 0.00 128.00 128.00" version="1.1" xmlns="http://www.w3.org/2000/svg">
<path d="M 92.53 48.03
  C 89.27 51.39 85.26 53.15 80.57 53.26
  Q 43.31 54.14 6.91 54.96
  A 2.98 2.98 0.0 0 1 4.68 49.93
  Q 20.53 33.30 36.38 16.63
  C 40.05 12.78 45.12 11.94 50.87 11.81
  C 64.21 11.49 77.57 11.44 90.91 10.85
  C 95.51 10.65 100.12 10.80 104.69 10.60
  C 110.53 10.34 116.38 10.22 122.44 10.16
  Q 122.89 10.16 123.25 10.44
  Q 126.33 12.85 123.79 15.52
  Q 108.23 31.85 92.53 48.03
  Z" fill="#8587ff"></path>
<path d="M 27.93 114.50
  C 26.59 119.22 19.78 119.60 18.46 114.96
  Q 11.08 88.83 3.77 62.33
  A 2.04 2.04 0.0 0 1 5.74 59.75
  L 40.52 59.75
  A 2.08 2.08 0.0 0 1 42.52 62.38
  Q 35.22 88.80 27.93 114.50
  Z" fill="#38b6ff"></path>
<ellipse ry="11.19" rx="13.55" transform="translate(61.58,74.16) rotate(89.8)" cy="0.00" cx="0.00" fill="#5ce1e6"></ellipse>
</svg>
