<svg viewBox="0.00 0.00 192.00 192.00" version="1.1" xmlns="http://www.w3.org/2000/svg">
<g stroke-linecap="butt" fill="none" stroke-width="2.00">
<path d="M 118.81 2.72
  Q 118.43 3.27 117.30 2.94
  Q 116.99 2.85 116.94 3.17
  Q 116.90 3.42 116.76 3.62
  Q 116.35 4.20 116.20 3.51
  L 116.12 3.15
  Q 116.00 2.56 115.40 2.55
  Q 114.46 2.54 114.07 3.23
  Q 113.86 3.61 114.17 3.92
  L 114.50 4.24
  Q 114.78 4.52 114.41 4.67
  Q 114.19 4.77 114.04 4.96
  Q 113.88 5.16 113.88 5.58
  Q 113.88 6.52 113.88 7.46
  Q 113.88 7.88 113.71 8.27
  Q 113.16 9.49 112.15 10.12
  Q 111.59 10.48 112.14 10.86
  Q 112.94 11.41 113.54 12.25
  Q 113.77 12.56 113.50 12.84
  L 113.12 13.22
  Q 112.74 13.60 113.24 13.81
  Q 113.78 14.04 113.61 14.56
  Q 113.50 14.90 113.14 14.86
  Q 112.69 14.81 112.39 15.11
  Q 111.95 15.55 112.51 15.80
  Q 112.91 15.98 113.21 16.35
  Q 113.69 16.95 112.92 16.88
  Q 112.53 16.84 112.33 17.20
  Q 112.11 17.60 112.51 17.81
  Q 113.02 18.08 112.85 18.49
  A 0.40 0.39 25.5 0 0 113.03 18.98
  Q 114.04 19.56 114.67 20.53
  A 0.23 0.23 0.0 0 1 114.44 20.88
  Q 113.70 20.74 113.10 21.13
  A 0.45 0.44 42.8 0 0 113.13 21.90
  Q 114.34 22.53 115.43 21.76
  Q 115.58 21.66 115.70 21.78
  L 116.62 22.66
  A 0.56 0.56 0.0 0 1 116.43 23.59
  Q 115.49 23.93 115.23 23.25
  A 0.70 0.69 -25.7 0 0 114.21 22.90
  Q 113.57 23.29 113.18 23.91
  Q 112.85 24.44 113.38 24.78
  Q 114.90 25.75 114.92 27.44
  A 0.63 0.62 2.1 0 0 115.49 28.05
  Q 117.03 28.21 117.66 29.77
  Q 117.81 30.15 117.42 30.02
  Q 116.53 29.72 115.88 29.15
  Q 115.53 28.84 115.15 29.11
  Q 114.78 29.38 114.89 29.85
  A 0.77 0.75 -27.0 0 1 114.64 30.59
  Q 113.54 31.54 113.89 32.97
  Q 114.01 33.42 113.62 33.68
  Q 112.58 34.36 112.91 35.54
  Q 113.07 36.12 113.68 36.12
  L 115.03 36.12
  Q 116.13 36.12 115.35 36.90
  L 115.00 37.25
  Q 114.07 38.19 115.26 37.87
  Q 115.52 37.80 115.61 38.32
  A 0.53 0.52 67.5 0 1 115.40 38.84
  Q 114.78 39.28 114.89 40.06
  Q 114.97 40.66 115.45 41.03
  Q 115.99 41.46 116.28 42.14
  Q 116.39 42.41 116.19 42.62
  L 115.65 43.16
  Q 115.12 43.69 115.15 42.94
  Q 115.17 42.44 114.84 42.08
  A 0.39 0.38 45.5 0 0 114.28 42.07
  L 112.98 43.37
  Q 112.67 43.68 113.09 43.81
  L 114.23 44.19
  Q 115.21 44.51 114.18 44.62
  Q 113.82 44.66 113.52 44.80
  Q 113.04 45.03 113.05 45.56
  Q 113.06 46.68 114.47 47.99" stroke="#e2392d"></path>
<path d="M 114.47 47.99
  L 104.81 48.61" stroke="#ec7a1d"></path>
<path d="M 104.81 48.61
  Q 95.51 47.26 88.49 48.48
  C 57.68 53.82 40.55 84.56 51.33 113.79" stroke="#ee9a94"></path>
<path d="M 51.33 113.79
  L 45.35 104.21" stroke="#806435"></path>
<path d="M 45.35 104.21
  L 12.86 48.05" stroke="#866b3b"></path>
<path d="M 178.95 47.73
  L 114.47 47.99" stroke="#f17f22"></path>
<path d="M 95.97 192.00
  L 134.97 124.30" stroke="#8faa2a"></path>
<path d="M 134.97 124.30
  C 155.51 94.49 139.49 56.50 104.81 48.61" stroke="#fde089"></path>
<path d="M 134.97 124.30
  C 111.46 154.48 66.37 149.05 51.33 113.79" stroke="#91c9a1"></path>
<path d="M 134.00 96.00
  A 38.00 38.00 0.0 0 0 96.00 58.00
  A 38.00 38.00 0.0 0 0 58.00 96.00
  A 38.00 38.00 0.0 0 0 96.00 134.00
  A 38.00 38.00 0.0 0 0 134.00 96.00" stroke="#8db9f4"></path>
<path d="M 45.35 104.21
  C 44.13 104.48 42.60 105.54 42.81 106.98
  Q 42.94 107.90 43.44 108.29
  A 0.30 0.29 38.9 0 1 43.49 108.71
  L 42.55 109.86
  A 0.19 0.19 0.0 0 1 42.22 109.79
  L 41.61 107.76
  Q 41.54 107.52 41.30 107.45
  Q 39.93 107.05 40.12 108.17
  Q 40.20 108.66 39.79 108.94
  Q 38.69 109.69 37.91 110.76
  Q 37.64 111.12 37.20 111.12
  L 33.61 111.12
  A 0.42 0.42 0.0 0 0 33.19 111.55
  Q 33.21 112.12 32.99 112.62
  A 0.57 0.57 0.0 0 1 31.92 112.56
  Q 31.67 111.74 30.49 112.30
  Q 30.28 112.40 30.17 112.61
  L 30.04 112.86
  A 0.49 0.49 0.0 0 0 30.43 113.58
  Q 31.27 113.64 31.88 114.13
  Q 32.45 114.58 31.83 114.97
  Q 30.70 115.69 29.91 116.79
  Q 29.59 117.24 29.04 117.17
  Q 27.61 116.98 27.73 115.45
  Q 27.74 115.31 27.60 115.35
  L 27.19 115.48
  Q 26.98 115.55 27.05 115.76
  Q 27.33 116.56 26.74 117.02
  Q 26.67 117.08 26.02 117.75
  Q 25.51 118.28 24.82 118.12
  Q 24.35 118.02 24.15 118.45
  Q 23.72 119.36 22.78 119.11
  Q 22.26 118.98 22.14 119.50
  Q 21.81 120.84 23.02 121.21
  A 0.20 0.20 0.0 0 1 23.10 121.54
  L 21.72 122.95
  Q 21.46 123.21 21.18 122.97
  C 20.69 122.54 20.94 120.63 20.62 119.78
  Q 20.39 119.19 20.30 119.82
  Q 20.18 120.63 19.57 121.12
  Q 19.28 121.36 19.16 121.72
  Q 18.83 122.71 19.67 122.97
  Q 20.27 123.16 20.00 123.73
  Q 19.87 123.99 19.48 124.07
  Q 18.47 124.27 17.78 123.59
  Q 17.35 123.16 17.04 123.68
  Q 16.87 123.96 16.56 124.09
  A 0.73 0.73 0.0 0 0 16.11 124.90
  Q 16.18 125.24 16.09 125.53
  A 0.85 0.83 8.3 0 1 15.28 126.12
  L 14.03 126.12
  Q 13.40 126.12 12.96 126.57
  Q 12.64 126.89 12.33 126.92
  Q 11.64 126.98 11.98 126.38
  L 12.95 124.66
  Q 12.98 124.60 13.05 124.61
  Q 13.26 124.65 13.43 124.61
  A 0.11 0.11 0.0 0 0 13.43 124.39
  Q 12.30 124.20 11.65 125.15
  Q 11.14 125.90 11.14 126.01
  Q 11.10 127.07 10.01 127.13
  Q 9.53 127.16 9.16 127.48
  Q 7.92 128.59 5.47 127.99" stroke="#289a48"></path>
</g>
<path d="M 90.92 0.00
  L 101.24 0.00
  L 118.81 2.72
  Q 118.43 3.27 117.30 2.94
  Q 116.99 2.85 116.94 3.17
  Q 116.90 3.42 116.76 3.62
  Q 116.35 4.20 116.20 3.51
  L 116.12 3.15
  Q 116.00 2.56 115.40 2.55
  Q 114.46 2.54 114.07 3.23
  Q 113.86 3.61 114.17 3.92
  L 114.50 4.24
  Q 114.78 4.52 114.41 4.67
  Q 114.19 4.77 114.04 4.96
  Q 113.88 5.16 113.88 5.58
  Q 113.88 6.52 113.88 7.46
  Q 113.88 7.88 113.71 8.27
  Q 113.16 9.49 112.15 10.12
  Q 111.59 10.48 112.14 10.86
  Q 112.94 11.41 113.54 12.25
  Q 113.77 12.56 113.50 12.84
  L 113.12 13.22
  Q 112.74 13.60 113.24 13.81
  Q 113.78 14.04 113.61 14.56
  Q 113.50 14.90 113.14 14.86
  Q 112.69 14.81 112.39 15.11
  Q 111.95 15.55 112.51 15.80
  Q 112.91 15.98 113.21 16.35
  Q 113.69 16.95 112.92 16.88
  Q 112.53 16.84 112.33 17.20
  Q 112.11 17.60 112.51 17.81
  Q 113.02 18.08 112.85 18.49
  A 0.40 0.39 25.5 0 0 113.03 18.98
  Q 114.04 19.56 114.67 20.53
  A 0.23 0.23 0.0 0 1 114.44 20.88
  Q 113.70 20.74 113.10 21.13
  A 0.45 0.44 42.8 0 0 113.13 21.90
  Q 114.34 22.53 115.43 21.76
  Q 115.58 21.66 115.70 21.78
  L 116.62 22.66
  A 0.56 0.56 0.0 0 1 116.43 23.59
  Q 115.49 23.93 115.23 23.25
  A 0.70 0.69 -25.7 0 0 114.21 22.90
  Q 113.57 23.29 113.18 23.91
  Q 112.85 24.44 113.38 24.78
  Q 114.90 25.75 114.92 27.44
  A 0.63 0.62 2.1 0 0 115.49 28.05
  Q 117.03 28.21 117.66 29.77
  Q 117.81 30.15 117.42 30.02
  Q 116.53 29.72 115.88 29.15
  Q 115.53 28.84 115.15 29.11
  Q 114.78 29.38 114.89 29.85
  A 0.77 0.75 -27.0 0 1 114.64 30.59
  Q 113.54 31.54 113.89 32.97
  Q 114.01 33.42 113.62 33.68
  Q 112.58 34.36 112.91 35.54
  Q 113.07 36.12 113.68 36.12
  L 115.03 36.12
  Q 116.13 36.12 115.35 36.90
  L 115.00 37.25
  Q 114.07 38.19 115.26 37.87
  Q 115.52 37.80 115.61 38.32
  A 0.53 0.52 67.5 0 1 115.40 38.84
  Q 114.78 39.28 114.89 40.06
  Q 114.97 40.66 115.45 41.03
  Q 115.99 41.46 116.28 42.14
  Q 116.39 42.41 116.19 42.62
  L 115.65 43.16
  Q 115.12 43.69 115.15 42.94
  Q 115.17 42.44 114.84 42.08
  A 0.39 0.38 45.5 0 0 114.28 42.07
  L 112.98 43.37
  Q 112.67 43.68 113.09 43.81
  L 114.23 44.19
  Q 115.21 44.51 114.18 44.62
  Q 113.82 44.66 113.52 44.80
  Q 113.04 45.03 113.05 45.56
  Q 113.06 46.68 114.47 47.99
  L 104.81 48.61
  Q 95.51 47.26 88.49 48.48
  C 57.68 53.82 40.55 84.56 51.33 113.79
  L 45.35 104.21
  L 12.86 48.05
  Q 21.86 32.40 35.92 21.17
  Q 59.76 2.13 90.92 0.00
  Z" fill="#dd3428"></path>
<path d="M 118.81 2.72
  C 144.78 9.43 165.07 24.76 178.95 47.73
  L 114.47 47.99
  Q 113.06 46.68 113.05 45.56
  Q 113.04 45.03 113.52 44.80
  Q 113.82 44.66 114.18 44.62
  Q 115.21 44.51 114.23 44.19
  L 113.09 43.81
  Q 112.67 43.68 112.98 43.37
  L 114.28 42.07
  A 0.39 0.38 45.5 0 1 114.84 42.08
  Q 115.17 42.44 115.15 42.94
  Q 115.12 43.69 115.65 43.16
  L 116.19 42.62
  Q 116.39 42.41 116.28 42.14
  Q 115.99 41.46 115.45 41.03
  Q 114.97 40.66 114.89 40.06
  Q 114.78 39.28 115.40 38.84
  A 0.53 0.52 67.5 0 0 115.61 38.32
  Q 115.52 37.80 115.26 37.87
  Q 114.07 38.19 115.00 37.25
  L 115.35 36.90
  Q 116.13 36.12 115.03 36.12
  L 113.68 36.12
  Q 113.07 36.12 112.91 35.54
  Q 112.58 34.36 113.62 33.68
  Q 114.01 33.42 113.89 32.97
  Q 113.54 31.54 114.64 30.59
  A 0.77 0.75 -27.0 0 0 114.89 29.85
  Q 114.78 29.38 115.15 29.11
  Q 115.53 28.84 115.88 29.15
  Q 116.53 29.72 117.42 30.02
  Q 117.81 30.15 117.66 29.77
  Q 117.03 28.21 115.49 28.05
  A 0.63 0.62 2.1 0 1 114.92 27.44
  Q 114.90 25.75 113.38 24.78
  Q 112.85 24.44 113.18 23.91
  Q 113.57 23.29 114.21 22.90
  A 0.70 0.69 -25.7 0 1 115.23 23.25
  Q 115.49 23.93 116.43 23.59
  A 0.56 0.56 0.0 0 0 116.62 22.66
  L 115.70 21.78
  Q 115.58 21.66 115.43 21.76
  Q 114.34 22.53 113.13 21.90
  A 0.45 0.44 42.8 0 1 113.10 21.13
  Q 113.70 20.74 114.44 20.88
  A 0.23 0.23 0.0 0 0 114.67 20.53
  Q 114.04 19.56 113.03 18.98
  A 0.40 0.39 25.5 0 1 112.85 18.49
  Q 113.02 18.08 112.51 17.81
  Q 112.11 17.60 112.33 17.20
  Q 112.53 16.84 112.92 16.88
  Q 113.69 16.95 113.21 16.35
  Q 112.91 15.98 112.51 15.80
  Q 111.95 15.55 112.39 15.11
  Q 112.69 14.81 113.14 14.86
  Q 113.50 14.90 113.61 14.56
  Q 113.78 14.04 113.24 13.81
  Q 112.74 13.60 113.12 13.22
  L 113.50 12.84
  Q 113.77 12.56 113.54 12.25
  Q 112.94 11.41 112.14 10.86
  Q 111.59 10.48 112.15 10.12
  Q 113.16 9.49 113.71 8.27
  Q 113.88 7.88 113.88 7.46
  Q 113.88 6.52 113.88 5.58
  Q 113.88 5.16 114.04 4.96
  Q 114.19 4.77 114.41 4.67
  Q 114.78 4.52 114.50 4.24
  L 114.17 3.92
  Q 113.86 3.61 114.07 3.23
  Q 114.46 2.54 115.40 2.55
  Q 116.00 2.56 116.12 3.15
  L 116.20 3.51
  Q 116.35 4.20 116.76 3.62
  Q 116.90 3.42 116.94 3.17
  Q 116.99 2.85 117.30 2.94
  Q 118.43 3.27 118.81 2.72
  Z" fill="#e63e31"></path>
<path d="M 178.95 47.73
  Q 190.35 67.57 192.00 90.91
  L 192.00 100.48
  C 188.76 150.79 150.64 188.79 100.36 192.00
  L 95.97 192.00
  L 134.97 124.30
  C 155.51 94.49 139.49 56.50 104.81 48.61
  L 114.47 47.99
  L 178.95 47.73
  Z" fill="#fbc012"></path>
<path d="M 104.81 48.61
  C 139.49 56.50 155.51 94.49 134.97 124.30
  C 111.46 154.48 66.37 149.05 51.33 113.79
  C 40.55 84.56 57.68 53.82 88.49 48.48
  Q 95.51 47.26 104.81 48.61
  Z
  M 134.00 96.00
  A 38.00 38.00 0.0 0 0 96.00 58.00
  A 38.00 38.00 0.0 0 0 58.00 96.00
  A 38.00 38.00 0.0 0 0 96.00 134.00
  A 38.00 38.00 0.0 0 0 134.00 96.00
  Z" fill="#ffffff"></path>
<path d="M 12.86 48.05
  L 45.35 104.21
  C 44.13 104.48 42.60 105.54 42.81 106.98
  Q 42.94 107.90 43.44 108.29
  A 0.30 0.29 38.9 0 1 43.49 108.71
  L 42.55 109.86
  A 0.19 0.19 0.0 0 1 42.22 109.79
  L 41.61 107.76
  Q 41.54 107.52 41.30 107.45
  Q 39.93 107.05 40.12 108.17
  Q 40.20 108.66 39.79 108.94
  Q 38.69 109.69 37.91 110.76
  Q 37.64 111.12 37.20 111.12
  L 33.61 111.12
  A 0.42 0.42 0.0 0 0 33.19 111.55
  Q 33.21 112.12 32.99 112.62
  A 0.57 0.57 0.0 0 1 31.92 112.56
  Q 31.67 111.74 30.49 112.30
  Q 30.28 112.40 30.17 112.61
  L 30.04 112.86
  A 0.49 0.49 0.0 0 0 30.43 113.58
  Q 31.27 113.64 31.88 114.13
  Q 32.45 114.58 31.83 114.97
  Q 30.70 115.69 29.91 116.79
  Q 29.59 117.24 29.04 117.17
  Q 27.61 116.98 27.73 115.45
  Q 27.74 115.31 27.60 115.35
  L 27.19 115.48
  Q 26.98 115.55 27.05 115.76
  Q 27.33 116.56 26.74 117.02
  Q 26.67 117.08 26.02 117.75
  Q 25.51 118.28 24.82 118.12
  Q 24.35 118.02 24.15 118.45
  Q 23.72 119.36 22.78 119.11
  Q 22.26 118.98 22.14 119.50
  Q 21.81 120.84 23.02 121.21
  A 0.20 0.20 0.0 0 1 23.10 121.54
  L 21.72 122.95
  Q 21.46 123.21 21.18 122.97
  C 20.69 122.54 20.94 120.63 20.62 119.78
  Q 20.39 119.19 20.30 119.82
  Q 20.18 120.63 19.57 121.12
  Q 19.28 121.36 19.16 121.72
  Q 18.83 122.71 19.67 122.97
  Q 20.27 123.16 20.00 123.73
  Q 19.87 123.99 19.48 124.07
  Q 18.47 124.27 17.78 123.59
  Q 17.35 123.16 17.04 123.68
  Q 16.87 123.96 16.56 124.09
  A 0.73 0.73 0.0 0 0 16.11 124.90
  Q 16.18 125.24 16.09 125.53
  A 0.85 0.83 8.3 0 1 15.28 126.12
  L 14.03 126.12
  Q 13.40 126.12 12.96 126.57
  Q 12.64 126.89 12.33 126.92
  Q 11.64 126.98 11.98 126.38
  L 12.95 124.66
  Q 12.98 124.60 13.05 124.61
  Q 13.26 124.65 13.43 124.61
  A 0.11 0.11 0.0 0 0 13.43 124.39
  Q 12.30 124.20 11.65 125.15
  Q 11.14 125.90 11.14 126.01
  Q 11.10 127.07 10.01 127.13
  Q 9.53 127.16 9.16 127.48
  Q 7.92 128.59 5.47 127.99
  Q 0.98 114.82 0.00 100.60
  L 0.00 91.54
  Q 1.37 68.37 12.86 48.05
  Z" fill="#2ea14e"></path>
<circle r="38.00" cy="96.00" cx="96.00" fill="#1a73e8"></circle>
<path d="M 45.35 104.21
  L 51.33 113.79
  C 66.37 149.05 111.46 154.48 134.97 124.30
  L 95.97 192.00
  L 90.79 192.00
  C 51.65 189.28 18.85 164.91 5.47 127.99
  Q 7.92 128.59 9.16 127.48
  Q 9.53 127.16 10.01 127.13
  Q 11.10 127.07 11.14 126.01
  Q 11.14 125.90 11.65 125.15
  Q 12.30 124.20 13.43 124.39
  A 0.11 0.11 0.0 0 1 13.43 124.61
  Q 13.26 124.65 13.05 124.61
  Q 12.98 124.60 12.95 124.66
  L 11.98 126.38
  Q 11.64 126.98 12.33 126.92
  Q 12.64 126.89 12.96 126.57
  Q 13.40 126.12 14.03 126.12
  L 15.28 126.12
  A 0.85 0.83 8.3 0 0 16.09 125.53
  Q 16.18 125.24 16.11 124.90
  A 0.73 0.73 0.0 0 1 16.56 124.09
  Q 16.87 123.96 17.04 123.68
  Q 17.35 123.16 17.78 123.59
  Q 18.47 124.27 19.48 124.07
  Q 19.87 123.99 20.00 123.73
  Q 20.27 123.16 19.67 122.97
  Q 18.83 122.71 19.16 121.72
  Q 19.28 121.36 19.57 121.12
  Q 20.18 120.63 20.30 119.82
  Q 20.39 119.19 20.62 119.78
  C 20.94 120.63 20.69 122.54 21.18 122.97
  Q 21.46 123.21 21.72 122.95
  L 23.10 121.54
  A 0.20 0.20 0.0 0 0 23.02 121.21
  Q 21.81 120.84 22.14 119.50
  Q 22.26 118.98 22.78 119.11
  Q 23.72 119.36 24.15 118.45
  Q 24.35 118.02 24.82 118.12
  Q 25.51 118.28 26.02 117.75
  Q 26.67 117.08 26.74 117.02
  Q 27.33 116.56 27.05 115.76
  Q 26.98 115.55 27.19 115.48
  L 27.60 115.35
  Q 27.74 115.31 27.73 115.45
  Q 27.61 116.98 29.04 117.17
  Q 29.59 117.24 29.91 116.79
  Q 30.70 115.69 31.83 114.97
  Q 32.45 114.58 31.88 114.13
  Q 31.27 113.64 30.43 113.58
  A 0.49 0.49 0.0 0 1 30.04 112.86
  L 30.17 112.61
  Q 30.28 112.40 30.49 112.30
  Q 31.67 111.74 31.92 112.56
  A 0.57 0.57 0.0 0 0 32.99 112.62
  Q 33.21 112.12 33.19 111.55
  A 0.42 0.42 0.0 0 1 33.61 111.12
  L 37.20 111.12
  Q 37.64 111.12 37.91 110.76
  Q 38.69 109.69 39.79 108.94
  Q 40.20 108.66 40.12 108.17
  Q 39.93 107.05 41.30 107.45
  Q 41.54 107.52 41.61 107.76
  L 42.22 109.79
  A 0.19 0.19 0.0 0 0 42.55 109.86
  L 43.49 108.71
  A 0.30 0.29 38.9 0 0 43.44 108.29
  Q 42.94 107.90 42.81 106.98
  C 42.60 105.54 44.13 104.48 45.35 104.21
  Z" fill="#229342"></path>
</svg>
