<svg viewBox="0.00 0.00 192.00 192.00" version="1.1" xmlns="http://www.w3.org/2000/svg">
<g stroke-linecap="butt" fill="none" stroke-width="2.00">
<path d="M 138.47 34.78
  L 138.46 75.61" stroke="#5fc0a5"></path>
<path d="M 138.46 75.61
  L 53.97 75.59" stroke="#6f6a9d"></path>
<path d="M 53.97 75.59
  Q 53.76 75.56 53.57 75.28" stroke="#5fc0a5"></path>
<path d="M 138.43 75.63
  Q 138.44 75.62 138.46 75.61" stroke="#106668"></path>
<path d="M 53.97 75.59
  Q 53.51 76.14 53.51 76.50
  Q 53.43 88.30 53.53 116.46" stroke="#106668"></path>
<path d="M 94.43 116.45
  L 53.53 116.46" stroke="#6f6a9d"></path>
</g>
<path d="M 138.47 34.78
  L 138.46 75.61
  L 53.97 75.59
  Q 53.76 75.56 53.57 75.28
  L 53.56 35.29
  Q 53.56 34.79 54.06 34.79
  L 138.47 34.78
  Z" fill="#bdc3d9"></path>
<path d="M 138.47 34.78
  L 178.73 34.77
  A 0.51 0.51 0.0 0 1 179.24 35.28
  L 179.25 75.22
  Q 179.25 75.65 178.81 75.65
  L 138.43 75.63
  Q 138.44 75.62 138.46 75.61
  L 138.47 34.78
  Z" fill="#00bc70"></path>
<path d="M 53.57 75.28
  Q 53.76 75.56 53.97 75.59
  Q 53.51 76.14 53.51 76.50
  Q 53.43 88.30 53.53 116.46
  L 13.71 116.47
  A 0.95 0.95 0.0 0 1 12.76 115.52
  L 12.76 76.47
  A 0.90 0.90 0.0 0 1 13.66 75.57
  L 53.57 75.28
  Z" fill="#00bc70"></path>
<path d="M 53.97 75.59
  L 138.46 75.61
  Q 138.44 75.62 138.43 75.63
  L 138.45 115.94
  Q 138.45 116.45 137.94 116.45
  L 94.43 116.45
  L 53.53 116.46
  Q 53.43 88.30 53.51 76.50
  Q 53.51 76.14 53.97 75.59
  Z" fill="#201060"></path>
<path d="M 94.43 116.45
  L 94.43 156.32
  A 0.90 0.90 0.0 0 1 93.53 157.22
  L 54.01 157.22
  Q 53.55 157.22 53.55 156.76
  L 53.53 116.46
  L 94.43 116.45
  Z" fill="#bdc3d9"></path>
</svg>
