<svg viewBox="0.00 0.00 180.00 180.00" version="1.1" xmlns="http://www.w3.org/2000/svg">
<g stroke-linecap="butt" fill="none" stroke-width="2.00">
<path d="M 64.22 100.33
  Q 70.05 103.83 75.98 106.96
  A 0.29 0.29 0.0 0 0 76.40 106.70
  L 75.57 74.49
  Q 75.56 73.91 76.06 73.60
  L 116.06 49.22
  Q 116.53 48.93 116.52 48.38
  L 115.60 11.99
  Q 115.58 11.09 114.81 11.56
  Q 75.01 35.84 34.92 60.18
  Q 30.50 62.86 29.01 64.80
  C 25.53 69.33 25.75 76.48 29.53 80.70
  Q 31.13 82.48 36.59 85.46
  Q 49.92 92.72 63.24 100.01
  Q 63.42 100.12 63.62 100.13
  Q 63.94 100.16 64.22 100.33" stroke="#939393"></path>
<path d="M 65.03 168.49
  C 91.82 152.36 118.60 136.19 145.15 119.72
  C 150.39 116.47 153.69 113.33 153.52 107.25
  Q 153.33 100.24 146.91 96.65
  Q 125.56 84.73 104.68 73.34
  Q 103.59 72.74 103.62 73.98
  L 104.44 105.47
  Q 104.45 106.05 103.95 106.35
  L 63.92 130.72
  Q 63.46 131.01 63.47 131.55
  L 64.50 168.21
  Q 64.52 168.80 65.03 168.49" stroke="#939393"></path>
</g>
<path d="M 0.00 0.00
  L 180.00 0.00
  L 180.00 180.00
  L 0.00 180.00
  L 0.00 0.00
  Z
  M 64.22 100.33
  Q 70.05 103.83 75.98 106.96
  A 0.29 0.29 0.0 0 0 76.40 106.70
  L 75.57 74.49
  Q 75.56 73.91 76.06 73.60
  L 116.06 49.22
  Q 116.53 48.93 116.52 48.38
  L 115.60 11.99
  Q 115.58 11.09 114.81 11.56
  Q 75.01 35.84 34.92 60.18
  Q 30.50 62.86 29.01 64.80
  C 25.53 69.33 25.75 76.48 29.53 80.70
  Q 31.13 82.48 36.59 85.46
  Q 49.92 92.72 63.24 100.01
  Q 63.42 100.12 63.62 100.13
  Q 63.94 100.16 64.22 100.33
  Z
  M 65.03 168.49
  C 91.82 152.36 118.60 136.19 145.15 119.72
  C 150.39 116.47 153.69 113.33 153.52 107.25
  Q 153.33 100.24 146.91 96.65
  Q 125.56 84.73 104.68 73.34
  Q 103.59 72.74 103.62 73.98
  L 104.44 105.47
  Q 104.45 106.05 103.95 106.35
  L 63.92 130.72
  Q 63.46 131.01 63.47 131.55
  L 64.50 168.21
  Q 64.52 168.80 65.03 168.49
  Z" fill="#ffffff"></path>
<path d="M 63.62 100.13
  Q 63.42 100.12 63.24 100.01
  Q 49.92 92.72 36.59 85.46
  Q 31.13 82.48 29.53 80.70
  C 25.75 76.48 25.53 69.33 29.01 64.80
  Q 30.50 62.86 34.92 60.18
  Q 75.01 35.84 114.81 11.56
  Q 115.58 11.09 115.60 11.99
  L 116.52 48.38
  Q 116.53 48.93 116.06 49.22
  L 76.06 73.60
  Q 75.56 73.91 75.57 74.49
  L 76.40 106.70
  A 0.29 0.29 0.0 0 1 75.98 106.96
  Q 70.05 103.83 64.22 100.33
  Q 63.94 100.16 63.62 100.13
  Z" fill="#262626"></path>
<path d="M 145.15 119.72
  C 118.60 136.19 91.82 152.36 65.03 168.49
  Q 64.52 168.80 64.50 168.21
  L 63.47 131.55
  Q 63.46 131.01 63.92 130.72
  L 103.95 106.35
  Q 104.45 106.05 104.44 105.47
  L 103.62 73.98
  Q 103.59 72.74 104.68 73.34
  Q 125.56 84.73 146.91 96.65
  Q 153.33 100.24 153.52 107.25
  C 153.69 113.33 150.39 116.47 145.15 119.72
  Z" fill="#262626"></path>
</svg>
