<svg viewBox="0.00 0.00 180.00 180.00" version="1.1" xmlns="http://www.w3.org/2000/svg">
<path d="M 80.38 38.02
  Q 81.05 38.45 81.54 39.08
  A 1.02 1.00 -62.5 0 1 81.76 39.79
  L 81.49 43.92
  A 0.81 0.80 -6.4 0 1 80.92 44.63
  L 79.75 44.98
  A 0.61 0.60 77.7 0 1 78.98 44.48
  Q 78.52 41.13 79.57 37.96
  Q 79.75 37.39 79.49 36.86
  C 78.60 35.04 81.35 32.20 82.85 31.06
  C 84.39 29.89 86.75 30.22 86.72 27.16
  A 1.79 1.78 88.7 0 1 88.43 25.36
  L 88.76 25.34
  A 1.74 1.74 0.0 0 1 90.57 27.00
  L 90.65 28.98
  A 0.75 0.74 5.3 0 0 91.22 29.66
  Q 96.00 30.73 98.05 35.27
  Q 98.49 36.26 97.91 37.08
  Q 97.63 37.48 97.73 37.95
  Q 98.42 41.13 97.99 44.38
  Q 97.91 44.92 97.39 45.05
  Q 96.35 45.31 95.82 44.39
  Q 95.37 43.58 95.86 42.47
  A 1.09 1.07 -49.0 0 0 95.80 41.49
  Q 94.60 39.48 96.45 38.40
  Q 98.08 37.44 96.22 37.12
  Q 88.33 35.79 80.50 37.38
  Q 79.66 37.55 80.38 38.02
  Z" fill="#000000"></path>
<path d="M 180.00 29.04
  L 180.00 52.04
  L 108.40 42.82
  A 0.63 0.63 0.0 0 1 107.85 42.27
  Q 107.61 40.30 108.21 38.41
  Q 108.38 37.87 108.94 37.80
  L 180.00 29.04
  Z" fill="#000000"></path>
<path d="M 91.10 38.37
  Q 91.62 37.80 92.34 37.51
  A 1.93 1.93 0.0 0 1 94.88 39.96
  Q 94.32 41.54 94.72 43.16
  A 1.02 1.01 -17.9 0 1 94.11 44.34
  Q 92.52 44.97 91.52 43.68
  A 1.03 1.02 34.6 0 1 91.35 42.78
  Q 91.80 41.24 91.18 39.74
  Q 90.90 39.04 90.69 39.77
  Q 90.23 41.38 90.68 43.02
  A 0.72 0.71 66.8 0 1 90.36 43.83
  Q 88.63 44.91 86.50 43.89
  Q 85.71 43.51 85.07 44.11
  Q 84.72 44.45 84.24 44.52
  Q 83.52 44.62 82.91 44.27
  Q 82.42 43.98 82.49 43.42
  Q 82.76 41.39 82.02 39.49
  A 1.54 1.53 80.9 0 1 83.53 37.40
  Q 84.66 37.46 85.28 38.11
  Q 85.63 38.49 85.55 38.99
  Q 85.26 40.82 85.57 42.64
  A 0.30 0.30 0.0 0 0 86.14 42.70
  Q 86.73 41.24 86.22 39.71
  A 1.75 1.75 0.0 0 1 87.53 37.43
  Q 89.25 37.08 90.65 38.39
  Q 90.89 38.61 91.10 38.37
  Z" fill="#000000"></path>
<path d="M 103.47 57.72
  Q 88.47 54.79 73.50 57.78
  Q 71.92 58.09 71.78 56.49
  L 71.53 53.76
  Q 71.39 52.14 72.99 51.85
  Q 88.49 49.05 104.00 51.76
  Q 105.89 52.10 105.77 54.02
  L 105.64 56.05
  Q 105.51 58.12 103.47 57.72
  Z" fill="#000000"></path>
<path d="M 100.57 62.16
  L 103.09 98.38
  A 1.05 1.05 0.0 0 1 101.89 99.50
  Q 88.76 97.66 75.65 99.53
  A 1.27 1.26 -2.2 0 1 74.20 98.20
  Q 75.31 81.01 76.73 64.08
  Q 76.81 63.12 76.60 62.43
  Q 76.27 61.37 75.73 60.98
  Q 73.61 59.42 76.22 59.09
  Q 88.60 57.54 101.71 59.05
  Q 102.64 59.16 102.59 60.14
  Q 102.56 60.54 102.21 60.73
  L 101.00 61.37
  Q 100.53 61.62 100.57 62.16
  Z
  M 91.4958 84.2953
  A 1.23 1.23 0.0 0 0 90.2680 83.0631
  L 86.7080 83.0569
  A 1.23 1.23 0.0 0 0 85.4759 84.2848
  L 85.4642 90.9847
  A 1.23 1.23 0.0 0 0 86.6920 92.2169
  L 90.2520 92.2231
  A 1.23 1.23 0.0 0 0 91.4841 90.9952
  L 91.4958 84.2953
  Z" fill="#000000"></path>
<path d="M 180.00 76.06
  L 180.00 98.60
  L 109.01 89.23
  A 1.42 1.42 0.0 0 1 107.77 87.87
  Q 107.72 86.32 108.22 84.88
  Q 108.41 84.34 108.98 84.27
  L 179.07 75.40
  Q 179.49 75.34 179.74 75.69
  L 180.00 76.06
  Z" fill="#000000"></path>
<path d="M 75.24 100.70
  C 83.99 99.32 93.56 99.69 102.08 100.84
  Q 103.12 100.98 103.21 102.03
  L 104.08 112.51
  A 0.99 0.99 0.0 0 1 102.98 113.57
  C 93.46 112.58 84.32 112.09 74.78 113.63
  A 1.36 1.35 -2.7 0 1 73.21 112.21
  L 73.82 102.27
  A 1.70 1.69 -3.0 0 1 75.24 100.70
  Z" fill="#000000"></path>
<path d="M 95.39 135.80
  Q 95.38 134.98 94.56 134.99
  L 90.49 135.01
  A 0.75 0.75 0.0 0 0 89.74 135.76
  L 89.74 146.74
  A 0.78 0.78 0.0 0 0 90.61 147.51
  C 93.60 147.14 96.23 145.82 99.03 146.14
  Q 102.24 146.50 105.44 146.88
  Q 105.96 146.94 106.21 147.41
  Q 107.08 149.10 108.49 148.82
  Q 118.73 146.85 126.70 151.31
  C 130.16 153.23 131.19 154.43 135.34 154.49
  Q 138.87 154.54 142.83 154.75
  A 0.62 0.62 0.0 0 1 143.41 155.24
  L 143.49 155.63
  A 0.52 0.52 0.0 0 1 142.98 156.26
  L 33.16 156.29
  A 0.31 0.31 0.0 0 1 32.85 155.98
  L 32.86 155.65
  Q 32.86 155.03 33.49 155.01
  C 37.50 154.89 43.19 155.61 46.66 153.83
  C 48.56 152.87 50.32 151.46 52.20 150.85
  C 55.69 149.73 58.95 149.72 62.45 150.83
  C 65.70 151.87 67.01 151.44 69.80 149.71
  Q 70.28 149.40 70.54 148.90
  L 71.44 147.16
  A 0.76 0.74 11.0 0 1 72.06 146.75
  L 80.17 146.21
  A 1.08 1.06 -22.8 0 1 81.05 146.56
  L 81.93 147.52
  A 1.14 1.13 64.0 0 0 82.93 147.87
  L 86.77 147.30
  A 1.07 1.07 0.0 0 0 87.68 146.24
  L 87.69 136.21
  Q 87.69 134.98 86.46 134.99
  L 82.93 135.01
  Q 81.63 135.02 81.62 136.32
  L 81.56 143.64
  Q 81.55 145.09 80.10 145.15
  L 72.40 145.45
  A 1.22 1.22 0.0 0 1 71.13 144.15
  L 72.86 116.41
  A 1.72 1.71 88.4 0 1 74.36 114.81
  Q 88.67 113.10 102.98 114.79
  Q 103.43 114.84 103.66 115.23
  Q 104.51 116.68 104.58 117.99
  Q 105.19 130.94 106.48 143.80
  A 1.37 1.37 0.0 0 1 105.06 145.31
  L 97.68 144.99
  A 2.34 2.33 1.0 0 1 95.45 142.68
  L 95.39 135.80
  Z
  M 82.45 132.99
  L 94.39 132.95
  A 0.01 0.01 0.0 0 0 94.40 132.94
  L 94.40 132.89
  A 5.79 4.82 -0.2 0 0 88.59 128.09
  L 88.21 128.09
  A 5.79 4.82 -0.2 0 0 82.44 132.93
  L 82.44 132.98
  A 0.01 0.01 0.0 0 0 82.45 132.99
  Z" fill="#000000"></path>
</svg>
