<svg viewBox="0.00 0.00 256.00 256.00" version="1.1" xmlns="http://www.w3.org/2000/svg">
<g stroke-linecap="butt" fill="none" stroke-width="2.00">
<path d="M 158.02 24.73
  L 157.78 26.25
  A 0.24 0.24 0.0 0 1 157.39 26.39
  Q 157.18 26.21 157.15 26.12
  Q 156.97 25.52 156.49 25.65
  Q 156.23 25.72 156.03 25.97
  Q 155.77 26.28 155.38 26.34
  C 153.44 26.64 153.04 28.33 152.11 29.27
  Q 150.11 31.30 148.07 33.29
  Q 147.88 33.47 147.89 33.73
  Q 147.89 33.93 147.85 34.14
  Q 147.76 34.61 147.42 34.95
  L 142.05 40.33
  Q 141.88 40.49 141.89 40.73
  Q 141.89 40.92 141.85 41.12
  Q 141.77 41.61 141.41 41.96
  L 138.04 45.33
  Q 137.88 45.49 137.89 45.71
  Q 137.89 45.90 137.86 46.08
  Q 137.78 46.57 137.44 46.92
  L 134.18 50.22
  Q 133.89 50.53 133.89 50.95
  L 133.89 51.47
  Q 133.89 52.01 133.35 51.91
  Q 132.83 51.80 132.36 51.96
  A 0.72 0.72 0.0 0 0 131.88 52.68
  Q 131.89 52.82 131.88 52.95
  Q 131.85 53.46 131.49 53.83
  L 128.04 57.44
  Q 127.88 57.61 127.88 57.85
  Q 127.89 58.04 127.88 58.22
  Q 127.87 58.55 127.64 58.78
  C 126.41 59.95 123.35 62.51 122.95 64.08
  Q 122.83 64.55 122.49 64.90
  L 117.99 69.54
  Q 117.89 69.64 117.89 69.79
  L 117.89 70.25
  Q 117.89 70.51 117.70 70.69
  L 114.31 74.08
  Q 114.00 74.38 113.94 74.81
  Q 113.79 75.92 112.79 76.65
  Q 112.40 76.94 111.91 76.88
  Q 111.27 76.81 110.96 77.35
  Q 110.89 77.48 110.88 77.67
  Q 110.88 77.90 110.89 78.13
  Q 110.90 78.52 110.62 78.79
  L 107.04 82.31
  Q 106.88 82.47 106.89 82.70
  Q 106.89 82.91 106.85 83.12
  Q 106.77 83.61 106.41 83.96
  L 103.04 87.33
  Q 102.88 87.49 102.89 87.71
  Q 102.89 87.92 102.85 88.12
  Q 102.77 88.59 102.44 88.93
  L 97.29 94.11
  Q 96.98 94.42 96.95 94.86
  Q 96.88 95.90 95.93 96.53
  Q 94.23 97.64 93.70 99.53
  Q 93.59 99.89 93.22 99.89
  L 92.52 99.89
  A 0.58 0.58 0.0 0 0 91.94 100.46
  Q 91.92 101.97 90.57 102.84
  Q 90.24 103.05 90.05 103.39
  Q 89.54 104.28 88.54 104.13
  Q 88.42 104.11 88.47 104.00
  Q 88.53 103.88 88.59 103.75
  A 0.12 0.04 5.8 0 0 88.46 103.69
  Q 84.60 103.42 82.43 105.10" stroke="#036c89"></path>
<path d="M 82.43 105.10
  Q 62.43 103.84 46.03 116.57
  Q 33.55 126.25 29.09 141.57
  Q 28.06 145.13 27.01 148.82" stroke="#069a95"></path>
<path d="M 27.05 91.03
  L 27.27 95.90
  Q 27.27 96.01 27.35 96.06
  Q 27.40 96.08 27.44 96.10
  Q 27.63 96.16 27.63 96.31
  Q 27.63 101.53 27.59 106.75
  Q 27.59 107.07 27.75 107.24
  Q 27.95 107.46 27.96 107.75
  L 28.11 110.72
  Q 28.14 111.35 28.77 111.34
  Q 29.10 111.34 29.49 111.33
  Q 29.60 111.32 29.60 111.37
  Q 29.60 111.52 29.70 111.62
  Q 30.10 112.00 30.29 111.48
  L 30.99 109.48
  A 2.35 2.28 -15.8 0 1 31.40 108.77
  L 36.07 103.55
  Q 36.13 103.48 36.12 103.39
  Q 36.11 103.20 36.13 103.01
  Q 36.20 102.52 36.54 102.16
  L 39.82 98.76
  Q 40.12 98.45 40.12 98.03
  L 40.12 97.70
  Q 40.12 97.30 40.51 97.24
  Q 42.71 96.89 43.30 94.66
  Q 43.41 94.22 43.73 93.90
  L 46.96 90.67
  Q 47.12 90.51 47.12 90.28
  Q 47.12 90.06 47.16 89.84
  Q 47.25 89.38 47.59 89.04
  L 51.96 84.67
  Q 52.12 84.51 52.12 84.28
  Q 52.12 84.06 52.16 83.84
  Q 52.25 83.38 52.58 83.04
  L 56.96 78.67
  Q 57.12 78.51 57.12 78.28
  Q 57.12 78.08 57.15 77.88
  Q 57.24 77.41 57.57 77.07
  L 59.93 74.69
  A 0.68 0.64 68.7 0 0 60.12 74.22
  L 60.12 73.78
  Q 60.12 73.31 60.58 73.23
  Q 62.72 72.85 63.30 70.67
  Q 63.41 70.23 63.73 69.91
  L 65.97 67.67
  Q 66.13 67.51 66.12 67.29
  Q 66.12 67.06 66.16 66.83
  Q 66.25 66.37 66.58 66.05
  L 73.95 58.68
  Q 74.12 58.51 74.12 58.26
  Q 74.12 58.08 74.15 57.89
  Q 74.24 57.39 74.60 57.04
  L 76.97 54.67
  Q 77.13 54.52 77.12 54.30
  Q 77.12 54.06 77.16 53.83
  Q 77.25 53.37 77.58 53.05
  L 83.95 46.68
  Q 84.12 46.51 84.12 46.27
  Q 84.12 46.07 84.16 45.86
  Q 84.25 45.39 84.59 45.04
  L 87.96 41.67
  Q 88.12 41.51 88.12 41.28
  Q 88.12 41.07 88.16 40.86
  Q 88.24 40.40 88.57 40.07
  L 93.69 34.92
  Q 93.95 34.65 94.00 34.27
  Q 94.20 32.79 95.61 32.14
  Q 96.00 31.96 96.06 31.54
  C 96.21 30.56 98.25 29.93 99.04 28.96
  Q 99.31 28.64 99.71 28.50
  Q 101.19 28.00 102.31 26.85
  Q 102.63 26.53 103.00 26.29
  Q 103.85 25.73 104.38 24.83
  Q 104.54 24.55 104.84 24.41
  L 105.92 23.93
  Q 106.27 23.77 106.50 23.46
  Q 106.80 23.06 107.39 23.05
  A 0.99 0.98 21.8 0 0 108.10 22.75
  Q 108.78 22.09 109.69 21.86
  Q 110.11 21.75 110.41 21.43
  Q 111.10 20.69 112.06 20.89
  Q 112.29 20.93 112.29 20.70
  L 112.29 20.27
  A 0.38 0.38 0.0 0 0 111.89 19.89
  L 109.78 19.96" stroke="#02768f"></path>
<path d="M 190.49 43.46
  Q 190.39 43.85 189.92 44.21
  Q 189.57 44.48 189.89 44.80
  L 190.15 45.06
  Q 190.50 45.42 190.00 45.45
  Q 187.75 45.59 186.28 47.05
  Q 185.90 47.42 185.88 47.99
  Q 185.85 48.52 185.49 48.88
  L 181.04 53.33
  Q 180.88 53.49 180.88 53.72
  Q 180.88 53.94 180.84 54.16
  Q 180.75 54.62 180.41 54.96
  L 176.04 59.33
  Q 175.88 59.49 175.88 59.72
  Q 175.88 59.91 175.85 60.10
  Q 175.77 60.58 175.43 60.92
  L 172.18 64.22
  Q 171.88 64.53 171.88 64.96
  L 171.88 65.30
  Q 171.88 65.70 171.49 65.76
  Q 169.29 66.11 168.70 68.34
  Q 168.59 68.78 168.27 69.10
  L 165.04 72.33
  Q 164.88 72.49 164.88 72.72
  Q 164.88 72.88 164.86 73.03
  Q 164.79 73.51 164.47 73.86
  L 160.98 77.57
  Q 160.88 77.68 160.88 77.82
  L 160.88 78.21
  Q 160.88 78.47 160.70 78.65
  L 154.98 84.55
  Q 154.88 84.65 154.88 84.80
  L 154.88 85.30
  A 0.62 0.60 -23.0 0 1 154.70 85.73
  L 148.98 91.56
  Q 148.88 91.65 148.88 91.79
  Q 148.87 92.28 148.68 92.70
  A 0.16 0.08 -26.6 0 1 148.65 92.74
  L 145.04 96.32
  Q 144.87 96.48 144.88 96.71
  Q 144.88 96.92 144.84 97.13
  Q 144.76 97.59 144.43 97.92
  L 140.18 102.21
  Q 139.88 102.52 139.88 102.95
  L 139.88 103.48
  Q 139.88 104.01 139.36 103.90
  Q 138.76 103.77 138.21 104.02
  Q 137.88 104.16 137.88 104.52
  L 137.88 104.97
  Q 137.88 105.49 137.51 105.85
  L 135.03 108.33
  Q 134.87 108.48 134.88 108.70
  Q 134.88 108.91 134.85 109.12
  Q 134.76 109.59 134.43 109.93
  L 132.07 112.31
  A 0.68 0.64 68.7 0 0 131.88 112.78
  L 131.88 113.22
  Q 131.88 113.69 131.42 113.77
  Q 129.31 114.14 128.72 116.27
  Q 128.58 116.77 128.21 117.14
  L 125.19 120.19
  A 1.36 0.81 79.3 0 0 124.89 121.00
  Q 124.88 121.16 124.91 121.34
  A 0.54 0.53 -83.9 0 1 124.18 121.93
  Q 121.16 120.69 120.57 121.81" stroke="#046283"></path>
<path d="M 120.57 121.81
  C 108.32 114.63 100.21 108.60 89.11 106.19" stroke="#079990"></path>
<path d="M 89.11 106.19
  L 82.43 105.10" stroke="#069492"></path>
<path d="M 89.11 106.19
  Q 88.95 106.65 88.60 107.03
  Q 88.42 107.23 88.45 107.50
  Q 88.51 107.96 88.73 108.23
  Q 89.06 108.65 88.56 108.84
  Q 88.03 109.04 88.11 109.75
  Q 88.22 110.78 87.47 111.14
  A 0.62 0.61 -13.3 0 0 87.12 111.69
  L 87.12 112.18
  Q 87.12 112.53 86.87 112.77
  L 84.31 115.29
  Q 84.12 115.47 84.12 115.74
  L 84.12 116.09
  Q 84.12 116.52 83.81 116.82
  L 82.31 118.28
  Q 82.12 118.47 82.12 118.73
  L 82.12 119.07
  Q 82.12 119.50 81.81 119.81
  L 79.30 122.30
  Q 79.12 122.49 79.12 122.75
  L 79.12 123.09
  Q 79.12 123.52 78.81 123.82
  L 77.31 125.28
  Q 77.12 125.47 77.12 125.73
  L 77.12 126.09
  Q 77.12 126.52 76.81 126.82
  L 75.31 128.28
  Q 75.12 128.47 75.12 128.73
  L 75.12 129.09
  Q 75.12 129.52 74.81 129.82
  L 73.31 131.28
  Q 73.12 131.47 73.12 131.73
  L 73.12 132.03
  Q 73.12 132.46 72.82 132.77
  L 70.48 135.19
  Q 70.12 135.55 70.12 136.06
  L 70.12 137.08
  A 1.06 1.05 68.2 0 1 69.80 137.84
  L 67.31 140.29
  Q 67.12 140.47 67.12 140.73
  L 67.12 141.03
  Q 67.12 141.46 66.82 141.76
  L 64.51 144.15
  Q 64.11 144.56 64.14 145.13
  Q 64.18 145.90 63.39 146.15
  Q 63.12 146.24 63.12 146.53
  L 63.12 147.07
  Q 63.12 147.50 62.81 147.81
  L 60.30 150.30
  Q 60.12 150.49 60.12 150.75
  L 60.12 151.09
  Q 60.12 151.52 59.81 151.82
  L 58.31 153.28
  Q 58.12 153.47 58.12 153.73
  L 58.12 154.09
  Q 58.12 154.52 57.81 154.82
  L 56.31 156.28
  Q 56.12 156.47 56.12 156.73
  L 56.12 157.03
  Q 56.12 157.46 55.82 157.76
  L 53.51 160.15
  Q 53.12 160.56 53.14 161.12
  Q 53.17 161.80 52.56 162.13
  Q 52.22 162.32 52.15 162.71
  Q 51.90 164.25 50.49 165.06
  Q 50.12 165.27 50.12 165.70
  L 50.12 166.07
  Q 50.12 166.50 49.81 166.81
  L 47.30 169.30
  Q 47.12 169.49 47.12 169.75
  L 47.12 170.09
  Q 47.12 170.52 46.81 170.82
  L 45.31 172.28
  Q 45.12 172.47 45.12 172.73
  L 45.12 173.09
  Q 45.12 173.52 44.81 173.82
  L 43.31 175.28
  Q 43.12 175.47 43.12 175.73
  L 43.12 176.04
  Q 43.12 176.47 42.82 176.77
  L 40.60 179.05
  Q 40.32 179.33 40.20 179.71
  Q 40.15 179.86 40.13 180.02
  Q 40.08 180.61 39.63 180.99
  Q 37.61 182.71 36.87 185.21
  Q 36.74 185.64 36.38 185.37
  Q 36.19 185.22 36.12 184.96
  Q 36.01 184.51 35.93 184.95
  L 35.72 186.00" stroke="#0ac79d"></path>
<path d="M 209.91 54.77
  Q 210.80 55.85 207.40 56.01
  A 1.34 1.33 20.2 0 0 206.52 56.41
  Q 205.17 57.81 203.63 58.95
  Q 203.34 59.16 203.24 59.41
  Q 203.11 59.71 203.10 60.04
  Q 203.08 60.54 202.73 60.89
  L 199.30 64.31
  Q 199.12 64.49 199.12 64.75
  L 199.12 65.07
  Q 199.12 65.50 198.81 65.80
  L 193.30 71.31
  Q 193.12 71.50 193.12 71.76
  L 193.12 72.07
  Q 193.12 72.50 192.81 72.80
  L 188.30 77.31
  Q 188.12 77.49 188.12 77.75
  L 188.12 78.07
  Q 188.12 78.50 187.81 78.80
  L 182.30 84.31
  Q 182.12 84.50 182.12 84.76
  L 182.12 85.07
  Q 182.12 85.50 181.81 85.81
  L 179.30 88.30
  Q 179.12 88.49 179.12 88.75
  L 179.12 89.05
  Q 179.12 89.48 178.82 89.79
  L 172.23 96.43
  Q 172.12 96.54 172.12 96.71
  L 172.12 97.07
  Q 172.12 97.50 171.81 97.81
  L 169.30 100.30
  Q 169.12 100.49 169.12 100.75
  L 169.12 101.05
  Q 169.12 101.47 168.82 101.78
  L 165.54 105.11
  Q 165.18 105.47 165.13 105.98
  Q 165.12 106.15 165.12 106.31
  Q 165.10 106.97 164.45 107.03
  Q 162.43 107.22 162.08 109.08
  Q 161.98 109.64 161.58 110.04
  L 159.30 112.30
  Q 159.12 112.49 159.12 112.75
  L 159.12 113.06
  Q 159.12 113.48 158.81 113.79
  L 153.50 119.14
  Q 153.09 119.54 153.14 120.12
  Q 153.17 120.47 152.99 120.74
  Q 152.73 121.12 152.27 121.12
  L 151.50 121.12
  A 0.38 0.38 0.0 0 0 151.12 121.50
  L 151.12 122.18
  Q 151.12 122.53 150.87 122.77
  L 148.30 125.29
  Q 148.12 125.47 148.12 125.74
  L 148.12 126.07
  Q 148.12 126.50 147.81 126.80
  L 144.01 130.61
  Q 143.71 130.90 143.56 131.30
  Q 143.39 131.72 143.37 132.21
  Q 143.34 132.85 142.71 132.80
  Q 141.08 132.70 139.89 131.54
  Q 139.54 131.20 139.06 131.31
  Q 138.35 131.47 138.11 130.67
  Q 137.96 130.20 137.48 130.12
  Q 136.61 129.96 136.16 130.86" stroke="#055a7e"></path>
<path d="M 136.16 130.86
  Q 135.36 130.56 136.05 130.90" stroke="#079a8d"></path>
<path d="M 136.05 130.90
  L 120.57 121.81" stroke="#07958e"></path>
<path d="M 136.05 130.90
  Q 133.83 130.58 133.21 131.19
  Q 132.54 131.86 132.49 131.88
  Q 131.83 132.15 131.86 132.86
  Q 131.88 133.45 131.46 133.88
  L 130.04 135.34
  Q 129.88 135.50 129.88 135.73
  Q 129.88 136.00 129.82 136.25
  Q 129.71 136.68 129.39 136.99
  L 128.04 138.30
  Q 127.87 138.47 127.88 138.70
  Q 127.88 138.88 127.86 139.06
  Q 127.78 139.55 127.44 139.90
  L 125.18 142.23
  Q 124.88 142.54 124.88 142.97
  L 124.88 143.23
  Q 124.88 143.61 124.55 143.79
  Q 123.80 144.20 123.85 144.88
  Q 123.90 145.47 123.49 145.88
  L 121.03 148.33
  Q 120.87 148.48 120.88 148.70
  Q 120.89 148.98 120.82 149.25
  Q 120.71 149.68 120.39 149.99
  L 119.09 151.26
  Q 118.88 151.46 118.88 151.76
  Q 118.88 152.01 118.82 152.25
  Q 118.71 152.68 118.39 152.99
  L 117.04 154.30
  Q 116.87 154.47 116.88 154.70
  Q 116.88 154.91 116.85 155.11
  Q 116.76 155.61 116.40 155.96
  L 114.03 158.33
  Q 113.87 158.48 113.88 158.70
  Q 113.88 158.88 113.86 159.06
  Q 113.78 159.55 113.44 159.90
  L 111.18 162.24
  Q 110.88 162.54 110.88 162.97
  L 110.88 163.97
  Q 110.88 164.49 110.51 164.85
  L 108.03 167.33
  Q 107.87 167.48 107.88 167.70
  Q 107.89 167.98 107.82 168.25
  Q 107.71 168.68 107.39 168.99
  L 106.09 170.26
  Q 105.88 170.46 105.88 170.76
  Q 105.88 171.01 105.82 171.25
  Q 105.71 171.68 105.39 171.99
  L 104.04 173.30
  Q 103.87 173.47 103.88 173.70
  Q 103.88 173.88 103.86 174.06
  Q 103.78 174.55 103.44 174.90
  L 101.18 177.24
  Q 100.88 177.54 100.88 177.97
  L 100.88 178.23
  Q 100.88 178.61 100.55 178.79
  Q 99.80 179.20 99.85 179.88
  Q 99.90 180.47 99.49 180.88
  L 97.03 183.33
  Q 96.87 183.48 96.88 183.70
  Q 96.89 183.98 96.82 184.25
  Q 96.71 184.68 96.39 184.99
  L 95.09 186.26
  Q 94.88 186.46 94.88 186.76
  Q 94.88 187.01 94.82 187.25
  Q 94.71 187.68 94.39 187.99
  L 93.09 189.26
  Q 92.88 189.46 92.88 189.76
  Q 92.88 190.01 92.82 190.25
  Q 92.71 190.68 92.39 190.99
  L 91.04 192.30
  Q 90.87 192.47 90.88 192.70
  Q 90.88 192.91 90.85 193.11
  Q 90.76 193.61 90.40 193.96
  L 88.03 196.33
  Q 87.87 196.48 87.88 196.70
  Q 87.89 196.98 87.82 197.25
  Q 87.71 197.68 87.39 197.99
  L 86.09 199.26
  Q 85.88 199.46 85.88 199.76
  Q 85.88 200.01 85.82 200.25
  Q 85.71 200.68 85.39 200.99
  L 84.04 202.30
  Q 83.87 202.47 83.88 202.70
  Q 83.88 202.90 83.85 203.09
  Q 83.77 203.58 83.42 203.93
  L 81.15 206.23
  Q 80.79 206.60 80.90 207.09
  Q 81.05 207.76 80.38 207.93
  Q 79.86 208.07 79.90 208.61
  Q 79.99 209.92 78.88 210.63
  Q 78.36 210.96 78.51 211.55
  Q 78.96 213.29 79.50 215.00
  Q 78.87 215.44 80.02 216.67
  A 0.20 0.20 0.0 0 0 80.36 216.48
  Q 80.32 216.30 80.52 216.38
  Q 80.71 216.45 80.73 216.65
  Q 80.79 217.27 81.39 217.79" stroke="#0ad19a"></path>
<path d="M 229.69 80.40
  Q 228.69 80.89 229.08 81.87
  Q 229.19 82.12 229.22 82.40
  Q 229.30 83.10 229.40 83.72
  Q 229.46 84.07 229.13 83.93
  Q 228.88 83.82 228.61 83.87
  C 228.32 83.92 225.83 86.66 225.18 87.13
  A 0.73 0.73 0.0 0 0 224.88 87.72
  Q 224.88 87.93 224.84 88.14
  Q 224.76 88.61 224.42 88.95
  L 219.04 94.33
  Q 218.88 94.49 218.88 94.73
  Q 218.88 94.93 218.84 95.12
  Q 218.76 95.59 218.43 95.93
  L 216.07 98.31
  A 0.68 0.64 68.7 0 0 215.88 98.78
  L 215.88 99.22
  Q 215.88 99.69 215.42 99.77
  Q 213.27 100.15 212.70 102.35
  Q 212.59 102.78 212.27 103.10
  L 208.04 107.33
  Q 207.88 107.49 207.88 107.73
  Q 207.88 107.93 207.84 108.14
  Q 207.75 108.62 207.41 108.96
  L 204.04 112.33
  Q 203.88 112.49 203.88 112.72
  Q 203.88 112.94 203.84 113.16
  Q 203.75 113.62 203.41 113.96
  L 199.04 118.33
  Q 198.88 118.49 198.88 118.72
  Q 198.88 118.92 198.84 119.12
  Q 198.76 119.59 198.43 119.93
  L 196.07 122.31
  A 0.68 0.64 68.7 0 0 195.88 122.78
  L 195.88 123.23
  Q 195.88 123.70 195.41 123.78
  Q 193.25 124.14 192.82 126.24
  Q 192.73 126.69 192.40 127.01
  L 188.04 131.32
  Q 187.87 131.48 187.88 131.71
  Q 187.88 131.91 187.85 132.10
  Q 187.77 132.58 187.43 132.92
  L 184.18 136.22
  Q 183.88 136.53 183.88 136.96
  L 183.88 137.48
  Q 183.88 138.01 183.36 137.90
  Q 182.75 137.77 182.21 138.02
  Q 181.88 138.16 181.88 138.52
  L 181.88 138.95
  Q 181.88 139.47 181.52 139.83
  L 179.07 142.31
  A 0.68 0.64 68.7 0 0 178.88 142.78
  L 178.88 143.37
  Q 178.88 143.88 178.37 143.88
  L 177.53 143.88
  A 0.64 0.64 0.0 0 0 176.90 144.41
  Q 176.78 145.08 176.98 145.70
  Q 177.11 146.12 177.55 146.12
  L 178.85 146.12
  Q 179.24 146.12 178.97 146.40
  Q 178.82 146.57 178.51 146.61
  Q 173.43 147.42 169.07 146.10
  Q 168.35 145.88 167.89 146.01
  Q 166.96 146.26 167.11 147.10" stroke="#065279"></path>
<path d="M 167.11 147.10
  Q 161.39 145.58 155.81 142.31" stroke="#089b89"></path>
<path d="M 155.81 142.31
  L 136.16 130.86" stroke="#08968a"></path>
<path d="M 155.81 142.31
  L 153.40 145.34
  Q 153.13 145.68 153.15 146.11
  Q 153.25 148.05 151.51 149.03
  Q 151.12 149.25 151.12 149.70
  L 151.11 150.09
  Q 151.11 150.52 150.80 150.82
  L 149.30 152.28
  Q 149.11 152.47 149.11 152.73
  L 149.11 153.04
  Q 149.11 153.46 148.82 153.76
  L 146.51 156.14
  Q 146.11 156.56 146.14 157.14
  Q 146.17 157.90 145.39 158.15
  Q 145.11 158.23 145.11 158.53
  L 145.11 159.08
  Q 145.11 159.50 144.81 159.81
  L 142.30 162.30
  Q 142.11 162.49 142.11 162.75
  L 142.11 163.04
  Q 142.11 163.46 141.82 163.76
  L 139.51 166.14
  Q 139.11 166.56 139.14 167.14
  Q 139.17 167.90 138.39 168.15
  Q 138.11 168.23 138.11 168.53
  L 138.11 169.04
  Q 138.11 169.46 137.82 169.76
  L 135.51 172.14
  Q 135.11 172.56 135.14 173.14
  Q 135.17 173.90 134.40 174.14
  Q 134.12 174.23 134.12 174.53
  L 134.11 175.08
  Q 134.11 175.51 133.81 175.81
  L 131.30 178.30
  Q 131.12 178.48 131.12 178.74
  L 131.11 179.04
  Q 131.11 179.47 130.82 179.77
  L 128.48 182.18
  Q 128.12 182.54 128.12 183.06
  L 128.11 184.22
  A 0.68 0.64 68.7 0 1 127.92 184.69
  L 124.52 188.12
  Q 124.11 188.53 124.13 189.12
  Q 124.17 189.79 123.56 190.13
  Q 123.21 190.32 123.15 190.71
  Q 122.89 192.25 121.49 193.06
  Q 121.12 193.27 121.12 193.70
  L 121.11 194.08
  Q 121.11 194.51 120.81 194.81
  L 118.30 197.30
  Q 118.12 197.48 118.12 197.74
  L 118.11 198.09
  Q 118.11 198.52 117.80 198.82
  L 116.17 200.41
  A 0.17 0.17 0.0 0 0 116.12 200.53
  L 116.11 201.09
  Q 116.10 201.57 115.76 201.89
  L 114.18 203.38
  A 0.21 0.19 -24.2 0 0 114.12 203.52
  L 114.11 204.10
  Q 114.11 204.52 113.80 204.82
  L 112.30 206.28
  Q 112.11 206.47 112.11 206.73
  L 112.11 207.09
  Q 112.11 207.52 111.80 207.82
  L 110.30 209.28
  Q 110.11 209.47 110.11 209.73
  L 110.11 210.08
  Q 110.11 210.50 109.81 210.80
  L 107.30 213.30
  Q 107.12 213.48 107.12 213.74
  L 107.11 214.04
  Q 107.11 214.46 106.82 214.77
  L 104.51 217.14
  Q 104.11 217.55 104.14 218.13
  Q 104.17 218.61 103.85 218.91
  Q 103.63 219.12 103.32 219.12
  L 102.73 219.12
  Q 102.24 219.12 102.17 219.61
  Q 101.95 221.24 100.43 222.11
  Q 100.05 222.33 100.05 222.77
  Q 100.07 224.09 99.00 224.11
  Q 95.63 224.15 92.25 224.10" stroke="#0bdb98"></path>
<path d="M 232.11 104.54
  Q 230.01 116.43 225.21 124.23
  Q 215.26 140.41 195.90 146.72" stroke="#099b85"></path>
<path d="M 195.90 146.72
  Q 181.52 151.40 167.11 147.10" stroke="#099787"></path>
<path d="M 140.80 236.89
  L 140.18 236.63
  Q 139.71 236.43 139.82 235.92
  L 139.93 235.40
  Q 140.03 234.93 140.50 234.88
  Q 140.68 234.86 140.87 234.86
  Q 140.93 234.86 140.88 234.83
  Q 140.75 234.77 140.67 234.61
  Q 140.62 234.50 140.67 234.39
  Q 140.73 234.27 140.84 234.18
  Q 140.86 234.15 140.83 234.15
  Q 140.25 234.04 139.87 233.60
  Q 139.49 233.17 139.87 232.74
  Q 140.17 232.39 140.46 232.40
  Q 140.83 232.42 141.03 232.11
  Q 141.75 230.89 141.95 229.56
  A 0.87 0.86 -11.1 0 1 142.37 228.94
  Q 143.79 228.12 143.97 226.65
  Q 144.04 226.13 144.49 225.87
  Q 145.84 225.07 145.93 223.64
  Q 145.96 223.17 146.37 222.94
  Q 147.64 222.20 147.95 220.96
  Q 148.10 220.37 148.51 219.93
  L 150.51 217.81
  Q 150.89 217.41 150.87 216.85
  Q 150.83 216.10 151.61 215.86
  Q 151.89 215.77 151.89 215.47
  L 151.89 214.92
  Q 151.89 214.50 152.19 214.19
  L 154.70 211.70
  Q 154.89 211.51 154.89 211.25
  L 154.89 210.91
  Q 154.89 210.48 155.20 210.18
  L 156.70 208.72
  Q 156.89 208.53 156.89 208.27
  L 156.89 207.91
  Q 156.89 207.48 157.20 207.18
  L 158.70 205.72
  Q 158.89 205.53 158.89 205.27
  L 158.89 204.92
  Q 158.89 204.50 159.19 204.19
  L 161.70 201.70
  Q 161.89 201.51 161.89 201.25
  L 161.89 200.78
  A 0.70 0.69 67.2 0 1 162.08 200.30
  L 163.52 198.83
  Q 163.90 198.43 163.87 197.89
  Q 163.81 197.10 164.61 196.85
  Q 164.89 196.77 164.89 196.47
  L 164.89 195.95
  Q 164.89 195.53 165.19 195.22
  L 168.52 191.83
  Q 168.89 191.46 168.89 190.94
  L 168.89 190.04
  A 1.30 1.30 0.0 0 1 169.27 189.12
  L 171.70 186.70
  Q 171.89 186.51 171.89 186.25
  L 171.89 185.91
  Q 171.89 185.48 172.20 185.18
  L 173.70 183.72
  Q 173.89 183.53 173.89 183.27
  L 173.89 182.91
  Q 173.89 182.48 174.20 182.18
  L 175.70 180.72
  Q 175.89 180.53 175.89 180.27
  L 175.89 179.92
  Q 175.89 179.50 176.19 179.20
  L 178.70 176.70
  Q 178.89 176.51 178.89 176.25
  L 178.89 175.91
  Q 178.89 175.48 179.20 175.18
  L 180.70 173.72
  Q 180.89 173.53 180.89 173.27
  L 180.89 172.91
  Q 180.89 172.48 181.20 172.18
  L 182.70 170.72
  Q 182.89 170.53 182.89 170.27
  L 182.89 169.96
  Q 182.89 169.54 183.18 169.24
  L 185.49 166.86
  Q 185.89 166.44 185.87 165.86
  Q 185.84 165.17 186.51 164.84
  Q 186.89 164.66 186.89 164.24
  L 186.89 163.58
  A 0.22 0.20 69.2 0 1 186.95 163.43
  L 190.17 160.22
  Q 190.50 159.89 190.96 159.89
  L 191.50 159.89
  Q 191.89 159.89 191.89 159.50
  L 191.89 156.68
  A 0.82 0.81 76.0 0 1 192.32 155.96
  Q 193.84 155.16 193.94 153.58
  Q 193.97 153.15 194.34 152.95
  Q 195.79 152.17 195.93 150.73
  Q 195.97 150.28 196.36 150.05
  Q 197.32 149.49 196.74 148.27
  Q 196.41 147.60 195.90 146.72" stroke="#0be495"></path>
</g>
<path d="M 158.02 24.73
  L 157.78 26.25
  A 0.24 0.24 0.0 0 1 157.39 26.39
  Q 157.18 26.21 157.15 26.12
  Q 156.97 25.52 156.49 25.65
  Q 156.23 25.72 156.03 25.97
  Q 155.77 26.28 155.38 26.34
  C 153.44 26.64 153.04 28.33 152.11 29.27
  Q 150.11 31.30 148.07 33.29
  Q 147.88 33.47 147.89 33.73
  Q 147.89 33.93 147.85 34.14
  Q 147.76 34.61 147.42 34.95
  L 142.05 40.33
  Q 141.88 40.49 141.89 40.73
  Q 141.89 40.92 141.85 41.12
  Q 141.77 41.61 141.41 41.96
  L 138.04 45.33
  Q 137.88 45.49 137.89 45.71
  Q 137.89 45.90 137.86 46.08
  Q 137.78 46.57 137.44 46.92
  L 134.18 50.22
  Q 133.89 50.53 133.89 50.95
  L 133.89 51.47
  Q 133.89 52.01 133.35 51.91
  Q 132.83 51.80 132.36 51.96
  A 0.72 0.72 0.0 0 0 131.88 52.68
  Q 131.89 52.82 131.88 52.95
  Q 131.85 53.46 131.49 53.83
  L 128.04 57.44
  Q 127.88 57.61 127.88 57.85
  Q 127.89 58.04 127.88 58.22
  Q 127.87 58.55 127.64 58.78
  C 126.41 59.95 123.35 62.51 122.95 64.08
  Q 122.83 64.55 122.49 64.90
  L 117.99 69.54
  Q 117.89 69.64 117.89 69.79
  L 117.89 70.25
  Q 117.89 70.51 117.70 70.69
  L 114.31 74.08
  Q 114.00 74.38 113.94 74.81
  Q 113.79 75.92 112.79 76.65
  Q 112.40 76.94 111.91 76.88
  Q 111.27 76.81 110.96 77.35
  Q 110.89 77.48 110.88 77.67
  Q 110.88 77.90 110.89 78.13
  Q 110.90 78.52 110.62 78.79
  L 107.04 82.31
  Q 106.88 82.47 106.89 82.70
  Q 106.89 82.91 106.85 83.12
  Q 106.77 83.61 106.41 83.96
  L 103.04 87.33
  Q 102.88 87.49 102.89 87.71
  Q 102.89 87.92 102.85 88.12
  Q 102.77 88.59 102.44 88.93
  L 97.29 94.11
  Q 96.98 94.42 96.95 94.86
  Q 96.88 95.90 95.93 96.53
  Q 94.23 97.64 93.70 99.53
  Q 93.59 99.89 93.22 99.89
  L 92.52 99.89
  A 0.58 0.58 0.0 0 0 91.94 100.46
  Q 91.92 101.97 90.57 102.84
  Q 90.24 103.05 90.05 103.39
  Q 89.54 104.28 88.54 104.13
  Q 88.42 104.11 88.47 104.00
  Q 88.53 103.88 88.59 103.75
  A 0.12 0.04 5.8 0 0 88.46 103.69
  Q 84.60 103.42 82.43 105.10
  Q 62.43 103.84 46.03 116.57
  Q 33.55 126.25 29.09 141.57
  Q 28.06 145.13 27.01 148.82
  L 27.05 91.03
  L 27.27 95.90
  Q 27.27 96.01 27.35 96.06
  Q 27.40 96.08 27.44 96.10
  Q 27.63 96.16 27.63 96.31
  Q 27.63 101.53 27.59 106.75
  Q 27.59 107.07 27.75 107.24
  Q 27.95 107.46 27.96 107.75
  L 28.11 110.72
  Q 28.14 111.35 28.77 111.34
  Q 29.10 111.34 29.49 111.33
  Q 29.60 111.32 29.60 111.37
  Q 29.60 111.52 29.70 111.62
  Q 30.10 112.00 30.29 111.48
  L 30.99 109.48
  A 2.35 2.28 -15.8 0 1 31.40 108.77
  L 36.07 103.55
  Q 36.13 103.48 36.12 103.39
  Q 36.11 103.20 36.13 103.01
  Q 36.20 102.52 36.54 102.16
  L 39.82 98.76
  Q 40.12 98.45 40.12 98.03
  L 40.12 97.70
  Q 40.12 97.30 40.51 97.24
  Q 42.71 96.89 43.30 94.66
  Q 43.41 94.22 43.73 93.90
  L 46.96 90.67
  Q 47.12 90.51 47.12 90.28
  Q 47.12 90.06 47.16 89.84
  Q 47.25 89.38 47.59 89.04
  L 51.96 84.67
  Q 52.12 84.51 52.12 84.28
  Q 52.12 84.06 52.16 83.84
  Q 52.25 83.38 52.58 83.04
  L 56.96 78.67
  Q 57.12 78.51 57.12 78.28
  Q 57.12 78.08 57.15 77.88
  Q 57.24 77.41 57.57 77.07
  L 59.93 74.69
  A 0.68 0.64 68.7 0 0 60.12 74.22
  L 60.12 73.78
  Q 60.12 73.31 60.58 73.23
  Q 62.72 72.85 63.30 70.67
  Q 63.41 70.23 63.73 69.91
  L 65.97 67.67
  Q 66.13 67.51 66.12 67.29
  Q 66.12 67.06 66.16 66.83
  Q 66.25 66.37 66.58 66.05
  L 73.95 58.68
  Q 74.12 58.51 74.12 58.26
  Q 74.12 58.08 74.15 57.89
  Q 74.24 57.39 74.60 57.04
  L 76.97 54.67
  Q 77.13 54.52 77.12 54.30
  Q 77.12 54.06 77.16 53.83
  Q 77.25 53.37 77.58 53.05
  L 83.95 46.68
  Q 84.12 46.51 84.12 46.27
  Q 84.12 46.07 84.16 45.86
  Q 84.25 45.39 84.59 45.04
  L 87.96 41.67
  Q 88.12 41.51 88.12 41.28
  Q 88.12 41.07 88.16 40.86
  Q 88.24 40.40 88.57 40.07
  L 93.69 34.92
  Q 93.95 34.65 94.00 34.27
  Q 94.20 32.79 95.61 32.14
  Q 96.00 31.96 96.06 31.54
  C 96.21 30.56 98.25 29.93 99.04 28.96
  Q 99.31 28.64 99.71 28.50
  Q 101.19 28.00 102.31 26.85
  Q 102.63 26.53 103.00 26.29
  Q 103.85 25.73 104.38 24.83
  Q 104.54 24.55 104.84 24.41
  L 105.92 23.93
  Q 106.27 23.77 106.50 23.46
  Q 106.80 23.06 107.39 23.05
  A 0.99 0.98 21.8 0 0 108.10 22.75
  Q 108.78 22.09 109.69 21.86
  Q 110.11 21.75 110.41 21.43
  Q 111.10 20.69 112.06 20.89
  Q 112.29 20.93 112.29 20.70
  L 112.29 20.27
  A 0.38 0.38 0.0 0 0 111.89 19.89
  L 109.78 19.96
  C 125.71 13.02 143.64 15.05 158.02 24.73
  Z" fill="#02728c"></path>
<path d="M 109.78 19.96
  L 111.89 19.89
  A 0.38 0.38 0.0 0 1 112.29 20.27
  L 112.29 20.70
  Q 112.29 20.93 112.06 20.89
  Q 111.10 20.69 110.41 21.43
  Q 110.11 21.75 109.69 21.86
  Q 108.78 22.09 108.10 22.75
  A 0.99 0.98 21.8 0 1 107.39 23.05
  Q 106.80 23.06 106.50 23.46
  Q 106.27 23.77 105.92 23.93
  L 104.84 24.41
  Q 104.54 24.55 104.38 24.83
  Q 103.85 25.73 103.00 26.29
  Q 102.63 26.53 102.31 26.85
  Q 101.19 28.00 99.71 28.50
  Q 99.31 28.64 99.04 28.96
  C 98.25 29.93 96.21 30.56 96.06 31.54
  Q 96.00 31.96 95.61 32.14
  Q 94.20 32.79 94.00 34.27
  Q 93.95 34.65 93.69 34.92
  L 88.57 40.07
  Q 88.24 40.40 88.16 40.86
  Q 88.12 41.07 88.12 41.28
  Q 88.12 41.51 87.96 41.67
  L 84.59 45.04
  Q 84.25 45.39 84.16 45.86
  Q 84.12 46.07 84.12 46.27
  Q 84.12 46.51 83.95 46.68
  L 77.58 53.05
  Q 77.25 53.37 77.16 53.83
  Q 77.12 54.06 77.12 54.30
  Q 77.13 54.52 76.97 54.67
  L 74.60 57.04
  Q 74.24 57.39 74.15 57.89
  Q 74.12 58.08 74.12 58.26
  Q 74.12 58.51 73.95 58.68
  L 66.58 66.05
  Q 66.25 66.37 66.16 66.83
  Q 66.12 67.06 66.12 67.29
  Q 66.13 67.51 65.97 67.67
  L 63.73 69.91
  Q 63.41 70.23 63.30 70.67
  Q 62.72 72.85 60.58 73.23
  Q 60.12 73.31 60.12 73.78
  L 60.12 74.22
  A 0.68 0.64 68.7 0 1 59.93 74.69
  L 57.57 77.07
  Q 57.24 77.41 57.15 77.88
  Q 57.12 78.08 57.12 78.28
  Q 57.12 78.51 56.96 78.67
  L 52.58 83.04
  Q 52.25 83.38 52.16 83.84
  Q 52.12 84.06 52.12 84.28
  Q 52.12 84.51 51.96 84.67
  L 47.59 89.04
  Q 47.25 89.38 47.16 89.84
  Q 47.12 90.06 47.12 90.28
  Q 47.12 90.51 46.96 90.67
  L 43.73 93.90
  Q 43.41 94.22 43.30 94.66
  Q 42.71 96.89 40.51 97.24
  Q 40.12 97.30 40.12 97.70
  L 40.12 98.03
  Q 40.12 98.45 39.82 98.76
  L 36.54 102.16
  Q 36.20 102.52 36.13 103.01
  Q 36.11 103.20 36.12 103.39
  Q 36.13 103.48 36.07 103.55
  L 31.40 108.77
  A 2.35 2.28 -15.8 0 0 30.99 109.48
  L 30.29 111.48
  Q 30.10 112.00 29.70 111.62
  Q 29.60 111.52 29.60 111.37
  Q 29.60 111.32 29.49 111.33
  Q 29.10 111.34 28.77 111.34
  Q 28.14 111.35 28.11 110.72
  L 27.96 107.75
  Q 27.95 107.46 27.75 107.24
  Q 27.59 107.07 27.59 106.75
  Q 27.63 101.53 27.63 96.31
  Q 27.63 96.16 27.44 96.10
  Q 27.40 96.08 27.35 96.06
  Q 27.27 96.01 27.27 95.90
  L 27.05 91.03
  Q 29.50 72.74 41.91 60.71
  Q 46.34 56.41 57.41 49.97
  Q 82.02 35.65 106.74 21.50
  Q 108.21 20.65 109.78 19.96
  Z" fill="#017a91"></path>
<path d="M 158.02 24.73
  L 190.49 43.46
  Q 190.39 43.85 189.92 44.21
  Q 189.57 44.48 189.89 44.80
  L 190.15 45.06
  Q 190.50 45.42 190.00 45.45
  Q 187.75 45.59 186.28 47.05
  Q 185.90 47.42 185.88 47.99
  Q 185.85 48.52 185.49 48.88
  L 181.04 53.33
  Q 180.88 53.49 180.88 53.72
  Q 180.88 53.94 180.84 54.16
  Q 180.75 54.62 180.41 54.96
  L 176.04 59.33
  Q 175.88 59.49 175.88 59.72
  Q 175.88 59.91 175.85 60.10
  Q 175.77 60.58 175.43 60.92
  L 172.18 64.22
  Q 171.88 64.53 171.88 64.96
  L 171.88 65.30
  Q 171.88 65.70 171.49 65.76
  Q 169.29 66.11 168.70 68.34
  Q 168.59 68.78 168.27 69.10
  L 165.04 72.33
  Q 164.88 72.49 164.88 72.72
  Q 164.88 72.88 164.86 73.03
  Q 164.79 73.51 164.47 73.86
  L 160.98 77.57
  Q 160.88 77.68 160.88 77.82
  L 160.88 78.21
  Q 160.88 78.47 160.70 78.65
  L 154.98 84.55
  Q 154.88 84.65 154.88 84.80
  L 154.88 85.30
  A 0.62 0.60 -23.0 0 1 154.70 85.73
  L 148.98 91.56
  Q 148.88 91.65 148.88 91.79
  Q 148.87 92.28 148.68 92.70
  A 0.16 0.08 -26.6 0 1 148.65 92.74
  L 145.04 96.32
  Q 144.87 96.48 144.88 96.71
  Q 144.88 96.92 144.84 97.13
  Q 144.76 97.59 144.43 97.92
  L 140.18 102.21
  Q 139.88 102.52 139.88 102.95
  L 139.88 103.48
  Q 139.88 104.01 139.36 103.90
  Q 138.76 103.77 138.21 104.02
  Q 137.88 104.16 137.88 104.52
  L 137.88 104.97
  Q 137.88 105.49 137.51 105.85
  L 135.03 108.33
  Q 134.87 108.48 134.88 108.70
  Q 134.88 108.91 134.85 109.12
  Q 134.76 109.59 134.43 109.93
  L 132.07 112.31
  A 0.68 0.64 68.7 0 0 131.88 112.78
  L 131.88 113.22
  Q 131.88 113.69 131.42 113.77
  Q 129.31 114.14 128.72 116.27
  Q 128.58 116.77 128.21 117.14
  L 125.19 120.19
  A 1.36 0.81 79.3 0 0 124.89 121.00
  Q 124.88 121.16 124.91 121.34
  A 0.54 0.53 -83.9 0 1 124.18 121.93
  Q 121.16 120.69 120.57 121.81
  C 108.32 114.63 100.21 108.60 89.11 106.19
  L 82.43 105.10
  Q 84.60 103.42 88.46 103.69
  A 0.12 0.04 5.8 0 1 88.59 103.75
  Q 88.53 103.88 88.47 104.00
  Q 88.42 104.11 88.54 104.13
  Q 89.54 104.28 90.05 103.39
  Q 90.24 103.05 90.57 102.84
  Q 91.92 101.97 91.94 100.46
  A 0.58 0.58 0.0 0 1 92.52 99.89
  L 93.22 99.89
  Q 93.59 99.89 93.70 99.53
  Q 94.23 97.64 95.93 96.53
  Q 96.88 95.90 96.95 94.86
  Q 96.98 94.42 97.29 94.11
  L 102.44 88.93
  Q 102.77 88.59 102.85 88.12
  Q 102.89 87.92 102.89 87.71
  Q 102.88 87.49 103.04 87.33
  L 106.41 83.96
  Q 106.77 83.61 106.85 83.12
  Q 106.89 82.91 106.89 82.70
  Q 106.88 82.47 107.04 82.31
  L 110.62 78.79
  Q 110.90 78.52 110.89 78.13
  Q 110.88 77.90 110.88 77.67
  Q 110.89 77.48 110.96 77.35
  Q 111.27 76.81 111.91 76.88
  Q 112.40 76.94 112.79 76.65
  Q 113.79 75.92 113.94 74.81
  Q 114.00 74.38 114.31 74.08
  L 117.70 70.69
  Q 117.89 70.51 117.89 70.25
  L 117.89 69.79
  Q 117.89 69.64 117.99 69.54
  L 122.49 64.90
  Q 122.83 64.55 122.95 64.08
  C 123.35 62.51 126.41 59.95 127.64 58.78
  Q 127.87 58.55 127.88 58.22
  Q 127.89 58.04 127.88 57.85
  Q 127.88 57.61 128.04 57.44
  L 131.49 53.83
  Q 131.85 53.46 131.88 52.95
  Q 131.89 52.82 131.88 52.68
  A 0.72 0.72 0.0 0 1 132.36 51.96
  Q 132.83 51.80 133.35 51.91
  Q 133.89 52.01 133.89 51.47
  L 133.89 50.95
  Q 133.89 50.53 134.18 50.22
  L 137.44 46.92
  Q 137.78 46.57 137.86 46.08
  Q 137.89 45.90 137.89 45.71
  Q 137.88 45.49 138.04 45.33
  L 141.41 41.96
  Q 141.77 41.61 141.85 41.12
  Q 141.89 40.92 141.89 40.73
  Q 141.88 40.49 142.05 40.33
  L 147.42 34.95
  Q 147.76 34.61 147.85 34.14
  Q 147.89 33.93 147.89 33.73
  Q 147.88 33.47 148.07 33.29
  Q 150.11 31.30 152.11 29.27
  C 153.04 28.33 153.44 26.64 155.38 26.34
  Q 155.77 26.28 156.03 25.97
  Q 156.23 25.72 156.49 25.65
  Q 156.97 25.52 157.15 26.12
  Q 157.18 26.21 157.39 26.39
  A 0.24 0.24 0.0 0 0 157.78 26.25
  L 158.02 24.73
  Z" fill="#036685"></path>
<path d="M 190.49 43.46
  L 209.91 54.77
  Q 210.80 55.85 207.40 56.01
  A 1.34 1.33 20.2 0 0 206.52 56.41
  Q 205.17 57.81 203.63 58.95
  Q 203.34 59.16 203.24 59.41
  Q 203.11 59.71 203.10 60.04
  Q 203.08 60.54 202.73 60.89
  L 199.30 64.31
  Q 199.12 64.49 199.12 64.75
  L 199.12 65.07
  Q 199.12 65.50 198.81 65.80
  L 193.30 71.31
  Q 193.12 71.50 193.12 71.76
  L 193.12 72.07
  Q 193.12 72.50 192.81 72.80
  L 188.30 77.31
  Q 188.12 77.49 188.12 77.75
  L 188.12 78.07
  Q 188.12 78.50 187.81 78.80
  L 182.30 84.31
  Q 182.12 84.50 182.12 84.76
  L 182.12 85.07
  Q 182.12 85.50 181.81 85.81
  L 179.30 88.30
  Q 179.12 88.49 179.12 88.75
  L 179.12 89.05
  Q 179.12 89.48 178.82 89.79
  L 172.23 96.43
  Q 172.12 96.54 172.12 96.71
  L 172.12 97.07
  Q 172.12 97.50 171.81 97.81
  L 169.30 100.30
  Q 169.12 100.49 169.12 100.75
  L 169.12 101.05
  Q 169.12 101.47 168.82 101.78
  L 165.54 105.11
  Q 165.18 105.47 165.13 105.98
  Q 165.12 106.15 165.12 106.31
  Q 165.10 106.97 164.45 107.03
  Q 162.43 107.22 162.08 109.08
  Q 161.98 109.64 161.58 110.04
  L 159.30 112.30
  Q 159.12 112.49 159.12 112.75
  L 159.12 113.06
  Q 159.12 113.48 158.81 113.79
  L 153.50 119.14
  Q 153.09 119.54 153.14 120.12
  Q 153.17 120.47 152.99 120.74
  Q 152.73 121.12 152.27 121.12
  L 151.50 121.12
  A 0.38 0.38 0.0 0 0 151.12 121.50
  L 151.12 122.18
  Q 151.12 122.53 150.87 122.77
  L 148.30 125.29
  Q 148.12 125.47 148.12 125.74
  L 148.12 126.07
  Q 148.12 126.50 147.81 126.80
  L 144.01 130.61
  Q 143.71 130.90 143.56 131.30
  Q 143.39 131.72 143.37 132.21
  Q 143.34 132.85 142.71 132.80
  Q 141.08 132.70 139.89 131.54
  Q 139.54 131.20 139.06 131.31
  Q 138.35 131.47 138.11 130.67
  Q 137.96 130.20 137.48 130.12
  Q 136.61 129.96 136.16 130.86
  Q 135.36 130.56 136.05 130.90
  L 120.57 121.81
  Q 121.16 120.69 124.18 121.93
  A 0.54 0.53 -83.9 0 0 124.91 121.34
  Q 124.88 121.16 124.89 121.00
  A 1.36 0.81 79.3 0 1 125.19 120.19
  L 128.21 117.14
  Q 128.58 116.77 128.72 116.27
  Q 129.31 114.14 131.42 113.77
  Q 131.88 113.69 131.88 113.22
  L 131.88 112.78
  A 0.68 0.64 68.7 0 1 132.07 112.31
  L 134.43 109.93
  Q 134.76 109.59 134.85 109.12
  Q 134.88 108.91 134.88 108.70
  Q 134.87 108.48 135.03 108.33
  L 137.51 105.85
  Q 137.88 105.49 137.88 104.97
  L 137.88 104.52
  Q 137.88 104.16 138.21 104.02
  Q 138.76 103.77 139.36 103.90
  Q 139.88 104.01 139.88 103.48
  L 139.88 102.95
  Q 139.88 102.52 140.18 102.21
  L 144.43 97.92
  Q 144.76 97.59 144.84 97.13
  Q 144.88 96.92 144.88 96.71
  Q 144.87 96.48 145.04 96.32
  L 148.65 92.74
  A 0.16 0.08 -26.6 0 0 148.68 92.70
  Q 148.87 92.28 148.88 91.79
  Q 148.88 91.65 148.98 91.56
  L 154.70 85.73
  A 0.62 0.60 -23.0 0 0 154.88 85.30
  L 154.88 84.80
  Q 154.88 84.65 154.98 84.55
  L 160.70 78.65
  Q 160.88 78.47 160.88 78.21
  L 160.88 77.82
  Q 160.88 77.68 160.98 77.57
  L 164.47 73.86
  Q 164.79 73.51 164.86 73.03
  Q 164.88 72.88 164.88 72.72
  Q 164.88 72.49 165.04 72.33
  L 168.27 69.10
  Q 168.59 68.78 168.70 68.34
  Q 169.29 66.11 171.49 65.76
  Q 171.88 65.70 171.88 65.30
  L 171.88 64.96
  Q 171.88 64.53 172.18 64.22
  L 175.43 60.92
  Q 175.77 60.58 175.85 60.10
  Q 175.88 59.91 175.88 59.72
  Q 175.88 59.49 176.04 59.33
  L 180.41 54.96
  Q 180.75 54.62 180.84 54.16
  Q 180.88 53.94 180.88 53.72
  Q 180.88 53.49 181.04 53.33
  L 185.49 48.88
  Q 185.85 48.52 185.88 47.99
  Q 185.90 47.42 186.28 47.05
  Q 187.75 45.59 190.00 45.45
  Q 190.50 45.42 190.15 45.06
  L 189.89 44.80
  Q 189.57 44.48 189.92 44.21
  Q 190.39 43.85 190.49 43.46
  Z" fill="#045e80"></path>
<path d="M 209.91 54.77
  Q 224.00 64.18 229.69 80.40
  Q 228.69 80.89 229.08 81.87
  Q 229.19 82.12 229.22 82.40
  Q 229.30 83.10 229.40 83.72
  Q 229.46 84.07 229.13 83.93
  Q 228.88 83.82 228.61 83.87
  C 228.32 83.92 225.83 86.66 225.18 87.13
  A 0.73 0.73 0.0 0 0 224.88 87.72
  Q 224.88 87.93 224.84 88.14
  Q 224.76 88.61 224.42 88.95
  L 219.04 94.33
  Q 218.88 94.49 218.88 94.73
  Q 218.88 94.93 218.84 95.12
  Q 218.76 95.59 218.43 95.93
  L 216.07 98.31
  A 0.68 0.64 68.7 0 0 215.88 98.78
  L 215.88 99.22
  Q 215.88 99.69 215.42 99.77
  Q 213.27 100.15 212.70 102.35
  Q 212.59 102.78 212.27 103.10
  L 208.04 107.33
  Q 207.88 107.49 207.88 107.73
  Q 207.88 107.93 207.84 108.14
  Q 207.75 108.62 207.41 108.96
  L 204.04 112.33
  Q 203.88 112.49 203.88 112.72
  Q 203.88 112.94 203.84 113.16
  Q 203.75 113.62 203.41 113.96
  L 199.04 118.33
  Q 198.88 118.49 198.88 118.72
  Q 198.88 118.92 198.84 119.12
  Q 198.76 119.59 198.43 119.93
  L 196.07 122.31
  A 0.68 0.64 68.7 0 0 195.88 122.78
  L 195.88 123.23
  Q 195.88 123.70 195.41 123.78
  Q 193.25 124.14 192.82 126.24
  Q 192.73 126.69 192.40 127.01
  L 188.04 131.32
  Q 187.87 131.48 187.88 131.71
  Q 187.88 131.91 187.85 132.10
  Q 187.77 132.58 187.43 132.92
  L 184.18 136.22
  Q 183.88 136.53 183.88 136.96
  L 183.88 137.48
  Q 183.88 138.01 183.36 137.90
  Q 182.75 137.77 182.21 138.02
  Q 181.88 138.16 181.88 138.52
  L 181.88 138.95
  Q 181.88 139.47 181.52 139.83
  L 179.07 142.31
  A 0.68 0.64 68.7 0 0 178.88 142.78
  L 178.88 143.37
  Q 178.88 143.88 178.37 143.88
  L 177.53 143.88
  A 0.64 0.64 0.0 0 0 176.90 144.41
  Q 176.78 145.08 176.98 145.70
  Q 177.11 146.12 177.55 146.12
  L 178.85 146.12
  Q 179.24 146.12 178.97 146.40
  Q 178.82 146.57 178.51 146.61
  Q 173.43 147.42 169.07 146.10
  Q 168.35 145.88 167.89 146.01
  Q 166.96 146.26 167.11 147.10
  Q 161.39 145.58 155.81 142.31
  L 136.16 130.86
  Q 136.61 129.96 137.48 130.12
  Q 137.96 130.20 138.11 130.67
  Q 138.35 131.47 139.06 131.31
  Q 139.54 131.20 139.89 131.54
  Q 141.08 132.70 142.71 132.80
  Q 143.34 132.85 143.37 132.21
  Q 143.39 131.72 143.56 131.30
  Q 143.71 130.90 144.01 130.61
  L 147.81 126.80
  Q 148.12 126.50 148.12 126.07
  L 148.12 125.74
  Q 148.12 125.47 148.30 125.29
  L 150.87 122.77
  Q 151.12 122.53 151.12 122.18
  L 151.12 121.50
  A 0.38 0.38 0.0 0 1 151.50 121.12
  L 152.27 121.12
  Q 152.73 121.12 152.99 120.74
  Q 153.17 120.47 153.14 120.12
  Q 153.09 119.54 153.50 119.14
  L 158.81 113.79
  Q 159.12 113.48 159.12 113.06
  L 159.12 112.75
  Q 159.12 112.49 159.30 112.30
  L 161.58 110.04
  Q 161.98 109.64 162.08 109.08
  Q 162.43 107.22 164.45 107.03
  Q 165.10 106.97 165.12 106.31
  Q 165.12 106.15 165.13 105.98
  Q 165.18 105.47 165.54 105.11
  L 168.82 101.78
  Q 169.12 101.47 169.12 101.05
  L 169.12 100.75
  Q 169.12 100.49 169.30 100.30
  L 171.81 97.81
  Q 172.12 97.50 172.12 97.07
  L 172.12 96.71
  Q 172.12 96.54 172.23 96.43
  L 178.82 89.79
  Q 179.12 89.48 179.12 89.05
  L 179.12 88.75
  Q 179.12 88.49 179.30 88.30
  L 181.81 85.81
  Q 182.12 85.50 182.12 85.07
  L 182.12 84.76
  Q 182.12 84.50 182.30 84.31
  L 187.81 78.80
  Q 188.12 78.50 188.12 78.07
  L 188.12 77.75
  Q 188.12 77.49 188.30 77.31
  L 192.81 72.80
  Q 193.12 72.50 193.12 72.07
  L 193.12 71.76
  Q 193.12 71.50 193.30 71.31
  L 198.81 65.80
  Q 199.12 65.50 199.12 65.07
  L 199.12 64.75
  Q 199.12 64.49 199.30 64.31
  L 202.73 60.89
  Q 203.08 60.54 203.10 60.04
  Q 203.11 59.71 203.24 59.41
  Q 203.34 59.16 203.63 58.95
  Q 205.17 57.81 206.52 56.41
  A 1.34 1.33 20.2 0 1 207.40 56.01
  Q 210.80 55.85 209.91 54.77
  Z" fill="#05567b"></path>
<path d="M 229.69 80.40
  Q 231.52 85.90 231.94 90.25
  Q 232.58 96.78 232.11 104.54
  Q 230.01 116.43 225.21 124.23
  Q 215.26 140.41 195.90 146.72
  Q 181.52 151.40 167.11 147.10
  Q 166.96 146.26 167.89 146.01
  Q 168.35 145.88 169.07 146.10
  Q 173.43 147.42 178.51 146.61
  Q 178.82 146.57 178.97 146.40
  Q 179.24 146.12 178.85 146.12
  L 177.55 146.12
  Q 177.11 146.12 176.98 145.70
  Q 176.78 145.08 176.90 144.41
  A 0.64 0.64 0.0 0 1 177.53 143.88
  L 178.37 143.88
  Q 178.88 143.88 178.88 143.37
  L 178.88 142.78
  A 0.68 0.64 68.7 0 1 179.07 142.31
  L 181.52 139.83
  Q 181.88 139.47 181.88 138.95
  L 181.88 138.52
  Q 181.88 138.16 182.21 138.02
  Q 182.75 137.77 183.36 137.90
  Q 183.88 138.01 183.88 137.48
  L 183.88 136.96
  Q 183.88 136.53 184.18 136.22
  L 187.43 132.92
  Q 187.77 132.58 187.85 132.10
  Q 187.88 131.91 187.88 131.71
  Q 187.87 131.48 188.04 131.32
  L 192.40 127.01
  Q 192.73 126.69 192.82 126.24
  Q 193.25 124.14 195.41 123.78
  Q 195.88 123.70 195.88 123.23
  L 195.88 122.78
  A 0.68 0.64 68.7 0 1 196.07 122.31
  L 198.43 119.93
  Q 198.76 119.59 198.84 119.12
  Q 198.88 118.92 198.88 118.72
  Q 198.88 118.49 199.04 118.33
  L 203.41 113.96
  Q 203.75 113.62 203.84 113.16
  Q 203.88 112.94 203.88 112.72
  Q 203.88 112.49 204.04 112.33
  L 207.41 108.96
  Q 207.75 108.62 207.84 108.14
  Q 207.88 107.93 207.88 107.73
  Q 207.88 107.49 208.04 107.33
  L 212.27 103.10
  Q 212.59 102.78 212.70 102.35
  Q 213.27 100.15 215.42 99.77
  Q 215.88 99.69 215.88 99.22
  L 215.88 98.78
  A 0.68 0.64 68.7 0 1 216.07 98.31
  L 218.43 95.93
  Q 218.76 95.59 218.84 95.12
  Q 218.88 94.93 218.88 94.73
  Q 218.88 94.49 219.04 94.33
  L 224.42 88.95
  Q 224.76 88.61 224.84 88.14
  Q 224.88 87.93 224.88 87.72
  A 0.73 0.73 0.0 0 1 225.18 87.13
  C 225.83 86.66 228.32 83.92 228.61 83.87
  Q 228.88 83.82 229.13 83.93
  Q 229.46 84.07 229.40 83.72
  Q 229.30 83.10 229.22 82.40
  Q 229.19 82.12 229.08 81.87
  Q 228.69 80.89 229.69 80.40
  Z" fill="#064e77"></path>
<path d="M 232.11 104.54
  Q 232.33 130.83 232.19 156.50
  Q 232.07 179.28 216.85 193.63
  Q 212.34 197.87 200.36 204.83
  Q 176.32 218.79 152.23 232.72
  Q 148.13 235.09 140.80 236.89
  L 140.18 236.63
  Q 139.71 236.43 139.82 235.92
  L 139.93 235.40
  Q 140.03 234.93 140.50 234.88
  Q 140.68 234.86 140.87 234.86
  Q 140.93 234.86 140.88 234.83
  Q 140.75 234.77 140.67 234.61
  Q 140.62 234.50 140.67 234.39
  Q 140.73 234.27 140.84 234.18
  Q 140.86 234.15 140.83 234.15
  Q 140.25 234.04 139.87 233.60
  Q 139.49 233.17 139.87 232.74
  Q 140.17 232.39 140.46 232.40
  Q 140.83 232.42 141.03 232.11
  Q 141.75 230.89 141.95 229.56
  A 0.87 0.86 -11.1 0 1 142.37 228.94
  Q 143.79 228.12 143.97 226.65
  Q 144.04 226.13 144.49 225.87
  Q 145.84 225.07 145.93 223.64
  Q 145.96 223.17 146.37 222.94
  Q 147.64 222.20 147.95 220.96
  Q 148.10 220.37 148.51 219.93
  L 150.51 217.81
  Q 150.89 217.41 150.87 216.85
  Q 150.83 216.10 151.61 215.86
  Q 151.89 215.77 151.89 215.47
  L 151.89 214.92
  Q 151.89 214.50 152.19 214.19
  L 154.70 211.70
  Q 154.89 211.51 154.89 211.25
  L 154.89 210.91
  Q 154.89 210.48 155.20 210.18
  L 156.70 208.72
  Q 156.89 208.53 156.89 208.27
  L 156.89 207.91
  Q 156.89 207.48 157.20 207.18
  L 158.70 205.72
  Q 158.89 205.53 158.89 205.27
  L 158.89 204.92
  Q 158.89 204.50 159.19 204.19
  L 161.70 201.70
  Q 161.89 201.51 161.89 201.25
  L 161.89 200.78
  A 0.70 0.69 67.2 0 1 162.08 200.30
  L 163.52 198.83
  Q 163.90 198.43 163.87 197.89
  Q 163.81 197.10 164.61 196.85
  Q 164.89 196.77 164.89 196.47
  L 164.89 195.95
  Q 164.89 195.53 165.19 195.22
  L 168.52 191.83
  Q 168.89 191.46 168.89 190.94
  L 168.89 190.04
  A 1.30 1.30 0.0 0 1 169.27 189.12
  L 171.70 186.70
  Q 171.89 186.51 171.89 186.25
  L 171.89 185.91
  Q 171.89 185.48 172.20 185.18
  L 173.70 183.72
  Q 173.89 183.53 173.89 183.27
  L 173.89 182.91
  Q 173.89 182.48 174.20 182.18
  L 175.70 180.72
  Q 175.89 180.53 175.89 180.27
  L 175.89 179.92
  Q 175.89 179.50 176.19 179.20
  L 178.70 176.70
  Q 178.89 176.51 178.89 176.25
  L 178.89 175.91
  Q 178.89 175.48 179.20 175.18
  L 180.70 173.72
  Q 180.89 173.53 180.89 173.27
  L 180.89 172.91
  Q 180.89 172.48 181.20 172.18
  L 182.70 170.72
  Q 182.89 170.53 182.89 170.27
  L 182.89 169.96
  Q 182.89 169.54 183.18 169.24
  L 185.49 166.86
  Q 185.89 166.44 185.87 165.86
  Q 185.84 165.17 186.51 164.84
  Q 186.89 164.66 186.89 164.24
  L 186.89 163.58
  A 0.22 0.20 69.2 0 1 186.95 163.43
  L 190.17 160.22
  Q 190.50 159.89 190.96 159.89
  L 191.50 159.89
  Q 191.89 159.89 191.89 159.50
  L 191.89 156.68
  A 0.82 0.81 76.0 0 1 192.32 155.96
  Q 193.84 155.16 193.94 153.58
  Q 193.97 153.15 194.34 152.95
  Q 195.79 152.17 195.93 150.73
  Q 195.97 150.28 196.36 150.05
  Q 197.32 149.49 196.74 148.27
  Q 196.41 147.60 195.90 146.72
  Q 215.26 140.41 225.21 124.23
  Q 230.01 116.43 232.11 104.54
  Z" fill="#0be893"></path>
<path d="M 82.43 105.10
  L 89.11 106.19
  Q 88.95 106.65 88.60 107.03
  Q 88.42 107.23 88.45 107.50
  Q 88.51 107.96 88.73 108.23
  Q 89.06 108.65 88.56 108.84
  Q 88.03 109.04 88.11 109.75
  Q 88.22 110.78 87.47 111.14
  A 0.62 0.61 -13.3 0 0 87.12 111.69
  L 87.12 112.18
  Q 87.12 112.53 86.87 112.77
  L 84.31 115.29
  Q 84.12 115.47 84.12 115.74
  L 84.12 116.09
  Q 84.12 116.52 83.81 116.82
  L 82.31 118.28
  Q 82.12 118.47 82.12 118.73
  L 82.12 119.07
  Q 82.12 119.50 81.81 119.81
  L 79.30 122.30
  Q 79.12 122.49 79.12 122.75
  L 79.12 123.09
  Q 79.12 123.52 78.81 123.82
  L 77.31 125.28
  Q 77.12 125.47 77.12 125.73
  L 77.12 126.09
  Q 77.12 126.52 76.81 126.82
  L 75.31 128.28
  Q 75.12 128.47 75.12 128.73
  L 75.12 129.09
  Q 75.12 129.52 74.81 129.82
  L 73.31 131.28
  Q 73.12 131.47 73.12 131.73
  L 73.12 132.03
  Q 73.12 132.46 72.82 132.77
  L 70.48 135.19
  Q 70.12 135.55 70.12 136.06
  L 70.12 137.08
  A 1.06 1.05 68.2 0 1 69.80 137.84
  L 67.31 140.29
  Q 67.12 140.47 67.12 140.73
  L 67.12 141.03
  Q 67.12 141.46 66.82 141.76
  L 64.51 144.15
  Q 64.11 144.56 64.14 145.13
  Q 64.18 145.90 63.39 146.15
  Q 63.12 146.24 63.12 146.53
  L 63.12 147.07
  Q 63.12 147.50 62.81 147.81
  L 60.30 150.30
  Q 60.12 150.49 60.12 150.75
  L 60.12 151.09
  Q 60.12 151.52 59.81 151.82
  L 58.31 153.28
  Q 58.12 153.47 58.12 153.73
  L 58.12 154.09
  Q 58.12 154.52 57.81 154.82
  L 56.31 156.28
  Q 56.12 156.47 56.12 156.73
  L 56.12 157.03
  Q 56.12 157.46 55.82 157.76
  L 53.51 160.15
  Q 53.12 160.56 53.14 161.12
  Q 53.17 161.80 52.56 162.13
  Q 52.22 162.32 52.15 162.71
  Q 51.90 164.25 50.49 165.06
  Q 50.12 165.27 50.12 165.70
  L 50.12 166.07
  Q 50.12 166.50 49.81 166.81
  L 47.30 169.30
  Q 47.12 169.49 47.12 169.75
  L 47.12 170.09
  Q 47.12 170.52 46.81 170.82
  L 45.31 172.28
  Q 45.12 172.47 45.12 172.73
  L 45.12 173.09
  Q 45.12 173.52 44.81 173.82
  L 43.31 175.28
  Q 43.12 175.47 43.12 175.73
  L 43.12 176.04
  Q 43.12 176.47 42.82 176.77
  L 40.60 179.05
  Q 40.32 179.33 40.20 179.71
  Q 40.15 179.86 40.13 180.02
  Q 40.08 180.61 39.63 180.99
  Q 37.61 182.71 36.87 185.21
  Q 36.74 185.64 36.38 185.37
  Q 36.19 185.22 36.12 184.96
  Q 36.01 184.51 35.93 184.95
  L 35.72 186.00
  C 27.59 174.20 26.51 163.00 27.01 148.82
  Q 28.06 145.13 29.09 141.57
  Q 33.55 126.25 46.03 116.57
  Q 62.43 103.84 82.43 105.10
  Z" fill="#09c29e"></path>
<path d="M 89.11 106.19
  C 100.21 108.60 108.32 114.63 120.57 121.81
  L 136.05 130.90
  Q 133.83 130.58 133.21 131.19
  Q 132.54 131.86 132.49 131.88
  Q 131.83 132.15 131.86 132.86
  Q 131.88 133.45 131.46 133.88
  L 130.04 135.34
  Q 129.88 135.50 129.88 135.73
  Q 129.88 136.00 129.82 136.25
  Q 129.71 136.68 129.39 136.99
  L 128.04 138.30
  Q 127.87 138.47 127.88 138.70
  Q 127.88 138.88 127.86 139.06
  Q 127.78 139.55 127.44 139.90
  L 125.18 142.23
  Q 124.88 142.54 124.88 142.97
  L 124.88 143.23
  Q 124.88 143.61 124.55 143.79
  Q 123.80 144.20 123.85 144.88
  Q 123.90 145.47 123.49 145.88
  L 121.03 148.33
  Q 120.87 148.48 120.88 148.70
  Q 120.89 148.98 120.82 149.25
  Q 120.71 149.68 120.39 149.99
  L 119.09 151.26
  Q 118.88 151.46 118.88 151.76
  Q 118.88 152.01 118.82 152.25
  Q 118.71 152.68 118.39 152.99
  L 117.04 154.30
  Q 116.87 154.47 116.88 154.70
  Q 116.88 154.91 116.85 155.11
  Q 116.76 155.61 116.40 155.96
  L 114.03 158.33
  Q 113.87 158.48 113.88 158.70
  Q 113.88 158.88 113.86 159.06
  Q 113.78 159.55 113.44 159.90
  L 111.18 162.24
  Q 110.88 162.54 110.88 162.97
  L 110.88 163.97
  Q 110.88 164.49 110.51 164.85
  L 108.03 167.33
  Q 107.87 167.48 107.88 167.70
  Q 107.89 167.98 107.82 168.25
  Q 107.71 168.68 107.39 168.99
  L 106.09 170.26
  Q 105.88 170.46 105.88 170.76
  Q 105.88 171.01 105.82 171.25
  Q 105.71 171.68 105.39 171.99
  L 104.04 173.30
  Q 103.87 173.47 103.88 173.70
  Q 103.88 173.88 103.86 174.06
  Q 103.78 174.55 103.44 174.90
  L 101.18 177.24
  Q 100.88 177.54 100.88 177.97
  L 100.88 178.23
  Q 100.88 178.61 100.55 178.79
  Q 99.80 179.20 99.85 179.88
  Q 99.90 180.47 99.49 180.88
  L 97.03 183.33
  Q 96.87 183.48 96.88 183.70
  Q 96.89 183.98 96.82 184.25
  Q 96.71 184.68 96.39 184.99
  L 95.09 186.26
  Q 94.88 186.46 94.88 186.76
  Q 94.88 187.01 94.82 187.25
  Q 94.71 187.68 94.39 187.99
  L 93.09 189.26
  Q 92.88 189.46 92.88 189.76
  Q 92.88 190.01 92.82 190.25
  Q 92.71 190.68 92.39 190.99
  L 91.04 192.30
  Q 90.87 192.47 90.88 192.70
  Q 90.88 192.91 90.85 193.11
  Q 90.76 193.61 90.40 193.96
  L 88.03 196.33
  Q 87.87 196.48 87.88 196.70
  Q 87.89 196.98 87.82 197.25
  Q 87.71 197.68 87.39 197.99
  L 86.09 199.26
  Q 85.88 199.46 85.88 199.76
  Q 85.88 200.01 85.82 200.25
  Q 85.71 200.68 85.39 200.99
  L 84.04 202.30
  Q 83.87 202.47 83.88 202.70
  Q 83.88 202.90 83.85 203.09
  Q 83.77 203.58 83.42 203.93
  L 81.15 206.23
  Q 80.79 206.60 80.90 207.09
  Q 81.05 207.76 80.38 207.93
  Q 79.86 208.07 79.90 208.61
  Q 79.99 209.92 78.88 210.63
  Q 78.36 210.96 78.51 211.55
  Q 78.96 213.29 79.50 215.00
  Q 78.87 215.44 80.02 216.67
  A 0.20 0.20 0.0 0 0 80.36 216.48
  Q 80.32 216.30 80.52 216.38
  Q 80.71 216.45 80.73 216.65
  Q 80.79 217.27 81.39 217.79
  Q 65.65 208.72 49.98 199.57
  Q 41.92 194.87 35.72 186.00
  L 35.93 184.95
  Q 36.01 184.51 36.12 184.96
  Q 36.19 185.22 36.38 185.37
  Q 36.74 185.64 36.87 185.21
  Q 37.61 182.71 39.63 180.99
  Q 40.08 180.61 40.13 180.02
  Q 40.15 179.86 40.20 179.71
  Q 40.32 179.33 40.60 179.05
  L 42.82 176.77
  Q 43.12 176.47 43.12 176.04
  L 43.12 175.73
  Q 43.12 175.47 43.31 175.28
  L 44.81 173.82
  Q 45.12 173.52 45.12 173.09
  L 45.12 172.73
  Q 45.12 172.47 45.31 172.28
  L 46.81 170.82
  Q 47.12 170.52 47.12 170.09
  L 47.12 169.75
  Q 47.12 169.49 47.30 169.30
  L 49.81 166.81
  Q 50.12 166.50 50.12 166.07
  L 50.12 165.70
  Q 50.12 165.27 50.49 165.06
  Q 51.90 164.25 52.15 162.71
  Q 52.22 162.32 52.56 162.13
  Q 53.17 161.80 53.14 161.12
  Q 53.12 160.56 53.51 160.15
  L 55.82 157.76
  Q 56.12 157.46 56.12 157.03
  L 56.12 156.73
  Q 56.12 156.47 56.31 156.28
  L 57.81 154.82
  Q 58.12 154.52 58.12 154.09
  L 58.12 153.73
  Q 58.12 153.47 58.31 153.28
  L 59.81 151.82
  Q 60.12 151.52 60.12 151.09
  L 60.12 150.75
  Q 60.12 150.49 60.30 150.30
  L 62.81 147.81
  Q 63.12 147.50 63.12 147.07
  L 63.12 146.53
  Q 63.12 146.24 63.39 146.15
  Q 64.18 145.90 64.14 145.13
  Q 64.11 144.56 64.51 144.15
  L 66.82 141.76
  Q 67.12 141.46 67.12 141.03
  L 67.12 140.73
  Q 67.12 140.47 67.31 140.29
  L 69.80 137.84
  A 1.06 1.05 68.2 0 0 70.12 137.08
  L 70.12 136.06
  Q 70.12 135.55 70.48 135.19
  L 72.82 132.77
  Q 73.12 132.46 73.12 132.03
  L 73.12 131.73
  Q 73.12 131.47 73.31 131.28
  L 74.81 129.82
  Q 75.12 129.52 75.12 129.09
  L 75.12 128.73
  Q 75.12 128.47 75.31 128.28
  L 76.81 126.82
  Q 77.12 126.52 77.12 126.09
  L 77.12 125.73
  Q 77.12 125.47 77.31 125.28
  L 78.81 123.82
  Q 79.12 123.52 79.12 123.09
  L 79.12 122.75
  Q 79.12 122.49 79.30 122.30
  L 81.81 119.81
  Q 82.12 119.50 82.12 119.07
  L 82.12 118.73
  Q 82.12 118.47 82.31 118.28
  L 83.81 116.82
  Q 84.12 116.52 84.12 116.09
  L 84.12 115.74
  Q 84.12 115.47 84.31 115.29
  L 86.87 112.77
  Q 87.12 112.53 87.12 112.18
  L 87.12 111.69
  A 0.62 0.61 -13.3 0 1 87.47 111.14
  Q 88.22 110.78 88.11 109.75
  Q 88.03 109.04 88.56 108.84
  Q 89.06 108.65 88.73 108.23
  Q 88.51 107.96 88.45 107.50
  Q 88.42 107.23 88.60 107.03
  Q 88.95 106.65 89.11 106.19
  Z" fill="#0acc9b"></path>
<path d="M 136.05 130.90
  Q 135.36 130.56 136.16 130.86
  L 155.81 142.31
  L 153.40 145.34
  Q 153.13 145.68 153.15 146.11
  Q 153.25 148.05 151.51 149.03
  Q 151.12 149.25 151.12 149.70
  L 151.11 150.09
  Q 151.11 150.52 150.80 150.82
  L 149.30 152.28
  Q 149.11 152.47 149.11 152.73
  L 149.11 153.04
  Q 149.11 153.46 148.82 153.76
  L 146.51 156.14
  Q 146.11 156.56 146.14 157.14
  Q 146.17 157.90 145.39 158.15
  Q 145.11 158.23 145.11 158.53
  L 145.11 159.08
  Q 145.11 159.50 144.81 159.81
  L 142.30 162.30
  Q 142.11 162.49 142.11 162.75
  L 142.11 163.04
  Q 142.11 163.46 141.82 163.76
  L 139.51 166.14
  Q 139.11 166.56 139.14 167.14
  Q 139.17 167.90 138.39 168.15
  Q 138.11 168.23 138.11 168.53
  L 138.11 169.04
  Q 138.11 169.46 137.82 169.76
  L 135.51 172.14
  Q 135.11 172.56 135.14 173.14
  Q 135.17 173.90 134.40 174.14
  Q 134.12 174.23 134.12 174.53
  L 134.11 175.08
  Q 134.11 175.51 133.81 175.81
  L 131.30 178.30
  Q 131.12 178.48 131.12 178.74
  L 131.11 179.04
  Q 131.11 179.47 130.82 179.77
  L 128.48 182.18
  Q 128.12 182.54 128.12 183.06
  L 128.11 184.22
  A 0.68 0.64 68.7 0 1 127.92 184.69
  L 124.52 188.12
  Q 124.11 188.53 124.13 189.12
  Q 124.17 189.79 123.56 190.13
  Q 123.21 190.32 123.15 190.71
  Q 122.89 192.25 121.49 193.06
  Q 121.12 193.27 121.12 193.70
  L 121.11 194.08
  Q 121.11 194.51 120.81 194.81
  L 118.30 197.30
  Q 118.12 197.48 118.12 197.74
  L 118.11 198.09
  Q 118.11 198.52 117.80 198.82
  L 116.17 200.41
  A 0.17 0.17 0.0 0 0 116.12 200.53
  L 116.11 201.09
  Q 116.10 201.57 115.76 201.89
  L 114.18 203.38
  A 0.21 0.19 -24.2 0 0 114.12 203.52
  L 114.11 204.10
  Q 114.11 204.52 113.80 204.82
  L 112.30 206.28
  Q 112.11 206.47 112.11 206.73
  L 112.11 207.09
  Q 112.11 207.52 111.80 207.82
  L 110.30 209.28
  Q 110.11 209.47 110.11 209.73
  L 110.11 210.08
  Q 110.11 210.50 109.81 210.80
  L 107.30 213.30
  Q 107.12 213.48 107.12 213.74
  L 107.11 214.04
  Q 107.11 214.46 106.82 214.77
  L 104.51 217.14
  Q 104.11 217.55 104.14 218.13
  Q 104.17 218.61 103.85 218.91
  Q 103.63 219.12 103.32 219.12
  L 102.73 219.12
  Q 102.24 219.12 102.17 219.61
  Q 101.95 221.24 100.43 222.11
  Q 100.05 222.33 100.05 222.77
  Q 100.07 224.09 99.00 224.11
  Q 95.63 224.15 92.25 224.10
  L 81.39 217.79
  Q 80.79 217.27 80.73 216.65
  Q 80.71 216.45 80.52 216.38
  Q 80.32 216.30 80.36 216.48
  A 0.20 0.20 0.0 0 1 80.02 216.67
  Q 78.87 215.44 79.50 215.00
  Q 78.96 213.29 78.51 211.55
  Q 78.36 210.96 78.88 210.63
  Q 79.99 209.92 79.90 208.61
  Q 79.86 208.07 80.38 207.93
  Q 81.05 207.76 80.90 207.09
  Q 80.79 206.60 81.15 206.23
  L 83.42 203.93
  Q 83.77 203.58 83.85 203.09
  Q 83.88 202.90 83.88 202.70
  Q 83.87 202.47 84.04 202.30
  L 85.39 200.99
  Q 85.71 200.68 85.82 200.25
  Q 85.88 200.01 85.88 199.76
  Q 85.88 199.46 86.09 199.26
  L 87.39 197.99
  Q 87.71 197.68 87.82 197.25
  Q 87.89 196.98 87.88 196.70
  Q 87.87 196.48 88.03 196.33
  L 90.40 193.96
  Q 90.76 193.61 90.85 193.11
  Q 90.88 192.91 90.88 192.70
  Q 90.87 192.47 91.04 192.30
  L 92.39 190.99
  Q 92.71 190.68 92.82 190.25
  Q 92.88 190.01 92.88 189.76
  Q 92.88 189.46 93.09 189.26
  L 94.39 187.99
  Q 94.71 187.68 94.82 187.25
  Q 94.88 187.01 94.88 186.76
  Q 94.88 186.46 95.09 186.26
  L 96.39 184.99
  Q 96.71 184.68 96.82 184.25
  Q 96.89 183.98 96.88 183.70
  Q 96.87 183.48 97.03 183.33
  L 99.49 180.88
  Q 99.90 180.47 99.85 179.88
  Q 99.80 179.20 100.55 178.79
  Q 100.88 178.61 100.88 178.23
  L 100.88 177.97
  Q 100.88 177.54 101.18 177.24
  L 103.44 174.90
  Q 103.78 174.55 103.86 174.06
  Q 103.88 173.88 103.88 173.70
  Q 103.87 173.47 104.04 173.30
  L 105.39 171.99
  Q 105.71 171.68 105.82 171.25
  Q 105.88 171.01 105.88 170.76
  Q 105.88 170.46 106.09 170.26
  L 107.39 168.99
  Q 107.71 168.68 107.82 168.25
  Q 107.89 167.98 107.88 167.70
  Q 107.87 167.48 108.03 167.33
  L 110.51 164.85
  Q 110.88 164.49 110.88 163.97
  L 110.88 162.97
  Q 110.88 162.54 111.18 162.24
  L 113.44 159.90
  Q 113.78 159.55 113.86 159.06
  Q 113.88 158.88 113.88 158.70
  Q 113.87 158.48 114.03 158.33
  L 116.40 155.96
  Q 116.76 155.61 116.85 155.11
  Q 116.88 154.91 116.88 154.70
  Q 116.87 154.47 117.04 154.30
  L 118.39 152.99
  Q 118.71 152.68 118.82 152.25
  Q 118.88 152.01 118.88 151.76
  Q 118.88 151.46 119.09 151.26
  L 120.39 149.99
  Q 120.71 149.68 120.82 149.25
  Q 120.89 148.98 120.88 148.70
  Q 120.87 148.48 121.03 148.33
  L 123.49 145.88
  Q 123.90 145.47 123.85 144.88
  Q 123.80 144.20 124.55 143.79
  Q 124.88 143.61 124.88 143.23
  L 124.88 142.97
  Q 124.88 142.54 125.18 142.23
  L 127.44 139.90
  Q 127.78 139.55 127.86 139.06
  Q 127.88 138.88 127.88 138.70
  Q 127.87 138.47 128.04 138.30
  L 129.39 136.99
  Q 129.71 136.68 129.82 136.25
  Q 129.88 136.00 129.88 135.73
  Q 129.88 135.50 130.04 135.34
  L 131.46 133.88
  Q 131.88 133.45 131.86 132.86
  Q 131.83 132.15 132.49 131.88
  Q 132.54 131.86 133.21 131.19
  Q 133.83 130.58 136.05 130.90
  Z" fill="#0ad699"></path>
<path d="M 155.81 142.31
  Q 161.39 145.58 167.11 147.10
  Q 181.52 151.40 195.90 146.72
  Q 196.41 147.60 196.74 148.27
  Q 197.32 149.49 196.36 150.05
  Q 195.97 150.28 195.93 150.73
  Q 195.79 152.17 194.34 152.95
  Q 193.97 153.15 193.94 153.58
  Q 193.84 155.16 192.32 155.96
  A 0.82 0.81 76.0 0 0 191.89 156.68
  L 191.89 159.50
  Q 191.89 159.89 191.50 159.89
  L 190.96 159.89
  Q 190.50 159.89 190.17 160.22
  L 186.95 163.43
  A 0.22 0.20 69.2 0 0 186.89 163.58
  L 186.89 164.24
  Q 186.89 164.66 186.51 164.84
  Q 185.84 165.17 185.87 165.86
  Q 185.89 166.44 185.49 166.86
  L 183.18 169.24
  Q 182.89 169.54 182.89 169.96
  L 182.89 170.27
  Q 182.89 170.53 182.70 170.72
  L 181.20 172.18
  Q 180.89 172.48 180.89 172.91
  L 180.89 173.27
  Q 180.89 173.53 180.70 173.72
  L 179.20 175.18
  Q 178.89 175.48 178.89 175.91
  L 178.89 176.25
  Q 178.89 176.51 178.70 176.70
  L 176.19 179.20
  Q 175.89 179.50 175.89 179.92
  L 175.89 180.27
  Q 175.89 180.53 175.70 180.72
  L 174.20 182.18
  Q 173.89 182.48 173.89 182.91
  L 173.89 183.27
  Q 173.89 183.53 173.70 183.72
  L 172.20 185.18
  Q 171.89 185.48 171.89 185.91
  L 171.89 186.25
  Q 171.89 186.51 171.70 186.70
  L 169.27 189.12
  A 1.30 1.30 0.0 0 0 168.89 190.04
  L 168.89 190.94
  Q 168.89 191.46 168.52 191.83
  L 165.19 195.22
  Q 164.89 195.53 164.89 195.95
  L 164.89 196.47
  Q 164.89 196.77 164.61 196.85
  Q 163.81 197.10 163.87 197.89
  Q 163.90 198.43 163.52 198.83
  L 162.08 200.30
  A 0.70 0.69 67.2 0 0 161.89 200.78
  L 161.89 201.25
  Q 161.89 201.51 161.70 201.70
  L 159.19 204.19
  Q 158.89 204.50 158.89 204.92
  L 158.89 205.27
  Q 158.89 205.53 158.70 205.72
  L 157.20 207.18
  Q 156.89 207.48 156.89 207.91
  L 156.89 208.27
  Q 156.89 208.53 156.70 208.72
  L 155.20 210.18
  Q 154.89 210.48 154.89 210.91
  L 154.89 211.25
  Q 154.89 211.51 154.70 211.70
  L 152.19 214.19
  Q 151.89 214.50 151.89 214.92
  L 151.89 215.47
  Q 151.89 215.77 151.61 215.86
  Q 150.83 216.10 150.87 216.85
  Q 150.89 217.41 150.51 217.81
  L 148.51 219.93
  Q 148.10 220.37 147.95 220.96
  Q 147.64 222.20 146.37 222.94
  Q 145.96 223.17 145.93 223.64
  Q 145.84 225.07 144.49 225.87
  Q 144.04 226.13 143.97 226.65
  Q 143.79 228.12 142.37 228.94
  A 0.87 0.86 -11.1 0 0 141.95 229.56
  Q 141.75 230.89 141.03 232.11
  Q 140.83 232.42 140.46 232.40
  Q 140.17 232.39 139.87 232.74
  Q 139.49 233.17 139.87 233.60
  Q 140.25 234.04 140.83 234.15
  Q 140.86 234.15 140.84 234.18
  Q 140.73 234.27 140.67 234.39
  Q 140.62 234.50 140.67 234.61
  Q 140.75 234.77 140.88 234.83
  Q 140.93 234.86 140.87 234.86
  Q 140.68 234.86 140.50 234.88
  Q 140.03 234.93 139.93 235.40
  L 139.82 235.92
  Q 139.71 236.43 140.18 236.63
  L 140.80 236.89
  Q 122.14 240.95 105.68 231.80
  Q 98.91 228.03 92.25 224.10
  Q 95.63 224.15 99.00 224.11
  Q 100.07 224.09 100.05 222.77
  Q 100.05 222.33 100.43 222.11
  Q 101.95 221.24 102.17 219.61
  Q 102.24 219.12 102.73 219.12
  L 103.32 219.12
  Q 103.63 219.12 103.85 218.91
  Q 104.17 218.61 104.14 218.13
  Q 104.11 217.55 104.51 217.14
  L 106.82 214.77
  Q 107.11 214.46 107.11 214.04
  L 107.12 213.74
  Q 107.12 213.48 107.30 213.30
  L 109.81 210.80
  Q 110.11 210.50 110.11 210.08
  L 110.11 209.73
  Q 110.11 209.47 110.30 209.28
  L 111.80 207.82
  Q 112.11 207.52 112.11 207.09
  L 112.11 206.73
  Q 112.11 206.47 112.30 206.28
  L 113.80 204.82
  Q 114.11 204.52 114.11 204.10
  L 114.12 203.52
  A 0.21 0.19 -24.2 0 1 114.18 203.38
  L 115.76 201.89
  Q 116.10 201.57 116.11 201.09
  L 116.12 200.53
  A 0.17 0.17 0.0 0 1 116.17 200.41
  L 117.80 198.82
  Q 118.11 198.52 118.11 198.09
  L 118.12 197.74
  Q 118.12 197.48 118.30 197.30
  L 120.81 194.81
  Q 121.11 194.51 121.11 194.08
  L 121.12 193.70
  Q 121.12 193.27 121.49 193.06
  Q 122.89 192.25 123.15 190.71
  Q 123.21 190.32 123.56 190.13
  Q 124.17 189.79 124.13 189.12
  Q 124.11 188.53 124.52 188.12
  L 127.92 184.69
  A 0.68 0.64 68.7 0 0 128.11 184.22
  L 128.12 183.06
  Q 128.12 182.54 128.48 182.18
  L 130.82 179.77
  Q 131.11 179.47 131.11 179.04
  L 131.12 178.74
  Q 131.12 178.48 131.30 178.30
  L 133.81 175.81
  Q 134.11 175.51 134.11 175.08
  L 134.12 174.53
  Q 134.12 174.23 134.40 174.14
  Q 135.17 173.90 135.14 173.14
  Q 135.11 172.56 135.51 172.14
  L 137.82 169.76
  Q 138.11 169.46 138.11 169.04
  L 138.11 168.53
  Q 138.11 168.23 138.39 168.15
  Q 139.17 167.90 139.14 167.14
  Q 139.11 166.56 139.51 166.14
  L 141.82 163.76
  Q 142.11 163.46 142.11 163.04
  L 142.11 162.75
  Q 142.11 162.49 142.30 162.30
  L 144.81 159.81
  Q 145.11 159.50 145.11 159.08
  L 145.11 158.53
  Q 145.11 158.23 145.39 158.15
  Q 146.17 157.90 146.14 157.14
  Q 146.11 156.56 146.51 156.14
  L 148.82 153.76
  Q 149.11 153.46 149.11 153.04
  L 149.11 152.73
  Q 149.11 152.47 149.30 152.28
  L 150.80 150.82
  Q 151.11 150.52 151.11 150.09
  L 151.12 149.70
  Q 151.12 149.25 151.51 149.03
  Q 153.25 148.05 153.15 146.11
  Q 153.13 145.68 153.40 145.34
  L 155.81 142.31
  Z" fill="#0bdf96"></path>
</svg>
