<svg viewBox="0.00 0.00 32.00 32.00" version="1.1" xmlns="http://www.w3.org/2000/svg">
<g stroke-linecap="butt" fill="none" stroke-width="2.00">
<path d="M 22.90 12.75
  L 20.84 12.51
  Q 20.34 12.45 19.86 12.64
  Q 18.37 13.23 17.04 12.38
  Q 16.64 12.12 16.31 12.46
  Q 15.97 12.80 15.66 12.78" stroke="#ff9446"></path>
<path d="M 16.16 26.18
  L 7.29 26.30" stroke="#fc6f50"></path>
</g>
<path d="M 22.90 12.75
  L 20.84 12.51
  Q 20.34 12.45 19.86 12.64
  Q 18.37 13.23 17.04 12.38
  Q 16.64 12.12 16.31 12.46
  Q 15.97 12.80 15.66 12.78
  Q 18.71 6.55 14.69 1.23
  Q 13.62 -0.18 15.16 0.68
  C 19.87 3.31 22.72 7.22 22.90 12.75
  Z" fill="#ffa847"></path>
<path d="M 15.66 12.78
  Q 15.97 12.80 16.31 12.46
  Q 16.64 12.12 17.04 12.38
  Q 18.37 13.23 19.86 12.64
  Q 20.34 12.45 20.84 12.51
  L 22.90 12.75
  Q 21.65 19.50 16.16 26.18
  L 7.29 26.30
  C 3.45 21.30 4.90 13.89 7.76 8.73
  Q 7.98 8.34 7.93 8.79
  C 7.30 14.37 11.99 16.47 15.66 12.78
  Z" fill="#fe7f45"></path>
<path d="M 18.67 25.47
  C 21.87 21.40 23.59 18.28 24.17 13.23
  Q 24.29 12.25 24.72 13.13
  C 29.42 22.83 26.41 26.12 18.44 31.20
  Q 18.06 31.44 17.93 31.01
  Q 16.98 27.61 18.67 25.47
  Z" fill="#fe7f45"></path>
<path d="M 16.16 26.18
  L 16.35 31.18
  Q 16.38 31.96 15.64 31.70
  Q 10.58 29.90 7.29 26.30
  L 16.16 26.18
  Z" fill="#f95e5b"></path>
</svg>
