<svg viewBox="0.00 0.00 512.00 512.00" version="1.1" xmlns="http://www.w3.org/2000/svg">
<path d="M 278.57 281.15
  C 244.78 261.87 212.65 241.40 191.20 207.77
  C 179.48 189.39 173.92 170.07 175.47 148.01
  Q 180.25 79.90 207.29 17.56
  Q 207.48 17.12 207.71 17.54
  L 352.29 277.65
  A 0.46 0.46 0.0 0 0 353.11 277.61
  Q 356.20 270.55 359.94 263.83
  C 373.21 239.98 400.23 232.53 425.17 241.93
  C 443.42 248.81 454.64 261.67 463.39 279.17
  C 466.15 284.70 468.02 286.18 473.51 288.16
  Q 482.44 291.40 491.32 294.14
  Q 492.02 294.35 491.32 294.56
  Q 481.19 297.56 470.59 299.36
  C 454.79 302.05 453.05 312.94 450.18 326.34
  Q 442.20 363.56 418.43 392.44
  C 392.57 423.85 359.58 442.69 318.49 444.83
  C 303.51 445.61 288.52 444.58 273.55 444.01
  Q 273.04 443.99 272.83 444.47
  C 257.87 479.42 221.08 493.17 185.59 494.76
  Q 185.02 494.79 185.02 494.21
  L 185.02 483.03
  Q 185.02 482.51 185.53 482.47
  C 216.53 479.71 245.02 471.54 260.52 441.67
  Q 260.78 441.17 260.23 441.05
  Q 255.82 440.07 251.51 438.95
  C 250.09 438.58 248.30 440.07 247.37 441.34
  C 232.27 461.95 209.68 469.53 185.36 473.37
  Q 184.79 473.46 184.71 472.89
  L 183.08 461.88
  Q 182.98 461.22 183.65 461.10
  C 203.95 457.42 223.20 451.96 236.51 434.91
  A 0.47 0.47 0.0 0 0 236.29 434.18
  C 206.68 423.75 180.81 405.51 161.94 379.80
  C 143.65 354.87 132.67 323.60 127.03 293.01
  A 0.78 0.77 84.6 0 0 126.27 292.38
  L 20.16 292.38
  Q 20.00 292.38 20.00 292.22
  L 20.00 154.78
  Q 20.00 154.06 20.48 154.59
  Q 87.86 230.48 130.04 278.94
  C 132.53 281.80 134.31 282.48 138.30 282.48
  Q 208.52 282.63 278.20 282.56
  Q 281.03 282.55 278.57 281.15
  Z
  M 429.81 282.76
  C 427.91 291.65 442.94 291.84 441.14 283.23
  C 439.80 276.78 431.33 275.64 429.81 282.76
  Z" fill="#1da2e3"></path>
</svg>
