<svg viewBox="0.00 0.00 100.00 100.00" version="1.1" xmlns="http://www.w3.org/2000/svg">
<g stroke-linecap="butt" fill="none" stroke-width="2.00">
<path d="M 68.66 29.73
  A 0.53 0.53 0.0 0 0 68.13 29.20
  L 35.53 29.20
  A 0.53 0.53 0.0 0 0 35.00 29.73
  L 35.00 37.47
  A 0.53 0.53 0.0 0 0 35.53 38.00
  L 68.13 38.00
  A 0.53 0.53 0.0 0 0 68.66 37.47
  L 68.66 29.73" stroke="#247f70"></path>
<path d="M 43.82 55.69
  A 0.42 0.42 0.0 0 1 44.24 55.27
  L 68.17 55.28
  A 0.42 0.42 0.0 0 0 68.59 54.86
  L 68.67 46.91
  A 0.42 0.42 0.0 0 0 68.25 46.49
  L 35.45 46.49
  A 0.42 0.42 0.0 0 0 35.03 46.91
  L 35.01 74.52
  A 0.42 0.42 0.0 0 0 35.43 74.94
  L 43.40 75.01
  A 0.42 0.42 0.0 0 0 43.82 74.59
  L 43.82 55.69" stroke="#247f70"></path>
</g>
<path d="M 0.00 0.00
  L 100.00 0.00
  L 100.00 100.00
  L 0.00 100.00
  L 0.00 0.00
  Z
  M 68.66 29.73
  A 0.53 0.53 0.0 0 0 68.13 29.20
  L 35.53 29.20
  A 0.53 0.53 0.0 0 0 35.00 29.73
  L 35.00 37.47
  A 0.53 0.53 0.0 0 0 35.53 38.00
  L 68.13 38.00
  A 0.53 0.53 0.0 0 0 68.66 37.47
  L 68.66 29.73
  Z
  M 43.82 55.69
  A 0.42 0.42 0.0 0 1 44.24 55.27
  L 68.17 55.28
  A 0.42 0.42 0.0 0 0 68.59 54.86
  L 68.67 46.91
  A 0.42 0.42 0.0 0 0 68.25 46.49
  L 35.45 46.49
  A 0.42 0.42 0.0 0 0 35.03 46.91
  L 35.01 74.52
  A 0.42 0.42 0.0 0 0 35.43 74.94
  L 43.40 75.01
  A 0.42 0.42 0.0 0 0 43.82 74.59
  L 43.82 55.69
  Z" fill="#47fee0"></path>
<rect rx="0.53" height="8.80" width="33.66" y="29.20" x="35.00" fill="#000000"></rect>
<path d="M 43.82 55.69
  L 43.82 74.59
  A 0.42 0.42 0.0 0 1 43.40 75.01
  L 35.43 74.94
  A 0.42 0.42 0.0 0 1 35.01 74.52
  L 35.03 46.91
  A 0.42 0.42 0.0 0 1 35.45 46.49
  L 68.25 46.49
  A 0.42 0.42 0.0 0 1 68.67 46.91
  L 68.59 54.86
  A 0.42 0.42 0.0 0 1 68.17 55.28
  L 44.24 55.27
  A 0.42 0.42 0.0 0 0 43.82 55.69
  Z" fill="#000000"></path>
</svg>
