<svg viewBox="0.00 0.00 128.00 128.00" version="1.1" xmlns="http://www.w3.org/2000/svg">
<path d="M 74.10 1.05
  C 84.72 2.84 95.66 7.52 103.83 14.60
  A 1.35 1.35 0.0 0 1 103.06 16.97
  Q 86.81 18.34 72.28 25.67
  A 1.80 1.78 36.8 0 1 71.12 25.83
  Q 56.79 23.14 44.27 30.38
  A 1.12 1.12 0.0 0 1 42.60 29.25
  C 43.93 19.59 46.50 10.97 55.30 5.05
  Q 63.83 -0.69 74.10 1.05
  Z" fill="#da0037"></path>
<path d="M 42.13 7.82
  C 37.86 17.22 35.39 27.47 34.71 37.76
  Q 34.67 38.29 34.33 38.69
  Q 25.13 49.71 25.00 64.22
  A 1.29 1.28 -69.5 0 1 22.88 65.19
  C 19.13 61.99 14.89 58.38 12.43 54.31
  Q 5.86 43.47 9.76 31.93
  C 13.80 20.00 28.69 9.49 39.77 5.31
  Q 44.00 3.71 42.13 7.82
  Z" fill="#da0037"></path>
<path d="M 94.36 24.99
  C 105.41 22.80 116.67 27.94 122.06 37.76
  C 127.26 47.26 128.32 61.70 127.15 72.26
  Q 126.99 73.74 126.58 74.60
  A 1.25 1.25 0.0 0 1 124.43 74.77
  Q 114.63 60.75 100.26 51.44
  A 1.49 1.47 -84.0 0 1 99.70 50.74
  Q 94.75 37.68 82.87 30.39
  A 1.03 1.03 0.0 0 1 82.60 28.87
  Q 83.31 27.98 84.69 27.53
  Q 89.44 25.97 94.36 24.99
  Z" fill="#da0037"></path>
<path d="M 44.20 100.22
  C 31.73 105.40 18.13 106.03 8.87 95.09
  C 0.61 85.35 -0.86 67.67 0.91 54.77
  A 1.41 1.36 -25.5 0 1 1.14 54.16
  Q 2.30 52.39 3.35 53.86
  Q 12.87 67.22 26.52 76.29
  Q 26.91 76.55 27.07 76.99
  Q 31.98 90.65 44.35 98.17
  A 1.15 1.15 0.0 0 1 44.20 100.22
  Z" fill="#da0037"></path>
<path d="M 93.41 88.93
  C 99.03 80.98 102.18 73.38 102.03 63.54
  A 1.26 1.26 0.0 0 1 104.09 62.55
  C 110.98 68.24 117.15 73.64 118.86 83.27
  Q 121.10 95.86 112.84 105.35
  Q 101.96 117.82 88.17 123.12
  Q 83.77 124.80 85.70 120.51
  Q 92.25 105.91 93.09 89.85
  Q 93.12 89.35 93.41 88.93
  Z" fill="#da0037"></path>
<path d="M 80.51 114.84
  C 68.10 136.78 39.99 126.41 25.03 114.74
  Q 21.28 111.82 26.01 111.34
  Q 41.53 109.76 55.48 102.82
  A 1.55 1.52 -52.7 0 1 56.44 102.68
  Q 70.95 105.20 83.43 97.63
  A 1.23 1.23 0.0 0 1 85.28 98.86
  C 84.49 104.37 83.15 110.15 80.51 114.84
  Z" fill="#da0037"></path>
</svg>
