<svg viewBox="0.00 0.00 1000.00 1000.00" version="1.1" xmlns="http://www.w3.org/2000/svg">
<g stroke-linecap="butt" fill="none" stroke-width="2.00">
<path d="M 515.96 27.37
  Q 516.29 28.24 514.14 28.17
  A 0.26 0.20 -35.1 0 0 514.00 28.61
  Q 514.25 28.62 514.49 28.69
  Q 514.99 28.85 514.54 29.12
  Q 514.18 29.34 513.70 29.37
  Q 513.23 29.41 513.25 29.87
  C 513.29 31.09 512.88 31.90 512.88 33.06
  Q 512.89 52.90 512.92 72.75
  Q 512.92 73.04 513.03 73.30
  Q 513.19 73.67 513.19 74.07
  L 513.02 336.06
  A 0.80 0.79 90.0 0 0 513.81 336.86
  L 528.87 336.88
  Q 528.88 336.88 528.88 336.95
  Q 528.88 336.98 528.88 337.01
  Q 528.88 337.13 528.75 337.13
  L 516.25 337.13
  A 0.24 0.18 88.5 0 0 516.07 337.38
  L 516.07 337.39
  Q 516.07 337.61 516.28 337.61
  L 546.71 337.69" stroke="#00d6c4"></path>
<path d="M 293.30 370.76
  Q 293.47 370.40 293.07 370.07
  Q 292.85 369.88 292.66 370.10
  Q 292.55 370.22 292.38 370.29
  A 0.19 0.18 77.8 0 1 292.12 370.12
  Q 292.12 345.36 292.09 320.75
  Q 292.09 320.50 292.00 320.26
  Q 291.87 319.93 291.87 319.58
  Q 291.84 226.11 291.89 132.64
  A 28.72 0.15 89.9 0 1 291.97 113.93
  Q 292.35 90.26 291.85 65.70" stroke="#00d0cd"></path>
<path d="M 710.70 27.52
  L 724.54 27.81
  Q 725.18 27.83 725.27 28.45
  Q 725.32 28.78 725.17 29.17
  Q 724.99 29.62 724.99 30.10
  L 725.01 335.74
  Q 725.01 336.06 725.17 336.34
  Q 725.33 336.62 725.21 336.90
  Q 725.03 337.31 725.49 337.32
  L 727.46 337.34" stroke="#00ddb9"></path>
<path d="M 515.23 406.78
  Q 514.88 407.46 513.49 407.41
  A 0.56 0.55 1.0 0 0 512.91 407.96
  Q 512.84 428.23 512.90 448.50
  Q 512.90 448.97 512.97 449.29
  Q 513.13 450.11 513.13 450.25
  L 513.13 677.25
  A 0.34 0.32 -27.4 0 1 513.06 677.45
  Q 512.94 677.57 512.94 677.75
  Q 512.88 695.79 512.88 713.82
  Q 512.88 714.00 512.96 714.15
  Q 513.06 714.33 513.16 714.51
  Q 513.32 714.80 513.00 714.89
  Q 512.70 714.97 512.52 714.80
  A 0.22 0.22 0.0 0 0 512.15 714.95
  Q 512.14 715.11 512.14 715.27
  Q 512.13 715.52 512.38 715.47
  Q 514.36 715.02 513.67 715.81" stroke="#00d6c4"></path>
<path d="M 294.47 766.58
  Q 293.45 766.01 293.09 766.82
  Q 292.94 767.15 292.59 767.07
  Q 292.43 767.03 292.30 766.89
  Q 292.12 766.70 292.12 766.30
  Q 292.12 739.52 292.13 712.75
  Q 292.13 712.48 292.04 712.29
  Q 291.92 712.06 291.92 711.81
  Q 291.68 579.47 292.13 447.14
  Q 292.13 446.73 291.96 446.40
  Q 291.80 446.10 291.63 445.74
  Q 291.40 445.24 290.95 445.56
  Q 290.20 446.08 290.24 445.51" stroke="#00d0cd"></path>
</g>
<path d="M 515.96 27.37
  Q 516.29 28.24 514.14 28.17
  A 0.26 0.20 -35.1 0 0 514.00 28.61
  Q 514.25 28.62 514.49 28.69
  Q 514.99 28.85 514.54 29.12
  Q 514.18 29.34 513.70 29.37
  Q 513.23 29.41 513.25 29.87
  C 513.29 31.09 512.88 31.90 512.88 33.06
  Q 512.89 52.90 512.92 72.75
  Q 512.92 73.04 513.03 73.30
  Q 513.19 73.67 513.19 74.07
  L 513.02 336.06
  A 0.80 0.79 90.0 0 0 513.81 336.86
  L 528.87 336.88
  Q 528.88 336.88 528.88 336.95
  Q 528.88 336.98 528.88 337.01
  Q 528.88 337.13 528.75 337.13
  L 516.25 337.13
  A 0.24 0.18 88.5 0 0 516.07 337.38
  L 516.07 337.39
  Q 516.07 337.61 516.28 337.61
  L 546.71 337.69
  Q 489.91 337.68 433.12 337.53
  C 384.10 337.39 336.49 347.79 293.30 370.76
  Q 293.47 370.40 293.07 370.07
  Q 292.85 369.88 292.66 370.10
  Q 292.55 370.22 292.38 370.29
  A 0.19 0.18 77.8 0 1 292.12 370.12
  Q 292.12 345.36 292.09 320.75
  Q 292.09 320.50 292.00 320.26
  Q 291.87 319.93 291.87 319.58
  Q 291.84 226.11 291.89 132.64
  A 28.72 0.15 89.9 0 1 291.97 113.93
  Q 292.35 90.26 291.85 65.70
  Q 327.08 45.25 368.59 34.91
  C 389.43 29.72 409.27 27.58 430.50 27.52
  Q 473.23 27.39 515.96 27.37
  Z" fill="#00d3c8"></path>
<path d="M 515.96 27.37
  L 710.70 27.52
  L 724.54 27.81
  Q 725.18 27.83 725.27 28.45
  Q 725.32 28.78 725.17 29.17
  Q 724.99 29.62 724.99 30.10
  L 725.01 335.74
  Q 725.01 336.06 725.17 336.34
  Q 725.33 336.62 725.21 336.90
  Q 725.03 337.31 725.49 337.32
  L 727.46 337.34
  L 546.71 337.69
  L 516.28 337.61
  Q 516.07 337.61 516.07 337.39
  L 516.07 337.38
  A 0.24 0.18 88.5 0 1 516.25 337.13
  L 528.75 337.13
  Q 528.88 337.13 528.88 337.01
  Q 528.88 336.98 528.88 336.95
  Q 528.88 336.88 528.87 336.88
  L 513.81 336.86
  A 0.80 0.79 90.0 0 1 513.02 336.06
  L 513.19 74.07
  Q 513.19 73.67 513.03 73.30
  Q 512.92 73.04 512.92 72.75
  Q 512.89 52.90 512.88 33.06
  C 512.88 31.90 513.29 31.09 513.25 29.87
  Q 513.23 29.41 513.70 29.37
  Q 514.18 29.34 514.54 29.12
  Q 514.99 28.85 514.49 28.69
  Q 514.25 28.62 514.00 28.61
  A 0.26 0.20 -35.1 0 1 514.14 28.17
  Q 516.29 28.24 515.96 27.37
  Z" fill="#00d9bf"></path>
<path d="M 710.70 27.52
  Q 722.61 27.56 734.50 27.80
  Q 782.57 28.73 821.02 56.19
  C 865.79 88.16 891.67 142.46 886.52 197.26
  C 880.06 265.94 821.91 326.62 752.75 335.44
  Q 741.15 336.92 727.46 337.34
  L 725.49 337.32
  Q 725.03 337.31 725.21 336.90
  Q 725.33 336.62 725.17 336.34
  Q 725.01 336.06 725.01 335.74
  L 724.99 30.10
  Q 724.99 29.62 725.17 29.17
  Q 725.32 28.78 725.27 28.45
  Q 725.18 27.83 724.54 27.81
  L 710.70 27.52
  Z" fill="#00e0b3"></path>
<path d="M 291.85 65.70
  Q 292.35 90.26 291.97 113.93
  A 28.72 0.15 89.9 0 0 291.89 132.64
  Q 291.84 226.11 291.87 319.58
  Q 291.87 319.93 292.00 320.26
  Q 292.09 320.50 292.09 320.75
  Q 292.12 345.36 292.12 370.12
  A 0.19 0.18 77.8 0 0 292.38 370.29
  Q 292.55 370.22 292.66 370.10
  Q 292.85 369.88 293.07 370.07
  Q 293.47 370.40 293.30 370.76
  C 234.65 402.69 191.62 454.43 161.79 513.25
  A 0.39 0.39 0.0 0 1 161.08 513.23
  Q 140.38 466.03 135.28 414.74
  C 132.64 388.27 131.49 364.09 133.31 339.26
  Q 141.59 226.60 210.09 137.59
  C 232.15 108.93 260.06 84.34 291.85 65.70
  Z" fill="#00ccd1"></path>
<path d="M 515.23 406.78
  Q 514.88 407.46 513.49 407.41
  A 0.56 0.55 1.0 0 0 512.91 407.96
  Q 512.84 428.23 512.90 448.50
  Q 512.90 448.97 512.97 449.29
  Q 513.13 450.11 513.13 450.25
  L 513.13 677.25
  A 0.34 0.32 -27.4 0 1 513.06 677.45
  Q 512.94 677.57 512.94 677.75
  Q 512.88 695.79 512.88 713.82
  Q 512.88 714.00 512.96 714.15
  Q 513.06 714.33 513.16 714.51
  Q 513.32 714.80 513.00 714.89
  Q 512.70 714.97 512.52 714.80
  A 0.22 0.22 0.0 0 0 512.15 714.95
  Q 512.14 715.11 512.14 715.27
  Q 512.13 715.52 512.38 715.47
  Q 514.36 715.02 513.67 715.81
  Q 494.82 717.21 475.75 716.73
  C 441.37 715.85 407.10 715.61 373.91 726.09
  C 345.27 735.14 318.40 748.22 294.47 766.58
  Q 293.45 766.01 293.09 766.82
  Q 292.94 767.15 292.59 767.07
  Q 292.43 767.03 292.30 766.89
  Q 292.12 766.70 292.12 766.30
  Q 292.12 739.52 292.13 712.75
  Q 292.13 712.48 292.04 712.29
  Q 291.92 712.06 291.92 711.81
  Q 291.68 579.47 292.13 447.14
  Q 292.13 446.73 291.96 446.40
  Q 291.80 446.10 291.63 445.74
  Q 291.40 445.24 290.95 445.56
  Q 290.20 446.08 290.24 445.51
  Q 352.87 408.14 425.50 406.66
  Q 463.39 405.88 515.23 406.78
  Z" fill="#00d3c8"></path>
<path d="M 515.23 406.78
  C 566.26 410.27 611.72 438.64 638.75 481.76
  C 683.49 553.11 659.76 644.32 591.13 690.14
  Q 556.97 712.95 513.67 715.81
  Q 514.36 715.02 512.38 715.47
  Q 512.13 715.52 512.14 715.27
  Q 512.14 715.11 512.15 714.95
  A 0.22 0.22 0.0 0 1 512.52 714.80
  Q 512.70 714.97 513.00 714.89
  Q 513.32 714.80 513.16 714.51
  Q 513.06 714.33 512.96 714.15
  Q 512.88 714.00 512.88 713.82
  Q 512.88 695.79 512.94 677.75
  Q 512.94 677.57 513.06 677.45
  A 0.34 0.32 -27.4 0 0 513.13 677.25
  L 513.13 450.25
  Q 513.13 450.11 512.97 449.29
  Q 512.90 448.97 512.90 448.50
  Q 512.84 428.23 512.91 407.96
  A 0.56 0.55 1.0 0 1 513.49 407.41
  Q 514.88 407.46 515.23 406.78
  Z" fill="#00d9bf"></path>
<path d="M 290.24 445.51
  Q 290.20 446.08 290.95 445.56
  Q 291.40 445.24 291.63 445.74
  Q 291.80 446.10 291.96 446.40
  Q 292.13 446.73 292.13 447.14
  Q 291.68 579.47 291.92 711.81
  Q 291.92 712.06 292.04 712.29
  Q 292.13 712.48 292.13 712.75
  Q 292.12 739.52 292.12 766.30
  Q 292.12 766.70 292.30 766.89
  Q 292.43 767.03 292.59 767.07
  Q 292.94 767.15 293.09 766.82
  Q 293.45 766.01 294.47 766.58
  C 254.32 798.03 229.56 841.15 218.10 890.51
  Q 212.23 915.78 212.81 941.76
  Q 213.15 957.19 213.29 972.14
  Q 213.29 973.17 212.60 972.41
  C 192.94 950.93 176.50 926.48 164.49 899.97
  C 94.16 744.77 140.49 537.90 290.24 445.51
  Z" fill="#00ccd1"></path>
</svg>
