<svg viewBox="0.00 0.00 192.00 192.00" version="1.1" xmlns="http://www.w3.org/2000/svg">
<g stroke-linecap="butt" fill="none" stroke-width="2.00">
<path d="M 93.45 61.67
  L 84.66 48.38" stroke="#9f603f"></path>
<path d="M 84.66 48.38
  L 66.15 18.52" stroke="#724d42"></path>
<path d="M 84.66 48.38
  Q 74.32 52.39 64.29 56.85
  Q 63.48 57.21 63.24 57.96" stroke="#cf5929"></path>
<path d="M 63.24 57.96
  Q 63.01 57.87 62.79 57.91
  Q 62.27 58.01 62.21 58.54
  L 56.93 112.28" stroke="#724d42"></path>
<path d="M 38.26 67.22
  L 61.46 57.97
  A 0.65 0.65 0.0 0 0 61.58 56.83
  L 42.75 43.99" stroke="#cc6655"></path>
<path d="M 93.51 77.61
  L 63.24 57.96" stroke="#9f603f"></path>
<path d="M 93.59 104.00
  Q 90.09 96.01 88.19 87.51
  Q 87.22 83.19 83.12 86.19
  A 1.94 1.84 -2.2 0 0 82.68 86.64
  L 61.20 118.29" stroke="#9f603f"></path>
<path d="M 100.01 15.25
  Q 98.99 16.52 99.94 17.21
  Q 102.32 18.94 101.43 16.14
  Q 101.11 15.15 100.01 15.25" stroke="#f97953"></path>
<path d="M 102.48 105.23
  Q 101.87 106.07 100.54 105.97
  Q 100.03 105.93 99.58 106.19
  Q 98.18 107.02 96.47 107.08" stroke="#e49c87"></path>
<path d="M 102.64 107.24
  L 96.57 108.63" stroke="#e49c87"></path>
<path d="M 113.26 144.35
  L 90.26 144.65" stroke="#96502d"></path>
<path d="M 90.26 144.65
  L 67.08 144.25" stroke="#925c5a"></path>
<path d="M 113.74 145.25
  L 96.99 146.32" stroke="#f97953"></path>
<path d="M 96.99 146.32
  Q 95.28 145.81 93.85 145.90" stroke="#96502d"></path>
<path d="M 90.26 144.65
  Q 94.38 144.18 93.85 145.90" stroke="#f97953"></path>
<path d="M 93.85 145.90
  Q 83.60 146.08 73.50 146.25
  Q 69.97 146.32 66.12 148.40" stroke="#925c5a"></path>
<path d="M 120.74 146.71
  Q 120.62 146.73 120.49 146.80
  Q 120.35 146.88 120.19 146.88
  L 96.99 146.32" stroke="#925c5a"></path>
<path d="M 82.21 157.18
  C 80.94 158.30 80.09 159.00 78.32 159.05
  Q 76.05 159.11 76.57 159.83" stroke="#c47249"></path>
<path d="M 76.57 159.83
  L 70.56 159.44" stroke="#5e5550"></path>
<path d="M 70.56 159.44
  Q 71.05 158.51 70.50 157.22" stroke="#c47249"></path>
<path d="M 123.03 159.99
  Q 118.01 160.25 113.01 159.93
  C 111.89 159.86 111.48 159.35 111.08 158.39
  A 0.37 0.37 0.0 0 0 110.40 158.39
  Q 110.24 158.78 110.22 159.21
  Q 110.20 159.79 109.62 159.79
  L 76.57 159.83" stroke="#96502d"></path>
<path d="M 120.75 169.73
  Q 121.00 168.92 120.00 168.83
  Q 116.07 168.47 110.95 169.17" stroke="#5e5550"></path>
<path d="M 110.95 169.17
  L 80.51 168.97" stroke="#96502d"></path>
<path d="M 80.51 168.97
  Q 78.50 168.60 76.80 169.09" stroke="#5e5550"></path>
<path d="M 76.80 169.09
  Q 72.88 168.59 69.88 169.49" stroke="#96502d"></path>
<path d="M 70.56 159.44
  L 65.90 161.15" stroke="#96502d"></path>
<path d="M 110.95 169.17
  Q 110.36 169.36 111.11 169.59
  A 0.85 0.84 19.8 0 1 111.65 170.73
  Q 111.22 171.76 110.34 172.51
  Q 109.53 173.19 110.58 173.12
  C 111.88 173.05 114.02 170.97 115.70 169.55
  A 0.92 0.92 0.0 0 1 116.59 169.39
  L 119.80 170.51" stroke="#c47249"></path>
<path d="M 109.23 176.15
  Q 108.92 175.64 108.76 174.77
  Q 108.68 174.29 108.20 174.22
  Q 107.20 174.05 106.28 173.80
  C 105.17 173.50 104.14 173.89 103.03 173.00
  Q 102.63 172.68 102.13 172.69
  L 90.84 172.70" stroke="#96502d"></path>
<path d="M 90.84 172.70
  L 89.25 172.37
  Q 88.80 172.27 88.52 171.90
  L 86.91 169.80
  Q 86.71 169.54 86.48 169.77
  L 86.26 169.99
  Q 86.00 170.26 86.17 170.59
  L 87.35 172.92" stroke="#c47249"></path>
<path d="M 87.35 172.92
  Q 85.30 174.20 82.67 174.74" stroke="#96502d"></path>
<path d="M 80.51 168.97
  Q 80.38 170.33 81.28 170.97
  Q 81.70 171.27 82.15 171.03
  Q 83.11 170.51 83.99 169.88
  Q 84.34 169.63 84.61 170.04
  Q 84.85 170.39 84.57 170.71
  L 82.82 172.65
  A 1.36 1.36 0.0 0 1 80.63 172.43
  L 78.85 169.38
  Q 78.70 169.13 78.42 169.21
  Q 78.24 169.26 78.08 169.47
  Q 77.86 169.76 77.90 170.12
  Q 78.33 174.37 82.67 174.74" stroke="#c47249"></path>
<path d="M 82.67 174.74
  Q 82.76 174.94 82.27 176.10" stroke="#5e5550"></path>
<path d="M 79.46 176.76
  Q 78.41 173.90 75.74 172.65
  Q 75.24 172.41 75.48 171.91
  L 76.80 169.09" stroke="#c47249"></path>
<path d="M 90.84 172.70
  Q 89.30 173.40 87.35 172.92" stroke="#5e5550"></path>
</g>
<path d="M 93.45 61.67
  L 84.66 48.38
  L 66.15 18.52
  C 73.21 12.89 93.33 3.64 93.52 21.21
  Q 93.73 41.05 93.45 61.67
  Z" fill="#415458"></path>
<path d="M 109.58 32.06
  Q 107.48 27.88 105.15 25.60
  C 103.33 23.82 103.49 15.36 103.49 12.82
  A 1.26 1.26 0.0 0 1 104.75 11.56
  C 108.08 11.57 111.55 11.11 112.84 15.18
  C 113.58 17.55 114.27 19.55 115.44 21.76
  Q 116.63 24.00 114.80 26.80
  Q 112.78 29.90 111.14 32.18
  Q 110.25 33.42 109.58 32.06
  Z" fill="#fc6c26"></path>
<path d="M 100.01 15.25
  Q 98.99 16.52 99.94 17.21
  Q 102.32 18.94 101.43 16.14
  Q 101.11 15.15 100.01 15.25
  L 99.49 13.71
  Q 99.23 12.93 100.00 12.70
  L 101.14 12.35
  A 0.78 0.78 0.0 0 1 102.14 13.02
  L 102.90 21.25
  Q 103.03 22.62 101.95 21.76
  L 97.86 18.49
  A 1.76 1.76 0.0 0 1 97.22 16.84
  Q 97.37 15.93 97.82 15.14
  A 0.70 0.69 -66.2 0 1 98.63 14.82
  L 100.01 15.25
  Z" fill="#fc6c26"></path>
<path d="M 113.28 13.69
  Q 113.00 12.97 113.69 13.30
  L 119.24 15.91
  A 0.95 0.95 0.0 0 1 119.71 17.13
  L 117.95 21.46
  A 0.83 0.83 0.0 0 1 116.41 21.46
  L 113.28 13.69
  Z" fill="#fc6c26"></path>
<path d="M 100.01 15.25
  Q 101.11 15.15 101.43 16.14
  Q 102.32 18.94 99.94 17.21
  Q 98.99 16.52 100.01 15.25
  Z" fill="#f5857f"></path>
<path d="M 66.15 18.52
  L 84.66 48.38
  Q 74.32 52.39 64.29 56.85
  Q 63.48 57.21 63.24 57.96
  Q 63.01 57.87 62.79 57.91
  Q 62.27 58.01 62.21 58.54
  L 56.93 112.28
  Q 50.89 105.47 45.27 99.52
  Q 42.09 96.14 40.80 90.26
  Q 38.20 78.32 38.26 67.22
  L 61.46 57.97
  A 0.65 0.65 0.0 0 0 61.58 56.83
  L 42.75 43.99
  Q 44.27 39.91 45.62 38.12
  Q 54.29 26.66 66.15 18.52
  Z" fill="#a2462b"></path>
<path d="M 119.74 20.22
  C 121.07 16.06 125.57 20.56 126.88 22.01
  A 1.60 1.60 0.0 0 1 127.02 24.00
  L 123.24 29.51
  A 0.43 0.43 0.0 0 1 122.62 29.61
  Q 117.93 25.90 119.74 20.22
  Z" fill="#fc6c26"></path>
<path d="M 14.62 20.55
  L 15.11 20.19
  Q 16.85 18.91 18.39 20.41
  L 39.03 40.50
  Q 40.58 42.00 39.82 44.02
  L 39.61 44.57
  Q 38.91 46.41 37.49 45.04
  L 14.47 22.81
  A 1.48 1.48 0.0 0 1 14.62 20.55
  Z" fill="#cccce8"></path>
<path d="M 96.37 22.03
  Q 96.37 18.78 98.88 20.83
  L 100.12 21.84
  Q 102.87 24.08 103.27 27.61
  L 104.62 39.57
  Q 104.83 41.49 103.01 42.13
  L 98.26 43.81
  Q 96.41 44.47 96.40 42.50
  L 96.37 22.03
  Z" fill="#fc6c26"></path>
<path d="M 172.14 19.63
  A 1.35 1.35 0.0 0 1 174.20 20.02
  L 174.44 20.46
  Q 175.39 22.23 173.94 23.62
  L 151.22 45.50
  Q 150.23 46.46 149.65 45.21
  L 148.77 43.27
  A 1.81 1.81 0.0 0 1 149.43 41.00
  C 151.57 39.60 153.27 37.36 154.63 36.12
  C 160.57 30.67 164.90 25.79 172.14 19.63
  Z" fill="#cccce8"></path>
<path d="M 138.98 34.95
  Q 139.61 36.33 138.15 36.72
  C 132.02 38.37 128.93 36.56 124.74 32.37
  A 1.95 1.95 0.0 0 1 124.52 29.89
  L 128.11 24.71
  A 0.97 0.97 0.0 0 1 129.39 24.43
  Q 135.90 28.19 138.98 34.95
  Z" fill="#fc6c26"></path>
<path d="M 114.56 37.91
  Q 114.11 38.92 113.43 38.05
  L 111.82 36.00
  A 1.94 1.94 0.0 0 1 111.71 33.76
  L 116.19 26.73
  Q 117.57 24.56 117.65 27.13
  Q 117.76 30.62 114.56 37.91
  Z" fill="#fc6c26"></path>
<path d="M 108.47 36.49
  L 107.26 38.55
  A 0.81 0.81 0.0 0 1 105.75 38.24
  L 104.52 28.23
  Q 104.31 26.51 105.45 27.82
  Q 107.54 30.23 108.72 33.24
  A 3.76 3.74 -40.8 0 1 108.47 36.49
  Z" fill="#fc6c26"></path>
<path d="M 116.62 36.18
  Q 118.36 32.78 118.71 28.98
  Q 118.83 27.71 119.83 28.50
  C 123.75 31.58 119.98 34.85 117.77 37.02
  Q 114.59 40.15 116.62 36.18
  Z" fill="#fc6c26"></path>
<path d="M 128.04 38.30
  Q 123.62 39.32 119.08 39.45
  Q 117.45 39.49 118.49 38.24
  L 121.63 34.49
  A 2.04 2.03 38.4 0 1 124.42 34.17
  L 128.29 37.10
  Q 129.44 37.97 128.04 38.30
  Z" fill="#fc6c26"></path>
<path d="M 107.99 39.71
  L 109.52 36.95
  A 0.85 0.84 35.3 0 1 110.82 36.73
  Q 111.96 37.76 112.69 39.13
  Q 113.38 40.40 111.93 40.43
  L 108.47 40.51
  Q 107.53 40.53 107.99 39.71
  Z" fill="#fc6c26"></path>
<path d="M 145.02 40.86
  Q 145.49 42.09 145.94 43.41
  Q 146.08 43.82 145.67 43.96
  Q 144.66 44.31 144.04 43.68
  Q 141.80 41.43 141.54 39.86
  Q 140.92 36.06 143.80 38.61
  Q 144.33 39.09 145.02 40.86
  Z" fill="#fc6c26"></path>
<path d="M 134.66 40.22
  Q 132.97 39.53 134.69 38.89
  Q 136.51 38.22 139.02 38.54
  Q 140.38 38.72 140.50 40.09
  L 140.61 41.34
  Q 140.73 42.71 139.46 42.19
  L 134.66 40.22
  Z" fill="#fc6c26"></path>
<path d="M 127.46 57.33
  C 121.10 54.61 118.49 48.19 115.96 42.49
  A 1.34 1.34 0.0 0 1 117.09 40.62
  Q 123.62 40.13 130.00 39.56
  C 130.75 39.50 131.80 39.66 132.51 40.16
  Q 136.46 42.94 140.82 44.22
  A 1.59 1.58 -68.2 0 1 141.77 46.46
  Q 138.76 52.29 135.05 57.28
  C 132.94 60.12 130.04 58.43 127.46 57.33
  Z" fill="#fc6c26"></path>
<path d="M 113.19 43.00
  L 109.04 50.11
  A 1.01 1.01 0.0 0 1 107.16 49.54
  L 107.50 43.82
  A 2.14 2.13 89.7 0 1 109.47 41.82
  L 112.32 41.61
  Q 114.08 41.48 113.19 43.00
  Z" fill="#fc6c26"></path>
<path d="M 103.96 43.99
  A 0.41 0.41 0.0 0 1 104.40 43.62
  L 104.80 43.65
  A 1.33 1.27 -85.3 0 1 105.95 45.08
  L 105.72 47.95
  A 1.33 1.27 -85.3 0 1 104.34 49.17
  L 103.95 49.14
  A 0.41 0.41 0.0 0 1 103.57 48.70
  L 103.96 43.99
  Z" fill="#fc6c26"></path>
<path d="M 115.05 43.94
  L 119.82 52.86
  A 0.47 0.47 0.0 0 1 119.25 53.53
  L 110.80 50.66
  A 0.47 0.47 0.0 0 1 110.55 49.97
  L 114.23 43.91
  A 0.47 0.47 0.0 0 1 115.05 43.94
  Z" fill="#fc6c26"></path>
<path d="M 101.84 44.34
  Q 102.87 44.07 102.64 45.10
  L 102.30 46.62
  Q 102.07 47.67 101.02 47.95
  Q 99.04 48.48 98.38 48.29
  Q 94.70 47.24 98.08 45.44
  Q 98.49 45.22 101.84 44.34
  Z" fill="#fc6c26"></path>
<path d="M 42.75 43.99
  L 61.58 56.83
  A 0.65 0.65 0.0 0 1 61.46 57.97
  L 38.26 67.22
  L 42.75 43.99
  Z" fill="#f5857f"></path>
<path d="M 144.00 46.66
  A 0.68 0.67 -89.7 0 1 144.87 45.79
  L 146.47 46.40
  A 1.75 1.74 -84.1 0 1 147.56 47.75
  L 149.03 56.85
  Q 149.11 57.34 148.62 57.39
  L 148.36 57.43
  A 0.46 0.46 0.0 0 1 147.88 57.14
  L 144.00 46.66
  Z" fill="#fc6c26"></path>
<path d="M 145.68 54.16
  C 147.52 58.63 150.28 63.78 150.71 68.33
  Q 151.05 71.89 150.51 75.55
  A 0.73 0.73 0.0 0 1 149.90 76.16
  Q 147.45 76.52 145.12 75.78
  A 1.24 1.21 -2.6 0 1 144.38 75.12
  Q 140.65 66.76 133.77 60.72
  A 0.79 0.78 44.3 0 1 133.75 59.55
  C 137.33 56.20 139.34 52.74 141.96 48.60
  A 0.70 0.70 0.0 0 1 143.18 48.66
  Q 144.48 51.24 145.68 54.16
  Z" fill="#fc6c26"></path>
<path d="M 84.66 48.38
  L 93.45 61.67
  L 93.51 77.61
  L 63.24 57.96
  Q 63.48 57.21 64.29 56.85
  Q 74.32 52.39 84.66 48.38
  Z" fill="#fc6c26"></path>
<path d="M 100.42 50.54
  C 100.21 52.48 99.35 57.42 97.40 59.09
  Q 96.75 59.65 96.75 58.79
  L 96.76 50.07
  Q 96.76 49.85 96.98 49.88
  L 100.23 50.29
  Q 100.45 50.32 100.42 50.54
  Z" fill="#fc6c26"></path>
<path d="M 101.50 54.14
  Q 101.92 52.77 102.40 51.35
  Q 102.61 50.74 103.25 50.78
  L 105.52 50.95
  Q 106.12 50.99 106.15 51.60
  C 106.29 55.30 103.33 59.64 101.60 62.82
  Q 101.02 63.90 100.81 62.69
  Q 100.13 58.70 101.50 54.14
  Z" fill="#fc6c26"></path>
<path d="M 125.83 62.31
  A 1.28 1.27 -23.1 0 1 125.10 64.11
  C 121.28 65.40 116.23 67.96 112.16 68.00
  Q 110.42 68.02 110.12 66.31
  L 108.10 54.89
  A 2.12 2.12 0.0 0 1 109.66 52.47
  C 112.11 51.83 116.90 53.61 119.30 54.62
  C 122.96 56.15 124.09 58.93 125.83 62.31
  Z" fill="#fc6c26"></path>
<path d="M 102.59 63.29
  L 105.91 57.26
  Q 107.08 55.12 107.52 57.52
  L 109.28 67.07
  A 0.68 0.68 0.0 0 1 108.35 67.82
  L 103.46 65.77
  A 1.77 1.76 25.8 0 1 102.59 63.29
  Z" fill="#fc6c26"></path>
<path d="M 126.38 61.67
  L 124.47 57.77
  Q 124.02 56.84 124.94 57.31
  L 129.83 59.79
  A 0.72 0.72 0.0 0 1 129.87 61.05
  L 127.99 62.15
  Q 126.92 62.77 126.38 61.67
  Z" fill="#fc6c26"></path>
<path d="M 63.24 57.96
  L 93.51 77.61
  L 93.59 104.00
  Q 90.09 96.01 88.19 87.51
  Q 87.22 83.19 83.12 86.19
  A 1.94 1.84 -2.2 0 0 82.68 86.64
  L 61.20 118.29
  L 56.93 112.28
  L 62.21 58.54
  Q 62.27 58.01 62.79 57.91
  Q 63.01 57.87 63.24 57.96
  Z" fill="#415458"></path>
<path d="M 98.06 60.96
  Q 98.27 60.15 98.83 59.52
  A 0.34 0.33 71.3 0 1 99.41 59.81
  Q 99.20 60.89 99.34 61.99
  A 0.38 0.37 83.3 0 1 99.01 62.42
  Q 98.27 62.50 98.05 61.36
  A 0.92 0.90 -44.3 0 1 98.06 60.96
  Z" fill="#fc6c26"></path>
<path d="M 132.76 74.29
  C 128.62 73.93 128.30 67.85 128.03 64.73
  Q 127.86 62.80 129.77 62.01
  C 134.38 60.10 140.71 70.51 142.60 73.82
  A 0.75 0.74 -13.3 0 1 141.91 74.93
  Q 137.46 74.69 132.76 74.29
  Z" fill="#fc6c26"></path>
<path d="M 99.54 64.97
  L 99.46 68.94
  A 0.35 0.35 0.0 0 1 99.13 69.28
  L 96.84 69.41
  A 0.35 0.35 0.0 0 1 96.47 69.07
  L 96.35 63.70
  A 0.35 0.35 0.0 0 1 96.86 63.38
  L 99.35 64.65
  A 0.35 0.35 0.0 0 1 99.54 64.97
  Z" fill="#fc6c26"></path>
<path d="M 124.61 65.15
  A 1.00 0.95 -64.9 0 1 124.84 65.06
  Q 126.87 64.50 127.22 66.33
  Q 127.80 69.26 128.14 72.11
  A 0.59 0.59 0.0 0 1 127.47 72.76
  L 111.89 70.53
  Q 111.53 70.48 111.37 70.15
  Q 111.27 69.96 111.26 69.75
  Q 111.22 69.28 111.69 69.23
  Q 118.58 68.52 124.61 65.15
  Z" fill="#fc6c26"></path>
<path d="M 101.60 66.83
  L 109.64 69.34
  A 0.23 0.23 0.0 0 1 109.79 69.64
  L 109.65 70.03
  A 0.23 0.23 0.0 0 1 109.42 70.18
  L 101.45 69.80
  A 0.23 0.23 0.0 0 1 101.23 69.56
  L 101.30 67.04
  A 0.23 0.23 0.0 0 1 101.60 66.83
  Z" fill="#fc6c26"></path>
<rect rx="0.28" height="4.10" width="23.18" y="69.00" x="11.66" fill="#cccce8"></rect>
<rect rx="0.27" height="4.10" width="23.60" y="69.00" x="154.14" fill="#cccce8"></rect>
<path d="M 96.25 75.82
  L 96.32 71.40
  A 0.53 0.53 0.0 0 1 96.85 70.88
  L 98.83 70.87
  A 0.53 0.53 0.0 0 1 99.36 71.40
  L 99.39 77.24
  A 0.53 0.53 0.0 0 1 98.56 77.68
  L 96.48 76.26
  A 0.53 0.53 0.0 0 1 96.25 75.82
  Z" fill="#fc6c26"></path>
<path d="M 110.92 73.51
  L 111.54 84.16
  A 0.97 0.97 0.0 0 1 110.77 85.17
  C 107.29 85.89 104.73 82.33 102.30 80.51
  A 2.97 2.96 19.1 0 1 101.10 78.05
  L 101.23 73.11
  Q 101.28 71.25 103.14 71.25
  L 108.52 71.25
  Q 110.79 71.25 110.92 73.51
  Z" fill="#fc6c26"></path>
<path d="M 128.44 75.12
  C 128.86 77.88 126.62 81.58 125.52 84.07
  A 1.40 1.39 -77.2 0 1 124.22 84.89
  L 113.48 84.70
  A 0.78 0.77 87.9 0 1 112.72 83.99
  L 111.64 72.61
  A 0.69 0.69 0.0 0 1 112.43 71.87
  L 127.45 74.13
  A 1.18 1.18 0.0 0 1 128.44 75.12
  Z" fill="#fc6c26"></path>
<path d="M 129.83 75.13
  A 0.27 0.27 0.0 0 1 130.14 74.90
  L 142.48 76.67
  A 1.95 1.94 -84.3 0 1 144.15 78.72
  L 143.89 83.11
  Q 143.79 84.75 142.15 84.75
  L 127.37 84.76
  Q 126.95 84.76 127.12 84.37
  Q 129.15 79.93 129.83 75.13
  Z" fill="#fc6c26"></path>
<path d="M 145.03 84.35
  L 145.24 77.99
  A 0.66 0.66 0.0 0 1 145.94 77.35
  L 149.41 77.58
  A 0.66 0.66 0.0 0 1 149.99 78.45
  L 148.12 83.95
  A 0.66 0.66 0.0 0 1 147.72 84.36
  L 145.91 84.99
  A 0.66 0.66 0.0 0 1 145.03 84.35
  Z" fill="#fc6c26"></path>
<path d="M 96.39 79.01
  A 0.45 0.45 0.0 0 1 97.10 78.64
  Q 100.08 80.73 98.74 84.62
  Q 98.57 85.13 98.03 85.13
  L 96.98 85.13
  Q 96.42 85.13 96.42 84.58
  L 96.39 79.01
  Z" fill="#fc6c26"></path>
<path d="M 104.73 85.12
  L 101.72 85.13
  A 0.47 0.47 0.0 0 1 101.25 84.66
  L 101.25 82.80
  A 0.47 0.47 0.0 0 1 101.97 82.40
  L 104.98 84.25
  A 0.47 0.47 0.0 0 1 104.73 85.12
  Z" fill="#fc6c26"></path>
<path d="M 93.59 104.00
  Q 93.82 116.77 93.72 122.50
  C 93.44 137.83 77.59 131.04 69.70 127.58
  Q 64.21 125.18 61.20 118.29
  L 82.68 86.64
  A 1.94 1.84 -2.2 0 1 83.12 86.19
  Q 87.22 83.19 88.19 87.51
  Q 90.09 96.01 93.59 104.00
  Z" fill="#fc6c26"></path>
<path d="M 122.90 89.43
  Q 125.46 85.39 129.98 85.62
  Q 136.10 85.92 142.19 86.26
  Q 142.63 86.28 142.57 86.72
  Q 142.05 90.62 140.00 92.49
  C 137.36 94.89 132.85 98.16 128.89 96.90
  Q 125.69 95.87 122.74 94.22
  Q 121.46 93.50 121.71 92.00
  Q 121.80 91.43 121.37 91.81
  C 119.64 93.36 115.83 90.54 114.58 89.58
  Q 110.80 86.67 115.57 86.49
  L 123.06 86.20
  Q 123.76 86.17 123.51 86.82
  L 122.58 89.27
  A 0.18 0.18 0.0 0 0 122.90 89.43
  Z" fill="#fc6c26"></path>
<path d="M 144.64 87.82
  Q 144.15 88.51 143.92 87.70
  Q 143.56 86.44 144.99 86.20
  Q 145.90 86.06 145.36 86.81
  L 144.64 87.82
  Z" fill="#fc6c26"></path>
<path d="M 112.28 90.72
  C 113.34 92.81 113.04 100.81 112.22 103.01
  C 111.14 105.92 107.16 105.82 104.00 105.22
  Q 103.54 105.13 103.45 104.68
  C 102.34 98.90 100.71 93.15 101.40 87.22
  Q 101.45 86.79 101.86 86.64
  C 105.95 85.19 110.36 86.93 112.28 90.72
  Z" fill="#fc6c26"></path>
<path d="M 148.67 87.43
  C 148.86 93.13 145.44 98.09 140.94 102.18
  Q 140.00 103.04 138.85 102.48
  L 136.43 101.31
  A 0.93 0.93 0.0 0 1 136.12 99.87
  L 147.04 86.87
  Q 148.60 85.01 148.67 87.43
  Z" fill="#fc6c26"></path>
<path d="M 102.48 105.23
  Q 101.87 106.07 100.54 105.97
  Q 100.03 105.93 99.58 106.19
  Q 98.18 107.02 96.47 107.08
  L 96.39 87.16
  Q 96.39 86.55 96.99 86.59
  L 98.76 86.73
  A 0.67 0.67 0.0 0 1 99.38 87.33
  Q 100.04 93.70 101.85 103.74
  Q 102.05 104.83 102.48 105.23
  Z" fill="#fc6c26"></path>
<path d="M 118.17 93.70
  L 113.84 103.21
  A 0.31 0.31 0.0 0 1 113.25 103.09
  L 113.26 90.93
  A 0.31 0.31 0.0 0 1 113.73 90.67
  L 118.05 93.31
  A 0.31 0.31 0.0 0 1 118.17 93.70
  Z" fill="#fc6c26"></path>
<path d="M 128.38 99.49
  Q 122.49 102.46 115.96 103.51
  A 0.35 0.35 0.0 0 1 115.57 103.05
  L 118.27 95.07
  A 1.20 1.19 21.3 0 1 119.88 94.37
  L 128.35 98.16
  Q 129.77 98.79 128.38 99.49
  Z" fill="#fc6c26"></path>
<path d="M 136.25 96.49
  Q 136.71 96.36 136.56 96.81
  Q 135.98 98.52 134.34 99.30
  Q 133.49 99.71 133.41 98.76
  Q 133.30 97.32 136.25 96.49
  Z" fill="#fc6c26"></path>
<path d="M 15.83 117.09
  A 1.12 1.12 0.0 0 1 14.28 116.76
  L 13.73 115.91
  A 2.63 2.60 57.2 0 1 14.49 112.29
  L 37.39 97.53
  A 2.63 2.60 57.2 0 1 41.00 98.33
  L 41.55 99.18
  A 1.12 1.12 0.0 0 1 41.21 100.73
  L 15.83 117.09
  Z" fill="#cccce8"></path>
<rect rx="1.72" height="4.36" width="32.50" transform="translate(161.57,106.87) rotate(32.4)" y="-2.18" x="-16.25" fill="#cccce8"></rect>
<path d="M 127.18 101.42
  C 129.11 100.22 131.15 98.91 132.72 100.94
  Q 133.00 101.30 132.68 101.64
  Q 128.71 105.81 124.22 111.47
  C 122.11 114.13 117.70 114.80 115.00 115.14
  Q 113.19 115.37 113.21 113.55
  L 113.28 107.23
  A 2.40 2.39 -4.1 0 1 115.31 104.89
  Q 123.62 103.62 127.18 101.42
  Z" fill="#fc6c26"></path>
<path d="M 138.01 105.32
  C 135.57 108.82 130.66 111.78 126.52 112.32
  Q 124.78 112.56 125.94 111.24
  L 133.16 103.09
  Q 134.52 101.55 136.39 102.42
  L 137.36 102.88
  Q 139.13 103.71 138.01 105.32
  Z" fill="#fc6c26"></path>
<path d="M 102.48 105.23
  Q 102.96 105.80 102.64 107.24
  L 96.57 108.63
  L 96.47 107.08
  Q 98.18 107.02 99.58 106.19
  Q 100.03 105.93 100.54 105.97
  Q 101.87 106.07 102.48 105.23
  Z" fill="#cccce8"></path>
<path d="M 106.02 113.80
  Q 104.44 110.94 104.09 107.66
  A 1.07 1.07 0.0 0 1 105.03 106.48
  L 111.61 105.73
  A 0.54 0.53 10.2 0 1 112.15 106.50
  L 108.47 113.75
  A 1.39 1.39 0.0 0 1 106.02 113.80
  Z" fill="#fc6c26"></path>
<path d="M 102.64 107.24
  L 104.25 112.89
  Q 104.46 113.62 103.71 113.50
  C 101.29 113.13 94.53 113.01 96.57 108.63
  L 102.64 107.24
  Z" fill="#fc6c26"></path>
<path d="M 109.58 114.78
  Q 109.68 112.87 110.91 111.44
  A 0.47 0.47 0.0 0 1 111.74 111.75
  L 111.75 114.75
  A 0.38 0.38 0.0 0 1 111.37 115.13
  L 109.91 115.12
  A 0.33 0.33 0.0 0 1 109.58 114.78
  Z" fill="#fc6c26"></path>
<path d="M 121.17 118.71
  C 123.66 112.46 125.76 114.73 130.23 112.46
  Q 134.03 110.53 131.34 113.83
  Q 128.62 117.17 125.34 122.13
  C 124.31 123.69 123.13 124.10 121.55 123.10
  C 119.72 121.95 120.54 120.30 121.17 118.71
  Z" fill="#fc6c26"></path>
<path d="M 96.43 113.25
  A 0.35 0.35 0.0 0 1 96.87 112.92
  L 104.59 114.87
  A 0.86 0.85 84.8 0 1 105.16 115.35
  C 106.72 118.82 99.94 124.98 97.66 127.34
  A 0.44 0.44 0.0 0 1 96.96 127.25
  C 95.50 124.64 96.36 116.85 96.43 113.25
  Z" fill="#fc6c26"></path>
<path d="M 120.18 115.08
  Q 121.67 114.76 121.18 116.20
  L 119.94 119.83
  Q 119.39 121.47 117.84 120.70
  Q 115.41 119.50 113.66 117.56
  A 0.67 0.67 0.0 0 1 114.01 116.45
  L 120.18 115.08
  Z" fill="#fc6c26"></path>
<path d="M 111.49 118.28
  L 111.79 128.85
  Q 111.80 129.19 111.49 129.06
  Q 111.08 128.89 110.84 128.42
  Q 108.68 124.03 106.83 119.38
  A 1.70 1.69 -18.1 0 1 107.99 117.11
  Q 109.59 116.71 110.98 117.45
  A 0.99 0.99 0.0 0 1 111.49 118.28
  Z" fill="#fc6c26"></path>
<path d="M 112.70 119.80
  A 0.22 0.22 0.0 0 1 112.91 119.57
  L 113.00 119.57
  A 4.85 4.84 -2.1 0 1 118.02 124.23
  L 118.03 124.45
  A 4.85 4.84 -2.1 0 1 113.36 129.46
  L 113.27 129.46
  A 0.22 0.22 0.0 0 1 113.05 129.25
  L 112.70 119.80
  Z" fill="#fc6c26"></path>
<path d="M 106.07 120.63
  L 110.02 129.33
  Q 110.44 130.25 109.55 130.72
  C 106.95 132.10 100.71 133.31 98.81 130.26
  Q 98.13 129.18 98.99 128.23
  Q 102.48 124.35 105.33 120.77
  Q 105.52 120.54 105.78 120.48
  A 0.27 0.26 71.5 0 1 106.07 120.63
  Z" fill="#fc6c26"></path>
<path d="M 118.65 126.67
  L 119.03 124.35
  A 0.73 0.73 0.0 0 1 119.96 123.76
  L 122.05 124.40
  A 0.56 0.56 0.0 0 1 122.30 125.30
  Q 121.05 126.69 119.23 127.19
  Q 118.54 127.38 118.65 126.67
  Z" fill="#fc6c26"></path>
<path d="M 113.26 144.35
  L 90.26 144.65
  L 67.08 144.25
  C 64.64 141.33 64.17 135.00 69.50 135.03
  Q 94.51 135.20 119.78 135.34
  Q 123.94 135.37 123.95 139.52
  L 123.95 140.20
  Q 123.97 144.50 119.67 144.44
  L 113.26 144.35
  Z" fill="#2f3334"></path>
<path d="M 67.08 144.25
  L 90.26 144.65
  Q 94.38 144.18 93.85 145.90
  Q 83.60 146.08 73.50 146.25
  Q 69.97 146.32 66.12 148.40
  Q 66.11 146.17 67.08 144.25
  Z" fill="#f5857f"></path>
<path d="M 113.26 144.35
  Q 113.08 144.90 113.74 145.25
  L 96.99 146.32
  Q 95.28 145.81 93.85 145.90
  Q 94.38 144.18 90.26 144.65
  L 113.26 144.35
  Z" fill="#fc6c26"></path>
<path d="M 113.74 145.25
  L 119.81 145.25
  Q 120.36 145.25 120.56 145.76
  Q 120.72 146.16 120.74 146.71
  Q 120.62 146.73 120.49 146.80
  Q 120.35 146.88 120.19 146.88
  L 96.99 146.32
  L 113.74 145.25
  Z" fill="#f5857f"></path>
<path d="M 93.85 145.90
  Q 95.28 145.81 96.99 146.32
  L 120.19 146.88
  Q 120.35 146.88 120.49 146.80
  Q 120.62 146.73 120.74 146.71
  Q 123.49 146.86 123.87 149.99
  C 124.50 155.33 122.10 156.72 117.11 156.75
  Q 81.85 156.96 70.75 156.47
  Q 63.53 156.16 66.12 148.40
  Q 69.97 146.32 73.50 146.25
  Q 83.60 146.08 93.85 145.90
  Z" fill="#2f3334"></path>
<path d="M 82.21 157.18
  C 80.94 158.30 80.09 159.00 78.32 159.05
  Q 76.05 159.11 76.57 159.83
  L 70.56 159.44
  Q 71.05 158.51 70.50 157.22
  L 82.21 157.18
  Z" fill="#8c776b"></path>
<path d="M 123.03 159.99
  Q 118.01 160.25 113.01 159.93
  C 111.89 159.86 111.48 159.35 111.08 158.39
  A 0.37 0.37 0.0 0 0 110.40 158.39
  Q 110.24 158.78 110.22 159.21
  Q 110.20 159.79 109.62 159.79
  L 76.57 159.83
  Q 76.05 159.11 78.32 159.05
  C 80.09 159.00 80.94 158.30 82.21 157.18
  Q 107.16 156.85 120.38 157.37
  Q 122.02 157.44 123.03 159.99
  Z" fill="#fc6c26"></path>
<path d="M 70.50 157.22
  Q 71.05 158.51 70.56 159.44
  L 65.90 161.15
  Q 66.39 157.36 70.50 157.22
  Z" fill="#fc6c26"></path>
<path d="M 123.03 159.99
  Q 126.60 165.40 120.75 169.73
  Q 121.00 168.92 120.00 168.83
  Q 116.07 168.47 110.95 169.17
  L 80.51 168.97
  Q 78.50 168.60 76.80 169.09
  Q 72.88 168.59 69.88 169.49
  Q 68.74 168.99 67.29 167.47
  Q 64.60 164.66 65.90 161.15
  L 70.56 159.44
  L 76.57 159.83
  L 109.62 159.79
  Q 110.20 159.79 110.22 159.21
  Q 110.24 158.78 110.40 158.39
  A 0.37 0.37 0.0 0 1 111.08 158.39
  C 111.48 159.35 111.89 159.86 113.01 159.93
  Q 118.01 160.25 123.03 159.99
  Z" fill="#2f3334"></path>
<path d="M 80.51 168.97
  Q 80.38 170.33 81.28 170.97
  Q 81.70 171.27 82.15 171.03
  Q 83.11 170.51 83.99 169.88
  Q 84.34 169.63 84.61 170.04
  Q 84.85 170.39 84.57 170.71
  L 82.82 172.65
  A 1.36 1.36 0.0 0 1 80.63 172.43
  L 78.85 169.38
  Q 78.70 169.13 78.42 169.21
  Q 78.24 169.26 78.08 169.47
  Q 77.86 169.76 77.90 170.12
  Q 78.33 174.37 82.67 174.74
  Q 82.76 174.94 82.27 176.10
  Q 81.38 176.02 79.46 176.76
  Q 78.41 173.90 75.74 172.65
  Q 75.24 172.41 75.48 171.91
  L 76.80 169.09
  Q 78.50 168.60 80.51 168.97
  Z" fill="#8c776b"></path>
<path d="M 110.95 169.17
  Q 110.36 169.36 111.11 169.59
  A 0.85 0.84 19.8 0 1 111.65 170.73
  Q 111.22 171.76 110.34 172.51
  Q 109.53 173.19 110.58 173.12
  C 111.88 173.05 114.02 170.97 115.70 169.55
  A 0.92 0.92 0.0 0 1 116.59 169.39
  L 119.80 170.51
  L 114.55 175.94
  A 1.39 1.37 -71.2 0 1 113.73 176.35
  Q 111.54 176.62 109.23 176.15
  Q 108.92 175.64 108.76 174.77
  Q 108.68 174.29 108.20 174.22
  Q 107.20 174.05 106.28 173.80
  C 105.17 173.50 104.14 173.89 103.03 173.00
  Q 102.63 172.68 102.13 172.69
  L 90.84 172.70
  L 89.25 172.37
  Q 88.80 172.27 88.52 171.90
  L 86.91 169.80
  Q 86.71 169.54 86.48 169.77
  L 86.26 169.99
  Q 86.00 170.26 86.17 170.59
  L 87.35 172.92
  Q 85.30 174.20 82.67 174.74
  Q 78.33 174.37 77.90 170.12
  Q 77.86 169.76 78.08 169.47
  Q 78.24 169.26 78.42 169.21
  Q 78.70 169.13 78.85 169.38
  L 80.63 172.43
  A 1.36 1.36 0.0 0 0 82.82 172.65
  L 84.57 170.71
  Q 84.85 170.39 84.61 170.04
  Q 84.34 169.63 83.99 169.88
  Q 83.11 170.51 82.15 171.03
  Q 81.70 171.27 81.28 170.97
  Q 80.38 170.33 80.51 168.97
  L 110.95 169.17
  Z" fill="#fc6c26"></path>
<path d="M 120.75 169.73
  L 119.80 170.51
  L 116.59 169.39
  A 0.92 0.92 0.0 0 0 115.70 169.55
  C 114.02 170.97 111.88 173.05 110.58 173.12
  Q 109.53 173.19 110.34 172.51
  Q 111.22 171.76 111.65 170.73
  A 0.85 0.84 19.8 0 0 111.11 169.59
  Q 110.36 169.36 110.95 169.17
  Q 116.07 168.47 120.00 168.83
  Q 121.00 168.92 120.75 169.73
  Z" fill="#8c776b"></path>
<path d="M 76.80 169.09
  L 75.48 171.91
  Q 75.24 172.41 75.74 172.65
  Q 78.41 173.90 79.46 176.76
  C 75.11 177.32 72.32 172.60 69.88 169.49
  Q 72.88 168.59 76.80 169.09
  Z" fill="#fc6c26"></path>
<path d="M 90.84 172.70
  Q 89.30 173.40 87.35 172.92
  L 86.17 170.59
  Q 86.00 170.26 86.26 169.99
  L 86.48 169.77
  Q 86.71 169.54 86.91 169.80
  L 88.52 171.90
  Q 88.80 172.27 89.25 172.37
  L 90.84 172.70
  Z" fill="#8c776b"></path>
<path d="M 109.23 176.15
  Q 108.98 176.11 108.74 176.20
  Q 108.56 176.27 108.38 176.52
  Q 106.11 179.64 101.99 180.68
  Q 89.76 183.78 82.27 176.10
  Q 82.76 174.94 82.67 174.74
  Q 85.30 174.20 87.35 172.92
  Q 89.30 173.40 90.84 172.70
  L 102.13 172.69
  Q 102.63 172.68 103.03 173.00
  C 104.14 173.89 105.17 173.50 106.28 173.80
  Q 107.20 174.05 108.20 174.22
  Q 108.68 174.29 108.76 174.77
  Q 108.92 175.64 109.23 176.15
  Z" fill="#2f3334"></path>
</svg>
