<svg viewBox="0.00 0.00 48.00 48.00" version="1.1" xmlns="http://www.w3.org/2000/svg">
<path d="M 18.20 14.28
  Q 15.64 15.11 12.95 14.92
  A 1.29 1.29 0.0 0 1 11.77 13.45
  Q 12.94 5.49 20.85 3.91
  Q 21.40 3.80 21.31 3.25
  L 21.02 1.60
  Q 20.88 0.84 21.65 0.73
  L 22.22 0.65
  A 0.73 0.73 0.0 0 1 23.03 1.18
  C 24.16 5.12 23.76 9.70 27.24 12.48
  C 37.77 20.87 41.12 31.89 29.71 41.30
  C 27.31 43.28 25.17 44.24 23.71 47.24
  A 0.81 0.81 0.0 0 1 22.23 47.19
  C 21.43 45.19 20.39 44.14 18.48 42.71
  C 7.89 34.76 9.67 22.81 18.42 14.65
  Q 19.15 13.97 18.20 14.28
  Z
  M 21.6367 6.4535
  A 4.68 1.97 -41.1 0 0 16.8150 8.0455
  A 4.68 1.97 -41.1 0 0 14.5833 12.6065
  A 4.68 1.97 -41.1 0 0 19.4050 11.0145
  A 4.68 1.97 -41.1 0 0 21.6367 6.4535
  Z
  M 13.76 25.50
  C 12.09 30.20 14.56 36.93 18.51 39.98
  Q 21.25 42.11 22.74 43.58
  Q 23.07 43.91 23.43 43.61
  C 31.01 37.12 39.22 32.35 32.04 20.91
  C 29.80 17.35 27.04 15.37 24.13 12.64
  Q 23.79 12.33 23.48 12.66
  C 19.50 16.84 15.98 19.26 13.76 25.50
  Z" fill="#000000"></path>
<path d="M 19.32 7.33
  A 0.07 0.07 0.0 0 1 19.41 7.30
  L 19.73 7.50
  Q 19.97 7.64 19.80 7.87
  L 16.81 11.95
  A 0.10 0.10 0.0 0 1 16.66 11.96
  L 16.46 11.79
  Q 16.27 11.62 16.44 11.44
  Q 18.10 9.55 19.32 7.33
  Z" fill="#000000"></path>
<path d="M 15.62 24.60
  C 14.58 28.22 14.97 30.32 15.86 33.36
  A 0.15 0.15 0.0 0 1 15.58 33.47
  Q 13.40 29.03 15.32 24.49
  Q 16.34 22.11 15.62 24.60
  Z" fill="#000000"></path>
</svg>
