<svg viewBox="0.00 0.00 192.00 192.00" version="1.1" xmlns="http://www.w3.org/2000/svg">
<g stroke-linecap="butt" fill="none" stroke-width="2.00">
<path d="M 151.04 68.96
  Q 149.30 68.12 149.52 66.53
  Q 149.59 66.04 149.16 65.80
  Q 148.75 65.57 148.29 65.49
  Q 147.80 65.41 147.60 64.96
  Q 147.11 63.85 146.52 62.67
  Q 145.94 61.51 145.09 60.48
  Q 143.98 59.14 143.61 57.20
  Q 143.58 57.00 143.68 56.84
  Q 143.91 56.49 143.59 56.23
  Q 141.17 54.30 139.18 51.66
  Q 136.53 48.16 132.14 45.56
  Q 131.68 45.29 131.81 44.78
  Q 131.94 44.24 131.71 43.78" stroke="#3d34ee"></path>
<path d="M 94.31 172.44
  Q 93.08 171.70 91.46 171.89
  Q 91.82 171.95 92.03 171.74
  Q 92.43 171.34 91.91 171.09
  Q 90.36 170.35 89.31 169.02
  Q 89.00 168.63 88.50 168.65
  Q 82.66 168.94 76.04 167.64" stroke="#5f1ef8"></path>
<path d="M 76.04 167.64
  Q 90.37 167.27 103.51 167.29
  Q 108.98 167.30 108.96 161.73
  Q 108.89 140.02 108.81 117.80
  A 0.39 0.39 0.0 0 0 108.41 117.41
  L 101.72 117.46" stroke="#a794f9"></path>
<path d="M 101.72 117.46
  Q 100.13 117.48 98.71 117.22
  Q 97.74 117.04 98.72 116.90
  Q 100.27 116.68 101.88 116.64
  Q 101.94 116.64 101.95 116.58
  Q 101.98 116.52 101.91 116.51
  Q 101.86 116.50 101.81 116.52
  Q 101.50 116.65 101.16 116.55
  Q 100.97 116.50 101.07 116.33
  Q 101.22 116.08 101.50 116.13
  Q 104.74 116.71 108.00 116.11
  Q 108.49 116.02 108.73 116.49
  A 0.19 0.19 0.0 0 0 109.06 116.52
  Q 109.17 116.39 109.11 116.23
  Q 109.03 116.01 108.80 115.99
  L 105.23 115.71
  Q 104.30 115.64 105.06 115.09
  Q 106.21 114.25 105.07 113.32
  Q 103.41 111.95 101.65 110.60
  Q 101.26 110.30 101.08 109.84
  L 100.84 109.25
  Q 100.65 108.77 100.23 108.47
  Q 98.71 107.43 98.24 105.70
  Q 98.07 105.11 97.52 105.37
  Q 96.14 106.03 94.58 106.17
  Q 94.06 106.21 93.63 106.49
  Q 92.08 107.48 91.15 106.27" stroke="#5f1ef8"></path>
<path d="M 91.15 106.27
  C 101.17 104.36 108.56 96.11 108.79 85.86
  A 0.58 0.58 0.0 0 0 108.20 85.26
  Q 86.02 85.51 63.75 85.50
  Q 53.49 85.50 42.98 90.52" stroke="#a794f9"></path>
<path d="M 42.98 90.52
  Q 41.40 89.73 42.07 88.64
  Q 42.35 88.19 42.16 87.69
  Q 41.77 86.63 42.64 86.08
  Q 43.08 85.80 42.85 85.34
  Q 42.57 84.78 42.01 84.60" stroke="#5f1ef8"></path>
<path d="M 91.15 106.27
  Q 80.40 106.63 69.55 106.64
  Q 59.29 106.64 56.14 107.76
  C 46.18 111.28 42.12 120.70 43.88 130.83
  C 45.66 141.07 54.05 146.51 64.26 146.41
  Q 76.15 146.30 87.48 146.26
  Q 88.03 146.26 88.03 145.70
  L 88.03 135.71
  A 0.73 0.72 90.0 0 0 87.31 134.98
  Q 77.32 134.98 66.79 135.01
  Q 61.29 135.02 61.28 129.19
  Q 61.27 122.20 61.24 118.21
  Q 61.24 117.66 61.80 117.65
  L 101.72 117.46" stroke="#b78afe"></path>
<path d="M 42.98 90.52
  Q 21.61 102.17 21.56 126.75
  C 21.50 150.28 39.73 167.06 62.85 167.35
  Q 72.57 167.47 76.04 167.64" stroke="#b78afe"></path>
</g>
<path d="M 166.85 23.26
  C 160.56 18.64 152.38 19.44 146.55 24.34
  A 1.13 1.13 0.0 0 1 145.03 24.28
  Q 144.39 23.65 144.97 22.95
  C 151.60 14.93 162.36 12.65 170.86 19.00
  Q 175.06 22.14 176.79 26.61
  Q 181.08 37.64 172.92 46.50
  A 0.73 0.72 -58.9 0 1 172.16 46.69
  Q 171.13 46.33 171.64 45.37
  C 176.03 37.18 174.16 28.63 166.85 23.26
  Z" fill="#2b40e9"></path>
<path d="M 151.04 68.96
  Q 149.30 68.12 149.52 66.53
  Q 149.59 66.04 149.16 65.80
  Q 148.75 65.57 148.29 65.49
  Q 147.80 65.41 147.60 64.96
  Q 147.11 63.85 146.52 62.67
  Q 145.94 61.51 145.09 60.48
  Q 143.98 59.14 143.61 57.20
  Q 143.58 57.00 143.68 56.84
  Q 143.91 56.49 143.59 56.23
  Q 141.17 54.30 139.18 51.66
  Q 136.53 48.16 132.14 45.56
  Q 131.68 45.29 131.81 44.78
  Q 131.94 44.24 131.71 43.78
  Q 143.07 38.55 154.50 33.47
  C 156.18 32.73 158.66 31.51 160.44 32.43
  Q 162.22 33.34 163.00 34.86
  Q 163.27 35.39 163.07 35.95
  L 151.04 68.96
  Z" fill="#2b40e9"></path>
<path d="M 131.71 43.78
  Q 131.94 44.24 131.81 44.78
  Q 131.68 45.29 132.14 45.56
  Q 136.53 48.16 139.18 51.66
  Q 141.17 54.30 143.59 56.23
  Q 143.91 56.49 143.68 56.84
  Q 143.58 57.00 143.61 57.20
  Q 143.98 59.14 145.09 60.48
  Q 145.94 61.51 146.52 62.67
  Q 147.11 63.85 147.60 64.96
  Q 147.80 65.41 148.29 65.49
  Q 148.75 65.57 149.16 65.80
  Q 149.59 66.04 149.52 66.53
  Q 149.30 68.12 151.04 68.96
  Q 126.19 137.56 115.25 166.51
  Q 113.96 169.94 110.80 171.50
  Q 108.77 172.50 104.57 172.52
  Q 99.42 172.55 94.31 172.44
  Q 93.08 171.70 91.46 171.89
  Q 91.82 171.95 92.03 171.74
  Q 92.43 171.34 91.91 171.09
  Q 90.36 170.35 89.31 169.02
  Q 89.00 168.63 88.50 168.65
  Q 82.66 168.94 76.04 167.64
  Q 90.37 167.27 103.51 167.29
  Q 108.98 167.30 108.96 161.73
  Q 108.89 140.02 108.81 117.80
  A 0.39 0.39 0.0 0 0 108.41 117.41
  L 101.72 117.46
  Q 100.13 117.48 98.71 117.22
  Q 97.74 117.04 98.72 116.90
  Q 100.27 116.68 101.88 116.64
  Q 101.94 116.64 101.95 116.58
  Q 101.98 116.52 101.91 116.51
  Q 101.86 116.50 101.81 116.52
  Q 101.50 116.65 101.16 116.55
  Q 100.97 116.50 101.07 116.33
  Q 101.22 116.08 101.50 116.13
  Q 104.74 116.71 108.00 116.11
  Q 108.49 116.02 108.73 116.49
  A 0.19 0.19 0.0 0 0 109.06 116.52
  Q 109.17 116.39 109.11 116.23
  Q 109.03 116.01 108.80 115.99
  L 105.23 115.71
  Q 104.30 115.64 105.06 115.09
  Q 106.21 114.25 105.07 113.32
  Q 103.41 111.95 101.65 110.60
  Q 101.26 110.30 101.08 109.84
  L 100.84 109.25
  Q 100.65 108.77 100.23 108.47
  Q 98.71 107.43 98.24 105.70
  Q 98.07 105.11 97.52 105.37
  Q 96.14 106.03 94.58 106.17
  Q 94.06 106.21 93.63 106.49
  Q 92.08 107.48 91.15 106.27
  C 101.17 104.36 108.56 96.11 108.79 85.86
  A 0.58 0.58 0.0 0 0 108.20 85.26
  Q 86.02 85.51 63.75 85.50
  Q 53.49 85.50 42.98 90.52
  Q 41.40 89.73 42.07 88.64
  Q 42.35 88.19 42.16 87.69
  Q 41.77 86.63 42.64 86.08
  Q 43.08 85.80 42.85 85.34
  Q 42.57 84.78 42.01 84.60
  L 131.71 43.78
  Z" fill="#4f28f3"></path>
<path d="M 42.01 84.60
  Q 42.57 84.78 42.85 85.34
  Q 43.08 85.80 42.64 86.08
  Q 41.77 86.63 42.16 87.69
  Q 42.35 88.19 42.07 88.64
  Q 41.40 89.73 42.98 90.52
  Q 21.61 102.17 21.56 126.75
  C 21.50 150.28 39.73 167.06 62.85 167.35
  Q 72.57 167.47 76.04 167.64
  Q 82.66 168.94 88.50 168.65
  Q 89.00 168.63 89.31 169.02
  Q 90.36 170.35 91.91 171.09
  Q 92.43 171.34 92.03 171.74
  Q 91.82 171.95 91.46 171.89
  Q 93.08 171.70 94.31 172.44
  Q 74.98 172.91 61.99 172.67
  C 38.62 172.25 19.53 157.74 15.51 134.58
  C 14.90 131.06 14.99 127.16 15.03 123.38
  Q 15.06 120.94 15.42 118.93
  Q 19.74 94.98 42.01 84.60
  Z" fill="#6e14fc"></path>
<path d="M 91.15 106.27
  Q 80.40 106.63 69.55 106.64
  Q 59.29 106.64 56.14 107.76
  C 46.18 111.28 42.12 120.70 43.88 130.83
  C 45.66 141.07 54.05 146.51 64.26 146.41
  Q 76.15 146.30 87.48 146.26
  Q 88.03 146.26 88.03 145.70
  L 88.03 135.71
  A 0.73 0.72 90.0 0 0 87.31 134.98
  Q 77.32 134.98 66.79 135.01
  Q 61.29 135.02 61.28 129.19
  Q 61.27 122.20 61.24 118.21
  Q 61.24 117.66 61.80 117.65
  L 101.72 117.46
  L 108.41 117.41
  A 0.39 0.39 0.0 0 1 108.81 117.80
  Q 108.89 140.02 108.96 161.73
  Q 108.98 167.30 103.51 167.29
  Q 90.37 167.27 76.04 167.64
  Q 72.57 167.47 62.85 167.35
  C 39.73 167.06 21.50 150.28 21.56 126.75
  Q 21.61 102.17 42.98 90.52
  Q 53.49 85.50 63.75 85.50
  Q 86.02 85.51 108.20 85.26
  A 0.58 0.58 0.0 0 1 108.79 85.86
  C 108.56 96.11 101.17 104.36 91.15 106.27
  Z" fill="#ffffff"></path>
<path d="M 101.72 117.46
  L 61.80 117.65
  Q 61.24 117.66 61.24 118.21
  Q 61.27 122.20 61.28 129.19
  Q 61.29 135.02 66.79 135.01
  Q 77.32 134.98 87.31 134.98
  A 0.73 0.72 90.0 0 1 88.03 135.71
  L 88.03 145.70
  Q 88.03 146.26 87.48 146.26
  Q 76.15 146.30 64.26 146.41
  C 54.05 146.51 45.66 141.07 43.88 130.83
  C 42.12 120.70 46.18 111.28 56.14 107.76
  Q 59.29 106.64 69.55 106.64
  Q 80.40 106.63 91.15 106.27
  Q 92.08 107.48 93.63 106.49
  Q 94.06 106.21 94.58 106.17
  Q 96.14 106.03 97.52 105.37
  Q 98.07 105.11 98.24 105.70
  Q 98.71 107.43 100.23 108.47
  Q 100.65 108.77 100.84 109.25
  L 101.08 109.84
  Q 101.26 110.30 101.65 110.60
  Q 103.41 111.95 105.07 113.32
  Q 106.21 114.25 105.06 115.09
  Q 104.30 115.64 105.23 115.71
  L 108.80 115.99
  Q 109.03 116.01 109.11 116.23
  Q 109.17 116.39 109.06 116.52
  A 0.19 0.19 0.0 0 1 108.73 116.49
  Q 108.49 116.02 108.00 116.11
  Q 104.74 116.71 101.50 116.13
  Q 101.22 116.08 101.07 116.33
  Q 100.97 116.50 101.16 116.55
  Q 101.50 116.65 101.81 116.52
  Q 101.86 116.50 101.91 116.51
  Q 101.98 116.52 101.95 116.58
  Q 101.94 116.64 101.88 116.64
  Q 100.27 116.68 98.72 116.90
  Q 97.74 117.04 98.71 117.22
  Q 100.13 117.48 101.72 117.46
  Z" fill="#6e14fc"></path>
</svg>
