<svg viewBox="0.00 0.00 192.00 192.00" version="1.1" xmlns="http://www.w3.org/2000/svg">
<g stroke-linecap="butt" fill="none" stroke-width="2.00">
<path d="M 106.98 0.66
  Q 106.85 0.79 106.55 0.77
  Q 106.20 0.75 106.51 0.89
  Q 106.63 0.95 106.74 1.01
  Q 106.90 1.08 106.49 1.35
  Q 106.22 1.54 105.93 1.49
  Q 105.59 1.43 105.60 1.79
  Q 105.63 2.49 105.93 3.14
  Q 106.20 3.71 105.71 4.11
  L 104.28 5.28
  A 0.34 0.34 0.0 0 0 104.49 5.88
  L 105.51 5.88
  Q 105.62 5.88 105.71 5.96
  Q 105.81 6.07 105.91 6.17
  Q 106.41 6.69 105.74 6.94
  Q 104.95 7.24 105.09 8.04
  Q 105.18 8.55 104.82 8.93
  Q 104.63 9.14 104.37 9.12
  A 0.45 0.32 44.5 0 0 104.50 9.89
  Q 104.79 9.96 104.93 10.23
  Q 105.19 10.72 104.70 10.99
  L 104.34 11.18
  A 0.38 0.38 0.0 0 0 104.47 11.89
  Q 104.70 11.92 104.85 12.10
  Q 105.11 12.43 104.82 12.74
  L 103.47 14.15
  Q 103.12 14.53 103.12 15.05
  L 103.11 20.27
  Q 103.11 20.85 102.56 21.04
  Q 102.24 21.15 102.13 21.45
  Q 102.00 21.80 102.37 21.86
  Q 102.68 21.90 102.85 22.11
  Q 103.14 22.47 102.88 22.85
  Q 102.75 23.05 102.51 23.10
  Q 101.98 23.22 102.10 23.75
  Q 102.30 24.62 101.57 25.16
  Q 101.17 25.46 101.16 25.97
  Q 101.11 28.67 99.99 31.19
  Q 99.79 31.63 99.30 31.60
  Q 97.58 31.50 96.00 31.96" stroke="#576bdf"></path>
<path d="M 63.98 40.54
  L 64.00 39.46
  Q 64.01 38.94 63.74 38.51
  Q 63.11 37.53 62.24 36.89
  Q 61.92 36.66 61.92 36.27
  L 61.92 35.78
  Q 61.92 35.37 61.59 35.14
  Q 60.46 34.35 60.99 32.84
  A 0.56 0.55 -80.3 0 0 60.47 32.10
  L 59.73 32.10
  Q 59.25 32.10 59.03 31.68
  C 58.52 30.67 57.37 30.32 57.04 29.63
  Q 56.87 29.27 56.91 28.79
  Q 56.96 28.31 56.53 28.10
  Q 55.69 27.69 55.93 26.80
  Q 56.06 26.27 55.55 26.09
  Q 54.86 25.85 54.91 25.16
  Q 54.95 24.61 54.55 24.22
  Q 53.51 23.18 53.96 21.69
  Q 54.02 21.50 53.88 21.36
  L 53.65 21.13
  A 0.32 0.32 0.0 0 0 53.11 21.32
  Q 53.06 21.76 52.68 22.00
  Q 52.45 22.16 52.26 21.96
  L 52.03 21.74
  A 0.71 0.70 -59.2 0 1 51.86 21.06
  Q 52.66 18.42 50.46 16.84
  Q 49.98 16.50 49.91 15.91
  Q 49.75 14.69 48.50 14.58
  Q 47.96 14.53 48.05 13.99
  Q 48.16 13.38 47.98 12.85" stroke="#6b7de3"></path>
<path d="M 146.70 14.51
  Q 143.55 16.69 142.67 19.25
  Q 142.59 19.48 142.37 19.59
  Q 142.08 19.74 141.98 19.46
  Q 141.86 19.13 141.59 19.34
  L 139.33 21.12
  Q 138.89 21.47 138.89 22.03
  L 138.89 23.26
  Q 138.89 23.97 138.18 23.88
  Q 136.69 23.70 136.89 25.22
  Q 136.98 25.92 136.27 25.88
  Q 134.84 25.78 134.88 27.14
  Q 134.89 27.52 134.63 27.78
  L 132.82 29.55
  Q 132.51 29.84 132.09 29.88
  Q 131.00 29.96 130.84 31.12
  Q 130.77 31.61 130.40 31.93
  Q 128.77 33.36 127.60 35.15
  Q 127.35 35.53 126.96 35.77
  Q 125.48 36.70 124.96 38.87" stroke="#4b60dd"></path>
<path d="M 35.32 75.49
  Q 34.89 74.96 34.80 74.34
  Q 34.79 74.24 34.68 74.25
  Q 34.52 74.26 34.44 74.37
  Q 34.37 74.46 34.30 74.36
  Q 34.21 74.21 33.99 74.18
  Q 30.36 73.71 26.64 73.93
  Q 26.25 73.95 26.12 73.59
  L 26.01 73.27
  Q 25.87 72.89 25.47 72.89
  L 21.67 72.89
  Q 21.18 72.89 20.98 73.33
  L 20.78 73.75
  Q 20.47 74.43 20.21 73.73
  Q 19.83 72.68 18.85 72.87
  Q 18.42 72.95 18.19 72.57
  Q 17.59 71.59 16.41 72.00
  Q 15.89 72.17 15.89 72.71
  L 15.88 73.63
  A 0.32 0.32 0.0 0 1 15.35 73.87
  Q 15.09 73.62 15.00 73.27
  A 0.57 0.57 0.0 0 0 14.27 72.86
  Q 13.35 73.15 13.07 72.45
  Q 12.84 71.89 12.23 71.89
  L 10.97 71.89
  Q 10.43 71.89 10.14 71.43
  Q 9.94 71.11 9.64 70.99
  Q 9.19 70.80 9.01 71.24
  Q 8.70 71.98 7.95 71.92
  C 6.20 71.80 5.01 72.11 3.16 71.65" stroke="#7e8fe7"></path>
<path d="M 32.42 103.81
  Q 31.65 103.08 31.90 101.52
  Q 31.98 101.02 31.49 101.12
  L 28.75 101.63
  Q 28.23 101.72 27.85 101.35
  L 27.60 101.10
  Q 27.44 100.94 27.33 101.13
  L 27.14 101.46
  Q 26.94 101.79 26.56 101.82
  Q 24.89 101.91 23.24 102.21
  Q 22.85 103.03 21.39 102.14
  A 0.19 0.19 0.0 0 0 21.10 102.34
  Q 21.26 103.05 21.00 103.67
  Q 20.78 104.19 20.26 103.95
  Q 19.95 103.80 19.90 103.49
  Q 19.77 102.60 19.11 103.50
  Q 18.72 104.03 18.05 104.14
  Q 17.66 104.19 17.34 104.42
  Q 15.91 105.47 14.13 105.11
  Q 13.59 105.00 13.20 105.40
  L 11.71 106.97
  A 0.75 0.75 0.0 0 1 10.93 107.16
  Q 9.31 106.62 8.95 107.99
  A 0.50 0.50 0.0 0 1 7.98 107.99
  L 7.88 107.61
  Q 7.79 107.24 7.42 107.13
  Q 7.01 107.02 6.59 107.13
  Q 6.12 107.25 6.12 107.74
  L 6.12 108.44
  A 0.69 0.68 -88.1 0 1 5.39 109.13
  Q 4.68 109.07 4.01 109.38
  Q 3.53 109.60 3.23 110.03
  Q 3.03 110.34 2.68 110.23
  Q 2.24 110.11 2.24 110.56
  Q 2.21 112.35 1.53 113.11" stroke="#8d9cea"></path>
<path d="M 184.39 133.52
  Q 182.51 134.37 180.65 134.08
  Q 180.14 134.00 179.88 133.55
  Q 178.95 131.96 176.98 131.92
  Q 176.39 131.90 175.98 131.49
  L 175.65 131.16
  Q 175.39 130.90 175.11 131.14
  Q 174.86 131.36 174.88 131.63
  A 0.47 0.30 42.2 0 1 174.11 131.50
  Q 173.92 131.08 173.52 130.88
  Q 172.92 130.59 173.28 130.03
  L 173.66 129.45
  A 0.25 0.25 0.0 0 0 173.42 129.06
  Q 172.18 129.21 172.04 128.35
  Q 171.97 127.86 171.47 127.87
  L 170.00 127.92
  Q 169.59 127.93 169.28 127.64
  L 166.74 125.18
  Q 166.42 124.87 166.09 125.17
  Q 165.87 125.36 165.88 125.64
  A 0.27 0.27 0.0 0 1 165.42 125.84
  L 161.93 122.35
  Q 161.54 121.97 161.00 121.97
  Q 159.87 121.98 159.85 120.77
  A 0.36 0.36 0.0 0 0 159.27 120.49
  Q 158.60 121.02 157.73 120.88
  Q 157.16 120.79 156.97 120.25
  L 156.68 119.43
  Q 156.47 118.81 155.92 119.16
  Q 155.23 119.62 154.44 119.71" stroke="#bfc9f3"></path>
<path d="M 148.51 113.98
  Q 149.21 113.25 146.77 113.04
  Q 146.24 113.00 146.29 112.47
  Q 146.36 111.78 145.62 111.59
  Q 144.25 111.25 143.71 110.39
  Q 143.46 109.99 143.00 109.99
  Q 142.01 109.98 141.00 109.92
  A 1.04 0.00 27.3 0 1 140.08 109.45
  Q 139.40 109.10 139.06 108.52
  Q 138.78 108.05 138.23 108.01
  C 136.75 107.90 136.38 106.24 134.69 105.86
  Q 134.20 105.75 133.87 105.37
  Q 133.48 104.92 132.90 104.93
  A 1.08 1.05 61.2 0 1 132.31 104.75
  Q 131.46 104.17 130.91 103.35
  Q 130.69 103.03 130.31 103.01
  L 129.86 102.98
  Q 129.60 102.97 129.40 102.79
  Q 128.04 101.65 126.90 100.33
  Q 126.53 99.91 125.97 99.98
  Q 125.23 100.09 124.98 99.43
  Q 124.78 98.91 124.23 99.00
  Q 123.18 99.17 122.78 98.26
  A 0.63 0.62 78.7 0 0 122.25 97.90
  L 121.75 97.88
  Q 121.41 97.87 121.23 97.57
  Q 120.83 96.87 120.29 96.96
  A 1.86 1.85 -89.8 0 1 118.16 94.81
  Q 118.21 94.50 117.62 94.18
  C 117.04 93.87 116.33 94.05 115.69 93.96
  Q 115.14 93.87 114.89 93.37
  Q 114.59 92.76 113.86 92.88
  Q 113.43 92.95 113.16 92.59
  Q 112.22 91.32 110.73 90.79
  Q 110.28 90.63 109.95 90.28
  Q 109.30 89.63 109.01 89.48
  Q 104.42 87.21 100.08 84.05" stroke="#bfc9f3"></path>
<path d="M 55.60 145.70
  L 55.22 146.02
  A 0.20 0.20 0.0 0 0 55.36 146.37
  Q 55.94 146.35 55.94 147.14
  A 0.63 0.63 0.0 0 1 55.36 147.77
  Q 54.24 147.88 54.21 149.26
  Q 54.18 150.78 54.08 152.38
  Q 54.05 152.92 53.53 153.09
  Q 52.90 153.31 53.16 154.04
  A 0.75 0.74 -23.7 0 1 52.81 154.93
  Q 52.19 155.27 51.47 155.10
  A 0.32 0.31 83.2 0 0 51.12 155.55
  Q 51.29 155.89 51.65 155.97
  A 0.48 0.48 0.0 0 1 51.87 156.79
  L 50.31 158.27
  Q 50.12 158.45 50.12 158.71
  L 50.12 159.09
  Q 50.12 159.52 49.81 159.82
  L 48.32 161.28
  Q 47.98 161.60 48.10 162.06
  Q 48.47 163.39 47.46 164.21
  Q 47.14 164.47 47.13 164.89
  Q 47.10 166.22 47.12 167.50
  Q 47.14 168.17 46.44 168.06
  Q 46.14 168.02 46.00 167.75
  Q 45.94 167.62 45.89 167.48
  A 0.40 0.40 0.0 0 0 45.13 167.50
  Q 45.08 167.70 45.14 168.00
  Q 45.29 168.76 44.64 169.08
  Q 44.22 169.28 44.16 169.73
  C 43.96 171.03 42.88 171.52 42.63 172.90
  Q 42.55 173.36 42.13 173.56
  Q 41.47 173.89 41.75 175.20" stroke="#a1aeed"></path>
<path d="M 132.99 184.61
  Q 131.82 183.63 131.12 184.08
  A 0.16 0.16 0.0 0 1 130.92 183.83
  L 131.21 183.53
  Q 131.62 183.12 131.62 182.55
  L 131.62 180.72
  A 0.87 0.86 8.8 0 0 131.01 179.90
  Q 130.71 179.81 130.40 179.92
  Q 129.01 180.38 129.68 179.08
  Q 130.09 178.27 130.85 177.88
  A 0.42 0.42 0.0 0 0 130.85 177.13
  Q 129.66 176.53 130.18 175.00
  A 0.73 0.72 32.0 0 0 130.00 174.26
  L 129.75 174.01
  A 0.44 0.44 0.0 0 0 129.01 174.22
  Q 128.91 174.66 128.55 174.94
  A 0.09 0.09 0.0 0 1 128.42 174.93
  Q 128.33 174.83 128.22 174.74
  Q 127.94 174.52 128.04 174.18
  Q 128.68 172.05 127.28 170.65
  Q 126.90 170.27 127.06 169.75
  Q 127.46 168.49 126.48 167.73
  Q 126.11 167.44 126.15 166.97
  Q 126.30 164.93 124.43 163.91
  Q 124.02 163.68 124.12 163.22
  Q 124.32 162.28 123.42 161.75
  Q 123.11 161.56 123.13 161.20
  Q 123.16 160.57 122.50 160.64
  A 0.16 0.16 0.0 0 1 122.37 160.37
  L 122.63 160.11
  Q 122.87 159.87 122.86 159.54
  Q 122.78 157.68 121.76 156.18
  A 0.80 0.80 0.0 0 1 122.11 154.99
  Q 124.82 153.81 125.32 153.00" stroke="#b3bef1"></path>
</g>
<path d="M 91.15 0.00
  L 100.99 0.00
  L 106.98 0.66
  Q 106.85 0.79 106.55 0.77
  Q 106.20 0.75 106.51 0.89
  Q 106.63 0.95 106.74 1.01
  Q 106.90 1.08 106.49 1.35
  Q 106.22 1.54 105.93 1.49
  Q 105.59 1.43 105.60 1.79
  Q 105.63 2.49 105.93 3.14
  Q 106.20 3.71 105.71 4.11
  L 104.28 5.28
  A 0.34 0.34 0.0 0 0 104.49 5.88
  L 105.51 5.88
  Q 105.62 5.88 105.71 5.96
  Q 105.81 6.07 105.91 6.17
  Q 106.41 6.69 105.74 6.94
  Q 104.95 7.24 105.09 8.04
  Q 105.18 8.55 104.82 8.93
  Q 104.63 9.14 104.37 9.12
  A 0.45 0.32 44.5 0 0 104.50 9.89
  Q 104.79 9.96 104.93 10.23
  Q 105.19 10.72 104.70 10.99
  L 104.34 11.18
  A 0.38 0.38 0.0 0 0 104.47 11.89
  Q 104.70 11.92 104.85 12.10
  Q 105.11 12.43 104.82 12.74
  L 103.47 14.15
  Q 103.12 14.53 103.12 15.05
  L 103.11 20.27
  Q 103.11 20.85 102.56 21.04
  Q 102.24 21.15 102.13 21.45
  Q 102.00 21.80 102.37 21.86
  Q 102.68 21.90 102.85 22.11
  Q 103.14 22.47 102.88 22.85
  Q 102.75 23.05 102.51 23.10
  Q 101.98 23.22 102.10 23.75
  Q 102.30 24.62 101.57 25.16
  Q 101.17 25.46 101.16 25.97
  Q 101.11 28.67 99.99 31.19
  Q 99.79 31.63 99.30 31.60
  Q 97.58 31.50 96.00 31.96
  Q 78.85 32.10 63.98 40.54
  L 64.00 39.46
  Q 64.01 38.94 63.74 38.51
  Q 63.11 37.53 62.24 36.89
  Q 61.92 36.66 61.92 36.27
  L 61.92 35.78
  Q 61.92 35.37 61.59 35.14
  Q 60.46 34.35 60.99 32.84
  A 0.56 0.55 -80.3 0 0 60.47 32.10
  L 59.73 32.10
  Q 59.25 32.10 59.03 31.68
  C 58.52 30.67 57.37 30.32 57.04 29.63
  Q 56.87 29.27 56.91 28.79
  Q 56.96 28.31 56.53 28.10
  Q 55.69 27.69 55.93 26.80
  Q 56.06 26.27 55.55 26.09
  Q 54.86 25.85 54.91 25.16
  Q 54.95 24.61 54.55 24.22
  Q 53.51 23.18 53.96 21.69
  Q 54.02 21.50 53.88 21.36
  L 53.65 21.13
  A 0.32 0.32 0.0 0 0 53.11 21.32
  Q 53.06 21.76 52.68 22.00
  Q 52.45 22.16 52.26 21.96
  L 52.03 21.74
  A 0.71 0.70 -59.2 0 1 51.86 21.06
  Q 52.66 18.42 50.46 16.84
  Q 49.98 16.50 49.91 15.91
  Q 49.75 14.69 48.50 14.58
  Q 47.96 14.53 48.05 13.99
  Q 48.16 13.38 47.98 12.85
  Q 67.91 1.52 91.15 0.00
  Z" fill="#5d70e0"></path>
<path d="M 106.98 0.66
  Q 128.14 3.08 146.70 14.51
  Q 143.55 16.69 142.67 19.25
  Q 142.59 19.48 142.37 19.59
  Q 142.08 19.74 141.98 19.46
  Q 141.86 19.13 141.59 19.34
  L 139.33 21.12
  Q 138.89 21.47 138.89 22.03
  L 138.89 23.26
  Q 138.89 23.97 138.18 23.88
  Q 136.69 23.70 136.89 25.22
  Q 136.98 25.92 136.27 25.88
  Q 134.84 25.78 134.88 27.14
  Q 134.89 27.52 134.63 27.78
  L 132.82 29.55
  Q 132.51 29.84 132.09 29.88
  Q 131.00 29.96 130.84 31.12
  Q 130.77 31.61 130.40 31.93
  Q 128.77 33.36 127.60 35.15
  Q 127.35 35.53 126.96 35.77
  Q 125.48 36.70 124.96 38.87
  Q 111.22 32.06 96.00 31.96
  Q 97.58 31.50 99.30 31.60
  Q 99.79 31.63 99.99 31.19
  Q 101.11 28.67 101.16 25.97
  Q 101.17 25.46 101.57 25.16
  Q 102.30 24.62 102.10 23.75
  Q 101.98 23.22 102.51 23.10
  Q 102.75 23.05 102.88 22.85
  Q 103.14 22.47 102.85 22.11
  Q 102.68 21.90 102.37 21.86
  Q 102.00 21.80 102.13 21.45
  Q 102.24 21.15 102.56 21.04
  Q 103.11 20.85 103.11 20.27
  L 103.12 15.05
  Q 103.12 14.53 103.47 14.15
  L 104.82 12.74
  Q 105.11 12.43 104.85 12.10
  Q 104.70 11.92 104.47 11.89
  A 0.38 0.38 0.0 0 1 104.34 11.18
  L 104.70 10.99
  Q 105.19 10.72 104.93 10.23
  Q 104.79 9.96 104.50 9.89
  A 0.45 0.32 44.5 0 1 104.37 9.12
  Q 104.63 9.14 104.82 8.93
  Q 105.18 8.55 105.09 8.04
  Q 104.95 7.24 105.74 6.94
  Q 106.41 6.69 105.91 6.17
  Q 105.81 6.07 105.71 5.96
  Q 105.62 5.88 105.51 5.88
  L 104.49 5.88
  A 0.34 0.34 0.0 0 1 104.28 5.28
  L 105.71 4.11
  Q 106.20 3.71 105.93 3.14
  Q 105.63 2.49 105.60 1.79
  Q 105.59 1.43 105.93 1.49
  Q 106.22 1.54 106.49 1.35
  Q 106.90 1.08 106.74 1.01
  Q 106.63 0.95 106.51 0.89
  Q 106.20 0.75 106.55 0.77
  Q 106.85 0.79 106.98 0.66
  Z" fill="#5165de"></path>
<path d="M 47.98 12.85
  Q 48.16 13.38 48.05 13.99
  Q 47.96 14.53 48.50 14.58
  Q 49.75 14.69 49.91 15.91
  Q 49.98 16.50 50.46 16.84
  Q 52.66 18.42 51.86 21.06
  A 0.71 0.70 -59.2 0 0 52.03 21.74
  L 52.26 21.96
  Q 52.45 22.16 52.68 22.00
  Q 53.06 21.76 53.11 21.32
  A 0.32 0.32 0.0 0 1 53.65 21.13
  L 53.88 21.36
  Q 54.02 21.50 53.96 21.69
  Q 53.51 23.18 54.55 24.22
  Q 54.95 24.61 54.91 25.16
  Q 54.86 25.85 55.55 26.09
  Q 56.06 26.27 55.93 26.80
  Q 55.69 27.69 56.53 28.10
  Q 56.96 28.31 56.91 28.79
  Q 56.87 29.27 57.04 29.63
  C 57.37 30.32 58.52 30.67 59.03 31.68
  Q 59.25 32.10 59.73 32.10
  L 60.47 32.10
  A 0.56 0.55 -80.3 0 1 60.99 32.84
  Q 60.46 34.35 61.59 35.14
  Q 61.92 35.37 61.92 35.78
  L 61.92 36.27
  Q 61.92 36.66 62.24 36.89
  Q 63.11 37.53 63.74 38.51
  Q 64.01 38.94 64.00 39.46
  L 63.98 40.54
  Q 43.32 52.78 35.32 75.49
  Q 34.89 74.96 34.80 74.34
  Q 34.79 74.24 34.68 74.25
  Q 34.52 74.26 34.44 74.37
  Q 34.37 74.46 34.30 74.36
  Q 34.21 74.21 33.99 74.18
  Q 30.36 73.71 26.64 73.93
  Q 26.25 73.95 26.12 73.59
  L 26.01 73.27
  Q 25.87 72.89 25.47 72.89
  L 21.67 72.89
  Q 21.18 72.89 20.98 73.33
  L 20.78 73.75
  Q 20.47 74.43 20.21 73.73
  Q 19.83 72.68 18.85 72.87
  Q 18.42 72.95 18.19 72.57
  Q 17.59 71.59 16.41 72.00
  Q 15.89 72.17 15.89 72.71
  L 15.88 73.63
  A 0.32 0.32 0.0 0 1 15.35 73.87
  Q 15.09 73.62 15.00 73.27
  A 0.57 0.57 0.0 0 0 14.27 72.86
  Q 13.35 73.15 13.07 72.45
  Q 12.84 71.89 12.23 71.89
  L 10.97 71.89
  Q 10.43 71.89 10.14 71.43
  Q 9.94 71.11 9.64 70.99
  Q 9.19 70.80 9.01 71.24
  Q 8.70 71.98 7.95 71.92
  C 6.20 71.80 5.01 72.11 3.16 71.65
  C 9.66 46.56 25.84 26.01 47.98 12.85
  Z" fill="#798ae6"></path>
<path d="M 146.70 14.51
  C 161.54 23.70 170.88 35.47 180.83 48.70
  A 0.71 0.71 0.0 0 1 180.70 49.69
  L 156.64 68.63
  A 0.58 0.57 51.7 0 1 155.83 68.53
  C 146.66 56.75 139.32 46.32 124.96 38.87
  Q 125.48 36.70 126.96 35.77
  Q 127.35 35.53 127.60 35.15
  Q 128.77 33.36 130.40 31.93
  Q 130.77 31.61 130.84 31.12
  Q 131.00 29.96 132.09 29.88
  Q 132.51 29.84 132.82 29.55
  L 134.63 27.78
  Q 134.89 27.52 134.88 27.14
  Q 134.84 25.78 136.27 25.88
  Q 136.98 25.92 136.89 25.22
  Q 136.69 23.70 138.18 23.88
  Q 138.89 23.97 138.89 23.26
  L 138.89 22.03
  Q 138.89 21.47 139.33 21.12
  L 141.59 19.34
  Q 141.86 19.13 141.98 19.46
  Q 142.08 19.74 142.37 19.59
  Q 142.59 19.48 142.67 19.25
  Q 143.55 16.69 146.70 14.51
  Z" fill="#455bdc"></path>
<path d="M 35.32 75.49
  Q 30.77 89.28 32.42 103.81
  Q 31.65 103.08 31.90 101.52
  Q 31.98 101.02 31.49 101.12
  L 28.75 101.63
  Q 28.23 101.72 27.85 101.35
  L 27.60 101.10
  Q 27.44 100.94 27.33 101.13
  L 27.14 101.46
  Q 26.94 101.79 26.56 101.82
  Q 24.89 101.91 23.24 102.21
  Q 22.85 103.03 21.39 102.14
  A 0.19 0.19 0.0 0 0 21.10 102.34
  Q 21.26 103.05 21.00 103.67
  Q 20.78 104.19 20.26 103.95
  Q 19.95 103.80 19.90 103.49
  Q 19.77 102.60 19.11 103.50
  Q 18.72 104.03 18.05 104.14
  Q 17.66 104.19 17.34 104.42
  Q 15.91 105.47 14.13 105.11
  Q 13.59 105.00 13.20 105.40
  L 11.71 106.97
  A 0.75 0.75 0.0 0 1 10.93 107.16
  Q 9.31 106.62 8.95 107.99
  A 0.50 0.50 0.0 0 1 7.98 107.99
  L 7.88 107.61
  Q 7.79 107.24 7.42 107.13
  Q 7.01 107.02 6.59 107.13
  Q 6.12 107.25 6.12 107.74
  L 6.12 108.44
  A 0.69 0.68 -88.1 0 1 5.39 109.13
  Q 4.68 109.07 4.01 109.38
  Q 3.53 109.60 3.23 110.03
  Q 3.03 110.34 2.68 110.23
  Q 2.24 110.11 2.24 110.56
  Q 2.21 112.35 1.53 113.11
  L 0.00 100.87
  L 0.00 91.02
  Q 0.78 81.15 3.16 71.65
  C 5.01 72.11 6.20 71.80 7.95 71.92
  Q 8.70 71.98 9.01 71.24
  Q 9.19 70.80 9.64 70.99
  Q 9.94 71.11 10.14 71.43
  Q 10.43 71.89 10.97 71.89
  L 12.23 71.89
  Q 12.84 71.89 13.07 72.45
  Q 13.35 73.15 14.27 72.86
  A 0.57 0.57 0.0 0 1 15.00 73.27
  Q 15.09 73.62 15.35 73.87
  A 0.32 0.32 0.0 0 0 15.88 73.63
  L 15.89 72.71
  Q 15.89 72.17 16.41 72.00
  Q 17.59 71.59 18.19 72.57
  Q 18.42 72.95 18.85 72.87
  Q 19.83 72.68 20.21 73.73
  Q 20.47 74.43 20.78 73.75
  L 20.98 73.33
  Q 21.18 72.89 21.67 72.89
  L 25.47 72.89
  Q 25.87 72.89 26.01 73.27
  L 26.12 73.59
  Q 26.25 73.95 26.64 73.93
  Q 30.36 73.71 33.99 74.18
  Q 34.21 74.21 34.30 74.36
  Q 34.37 74.46 34.44 74.37
  Q 34.52 74.26 34.68 74.25
  Q 34.79 74.24 34.80 74.34
  Q 34.89 74.96 35.32 75.49
  Z" fill="#8393e8"></path>
<path d="M 192.00 83.47
  L 192.00 100.98
  Q 190.77 118.00 184.39 133.52
  Q 182.51 134.37 180.65 134.08
  Q 180.14 134.00 179.88 133.55
  Q 178.95 131.96 176.98 131.92
  Q 176.39 131.90 175.98 131.49
  L 175.65 131.16
  Q 175.39 130.90 175.11 131.14
  Q 174.86 131.36 174.88 131.63
  A 0.47 0.30 42.2 0 1 174.11 131.50
  Q 173.92 131.08 173.52 130.88
  Q 172.92 130.59 173.28 130.03
  L 173.66 129.45
  A 0.25 0.25 0.0 0 0 173.42 129.06
  Q 172.18 129.21 172.04 128.35
  Q 171.97 127.86 171.47 127.87
  L 170.00 127.92
  Q 169.59 127.93 169.28 127.64
  L 166.74 125.18
  Q 166.42 124.87 166.09 125.17
  Q 165.87 125.36 165.88 125.64
  A 0.27 0.27 0.0 0 1 165.42 125.84
  L 161.93 122.35
  Q 161.54 121.97 161.00 121.97
  Q 159.87 121.98 159.85 120.77
  A 0.36 0.36 0.0 0 0 159.27 120.49
  Q 158.60 121.02 157.73 120.88
  Q 157.16 120.79 156.97 120.25
  L 156.68 119.43
  Q 156.47 118.81 155.92 119.16
  Q 155.23 119.62 154.44 119.71
  L 155.85 114.58
  Q 156.01 114.03 155.43 114.03
  L 148.51 113.98
  Q 149.21 113.25 146.77 113.04
  Q 146.24 113.00 146.29 112.47
  Q 146.36 111.78 145.62 111.59
  Q 144.25 111.25 143.71 110.39
  Q 143.46 109.99 143.00 109.99
  Q 142.01 109.98 141.00 109.92
  A 1.04 0.00 27.3 0 1 140.08 109.45
  Q 139.40 109.10 139.06 108.52
  Q 138.78 108.05 138.23 108.01
  C 136.75 107.90 136.38 106.24 134.69 105.86
  Q 134.20 105.75 133.87 105.37
  Q 133.48 104.92 132.90 104.93
  A 1.08 1.05 61.2 0 1 132.31 104.75
  Q 131.46 104.17 130.91 103.35
  Q 130.69 103.03 130.31 103.01
  L 129.86 102.98
  Q 129.60 102.97 129.40 102.79
  Q 128.04 101.65 126.90 100.33
  Q 126.53 99.91 125.97 99.98
  Q 125.23 100.09 124.98 99.43
  Q 124.78 98.91 124.23 99.00
  Q 123.18 99.17 122.78 98.26
  A 0.63 0.62 78.7 0 0 122.25 97.90
  L 121.75 97.88
  Q 121.41 97.87 121.23 97.57
  Q 120.83 96.87 120.29 96.96
  A 1.86 1.85 -89.8 0 1 118.16 94.81
  Q 118.21 94.50 117.62 94.18
  C 117.04 93.87 116.33 94.05 115.69 93.96
  Q 115.14 93.87 114.89 93.37
  Q 114.59 92.76 113.86 92.88
  Q 113.43 92.95 113.16 92.59
  Q 112.22 91.32 110.73 90.79
  Q 110.28 90.63 109.95 90.28
  Q 109.30 89.63 109.01 89.48
  Q 104.42 87.21 100.08 84.05
  L 192.00 83.47
  Z" fill="#c3cdf3"></path>
<path d="M 100.08 84.05
  Q 104.42 87.21 109.01 89.48
  Q 109.30 89.63 109.95 90.28
  Q 110.28 90.63 110.73 90.79
  Q 112.22 91.32 113.16 92.59
  Q 113.43 92.95 113.86 92.88
  Q 114.59 92.76 114.89 93.37
  Q 115.14 93.87 115.69 93.96
  C 116.33 94.05 117.04 93.87 117.62 94.18
  Q 118.21 94.50 118.16 94.81
  A 1.86 1.85 -89.8 0 0 120.29 96.96
  Q 120.83 96.87 121.23 97.57
  Q 121.41 97.87 121.75 97.88
  L 122.25 97.90
  A 0.63 0.62 78.7 0 1 122.78 98.26
  Q 123.18 99.17 124.23 99.00
  Q 124.78 98.91 124.98 99.43
  Q 125.23 100.09 125.97 99.98
  Q 126.53 99.91 126.90 100.33
  Q 128.04 101.65 129.40 102.79
  Q 129.60 102.97 129.86 102.98
  L 130.31 103.01
  Q 130.69 103.03 130.91 103.35
  Q 131.46 104.17 132.31 104.75
  A 1.08 1.05 61.2 0 0 132.90 104.93
  Q 133.48 104.92 133.87 105.37
  Q 134.20 105.75 134.69 105.86
  C 136.38 106.24 136.75 107.90 138.23 108.01
  Q 138.78 108.05 139.06 108.52
  Q 139.40 109.10 140.08 109.45
  A 1.04 0.00 27.3 0 0 141.00 109.92
  Q 142.01 109.98 143.00 109.99
  Q 143.46 109.99 143.71 110.39
  Q 144.25 111.25 145.62 111.59
  Q 146.36 111.78 146.29 112.47
  Q 146.24 113.00 146.77 113.04
  Q 149.21 113.25 148.51 113.98
  L 96.74 113.98
  Q 96.00 113.98 96.00 113.25
  L 96.00 84.75
  Q 96.00 84.23 96.51 84.14
  Q 98.45 83.78 100.08 84.05
  Z" fill="#bac5f2"></path>
<path d="M 32.42 103.81
  Q 35.95 129.28 55.60 145.70
  L 55.22 146.02
  A 0.20 0.20 0.0 0 0 55.36 146.37
  Q 55.94 146.35 55.94 147.14
  A 0.63 0.63 0.0 0 1 55.36 147.77
  Q 54.24 147.88 54.21 149.26
  Q 54.18 150.78 54.08 152.38
  Q 54.05 152.92 53.53 153.09
  Q 52.90 153.31 53.16 154.04
  A 0.75 0.74 -23.7 0 1 52.81 154.93
  Q 52.19 155.27 51.47 155.10
  A 0.32 0.31 83.2 0 0 51.12 155.55
  Q 51.29 155.89 51.65 155.97
  A 0.48 0.48 0.0 0 1 51.87 156.79
  L 50.31 158.27
  Q 50.12 158.45 50.12 158.71
  L 50.12 159.09
  Q 50.12 159.52 49.81 159.82
  L 48.32 161.28
  Q 47.98 161.60 48.10 162.06
  Q 48.47 163.39 47.46 164.21
  Q 47.14 164.47 47.13 164.89
  Q 47.10 166.22 47.12 167.50
  Q 47.14 168.17 46.44 168.06
  Q 46.14 168.02 46.00 167.75
  Q 45.94 167.62 45.89 167.48
  A 0.40 0.40 0.0 0 0 45.13 167.50
  Q 45.08 167.70 45.14 168.00
  Q 45.29 168.76 44.64 169.08
  Q 44.22 169.28 44.16 169.73
  C 43.96 171.03 42.88 171.52 42.63 172.90
  Q 42.55 173.36 42.13 173.56
  Q 41.47 173.89 41.75 175.20
  C 20.18 159.54 6.66 139.44 1.53 113.11
  Q 2.21 112.35 2.24 110.56
  Q 2.24 110.11 2.68 110.23
  Q 3.03 110.34 3.23 110.03
  Q 3.53 109.60 4.01 109.38
  Q 4.68 109.07 5.39 109.13
  A 0.69 0.68 -88.1 0 0 6.12 108.44
  L 6.12 107.74
  Q 6.12 107.25 6.59 107.13
  Q 7.01 107.02 7.42 107.13
  Q 7.79 107.24 7.88 107.61
  L 7.98 107.99
  A 0.50 0.50 0.0 0 0 8.95 107.99
  Q 9.31 106.62 10.93 107.16
  A 0.75 0.75 0.0 0 0 11.71 106.97
  L 13.20 105.40
  Q 13.59 105.00 14.13 105.11
  Q 15.91 105.47 17.34 104.42
  Q 17.66 104.19 18.05 104.14
  Q 18.72 104.03 19.11 103.50
  Q 19.77 102.60 19.90 103.49
  Q 19.95 103.80 20.26 103.95
  Q 20.78 104.19 21.00 103.67
  Q 21.26 103.05 21.10 102.34
  A 0.19 0.19 0.0 0 1 21.39 102.14
  Q 22.85 103.03 23.24 102.21
  Q 24.89 101.91 26.56 101.82
  Q 26.94 101.79 27.14 101.46
  L 27.33 101.13
  Q 27.44 100.94 27.60 101.10
  L 27.85 101.35
  Q 28.23 101.72 28.75 101.63
  L 31.49 101.12
  Q 31.98 101.02 31.90 101.52
  Q 31.65 103.08 32.42 103.81
  Z" fill="#97a4eb"></path>
<path d="M 184.39 133.52
  Q 168.64 169.14 132.99 184.61
  Q 131.82 183.63 131.12 184.08
  A 0.16 0.16 0.0 0 1 130.92 183.83
  L 131.21 183.53
  Q 131.62 183.12 131.62 182.55
  L 131.62 180.72
  A 0.87 0.86 8.8 0 0 131.01 179.90
  Q 130.71 179.81 130.40 179.92
  Q 129.01 180.38 129.68 179.08
  Q 130.09 178.27 130.85 177.88
  A 0.42 0.42 0.0 0 0 130.85 177.13
  Q 129.66 176.53 130.18 175.00
  A 0.73 0.72 32.0 0 0 130.00 174.26
  L 129.75 174.01
  A 0.44 0.44 0.0 0 0 129.01 174.22
  Q 128.91 174.66 128.55 174.94
  A 0.09 0.09 0.0 0 1 128.42 174.93
  Q 128.33 174.83 128.22 174.74
  Q 127.94 174.52 128.04 174.18
  Q 128.68 172.05 127.28 170.65
  Q 126.90 170.27 127.06 169.75
  Q 127.46 168.49 126.48 167.73
  Q 126.11 167.44 126.15 166.97
  Q 126.30 164.93 124.43 163.91
  Q 124.02 163.68 124.12 163.22
  Q 124.32 162.28 123.42 161.75
  Q 123.11 161.56 123.13 161.20
  Q 123.16 160.57 122.50 160.64
  A 0.16 0.16 0.0 0 1 122.37 160.37
  L 122.63 160.11
  Q 122.87 159.87 122.86 159.54
  Q 122.78 157.68 121.76 156.18
  A 0.80 0.80 0.0 0 1 122.11 154.99
  Q 124.82 153.81 125.32 153.00
  C 138.99 145.64 149.70 134.70 154.44 119.71
  Q 155.23 119.62 155.92 119.16
  Q 156.47 118.81 156.68 119.43
  L 156.97 120.25
  Q 157.16 120.79 157.73 120.88
  Q 158.60 121.02 159.27 120.49
  A 0.36 0.36 0.0 0 1 159.85 120.77
  Q 159.87 121.98 161.00 121.97
  Q 161.54 121.97 161.93 122.35
  L 165.42 125.84
  A 0.27 0.27 0.0 0 0 165.88 125.64
  Q 165.87 125.36 166.09 125.17
  Q 166.42 124.87 166.74 125.18
  L 169.28 127.64
  Q 169.59 127.93 170.00 127.92
  L 171.47 127.87
  Q 171.97 127.86 172.04 128.35
  Q 172.18 129.21 173.42 129.06
  A 0.25 0.25 0.0 0 1 173.66 129.45
  L 173.28 130.03
  Q 172.92 130.59 173.52 130.88
  Q 173.92 131.08 174.11 131.50
  A 0.47 0.30 42.2 0 0 174.88 131.63
  Q 174.86 131.36 175.11 131.14
  Q 175.39 130.90 175.65 131.16
  L 175.98 131.49
  Q 176.39 131.90 176.98 131.92
  Q 178.95 131.96 179.88 133.55
  Q 180.14 134.00 180.65 134.08
  Q 182.51 134.37 184.39 133.52
  Z" fill="#bac5f2"></path>
<path d="M 55.60 145.70
  C 76.10 162.06 101.92 164.17 125.32 153.00
  Q 124.82 153.81 122.11 154.99
  A 0.80 0.80 0.0 0 0 121.76 156.18
  Q 122.78 157.68 122.86 159.54
  Q 122.87 159.87 122.63 160.11
  L 122.37 160.37
  A 0.16 0.16 0.0 0 0 122.50 160.64
  Q 123.16 160.57 123.13 161.20
  Q 123.11 161.56 123.42 161.75
  Q 124.32 162.28 124.12 163.22
  Q 124.02 163.68 124.43 163.91
  Q 126.30 164.93 126.15 166.97
  Q 126.11 167.44 126.48 167.73
  Q 127.46 168.49 127.06 169.75
  Q 126.90 170.27 127.28 170.65
  Q 128.68 172.05 128.04 174.18
  Q 127.94 174.52 128.22 174.74
  Q 128.33 174.83 128.42 174.93
  A 0.09 0.09 0.0 0 0 128.55 174.94
  Q 128.91 174.66 129.01 174.22
  A 0.44 0.44 0.0 0 1 129.75 174.01
  L 130.00 174.26
  A 0.73 0.72 32.0 0 1 130.18 175.00
  Q 129.66 176.53 130.85 177.13
  A 0.42 0.42 0.0 0 1 130.85 177.88
  Q 130.09 178.27 129.68 179.08
  Q 129.01 180.38 130.40 179.92
  Q 130.71 179.81 131.01 179.90
  A 0.87 0.86 8.8 0 1 131.62 180.72
  L 131.62 182.55
  Q 131.62 183.12 131.21 183.53
  L 130.92 183.83
  A 0.16 0.16 0.0 0 0 131.12 184.08
  Q 131.82 183.63 132.99 184.61
  Q 117.62 190.83 100.85 192.00
  L 91.03 192.00
  Q 63.83 190.15 41.75 175.20
  Q 41.47 173.89 42.13 173.56
  Q 42.55 173.36 42.63 172.90
  C 42.88 171.52 43.96 171.03 44.16 169.73
  Q 44.22 169.28 44.64 169.08
  Q 45.29 168.76 45.14 168.00
  Q 45.08 167.70 45.13 167.50
  A 0.40 0.40 0.0 0 1 45.89 167.48
  Q 45.94 167.62 46.00 167.75
  Q 46.14 168.02 46.44 168.06
  Q 47.14 168.17 47.12 167.50
  Q 47.10 166.22 47.13 164.89
  Q 47.14 164.47 47.46 164.21
  Q 48.47 163.39 48.10 162.06
  Q 47.98 161.60 48.32 161.28
  L 49.81 159.82
  Q 50.12 159.52 50.12 159.09
  L 50.12 158.71
  Q 50.12 158.45 50.31 158.27
  L 51.87 156.79
  A 0.48 0.48 0.0 0 0 51.65 155.97
  Q 51.29 155.89 51.12 155.55
  A 0.32 0.31 83.2 0 1 51.47 155.10
  Q 52.19 155.27 52.81 154.93
  A 0.75 0.74 -23.7 0 0 53.16 154.04
  Q 52.90 153.31 53.53 153.09
  Q 54.05 152.92 54.08 152.38
  Q 54.18 150.78 54.21 149.26
  Q 54.24 147.88 55.36 147.77
  A 0.63 0.63 0.0 0 0 55.94 147.14
  Q 55.94 146.35 55.36 146.37
  A 0.20 0.20 0.0 0 1 55.22 146.02
  L 55.60 145.70
  Z" fill="#abb7ef"></path>
</svg>
