<svg viewBox="0.00 0.00 240.00 240.00" version="1.1" xmlns="http://www.w3.org/2000/svg">
<g stroke-linecap="butt" fill="none" stroke-width="2.00">
<path d="M 112.31 30.39
  Q 111.29 35.01 110.25 38.74
  C 108.23 45.96 101.63 46.87 95.22 47.25
  A 2.01 2.01 0.0 0 0 93.44 48.60
  Q 92.78 50.49 94.23 52.50
  C 98.05 57.81 101.91 62.07 103.45 68.26
  Q 104.52 72.59 105.34 68.20
  C 106.91 59.78 107.44 54.68 113.93 48.52" stroke="#4c5052"></path>
<path d="M 155.09 86.33
  Q 154.61 88.41 155.01 89.67
  Q 158.81 101.50 158.53 113.83
  C 158.29 124.31 157.41 133.38 167.20 139.84
  C 173.46 143.97 176.42 138.08 181.73 136.08
  Q 183.74 135.32 185.83 135.11
  A 0.41 0.40 14.1 0 1 186.21 135.74
  L 184.46 138.33" stroke="#838587"></path>
<path d="M 184.46 138.33
  Q 180.21 144.31 179.51 153.75
  Q 178.91 161.83 180.42 167.77" stroke="#787c7e"></path>
<path d="M 180.42 167.77
  C 183.01 176.73 189.97 182.42 199.49 180.47
  Q 206.56 179.02 211.00 172.90" stroke="#6b6f72"></path>
<path d="M 160.47 169.48
  Q 150.38 172.48 139.51 170.69" stroke="#4c5052"></path>
<path d="M 139.51 170.69
  Q 142.19 165.19 142.64 163.38
  Q 145.62 151.22 147.01 138.77
  Q 147.21 136.94 147.58 136.35
  C 151.67 129.83 154.82 124.09 155.75 116.50
  Q 156.77 108.14 155.95 99.75
  C 155.86 98.84 155.39 98.57 155.13 97.92
  Q 154.13 95.44 153.97 98.00
  Q 152.70 118.40 142.34 135.95
  Q 142.10 136.35 142.11 136.81
  C 142.44 148.59 141.97 159.54 137.99 170.46" stroke="#525659"></path>
<path d="M 137.99 170.46
  L 126.82 194.56" stroke="#4c5052"></path>
<path d="M 124.21 216.29
  C 127.64 219.22 131.73 221.87 130.96 227.03" stroke="#525659"></path>
<path d="M 74.06 131.34
  Q 65.21 125.74 60.50 115.94
  Q 57.48 109.65 56.19 102.77
  C 55.37 98.42 48.42 97.28 45.22 94.62
  C 37.93 88.57 36.69 81.20 37.09 72.21" stroke="#4c5052"></path>
<path d="M 211.88 137.10
  Q 211.31 137.70 210.48 137.65
  Q 210.15 137.64 210.13 137.30
  Q 210.12 137.13 210.12 136.95
  Q 210.14 136.57 209.76 136.62
  L 206.93 137.00
  Q 206.55 137.05 206.18 136.94
  Q 204.90 136.57 203.97 137.45
  Q 203.62 137.78 203.14 137.78
  L 193.64 137.93
  Q 193.31 137.94 193.08 138.16
  Q 192.96 138.28 192.91 138.44
  Q 192.74 138.96 192.19 138.92
  L 184.46 138.33" stroke="#9e9f9f"></path>
<path d="M 212.18 163.03
  Q 210.26 162.97 210.72 163.75
  A 0.64 0.64 0.0 0 1 210.20 164.71
  Q 203.74 164.98 197.68 165.82
  C 194.66 166.23 191.86 166.12 188.88 166.13
  Q 188.73 166.13 188.63 166.19
  Q 188.51 166.25 188.40 166.35
  Q 188.11 166.60 187.73 166.66
  L 180.42 167.77" stroke="#86898a"></path>
<path d="M 73.33 182.58
  Q 73.26 181.91 73.43 181.40
  Q 73.57 180.98 73.34 180.59
  Q 73.02 180.06 72.48 180.26
  Q 72.15 180.38 71.84 180.20
  Q 71.69 180.11 71.55 180.04
  Q 71.28 179.90 70.91 179.90
  Q 51.81 179.85 32.49 179.89" stroke="#414446"></path>
<path d="M 32.49 179.89
  C 30.81 168.03 34.86 158.90 37.74 148.22
  C 38.38 145.86 38.35 143.34 38.49 140.83
  Q 38.55 139.90 38.93 140.75
  L 41.42 146.28
  Q 41.94 147.42 42.15 146.19
  C 44.97 130.02 40.75 117.88 34.02 102.99
  Q 28.91 91.70 31.98 78.46" stroke="#4c5052"></path>
<path d="M 139.51 170.69
  Q 139.16 170.81 137.99 170.46" stroke="#414446"></path>
<path d="M 155.43 200.54
  Q 142.71 199.24 129.96 200.36
  Q 129.45 200.41 129.23 200.88
  Q 128.88 201.63 128.18 202.25" stroke="#414446"></path>
<path d="M 32.49 179.89
  C 33.57 185.64 36.65 190.30 39.57 195.20
  C 45.02 204.35 36.62 212.19 41.77 220.71
  Q 44.23 224.80 48.69 228.46" stroke="#525659"></path>
<path d="M 44.96 46.82
  Q 44.12 47.14 44.44 48.28
  Q 45.95 53.75 47.81 57.39
  A 1.15 1.14 -11.2 0 0 48.74 58.01
  Q 51.86 58.25 54.01 60.50
  Q 54.63 61.15 55.31 60.56
  C 60.55 55.99 67.76 58.19 67.96 65.33
  Q 67.98 65.90 67.44 66.10
  L 61.06 68.45
  A 1.70 1.68 48.9 0 1 59.68 68.35
  Q 54.98 65.84 63.56 62.62
  A 0.72 0.72 0.0 0 0 63.67 61.33
  L 61.88 60.30
  A 2.64 2.64 0.0 0 0 58.79 60.61
  L 55.22 63.77
  A 0.78 0.78 0.0 0 1 54.05 63.60
  C 52.81 61.62 48.68 58.01 46.97 61.60
  Q 46.77 62.02 47.14 62.30
  L 50.96 65.11
  A 1.28 1.27 43.1 0 1 51.03 67.11
  L 50.58 67.49
  A 2.09 2.07 -47.4 0 1 48.03 67.61
  L 44.81 65.34
  A 0.99 0.99 0.0 0 0 43.52 65.47
  Q 39.04 70.26 40.86 76.86" stroke="#838587"></path>
<path d="M 40.86 76.86
  L 41.42 78.78" stroke="#2f3133"></path>
<path d="M 41.42 78.78
  Q 40.71 79.13 41.45 80.78
  C 45.30 89.32 55.76 93.39 64.51 93.61
  Q 66.61 93.67 67.47 91.97
  Q 70.52 85.97 73.32 78.04
  C 76.45 69.16 82.28 60.18 87.83 51.98
  Q 88.12 51.55 87.86 51.11
  Q 85.83 47.73 82.19 46.08" stroke="#838587"></path>
<path d="M 82.19 46.08
  L 82.57 46.13
  A 0.84 0.84 0.0 0 0 83.31 44.74
  C 78.18 39.06 55.34 41.83 48.11 42.78
  Q 45.40 43.14 44.65 44.14
  Q 42.84 46.51 44.96 46.82" stroke="#525659"></path>
<path d="M 82.19 46.08
  C 74.55 42.73 65.04 43.72 60.41 51.26
  A 1.54 1.53 -48.2 0 1 57.89 51.40
  Q 52.90 44.96 44.96 46.82" stroke="#77797b"></path>
<path d="M 41.42 78.78
  Q 51.20 81.29 57.25 81.17
  Q 62.21 81.08 67.91 81.04
  A 1.99 1.98 83.8 0 0 69.84 78.63
  L 69.77 78.32
  A 2.51 2.50 -10.8 0 0 66.93 76.39
  C 58.45 77.72 50.86 77.58 44.24 75.14
  C 42.41 74.46 41.45 75.11 40.86 76.86" stroke="#545454"></path>
<path d="M 89.06 105.22
  C 88.88 110.36 90.36 114.10 92.38 119.09
  C 95.14 125.90 94.25 129.86 93.14 136.75
  Q 92.99 137.70 93.61 138.02
  A 0.72 0.72 0.0 0 0 94.63 137.60
  Q 95.31 135.53 96.46 133.69
  Q 101.49 125.70 100.21 116.24
  C 99.71 112.51 98.33 107.72 98.33 103.87
  Q 98.33 95.06 102.57 84.28
  Q 103.20 82.70 101.83 81.69
  L 101.50 81.44
  A 1.18 1.17 -57.8 0 0 99.77 81.84
  C 92.87 94.81 84.49 99.06 71.71 100.53
  Q 68.11 100.94 71.00 103.13
  C 72.34 104.14 78.43 104.91 80.20 104.90
  Q 84.33 104.87 88.46 104.63
  Q 89.08 104.60 89.06 105.22" stroke="#4c5052"></path>
<path d="M 54.2200 56.8793
  A 4.11 3.02 54.1 0 0 54.2563 51.7792
  A 4.11 3.02 54.1 0 0 49.4000 50.2207
  A 4.11 3.02 54.1 0 0 49.3637 55.3208
  A 4.11 3.02 54.1 0 0 54.2200 56.8793" stroke="#545454"></path>
<path d="M 74.9957 51.1117
  A 4.66 3.76 -42.5 0 0 69.0198 51.4878
  A 4.66 3.76 -42.5 0 0 68.1243 57.4083
  A 4.66 3.76 -42.5 0 0 74.1002 57.0322
  A 4.66 3.76 -42.5 0 0 74.9957 51.1117" stroke="#545454"></path>
</g>
<path d="M 112.31 30.39
  Q 111.29 35.01 110.25 38.74
  C 108.23 45.96 101.63 46.87 95.22 47.25
  A 2.01 2.01 0.0 0 0 93.44 48.60
  Q 92.78 50.49 94.23 52.50
  C 98.05 57.81 101.91 62.07 103.45 68.26
  Q 104.52 72.59 105.34 68.20
  C 106.91 59.78 107.44 54.68 113.93 48.52
  C 134.10 47.50 149.47 66.53 153.57 84.43
  C 153.80 85.44 154.28 85.85 155.09 86.33
  Q 154.61 88.41 155.01 89.67
  Q 158.81 101.50 158.53 113.83
  C 158.29 124.31 157.41 133.38 167.20 139.84
  C 173.46 143.97 176.42 138.08 181.73 136.08
  Q 183.74 135.32 185.83 135.11
  A 0.41 0.40 14.1 0 1 186.21 135.74
  L 184.46 138.33
  Q 180.21 144.31 179.51 153.75
  Q 178.91 161.83 180.42 167.77
  C 183.01 176.73 189.97 182.42 199.49 180.47
  Q 206.56 179.02 211.00 172.90
  Q 219.66 182.92 222.02 196.14
  C 223.48 204.36 224.23 213.39 222.05 221.55
  C 220.39 227.76 206.09 231.17 200.75 231.73
  C 195.86 232.24 184.97 232.54 180.79 230.17
  C 175.21 227.00 185.41 217.58 187.80 215.30
  C 190.38 212.83 188.46 203.39 187.43 200.61
  A 3.34 3.31 -0.3 0 0 185.43 198.65
  C 172.78 194.22 165.27 182.66 162.95 169.57
  A 0.67 0.67 0.0 0 0 162.26 169.03
  Q 161.44 169.06 160.47 169.48
  Q 150.38 172.48 139.51 170.69
  Q 142.19 165.19 142.64 163.38
  Q 145.62 151.22 147.01 138.77
  Q 147.21 136.94 147.58 136.35
  C 151.67 129.83 154.82 124.09 155.75 116.50
  Q 156.77 108.14 155.95 99.75
  C 155.86 98.84 155.39 98.57 155.13 97.92
  Q 154.13 95.44 153.97 98.00
  Q 152.70 118.40 142.34 135.95
  Q 142.10 136.35 142.11 136.81
  C 142.44 148.59 141.97 159.54 137.99 170.46
  L 126.82 194.56
  Q 123.66 200.86 121.46 207.00
  Q 119.39 212.77 124.21 216.29
  C 127.64 219.22 131.73 221.87 130.96 227.03
  C 127.91 234.83 106.50 232.55 100.01 232.01
  C 88.24 231.03 92.62 222.42 95.80 215.73
  C 100.54 205.77 94.89 193.12 92.04 184.07
  Q 86.69 167.08 89.27 149.43
  Q 89.34 148.93 88.92 148.65
  C 82.32 144.33 78.40 138.50 74.06 131.34
  Q 65.21 125.74 60.50 115.94
  Q 57.48 109.65 56.19 102.77
  C 55.37 98.42 48.42 97.28 45.22 94.62
  C 37.93 88.57 36.69 81.20 37.09 72.21
  Q 38.50 65.58 43.83 61.51
  A 1.20 1.19 71.9 0 0 44.30 60.58
  L 44.35 58.20
  Q 44.36 57.66 43.97 57.29
  Q 36.31 49.93 41.51 40.28
  C 43.30 36.97 52.70 30.65 56.94 27.87
  Q 57.36 27.60 57.40 27.09
  C 57.79 21.42 57.41 17.70 62.08 13.57
  C 70.32 6.30 81.83 5.69 91.44 10.65
  Q 105.15 17.70 112.31 30.39
  Z
  M 44.96 46.82
  Q 44.12 47.14 44.44 48.28
  Q 45.95 53.75 47.81 57.39
  A 1.15 1.14 -11.2 0 0 48.74 58.01
  Q 51.86 58.25 54.01 60.50
  Q 54.63 61.15 55.31 60.56
  C 60.55 55.99 67.76 58.19 67.96 65.33
  Q 67.98 65.90 67.44 66.10
  L 61.06 68.45
  A 1.70 1.68 48.9 0 1 59.68 68.35
  Q 54.98 65.84 63.56 62.62
  A 0.72 0.72 0.0 0 0 63.67 61.33
  L 61.88 60.30
  A 2.64 2.64 0.0 0 0 58.79 60.61
  L 55.22 63.77
  A 0.78 0.78 0.0 0 1 54.05 63.60
  C 52.81 61.62 48.68 58.01 46.97 61.60
  Q 46.77 62.02 47.14 62.30
  L 50.96 65.11
  A 1.28 1.27 43.1 0 1 51.03 67.11
  L 50.58 67.49
  A 2.09 2.07 -47.4 0 1 48.03 67.61
  L 44.81 65.34
  A 0.99 0.99 0.0 0 0 43.52 65.47
  Q 39.04 70.26 40.86 76.86
  L 41.42 78.78
  Q 40.71 79.13 41.45 80.78
  C 45.30 89.32 55.76 93.39 64.51 93.61
  Q 66.61 93.67 67.47 91.97
  Q 70.52 85.97 73.32 78.04
  C 76.45 69.16 82.28 60.18 87.83 51.98
  Q 88.12 51.55 87.86 51.11
  Q 85.83 47.73 82.19 46.08
  L 82.57 46.13
  A 0.84 0.84 0.0 0 0 83.31 44.74
  C 78.18 39.06 55.34 41.83 48.11 42.78
  Q 45.40 43.14 44.65 44.14
  Q 42.84 46.51 44.96 46.82
  Z
  M 89.06 105.22
  C 88.88 110.36 90.36 114.10 92.38 119.09
  C 95.14 125.90 94.25 129.86 93.14 136.75
  Q 92.99 137.70 93.61 138.02
  A 0.72 0.72 0.0 0 0 94.63 137.60
  Q 95.31 135.53 96.46 133.69
  Q 101.49 125.70 100.21 116.24
  C 99.71 112.51 98.33 107.72 98.33 103.87
  Q 98.33 95.06 102.57 84.28
  Q 103.20 82.70 101.83 81.69
  L 101.50 81.44
  A 1.18 1.17 -57.8 0 0 99.77 81.84
  C 92.87 94.81 84.49 99.06 71.71 100.53
  Q 68.11 100.94 71.00 103.13
  C 72.34 104.14 78.43 104.91 80.20 104.90
  Q 84.33 104.87 88.46 104.63
  Q 89.08 104.60 89.06 105.22
  Z" fill="#5d6265"></path>
<path d="M 112.31 30.39
  C 114.90 36.47 116.84 42.20 113.93 48.52
  C 107.44 54.68 106.91 59.78 105.34 68.20
  Q 104.52 72.59 103.45 68.26
  C 101.91 62.07 98.05 57.81 94.23 52.50
  Q 92.78 50.49 93.44 48.60
  A 2.01 2.01 0.0 0 1 95.22 47.25
  C 101.63 46.87 108.23 45.96 110.25 38.74
  Q 111.29 35.01 112.31 30.39
  Z" fill="#3b3d3e"></path>
<path d="M 82.19 46.08
  C 74.55 42.73 65.04 43.72 60.41 51.26
  A 1.54 1.53 -48.2 0 1 57.89 51.40
  Q 52.90 44.96 44.96 46.82
  Q 42.84 46.51 44.65 44.14
  Q 45.40 43.14 48.11 42.78
  C 55.34 41.83 78.18 39.06 83.31 44.74
  A 0.84 0.84 0.0 0 1 82.57 46.13
  L 82.19 46.08
  Z" fill="#464a4d"></path>
<path d="M 82.19 46.08
  Q 85.83 47.73 87.86 51.11
  Q 88.12 51.55 87.83 51.98
  C 82.28 60.18 76.45 69.16 73.32 78.04
  Q 70.52 85.97 67.47 91.97
  Q 66.61 93.67 64.51 93.61
  C 55.76 93.39 45.30 89.32 41.45 80.78
  Q 40.71 79.13 41.42 78.78
  Q 51.20 81.29 57.25 81.17
  Q 62.21 81.08 67.91 81.04
  A 1.99 1.98 83.8 0 0 69.84 78.63
  L 69.77 78.32
  A 2.51 2.50 -10.8 0 0 66.93 76.39
  C 58.45 77.72 50.86 77.58 44.24 75.14
  C 42.41 74.46 41.45 75.11 40.86 76.86
  Q 39.04 70.26 43.52 65.47
  A 0.99 0.99 0.0 0 1 44.81 65.34
  L 48.03 67.61
  A 2.09 2.07 -47.4 0 0 50.58 67.49
  L 51.03 67.11
  A 1.28 1.27 43.1 0 0 50.96 65.11
  L 47.14 62.30
  Q 46.77 62.02 46.97 61.60
  C 48.68 58.01 52.81 61.62 54.05 63.60
  A 0.78 0.78 0.0 0 0 55.22 63.77
  L 58.79 60.61
  A 2.64 2.64 0.0 0 1 61.88 60.30
  L 63.67 61.33
  A 0.72 0.72 0.0 0 1 63.56 62.62
  Q 54.98 65.84 59.68 68.35
  A 1.70 1.68 48.9 0 0 61.06 68.45
  L 67.44 66.10
  Q 67.98 65.90 67.96 65.33
  C 67.76 58.19 60.55 55.99 55.31 60.56
  Q 54.63 61.15 54.01 60.50
  Q 51.86 58.25 48.74 58.01
  A 1.15 1.14 -11.2 0 1 47.81 57.39
  Q 45.95 53.75 44.44 48.28
  Q 44.12 47.14 44.96 46.82
  Q 52.90 44.96 57.89 51.40
  A 1.54 1.53 -48.2 0 0 60.41 51.26
  C 65.04 43.72 74.55 42.73 82.19 46.08
  Z
  M 54.2200 56.8793
  A 4.11 3.02 54.1 0 0 54.2563 51.7792
  A 4.11 3.02 54.1 0 0 49.4000 50.2207
  A 4.11 3.02 54.1 0 0 49.3637 55.3208
  A 4.11 3.02 54.1 0 0 54.2200 56.8793
  Z
  M 74.9957 51.1117
  A 4.66 3.76 -42.5 0 0 69.0198 51.4878
  A 4.66 3.76 -42.5 0 0 68.1243 57.4083
  A 4.66 3.76 -42.5 0 0 74.1002 57.0322
  A 4.66 3.76 -42.5 0 0 74.9957 51.1117
  Z" fill="#a8a8a8"></path>
<ellipse ry="3.02" rx="4.11" transform="translate(51.81,53.55) rotate(54.1)" cy="0.00" cx="0.00" fill="#000000"></ellipse>
<ellipse ry="3.76" rx="4.66" transform="translate(71.56,54.26) rotate(-42.5)" cy="0.00" cx="0.00" fill="#000000"></ellipse>
<path d="M 37.09 72.21
  C 36.69 81.20 37.93 88.57 45.22 94.62
  C 48.42 97.28 55.37 98.42 56.19 102.77
  Q 57.48 109.65 60.50 115.94
  Q 65.21 125.74 74.06 131.34
  C 72.92 136.36 72.76 139.59 74.69 144.68
  C 80.20 159.23 80.45 168.54 73.33 182.58
  Q 73.26 181.91 73.43 181.40
  Q 73.57 180.98 73.34 180.59
  Q 73.02 180.06 72.48 180.26
  Q 72.15 180.38 71.84 180.20
  Q 71.69 180.11 71.55 180.04
  Q 71.28 179.90 70.91 179.90
  Q 51.81 179.85 32.49 179.89
  C 30.81 168.03 34.86 158.90 37.74 148.22
  C 38.38 145.86 38.35 143.34 38.49 140.83
  Q 38.55 139.90 38.93 140.75
  L 41.42 146.28
  Q 41.94 147.42 42.15 146.19
  C 44.97 130.02 40.75 117.88 34.02 102.99
  Q 28.91 91.70 31.98 78.46
  Q 33.38 75.14 37.09 72.21
  Z" fill="#3b3d3e"></path>
<path d="M 41.42 78.78
  L 40.86 76.86
  C 41.45 75.11 42.41 74.46 44.24 75.14
  C 50.86 77.58 58.45 77.72 66.93 76.39
  A 2.51 2.50 -10.8 0 1 69.77 78.32
  L 69.84 78.63
  A 1.99 1.98 83.8 0 1 67.91 81.04
  Q 62.21 81.08 57.25 81.17
  Q 51.20 81.29 41.42 78.78
  Z" fill="#000000"></path>
<path d="M 31.98 78.46
  Q 28.91 91.70 34.02 102.99
  C 40.75 117.88 44.97 130.02 42.15 146.19
  Q 41.94 147.42 41.42 146.28
  L 38.93 140.75
  Q 38.55 139.90 38.49 140.83
  C 38.35 143.34 38.38 145.86 37.74 148.22
  C 34.86 158.90 30.81 168.03 32.49 179.89
  C 33.57 185.64 36.65 190.30 39.57 195.20
  C 45.02 204.35 36.62 212.19 41.77 220.71
  Q 44.23 224.80 48.69 228.46
  C 43.51 228.60 35.57 227.48 33.49 222.26
  Q 32.05 218.67 31.90 211.50
  C 31.81 206.94 32.54 200.95 31.23 196.64
  Q 27.30 183.62 24.87 170.24
  C 22.75 158.51 26.23 150.96 30.10 140.40
  C 32.43 134.05 31.32 129.15 29.61 121.02
  Q 26.17 104.75 27.81 89.51
  Q 28.40 84.11 31.98 78.46
  Z" fill="#5d6265"></path>
<path d="M 88.46 104.63
  Q 84.33 104.87 80.20 104.90
  C 78.43 104.91 72.34 104.14 71.00 103.13
  Q 68.11 100.94 71.71 100.53
  C 84.49 99.06 92.87 94.81 99.77 81.84
  A 1.18 1.17 -57.8 0 1 101.50 81.44
  L 101.83 81.69
  Q 103.20 82.70 102.57 84.28
  Q 98.33 95.06 98.33 103.87
  C 98.33 107.72 99.71 112.51 100.21 116.24
  Q 101.49 125.70 96.46 133.69
  Q 95.31 135.53 94.63 137.60
  A 0.72 0.72 0.0 0 1 93.61 138.02
  Q 92.99 137.70 93.14 136.75
  C 94.25 129.86 95.14 125.90 92.38 119.09
  C 90.36 114.10 88.88 110.36 89.06 105.22
  Q 89.08 104.60 88.46 104.63
  Z" fill="#3b3d3e"></path>
<path d="M 155.09 86.33
  Q 160.59 90.61 165.97 94.26
  Q 176.10 101.14 191.26 104.49
  C 202.83 107.05 210.14 126.86 211.88 137.10
  Q 211.31 137.70 210.48 137.65
  Q 210.15 137.64 210.13 137.30
  Q 210.12 137.13 210.12 136.95
  Q 210.14 136.57 209.76 136.62
  L 206.93 137.00
  Q 206.55 137.05 206.18 136.94
  Q 204.90 136.57 203.97 137.45
  Q 203.62 137.78 203.14 137.78
  L 193.64 137.93
  Q 193.31 137.94 193.08 138.16
  Q 192.96 138.28 192.91 138.44
  Q 192.74 138.96 192.19 138.92
  L 184.46 138.33
  L 186.21 135.74
  A 0.41 0.40 14.1 0 0 185.83 135.11
  Q 183.74 135.32 181.73 136.08
  C 176.42 138.08 173.46 143.97 167.20 139.84
  C 157.41 133.38 158.29 124.31 158.53 113.83
  Q 158.81 101.50 155.01 89.67
  Q 154.61 88.41 155.09 86.33
  Z" fill="#a8a8a8"></path>
<path d="M 139.51 170.69
  Q 139.16 170.81 137.99 170.46
  C 141.97 159.54 142.44 148.59 142.11 136.81
  Q 142.10 136.35 142.34 135.95
  Q 152.70 118.40 153.97 98.00
  Q 154.13 95.44 155.13 97.92
  C 155.39 98.57 155.86 98.84 155.95 99.75
  Q 156.77 108.14 155.75 116.50
  C 154.82 124.09 151.67 129.83 147.58 136.35
  Q 147.21 136.94 147.01 138.77
  Q 145.62 151.22 142.64 163.38
  Q 142.19 165.19 139.51 170.69
  Z" fill="#464a4d"></path>
<path d="M 211.88 137.10
  Q 213.59 149.77 212.18 163.03
  Q 210.26 162.97 210.72 163.75
  A 0.64 0.64 0.0 0 1 210.20 164.71
  Q 203.74 164.98 197.68 165.82
  C 194.66 166.23 191.86 166.12 188.88 166.13
  Q 188.73 166.13 188.63 166.19
  Q 188.51 166.25 188.40 166.35
  Q 188.11 166.60 187.73 166.66
  L 180.42 167.77
  Q 178.91 161.83 179.51 153.75
  Q 180.21 144.31 184.46 138.33
  L 192.19 138.92
  Q 192.74 138.96 192.91 138.44
  Q 192.96 138.28 193.08 138.16
  Q 193.31 137.94 193.64 137.93
  L 203.14 137.78
  Q 203.62 137.78 203.97 137.45
  Q 204.90 136.57 206.18 136.94
  Q 206.55 137.05 206.93 137.00
  L 209.76 136.62
  Q 210.14 136.57 210.12 136.95
  Q 210.12 137.13 210.13 137.30
  Q 210.15 137.64 210.48 137.65
  Q 211.31 137.70 211.88 137.10
  Z" fill="#939596"></path>
<path d="M 212.18 163.03
  L 211.00 172.90
  Q 206.56 179.02 199.49 180.47
  C 189.97 182.42 183.01 176.73 180.42 167.77
  L 187.73 166.66
  Q 188.11 166.60 188.40 166.35
  Q 188.51 166.25 188.63 166.19
  Q 188.73 166.13 188.88 166.13
  C 191.86 166.12 194.66 166.23 197.68 165.82
  Q 203.74 164.98 210.20 164.71
  A 0.64 0.64 0.0 0 0 210.72 163.75
  Q 210.26 162.97 212.18 163.03
  Z" fill="#797c7e"></path>
<path d="M 160.47 169.48
  C 160.57 175.20 160.96 180.78 158.96 186.25
  Q 158.00 188.87 155.12 194.98
  Q 154.44 196.41 155.43 200.54
  Q 142.71 199.24 129.96 200.36
  Q 129.45 200.41 129.23 200.88
  Q 128.88 201.63 128.18 202.25
  L 126.82 194.56
  L 137.99 170.46
  Q 139.16 170.81 139.51 170.69
  Q 150.38 172.48 160.47 169.48
  Z" fill="#3b3d3e"></path>
<path d="M 32.49 179.89
  Q 51.81 179.85 70.91 179.90
  Q 71.28 179.90 71.55 180.04
  Q 71.69 180.11 71.84 180.20
  Q 72.15 180.38 72.48 180.26
  Q 73.02 180.06 73.34 180.59
  Q 73.57 180.98 73.43 181.40
  Q 73.26 181.91 73.33 182.58
  Q 68.57 191.88 62.50 200.48
  A 1.33 1.30 59.4 0 0 62.27 201.42
  Q 62.89 205.93 60.35 210.63
  C 58.72 213.66 65.59 215.21 67.53 215.91
  C 71.66 217.42 71.66 222.32 68.68 224.94
  Q 67.72 225.78 65.19 226.57
  Q 56.67 229.20 48.69 228.46
  Q 44.23 224.80 41.77 220.71
  C 36.62 212.19 45.02 204.35 39.57 195.20
  C 36.65 190.30 33.57 185.64 32.49 179.89
  Z" fill="#464a4d"></path>
<path d="M 155.43 200.54
  Q 157.68 208.13 158.30 214.24
  C 159.07 221.76 154.53 224.89 147.62 226.21
  Q 139.43 227.77 130.96 227.03
  C 131.73 221.87 127.64 219.22 124.21 216.29
  Q 125.86 214.64 127.18 212.86
  Q 128.54 211.05 128.62 208.74
  Q 128.72 205.48 128.18 202.25
  Q 128.88 201.63 129.23 200.88
  Q 129.45 200.41 129.96 200.36
  Q 142.71 199.24 155.43 200.54
  Z" fill="#464a4d"></path>
</svg>
