<svg viewBox="0.00 0.00 64.00 64.00" version="1.1" xmlns="http://www.w3.org/2000/svg">
<path d="M 64.00 58.97
  L 64.00 60.46
  L 61.52 64.00
  L 56.78 64.00
  L 48.90 60.11
  Q 48.46 59.89 47.99 60.03
  Q 31.82 64.76 20.07 55.05
  C 11.99 48.38 9.50 39.24 8.11 29.24
  Q 8.04 28.73 7.63 28.42
  L 0.00 22.66
  L 0.00 22.18
  L 8.06 16.19
  Q 8.46 15.89 8.53 15.40
  C 10.78 -0.09 30.48 -4.86 40.49 6.53
  Q 42.62 8.95 45.43 15.62
  Q 54.58 37.28 64.00 58.97
  Z
  M 31.05 24.20
  A 0.36 0.36 0.0 0 1 31.40 24.56
  C 31.44 33.53 39.65 39.57 48.15 39.48
  Q 48.65 39.47 48.45 39.01
  Q 43.29 26.82 38.18 14.62
  C 33.01 2.27 15.20 4.51 14.39 18.86
  Q 14.36 19.42 13.91 19.76
  L 10.85 22.08
  A 0.46 0.46 0.0 0 0 10.85 22.82
  L 13.92 25.21
  Q 14.32 25.51 14.32 26.01
  C 14.57 42.87 24.01 57.35 42.86 54.87
  Q 43.70 54.76 43.28 54.03
  L 42.24 52.23
  Q 41.86 51.57 42.54 51.24
  L 46.87 49.10
  Q 47.56 48.76 47.93 49.44
  Q 50.48 54.12 55.18 56.53
  Q 56.14 57.02 55.72 56.03
  L 51.48 45.99
  Q 51.33 45.62 50.92 45.67
  C 37.73 47.18 25.29 38.27 25.04 24.34
  Q 25.04 24.10 25.27 24.10
  L 31.05 24.20
  Z" fill="#00a3ff"></path>
</svg>
