<svg viewBox="0.00 0.00 130.00 130.00" version="1.1" xmlns="http://www.w3.org/2000/svg">
<g stroke-linecap="butt" fill="none" stroke-width="2.00">
<path d="M 76.47 48.77
  Q 76.39 49.19 76.70 49.73" stroke="#d9dad0"></path>
<path d="M 76.70 49.73
  Q 76.44 49.59 76.22 49.64
  Q 76.05 49.67 75.89 49.92
  C 71.73 56.31 62.87 61.62 55.10 58.20
  C 45.14 53.82 40.68 41.53 38.41 31.52" stroke="#c4b47f"></path>
<path d="M 76.55 83.45
  Q 76.75 82.73 76.49 82.71" stroke="#d9dad0"></path>
<path d="M 76.49 82.71
  C 83.63 72.10 93.38 67.66 105.84 65.96
  A 0.04 0.04 0.0 0 0 105.84 65.88
  C 94.24 65.19 83.05 59.66 76.70 49.73" stroke="#d6b87e"></path>
<path d="M 76.49 82.71
  Q 75.79 82.09 73.88 79.62
  C 67.69 71.63 55.02 70.68 48.29 78.81
  Q 41.07 87.52 38.39 100.82" stroke="#c4b47f"></path>
</g>
<path d="M 76.47 48.77
  Q 76.39 49.19 76.70 49.73
  Q 76.44 49.59 76.22 49.64
  Q 76.05 49.67 75.89 49.92
  C 71.73 56.31 62.87 61.62 55.10 58.20
  C 45.14 53.82 40.68 41.53 38.41 31.52
  Q 40.84 20.43 46.03 10.77
  C 47.61 7.82 49.98 5.31 53.70 5.89
  C 57.94 6.55 62.59 17.32 64.14 21.27
  C 67.76 30.53 70.51 40.38 75.92 48.82
  Q 76.09 49.09 76.47 48.77
  Z" fill="#c6d6d0"></path>
<path d="M 76.55 83.45
  Q 76.75 82.73 76.49 82.71
  C 83.63 72.10 93.38 67.66 105.84 65.96
  A 0.04 0.04 0.0 0 0 105.84 65.88
  C 94.24 65.19 83.05 59.66 76.70 49.73
  Q 76.39 49.19 76.47 48.77
  C 79.47 41.56 80.91 34.11 84.38 26.99
  C 89.45 16.59 95.22 24.15 97.79 30.25
  C 101.53 39.12 104.26 50.12 112.74 58.51
  Q 118.85 64.55 126.97 65.84
  Q 128.22 66.03 126.97 66.22
  C 112.02 68.51 102.70 80.54 99.96 94.74
  C 99.08 99.33 95.59 111.52 90.10 110.31
  C 83.69 108.90 78.58 89.10 76.55 83.45
  Z" fill="#ebddcf"></path>
<path d="M 38.41 31.52
  C 40.68 41.53 45.14 53.82 55.10 58.20
  C 62.87 61.62 71.73 56.31 75.89 49.92
  Q 76.05 49.67 76.22 49.64
  Q 76.44 49.59 76.70 49.73
  C 83.05 59.66 94.24 65.19 105.84 65.88
  A 0.04 0.04 0.0 0 1 105.84 65.96
  C 93.38 67.66 83.63 72.10 76.49 82.71
  Q 75.79 82.09 73.88 79.62
  C 67.69 71.63 55.02 70.68 48.29 78.81
  Q 41.07 87.52 38.39 100.82
  Q 36.79 96.77 35.60 93.62
  C 30.38 79.72 19.70 68.06 4.60 66.11
  Q 3.26 65.93 4.60 65.76
  C 20.87 63.63 31.99 50.88 36.74 36.01
  Q 37.36 34.05 38.41 31.52
  Z" fill="#c1922d"></path>
<path d="M 76.49 82.71
  Q 76.75 82.73 76.55 83.45
  Q 75.93 83.49 75.67 83.93
  Q 69.95 93.54 67.27 104.40
  C 65.90 109.93 62.21 120.97 56.74 123.72
  C 51.53 126.35 47.41 121.58 45.10 117.49
  Q 40.47 109.29 38.39 100.82
  Q 41.07 87.52 48.29 78.81
  C 55.02 70.68 67.69 71.63 73.88 79.62
  Q 75.79 82.09 76.49 82.71
  Z" fill="#c6d6d0"></path>
</svg>
