<svg viewBox="0.00 0.00 192.00 192.00" version="1.1" xmlns="http://www.w3.org/2000/svg">
<g stroke-linecap="butt" fill="none" stroke-width="2.00">
<path d="M 86.48 112.06
  Q 76.71 108.01 72.35 99.45
  C 59.65 74.55 88.29 49.90 111.19 65.31
  Q 118.32 70.11 121.06 78.33
  Q 122.50 82.65 122.50 91.83
  Q 122.51 111.66 122.48 131.46
  A 0.27 0.26 67.9 0 0 122.93 131.65
  C 128.21 126.52 134.23 120.98 138.00 115.22
  C 147.79 100.26 148.99 81.87 141.51 65.72
  C 131.54 44.19 106.53 32.42 83.61 38.34
  C 50.93 46.78 34.96 83.98 52.43 113.23
  Q 55.59 118.52 64.26 127.26
  Q 75.58 138.68 86.99 150.01
  Q 90.39 153.39 92.19 154.19
  C 96.71 156.21 101.47 153.94 104.43 150.04
  Q 104.75 149.60 104.75 149.06
  L 104.75 93.76
  Q 104.75 93.01 104.33 93.62
  C 100.41 99.23 91.62 100.07 87.94 94.23
  Q 87.00 92.73 87.00 94.50
  L 87.00 111.71
  Q 87.00 112.27 86.48 112.06" stroke="#80c6ff"></path>
<path d="M 103.33 87.43
  A 7.43 7.43 0.0 0 0 95.90 80.00
  A 7.43 7.43 0.0 0 0 88.47 87.43
  A 7.43 7.43 0.0 0 0 95.90 94.86
  A 7.43 7.43 0.0 0 0 103.33 87.43" stroke="#80c6ff"></path>
</g>
<path d="M 41.65 0.00
  L 150.46 0.00
  C 173.07 2.34 189.65 19.06 192.00 41.65
  L 192.00 150.47
  C 189.39 173.31 173.02 189.61 150.35 192.00
  L 41.52 192.00
  Q 11.49 188.05 1.83 159.75
  Q 0.96 157.20 0.00 150.37
  L 0.00 41.53
  C 2.49 18.82 18.76 2.59 41.65 0.00
  Z
  M 86.48 112.06
  Q 76.71 108.01 72.35 99.45
  C 59.65 74.55 88.29 49.90 111.19 65.31
  Q 118.32 70.11 121.06 78.33
  Q 122.50 82.65 122.50 91.83
  Q 122.51 111.66 122.48 131.46
  A 0.27 0.26 67.9 0 0 122.93 131.65
  C 128.21 126.52 134.23 120.98 138.00 115.22
  C 147.79 100.26 148.99 81.87 141.51 65.72
  C 131.54 44.19 106.53 32.42 83.61 38.34
  C 50.93 46.78 34.96 83.98 52.43 113.23
  Q 55.59 118.52 64.26 127.26
  Q 75.58 138.68 86.99 150.01
  Q 90.39 153.39 92.19 154.19
  C 96.71 156.21 101.47 153.94 104.43 150.04
  Q 104.75 149.60 104.75 149.06
  L 104.75 93.76
  Q 104.75 93.01 104.33 93.62
  C 100.41 99.23 91.62 100.07 87.94 94.23
  Q 87.00 92.73 87.00 94.50
  L 87.00 111.71
  Q 87.00 112.27 86.48 112.06
  Z
  M 103.33 87.43
  A 7.43 7.43 0.0 0 0 95.90 80.00
  A 7.43 7.43 0.0 0 0 88.47 87.43
  A 7.43 7.43 0.0 0 0 95.90 94.86
  A 7.43 7.43 0.0 0 0 103.33 87.43
  Z" fill="#ffffff"></path>
<path d="M 87.00 111.71
  L 87.00 94.50
  Q 87.00 92.73 87.94 94.23
  C 91.62 100.07 100.41 99.23 104.33 93.62
  Q 104.75 93.01 104.75 93.76
  L 104.75 149.06
  Q 104.75 149.60 104.43 150.04
  C 101.47 153.94 96.71 156.21 92.19 154.19
  Q 90.39 153.39 86.99 150.01
  Q 75.58 138.68 64.26 127.26
  Q 55.59 118.52 52.43 113.23
  C 34.96 83.98 50.93 46.78 83.61 38.34
  C 106.53 32.42 131.54 44.19 141.51 65.72
  C 148.99 81.87 147.79 100.26 138.00 115.22
  C 134.23 120.98 128.21 126.52 122.93 131.65
  A 0.27 0.26 67.9 0 1 122.48 131.46
  Q 122.51 111.66 122.50 91.83
  Q 122.50 82.65 121.06 78.33
  Q 118.32 70.11 111.19 65.31
  C 88.29 49.90 59.65 74.55 72.35 99.45
  Q 76.71 108.01 86.48 112.06
  Q 87.00 112.27 87.00 111.71
  Z" fill="#008cff"></path>
<circle r="7.43" cy="87.43" cx="95.90" fill="#008cff"></circle>
</svg>
