<svg viewBox="0.00 0.00 256.00 256.00" version="1.1" xmlns="http://www.w3.org/2000/svg">
<g stroke-linecap="butt" fill="none" stroke-width="2.00">
<path d="M 82.43 206.62
  Q 93.06 213.99 105.49 216.01
  Q 123.65 218.96 144.75 217.38
  Q 163.34 215.99 177.29 205.80" stroke="#aef5ea"></path>
<path d="M 177.29 205.80
  Q 192.22 199.79 203.44 189.44
  C 226.64 168.04 233.32 136.33 224.99 106.44
  A 0.94 0.93 -22.4 0 1 225.44 105.37
  C 242.02 96.48 254.40 80.54 247.39 61.02
  C 244.66 53.43 238.69 46.20 231.75 42.29
  C 217.63 34.35 200.98 39.83 189.51 49.27
  A 0.55 0.55 0.0 0 0 189.59 50.17
  Q 204.90 58.54 209.44 75.43
  Q 209.48 75.58 209.40 75.70
  Q 209.32 75.83 209.24 75.95
  A 0.18 0.18 0.0 0 1 208.93 75.95
  Q 199.93 61.10 185.22 52.21
  C 181.02 49.68 177.78 47.56 174.00 46.22
  C 140.98 34.48 98.63 34.70 68.14 54.39
  A 0.67 0.65 53.4 0 1 67.28 54.25
  C 55.99 40.55 41.57 33.83 25.19 44.52
  Q 11.59 53.38 7.76 68.75
  C 4.06 83.59 14.35 95.95 27.10 101.87
  A 0.57 0.56 24.4 0 0 27.86 101.59
  Q 31.82 92.50 40.07 87.08
  Q 42.30 85.61 40.75 87.78
  C 35.87 94.59 31.13 102.88 29.46 111.50
  C 21.56 152.27 40.17 183.95 74.69 203.32
  Q 78.64 205.54 82.43 206.62" stroke="#ccfbf2"></path>
<path d="M 177.29 205.80
  Q 184.44 197.12 185.08 189.25" stroke="#7bf0dc"></path>
<path d="M 185.08 189.25
  C 188.05 164.09 169.09 152.21 147.08 150.76
  Q 146.58 150.72 146.26 150.32
  Q 142.17 145.10 135.24 144.24
  C 127.16 143.24 117.22 143.91 112.28 151.36
  Q 112.00 151.79 111.49 151.88
  C 96.00 154.54 79.42 163.48 75.47 180.14" stroke="#63e5d2"></path>
<path d="M 75.47 180.14
  Q 73.99 185.22 74.59 191.26
  Q 75.39 199.30 82.43 206.62" stroke="#7bf0dc"></path>
<path d="M 185.08 189.25
  Q 185.54 170.50 172.64 161.29
  C 166.03 156.57 156.89 154.79 148.56 154.11
  A 0.61 0.61 0.0 0 0 147.92 154.83
  C 149.37 162.21 144.04 168.31 137.02 169.83
  C 126.99 171.99 109.72 170.14 110.71 155.68
  Q 110.75 155.00 110.08 155.13
  Q 95.22 158.14 84.57 166.81
  Q 79.86 170.64 75.47 180.14" stroke="#45dfca"></path>
<path d="M 112.76 50.43
  Q 112.94 50.38 113.03 50.38
  A 0.02 0.02 0.0 0 0 113.03 50.34
  C 112.29 50.35 111.16 50.25 110.45 50.39
  C 82.32 55.82 60.20 74.18 46.10 98.59
  C 40.70 107.92 51.93 109.19 54.55 103.03
  C 64.62 79.26 80.89 59.95 105.72 52.46
  Q 109.23 51.40 112.76 50.43" stroke="#bffaee"></path>
<path d="M 226.77 83.80
  C 240.80 73.48 236.09 58.07 221.00 53.01
  Q 213.65 50.55 207.26 54.97
  Q 206.34 55.60 207.25 56.25
  C 216.08 62.49 224.39 72.44 226.18 83.56
  A 0.37 0.37 0.0 0 0 226.77 83.80" stroke="#7bf0dc"></path>
<path d="M 22.05 73.53
  Q 22.35 80.19 28.00 84.85
  A 0.64 0.64 0.0 0 0 29.02 84.55
  C 32.44 74.38 39.67 63.24 49.82 58.56
  A 0.49 0.49 0.0 0 0 49.91 57.72
  C 44.80 53.91 35.76 51.02 30.09 55.35
  C 24.68 59.48 21.76 66.98 22.05 73.53" stroke="#7bf0dc"></path>
<path d="M 238.65 60.24
  C 241.61 65.49 242.65 71.34 241.80 77.32
  Q 241.66 78.32 242.29 77.53
  C 246.52 72.22 243.01 63.69 239.06 59.92
  Q 237.78 58.70 238.65 60.24" stroke="#ccfbf2"></path>
<path d="M 18.61 87.84
  C 14.99 83.13 13.15 77.11 13.45 71.08
  Q 13.48 70.48 13.02 70.87
  Q 12.51 71.32 12.32 72.06
  C 10.75 78.07 13.09 84.67 18.30 88.17
  Q 19.46 88.95 18.61 87.84" stroke="#ccfbf2"></path>
<path d="M 94.7684 145.5700
  A 12.38 7.65 90.1 0 0 102.4400 133.2034
  A 12.38 7.65 90.1 0 0 94.8116 120.8100
  A 12.38 7.65 90.1 0 0 87.1400 133.1766
  A 12.38 7.65 90.1 0 0 94.7684 145.5700" stroke="#63e5d2"></path>
<path d="M 162.8684 145.5800
  A 12.38 7.65 90.1 0 0 170.5400 133.2134
  A 12.38 7.65 90.1 0 0 162.9116 120.8200
  A 12.38 7.65 90.1 0 0 155.2400 133.1866
  A 12.38 7.65 90.1 0 0 162.8684 145.5800" stroke="#63e5d2"></path>
<path d="M 209.16 161.66
  C 206.95 170.16 201.76 178.65 194.94 183.99
  Q 193.26 185.31 195.33 184.80
  C 206.50 182.05 210.14 172.34 209.83 161.73
  Q 209.76 159.35 209.16 161.66" stroke="#bffaee"></path>
<path d="M 141.38 150.50
  L 141.38 150.49
  Q 141.47 150.32 141.31 150.22
  Q 134.07 145.55 125.55 147.36
  C 122.22 148.06 116.64 149.83 115.15 153.23
  A 1.64 1.64 0.0 0 0 115.43 154.99
  C 117.60 157.44 120.18 154.67 121.86 153.22
  C 127.55 148.30 134.15 147.30 141.11 150.58
  Q 141.28 150.67 141.38 150.50" stroke="#89e9dc"></path>
<path d="M 87.07 180.53
  Q 86.03 181.11 87.22 181.07
  Q 93.01 180.87 94.59 175.75
  Q 95.15 173.91 93.83 175.30
  Q 90.86 178.42 87.07 180.53" stroke="#45dfca"></path>
<path d="M 111.37 197.87
  C 126.83 201.54 146.34 200.81 160.17 192.46
  C 163.25 190.61 168.98 184.64 168.14 180.31
  Q 168.03 179.79 167.88 180.30
  C 165.83 187.02 159.70 190.73 153.47 192.68
  C 137.09 197.79 101.88 200.94 92.64 181.07
  Q 92.61 180.99 92.52 181.02
  L 92.28 181.12
  Q 91.97 181.26 92.08 181.58
  C 95.18 190.05 102.82 195.84 111.37 197.87" stroke="#45dfca"></path>
</g>
<path d="M 69.29 47.27
  C 105.96 27.63 147.65 29.66 185.64 44.73
  Q 186.11 44.91 186.52 44.61
  C 202.01 32.98 221.37 27.90 238.24 40.20
  C 245.34 45.37 250.60 52.86 253.10 61.33
  C 259.07 81.50 247.99 97.55 231.51 108.14
  A 0.74 0.73 67.2 0 0 231.19 108.93
  C 241.29 152.25 222.11 190.65 182.55 209.74
  C 177.33 212.26 172.71 215.50 167.55 217.55
  C 154.51 222.73 141.52 223.31 127.66 223.09
  Q 116.73 222.92 111.36 222.34
  C 96.47 220.75 84.76 214.79 70.99 207.26
  C 33.76 186.92 15.19 149.64 24.74 107.52
  A 0.71 0.70 -68.4 0 0 24.41 106.75
  C 15.62 101.68 8.67 96.37 4.25 87.02
  C -5.45 66.50 13.88 37.67 35.53 34.38
  C 49.85 32.21 58.44 38.04 68.44 47.16
  Q 68.83 47.52 69.29 47.27
  Z
  M 82.43 206.62
  Q 93.06 213.99 105.49 216.01
  Q 123.65 218.96 144.75 217.38
  Q 163.34 215.99 177.29 205.80
  Q 192.22 199.79 203.44 189.44
  C 226.64 168.04 233.32 136.33 224.99 106.44
  A 0.94 0.93 -22.4 0 1 225.44 105.37
  C 242.02 96.48 254.40 80.54 247.39 61.02
  C 244.66 53.43 238.69 46.20 231.75 42.29
  C 217.63 34.35 200.98 39.83 189.51 49.27
  A 0.55 0.55 0.0 0 0 189.59 50.17
  Q 204.90 58.54 209.44 75.43
  Q 209.48 75.58 209.40 75.70
  Q 209.32 75.83 209.24 75.95
  A 0.18 0.18 0.0 0 1 208.93 75.95
  Q 199.93 61.10 185.22 52.21
  C 181.02 49.68 177.78 47.56 174.00 46.22
  C 140.98 34.48 98.63 34.70 68.14 54.39
  A 0.67 0.65 53.4 0 1 67.28 54.25
  C 55.99 40.55 41.57 33.83 25.19 44.52
  Q 11.59 53.38 7.76 68.75
  C 4.06 83.59 14.35 95.95 27.10 101.87
  A 0.57 0.56 24.4 0 0 27.86 101.59
  Q 31.82 92.50 40.07 87.08
  Q 42.30 85.61 40.75 87.78
  C 35.87 94.59 31.13 102.88 29.46 111.50
  C 21.56 152.27 40.17 183.95 74.69 203.32
  Q 78.64 205.54 82.43 206.62
  Z" fill="#ffffff"></path>
<path d="M 177.29 205.80
  Q 184.44 197.12 185.08 189.25
  C 188.05 164.09 169.09 152.21 147.08 150.76
  Q 146.58 150.72 146.26 150.32
  Q 142.17 145.10 135.24 144.24
  C 127.16 143.24 117.22 143.91 112.28 151.36
  Q 112.00 151.79 111.49 151.88
  C 96.00 154.54 79.42 163.48 75.47 180.14
  Q 73.99 185.22 74.59 191.26
  Q 75.39 199.30 82.43 206.62
  Q 78.64 205.54 74.69 203.32
  C 40.17 183.95 21.56 152.27 29.46 111.50
  C 31.13 102.88 35.87 94.59 40.75 87.78
  Q 42.30 85.61 40.07 87.08
  Q 31.82 92.50 27.86 101.59
  A 0.57 0.56 24.4 0 1 27.10 101.87
  C 14.35 95.95 4.06 83.59 7.76 68.75
  Q 11.59 53.38 25.19 44.52
  C 41.57 33.83 55.99 40.55 67.28 54.25
  A 0.67 0.65 53.4 0 0 68.14 54.39
  C 98.63 34.70 140.98 34.48 174.00 46.22
  C 177.78 47.56 181.02 49.68 185.22 52.21
  Q 199.93 61.10 208.93 75.95
  A 0.18 0.18 0.0 0 0 209.24 75.95
  Q 209.32 75.83 209.40 75.70
  Q 209.48 75.58 209.44 75.43
  Q 204.90 58.54 189.59 50.17
  A 0.55 0.55 0.0 0 1 189.51 49.27
  C 200.98 39.83 217.63 34.35 231.75 42.29
  C 238.69 46.20 244.66 53.43 247.39 61.02
  C 254.40 80.54 242.02 96.48 225.44 105.37
  A 0.94 0.93 -22.4 0 0 224.99 106.44
  C 233.32 136.33 226.64 168.04 203.44 189.44
  Q 192.22 199.79 177.29 205.80
  Z
  M 112.76 50.43
  Q 112.94 50.38 113.03 50.38
  A 0.02 0.02 0.0 0 0 113.03 50.34
  C 112.29 50.35 111.16 50.25 110.45 50.39
  C 82.32 55.82 60.20 74.18 46.10 98.59
  C 40.70 107.92 51.93 109.19 54.55 103.03
  C 64.62 79.26 80.89 59.95 105.72 52.46
  Q 109.23 51.40 112.76 50.43
  Z
  M 226.77 83.80
  C 240.80 73.48 236.09 58.07 221.00 53.01
  Q 213.65 50.55 207.26 54.97
  Q 206.34 55.60 207.25 56.25
  C 216.08 62.49 224.39 72.44 226.18 83.56
  A 0.37 0.37 0.0 0 0 226.77 83.80
  Z
  M 22.05 73.53
  Q 22.35 80.19 28.00 84.85
  A 0.64 0.64 0.0 0 0 29.02 84.55
  C 32.44 74.38 39.67 63.24 49.82 58.56
  A 0.49 0.49 0.0 0 0 49.91 57.72
  C 44.80 53.91 35.76 51.02 30.09 55.35
  C 24.68 59.48 21.76 66.98 22.05 73.53
  Z
  M 238.65 60.24
  C 241.61 65.49 242.65 71.34 241.80 77.32
  Q 241.66 78.32 242.29 77.53
  C 246.52 72.22 243.01 63.69 239.06 59.92
  Q 237.78 58.70 238.65 60.24
  Z
  M 18.61 87.84
  C 14.99 83.13 13.15 77.11 13.45 71.08
  Q 13.48 70.48 13.02 70.87
  Q 12.51 71.32 12.32 72.06
  C 10.75 78.07 13.09 84.67 18.30 88.17
  Q 19.46 88.95 18.61 87.84
  Z
  M 94.7684 145.5700
  A 12.38 7.65 90.1 0 0 102.4400 133.2034
  A 12.38 7.65 90.1 0 0 94.8116 120.8100
  A 12.38 7.65 90.1 0 0 87.1400 133.1766
  A 12.38 7.65 90.1 0 0 94.7684 145.5700
  Z
  M 162.8684 145.5800
  A 12.38 7.65 90.1 0 0 170.5400 133.2134
  A 12.38 7.65 90.1 0 0 162.9116 120.8200
  A 12.38 7.65 90.1 0 0 155.2400 133.1866
  A 12.38 7.65 90.1 0 0 162.8684 145.5800
  Z
  M 209.16 161.66
  C 206.95 170.16 201.76 178.65 194.94 183.99
  Q 193.26 185.31 195.33 184.80
  C 206.50 182.05 210.14 172.34 209.83 161.73
  Q 209.76 159.35 209.16 161.66
  Z" fill="#99f6e4"></path>
<path d="M 112.76 50.43
  Q 109.23 51.40 105.72 52.46
  C 80.89 59.95 64.62 79.26 54.55 103.03
  C 51.93 109.19 40.70 107.92 46.10 98.59
  C 60.20 74.18 82.32 55.82 110.45 50.39
  C 111.16 50.25 112.29 50.35 113.03 50.34
  A 0.02 0.02 0.0 0 1 113.03 50.38
  Q 112.94 50.38 112.76 50.43
  Z" fill="#e5fdf8"></path>
<path d="M 221.00 53.01
  C 236.09 58.07 240.80 73.48 226.77 83.80
  A 0.37 0.37 0.0 0 1 226.18 83.56
  C 224.39 72.44 216.08 62.49 207.25 56.25
  Q 206.34 55.60 207.26 54.97
  Q 213.65 50.55 221.00 53.01
  Z" fill="#5dead4"></path>
<path d="M 22.05 73.53
  C 21.76 66.98 24.68 59.48 30.09 55.35
  C 35.76 51.02 44.80 53.91 49.91 57.72
  A 0.49 0.49 0.0 0 1 49.82 58.56
  C 39.67 63.24 32.44 74.38 29.02 84.55
  A 0.64 0.64 0.0 0 1 28.00 84.85
  Q 22.35 80.19 22.05 73.53
  Z" fill="#5dead4"></path>
<path d="M 241.80 77.32
  C 242.65 71.34 241.61 65.49 238.65 60.24
  Q 237.78 58.70 239.06 59.92
  C 243.01 63.69 246.52 72.22 242.29 77.53
  Q 241.66 78.32 241.80 77.32
  Z" fill="#ffffff"></path>
<path d="M 13.45 71.08
  C 13.15 77.11 14.99 83.13 18.61 87.84
  Q 19.46 88.95 18.30 88.17
  C 13.09 84.67 10.75 78.07 12.32 72.06
  Q 12.51 71.32 13.02 70.87
  Q 13.48 70.48 13.45 71.08
  Z" fill="#ffffff"></path>
<ellipse ry="7.65" rx="12.38" transform="translate(94.79,133.19) rotate(90.1)" cy="0.00" cx="0.00" fill="#2cd4bf"></ellipse>
<ellipse ry="7.65" rx="12.38" transform="translate(162.89,133.20) rotate(90.1)" cy="0.00" cx="0.00" fill="#2cd4bf"></ellipse>
<path d="M 185.08 189.25
  Q 185.54 170.50 172.64 161.29
  C 166.03 156.57 156.89 154.79 148.56 154.11
  A 0.61 0.61 0.0 0 0 147.92 154.83
  C 149.37 162.21 144.04 168.31 137.02 169.83
  C 126.99 171.99 109.72 170.14 110.71 155.68
  Q 110.75 155.00 110.08 155.13
  Q 95.22 158.14 84.57 166.81
  Q 79.86 170.64 75.47 180.14
  C 79.42 163.48 96.00 154.54 111.49 151.88
  Q 112.00 151.79 112.28 151.36
  C 117.22 143.91 127.16 143.24 135.24 144.24
  Q 142.17 145.10 146.26 150.32
  Q 146.58 150.72 147.08 150.76
  C 169.09 152.21 188.05 164.09 185.08 189.25
  Z
  M 141.38 150.50
  L 141.38 150.49
  Q 141.47 150.32 141.31 150.22
  Q 134.07 145.55 125.55 147.36
  C 122.22 148.06 116.64 149.83 115.15 153.23
  A 1.64 1.64 0.0 0 0 115.43 154.99
  C 117.60 157.44 120.18 154.67 121.86 153.22
  C 127.55 148.30 134.15 147.30 141.11 150.58
  Q 141.28 150.67 141.38 150.50
  Z" fill="#2cd4bf"></path>
<path d="M 141.11 150.58
  C 134.15 147.30 127.55 148.30 121.86 153.22
  C 120.18 154.67 117.60 157.44 115.43 154.99
  A 1.64 1.64 0.0 0 1 115.15 153.23
  C 116.64 149.83 122.22 148.06 125.55 147.36
  Q 134.07 145.55 141.31 150.22
  Q 141.47 150.32 141.38 150.49
  L 141.38 150.50
  Q 141.28 150.67 141.11 150.58
  Z" fill="#e5fdf8"></path>
<path d="M 185.08 189.25
  Q 184.44 197.12 177.29 205.80
  Q 163.34 215.99 144.75 217.38
  Q 123.65 218.96 105.49 216.01
  Q 93.06 213.99 82.43 206.62
  Q 75.39 199.30 74.59 191.26
  Q 73.99 185.22 75.47 180.14
  Q 79.86 170.64 84.57 166.81
  Q 95.22 158.14 110.08 155.13
  Q 110.75 155.00 110.71 155.68
  C 109.72 170.14 126.99 171.99 137.02 169.83
  C 144.04 168.31 149.37 162.21 147.92 154.83
  A 0.61 0.61 0.0 0 1 148.56 154.11
  C 156.89 154.79 166.03 156.57 172.64 161.29
  Q 185.54 170.50 185.08 189.25
  Z
  M 87.07 180.53
  Q 86.03 181.11 87.22 181.07
  Q 93.01 180.87 94.59 175.75
  Q 95.15 173.91 93.83 175.30
  Q 90.86 178.42 87.07 180.53
  Z
  M 111.37 197.87
  C 126.83 201.54 146.34 200.81 160.17 192.46
  C 163.25 190.61 168.98 184.64 168.14 180.31
  Q 168.03 179.79 167.88 180.30
  C 165.83 187.02 159.70 190.73 153.47 192.68
  C 137.09 197.79 101.88 200.94 92.64 181.07
  Q 92.61 180.99 92.52 181.02
  L 92.28 181.12
  Q 91.97 181.26 92.08 181.58
  C 95.18 190.05 102.82 195.84 111.37 197.87
  Z" fill="#5dead4"></path>
<path d="M 194.94 183.99
  C 201.76 178.65 206.95 170.16 209.16 161.66
  Q 209.76 159.35 209.83 161.73
  C 210.14 172.34 206.50 182.05 195.33 184.80
  Q 193.26 185.31 194.94 183.99
  Z" fill="#e5fdf8"></path>
<path d="M 87.07 180.53
  Q 90.86 178.42 93.83 175.30
  Q 95.15 173.91 94.59 175.75
  Q 93.01 180.87 87.22 181.07
  Q 86.03 181.11 87.07 180.53
  Z" fill="#2cd4bf"></path>
<path d="M 160.17 192.46
  C 146.34 200.81 126.83 201.54 111.37 197.87
  C 102.82 195.84 95.18 190.05 92.08 181.58
  Q 91.97 181.26 92.28 181.12
  L 92.52 181.02
  Q 92.61 180.99 92.64 181.07
  C 101.88 200.94 137.09 197.79 153.47 192.68
  C 159.70 190.73 165.83 187.02 167.88 180.30
  Q 168.03 179.79 168.14 180.31
  C 168.98 184.64 163.25 190.61 160.17 192.46
  Z" fill="#2cd4bf"></path>
</svg>
