<svg viewBox="0.00 0.00 32.00 32.00" version="1.1" xmlns="http://www.w3.org/2000/svg">
<g stroke-linecap="butt" fill="none" stroke-width="2.00">
<path d="M 1.89 0.00
  Q 0.81 0.70 0.00 1.73" stroke-opacity="0.561" stroke="#cc876c"></path>
<path d="M 19.12 0.00
  Q 17.89 3.56 18.64 6.66
  Q 18.66 6.77 18.77 6.75
  L 19.07 6.69
  Q 19.16 6.66 19.15 6.76
  Q 18.96 7.80 19.47 8.66
  Q 19.71 9.06 19.51 9.48
  L 18.70 11.16" stroke="#e09c8e"></path>
<path d="M 18.70 11.16
  Q 16.53 8.60 13.75 10.68" stroke="#f0c63c"></path>
<path d="M 13.75 10.68
  Q 12.32 12.60 13.61 14.23
  Q 13.92 14.63 14.43 14.58
  L 15.73 14.44" stroke="#eaa954"></path>
<path d="M 15.73 14.44
  Q 15.96 15.26 15.89 16.20" stroke="#f0c63c"></path>
<path d="M 15.89 16.20
  L 14.05 15.95
  Q 13.53 15.88 13.32 16.36
  L 12.74 17.75" stroke="#e28880"></path>
<path d="M 12.74 17.75
  Q 11.98 16.97 10.31 18.04" stroke="#eaa954"></path>
<path d="M 10.31 18.04
  C 10.20 15.45 11.02 7.47 5.43 10.30" stroke="#f0c63c"></path>
<path d="M 5.43 10.30
  C 3.10 12.12 3.91 14.85 7.20 14.70" stroke="#eaa954"></path>
<path d="M 7.20 14.70
  L 7.15 15.71" stroke="#f0c63c"></path>
<path d="M 7.15 15.71
  Q 5.67 16.26 4.05 16.11
  Q 3.91 16.09 3.87 16.23
  Q 3.83 16.39 3.95 16.48
  Q 4.20 16.65 3.98 16.87
  Q 2.25 18.60 0.00 18.18" stroke="#e47073"></path>
<path d="M 25.46 0.00
  Q 19.89 6.32 25.39 9.88" stroke="#dcafb2"></path>
<path d="M 25.39 9.88
  Q 23.48 9.25 22.28 11.30
  Q 22.01 11.77 22.40 12.15
  Q 22.94 12.68 23.75 12.95
  Q 24.21 13.11 24.30 13.59
  L 25.85 22.17" stroke="#efcd54"></path>
<path d="M 25.85 22.17
  Q 25.69 22.45 24.50 22.37
  Q 23.97 22.34 23.91 22.86
  C 23.79 23.80 23.39 24.15 23.34 25.08
  Q 23.17 28.55 23.03 32.00" stroke="#dcafb2"></path>
<path d="M 18.02 32.00
  Q 16.56 26.55 17.65 22.15" stroke="#e18f98"></path>
<path d="M 17.65 22.15
  Q 20.88 22.62 21.37 20.73" stroke="#efcd54"></path>
<path d="M 21.37 20.73
  Q 21.70 19.82 21.53 18.83
  Q 21.45 18.33 20.94 18.27
  Q 19.64 18.11 19.07 16.98" stroke="#e9b06c"></path>
<path d="M 19.07 16.98
  L 18.70 11.16" stroke="#efcd54"></path>
<path d="M 30.46 0.00
  L 32.00 1.88" stroke-opacity="0.561" stroke="#c4a9ad"></path>
<path d="M 32.00 30.46
  L 30.15 32.00" stroke-opacity="0.561" stroke="#c4a9ad"></path>
<path d="M 25.85 22.17
  Q 27.62 22.27 27.65 21.76
  C 27.77 19.29 28.47 13.26 27.48 11.19
  Q 26.80 9.76 25.39 9.88" stroke="#ebd961"></path>
<path d="M 10.31 18.04
  Q 10.00 19.35 10.47 20.34
  Q 10.65 20.72 11.06 20.67
  Q 11.56 20.60 12.05 21.59" stroke="#f8da1a"></path>
<path d="M 12.05 21.59
  Q 11.03 22.62 9.48 22.28
  C 6.57 21.65 7.25 17.91 7.15 15.71" stroke="#f3a139"></path>
<path d="M 7.20 14.70
  Q 7.46 13.39 6.86 12.09
  Q 6.65 11.62 6.15 11.51
  Q 5.17 11.31 5.43 10.30" stroke="#f8da1a"></path>
<path d="M 19.07 16.98
  Q 18.92 18.53 19.40 19.61
  Q 19.63 20.11 20.18 20.06
  Q 21.30 19.96 21.37 20.73" stroke="#f8da1a"></path>
<path d="M 17.65 22.15
  Q 16.21 21.20 16.11 20.15
  Q 15.92 18.20 15.89 16.20" stroke="#f1b946"></path>
<path d="M 15.73 14.44
  Q 16.00 13.16 15.54 12.08
  Q 15.34 11.61 14.82 11.66
  Q 13.91 11.76 13.75 10.68" stroke="#f8da1a"></path>
<path d="M 12.05 21.59
  L 12.71 21.02" stroke="#ed8451"></path>
<path d="M 12.71 21.02
  Q 13.36 23.39 13.09 25.98
  A 1.90 1.87 36.4 0 0 13.25 26.98
  Q 13.75 28.05 13.65 29.20
  Q 13.62 29.62 13.92 29.93
  Q 14.59 30.60 14.59 32.00" stroke="#e5637d"></path>
<path d="M 1.70 32.00
  L 0.00 30.11" stroke-opacity="0.561" stroke="#d24565"></path>
<path d="M 12.71 21.02
  Q 13.20 19.59 12.74 17.75" stroke="#eb9c5e"></path>
</g>
<path d="M 0.00 0.00
  L 1.89 0.00
  Q 0.81 0.70 0.00 1.73
  L 0.00 0.00
  Z" fill-opacity="0.118" fill="#1c1314"></path>
<path d="M 1.89 0.00
  L 19.12 0.00
  Q 17.89 3.56 18.64 6.66
  Q 18.66 6.77 18.77 6.75
  L 19.07 6.69
  Q 19.16 6.66 19.15 6.76
  Q 18.96 7.80 19.47 8.66
  Q 19.71 9.06 19.51 9.48
  L 18.70 11.16
  Q 16.53 8.60 13.75 10.68
  Q 12.32 12.60 13.61 14.23
  Q 13.92 14.63 14.43 14.58
  L 15.73 14.44
  Q 15.96 15.26 15.89 16.20
  L 14.05 15.95
  Q 13.53 15.88 13.32 16.36
  L 12.74 17.75
  Q 11.98 16.97 10.31 18.04
  C 10.20 15.45 11.02 7.47 5.43 10.30
  C 3.10 12.12 3.91 14.85 7.20 14.70
  L 7.15 15.71
  Q 5.67 16.26 4.05 16.11
  Q 3.91 16.09 3.87 16.23
  Q 3.83 16.39 3.95 16.48
  Q 4.20 16.65 3.98 16.87
  Q 2.25 18.60 0.00 18.18
  L 0.00 1.73
  Q 0.81 0.70 1.89 0.00
  Z" fill="#e19576"></path>
<path d="M 19.12 0.00
  L 25.46 0.00
  Q 19.89 6.32 25.39 9.88
  Q 23.48 9.25 22.28 11.30
  Q 22.01 11.77 22.40 12.15
  Q 22.94 12.68 23.75 12.95
  Q 24.21 13.11 24.30 13.59
  L 25.85 22.17
  Q 25.69 22.45 24.50 22.37
  Q 23.97 22.34 23.91 22.86
  C 23.79 23.80 23.39 24.15 23.34 25.08
  Q 23.17 28.55 23.03 32.00
  L 18.02 32.00
  Q 16.56 26.55 17.65 22.15
  Q 20.88 22.62 21.37 20.73
  Q 21.70 19.82 21.53 18.83
  Q 21.45 18.33 20.94 18.27
  Q 19.64 18.11 19.07 16.98
  L 18.70 11.16
  L 19.51 9.48
  Q 19.71 9.06 19.47 8.66
  Q 18.96 7.80 19.15 6.76
  Q 19.16 6.66 19.07 6.69
  L 18.77 6.75
  Q 18.66 6.77 18.64 6.66
  Q 17.89 3.56 19.12 0.00
  Z" fill="#dfa3a5"></path>
<path d="M 25.46 0.00
  L 30.46 0.00
  L 32.00 1.88
  L 32.00 30.46
  L 30.15 32.00
  L 23.03 32.00
  Q 23.17 28.55 23.34 25.08
  C 23.39 24.15 23.79 23.80 23.91 22.86
  Q 23.97 22.34 24.50 22.37
  Q 25.69 22.45 25.85 22.17
  Q 27.62 22.27 27.65 21.76
  C 27.77 19.29 28.47 13.26 27.48 11.19
  Q 26.80 9.76 25.39 9.88
  Q 19.89 6.32 25.46 0.00
  Z" fill="#d8bbbf"></path>
<path d="M 30.46 0.00
  L 32.00 0.00
  L 32.00 1.88
  L 30.46 0.00
  Z" fill-opacity="0.118" fill="#1c1314"></path>
<path d="M 10.31 18.04
  Q 10.00 19.35 10.47 20.34
  Q 10.65 20.72 11.06 20.67
  Q 11.56 20.60 12.05 21.59
  Q 11.03 22.62 9.48 22.28
  C 6.57 21.65 7.25 17.91 7.15 15.71
  L 7.20 14.70
  Q 7.46 13.39 6.86 12.09
  Q 6.65 11.62 6.15 11.51
  Q 5.17 11.31 5.43 10.30
  C 11.02 7.47 10.20 15.45 10.31 18.04
  Z" fill="#fef602"></path>
<path d="M 18.70 11.16
  L 19.07 16.98
  Q 18.92 18.53 19.40 19.61
  Q 19.63 20.11 20.18 20.06
  Q 21.30 19.96 21.37 20.73
  Q 20.88 22.62 17.65 22.15
  Q 16.21 21.20 16.11 20.15
  Q 15.92 18.20 15.89 16.20
  Q 15.96 15.26 15.73 14.44
  Q 16.00 13.16 15.54 12.08
  Q 15.34 11.61 14.82 11.66
  Q 13.91 11.76 13.75 10.68
  Q 16.53 8.60 18.70 11.16
  Z" fill="#fef602"></path>
<path d="M 25.39 9.88
  Q 26.80 9.76 27.48 11.19
  C 28.47 13.26 27.77 19.29 27.65 21.76
  Q 27.62 22.27 25.85 22.17
  L 24.30 13.59
  Q 24.21 13.11 23.75 12.95
  Q 22.94 12.68 22.40 12.15
  Q 22.01 11.77 22.28 11.30
  Q 23.48 9.25 25.39 9.88
  Z" fill="#fef602"></path>
<path d="M 5.43 10.30
  Q 5.17 11.31 6.15 11.51
  Q 6.65 11.62 6.86 12.09
  Q 7.46 13.39 7.20 14.70
  C 3.91 14.85 3.10 12.12 5.43 10.30
  Z" fill="#f2bd32"></path>
<path d="M 13.75 10.68
  Q 13.91 11.76 14.82 11.66
  Q 15.34 11.61 15.54 12.08
  Q 16.00 13.16 15.73 14.44
  L 14.43 14.58
  Q 13.92 14.63 13.61 14.23
  Q 12.32 12.60 13.75 10.68
  Z" fill="#f2bd32"></path>
<path d="M 7.15 15.71
  C 7.25 17.91 6.57 21.65 9.48 22.28
  Q 11.03 22.62 12.05 21.59
  L 12.71 21.02
  Q 13.36 23.39 13.09 25.98
  A 1.90 1.87 36.4 0 0 13.25 26.98
  Q 13.75 28.05 13.65 29.20
  Q 13.62 29.62 13.92 29.93
  Q 14.59 30.60 14.59 32.00
  L 1.70 32.00
  L 0.00 30.11
  L 0.00 18.18
  Q 2.25 18.60 3.98 16.87
  Q 4.20 16.65 3.95 16.48
  Q 3.83 16.39 3.87 16.23
  Q 3.91 16.09 4.05 16.11
  Q 5.67 16.26 7.15 15.71
  Z" fill="#e74b6f"></path>
<path d="M 15.89 16.20
  Q 15.92 18.20 16.11 20.15
  Q 16.21 21.20 17.65 22.15
  Q 16.56 26.55 18.02 32.00
  L 14.59 32.00
  Q 14.59 30.60 13.92 29.93
  Q 13.62 29.62 13.65 29.20
  Q 13.75 28.05 13.25 26.98
  A 1.90 1.87 36.4 0 1 13.09 25.98
  Q 13.36 23.39 12.71 21.02
  Q 13.20 19.59 12.74 17.75
  L 13.32 16.36
  Q 13.53 15.88 14.05 15.95
  L 15.89 16.20
  Z" fill="#e37b8a"></path>
<path d="M 19.07 16.98
  Q 19.64 18.11 20.94 18.27
  Q 21.45 18.33 21.53 18.83
  Q 21.70 19.82 21.37 20.73
  Q 21.30 19.96 20.18 20.06
  Q 19.63 20.11 19.40 19.61
  Q 18.92 18.53 19.07 16.98
  Z" fill="#f2bd32"></path>
<path d="M 12.74 17.75
  Q 13.20 19.59 12.71 21.02
  L 12.05 21.59
  Q 11.56 20.60 11.06 20.67
  Q 10.65 20.72 10.47 20.34
  Q 10.00 19.35 10.31 18.04
  Q 11.98 16.97 12.74 17.75
  Z" fill="#f2bd32"></path>
<path d="M 0.00 30.11
  L 1.70 32.00
  L 0.00 32.00
  L 0.00 30.11
  Z" fill-opacity="0.118" fill="#1c1314"></path>
<path d="M 32.00 30.46
  L 32.00 32.00
  L 30.15 32.00
  L 32.00 30.46
  Z" fill-opacity="0.118" fill="#1c1314"></path>
</svg>
