<svg viewBox="0.00 0.00 256.00 256.00" version="1.1" xmlns="http://www.w3.org/2000/svg">
<g stroke-linecap="butt" fill="none" stroke-width="2.00">
<path d="M 55.88 120.78
  A 0.37 0.37 0.0 0 1 56.25 121.15
  L 56.25 162.63
  A 0.37 0.37 0.0 0 0 56.62 163.00
  L 85.41 163.00
  A 0.37 0.37 0.0 0 0 85.78 162.63
  L 85.78 78.95
  A 0.37 0.37 0.0 0 0 85.41 78.58
  L 56.62 78.57
  A 0.37 0.37 0.0 0 0 56.25 78.94
  L 56.25 107.68
  A 0.37 0.37 0.0 0 1 55.88 108.05
  L 48.17 108.05
  A 0.37 0.37 0.0 0 1 47.80 107.68
  L 47.79 78.95
  A 0.37 0.37 0.0 0 0 47.42 78.58
  L 18.64 78.57
  A 0.37 0.37 0.0 0 0 18.27 78.94
  L 18.26 162.63
  A 0.37 0.37 0.0 0 0 18.63 163.00
  L 47.43 163.00
  A 0.37 0.37 0.0 0 0 47.80 162.63
  L 47.80 121.15
  A 0.37 0.37 0.0 0 1 48.17 120.78
  L 55.88 120.78" stroke="#7b616e"></path>
<path d="M 123.76 121.13
  A 0.35 0.35 0.0 0 1 124.11 120.78
  L 161.40 120.78
  A 0.35 0.35 0.0 0 0 161.75 120.43
  L 161.75 78.93
  A 0.35 0.35 0.0 0 0 161.40 78.58
  L 94.60 78.58
  A 0.35 0.35 0.0 0 0 94.25 78.93
  L 94.24 162.65
  A 0.35 0.35 0.0 0 0 94.59 163.00
  L 161.40 163.00
  A 0.35 0.35 0.0 0 0 161.75 162.65
  L 161.75 129.61
  A 0.35 0.35 0.0 0 0 161.40 129.26
  L 132.59 129.26
  A 0.35 0.35 0.0 0 0 132.24 129.61
  L 132.23 149.96
  A 0.35 0.35 0.0 0 1 131.88 150.31
  L 124.11 150.32
  A 0.35 0.35 0.0 0 1 123.76 149.97
  L 123.76 121.13" stroke="#7b616e"></path>
<path d="M 207.83 120.75
  A 0.37 0.37 0.0 0 1 208.20 121.12
  L 208.19 162.63
  A 0.37 0.37 0.0 0 0 208.56 163.00
  L 237.37 163.00
  A 0.37 0.37 0.0 0 0 237.74 162.63
  L 237.74 129.39
  A 0.37 0.37 0.0 0 0 237.65 129.15
  L 225.26 114.74
  A 0.37 0.37 0.0 0 1 225.26 114.26
  L 237.65 99.82
  A 0.37 0.37 0.0 0 0 237.74 99.58
  L 237.73 78.95
  A 0.37 0.37 0.0 0 0 237.36 78.58
  L 208.57 78.57
  A 0.37 0.37 0.0 0 0 208.20 78.94
  L 208.19 107.85
  A 0.37 0.37 0.0 0 1 207.82 108.22
  L 200.12 108.23
  A 0.37 0.37 0.0 0 1 199.75 107.86
  L 199.75 78.95
  A 0.37 0.37 0.0 0 0 199.38 78.58
  L 170.59 78.57
  A 0.37 0.37 0.0 0 0 170.22 78.94
  L 170.21 99.58
  A 0.37 0.37 0.0 0 0 170.30 99.82
  L 182.66 114.26
  A 0.37 0.37 0.0 0 1 182.66 114.74
  L 170.31 129.15
  A 0.37 0.37 0.0 0 0 170.22 129.39
  L 170.22 162.63
  A 0.37 0.37 0.0 0 0 170.59 163.00
  L 199.38 163.00
  A 0.37 0.37 0.0 0 0 199.75 162.63
  L 199.75 121.12
  A 0.37 0.37 0.0 0 1 200.12 120.75
  L 207.83 120.75" stroke="#7b616e"></path>
<path d="M 132.24 91.57
  A 0.31 0.31 0.0 0 0 131.93 91.26
  L 124.07 91.26
  A 0.31 0.31 0.0 0 0 123.76 91.57
  L 123.76 107.91
  A 0.31 0.31 0.0 0 0 124.07 108.22
  L 131.93 108.22
  A 0.31 0.31 0.0 0 0 132.24 107.91
  L 132.24 91.57" stroke="#7b616e"></path>
</g>
<path d="M 16.27 0.00
  L 239.82 0.00
  Q 253.51 2.64 256.00 16.34
  L 256.00 239.79
  Q 253.37 253.49 239.67 256.00
  L 16.20 256.00
  Q 2.48 253.35 0.00 239.68
  L 0.00 16.19
  Q 2.61 2.53 16.27 0.00
  Z
  M 55.88 120.78
  A 0.37 0.37 0.0 0 1 56.25 121.15
  L 56.25 162.63
  A 0.37 0.37 0.0 0 0 56.62 163.00
  L 85.41 163.00
  A 0.37 0.37 0.0 0 0 85.78 162.63
  L 85.78 78.95
  A 0.37 0.37 0.0 0 0 85.41 78.58
  L 56.62 78.57
  A 0.37 0.37 0.0 0 0 56.25 78.94
  L 56.25 107.68
  A 0.37 0.37 0.0 0 1 55.88 108.05
  L 48.17 108.05
  A 0.37 0.37 0.0 0 1 47.80 107.68
  L 47.79 78.95
  A 0.37 0.37 0.0 0 0 47.42 78.58
  L 18.64 78.57
  A 0.37 0.37 0.0 0 0 18.27 78.94
  L 18.26 162.63
  A 0.37 0.37 0.0 0 0 18.63 163.00
  L 47.43 163.00
  A 0.37 0.37 0.0 0 0 47.80 162.63
  L 47.80 121.15
  A 0.37 0.37 0.0 0 1 48.17 120.78
  L 55.88 120.78
  Z
  M 123.76 121.13
  A 0.35 0.35 0.0 0 1 124.11 120.78
  L 161.40 120.78
  A 0.35 0.35 0.0 0 0 161.75 120.43
  L 161.75 78.93
  A 0.35 0.35 0.0 0 0 161.40 78.58
  L 94.60 78.58
  A 0.35 0.35 0.0 0 0 94.25 78.93
  L 94.24 162.65
  A 0.35 0.35 0.0 0 0 94.59 163.00
  L 161.40 163.00
  A 0.35 0.35 0.0 0 0 161.75 162.65
  L 161.75 129.61
  A 0.35 0.35 0.0 0 0 161.40 129.26
  L 132.59 129.26
  A 0.35 0.35 0.0 0 0 132.24 129.61
  L 132.23 149.96
  A 0.35 0.35 0.0 0 1 131.88 150.31
  L 124.11 150.32
  A 0.35 0.35 0.0 0 1 123.76 149.97
  L 123.76 121.13
  Z
  M 207.83 120.75
  A 0.37 0.37 0.0 0 1 208.20 121.12
  L 208.19 162.63
  A 0.37 0.37 0.0 0 0 208.56 163.00
  L 237.37 163.00
  A 0.37 0.37 0.0 0 0 237.74 162.63
  L 237.74 129.39
  A 0.37 0.37 0.0 0 0 237.65 129.15
  L 225.26 114.74
  A 0.37 0.37 0.0 0 1 225.26 114.26
  L 237.65 99.82
  A 0.37 0.37 0.0 0 0 237.74 99.58
  L 237.73 78.95
  A 0.37 0.37 0.0 0 0 237.36 78.58
  L 208.57 78.57
  A 0.37 0.37 0.0 0 0 208.20 78.94
  L 208.19 107.85
  A 0.37 0.37 0.0 0 1 207.82 108.22
  L 200.12 108.23
  A 0.37 0.37 0.0 0 1 199.75 107.86
  L 199.75 78.95
  A 0.37 0.37 0.0 0 0 199.38 78.58
  L 170.59 78.57
  A 0.37 0.37 0.0 0 0 170.22 78.94
  L 170.21 99.58
  A 0.37 0.37 0.0 0 0 170.30 99.82
  L 182.66 114.26
  A 0.37 0.37 0.0 0 1 182.66 114.74
  L 170.31 129.15
  A 0.37 0.37 0.0 0 0 170.22 129.39
  L 170.22 162.63
  A 0.37 0.37 0.0 0 0 170.59 163.00
  L 199.38 163.00
  A 0.37 0.37 0.0 0 0 199.75 162.63
  L 199.75 121.12
  A 0.37 0.37 0.0 0 1 200.12 120.75
  L 207.83 120.75
  Z" fill="#01011b"></path>
<path d="M 55.88 120.78
  L 48.17 120.78
  A 0.37 0.37 0.0 0 0 47.80 121.15
  L 47.80 162.63
  A 0.37 0.37 0.0 0 1 47.43 163.00
  L 18.63 163.00
  A 0.37 0.37 0.0 0 1 18.26 162.63
  L 18.27 78.94
  A 0.37 0.37 0.0 0 1 18.64 78.57
  L 47.42 78.58
  A 0.37 0.37 0.0 0 1 47.79 78.95
  L 47.80 107.68
  A 0.37 0.37 0.0 0 0 48.17 108.05
  L 55.88 108.05
  A 0.37 0.37 0.0 0 0 56.25 107.68
  L 56.25 78.94
  A 0.37 0.37 0.0 0 1 56.62 78.57
  L 85.41 78.58
  A 0.37 0.37 0.0 0 1 85.78 78.95
  L 85.78 162.63
  A 0.37 0.37 0.0 0 1 85.41 163.00
  L 56.62 163.00
  A 0.37 0.37 0.0 0 1 56.25 162.63
  L 56.25 121.15
  A 0.37 0.37 0.0 0 0 55.88 120.78
  Z" fill="#f5c0c0"></path>
<path d="M 123.76 121.13
  L 123.76 149.97
  A 0.35 0.35 0.0 0 0 124.11 150.32
  L 131.88 150.31
  A 0.35 0.35 0.0 0 0 132.23 149.96
  L 132.24 129.61
  A 0.35 0.35 0.0 0 1 132.59 129.26
  L 161.40 129.26
  A 0.35 0.35 0.0 0 1 161.75 129.61
  L 161.75 162.65
  A 0.35 0.35 0.0 0 1 161.40 163.00
  L 94.59 163.00
  A 0.35 0.35 0.0 0 1 94.24 162.65
  L 94.25 78.93
  A 0.35 0.35 0.0 0 1 94.60 78.58
  L 161.40 78.58
  A 0.35 0.35 0.0 0 1 161.75 78.93
  L 161.75 120.43
  A 0.35 0.35 0.0 0 1 161.40 120.78
  L 124.11 120.78
  A 0.35 0.35 0.0 0 0 123.76 121.13
  Z
  M 132.24 91.57
  A 0.31 0.31 0.0 0 0 131.93 91.26
  L 124.07 91.26
  A 0.31 0.31 0.0 0 0 123.76 91.57
  L 123.76 107.91
  A 0.31 0.31 0.0 0 0 124.07 108.22
  L 131.93 108.22
  A 0.31 0.31 0.0 0 0 132.24 107.91
  L 132.24 91.57
  Z" fill="#f5c0c0"></path>
<path d="M 207.83 120.75
  L 200.12 120.75
  A 0.37 0.37 0.0 0 0 199.75 121.12
  L 199.75 162.63
  A 0.37 0.37 0.0 0 1 199.38 163.00
  L 170.59 163.00
  A 0.37 0.37 0.0 0 1 170.22 162.63
  L 170.22 129.39
  A 0.37 0.37 0.0 0 1 170.31 129.15
  L 182.66 114.74
  A 0.37 0.37 0.0 0 0 182.66 114.26
  L 170.30 99.82
  A 0.37 0.37 0.0 0 1 170.21 99.58
  L 170.22 78.94
  A 0.37 0.37 0.0 0 1 170.59 78.57
  L 199.38 78.58
  A 0.37 0.37 0.0 0 1 199.75 78.95
  L 199.75 107.86
  A 0.37 0.37 0.0 0 0 200.12 108.23
  L 207.82 108.22
  A 0.37 0.37 0.0 0 0 208.19 107.85
  L 208.20 78.94
  A 0.37 0.37 0.0 0 1 208.57 78.57
  L 237.36 78.58
  A 0.37 0.37 0.0 0 1 237.73 78.95
  L 237.74 99.58
  A 0.37 0.37 0.0 0 1 237.65 99.82
  L 225.26 114.26
  A 0.37 0.37 0.0 0 0 225.26 114.74
  L 237.65 129.15
  A 0.37 0.37 0.0 0 1 237.74 129.39
  L 237.74 162.63
  A 0.37 0.37 0.0 0 1 237.37 163.00
  L 208.56 163.00
  A 0.37 0.37 0.0 0 1 208.19 162.63
  L 208.20 121.12
  A 0.37 0.37 0.0 0 0 207.83 120.75
  Z" fill="#f5c0c0"></path>
<rect rx="0.31" height="16.96" width="8.48" y="91.26" x="123.76" fill="#01011b"></rect>
</svg>
