<svg viewBox="0.00 0.00 32.00 32.00" version="1.1" xmlns="http://www.w3.org/2000/svg">
<g stroke-linecap="butt" fill="none" stroke-width="2.00">
<path d="M 10.22 23.69
  L 12.02 21.86
  Q 12.37 21.51 12.84 21.67
  C 25.36 26.08 24.86 6.85 14.08 10.14
  C 11.31 10.99 8.71 14.52 10.07 17.83
  Q 10.33 18.45 10.47 19.17
  A 1.08 1.07 62.2 0 1 10.17 20.16
  L 7.12 23.12
  Q 5.89 24.32 7.18 25.45
  C 12.75 30.35 21.83 30.09 26.30 23.87
  C 32.06 15.86 27.50 4.48 17.75 3.30
  C 10.18 2.38 3.14 8.13 3.18 15.97
  Q 3.18 16.53 3.55 16.94
  Q 4.22 17.71 5.07 17.17
  Q 5.51 16.90 5.60 16.38
  C 5.86 14.85 6.04 13.24 6.65 11.89
  C 9.79 5.03 18.98 3.73 23.79 9.25
  C 31.57 18.17 20.46 31.33 10.30 24.56
  Q 9.73 24.18 10.22 23.69" stroke="#80bfe8"></path>
<path d="M 19.77 16.07
  A 3.72 3.72 0.0 0 0 16.05 12.35
  A 3.72 3.72 0.0 0 0 12.33 16.07
  A 3.72 3.72 0.0 0 0 16.05 19.79
  A 3.72 3.72 0.0 0 0 19.77 16.07" stroke="#80bfe8"></path>
</g>
<path d="M 31.48 16.07
  A 15.44 15.44 0.0 0 1 16.04 31.51
  A 15.44 15.44 0.0 0 1 0.60 16.07
  A 15.44 15.44 0.0 0 1 16.04 0.63
  A 15.44 15.44 0.0 0 1 31.48 16.07
  Z
  M 10.22 23.69
  L 12.02 21.86
  Q 12.37 21.51 12.84 21.67
  C 25.36 26.08 24.86 6.85 14.08 10.14
  C 11.31 10.99 8.71 14.52 10.07 17.83
  Q 10.33 18.45 10.47 19.17
  A 1.08 1.07 62.2 0 1 10.17 20.16
  L 7.12 23.12
  Q 5.89 24.32 7.18 25.45
  C 12.75 30.35 21.83 30.09 26.30 23.87
  C 32.06 15.86 27.50 4.48 17.75 3.30
  C 10.18 2.38 3.14 8.13 3.18 15.97
  Q 3.18 16.53 3.55 16.94
  Q 4.22 17.71 5.07 17.17
  Q 5.51 16.90 5.60 16.38
  C 5.86 14.85 6.04 13.24 6.65 11.89
  C 9.79 5.03 18.98 3.73 23.79 9.25
  C 31.57 18.17 20.46 31.33 10.30 24.56
  Q 9.73 24.18 10.22 23.69
  Z" fill="#007ed0"></path>
<path d="M 10.30 24.56
  C 20.46 31.33 31.57 18.17 23.79 9.25
  C 18.98 3.73 9.79 5.03 6.65 11.89
  C 6.04 13.24 5.86 14.85 5.60 16.38
  Q 5.51 16.90 5.07 17.17
  Q 4.22 17.71 3.55 16.94
  Q 3.18 16.53 3.18 15.97
  C 3.14 8.13 10.18 2.38 17.75 3.30
  C 27.50 4.48 32.06 15.86 26.30 23.87
  C 21.83 30.09 12.75 30.35 7.18 25.45
  Q 5.89 24.32 7.12 23.12
  L 10.17 20.16
  A 1.08 1.07 62.2 0 0 10.47 19.17
  Q 10.33 18.45 10.07 17.83
  C 8.71 14.52 11.31 10.99 14.08 10.14
  C 24.86 6.85 25.36 26.08 12.84 21.67
  Q 12.37 21.51 12.02 21.86
  L 10.22 23.69
  Q 9.73 24.18 10.30 24.56
  Z
  M 19.77 16.07
  A 3.72 3.72 0.0 0 0 16.05 12.35
  A 3.72 3.72 0.0 0 0 12.33 16.07
  A 3.72 3.72 0.0 0 0 16.05 19.79
  A 3.72 3.72 0.0 0 0 19.77 16.07
  Z" fill="#ffffff"></path>
<circle r="3.72" cy="16.07" cx="16.05" fill="#007ed0"></circle>
</svg>
