<svg viewBox="0.00 0.00 64.00 64.00" version="1.1" xmlns="http://www.w3.org/2000/svg">
<g stroke-linecap="butt" fill="none" stroke-width="2.00">
<path d="M 18.38 37.25
  A 0.36 0.36 0.0 0 1 18.74 36.89
  L 28.48 36.87
  A 0.40 0.39 -0.0 0 1 28.88 37.26
  L 28.86 48.65
  A 0.35 0.35 0.0 0 0 29.21 49.00
  L 42.51 48.99
  Q 44.14 48.99 42.64 48.35
  C 28.27 42.14 28.57 21.50 43.09 15.55
  A 0.27 0.27 0.0 0 0 42.99 15.03
  L 29.57 14.99
  Q 28.87 14.99 28.87 15.68
  L 28.87 26.01
  Q 28.88 26.64 28.24 26.64
  L 18.79 26.62
  A 0.43 0.43 0.0 0 1 18.36 26.19
  L 18.39 15.44
  A 0.45 0.44 -0.0 0 0 17.94 15.00
  L 7.94 15.00
  Q 7.38 15.00 7.38 15.56
  L 7.38 48.56
  Q 7.38 49.00 7.81 49.00
  L 17.93 49.00
  Q 18.37 49.00 18.37 48.57
  L 18.38 37.25" stroke="#c6adff"></path>
<path d="M 56.73 31.94
  A 6.78 6.78 0.0 0 0 49.95 25.16
  A 6.78 6.78 0.0 0 0 43.17 31.94
  A 6.78 6.78 0.0 0 0 49.95 38.72
  A 6.78 6.78 0.0 0 0 56.73 31.94" stroke="#c6adff"></path>
</g>
<path d="M 0.00 0.00
  L 64.00 0.00
  L 64.00 64.00
  L 0.00 64.00
  L 0.00 0.00
  Z
  M 18.38 37.25
  A 0.36 0.36 0.0 0 1 18.74 36.89
  L 28.48 36.87
  A 0.40 0.39 -0.0 0 1 28.88 37.26
  L 28.86 48.65
  A 0.35 0.35 0.0 0 0 29.21 49.00
  L 42.51 48.99
  Q 44.14 48.99 42.64 48.35
  C 28.27 42.14 28.57 21.50 43.09 15.55
  A 0.27 0.27 0.0 0 0 42.99 15.03
  L 29.57 14.99
  Q 28.87 14.99 28.87 15.68
  L 28.87 26.01
  Q 28.88 26.64 28.24 26.64
  L 18.79 26.62
  A 0.43 0.43 0.0 0 1 18.36 26.19
  L 18.39 15.44
  A 0.45 0.44 -0.0 0 0 17.94 15.00
  L 7.94 15.00
  Q 7.38 15.00 7.38 15.56
  L 7.38 48.56
  Q 7.38 49.00 7.81 49.00
  L 17.93 49.00
  Q 18.37 49.00 18.37 48.57
  L 18.38 37.25
  Z
  M 56.73 31.94
  A 6.78 6.78 0.0 0 0 49.95 25.16
  A 6.78 6.78 0.0 0 0 43.17 31.94
  A 6.78 6.78 0.0 0 0 49.95 38.72
  A 6.78 6.78 0.0 0 0 56.73 31.94
  Z" fill="#8c5aff"></path>
<path d="M 18.38 37.25
  L 18.37 48.57
  Q 18.37 49.00 17.93 49.00
  L 7.81 49.00
  Q 7.38 49.00 7.38 48.56
  L 7.38 15.56
  Q 7.38 15.00 7.94 15.00
  L 17.94 15.00
  A 0.45 0.44 0.0 0 1 18.39 15.44
  L 18.36 26.19
  A 0.43 0.43 0.0 0 0 18.79 26.62
  L 28.24 26.64
  Q 28.88 26.64 28.87 26.01
  L 28.87 15.68
  Q 28.87 14.99 29.57 14.99
  L 42.99 15.03
  A 0.27 0.27 0.0 0 1 43.09 15.55
  C 28.57 21.50 28.27 42.14 42.64 48.35
  Q 44.14 48.99 42.51 48.99
  L 29.21 49.00
  A 0.35 0.35 0.0 0 1 28.86 48.65
  L 28.88 37.26
  A 0.40 0.39 0.0 0 0 28.48 36.87
  L 18.74 36.89
  A 0.36 0.36 0.0 0 0 18.38 37.25
  Z" fill="#ffffff"></path>
<circle r="6.78" cy="31.94" cx="49.95" fill="#ffffff"></circle>
</svg>
