<svg viewBox="0.00 0.00 64.00 64.00" version="1.1" xmlns="http://www.w3.org/2000/svg">
<g stroke-linecap="butt" fill="none" stroke-width="2.00">
<path d="M 61.59 19.72
  Q 59.52 18.17 58.75 18.13
  Q 53.65 17.88 48.56 17.69
  C 46.84 17.63 46.16 17.95 44.36 17.15
  Q 43.68 16.85 42.98 17.24
  Q 42.60 17.45 42.21 17.24
  Q 41.41 16.81 40.50 16.78
  Q 40.41 16.77 40.00 16.61
  Q 39.88 16.56 39.76 16.49
  Q 39.64 16.41 39.52 16.50
  L 39.06 16.82
  Q 38.93 16.92 38.79 16.83
  Q 38.33 16.55 37.37 16.61" stroke="#343451"></path>
<path d="M 37.37 16.61
  L 16.00 16.32" stroke="#199680"></path>
<path d="M 16.00 16.32
  Q 15.22 15.56 15.45 18.23
  Q 15.46 18.44 15.29 18.31
  Q 15.17 18.22 15.06 18.14
  A 0.48 0.45 21.4 0 1 14.88 17.76
  L 14.89 17.25
  Q 14.89 17.22 14.88 17.25
  Q 14.76 17.51 14.49 17.56
  Q 14.22 17.62 14.03 17.51
  Q 13.81 17.40 13.57 17.43
  L 2.74 18.91" stroke="#343451"></path>
<path d="M 16.00 16.32
  L 15.99 32.06" stroke="#1d9a84"></path>
<path d="M 15.99 32.06
  Q 15.37 31.43 15.66 30.11
  Q 15.67 30.13 15.64 30.12
  Q 15.62 30.12 15.62 30.12
  L 15.06 32.88
  Q 14.97 33.32 14.52 33.30
  L 1.42 32.98
  Q 1.19 32.97 1.12 33.19
  Q 1.05 33.42 0.90 33.58
  Q 0.47 34.03 0.48 33.41
  Q 0.50 32.20 0.00 31.97" stroke="#3c3c58"></path>
<path d="M 64.00 31.68
  Q 56.62 30.84 48.94 31.52
  C 47.90 31.61 47.12 30.96 46.02 31.89
  A 1.11 1.10 -60.4 0 1 45.13 32.14
  Q 44.15 31.99 43.90 30.87
  Q 43.87 30.73 43.95 30.62
  Q 44.03 30.51 44.09 30.39
  Q 44.15 30.25 44.01 30.20
  Q 42.85 29.72 41.71 29.77" stroke="#3c3c58"></path>
<path d="M 41.71 29.77
  Q 33.87 25.65 29.03 32.96" stroke="#1d9a84"></path>
<path d="M 29.03 32.96
  Q 27.18 30.90 22.02 30.69" stroke="#3c3c58"></path>
<path d="M 22.02 30.69
  C 26.97 20.28 37.39 18.29 46.89 24.25
  Q 47.51 24.63 47.13 24.01
  Q 44.08 19.05 37.37 16.61" stroke="#1d9a84"></path>
<path d="M 22.02 30.69
  Q 18.68 39.51 24.60 47.06
  Q 24.93 47.47 24.44 47.28
  C 18.92 45.14 15.95 37.52 15.99 32.06" stroke="#219e87"></path>
<path d="M 41.71 29.77
  Q 46.15 33.33 45.23 38.25
  C 42.99 50.29 23.98 45.59 29.03 32.96" stroke="#219e87"></path>
<path d="M 57.74 51.02
  Q 55.30 49.31 51.70 49.58
  C 43.09 50.21 34.53 49.91 27.27 49.87
  A 7.33 0.00 -0.1 0 0 20.12 49.88
  Q 14.10 49.89 7.25 49.88
  A 0.50 0.49 59.1 0 0 7.02 50.81
  Q 8.15 51.43 7.92 53.08" stroke="#44445e"></path>
</g>
<path d="M 28.84 0.00
  L 35.07 0.00
  Q 53.85 2.74 61.59 19.72
  Q 59.52 18.17 58.75 18.13
  Q 53.65 17.88 48.56 17.69
  C 46.84 17.63 46.16 17.95 44.36 17.15
  Q 43.68 16.85 42.98 17.24
  Q 42.60 17.45 42.21 17.24
  Q 41.41 16.81 40.50 16.78
  Q 40.41 16.77 40.00 16.61
  Q 39.88 16.56 39.76 16.49
  Q 39.64 16.41 39.52 16.50
  L 39.06 16.82
  Q 38.93 16.92 38.79 16.83
  Q 38.33 16.55 37.37 16.61
  L 16.00 16.32
  Q 15.22 15.56 15.45 18.23
  Q 15.46 18.44 15.29 18.31
  Q 15.17 18.22 15.06 18.14
  A 0.48 0.45 21.4 0 1 14.88 17.76
  L 14.89 17.25
  Q 14.89 17.22 14.88 17.25
  Q 14.76 17.51 14.49 17.56
  Q 14.22 17.62 14.03 17.51
  Q 13.81 17.40 13.57 17.43
  L 2.74 18.91
  Q 10.55 2.79 28.84 0.00
  Z" fill="#30304d"></path>
<path d="M 16.00 16.32
  L 15.99 32.06
  Q 15.37 31.43 15.66 30.11
  Q 15.67 30.13 15.64 30.12
  Q 15.62 30.12 15.62 30.12
  L 15.06 32.88
  Q 14.97 33.32 14.52 33.30
  L 1.42 32.98
  Q 1.19 32.97 1.12 33.19
  Q 1.05 33.42 0.90 33.58
  Q 0.47 34.03 0.48 33.41
  Q 0.50 32.20 0.00 31.97
  L 0.00 28.76
  L 2.74 18.91
  L 13.57 17.43
  Q 13.81 17.40 14.03 17.51
  Q 14.22 17.62 14.49 17.56
  Q 14.76 17.51 14.88 17.25
  Q 14.89 17.22 14.89 17.25
  L 14.88 17.76
  A 0.48 0.45 21.4 0 0 15.06 18.14
  Q 15.17 18.22 15.29 18.31
  Q 15.46 18.44 15.45 18.23
  Q 15.22 15.56 16.00 16.32
  Z" fill="#383854"></path>
<path d="M 61.59 19.72
  L 64.00 28.87
  L 64.00 31.68
  Q 56.62 30.84 48.94 31.52
  C 47.90 31.61 47.12 30.96 46.02 31.89
  A 1.11 1.10 -60.4 0 1 45.13 32.14
  Q 44.15 31.99 43.90 30.87
  Q 43.87 30.73 43.95 30.62
  Q 44.03 30.51 44.09 30.39
  Q 44.15 30.25 44.01 30.20
  Q 42.85 29.72 41.71 29.77
  Q 33.87 25.65 29.03 32.96
  Q 27.18 30.90 22.02 30.69
  C 26.97 20.28 37.39 18.29 46.89 24.25
  Q 47.51 24.63 47.13 24.01
  Q 44.08 19.05 37.37 16.61
  Q 38.33 16.55 38.79 16.83
  Q 38.93 16.92 39.06 16.82
  L 39.52 16.50
  Q 39.64 16.41 39.76 16.49
  Q 39.88 16.56 40.00 16.61
  Q 40.41 16.77 40.50 16.78
  Q 41.41 16.81 42.21 17.24
  Q 42.60 17.45 42.98 17.24
  Q 43.68 16.85 44.36 17.15
  C 46.16 17.95 46.84 17.63 48.56 17.69
  Q 53.65 17.88 58.75 18.13
  Q 59.52 18.17 61.59 19.72
  Z" fill="#383854"></path>
<path d="M 16.00 16.32
  L 37.37 16.61
  Q 44.08 19.05 47.13 24.01
  Q 47.51 24.63 46.89 24.25
  C 37.39 18.29 26.97 20.28 22.02 30.69
  Q 18.68 39.51 24.60 47.06
  Q 24.93 47.47 24.44 47.28
  C 18.92 45.14 15.95 37.52 15.99 32.06
  L 16.00 16.32
  Z" fill="#01fbb3"></path>
<path d="M 41.71 29.77
  Q 46.15 33.33 45.23 38.25
  C 42.99 50.29 23.98 45.59 29.03 32.96
  Q 33.87 25.65 41.71 29.77
  Z" fill="#01fbb3"></path>
<path d="M 64.00 31.68
  L 64.00 35.23
  Q 62.70 44.28 57.74 51.02
  Q 55.30 49.31 51.70 49.58
  C 43.09 50.21 34.53 49.91 27.27 49.87
  A 7.33 0.00 -0.1 0 0 20.12 49.88
  Q 14.10 49.89 7.25 49.88
  A 0.50 0.49 59.1 0 0 7.02 50.81
  Q 8.15 51.43 7.92 53.08
  Q 1.30 45.39 0.00 35.09
  L 0.00 31.97
  Q 0.50 32.20 0.48 33.41
  Q 0.47 34.03 0.90 33.58
  Q 1.05 33.42 1.12 33.19
  Q 1.19 32.97 1.42 32.98
  L 14.52 33.30
  Q 14.97 33.32 15.06 32.88
  L 15.62 30.12
  Q 15.62 30.12 15.64 30.12
  Q 15.67 30.13 15.66 30.11
  Q 15.37 31.43 15.99 32.06
  C 15.95 37.52 18.92 45.14 24.44 47.28
  Q 24.93 47.47 24.60 47.06
  Q 18.68 39.51 22.02 30.69
  Q 27.18 30.90 29.03 32.96
  C 23.98 45.59 42.99 50.29 45.23 38.25
  Q 46.15 33.33 41.71 29.77
  Q 42.85 29.72 44.01 30.20
  Q 44.15 30.25 44.09 30.39
  Q 44.03 30.51 43.95 30.62
  Q 43.87 30.73 43.90 30.87
  Q 44.15 31.99 45.13 32.14
  A 1.11 1.10 -60.4 0 0 46.02 31.89
  C 47.12 30.96 47.90 31.61 48.94 31.52
  Q 56.62 30.84 64.00 31.68
  Z" fill="#40405b"></path>
<path d="M 57.74 51.02
  Q 49.03 62.24 35.07 64.00
  L 28.78 64.00
  Q 16.21 62.30 7.92 53.08
  Q 8.15 51.43 7.02 50.81
  A 0.50 0.49 59.1 0 1 7.25 49.88
  Q 14.10 49.89 20.12 49.88
  A 7.33 0.00 -0.1 0 1 27.27 49.87
  C 34.53 49.91 43.09 50.21 51.70 49.58
  Q 55.30 49.31 57.74 51.02
  Z" fill="#474761"></path>
</svg>
