<svg viewBox="0.00 0.00 100.00 79.00" version="1.1" xmlns="http://www.w3.org/2000/svg">
<path d="M 43.71 41.89
  L 54.92 41.94
  Q 55.40 41.94 55.42 42.41
  Q 55.64 46.84 55.41 51.25
  C 55.26 54.19 53.43 55.55 51.79 57.37
  A 1.14 1.13 34.6 0 0 52.12 59.14
  C 56.36 61.34 67.57 61.22 72.02 59.54
  A 1.58 1.57 -37.7 0 0 72.38 56.78
  Q 68.97 54.36 69.06 49.75
  Q 69.25 40.54 69.30 31.30
  C 69.32 28.11 70.38 26.10 72.54 24.02
  A 1.36 1.36 0.0 0 0 72.07 21.77
  C 67.10 19.93 57.37 19.78 52.36 21.57
  A 1.25 1.25 0.0 0 0 51.82 23.54
  Q 52.86 24.80 54.25 26.23
  C 56.03 28.05 55.53 34.66 55.43 37.32
  Q 55.40 38.26 54.46 38.25
  L 43.83 38.15
  Q 43.23 38.14 43.19 37.55
  Q 42.94 33.46 43.22 29.38
  C 43.43 26.30 44.95 25.60 46.47 23.68
  A 1.53 1.53 0.0 0 0 45.55 21.22
  C 41.64 20.50 28.06 19.01 25.48 22.20
  Q 25.14 22.62 25.46 23.05
  C 27.22 25.43 29.34 26.93 29.30 30.25
  Q 29.20 39.00 29.24 47.76
  C 29.26 51.88 28.87 54.41 25.75 56.87
  A 1.10 1.09 46.5 0 0 25.71 58.55
  C 29.08 61.51 41.91 60.97 45.84 59.28
  A 1.49 1.49 0.0 0 0 46.16 56.73
  C 41.91 53.48 43.07 47.21 43.05 42.54
  Q 43.05 41.89 43.71 41.89" stroke-linecap="butt" fill="none" stroke-width="2.00" stroke="#7e6e35"></path>
<path d="M 0.00 0.00
  L 100.00 0.00
  L 100.00 79.00
  L 0.00 79.00
  L 0.00 0.00
  Z
  M 43.71 41.89
  L 54.92 41.94
  Q 55.40 41.94 55.42 42.41
  Q 55.64 46.84 55.41 51.25
  C 55.26 54.19 53.43 55.55 51.79 57.37
  A 1.14 1.13 34.6 0 0 52.12 59.14
  C 56.36 61.34 67.57 61.22 72.02 59.54
  A 1.58 1.57 -37.7 0 0 72.38 56.78
  Q 68.97 54.36 69.06 49.75
  Q 69.25 40.54 69.30 31.30
  C 69.32 28.11 70.38 26.10 72.54 24.02
  A 1.36 1.36 0.0 0 0 72.07 21.77
  C 67.10 19.93 57.37 19.78 52.36 21.57
  A 1.25 1.25 0.0 0 0 51.82 23.54
  Q 52.86 24.80 54.25 26.23
  C 56.03 28.05 55.53 34.66 55.43 37.32
  Q 55.40 38.26 54.46 38.25
  L 43.83 38.15
  Q 43.23 38.14 43.19 37.55
  Q 42.94 33.46 43.22 29.38
  C 43.43 26.30 44.95 25.60 46.47 23.68
  A 1.53 1.53 0.0 0 0 45.55 21.22
  C 41.64 20.50 28.06 19.01 25.48 22.20
  Q 25.14 22.62 25.46 23.05
  C 27.22 25.43 29.34 26.93 29.30 30.25
  Q 29.20 39.00 29.24 47.76
  C 29.26 51.88 28.87 54.41 25.75 56.87
  A 1.10 1.09 46.5 0 0 25.71 58.55
  C 29.08 61.51 41.91 60.97 45.84 59.28
  A 1.49 1.49 0.0 0 0 46.16 56.73
  C 41.91 53.48 43.07 47.21 43.05 42.54
  Q 43.05 41.89 43.71 41.89
  Z" fill="#fbdb6a"></path>
<path d="M 43.05 42.54
  C 43.07 47.21 41.91 53.48 46.16 56.73
  A 1.49 1.49 0.0 0 1 45.84 59.28
  C 41.91 60.97 29.08 61.51 25.71 58.55
  A 1.10 1.09 46.5 0 1 25.75 56.87
  C 28.87 54.41 29.26 51.88 29.24 47.76
  Q 29.20 39.00 29.30 30.25
  C 29.34 26.93 27.22 25.43 25.46 23.05
  Q 25.14 22.62 25.48 22.20
  C 28.06 19.01 41.64 20.50 45.55 21.22
  A 1.53 1.53 0.0 0 1 46.47 23.68
  C 44.95 25.60 43.43 26.30 43.22 29.38
  Q 42.94 33.46 43.19 37.55
  Q 43.23 38.14 43.83 38.15
  L 54.46 38.25
  Q 55.40 38.26 55.43 37.32
  C 55.53 34.66 56.03 28.05 54.25 26.23
  Q 52.86 24.80 51.82 23.54
  A 1.25 1.25 0.0 0 1 52.36 21.57
  C 57.37 19.78 67.10 19.93 72.07 21.77
  A 1.36 1.36 0.0 0 1 72.54 24.02
  C 70.38 26.10 69.32 28.11 69.30 31.30
  Q 69.25 40.54 69.06 49.75
  Q 68.97 54.36 72.38 56.78
  A 1.58 1.57 -37.7 0 1 72.02 59.54
  C 67.57 61.22 56.36 61.34 52.12 59.14
  A 1.14 1.13 34.6 0 1 51.79 57.37
  C 53.43 55.55 55.26 54.19 55.41 51.25
  Q 55.64 46.84 55.42 42.41
  Q 55.40 41.94 54.92 41.94
  L 43.71 41.89
  Q 43.05 41.89 43.05 42.54
  Z" fill="#000000"></path>
</svg>
