<svg viewBox="0.00 0.00 180.00 180.00" version="1.1" xmlns="http://www.w3.org/2000/svg">
<g stroke-linecap="butt" fill="none" stroke-width="2.00">
<path d="M 141.19 76.09
  L 138.91 69.73" stroke-opacity="0.761" stroke="#667d95"></path>
<path d="M 133.66 60.27
  C 115.17 34.89 80.55 30.08 56.40 49.91
  Q 56.26 50.02 56.08 49.66" stroke-opacity="0.835" stroke="#667d8a"></path>
<path d="M 45.91 61.63
  Q 34.61 80.84 38.86 101.17
  C 47.36 141.87 96.19 156.08 126.54 128.67" stroke-opacity="0.835" stroke="#667d8a"></path>
<path d="M 50.43 55.41
  L 47.21 58.21
  Q 46.89 58.48 46.66 58.13
  Q 46.55 57.97 46.60 57.75
  A 0.02 0.02 0.0 0 1 46.64 57.76
  L 46.37 59.42
  Q 46.32 59.69 46.51 59.49
  Q 46.69 59.29 46.85 59.08
  Q 47.10 58.75 47.32 59.10
  Q 47.42 59.27 47.35 59.52" stroke-opacity="0.922" stroke="#0a2e29"></path>
<path d="M 133.66 60.27
  L 138.91 69.73" stroke-opacity="0.835" stroke="#667d8a"></path>
<path d="M 141.19 76.09
  Q 145.46 93.70 139.06 109.95
  Q 138.20 112.10 137.37 114.27" stroke-opacity="0.835" stroke="#667d8a"></path>
<path d="M 137.37 114.27
  L 132.57 121.87" stroke-opacity="0.918" stroke="#55647c"></path>
<path d="M 132.57 121.87
  L 131.01 123.99" stroke="#4f8196"></path>
<path d="M 131.01 123.99
  L 126.54 128.67" stroke-opacity="0.918" stroke="#55647c"></path>
<path d="M 45.91 61.63
  L 47.35 59.52" stroke-opacity="0.918" stroke="#55647c"></path>
<path d="M 47.35 59.52
  Q 49.24 57.85 50.43 55.41" stroke="#4f8196"></path>
<path d="M 50.43 55.41
  L 53.86 52.00
  Q 54.07 51.79 54.15 51.51
  Q 54.20 51.32 54.25 51.14
  Q 54.37 50.77 54.74 50.67
  Q 55.48 50.47 56.08 49.66" stroke-opacity="0.918" stroke="#55647c"></path>
<path d="M 131.01 123.99
  Q 133.30 122.85 132.57 121.87" stroke-opacity="0.922" stroke="#0a2e29"></path>
<path d="M 140.41 90.31
  A 50.10 50.10 0.0 0 0 90.31 40.21
  A 50.10 50.10 0.0 0 0 40.21 90.31
  A 50.10 50.10 0.0 0 0 90.31 140.41
  A 50.10 50.10 0.0 0 0 140.41 90.31" stroke="#4a5971"></path>
<path d="M 96.29 56.58
  A 5.48 5.48 0.0 0 0 90.81 51.10
  A 5.48 5.48 0.0 0 0 85.33 56.58
  A 5.48 5.48 0.0 0 0 90.81 62.06
  A 5.48 5.48 0.0 0 0 96.29 56.58" stroke="#0d605b"></path>
<path d="M 78.49 58.08
  C 78.95 61.62 80.11 63.67 81.02 66.56
  Q 81.19 67.09 80.81 67.50
  Q 77.82 70.79 76.51 75.06" stroke="#0a4945"></path>
<path d="M 76.51 75.06
  Q 76.14 75.44 75.77 75.61" stroke="#021110"></path>
<path d="M 75.77 75.61
  L 73.69 76.27" stroke="#052825"></path>
<path d="M 73.69 76.27
  L 74.95 71.24" stroke="#08403d"></path>
<path d="M 74.95 71.24
  L 77.52 66.63" stroke="#0a4945"></path>
<path d="M 77.52 66.63
  Q 77.27 64.60 76.24 62.54
  Q 76.01 62.08 75.56 62.32
  Q 61.85 69.78 58.50 85.11
  Q 58.38 85.68 58.94 85.80
  L 62.30 86.54" stroke="#0a4f4b"></path>
<path d="M 62.30 86.54
  L 64.84 87.25" stroke="#0a4945"></path>
<path d="M 64.84 87.25
  Q 66.27 91.82 69.52 94.92
  Q 69.75 95.14 69.68 95.45
  L 69.18 97.93
  Q 69.13 98.16 68.96 98.01
  Q 65.10 94.83 62.51 89.76" stroke="#08403d"></path>
<path d="M 62.51 89.76
  L 58.27 88.88
  A 0.77 0.76 5.9 0 0 57.35 89.62
  Q 57.25 95.11 59.77 99.99
  A 0.97 0.97 0.0 0 0 60.50 100.51
  L 63.53 100.99" stroke="#0a4f4b"></path>
<path d="M 63.53 100.99
  Q 67.04 102.77 67.82 106.52" stroke="#08403d"></path>
<path d="M 67.82 106.52
  Q 67.86 111.48 64.79 114.90" stroke="#0a4f4b"></path>
<path d="M 64.79 114.90
  L 61.37 118.16
  A 1.26 1.26 0.0 0 0 61.20 119.78
  L 61.40 120.08
  Q 62.30 121.42 63.62 120.49
  L 67.24 117.95" stroke="#0d605b"></path>
<path d="M 67.24 117.95
  Q 70.89 115.42 73.35 111.30" stroke="#0a4f4b"></path>
<path d="M 73.35 111.30
  L 83.01 111.20
  A 1.29 1.21 -25.0 0 1 83.77 111.45
  L 84.97 112.34
  A 0.41 0.40 54.2 0 1 84.86 113.05
  L 81.44 114.20" stroke="#08403d"></path>
<path d="M 81.44 114.20
  C 78.83 114.55 74.70 113.51 73.49 116.34" stroke="#0a4f4b"></path>
<path d="M 73.49 116.34
  Q 72.73 116.91 72.17 117.79
  Q 71.87 118.25 72.34 118.52
  Q 85.70 126.21 100.67 122.07
  A 0.85 0.85 0.0 0 0 101.25 120.98
  L 100.32 118.26" stroke="#0d605b"></path>
<path d="M 100.32 118.26
  C 99.82 116.39 98.70 116.10 100.04 113.97" stroke="#0a4f4b"></path>
<path d="M 100.04 113.97
  Q 102.39 111.83 103.86 107.37
  Q 104.02 106.89 104.50 106.72
  L 106.18 106.13
  Q 106.67 105.96 106.60 106.48
  L 106.38 108.19" stroke="#08403d"></path>
<path d="M 106.38 108.19
  L 103.02 115.71
  A 1.07 1.06 -43.1 0 0 102.99 116.54
  L 104.28 120.01
  Q 104.53 120.68 105.15 120.34
  Q 109.88 117.73 112.94 113.29
  Q 113.24 112.86 113.07 112.36
  Q 109.51 102.30 121.12 100.92" stroke="#0a4f4b"></path>
<path d="M 121.12 100.92
  L 127.91 102.55
  A 1.45 1.44 -69.6 0 0 129.54 101.80
  L 129.68 101.52
  Q 130.51 99.88 128.80 99.20
  L 122.17 96.57" stroke="#0d605b"></path>
<path d="M 122.17 96.57
  L 115.25 95.06" stroke="#0a4f4b"></path>
<path d="M 115.25 95.06
  Q 114.55 91.13 111.11 87.42
  Q 110.94 87.24 110.95 86.99
  L 111.07 84.34
  A 0.12 0.12 0.0 0 1 111.27 84.26
  L 114.36 86.94" stroke="#08403d"></path>
<path d="M 114.36 86.94
  L 117.75 92.37
  Q 118.03 92.82 118.55 92.90
  L 122.23 93.46
  Q 122.80 93.55 122.85 92.98
  C 123.69 82.86 118.97 72.92 111.51 66.31
  A 0.51 0.51 0.0 0 0 110.83 66.32
  Q 108.61 68.40 106.85 71.10
  Q 106.75 71.25 105.79 71.29" stroke="#0a4f4b"></path>
<path d="M 105.79 71.29
  Q 102.17 70.01 97.39 71.32
  Q 96.95 71.44 96.63 71.12
  L 94.77 69.31" stroke="#08403d"></path>
<path d="M 94.77 69.31
  Q 99.86 67.58 104.93 67.90
  A 0.86 0.83 -67.2 0 0 105.63 67.60
  L 108.17 64.65
  Q 108.56 64.21 108.08 63.87
  Q 103.47 60.57 97.77 60.43
  A 0.88 0.88 0.0 0 0 97.05 60.78
  C 91.34 68.23 84.82 63.64 82.16 56.65" stroke="#0a4945"></path>
<path d="M 82.16 56.65
  Q 81.78 54.70 81.20 53.00
  Q 80.89 52.08 80.34 51.76
  Q 79.44 51.24 78.44 52.19
  A 1.26 1.21 71.7 0 0 78.06 52.99
  Q 77.86 55.47 78.49 58.08" stroke="#0d605b"></path>
<path d="M 82.16 56.65
  L 78.49 58.08" stroke="#16a9a0"></path>
<path d="M 94.77 69.31
  Q 93.96 68.77 93.33 69.49
  Q 93.03 69.83 92.58 69.88
  Q 91.53 69.98 90.72 70.73" stroke="#128982"></path>
<path d="M 90.72 70.73
  Q 82.82 69.04 79.34 75.94" stroke="#0a4945"></path>
<path d="M 79.34 75.94
  Q 78.37 75.65 76.84 76.29" stroke="#0f706a"></path>
<path d="M 76.84 76.29
  Q 76.35 75.52 76.51 75.06" stroke="#0c5955"></path>
<path d="M 76.84 76.29
  Q 76.92 77.76 76.43 79.35
  Q 76.27 79.86 76.68 80.20
  Q 77.40 80.81 78.70 80.06" stroke="#073835"></path>
<path d="M 96.61 81.51
  L 93.00 83.37
  A 0.56 0.55 46.9 0 0 92.97 84.33
  L 102.59 90.28" stroke="#021110"></path>
<path d="M 102.59 90.28
  Q 101.53 91.62 101.72 92.44" stroke="#073835"></path>
<path d="M 101.72 92.44
  Q 100.53 90.55 98.06 89.91
  Q 97.51 89.77 97.50 90.32
  L 97.26 101.16" stroke="#021110"></path>
<path d="M 97.26 101.16
  Q 96.29 100.09 95.48 100.74" stroke="#073835"></path>
<path d="M 95.48 100.74
  L 95.46 97.65
  A 0.60 0.60 0.0 0 0 94.56 97.14
  L 90.57 99.49" stroke="#021110"></path>
<path d="M 90.57 99.49
  Q 90.31 98.62 89.02 98.95
  Q 88.18 99.16 87.79 98.94" stroke="#073835"></path>
<path d="M 87.79 98.94
  Q 87.60 98.14 86.49 97.50
  C 83.37 95.69 79.32 93.99 77.54 91.57
  C 74.94 88.06 75.21 84.46 75.68 79.35" stroke="#021110"></path>
<path d="M 75.68 79.35
  Q 76.37 77.80 76.20 75.85
  Q 76.18 75.70 76.05 75.65
  Q 75.93 75.60 75.77 75.61" stroke="#073835"></path>
<path d="M 115.25 95.06
  Q 112.40 103.33 106.38 108.19" stroke="#128f87"></path>
<path d="M 100.04 113.97
  Q 89.85 116.71 81.44 114.20" stroke="#128f87"></path>
<path d="M 73.35 111.30
  C 72.54 110.24 71.55 109.73 70.70 108.62
  Q 69.50 107.03 67.82 106.52" stroke="#128f87"></path>
<path d="M 63.53 100.99
  Q 63.93 99.13 62.87 97.00
  Q 61.57 94.40 62.51 89.76" stroke="#128f87"></path>
<path d="M 73.69 76.27
  Q 72.76 78.11 73.01 80.55" stroke="#0d6862"></path>
<path d="M 73.01 80.55
  Q 68.33 84.67 70.58 91.62" stroke="#08403d"></path>
<path d="M 70.58 91.62
  Q 69.75 92.07 70.50 94.17
  Q 70.54 94.28 70.59 94.75
  Q 70.61 94.99 70.43 95.12
  Q 69.69 95.64 70.50 95.62
  L 70.84 95.61
  Q 71.18 95.61 71.04 95.92
  Q 70.96 96.08 70.89 96.24
  A 0.27 0.26 -62.4 0 0 70.99 96.58
  Q 72.10 97.28 72.11 98.54
  A 0.47 0.46 84.2 0 1 71.73 99.01
  Q 71.54 99.04 71.37 99.13
  Q 70.92 99.39 71.34 99.71
  L 72.41 100.54" stroke="#0d6862"></path>
<path d="M 72.41 100.54
  C 73.32 106.10 78.86 109.61 84.32 107.73" stroke="#08403d"></path>
<path d="M 84.32 107.73
  Q 84.90 107.60 85.31 108.10
  Q 85.64 108.51 85.40 108.97
  Q 84.94 109.86 83.90 110.35
  Q 83.43 110.58 83.93 110.73
  Q 84.48 110.89 85.15 110.23
  A 1.07 1.06 53.3 0 1 86.83 110.48
  L 87.28 111.29
  Q 87.53 111.75 88.05 111.82
  Q 88.74 111.92 89.31 111.30" stroke="#0d6862"></path>
<path d="M 89.31 111.30
  Q 98.56 113.79 101.74 104.72" stroke="#08403d"></path>
<path d="M 101.74 104.72
  Q 102.16 104.51 102.63 103.62
  Q 103.07 102.79 103.91 103.17
  Q 104.36 103.37 104.79 103.13
  L 105.19 102.89" stroke="#0d6862"></path>
<path d="M 105.19 102.89
  Q 105.71 103.11 105.97 102.96
  C 111.76 99.41 112.68 91.21 106.66 87.34
  Q 101.71 84.16 96.61 81.51" stroke="#08403d"></path>
<path d="M 96.61 81.51
  Q 96.39 81.47 96.20 81.44
  A 0.66 0.65 -3.6 0 1 95.69 81.00
  Q 95.52 80.51 95.79 80.08" stroke="#0a514c"></path>
<path d="M 95.79 80.08
  C 97.69 80.16 99.36 79.84 101.12 80.69
  Q 104.25 82.19 107.04 83.97
  A 0.93 0.93 0.0 0 0 108.46 83.00
  Q 106.17 71.65 95.34 74.90" stroke="#08403d"></path>
<path d="M 95.34 74.90
  Q 94.05 74.93 94.07 73.76
  Q 94.08 73.29 94.54 73.20
  Q 94.93 73.12 95.13 72.87
  Q 95.48 72.42 94.95 72.21
  Q 94.02 71.85 93.22 72.35" stroke="#0d6862"></path>
<path d="M 93.22 72.35
  L 90.72 70.73" stroke="#08403d"></path>
<path d="M 93.22 72.35
  C 88.33 75.13 82.70 77.45 82.99 84.19" stroke="#052825"></path>
<path d="M 82.99 84.19
  L 83.20 92.76
  Q 83.21 93.11 82.91 92.93
  L 79.19 90.70
  Q 78.98 90.58 78.97 90.34
  L 78.70 80.06" stroke="#021110"></path>
<path d="M 78.70 80.06
  L 79.34 75.94" stroke="#052825"></path>
<path d="M 101.72 92.44
  L 101.74 104.72" stroke="#052825"></path>
<path d="M 89.31 111.30
  Q 88.17 110.86 87.75 110.31
  Q 87.39 109.83 87.89 109.51
  C 90.34 107.95 93.57 106.68 95.24 104.37
  Q 96.30 102.91 97.26 101.16" stroke="#052825"></path>
<path d="M 87.79 98.94
  L 85.22 100.29
  Q 84.29 100.78 83.33 100.33
  Q 75.89 96.85 70.58 91.62" stroke="#052825"></path>
<path d="M 105.19 102.89
  Q 104.90 102.67 104.91 102.22
  C 104.97 99.98 105.22 95.91 104.10 93.40
  Q 103.47 91.98 102.59 90.28" stroke="#052825"></path>
<path d="M 95.48 100.74
  Q 95.46 101.06 95.32 101.38
  Q 95.21 101.65 94.90 101.83
  Q 89.64 104.86 84.32 107.73" stroke="#052825"></path>
<path d="M 95.34 74.90
  L 85.66 80.40
  Q 85.20 80.66 85.05 81.17
  Q 84.60 82.74 84.73 84.48" stroke="#052825"></path>
<path d="M 84.73 84.48
  Q 83.85 84.12 82.99 84.19" stroke="#073835"></path>
<path d="M 90.57 99.49
  Q 89.05 100.34 87.53 101.21
  C 82.18 104.26 78.06 101.10 73.60 98.64
  Q 73.45 98.56 73.23 98.19
  Q 72.96 97.72 72.60 98.13
  Q 72.03 98.76 72.41 100.54" stroke="#052825"></path>
<path d="M 95.79 80.08
  C 93.66 79.93 87.92 83.97 85.85 85.20
  Q 85.40 85.47 85.13 85.32
  Q 84.78 85.13 84.73 84.48" stroke="#021110"></path>
<path d="M 75.68 79.35
  Q 74.09 79.36 73.01 80.55" stroke="#052825"></path>
<path d="M 114.36 86.94
  Q 114.45 84.09 113.39 81.99
  Q 110.75 76.70 105.79 71.29" stroke="#128f87"></path>
<path d="M 122.17 96.57
  Q 120.20 98.10 121.12 100.92" stroke="#17afa6"></path>
<path d="M 100.32 118.26
  Q 95.69 118.66 91.25 119.62
  Q 87.66 120.40 80.64 118.32
  Q 79.76 118.07 78.78 118.11
  Q 78.25 118.14 77.88 117.77
  Q 76.08 116.02 73.49 116.34" stroke="#17afa6"></path>
<path d="M 74.95 71.24
  C 70.54 74.09 67.70 77.93 66.23 82.94
  Q 65.58 85.13 64.84 87.25" stroke="#128982"></path>
<path d="M 67.24 117.95
  Q 66.71 115.86 64.79 114.90" stroke="#17afa6"></path>
<path d="M 77.52 66.63
  Q 74.46 67.86 73.78 68.42
  Q 68.93 72.40 65.42 77.59
  Q 65.14 78.01 65.14 78.51
  Q 65.13 78.92 64.94 79.29
  Q 63.15 82.62 62.30 86.54" stroke="#149790"></path>
<path d="M 65.42 107.87
  A 5.47 5.47 0.0 0 0 59.95 102.40
  A 5.47 5.47 0.0 0 0 54.48 107.87
  A 5.47 5.47 0.0 0 0 59.95 113.34
  A 5.47 5.47 0.0 0 0 65.42 107.87" stroke="#0d605b"></path>
<path d="M 125.29 108.97
  A 5.48 5.48 0.0 0 0 119.81 103.49
  A 5.48 5.48 0.0 0 0 114.33 108.97
  A 5.48 5.48 0.0 0 0 119.81 114.45
  A 5.48 5.48 0.0 0 0 125.29 108.97" stroke="#0d605b"></path>
</g>
<path d="M 30.12 152.65
  Q 30.13 152.79 30.06 152.91
  Q 30.02 153.01 29.92 152.97
  Q 28.80 152.51 28.17 151.59
  Q 27.91 151.22 27.56 150.94
  C 26.78 150.30 25.95 149.88 25.28 149.10
  C 22.75 146.12 19.80 143.88 17.13 140.33
  A 0.28 0.28 0.0 0 0 16.89 140.22
  Q 16.70 140.23 16.61 140.40
  Q 16.61 140.41 16.60 140.40
  L 14.36 137.80
  Q 14.00 137.38 13.94 136.85
  Q 13.82 135.76 12.87 135.17
  Q 12.42 134.89 12.34 134.36
  Q 12.15 133.05 10.96 132.54
  Q 10.82 132.48 10.90 132.35
  L 11.10 132.05
  Q 11.13 131.99 11.08 131.95
  Q 10.10 131.06 10.11 129.80
  Q 10.11 129.39 9.84 129.09
  Q 9.69 128.93 9.46 128.89
  A 0.54 0.53 -76.7 0 1 9.04 128.20
  Q 9.50 126.74 8.39 125.90
  Q 8.01 125.61 8.11 125.15
  Q 8.31 124.29 7.51 123.89
  Q 7.12 123.69 7.12 123.25
  L 7.12 122.00
  A 0.93 0.93 0.0 0 0 6.74 121.25
  Q 5.83 120.58 6.12 119.36
  Q 6.25 118.82 5.82 118.45
  Q 4.81 117.58 5.15 116.22
  A 0.86 0.84 26.0 0 0 4.84 115.35
  Q 3.54 114.35 4.21 112.51
  A 0.30 0.30 0.0 0 0 3.86 112.12
  Q 3.37 112.26 3.18 111.30
  Q 3.12 110.99 3.12 110.68
  L 3.12 108.00
  Q 3.12 107.49 2.72 107.17
  L 2.30 106.82
  Q 2.15 106.69 2.14 106.49
  Q 2.04 104.43 2.13 100.75
  Q 2.15 100.01 1.41 99.89
  Q 1.03 99.83 1.06 99.44
  Q 1.41 95.38 0.65 91.39
  Q 0.65 91.37 0.67 91.37
  Q 0.77 91.38 0.91 91.31
  Q 1.00 91.26 1.01 91.15
  Q 1.42 87.57 0.78 84.02
  Q 0.69 83.55 0.91 83.13
  Q 1.50 81.94 0.81 80.74
  A 0.42 0.42 0.0 0 1 1.25 80.12
  Q 1.64 80.19 1.90 79.84
  Q 2.12 79.54 2.12 79.17
  L 2.12 73.74
  Q 2.12 73.25 2.58 73.08
  Q 2.78 73.01 2.90 72.83
  Q 3.12 72.54 3.12 72.18
  L 3.12 68.79
  Q 3.12 68.43 3.42 68.23
  Q 4.29 67.68 4.17 66.59
  Q 4.08 65.69 4.19 65.42
  Q 4.33 65.06 4.67 64.85
  A 1.01 0.99 -17.2 0 0 5.12 64.02
  L 5.12 61.75
  Q 5.12 61.29 5.54 61.09
  Q 6.29 60.75 6.12 59.84
  Q 6.04 59.38 6.43 59.13
  C 7.87 58.19 9.02 57.68 10.05 56.20
  Q 12.79 52.24 14.60 51.58
  Q 17.85 50.39 19.97 47.70
  Q 20.27 47.32 20.74 47.21
  C 22.34 46.83 22.60 45.61 23.61 44.83
  Q 26.22 42.82 28.90 40.91
  Q 29.29 40.62 29.78 40.66
  Q 30.24 40.69 30.48 40.49
  Q 33.61 37.92 40.86 30.85
  Q 41.50 30.24 41.45 29.62
  Q 41.42 29.17 41.73 28.83
  Q 46.59 23.48 51.02 17.79
  Q 52.13 16.36 53.84 13.34
  Q 55.33 10.69 57.32 8.29
  A 1.46 1.45 47.0 0 0 57.38 6.50
  Q 56.95 5.91 57.16 5.16
  A 0.46 0.46 0.0 0 1 57.82 4.89
  Q 59.18 5.65 60.21 4.47
  Q 60.50 4.14 60.94 4.13
  Q 61.83 4.11 62.65 3.63
  A 1.45 1.38 5.8 0 0 63.05 3.32
  Q 64.06 2.25 65.65 2.81
  Q 66.22 3.01 66.45 2.46
  Q 66.61 2.10 66.92 1.88
  Q 67.26 1.65 67.66 1.73
  Q 69.57 2.13 71.24 1.29
  Q 71.71 1.05 72.24 1.09
  C 75.06 1.33 77.88 0.60 80.33 0.61
  Q 89.67 0.65 99.00 0.62
  Q 101.81 0.61 105.36 1.29
  Q 106.07 1.43 107.12 1.26
  Q 108.52 1.03 109.09 1.88
  A 0.95 0.94 64.1 0 0 110.17 2.26
  Q 112.01 1.65 113.24 2.75
  A 1.46 1.39 69.0 0 0 114.00 3.11
  Q 117.07 3.57 119.20 5.90
  A 0.79 0.73 -11.4 0 0 119.58 6.13
  C 121.85 6.74 123.52 8.68 125.34 9.89
  Q 126.85 10.89 128.36 12.27
  C 129.85 13.63 131.70 14.46 133.07 15.77
  Q 135.58 18.19 138.04 20.67
  Q 138.19 20.83 138.42 20.86
  Q 138.58 20.88 138.71 20.88
  Q 138.74 20.88 138.76 20.90
  Q 143.54 25.68 149.37 29.13
  Q 149.76 29.36 149.96 29.97
  A 1.32 1.31 -83.4 0 0 150.51 30.67
  C 153.93 32.83 157.29 34.73 160.11 37.59
  Q 162.59 40.13 164.94 42.79
  C 166.14 44.15 166.97 45.91 168.28 47.39
  Q 168.56 47.72 168.61 48.15
  Q 168.70 49.01 169.49 49.35
  Q 169.92 49.54 169.88 50.00
  Q 169.82 50.81 170.53 51.25
  A 0.77 0.76 20.5 0 1 170.89 52.02
  Q 170.77 52.82 171.48 53.10
  Q 171.88 53.26 171.87 53.69
  Q 171.87 54.40 172.11 55.08
  Q 172.28 55.57 172.77 55.74
  Q 173.32 55.93 173.38 56.51
  Q 173.41 56.75 173.21 57.21
  Q 172.71 58.32 173.60 59.12
  A 0.93 0.92 26.2 0 1 173.89 59.95
  Q 173.75 60.79 174.45 61.09
  Q 174.88 61.27 174.88 61.74
  L 174.88 63.97
  Q 174.88 64.43 175.25 64.72
  C 176.80 65.94 174.98 67.71 176.57 69.10
  Q 176.88 69.37 176.88 69.78
  L 176.88 72.15
  Q 176.88 72.65 177.25 72.98
  Q 177.36 73.08 177.49 73.11
  Q 177.89 73.21 177.89 73.62
  Q 177.88 76.32 177.89 79.00
  Q 177.90 79.55 178.60 79.88
  Q 178.99 80.06 178.99 80.48
  L 178.99 99.75
  Q 178.99 100.19 178.57 100.05
  Q 177.90 99.84 177.89 100.49
  C 177.87 102.81 178.18 104.63 177.22 106.86
  Q 175.96 109.78 175.19 112.86
  C 174.60 115.22 173.70 117.09 172.78 119.24
  A 1.01 0.02 89.9 0 0 172.76 120.21
  Q 172.76 121.72 171.74 122.57
  Q 171.34 122.90 171.16 123.39
  Q 168.92 129.36 166.83 131.72
  Q 161.77 137.42 158.11 144.12
  C 157.78 144.72 156.65 145.25 156.08 145.93
  Q 153.07 149.54 150.04 153.13
  C 149.05 154.30 147.03 156.16 145.66 157.09
  C 143.68 158.43 142.45 160.30 139.95 161.62
  C 138.44 162.41 137.49 163.44 136.21 164.49
  C 134.74 165.71 132.84 165.74 131.38 167.50
  Q 131.27 168.20 130.67 168.16
  Q 130.28 168.13 129.95 168.33
  Q 126.77 170.25 123.43 171.84
  C 122.53 172.27 121.64 171.93 121.00 172.24
  C 118.34 173.51 115.87 174.15 113.40 175.09
  C 111.44 175.84 109.63 175.93 107.65 176.82
  C 104.79 178.10 102.49 177.45 99.70 178.24
  C 96.54 179.14 93.34 178.82 90.06 179.24
  Q 90.00 179.25 89.96 179.30
  Q 89.89 179.42 89.87 179.55
  Q 89.86 179.66 89.75 179.63
  Q 87.98 179.11 87.14 179.20
  C 82.97 179.69 80.58 178.91 77.07 178.69
  C 74.67 178.54 72.37 177.52 69.75 177.62
  Q 69.32 177.64 68.95 177.43
  Q 66.28 175.96 63.28 175.54
  A 1.35 0.80 -14.3 0 1 63.11 175.49
  L 55.26 172.33
  Q 54.86 172.17 54.52 171.92
  Q 52.67 170.61 50.63 169.61
  Q 50.27 169.44 50.03 168.99
  Q 49.79 168.56 49.32 168.45
  C 47.90 168.09 47.01 166.95 46.12 166.35
  Q 44.45 165.21 42.79 164.04
  Q 42.41 163.77 42.24 163.33
  C 41.80 162.22 40.60 162.05 39.82 161.38
  Q 34.90 157.10 30.14 152.64
  Q 30.12 152.62 30.12 152.65
  Z
  M 42.38 32.38
  Q 37.73 36.46 33.10 40.55
  C 31.87 41.64 30.26 42.28 28.84 43.28
  C 26.75 44.74 24.62 45.70 22.62 47.12
  Q 21.55 47.87 21.31 48.65
  Q 21.19 49.03 20.93 49.33
  C 19.03 51.40 18.37 54.00 17.42 55.95
  Q 16.68 57.47 15.91 58.98
  C 15.12 60.55 14.92 62.56 13.72 64.24
  Q 13.58 64.44 13.61 64.84
  Q 13.64 65.33 13.47 65.79
  Q 11.09 72.41 10.61 77.75
  Q 10.53 78.73 10.27 79.23
  A 1.24 1.23 -33.5 0 0 10.13 79.91
  C 10.29 82.07 9.68 84.21 9.62 86.00
  Q 9.11 101.08 13.77 115.46
  C 14.09 116.43 14.76 117.46 15.04 118.54
  C 16.13 122.73 19.13 127.47 21.10 131.40
  C 21.68 132.54 22.78 133.11 23.13 134.61
  A 1.31 1.30 10.3 0 0 23.66 135.37
  C 24.64 136.01 25.00 137.25 25.61 137.95
  Q 26.54 139.03 27.46 140.12
  Q 27.63 140.31 27.51 140.54
  Q 27.36 140.81 27.51 140.99
  Q 32.22 146.77 38.69 152.19
  Q 40.02 153.30 42.04 154.51
  C 45.01 156.28 47.93 158.48 50.73 159.93
  Q 55.09 162.20 59.51 164.36
  C 60.54 164.87 61.57 164.87 62.68 165.39
  C 67.67 167.75 73.34 168.46 78.69 169.57
  C 80.43 169.94 82.19 169.88 83.99 170.07
  C 94.29 171.15 104.87 169.54 115.01 166.36
  Q 116.96 165.74 118.07 165.06
  Q 118.39 164.87 118.76 164.87
  Q 118.93 164.87 119.11 164.87
  Q 119.49 164.86 119.82 164.69
  Q 124.99 162.08 130.19 159.52
  C 131.78 158.73 133.31 157.23 135.24 156.55
  Q 135.51 156.45 135.64 156.18
  Q 135.76 155.92 136.00 155.75
  Q 144.03 150.02 147.63 146.01
  Q 151.09 142.15 156.00 135.85
  Q 157.05 134.49 157.48 133.19
  Q 157.59 132.86 157.90 132.67
  Q 158.05 132.58 158.20 132.47
  Q 158.47 132.28 158.65 131.91
  Q 161.71 125.76 164.77 119.61
  Q 164.87 119.41 164.87 119.20
  L 164.87 118.83
  Q 164.87 118.43 165.08 118.07
  L 166.60 115.52
  Q 166.67 115.40 166.61 115.26
  Q 166.54 115.12 166.47 114.98
  Q 166.39 114.80 166.45 114.62
  Q 168.03 109.93 168.40 108.40
  Q 168.47 108.11 168.39 107.61
  Q 168.32 107.14 168.47 106.68
  Q 169.39 103.72 169.87 97.75
  Q 170.45 90.44 170.36 88.24
  C 170.22 85.04 170.11 81.43 169.50 78.38
  Q 168.78 74.76 168.02 71.16
  Q 166.98 66.21 165.01 61.56
  Q 164.86 61.19 164.87 60.79
  Q 164.90 60.21 164.37 59.92
  Q 163.90 59.68 163.73 59.18
  C 162.69 56.36 161.07 53.97 159.98 51.22
  C 158.95 48.64 157.18 46.82 155.75 44.56
  Q 154.49 42.59 153.13 40.97
  Q 151.74 39.30 150.47 37.52
  Q 150.19 37.12 150.14 36.64
  Q 150.05 35.92 149.41 35.66
  Q 148.93 35.47 148.63 35.06
  C 148.02 34.21 146.90 33.15 145.85 32.90
  Q 145.58 32.84 145.52 32.56
  Q 145.46 32.27 145.22 32.08
  L 142.76 30.24
  Q 142.63 30.14 142.75 30.12
  Q 142.81 30.11 142.87 30.07
  Q 143.10 29.95 142.91 29.75
  C 141.30 28.05 139.38 26.79 137.59 25.30
  Q 136.91 24.74 135.76 24.01
  Q 127.89 19.03 122.14 16.39
  Q 120.86 15.80 119.21 15.55
  Q 116.72 15.18 116.19 14.87
  A 17.24 16.98 67.1 0 0 111.94 13.11
  Q 106.33 11.63 100.54 10.73
  C 99.58 10.59 98.39 10.76 97.36 10.51
  C 93.40 9.54 87.82 10.13 83.66 10.13
  Q 83.50 10.13 83.35 10.21
  Q 83.19 10.29 83.03 10.38
  Q 82.60 10.63 82.10 10.62
  Q 78.29 10.48 75.25 11.40
  C 73.37 11.97 71.54 11.97 70.01 12.48
  C 67.15 13.42 63.52 14.29 61.48 15.84
  Q 61.00 16.20 59.95 16.33
  A 1.87 1.78 22.0 0 0 59.09 16.67
  Q 57.55 17.79 55.77 18.35
  C 54.39 18.78 53.49 19.63 52.16 20.14
  Q 51.72 20.30 51.42 20.67
  L 44.34 29.36
  Q 44.05 29.71 43.92 30.15
  Q 43.56 31.34 42.38 32.38
  Z" fill-opacity="0.039" fill="#000100"></path>
<path d="M 42.38 32.38
  Q 43.56 31.34 43.92 30.15
  Q 44.05 29.71 44.34 29.36
  L 51.42 20.67
  Q 51.72 20.30 52.16 20.14
  C 53.49 19.63 54.39 18.78 55.77 18.35
  Q 57.55 17.79 59.09 16.67
  A 1.87 1.78 22.0 0 1 59.95 16.33
  Q 61.00 16.20 61.48 15.84
  C 63.52 14.29 67.15 13.42 70.01 12.48
  C 71.54 11.97 73.37 11.97 75.25 11.40
  Q 78.29 10.48 82.10 10.62
  Q 82.60 10.63 83.03 10.38
  Q 83.19 10.29 83.35 10.21
  Q 83.50 10.13 83.66 10.13
  C 87.82 10.13 93.40 9.54 97.36 10.51
  C 98.39 10.76 99.58 10.59 100.54 10.73
  Q 106.33 11.63 111.94 13.11
  A 17.24 16.98 67.1 0 1 116.19 14.87
  Q 116.72 15.18 119.21 15.55
  Q 120.86 15.80 122.14 16.39
  Q 127.89 19.03 135.76 24.01
  Q 136.91 24.74 137.59 25.30
  C 139.38 26.79 141.30 28.05 142.91 29.75
  Q 143.10 29.95 142.87 30.07
  Q 142.81 30.11 142.75 30.12
  Q 142.63 30.14 142.76 30.24
  L 145.22 32.08
  Q 145.46 32.27 145.52 32.56
  Q 145.58 32.84 145.85 32.90
  C 146.90 33.15 148.02 34.21 148.63 35.06
  Q 148.93 35.47 149.41 35.66
  Q 150.05 35.92 150.14 36.64
  Q 150.19 37.12 150.47 37.52
  Q 151.74 39.30 153.13 40.97
  Q 154.49 42.59 155.75 44.56
  C 157.18 46.82 158.95 48.64 159.98 51.22
  C 161.07 53.97 162.69 56.36 163.73 59.18
  Q 163.90 59.68 164.37 59.92
  Q 164.90 60.21 164.87 60.79
  Q 164.86 61.19 165.01 61.56
  Q 166.98 66.21 168.02 71.16
  Q 168.78 74.76 169.50 78.38
  C 170.11 81.43 170.22 85.04 170.36 88.24
  Q 170.45 90.44 169.87 97.75
  Q 169.39 103.72 168.47 106.68
  Q 168.32 107.14 168.39 107.61
  Q 168.47 108.11 168.40 108.40
  Q 168.03 109.93 166.45 114.62
  Q 166.39 114.80 166.47 114.98
  Q 166.54 115.12 166.61 115.26
  Q 166.67 115.40 166.60 115.52
  L 165.08 118.07
  Q 164.87 118.43 164.87 118.83
  L 164.87 119.20
  Q 164.87 119.41 164.77 119.61
  Q 161.71 125.76 158.65 131.91
  Q 158.47 132.28 158.20 132.47
  Q 158.05 132.58 157.90 132.67
  Q 157.59 132.86 157.48 133.19
  Q 157.05 134.49 156.00 135.85
  Q 151.09 142.15 147.63 146.01
  Q 144.03 150.02 136.00 155.75
  Q 135.76 155.92 135.64 156.18
  Q 135.51 156.45 135.24 156.55
  C 133.31 157.23 131.78 158.73 130.19 159.52
  Q 124.99 162.08 119.82 164.69
  Q 119.49 164.86 119.11 164.87
  Q 118.93 164.87 118.76 164.87
  Q 118.39 164.87 118.07 165.06
  Q 116.96 165.74 115.01 166.36
  C 104.87 169.54 94.29 171.15 83.99 170.07
  C 82.19 169.88 80.43 169.94 78.69 169.57
  C 73.34 168.46 67.67 167.75 62.68 165.39
  C 61.57 164.87 60.54 164.87 59.51 164.36
  Q 55.09 162.20 50.73 159.93
  C 47.93 158.48 45.01 156.28 42.04 154.51
  Q 40.02 153.30 38.69 152.19
  Q 32.22 146.77 27.51 140.99
  Q 27.36 140.81 27.51 140.54
  Q 27.63 140.31 27.46 140.12
  Q 26.54 139.03 25.61 137.95
  C 25.00 137.25 24.64 136.01 23.66 135.37
  A 1.31 1.30 10.3 0 1 23.13 134.61
  C 22.78 133.11 21.68 132.54 21.10 131.40
  C 19.13 127.47 16.13 122.73 15.04 118.54
  C 14.76 117.46 14.09 116.43 13.77 115.46
  Q 9.11 101.08 9.62 86.00
  C 9.68 84.21 10.29 82.07 10.13 79.91
  A 1.24 1.23 -33.5 0 1 10.27 79.23
  Q 10.53 78.73 10.61 77.75
  Q 11.09 72.41 13.47 65.79
  Q 13.64 65.33 13.61 64.84
  Q 13.58 64.44 13.72 64.24
  C 14.92 62.56 15.12 60.55 15.91 58.98
  Q 16.68 57.47 17.42 55.95
  C 18.37 54.00 19.03 51.40 20.93 49.33
  Q 21.19 49.03 21.31 48.65
  Q 21.55 47.87 22.62 47.12
  C 24.62 45.70 26.75 44.74 28.84 43.28
  C 30.26 42.28 31.87 41.64 33.10 40.55
  Q 37.73 36.46 42.38 32.38
  Z
  M 23.50 124.75
  Q 23.75 125.01 23.48 125.26
  Q 23.33 125.41 23.44 125.60
  L 29.86 135.94
  Q 29.93 136.05 29.95 136.03
  Q 30.00 136.00 30.06 135.98
  Q 30.23 135.94 30.40 136.15
  C 31.18 137.13 31.65 138.30 32.52 139.17
  Q 34.41 141.08 36.03 143.24
  Q 36.34 143.65 36.84 143.78
  L 37.86 144.06
  A 1.15 1.09 80.1 0 1 38.52 144.55
  C 39.57 146.26 41.31 146.63 42.41 148.25
  Q 42.68 148.65 43.09 148.92
  C 44.48 149.85 45.39 151.14 46.75 151.97
  Q 48.74 153.19 50.74 154.39
  Q 52.03 155.16 52.46 155.64
  Q 52.67 155.88 52.99 155.87
  Q 53.17 155.86 53.35 155.83
  Q 53.86 155.77 54.31 156.01
  L 59.23 158.66
  Q 59.47 158.79 60.00 158.89
  Q 60.18 158.92 60.26 158.73
  A 0.17 0.16 40.4 0 1 60.55 158.71
  C 61.85 160.74 63.62 160.43 65.35 161.19
  Q 66.63 161.75 68.00 162.15
  Q 74.28 163.97 80.77 164.67
  Q 84.51 165.07 88.25 165.40
  C 90.81 165.63 93.41 165.25 96.25 165.13
  Q 99.96 164.97 105.22 163.72
  Q 108.02 163.06 108.38 163.21
  Q 108.76 163.37 111.44 162.34
  Q 115.54 160.77 119.86 159.70
  Q 120.81 159.46 122.24 158.40
  Q 122.62 158.12 123.10 158.12
  Q 123.77 158.13 124.21 157.49
  Q 124.46 157.12 124.91 157.14
  Q 125.90 157.19 126.07 156.21
  Q 126.15 155.71 126.59 155.46
  L 134.36 150.99
  Q 134.87 150.69 135.13 150.17
  Q 135.68 149.06 136.89 148.66
  A 1.58 1.53 8.0 0 0 137.70 148.07
  C 138.87 146.43 140.58 145.88 141.80 144.69
  Q 145.63 140.95 149.09 136.84
  Q 149.85 135.93 149.98 135.45
  A 0.60 0.57 -12.7 0 1 150.18 135.15
  Q 151.72 133.96 152.59 132.28
  Q 153.19 131.11 154.09 129.73
  Q 154.85 128.57 155.35 126.98
  Q 155.45 126.66 155.76 126.60
  Q 156.15 126.53 156.34 126.19
  Q 160.10 119.68 162.39 112.56
  C 163.76 108.30 164.17 103.59 164.77 98.98
  Q 165.75 91.53 165.63 84.04
  C 165.62 83.15 165.14 82.44 165.10 81.47
  C 164.96 78.49 164.51 75.39 163.57 72.55
  Q 161.97 67.71 160.42 62.86
  C 160.00 61.56 159.20 60.50 158.71 59.11
  Q 158.10 57.36 157.44 56.32
  Q 156.38 54.65 155.48 52.90
  Q 154.59 51.18 153.26 49.71
  Q 151.50 47.75 150.01 45.56
  Q 149.84 45.31 149.88 45.01
  Q 149.90 44.85 149.89 44.69
  Q 149.89 44.42 149.70 44.14
  Q 147.38 40.60 145.75 39.38
  Q 144.37 38.35 143.77 37.38
  Q 143.51 36.96 143.11 36.68
  Q 139.81 34.36 136.83 31.63
  Q 136.04 30.90 134.45 29.88
  C 132.57 28.68 131.57 26.99 129.18 26.29
  Q 128.01 25.95 127.07 25.21
  Q 125.87 24.28 125.16 23.92
  Q 124.02 23.34 122.94 22.63
  C 121.90 21.93 120.86 21.96 119.78 21.37
  C 112.50 17.33 102.99 15.54 94.74 15.23
  Q 94.53 15.23 94.44 15.04
  Q 94.37 14.88 94.25 14.88
  Q 88.60 14.87 82.94 14.87
  Q 82.68 14.87 82.59 15.11
  Q 82.51 15.31 82.24 15.33
  Q 67.61 16.56 54.98 23.93
  A 1.21 1.15 -58.4 0 1 54.34 24.10
  Q 53.64 24.08 53.11 24.45
  C 51.77 25.38 51.14 25.68 49.94 26.20
  Q 49.51 26.38 49.17 26.71
  C 48.39 27.47 47.51 27.66 46.80 28.40
  Q 43.77 31.56 41.41 35.22
  Q 41.31 35.38 41.12 35.44
  Q 40.98 35.48 40.84 35.53
  Q 40.62 35.61 40.44 35.78
  Q 37.75 38.50 35.01 41.18
  C 33.69 42.49 32.13 43.31 30.62 44.40
  Q 30.25 44.66 30.05 45.07
  C 29.40 46.34 28.01 46.80 27.52 48.38
  Q 27.37 48.85 26.98 49.15
  C 25.40 50.33 25.12 52.47 24.50 53.66
  Q 23.12 56.30 21.91 59.02
  Q 21.83 59.18 21.57 59.34
  A 1.12 1.12 0.0 0 0 21.09 59.91
  Q 19.84 63.15 18.73 66.43
  C 17.04 71.44 16.48 76.55 15.84 81.78
  Q 15.79 82.17 15.51 82.43
  Q 15.18 82.75 15.14 83.21
  Q 14.63 89.03 15.34 94.85
  Q 15.40 95.34 15.25 95.81
  Q 15.00 96.63 15.16 97.50
  Q 15.79 100.90 16.33 104.32
  Q 16.92 107.98 17.92 111.05
  Q 19.52 115.97 21.25 120.85
  C 21.71 122.16 22.63 123.36 23.19 124.73
  Q 23.21 124.79 23.28 124.78
  Q 23.32 124.77 23.35 124.77
  Q 23.49 124.74 23.50 124.75
  Z" fill-opacity="0.090" fill="#010100"></path>
<path d="M 23.35 124.77
  Q 23.32 124.77 23.28 124.78
  Q 23.21 124.79 23.19 124.73
  C 22.63 123.36 21.71 122.16 21.25 120.85
  Q 19.52 115.97 17.92 111.05
  Q 16.92 107.98 16.33 104.32
  Q 15.79 100.90 15.16 97.50
  Q 15.00 96.63 15.25 95.81
  Q 15.40 95.34 15.34 94.85
  Q 14.63 89.03 15.14 83.21
  Q 15.18 82.75 15.51 82.43
  Q 15.79 82.17 15.84 81.78
  C 16.48 76.55 17.04 71.44 18.73 66.43
  Q 19.84 63.15 21.09 59.91
  A 1.12 1.12 0.0 0 1 21.57 59.34
  Q 21.83 59.18 21.91 59.02
  Q 23.12 56.30 24.50 53.66
  C 25.12 52.47 25.40 50.33 26.98 49.15
  Q 27.37 48.85 27.52 48.38
  C 28.01 46.80 29.40 46.34 30.05 45.07
  Q 30.25 44.66 30.62 44.40
  C 32.13 43.31 33.69 42.49 35.01 41.18
  Q 37.75 38.50 40.44 35.78
  Q 40.62 35.61 40.84 35.53
  Q 40.98 35.48 41.12 35.44
  Q 41.31 35.38 41.41 35.22
  Q 43.77 31.56 46.80 28.40
  C 47.51 27.66 48.39 27.47 49.17 26.71
  Q 49.51 26.38 49.94 26.20
  C 51.14 25.68 51.77 25.38 53.11 24.45
  Q 53.64 24.08 54.34 24.10
  A 1.21 1.15 -58.4 0 0 54.98 23.93
  Q 67.61 16.56 82.24 15.33
  Q 82.51 15.31 82.59 15.11
  Q 82.68 14.87 82.94 14.87
  Q 88.60 14.87 94.25 14.88
  Q 94.37 14.88 94.44 15.04
  Q 94.53 15.23 94.74 15.23
  C 102.99 15.54 112.50 17.33 119.78 21.37
  C 120.86 21.96 121.90 21.93 122.94 22.63
  Q 124.02 23.34 125.16 23.92
  Q 125.87 24.28 127.07 25.21
  Q 128.01 25.95 129.18 26.29
  C 131.57 26.99 132.57 28.68 134.45 29.88
  Q 136.04 30.90 136.83 31.63
  Q 139.81 34.36 143.11 36.68
  Q 143.51 36.96 143.77 37.38
  Q 144.37 38.35 145.75 39.38
  Q 147.38 40.60 149.70 44.14
  Q 149.89 44.42 149.89 44.69
  Q 149.90 44.85 149.88 45.01
  Q 149.84 45.31 150.01 45.56
  Q 151.50 47.75 153.26 49.71
  Q 154.59 51.18 155.48 52.90
  Q 156.38 54.65 157.44 56.32
  Q 158.10 57.36 158.71 59.11
  C 159.20 60.50 160.00 61.56 160.42 62.86
  Q 161.97 67.71 163.57 72.55
  C 164.51 75.39 164.96 78.49 165.10 81.47
  C 165.14 82.44 165.62 83.15 165.63 84.04
  Q 165.75 91.53 164.77 98.98
  C 164.17 103.59 163.76 108.30 162.39 112.56
  Q 160.10 119.68 156.34 126.19
  Q 156.15 126.53 155.76 126.60
  Q 155.45 126.66 155.35 126.98
  Q 154.85 128.57 154.09 129.73
  Q 153.19 131.11 152.59 132.28
  Q 151.72 133.96 150.18 135.15
  A 0.60 0.57 -12.7 0 0 149.98 135.45
  Q 149.85 135.93 149.09 136.84
  Q 145.63 140.95 141.80 144.69
  C 140.58 145.88 138.87 146.43 137.70 148.07
  A 1.58 1.53 8.0 0 1 136.89 148.66
  Q 135.68 149.06 135.13 150.17
  Q 134.87 150.69 134.36 150.99
  L 126.59 155.46
  Q 126.15 155.71 126.07 156.21
  Q 125.90 157.19 124.91 157.14
  Q 124.46 157.12 124.21 157.49
  Q 123.77 158.13 123.10 158.12
  Q 122.62 158.12 122.24 158.40
  Q 120.81 159.46 119.86 159.70
  Q 115.54 160.77 111.44 162.34
  Q 108.76 163.37 108.38 163.21
  Q 108.02 163.06 105.22 163.72
  Q 99.96 164.97 96.25 165.13
  C 93.41 165.25 90.81 165.63 88.25 165.40
  Q 84.51 165.07 80.77 164.67
  Q 74.28 163.97 68.00 162.15
  Q 66.63 161.75 65.35 161.19
  C 63.62 160.43 61.85 160.74 60.55 158.71
  A 0.17 0.16 40.4 0 0 60.26 158.73
  Q 60.18 158.92 60.00 158.89
  Q 59.47 158.79 59.23 158.66
  L 54.31 156.01
  Q 53.86 155.77 53.35 155.83
  Q 53.17 155.86 52.99 155.87
  Q 52.67 155.88 52.46 155.64
  Q 52.03 155.16 50.74 154.39
  Q 48.74 153.19 46.75 151.97
  C 45.39 151.14 44.48 149.85 43.09 148.92
  Q 42.68 148.65 42.41 148.25
  C 41.31 146.63 39.57 146.26 38.52 144.55
  A 1.15 1.09 80.1 0 0 37.86 144.06
  L 36.84 143.78
  Q 36.34 143.65 36.03 143.24
  Q 34.41 141.08 32.52 139.17
  C 31.65 138.30 31.18 137.13 30.40 136.15
  Q 30.23 135.94 30.06 135.98
  Q 30.00 136.00 29.95 136.03
  Q 29.93 136.05 29.86 135.94
  L 23.44 125.60
  Q 23.33 125.41 23.48 125.26
  Q 23.75 125.01 23.50 124.75
  Q 23.49 124.74 23.35 124.77
  Z
  M 144.72 121.88
  C 146.28 121.68 148.02 117.75 151.16 117.28
  A 0.85 0.85 0.0 0 0 151.82 116.73
  L 155.12 107.25
  Q 155.94 104.88 156.30 102.15
  C 156.56 100.11 157.33 97.41 157.44 94.91
  Q 157.94 82.96 154.74 71.42
  Q 153.32 66.27 152.39 64.98
  Q 150.62 62.54 150.69 61.31
  A 1.29 1.23 34.2 0 0 150.55 60.66
  L 147.10 54.05
  Q 146.78 53.44 146.24 53.02
  Q 145.45 52.40 145.18 51.43
  Q 145.04 50.95 144.71 50.57
  Q 139.71 44.94 134.45 39.55
  Q 134.30 39.40 134.11 39.37
  Q 133.84 39.33 133.68 39.10
  Q 132.55 37.43 130.82 36.43
  C 129.64 35.74 128.98 34.86 127.85 34.15
  Q 121.99 30.47 115.61 27.88
  C 114.82 27.56 114.30 26.90 113.32 26.70
  C 110.71 26.16 108.20 25.15 105.64 24.41
  C 103.18 23.70 100.52 23.61 97.91 23.19
  C 92.66 22.34 87.70 22.55 82.56 22.87
  Q 82.26 22.89 82.02 23.05
  Q 81.89 23.14 81.76 23.22
  Q 81.52 23.37 81.21 23.40
  Q 76.64 23.86 72.25 25.17
  C 71.46 25.41 70.78 26.15 69.89 26.32
  C 66.44 26.97 62.98 28.58 59.80 30.05
  C 58.87 30.48 58.37 31.35 57.30 31.70
  Q 55.76 32.20 55.32 32.49
  Q 46.62 38.21 39.60 45.84
  Q 36.98 48.69 34.44 52.38
  Q 32.08 55.81 29.92 59.38
  Q 29.18 60.59 29.00 61.01
  C 26.25 67.46 25.10 72.59 23.78 78.78
  C 23.61 79.60 23.71 80.29 23.47 81.05
  C 21.71 86.87 22.98 94.31 23.87 100.23
  Q 23.90 100.44 23.99 100.63
  Q 24.15 100.94 24.17 101.28
  Q 24.47 106.56 24.89 108.00
  C 26.71 114.38 28.56 120.53 32.59 125.90
  C 32.97 126.41 33.00 127.25 33.43 127.80
  Q 38.71 134.71 45.03 140.68
  Q 46.98 142.53 49.21 144.01
  Q 49.61 144.28 53.56 147.07
  Q 56.26 148.98 59.55 149.85
  Q 59.81 149.92 59.87 150.18
  L 59.98 150.68
  Q 60.08 151.11 60.49 151.31
  Q 66.57 154.19 73.16 155.65
  Q 73.63 155.75 73.96 156.11
  Q 74.24 156.40 74.63 156.39
  Q 76.33 156.34 77.67 156.65
  C 84.93 158.32 92.21 157.70 99.53 157.23
  Q 101.36 157.12 103.37 156.52
  C 106.10 155.71 108.55 155.31 111.43 154.23
  C 114.13 153.22 116.96 153.25 119.62 151.53
  C 123.02 149.31 126.60 147.49 129.74 144.81
  C 132.70 142.29 136.02 141.02 137.19 136.94
  Q 137.62 135.42 138.73 134.17
  A 1.16 1.10 -80.3 0 1 139.05 133.93
  Q 139.58 133.67 139.70 133.16
  Q 139.88 132.44 139.91 132.37
  Q 141.15 129.32 142.00 126.14
  C 142.20 125.39 142.76 125.14 142.62 124.10
  Q 142.56 123.67 142.88 123.39
  L 144.32 122.07
  Q 144.49 121.91 144.72 121.88
  Z" fill-opacity="0.184" fill="#010101"></path>
<path d="M 144.32 122.07
  L 142.88 123.39
  Q 142.56 123.67 142.62 124.10
  C 142.76 125.14 142.20 125.39 142.00 126.14
  Q 141.15 129.32 139.91 132.37
  Q 139.88 132.44 139.70 133.16
  Q 139.58 133.67 139.05 133.93
  A 1.16 1.10 -80.3 0 0 138.73 134.17
  Q 137.62 135.42 137.19 136.94
  C 136.02 141.02 132.70 142.29 129.74 144.81
  C 126.60 147.49 123.02 149.31 119.62 151.53
  C 116.96 153.25 114.13 153.22 111.43 154.23
  C 108.55 155.31 106.10 155.71 103.37 156.52
  Q 101.36 157.12 99.53 157.23
  C 92.21 157.70 84.93 158.32 77.67 156.65
  Q 76.33 156.34 74.63 156.39
  Q 74.24 156.40 73.96 156.11
  Q 73.63 155.75 73.16 155.65
  Q 66.57 154.19 60.49 151.31
  Q 60.08 151.11 59.98 150.68
  L 59.87 150.18
  Q 59.81 149.92 59.55 149.85
  Q 56.26 148.98 53.56 147.07
  Q 49.61 144.28 49.21 144.01
  Q 46.98 142.53 45.03 140.68
  Q 38.71 134.71 33.43 127.80
  C 33.00 127.25 32.97 126.41 32.59 125.90
  C 28.56 120.53 26.71 114.38 24.89 108.00
  Q 24.47 106.56 24.17 101.28
  Q 24.15 100.94 23.99 100.63
  Q 23.90 100.44 23.87 100.23
  C 22.98 94.31 21.71 86.87 23.47 81.05
  C 23.71 80.29 23.61 79.60 23.78 78.78
  C 25.10 72.59 26.25 67.46 29.00 61.01
  Q 29.18 60.59 29.92 59.38
  Q 32.08 55.81 34.44 52.38
  Q 36.98 48.69 39.60 45.84
  Q 46.62 38.21 55.32 32.49
  Q 55.76 32.20 57.30 31.70
  C 58.37 31.35 58.87 30.48 59.80 30.05
  C 62.98 28.58 66.44 26.97 69.89 26.32
  C 70.78 26.15 71.46 25.41 72.25 25.17
  Q 76.64 23.86 81.21 23.40
  Q 81.52 23.37 81.76 23.22
  Q 81.89 23.14 82.02 23.05
  Q 82.26 22.89 82.56 22.87
  C 87.70 22.55 92.66 22.34 97.91 23.19
  C 100.52 23.61 103.18 23.70 105.64 24.41
  C 108.20 25.15 110.71 26.16 113.32 26.70
  C 114.30 26.90 114.82 27.56 115.61 27.88
  Q 121.99 30.47 127.85 34.15
  C 128.98 34.86 129.64 35.74 130.82 36.43
  Q 132.55 37.43 133.68 39.10
  Q 133.84 39.33 134.11 39.37
  Q 134.30 39.40 134.45 39.55
  Q 139.71 44.94 144.71 50.57
  Q 145.04 50.95 145.18 51.43
  Q 145.45 52.40 146.24 53.02
  Q 146.78 53.44 147.10 54.05
  L 150.55 60.66
  A 1.29 1.23 34.2 0 1 150.69 61.31
  Q 150.62 62.54 152.39 64.98
  Q 153.32 66.27 154.74 71.42
  Q 157.94 82.96 157.44 94.91
  C 157.33 97.41 156.56 100.11 156.30 102.15
  Q 155.94 104.88 155.12 107.25
  L 151.82 116.73
  A 0.85 0.85 0.0 0 1 151.16 117.28
  C 148.02 117.75 146.28 121.68 144.72 121.88
  Q 144.49 121.91 144.32 122.07
  Z
  M 122.09 142.15
  C 122.83 142.15 123.05 142.14 123.67 141.67
  Q 125.85 140.03 128.03 138.46
  Q 128.94 137.81 129.81 136.71
  C 130.48 135.87 131.74 134.86 132.23 133.95
  C 132.77 132.94 132.83 132.28 133.81 131.59
  Q 135.01 130.76 136.35 130.16
  Q 136.78 129.97 137.06 129.60
  L 140.29 125.35
  Q 140.39 125.23 140.37 125.07
  Q 140.36 124.92 140.37 124.78
  Q 140.39 124.57 140.56 124.33
  Q 143.18 120.68 145.14 116.61
  Q 145.38 116.11 145.89 115.89
  Q 146.83 115.47 147.37 114.50
  Q 147.59 114.11 147.68 113.67
  C 148.02 111.93 149.04 110.51 149.41 108.99
  C 150.39 104.98 151.44 100.90 151.81 96.95
  Q 153.49 79.07 145.95 62.90
  C 144.23 59.21 141.60 55.84 139.60 52.19
  Q 138.85 50.82 137.71 49.72
  C 136.68 48.72 136.07 47.28 134.61 46.56
  Q 134.15 46.33 133.81 45.95
  Q 132.11 44.05 130.08 42.47
  A 1.66 1.61 -89.2 0 1 129.72 42.09
  Q 129.26 41.42 127.86 40.39
  Q 123.03 36.82 121.18 36.20
  Q 120.25 35.88 119.53 35.28
  Q 118.62 34.52 118.02 34.27
  Q 109.34 30.71 104.25 29.40
  Q 96.68 27.44 86.75 27.88
  Q 80.56 28.16 69.78 31.34
  C 68.37 31.76 67.65 32.79 65.89 32.89
  A 0.82 0.80 11.6 0 0 65.22 33.32
  Q 64.95 33.83 64.52 33.96
  Q 63.59 34.23 63.55 34.25
  Q 58.08 37.11 53.32 40.98
  C 51.25 42.66 47.56 44.95 45.28 47.91
  C 44.74 48.62 43.88 49.32 43.39 50.07
  C 42.09 52.04 40.47 53.52 39.29 55.57
  Q 37.75 58.25 36.30 60.97
  Q 34.33 64.66 32.38 68.36
  Q 31.89 69.28 31.29 71.27
  Q 30.94 72.43 30.25 74.26
  Q 29.29 76.82 28.49 84.56
  C 27.99 89.44 28.53 94.37 28.80 99.35
  C 28.92 101.49 29.78 103.58 29.94 105.88
  Q 29.95 106.00 30.00 106.09
  Q 30.08 106.20 30.17 106.30
  Q 30.40 106.54 30.48 106.86
  Q 32.20 114.12 33.44 115.74
  Q 34.78 117.48 35.55 119.55
  A 1.04 1.01 5.1 0 0 36.03 120.11
  L 36.31 120.26
  Q 36.57 120.41 36.61 120.70
  Q 36.78 121.90 37.62 122.62
  Q 37.87 122.84 37.87 123.16
  Q 37.88 123.30 37.89 123.44
  Q 37.91 123.70 38.10 123.97
  Q 44.62 133.52 55.77 141.33
  Q 57.62 142.63 59.15 143.24
  Q 62.16 144.44 62.66 144.72
  Q 69.24 148.44 76.67 149.94
  C 77.71 150.15 78.88 150.05 80.05 150.37
  C 83.29 151.26 87.35 150.96 90.75 151.16
  Q 93.91 151.35 102.25 149.62
  Q 104.02 149.26 105.13 148.91
  Q 107.55 148.17 107.94 148.06
  Q 109.51 147.62 112.14 146.61
  Q 118.15 144.30 121.18 142.41
  A 1.74 1.72 -60.5 0 1 122.09 142.15
  Z" fill-opacity="0.353" fill="#060b04"></path>
<path d="M 121.18 142.41
  Q 118.15 144.30 112.14 146.61
  Q 109.51 147.62 107.94 148.06
  Q 107.55 148.17 105.13 148.91
  Q 104.02 149.26 102.25 149.62
  Q 93.91 151.35 90.75 151.16
  C 87.35 150.96 83.29 151.26 80.05 150.37
  C 78.88 150.05 77.71 150.15 76.67 149.94
  Q 69.24 148.44 62.66 144.72
  Q 62.16 144.44 59.15 143.24
  Q 57.62 142.63 55.77 141.33
  Q 44.62 133.52 38.10 123.97
  Q 37.91 123.70 37.89 123.44
  Q 37.88 123.30 37.87 123.16
  Q 37.87 122.84 37.62 122.62
  Q 36.78 121.90 36.61 120.70
  Q 36.57 120.41 36.31 120.26
  L 36.03 120.11
  A 1.04 1.01 5.1 0 1 35.55 119.55
  Q 34.78 117.48 33.44 115.74
  Q 32.20 114.12 30.48 106.86
  Q 30.40 106.54 30.17 106.30
  Q 30.08 106.20 30.00 106.09
  Q 29.95 106.00 29.94 105.88
  C 29.78 103.58 28.92 101.49 28.80 99.35
  C 28.53 94.37 27.99 89.44 28.49 84.56
  Q 29.29 76.82 30.25 74.26
  Q 30.94 72.43 31.29 71.27
  Q 31.89 69.28 32.38 68.36
  Q 34.33 64.66 36.30 60.97
  Q 37.75 58.25 39.29 55.57
  C 40.47 53.52 42.09 52.04 43.39 50.07
  C 43.88 49.32 44.74 48.62 45.28 47.91
  C 47.56 44.95 51.25 42.66 53.32 40.98
  Q 58.08 37.11 63.55 34.25
  Q 63.59 34.23 64.52 33.96
  Q 64.95 33.83 65.22 33.32
  A 0.82 0.80 11.6 0 1 65.89 32.89
  C 67.65 32.79 68.37 31.76 69.78 31.34
  Q 80.56 28.16 86.75 27.88
  Q 96.68 27.44 104.25 29.40
  Q 109.34 30.71 118.02 34.27
  Q 118.62 34.52 119.53 35.28
  Q 120.25 35.88 121.18 36.20
  Q 123.03 36.82 127.86 40.39
  Q 129.26 41.42 129.72 42.09
  A 1.66 1.61 -89.2 0 0 130.08 42.47
  Q 132.11 44.05 133.81 45.95
  Q 134.15 46.33 134.61 46.56
  C 136.07 47.28 136.68 48.72 137.71 49.72
  Q 138.85 50.82 139.60 52.19
  C 141.60 55.84 144.23 59.21 145.95 62.90
  Q 153.49 79.07 151.81 96.95
  C 151.44 100.90 150.39 104.98 149.41 108.99
  C 149.04 110.51 148.02 111.93 147.68 113.67
  Q 147.59 114.11 147.37 114.50
  Q 146.83 115.47 145.89 115.89
  Q 145.38 116.11 145.14 116.61
  Q 143.18 120.68 140.56 124.33
  Q 140.39 124.57 140.37 124.78
  Q 140.36 124.92 140.37 125.07
  Q 140.39 125.23 140.29 125.35
  L 137.06 129.60
  Q 136.78 129.97 136.35 130.16
  Q 135.01 130.76 133.81 131.59
  C 132.83 132.28 132.77 132.94 132.23 133.95
  C 131.74 134.86 130.48 135.87 129.81 136.71
  Q 128.94 137.81 128.03 138.46
  Q 125.85 140.03 123.67 141.67
  C 123.05 142.14 122.83 142.15 122.09 142.15
  A 1.74 1.72 -60.5 0 0 121.18 142.41
  Z
  M 137.89 125.09
  Q 137.79 124.80 137.70 124.51
  Q 139.99 122.87 140.91 120.49
  L 141.88 118.55
  L 142.87 115.71
  Q 143.13 114.97 143.25 114.19
  Q 143.72 111.28 143.30 108.36
  Q 143.23 107.93 143.44 107.55
  Q 144.99 104.65 145.06 101.45
  Q 145.07 100.96 144.58 100.94
  Q 143.47 100.88 143.46 102.04
  Q 143.46 102.12 143.38 102.13
  Q 143.38 102.13 143.37 102.13
  A 0.11 0.08 5.9 0 1 143.26 102.03
  C 143.90 99.38 145.22 97.18 145.38 94.54
  Q 145.75 88.23 145.09 81.94
  Q 145.04 81.39 144.59 81.05
  Q 144.02 80.62 144.13 79.95
  Q 144.21 79.41 143.78 79.74
  Q 143.54 79.92 143.24 80.00
  A 0.11 0.11 0.0 0 0 143.20 80.19
  Q 143.29 80.28 143.37 80.38
  A 0.15 0.14 -16.7 0 1 143.24 80.62
  Q 143.03 80.59 142.83 80.44
  Q 142.75 80.38 142.74 80.28
  Q 142.47 77.49 141.19 76.09
  L 138.91 69.73
  Q 139.81 68.32 138.67 67.59
  A 0.75 0.75 0.0 0 1 138.35 66.79
  Q 138.62 65.68 137.81 65.54
  Q 137.29 65.45 137.13 64.95
  L 136.10 61.88
  A 0.38 0.37 79.9 0 0 135.75 61.63
  L 135.39 61.63
  Q 134.93 61.63 134.85 61.16
  Q 134.67 60.08 133.66 60.27
  Q 133.95 60.06 134.06 59.80
  Q 134.25 59.38 133.88 59.12
  Q 132.56 58.21 132.49 56.57
  Q 132.48 56.40 132.60 56.53
  L 134.78 58.92
  Q 135.11 59.29 135.28 59.76
  Q 135.68 60.95 136.74 61.54
  Q 137.22 61.80 137.42 62.30
  Q 138.29 64.44 139.28 66.51
  C 139.78 67.58 140.82 68.26 141.05 69.78
  C 141.09 70.04 141.36 70.42 141.56 70.56
  Q 142.06 70.90 142.08 70.29
  Q 142.11 69.47 141.54 68.79
  Q 141.26 68.46 141.13 68.05
  C 140.47 65.95 139.99 64.02 138.51 62.28
  Q 136.30 59.64 134.20 56.92
  C 131.48 53.37 128.25 50.76 125.40 47.44
  C 124.16 46.01 122.72 44.62 121.03 43.72
  Q 118.78 42.52 118.40 42.26
  Q 115.16 40.04 112.33 38.98
  Q 107.55 37.20 98.17 34.47
  Q 97.98 34.42 97.85 34.28
  Q 97.71 34.15 97.58 34.01
  Q 97.25 33.65 96.76 33.60
  C 94.00 33.33 90.58 32.41 87.90 33.17
  Q 84.99 33.98 82.00 34.42
  C 78.84 34.89 76.15 36.13 73.02 36.76
  Q 72.52 36.86 72.23 37.28
  Q 71.79 37.92 70.90 37.50
  A 0.55 0.54 43.4 0 0 70.39 37.51
  L 56.60 44.65
  Q 56.14 44.89 55.87 45.34
  Q 55.46 46.03 54.55 46.09
  Q 54.10 46.12 53.76 46.41
  C 52.26 47.71 50.57 48.59 49.32 50.10
  Q 46.71 53.25 44.75 55.28
  Q 44.33 55.71 44.18 56.21
  A 1.70 1.63 -17.3 0 1 43.86 56.79
  Q 40.90 60.20 40.20 64.72
  Q 39.98 66.15 37.94 68.79
  Q 36.18 71.07 35.69 75.72
  Q 35.64 76.21 35.37 76.63
  Q 34.31 78.20 33.87 80.75
  Q 31.82 92.42 34.09 103.10
  Q 34.32 104.18 35.14 105.73
  C 36.28 107.91 36.57 110.36 37.68 112.35
  Q 39.85 116.26 40.61 118.01
  C 41.53 120.12 42.82 121.63 43.70 123.51
  C 44.54 125.30 45.63 126.11 46.51 127.50
  Q 47.54 129.12 47.66 129.26
  Q 55.93 138.39 67.42 143.05
  Q 70.51 144.30 73.62 145.47
  Q 76.89 146.69 80.06 147.08
  Q 88.86 148.18 97.75 147.62
  Q 100.36 147.46 107.13 145.19
  Q 107.42 145.10 107.12 145.05
  Q 107.00 145.03 106.87 145.03
  Q 106.70 145.04 106.39 145.20
  Q 106.10 145.34 105.76 145.28
  Q 105.67 145.26 105.75 145.21
  Q 110.71 142.46 112.26 142.02
  C 113.83 141.56 114.44 140.76 115.61 140.25
  Q 119.09 138.73 122.00 136.23
  C 122.73 135.60 125.11 135.57 126.26 134.94
  Q 128.63 133.64 130.51 131.11
  C 131.57 129.70 133.51 129.43 134.71 128.51
  Q 136.72 126.97 137.89 125.09
  Z" fill-opacity="0.525" fill="#0d1602"></path>
<path d="M 133.66 60.27
  C 115.17 34.89 80.55 30.08 56.40 49.91
  Q 56.26 50.02 56.08 49.66
  Q 57.49 47.73 59.59 46.75
  Q 59.62 46.73 59.62 46.70
  Q 59.62 46.69 59.62 46.67
  A 0.09 0.07 73.2 0 0 59.50 46.59
  Q 58.63 47.20 57.73 46.68
  A 0.15 0.15 0.0 0 0 57.51 46.82
  Q 57.53 46.95 57.60 47.07
  Q 57.73 47.32 57.45 47.33
  Q 52.35 47.48 49.49 51.75
  Q 49.32 52.01 49.04 52.13
  Q 48.89 52.20 48.74 52.29
  Q 48.49 52.44 48.32 52.76
  Q 47.23 54.84 45.57 56.46
  Q 43.32 58.64 42.85 59.88
  Q 42.04 62.02 42.25 64.41
  Q 42.27 64.73 42.56 64.58
  C 43.69 63.97 43.74 63.09 44.48 62.45
  Q 45.22 61.81 45.91 61.63
  Q 34.61 80.84 38.86 101.17
  C 47.36 141.87 96.19 156.08 126.54 128.67
  Q 128.09 129.15 125.94 131.21
  A 0.42 0.42 0.0 0 0 125.86 131.71
  Q 125.92 131.84 125.99 131.96
  Q 126.24 132.42 126.68 132.14
  L 137.89 125.09
  Q 136.72 126.97 134.71 128.51
  C 133.51 129.43 131.57 129.70 130.51 131.11
  Q 128.63 133.64 126.26 134.94
  C 125.11 135.57 122.73 135.60 122.00 136.23
  Q 119.09 138.73 115.61 140.25
  C 114.44 140.76 113.83 141.56 112.26 142.02
  Q 110.71 142.46 105.75 145.21
  Q 105.67 145.26 105.76 145.28
  Q 106.10 145.34 106.39 145.20
  Q 106.70 145.04 106.87 145.03
  Q 107.00 145.03 107.12 145.05
  Q 107.42 145.10 107.13 145.19
  Q 100.36 147.46 97.75 147.62
  Q 88.86 148.18 80.06 147.08
  Q 76.89 146.69 73.62 145.47
  Q 70.51 144.30 67.42 143.05
  Q 55.93 138.39 47.66 129.26
  Q 47.54 129.12 46.51 127.50
  C 45.63 126.11 44.54 125.30 43.70 123.51
  C 42.82 121.63 41.53 120.12 40.61 118.01
  Q 39.85 116.26 37.68 112.35
  C 36.57 110.36 36.28 107.91 35.14 105.73
  Q 34.32 104.18 34.09 103.10
  Q 31.82 92.42 33.87 80.75
  Q 34.31 78.20 35.37 76.63
  Q 35.64 76.21 35.69 75.72
  Q 36.18 71.07 37.94 68.79
  Q 39.98 66.15 40.20 64.72
  Q 40.90 60.20 43.86 56.79
  A 1.70 1.63 -17.3 0 0 44.18 56.21
  Q 44.33 55.71 44.75 55.28
  Q 46.71 53.25 49.32 50.10
  C 50.57 48.59 52.26 47.71 53.76 46.41
  Q 54.10 46.12 54.55 46.09
  Q 55.46 46.03 55.87 45.34
  Q 56.14 44.89 56.60 44.65
  L 70.39 37.51
  A 0.55 0.54 43.4 0 1 70.90 37.50
  Q 71.79 37.92 72.23 37.28
  Q 72.52 36.86 73.02 36.76
  C 76.15 36.13 78.84 34.89 82.00 34.42
  Q 84.99 33.98 87.90 33.17
  C 90.58 32.41 94.00 33.33 96.76 33.60
  Q 97.25 33.65 97.58 34.01
  Q 97.71 34.15 97.85 34.28
  Q 97.98 34.42 98.17 34.47
  Q 107.55 37.20 112.33 38.98
  Q 115.16 40.04 118.40 42.26
  Q 118.78 42.52 121.03 43.72
  C 122.72 44.62 124.16 46.01 125.40 47.44
  C 128.25 50.76 131.48 53.37 134.20 56.92
  Q 136.30 59.64 138.51 62.28
  C 139.99 64.02 140.47 65.95 141.13 68.05
  Q 141.26 68.46 141.54 68.79
  Q 142.11 69.47 142.08 70.29
  Q 142.06 70.90 141.56 70.56
  C 141.36 70.42 141.09 70.04 141.05 69.78
  C 140.82 68.26 139.78 67.58 139.28 66.51
  Q 138.29 64.44 137.42 62.30
  Q 137.22 61.80 136.74 61.54
  Q 135.68 60.95 135.28 59.76
  Q 135.11 59.29 134.78 58.92
  L 132.60 56.53
  Q 132.48 56.40 132.49 56.57
  Q 132.56 58.21 133.88 59.12
  Q 134.25 59.38 134.06 59.80
  Q 133.95 60.06 133.66 60.27
  Z
  M 124.41 133.03
  Q 125.38 132.04 125.65 130.70
  Q 125.73 130.34 125.40 130.52
  Q 124.95 130.76 124.88 131.35
  Q 124.82 131.81 124.44 132.07
  Q 123.53 132.67 123.63 133.79
  Q 123.68 134.42 124.32 134.35
  Q 127.69 133.99 129.48 131.14
  Q 130.02 130.28 129.19 130.87
  Q 128.50 131.35 128.01 132.06
  A 1.27 1.23 6.1 0 1 127.42 132.52
  L 124.74 133.53
  A 0.31 0.31 0.0 0 1 124.41 133.03
  Z" fill-opacity="0.675" fill="#212d08"></path>
<path d="M 133.66 60.27
  L 138.91 69.73
  L 141.19 76.09
  Q 145.46 93.70 139.06 109.95
  Q 138.20 112.10 137.37 114.27
  L 132.57 121.87
  L 131.01 123.99
  L 126.54 128.67
  C 96.19 156.08 47.36 141.87 38.86 101.17
  Q 34.61 80.84 45.91 61.63
  L 47.35 59.52
  Q 49.24 57.85 50.43 55.41
  L 53.86 52.00
  Q 54.07 51.79 54.15 51.51
  Q 54.20 51.32 54.25 51.14
  Q 54.37 50.77 54.74 50.67
  Q 55.48 50.47 56.08 49.66
  Q 56.26 50.02 56.40 49.91
  C 80.55 30.08 115.17 34.89 133.66 60.27
  Z
  M 140.41 90.31
  A 50.10 50.10 0.0 0 0 90.31 40.21
  A 50.10 50.10 0.0 0 0 40.21 90.31
  A 50.10 50.10 0.0 0 0 90.31 140.41
  A 50.10 50.10 0.0 0 0 140.41 90.31
  Z" fill-opacity="0.996" fill="#95b3e2"></path>
<path d="M 140.41 90.31
  A 50.10 50.10 0.0 0 1 90.31 140.41
  A 50.10 50.10 0.0 0 1 40.21 90.31
  A 50.10 50.10 0.0 0 1 90.31 40.21
  A 50.10 50.10 0.0 0 1 140.41 90.31
  Z
  M 96.29 56.58
  A 5.48 5.48 0.0 0 0 90.81 51.10
  A 5.48 5.48 0.0 0 0 85.33 56.58
  A 5.48 5.48 0.0 0 0 90.81 62.06
  A 5.48 5.48 0.0 0 0 96.29 56.58
  Z
  M 78.49 58.08
  C 78.95 61.62 80.11 63.67 81.02 66.56
  Q 81.19 67.09 80.81 67.50
  Q 77.82 70.79 76.51 75.06
  Q 76.14 75.44 75.77 75.61
  L 73.69 76.27
  L 74.95 71.24
  L 77.52 66.63
  Q 77.27 64.60 76.24 62.54
  Q 76.01 62.08 75.56 62.32
  Q 61.85 69.78 58.50 85.11
  Q 58.38 85.68 58.94 85.80
  L 62.30 86.54
  L 64.84 87.25
  Q 66.27 91.82 69.52 94.92
  Q 69.75 95.14 69.68 95.45
  L 69.18 97.93
  Q 69.13 98.16 68.96 98.01
  Q 65.10 94.83 62.51 89.76
  L 58.27 88.88
  A 0.77 0.76 5.9 0 0 57.35 89.62
  Q 57.25 95.11 59.77 99.99
  A 0.97 0.97 0.0 0 0 60.50 100.51
  L 63.53 100.99
  Q 67.04 102.77 67.82 106.52
  Q 67.86 111.48 64.79 114.90
  L 61.37 118.16
  A 1.26 1.26 0.0 0 0 61.20 119.78
  L 61.40 120.08
  Q 62.30 121.42 63.62 120.49
  L 67.24 117.95
  Q 70.89 115.42 73.35 111.30
  L 83.01 111.20
  A 1.29 1.21 -25.0 0 1 83.77 111.45
  L 84.97 112.34
  A 0.41 0.40 54.2 0 1 84.86 113.05
  L 81.44 114.20
  C 78.83 114.55 74.70 113.51 73.49 116.34
  Q 72.73 116.91 72.17 117.79
  Q 71.87 118.25 72.34 118.52
  Q 85.70 126.21 100.67 122.07
  A 0.85 0.85 0.0 0 0 101.25 120.98
  L 100.32 118.26
  C 99.82 116.39 98.70 116.10 100.04 113.97
  Q 102.39 111.83 103.86 107.37
  Q 104.02 106.89 104.50 106.72
  L 106.18 106.13
  Q 106.67 105.96 106.60 106.48
  L 106.38 108.19
  L 103.02 115.71
  A 1.07 1.06 -43.1 0 0 102.99 116.54
  L 104.28 120.01
  Q 104.53 120.68 105.15 120.34
  Q 109.88 117.73 112.94 113.29
  Q 113.24 112.86 113.07 112.36
  Q 109.51 102.30 121.12 100.92
  L 127.91 102.55
  A 1.45 1.44 -69.6 0 0 129.54 101.80
  L 129.68 101.52
  Q 130.51 99.88 128.80 99.20
  L 122.17 96.57
  L 115.25 95.06
  Q 114.55 91.13 111.11 87.42
  Q 110.94 87.24 110.95 86.99
  L 111.07 84.34
  A 0.12 0.12 0.0 0 1 111.27 84.26
  L 114.36 86.94
  L 117.75 92.37
  Q 118.03 92.82 118.55 92.90
  L 122.23 93.46
  Q 122.80 93.55 122.85 92.98
  C 123.69 82.86 118.97 72.92 111.51 66.31
  A 0.51 0.51 0.0 0 0 110.83 66.32
  Q 108.61 68.40 106.85 71.10
  Q 106.75 71.25 105.79 71.29
  Q 102.17 70.01 97.39 71.32
  Q 96.95 71.44 96.63 71.12
  L 94.77 69.31
  Q 99.86 67.58 104.93 67.90
  A 0.86 0.83 -67.2 0 0 105.63 67.60
  L 108.17 64.65
  Q 108.56 64.21 108.08 63.87
  Q 103.47 60.57 97.77 60.43
  A 0.88 0.88 0.0 0 0 97.05 60.78
  C 91.34 68.23 84.82 63.64 82.16 56.65
  Q 81.78 54.70 81.20 53.00
  Q 80.89 52.08 80.34 51.76
  Q 79.44 51.24 78.44 52.19
  A 1.26 1.21 71.7 0 0 78.06 52.99
  Q 77.86 55.47 78.49 58.08
  Z
  M 65.42 107.87
  A 5.47 5.47 0.0 0 0 59.95 102.40
  A 5.47 5.47 0.0 0 0 54.48 107.87
  A 5.47 5.47 0.0 0 0 59.95 113.34
  A 5.47 5.47 0.0 0 0 65.42 107.87
  Z
  M 125.29 108.97
  A 5.48 5.48 0.0 0 0 119.81 103.49
  A 5.48 5.48 0.0 0 0 114.33 108.97
  A 5.48 5.48 0.0 0 0 119.81 114.45
  A 5.48 5.48 0.0 0 0 125.29 108.97
  Z" fill="#000000"></path>
<path d="M 56.08 49.66
  Q 55.48 50.47 54.74 50.67
  Q 54.37 50.77 54.25 51.14
  Q 54.20 51.32 54.15 51.51
  Q 54.07 51.79 53.86 52.00
  L 50.43 55.41
  L 47.21 58.21
  Q 46.89 58.48 46.66 58.13
  Q 46.55 57.97 46.60 57.75
  A 0.02 0.02 0.0 0 1 46.64 57.76
  L 46.37 59.42
  Q 46.32 59.69 46.51 59.49
  Q 46.69 59.29 46.85 59.08
  Q 47.10 58.75 47.32 59.10
  Q 47.42 59.27 47.35 59.52
  L 45.91 61.63
  Q 45.22 61.81 44.48 62.45
  C 43.74 63.09 43.69 63.97 42.56 64.58
  Q 42.27 64.73 42.25 64.41
  Q 42.04 62.02 42.85 59.88
  Q 43.32 58.64 45.57 56.46
  Q 47.23 54.84 48.32 52.76
  Q 48.49 52.44 48.74 52.29
  Q 48.89 52.20 49.04 52.13
  Q 49.32 52.01 49.49 51.75
  Q 52.35 47.48 57.45 47.33
  Q 57.73 47.32 57.60 47.07
  Q 57.53 46.95 57.51 46.82
  A 0.15 0.15 0.0 0 1 57.73 46.68
  Q 58.63 47.20 59.50 46.59
  A 0.09 0.07 73.2 0 1 59.62 46.67
  Q 59.62 46.69 59.62 46.70
  Q 59.62 46.73 59.59 46.75
  Q 57.49 47.73 56.08 49.66
  Z" fill-opacity="0.839" fill="#090602"></path>
<circle r="5.48" cy="56.58" cx="90.81" fill="#19c0b6"></circle>
<path d="M 82.16 56.65
  L 78.49 58.08
  Q 77.86 55.47 78.06 52.99
  A 1.26 1.21 71.7 0 1 78.44 52.19
  Q 79.44 51.24 80.34 51.76
  Q 80.89 52.08 81.20 53.00
  Q 81.78 54.70 82.16 56.65
  Z" fill="#19c0b6"></path>
<path d="M 50.43 55.41
  Q 49.24 57.85 47.35 59.52
  Q 47.42 59.27 47.32 59.10
  Q 47.10 58.75 46.85 59.08
  Q 46.69 59.29 46.51 59.49
  Q 46.32 59.69 46.37 59.42
  L 46.64 57.76
  A 0.02 0.02 0.0 0 0 46.60 57.75
  Q 46.55 57.97 46.66 58.13
  Q 46.89 58.48 47.21 58.21
  L 50.43 55.41
  Z" fill="#0a4f4a"></path>
<path d="M 82.16 56.65
  C 84.82 63.64 91.34 68.23 97.05 60.78
  A 0.88 0.88 0.0 0 1 97.77 60.43
  Q 103.47 60.57 108.08 63.87
  Q 108.56 64.21 108.17 64.65
  L 105.63 67.60
  A 0.86 0.83 -67.2 0 1 104.93 67.90
  Q 99.86 67.58 94.77 69.31
  Q 93.96 68.77 93.33 69.49
  Q 93.03 69.83 92.58 69.88
  Q 91.53 69.98 90.72 70.73
  Q 82.82 69.04 79.34 75.94
  Q 78.37 75.65 76.84 76.29
  Q 76.35 75.52 76.51 75.06
  Q 77.82 70.79 80.81 67.50
  Q 81.19 67.09 81.02 66.56
  C 80.11 63.67 78.95 61.62 78.49 58.08
  L 82.16 56.65
  Z" fill="#13918a"></path>
<path d="M 133.66 60.27
  Q 134.67 60.08 134.85 61.16
  Q 134.93 61.63 135.39 61.63
  L 135.75 61.63
  A 0.38 0.37 79.9 0 1 136.10 61.88
  L 137.13 64.95
  Q 137.29 65.45 137.81 65.54
  Q 138.62 65.68 138.35 66.79
  A 0.75 0.75 0.0 0 0 138.67 67.59
  Q 139.81 68.32 138.91 69.73
  L 133.66 60.27
  Z" fill-opacity="0.675" fill="#212d08"></path>
<path d="M 77.52 66.63
  Q 74.46 67.86 73.78 68.42
  Q 68.93 72.40 65.42 77.59
  Q 65.14 78.01 65.14 78.51
  Q 65.13 78.92 64.94 79.29
  Q 63.15 82.62 62.30 86.54
  L 58.94 85.80
  Q 58.38 85.68 58.50 85.11
  Q 61.85 69.78 75.56 62.32
  Q 76.01 62.08 76.24 62.54
  Q 77.27 64.60 77.52 66.63
  Z" fill="#149d95"></path>
<path d="M 114.36 86.94
  Q 114.45 84.09 113.39 81.99
  Q 110.75 76.70 105.79 71.29
  Q 106.75 71.25 106.85 71.10
  Q 108.61 68.40 110.83 66.32
  A 0.51 0.51 0.0 0 1 111.51 66.31
  C 118.97 72.92 123.69 82.86 122.85 92.98
  Q 122.80 93.55 122.23 93.46
  L 118.55 92.90
  Q 118.03 92.82 117.75 92.37
  L 114.36 86.94
  Z" fill="#149d95"></path>
<path d="M 77.52 66.63
  L 74.95 71.24
  C 70.54 74.09 67.70 77.93 66.23 82.94
  Q 65.58 85.13 64.84 87.25
  L 62.30 86.54
  Q 63.15 82.62 64.94 79.29
  Q 65.13 78.92 65.14 78.51
  Q 65.14 78.01 65.42 77.59
  Q 68.93 72.40 73.78 68.42
  Q 74.46 67.86 77.52 66.63
  Z" fill="#13918a"></path>
<path d="M 94.77 69.31
  L 96.63 71.12
  Q 96.95 71.44 97.39 71.32
  Q 102.17 70.01 105.79 71.29
  Q 110.75 76.70 113.39 81.99
  Q 114.45 84.09 114.36 86.94
  L 111.27 84.26
  A 0.12 0.12 0.0 0 0 111.07 84.34
  L 110.95 86.99
  Q 110.94 87.24 111.11 87.42
  Q 114.55 91.13 115.25 95.06
  Q 112.40 103.33 106.38 108.19
  L 106.60 106.48
  Q 106.67 105.96 106.18 106.13
  L 104.50 106.72
  Q 104.02 106.89 103.86 107.37
  Q 102.39 111.83 100.04 113.97
  Q 89.85 116.71 81.44 114.20
  L 84.86 113.05
  A 0.41 0.40 54.2 0 0 84.97 112.34
  L 83.77 111.45
  A 1.29 1.21 -25.0 0 0 83.01 111.20
  L 73.35 111.30
  C 72.54 110.24 71.55 109.73 70.70 108.62
  Q 69.50 107.03 67.82 106.52
  Q 67.04 102.77 63.53 100.99
  Q 63.93 99.13 62.87 97.00
  Q 61.57 94.40 62.51 89.76
  Q 65.10 94.83 68.96 98.01
  Q 69.13 98.16 69.18 97.93
  L 69.68 95.45
  Q 69.75 95.14 69.52 94.92
  Q 66.27 91.82 64.84 87.25
  Q 65.58 85.13 66.23 82.94
  C 67.70 77.93 70.54 74.09 74.95 71.24
  L 73.69 76.27
  Q 72.76 78.11 73.01 80.55
  Q 68.33 84.67 70.58 91.62
  Q 69.75 92.07 70.50 94.17
  Q 70.54 94.28 70.59 94.75
  Q 70.61 94.99 70.43 95.12
  Q 69.69 95.64 70.50 95.62
  L 70.84 95.61
  Q 71.18 95.61 71.04 95.92
  Q 70.96 96.08 70.89 96.24
  A 0.27 0.26 -62.4 0 0 70.99 96.58
  Q 72.10 97.28 72.11 98.54
  A 0.47 0.46 84.2 0 1 71.73 99.01
  Q 71.54 99.04 71.37 99.13
  Q 70.92 99.39 71.34 99.71
  L 72.41 100.54
  C 73.32 106.10 78.86 109.61 84.32 107.73
  Q 84.90 107.60 85.31 108.10
  Q 85.64 108.51 85.40 108.97
  Q 84.94 109.86 83.90 110.35
  Q 83.43 110.58 83.93 110.73
  Q 84.48 110.89 85.15 110.23
  A 1.07 1.06 53.3 0 1 86.83 110.48
  L 87.28 111.29
  Q 87.53 111.75 88.05 111.82
  Q 88.74 111.92 89.31 111.30
  Q 98.56 113.79 101.74 104.72
  Q 102.16 104.51 102.63 103.62
  Q 103.07 102.79 103.91 103.17
  Q 104.36 103.37 104.79 103.13
  L 105.19 102.89
  Q 105.71 103.11 105.97 102.96
  C 111.76 99.41 112.68 91.21 106.66 87.34
  Q 101.71 84.16 96.61 81.51
  Q 96.39 81.47 96.20 81.44
  A 0.66 0.65 -3.6 0 1 95.69 81.00
  Q 95.52 80.51 95.79 80.08
  C 97.69 80.16 99.36 79.84 101.12 80.69
  Q 104.25 82.19 107.04 83.97
  A 0.93 0.93 0.0 0 0 108.46 83.00
  Q 106.17 71.65 95.34 74.90
  Q 94.05 74.93 94.07 73.76
  Q 94.08 73.29 94.54 73.20
  Q 94.93 73.12 95.13 72.87
  Q 95.48 72.42 94.95 72.21
  Q 94.02 71.85 93.22 72.35
  L 90.72 70.73
  Q 91.53 69.98 92.58 69.88
  Q 93.03 69.83 93.33 69.49
  Q 93.96 68.77 94.77 69.31
  Z" fill="#108079"></path>
<path d="M 90.72 70.73
  L 93.22 72.35
  C 88.33 75.13 82.70 77.45 82.99 84.19
  L 83.20 92.76
  Q 83.21 93.11 82.91 92.93
  L 79.19 90.70
  Q 78.98 90.58 78.97 90.34
  L 78.70 80.06
  L 79.34 75.94
  Q 82.82 69.04 90.72 70.73
  Z" fill="#000000"></path>
<path d="M 93.22 72.35
  Q 94.02 71.85 94.95 72.21
  Q 95.48 72.42 95.13 72.87
  Q 94.93 73.12 94.54 73.20
  Q 94.08 73.29 94.07 73.76
  Q 94.05 74.93 95.34 74.90
  L 85.66 80.40
  Q 85.20 80.66 85.05 81.17
  Q 84.60 82.74 84.73 84.48
  Q 83.85 84.12 82.99 84.19
  C 82.70 77.45 88.33 75.13 93.22 72.35
  Z" fill="#0a4f4a"></path>
<path d="M 95.79 80.08
  C 93.66 79.93 87.92 83.97 85.85 85.20
  Q 85.40 85.47 85.13 85.32
  Q 84.78 85.13 84.73 84.48
  Q 84.60 82.74 85.05 81.17
  Q 85.20 80.66 85.66 80.40
  L 95.34 74.90
  Q 106.17 71.65 108.46 83.00
  A 0.93 0.93 0.0 0 1 107.04 83.97
  Q 104.25 82.19 101.12 80.69
  C 99.36 79.84 97.69 80.16 95.79 80.08
  Z" fill="#000000"></path>
<path d="M 76.51 75.06
  Q 76.35 75.52 76.84 76.29
  Q 76.92 77.76 76.43 79.35
  Q 76.27 79.86 76.68 80.20
  Q 77.40 80.81 78.70 80.06
  L 78.97 90.34
  Q 78.98 90.58 79.19 90.70
  L 82.91 92.93
  Q 83.21 93.11 83.20 92.76
  L 82.99 84.19
  Q 83.85 84.12 84.73 84.48
  Q 84.78 85.13 85.13 85.32
  Q 85.40 85.47 85.85 85.20
  C 87.92 83.97 93.66 79.93 95.79 80.08
  Q 95.52 80.51 95.69 81.00
  A 0.66 0.65 -3.6 0 0 96.20 81.44
  Q 96.39 81.47 96.61 81.51
  L 93.00 83.37
  A 0.56 0.55 46.9 0 0 92.97 84.33
  L 102.59 90.28
  Q 101.53 91.62 101.72 92.44
  Q 100.53 90.55 98.06 89.91
  Q 97.51 89.77 97.50 90.32
  L 97.26 101.16
  Q 96.29 100.09 95.48 100.74
  L 95.46 97.65
  A 0.60 0.60 0.0 0 0 94.56 97.14
  L 90.57 99.49
  Q 90.31 98.62 89.02 98.95
  Q 88.18 99.16 87.79 98.94
  Q 87.60 98.14 86.49 97.50
  C 83.37 95.69 79.32 93.99 77.54 91.57
  C 74.94 88.06 75.21 84.46 75.68 79.35
  Q 76.37 77.80 76.20 75.85
  Q 76.18 75.70 76.05 75.65
  Q 75.93 75.60 75.77 75.61
  Q 76.14 75.44 76.51 75.06
  Z" fill="#04211f"></path>
<path d="M 75.77 75.61
  Q 75.93 75.60 76.05 75.65
  Q 76.18 75.70 76.20 75.85
  Q 76.37 77.80 75.68 79.35
  Q 74.09 79.36 73.01 80.55
  Q 72.76 78.11 73.69 76.27
  L 75.77 75.61
  Z" fill="#0a4f4a"></path>
<path d="M 79.34 75.94
  L 78.70 80.06
  Q 77.40 80.81 76.68 80.20
  Q 76.27 79.86 76.43 79.35
  Q 76.92 77.76 76.84 76.29
  Q 78.37 75.65 79.34 75.94
  Z" fill="#0a4f4a"></path>
<path d="M 141.19 76.09
  Q 142.47 77.49 142.74 80.28
  Q 142.75 80.38 142.83 80.44
  Q 143.03 80.59 143.24 80.62
  A 0.15 0.14 -16.7 0 0 143.37 80.38
  Q 143.29 80.28 143.20 80.19
  A 0.11 0.11 0.0 0 1 143.24 80.00
  Q 143.54 79.92 143.78 79.74
  Q 144.21 79.41 144.13 79.95
  Q 144.02 80.62 144.59 81.05
  Q 145.04 81.39 145.09 81.94
  Q 145.75 88.23 145.38 94.54
  C 145.22 97.18 143.90 99.38 143.26 102.03
  A 0.11 0.08 5.9 0 0 143.37 102.13
  Q 143.38 102.13 143.38 102.13
  Q 143.46 102.12 143.46 102.04
  Q 143.47 100.88 144.58 100.94
  Q 145.07 100.96 145.06 101.45
  Q 144.99 104.65 143.44 107.55
  Q 143.23 107.93 143.30 108.36
  Q 143.72 111.28 143.25 114.19
  Q 143.13 114.97 142.87 115.71
  L 141.88 118.55
  L 141.87 111.00
  Q 141.87 108.59 140.75 110.72
  Q 140.32 111.55 139.81 113.35
  Q 139.70 113.75 139.36 113.51
  L 138.76 113.08
  A 0.40 0.40 0.0 0 0 138.13 113.42
  Q 138.16 114.27 137.37 114.27
  Q 138.20 112.10 139.06 109.95
  Q 145.46 93.70 141.19 76.09
  Z" fill-opacity="0.675" fill="#212d08"></path>
<path d="M 75.68 79.35
  C 75.21 84.46 74.94 88.06 77.54 91.57
  C 79.32 93.99 83.37 95.69 86.49 97.50
  Q 87.60 98.14 87.79 98.94
  L 85.22 100.29
  Q 84.29 100.78 83.33 100.33
  Q 75.89 96.85 70.58 91.62
  Q 68.33 84.67 73.01 80.55
  Q 74.09 79.36 75.68 79.35
  Z" fill="#000000"></path>
<path d="M 96.61 81.51
  Q 101.71 84.16 106.66 87.34
  C 112.68 91.21 111.76 99.41 105.97 102.96
  Q 105.71 103.11 105.19 102.89
  Q 104.90 102.67 104.91 102.22
  C 104.97 99.98 105.22 95.91 104.10 93.40
  Q 103.47 91.98 102.59 90.28
  L 92.97 84.33
  A 0.56 0.55 46.9 0 1 93.00 83.37
  L 96.61 81.51
  Z" fill="#000000"></path>
<path d="M 62.51 89.76
  Q 61.57 94.40 62.87 97.00
  Q 63.93 99.13 63.53 100.99
  L 60.50 100.51
  A 0.97 0.97 0.0 0 1 59.77 99.99
  Q 57.25 95.11 57.35 89.62
  A 0.77 0.76 5.9 0 1 58.27 88.88
  L 62.51 89.76
  Z" fill="#149d95"></path>
<path d="M 101.72 92.44
  L 101.74 104.72
  Q 98.56 113.79 89.31 111.30
  Q 88.17 110.86 87.75 110.31
  Q 87.39 109.83 87.89 109.51
  C 90.34 107.95 93.57 106.68 95.24 104.37
  Q 96.30 102.91 97.26 101.16
  L 97.50 90.32
  Q 97.51 89.77 98.06 89.91
  Q 100.53 90.55 101.72 92.44
  Z" fill="#000000"></path>
<path d="M 102.59 90.28
  Q 103.47 91.98 104.10 93.40
  C 105.22 95.91 104.97 99.98 104.91 102.22
  Q 104.90 102.67 105.19 102.89
  L 104.79 103.13
  Q 104.36 103.37 103.91 103.17
  Q 103.07 102.79 102.63 103.62
  Q 102.16 104.51 101.74 104.72
  L 101.72 92.44
  Q 101.53 91.62 102.59 90.28
  Z" fill="#0a4f4a"></path>
<path d="M 70.58 91.62
  Q 75.89 96.85 83.33 100.33
  Q 84.29 100.78 85.22 100.29
  L 87.79 98.94
  Q 88.18 99.16 89.02 98.95
  Q 90.31 98.62 90.57 99.49
  Q 89.05 100.34 87.53 101.21
  C 82.18 104.26 78.06 101.10 73.60 98.64
  Q 73.45 98.56 73.23 98.19
  Q 72.96 97.72 72.60 98.13
  Q 72.03 98.76 72.41 100.54
  L 71.34 99.71
  Q 70.92 99.39 71.37 99.13
  Q 71.54 99.04 71.73 99.01
  A 0.47 0.46 84.2 0 0 72.11 98.54
  Q 72.10 97.28 70.99 96.58
  A 0.27 0.26 -62.4 0 1 70.89 96.24
  Q 70.96 96.08 71.04 95.92
  Q 71.18 95.61 70.84 95.61
  L 70.50 95.62
  Q 69.69 95.64 70.43 95.12
  Q 70.61 94.99 70.59 94.75
  Q 70.54 94.28 70.50 94.17
  Q 69.75 92.07 70.58 91.62
  Z" fill="#0a4f4a"></path>
<path d="M 115.25 95.06
  L 122.17 96.57
  Q 120.20 98.10 121.12 100.92
  Q 109.51 102.30 113.07 112.36
  Q 113.24 112.86 112.94 113.29
  Q 109.88 117.73 105.15 120.34
  Q 104.53 120.68 104.28 120.01
  L 102.99 116.54
  A 1.07 1.06 -43.1 0 1 103.02 115.71
  L 106.38 108.19
  Q 112.40 103.33 115.25 95.06
  Z" fill="#149d95"></path>
<path d="M 122.17 96.57
  L 128.80 99.20
  Q 130.51 99.88 129.68 101.52
  L 129.54 101.80
  A 1.45 1.44 -69.6 0 1 127.91 102.55
  L 121.12 100.92
  Q 120.20 98.10 122.17 96.57
  Z" fill="#19c0b6"></path>
<path d="M 95.48 100.74
  Q 95.46 101.06 95.32 101.38
  Q 95.21 101.65 94.90 101.83
  Q 89.64 104.86 84.32 107.73
  C 78.86 109.61 73.32 106.10 72.41 100.54
  Q 72.03 98.76 72.60 98.13
  Q 72.96 97.72 73.23 98.19
  Q 73.45 98.56 73.60 98.64
  C 78.06 101.10 82.18 104.26 87.53 101.21
  Q 89.05 100.34 90.57 99.49
  L 94.56 97.14
  A 0.60 0.60 0.0 0 1 95.46 97.65
  L 95.48 100.74
  Z" fill="#000000"></path>
<path d="M 97.26 101.16
  Q 96.30 102.91 95.24 104.37
  C 93.57 106.68 90.34 107.95 87.89 109.51
  Q 87.39 109.83 87.75 110.31
  Q 88.17 110.86 89.31 111.30
  Q 88.74 111.92 88.05 111.82
  Q 87.53 111.75 87.28 111.29
  L 86.83 110.48
  A 1.07 1.06 53.3 0 0 85.15 110.23
  Q 84.48 110.89 83.93 110.73
  Q 83.43 110.58 83.90 110.35
  Q 84.94 109.86 85.40 108.97
  Q 85.64 108.51 85.31 108.10
  Q 84.90 107.60 84.32 107.73
  Q 89.64 104.86 94.90 101.83
  Q 95.21 101.65 95.32 101.38
  Q 95.46 101.06 95.48 100.74
  Q 96.29 100.09 97.26 101.16
  Z" fill="#0a4f4a"></path>
<circle r="5.47" cy="107.87" cx="59.95" fill="#19c0b6"></circle>
<circle r="5.48" cy="108.97" cx="119.81" fill="#19c0b6"></circle>
<path d="M 73.35 111.30
  Q 70.89 115.42 67.24 117.95
  Q 66.71 115.86 64.79 114.90
  Q 67.86 111.48 67.82 106.52
  Q 69.50 107.03 70.70 108.62
  C 71.55 109.73 72.54 110.24 73.35 111.30
  Z" fill="#149d95"></path>
<path d="M 141.88 118.55
  L 140.91 120.49
  L 137.70 124.51
  Q 137.79 124.80 137.89 125.09
  L 126.68 132.14
  Q 126.24 132.42 125.99 131.96
  Q 125.92 131.84 125.86 131.71
  A 0.42 0.42 0.0 0 1 125.94 131.21
  Q 128.09 129.15 126.54 128.67
  L 131.01 123.99
  Q 133.30 122.85 132.57 121.87
  L 137.37 114.27
  Q 138.16 114.27 138.13 113.42
  A 0.40 0.40 0.0 0 1 138.76 113.08
  L 139.36 113.51
  Q 139.70 113.75 139.81 113.35
  Q 140.32 111.55 140.75 110.72
  Q 141.87 108.59 141.87 111.00
  L 141.88 118.55
  Z" fill-opacity="0.839" fill="#090602"></path>
<path d="M 81.44 114.20
  Q 89.85 116.71 100.04 113.97
  C 98.70 116.10 99.82 116.39 100.32 118.26
  Q 95.69 118.66 91.25 119.62
  Q 87.66 120.40 80.64 118.32
  Q 79.76 118.07 78.78 118.11
  Q 78.25 118.14 77.88 117.77
  Q 76.08 116.02 73.49 116.34
  C 74.70 113.51 78.83 114.55 81.44 114.20
  Z" fill="#149d95"></path>
<path d="M 64.79 114.90
  Q 66.71 115.86 67.24 117.95
  L 63.62 120.49
  Q 62.30 121.42 61.40 120.08
  L 61.20 119.78
  A 1.26 1.26 0.0 0 1 61.37 118.16
  L 64.79 114.90
  Z" fill="#19c0b6"></path>
<path d="M 73.49 116.34
  Q 76.08 116.02 77.88 117.77
  Q 78.25 118.14 78.78 118.11
  Q 79.76 118.07 80.64 118.32
  Q 87.66 120.40 91.25 119.62
  Q 95.69 118.66 100.32 118.26
  L 101.25 120.98
  A 0.85 0.85 0.0 0 1 100.67 122.07
  Q 85.70 126.21 72.34 118.52
  Q 71.87 118.25 72.17 117.79
  Q 72.73 116.91 73.49 116.34
  Z" fill="#19c0b6"></path>
<path d="M 140.91 120.49
  Q 139.99 122.87 137.70 124.51
  L 140.91 120.49
  Z" fill-opacity="0.675" fill="#212d08"></path>
<path d="M 132.57 121.87
  Q 133.30 122.85 131.01 123.99
  L 132.57 121.87
  Z" fill="#0a4f4a"></path>
<path d="M 124.74 133.53
  L 127.42 132.52
  A 1.27 1.23 6.1 0 0 128.01 132.06
  Q 128.50 131.35 129.19 130.87
  Q 130.02 130.28 129.48 131.14
  Q 127.69 133.99 124.32 134.35
  Q 123.68 134.42 123.63 133.79
  Q 123.53 132.67 124.44 132.07
  Q 124.82 131.81 124.88 131.35
  Q 124.95 130.76 125.40 130.52
  Q 125.73 130.34 125.65 130.70
  Q 125.38 132.04 124.41 133.03
  A 0.31 0.31 0.0 0 0 124.74 133.53
  Z" fill-opacity="0.839" fill="#090602"></path>
</svg>
