<svg viewBox="0.00 0.00 256.00 256.00" version="1.1" xmlns="http://www.w3.org/2000/svg">
<g stroke-linecap="butt" fill="none" stroke-width="2.00">
<path d="M 178.31 106.23
  L 178.31 86.04
  Q 178.31 85.52 177.79 85.52
  L 162.79 85.53
  Q 162.11 85.53 162.11 86.21
  L 162.11 153.49
  Q 162.11 154.07 162.69 154.08
  L 177.93 154.08
  Q 178.44 154.08 178.44 153.57
  L 178.45 121.03
  Q 178.45 118.66 180.80 118.33
  L 182.57 118.09
  Q 185.13 117.74 185.13 120.32
  L 185.13 153.62
  A 0.48 0.48 0.0 0 0 185.61 154.10
  L 201.23 154.07
  Q 201.55 154.07 201.55 153.76
  Q 201.59 133.91 201.71 114.25
  C 201.75 108.38 199.56 102.53 193.00 101.72
  Q 184.75 100.71 178.96 106.49
  A 0.38 0.38 0.0 0 1 178.31 106.23" stroke="#7f7f7a"></path>
<path d="M 226.02 139.68
  A 1.79 1.78 -85.9 0 1 224.49 137.91
  L 224.48 86.13
  A 0.61 0.60 90.0 0 0 223.88 85.52
  L 209.01 85.53
  Q 208.43 85.53 208.43 86.11
  Q 208.41 114.05 208.33 142.00
  C 208.30 154.13 215.49 155.75 225.93 155.08
  Q 226.50 155.05 226.55 154.48
  L 227.71 140.47
  Q 227.75 139.93 227.21 139.85
  L 226.02 139.68" stroke="#7f7f7a"></path>
<path d="M 44.99 129.43
  A 0.43 0.43 0.0 0 1 45.42 129.00
  L 55.87 128.96
  A 0.43 0.43 0.0 0 1 56.30 129.39
  L 56.30 153.64
  A 0.43 0.43 0.0 0 0 56.73 154.07
  L 72.40 154.07
  A 0.43 0.43 0.0 0 0 72.83 153.64
  L 72.82 88.14
  A 0.43 0.43 0.0 0 0 72.39 87.71
  L 56.73 87.70
  A 0.43 0.43 0.0 0 0 56.30 88.13
  L 56.30 113.32
  A 0.43 0.43 0.0 0 1 55.87 113.75
  L 45.43 113.75
  A 0.43 0.43 0.0 0 1 45.00 113.32
  L 44.99 88.14
  A 0.43 0.43 0.0 0 0 44.56 87.71
  L 28.69 87.70
  A 0.43 0.43 0.0 0 0 28.26 88.13
  L 28.26 153.66
  A 0.43 0.43 0.0 0 0 28.69 154.09
  L 44.56 154.05
  A 0.43 0.43 0.0 0 0 44.99 153.62
  L 44.99 129.43" stroke="#7f7f7a"></path>
<path d="M 125.70 124.19
  C 127.60 131.55 135.76 135.20 142.07 137.90
  Q 143.80 138.64 143.46 140.48
  A 0.89 0.88 -2.1 0 1 142.80 141.18
  C 138.96 142.12 132.57 139.91 128.81 138.73
  A 0.59 0.59 0.0 0 0 128.05 139.25
  L 127.16 152.25
  Q 127.10 152.98 127.81 153.18
  Q 135.42 155.31 143.04 155.04
  C 154.75 154.63 158.73 145.87 157.08 135.34
  C 155.66 126.29 148.74 123.04 141.22 119.84
  C 139.75 119.22 138.80 118.20 139.97 116.59
  A 1.61 1.59 -66.4 0 1 141.56 115.96
  L 154.21 118.30
  A 0.56 0.56 0.0 0 0 154.88 117.80
  L 156.37 104.23
  A 0.55 0.55 0.0 0 0 155.97 103.63
  C 148.95 101.70 138.89 100.23 132.68 103.39
  C 125.01 107.30 123.70 116.44 125.70 124.19" stroke="#7f7f7a"></path>
<path d="M 103.35 150.59
  Q 104.39 149.58 104.42 151.04
  L 104.46 153.22
  Q 104.47 153.85 105.09 153.85
  L 119.39 153.87
  A 0.51 0.51 0.0 0 0 119.90 153.36
  L 119.92 103.55
  Q 119.92 102.93 119.31 102.93
  L 103.94 102.88
  A 0.43 0.43 0.0 0 0 103.51 103.31
  L 103.51 136.48
  Q 103.51 138.74 101.28 139.06
  L 99.41 139.32
  Q 96.91 139.67 96.90 137.15
  L 96.78 103.28
  A 0.37 0.37 0.0 0 0 96.41 102.91
  L 80.74 102.85
  A 0.44 0.44 0.0 0 0 80.30 103.29
  Q 80.27 122.75 80.38 142.25
  C 80.46 156.48 94.73 158.86 103.35 150.59" stroke="#7f7f7a"></path>
</g>
<path d="M 0.00 0.00
  L 256.00 0.00
  L 256.00 256.00
  L 0.00 256.00
  L 0.00 0.00
  Z
  M 178.31 106.23
  L 178.31 86.04
  Q 178.31 85.52 177.79 85.52
  L 162.79 85.53
  Q 162.11 85.53 162.11 86.21
  L 162.11 153.49
  Q 162.11 154.07 162.69 154.08
  L 177.93 154.08
  Q 178.44 154.08 178.44 153.57
  L 178.45 121.03
  Q 178.45 118.66 180.80 118.33
  L 182.57 118.09
  Q 185.13 117.74 185.13 120.32
  L 185.13 153.62
  A 0.48 0.48 0.0 0 0 185.61 154.10
  L 201.23 154.07
  Q 201.55 154.07 201.55 153.76
  Q 201.59 133.91 201.71 114.25
  C 201.75 108.38 199.56 102.53 193.00 101.72
  Q 184.75 100.71 178.96 106.49
  A 0.38 0.38 0.0 0 1 178.31 106.23
  Z
  M 226.02 139.68
  A 1.79 1.78 -85.9 0 1 224.49 137.91
  L 224.48 86.13
  A 0.61 0.60 90.0 0 0 223.88 85.52
  L 209.01 85.53
  Q 208.43 85.53 208.43 86.11
  Q 208.41 114.05 208.33 142.00
  C 208.30 154.13 215.49 155.75 225.93 155.08
  Q 226.50 155.05 226.55 154.48
  L 227.71 140.47
  Q 227.75 139.93 227.21 139.85
  L 226.02 139.68
  Z
  M 44.99 129.43
  A 0.43 0.43 0.0 0 1 45.42 129.00
  L 55.87 128.96
  A 0.43 0.43 0.0 0 1 56.30 129.39
  L 56.30 153.64
  A 0.43 0.43 0.0 0 0 56.73 154.07
  L 72.40 154.07
  A 0.43 0.43 0.0 0 0 72.83 153.64
  L 72.82 88.14
  A 0.43 0.43 0.0 0 0 72.39 87.71
  L 56.73 87.70
  A 0.43 0.43 0.0 0 0 56.30 88.13
  L 56.30 113.32
  A 0.43 0.43 0.0 0 1 55.87 113.75
  L 45.43 113.75
  A 0.43 0.43 0.0 0 1 45.00 113.32
  L 44.99 88.14
  A 0.43 0.43 0.0 0 0 44.56 87.71
  L 28.69 87.70
  A 0.43 0.43 0.0 0 0 28.26 88.13
  L 28.26 153.66
  A 0.43 0.43 0.0 0 0 28.69 154.09
  L 44.56 154.05
  A 0.43 0.43 0.0 0 0 44.99 153.62
  L 44.99 129.43
  Z
  M 125.70 124.19
  C 127.60 131.55 135.76 135.20 142.07 137.90
  Q 143.80 138.64 143.46 140.48
  A 0.89 0.88 -2.1 0 1 142.80 141.18
  C 138.96 142.12 132.57 139.91 128.81 138.73
  A 0.59 0.59 0.0 0 0 128.05 139.25
  L 127.16 152.25
  Q 127.10 152.98 127.81 153.18
  Q 135.42 155.31 143.04 155.04
  C 154.75 154.63 158.73 145.87 157.08 135.34
  C 155.66 126.29 148.74 123.04 141.22 119.84
  C 139.75 119.22 138.80 118.20 139.97 116.59
  A 1.61 1.59 -66.4 0 1 141.56 115.96
  L 154.21 118.30
  A 0.56 0.56 0.0 0 0 154.88 117.80
  L 156.37 104.23
  A 0.55 0.55 0.0 0 0 155.97 103.63
  C 148.95 101.70 138.89 100.23 132.68 103.39
  C 125.01 107.30 123.70 116.44 125.70 124.19
  Z
  M 103.35 150.59
  Q 104.39 149.58 104.42 151.04
  L 104.46 153.22
  Q 104.47 153.85 105.09 153.85
  L 119.39 153.87
  A 0.51 0.51 0.0 0 0 119.90 153.36
  L 119.92 103.55
  Q 119.92 102.93 119.31 102.93
  L 103.94 102.88
  A 0.43 0.43 0.0 0 0 103.51 103.31
  L 103.51 136.48
  Q 103.51 138.74 101.28 139.06
  L 99.41 139.32
  Q 96.91 139.67 96.90 137.15
  L 96.78 103.28
  A 0.37 0.37 0.0 0 0 96.41 102.91
  L 80.74 102.85
  A 0.44 0.44 0.0 0 0 80.30 103.29
  Q 80.27 122.75 80.38 142.25
  C 80.46 156.48 94.73 158.86 103.35 150.59
  Z" fill="#f9f7f1"></path>
<path d="M 178.31 106.23
  A 0.38 0.38 0.0 0 0 178.96 106.49
  Q 184.75 100.71 193.00 101.72
  C 199.56 102.53 201.75 108.38 201.71 114.25
  Q 201.59 133.91 201.55 153.76
  Q 201.55 154.07 201.23 154.07
  L 185.61 154.10
  A 0.48 0.48 0.0 0 1 185.13 153.62
  L 185.13 120.32
  Q 185.13 117.74 182.57 118.09
  L 180.80 118.33
  Q 178.45 118.66 178.45 121.03
  L 178.44 153.57
  Q 178.44 154.08 177.93 154.08
  L 162.69 154.08
  Q 162.11 154.07 162.11 153.49
  L 162.11 86.21
  Q 162.11 85.53 162.79 85.53
  L 177.79 85.52
  Q 178.31 85.52 178.31 86.04
  L 178.31 106.23
  Z" fill="#050603"></path>
<path d="M 226.02 139.68
  L 227.21 139.85
  Q 227.75 139.93 227.71 140.47
  L 226.55 154.48
  Q 226.50 155.05 225.93 155.08
  C 215.49 155.75 208.30 154.13 208.33 142.00
  Q 208.41 114.05 208.43 86.11
  Q 208.43 85.53 209.01 85.53
  L 223.88 85.52
  A 0.61 0.60 -90.0 0 1 224.48 86.13
  L 224.49 137.91
  A 1.79 1.78 -85.9 0 0 226.02 139.68
  Z" fill="#050603"></path>
<path d="M 44.99 129.43
  L 44.99 153.62
  A 0.43 0.43 0.0 0 1 44.56 154.05
  L 28.69 154.09
  A 0.43 0.43 0.0 0 1 28.26 153.66
  L 28.26 88.13
  A 0.43 0.43 0.0 0 1 28.69 87.70
  L 44.56 87.71
  A 0.43 0.43 0.0 0 1 44.99 88.14
  L 45.00 113.32
  A 0.43 0.43 0.0 0 0 45.43 113.75
  L 55.87 113.75
  A 0.43 0.43 0.0 0 0 56.30 113.32
  L 56.30 88.13
  A 0.43 0.43 0.0 0 1 56.73 87.70
  L 72.39 87.71
  A 0.43 0.43 0.0 0 1 72.82 88.14
  L 72.83 153.64
  A 0.43 0.43 0.0 0 1 72.40 154.07
  L 56.73 154.07
  A 0.43 0.43 0.0 0 1 56.30 153.64
  L 56.30 129.39
  A 0.43 0.43 0.0 0 0 55.87 128.96
  L 45.42 129.00
  A 0.43 0.43 0.0 0 0 44.99 129.43
  Z" fill="#050603"></path>
<path d="M 142.07 137.90
  C 135.76 135.20 127.60 131.55 125.70 124.19
  C 123.70 116.44 125.01 107.30 132.68 103.39
  C 138.89 100.23 148.95 101.70 155.97 103.63
  A 0.55 0.55 0.0 0 1 156.37 104.23
  L 154.88 117.80
  A 0.56 0.56 0.0 0 1 154.21 118.30
  L 141.56 115.96
  A 1.61 1.59 -66.4 0 0 139.97 116.59
  C 138.80 118.20 139.75 119.22 141.22 119.84
  C 148.74 123.04 155.66 126.29 157.08 135.34
  C 158.73 145.87 154.75 154.63 143.04 155.04
  Q 135.42 155.31 127.81 153.18
  Q 127.10 152.98 127.16 152.25
  L 128.05 139.25
  A 0.59 0.59 0.0 0 1 128.81 138.73
  C 132.57 139.91 138.96 142.12 142.80 141.18
  A 0.89 0.88 -2.1 0 0 143.46 140.48
  Q 143.80 138.64 142.07 137.90
  Z" fill="#050603"></path>
<path d="M 103.35 150.59
  C 94.73 158.86 80.46 156.48 80.38 142.25
  Q 80.27 122.75 80.30 103.29
  A 0.44 0.44 0.0 0 1 80.74 102.85
  L 96.41 102.91
  A 0.37 0.37 0.0 0 1 96.78 103.28
  L 96.90 137.15
  Q 96.91 139.67 99.41 139.32
  L 101.28 139.06
  Q 103.51 138.74 103.51 136.48
  L 103.51 103.31
  A 0.43 0.43 0.0 0 1 103.94 102.88
  L 119.31 102.93
  Q 119.92 102.93 119.92 103.55
  L 119.90 153.36
  A 0.51 0.51 0.0 0 1 119.39 153.87
  L 105.09 153.85
  Q 104.47 153.85 104.46 153.22
  L 104.42 151.04
  Q 104.39 149.58 103.35 150.59
  Z" fill="#050603"></path>
</svg>
