<svg viewBox="0.00 0.00 256.00 256.00" version="1.1" xmlns="http://www.w3.org/2000/svg">
<path d="M 38.04 221.64
  C 34.63 203.54 30.55 185.57 26.98 167.50
  C 26.81 166.63 26.37 165.82 26.22 165.01
  Q 24.23 154.35 21.97 143.75
  Q 21.52 141.64 23.90 137.94
  Q 28.66 130.56 32.93 122.88
  C 36.21 116.99 39.66 111.48 42.91 105.71
  C 57.05 80.62 71.81 55.74 86.08 30.90
  A 1.97 1.95 15.1 0 1 87.82 29.91
  Q 112.99 30.39 137.00 30.12
  Q 138.60 30.10 139.72 28.97
  Q 149.69 18.75 159.83 8.69
  C 162.20 6.35 165.05 4.21 167.48 2.00
  A 2.78 2.77 -50.4 0 1 170.79 1.68
  Q 193.73 15.68 215.03 28.68
  C 217.02 29.90 217.80 31.34 218.28 33.75
  C 220.51 44.94 223.61 57.47 225.70 67.10
  C 228.84 81.58 232.34 95.97 235.43 110.46
  C 235.94 112.87 235.02 114.40 233.80 116.30
  Q 231.39 120.04 229.15 123.89
  Q 199.84 174.21 170.54 224.55
  Q 170.28 224.99 169.77 224.99
  Q 142.96 225.00 116.24 225.02
  C 111.54 225.02 111.52 227.39 109.07 230.24
  Q 99.36 241.58 89.71 252.96
  C 87.73 255.30 84.29 252.70 82.42 251.55
  Q 61.58 238.76 40.67 226.09
  Q 38.65 224.86 38.04 221.64
  Z
  M 182.09 30.19
  A 0.84 0.84 0.0 0 0 182.81 28.93
  L 169.34 5.97
  A 0.84 0.84 0.0 0 0 168.04 5.78
  L 143.41 28.60
  A 0.84 0.84 0.0 0 0 143.98 30.06
  L 182.09 30.19
  Z
  M 175.90 10.81
  Q 176.99 13.49 177.81 14.70
  Q 182.17 21.17 185.77 28.06
  Q 186.80 30.02 189.00 30.05
  Q 198.82 30.16 208.35 29.94
  Q 210.85 29.89 208.72 28.58
  L 174.37 7.38
  Q 173.65 6.93 173.90 7.74
  Q 174.31 9.04 175.32 9.97
  Q 175.70 10.32 175.90 10.81
  Z
  M 88.70 32.97
  A 0.36 0.36 0.0 0 0 88.39 33.15
  L 31.36 131.73
  A 0.36 0.36 0.0 0 0 31.92 132.17
  L 134.24 33.58
  A 0.36 0.36 0.0 0 0 133.99 32.96
  L 88.70 32.97
  Z
  M 36.54 133.03
  C 38.82 132.31 40.88 130.65 42.50 129.78
  C 50.12 125.66 57.64 121.24 65.13 116.90
  Q 117.53 86.54 170.00 56.31
  Q 180.37 50.33 190.39 44.24
  A 1.42 1.42 0.0 0 0 190.87 42.30
  L 186.47 35.00
  Q 186.23 34.59 186.13 34.12
  Q 186.04 33.74 185.82 33.47
  Q 185.43 33.00 184.53 32.99
  Q 162.99 32.88 141.15 33.03
  A 3.59 3.58 25.7 0 0 138.97 33.79
  C 127.23 42.97 117.52 54.46 106.32 64.34
  Q 103.47 66.86 101.20 69.21
  Q 91.12 79.69 80.39 89.50
  C 74.74 94.66 69.76 99.89 64.49 105.17
  C 55.61 114.08 44.69 123.21 35.46 133.14
  Q 35.41 133.19 35.39 133.26
  L 35.33 133.52
  Q 35.23 133.93 35.60 133.73
  Q 35.86 133.59 36.05 133.36
  A 1.00 0.96 9.9 0 1 36.54 133.03
  Z
  M 189.47 33.07
  A 0.32 0.32 0.0 0 0 189.20 33.55
  L 194.10 41.76
  A 0.32 0.32 0.0 0 0 194.53 41.87
  L 208.89 33.59
  A 0.32 0.32 0.0 0 0 208.73 32.99
  L 189.47 33.07
  Z
  M 229.48 101.76
  A 0.39 0.39 0.0 0 0 230.20 101.47
  L 215.23 34.00
  A 0.39 0.39 0.0 0 0 214.65 33.75
  L 196.08 44.45
  A 0.39 0.39 0.0 0 0 195.94 44.99
  L 229.48 101.76
  Z
  M 186.32 49.99
  Q 178.99 54.15 171.69 58.39
  C 132.15 81.39 92.60 104.39 53.04 127.36
  Q 44.17 132.51 35.10 137.30
  Q 34.47 137.63 34.33 138.21
  A 0.56 0.56 0.0 0 0 34.79 138.90
  C 36.96 139.21 39.27 138.27 40.75 138.06
  Q 103.26 128.98 165.75 119.72
  C 185.40 116.81 205.16 114.35 224.74 111.02
  C 226.87 110.66 228.32 111.46 230.28 109.95
  Q 230.67 109.65 230.42 109.22
  L 193.82 47.29
  Q 193.16 46.18 192.03 46.80
  Q 189.51 48.17 186.32 49.99
  Z
  M 228.64 114.03
  A 0.76 0.75 65.7 0 0 228.00 113.78
  Q 220.52 114.61 213.22 115.70
  Q 125.50 128.75 37.76 141.61
  Q 34.96 142.02 33.07 141.97
  Q 27.63 141.85 32.35 144.57
  L 129.74 200.70
  A 1.09 1.08 -54.7 0 0 131.11 200.46
  C 132.30 199.06 134.07 198.10 135.23 197.01
  Q 142.85 189.94 150.66 183.10
  Q 183.56 154.29 216.35 125.36
  Q 218.27 123.67 219.50 122.66
  C 221.93 120.66 226.08 115.98 227.94 115.38
  Q 229.44 114.90 228.64 114.03
  Z
  M 206.19 157.75
  C 212.40 146.54 218.84 135.84 223.07 128.82
  C 224.06 127.17 225.07 124.75 226.59 122.77
  Q 227.90 121.06 227.85 119.85
  Q 227.80 118.61 226.96 119.52
  C 223.37 123.38 218.39 127.44 215.34 130.26
  Q 208.42 136.65 201.33 142.85
  Q 176.45 164.58 151.71 186.46
  Q 143.54 193.69 134.80 201.44
  A 1.32 1.32 0.0 0 0 135.03 203.57
  L 167.13 221.64
  Q 168.83 222.60 169.65 220.83
  C 172.24 215.23 176.09 209.42 178.87 204.49
  C 185.48 192.73 192.82 181.32 199.28 169.48
  C 201.45 165.49 204.03 161.66 206.19 157.75
  Z
  M 29.04 146.17
  A 0.67 0.67 0.0 0 0 28.13 147.09
  L 71.92 222.81
  A 0.67 0.67 0.0 0 0 72.50 223.14
  L 110.87 223.12
  A 0.67 0.67 0.0 0 0 111.38 222.89
  L 127.89 203.91
  A 0.67 0.67 0.0 0 0 127.71 202.89
  L 29.04 146.17
  Z
  M 41.82 222.71
  A 0.40 0.40 0.0 0 0 42.21 223.03
  L 68.03 223.17
  A 0.40 0.40 0.0 0 0 68.38 222.57
  L 28.15 153.10
  A 0.40 0.40 0.0 0 0 27.41 153.38
  L 41.82 222.71
  Z
  M 131.42 205.15
  A 0.50 0.50 0.0 0 0 130.80 205.26
  L 116.05 222.15
  A 0.50 0.50 0.0 0 0 116.43 222.98
  L 161.42 222.98
  A 0.50 0.50 0.0 0 0 161.66 222.04
  L 131.42 205.15
  Z
  M 74.18 226.64
  L 87.37 249.59
  Q 87.92 250.55 88.64 249.71
  L 107.96 227.11
  A 0.51 0.51 0.0 0 0 107.73 226.29
  Q 106.33 225.84 104.50 225.81
  Q 89.52 225.59 74.47 226.10
  Q 73.88 226.12 74.18 226.64
  Z
  M 47.48 226.00
  A 0.31 0.31 0.0 0 0 47.32 226.57
  L 82.69 248.19
  A 0.31 0.31 0.0 0 0 83.12 247.77
  L 70.32 226.10
  A 0.31 0.31 0.0 0 0 70.05 225.95
  L 47.48 226.00
  Z" fill="#000000"></path>
</svg>
