<svg viewBox="0.00 0.00 48.00 48.00" version="1.1" xmlns="http://www.w3.org/2000/svg">
<g stroke-linecap="butt" fill="none" stroke-width="2.00">
<path d="M 6.51 21.23
  L 6.38 20.26
  Q 6.36 20.13 6.25 20.06
  Q 6.09 19.97 5.93 19.87
  A 0.22 0.22 0.0 0 0 5.59 20.05
  L 5.49 25.27
  Q 5.45 27.16 6.27 25.45
  Q 6.65 24.65 6.59 24.09
  Q 6.29 21.32 8.02 23.51
  Q 8.29 23.86 8.23 25.17
  Q 8.22 25.43 8.47 25.47
  L 8.75 25.51
  Q 8.87 25.53 8.90 25.42
  Q 9.64 22.58 6.96 21.76
  Q 6.56 21.64 6.51 21.23" stroke="#7b7a7a"></path>
<path d="M 41.39 24.17
  Q 41.08 23.94 41.10 23.82
  A 1.91 1.73 74.3 0 0 38.23 22.01
  Q 37.40 22.75 37.21 23.80
  Q 37.13 24.25 36.69 24.36
  Q 36.28 24.46 35.98 24.75
  Q 35.69 25.04 36.02 25.28
  L 36.27 25.47
  A 0.45 0.44 33.9 0 0 36.91 25.35
  Q 37.46 24.47 38.05 25.30
  A 0.95 0.94 70.0 0 0 38.89 25.70
  L 42.31 25.42
  Q 42.77 25.39 42.73 24.93
  L 42.38 20.74
  A 0.33 0.33 0.0 0 0 41.72 20.77
  L 41.70 24.02
  Q 41.70 24.41 41.39 24.17" stroke="#421765"></path>
<path d="M 35.36 21.96
  Q 35.87 21.60 36.21 21.05
  Q 36.51 20.56 35.94 20.65
  Q 35.27 20.76 35.22 21.41
  A 0.58 0.57 -80.8 0 1 34.52 21.92
  Q 32.19 21.37 31.74 23.24
  C 30.89 26.77 36.76 26.15 35.13 22.82
  Q 34.88 22.29 35.36 21.96" stroke="#7b7a7a"></path>
<path d="M 10.95 23.36
  Q 10.65 22.00 9.94 22.65
  A 0.48 0.47 58.8 0 0 9.82 23.15
  Q 10.17 24.10 10.80 24.84
  Q 11.18 25.28 10.86 25.77
  Q 10.39 26.50 10.39 26.56
  Q 10.21 29.53 11.48 26.75
  L 13.29 22.79
  Q 14.13 20.94 12.67 22.14
  Q 12.23 22.50 12.13 23.54
  A 0.51 0.51 0.0 0 1 11.41 23.95
  Q 11.05 23.78 10.95 23.36" stroke="#7b7a7a"></path>
<path d="M 20.62 23.35
  Q 20.72 23.65 20.94 23.96
  Q 21.39 24.56 21.71 23.88
  C 22.55 22.11 19.77 20.81 18.63 22.90
  A 0.44 0.44 0.0 0 1 17.93 22.99
  Q 16.48 21.48 14.43 21.89
  Q 14.14 21.95 14.15 22.24
  L 14.23 27.71
  Q 14.24 28.31 14.72 27.95
  L 15.04 27.70
  Q 15.20 27.59 15.14 27.40
  Q 14.88 26.51 15.22 26.05
  Q 15.39 25.81 16.34 25.67
  Q 17.56 25.50 17.77 24.22
  Q 17.83 23.92 18.13 23.93
  Q 18.27 23.94 18.38 24.03
  Q 18.54 24.14 18.61 24.48
  Q 18.86 25.77 20.24 25.77
  Q 21.16 25.77 21.36 25.02
  A 0.30 0.29 89.0 0 0 20.99 24.66
  Q 20.57 24.78 20.15 24.64
  A 0.62 0.61 -67.9 0 1 19.80 23.80
  L 20.02 23.31
  Q 20.37 22.56 20.62 23.35" stroke="#7b7a7a"></path>
<path d="M 27.73 25.98
  Q 27.60 27.01 26.67 27.00
  A 1.03 1.03 0.0 0 1 25.87 26.62
  Q 25.70 26.40 25.47 26.30
  Q 24.98 26.07 25.02 26.62
  Q 25.06 27.23 25.69 27.59
  Q 27.24 28.48 28.42 27.07
  A 0.58 0.58 0.0 0 0 28.19 26.16
  L 27.73 25.98" stroke="#7b7a7a"></path>
<path d="M 27.73 25.98
  Q 27.71 25.02 28.44 24.15
  Q 28.91 23.61 28.52 23.00
  L 28.17 22.44
  A 1.63 1.62 -39.6 0 0 25.61 22.20
  C 24.50 23.38 24.86 25.13 26.47 25.61
  Q 27.12 25.80 27.73 25.98" stroke="#7b7a7a"></path>
<path d="M 30.27 23.58
  L 30.91 22.45
  Q 31.51 21.40 30.48 22.05
  Q 28.81 23.10 29.26 24.83
  Q 29.75 26.67 30.31 24.85
  Q 30.34 24.76 30.20 24.33
  Q 30.07 23.94 30.27 23.58" stroke="#7b7a7a"></path>
<path d="M 23.29 22.17
  Q 22.41 23.64 22.69 25.33
  Q 22.72 25.55 22.95 25.54
  L 23.23 25.54
  A 0.29 0.28 90.0 0 0 23.51 25.25
  Q 23.48 23.73 24.10 22.37
  Q 24.25 22.06 23.90 22.05
  L 23.48 22.05
  Q 23.35 22.05 23.29 22.17" stroke="#7b7a7a"></path>
<path d="M 40.20 23.82
  A 0.75 0.74 -81.9 0 0 39.48 22.86
  L 38.92 22.87
  A 0.77 0.76 -29.8 0 0 38.53 24.29
  Q 39.82 25.06 40.20 23.82" stroke="#421765"></path>
<path d="M 32.75 24.25
  A 0.70 0.20 30.1 0 0 33.12 24.63
  Q 33.42 24.84 33.80 24.54
  Q 34.86 23.72 34.14 22.94
  A 0.84 0.83 26.7 0 0 32.69 23.42
  Q 32.65 23.83 32.75 24.25" stroke="#7b7a7a"></path>
<path d="M 16.12 24.62
  L 16.76 24.32
  Q 17.46 24.00 16.96 23.41
  Q 16.44 22.80 15.61 22.86
  Q 14.90 22.90 15.15 23.56
  Q 15.23 23.78 15.23 24.06
  A 0.63 0.62 -12.5 0 0 16.12 24.62" stroke="#7b7a7a"></path>
<path d="M 27.12 24.37
  Q 27.43 24.16 27.63 23.82
  Q 27.97 23.24 27.35 22.98
  Q 26.89 22.78 26.37 22.77
  Q 25.87 22.76 25.88 23.26
  Q 25.91 24.00 26.27 24.60
  Q 26.53 25.02 26.94 24.75
  Q 27.17 24.60 27.12 24.37" stroke="#7b7a7a"></path>
</g>
<path d="M 6.85 0.00
  L 41.27 0.00
  Q 46.44 1.54 48.00 6.58
  L 48.00 41.52
  Q 46.34 46.53 41.44 48.00
  L 6.48 48.00
  Q 1.38 46.27 0.00 41.16
  L 0.00 6.76
  Q 1.60 1.45 6.85 0.00
  Z
  M 6.51 21.23
  L 6.38 20.26
  Q 6.36 20.13 6.25 20.06
  Q 6.09 19.97 5.93 19.87
  A 0.22 0.22 0.0 0 0 5.59 20.05
  L 5.49 25.27
  Q 5.45 27.16 6.27 25.45
  Q 6.65 24.65 6.59 24.09
  Q 6.29 21.32 8.02 23.51
  Q 8.29 23.86 8.23 25.17
  Q 8.22 25.43 8.47 25.47
  L 8.75 25.51
  Q 8.87 25.53 8.90 25.42
  Q 9.64 22.58 6.96 21.76
  Q 6.56 21.64 6.51 21.23
  Z
  M 41.39 24.17
  Q 41.08 23.94 41.10 23.82
  A 1.91 1.73 74.3 0 0 38.23 22.01
  Q 37.40 22.75 37.21 23.80
  Q 37.13 24.25 36.69 24.36
  Q 36.28 24.46 35.98 24.75
  Q 35.69 25.04 36.02 25.28
  L 36.27 25.47
  A 0.45 0.44 33.9 0 0 36.91 25.35
  Q 37.46 24.47 38.05 25.30
  A 0.95 0.94 70.0 0 0 38.89 25.70
  L 42.31 25.42
  Q 42.77 25.39 42.73 24.93
  L 42.38 20.74
  A 0.33 0.33 0.0 0 0 41.72 20.77
  L 41.70 24.02
  Q 41.70 24.41 41.39 24.17
  Z
  M 35.36 21.96
  Q 35.87 21.60 36.21 21.05
  Q 36.51 20.56 35.94 20.65
  Q 35.27 20.76 35.22 21.41
  A 0.58 0.57 -80.8 0 1 34.52 21.92
  Q 32.19 21.37 31.74 23.24
  C 30.89 26.77 36.76 26.15 35.13 22.82
  Q 34.88 22.29 35.36 21.96
  Z
  M 10.95 23.36
  Q 10.65 22.00 9.94 22.65
  A 0.48 0.47 58.8 0 0 9.82 23.15
  Q 10.17 24.10 10.80 24.84
  Q 11.18 25.28 10.86 25.77
  Q 10.39 26.50 10.39 26.56
  Q 10.21 29.53 11.48 26.75
  L 13.29 22.79
  Q 14.13 20.94 12.67 22.14
  Q 12.23 22.50 12.13 23.54
  A 0.51 0.51 0.0 0 1 11.41 23.95
  Q 11.05 23.78 10.95 23.36
  Z
  M 20.62 23.35
  Q 20.72 23.65 20.94 23.96
  Q 21.39 24.56 21.71 23.88
  C 22.55 22.11 19.77 20.81 18.63 22.90
  A 0.44 0.44 0.0 0 1 17.93 22.99
  Q 16.48 21.48 14.43 21.89
  Q 14.14 21.95 14.15 22.24
  L 14.23 27.71
  Q 14.24 28.31 14.72 27.95
  L 15.04 27.70
  Q 15.20 27.59 15.14 27.40
  Q 14.88 26.51 15.22 26.05
  Q 15.39 25.81 16.34 25.67
  Q 17.56 25.50 17.77 24.22
  Q 17.83 23.92 18.13 23.93
  Q 18.27 23.94 18.38 24.03
  Q 18.54 24.14 18.61 24.48
  Q 18.86 25.77 20.24 25.77
  Q 21.16 25.77 21.36 25.02
  A 0.30 0.29 89.0 0 0 20.99 24.66
  Q 20.57 24.78 20.15 24.64
  A 0.62 0.61 -67.9 0 1 19.80 23.80
  L 20.02 23.31
  Q 20.37 22.56 20.62 23.35
  Z
  M 27.73 25.98
  Q 27.60 27.01 26.67 27.00
  A 1.03 1.03 0.0 0 1 25.87 26.62
  Q 25.70 26.40 25.47 26.30
  Q 24.98 26.07 25.02 26.62
  Q 25.06 27.23 25.69 27.59
  Q 27.24 28.48 28.42 27.07
  A 0.58 0.58 0.0 0 0 28.19 26.16
  L 27.73 25.98
  Q 27.71 25.02 28.44 24.15
  Q 28.91 23.61 28.52 23.00
  L 28.17 22.44
  A 1.63 1.62 -39.6 0 0 25.61 22.20
  C 24.50 23.38 24.86 25.13 26.47 25.61
  Q 27.12 25.80 27.73 25.98
  Z
  M 30.27 23.58
  L 30.91 22.45
  Q 31.51 21.40 30.48 22.05
  Q 28.81 23.10 29.26 24.83
  Q 29.75 26.67 30.31 24.85
  Q 30.34 24.76 30.20 24.33
  Q 30.07 23.94 30.27 23.58
  Z
  M 23.29 22.17
  Q 22.41 23.64 22.69 25.33
  Q 22.72 25.55 22.95 25.54
  L 23.23 25.54
  A 0.29 0.28 90.0 0 0 23.51 25.25
  Q 23.48 23.73 24.10 22.37
  Q 24.25 22.06 23.90 22.05
  L 23.48 22.05
  Q 23.35 22.05 23.29 22.17
  Z" fill="#000000"></path>
<path d="M 6.96 21.76
  Q 9.64 22.58 8.90 25.42
  Q 8.87 25.53 8.75 25.51
  L 8.47 25.47
  Q 8.22 25.43 8.23 25.17
  Q 8.29 23.86 8.02 23.51
  Q 6.29 21.32 6.59 24.09
  Q 6.65 24.65 6.27 25.45
  Q 5.45 27.16 5.49 25.27
  L 5.59 20.05
  A 0.22 0.22 0.0 0 1 5.93 19.87
  Q 6.09 19.97 6.25 20.06
  Q 6.36 20.13 6.38 20.26
  L 6.51 21.23
  Q 6.56 21.64 6.96 21.76
  Z" fill="#f6f4f3"></path>
<path d="M 41.70 24.02
  L 41.72 20.77
  A 0.33 0.33 0.0 0 1 42.38 20.74
  L 42.73 24.93
  Q 42.77 25.39 42.31 25.42
  L 38.89 25.70
  A 0.95 0.94 70.0 0 1 38.05 25.30
  Q 37.46 24.47 36.91 25.35
  A 0.45 0.44 33.9 0 1 36.27 25.47
  L 36.02 25.28
  Q 35.69 25.04 35.98 24.75
  Q 36.28 24.46 36.69 24.36
  Q 37.13 24.25 37.21 23.80
  Q 37.40 22.75 38.23 22.01
  A 1.91 1.73 74.3 0 1 41.10 23.82
  Q 41.08 23.94 41.39 24.17
  Q 41.70 24.41 41.70 24.02
  Z
  M 40.20 23.82
  A 0.75 0.74 -81.9 0 0 39.48 22.86
  L 38.92 22.87
  A 0.77 0.76 -29.8 0 0 38.53 24.29
  Q 39.82 25.06 40.20 23.82
  Z" fill="#842dca"></path>
<path d="M 35.13 22.82
  C 36.76 26.15 30.89 26.77 31.74 23.24
  Q 32.19 21.37 34.52 21.92
  A 0.58 0.57 -80.8 0 0 35.22 21.41
  Q 35.27 20.76 35.94 20.65
  Q 36.51 20.56 36.21 21.05
  Q 35.87 21.60 35.36 21.96
  Q 34.88 22.29 35.13 22.82
  Z
  M 32.75 24.25
  A 0.70 0.20 30.1 0 0 33.12 24.63
  Q 33.42 24.84 33.80 24.54
  Q 34.86 23.72 34.14 22.94
  A 0.84 0.83 26.7 0 0 32.69 23.42
  Q 32.65 23.83 32.75 24.25
  Z" fill="#f6f4f3"></path>
<path d="M 10.95 23.36
  Q 11.05 23.78 11.41 23.95
  A 0.51 0.51 0.0 0 0 12.13 23.54
  Q 12.23 22.50 12.67 22.14
  Q 14.13 20.94 13.29 22.79
  L 11.48 26.75
  Q 10.21 29.53 10.39 26.56
  Q 10.39 26.50 10.86 25.77
  Q 11.18 25.28 10.80 24.84
  Q 10.17 24.10 9.82 23.15
  A 0.48 0.47 58.8 0 1 9.94 22.65
  Q 10.65 22.00 10.95 23.36
  Z" fill="#f6f4f3"></path>
<path d="M 20.02 23.31
  L 19.80 23.80
  A 0.62 0.61 -67.9 0 0 20.15 24.64
  Q 20.57 24.78 20.99 24.66
  A 0.30 0.29 89.0 0 1 21.36 25.02
  Q 21.16 25.77 20.24 25.77
  Q 18.86 25.77 18.61 24.48
  Q 18.54 24.14 18.38 24.03
  Q 18.27 23.94 18.13 23.93
  Q 17.83 23.92 17.77 24.22
  Q 17.56 25.50 16.34 25.67
  Q 15.39 25.81 15.22 26.05
  Q 14.88 26.51 15.14 27.40
  Q 15.20 27.59 15.04 27.70
  L 14.72 27.95
  Q 14.24 28.31 14.23 27.71
  L 14.15 22.24
  Q 14.14 21.95 14.43 21.89
  Q 16.48 21.48 17.93 22.99
  A 0.44 0.44 0.0 0 0 18.63 22.90
  C 19.77 20.81 22.55 22.11 21.71 23.88
  Q 21.39 24.56 20.94 23.96
  Q 20.72 23.65 20.62 23.35
  Q 20.37 22.56 20.02 23.31
  Z
  M 16.12 24.62
  L 16.76 24.32
  Q 17.46 24.00 16.96 23.41
  Q 16.44 22.80 15.61 22.86
  Q 14.90 22.90 15.15 23.56
  Q 15.23 23.78 15.23 24.06
  A 0.63 0.62 -12.5 0 0 16.12 24.62
  Z" fill="#f6f4f3"></path>
<path d="M 27.73 25.98
  Q 27.12 25.80 26.47 25.61
  C 24.86 25.13 24.50 23.38 25.61 22.20
  A 1.63 1.62 -39.6 0 1 28.17 22.44
  L 28.52 23.00
  Q 28.91 23.61 28.44 24.15
  Q 27.71 25.02 27.73 25.98
  Z
  M 27.12 24.37
  Q 27.43 24.16 27.63 23.82
  Q 27.97 23.24 27.35 22.98
  Q 26.89 22.78 26.37 22.77
  Q 25.87 22.76 25.88 23.26
  Q 25.91 24.00 26.27 24.60
  Q 26.53 25.02 26.94 24.75
  Q 27.17 24.60 27.12 24.37
  Z" fill="#f6f4f3"></path>
<path d="M 30.20 24.33
  Q 30.34 24.76 30.31 24.85
  Q 29.75 26.67 29.26 24.83
  Q 28.81 23.10 30.48 22.05
  Q 31.51 21.40 30.91 22.45
  L 30.27 23.58
  Q 30.07 23.94 30.20 24.33
  Z" fill="#f6f4f3"></path>
<path d="M 23.29 22.17
  Q 23.35 22.05 23.48 22.05
  L 23.90 22.05
  Q 24.25 22.06 24.10 22.37
  Q 23.48 23.73 23.51 25.25
  A 0.29 0.28 90.0 0 1 23.23 25.54
  L 22.95 25.54
  Q 22.72 25.55 22.69 25.33
  Q 22.41 23.64 23.29 22.17
  Z" fill="#f6f4f3"></path>
<path d="M 15.23 24.06
  Q 15.23 23.78 15.15 23.56
  Q 14.90 22.90 15.61 22.86
  Q 16.44 22.80 16.96 23.41
  Q 17.46 24.00 16.76 24.32
  L 16.12 24.62
  A 0.63 0.62 -12.5 0 1 15.23 24.06
  Z" fill="#000000"></path>
<path d="M 27.12 24.37
  Q 27.17 24.60 26.94 24.75
  Q 26.53 25.02 26.27 24.60
  Q 25.91 24.00 25.88 23.26
  Q 25.87 22.76 26.37 22.77
  Q 26.89 22.78 27.35 22.98
  Q 27.97 23.24 27.63 23.82
  Q 27.43 24.16 27.12 24.37
  Z" fill="#000000"></path>
<path d="M 32.75 24.25
  Q 32.65 23.83 32.69 23.42
  A 0.84 0.83 26.7 0 1 34.14 22.94
  Q 34.86 23.72 33.80 24.54
  Q 33.42 24.84 33.12 24.63
  A 0.70 0.20 30.1 0 1 32.75 24.25
  Z" fill="#000000"></path>
<path d="M 40.20 23.82
  Q 39.82 25.06 38.53 24.29
  A 0.77 0.76 -29.8 0 1 38.92 22.87
  L 39.48 22.86
  A 0.75 0.74 -81.9 0 1 40.20 23.82
  Z" fill="#000000"></path>
<path d="M 27.73 25.98
  L 28.19 26.16
  A 0.58 0.58 0.0 0 1 28.42 27.07
  Q 27.24 28.48 25.69 27.59
  Q 25.06 27.23 25.02 26.62
  Q 24.98 26.07 25.47 26.30
  Q 25.70 26.40 25.87 26.62
  A 1.03 1.03 0.0 0 0 26.67 27.00
  Q 27.60 27.01 27.73 25.98
  Z" fill="#f6f4f3"></path>
</svg>
