<svg viewBox="0.00 0.00 180.00 180.00" version="1.1" xmlns="http://www.w3.org/2000/svg">
<g stroke-linecap="butt" fill="none" stroke-width="2.00">
<path d="M 47.84 132.03
  Q 48.02 132.33 47.81 132.60
  A 0.44 0.44 0.0 0 1 47.11 132.60
  Q 46.98 132.43 46.95 132.17" stroke="#3f0685"></path>
<path d="M 88.11 73.21
  L 79.78 74.82" stroke="#3f0685"></path>
</g>
<path d="M 85.91 0.00
  L 95.47 0.00
  C 124.39 2.41 148.31 20.37 155.01 49.24
  Q 159.82 70.00 152.86 89.70
  C 145.24 111.29 128.51 124.31 110.53 136.64
  Q 108.60 137.97 109.77 135.94
  C 113.73 129.07 120.71 123.13 126.30 117.55
  C 142.21 101.64 150.14 81.32 147.54 58.77
  Q 144.41 31.58 121.96 17.31
  C 92.25 -1.58 46.53 9.94 34.05 44.23
  C 27.28 62.82 31.66 84.16 38.46 102.02
  C 42.88 113.64 46.64 121.84 47.84 132.03
  Q 48.02 132.33 47.81 132.60
  A 0.44 0.44 0.0 0 1 47.11 132.60
  Q 46.98 132.43 46.95 132.17
  Q 44.97 126.04 42.06 120.20
  C 31.68 99.42 20.32 76.42 23.81 52.83
  C 28.53 20.89 55.25 2.39 85.91 0.00
  Z" fill="#7300ff"></path>
<path d="M 80.39 26.38
  L 78.08 28.87
  Q 77.72 29.25 77.71 28.73
  L 77.59 25.21
  Q 77.57 24.64 77.07 24.38
  L 75.52 23.58
  Q 73.45 22.50 75.70 21.91
  L 77.42 21.46
  A 0.96 0.96 0.0 0 0 78.12 20.69
  L 78.70 17.30
  Q 78.81 16.70 79.14 17.21
  L 80.95 20.00
  A 0.88 0.87 -20.9 0 0 81.84 20.39
  L 84.90 19.89
  Q 85.95 19.71 85.29 20.54
  L 83.45 22.85
  A 0.95 0.95 0.0 0 0 83.34 23.84
  L 84.71 26.76
  Q 85.11 27.62 84.22 27.28
  L 81.33 26.16
  Q 80.78 25.95 80.39 26.38
  Z" fill="#7300ff"></path>
<path d="M 58.93 32.50
  L 62.46 33.45
  A 0.33 0.33 0.0 0 1 62.54 34.06
  L 59.65 35.71
  A 0.33 0.33 0.0 0 0 59.49 36.02
  L 59.78 39.61
  A 0.33 0.33 0.0 0 1 59.23 39.87
  L 56.75 37.55
  A 0.33 0.33 0.0 0 0 56.39 37.49
  L 53.25 38.92
  A 0.33 0.33 0.0 0 1 52.80 38.51
  L 54.03 35.31
  A 0.33 0.33 0.0 0 0 53.97 34.98
  L 51.75 32.36
  A 0.33 0.33 0.0 0 1 52.03 31.82
  L 55.38 32.16
  A 0.33 0.33 0.0 0 0 55.70 32.00
  L 57.50 28.94
  A 0.33 0.33 0.0 0 1 58.11 29.05
  L 58.69 32.24
  A 0.33 0.33 0.0 0 0 58.93 32.50
  Z" fill="#7300ff"></path>
<path d="M 88.11 73.21
  L 79.78 74.82
  L 66.34 77.54
  Q 65.18 77.77 65.86 76.80
  L 76.58 61.26
  Q 77.14 60.44 76.18 60.69
  C 64.39 63.75 56.22 72.55 53.66 84.26
  C 50.19 100.12 55.18 117.88 63.12 131.79
  Q 64.12 133.55 62.59 132.23
  Q 62.43 132.10 61.63 131.13
  C 47.42 114.04 41.46 84.11 58.54 66.55
  Q 64.82 60.08 75.58 58.25
  A 0.03 0.02 62.9 0 0 75.59 58.21
  L 65.39 43.35
  Q 64.91 42.65 65.75 42.80
  L 85.76 46.36
  Q 86.36 46.47 86.73 46.00
  L 99.30 30.07
  Q 99.86 29.37 99.97 30.26
  L 102.57 49.97
  Q 102.63 50.46 103.09 50.63
  L 122.73 57.95
  Q 123.37 58.19 122.75 58.47
  L 104.65 66.89
  A 0.90 0.89 -13.5 0 0 104.13 67.73
  L 104.72 87.01
  A 0.36 0.35 -70.3 0 1 104.13 87.29
  L 88.11 73.21
  Z" fill="#7300ff"></path>
<path d="M 43.46 51.97
  Q 43.72 51.08 44.33 50.41
  A 0.44 0.44 0.0 0 1 45.09 50.73
  Q 44.97 53.33 47.64 53.07
  A 0.48 0.48 0.0 0 1 48.11 53.33
  Q 48.24 53.58 48.19 53.76
  Q 48.16 53.87 48.01 53.95
  Q 47.29 54.33 46.61 54.78
  Q 46.21 55.05 46.23 55.52
  L 46.30 57.75
  Q 46.32 58.54 45.74 57.99
  L 44.39 56.72
  Q 43.98 56.33 43.49 56.60
  L 41.83 57.50
  A 0.37 0.37 0.0 0 1 41.30 57.05
  L 41.94 55.18
  Q 42.09 54.73 41.76 54.40
  L 40.36 53.05
  Q 39.85 52.55 40.56 52.54
  L 42.80 52.48
  A 0.72 0.70 -82.0 0 0 43.46 51.97
  Z" fill="#7300ff"></path>
<path d="M 88.11 73.21
  Q 85.37 84.89 82.33 95.78
  Q 79.77 104.95 77.04 118.51
  Q 76.06 123.37 80.33 125.40
  Q 88.13 129.11 96.41 131.57
  C 101.84 133.19 105.67 134.93 106.49 140.56
  C 107.85 149.91 98.97 153.77 91.24 152.65
  Q 72.15 149.87 54.87 141.35
  C 53.88 140.86 51.52 140.53 50.37 140.98
  C 46.25 142.58 49.81 148.10 52.08 149.94
  Q 54.41 151.83 59.30 153.61
  Q 76.41 159.84 95.25 158.59
  Q 97.05 158.47 98.41 159.81
  A 1.10 1.09 24.5 0 1 98.73 160.65
  C 98.54 164.07 94.08 165.47 91.36 165.97
  Q 73.46 169.25 56.38 163.11
  C 47.90 160.06 40.87 154.58 39.88 144.77
  Q 38.95 135.55 46.95 132.17
  Q 46.98 132.43 47.11 132.60
  A 0.44 0.44 0.0 0 0 47.81 132.60
  Q 48.02 132.33 47.84 132.03
  Q 51.80 131.51 57.22 133.34
  C 69.76 137.56 80.81 142.87 93.72 144.54
  Q 97.13 144.99 97.81 141.87
  Q 97.91 141.39 97.68 140.97
  Q 96.45 138.69 94.25 138.27
  Q 84.26 136.38 74.78 132.74
  C 67.26 129.85 66.81 122.88 68.71 115.97
  Q 74.35 95.44 79.78 74.82
  L 88.11 73.21
  Z" fill="#0a0b0a"></path>
<path d="M 53.62 176.88
  C 50.94 175.76 47.13 172.16 48.41 169.02
  C 49.19 167.08 51.44 166.91 53.15 167.61
  Q 67.14 173.27 82.00 170.50
  Q 82.74 170.36 84.65 170.86
  Q 85.10 170.98 85.32 171.39
  Q 86.53 173.55 84.43 175.23
  C 76.28 181.71 62.80 180.70 53.62 176.88
  Z" fill="#0a0b0a"></path>
</svg>
