<svg viewBox="0.00 0.00 192.00 192.00" version="1.1" xmlns="http://www.w3.org/2000/svg">
<g stroke-linecap="butt" fill="none" stroke-width="2.00">
<path d="M 135.26 44.56
  L 103.18 49.39
  Q 103.01 49.41 102.86 49.34
  Q 102.64 49.23 102.60 49.29" stroke="#7bcd57"></path>
<path d="M 140.25 77.25
  L 107.56 82.12" stroke="#7bcd57"></path>
<path d="M 80.95 86.49
  L 48.51 91.09" stroke="#80898c"></path>
<path d="M 144.06 100.62
  L 111.04 105.52" stroke="#bb9a80"></path>
<path d="M 84.36 109.26
  L 51.82 114.21" stroke="#c056b5"></path>
<path d="M 75.91 53.46
  L 43.28 58.44" stroke="#80898c"></path>
<path d="M 148.79 133.23
  L 116.11 138.16" stroke="#bb9a80"></path>
<path d="M 89.31 142.21
  L 56.77 147.32" stroke="#c056b5"></path>
</g>
<path d="M 135.26 44.56
  L 103.18 49.39
  Q 103.01 49.41 102.86 49.34
  Q 102.64 49.23 102.60 49.29
  Q 101.15 39.57 99.67 29.85
  Q 98.58 22.66 99.48 19.13
  C 102.91 5.69 122.30 2.50 129.54 14.95
  Q 131.15 17.73 132.14 24.11
  Q 133.72 34.28 135.26 44.56
  Z" fill="#f1cf01"></path>
<path d="M 75.91 53.46
  L 43.28 58.44
  Q 41.89 48.93 40.44 39.44
  Q 39.29 31.96 40.15 28.30
  C 42.53 18.13 54.07 13.28 63.65 17.84
  C 70.17 20.95 71.87 26.54 72.99 33.95
  Q 74.44 43.53 75.91 53.46
  Z" fill="#fb476b"></path>
<path d="M 140.25 77.25
  L 107.56 82.12
  Q 94.58 84.23 81.46 85.99
  Q 81.12 86.03 80.95 86.49
  L 48.51 91.09
  Q 39.66 92.40 30.87 93.71
  Q 23.28 94.84 19.62 93.94
  C 2.24 89.65 4.05 64.20 22.02 61.69
  Q 32.43 60.24 43.28 58.44
  L 75.91 53.46
  L 102.60 49.29
  Q 102.64 49.23 102.86 49.34
  Q 103.01 49.41 103.18 49.39
  L 135.26 44.56
  Q 142.36 43.53 149.44 42.41
  Q 159.82 40.78 163.63 41.64
  C 177.86 44.85 180.43 64.50 168.06 71.68
  Q 164.93 73.49 158.13 74.49
  C 152.87 75.27 147.36 76.47 142.08 76.81
  Q 141.14 76.87 140.25 77.25
  Z" fill="#05caac"></path>
<path d="M 140.25 77.25
  L 144.06 100.62
  L 111.04 105.52
  L 107.56 82.12
  L 140.25 77.25
  Z" fill="#f1cf01"></path>
<path d="M 80.95 86.49
  L 84.36 109.26
  L 51.82 114.21
  L 48.51 91.09
  L 80.95 86.49
  Z" fill="#fb476b"></path>
<path d="M 148.79 133.23
  L 116.11 138.16
  L 89.31 142.21
  L 56.77 147.32
  Q 56.16 147.16 55.50 147.27
  Q 46.29 148.76 37.07 150.09
  Q 31.31 150.92 27.96 150.03
  C 10.55 145.39 12.65 120.14 30.74 117.59
  Q 40.74 116.18 50.74 114.67
  Q 51.55 114.55 51.82 114.21
  L 84.36 109.26
  L 111.04 105.52
  L 144.06 100.62
  Q 154.61 98.95 165.25 97.31
  C 183.28 94.54 192.11 118.53 176.51 127.76
  Q 173.50 129.54 167.16 130.45
  Q 158.09 131.76 148.79 133.23
  Z" fill="#8565ff"></path>
<path d="M 148.79 133.23
  Q 149.95 142.25 151.37 151.11
  Q 152.67 159.23 151.93 162.92
  C 148.46 180.45 122.06 179.73 119.33 161.02
  Q 117.68 149.72 116.11 138.16
  L 148.79 133.23
  Z" fill="#f1cf01"></path>
<path d="M 89.31 142.21
  Q 90.99 152.66 92.53 163.13
  Q 93.38 168.90 92.54 172.34
  C 88.50 188.78 63.68 188.95 60.60 171.11
  Q 58.55 159.24 56.77 147.32
  L 89.31 142.21
  Z" fill="#fb476b"></path>
</svg>
