<svg viewBox="0.00 0.00 256.00 256.00" version="1.1" xmlns="http://www.w3.org/2000/svg">
<g stroke-linecap="butt" fill="none" stroke-width="2.00">
<path d="M 168.59 87.21
  Q 163.78 81.44 162.23 74.75
  C 156.81 51.44 168.29 30.52 179.77 11.19
  Q 180.01 10.79 179.97 10.32
  Q 179.91 9.52 180.47 9.12
  C 181.38 8.46 181.96 7.87 182.19 6.91" stroke="#f1f4f8"></path>
<path d="M 70.98 250.82
  Q 80.06 240.39 86.27 227.09
  C 94.42 209.63 100.88 185.65 87.45 168.76" stroke="#f1f4f8"></path>
</g>
<path d="M 168.59 87.21
  Q 163.78 81.44 162.23 74.75
  C 156.81 51.44 168.29 30.52 179.77 11.19
  Q 180.01 10.79 179.97 10.32
  Q 179.91 9.52 180.47 9.12
  C 181.38 8.46 181.96 7.87 182.19 6.91
  C 183.04 5.87 183.67 5.26 185.13 5.26
  Q 216.40 5.26 247.53 5.27
  A 0.19 0.19 0.0 0 1 247.67 5.59
  L 168.59 87.21
  Z" fill="#ffffff"></path>
<path d="M 182.19 6.91
  C 181.96 7.87 181.38 8.46 180.47 9.12
  Q 179.91 9.52 179.97 10.32
  Q 180.01 10.79 179.77 11.19
  C 168.29 30.52 156.81 51.44 162.23 74.75
  Q 163.78 81.44 168.59 87.21
  L 247.62 168.41
  Q 247.96 168.76 247.47 168.76
  L 184.46 168.76
  Q 183.93 168.76 183.56 168.38
  L 104.24 87.26
  A 0.20 0.20 0.0 0 1 104.24 86.98
  L 182.19 6.91
  Z" fill="#e2e8f0"></path>
<path d="M 70.98 250.82
  Q 80.06 240.39 86.27 227.09
  C 94.42 209.63 100.88 185.65 87.45 168.76
  L 8.57 87.71
  Q 8.11 87.24 8.76 87.24
  L 71.57 87.24
  Q 72.10 87.24 72.47 87.62
  L 151.65 168.60
  A 0.41 0.40 -45.5 0 1 151.65 169.17
  Q 113.02 208.89 74.34 248.59
  Q 72.06 250.93 70.98 250.82
  Z" fill="#ffffff"></path>
<path d="M 87.45 168.76
  C 100.88 185.65 94.42 209.63 86.27 227.09
  Q 80.06 240.39 70.98 250.82
  L 8.83 250.75
  Q 8.00 250.75 8.58 250.15
  L 87.45 168.76
  Z" fill="#e2e8f0"></path>
</svg>
