<svg viewBox="0.00 0.00 300.00 300.00" version="1.1" xmlns="http://www.w3.org/2000/svg">
<path d="M 293.15 78.80
  L 293.15 221.67
  A 71.60 71.60 0.0 0 1 221.55 293.27
  L 78.62 293.27
  A 71.60 71.60 0.0 0 1 7.02 221.67
  L 7.02 78.80
  A 71.60 71.60 0.0 0 1 78.62 7.20
  L 221.55 7.20
  A 71.60 71.60 0.0 0 1 293.15 78.80
  Z
  M 269.07 78.75
  A 47.53 47.53 0.0 0 0 221.54 31.22
  L 78.58 31.22
  A 47.53 47.53 0.0 0 0 31.05 78.75
  L 31.05 221.81
  A 47.53 47.53 0.0 0 0 78.58 269.34
  L 221.54 269.34
  A 47.53 47.53 0.0 0 0 269.07 221.81
  L 269.07 78.75
  Z" fill="#000000"></path>
<circle r="17.97" cy="72.83" cx="227.55" fill="#000000"></circle>
<path d="M 158.25 98.18
  C 174.16 95.15 194.32 96.83 208.34 105.75
  Q 208.80 106.04 208.59 106.55
  L 201.59 123.82
  A 0.48 0.48 0.0 0 1 200.91 124.06
  C 189.63 117.65 169.65 112.10 157.79 119.59
  C 152.22 123.11 151.28 131.02 157.29 134.72
  C 164.18 138.96 173.37 140.32 181.19 142.05
  C 190.80 144.19 202.80 148.14 208.65 156.46
  C 216.53 167.67 213.94 183.56 204.06 192.81
  C 186.05 209.68 146.49 205.42 127.70 192.17
  A 0.79 0.78 29.4 0 1 127.43 191.21
  L 135.05 174.23
  Q 135.31 173.65 135.85 173.99
  C 148.55 181.91 161.46 185.59 176.50 184.01
  Q 179.26 183.71 183.07 182.13
  C 190.36 179.10 191.76 169.88 184.37 165.87
  Q 179.94 163.46 175.00 162.24
  C 156.13 157.56 129.38 154.75 129.23 128.79
  C 129.13 112.15 142.58 101.16 158.25 98.18
  Z" fill="#000000"></path>
<rect rx="0.68" height="103.42" width="24.14" y="98.61" x="86.98" fill="#000000"></rect>
</svg>
