<svg viewBox="0.00 0.00 512.00 512.00" version="1.1" xmlns="http://www.w3.org/2000/svg">
<path d="M 276.62 390.09
  C 308.15 321.13 370.55 273.34 445.00 259.49
  C 448.89 258.76 448.94 253.22 445.00 252.51
  C 365.79 238.34 301.43 185.09 271.72 110.44
  Q 264.30 91.79 259.31 66.99
  C 258.54 63.16 253.02 63.04 252.30 67.00
  C 245.26 105.45 229.25 141.35 204.60 171.37
  Q 151.50 236.04 67.99 252.44
  Q 65.98 252.84 65.19 253.46
  C 62.91 255.28 64.22 259.01 66.99 259.51
  C 161.79 276.70 235.23 350.04 252.44 444.76
  C 253.27 449.35 258.86 448.89 259.67 444.25
  Q 264.49 416.62 276.62 390.09" stroke-linecap="butt" fill="none" stroke-width="2.00" stroke="#b5afd5"></path>
<path d="M 0.00 0.00
  L 512.00 0.00
  L 512.00 512.00
  L 0.00 512.00
  L 0.00 0.00
  Z
  M 276.62 390.09
  C 308.15 321.13 370.55 273.34 445.00 259.49
  C 448.89 258.76 448.94 253.22 445.00 252.51
  C 365.79 238.34 301.43 185.09 271.72 110.44
  Q 264.30 91.79 259.31 66.99
  C 258.54 63.16 253.02 63.04 252.30 67.00
  C 245.26 105.45 229.25 141.35 204.60 171.37
  Q 151.50 236.04 67.99 252.44
  Q 65.98 252.84 65.19 253.46
  C 62.91 255.28 64.22 259.01 66.99 259.51
  C 161.79 276.70 235.23 350.04 252.44 444.76
  C 253.27 449.35 258.86 448.89 259.67 444.25
  Q 264.49 416.62 276.62 390.09
  Z" fill="#ffffff"></path>
<path d="M 276.62 390.09
  Q 264.49 416.62 259.67 444.25
  C 258.86 448.89 253.27 449.35 252.44 444.76
  C 235.23 350.04 161.79 276.70 66.99 259.51
  C 64.22 259.01 62.91 255.28 65.19 253.46
  Q 65.98 252.84 67.99 252.44
  Q 151.50 236.04 204.60 171.37
  C 229.25 141.35 245.26 105.45 252.30 67.00
  C 253.02 63.04 258.54 63.16 259.31 66.99
  Q 264.30 91.79 271.72 110.44
  C 301.43 185.09 365.79 238.34 445.00 252.51
  C 448.94 253.22 448.89 258.76 445.00 259.49
  C 370.55 273.34 308.15 321.13 276.62 390.09
  Z" fill="#6b5faa"></path>
</svg>
