<svg viewBox="0.00 0.00 16.00 16.00" version="1.1" xmlns="http://www.w3.org/2000/svg">
<g stroke-linecap="butt" fill="none" stroke-width="2.00">
<path d="M 3.69 12.58
  L 12.27 12.61
  A 2.64 2.64 0.0 0 0 14.92 9.98
  L 14.93 8.27
  A 6.97 6.80 -89.8 0 0 8.15 1.28
  L 7.89 1.28
  A 6.97 6.80 -89.8 0 0 1.07 8.23
  L 1.06 9.94
  A 2.64 2.64 0.0 0 0 3.69 12.58" stroke="#beb7e7"></path>
<path d="M 4.10 11.63
  L 11.94 11.63
  A 2.24 2.24 0.0 0 0 14.18 9.39
  L 14.18 8.17
  A 6.14 6.00 90.0 0 0 8.18 2.03
  L 7.86 2.03
  A 6.14 6.00 -90.0 0 0 1.86 8.17
  L 1.86 9.39
  A 2.24 2.24 0.0 0 0 4.10 11.63" stroke="#beb7e7"></path>
<path d="M 4.10 5.41
  Q 3.23 5.69 3.26 6.61
  C 3.43 11.61 11.41 12.15 12.76 6.70
  A 1.08 1.07 15.9 0 0 12.05 5.43
  Q 8.07 4.12 4.10 5.41" stroke="#aea4e6"></path>
<path d="M 5.34 6.83
  A 0.45 0.45 0.0 0 0 5.07 7.58
  Q 5.75 8.31 6.79 7.99
  A 0.45 0.45 0.0 0 0 6.93 7.21
  Q 6.25 6.69 5.34 6.83" stroke="#aea4e6"></path>
<path d="M 10.92 7.50
  Q 11.09 6.94 10.50 6.88
  L 9.37 6.79
  Q 8.69 6.73 8.89 7.37
  Q 9.18 8.29 10.16 8.15
  Q 10.75 8.06 10.92 7.50" stroke="#aea4e6"></path>
</g>
<path d="M 6.65 0.00
  L 9.45 0.00
  Q 14.81 1.57 16.00 6.87
  L 16.00 9.24
  Q 14.71 14.55 9.35 16.00
  L 6.55 16.00
  Q 1.21 14.44 0.00 9.12
  L 0.00 6.77
  Q 1.29 1.47 6.65 0.00
  Z
  M 3.69 12.58
  L 12.27 12.61
  A 2.64 2.64 0.0 0 0 14.92 9.98
  L 14.93 8.27
  A 6.97 6.80 -89.8 0 0 8.15 1.28
  L 7.89 1.28
  A 6.97 6.80 -89.8 0 0 1.07 8.23
  L 1.06 9.94
  A 2.64 2.64 0.0 0 0 3.69 12.58
  Z" fill="#fffffe"></path>
<path d="M 3.69 12.58
  A 2.64 2.64 0.0 0 1 1.06 9.94
  L 1.07 8.23
  A 6.97 6.80 -89.8 0 1 7.89 1.28
  L 8.15 1.28
  A 6.97 6.80 -89.8 0 1 14.93 8.27
  L 14.92 9.98
  A 2.64 2.64 0.0 0 1 12.27 12.61
  L 3.69 12.58
  Z
  M 4.10 11.63
  L 11.94 11.63
  A 2.24 2.24 0.0 0 0 14.18 9.39
  L 14.18 8.17
  A 6.14 6.00 90.0 0 0 8.18 2.03
  L 7.86 2.03
  A 6.14 6.00 -90.0 0 0 1.86 8.17
  L 1.86 9.39
  A 2.24 2.24 0.0 0 0 4.10 11.63
  Z" fill="#7d6fcf"></path>
<path d="M 4.10 11.63
  A 2.24 2.24 0.0 0 1 1.86 9.39
  L 1.86 8.17
  A 6.14 6.00 90.0 0 1 7.86 2.03
  L 8.18 2.03
  A 6.14 6.00 90.0 0 1 14.18 8.17
  L 14.18 9.39
  A 2.24 2.24 0.0 0 1 11.94 11.63
  L 4.10 11.63
  Z
  M 4.10 5.41
  Q 3.23 5.69 3.26 6.61
  C 3.43 11.61 11.41 12.15 12.76 6.70
  A 1.08 1.07 15.9 0 0 12.05 5.43
  Q 8.07 4.12 4.10 5.41
  Z" fill="#fffffe"></path>
<path d="M 4.10 5.41
  Q 8.07 4.12 12.05 5.43
  A 1.08 1.07 15.9 0 1 12.76 6.70
  C 11.41 12.15 3.43 11.61 3.26 6.61
  Q 3.23 5.69 4.10 5.41
  Z
  M 5.34 6.83
  A 0.45 0.45 0.0 0 0 5.07 7.58
  Q 5.75 8.31 6.79 7.99
  A 0.45 0.45 0.0 0 0 6.93 7.21
  Q 6.25 6.69 5.34 6.83
  Z
  M 10.92 7.50
  Q 11.09 6.94 10.50 6.88
  L 9.37 6.79
  Q 8.69 6.73 8.89 7.37
  Q 9.18 8.29 10.16 8.15
  Q 10.75 8.06 10.92 7.50
  Z" fill="#5d48cd"></path>
<path d="M 5.34 6.83
  Q 6.25 6.69 6.93 7.21
  A 0.45 0.45 0.0 0 1 6.79 7.99
  Q 5.75 8.31 5.07 7.58
  A 0.45 0.45 0.0 0 1 5.34 6.83
  Z" fill="#fffffe"></path>
<path d="M 10.92 7.50
  Q 10.75 8.06 10.16 8.15
  Q 9.18 8.29 8.89 7.37
  Q 8.69 6.73 9.37 6.79
  L 10.50 6.88
  Q 11.09 6.94 10.92 7.50
  Z" fill="#fffffe"></path>
</svg>
