<svg viewBox="0.00 0.00 128.00 128.00" version="1.1" xmlns="http://www.w3.org/2000/svg">
<path d="M 57.47 30.19
  Q 57.54 54.85 57.46 79.50
  C 57.44 87.28 56.36 95.89 50.73 101.71
  Q 50.32 102.14 50.64 102.64
  L 51.40 103.82
  Q 51.71 104.29 52.26 104.17
  Q 64.03 101.51 68.73 90.41
  Q 71.20 84.58 71.21 81.25
  Q 71.28 55.49 71.22 29.89
  Q 71.22 29.45 71.65 29.40
  Q 74.92 28.97 77.79 27.30
  Q 78.28 27.01 78.28 26.43
  L 78.26 24.25
  Q 78.26 23.74 77.75 23.74
  L 50.26 23.74
  Q 49.76 23.74 49.75 24.24
  L 49.71 26.65
  Q 49.70 27.30 50.32 27.50
  L 57.08 29.66
  Q 57.47 29.79 57.47 30.19" stroke-linecap="butt" fill="none" stroke-width="2.00" stroke="#808080"></path>
<path d="M 0.00 0.00
  L 128.00 0.00
  L 128.00 128.00
  L 0.00 128.00
  L 0.00 0.00
  Z
  M 57.47 30.19
  Q 57.54 54.85 57.46 79.50
  C 57.44 87.28 56.36 95.89 50.73 101.71
  Q 50.32 102.14 50.64 102.64
  L 51.40 103.82
  Q 51.71 104.29 52.26 104.17
  Q 64.03 101.51 68.73 90.41
  Q 71.20 84.58 71.21 81.25
  Q 71.28 55.49 71.22 29.89
  Q 71.22 29.45 71.65 29.40
  Q 74.92 28.97 77.79 27.30
  Q 78.28 27.01 78.28 26.43
  L 78.26 24.25
  Q 78.26 23.74 77.75 23.74
  L 50.26 23.74
  Q 49.76 23.74 49.75 24.24
  L 49.71 26.65
  Q 49.70 27.30 50.32 27.50
  L 57.08 29.66
  Q 57.47 29.79 57.47 30.19
  Z" fill="#ffffff"></path>
<path d="M 57.08 29.66
  L 50.32 27.50
  Q 49.70 27.30 49.71 26.65
  L 49.75 24.24
  Q 49.76 23.74 50.26 23.74
  L 77.75 23.74
  Q 78.26 23.74 78.26 24.25
  L 78.28 26.43
  Q 78.28 27.01 77.79 27.30
  Q 74.92 28.97 71.65 29.40
  Q 71.22 29.45 71.22 29.89
  Q 71.28 55.49 71.21 81.25
  Q 71.20 84.58 68.73 90.41
  Q 64.03 101.51 52.26 104.17
  Q 51.71 104.29 51.40 103.82
  L 50.64 102.64
  Q 50.32 102.14 50.73 101.71
  C 56.36 95.89 57.44 87.28 57.46 79.50
  Q 57.54 54.85 57.47 30.19
  Q 57.47 29.79 57.08 29.66
  Z" fill="#000000"></path>
</svg>
