<svg viewBox="0.00 0.00 180.00 180.00" version="1.1" xmlns="http://www.w3.org/2000/svg">
<g stroke-linecap="butt" fill="none" stroke-width="2.00">
<path d="M 151.32 48.00
  Q 150.74 47.92 150.62 48.13
  Q 150.52 48.31 150.43 48.50
  Q 150.08 49.24 150.25 48.50
  Q 150.32 48.21 150.26 47.96
  Q 150.06 47.22 150.10 47.00
  Q 150.16 46.71 149.96 46.48
  Q 149.78 46.26 149.66 46.52
  Q 149.60 46.65 149.51 46.78
  Q 149.31 47.10 149.23 46.73
  L 148.94 45.39
  Q 148.84 44.91 148.38 45.10
  Q 147.47 45.49 146.96 44.58
  A 0.97 0.97 0.0 0 0 146.13 44.08
  L 133.93 43.92
  Q 133.67 43.92 133.48 43.75
  Q 133.35 43.63 133.18 43.60
  Q 132.72 43.52 132.95 43.93
  Q 133.12 44.25 132.83 44.35
  A 0.23 0.23 0.0 0 0 132.83 44.79
  Q 135.35 45.64 135.32 49.33" stroke="#7945cd"></path>
<path d="M 37.40 47.77
  Q 37.27 47.29 37.90 46.84
  A 0.55 0.54 66.3 0 0 38.12 46.26
  Q 38.08 46.10 37.97 45.98
  Q 37.70 45.66 37.30 45.80
  L 36.47 46.10
  Q 36.04 46.25 35.58 46.26
  Q 34.85 46.27 34.14 46.59
  Q 33.79 46.74 33.40 46.75
  C 31.70 46.82 30.32 47.91 28.25 47.92
  Q 26.89 47.93 25.79 48.21
  Q 22.10 49.16 18.37 49.43" stroke="#7945cd"></path>
<path d="M 22.86 82.33
  Q 16.92 81.40 10.60 82.07
  Q 10.09 82.12 9.79 82.53
  Q 9.61 82.77 9.51 83.06
  Q 9.36 83.52 8.98 83.84
  Q 8.18 84.51 7.78 85.74" stroke="#814fd0"></path>
<path d="M 156.33 83.48
  L 155.53 79.89
  Q 155.42 79.39 154.90 79.39
  L 143.16 79.41
  Q 142.59 79.41 142.50 79.98
  Q 142.24 81.62 141.70 80.28" stroke="#814fd0"></path>
<path d="M 29.61 120.05
  Q 28.82 120.23 28.30 120.03
  Q 28.13 119.96 28.13 119.77
  Q 28.13 119.62 28.12 119.45
  Q 28.09 119.18 27.85 119.28
  C 26.76 119.74 25.05 118.20 23.40 118.37
  Q 22.90 118.42 22.41 118.28
  Q 20.61 117.75 18.75 117.87
  Q 18.27 117.91 17.86 117.66
  Q 16.21 116.68 14.34 116.62
  Q 13.52 116.60 13.90 117.32
  Q 15.13 119.66 13.48 120.29" stroke="#8b5cd3"></path>
<path d="M 144.99 113.35
  L 144.28 112.77
  Q 143.90 112.46 143.62 112.85
  Q 143.32 113.26 142.83 113.48
  Q 142.57 113.61 142.13 113.55
  Q 139.89 113.26 137.97 114.35
  Q 137.53 114.60 137.02 114.63
  Q 134.91 114.73 132.81 115.02
  C 130.12 115.39 127.52 116.76 124.79 117.60
  Q 124.27 117.76 123.79 117.50
  L 123.46 117.32
  Q 123.03 117.10 122.64 117.38
  L 119.44 119.68
  Q 119.05 119.96 118.75 120.34
  Q 118.02 121.24 116.99 121.38
  Q 116.57 121.44 116.19 121.66
  Q 115.41 122.10 114.56 122.08
  A 0.99 0.98 21.8 0 0 113.85 122.38
  Q 112.99 123.30 111.73 123.11
  A 1.20 1.16 -59.2 0 0 110.84 123.35
  Q 109.43 124.47 107.87 124.25" stroke="#8b5cd3"></path>
</g>
<path d="M 151.32 48.00
  Q 150.74 47.92 150.62 48.13
  Q 150.52 48.31 150.43 48.50
  Q 150.08 49.24 150.25 48.50
  Q 150.32 48.21 150.26 47.96
  Q 150.06 47.22 150.10 47.00
  Q 150.16 46.71 149.96 46.48
  Q 149.78 46.26 149.66 46.52
  Q 149.60 46.65 149.51 46.78
  Q 149.31 47.10 149.23 46.73
  L 148.94 45.39
  Q 148.84 44.91 148.38 45.10
  Q 147.47 45.49 146.96 44.58
  A 0.97 0.97 0.0 0 0 146.13 44.08
  L 133.93 43.92
  Q 133.67 43.92 133.48 43.75
  Q 133.35 43.63 133.18 43.60
  Q 132.72 43.52 132.95 43.93
  Q 133.12 44.25 132.83 44.35
  A 0.23 0.23 0.0 0 0 132.83 44.79
  Q 135.35 45.64 135.32 49.33
  C 113.11 11.07 62.69 17.01 37.40 47.77
  Q 37.27 47.29 37.90 46.84
  A 0.55 0.54 66.3 0 0 38.12 46.26
  Q 38.08 46.10 37.97 45.98
  Q 37.70 45.66 37.30 45.80
  L 36.47 46.10
  Q 36.04 46.25 35.58 46.26
  Q 34.85 46.27 34.14 46.59
  Q 33.79 46.74 33.40 46.75
  C 31.70 46.82 30.32 47.91 28.25 47.92
  Q 26.89 47.93 25.79 48.21
  Q 22.10 49.16 18.37 49.43
  C 29.22 30.46 46.11 17.16 66.96 10.82
  Q 84.15 5.60 101.29 8.66
  C 123.79 12.67 141.72 27.07 151.32 48.00
  Z" fill="#753fcb"></path>
<path d="M 151.32 48.00
  C 156.83 59.43 157.35 70.89 156.33 83.48
  L 155.53 79.89
  Q 155.42 79.39 154.90 79.39
  L 143.16 79.41
  Q 142.59 79.41 142.50 79.98
  Q 142.24 81.62 141.70 80.28
  C 142.24 68.67 140.95 59.30 135.32 49.33
  Q 135.35 45.64 132.83 44.79
  A 0.23 0.23 0.0 0 1 132.83 44.35
  Q 133.12 44.25 132.95 43.93
  Q 132.72 43.52 133.18 43.60
  Q 133.35 43.63 133.48 43.75
  Q 133.67 43.92 133.93 43.92
  L 146.13 44.08
  A 0.97 0.97 0.0 0 1 146.96 44.58
  Q 147.47 45.49 148.38 45.10
  Q 148.84 44.91 148.94 45.39
  L 149.23 46.73
  Q 149.31 47.10 149.51 46.78
  Q 149.60 46.65 149.66 46.52
  Q 149.78 46.26 149.96 46.48
  Q 150.16 46.71 150.10 47.00
  Q 150.06 47.22 150.26 47.96
  Q 150.32 48.21 150.25 48.50
  Q 150.08 49.24 150.43 48.50
  Q 150.52 48.31 150.62 48.13
  Q 150.74 47.92 151.32 48.00
  Z" fill="#7d4ace"></path>
<path d="M 37.40 47.77
  Q 25.27 63.38 22.86 82.33
  Q 16.92 81.40 10.60 82.07
  Q 10.09 82.12 9.79 82.53
  Q 9.61 82.77 9.51 83.06
  Q 9.36 83.52 8.98 83.84
  Q 8.18 84.51 7.78 85.74
  Q 8.66 66.53 18.37 49.43
  Q 22.10 49.16 25.79 48.21
  Q 26.89 47.93 28.25 47.92
  C 30.32 47.91 31.70 46.82 33.40 46.75
  Q 33.79 46.74 34.14 46.59
  Q 34.85 46.27 35.58 46.26
  Q 36.04 46.25 36.47 46.10
  L 37.30 45.80
  Q 37.70 45.66 37.97 45.98
  Q 38.08 46.10 38.12 46.26
  A 0.55 0.54 66.3 0 1 37.90 46.84
  Q 37.27 47.29 37.40 47.77
  Z" fill="#7d4ace"></path>
<circle r="14.72" cy="74.97" cx="59.84" fill="#753fcb"></circle>
<ellipse ry="14.67" rx="14.87" transform="translate(104.78,75.03) rotate(57.6)" cy="0.00" cx="0.00" fill="#753fcb"></ellipse>
<path d="M 156.33 83.48
  C 155.39 94.38 151.10 104.05 144.99 113.35
  L 144.28 112.77
  Q 143.90 112.46 143.62 112.85
  Q 143.32 113.26 142.83 113.48
  Q 142.57 113.61 142.13 113.55
  Q 139.89 113.26 137.97 114.35
  Q 137.53 114.60 137.02 114.63
  Q 134.91 114.73 132.81 115.02
  C 130.12 115.39 127.52 116.76 124.79 117.60
  Q 124.27 117.76 123.79 117.50
  L 123.46 117.32
  Q 123.03 117.10 122.64 117.38
  L 119.44 119.68
  Q 119.05 119.96 118.75 120.34
  Q 118.02 121.24 116.99 121.38
  Q 116.57 121.44 116.19 121.66
  Q 115.41 122.10 114.56 122.08
  A 0.99 0.98 21.8 0 0 113.85 122.38
  Q 112.99 123.30 111.73 123.11
  A 1.20 1.16 -59.2 0 0 110.84 123.35
  Q 109.43 124.47 107.87 124.25
  C 126.13 116.72 140.07 100.34 141.70 80.28
  Q 142.24 81.62 142.50 79.98
  Q 142.59 79.41 143.16 79.41
  L 154.90 79.39
  Q 155.42 79.39 155.53 79.89
  L 156.33 83.48
  Z" fill="#8554d1"></path>
<path d="M 22.86 82.33
  Q 20.75 102.58 29.61 120.05
  Q 28.82 120.23 28.30 120.03
  Q 28.13 119.96 28.13 119.77
  Q 28.13 119.62 28.12 119.45
  Q 28.09 119.18 27.85 119.28
  C 26.76 119.74 25.05 118.20 23.40 118.37
  Q 22.90 118.42 22.41 118.28
  Q 20.61 117.75 18.75 117.87
  Q 18.27 117.91 17.86 117.66
  Q 16.21 116.68 14.34 116.62
  Q 13.52 116.60 13.90 117.32
  Q 15.13 119.66 13.48 120.29
  Q 6.85 103.57 7.78 85.74
  Q 8.18 84.51 8.98 83.84
  Q 9.36 83.52 9.51 83.06
  Q 9.61 82.77 9.79 82.53
  Q 10.09 82.12 10.60 82.07
  Q 16.92 81.40 22.86 82.33
  Z" fill="#8554d1"></path>
<path d="M 144.99 113.35
  Q 130.56 133.60 106.43 140.06
  Q 101.87 141.28 97.36 142.30
  A 0.54 0.53 -7.4 0 0 96.94 142.83
  Q 97.14 153.39 96.74 164.00
  C 96.49 170.78 93.61 172.70 87.00 172.33
  C 54.00 170.48 25.56 151.07 13.48 120.29
  Q 15.13 119.66 13.90 117.32
  Q 13.52 116.60 14.34 116.62
  Q 16.21 116.68 17.86 117.66
  Q 18.27 117.91 18.75 117.87
  Q 20.61 117.75 22.41 118.28
  Q 22.90 118.42 23.40 118.37
  C 25.05 118.20 26.76 119.74 27.85 119.28
  Q 28.09 119.18 28.12 119.45
  Q 28.13 119.62 28.13 119.77
  Q 28.13 119.96 28.30 120.03
  Q 28.82 120.23 29.61 120.05
  Q 37.92 135.86 52.83 146.15
  Q 64.95 154.52 81.40 156.95
  A 1.11 1.11 0.0 0 0 82.67 155.85
  Q 82.64 146.16 82.79 135.75
  C 82.84 131.74 84.48 128.27 88.96 127.81
  Q 99.33 126.74 107.87 124.25
  Q 109.43 124.47 110.84 123.35
  A 1.20 1.16 -59.2 0 1 111.73 123.11
  Q 112.99 123.30 113.85 122.38
  A 0.99 0.98 21.8 0 1 114.56 122.08
  Q 115.41 122.10 116.19 121.66
  Q 116.57 121.44 116.99 121.38
  Q 118.02 121.24 118.75 120.34
  Q 119.05 119.96 119.44 119.68
  L 122.64 117.38
  Q 123.03 117.10 123.46 117.32
  L 123.79 117.50
  Q 124.27 117.76 124.79 117.60
  C 127.52 116.76 130.12 115.39 132.81 115.02
  Q 134.91 114.73 137.02 114.63
  Q 137.53 114.60 137.97 114.35
  Q 139.89 113.26 142.13 113.55
  Q 142.57 113.61 142.83 113.48
  Q 143.32 113.26 143.62 112.85
  Q 143.90 112.46 144.28 112.77
  L 144.99 113.35
  Z" fill="#9063d4"></path>
</svg>
