<svg viewBox="0.00 0.00 256.00 256.00" version="1.1" xmlns="http://www.w3.org/2000/svg">
<path d="M 203.50 162.85
  L 203.49 255.15
  A 0.35 0.35 0.0 0 1 203.14 255.50
  L 1.10 255.50
  A 0.35 0.35 0.0 0 1 0.75 255.15
  L 0.75 53.10
  A 0.35 0.35 0.0 0 1 1.10 52.75
  L 93.15 52.75
  A 0.35 0.35 0.0 0 0 93.50 52.40
  L 93.50 1.35
  A 0.35 0.35 0.0 0 1 93.85 1.00
  L 254.90 1.00
  A 0.35 0.35 0.0 0 1 255.25 1.35
  L 255.25 162.15
  A 0.35 0.35 0.0 0 1 254.90 162.50
  L 203.85 162.50
  A 0.35 0.35 0.0 0 0 203.50 162.85
  Z
  M 203.19 52.75
  A 0.31 0.31 0.0 0 1 203.50 53.06
  L 203.50 145.69
  A 0.31 0.31 0.0 0 0 203.81 146.00
  L 238.19 146.00
  A 0.31 0.31 0.0 0 0 238.50 145.69
  L 238.50 17.81
  A 0.31 0.31 0.0 0 0 238.19 17.50
  L 110.31 17.50
  A 0.31 0.31 0.0 0 0 110.00 17.81
  L 110.00 52.44
  A 0.31 0.31 0.0 0 0 110.31 52.75
  L 203.19 52.75
  Z
  M 175.25 81.26
  A 0.26 0.26 0.0 0 0 174.99 81.00
  L 29.51 81.00
  A 0.26 0.26 0.0 0 0 29.25 81.26
  L 29.25 226.74
  A 0.26 0.26 0.0 0 0 29.51 227.00
  L 174.99 227.00
  A 0.26 0.26 0.0 0 0 175.25 226.74
  L 175.25 81.26
  Z" fill="#20c76e"></path>
<path d="M 110.43 146.00
  L 134.07 146.00
  A 0.43 0.43 0.0 0 1 134.50 146.43
  L 134.50 162.07
  A 0.43 0.43 0.0 0 1 134.07 162.50
  L 93.94 162.50
  A 0.43 0.43 0.0 0 1 93.51 162.07
  L 93.50 97.93
  A 0.43 0.43 0.0 0 1 93.93 97.50
  L 109.57 97.50
  A 0.43 0.43 0.0 0 1 110.00 97.93
  L 110.00 145.57
  A 0.43 0.43 0.0 0 0 110.43 146.00
  Z" fill="#464646"></path>
</svg>
