<svg viewBox="0.00 0.00 1448.00 1448.00" version="1.1" xmlns="http://www.w3.org/2000/svg">
<path d="M 371.49 172.01
  C 398.81 199.60 380.84 244.88 343.74 248.72
  Q 329.21 250.23 316.81 242.90
  Q 311.65 239.85 302.44 230.66
  Q 272.51 200.78 242.64 170.85
  Q 238.82 167.03 235.90 161.30
  C 220.97 132.08 240.47 97.26 273.11 95.07
  Q 287.03 94.13 298.71 101.06
  Q 303.89 104.14 313.83 114.07
  Q 342.73 142.97 371.49 172.01
  Z" fill="#000000"></path>
<path d="M 1194.01 100.69
  C 1217.44 113.69 1224.39 144.38 1208.87 166.48
  Q 1206.80 169.42 1201.62 174.61
  Q 1170.84 205.44 1140.01 236.23
  C 1128.77 247.45 1111.36 251.42 1096.31 247.15
  C 1068.01 239.11 1054.30 205.74 1069.62 180.61
  Q 1072.70 175.55 1082.69 165.56
  Q 1111.59 136.65 1140.50 107.75
  C 1154.73 93.53 1177.30 91.42 1194.01 100.69
  Z" fill="#000000"></path>
<path d="M 1087.83 724.82
  Q 1060.57 779.29 1019.85 826.17
  Q 1019.82 826.20 1009.87 837.10
  C 970.93 879.76 951.47 938.74 950.28 995.83
  Q 950.06 1006.28 949.04 1010.58
  C 945.18 1026.86 932.22 1039.83 916.22 1043.86
  Q 910.66 1045.26 899.66 1045.26
  Q 721.08 1045.27 542.50 1045.26
  C 521.28 1045.26 503.32 1029.94 498.78 1009.53
  C 497.28 1002.81 497.74 994.13 497.39 986.51
  C 494.99 933.76 476.68 883.20 442.66 842.67
  C 435.75 834.43 427.06 826.13 419.57 817.54
  C 349.30 736.86 312.78 632.93 317.43 525.75
  C 323.94 375.70 420.12 239.32 555.00 175.72
  C 645.26 133.16 750.73 125.88 845.76 155.01
  C 995.82 201.00 1108.39 334.71 1127.86 490.40
  Q 1143.32 613.97 1087.83 724.82
  Z
  M 550.61 282.18
  C 484.53 327.16 436.57 393.35 416.47 471.25
  C 402.29 526.17 405.23 585.70 421.89 639.70
  C 436.34 686.54 460.47 728.52 493.64 764.42
  Q 498.97 770.18 504.25 775.98
  C 549.45 825.66 577.01 887.67 585.33 954.19
  Q 585.41 954.77 585.98 954.77
  L 862.49 954.76
  A 0.35 0.34 -86.2 0 0 862.83 954.46
  C 870.79 893.71 894.50 834.02 933.80 786.67
  Q 935.42 784.72 947.10 771.73
  C 1012.40 699.10 1049.54 607.71 1038.96 509.25
  C 1022.26 353.96 891.52 230.46 734.76 227.98
  C 668.42 226.93 605.49 244.82 550.61 282.18
  Z" fill="#000000"></path>
<path d="M 769.84 407.12
  Q 793.83 408.59 806.30 426.64
  C 824.25 452.61 810.99 488.73 780.58 496.31
  Q 774.88 497.74 763.30 497.74
  Q 734.07 497.76 704.86 497.75
  C 694.87 497.74 688.04 500.76 682.50 509.02
  C 674.08 521.56 681.50 536.55 694.59 541.62
  Q 698.13 542.99 705.10 542.99
  Q 726.05 543.01 747.00 543.00
  C 805.49 542.96 856.02 591.48 859.50 649.45
  Q 861.47 682.17 845.36 710.33
  Q 820.16 754.38 769.84 766.77
  Q 769.34 766.89 769.34 767.41
  Q 769.35 787.55 756.37 800.81
  C 740.45 817.07 715.56 819.06 697.19 805.62
  Q 680.03 793.07 678.61 769.87
  Q 678.58 769.38 678.09 769.36
  Q 658.05 768.31 645.55 754.68
  C 622.23 729.26 634.48 688.55 667.83 680.13
  Q 673.24 678.76 683.29 678.76
  Q 713.35 678.73 743.40 678.76
  Q 749.43 678.77 752.95 677.49
  Q 762.84 673.90 767.51 663.72
  C 773.17 651.36 763.30 637.27 751.16 634.14
  Q 748.63 633.49 742.77 633.49
  Q 725.51 633.51 708.24 633.50
  Q 694.96 633.49 688.28 632.65
  C 621.88 624.30 574.79 558.40 591.76 493.00
  C 602.54 451.47 636.37 419.57 678.11 409.72
  Q 678.59 409.61 678.60 409.11
  Q 679.00 384.24 697.17 370.90
  C 727.63 348.56 767.52 370.00 769.34 406.62
  Q 769.37 407.09 769.84 407.12
  Z" fill="#000000"></path>
<path d="M 215.75 559.22
  C 239.40 587.70 220.32 633.08 182.25 633.27
  Q 140.11 633.49 97.96 633.49
  Q 84.48 633.49 78.68 631.97
  Q 68.79 629.37 61.09 622.67
  C 29.93 595.54 47.93 543.33 90.00 543.18
  Q 131.25 543.03 172.50 543.00
  Q 186.55 542.99 192.38 544.43
  Q 206.35 547.90 215.75 559.22
  Z" fill="#000000"></path>
<path d="M 1402.20 595.17
  C 1399.08 613.44 1386.40 627.69 1368.18 632.15
  Q 1362.63 633.51 1352.18 633.51
  Q 1312.99 633.50 1273.78 633.49
  Q 1261.00 633.48 1255.35 631.99
  C 1237.94 627.39 1225.13 612.86 1222.27 595.07
  C 1218.61 572.30 1233.49 550.00 1255.75 544.42
  Q 1261.35 543.02 1272.37 543.01
  Q 1311.68 542.99 1350.99 543.00
  Q 1363.12 543.01 1368.88 544.45
  C 1391.05 549.99 1406.05 572.64 1402.20 595.17
  Z" fill="#000000"></path>
<path d="M 375.47 945.63
  C 389.22 964.04 387.27 989.22 370.83 1005.58
  Q 338.64 1037.64 306.49 1069.74
  Q 303.74 1072.49 299.24 1075.12
  C 281.14 1085.70 259.10 1082.77 244.24 1068.48
  C 229.68 1054.47 226.49 1030.71 236.91 1013.39
  Q 239.99 1008.27 249.95 998.30
  Q 275.75 972.49 301.56 946.70
  Q 311.47 936.80 316.70 933.74
  C 336.36 922.23 361.88 927.44 375.47 945.63
  Z" fill="#000000"></path>
<path d="M 1181.48 1080.44
  C 1166.34 1083.62 1150.79 1079.08 1139.86 1068.14
  Q 1107.31 1035.57 1074.77 1002.98
  Q 1071.52 999.73 1068.71 994.30
  C 1044.82 948.18 1103.69 904.34 1140.79 941.21
  Q 1171.64 971.86 1202.38 1002.62
  C 1209.48 1009.73 1214.03 1016.89 1216.20 1026.73
  C 1221.57 1051.02 1205.73 1075.34 1181.48 1080.44
  Z" fill="#000000"></path>
<path d="M 542.47 1176.53
  Q 515.34 1175.19 502.81 1152.16
  C 488.91 1126.62 504.28 1093.61 532.75 1087.14
  Q 537.76 1086.00 548.83 1086.00
  Q 727.17 1086.00 905.50 1086.00
  C 920.61 1086.00 934.51 1094.08 942.50 1105.99
  C 962.82 1136.28 941.47 1175.19 905.75 1176.51
  Q 905.08 1176.53 905.07 1177.20
  Q 904.42 1232.80 875.12 1277.71
  C 828.41 1349.30 735.46 1375.39 656.77 1345.17
  C 586.83 1318.31 543.37 1251.64 543.00 1177.08
  Q 542.99 1176.55 542.47 1176.53
  Z
  M 814.16 1176.51
  L 633.94 1176.51
  A 0.25 0.25 0.0 0 0 633.69 1176.76
  L 633.69 1179.61
  A 88.71 87.38 0.0 0 0 722.40 1266.99
  L 725.70 1266.99
  A 88.71 87.38 0.0 0 0 814.41 1179.61
  L 814.41 1176.76
  A 0.25 0.25 0.0 0 0 814.16 1176.51
  Z" fill="#000000"></path>
</svg>
