<svg viewBox="0.00 0.00 144.00 144.00" version="1.1" xmlns="http://www.w3.org/2000/svg">
<g stroke-linecap="butt" fill="none" stroke-width="2.00">
<path d="M 113.4058 38.3913
  A 8.06 8.06 0.0 0 0 105.3037 30.3736
  L 102.8237 30.3866
  A 8.06 8.06 0.0 0 0 94.8060 38.4887
  L 94.8142 40.0487
  A 8.06 8.06 0.0 0 0 102.9163 48.0664
  L 105.3963 48.0534
  A 8.06 8.06 0.0 0 0 113.4140 39.9513
  L 113.4058 38.3913" stroke="#80b9d8"></path>
<path d="M 63.11 73.56
  C 50.83 73.75 34.22 76.44 30.87 90.76
  C 28.50 100.89 34.20 110.47 44.76 112.37
  Q 56.65 114.51 64.95 106.38
  A 0.30 0.29 64.1 0 1 65.45 106.56
  L 66.00 110.94
  A 0.69 0.68 -3.3 0 0 66.68 111.54
  L 81.74 111.56
  Q 82.31 111.56 82.26 110.99
  C 81.38 101.62 81.54 92.61 81.49 83.29
  Q 81.44 71.39 79.78 66.95
  C 73.26 49.44 48.86 51.92 35.14 58.04
  A 1.00 1.00 0.0 0 0 34.59 59.22
  L 37.51 69.52
  A 0.51 0.50 -20.3 0 0 38.21 69.84
  C 42.76 67.71 46.94 66.18 52.49 65.79
  C 57.36 65.45 63.55 67.19 63.65 73.00
  Q 63.66 73.56 63.11 73.56" stroke="#80b9d8"></path>
<path d="M 113.01 55.19
  A 0.41 0.41 0.0 0 0 112.60 54.78
  L 95.56 54.78
  A 0.41 0.41 0.0 0 0 95.15 55.19
  L 95.15 111.15
  A 0.41 0.41 0.0 0 0 95.56 111.56
  L 112.60 111.56
  A 0.41 0.41 0.0 0 0 113.01 111.15
  L 113.01 55.19" stroke="#80b9d8"></path>
<path d="M 47.99 93.22
  C 47.74 100.70 55.89 101.93 60.72 98.20
  C 64.97 94.92 64.19 90.06 64.19 85.52
  Q 64.19 84.93 63.60 84.91
  C 58.14 84.75 48.22 86.10 47.99 93.22" stroke="#80b9d8"></path>
</g>
<path d="M 142.8766 126.9166
  A 15.26 15.26 0.0 0 1 127.6433 142.2032
  L 16.8234 142.3966
  A 15.26 15.26 0.0 0 1 1.5368 127.1633
  L 1.3434 16.3434
  A 15.26 15.26 0.0 0 1 16.5767 1.0568
  L 127.3966 0.8634
  A 15.26 15.26 0.0 0 1 142.6832 16.0967
  L 142.8766 126.9166
  Z
  M 113.4058 38.3913
  A 8.06 8.06 0.0 0 0 105.3037 30.3736
  L 102.8237 30.3866
  A 8.06 8.06 0.0 0 0 94.8060 38.4887
  L 94.8142 40.0487
  A 8.06 8.06 0.0 0 0 102.9163 48.0664
  L 105.3963 48.0534
  A 8.06 8.06 0.0 0 0 113.4140 39.9513
  L 113.4058 38.3913
  Z
  M 63.11 73.56
  C 50.83 73.75 34.22 76.44 30.87 90.76
  C 28.50 100.89 34.20 110.47 44.76 112.37
  Q 56.65 114.51 64.95 106.38
  A 0.30 0.29 64.1 0 1 65.45 106.56
  L 66.00 110.94
  A 0.69 0.68 -3.3 0 0 66.68 111.54
  L 81.74 111.56
  Q 82.31 111.56 82.26 110.99
  C 81.38 101.62 81.54 92.61 81.49 83.29
  Q 81.44 71.39 79.78 66.95
  C 73.26 49.44 48.86 51.92 35.14 58.04
  A 1.00 1.00 0.0 0 0 34.59 59.22
  L 37.51 69.52
  A 0.51 0.50 -20.3 0 0 38.21 69.84
  C 42.76 67.71 46.94 66.18 52.49 65.79
  C 57.36 65.45 63.55 67.19 63.65 73.00
  Q 63.66 73.56 63.11 73.56
  Z
  M 113.01 55.19
  A 0.41 0.41 0.0 0 0 112.60 54.78
  L 95.56 54.78
  A 0.41 0.41 0.0 0 0 95.15 55.19
  L 95.15 111.15
  A 0.41 0.41 0.0 0 0 95.56 111.56
  L 112.60 111.56
  A 0.41 0.41 0.0 0 0 113.01 111.15
  L 113.01 55.19
  Z" fill="#0072b1"></path>
<rect rx="8.06" height="17.68" width="18.60" transform="translate(104.11,39.22) rotate(-0.3)" y="-8.84" x="-9.30" fill="#ffffff"></rect>
<path d="M 63.65 73.00
  C 63.55 67.19 57.36 65.45 52.49 65.79
  C 46.94 66.18 42.76 67.71 38.21 69.84
  A 0.51 0.50 -20.3 0 1 37.51 69.52
  L 34.59 59.22
  A 1.00 1.00 0.0 0 1 35.14 58.04
  C 48.86 51.92 73.26 49.44 79.78 66.95
  Q 81.44 71.39 81.49 83.29
  C 81.54 92.61 81.38 101.62 82.26 110.99
  Q 82.31 111.56 81.74 111.56
  L 66.68 111.54
  A 0.69 0.68 -3.3 0 1 66.00 110.94
  L 65.45 106.56
  A 0.30 0.29 64.1 0 0 64.95 106.38
  Q 56.65 114.51 44.76 112.37
  C 34.20 110.47 28.50 100.89 30.87 90.76
  C 34.22 76.44 50.83 73.75 63.11 73.56
  Q 63.66 73.56 63.65 73.00
  Z
  M 47.99 93.22
  C 47.74 100.70 55.89 101.93 60.72 98.20
  C 64.97 94.92 64.19 90.06 64.19 85.52
  Q 64.19 84.93 63.60 84.91
  C 58.14 84.75 48.22 86.10 47.99 93.22
  Z" fill="#ffffff"></path>
<rect rx="0.41" height="56.78" width="17.86" y="54.78" x="95.15" fill="#ffffff"></rect>
<path d="M 60.72 98.20
  C 55.89 101.93 47.74 100.70 47.99 93.22
  C 48.22 86.10 58.14 84.75 63.60 84.91
  Q 64.19 84.93 64.19 85.52
  C 64.19 90.06 64.97 94.92 60.72 98.20
  Z" fill="#0072b1"></path>
</svg>
