<svg viewBox="0.00 0.00 256.00 255.00" version="1.1" xmlns="http://www.w3.org/2000/svg">
<g stroke-linecap="butt" fill="none" stroke-width="2.00">
<path d="M 246.23 101.32
  C 235.47 51.57 194.19 13.80 144.36 7.07
  C 78.16 -1.89 17.76 43.56 7.75 109.82
  A 0.43 0.43 0.0 0 0 8.22 110.31
  Q 46.94 105.98 83.22 92.68
  Q 102.59 85.58 122.25 77.97
  Q 130.31 74.85 140.50 71.99
  Q 166.97 64.54 190.85 71.93
  C 210.45 78.00 229.62 89.30 245.53 101.76
  Q 246.49 102.51 246.23 101.32" stroke="#82c9c9"></path>
<path d="M 210.50 115.60
  Q 229.41 123.91 248.28 133.23
  A 0.45 0.44 -75.2 0 0 248.92 132.85
  Q 249.40 122.09 247.93 110.82
  A 2.06 2.04 -74.6 0 0 247.19 109.50
  C 228.98 94.59 206.21 80.61 183.72 75.28
  C 162.94 70.36 142.58 75.57 122.65 83.24
  Q 103.16 90.74 85.21 97.33
  Q 47.52 111.17 7.58 115.53
  Q 7.08 115.58 7.03 116.07
  Q 5.84 128.10 7.26 140.96
  A 0.71 0.70 -3.2 0 0 7.96 141.58
  Q 47.70 141.66 85.30 127.37
  Q 103.45 120.47 121.75 113.25
  C 136.67 107.37 153.14 102.86 168.96 103.97
  C 183.34 104.98 197.38 109.84 210.50 115.60" stroke="#82c9c9"></path>
<path d="M 176.18 140.90
  C 199.52 140.66 222.34 150.75 242.81 163.18
  A 0.65 0.64 -66.1 0 0 243.76 162.81
  Q 247.29 151.03 248.42 139.31
  Q 248.45 138.94 248.12 138.77
  Q 229.38 129.47 210.42 121.07
  C 195.60 114.50 180.81 109.19 165.07 108.93
  C 150.47 108.68 135.24 113.24 121.95 118.59
  Q 100.45 127.25 82.17 133.86
  Q 46.43 146.77 8.43 146.58
  A 0.33 0.33 0.0 0 0 8.11 146.97
  Q 10.25 159.74 14.74 171.32
  A 0.77 0.76 79.3 0 0 15.45 171.81
  Q 60.88 172.31 104.27 159.12
  C 121.75 153.81 140.83 146.52 159.11 142.83
  Q 168.24 140.98 176.18 140.90" stroke="#82c9c9"></path>
<path d="M 222.72 202.87
  C 230.95 192.32 237.20 181.17 241.71 168.93
  A 0.66 0.65 25.6 0 0 241.43 168.14
  C 226.38 159.12 209.69 150.95 192.76 147.50
  Q 177.46 144.39 161.28 147.61
  Q 148.96 150.06 142.22 152.31
  Q 121.02 159.39 103.87 164.50
  Q 61.57 177.10 17.77 176.93
  Q 17.09 176.93 17.37 177.55
  Q 23.36 190.71 32.22 202.08
  A 1.14 1.12 -17.4 0 0 33.07 202.51
  Q 66.73 203.45 97.79 194.51
  Q 111.64 190.53 124.97 186.87
  C 147.54 180.69 169.51 183.44 192.72 191.45
  Q 207.22 196.46 222.06 203.04
  A 0.56 0.55 -58.8 0 0 222.72 202.87" stroke="#82c9c9"></path>
<path d="M 147.15 223.66
  Q 167.87 224.55 183.94 234.28
  Q 184.53 234.64 185.14 234.31
  Q 204.34 223.86 218.72 207.60
  A 0.36 0.36 0.0 0 0 218.60 207.03
  Q 204.81 200.93 189.22 195.57
  C 168.72 188.52 147.68 186.09 126.82 191.65
  Q 113.90 195.10 101.56 198.73
  Q 69.90 208.05 37.48 207.65
  A 0.27 0.27 0.0 0 0 37.28 208.10
  Q 54.50 227.46 78.69 238.38
  Q 79.35 238.68 80.01 238.35
  Q 112.35 222.17 147.15 223.66" stroke="#82c9c9"></path>
<path d="M 148.84 228.87
  Q 117.22 227.02 86.95 240.59
  Q 85.54 241.22 87.01 241.72
  Q 130.64 256.67 173.79 239.73
  Q 176.28 238.75 178.40 237.44
  Q 178.90 237.13 178.38 236.86
  Q 165.08 229.82 148.84 228.87" stroke="#82c9c9"></path>
</g>
<path d="M 254.00 127.30
  A 126.23 126.23 0.0 0 1 127.77 253.53
  A 126.23 126.23 0.0 0 1 1.54 127.30
  A 126.23 126.23 0.0 0 1 127.77 1.07
  A 126.23 126.23 0.0 0 1 254.00 127.30
  Z
  M 246.23 101.32
  C 235.47 51.57 194.19 13.80 144.36 7.07
  C 78.16 -1.89 17.76 43.56 7.75 109.82
  A 0.43 0.43 0.0 0 0 8.22 110.31
  Q 46.94 105.98 83.22 92.68
  Q 102.59 85.58 122.25 77.97
  Q 130.31 74.85 140.50 71.99
  Q 166.97 64.54 190.85 71.93
  C 210.45 78.00 229.62 89.30 245.53 101.76
  Q 246.49 102.51 246.23 101.32
  Z
  M 210.50 115.60
  Q 229.41 123.91 248.28 133.23
  A 0.45 0.44 -75.2 0 0 248.92 132.85
  Q 249.40 122.09 247.93 110.82
  A 2.06 2.04 -74.6 0 0 247.19 109.50
  C 228.98 94.59 206.21 80.61 183.72 75.28
  C 162.94 70.36 142.58 75.57 122.65 83.24
  Q 103.16 90.74 85.21 97.33
  Q 47.52 111.17 7.58 115.53
  Q 7.08 115.58 7.03 116.07
  Q 5.84 128.10 7.26 140.96
  A 0.71 0.70 -3.2 0 0 7.96 141.58
  Q 47.70 141.66 85.30 127.37
  Q 103.45 120.47 121.75 113.25
  C 136.67 107.37 153.14 102.86 168.96 103.97
  C 183.34 104.98 197.38 109.84 210.50 115.60
  Z
  M 176.18 140.90
  C 199.52 140.66 222.34 150.75 242.81 163.18
  A 0.65 0.64 -66.1 0 0 243.76 162.81
  Q 247.29 151.03 248.42 139.31
  Q 248.45 138.94 248.12 138.77
  Q 229.38 129.47 210.42 121.07
  C 195.60 114.50 180.81 109.19 165.07 108.93
  C 150.47 108.68 135.24 113.24 121.95 118.59
  Q 100.45 127.25 82.17 133.86
  Q 46.43 146.77 8.43 146.58
  A 0.33 0.33 0.0 0 0 8.11 146.97
  Q 10.25 159.74 14.74 171.32
  A 0.77 0.76 79.3 0 0 15.45 171.81
  Q 60.88 172.31 104.27 159.12
  C 121.75 153.81 140.83 146.52 159.11 142.83
  Q 168.24 140.98 176.18 140.90
  Z
  M 222.72 202.87
  C 230.95 192.32 237.20 181.17 241.71 168.93
  A 0.66 0.65 25.6 0 0 241.43 168.14
  C 226.38 159.12 209.69 150.95 192.76 147.50
  Q 177.46 144.39 161.28 147.61
  Q 148.96 150.06 142.22 152.31
  Q 121.02 159.39 103.87 164.50
  Q 61.57 177.10 17.77 176.93
  Q 17.09 176.93 17.37 177.55
  Q 23.36 190.71 32.22 202.08
  A 1.14 1.12 -17.4 0 0 33.07 202.51
  Q 66.73 203.45 97.79 194.51
  Q 111.64 190.53 124.97 186.87
  C 147.54 180.69 169.51 183.44 192.72 191.45
  Q 207.22 196.46 222.06 203.04
  A 0.56 0.55 -58.8 0 0 222.72 202.87
  Z
  M 147.15 223.66
  Q 167.87 224.55 183.94 234.28
  Q 184.53 234.64 185.14 234.31
  Q 204.34 223.86 218.72 207.60
  A 0.36 0.36 0.0 0 0 218.60 207.03
  Q 204.81 200.93 189.22 195.57
  C 168.72 188.52 147.68 186.09 126.82 191.65
  Q 113.90 195.10 101.56 198.73
  Q 69.90 208.05 37.48 207.65
  A 0.27 0.27 0.0 0 0 37.28 208.10
  Q 54.50 227.46 78.69 238.38
  Q 79.35 238.68 80.01 238.35
  Q 112.35 222.17 147.15 223.66
  Z
  M 148.84 228.87
  Q 117.22 227.02 86.95 240.59
  Q 85.54 241.22 87.01 241.72
  Q 130.64 256.67 173.79 239.73
  Q 176.28 238.75 178.40 237.44
  Q 178.90 237.13 178.38 236.86
  Q 165.08 229.82 148.84 228.87
  Z" fill="#f5f5f4"></path>
<path d="M 144.36 7.07
  C 194.19 13.80 235.47 51.57 246.23 101.32
  Q 246.49 102.51 245.53 101.76
  C 229.62 89.30 210.45 78.00 190.85 71.93
  Q 166.97 64.54 140.50 71.99
  Q 130.31 74.85 122.25 77.97
  Q 102.59 85.58 83.22 92.68
  Q 46.94 105.98 8.22 110.31
  A 0.43 0.43 0.0 0 1 7.75 109.82
  C 17.76 43.56 78.16 -1.89 144.36 7.07
  Z" fill="#0e9c9e"></path>
<path d="M 210.50 115.60
  C 197.38 109.84 183.34 104.98 168.96 103.97
  C 153.14 102.86 136.67 107.37 121.75 113.25
  Q 103.45 120.47 85.30 127.37
  Q 47.70 141.66 7.96 141.58
  A 0.71 0.70 -3.2 0 1 7.26 140.96
  Q 5.84 128.10 7.03 116.07
  Q 7.08 115.58 7.58 115.53
  Q 47.52 111.17 85.21 97.33
  Q 103.16 90.74 122.65 83.24
  C 142.58 75.57 162.94 70.36 183.72 75.28
  C 206.21 80.61 228.98 94.59 247.19 109.50
  A 2.06 2.04 -74.6 0 1 247.93 110.82
  Q 249.40 122.09 248.92 132.85
  A 0.45 0.44 -75.2 0 1 248.28 133.23
  Q 229.41 123.91 210.50 115.60
  Z" fill="#0e9c9e"></path>
<path d="M 176.18 140.90
  Q 168.24 140.98 159.11 142.83
  C 140.83 146.52 121.75 153.81 104.27 159.12
  Q 60.88 172.31 15.45 171.81
  A 0.77 0.76 79.3 0 1 14.74 171.32
  Q 10.25 159.74 8.11 146.97
  A 0.33 0.33 0.0 0 1 8.43 146.58
  Q 46.43 146.77 82.17 133.86
  Q 100.45 127.25 121.95 118.59
  C 135.24 113.24 150.47 108.68 165.07 108.93
  C 180.81 109.19 195.60 114.50 210.42 121.07
  Q 229.38 129.47 248.12 138.77
  Q 248.45 138.94 248.42 139.31
  Q 247.29 151.03 243.76 162.81
  A 0.65 0.64 -66.1 0 1 242.81 163.18
  C 222.34 150.75 199.52 140.66 176.18 140.90
  Z" fill="#0e9c9e"></path>
<path d="M 241.71 168.93
  C 237.20 181.17 230.95 192.32 222.72 202.87
  A 0.56 0.55 -58.8 0 1 222.06 203.04
  Q 207.22 196.46 192.72 191.45
  C 169.51 183.44 147.54 180.69 124.97 186.87
  Q 111.64 190.53 97.79 194.51
  Q 66.73 203.45 33.07 202.51
  A 1.14 1.12 -17.4 0 1 32.22 202.08
  Q 23.36 190.71 17.37 177.55
  Q 17.09 176.93 17.77 176.93
  Q 61.57 177.10 103.87 164.50
  Q 121.02 159.39 142.22 152.31
  Q 148.96 150.06 161.28 147.61
  Q 177.46 144.39 192.76 147.50
  C 209.69 150.95 226.38 159.12 241.43 168.14
  A 0.66 0.65 25.6 0 1 241.71 168.93
  Z" fill="#0e9c9e"></path>
<path d="M 147.15 223.66
  Q 112.35 222.17 80.01 238.35
  Q 79.35 238.68 78.69 238.38
  Q 54.50 227.46 37.28 208.10
  A 0.27 0.27 0.0 0 1 37.48 207.65
  Q 69.90 208.05 101.56 198.73
  Q 113.90 195.10 126.82 191.65
  C 147.68 186.09 168.72 188.52 189.22 195.57
  Q 204.81 200.93 218.60 207.03
  A 0.36 0.36 0.0 0 1 218.72 207.60
  Q 204.34 223.86 185.14 234.31
  Q 184.53 234.64 183.94 234.28
  Q 167.87 224.55 147.15 223.66
  Z" fill="#0e9c9e"></path>
<path d="M 148.84 228.87
  Q 165.08 229.82 178.38 236.86
  Q 178.90 237.13 178.40 237.44
  Q 176.28 238.75 173.79 239.73
  Q 130.64 256.67 87.01 241.72
  Q 85.54 241.22 86.95 240.59
  Q 117.22 227.02 148.84 228.87
  Z" fill="#0e9c9e"></path>
</svg>
