<svg viewBox="0.00 0.00 95.00 95.00" version="1.1" xmlns="http://www.w3.org/2000/svg">
<g stroke-linecap="butt" fill="none" stroke-width="2.00">
<path d="M 22.12 36.24
  A 0.23 0.23 0.0 0 1 22.57 36.16
  L 32.28 63.49
  A 0.78 0.77 -9.2 0 0 33.00 64.00
  L 38.67 64.00
  Q 39.33 64.00 39.56 63.38
  L 49.11 37.33
  Q 49.99 34.93 49.97 37.49
  L 49.73 63.74
  A 0.26 0.26 0.0 0 0 49.99 64.00
  L 59.00 64.00
  A 0.25 0.25 0.0 0 0 59.25 63.75
  L 59.25 24.23
  Q 59.25 23.61 58.64 23.61
  L 45.84 23.61
  Q 45.24 23.61 45.05 24.18
  L 36.65 48.72
  Q 36.28 49.81 35.90 48.72
  L 27.21 24.17
  Q 27.01 23.61 26.42 23.61
  L 13.75 23.61
  Q 13.12 23.61 13.12 24.25
  L 13.12 63.65
  A 0.35 0.35 0.0 0 0 13.47 64.00
  L 22.00 64.00
  A 0.34 0.34 0.0 0 0 22.34 63.66
  L 22.12 36.24" stroke="#979797"></path>
<path d="M 85.97 67.80
  A 0.43 0.43 0.0 0 0 85.54 67.37
  L 63.94 67.37
  A 0.43 0.43 0.0 0 0 63.51 67.80
  L 63.51 70.94
  A 0.43 0.43 0.0 0 0 63.94 71.37
  L 85.54 71.37
  A 0.43 0.43 0.0 0 0 85.97 70.94
  L 85.97 67.80" stroke="#c49ffe"></path>
</g>
<path d="M 0.00 0.00
  L 95.00 0.00
  L 95.00 95.00
  L 0.00 95.00
  L 0.00 0.00
  Z
  M 22.12 36.24
  A 0.23 0.23 0.0 0 1 22.57 36.16
  L 32.28 63.49
  A 0.78 0.77 -9.2 0 0 33.00 64.00
  L 38.67 64.00
  Q 39.33 64.00 39.56 63.38
  L 49.11 37.33
  Q 49.99 34.93 49.97 37.49
  L 49.73 63.74
  A 0.26 0.26 0.0 0 0 49.99 64.00
  L 59.00 64.00
  A 0.25 0.25 0.0 0 0 59.25 63.75
  L 59.25 24.23
  Q 59.25 23.61 58.64 23.61
  L 45.84 23.61
  Q 45.24 23.61 45.05 24.18
  L 36.65 48.72
  Q 36.28 49.81 35.90 48.72
  L 27.21 24.17
  Q 27.01 23.61 26.42 23.61
  L 13.75 23.61
  Q 13.12 23.61 13.12 24.25
  L 13.12 63.65
  A 0.35 0.35 0.0 0 0 13.47 64.00
  L 22.00 64.00
  A 0.34 0.34 0.0 0 0 22.34 63.66
  L 22.12 36.24
  Z
  M 85.97 67.80
  A 0.43 0.43 0.0 0 0 85.54 67.37
  L 63.94 67.37
  A 0.43 0.43 0.0 0 0 63.51 67.80
  L 63.51 70.94
  A 0.43 0.43 0.0 0 0 63.94 71.37
  L 85.54 71.37
  A 0.43 0.43 0.0 0 0 85.97 70.94
  L 85.97 67.80
  Z" fill="#ffffff"></path>
<path d="M 22.12 36.24
  L 22.34 63.66
  A 0.34 0.34 0.0 0 1 22.00 64.00
  L 13.47 64.00
  A 0.35 0.35 0.0 0 1 13.12 63.65
  L 13.12 24.25
  Q 13.12 23.61 13.75 23.61
  L 26.42 23.61
  Q 27.01 23.61 27.21 24.17
  L 35.90 48.72
  Q 36.28 49.81 36.65 48.72
  L 45.05 24.18
  Q 45.24 23.61 45.84 23.61
  L 58.64 23.61
  Q 59.25 23.61 59.25 24.23
  L 59.25 63.75
  A 0.25 0.25 0.0 0 1 59.00 64.00
  L 49.99 64.00
  A 0.26 0.26 0.0 0 1 49.73 63.74
  L 49.97 37.49
  Q 49.99 34.93 49.11 37.33
  L 39.56 63.38
  Q 39.33 64.00 38.67 64.00
  L 33.00 64.00
  A 0.78 0.77 -9.2 0 1 32.28 63.49
  L 22.57 36.16
  A 0.23 0.23 0.0 0 0 22.12 36.24
  Z" fill="#2e2e2e"></path>
<rect rx="0.43" height="4.00" width="22.46" y="67.37" x="63.51" fill="#893efc"></rect>
</svg>
