<svg viewBox="0.00 0.00 128.00 128.00" version="1.1" xmlns="http://www.w3.org/2000/svg">
<g stroke-linecap="butt" fill="none" stroke-width="2.00">
<path d="M 47.80 67.62
  L 46.15 69.39
  Q 45.82 69.76 46.17 70.10
  L 47.82 71.75" stroke="#82869c"></path>
<path d="M 47.82 71.75
  L 47.49 90.02
  A 0.62 0.61 -14.6 0 0 48.42 90.56
  L 73.36 75.84" stroke="#036c87"></path>
<path d="M 73.36 75.84
  L 74.44 78.32
  Q 74.79 79.13 75.10 78.31
  L 76.80 73.84" stroke="#82869c"></path>
<path d="M 76.80 73.84
  L 90.97 65.39
  A 0.94 0.94 0.0 0 0 90.99 63.78
  L 48.30 36.93
  A 0.52 0.51 -73.9 0 0 47.51 37.37
  Q 47.53 52.22 47.40 67.01
  Q 47.40 67.34 47.80 67.62" stroke="#036c87"></path>
<path d="M 76.80 73.84
  C 77.53 70.64 80.53 69.16 82.84 67.20
  Q 83.24 66.86 82.85 66.52
  C 81.00 64.91 78.17 63.24 77.22 61.01
  Q 76.04 58.27 75.14 55.88
  Q 74.61 54.50 74.12 55.89
  C 73.30 58.21 72.19 62.08 70.10 63.61
  Q 68.23 64.97 66.39 66.52
  Q 65.97 66.87 66.40 67.21
  C 69.63 69.75 72.27 71.17 73.36 75.84" stroke="#80e5eb"></path>
<path d="M 47.82 71.75
  Q 48.81 72.86 49.21 74.22
  Q 49.80 76.23 50.51 74.26
  Q 51.50 71.54 53.88 69.99
  A 0.33 0.33 0.0 0 0 53.88 69.44
  Q 51.54 67.89 50.56 65.22
  Q 49.77 63.04 49.24 65.18
  Q 48.92 66.44 47.80 67.62" stroke="#80e5eb"></path>
<path d="M 57.71 62.06
  Q 58.24 63.27 58.55 61.98
  Q 59.61 57.53 63.53 55.18
  A 0.47 0.47 0.0 0 0 63.53 54.38
  Q 59.83 52.16 58.64 47.96
  Q 57.98 45.63 57.35 47.96
  Q 56.23 52.12 52.56 54.28
  A 0.54 0.53 -46.5 0 0 52.58 55.21
  Q 55.36 56.69 57.71 62.06" stroke="#80e5eb"></path>
</g>
<path d="M 12.30 0.00
  L 115.79 0.00
  C 123.15 2.00 127.05 9.46 128.00 16.65
  L 128.00 111.26
  C 126.94 118.85 122.71 126.86 114.47 128.00
  L 13.19 128.00
  C 4.86 126.25 1.22 119.00 0.00 111.18
  L 0.00 16.65
  C 1.07 9.31 4.72 2.05 12.30 0.00
  Z
  M 47.80 67.62
  L 46.15 69.39
  Q 45.82 69.76 46.17 70.10
  L 47.82 71.75
  L 47.49 90.02
  A 0.62 0.61 -14.6 0 0 48.42 90.56
  L 73.36 75.84
  L 74.44 78.32
  Q 74.79 79.13 75.10 78.31
  L 76.80 73.84
  L 90.97 65.39
  A 0.94 0.94 0.0 0 0 90.99 63.78
  L 48.30 36.93
  A 0.52 0.51 -73.9 0 0 47.51 37.37
  Q 47.53 52.22 47.40 67.01
  Q 47.40 67.34 47.80 67.62
  Z" fill="#040d38"></path>
<path d="M 76.80 73.84
  C 77.53 70.64 80.53 69.16 82.84 67.20
  Q 83.24 66.86 82.85 66.52
  C 81.00 64.91 78.17 63.24 77.22 61.01
  Q 76.04 58.27 75.14 55.88
  Q 74.61 54.50 74.12 55.89
  C 73.30 58.21 72.19 62.08 70.10 63.61
  Q 68.23 64.97 66.39 66.52
  Q 65.97 66.87 66.40 67.21
  C 69.63 69.75 72.27 71.17 73.36 75.84
  L 48.42 90.56
  A 0.62 0.61 -14.6 0 1 47.49 90.02
  L 47.82 71.75
  Q 48.81 72.86 49.21 74.22
  Q 49.80 76.23 50.51 74.26
  Q 51.50 71.54 53.88 69.99
  A 0.33 0.33 0.0 0 0 53.88 69.44
  Q 51.54 67.89 50.56 65.22
  Q 49.77 63.04 49.24 65.18
  Q 48.92 66.44 47.80 67.62
  Q 47.40 67.34 47.40 67.01
  Q 47.53 52.22 47.51 37.37
  A 0.52 0.51 -73.9 0 1 48.30 36.93
  L 90.99 63.78
  A 0.94 0.94 0.0 0 1 90.97 65.39
  L 76.80 73.84
  Z
  M 57.71 62.06
  Q 58.24 63.27 58.55 61.98
  Q 59.61 57.53 63.53 55.18
  A 0.47 0.47 0.0 0 0 63.53 54.38
  Q 59.83 52.16 58.64 47.96
  Q 57.98 45.63 57.35 47.96
  Q 56.23 52.12 52.56 54.28
  A 0.54 0.53 -46.5 0 0 52.58 55.21
  Q 55.36 56.69 57.71 62.06
  Z" fill="#01cbd6"></path>
<path d="M 57.71 62.06
  Q 55.36 56.69 52.58 55.21
  A 0.54 0.53 -46.5 0 1 52.56 54.28
  Q 56.23 52.12 57.35 47.96
  Q 57.98 45.63 58.64 47.96
  Q 59.83 52.16 63.53 54.38
  A 0.47 0.47 0.0 0 1 63.53 55.18
  Q 59.61 57.53 58.55 61.98
  Q 58.24 63.27 57.71 62.06
  Z" fill="#ffffff"></path>
<path d="M 76.80 73.84
  L 75.10 78.31
  Q 74.79 79.13 74.44 78.32
  L 73.36 75.84
  C 72.27 71.17 69.63 69.75 66.40 67.21
  Q 65.97 66.87 66.39 66.52
  Q 68.23 64.97 70.10 63.61
  C 72.19 62.08 73.30 58.21 74.12 55.89
  Q 74.61 54.50 75.14 55.88
  Q 76.04 58.27 77.22 61.01
  C 78.17 63.24 81.00 64.91 82.85 66.52
  Q 83.24 66.86 82.84 67.20
  C 80.53 69.16 77.53 70.64 76.80 73.84
  Z" fill="#ffffff"></path>
<path d="M 47.82 71.75
  L 46.17 70.10
  Q 45.82 69.76 46.15 69.39
  L 47.80 67.62
  Q 48.92 66.44 49.24 65.18
  Q 49.77 63.04 50.56 65.22
  Q 51.54 67.89 53.88 69.44
  A 0.33 0.33 0.0 0 1 53.88 69.99
  Q 51.50 71.54 50.51 74.26
  Q 49.80 76.23 49.21 74.22
  Q 48.81 72.86 47.82 71.75
  Z" fill="#ffffff"></path>
</svg>
