<svg viewBox="0.00 0.00 256.00 256.00" version="1.1" xmlns="http://www.w3.org/2000/svg">
<g stroke-linecap="butt" fill="none" stroke-width="2.00">
<path d="M 211.45 95.44
  A 29.46 29.46 0.0 0 0 193.60 57.79
  L 140.13 38.73
  A 29.46 29.46 0.0 0 0 102.49 56.58
  L 65.79 159.43
  A 29.46 29.46 0.0 0 0 83.63 197.07
  L 137.09 216.16
  A 29.46 29.46 0.0 0 0 174.74 198.31
  L 211.45 95.44" stroke="#80acff"></path>
<path d="M 65.45 75.61
  C 69.37 72.25 78.21 71.55 83.75 70.69
  A 0.75 0.75 0.0 0 0 84.34 70.20
  L 90.21 53.74
  Q 90.39 53.23 89.86 53.32
  Q 80.93 54.84 72.03 56.45
  Q 64.71 57.78 61.67 59.14
  C 53.72 62.72 47.87 70.55 46.61 79.08
  Q 45.96 83.49 47.71 93.33
  Q 52.35 119.49 56.95 145.37
  Q 57.14 146.46 57.52 145.42
  Q 62.44 131.74 67.32 117.76
  Q 68.01 115.77 67.63 113.69
  Q 65.02 99.33 62.50 85.00
  Q 61.45 79.04 65.45 75.61" stroke="#80acff"></path>
<path d="M 82.62 165.44
  A 11.59 11.59 0.0 0 0 89.64 180.25
  L 143.10 199.32
  A 11.59 11.59 0.0 0 0 157.91 192.30
  L 194.64 89.46
  A 11.59 11.59 0.0 0 0 187.62 74.64
  L 134.14 55.56
  A 11.59 11.59 0.0 0 0 119.33 62.58
  L 82.62 165.44" stroke="#80acff"></path>
<path d="M 123.17 135.05
  Q 122.71 143.05 122.28 151.03
  C 122.04 155.36 122.95 158.83 127.27 160.06
  C 129.74 160.76 133.13 159.96 134.64 157.89
  Q 140.12 150.37 145.37 143.11
  A 1.24 1.23 19.1 0 1 146.43 142.60
  Q 154.46 143.02 162.09 143.48
  Q 165.72 143.70 167.36 143.08
  C 172.68 141.05 172.98 133.86 168.44 130.57
  Q 161.39 125.45 154.28 120.30
  A 0.95 0.94 19.5 0 1 153.89 119.50
  Q 154.34 110.82 154.85 102.12
  C 155.28 94.80 146.42 91.00 142.15 96.92
  Q 136.92 104.16 131.60 111.45
  Q 131.30 111.86 130.79 111.84
  Q 121.84 111.39 112.87 110.97
  C 107.39 110.72 103.56 116.50 106.12 121.14
  Q 106.99 122.72 110.50 125.24
  Q 116.68 129.67 122.78 134.22
  A 0.96 0.96 0.0 0 1 123.17 135.05" stroke="#80acff"></path>
<path d="M 139.5372 124.9700
  A 0.27 0.27 0.0 0 0 139.1768 124.8438
  L 136.2213 126.2662
  A 0.27 0.27 0.0 0 0 136.0951 126.6266
  L 137.4828 129.5100
  A 0.27 0.27 0.0 0 0 137.8432 129.6362
  L 140.7987 128.2138
  A 0.27 0.27 0.0 0 0 140.9249 127.8534
  L 139.5372 124.9700" stroke="#80acff"></path>
</g>
<path d="M 64.64 0.00
  L 191.49 0.00
  C 226.95 3.24 253.38 29.18 256.00 64.64
  L 256.00 191.47
  C 253.11 226.74 226.67 253.36 191.36 256.00
  L 64.52 256.00
  C 29.21 252.99 2.62 226.74 0.00 191.36
  L 0.00 64.53
  C 2.99 29.23 29.27 2.62 64.64 0.00
  Z
  M 211.45 95.44
  A 29.46 29.46 0.0 0 0 193.60 57.79
  L 140.13 38.73
  A 29.46 29.46 0.0 0 0 102.49 56.58
  L 65.79 159.43
  A 29.46 29.46 0.0 0 0 83.63 197.07
  L 137.09 216.16
  A 29.46 29.46 0.0 0 0 174.74 198.31
  L 211.45 95.44
  Z
  M 65.45 75.61
  C 69.37 72.25 78.21 71.55 83.75 70.69
  A 0.75 0.75 0.0 0 0 84.34 70.20
  L 90.21 53.74
  Q 90.39 53.23 89.86 53.32
  Q 80.93 54.84 72.03 56.45
  Q 64.71 57.78 61.67 59.14
  C 53.72 62.72 47.87 70.55 46.61 79.08
  Q 45.96 83.49 47.71 93.33
  Q 52.35 119.49 56.95 145.37
  Q 57.14 146.46 57.52 145.42
  Q 62.44 131.74 67.32 117.76
  Q 68.01 115.77 67.63 113.69
  Q 65.02 99.33 62.50 85.00
  Q 61.45 79.04 65.45 75.61
  Z" fill="#0059ff"></path>
<path d="M 211.45 95.44
  L 174.74 198.31
  A 29.46 29.46 0.0 0 1 137.09 216.16
  L 83.63 197.07
  A 29.46 29.46 0.0 0 1 65.79 159.43
  L 102.49 56.58
  A 29.46 29.46 0.0 0 1 140.13 38.73
  L 193.60 57.79
  A 29.46 29.46 0.0 0 1 211.45 95.44
  Z
  M 82.62 165.44
  A 11.59 11.59 0.0 0 0 89.64 180.25
  L 143.10 199.32
  A 11.59 11.59 0.0 0 0 157.91 192.30
  L 194.64 89.46
  A 11.59 11.59 0.0 0 0 187.62 74.64
  L 134.14 55.56
  A 11.59 11.59 0.0 0 0 119.33 62.58
  L 82.62 165.44
  Z" fill="#ffffff"></path>
<path d="M 65.45 75.61
  Q 61.45 79.04 62.50 85.00
  Q 65.02 99.33 67.63 113.69
  Q 68.01 115.77 67.32 117.76
  Q 62.44 131.74 57.52 145.42
  Q 57.14 146.46 56.95 145.37
  Q 52.35 119.49 47.71 93.33
  Q 45.96 83.49 46.61 79.08
  C 47.87 70.55 53.72 62.72 61.67 59.14
  Q 64.71 57.78 72.03 56.45
  Q 80.93 54.84 89.86 53.32
  Q 90.39 53.23 90.21 53.74
  L 84.34 70.20
  A 0.75 0.75 0.0 0 1 83.75 70.69
  C 78.21 71.55 69.37 72.25 65.45 75.61
  Z" fill="#ffffff"></path>
<path d="M 82.62 165.44
  L 119.33 62.58
  A 11.59 11.59 0.0 0 1 134.14 55.56
  L 187.62 74.64
  A 11.59 11.59 0.0 0 1 194.64 89.46
  L 157.91 192.30
  A 11.59 11.59 0.0 0 1 143.10 199.32
  L 89.64 180.25
  A 11.59 11.59 0.0 0 1 82.62 165.44
  Z
  M 123.17 135.05
  Q 122.71 143.05 122.28 151.03
  C 122.04 155.36 122.95 158.83 127.27 160.06
  C 129.74 160.76 133.13 159.96 134.64 157.89
  Q 140.12 150.37 145.37 143.11
  A 1.24 1.23 19.1 0 1 146.43 142.60
  Q 154.46 143.02 162.09 143.48
  Q 165.72 143.70 167.36 143.08
  C 172.68 141.05 172.98 133.86 168.44 130.57
  Q 161.39 125.45 154.28 120.30
  A 0.95 0.94 19.5 0 1 153.89 119.50
  Q 154.34 110.82 154.85 102.12
  C 155.28 94.80 146.42 91.00 142.15 96.92
  Q 136.92 104.16 131.60 111.45
  Q 131.30 111.86 130.79 111.84
  Q 121.84 111.39 112.87 110.97
  C 107.39 110.72 103.56 116.50 106.12 121.14
  Q 106.99 122.72 110.50 125.24
  Q 116.68 129.67 122.78 134.22
  A 0.96 0.96 0.0 0 1 123.17 135.05
  Z" fill="#0059ff"></path>
<path d="M 122.78 134.22
  Q 116.68 129.67 110.50 125.24
  Q 106.99 122.72 106.12 121.14
  C 103.56 116.50 107.39 110.72 112.87 110.97
  Q 121.84 111.39 130.79 111.84
  Q 131.30 111.86 131.60 111.45
  Q 136.92 104.16 142.15 96.92
  C 146.42 91.00 155.28 94.80 154.85 102.12
  Q 154.34 110.82 153.89 119.50
  A 0.95 0.94 19.5 0 0 154.28 120.30
  Q 161.39 125.45 168.44 130.57
  C 172.98 133.86 172.68 141.05 167.36 143.08
  Q 165.72 143.70 162.09 143.48
  Q 154.46 143.02 146.43 142.60
  A 1.24 1.23 19.1 0 0 145.37 143.11
  Q 140.12 150.37 134.64 157.89
  C 133.13 159.96 129.74 160.76 127.27 160.06
  C 122.95 158.83 122.04 155.36 122.28 151.03
  Q 122.71 143.05 123.17 135.05
  A 0.96 0.96 0.0 0 0 122.78 134.22
  Z
  M 139.5372 124.9700
  A 0.27 0.27 0.0 0 0 139.1768 124.8438
  L 136.2213 126.2662
  A 0.27 0.27 0.0 0 0 136.0951 126.6266
  L 137.4828 129.5100
  A 0.27 0.27 0.0 0 0 137.8432 129.6362
  L 140.7987 128.2138
  A 0.27 0.27 0.0 0 0 140.9249 127.8534
  L 139.5372 124.9700
  Z" fill="#ffffff"></path>
<rect rx="0.27" height="3.74" width="3.82" transform="translate(138.51,127.24) rotate(-25.7)" y="-1.87" x="-1.91" fill="#0059ff"></rect>
</svg>
