<svg viewBox="0.00 0.00 256.00 256.00" version="1.1" xmlns="http://www.w3.org/2000/svg">
<g stroke-linecap="butt" fill="none" stroke-width="2.00">
<path d="M 83.73 95.89
  L 64.31 134.96" stroke="#c49feb"></path>
<path d="M 64.31 134.96
  Q 61.51 145.85 67.50 153.79
  Q 74.63 163.24 87.24 162.11
  Q 87.91 162.05 87.60 162.65
  C 82.04 173.70 73.86 182.90 80.91 194.89
  C 86.09 203.67 96.85 208.37 106.63 204.28
  Q 110.42 202.69 117.69 196.27
  Q 148.32 169.23 179.13 142.38
  C 185.07 137.20 188.72 132.04 188.78 123.93" stroke="#bc9aed"></path>
<path d="M 188.78 123.93
  Q 187.38 108.06 172.37 103.95
  C 171.33 103.67 169.95 103.77 168.74 103.53
  Q 168.14 103.41 168.50 102.91
  L 174.57 94.33" stroke="#c49feb"></path>
<path d="M 174.57 94.33
  Q 179.85 87.97 181.61 83.55
  C 185.55 73.65 180.10 60.90 169.92 56.95
  Q 166.23 55.52 158.40 55.51
  Q 139.13 55.50 119.84 55.50
  C 112.57 55.50 107.59 56.28 102.58 60.87
  Q 99.63 63.57 95.49 71.90
  Q 89.54 83.86 83.73 95.89" stroke="#cba3e9"></path>
<path d="M 174.57 94.33
  Q 173.95 93.63 173.07 93.97
  Q 172.87 94.05 172.89 94.27
  Q 172.92 94.51 172.57 94.57
  Q 172.16 94.64 172.10 94.24
  Q 172.06 93.95 171.77 93.89
  Q 171.56 93.85 171.38 93.94
  Q 171.02 94.12 170.91 94.47
  A 0.41 0.41 0.0 0 1 170.18 94.57
  Q 169.47 93.45 168.25 94.02
  Q 167.90 94.18 167.89 94.56
  Q 167.89 94.74 167.62 94.88
  Q 167.46 94.96 167.39 94.80
  Q 166.82 93.64 165.76 93.90
  Q 165.28 94.02 164.95 94.38
  Q 164.53 94.83 163.76 94.80
  Q 163.21 94.78 162.96 94.31
  Q 162.73 93.89 162.25 93.89
  L 158.70 93.89
  Q 158.27 93.89 158.02 94.23
  Q 157.92 94.37 157.89 94.55
  A 0.29 0.29 0.0 0 1 157.39 94.69
  Q 156.03 93.17 153.99 93.90" stroke="#a15ad4"></path>
<path d="M 153.99 93.90
  Q 159.33 86.35 164.77 78.88
  C 167.79 74.73 164.13 72.50 160.20 72.50
  Q 138.15 72.49 116.61 72.51
  A 3.92 3.92 0.0 0 0 113.10 74.69
  L 102.61 96.00" stroke="#cba3e9"></path>
<path d="M 102.61 96.00
  L 93.51 95.93
  Q 92.88 95.92 92.88 96.55
  L 92.88 97.03
  Q 92.89 97.95 92.11 97.46
  Q 91.33 96.97 90.97 96.32
  A 0.85 0.82 75.3 0 0 90.24 95.88
  L 83.73 95.89" stroke="#a15ad4"></path>
<path d="M 80.98 139.58
  Q 80.23 138.54 78.42 137.50
  Q 77.28 136.85 75.96 136.85
  Q 74.56 136.85 73.17 137.04
  Q 72.70 137.11 72.33 136.81
  Q 72.07 136.59 71.94 136.23
  A 0.45 0.45 0.0 0 0 71.24 136.02
  Q 70.72 136.43 70.91 137.08
  Q 70.93 137.13 70.88 137.13
  L 70.49 137.13
  Q 70.15 137.13 69.87 137.30
  Q 68.61 138.04 65.93 137.48
  Q 64.86 137.26 65.26 136.24
  Q 65.46 135.72 64.31 134.96" stroke="#9250d9"></path>
<path d="M 153.99 93.90
  Q 146.84 103.79 139.71 113.74
  C 136.79 117.81 138.81 120.63 143.57 120.63
  Q 155.29 120.64 167.00 120.65
  Q 170.75 120.65 171.60 123.50" stroke="#c49feb"></path>
<path d="M 171.60 123.50
  Q 171.88 125.81 170.64 126.89
  Q 136.88 156.59 103.14 186.32
  Q 101.05 188.17 99.84 188.46
  C 97.01 189.14 94.37 185.97 95.97 183.05
  Q 104.70 167.02 113.57 151.07
  C 115.91 146.87 112.52 145.14 108.85 145.13
  Q 97.77 145.11 86.69 145.14
  C 82.82 145.15 79.32 144.60 80.98 139.58" stroke="#bc9aed"></path>
<path d="M 80.98 139.58
  L 102.61 96.00" stroke="#c49feb"></path>
<path d="M 188.78 123.93
  Q 187.17 122.80 184.45 123.00
  Q 183.93 123.04 183.89 122.52
  Q 183.87 122.31 183.71 122.19
  Q 183.62 122.11 183.50 122.12
  Q 183.04 122.18 183.12 122.74
  A 0.34 0.34 0.0 0 1 182.77 123.13
  Q 182.14 123.12 181.93 122.59
  Q 181.74 122.12 181.23 122.12
  L 179.51 122.12
  Q 178.94 122.12 179.10 122.67
  Q 179.27 123.27 178.84 123.66
  A 0.51 0.50 -39.3 0 1 178.09 123.59
  Q 177.73 123.09 177.90 122.47
  Q 178.06 121.86 177.49 122.11
  Q 177.10 122.27 177.01 122.68
  A 0.55 0.55 0.0 0 1 176.47 123.12
  L 175.67 123.12
  A 0.74 0.74 0.0 0 1 174.97 122.62
  Q 174.69 121.85 173.75 122.14
  Q 173.30 122.28 173.03 122.68
  Q 172.57 123.38 171.60 123.50" stroke="#9250d9"></path>
</g>
<path d="M 94.88 0.00
  L 160.49 0.00
  C 180.61 0.69 203.52 0.70 219.88 9.37
  C 236.95 18.42 249.40 35.24 252.75 54.61
  C 255.05 67.96 255.34 81.38 256.00 94.88
  L 256.00 160.99
  C 255.46 174.78 255.05 187.96 252.48 201.99
  C 248.31 224.81 231.86 244.22 209.47 250.62
  C 193.89 255.07 177.23 255.51 161.11 256.00
  L 94.76 256.00
  C 67.05 254.77 38.76 255.45 18.27 232.70
  C 0.12 212.53 1.20 185.73 0.00 159.87
  L 0.00 95.75
  C 0.72 82.90 0.86 70.26 2.74 57.48
  Q 6.86 29.39 30.01 13.27
  C 48.65 0.30 73.22 0.98 94.88 0.00
  Z
  M 83.73 95.89
  L 64.31 134.96
  Q 61.51 145.85 67.50 153.79
  Q 74.63 163.24 87.24 162.11
  Q 87.91 162.05 87.60 162.65
  C 82.04 173.70 73.86 182.90 80.91 194.89
  C 86.09 203.67 96.85 208.37 106.63 204.28
  Q 110.42 202.69 117.69 196.27
  Q 148.32 169.23 179.13 142.38
  C 185.07 137.20 188.72 132.04 188.78 123.93
  Q 187.38 108.06 172.37 103.95
  C 171.33 103.67 169.95 103.77 168.74 103.53
  Q 168.14 103.41 168.50 102.91
  L 174.57 94.33
  Q 179.85 87.97 181.61 83.55
  C 185.55 73.65 180.10 60.90 169.92 56.95
  Q 166.23 55.52 158.40 55.51
  Q 139.13 55.50 119.84 55.50
  C 112.57 55.50 107.59 56.28 102.58 60.87
  Q 99.63 63.57 95.49 71.90
  Q 89.54 83.86 83.73 95.89
  Z" fill="#eee8ff"></path>
<path d="M 174.57 94.33
  Q 173.95 93.63 173.07 93.97
  Q 172.87 94.05 172.89 94.27
  Q 172.92 94.51 172.57 94.57
  Q 172.16 94.64 172.10 94.24
  Q 172.06 93.95 171.77 93.89
  Q 171.56 93.85 171.38 93.94
  Q 171.02 94.12 170.91 94.47
  A 0.41 0.41 0.0 0 1 170.18 94.57
  Q 169.47 93.45 168.25 94.02
  Q 167.90 94.18 167.89 94.56
  Q 167.89 94.74 167.62 94.88
  Q 167.46 94.96 167.39 94.80
  Q 166.82 93.64 165.76 93.90
  Q 165.28 94.02 164.95 94.38
  Q 164.53 94.83 163.76 94.80
  Q 163.21 94.78 162.96 94.31
  Q 162.73 93.89 162.25 93.89
  L 158.70 93.89
  Q 158.27 93.89 158.02 94.23
  Q 157.92 94.37 157.89 94.55
  A 0.29 0.29 0.0 0 1 157.39 94.69
  Q 156.03 93.17 153.99 93.90
  Q 159.33 86.35 164.77 78.88
  C 167.79 74.73 164.13 72.50 160.20 72.50
  Q 138.15 72.49 116.61 72.51
  A 3.92 3.92 0.0 0 0 113.10 74.69
  L 102.61 96.00
  L 93.51 95.93
  Q 92.88 95.92 92.88 96.55
  L 92.88 97.03
  Q 92.89 97.95 92.11 97.46
  Q 91.33 96.97 90.97 96.32
  A 0.85 0.82 75.3 0 0 90.24 95.88
  L 83.73 95.89
  Q 89.54 83.86 95.49 71.90
  Q 99.63 63.57 102.58 60.87
  C 107.59 56.28 112.57 55.50 119.84 55.50
  Q 139.13 55.50 158.40 55.51
  Q 166.23 55.52 169.92 56.95
  C 180.10 60.90 185.55 73.65 181.61 83.55
  Q 179.85 87.97 174.57 94.33
  Z" fill="#a85ed2"></path>
<path d="M 153.99 93.90
  Q 146.84 103.79 139.71 113.74
  C 136.79 117.81 138.81 120.63 143.57 120.63
  Q 155.29 120.64 167.00 120.65
  Q 170.75 120.65 171.60 123.50
  Q 171.88 125.81 170.64 126.89
  Q 136.88 156.59 103.14 186.32
  Q 101.05 188.17 99.84 188.46
  C 97.01 189.14 94.37 185.97 95.97 183.05
  Q 104.70 167.02 113.57 151.07
  C 115.91 146.87 112.52 145.14 108.85 145.13
  Q 97.77 145.11 86.69 145.14
  C 82.82 145.15 79.32 144.60 80.98 139.58
  L 102.61 96.00
  L 113.10 74.69
  A 3.92 3.92 0.0 0 1 116.61 72.51
  Q 138.15 72.49 160.20 72.50
  C 164.13 72.50 167.79 74.73 164.77 78.88
  Q 159.33 86.35 153.99 93.90
  Z" fill="#eee8ff"></path>
<path d="M 174.57 94.33
  L 168.50 102.91
  Q 168.14 103.41 168.74 103.53
  C 169.95 103.77 171.33 103.67 172.37 103.95
  Q 187.38 108.06 188.78 123.93
  Q 187.17 122.80 184.45 123.00
  Q 183.93 123.04 183.89 122.52
  Q 183.87 122.31 183.71 122.19
  Q 183.62 122.11 183.50 122.12
  Q 183.04 122.18 183.12 122.74
  A 0.34 0.34 0.0 0 1 182.77 123.13
  Q 182.14 123.12 181.93 122.59
  Q 181.74 122.12 181.23 122.12
  L 179.51 122.12
  Q 178.94 122.12 179.10 122.67
  Q 179.27 123.27 178.84 123.66
  A 0.51 0.50 -39.3 0 1 178.09 123.59
  Q 177.73 123.09 177.90 122.47
  Q 178.06 121.86 177.49 122.11
  Q 177.10 122.27 177.01 122.68
  A 0.55 0.55 0.0 0 1 176.47 123.12
  L 175.67 123.12
  A 0.74 0.74 0.0 0 1 174.97 122.62
  Q 174.69 121.85 173.75 122.14
  Q 173.30 122.28 173.03 122.68
  Q 172.57 123.38 171.60 123.50
  Q 170.75 120.65 167.00 120.65
  Q 155.29 120.64 143.57 120.63
  C 138.81 120.63 136.79 117.81 139.71 113.74
  Q 146.84 103.79 153.99 93.90
  Q 156.03 93.17 157.39 94.69
  A 0.29 0.29 0.0 0 0 157.89 94.55
  Q 157.92 94.37 158.02 94.23
  Q 158.27 93.89 158.70 93.89
  L 162.25 93.89
  Q 162.73 93.89 162.96 94.31
  Q 163.21 94.78 163.76 94.80
  Q 164.53 94.83 164.95 94.38
  Q 165.28 94.02 165.76 93.90
  Q 166.82 93.64 167.39 94.80
  Q 167.46 94.96 167.62 94.88
  Q 167.89 94.74 167.89 94.56
  Q 167.90 94.18 168.25 94.02
  Q 169.47 93.45 170.18 94.57
  A 0.41 0.41 0.0 0 0 170.91 94.47
  Q 171.02 94.12 171.38 93.94
  Q 171.56 93.85 171.77 93.89
  Q 172.06 93.95 172.10 94.24
  Q 172.16 94.64 172.57 94.57
  Q 172.92 94.51 172.89 94.27
  Q 172.87 94.05 173.07 93.97
  Q 173.95 93.63 174.57 94.33
  Z" fill="#9a55d6"></path>
<path d="M 83.73 95.89
  L 90.24 95.88
  A 0.85 0.82 75.3 0 1 90.97 96.32
  Q 91.33 96.97 92.11 97.46
  Q 92.89 97.95 92.88 97.03
  L 92.88 96.55
  Q 92.88 95.92 93.51 95.93
  L 102.61 96.00
  L 80.98 139.58
  Q 80.23 138.54 78.42 137.50
  Q 77.28 136.85 75.96 136.85
  Q 74.56 136.85 73.17 137.04
  Q 72.70 137.11 72.33 136.81
  Q 72.07 136.59 71.94 136.23
  A 0.45 0.45 0.0 0 0 71.24 136.02
  Q 70.72 136.43 70.91 137.08
  Q 70.93 137.13 70.88 137.13
  L 70.49 137.13
  Q 70.15 137.13 69.87 137.30
  Q 68.61 138.04 65.93 137.48
  Q 64.86 137.26 65.26 136.24
  Q 65.46 135.72 64.31 134.96
  L 83.73 95.89
  Z" fill="#9a55d6"></path>
<path d="M 188.78 123.93
  C 188.72 132.04 185.07 137.20 179.13 142.38
  Q 148.32 169.23 117.69 196.27
  Q 110.42 202.69 106.63 204.28
  C 96.85 208.37 86.09 203.67 80.91 194.89
  C 73.86 182.90 82.04 173.70 87.60 162.65
  Q 87.91 162.05 87.24 162.11
  Q 74.63 163.24 67.50 153.79
  Q 61.51 145.85 64.31 134.96
  Q 65.46 135.72 65.26 136.24
  Q 64.86 137.26 65.93 137.48
  Q 68.61 138.04 69.87 137.30
  Q 70.15 137.13 70.49 137.13
  L 70.88 137.13
  Q 70.93 137.13 70.91 137.08
  Q 70.72 136.43 71.24 136.02
  A 0.45 0.45 0.0 0 1 71.94 136.23
  Q 72.07 136.59 72.33 136.81
  Q 72.70 137.11 73.17 137.04
  Q 74.56 136.85 75.96 136.85
  Q 77.28 136.85 78.42 137.50
  Q 80.23 138.54 80.98 139.58
  C 79.32 144.60 82.82 145.15 86.69 145.14
  Q 97.77 145.11 108.85 145.13
  C 112.52 145.14 115.91 146.87 113.57 151.07
  Q 104.70 167.02 95.97 183.05
  C 94.37 185.97 97.01 189.14 99.84 188.46
  Q 101.05 188.17 103.14 186.32
  Q 136.88 156.59 170.64 126.89
  Q 171.88 125.81 171.60 123.50
  Q 172.57 123.38 173.03 122.68
  Q 173.30 122.28 173.75 122.14
  Q 174.69 121.85 174.97 122.62
  A 0.74 0.74 0.0 0 0 175.67 123.12
  L 176.47 123.12
  A 0.55 0.55 0.0 0 0 177.01 122.68
  Q 177.10 122.27 177.49 122.11
  Q 178.06 121.86 177.90 122.47
  Q 177.73 123.09 178.09 123.59
  A 0.51 0.50 -39.3 0 0 178.84 123.66
  Q 179.27 123.27 179.10 122.67
  Q 178.94 122.12 179.51 122.12
  L 181.23 122.12
  Q 181.74 122.12 181.93 122.59
  Q 182.14 123.12 182.77 123.13
  A 0.34 0.34 0.0 0 0 183.12 122.74
  Q 183.04 122.18 183.50 122.12
  Q 183.62 122.11 183.71 122.19
  Q 183.87 122.31 183.89 122.52
  Q 183.93 123.04 184.45 123.00
  Q 187.17 122.80 188.78 123.93
  Z" fill="#894bdb"></path>
</svg>
