<svg viewBox="0.00 0.00 100.00 100.00" version="1.1" xmlns="http://www.w3.org/2000/svg">
<path d="M 67.70 32.24
  C 67.55 37.04 66.84 42.27 66.83 46.93
  Q 66.78 62.55 66.81 78.02
  Q 66.81 78.26 67.05 78.26
  L 73.23 78.30
  Q 73.51 78.31 73.51 78.02
  L 73.51 22.29
  Q 73.51 21.82 73.04 21.83
  L 65.36 21.89
  Q 64.84 21.90 64.67 22.38
  L 50.41 63.21
  Q 50.17 63.87 49.94 63.21
  L 35.24 22.13
  A 0.39 0.38 80.3 0 0 34.88 21.87
  L 27.02 21.86
  A 0.38 0.37 0.0 0 0 26.64 22.23
  L 26.65 77.97
  Q 26.65 78.29 26.97 78.29
  L 32.58 78.28
  Q 32.83 78.28 32.84 78.03
  Q 33.38 55.15 32.34 32.29
  Q 32.24 30.15 32.97 32.16
  L 47.38 72.08
  Q 47.59 72.67 48.23 72.67
  L 51.69 72.69
  Q 52.35 72.70 52.57 72.08
  L 67.01 32.11
  Q 67.77 29.99 67.70 32.24" stroke-linecap="butt" fill="none" stroke-width="2.00" stroke="#ae9cd5"></path>
<path d="M 8.63 0.00
  L 91.48 0.00
  Q 98.52 1.71 100.00 8.62
  L 100.00 91.49
  Q 98.35 98.52 91.38 100.00
  L 8.50 100.00
  Q 1.57 98.41 0.00 91.37
  L 0.00 8.51
  Q 1.71 1.55 8.63 0.00
  Z
  M 67.70 32.24
  C 67.55 37.04 66.84 42.27 66.83 46.93
  Q 66.78 62.55 66.81 78.02
  Q 66.81 78.26 67.05 78.26
  L 73.23 78.30
  Q 73.51 78.31 73.51 78.02
  L 73.51 22.29
  Q 73.51 21.82 73.04 21.83
  L 65.36 21.89
  Q 64.84 21.90 64.67 22.38
  L 50.41 63.21
  Q 50.17 63.87 49.94 63.21
  L 35.24 22.13
  A 0.39 0.38 80.3 0 0 34.88 21.87
  L 27.02 21.86
  A 0.38 0.37 0.0 0 0 26.64 22.23
  L 26.65 77.97
  Q 26.65 78.29 26.97 78.29
  L 32.58 78.28
  Q 32.83 78.28 32.84 78.03
  Q 33.38 55.15 32.34 32.29
  Q 32.24 30.15 32.97 32.16
  L 47.38 72.08
  Q 47.59 72.67 48.23 72.67
  L 51.69 72.69
  Q 52.35 72.70 52.57 72.08
  L 67.01 32.11
  Q 67.77 29.99 67.70 32.24
  Z" fill="#5d38aa"></path>
<path d="M 67.70 32.24
  Q 67.77 29.99 67.01 32.11
  L 52.57 72.08
  Q 52.35 72.70 51.69 72.69
  L 48.23 72.67
  Q 47.59 72.67 47.38 72.08
  L 32.97 32.16
  Q 32.24 30.15 32.34 32.29
  Q 33.38 55.15 32.84 78.03
  Q 32.83 78.28 32.58 78.28
  L 26.97 78.29
  Q 26.65 78.29 26.65 77.97
  L 26.64 22.23
  A 0.38 0.37 -0.0 0 1 27.02 21.86
  L 34.88 21.87
  A 0.39 0.38 80.3 0 1 35.24 22.13
  L 49.94 63.21
  Q 50.17 63.87 50.41 63.21
  L 64.67 22.38
  Q 64.84 21.90 65.36 21.89
  L 73.04 21.83
  Q 73.51 21.82 73.51 22.29
  L 73.51 78.02
  Q 73.51 78.31 73.23 78.30
  L 67.05 78.26
  Q 66.81 78.26 66.81 78.02
  Q 66.78 62.55 66.83 46.93
  C 66.84 42.27 67.55 37.04 67.70 32.24
  Z" fill="#ffffff"></path>
</svg>
