<svg viewBox="0.00 0.00 180.00 180.00" version="1.1" xmlns="http://www.w3.org/2000/svg">
<path d="M 46.96 27.62
  L 67.53 34.39
  A 0.33 0.33 0.0 0 1 67.53 35.01
  L 46.96 41.78
  A 0.33 0.33 0.0 0 0 46.75 41.99
  L 39.98 62.56
  A 0.33 0.33 0.0 0 1 39.36 62.56
  L 32.59 41.99
  A 0.33 0.33 0.0 0 0 32.38 41.78
  L 11.81 35.01
  A 0.33 0.33 0.0 0 1 11.81 34.39
  L 32.38 27.62
  A 0.33 0.33 0.0 0 0 32.59 27.41
  L 39.36 6.84
  A 0.33 0.33 0.0 0 1 39.98 6.84
  L 46.75 27.41
  A 0.33 0.33 0.0 0 0 46.96 27.62
  Z" fill="#359ff4"></path>
<path d="M 141.60 71.44
  L 177.08 83.19
  A 0.30 0.30 0.0 0 1 177.08 83.75
  L 141.60 95.50
  A 0.30 0.30 0.0 0 0 141.41 95.69
  L 129.66 131.17
  A 0.30 0.30 0.0 0 1 129.10 131.17
  L 117.35 95.69
  A 0.30 0.30 0.0 0 0 117.16 95.50
  L 81.68 83.75
  A 0.30 0.30 0.0 0 1 81.68 83.19
  L 117.16 71.44
  A 0.30 0.30 0.0 0 0 117.35 71.25
  L 129.10 35.77
  A 0.30 0.30 0.0 0 1 129.66 35.77
  L 141.41 71.25
  A 0.30 0.30 0.0 0 0 141.60 71.44
  Z" fill="#359ff4"></path>
<path d="M 49.26 127.20
  L 76.38 136.28
  A 0.30 0.30 0.0 0 1 76.38 136.84
  L 49.26 145.92
  A 0.30 0.30 0.0 0 0 49.07 146.11
  L 39.99 173.23
  A 0.30 0.30 0.0 0 1 39.43 173.23
  L 30.35 146.11
  A 0.30 0.30 0.0 0 0 30.16 145.92
  L 3.04 136.84
  A 0.30 0.30 0.0 0 1 3.04 136.28
  L 30.16 127.20
  A 0.30 0.30 0.0 0 0 30.35 127.01
  L 39.43 99.89
  A 0.30 0.30 0.0 0 1 39.99 99.89
  L 49.07 127.01
  A 0.30 0.30 0.0 0 0 49.26 127.20
  Z" fill="#359ff4"></path>
</svg>
