<svg viewBox="0.00 0.00 20.00 20.00" version="1.1" xmlns="http://www.w3.org/2000/svg">
<g stroke-linecap="butt" fill="none" stroke-width="2.00">
<path d="M 12.62 15.07
  C 13.24 13.38 13.07 11.53 13.59 9.99
  C 14.17 8.30 15.24 6.74 14.87 4.92
  C 13.71 -0.78 5.10 0.12 5.02 5.24
  C 4.99 7.67 7.12 10.06 7.48 12.97
  C 7.66 14.45 8.46 15.46 8.19 17.11
  A 0.90 0.88 -68.8 0 0 8.56 17.97
  L 9.88 18.87
  A 1.98 1.65 -83.8 0 0 12.33 16.51
  Q 12.24 16.11 12.62 15.07" stroke="#8ea7eb"></path>
<path d="M 6.91 8.09
  Q 7.86 9.62 8.05 11.89
  Q 8.12 12.73 8.97 12.74
  L 11.79 12.75
  Q 12.59 12.76 12.49 11.95
  C 12.17 9.40 14.98 6.62 13.86 4.17
  C 11.90 -0.13 3.21 2.13 6.91 8.09" stroke="#8ea7eb"></path>
<path d="M 9.74 5.21
  Q 9.05 5.49 9.78 5.64
  Q 10.60 5.80 11.53 5.67
  A 0.19 0.19 0.0 0 0 11.61 5.32
  Q 10.76 4.80 9.74 5.21" stroke="#8ea7eb"></path>
<path d="M 9.04 7.92
  Q 8.19 8.17 9.06 8.37
  Q 10.29 8.65 11.45 7.72
  Q 12.43 6.94 11.23 7.29
  L 9.04 7.92" stroke="#8ea7eb"></path>
</g>
<path d="M 0.00 0.00
  L 20.00 0.00
  L 20.00 20.00
  L 0.00 20.00
  L 0.00 0.00
  Z
  M 12.62 15.07
  C 13.24 13.38 13.07 11.53 13.59 9.99
  C 14.17 8.30 15.24 6.74 14.87 4.92
  C 13.71 -0.78 5.10 0.12 5.02 5.24
  C 4.99 7.67 7.12 10.06 7.48 12.97
  C 7.66 14.45 8.46 15.46 8.19 17.11
  A 0.90 0.88 -68.8 0 0 8.56 17.97
  L 9.88 18.87
  A 1.98 1.65 -83.8 0 0 12.33 16.51
  Q 12.24 16.11 12.62 15.07
  Z" fill="#ffffff"></path>
<path d="M 12.62 15.07
  Q 12.24 16.11 12.33 16.51
  A 1.98 1.65 -83.8 0 1 9.88 18.87
  L 8.56 17.97
  A 0.90 0.88 -68.8 0 1 8.19 17.11
  C 8.46 15.46 7.66 14.45 7.48 12.97
  C 7.12 10.06 4.99 7.67 5.02 5.24
  C 5.10 0.12 13.71 -0.78 14.87 4.92
  C 15.24 6.74 14.17 8.30 13.59 9.99
  C 13.07 11.53 13.24 13.38 12.62 15.07
  Z
  M 6.91 8.09
  Q 7.86 9.62 8.05 11.89
  Q 8.12 12.73 8.97 12.74
  L 11.79 12.75
  Q 12.59 12.76 12.49 11.95
  C 12.17 9.40 14.98 6.62 13.86 4.17
  C 11.90 -0.13 3.21 2.13 6.91 8.09
  Z" fill="#1d4fd7"></path>
<path d="M 6.91 8.09
  C 3.21 2.13 11.90 -0.13 13.86 4.17
  C 14.98 6.62 12.17 9.40 12.49 11.95
  Q 12.59 12.76 11.79 12.75
  L 8.97 12.74
  Q 8.12 12.73 8.05 11.89
  Q 7.86 9.62 6.91 8.09
  Z
  M 9.74 5.21
  Q 9.05 5.49 9.78 5.64
  Q 10.60 5.80 11.53 5.67
  A 0.19 0.19 0.0 0 0 11.61 5.32
  Q 10.76 4.80 9.74 5.21
  Z
  M 9.04 7.92
  Q 8.19 8.17 9.06 8.37
  Q 10.29 8.65 11.45 7.72
  Q 12.43 6.94 11.23 7.29
  L 9.04 7.92
  Z" fill="#ffffff"></path>
<path d="M 9.74 5.21
  Q 10.76 4.80 11.61 5.32
  A 0.19 0.19 0.0 0 1 11.53 5.67
  Q 10.60 5.80 9.78 5.64
  Q 9.05 5.49 9.74 5.21
  Z" fill="#1d4fd7"></path>
<path d="M 9.04 7.92
  L 11.23 7.29
  Q 12.43 6.94 11.45 7.72
  Q 10.29 8.65 9.06 8.37
  Q 8.19 8.17 9.04 7.92
  Z" fill="#1d4fd7"></path>
</svg>
