<svg viewBox="0.00 0.00 32.00 32.00" version="1.1" xmlns="http://www.w3.org/2000/svg">
<path d="M 14.03 0.00
  L 18.07 0.00
  Q 29.70 2.39 32.00 14.05
  L 32.00 18.24
  Q 29.43 29.68 17.98 32.00
  L 14.02 32.00
  Q 2.36 29.62 0.00 17.96
  L 0.00 13.92
  Q 2.37 2.35 14.03 0.00
  Z
  M 20.00 3.39
  C 18.40 7.69 16.18 11.51 16.22 16.22
  C 16.25 20.31 18.34 24.89 20.14 28.73
  Q 20.40 29.28 20.94 29.02
  C 27.65 25.82 31.31 19.31 29.22 12.10
  Q 27.64 6.65 21.90 2.78
  A 1.27 1.27 0.0 0 0 20.00 3.39
  Z" fill="#000000"></path>
</svg>
