<svg viewBox="0.00 0.00 64.00 64.00" version="1.1" xmlns="http://www.w3.org/2000/svg">
<path d="M 45.8429 10.5344
  A 5.56 5.56 0.0 0 0 40.2732 4.9841
  L 10.5333 5.0360
  A 5.56 5.56 0.0 0 0 4.9830 10.6057
  L 5.0371 41.6056
  A 5.56 5.56 0.0 0 0 10.6068 47.1559
  L 40.3467 47.1040
  A 5.56 5.56 0.0 0 0 45.8970 41.5343
  L 45.8429 10.5344" stroke-linecap="butt" fill="none" stroke-width="2.00" stroke="#909092"></path>
<path d="M 9.11 0.00
  L 44.97 0.00
  C 51.76 1.49 55.95 6.74 61.45 12.54
  Q 63.03 14.21 64.00 18.57
  L 64.00 54.07
  Q 61.69 63.53 51.81 63.57
  Q 36.53 63.62 21.25 63.54
  Q 16.80 63.52 13.08 60.67
  Q 3.72 53.49 0.00 44.98
  L 0.00 9.04
  Q 1.87 1.52 9.11 0.00
  Z
  M 45.8429 10.5344
  A 5.56 5.56 0.0 0 0 40.2732 4.9841
  L 10.5333 5.0360
  A 5.56 5.56 0.0 0 0 4.9830 10.6057
  L 5.0371 41.6056
  A 5.56 5.56 0.0 0 0 10.6068 47.1559
  L 40.3467 47.1040
  A 5.56 5.56 0.0 0 0 45.8970 41.5343
  L 45.8429 10.5344
  Z" fill="#202124"></path>
<rect rx="5.56" height="42.12" width="40.86" transform="translate(25.44,26.07) rotate(-0.1)" y="-21.06" x="-20.43" fill="#ffffff"></rect>
</svg>
