<svg viewBox="0.00 0.00 40.00 40.00" version="1.1" xmlns="http://www.w3.org/2000/svg">
<g stroke-linecap="butt" fill="none" stroke-width="2.00">
<path d="M 17.92 7.02
  L 17.85 17.41" stroke="#11d6e6"></path>
<path d="M 7.15 22.95
  Q 7.49 25.41 6.27 26.86" stroke="#3ddcd5"></path>
<path d="M 34.68 15.09
  Q 33.90 16.37 33.74 17.42" stroke="#54ccf0"></path>
<path d="M 24.26 32.97
  Q 23.74 31.05 24.54 29.92
  Q 24.80 29.55 24.74 29.11
  Q 24.34 26.17 25.08 23.00" stroke="#80d1de"></path>
</g>
<path d="M 17.92 7.02
  L 17.85 17.41
  Q 8.97 16.34 7.15 22.95
  Q 7.49 25.41 6.27 26.86
  C 3.62 21.61 -3.05 13.09 4.62 8.34
  C 8.01 6.25 13.73 6.99 17.92 7.02
  Z" fill="#17e6dc"></path>
<path d="M 17.92 7.02
  C 26.64 6.94 31.27 5.18 34.68 15.09
  Q 33.90 16.37 33.74 17.42
  L 17.85 17.41
  L 17.92 7.02
  Z" fill="#0ac6f0"></path>
<path d="M 34.68 15.09
  C 36.46 18.26 39.05 22.03 38.87 25.53
  C 38.43 33.81 30.17 33.10 24.26 32.97
  Q 23.74 31.05 24.54 29.92
  Q 24.80 29.55 24.74 29.11
  Q 24.34 26.17 25.08 23.00
  Q 31.59 23.48 33.74 17.42
  Q 33.90 16.37 34.68 15.09
  Z" fill="#9ed1ef"></path>
<path d="M 7.15 22.95
  L 25.08 23.00
  Q 24.34 26.17 24.74 29.11
  Q 24.80 29.55 24.54 29.92
  Q 23.74 31.05 24.26 32.97
  C 17.64 33.06 9.15 34.94 6.27 26.86
  Q 7.49 25.41 7.15 22.95
  Z" fill="#62d1cd"></path>
</svg>
