<svg viewBox="0.00 0.00 64.00 64.00" version="1.1" xmlns="http://www.w3.org/2000/svg">
<g stroke-linecap="butt" fill="none" stroke-width="2.00">
<path d="M 64.00 63.22
  L 60.32 63.16
  Q 59.04 63.14 60.26 63.52
  Q 62.05 64.07 64.00 63.62" stroke="#b6d1e7"></path>
<path d="M 20.03 14.25
  Q 19.89 14.71 19.89 14.52" stroke="#b6d1e7"></path>
<path d="M 19.89 14.52
  Q 18.23 14.03 16.67 14.28
  Q 16.26 14.35 16.26 14.77
  L 16.26 19.81
  Q 16.26 20.41 16.85 20.47
  Q 18.38 20.63 19.89 20.29
  Q 20.17 20.23 20.15 20.52
  L 19.82 24.70
  A 1.15 1.15 0.0 0 0 20.96 25.94
  L 41.41 26.00
  A 0.90 0.90 0.0 0 0 42.31 25.08
  L 42.23 20.78
  Q 42.22 20.43 42.57 20.44
  L 45.35 20.51
  A 0.61 0.61 0.0 0 0 45.97 19.90
  L 46.00 14.70
  A 0.42 0.42 0.0 0 0 45.57 14.27
  L 42.71 14.36" stroke="#7fb5d9"></path>
<path d="M 42.71 14.36
  Q 42.50 14.44 42.23 14.24" stroke="#b6d1e7"></path>
<path d="M 42.23 14.24
  C 42.10 8.13 36.45 8.80 31.85 9.12
  Q 31.39 9.16 31.48 8.71
  Q 31.79 7.14 32.90 5.99
  A 1.81 1.81 0.0 0 0 32.61 3.22
  Q 30.24 1.65 29.18 4.40
  Q 28.84 5.29 29.51 5.96
  Q 30.48 6.96 30.74 8.33
  Q 30.89 9.11 30.09 9.07
  C 25.99 8.86 19.98 8.09 20.03 14.25" stroke="#7fb5d9"></path>
<path d="M 42.23 14.24
  Q 41.57 16.53 42.07 19.00
  Q 42.32 20.25 42.60 19.01
  Q 43.04 17.12 42.40 15.22
  Q 42.29 14.89 42.51 14.62
  L 42.71 14.36" stroke="#3888c3"></path>
<path d="M 19.89 14.52
  Q 18.82 17.61 19.85 19.36
  Q 20.45 20.38 20.37 19.21
  L 20.03 14.25" stroke="#3888c3"></path>
<path d="M 23.08 44.24
  Q 22.40 47.62 23.05 50.83
  Q 23.14 51.28 22.79 51.58
  Q 21.38 52.83 20.84 54.67
  A 0.45 0.45 0.0 0 0 21.27 55.25
  L 29.97 55.23
  Q 30.50 55.23 30.40 54.71
  Q 30.02 52.89 28.57 51.75
  Q 28.23 51.48 28.22 51.04
  L 28.19 44.38" stroke="#7fb5d9"></path>
<path d="M 28.19 44.38
  Q 27.98 44.15 28.48 43.90" stroke="#b6d1e7"></path>
<path d="M 28.48 43.90
  L 38.36 43.86
  Q 38.95 43.85 38.42 44.11
  Q 36.99 44.79 35.50 44.17
  A 0.92 0.91 -79.4 0 0 34.24 45.04
  L 34.39 51.08
  Q 34.40 51.49 34.08 51.75
  Q 32.66 52.91 32.09 54.68
  A 0.45 0.44 -81.3 0 0 32.51 55.26
  L 41.24 55.26
  Q 41.81 55.26 41.65 54.72
  Q 41.13 53.00 39.83 51.81
  Q 39.48 51.49 39.48 51.01
  L 39.46 44.44
  Q 39.46 44.13 39.77 44.14
  C 41.96 44.22 42.72 42.73 42.69 40.66
  Q 42.61 34.89 42.61 29.45
  A 2.08 2.07 90.0 0 0 40.54 27.37
  L 22.00 27.36
  A 2.30 2.29 -0.1 0 0 19.70 29.66
  Q 19.73 35.24 19.76 40.96
  C 19.77 43.19 20.99 44.19 23.08 44.24" stroke="#7fb5d9"></path>
<path d="M 28.48 43.90
  Q 25.64 43.19 23.25 43.80
  Q 22.75 43.93 23.08 44.24" stroke="#3888c3"></path>
<path d="M 28.19 44.38
  Q 25.48 44.72 23.08 44.24" stroke="#3888c3"></path>
<path d="M 14.43 41.54
  Q 16.62 37.16 18.03 32.45
  C 18.18 31.96 18.55 31.69 18.93 31.39
  Q 19.52 30.95 18.89 30.58
  L 18.15 30.13
  A 0.75 0.75 0.0 0 0 17.06 30.51
  L 13.28 40.31
  Q 13.11 40.74 12.70 40.94
  Q 10.32 42.06 9.90 44.79
  Q 9.80 45.42 10.42 45.28
  Q 10.79 45.21 11.03 44.78
  Q 11.64 43.70 12.07 42.91
  A 0.93 0.92 25.8 0 1 13.24 42.51
  L 14.22 42.92
  A 0.91 0.90 -66.3 0 1 14.69 44.14
  Q 14.30 44.96 14.05 45.79
  Q 13.97 46.04 14.04 46.21
  Q 14.17 46.51 14.60 46.58
  A 0.73 0.73 0.0 0 0 15.42 46.05
  L 16.02 43.81
  A 1.01 1.01 0.0 0 0 15.73 42.82
  Q 15.26 42.39 14.67 42.16
  Q 14.20 41.98 14.43 41.54" stroke="#7fb5d9"></path>
<path d="M 47.60 42.20
  L 46.81 42.81
  Q 46.37 43.15 46.45 43.70
  Q 46.68 45.30 47.65 46.55
  A 0.28 0.27 57.7 0 0 47.99 46.63
  L 48.51 46.36
  Q 48.95 46.13 48.62 45.77
  Q 47.03 44.04 48.69 42.59
  A 0.87 0.84 -53.7 0 1 49.59 42.44
  Q 51.08 43.07 51.24 44.76
  A 0.56 0.56 0.0 0 0 51.75 45.27
  L 52.20 45.31
  Q 52.70 45.35 52.63 44.85
  Q 52.27 42.05 49.86 40.98
  Q 49.39 40.78 49.21 40.30
  L 45.45 30.79
  Q 45.27 30.32 44.78 30.18
  Q 43.88 29.92 43.43 30.77
  Q 43.08 31.41 43.77 31.70
  Q 44.18 31.87 44.34 32.28
  L 47.82 41.40
  Q 48.01 41.88 47.60 42.20" stroke="#7fb5d9"></path>
<path d="M 28.45 16.63
  A 3.09 3.09 0.0 0 0 25.36 13.54
  A 3.09 3.09 0.0 0 0 22.27 16.63
  A 3.09 3.09 0.0 0 0 25.36 19.72
  A 3.09 3.09 0.0 0 0 28.45 16.63" stroke="#7fb5d9"></path>
<path d="M 39.92 16.64
  A 3.08 3.08 0.0 0 0 36.84 13.56
  A 3.08 3.08 0.0 0 0 33.76 16.64
  A 3.08 3.08 0.0 0 0 36.84 19.72
  A 3.08 3.08 0.0 0 0 39.92 16.64" stroke="#7fb5d9"></path>
<path d="M 37.5788 22.9560
  A 0.62 0.62 0.0 0 0 36.9555 22.3392
  L 25.1957 22.4008
  A 0.62 0.62 0.0 0 0 24.5789 23.0240
  L 24.5812 23.4640
  A 0.62 0.62 0.0 0 0 25.2045 24.0808
  L 36.9643 24.0192
  A 0.62 0.62 0.0 0 0 37.5811 23.3960
  L 37.5788 22.9560" stroke="#7fb5d9"></path>
<path d="M 39.25 30.90
  A 0.35 0.35 0.0 0 0 38.90 30.55
  L 23.62 30.55
  A 0.35 0.35 0.0 0 0 23.27 30.90
  L 23.27 40.42
  A 0.35 0.35 0.0 0 0 23.62 40.77
  L 38.90 40.77
  A 0.35 0.35 0.0 0 0 39.25 40.42
  L 39.25 30.90" stroke="#7fb5d9"></path>
<path d="M 26.02 51.30
  Q 26.29 51.38 26.47 51.32
  Q 27.75 50.87 26.50 50.71
  Q 25.08 50.51 23.70 50.82
  A 0.22 0.22 0.0 0 0 23.76 51.26
  L 25.49 51.22
  Q 25.76 51.22 26.02 51.30" stroke="#3888c3"></path>
</g>
<path d="M 0.00 0.00
  L 64.00 0.00
  L 64.00 63.22
  L 60.32 63.16
  Q 59.04 63.14 60.26 63.52
  Q 62.05 64.07 64.00 63.62
  L 64.00 64.00
  L 0.00 64.00
  L 0.00 0.00
  Z
  M 20.03 14.25
  Q 19.89 14.71 19.89 14.52
  Q 18.23 14.03 16.67 14.28
  Q 16.26 14.35 16.26 14.77
  L 16.26 19.81
  Q 16.26 20.41 16.85 20.47
  Q 18.38 20.63 19.89 20.29
  Q 20.17 20.23 20.15 20.52
  L 19.82 24.70
  A 1.15 1.15 0.0 0 0 20.96 25.94
  L 41.41 26.00
  A 0.90 0.90 0.0 0 0 42.31 25.08
  L 42.23 20.78
  Q 42.22 20.43 42.57 20.44
  L 45.35 20.51
  A 0.61 0.61 0.0 0 0 45.97 19.90
  L 46.00 14.70
  A 0.42 0.42 0.0 0 0 45.57 14.27
  L 42.71 14.36
  Q 42.50 14.44 42.23 14.24
  C 42.10 8.13 36.45 8.80 31.85 9.12
  Q 31.39 9.16 31.48 8.71
  Q 31.79 7.14 32.90 5.99
  A 1.81 1.81 0.0 0 0 32.61 3.22
  Q 30.24 1.65 29.18 4.40
  Q 28.84 5.29 29.51 5.96
  Q 30.48 6.96 30.74 8.33
  Q 30.89 9.11 30.09 9.07
  C 25.99 8.86 19.98 8.09 20.03 14.25
  Z
  M 23.08 44.24
  Q 22.40 47.62 23.05 50.83
  Q 23.14 51.28 22.79 51.58
  Q 21.38 52.83 20.84 54.67
  A 0.45 0.45 0.0 0 0 21.27 55.25
  L 29.97 55.23
  Q 30.50 55.23 30.40 54.71
  Q 30.02 52.89 28.57 51.75
  Q 28.23 51.48 28.22 51.04
  L 28.19 44.38
  Q 27.98 44.15 28.48 43.90
  L 38.36 43.86
  Q 38.95 43.85 38.42 44.11
  Q 36.99 44.79 35.50 44.17
  A 0.92 0.91 -79.4 0 0 34.24 45.04
  L 34.39 51.08
  Q 34.40 51.49 34.08 51.75
  Q 32.66 52.91 32.09 54.68
  A 0.45 0.44 -81.3 0 0 32.51 55.26
  L 41.24 55.26
  Q 41.81 55.26 41.65 54.72
  Q 41.13 53.00 39.83 51.81
  Q 39.48 51.49 39.48 51.01
  L 39.46 44.44
  Q 39.46 44.13 39.77 44.14
  C 41.96 44.22 42.72 42.73 42.69 40.66
  Q 42.61 34.89 42.61 29.45
  A 2.08 2.07 90.0 0 0 40.54 27.37
  L 22.00 27.36
  A 2.30 2.29 -0.1 0 0 19.70 29.66
  Q 19.73 35.24 19.76 40.96
  C 19.77 43.19 20.99 44.19 23.08 44.24
  Z
  M 14.43 41.54
  Q 16.62 37.16 18.03 32.45
  C 18.18 31.96 18.55 31.69 18.93 31.39
  Q 19.52 30.95 18.89 30.58
  L 18.15 30.13
  A 0.75 0.75 0.0 0 0 17.06 30.51
  L 13.28 40.31
  Q 13.11 40.74 12.70 40.94
  Q 10.32 42.06 9.90 44.79
  Q 9.80 45.42 10.42 45.28
  Q 10.79 45.21 11.03 44.78
  Q 11.64 43.70 12.07 42.91
  A 0.93 0.92 25.8 0 1 13.24 42.51
  L 14.22 42.92
  A 0.91 0.90 -66.3 0 1 14.69 44.14
  Q 14.30 44.96 14.05 45.79
  Q 13.97 46.04 14.04 46.21
  Q 14.17 46.51 14.60 46.58
  A 0.73 0.73 0.0 0 0 15.42 46.05
  L 16.02 43.81
  A 1.01 1.01 0.0 0 0 15.73 42.82
  Q 15.26 42.39 14.67 42.16
  Q 14.20 41.98 14.43 41.54
  Z
  M 47.60 42.20
  L 46.81 42.81
  Q 46.37 43.15 46.45 43.70
  Q 46.68 45.30 47.65 46.55
  A 0.28 0.27 57.7 0 0 47.99 46.63
  L 48.51 46.36
  Q 48.95 46.13 48.62 45.77
  Q 47.03 44.04 48.69 42.59
  A 0.87 0.84 -53.7 0 1 49.59 42.44
  Q 51.08 43.07 51.24 44.76
  A 0.56 0.56 0.0 0 0 51.75 45.27
  L 52.20 45.31
  Q 52.70 45.35 52.63 44.85
  Q 52.27 42.05 49.86 40.98
  Q 49.39 40.78 49.21 40.30
  L 45.45 30.79
  Q 45.27 30.32 44.78 30.18
  Q 43.88 29.92 43.43 30.77
  Q 43.08 31.41 43.77 31.70
  Q 44.18 31.87 44.34 32.28
  L 47.82 41.40
  Q 48.01 41.88 47.60 42.20
  Z" fill="#fdfdfc"></path>
<path d="M 42.23 14.24
  Q 41.57 16.53 42.07 19.00
  Q 42.32 20.25 42.60 19.01
  Q 43.04 17.12 42.40 15.22
  Q 42.29 14.89 42.51 14.62
  L 42.71 14.36
  L 45.57 14.27
  A 0.42 0.42 0.0 0 1 46.00 14.70
  L 45.97 19.90
  A 0.61 0.61 0.0 0 1 45.35 20.51
  L 42.57 20.44
  Q 42.22 20.43 42.23 20.78
  L 42.31 25.08
  A 0.90 0.90 0.0 0 1 41.41 26.00
  L 20.96 25.94
  A 1.15 1.15 0.0 0 1 19.82 24.70
  L 20.15 20.52
  Q 20.17 20.23 19.89 20.29
  Q 18.38 20.63 16.85 20.47
  Q 16.26 20.41 16.26 19.81
  L 16.26 14.77
  Q 16.26 14.35 16.67 14.28
  Q 18.23 14.03 19.89 14.52
  Q 18.82 17.61 19.85 19.36
  Q 20.45 20.38 20.37 19.21
  L 20.03 14.25
  C 19.98 8.09 25.99 8.86 30.09 9.07
  Q 30.89 9.11 30.74 8.33
  Q 30.48 6.96 29.51 5.96
  Q 28.84 5.29 29.18 4.40
  Q 30.24 1.65 32.61 3.22
  A 1.81 1.81 0.0 0 1 32.90 5.99
  Q 31.79 7.14 31.48 8.71
  Q 31.39 9.16 31.85 9.12
  C 36.45 8.80 42.10 8.13 42.23 14.24
  Z
  M 28.45 16.63
  A 3.09 3.09 0.0 0 0 25.36 13.54
  A 3.09 3.09 0.0 0 0 22.27 16.63
  A 3.09 3.09 0.0 0 0 25.36 19.72
  A 3.09 3.09 0.0 0 0 28.45 16.63
  Z
  M 39.92 16.64
  A 3.08 3.08 0.0 0 0 36.84 13.56
  A 3.08 3.08 0.0 0 0 33.76 16.64
  A 3.08 3.08 0.0 0 0 36.84 19.72
  A 3.08 3.08 0.0 0 0 39.92 16.64
  Z
  M 37.5788 22.9560
  A 0.62 0.62 0.0 0 0 36.9555 22.3392
  L 25.1957 22.4008
  A 0.62 0.62 0.0 0 0 24.5789 23.0240
  L 24.5812 23.4640
  A 0.62 0.62 0.0 0 0 25.2045 24.0808
  L 36.9643 24.0192
  A 0.62 0.62 0.0 0 0 37.5811 23.3960
  L 37.5788 22.9560
  Z" fill="#016cb5"></path>
<circle r="3.09" cy="16.63" cx="25.36" fill="#fdfdfc"></circle>
<circle r="3.08" cy="16.64" cx="36.84" fill="#fdfdfc"></circle>
<path d="M 20.03 14.25
  L 20.37 19.21
  Q 20.45 20.38 19.85 19.36
  Q 18.82 17.61 19.89 14.52
  Q 19.89 14.71 20.03 14.25
  Z" fill="#6fa4d1"></path>
<path d="M 42.23 14.24
  Q 42.50 14.44 42.71 14.36
  L 42.51 14.62
  Q 42.29 14.89 42.40 15.22
  Q 43.04 17.12 42.60 19.01
  Q 42.32 20.25 42.07 19.00
  Q 41.57 16.53 42.23 14.24
  Z" fill="#6fa4d1"></path>
<rect rx="0.62" height="1.68" width="13.00" transform="translate(31.08,23.21) rotate(-0.3)" y="-0.84" x="-6.50" fill="#fdfdfc"></rect>
<path d="M 28.48 43.90
  Q 25.64 43.19 23.25 43.80
  Q 22.75 43.93 23.08 44.24
  C 20.99 44.19 19.77 43.19 19.76 40.96
  Q 19.73 35.24 19.70 29.66
  A 2.30 2.29 -0.1 0 1 22.00 27.36
  L 40.54 27.37
  A 2.08 2.07 -90.0 0 1 42.61 29.45
  Q 42.61 34.89 42.69 40.66
  C 42.72 42.73 41.96 44.22 39.77 44.14
  Q 39.46 44.13 39.46 44.44
  L 39.48 51.01
  Q 39.48 51.49 39.83 51.81
  Q 41.13 53.00 41.65 54.72
  Q 41.81 55.26 41.24 55.26
  L 32.51 55.26
  A 0.45 0.44 -81.3 0 1 32.09 54.68
  Q 32.66 52.91 34.08 51.75
  Q 34.40 51.49 34.39 51.08
  L 34.24 45.04
  A 0.92 0.91 -79.4 0 1 35.50 44.17
  Q 36.99 44.79 38.42 44.11
  Q 38.95 43.85 38.36 43.86
  L 28.48 43.90
  Z
  M 39.25 30.90
  A 0.35 0.35 0.0 0 0 38.90 30.55
  L 23.62 30.55
  A 0.35 0.35 0.0 0 0 23.27 30.90
  L 23.27 40.42
  A 0.35 0.35 0.0 0 0 23.62 40.77
  L 38.90 40.77
  A 0.35 0.35 0.0 0 0 39.25 40.42
  L 39.25 30.90
  Z" fill="#016cb5"></path>
<path d="M 14.67 42.16
  Q 15.26 42.39 15.73 42.82
  A 1.01 1.01 0.0 0 1 16.02 43.81
  L 15.42 46.05
  A 0.73 0.73 0.0 0 1 14.60 46.58
  Q 14.17 46.51 14.04 46.21
  Q 13.97 46.04 14.05 45.79
  Q 14.30 44.96 14.69 44.14
  A 0.91 0.90 -66.3 0 0 14.22 42.92
  L 13.24 42.51
  A 0.93 0.92 25.8 0 0 12.07 42.91
  Q 11.64 43.70 11.03 44.78
  Q 10.79 45.21 10.42 45.28
  Q 9.80 45.42 9.90 44.79
  Q 10.32 42.06 12.70 40.94
  Q 13.11 40.74 13.28 40.31
  L 17.06 30.51
  A 0.75 0.75 0.0 0 1 18.15 30.13
  L 18.89 30.58
  Q 19.52 30.95 18.93 31.39
  C 18.55 31.69 18.18 31.96 18.03 32.45
  Q 16.62 37.16 14.43 41.54
  Q 14.20 41.98 14.67 42.16
  Z" fill="#016cb5"></path>
<path d="M 47.82 41.40
  L 44.34 32.28
  Q 44.18 31.87 43.77 31.70
  Q 43.08 31.41 43.43 30.77
  Q 43.88 29.92 44.78 30.18
  Q 45.27 30.32 45.45 30.79
  L 49.21 40.30
  Q 49.39 40.78 49.86 40.98
  Q 52.27 42.05 52.63 44.85
  Q 52.70 45.35 52.20 45.31
  L 51.75 45.27
  A 0.56 0.56 0.0 0 1 51.24 44.76
  Q 51.08 43.07 49.59 42.44
  A 0.87 0.84 -53.7 0 0 48.69 42.59
  Q 47.03 44.04 48.62 45.77
  Q 48.95 46.13 48.51 46.36
  L 47.99 46.63
  A 0.28 0.27 57.7 0 1 47.65 46.55
  Q 46.68 45.30 46.45 43.70
  Q 46.37 43.15 46.81 42.81
  L 47.60 42.20
  Q 48.01 41.88 47.82 41.40
  Z" fill="#016cb5"></path>
<rect rx="0.35" height="10.22" width="15.98" y="30.55" x="23.27" fill="#fdfdfc"></rect>
<path d="M 28.48 43.90
  Q 27.98 44.15 28.19 44.38
  Q 25.48 44.72 23.08 44.24
  Q 22.75 43.93 23.25 43.80
  Q 25.64 43.19 28.48 43.90
  Z" fill="#6fa4d1"></path>
<path d="M 23.08 44.24
  Q 25.48 44.72 28.19 44.38
  L 28.22 51.04
  Q 28.23 51.48 28.57 51.75
  Q 30.02 52.89 30.40 54.71
  Q 30.50 55.23 29.97 55.23
  L 21.27 55.25
  A 0.45 0.45 0.0 0 1 20.84 54.67
  Q 21.38 52.83 22.79 51.58
  Q 23.14 51.28 23.05 50.83
  Q 22.40 47.62 23.08 44.24
  Z
  M 26.02 51.30
  Q 26.29 51.38 26.47 51.32
  Q 27.75 50.87 26.50 50.71
  Q 25.08 50.51 23.70 50.82
  A 0.22 0.22 0.0 0 0 23.76 51.26
  L 25.49 51.22
  Q 25.76 51.22 26.02 51.30
  Z" fill="#016cb5"></path>
<path d="M 25.49 51.22
  L 23.76 51.26
  A 0.22 0.22 0.0 0 1 23.70 50.82
  Q 25.08 50.51 26.50 50.71
  Q 27.75 50.87 26.47 51.32
  Q 26.29 51.38 26.02 51.30
  Q 25.76 51.22 25.49 51.22
  Z" fill="#6fa4d1"></path>
<path d="M 64.00 63.22
  Q 64.00 63.42 64.00 63.62
  Q 62.05 64.07 60.26 63.52
  Q 59.04 63.14 60.32 63.16
  L 64.00 63.22
  Z" fill="#6fa4d1"></path>
</svg>
