<svg viewBox="0.00 0.00 48.00 48.00" version="1.1" xmlns="http://www.w3.org/2000/svg">
<path d="M 17.62 24.67
  A 0.84 0.84 0.0 0 0 17.41 23.13
  Q 12.68 21.94 8.26 20.13
  Q 4.57 18.63 4.10 15.38
  Q 3.56 11.68 4.08 2.12
  Q 4.10 1.74 4.46 1.85
  C 27.54 8.87 27.63 38.93 4.48 46.37
  Q 3.96 46.53 3.96 45.99
  Q 3.86 39.75 4.05 33.51
  C 4.26 26.40 13.13 27.22 17.62 24.67
  Z" fill="#ff7d6e"></path>
<path d="M 31.96 22.80
  Q 27.24 24.15 32.02 25.30
  Q 35.68 26.18 40.15 28.03
  C 42.67 29.07 44.02 30.89 44.09 33.50
  Q 44.25 39.83 44.14 45.94
  Q 44.13 46.54 43.56 46.35
  C 31.13 42.27 23.70 31.03 26.99 18.28
  C 29.21 9.66 35.35 4.68 43.58 1.58
  A 0.40 0.40 0.0 0 1 44.13 1.95
  Q 44.29 8.18 44.04 14.49
  C 43.81 20.37 36.31 21.55 31.96 22.80
  Z" fill="#ff7d6e"></path>
</svg>
