<svg viewBox="0.00 0.00 128.00 128.00" version="1.1" xmlns="http://www.w3.org/2000/svg">
<g stroke-linecap="butt" fill="none" stroke-width="2.00">
<path d="M 54.96 42.44
  Q 51.03 42.82 47.99 45.70
  Q 47.41 46.24 47.43 45.45
  L 47.47 43.45
  A 0.52 0.52 0.0 0 0 46.95 42.92
  L 36.79 42.90
  A 0.81 0.80 90.0 0 0 35.99 43.71
  L 36.01 81.78
  A 0.33 0.33 0.0 0 0 36.34 82.11
  L 47.00 82.17
  A 0.68 0.68 0.0 0 0 47.68 81.49
  Q 47.74 70.33 47.46 59.00
  Q 47.37 55.31 49.16 53.66
  C 51.33 51.67 58.02 51.81 58.01 56.01
  Q 57.99 68.80 58.02 81.66
  Q 58.02 82.19 58.54 82.18
  L 69.73 82.06" stroke="#929190"></path>
<path d="M 69.73 82.06
  Q 70.21 82.06 70.85 81.27
  Q 71.18 80.88 71.18 80.37
  L 71.32 57.39
  Q 71.34 54.13 74.61 54.13
  L 75.60 54.13
  Q 78.82 54.13 78.84 57.35
  L 78.99 81.59
  A 1.37 1.37 0.0 0 0 80.26 82.95
  Q 81.58 83.05 83.34 82.32" stroke="#181715"></path>
<path d="M 83.34 82.32
  L 91.73 82.28" stroke="#929190"></path>
<path d="M 91.73 82.28
  Q 92.37 83.17 92.91 81.60
  Q 93.09 81.08 93.10 80.38
  Q 93.19 68.48 93.18 56.56
  C 93.17 52.21 91.34 45.88 86.87 44.36
  A 2.00 1.95 -11.4 0 1 86.08 43.85
  C 81.73 39.24 72.34 39.88 68.24 44.72
  Q 68.07 44.91 68.13 45.48
  Q 68.15 45.63 68.00 45.63
  Q 67.88 45.63 67.75 45.61
  Q 67.51 45.59 66.90 45.21
  Q 65.80 44.52 65.33 43.34
  Q 65.11 42.79 64.57 42.54
  C 61.95 41.34 57.18 40.41 53.94 41.56
  Q 53.14 41.84 53.94 42.10
  L 54.96 42.44" stroke="#181715"></path>
<path d="M 91.73 82.28
  Q 91.88 70.67 91.78 59.16
  Q 91.71 52.17 90.16 49.13
  C 86.01 40.97 73.27 39.51 67.73 47.39
  A 0.31 0.31 0.0 0 1 67.22 47.39
  Q 62.86 41.39 54.96 42.44" stroke="#858585"></path>
<path d="M 83.34 82.32
  L 80.69 82.17
  Q 80.12 82.13 80.12 81.56
  Q 80.22 69.53 80.41 57.51
  C 80.52 50.38 69.73 51.02 69.74 57.50
  Q 69.75 69.45 69.73 82.06" stroke="#858585"></path>
</g>
<path d="M 0.00 0.00
  L 128.00 0.00
  L 128.00 128.00
  L 0.00 128.00
  L 0.00 0.00
  Z
  M 54.96 42.44
  Q 51.03 42.82 47.99 45.70
  Q 47.41 46.24 47.43 45.45
  L 47.47 43.45
  A 0.52 0.52 0.0 0 0 46.95 42.92
  L 36.79 42.90
  A 0.81 0.80 90.0 0 0 35.99 43.71
  L 36.01 81.78
  A 0.33 0.33 0.0 0 0 36.34 82.11
  L 47.00 82.17
  A 0.68 0.68 0.0 0 0 47.68 81.49
  Q 47.74 70.33 47.46 59.00
  Q 47.37 55.31 49.16 53.66
  C 51.33 51.67 58.02 51.81 58.01 56.01
  Q 57.99 68.80 58.02 81.66
  Q 58.02 82.19 58.54 82.18
  L 69.73 82.06
  Q 70.21 82.06 70.85 81.27
  Q 71.18 80.88 71.18 80.37
  L 71.32 57.39
  Q 71.34 54.13 74.61 54.13
  L 75.60 54.13
  Q 78.82 54.13 78.84 57.35
  L 78.99 81.59
  A 1.37 1.37 0.0 0 0 80.26 82.95
  Q 81.58 83.05 83.34 82.32
  L 91.73 82.28
  Q 92.37 83.17 92.91 81.60
  Q 93.09 81.08 93.10 80.38
  Q 93.19 68.48 93.18 56.56
  C 93.17 52.21 91.34 45.88 86.87 44.36
  A 2.00 1.95 -11.4 0 1 86.08 43.85
  C 81.73 39.24 72.34 39.88 68.24 44.72
  Q 68.07 44.91 68.13 45.48
  Q 68.15 45.63 68.00 45.63
  Q 67.88 45.63 67.75 45.61
  Q 67.51 45.59 66.90 45.21
  Q 65.80 44.52 65.33 43.34
  Q 65.11 42.79 64.57 42.54
  C 61.95 41.34 57.18 40.41 53.94 41.56
  Q 53.14 41.84 53.94 42.10
  L 54.96 42.44
  Z" fill="#242320"></path>
<path d="M 91.73 82.28
  Q 91.88 70.67 91.78 59.16
  Q 91.71 52.17 90.16 49.13
  C 86.01 40.97 73.27 39.51 67.73 47.39
  A 0.31 0.31 0.0 0 1 67.22 47.39
  Q 62.86 41.39 54.96 42.44
  L 53.94 42.10
  Q 53.14 41.84 53.94 41.56
  C 57.18 40.41 61.95 41.34 64.57 42.54
  Q 65.11 42.79 65.33 43.34
  Q 65.80 44.52 66.90 45.21
  Q 67.51 45.59 67.75 45.61
  Q 67.88 45.63 68.00 45.63
  Q 68.15 45.63 68.13 45.48
  Q 68.07 44.91 68.24 44.72
  C 72.34 39.88 81.73 39.24 86.08 43.85
  A 2.00 1.95 -11.4 0 0 86.87 44.36
  C 91.34 45.88 93.17 52.21 93.18 56.56
  Q 93.19 68.48 93.10 80.38
  Q 93.09 81.08 92.91 81.60
  Q 92.37 83.17 91.73 82.28
  Z" fill="#0b0b0a"></path>
<path d="M 91.73 82.28
  L 83.34 82.32
  L 80.69 82.17
  Q 80.12 82.13 80.12 81.56
  Q 80.22 69.53 80.41 57.51
  C 80.52 50.38 69.73 51.02 69.74 57.50
  Q 69.75 69.45 69.73 82.06
  L 58.54 82.18
  Q 58.02 82.19 58.02 81.66
  Q 57.99 68.80 58.01 56.01
  C 58.02 51.81 51.33 51.67 49.16 53.66
  Q 47.37 55.31 47.46 59.00
  Q 47.74 70.33 47.68 81.49
  A 0.68 0.68 0.0 0 1 47.00 82.17
  L 36.34 82.11
  A 0.33 0.33 0.0 0 1 36.01 81.78
  L 35.99 43.71
  A 0.81 0.80 90.0 0 1 36.79 42.90
  L 46.95 42.92
  A 0.52 0.52 0.0 0 1 47.47 43.45
  L 47.43 45.45
  Q 47.41 46.24 47.99 45.70
  Q 51.03 42.82 54.96 42.44
  Q 62.86 41.39 67.22 47.39
  A 0.31 0.31 0.0 0 0 67.73 47.39
  C 73.27 39.51 86.01 40.97 90.16 49.13
  Q 91.71 52.17 91.78 59.16
  Q 91.88 70.67 91.73 82.28
  Z" fill="#ffffff"></path>
<path d="M 83.34 82.32
  Q 81.58 83.05 80.26 82.95
  A 1.37 1.37 0.0 0 1 78.99 81.59
  L 78.84 57.35
  Q 78.82 54.13 75.60 54.13
  L 74.61 54.13
  Q 71.34 54.13 71.32 57.39
  L 71.18 80.37
  Q 71.18 80.88 70.85 81.27
  Q 70.21 82.06 69.73 82.06
  Q 69.75 69.45 69.74 57.50
  C 69.73 51.02 80.52 50.38 80.41 57.51
  Q 80.22 69.53 80.12 81.56
  Q 80.12 82.13 80.69 82.17
  L 83.34 82.32
  Z" fill="#0b0b0a"></path>
</svg>
