<svg viewBox="0.00 0.00 16.00 16.00" version="1.1" xmlns="http://www.w3.org/2000/svg">
<g stroke-linecap="butt" fill="none" stroke-width="2.00">
<path d="M 2.57 6.86
  Q -1.27 11.13 2.27 14.16
  Q 5.28 16.74 8.41 14.13
  Q 9.73 13.03 9.44 11.58" stroke="#c091a9"></path>
<path d="M 9.44 11.58
  Q 10.25 10.05 11.56 9.15" stroke="#7f7f7f"></path>
<path d="M 11.56 9.15
  C 14.33 8.86 15.08 5.86 13.33 4.10
  C 12.24 3.01 10.43 3.30 8.79 1.91
  C 5.46 -0.90 0.14 2.37 2.57 6.86" stroke="#9adac5"></path>
<path d="M 11.56 9.15
  C 11.40 4.57 7.54 3.37 4.66 6.55" stroke="#1b5b46"></path>
<path d="M 4.66 6.55
  L 2.57 6.86" stroke="#5c6c70"></path>
<path d="M 9.44 11.58
  Q 4.53 11.32 4.66 6.55" stroke="#41122a"></path>
<path d="M 14.96 12.77
  A 2.24 2.24 0.0 0 0 12.72 10.53
  A 2.24 2.24 0.0 0 0 10.48 12.77
  A 2.24 2.24 0.0 0 0 12.72 15.01
  A 2.24 2.24 0.0 0 0 14.96 12.77" stroke="#8ba0dc"></path>
</g>
<path d="M 2.65 0.00
  L 13.46 0.00
  Q 15.25 0.87 16.00 2.64
  L 16.00 13.22
  Q 15.29 15.20 13.35 16.00
  L 2.54 16.00
  Q 0.73 15.13 0.00 13.36
  L 0.00 2.77
  Q 0.65 0.80 2.65 0.00
  Z
  M 2.57 6.86
  Q -1.27 11.13 2.27 14.16
  Q 5.28 16.74 8.41 14.13
  Q 9.73 13.03 9.44 11.58
  Q 10.25 10.05 11.56 9.15
  C 14.33 8.86 15.08 5.86 13.33 4.10
  C 12.24 3.01 10.43 3.30 8.79 1.91
  C 5.46 -0.90 0.14 2.37 2.57 6.86
  Z
  M 14.96 12.77
  A 2.24 2.24 0.0 0 0 12.72 10.53
  A 2.24 2.24 0.0 0 0 10.48 12.77
  A 2.24 2.24 0.0 0 0 12.72 15.01
  A 2.24 2.24 0.0 0 0 14.96 12.77
  Z" fill="#fefefe"></path>
<path d="M 11.56 9.15
  C 11.40 4.57 7.54 3.37 4.66 6.55
  L 2.57 6.86
  C 0.14 2.37 5.46 -0.90 8.79 1.91
  C 10.43 3.30 12.24 3.01 13.33 4.10
  C 15.08 5.86 14.33 8.86 11.56 9.15
  Z" fill="#36b58c"></path>
<path d="M 11.56 9.15
  Q 10.25 10.05 9.44 11.58
  Q 4.53 11.32 4.66 6.55
  C 7.54 3.37 11.40 4.57 11.56 9.15
  Z" fill="#000000"></path>
<path d="M 4.66 6.55
  Q 4.53 11.32 9.44 11.58
  Q 9.73 13.03 8.41 14.13
  Q 5.28 16.74 2.27 14.16
  Q -1.27 11.13 2.57 6.86
  L 4.66 6.55
  Z" fill="#812354"></path>
<circle r="2.24" cy="12.77" cx="12.72" fill-opacity="0.996" fill="#1841b9"></circle>
</svg>
