<svg viewBox="0.00 0.00 256.00 256.00" version="1.1" xmlns="http://www.w3.org/2000/svg">
<g stroke-linecap="butt" fill="none" stroke-width="2.00">
<path d="M 131.12 61.43
  Q 130.62 62.22 129.99 62.55
  Q 129.59 62.76 129.29 62.41
  L 119.67 51.08
  A 1.00 0.98 33.2 0 1 119.47 50.16
  Q 121.20 44.16 116.96 40.90
  C 109.09 34.84 99.60 45.76 106.64 52.75
  Q 109.55 55.63 114.21 54.71
  Q 114.75 54.60 115.11 55.02
  L 122.36 63.44
  A 0.51 0.51 0.0 0 1 122.19 64.23
  Q 115.18 67.65 114.21 75.46
  A 0.45 0.44 -87.5 0 1 113.80 75.85
  L 104.10 76.46" stroke="#077c69"></path>
<path d="M 104.10 76.46
  Q 84.88 78.06 66.88 81.97" stroke="#08805f"></path>
<path d="M 66.88 81.97
  Q 60.73 83.32 55.76 84.70
  C 49.93 86.32 42.03 91.51 41.44 98.24
  Q 41.05 102.69 41.66 111.62" stroke="#098552"></path>
<path d="M 41.66 111.62
  Q 38.94 111.97 36.35 112.07
  Q 32.81 112.21 31.25 113.22
  Q 28.29 115.15 28.31 118.99
  Q 28.37 127.31 28.34 135.64
  C 28.31 143.21 36.53 142.40 41.69 142.46" stroke="#07783d"></path>
<path d="M 41.69 142.46
  Q 41.38 148.96 41.43 155.50
  Q 41.47 160.91 42.96 163.79
  C 47.31 172.20 59.72 174.83 68.03 176.96" stroke="#098552"></path>
<path d="M 68.03 176.96
  Q 89.27 182.60 110.75 184.01" stroke="#08805f"></path>
<path d="M 110.75 184.01
  L 127.95 184.54" stroke="#077c69"></path>
<path d="M 127.95 184.54
  Q 128.64 184.45 129.18 184.56
  Q 129.74 184.67 129.74 185.24
  L 129.92 221.54
  A 3.44 3.44 0.0 0 0 135.41 224.28
  L 149.38 213.85" stroke="#077a70"></path>
<path d="M 149.38 213.85
  L 197.33 177.64" stroke="#07767a"></path>
<path d="M 197.33 177.64
  C 203.53 172.89 214.60 166.03 214.50 158.01
  Q 214.40 150.40 214.50 142.67
  Q 214.50 142.11 215.06 142.11
  C 222.56 142.10 227.27 142.05 227.27 133.08
  Q 227.26 126.27 227.21 119.46
  C 227.19 116.37 226.38 114.19 223.84 112.64
  C 221.48 111.21 217.83 111.75 214.92 111.70
  Q 214.36 111.69 214.35 111.13
  C 214.28 106.00 215.16 98.94 213.14 94.60
  C 209.92 87.72 202.26 84.56 194.91 83.19" stroke="#077284"></path>
<path d="M 194.91 83.19
  Q 173.30 77.92 149.55 76.24" stroke="#07767a"></path>
<path d="M 149.55 76.24
  L 146.83 76.02
  Q 146.35 75.98 146.29 75.49
  C 145.64 69.51 142.67 66.54 137.61 63.89
  Q 137.12 63.63 137.48 63.21
  L 154.70 43.20
  A 0.96 0.92 -64.5 0 1 155.53 42.89
  C 168.42 44.82 168.15 26.05 156.29 27.40
  C 151.07 27.99 148.03 33.66 150.26 38.52
  Q 150.46 38.97 150.14 39.34
  L 131.12 61.43" stroke="#077a70"></path>
<path d="M 149.55 76.24
  Q 149.33 76.57 149.06 76.63
  Q 148.80 76.69 148.87 76.95
  Q 148.93 77.23 148.70 77.45
  Q 148.56 77.58 148.40 77.62
  Q 148.14 77.68 148.13 77.94
  L 147.77 95.15" stroke="#00e2d7"></path>
<path d="M 147.77 95.15
  L 129.61 94.52" stroke="#077a70"></path>
<path d="M 129.61 94.52
  Q 130.00 82.38 129.88 64.50
  Q 129.87 63.83 130.50 63.88
  Q 130.96 63.91 130.99 63.45
  L 131.12 61.43" stroke="#01e8c7"></path>
<path d="M 194.91 83.19
  L 194.89 102.57" stroke="#00d9ec"></path>
<path d="M 194.89 102.57
  Q 171.50 96.78 147.77 95.15" stroke="#07767a"></path>
<path d="M 196.16 154.65
  Q 173.30 162.31 149.33 164.47" stroke="#07767a"></path>
<path d="M 149.33 164.47
  L 124.75 165.55" stroke="#077a70"></path>
<path d="M 124.75 165.55
  L 110.98 164.90" stroke="#077c69"></path>
<path d="M 110.98 164.90
  Q 88.49 163.40 66.79 157.17" stroke="#08805f"></path>
<path d="M 129.61 94.52
  L 104.18 95.51" stroke="#077c69"></path>
<path d="M 104.18 95.51
  L 104.10 76.46" stroke="#02eeb6"></path>
<path d="M 197.33 177.64
  Q 196.57 167.01 196.87 156.84
  C 196.90 155.94 196.57 155.40 196.16 154.65" stroke="#00d9ec"></path>
<path d="M 196.16 154.65
  Q 196.47 154.66 196.66 154.46
  Q 196.79 154.31 196.79 154.00
  Q 196.84 128.80 196.73 103.60
  A 0.71 0.70 7.5 0 0 196.20 102.92
  L 194.89 102.57" stroke="#077284"></path>
<path d="M 104.18 95.51
  Q 86.16 97.14 67.81 101.07" stroke="#08805f"></path>
<path d="M 67.81 101.07
  Q 68.82 100.87 67.77 99.69
  Q 67.41 99.29 67.40 98.76
  L 66.88 81.97" stroke="#04f79f"></path>
<path d="M 149.38 213.85
  Q 149.29 213.47 149.03 213.38
  Q 148.94 213.35 148.99 213.27
  Q 149.11 213.02 149.15 212.77
  A 0.54 0.51 -56.0 0 0 149.10 212.47
  Q 148.12 210.55 148.12 208.75
  Q 148.12 189.39 148.12 170.03
  C 148.12 168.67 148.52 167.36 148.72 165.98
  Q 148.32 165.57 149.33 164.47" stroke="#00e2d7"></path>
<path d="M 127.95 184.54
  Q 127.99 183.82 127.28 183.87
  Q 127.19 183.87 126.75 184.05
  Q 126.43 184.18 126.15 183.98
  Q 125.90 183.80 126.15 183.62
  Q 126.32 183.48 126.25 183.25
  Q 126.24 183.24 126.19 183.19
  Q 126.10 183.10 125.96 183.02
  Q 125.78 182.91 125.79 182.70
  L 126.06 168.05
  Q 126.07 167.77 125.94 167.52
  Q 125.76 167.14 126.09 166.76
  Q 126.54 166.24 125.87 166.08
  Q 125.13 165.90 124.75 165.55" stroke="#01e8c7"></path>
<path d="M 110.98 164.90
  Q 108.61 164.80 106.93 165.62
  A 0.80 0.78 77.8 0 0 106.48 166.34
  L 106.34 178.58
  Q 106.33 179.07 106.68 179.43
  L 106.90 179.65
  Q 107.17 179.92 106.96 180.24
  Q 105.75 182.04 106.83 182.65
  Q 107.69 183.14 107.76 183.13
  Q 109.55 182.86 110.75 184.01" stroke="#02eeb6"></path>
<path d="M 67.81 101.07
  L 59.57 103.06
  Q 59.00 103.20 59.00 103.79
  L 59.01 154.02
  A 0.93 0.92 9.1 0 0 59.65 154.90
  L 66.79 157.17" stroke="#098552"></path>
<path d="M 66.79 157.17
  Q 67.77 158.45 67.40 159.75
  Q 67.37 159.88 67.49 159.94
  Q 67.65 160.01 67.81 160.10
  Q 68.11 160.25 68.10 160.59
  L 68.03 176.96" stroke="#04f79f"></path>
<path d="M 41.69 142.46
  L 41.66 111.62" stroke="#03ef7d"></path>
<path d="M 149.8480 143.9600
  A 16.05 10.81 89.9 0 0 160.6300 127.8911
  A 16.05 10.81 89.9 0 0 149.7920 111.8600
  A 16.05 10.81 89.9 0 0 139.0100 127.9289
  A 16.05 10.81 89.9 0 0 149.8480 143.9600" stroke="#868789"></path>
<path d="M 106.8880 144.0600
  A 16.06 10.79 89.9 0 0 117.6500 127.9812
  A 16.06 10.79 89.9 0 0 106.8320 111.9400
  A 16.06 10.79 89.9 0 0 96.0700 128.0188
  A 16.06 10.79 89.9 0 0 106.8880 144.0600" stroke="#868789"></path>
</g>
<path d="M 59.62 0.00
  L 195.59 0.00
  C 228.47 2.68 253.09 26.81 256.00 59.63
  L 256.00 195.60
  C 253.30 228.65 228.80 253.54 195.71 256.00
  L 60.39 256.00
  C 27.27 253.28 2.29 228.66 0.00 195.46
  L 0.00 60.27
  C 2.39 27.42 26.89 3.29 59.62 0.00
  Z
  M 131.12 61.43
  Q 130.62 62.22 129.99 62.55
  Q 129.59 62.76 129.29 62.41
  L 119.67 51.08
  A 1.00 0.98 33.2 0 1 119.47 50.16
  Q 121.20 44.16 116.96 40.90
  C 109.09 34.84 99.60 45.76 106.64 52.75
  Q 109.55 55.63 114.21 54.71
  Q 114.75 54.60 115.11 55.02
  L 122.36 63.44
  A 0.51 0.51 0.0 0 1 122.19 64.23
  Q 115.18 67.65 114.21 75.46
  A 0.45 0.44 -87.5 0 1 113.80 75.85
  L 104.10 76.46
  Q 84.88 78.06 66.88 81.97
  Q 60.73 83.32 55.76 84.70
  C 49.93 86.32 42.03 91.51 41.44 98.24
  Q 41.05 102.69 41.66 111.62
  Q 38.94 111.97 36.35 112.07
  Q 32.81 112.21 31.25 113.22
  Q 28.29 115.15 28.31 118.99
  Q 28.37 127.31 28.34 135.64
  C 28.31 143.21 36.53 142.40 41.69 142.46
  Q 41.38 148.96 41.43 155.50
  Q 41.47 160.91 42.96 163.79
  C 47.31 172.20 59.72 174.83 68.03 176.96
  Q 89.27 182.60 110.75 184.01
  L 127.95 184.54
  Q 128.64 184.45 129.18 184.56
  Q 129.74 184.67 129.74 185.24
  L 129.92 221.54
  A 3.44 3.44 0.0 0 0 135.41 224.28
  L 149.38 213.85
  L 197.33 177.64
  C 203.53 172.89 214.60 166.03 214.50 158.01
  Q 214.40 150.40 214.50 142.67
  Q 214.50 142.11 215.06 142.11
  C 222.56 142.10 227.27 142.05 227.27 133.08
  Q 227.26 126.27 227.21 119.46
  C 227.19 116.37 226.38 114.19 223.84 112.64
  C 221.48 111.21 217.83 111.75 214.92 111.70
  Q 214.36 111.69 214.35 111.13
  C 214.28 106.00 215.16 98.94 213.14 94.60
  C 209.92 87.72 202.26 84.56 194.91 83.19
  Q 173.30 77.92 149.55 76.24
  L 146.83 76.02
  Q 146.35 75.98 146.29 75.49
  C 145.64 69.51 142.67 66.54 137.61 63.89
  Q 137.12 63.63 137.48 63.21
  L 154.70 43.20
  A 0.96 0.92 -64.5 0 1 155.53 42.89
  C 168.42 44.82 168.15 26.05 156.29 27.40
  C 151.07 27.99 148.03 33.66 150.26 38.52
  Q 150.46 38.97 150.14 39.34
  L 131.12 61.43
  Z" fill="#0d0e12"></path>
<path d="M 149.55 76.24
  Q 149.33 76.57 149.06 76.63
  Q 148.80 76.69 148.87 76.95
  Q 148.93 77.23 148.70 77.45
  Q 148.56 77.58 148.40 77.62
  Q 148.14 77.68 148.13 77.94
  L 147.77 95.15
  L 129.61 94.52
  Q 130.00 82.38 129.88 64.50
  Q 129.87 63.83 130.50 63.88
  Q 130.96 63.91 130.99 63.45
  L 131.12 61.43
  L 150.14 39.34
  Q 150.46 38.97 150.26 38.52
  C 148.03 33.66 151.07 27.99 156.29 27.40
  C 168.15 26.05 168.42 44.82 155.53 42.89
  A 0.96 0.92 -64.5 0 0 154.70 43.20
  L 137.48 63.21
  Q 137.12 63.63 137.61 63.89
  C 142.67 66.54 145.64 69.51 146.29 75.49
  Q 146.35 75.98 146.83 76.02
  L 149.55 76.24
  Z" fill="#00e6cd"></path>
<path d="M 131.12 61.43
  L 130.99 63.45
  Q 130.96 63.91 130.50 63.88
  Q 129.87 63.83 129.88 64.50
  Q 130.00 82.38 129.61 94.52
  L 104.18 95.51
  L 104.10 76.46
  L 113.80 75.85
  A 0.45 0.44 -87.5 0 0 114.21 75.46
  Q 115.18 67.65 122.19 64.23
  A 0.51 0.51 0.0 0 0 122.36 63.44
  L 115.11 55.02
  Q 114.75 54.60 114.21 54.71
  Q 109.55 55.63 106.64 52.75
  C 99.60 45.76 109.09 34.84 116.96 40.90
  Q 121.20 44.16 119.47 50.16
  A 1.00 0.98 33.2 0 0 119.67 51.08
  L 129.29 62.41
  Q 129.59 62.76 129.99 62.55
  Q 130.62 62.22 131.12 61.43
  Z" fill="#01eac0"></path>
<path d="M 149.55 76.24
  Q 173.30 77.92 194.91 83.19
  L 194.89 102.57
  Q 171.50 96.78 147.77 95.15
  L 148.13 77.94
  Q 148.14 77.68 148.40 77.62
  Q 148.56 77.58 148.70 77.45
  Q 148.93 77.23 148.87 76.95
  Q 148.80 76.69 149.06 76.63
  Q 149.33 76.57 149.55 76.24
  Z" fill="#00dde1"></path>
<path d="M 104.10 76.46
  L 104.18 95.51
  Q 86.16 97.14 67.81 101.07
  Q 68.82 100.87 67.77 99.69
  Q 67.41 99.29 67.40 98.76
  L 66.88 81.97
  Q 84.88 78.06 104.10 76.46
  Z" fill="#02f2ac"></path>
<path d="M 66.88 81.97
  L 67.40 98.76
  Q 67.41 99.29 67.77 99.69
  Q 68.82 100.87 67.81 101.07
  L 59.57 103.06
  Q 59.00 103.20 59.00 103.79
  L 59.01 154.02
  A 0.93 0.92 9.1 0 0 59.65 154.90
  L 66.79 157.17
  Q 67.77 158.45 67.40 159.75
  Q 67.37 159.88 67.49 159.94
  Q 67.65 160.01 67.81 160.10
  Q 68.11 160.25 68.10 160.59
  L 68.03 176.96
  C 59.72 174.83 47.31 172.20 42.96 163.79
  Q 41.47 160.91 41.43 155.50
  Q 41.38 148.96 41.69 142.46
  L 41.66 111.62
  Q 41.05 102.69 41.44 98.24
  C 42.03 91.51 49.93 86.32 55.76 84.70
  Q 60.73 83.32 66.88 81.97
  Z" fill="#05fc92"></path>
<path d="M 194.91 83.19
  C 202.26 84.56 209.92 87.72 213.14 94.60
  C 215.16 98.94 214.28 106.00 214.35 111.13
  Q 214.36 111.69 214.92 111.70
  C 217.83 111.75 221.48 111.21 223.84 112.64
  C 226.38 114.19 227.19 116.37 227.21 119.46
  Q 227.26 126.27 227.27 133.08
  C 227.27 142.05 222.56 142.10 215.06 142.11
  Q 214.50 142.11 214.50 142.67
  Q 214.40 150.40 214.50 158.01
  C 214.60 166.03 203.53 172.89 197.33 177.64
  Q 196.57 167.01 196.87 156.84
  C 196.90 155.94 196.57 155.40 196.16 154.65
  Q 196.47 154.66 196.66 154.46
  Q 196.79 154.31 196.79 154.00
  Q 196.84 128.80 196.73 103.60
  A 0.71 0.70 7.5 0 0 196.20 102.92
  L 194.89 102.57
  L 194.91 83.19
  Z" fill="#00d5f6"></path>
<path d="M 129.61 94.52
  L 147.77 95.15
  Q 171.50 96.78 194.89 102.57
  L 196.20 102.92
  A 0.71 0.70 7.5 0 1 196.73 103.60
  Q 196.84 128.80 196.79 154.00
  Q 196.79 154.31 196.66 154.46
  Q 196.47 154.66 196.16 154.65
  Q 173.30 162.31 149.33 164.47
  L 124.75 165.55
  L 110.98 164.90
  Q 88.49 163.40 66.79 157.17
  L 59.65 154.90
  A 0.93 0.92 9.1 0 1 59.01 154.02
  L 59.00 103.79
  Q 59.00 103.20 59.57 103.06
  L 67.81 101.07
  Q 86.16 97.14 104.18 95.51
  L 129.61 94.52
  Z
  M 149.8480 143.9600
  A 16.05 10.81 89.9 0 0 160.6300 127.8911
  A 16.05 10.81 89.9 0 0 149.7920 111.8600
  A 16.05 10.81 89.9 0 0 139.0100 127.9289
  A 16.05 10.81 89.9 0 0 149.8480 143.9600
  Z
  M 106.8880 144.0600
  A 16.06 10.79 89.9 0 0 117.6500 127.9812
  A 16.06 10.79 89.9 0 0 106.8320 111.9400
  A 16.06 10.79 89.9 0 0 96.0700 128.0188
  A 16.06 10.79 89.9 0 0 106.8880 144.0600
  Z" fill="#0d0e12"></path>
<path d="M 41.66 111.62
  L 41.69 142.46
  C 36.53 142.40 28.31 143.21 28.34 135.64
  Q 28.37 127.31 28.31 118.99
  Q 28.29 115.15 31.25 113.22
  Q 32.81 112.21 36.35 112.07
  Q 38.94 111.97 41.66 111.62
  Z" fill="#00e168"></path>
<ellipse ry="10.81" rx="16.05" transform="translate(149.82,127.91) rotate(89.9)" cy="0.00" cx="0.00" fill="#ffffff"></ellipse>
<ellipse ry="10.79" rx="16.06" transform="translate(106.86,128.00) rotate(89.9)" cy="0.00" cx="0.00" fill="#ffffff"></ellipse>
<path d="M 196.16 154.65
  C 196.57 155.40 196.90 155.94 196.87 156.84
  Q 196.57 167.01 197.33 177.64
  L 149.38 213.85
  Q 149.29 213.47 149.03 213.38
  Q 148.94 213.35 148.99 213.27
  Q 149.11 213.02 149.15 212.77
  A 0.54 0.51 -56.0 0 0 149.10 212.47
  Q 148.12 210.55 148.12 208.75
  Q 148.12 189.39 148.12 170.03
  C 148.12 168.67 148.52 167.36 148.72 165.98
  Q 148.32 165.57 149.33 164.47
  Q 173.30 162.31 196.16 154.65
  Z" fill="#00dde1"></path>
<path d="M 66.79 157.17
  Q 88.49 163.40 110.98 164.90
  Q 108.61 164.80 106.93 165.62
  A 0.80 0.78 77.8 0 0 106.48 166.34
  L 106.34 178.58
  Q 106.33 179.07 106.68 179.43
  L 106.90 179.65
  Q 107.17 179.92 106.96 180.24
  Q 105.75 182.04 106.83 182.65
  Q 107.69 183.14 107.76 183.13
  Q 109.55 182.86 110.75 184.01
  Q 89.27 182.60 68.03 176.96
  L 68.10 160.59
  Q 68.11 160.25 67.81 160.10
  Q 67.65 160.01 67.49 159.94
  Q 67.37 159.88 67.40 159.75
  Q 67.77 158.45 66.79 157.17
  Z" fill="#02f2ac"></path>
<path d="M 149.33 164.47
  Q 148.32 165.57 148.72 165.98
  C 148.52 167.36 148.12 168.67 148.12 170.03
  Q 148.12 189.39 148.12 208.75
  Q 148.12 210.55 149.10 212.47
  A 0.54 0.51 -56.0 0 1 149.15 212.77
  Q 149.11 213.02 148.99 213.27
  Q 148.94 213.35 149.03 213.38
  Q 149.29 213.47 149.38 213.85
  L 135.41 224.28
  A 3.44 3.44 0.0 0 1 129.92 221.54
  L 129.74 185.24
  Q 129.74 184.67 129.18 184.56
  Q 128.64 184.45 127.95 184.54
  Q 127.99 183.82 127.28 183.87
  Q 127.19 183.87 126.75 184.05
  Q 126.43 184.18 126.15 183.98
  Q 125.90 183.80 126.15 183.62
  Q 126.32 183.48 126.25 183.25
  Q 126.24 183.24 126.19 183.19
  Q 126.10 183.10 125.96 183.02
  Q 125.78 182.91 125.79 182.70
  L 126.06 168.05
  Q 126.07 167.77 125.94 167.52
  Q 125.76 167.14 126.09 166.76
  Q 126.54 166.24 125.87 166.08
  Q 125.13 165.90 124.75 165.55
  L 149.33 164.47
  Z" fill="#00e6cd"></path>
<path d="M 110.98 164.90
  L 124.75 165.55
  Q 125.13 165.90 125.87 166.08
  Q 126.54 166.24 126.09 166.76
  Q 125.76 167.14 125.94 167.52
  Q 126.07 167.77 126.06 168.05
  L 125.79 182.70
  Q 125.78 182.91 125.96 183.02
  Q 126.10 183.10 126.19 183.19
  Q 126.24 183.24 126.25 183.25
  Q 126.32 183.48 126.15 183.62
  Q 125.90 183.80 126.15 183.98
  Q 126.43 184.18 126.75 184.05
  Q 127.19 183.87 127.28 183.87
  Q 127.99 183.82 127.95 184.54
  L 110.75 184.01
  Q 109.55 182.86 107.76 183.13
  Q 107.69 183.14 106.83 182.65
  Q 105.75 182.04 106.96 180.24
  Q 107.17 179.92 106.90 179.65
  L 106.68 179.43
  Q 106.33 179.07 106.34 178.58
  L 106.48 166.34
  A 0.80 0.78 77.8 0 1 106.93 165.62
  Q 108.61 164.80 110.98 164.90
  Z" fill="#01eac0"></path>
</svg>
