<svg viewBox="0.00 0.00 500.00 500.00" version="1.1" xmlns="http://www.w3.org/2000/svg">
<path d="M 375.01 250.00
  A 125.01 125.01 0.0 0 0 250.00 124.99
  A 125.01 125.01 0.0 0 0 124.99 250.00
  A 125.01 125.01 0.0 0 0 250.00 375.01
  A 125.01 125.01 0.0 0 0 375.01 250.00" stroke-linecap="butt" fill="none" stroke-width="2.00" stroke="#808080"></path>
<path d="M 240.87 0.00
  L 259.29 0.00
  Q 264.76 0.53 270.24 0.94
  C 341.91 6.31 408.32 43.56 450.98 101.24
  Q 491.63 156.20 498.61 225.02
  Q 499.41 232.93 500.00 240.88
  L 500.00 258.29
  Q 499.56 263.64 499.17 268.99
  C 490.23 391.25 392.67 489.31 270.49 499.04
  Q 264.82 499.49 259.16 500.00
  L 241.73 500.00
  Q 224.23 499.03 214.82 497.63
  C 93.49 479.53 3.53 379.00 0.00 256.11
  L 0.00 243.76
  C 3.53 117.62 99.83 13.50 225.50 1.21
  Q 228.91 0.88 240.87 0.00
  Z
  M 375.01 250.00
  A 125.01 125.01 0.0 0 0 250.00 124.99
  A 125.01 125.01 0.0 0 0 124.99 250.00
  A 125.01 125.01 0.0 0 0 250.00 375.01
  A 125.01 125.01 0.0 0 0 375.01 250.00
  Z" fill="#000000"></path>
<circle r="125.01" cy="250.00" cx="250.00" fill="#ffffff"></circle>
</svg>
