<svg viewBox="0.00 0.00 214.00 214.00" version="1.1" xmlns="http://www.w3.org/2000/svg">
<g stroke-linecap="butt" fill="none" stroke-width="2.00">
<path d="M 126.57 32.93
  Q 123.93 33.20 120.87 36.50
  Q 120.54 36.85 120.07 36.91
  Q 119.71 36.96 119.50 37.17
  Q 115.03 41.69 110.45 46.11
  Q 109.77 46.76 108.95 47.05
  Q 108.47 47.22 108.11 47.59
  L 99.70 55.98
  Q 99.53 56.16 99.29 56.16
  Q 99.10 56.16 98.93 56.18
  Q 98.44 56.23 98.09 56.58
  C 96.10 58.61 93.04 61.04 91.72 63.53
  Q 91.61 63.73 91.55 63.51
  L 91.44 63.08
  A 0.18 0.18 0.0 0 0 91.10 63.07
  Q 90.89 63.69 90.32 63.67
  Q 89.87 63.66 89.76 64.11
  L 89.66 64.51" stroke="#36bbff"></path>
<path d="M 89.66 64.51
  C 86.57 58.33 83.95 50.99 78.95 46.31
  C 71.14 38.99 58.75 40.10 52.03 48.14
  C 50.32 50.19 49.51 52.88 48.74 55.47" stroke="#14a6fb"></path>
<path d="M 48.74 55.47
  Q 48.29 56.16 47.78 56.03" stroke="#14abf8"></path>
<path d="M 82.20 99.89
  Q 74.52 95.54 67.47 90.29
  Q 67.44 90.27 67.22 90.04
  Q 67.05 89.87 66.81 89.87
  Q 66.48 89.87 66.25 89.63
  Q 65.20 88.47 63.80 87.85
  Q 63.34 87.65 62.99 87.29
  Q 62.02 86.28 60.76 85.74
  Q 60.28 85.53 59.90 85.19
  Q 58.91 84.30 57.66 83.82
  Q 57.22 83.65 56.91 83.28
  C 56.08 82.25 54.71 81.89 53.93 81.25
  Q 50.73 78.63 47.40 76.19
  Q 44.34 73.94 42.45 73.41
  Q 42.34 73.38 42.39 73.28
  L 42.50 73.01
  Q 42.56 72.87 42.41 72.84
  Q 42.07 72.77 41.52 72.96" stroke="#059cec"></path>
<path d="M 90.32 78.85
  Q 89.05 78.59 88.60 79.15
  Q 88.44 79.35 88.21 79.22
  Q 87.64 78.91 86.99 79.01
  A 0.90 0.89 -23.2 0 1 86.15 78.68
  Q 85.56 77.92 84.72 77.38
  Q 84.34 77.13 83.91 77.00
  Q 82.75 76.62 82.04 75.53
  Q 81.81 75.17 81.40 75.06
  Q 80.10 74.70 79.19 73.68
  Q 78.87 73.31 78.42 73.11
  Q 76.42 72.23 74.93 70.55
  Q 74.48 70.04 73.83 69.97
  Q 73.35 69.91 73.04 69.53
  Q 72.15 68.43 70.86 67.97
  Q 70.36 67.78 69.99 67.40
  Q 69.05 66.42 67.84 65.95
  Q 67.34 65.76 66.97 65.38
  Q 65.99 64.36 64.72 63.86
  Q 64.22 63.67 63.85 63.29
  Q 62.86 62.28 61.55 61.80
  Q 61.13 61.64 60.86 61.29
  Q 60.01 60.16 58.66 59.90
  Q 58.19 59.82 57.93 59.42
  Q 57.08 58.16 55.64 57.90
  Q 55.17 57.81 54.91 57.41
  Q 54.15 56.28 52.94 55.93
  Q 52.53 55.81 52.20 55.54
  L 50.85 54.41
  Q 50.48 54.10 50.26 54.53
  Q 49.72 55.57 48.74 55.47" stroke="#0591f4"></path>
<path d="M 146.80 75.44
  L 145.64 75.28
  Q 145.17 75.22 144.83 75.55
  L 136.68 83.70
  Q 136.51 83.87 136.27 83.88
  Q 136.11 83.88 135.94 83.86
  Q 135.60 83.82 135.35 84.07
  Q 129.27 90.22 125.48 93.61
  Q 125.28 93.79 124.92 93.88
  A 1.70 1.68 15.7 0 0 124.11 94.33
  C 121.01 97.48 118.05 99.57 114.89 103.56
  Q 114.65 103.86 114.27 103.86
  Q 114.06 103.86 113.86 103.90
  Q 113.54 103.96 113.23 104.25
  Q 111.60 105.75 109.92 107.55" stroke="#55b2ff"></path>
<path d="M 93.04 72.08
  L 89.66 64.51" stroke="#27a1fb"></path>
<path d="M 76.58 114.52
  L 71.75 113.03
  Q 71.23 112.87 70.91 112.45
  Q 70.08 111.37 68.87 110.90
  Q 68.33 110.68 67.90 110.28
  Q 66.63 109.08 64.95 108.63
  A 0.88 0.88 0.0 0 1 64.37 108.13
  Q 63.90 107.09 62.91 107.10
  Q 62.36 107.10 62.03 106.66
  Q 61.11 105.45 59.74 105.04
  Q 59.22 104.88 58.87 104.46
  Q 58.01 103.43 56.77 103.03
  Q 56.27 102.87 55.92 102.47
  Q 54.95 101.39 53.69 101.02
  Q 53.23 100.89 52.94 100.51
  C 51.97 99.25 50.87 99.19 49.82 98.40
  Q 49.09 97.85 48.35 97.35
  Q 45.20 95.24 42.25 92.88
  Q 40.52 91.49 38.40 91.58
  A 1.43 1.43 0.0 0 1 37.60 91.38
  Q 36.09 90.49 35.53 89.06" stroke="#06a8e4"></path>
<path d="M 160.32 103.97
  Q 159.11 106.37 157.62 107.74
  Q 157.47 107.88 157.26 107.88
  L 156.96 107.88
  Q 156.53 107.88 156.22 108.18
  L 152.80 111.55
  A 0.60 0.58 67.0 0 0 152.63 111.99
  Q 152.63 112.15 152.61 112.32
  Q 152.55 112.74 152.26 113.05
  L 150.74 114.68
  Q 150.56 114.88 150.30 114.88
  L 149.91 114.88
  Q 149.48 114.88 149.18 115.19
  L 147.72 116.69
  Q 147.53 116.88 147.27 116.88
  L 146.94 116.88
  Q 146.50 116.88 146.20 117.18
  L 141.28 122.10
  Q 141.17 122.21 141.31 122.28
  Q 141.45 122.34 141.59 122.40
  Q 141.83 122.51 141.69 122.73
  Q 140.98 123.85 139.67 124.02
  Q 139.28 124.07 139.00 124.34
  L 129.44 133.78
  Q 129.34 133.88 129.19 133.88
  L 128.76 133.88
  Q 128.47 133.88 128.29 134.10
  Q 126.52 136.27 124.06 137.46" stroke="#6eaaff"></path>
<path d="M 67.63 137.75
  Q 65.88 135.38 63.04 134.11
  C 62.17 133.73 61.82 133.34 61.15 132.74
  C 60.12 131.79 58.85 131.46 57.91 130.23
  Q 57.64 129.88 57.20 129.88
  L 56.79 129.88
  Q 56.43 129.88 56.20 129.60
  Q 55.13 128.23 53.49 127.72
  Q 53.09 127.59 52.84 127.27
  Q 52.05 126.27 50.82 125.94
  Q 50.37 125.82 50.08 125.46
  Q 49.17 124.34 47.86 123.82
  Q 47.41 123.64 47.05 123.31
  Q 45.92 122.27 44.49 121.74
  Q 44.01 121.55 43.68 121.16
  Q 42.99 120.32 41.97 119.93
  Q 41.51 119.75 41.16 119.41
  Q 40.06 118.37 38.68 117.81
  Q 38.29 117.65 38.02 117.33
  C 37.04 116.21 35.66 115.78 34.67 115.00
  Q 33.07 113.76 31.36 112.68
  Q 31.13 112.54 30.99 112.78
  Q 30.91 112.93 30.73 112.88
  Q 30.62 112.84 30.62 112.73
  Q 30.62 112.58 30.61 112.44
  Q 30.61 112.26 30.46 112.16
  L 27.68 110.20" stroke="#06b5db"></path>
<path d="M 166.76 117.37
  L 175.93 136.45" stroke="#9089ff"></path>
<path d="M 175.93 136.45
  Q 175.40 136.76 175.58 137.47
  Q 175.63 137.65 175.47 137.57
  Q 175.34 137.50 175.22 137.39
  Q 174.93 137.11 174.59 137.34
  Q 171.94 139.09 169.91 141.55
  Q 169.72 141.78 169.49 141.84
  Q 169.20 141.92 168.88 141.91
  A 0.93 0.92 22.9 0 0 168.20 142.18
  L 157.89 152.48
  Q 157.75 152.62 157.55 152.63
  Q 157.40 152.63 157.24 152.62
  A 1.03 1.02 -65.4 0 0 156.48 152.91
  Q 154.43 155.00 152.28 156.97
  Q 151.63 157.57 150.55 159.05
  Q 149.72 160.20 148.56 160.99
  Q 145.41 163.15 145.27 163.28
  Q 142.09 166.21 139.10 169.49" stroke="#86a1ff"></path>
<path d="M 61.78 152.95
  L 58.01 150.39
  Q 57.61 150.12 57.13 150.12
  L 56.83 150.12
  Q 56.48 150.12 56.24 149.87
  L 54.72 148.31
  Q 54.53 148.12 54.27 148.12
  L 53.91 148.12
  Q 53.48 148.12 53.18 147.81
  L 51.75 146.34
  Q 51.54 146.12 51.24 146.12
  Q 51.06 146.12 50.88 146.12
  Q 50.36 146.13 50.04 145.71
  Q 49.09 144.45 47.66 143.71
  Q 44.21 141.93 41.18 139.51
  C 40.95 139.32 40.63 139.28 40.32 139.15
  C 39.48 138.81 38.99 137.72 37.86 137.31
  Q 37.37 137.13 37.01 136.75
  Q 35.93 135.61 34.46 135.09
  A 1.48 1.48 0.0 0 1 33.72 134.50
  Q 33.02 133.38 31.74 133.24
  A 1.21 1.19 -11.7 0 1 30.85 132.67
  C 30.02 131.28 28.45 131.23 27.56 130.68
  Q 24.52 128.80 21.46 126.86" stroke="#05c1d1"></path>
<path d="M 184.86 155.23
  Q 184.27 154.94 183.90 155.42
  Q 183.67 155.72 183.29 155.80
  C 181.72 156.12 180.05 158.45 178.99 159.65
  A 1.25 1.17 13.7 0 1 178.30 160.04
  Q 178.09 160.08 177.89 160.14
  Q 177.51 160.23 177.19 160.53
  Q 173.27 164.23 169.54 168.12
  Q 168.59 169.12 167.43 169.84
  C 164.30 171.81 161.52 174.45 158.78 176.93
  A 0.68 0.66 23.5 0 1 158.33 177.10
  Q 157.86 177.11 157.88 177.58
  A 0.71 0.71 0.0 0 1 157.63 178.14
  L 153.28 181.85
  Q 152.94 182.15 152.84 182.59
  Q 152.65 183.39 151.80 183.59
  A 0.36 0.35 -72.6 0 0 151.69 183.65
  L 148.94 186.51
  Q 148.71 186.75 148.80 187.06
  L 149.00 187.70
  Q 149.14 188.15 148.73 187.92
  L 147.06 186.96" stroke="#989bff"></path>
<path d="M 211.93 167.59
  Q 208.09 174.10 202.49 174.67
  C 196.11 175.32 192.85 171.80 190.07 166.13
  Q 187.41 160.70 184.86 155.23" stroke="#a283ff"></path>
<path d="M 184.86 155.23
  L 175.93 136.45" stroke="#9c85ff"></path>
<path d="M 52.23 177.72
  L 46.80 173.55
  Q 46.43 173.27 45.98 173.15
  Q 44.64 172.80 43.86 171.49
  Q 43.64 171.13 43.22 171.13
  L 42.69 171.13
  Q 42.32 171.13 42.07 170.84
  L 40.04 168.45
  Q 39.66 168.00 39.09 167.84
  Q 38.54 167.67 38.29 167.16
  Q 38.09 166.73 37.62 166.68
  Q 36.11 166.53 35.16 165.11
  Q 34.90 164.72 34.44 164.67
  Q 32.97 164.52 32.20 163.17
  A 1.01 1.00 -11.4 0 0 31.45 162.68
  Q 29.92 162.48 29.24 161.07
  A 0.80 0.78 76.4 0 0 28.54 160.63
  L 28.01 160.63
  Q 27.60 160.63 27.37 160.29
  Q 26.51 158.99 25.07 158.48
  C 24.20 158.18 23.73 157.68 23.12 157.09
  Q 22.81 156.79 22.39 156.64
  Q 21.04 156.16 20.20 155.01
  A 0.74 0.73 -9.7 0 0 19.80 154.73
  C 18.27 154.30 17.63 153.03 16.64 152.40
  Q 15.76 151.84 14.84 151.32
  Q 14.54 151.15 14.38 150.84
  L 14.13 150.34
  A 0.17 0.17 0.0 0 0 13.85 150.30
  Q 13.37 150.83 12.77 150.19" stroke="#05ccc9"></path>
<path d="M 211.99 117.71
  L 208.45 117.03
  Q 207.99 116.94 207.55 117.12
  Q 206.54 117.55 205.00 117.57
  Q 182.10 117.95 171.85 117.85
  C 170.90 117.84 169.88 117.24 168.79 117.96
  Q 168.37 118.24 168.37 117.74
  L 168.37 117.24
  A 0.55 0.54 -82.4 0 0 167.97 116.71
  Q 167.39 116.54 167.04 115.68" stroke="#b169ff"></path>
<path d="M 48.75 186.59
  Q 48.24 186.16 47.78 186.68
  Q 47.43 187.07 47.07 186.70
  L 45.72 185.31
  Q 45.53 185.12 45.27 185.12
  L 44.91 185.12
  Q 44.48 185.12 44.18 184.81
  L 42.72 183.31
  Q 42.53 183.12 42.27 183.12
  L 41.91 183.12
  Q 41.48 183.12 41.18 182.81
  L 39.72 181.31
  Q 39.53 181.12 39.27 181.12
  L 38.91 181.12
  Q 38.48 181.12 38.18 180.81
  L 36.72 179.31
  Q 36.53 179.12 36.27 179.12
  L 35.91 179.12
  Q 35.48 179.12 35.18 178.81
  L 33.72 177.31
  Q 33.53 177.12 33.27 177.12
  L 32.91 177.12
  Q 32.48 177.12 32.18 176.81
  L 30.72 175.31
  Q 30.53 175.12 30.27 175.12
  L 29.91 175.12
  Q 29.48 175.12 29.18 174.81
  L 27.72 173.31
  Q 27.53 173.12 27.27 173.12
  L 26.91 173.12
  Q 26.48 173.12 26.18 172.81
  L 24.72 171.31
  Q 24.53 171.12 24.27 171.12
  L 23.91 171.12
  Q 23.48 171.12 23.18 170.81
  L 21.72 169.31
  Q 21.53 169.12 21.27 169.12
  L 20.91 169.12
  Q 20.48 169.12 20.18 168.81
  L 18.72 167.31
  Q 18.53 167.12 18.27 167.12
  L 17.91 167.12
  Q 17.48 167.12 17.18 166.81
  L 15.70 165.29
  Q 15.54 165.12 15.31 165.12
  Q 15.14 165.12 14.98 165.11
  Q 14.59 165.07 14.27 164.85
  L 8.72 161.04" stroke="#05d5c2"></path>
</g>
<ellipse ry="18.76" rx="19.23" transform="translate(187.99,26.87) rotate(39.6)" cy="0.00" cx="0.00" fill="#bc65ff"></ellipse>
<path d="M 126.57 32.93
  Q 123.93 33.20 120.87 36.50
  Q 120.54 36.85 120.07 36.91
  Q 119.71 36.96 119.50 37.17
  Q 115.03 41.69 110.45 46.11
  Q 109.77 46.76 108.95 47.05
  Q 108.47 47.22 108.11 47.59
  L 99.70 55.98
  Q 99.53 56.16 99.29 56.16
  Q 99.10 56.16 98.93 56.18
  Q 98.44 56.23 98.09 56.58
  C 96.10 58.61 93.04 61.04 91.72 63.53
  Q 91.61 63.73 91.55 63.51
  L 91.44 63.08
  A 0.18 0.18 0.0 0 0 91.10 63.07
  Q 90.89 63.69 90.32 63.67
  Q 89.87 63.66 89.76 64.11
  L 89.66 64.51
  C 86.57 58.33 83.95 50.99 78.95 46.31
  C 71.14 38.99 58.75 40.10 52.03 48.14
  C 50.32 50.19 49.51 52.88 48.74 55.47
  Q 48.29 56.16 47.78 56.03
  C 50.39 48.86 52.82 40.70 56.53 34.71
  C 62.75 24.68 72.76 15.69 84.47 12.95
  C 94.55 10.59 106.08 13.08 114.69 18.80
  Q 122.72 24.13 126.57 32.93
  Z" fill="#23c0ff"></path>
<path d="M 126.57 32.93
  L 146.80 75.44
  L 145.64 75.28
  Q 145.17 75.22 144.83 75.55
  L 136.68 83.70
  Q 136.51 83.87 136.27 83.88
  Q 136.11 83.88 135.94 83.86
  Q 135.60 83.82 135.35 84.07
  Q 129.27 90.22 125.48 93.61
  Q 125.28 93.79 124.92 93.88
  A 1.70 1.68 15.7 0 0 124.11 94.33
  C 121.01 97.48 118.05 99.57 114.89 103.56
  Q 114.65 103.86 114.27 103.86
  Q 114.06 103.86 113.86 103.90
  Q 113.54 103.96 113.23 104.25
  Q 111.60 105.75 109.92 107.55
  L 93.04 72.08
  L 89.66 64.51
  L 89.76 64.11
  Q 89.87 63.66 90.32 63.67
  Q 90.89 63.69 91.10 63.07
  A 0.18 0.18 0.0 0 1 91.44 63.08
  L 91.55 63.51
  Q 91.61 63.73 91.72 63.53
  C 93.04 61.04 96.10 58.61 98.09 56.58
  Q 98.44 56.23 98.93 56.18
  Q 99.10 56.16 99.29 56.16
  Q 99.53 56.16 99.70 55.98
  L 108.11 47.59
  Q 108.47 47.22 108.95 47.05
  Q 109.77 46.76 110.45 46.11
  Q 115.03 41.69 119.50 37.17
  Q 119.71 36.96 120.07 36.91
  Q 120.54 36.85 120.87 36.50
  Q 123.93 33.20 126.57 32.93
  Z" fill="#49b6ff"></path>
<path d="M 89.66 64.51
  L 93.04 72.08
  L 90.32 78.85
  Q 89.05 78.59 88.60 79.15
  Q 88.44 79.35 88.21 79.22
  Q 87.64 78.91 86.99 79.01
  A 0.90 0.89 -23.2 0 1 86.15 78.68
  Q 85.56 77.92 84.72 77.38
  Q 84.34 77.13 83.91 77.00
  Q 82.75 76.62 82.04 75.53
  Q 81.81 75.17 81.40 75.06
  Q 80.10 74.70 79.19 73.68
  Q 78.87 73.31 78.42 73.11
  Q 76.42 72.23 74.93 70.55
  Q 74.48 70.04 73.83 69.97
  Q 73.35 69.91 73.04 69.53
  Q 72.15 68.43 70.86 67.97
  Q 70.36 67.78 69.99 67.40
  Q 69.05 66.42 67.84 65.95
  Q 67.34 65.76 66.97 65.38
  Q 65.99 64.36 64.72 63.86
  Q 64.22 63.67 63.85 63.29
  Q 62.86 62.28 61.55 61.80
  Q 61.13 61.64 60.86 61.29
  Q 60.01 60.16 58.66 59.90
  Q 58.19 59.82 57.93 59.42
  Q 57.08 58.16 55.64 57.90
  Q 55.17 57.81 54.91 57.41
  Q 54.15 56.28 52.94 55.93
  Q 52.53 55.81 52.20 55.54
  L 50.85 54.41
  Q 50.48 54.10 50.26 54.53
  Q 49.72 55.57 48.74 55.47
  C 49.51 52.88 50.32 50.19 52.03 48.14
  C 58.75 40.10 71.14 38.99 78.95 46.31
  C 83.95 50.99 86.57 58.33 89.66 64.51
  Z" fill="#058bf7"></path>
<path d="M 90.32 78.85
  L 82.20 99.89
  Q 74.52 95.54 67.47 90.29
  Q 67.44 90.27 67.22 90.04
  Q 67.05 89.87 66.81 89.87
  Q 66.48 89.87 66.25 89.63
  Q 65.20 88.47 63.80 87.85
  Q 63.34 87.65 62.99 87.29
  Q 62.02 86.28 60.76 85.74
  Q 60.28 85.53 59.90 85.19
  Q 58.91 84.30 57.66 83.82
  Q 57.22 83.65 56.91 83.28
  C 56.08 82.25 54.71 81.89 53.93 81.25
  Q 50.73 78.63 47.40 76.19
  Q 44.34 73.94 42.45 73.41
  Q 42.34 73.38 42.39 73.28
  L 42.50 73.01
  Q 42.56 72.87 42.41 72.84
  Q 42.07 72.77 41.52 72.96
  L 47.78 56.03
  Q 48.29 56.16 48.74 55.47
  Q 49.72 55.57 50.26 54.53
  Q 50.48 54.10 50.85 54.41
  L 52.20 55.54
  Q 52.53 55.81 52.94 55.93
  Q 54.15 56.28 54.91 57.41
  Q 55.17 57.81 55.64 57.90
  Q 57.08 58.16 57.93 59.42
  Q 58.19 59.82 58.66 59.90
  Q 60.01 60.16 60.86 61.29
  Q 61.13 61.64 61.55 61.80
  Q 62.86 62.28 63.85 63.29
  Q 64.22 63.67 64.72 63.86
  Q 65.99 64.36 66.97 65.38
  Q 67.34 65.76 67.84 65.95
  Q 69.05 66.42 69.99 67.40
  Q 70.36 67.78 70.86 67.97
  Q 72.15 68.43 73.04 69.53
  Q 73.35 69.91 73.83 69.97
  Q 74.48 70.04 74.93 70.55
  Q 76.42 72.23 78.42 73.11
  Q 78.87 73.31 79.19 73.68
  Q 80.10 74.70 81.40 75.06
  Q 81.81 75.17 82.04 75.53
  Q 82.75 76.62 83.91 77.00
  Q 84.34 77.13 84.72 77.38
  Q 85.56 77.92 86.15 78.68
  A 0.90 0.89 -23.2 0 0 86.99 79.01
  Q 87.64 78.91 88.21 79.22
  Q 88.44 79.35 88.60 79.15
  Q 89.05 78.59 90.32 78.85
  Z" fill="#0596f0"></path>
<path d="M 211.99 117.71
  L 208.45 117.03
  Q 207.99 116.94 207.55 117.12
  Q 206.54 117.55 205.00 117.57
  Q 182.10 117.95 171.85 117.85
  C 170.90 117.84 169.88 117.24 168.79 117.96
  Q 168.37 118.24 168.37 117.74
  L 168.37 117.24
  A 0.55 0.54 -82.4 0 0 167.97 116.71
  Q 167.39 116.54 167.04 115.68
  Q 166.87 97.78 166.98 79.83
  Q 167.01 74.67 168.26 71.38
  C 175.85 51.40 203.07 50.69 210.75 70.82
  Q 212.00 74.07 212.00 79.35
  Q 212.01 98.79 211.99 117.71
  Z" fill="#bc65ff"></path>
<path d="M 82.20 99.89
  L 76.58 114.52
  L 71.75 113.03
  Q 71.23 112.87 70.91 112.45
  Q 70.08 111.37 68.87 110.90
  Q 68.33 110.68 67.90 110.28
  Q 66.63 109.08 64.95 108.63
  A 0.88 0.88 0.0 0 1 64.37 108.13
  Q 63.90 107.09 62.91 107.10
  Q 62.36 107.10 62.03 106.66
  Q 61.11 105.45 59.74 105.04
  Q 59.22 104.88 58.87 104.46
  Q 58.01 103.43 56.77 103.03
  Q 56.27 102.87 55.92 102.47
  Q 54.95 101.39 53.69 101.02
  Q 53.23 100.89 52.94 100.51
  C 51.97 99.25 50.87 99.19 49.82 98.40
  Q 49.09 97.85 48.35 97.35
  Q 45.20 95.24 42.25 92.88
  Q 40.52 91.49 38.40 91.58
  A 1.43 1.43 0.0 0 1 37.60 91.38
  Q 36.09 90.49 35.53 89.06
  L 41.52 72.96
  Q 42.07 72.77 42.41 72.84
  Q 42.56 72.87 42.50 73.01
  L 42.39 73.28
  Q 42.34 73.38 42.45 73.41
  Q 44.34 73.94 47.40 76.19
  Q 50.73 78.63 53.93 81.25
  C 54.71 81.89 56.08 82.25 56.91 83.28
  Q 57.22 83.65 57.66 83.82
  Q 58.91 84.30 59.90 85.19
  Q 60.28 85.53 60.76 85.74
  Q 62.02 86.28 62.99 87.29
  Q 63.34 87.65 63.80 87.85
  Q 65.20 88.47 66.25 89.63
  Q 66.48 89.87 66.81 89.87
  Q 67.05 89.87 67.22 90.04
  Q 67.44 90.27 67.47 90.29
  Q 74.52 95.54 82.20 99.89
  Z" fill="#05a2e8"></path>
<path d="M 146.80 75.44
  L 160.32 103.97
  Q 159.11 106.37 157.62 107.74
  Q 157.47 107.88 157.26 107.88
  L 156.96 107.88
  Q 156.53 107.88 156.22 108.18
  L 152.80 111.55
  A 0.60 0.58 67.0 0 0 152.63 111.99
  Q 152.63 112.15 152.61 112.32
  Q 152.55 112.74 152.26 113.05
  L 150.74 114.68
  Q 150.56 114.88 150.30 114.88
  L 149.91 114.88
  Q 149.48 114.88 149.18 115.19
  L 147.72 116.69
  Q 147.53 116.88 147.27 116.88
  L 146.94 116.88
  Q 146.50 116.88 146.20 117.18
  L 141.28 122.10
  Q 141.17 122.21 141.31 122.28
  Q 141.45 122.34 141.59 122.40
  Q 141.83 122.51 141.69 122.73
  Q 140.98 123.85 139.67 124.02
  Q 139.28 124.07 139.00 124.34
  L 129.44 133.78
  Q 129.34 133.88 129.19 133.88
  L 128.76 133.88
  Q 128.47 133.88 128.29 134.10
  Q 126.52 136.27 124.06 137.46
  L 109.92 107.55
  Q 111.60 105.75 113.23 104.25
  Q 113.54 103.96 113.86 103.90
  Q 114.06 103.86 114.27 103.86
  Q 114.65 103.86 114.89 103.56
  C 118.05 99.57 121.01 97.48 124.11 94.33
  A 1.70 1.68 15.7 0 1 124.92 93.88
  Q 125.28 93.79 125.48 93.61
  Q 129.27 90.22 135.35 84.07
  Q 135.60 83.82 135.94 83.86
  Q 136.11 83.88 136.27 83.88
  Q 136.51 83.87 136.68 83.70
  L 144.83 75.55
  Q 145.17 75.22 145.64 75.28
  L 146.80 75.44
  Z" fill="#61aeff"></path>
<path d="M 35.53 89.06
  Q 36.09 90.49 37.60 91.38
  A 1.43 1.43 0.0 0 0 38.40 91.58
  Q 40.52 91.49 42.25 92.88
  Q 45.20 95.24 48.35 97.35
  Q 49.09 97.85 49.82 98.40
  C 50.87 99.19 51.97 99.25 52.94 100.51
  Q 53.23 100.89 53.69 101.02
  Q 54.95 101.39 55.92 102.47
  Q 56.27 102.87 56.77 103.03
  Q 58.01 103.43 58.87 104.46
  Q 59.22 104.88 59.74 105.04
  Q 61.11 105.45 62.03 106.66
  Q 62.36 107.10 62.91 107.10
  Q 63.90 107.09 64.37 108.13
  A 0.88 0.88 0.0 0 0 64.95 108.63
  Q 66.63 109.08 67.90 110.28
  Q 68.33 110.68 68.87 110.90
  Q 70.08 111.37 70.91 112.45
  Q 71.23 112.87 71.75 113.03
  L 76.58 114.52
  L 67.63 137.75
  Q 65.88 135.38 63.04 134.11
  C 62.17 133.73 61.82 133.34 61.15 132.74
  C 60.12 131.79 58.85 131.46 57.91 130.23
  Q 57.64 129.88 57.20 129.88
  L 56.79 129.88
  Q 56.43 129.88 56.20 129.60
  Q 55.13 128.23 53.49 127.72
  Q 53.09 127.59 52.84 127.27
  Q 52.05 126.27 50.82 125.94
  Q 50.37 125.82 50.08 125.46
  Q 49.17 124.34 47.86 123.82
  Q 47.41 123.64 47.05 123.31
  Q 45.92 122.27 44.49 121.74
  Q 44.01 121.55 43.68 121.16
  Q 42.99 120.32 41.97 119.93
  Q 41.51 119.75 41.16 119.41
  Q 40.06 118.37 38.68 117.81
  Q 38.29 117.65 38.02 117.33
  C 37.04 116.21 35.66 115.78 34.67 115.00
  Q 33.07 113.76 31.36 112.68
  Q 31.13 112.54 30.99 112.78
  Q 30.91 112.93 30.73 112.88
  Q 30.62 112.84 30.62 112.73
  Q 30.62 112.58 30.61 112.44
  Q 30.61 112.26 30.46 112.16
  L 27.68 110.20
  L 35.53 89.06
  Z" fill="#06aedf"></path>
<path d="M 160.32 103.97
  L 166.76 117.37
  L 175.93 136.45
  Q 175.40 136.76 175.58 137.47
  Q 175.63 137.65 175.47 137.57
  Q 175.34 137.50 175.22 137.39
  Q 174.93 137.11 174.59 137.34
  Q 171.94 139.09 169.91 141.55
  Q 169.72 141.78 169.49 141.84
  Q 169.20 141.92 168.88 141.91
  A 0.93 0.92 22.9 0 0 168.20 142.18
  L 157.89 152.48
  Q 157.75 152.62 157.55 152.63
  Q 157.40 152.63 157.24 152.62
  A 1.03 1.02 -65.4 0 0 156.48 152.91
  Q 154.43 155.00 152.28 156.97
  Q 151.63 157.57 150.55 159.05
  Q 149.72 160.20 148.56 160.99
  Q 145.41 163.15 145.27 163.28
  Q 142.09 166.21 139.10 169.49
  L 124.06 137.46
  Q 126.52 136.27 128.29 134.10
  Q 128.47 133.88 128.76 133.88
  L 129.19 133.88
  Q 129.34 133.88 129.44 133.78
  L 139.00 124.34
  Q 139.28 124.07 139.67 124.02
  Q 140.98 123.85 141.69 122.73
  Q 141.83 122.51 141.59 122.40
  Q 141.45 122.34 141.31 122.28
  Q 141.17 122.21 141.28 122.10
  L 146.20 117.18
  Q 146.50 116.88 146.94 116.88
  L 147.27 116.88
  Q 147.53 116.88 147.72 116.69
  L 149.18 115.19
  Q 149.48 114.88 149.91 114.88
  L 150.30 114.88
  Q 150.56 114.88 150.74 114.68
  L 152.26 113.05
  Q 152.55 112.74 152.61 112.32
  Q 152.63 112.15 152.63 111.99
  A 0.60 0.58 67.0 0 1 152.80 111.55
  L 156.22 108.18
  Q 156.53 107.88 156.96 107.88
  L 157.26 107.88
  Q 157.47 107.88 157.62 107.74
  Q 159.11 106.37 160.32 103.97
  Z" fill="#7aa5ff"></path>
<path d="M 27.68 110.20
  L 30.46 112.16
  Q 30.61 112.26 30.61 112.44
  Q 30.62 112.58 30.62 112.73
  Q 30.62 112.84 30.73 112.88
  Q 30.91 112.93 30.99 112.78
  Q 31.13 112.54 31.36 112.68
  Q 33.07 113.76 34.67 115.00
  C 35.66 115.78 37.04 116.21 38.02 117.33
  Q 38.29 117.65 38.68 117.81
  Q 40.06 118.37 41.16 119.41
  Q 41.51 119.75 41.97 119.93
  Q 42.99 120.32 43.68 121.16
  Q 44.01 121.55 44.49 121.74
  Q 45.92 122.27 47.05 123.31
  Q 47.41 123.64 47.86 123.82
  Q 49.17 124.34 50.08 125.46
  Q 50.37 125.82 50.82 125.94
  Q 52.05 126.27 52.84 127.27
  Q 53.09 127.59 53.49 127.72
  Q 55.13 128.23 56.20 129.60
  Q 56.43 129.88 56.79 129.88
  L 57.20 129.88
  Q 57.64 129.88 57.91 130.23
  C 58.85 131.46 60.12 131.79 61.15 132.74
  C 61.82 133.34 62.17 133.73 63.04 134.11
  Q 65.88 135.38 67.63 137.75
  L 61.78 152.95
  L 58.01 150.39
  Q 57.61 150.12 57.13 150.12
  L 56.83 150.12
  Q 56.48 150.12 56.24 149.87
  L 54.72 148.31
  Q 54.53 148.12 54.27 148.12
  L 53.91 148.12
  Q 53.48 148.12 53.18 147.81
  L 51.75 146.34
  Q 51.54 146.12 51.24 146.12
  Q 51.06 146.12 50.88 146.12
  Q 50.36 146.13 50.04 145.71
  Q 49.09 144.45 47.66 143.71
  Q 44.21 141.93 41.18 139.51
  C 40.95 139.32 40.63 139.28 40.32 139.15
  C 39.48 138.81 38.99 137.72 37.86 137.31
  Q 37.37 137.13 37.01 136.75
  Q 35.93 135.61 34.46 135.09
  A 1.48 1.48 0.0 0 1 33.72 134.50
  Q 33.02 133.38 31.74 133.24
  A 1.21 1.19 -11.7 0 1 30.85 132.67
  C 30.02 131.28 28.45 131.23 27.56 130.68
  Q 24.52 128.80 21.46 126.86
  L 27.68 110.20
  Z" fill="#05bbd6"></path>
<path d="M 167.04 115.68
  Q 167.39 116.54 167.97 116.71
  A 0.55 0.54 -82.4 0 1 168.37 117.24
  L 168.37 117.74
  Q 168.37 118.24 168.79 117.96
  C 169.88 117.24 170.90 117.84 171.85 117.85
  Q 182.10 117.95 205.00 117.57
  Q 206.54 117.55 207.55 117.12
  Q 207.99 116.94 208.45 117.03
  L 211.99 117.71
  L 211.93 167.59
  Q 208.09 174.10 202.49 174.67
  C 196.11 175.32 192.85 171.80 190.07 166.13
  Q 187.41 160.70 184.86 155.23
  L 175.93 136.45
  L 166.76 117.37
  Q 167.05 116.55 167.04 115.68
  Z" fill="#a56dff"></path>
<path d="M 21.46 126.86
  Q 24.52 128.80 27.56 130.68
  C 28.45 131.23 30.02 131.28 30.85 132.67
  A 1.21 1.19 -11.7 0 0 31.74 133.24
  Q 33.02 133.38 33.72 134.50
  A 1.48 1.48 0.0 0 0 34.46 135.09
  Q 35.93 135.61 37.01 136.75
  Q 37.37 137.13 37.86 137.31
  C 38.99 137.72 39.48 138.81 40.32 139.15
  C 40.63 139.28 40.95 139.32 41.18 139.51
  Q 44.21 141.93 47.66 143.71
  Q 49.09 144.45 50.04 145.71
  Q 50.36 146.13 50.88 146.12
  Q 51.06 146.12 51.24 146.12
  Q 51.54 146.12 51.75 146.34
  L 53.18 147.81
  Q 53.48 148.12 53.91 148.12
  L 54.27 148.12
  Q 54.53 148.12 54.72 148.31
  L 56.24 149.87
  Q 56.48 150.12 56.83 150.12
  L 57.13 150.12
  Q 57.61 150.12 58.01 150.39
  L 61.78 152.95
  L 52.23 177.72
  L 46.80 173.55
  Q 46.43 173.27 45.98 173.15
  Q 44.64 172.80 43.86 171.49
  Q 43.64 171.13 43.22 171.13
  L 42.69 171.13
  Q 42.32 171.13 42.07 170.84
  L 40.04 168.45
  Q 39.66 168.00 39.09 167.84
  Q 38.54 167.67 38.29 167.16
  Q 38.09 166.73 37.62 166.68
  Q 36.11 166.53 35.16 165.11
  Q 34.90 164.72 34.44 164.67
  Q 32.97 164.52 32.20 163.17
  A 1.01 1.00 -11.4 0 0 31.45 162.68
  Q 29.92 162.48 29.24 161.07
  A 0.80 0.78 76.4 0 0 28.54 160.63
  L 28.01 160.63
  Q 27.60 160.63 27.37 160.29
  Q 26.51 158.99 25.07 158.48
  C 24.20 158.18 23.73 157.68 23.12 157.09
  Q 22.81 156.79 22.39 156.64
  Q 21.04 156.16 20.20 155.01
  A 0.74 0.73 -9.7 0 0 19.80 154.73
  C 18.27 154.30 17.63 153.03 16.64 152.40
  Q 15.76 151.84 14.84 151.32
  Q 14.54 151.15 14.38 150.84
  L 14.13 150.34
  A 0.17 0.17 0.0 0 0 13.85 150.30
  Q 13.37 150.83 12.77 150.19
  L 21.46 126.86
  Z" fill="#05c7cc"></path>
<path d="M 175.93 136.45
  L 184.86 155.23
  Q 184.27 154.94 183.90 155.42
  Q 183.67 155.72 183.29 155.80
  C 181.72 156.12 180.05 158.45 178.99 159.65
  A 1.25 1.17 13.7 0 1 178.30 160.04
  Q 178.09 160.08 177.89 160.14
  Q 177.51 160.23 177.19 160.53
  Q 173.27 164.23 169.54 168.12
  Q 168.59 169.12 167.43 169.84
  C 164.30 171.81 161.52 174.45 158.78 176.93
  A 0.68 0.66 23.5 0 1 158.33 177.10
  Q 157.86 177.11 157.88 177.58
  A 0.71 0.71 0.0 0 1 157.63 178.14
  L 153.28 181.85
  Q 152.94 182.15 152.84 182.59
  Q 152.65 183.39 151.80 183.59
  A 0.36 0.35 -72.6 0 0 151.69 183.65
  L 148.94 186.51
  Q 148.71 186.75 148.80 187.06
  L 149.00 187.70
  Q 149.14 188.15 148.73 187.92
  L 147.06 186.96
  L 139.10 169.49
  Q 142.09 166.21 145.27 163.28
  Q 145.41 163.15 148.56 160.99
  Q 149.72 160.20 150.55 159.05
  Q 151.63 157.57 152.28 156.97
  Q 154.43 155.00 156.48 152.91
  A 1.03 1.02 -65.4 0 1 157.24 152.62
  Q 157.40 152.63 157.55 152.63
  Q 157.75 152.62 157.89 152.48
  L 168.20 142.18
  A 0.93 0.92 22.9 0 1 168.88 141.91
  Q 169.20 141.92 169.49 141.84
  Q 169.72 141.78 169.91 141.55
  Q 171.94 139.09 174.59 137.34
  Q 174.93 137.11 175.22 137.39
  Q 175.34 137.50 175.47 137.57
  Q 175.63 137.65 175.58 137.47
  Q 175.40 136.76 175.93 136.45
  Z" fill="#929dff"></path>
<path d="M 12.77 150.19
  Q 13.37 150.83 13.85 150.30
  A 0.17 0.17 0.0 0 1 14.13 150.34
  L 14.38 150.84
  Q 14.54 151.15 14.84 151.32
  Q 15.76 151.84 16.64 152.40
  C 17.63 153.03 18.27 154.30 19.80 154.73
  A 0.74 0.73 -9.7 0 1 20.20 155.01
  Q 21.04 156.16 22.39 156.64
  Q 22.81 156.79 23.12 157.09
  C 23.73 157.68 24.20 158.18 25.07 158.48
  Q 26.51 158.99 27.37 160.29
  Q 27.60 160.63 28.01 160.63
  L 28.54 160.63
  A 0.80 0.78 76.4 0 1 29.24 161.07
  Q 29.92 162.48 31.45 162.68
  A 1.01 1.00 -11.4 0 1 32.20 163.17
  Q 32.97 164.52 34.44 164.67
  Q 34.90 164.72 35.16 165.11
  Q 36.11 166.53 37.62 166.68
  Q 38.09 166.73 38.29 167.16
  Q 38.54 167.67 39.09 167.84
  Q 39.66 168.00 40.04 168.45
  L 42.07 170.84
  Q 42.32 171.13 42.69 171.13
  L 43.22 171.13
  Q 43.64 171.13 43.86 171.49
  Q 44.64 172.80 45.98 173.15
  Q 46.43 173.27 46.80 173.55
  L 52.23 177.72
  L 48.75 186.59
  Q 48.24 186.16 47.78 186.68
  Q 47.43 187.07 47.07 186.70
  L 45.72 185.31
  Q 45.53 185.12 45.27 185.12
  L 44.91 185.12
  Q 44.48 185.12 44.18 184.81
  L 42.72 183.31
  Q 42.53 183.12 42.27 183.12
  L 41.91 183.12
  Q 41.48 183.12 41.18 182.81
  L 39.72 181.31
  Q 39.53 181.12 39.27 181.12
  L 38.91 181.12
  Q 38.48 181.12 38.18 180.81
  L 36.72 179.31
  Q 36.53 179.12 36.27 179.12
  L 35.91 179.12
  Q 35.48 179.12 35.18 178.81
  L 33.72 177.31
  Q 33.53 177.12 33.27 177.12
  L 32.91 177.12
  Q 32.48 177.12 32.18 176.81
  L 30.72 175.31
  Q 30.53 175.12 30.27 175.12
  L 29.91 175.12
  Q 29.48 175.12 29.18 174.81
  L 27.72 173.31
  Q 27.53 173.12 27.27 173.12
  L 26.91 173.12
  Q 26.48 173.12 26.18 172.81
  L 24.72 171.31
  Q 24.53 171.12 24.27 171.12
  L 23.91 171.12
  Q 23.48 171.12 23.18 170.81
  L 21.72 169.31
  Q 21.53 169.12 21.27 169.12
  L 20.91 169.12
  Q 20.48 169.12 20.18 168.81
  L 18.72 167.31
  Q 18.53 167.12 18.27 167.12
  L 17.91 167.12
  Q 17.48 167.12 17.18 166.81
  L 15.70 165.29
  Q 15.54 165.12 15.31 165.12
  Q 15.14 165.12 14.98 165.11
  Q 14.59 165.07 14.27 164.85
  L 8.72 161.04
  L 12.77 150.19
  Z" fill="#05d1c5"></path>
<path d="M 184.86 155.23
  Q 187.41 160.70 190.07 166.13
  C 192.85 171.80 196.11 175.32 202.49 174.67
  Q 208.09 174.10 211.93 167.59
  C 213.14 186.44 204.16 200.87 185.61 205.85
  C 169.52 210.17 154.36 201.12 147.06 186.96
  L 148.73 187.92
  Q 149.14 188.15 149.00 187.70
  L 148.80 187.06
  Q 148.71 186.75 148.94 186.51
  L 151.69 183.65
  A 0.36 0.35 -72.6 0 1 151.80 183.59
  Q 152.65 183.39 152.84 182.59
  Q 152.94 182.15 153.28 181.85
  L 157.63 178.14
  A 0.71 0.71 0.0 0 0 157.88 177.58
  Q 157.86 177.11 158.33 177.10
  A 0.68 0.66 23.5 0 0 158.78 176.93
  C 161.52 174.45 164.30 171.81 167.43 169.84
  Q 168.59 169.12 169.54 168.12
  Q 173.27 164.23 177.19 160.53
  Q 177.51 160.23 177.89 160.14
  Q 178.09 160.08 178.30 160.04
  A 1.25 1.17 13.7 0 0 178.99 159.65
  C 180.05 158.45 181.72 156.12 183.29 155.80
  Q 183.67 155.72 183.90 155.42
  Q 184.27 154.94 184.86 155.23
  Z" fill="#9e98ff"></path>
<path d="M 48.75 186.59
  C 46.59 193.90 43.19 200.20 36.55 203.64
  C 21.34 211.54 1.87 200.37 1.82 183.08
  Q 1.82 179.50 3.80 174.19
  Q 6.22 167.75 8.72 161.04
  L 14.27 164.85
  Q 14.59 165.07 14.98 165.11
  Q 15.14 165.12 15.31 165.12
  Q 15.54 165.12 15.70 165.29
  L 17.18 166.81
  Q 17.48 167.12 17.91 167.12
  L 18.27 167.12
  Q 18.53 167.12 18.72 167.31
  L 20.18 168.81
  Q 20.48 169.12 20.91 169.12
  L 21.27 169.12
  Q 21.53 169.12 21.72 169.31
  L 23.18 170.81
  Q 23.48 171.12 23.91 171.12
  L 24.27 171.12
  Q 24.53 171.12 24.72 171.31
  L 26.18 172.81
  Q 26.48 173.12 26.91 173.12
  L 27.27 173.12
  Q 27.53 173.12 27.72 173.31
  L 29.18 174.81
  Q 29.48 175.12 29.91 175.12
  L 30.27 175.12
  Q 30.53 175.12 30.72 175.31
  L 32.18 176.81
  Q 32.48 177.12 32.91 177.12
  L 33.27 177.12
  Q 33.53 177.12 33.72 177.31
  L 35.18 178.81
  Q 35.48 179.12 35.91 179.12
  L 36.27 179.12
  Q 36.53 179.12 36.72 179.31
  L 38.18 180.81
  Q 38.48 181.12 38.91 181.12
  L 39.27 181.12
  Q 39.53 181.12 39.72 181.31
  L 41.18 182.81
  Q 41.48 183.12 41.91 183.12
  L 42.27 183.12
  Q 42.53 183.12 42.72 183.31
  L 44.18 184.81
  Q 44.48 185.12 44.91 185.12
  L 45.27 185.12
  Q 45.53 185.12 45.72 185.31
  L 47.07 186.70
  Q 47.43 187.07 47.78 186.68
  Q 48.24 186.16 48.75 186.59
  Z" fill="#04d9bf"></path>
</svg>
