<svg viewBox="0.00 0.00 256.00 256.00" version="1.1" xmlns="http://www.w3.org/2000/svg">
<g stroke-linecap="butt" fill="none" stroke-width="2.00">
<path d="M 215.50 256.00
  Q 215.52 222.75 215.37 189.50
  C 215.33 180.11 207.66 173.44 198.50 173.48
  Q 178.18 173.58 157.84 173.55
  Q 157.29 173.55 157.29 173.01
  L 157.30 162.77
  A 0.29 0.29 0.0 0 1 157.59 162.48
  Q 168.22 162.45 178.81 162.48
  Q 185.65 162.50 189.01 161.15
  Q 198.28 157.41 199.09 145.91
  Q 199.12 145.48 199.54 145.48
  L 212.02 145.47
  A 3.49 3.49 0.0 0 0 215.51 141.98
  L 215.51 92.53
  A 3.72 3.72 0.0 0 0 211.78 88.81
  L 199.78 88.84
  Q 199.20 88.84 199.15 88.27
  Q 198.06 76.82 189.28 73.28
  Q 185.45 71.73 174.02 71.78
  Q 156.56 71.87 139.07 71.78
  Q 138.53 71.78 138.53 71.25
  L 138.55 57.97" stroke="#808080"></path>
<path d="M 138.55 57.97
  Q 139.48 57.26 140.64 56.59
  C 148.05 52.29 151.83 43.52 151.18 35.71
  C 149.92 20.56 134.82 10.23 120.17 16.10
  C 101.24 23.68 101.34 48.47 118.62 57.92" stroke="#7f0163"></path>
<path d="M 118.62 57.92
  L 118.62 71.46
  A 0.35 0.35 0.0 0 1 118.27 71.81
  Q 96.76 71.81 75.25 71.79
  C 64.95 71.78 58.91 78.30 58.13 88.31
  Q 58.09 88.85 57.55 88.85
  Q 51.77 88.82 46.01 88.85
  Q 41.56 88.88 41.56 93.50
  Q 41.57 117.50 41.80 141.50
  Q 41.84 145.57 46.01 145.49
  Q 51.79 145.38 57.62 145.52
  Q 58.12 145.53 58.13 146.04
  C 58.28 155.41 65.31 162.56 74.75 162.51
  Q 86.97 162.44 99.24 162.48
  Q 99.77 162.48 99.77 163.00
  L 99.77 173.00
  Q 99.77 173.56 99.21 173.56
  Q 78.98 173.57 58.75 173.43
  C 48.76 173.37 41.29 181.06 41.36 191.00
  Q 41.60 223.50 41.55 256.00" stroke="#808080"></path>
<path d="M 138.55 57.97
  L 131.20 60.21" stroke="#ff80e3"></path>
<path d="M 131.20 60.21
  L 131.02 59.99
  Q 130.90 59.84 130.70 59.85
  L 125.89 60.09" stroke="#7f0163"></path>
<path d="M 125.89 60.09
  L 118.62 57.92" stroke="#ff80e3"></path>
<path d="M 125.89 60.09
  L 125.88 71.36
  Q 125.88 71.79 126.31 71.79
  L 130.79 71.81
  A 0.43 0.43 0.0 0 0 131.23 71.38
  L 131.20 60.21" stroke="#808080"></path>
<path d="M 191.70 88.10
  A 8.89 8.89 0.0 0 0 182.81 79.21
  L 74.35 79.21
  A 8.89 8.89 0.0 0 0 65.46 88.10
  L 65.46 146.30
  A 8.89 8.89 0.0 0 0 74.35 155.19
  L 182.81 155.19
  A 8.89 8.89 0.0 0 0 191.70 146.30
  L 191.70 88.10" stroke="#808080"></path>
<path d="M 58.16 96.83
  A 0.61 0.61 0.0 0 0 57.55 96.22
  L 49.47 96.22
  A 0.61 0.61 0.0 0 0 48.86 96.83
  L 48.86 137.59
  A 0.61 0.61 0.0 0 0 49.47 138.20
  L 57.55 138.20
  A 0.61 0.61 0.0 0 0 58.16 137.59
  L 58.16 96.83" stroke="#808080"></path>
<path d="M 198.98 98.04
  L 199.00 135.72" stroke="#ff80e3"></path>
<path d="M 199.00 135.72
  L 199.04 137.67
  Q 199.06 138.16 199.55 138.16
  L 207.77 138.20
  Q 208.25 138.20 208.25 137.73
  L 208.25 96.74
  Q 208.25 96.23 207.74 96.23
  L 199.74 96.24
  Q 199.18 96.24 199.04 96.78
  Q 198.89 97.33 198.98 98.04" stroke="#808080"></path>
<path d="M 199.00 135.72
  L 198.98 98.04" stroke="#7f0163"></path>
<path d="M 150.03 162.79
  A 0.32 0.32 0.0 0 0 149.71 162.47
  L 107.43 162.47
  A 0.32 0.32 0.0 0 0 107.11 162.79
  L 107.11 173.23
  A 0.32 0.32 0.0 0 0 107.43 173.55
  L 149.71 173.55
  A 0.32 0.32 0.0 0 0 150.03 173.23
  L 150.03 162.79" stroke="#808080"></path>
<path d="M 48.86 192.75
  C 48.72 213.60 48.88 234.45 48.82 255.28
  A 0.21 0.21 0.0 0 0 49.03 255.49
  L 77.26 255.50
  Q 77.76 255.50 77.76 254.99
  L 77.76 221.83
  A 3.91 3.91 0.0 0 1 81.67 217.92
  L 175.49 217.94
  A 3.80 3.79 90.0 0 1 179.28 221.74
  L 179.28 255.01
  Q 179.28 255.50 179.76 255.50
  L 207.73 255.49
  Q 208.23 255.49 208.23 255.00
  Q 208.30 223.03 208.22 191.07
  C 208.20 183.55 204.25 180.98 196.91 180.95
  Q 128.17 180.74 59.43 180.96
  C 55.19 180.97 52.05 181.81 50.06 185.46
  Q 48.90 187.59 48.86 192.75" stroke="#808080"></path>
<path d="M 172.00 225.71
  A 0.42 0.42 0.0 0 0 171.58 225.29
  L 85.60 225.29
  A 0.42 0.42 0.0 0 0 85.18 225.71
  L 85.18 255.07
  A 0.42 0.42 0.0 0 0 85.60 255.49
  L 171.58 255.49
  A 0.42 0.42 0.0 0 0 172.00 255.07
  L 172.00 225.71" stroke="#808080"></path>
<path d="M 110.24 108.77
  A 16.21 16.21 0.0 0 0 94.03 92.56
  A 16.21 16.21 0.0 0 0 77.82 108.77
  A 16.21 16.21 0.0 0 0 94.03 124.98
  A 16.21 16.21 0.0 0 0 110.24 108.77" stroke="#808080"></path>
<path d="M 179.30 108.77
  A 16.20 16.20 0.0 0 0 163.10 92.57
  A 16.20 16.20 0.0 0 0 146.90 108.77
  A 16.20 16.20 0.0 0 0 163.10 124.97
  A 16.20 16.20 0.0 0 0 179.30 108.77" stroke="#808080"></path>
<path d="M 153.89 140.58
  A 3.56 3.56 0.0 0 0 150.33 137.02
  L 106.81 137.02
  A 3.56 3.56 0.0 0 0 103.25 140.58
  L 103.25 140.76
  A 3.56 3.56 0.0 0 0 106.81 144.32
  L 150.33 144.32
  A 3.56 3.56 0.0 0 0 153.89 140.76
  L 153.89 140.58" stroke="#808080"></path>
<path d="M 102.90 108.77
  A 8.88 8.88 0.0 0 0 94.02 99.89
  A 8.88 8.88 0.0 0 0 85.14 108.77
  A 8.88 8.88 0.0 0 0 94.02 117.65
  A 8.88 8.88 0.0 0 0 102.90 108.77" stroke="#808080"></path>
<path d="M 171.97 108.78
  A 8.88 8.88 0.0 0 0 163.09 99.90
  A 8.88 8.88 0.0 0 0 154.21 108.78
  A 8.88 8.88 0.0 0 0 163.09 117.66
  A 8.88 8.88 0.0 0 0 171.97 108.78" stroke="#808080"></path>
<path d="M 73.99 196.09
  A 9.92 9.92 0.0 0 0 64.07 186.17
  A 9.92 9.92 0.0 0 0 54.15 196.09
  A 9.92 9.92 0.0 0 0 64.07 206.01
  A 9.92 9.92 0.0 0 0 73.99 196.09" stroke="#808080"></path>
<path d="M 202.96 196.08
  A 9.93 9.93 0.0 0 0 193.03 186.15
  A 9.93 9.93 0.0 0 0 183.10 196.08
  A 9.93 9.93 0.0 0 0 193.03 206.01
  A 9.93 9.93 0.0 0 0 202.96 196.08" stroke="#808080"></path>
<path d="M 66.70 196.09
  A 2.61 2.61 0.0 0 0 64.09 193.48
  A 2.61 2.61 0.0 0 0 61.48 196.09
  A 2.61 2.61 0.0 0 0 64.09 198.70
  A 2.61 2.61 0.0 0 0 66.70 196.09" stroke="#808080"></path>
<path d="M 195.64 196.09
  A 2.61 2.61 0.0 0 0 193.03 193.48
  A 2.61 2.61 0.0 0 0 190.42 196.09
  A 2.61 2.61 0.0 0 0 193.03 198.70
  A 2.61 2.61 0.0 0 0 195.64 196.09" stroke="#808080"></path>
</g>
<path d="M 0.00 0.00
  L 256.00 0.00
  L 256.00 256.00
  L 215.50 256.00
  Q 215.52 222.75 215.37 189.50
  C 215.33 180.11 207.66 173.44 198.50 173.48
  Q 178.18 173.58 157.84 173.55
  Q 157.29 173.55 157.29 173.01
  L 157.30 162.77
  A 0.29 0.29 0.0 0 1 157.59 162.48
  Q 168.22 162.45 178.81 162.48
  Q 185.65 162.50 189.01 161.15
  Q 198.28 157.41 199.09 145.91
  Q 199.12 145.48 199.54 145.48
  L 212.02 145.47
  A 3.49 3.49 0.0 0 0 215.51 141.98
  L 215.51 92.53
  A 3.72 3.72 0.0 0 0 211.78 88.81
  L 199.78 88.84
  Q 199.20 88.84 199.15 88.27
  Q 198.06 76.82 189.28 73.28
  Q 185.45 71.73 174.02 71.78
  Q 156.56 71.87 139.07 71.78
  Q 138.53 71.78 138.53 71.25
  L 138.55 57.97
  Q 139.48 57.26 140.64 56.59
  C 148.05 52.29 151.83 43.52 151.18 35.71
  C 149.92 20.56 134.82 10.23 120.17 16.10
  C 101.24 23.68 101.34 48.47 118.62 57.92
  L 118.62 71.46
  A 0.35 0.35 0.0 0 1 118.27 71.81
  Q 96.76 71.81 75.25 71.79
  C 64.95 71.78 58.91 78.30 58.13 88.31
  Q 58.09 88.85 57.55 88.85
  Q 51.77 88.82 46.01 88.85
  Q 41.56 88.88 41.56 93.50
  Q 41.57 117.50 41.80 141.50
  Q 41.84 145.57 46.01 145.49
  Q 51.79 145.38 57.62 145.52
  Q 58.12 145.53 58.13 146.04
  C 58.28 155.41 65.31 162.56 74.75 162.51
  Q 86.97 162.44 99.24 162.48
  Q 99.77 162.48 99.77 163.00
  L 99.77 173.00
  Q 99.77 173.56 99.21 173.56
  Q 78.98 173.57 58.75 173.43
  C 48.76 173.37 41.29 181.06 41.36 191.00
  Q 41.60 223.50 41.55 256.00
  L 0.00 256.00
  L 0.00 0.00
  Z" fill="#000000"></path>
<path d="M 138.55 57.97
  L 131.20 60.21
  L 131.02 59.99
  Q 130.90 59.84 130.70 59.85
  L 125.89 60.09
  L 118.62 57.92
  C 101.34 48.47 101.24 23.68 120.17 16.10
  C 134.82 10.23 149.92 20.56 151.18 35.71
  C 151.83 43.52 148.05 52.29 140.64 56.59
  Q 139.48 57.26 138.55 57.97
  Z" fill="#fe01c6"></path>
<path d="M 118.62 57.92
  L 125.89 60.09
  L 125.88 71.36
  Q 125.88 71.79 126.31 71.79
  L 130.79 71.81
  A 0.43 0.43 0.0 0 0 131.23 71.38
  L 131.20 60.21
  L 138.55 57.97
  L 138.53 71.25
  Q 138.53 71.78 139.07 71.78
  Q 156.56 71.87 174.02 71.78
  Q 185.45 71.73 189.28 73.28
  Q 198.06 76.82 199.15 88.27
  Q 199.20 88.84 199.78 88.84
  L 211.78 88.81
  A 3.72 3.72 0.0 0 1 215.51 92.53
  L 215.51 141.98
  A 3.49 3.49 0.0 0 1 212.02 145.47
  L 199.54 145.48
  Q 199.12 145.48 199.09 145.91
  Q 198.28 157.41 189.01 161.15
  Q 185.65 162.50 178.81 162.48
  Q 168.22 162.45 157.59 162.48
  A 0.29 0.29 0.0 0 0 157.30 162.77
  L 157.29 173.01
  Q 157.29 173.55 157.84 173.55
  Q 178.18 173.58 198.50 173.48
  C 207.66 173.44 215.33 180.11 215.37 189.50
  Q 215.52 222.75 215.50 256.00
  L 41.55 256.00
  Q 41.60 223.50 41.36 191.00
  C 41.29 181.06 48.76 173.37 58.75 173.43
  Q 78.98 173.57 99.21 173.56
  Q 99.77 173.56 99.77 173.00
  L 99.77 163.00
  Q 99.77 162.48 99.24 162.48
  Q 86.97 162.44 74.75 162.51
  C 65.31 162.56 58.28 155.41 58.13 146.04
  Q 58.12 145.53 57.62 145.52
  Q 51.79 145.38 46.01 145.49
  Q 41.84 145.57 41.80 141.50
  Q 41.57 117.50 41.56 93.50
  Q 41.56 88.88 46.01 88.85
  Q 51.77 88.82 57.55 88.85
  Q 58.09 88.85 58.13 88.31
  C 58.91 78.30 64.95 71.78 75.25 71.79
  Q 96.76 71.81 118.27 71.81
  A 0.35 0.35 0.0 0 0 118.62 71.46
  L 118.62 57.92
  Z
  M 191.70 88.10
  A 8.89 8.89 0.0 0 0 182.81 79.21
  L 74.35 79.21
  A 8.89 8.89 0.0 0 0 65.46 88.10
  L 65.46 146.30
  A 8.89 8.89 0.0 0 0 74.35 155.19
  L 182.81 155.19
  A 8.89 8.89 0.0 0 0 191.70 146.30
  L 191.70 88.10
  Z
  M 58.16 96.83
  A 0.61 0.61 0.0 0 0 57.55 96.22
  L 49.47 96.22
  A 0.61 0.61 0.0 0 0 48.86 96.83
  L 48.86 137.59
  A 0.61 0.61 0.0 0 0 49.47 138.20
  L 57.55 138.20
  A 0.61 0.61 0.0 0 0 58.16 137.59
  L 58.16 96.83
  Z
  M 198.98 98.04
  L 199.00 135.72
  L 199.04 137.67
  Q 199.06 138.16 199.55 138.16
  L 207.77 138.20
  Q 208.25 138.20 208.25 137.73
  L 208.25 96.74
  Q 208.25 96.23 207.74 96.23
  L 199.74 96.24
  Q 199.18 96.24 199.04 96.78
  Q 198.89 97.33 198.98 98.04
  Z
  M 150.03 162.79
  A 0.32 0.32 0.0 0 0 149.71 162.47
  L 107.43 162.47
  A 0.32 0.32 0.0 0 0 107.11 162.79
  L 107.11 173.23
  A 0.32 0.32 0.0 0 0 107.43 173.55
  L 149.71 173.55
  A 0.32 0.32 0.0 0 0 150.03 173.23
  L 150.03 162.79
  Z
  M 48.86 192.75
  C 48.72 213.60 48.88 234.45 48.82 255.28
  A 0.21 0.21 0.0 0 0 49.03 255.49
  L 77.26 255.50
  Q 77.76 255.50 77.76 254.99
  L 77.76 221.83
  A 3.91 3.91 0.0 0 1 81.67 217.92
  L 175.49 217.94
  A 3.80 3.79 90.0 0 1 179.28 221.74
  L 179.28 255.01
  Q 179.28 255.50 179.76 255.50
  L 207.73 255.49
  Q 208.23 255.49 208.23 255.00
  Q 208.30 223.03 208.22 191.07
  C 208.20 183.55 204.25 180.98 196.91 180.95
  Q 128.17 180.74 59.43 180.96
  C 55.19 180.97 52.05 181.81 50.06 185.46
  Q 48.90 187.59 48.86 192.75
  Z
  M 172.00 225.71
  A 0.42 0.42 0.0 0 0 171.58 225.29
  L 85.60 225.29
  A 0.42 0.42 0.0 0 0 85.18 225.71
  L 85.18 255.07
  A 0.42 0.42 0.0 0 0 85.60 255.49
  L 171.58 255.49
  A 0.42 0.42 0.0 0 0 172.00 255.07
  L 172.00 225.71
  Z" fill="#ffffff"></path>
<path d="M 131.20 60.21
  L 131.23 71.38
  A 0.43 0.43 0.0 0 1 130.79 71.81
  L 126.31 71.79
  Q 125.88 71.79 125.88 71.36
  L 125.89 60.09
  L 130.70 59.85
  Q 130.90 59.84 131.02 59.99
  L 131.20 60.21
  Z" fill="#000000"></path>
<path d="M 191.70 146.30
  A 8.89 8.89 0.0 0 1 182.81 155.19
  L 74.35 155.19
  A 8.89 8.89 0.0 0 1 65.46 146.30
  L 65.46 88.10
  A 8.89 8.89 0.0 0 1 74.35 79.21
  L 182.81 79.21
  A 8.89 8.89 0.0 0 1 191.70 88.10
  L 191.70 146.30
  Z
  M 110.24 108.77
  A 16.21 16.21 0.0 0 0 94.03 92.56
  A 16.21 16.21 0.0 0 0 77.82 108.77
  A 16.21 16.21 0.0 0 0 94.03 124.98
  A 16.21 16.21 0.0 0 0 110.24 108.77
  Z
  M 179.30 108.77
  A 16.20 16.20 0.0 0 0 163.10 92.57
  A 16.20 16.20 0.0 0 0 146.90 108.77
  A 16.20 16.20 0.0 0 0 163.10 124.97
  A 16.20 16.20 0.0 0 0 179.30 108.77
  Z
  M 153.89 140.58
  A 3.56 3.56 0.0 0 0 150.33 137.02
  L 106.81 137.02
  A 3.56 3.56 0.0 0 0 103.25 140.58
  L 103.25 140.76
  A 3.56 3.56 0.0 0 0 106.81 144.32
  L 150.33 144.32
  A 3.56 3.56 0.0 0 0 153.89 140.76
  L 153.89 140.58
  Z" fill="#000000"></path>
<path d="M 110.24 108.77
  A 16.21 16.21 0.0 0 1 94.03 124.98
  A 16.21 16.21 0.0 0 1 77.82 108.77
  A 16.21 16.21 0.0 0 1 94.03 92.56
  A 16.21 16.21 0.0 0 1 110.24 108.77
  Z
  M 102.90 108.77
  A 8.88 8.88 0.0 0 0 94.02 99.89
  A 8.88 8.88 0.0 0 0 85.14 108.77
  A 8.88 8.88 0.0 0 0 94.02 117.65
  A 8.88 8.88 0.0 0 0 102.90 108.77
  Z" fill="#ffffff"></path>
<path d="M 179.30 108.77
  A 16.20 16.20 0.0 0 1 163.10 124.97
  A 16.20 16.20 0.0 0 1 146.90 108.77
  A 16.20 16.20 0.0 0 1 163.10 92.57
  A 16.20 16.20 0.0 0 1 179.30 108.77
  Z
  M 171.97 108.78
  A 8.88 8.88 0.0 0 0 163.09 99.90
  A 8.88 8.88 0.0 0 0 154.21 108.78
  A 8.88 8.88 0.0 0 0 163.09 117.66
  A 8.88 8.88 0.0 0 0 171.97 108.78
  Z" fill="#ffffff"></path>
<rect rx="0.61" height="41.98" width="9.30" y="96.22" x="48.86" fill="#000000"></rect>
<path d="M 199.00 135.72
  L 198.98 98.04
  Q 198.89 97.33 199.04 96.78
  Q 199.18 96.24 199.74 96.24
  L 207.74 96.23
  Q 208.25 96.23 208.25 96.74
  L 208.25 137.73
  Q 208.25 138.20 207.77 138.20
  L 199.55 138.16
  Q 199.06 138.16 199.04 137.67
  L 199.00 135.72
  Z" fill="#000000"></path>
<path d="M 198.98 98.04
  L 199.00 135.72
  L 198.98 98.04
  Z" fill="#fe01c6"></path>
<circle r="8.88" cy="108.77" cx="94.02" fill="#000000"></circle>
<circle r="8.88" cy="108.78" cx="163.09" fill="#000000"></circle>
<rect rx="3.56" height="7.30" width="50.64" y="137.02" x="103.25" fill="#ffffff"></rect>
<rect rx="0.32" height="11.08" width="42.92" y="162.47" x="107.11" fill="#000000"></rect>
<path d="M 48.82 255.28
  C 48.88 234.45 48.72 213.60 48.86 192.75
  Q 48.90 187.59 50.06 185.46
  C 52.05 181.81 55.19 180.97 59.43 180.96
  Q 128.17 180.74 196.91 180.95
  C 204.25 180.98 208.20 183.55 208.22 191.07
  Q 208.30 223.03 208.23 255.00
  Q 208.23 255.49 207.73 255.49
  L 179.76 255.50
  Q 179.28 255.50 179.28 255.01
  L 179.28 221.74
  A 3.80 3.79 -90.0 0 0 175.49 217.94
  L 81.67 217.92
  A 3.91 3.91 0.0 0 0 77.76 221.83
  L 77.76 254.99
  Q 77.76 255.50 77.26 255.50
  L 49.03 255.49
  A 0.21 0.21 0.0 0 1 48.82 255.28
  Z
  M 73.99 196.09
  A 9.92 9.92 0.0 0 0 64.07 186.17
  A 9.92 9.92 0.0 0 0 54.15 196.09
  A 9.92 9.92 0.0 0 0 64.07 206.01
  A 9.92 9.92 0.0 0 0 73.99 196.09
  Z
  M 202.96 196.08
  A 9.93 9.93 0.0 0 0 193.03 186.15
  A 9.93 9.93 0.0 0 0 183.10 196.08
  A 9.93 9.93 0.0 0 0 193.03 206.01
  A 9.93 9.93 0.0 0 0 202.96 196.08
  Z" fill="#000000"></path>
<path d="M 73.99 196.09
  A 9.92 9.92 0.0 0 1 64.07 206.01
  A 9.92 9.92 0.0 0 1 54.15 196.09
  A 9.92 9.92 0.0 0 1 64.07 186.17
  A 9.92 9.92 0.0 0 1 73.99 196.09
  Z
  M 66.70 196.09
  A 2.61 2.61 0.0 0 0 64.09 193.48
  A 2.61 2.61 0.0 0 0 61.48 196.09
  A 2.61 2.61 0.0 0 0 64.09 198.70
  A 2.61 2.61 0.0 0 0 66.70 196.09
  Z" fill="#ffffff"></path>
<path d="M 202.96 196.08
  A 9.93 9.93 0.0 0 1 193.03 206.01
  A 9.93 9.93 0.0 0 1 183.10 196.08
  A 9.93 9.93 0.0 0 1 193.03 186.15
  A 9.93 9.93 0.0 0 1 202.96 196.08
  Z
  M 195.64 196.09
  A 2.61 2.61 0.0 0 0 193.03 193.48
  A 2.61 2.61 0.0 0 0 190.42 196.09
  A 2.61 2.61 0.0 0 0 193.03 198.70
  A 2.61 2.61 0.0 0 0 195.64 196.09
  Z" fill="#ffffff"></path>
<circle r="2.61" cy="196.09" cx="64.09" fill="#000000"></circle>
<circle r="2.61" cy="196.09" cx="193.03" fill="#000000"></circle>
<rect rx="0.42" height="30.20" width="86.82" y="225.29" x="85.18" fill="#000000"></rect>
</svg>
