<svg viewBox="0.00 0.00 300.00 300.00" version="1.1" xmlns="http://www.w3.org/2000/svg">
<path d="M 176.16 198.41
  Q 174.88 197.42 175.52 198.90
  Q 188.99 230.32 193.04 264.25
  C 193.48 267.92 197.71 300.36 187.44 295.54
  Q 184.32 294.07 182.53 292.21
  Q 172.51 281.81 163.32 270.67
  Q 155.78 261.53 148.21 255.80
  C 137.16 247.42 126.61 259.19 119.17 267.66
  Q 111.52 276.39 103.82 285.08
  C 99.69 289.75 87.66 304.06 85.82 289.13
  Q 84.78 280.71 85.65 272.25
  C 88.25 246.90 94.19 221.66 104.53 198.33
  A 0.22 0.21 28.8 0 0 104.45 198.07
  Q 104.24 197.92 104.11 198.06
  Q 104.01 198.18 103.98 198.20
  Q 94.10 205.28 84.56 212.82
  Q 84.15 213.15 84.42 213.60
  C 86.34 216.83 90.61 223.20 86.06 226.08
  C 83.05 227.98 72.55 234.36 69.32 233.45
  C 65.22 232.29 62.83 223.70 62.26 220.11
  Q 61.52 215.52 62.40 208.91
  C 65.78 183.57 81.57 160.63 103.22 146.89
  A 0.60 0.60 0.0 0 0 103.10 145.81
  C 76.60 136.45 55.35 116.07 49.74 87.75
  Q 49.28 85.44 48.96 77.24
  C 48.23 58.46 58.31 39.52 71.77 27.04
  Q 89.89 10.23 115.26 4.71
  C 125.18 2.55 136.65 3.44 147.06 3.47
  Q 154.78 3.48 160.34 4.71
  C 187.82 10.75 212.59 28.62 223.11 55.18
  C 229.81 72.10 226.93 93.32 218.49 108.71
  C 209.31 125.47 192.61 137.92 174.86 144.95
  A 0.64 0.63 -41.1 0 0 174.78 146.09
  C 197.54 159.07 215.04 185.16 217.66 211.45
  Q 218.09 215.77 217.40 219.52
  C 216.57 224.07 213.54 236.00 206.73 233.20
  Q 198.55 229.84 193.50 226.53
  C 189.13 223.67 192.78 216.82 194.86 213.58
  Q 195.16 213.10 194.71 212.75
  L 176.16 198.41
  Z
  M 162.37 77.38
  Q 136.02 74.27 110.74 78.46
  Q 102.51 79.83 92.93 84.15
  C 82.10 89.04 74.49 97.23 73.84 109.38
  C 73.07 123.92 94.46 121.89 104.20 120.98
  C 114.37 120.03 128.76 117.14 137.75 116.99
  C 150.71 116.77 164.16 119.84 176.48 120.96
  C 184.86 121.71 202.95 123.31 206.92 114.57
  C 209.40 109.11 206.02 100.07 202.91 95.45
  C 195.08 83.78 175.34 78.91 162.37 77.38
  Z" fill="#5a4ae3"></path>
<path d="M 227.63 48.79
  A 5.02 5.02 0.0 0 1 231.55 42.87
  L 233.51 42.47
  A 14.47 13.52 78.5 0 1 249.64 53.95
  L 250.48 58.09
  A 14.47 13.52 78.5 0 1 240.12 74.97
  L 238.16 75.36
  A 5.02 5.02 0.0 0 1 232.24 71.45
  L 227.63 48.79
  Z" fill="#5a4ae3"></path>
<path d="M 264.96 111.84
  L 249.44 76.83
  A 0.58 0.56 50.2 0 1 249.48 76.30
  L 253.18 70.34
  Q 253.30 70.14 253.39 70.35
  Q 254.48 72.62 257.11 76.40
  Q 262.49 84.14 278.45 107.81
  Q 278.75 108.25 278.45 108.70
  L 261.37 134.05
  A 0.33 0.33 0.0 0 1 260.80 134.02
  L 255.84 124.70
  A 1.54 1.53 51.6 0 1 256.03 122.98
  L 264.80 112.88
  Q 265.21 112.41 264.96 111.84
  Z" fill="#5a4ae3"></path>
<path d="M 242.19 130.28
  L 235.16 81.96
  A 0.57 0.57 0.0 0 1 235.60 81.33
  L 245.00 79.24
  A 0.57 0.57 0.0 0 1 245.67 79.61
  L 257.81 115.00
  A 0.57 0.57 0.0 0 1 257.68 115.58
  L 243.17 130.60
  A 0.57 0.57 0.0 0 1 242.19 130.28
  Z" fill="#5a4ae3"></path>
<path d="M 119.04 92.91
  C 125.39 94.73 130.29 96.63 130.10 104.45
  C 129.99 109.33 115.21 106.49 111.76 106.15
  C 105.56 105.54 99.85 106.49 93.75 107.24
  C 90.06 107.69 83.41 107.35 84.85 101.36
  C 87.62 89.80 111.93 90.87 119.04 92.91
  Z" fill="#5a4ae3"></path>
<path d="M 146.19 101.55
  C 149.07 90.97 164.67 91.64 172.75 91.88
  C 179.47 92.08 190.25 94.19 191.28 102.48
  C 191.89 107.35 187.36 107.39 183.75 107.31
  C 180.15 107.23 176.25 106.49 172.52 106.13
  Q 168.22 105.70 163.50 106.19
  C 159.77 106.58 143.79 110.33 146.19 101.55
  Z" fill="#5a4ae3"></path>
</svg>
