<svg viewBox="0.00 0.00 64.00 64.00" version="1.1" xmlns="http://www.w3.org/2000/svg">
<g stroke-linecap="butt" fill="none" stroke-width="2.00">
<path d="M 38.79 25.78
  Q 38.98 25.59 39.17 25.78
  C 48.56 35.43 34.07 48.83 25.46 38.61
  Q 25.14 38.23 24.66 38.10
  Q 20.94 37.11 18.57 33.44
  Q 18.12 32.76 17.35 33.08
  Q 16.91 33.26 17.16 33.67
  Q 17.41 34.09 17.48 34.53
  Q 17.61 35.39 17.02 34.76
  L 16.28 33.97
  Q 15.45 33.09 14.25 33.20
  L 13.10 33.30
  A 0.75 0.75 0.0 0 0 12.54 34.46
  Q 13.87 36.47 16.28 36.85
  Q 17.09 36.98 16.37 37.37
  Q 15.85 37.65 15.23 37.33
  Q 14.78 37.10 14.52 37.53
  L 14.38 37.76
  Q 14.31 37.87 14.41 37.97
  Q 16.60 40.02 19.46 39.19
  Q 19.55 39.16 19.58 39.25
  Q 19.64 39.43 19.69 39.62
  Q 19.77 39.90 19.47 39.91
  L 18.81 39.93
  Q 17.99 39.95 18.67 40.40
  C 20.10 41.36 21.65 40.44 22.97 39.74
  Q 23.46 39.49 23.93 39.77
  L 28.24 42.37
  A 1.17 1.15 7.3 0 1 28.75 43.02
  Q 29.39 45.14 31.58 45.34
  A 1.33 1.30 30.3 0 0 32.42 45.13
  L 34.09 44.03
  Q 34.57 43.71 35.14 43.78
  C 49.89 45.57 56.71 28.80 46.65 18.50
  A 0.55 0.55 0.0 0 1 46.70 17.69
  Q 47.34 17.17 48.07 16.90
  Q 50.40 16.04 47.96 15.58
  Q 47.20 15.44 45.80 15.51
  Q 45.31 15.53 44.92 15.24
  C 41.33 12.54 35.45 14.66 35.16 18.99
  C 34.64 26.65 33.44 34.19 26.48 37.56
  Q 25.46 38.05 26.33 38.79
  C 35.63 46.63 46.55 35.63 38.62 26.06
  Q 38.57 26.00 38.59 25.98
  L 38.79 25.78" stroke="#80761d"></path>
<path d="M 35.00 46.04
  C 35.80 45.57 36.56 45.89 37.43 45.27
  A 0.39 0.39 0.0 0 0 37.22 44.56
  L 34.78 44.49
  A 0.55 0.55 0.0 0 0 34.23 45.18
  Q 34.35 45.68 34.75 46.02
  Q 34.86 46.12 35.00 46.04" stroke="#80761d"></path>
<path d="M 30.79 48.64
  L 30.52 46.05
  Q 30.50 45.89 30.35 45.91
  L 30.08 45.93
  Q 29.82 45.96 29.83 46.23
  Q 29.90 47.83 30.40 49.32
  C 30.72 50.26 31.65 50.60 32.48 50.17
  Q 33.54 49.61 32.35 49.59
  Q 31.85 49.59 31.35 49.38
  A 0.91 0.90 -82.4 0 1 30.79 48.64" stroke="#80761d"></path>
<path d="M 35.53 48.73
  L 35.36 46.99
  A 0.30 0.29 49.8 0 0 34.78 46.94
  Q 34.40 48.37 35.16 49.60
  Q 35.89 50.77 37.16 50.12
  Q 37.83 49.78 37.09 49.64
  L 36.22 49.48
  A 0.86 0.84 -88.3 0 1 35.53 48.73" stroke="#80761d"></path>
<path d="M 41.25 18.56
  Q 42.10 18.62 42.53 18.33
  A 0.57 0.57 0.0 0 0 42.45 17.34
  Q 41.64 16.96 40.92 17.60
  A 0.55 0.55 0.0 0 0 41.25 18.56" stroke="#80761d"></path>
</g>
<path d="M 62.7007 60.3135
  A 2.49 2.49 0.0 0 1 60.2064 62.7992
  L 3.7865 62.7007
  A 2.49 2.49 0.0 0 1 1.3008 60.2064
  L 1.3993 3.7865
  A 2.49 2.49 0.0 0 1 3.8936 1.3008
  L 60.3135 1.3993
  A 2.49 2.49 0.0 0 1 62.7992 3.8936
  L 62.7007 60.3135
  Z
  M 38.79 25.78
  Q 38.98 25.59 39.17 25.78
  C 48.56 35.43 34.07 48.83 25.46 38.61
  Q 25.14 38.23 24.66 38.10
  Q 20.94 37.11 18.57 33.44
  Q 18.12 32.76 17.35 33.08
  Q 16.91 33.26 17.16 33.67
  Q 17.41 34.09 17.48 34.53
  Q 17.61 35.39 17.02 34.76
  L 16.28 33.97
  Q 15.45 33.09 14.25 33.20
  L 13.10 33.30
  A 0.75 0.75 0.0 0 0 12.54 34.46
  Q 13.87 36.47 16.28 36.85
  Q 17.09 36.98 16.37 37.37
  Q 15.85 37.65 15.23 37.33
  Q 14.78 37.10 14.52 37.53
  L 14.38 37.76
  Q 14.31 37.87 14.41 37.97
  Q 16.60 40.02 19.46 39.19
  Q 19.55 39.16 19.58 39.25
  Q 19.64 39.43 19.69 39.62
  Q 19.77 39.90 19.47 39.91
  L 18.81 39.93
  Q 17.99 39.95 18.67 40.40
  C 20.10 41.36 21.65 40.44 22.97 39.74
  Q 23.46 39.49 23.93 39.77
  L 28.24 42.37
  A 1.17 1.15 7.3 0 1 28.75 43.02
  Q 29.39 45.14 31.58 45.34
  A 1.33 1.30 30.3 0 0 32.42 45.13
  L 34.09 44.03
  Q 34.57 43.71 35.14 43.78
  C 49.89 45.57 56.71 28.80 46.65 18.50
  A 0.55 0.55 0.0 0 1 46.70 17.69
  Q 47.34 17.17 48.07 16.90
  Q 50.40 16.04 47.96 15.58
  Q 47.20 15.44 45.80 15.51
  Q 45.31 15.53 44.92 15.24
  C 41.33 12.54 35.45 14.66 35.16 18.99
  C 34.64 26.65 33.44 34.19 26.48 37.56
  Q 25.46 38.05 26.33 38.79
  C 35.63 46.63 46.55 35.63 38.62 26.06
  Q 38.57 26.00 38.59 25.98
  L 38.79 25.78
  Z
  M 35.00 46.04
  C 35.80 45.57 36.56 45.89 37.43 45.27
  A 0.39 0.39 0.0 0 0 37.22 44.56
  L 34.78 44.49
  A 0.55 0.55 0.0 0 0 34.23 45.18
  Q 34.35 45.68 34.75 46.02
  Q 34.86 46.12 35.00 46.04
  Z
  M 30.79 48.64
  L 30.52 46.05
  Q 30.50 45.89 30.35 45.91
  L 30.08 45.93
  Q 29.82 45.96 29.83 46.23
  Q 29.90 47.83 30.40 49.32
  C 30.72 50.26 31.65 50.60 32.48 50.17
  Q 33.54 49.61 32.35 49.59
  Q 31.85 49.59 31.35 49.38
  A 0.91 0.90 -82.4 0 1 30.79 48.64
  Z
  M 35.53 48.73
  L 35.36 46.99
  A 0.30 0.29 49.8 0 0 34.78 46.94
  Q 34.40 48.37 35.16 49.60
  Q 35.89 50.77 37.16 50.12
  Q 37.83 49.78 37.09 49.64
  L 36.22 49.48
  A 0.86 0.84 -88.3 0 1 35.53 48.73
  Z" fill="#000000"></path>
<path d="M 38.79 25.78
  L 38.59 25.98
  Q 38.57 26.00 38.62 26.06
  C 46.55 35.63 35.63 46.63 26.33 38.79
  Q 25.46 38.05 26.48 37.56
  C 33.44 34.19 34.64 26.65 35.16 18.99
  C 35.45 14.66 41.33 12.54 44.92 15.24
  Q 45.31 15.53 45.80 15.51
  Q 47.20 15.44 47.96 15.58
  Q 50.40 16.04 48.07 16.90
  Q 47.34 17.17 46.70 17.69
  A 0.55 0.55 0.0 0 0 46.65 18.50
  C 56.71 28.80 49.89 45.57 35.14 43.78
  Q 34.57 43.71 34.09 44.03
  L 32.42 45.13
  A 1.33 1.30 30.3 0 1 31.58 45.34
  Q 29.39 45.14 28.75 43.02
  A 1.17 1.15 7.3 0 0 28.24 42.37
  L 23.93 39.77
  Q 23.46 39.49 22.97 39.74
  C 21.65 40.44 20.10 41.36 18.67 40.40
  Q 17.99 39.95 18.81 39.93
  L 19.47 39.91
  Q 19.77 39.90 19.69 39.62
  Q 19.64 39.43 19.58 39.25
  Q 19.55 39.16 19.46 39.19
  Q 16.60 40.02 14.41 37.97
  Q 14.31 37.87 14.38 37.76
  L 14.52 37.53
  Q 14.78 37.10 15.23 37.33
  Q 15.85 37.65 16.37 37.37
  Q 17.09 36.98 16.28 36.85
  Q 13.87 36.47 12.54 34.46
  A 0.75 0.75 0.0 0 1 13.10 33.30
  L 14.25 33.20
  Q 15.45 33.09 16.28 33.97
  L 17.02 34.76
  Q 17.61 35.39 17.48 34.53
  Q 17.41 34.09 17.16 33.67
  Q 16.91 33.26 17.35 33.08
  Q 18.12 32.76 18.57 33.44
  Q 20.94 37.11 24.66 38.10
  Q 25.14 38.23 25.46 38.61
  C 34.07 48.83 48.56 35.43 39.17 25.78
  Q 38.98 25.59 38.79 25.78
  Z
  M 41.25 18.56
  Q 42.10 18.62 42.53 18.33
  A 0.57 0.57 0.0 0 0 42.45 17.34
  Q 41.64 16.96 40.92 17.60
  A 0.55 0.55 0.0 0 0 41.25 18.56
  Z" fill="#ffec3a"></path>
<path d="M 41.25 18.56
  A 0.55 0.55 0.0 0 1 40.92 17.60
  Q 41.64 16.96 42.45 17.34
  A 0.57 0.57 0.0 0 1 42.53 18.33
  Q 42.10 18.62 41.25 18.56
  Z" fill="#000000"></path>
<path d="M 37.43 45.27
  C 36.56 45.89 35.80 45.57 35.00 46.04
  Q 34.86 46.12 34.75 46.02
  Q 34.35 45.68 34.23 45.18
  A 0.55 0.55 0.0 0 1 34.78 44.49
  L 37.22 44.56
  A 0.39 0.39 0.0 0 1 37.43 45.27
  Z" fill="#ffec3a"></path>
<path d="M 31.35 49.38
  Q 31.85 49.59 32.35 49.59
  Q 33.54 49.61 32.48 50.17
  C 31.65 50.60 30.72 50.26 30.40 49.32
  Q 29.90 47.83 29.83 46.23
  Q 29.82 45.96 30.08 45.93
  L 30.35 45.91
  Q 30.50 45.89 30.52 46.05
  L 30.79 48.64
  A 0.91 0.90 -82.4 0 0 31.35 49.38
  Z" fill="#ffec3a"></path>
<path d="M 36.22 49.48
  L 37.09 49.64
  Q 37.83 49.78 37.16 50.12
  Q 35.89 50.77 35.16 49.60
  Q 34.40 48.37 34.78 46.94
  A 0.30 0.29 49.8 0 1 35.36 46.99
  L 35.53 48.73
  A 0.86 0.84 -88.3 0 0 36.22 49.48
  Z" fill="#ffec3a"></path>
</svg>
