<svg viewBox="0.00 0.00 192.00 192.00" version="1.1" xmlns="http://www.w3.org/2000/svg">
<g stroke-linecap="butt" fill="none" stroke-width="2.00">
<path d="M 85.59 56.79
  L 71.53 56.58
  A 1.51 1.50 2.2 0 0 70.00 57.99
  Q 69.92 59.45 69.01 60.84" stroke="#5c4e16"></path>
<path d="M 69.01 60.84
  L 62.00 61.42
  A 1.26 1.26 0.0 0 0 60.91 62.28
  L 60.17 64.46
  A 1.13 1.02 77.6 0 1 59.96 64.83
  Q 59.21 65.66 58.18 65.89
  A 1.98 1.97 88.3 0 0 56.66 67.51
  L 55.76 73.36
  Q 55.67 73.91 55.15 74.08
  L 53.13 74.76
  A 1.68 1.66 85.4 0 0 52.01 76.09
  L 51.04 82.16
  Q 50.94 82.76 50.33 82.78
  L 48.54 82.84
  A 1.27 1.27 0.0 0 0 47.30 84.06
  L 46.79 94.33" stroke="#7f633a"></path>
<path d="M 46.79 94.33
  L 47.42 113.05
  A 0.95 0.95 0.0 0 0 48.02 113.90
  L 50.71 114.95
  A 0.79 0.78 -81.6 0 1 51.20 115.62
  L 51.85 124.80" stroke="#7d4730"></path>
<path d="M 51.85 124.80
  Q 51.82 126.27 52.25 127.62
  Q 52.41 128.11 52.85 128.39
  L 54.96 129.76
  A 1.23 1.20 -82.6 0 1 55.46 130.43
  L 56.77 134.89
  Q 56.93 135.44 57.34 135.84
  L 60.39 138.90" stroke="#743433"></path>
<path d="M 60.39 138.90
  Q 62.51 141.49 67.79 142.16
  A 1.42 1.39 -21.1 0 1 68.53 142.48
  Q 69.84 143.56 70.67 145.05
  A 1.05 1.02 -10.3 0 0 71.44 145.57
  Q 75.19 146.06 77.76 148.74
  A 1.61 1.61 0.0 0 0 78.66 149.22
  C 86.43 150.58 94.96 150.11 103.40 149.65
  A 0.94 0.93 12.9 0 0 104.16 149.18
  C 105.91 146.02 112.01 146.54 115.07 146.45" stroke="#79350e"></path>
<path d="M 115.07 146.45
  L 122.72 146.14" stroke="#743433"></path>
<path d="M 122.72 146.14
  Q 129.31 146.44 135.22 144.99
  A 1.57 1.54 12.9 0 0 136.02 144.50
  C 137.04 143.34 137.56 142.62 139.04 141.96
  C 140.67 141.24 141.87 140.75 143.02 139.27
  C 144.70 137.10 146.57 135.43 147.60 132.79
  Q 148.25 131.12 149.03 129.53" stroke="#79350e"></path>
<path d="M 149.03 129.53
  C 154.09 124.88 150.25 118.08 154.91 114.13
  Q 155.29 113.80 155.41 113.31
  Q 155.68 112.17 155.68 111.00
  Q 155.67 104.37 155.66 97.75
  Q 155.65 95.35 154.28 94.74
  Q 152.89 94.11 152.76 93.26
  Q 152.10 88.98 151.25 84.74
  C 150.78 82.35 148.56 82.49 148.19 80.03
  C 147.43 74.84 143.51 71.67 138.60 69.60
  A 1.84 1.81 83.3 0 1 137.83 68.98
  C 135.29 65.37 131.48 66.15 127.58 65.08
  C 125.20 64.43 125.18 62.45 122.20 62.08
  Q 118.29 61.60 114.48 61.53" stroke="#7d4a28"></path>
<path d="M 114.48 61.53
  Q 111.95 61.65 109.51 61.77
  Q 105.42 61.98 102.62 65.75" stroke="#743433"></path>
<path d="M 102.62 65.75
  L 81.44 66.35" stroke="#7d4730"></path>
<path d="M 81.44 66.35
  C 79.30 66.01 76.31 66.26 77.13 62.97" stroke="#7f633a"></path>
<path d="M 77.13 62.97
  Q 77.45 61.91 78.88 61.62
  Q 82.03 60.98 85.33 60.84" stroke="#5c4e16"></path>
<path d="M 85.33 60.84
  C 90.43 61.48 98.00 61.86 100.88 57.92
  Q 101.18 57.51 101.67 57.37
  C 104.81 56.46 109.16 55.97 109.35 51.78
  C 109.43 50.23 109.81 49.28 110.36 48.02
  A 0.68 0.68 0.0 0 1 110.64 47.71
  L 114.13 45.75
  A 1.45 1.45 0.0 0 0 114.08 43.20
  L 113.58 42.94
  A 2.71 2.70 36.8 0 0 110.48 43.38
  C 108.03 45.70 105.56 46.79 104.00 49.77
  C 103.00 51.69 101.34 53.18 101.05 55.50
  A 1.61 1.61 0.0 0 1 99.19 56.90
  C 95.10 56.23 89.69 55.37 85.59 56.79" stroke="#2e200d"></path>
<path d="M 85.33 60.84
  Q 87.47 58.65 85.59 56.79" stroke="#8a6e22"></path>
<path d="M 77.13 62.97
  L 69.01 60.84" stroke="#dab14f"></path>
<path d="M 81.44 66.35
  L 84.38 67.44
  A 1.20 1.20 0.0 0 1 85.04 68.07
  Q 85.99 70.30 88.00 70.31
  Q 95.81 70.38 103.16 70.99
  A 1.49 1.49 0.0 0 1 104.49 72.80
  Q 103.91 75.45 101.23 75.42
  A 0.73 0.72 6.9 0 0 100.51 75.98
  C 100.11 77.71 100.38 79.18 99.47 80.69
  Q 98.49 82.30 97.22 83.72
  C 96.16 84.90 95.92 86.13 95.29 87.53
  Q 95.09 87.97 94.61 88.08
  Q 91.23 88.85 88.50 88.63
  C 85.10 88.36 85.41 91.03 85.07 93.37
  A 1.51 1.49 -89.4 0 1 83.79 94.64
  C 81.49 94.97 77.33 94.65 77.09 97.84
  C 76.86 100.85 77.71 108.41 72.75 107.57
  A 2.15 2.15 0.0 0 1 71.10 106.20
  Q 70.51 104.56 70.62 102.82
  A 1.78 1.78 0.0 0 0 68.80 100.94
  L 66.36 100.99
  A 1.61 1.61 0.0 0 0 64.82 102.89
  Q 65.48 106.42 62.29 107.50
  A 1.57 1.55 -83.4 0 0 61.49 108.14
  Q 60.38 109.90 60.11 111.97
  Q 60.05 112.49 59.72 112.90
  Q 58.98 113.83 57.83 113.83
  A 1.57 1.57 0.0 0 1 56.26 112.23
  C 56.37 107.60 56.92 100.44 55.17 96.09
  A 2.01 2.01 0.0 0 0 53.45 94.84
  L 46.79 94.33" stroke="#fbaa69"></path>
<path d="M 114.48 61.53
  Q 115.99 62.76 116.97 64.42
  A 0.73 0.73 0.0 0 0 117.65 64.78
  Q 118.21 64.75 118.49 65.26
  Q 118.62 65.50 118.62 65.50
  Q 118.55 65.64 118.48 65.79
  Q 118.44 65.87 118.52 65.91
  C 121.50 67.47 119.27 73.18 120.59 75.95
  C 121.36 77.58 122.77 78.18 123.95 79.23
  Q 124.02 79.29 124.96 80.98
  Q 125.93 82.73 129.76 83.33" stroke="#f17d5b"></path>
<path d="M 129.76 83.33
  L 118.01 82.90
  A 1.77 1.75 -77.6 0 0 116.31 84.00
  C 114.20 89.16 114.64 95.36 115.02 100.97" stroke="#da5a59"></path>
<path d="M 115.02 100.97
  L 115.04 119.14" stroke="#de433e"></path>
<path d="M 115.04 119.14
  L 115.08 124.43" stroke="#d5573d"></path>
<path d="M 115.08 124.43
  Q 114.96 127.34 115.78 133.25
  C 116.11 135.66 117.42 136.88 119.76 136.50
  C 121.01 136.29 121.90 136.51 123.04 135.94
  Q 126.46 134.22 129.58 131.90
  A 1.72 1.67 -10.6 0 0 130.20 131.02
  Q 131.07 128.22 134.00 127.78
  A 2.75 2.74 88.1 0 0 136.33 125.29
  Q 137.71 109.37 136.07 93.24
  Q 135.85 91.03 133.74 88.54" stroke="#da5a59"></path>
<path d="M 133.74 88.54
  Q 137.54 94.13 140.75 94.79
  Q 143.72 95.40 146.71 96.06
  Q 147.19 96.17 147.19 96.65
  L 147.46 127.47" stroke="#f17d5b"></path>
<path d="M 147.46 127.47
  L 147.27 126.22
  Q 147.23 125.92 147.00 126.12
  Q 146.89 126.20 146.86 126.34
  Q 146.78 126.67 146.51 127.00
  Q 146.02 127.61 145.25 127.55
  A 1.30 1.30 0.0 0 0 143.92 128.42
  C 142.79 131.73 142.05 136.06 138.03 137.09
  Q 137.73 137.17 137.51 137.40
  Q 137.41 137.51 137.32 137.61
  Q 137.10 137.87 136.84 137.99
  Q 132.20 140.27 127.11 141.45
  Q 126.63 141.56 126.31 141.93
  L 122.72 146.14" stroke="#ed6840"></path>
<path d="M 115.07 146.45
  Q 115.44 141.62 114.76 140.25
  C 112.53 135.80 105.71 136.64 101.74 137.04
  A 1.84 1.82 3.8 0 0 100.14 138.43
  C 99.49 141.18 102.75 141.15 104.52 141.39
  Q 104.95 141.45 105.14 141.84
  Q 106.86 145.33 102.83 146.59
  A 1.82 1.76 -51.7 0 1 102.24 146.67
  L 79.18 146.06
  Q 78.70 146.05 78.43 145.65
  L 76.04 142.10
  A 0.94 0.93 -13.1 0 0 75.36 141.68
  L 71.05 141.15
  Q 70.66 141.10 70.60 140.72
  C 70.24 138.40 69.00 137.00 66.50 136.70
  Q 63.81 136.38 60.85 136.08
  A 0.72 0.72 0.0 0 0 60.07 136.91
  L 60.39 138.90" stroke="#ed6840"></path>
<path d="M 51.85 124.80
  L 52.96 125.54
  A 1.65 1.65 0.0 0 0 55.46 124.59
  Q 56.49 120.72 59.57 120.19
  C 62.08 119.76 68.40 119.78 70.07 122.31
  C 70.97 123.69 70.58 125.80 70.69 127.52
  A 0.86 0.86 0.0 0 0 71.27 128.29
  C 73.28 129.00 75.98 128.25 77.37 126.67
  A 2.12 2.01 9.6 0 1 78.20 126.11
  C 81.24 124.97 85.18 124.83 85.44 120.74
  Q 85.57 118.60 85.94 115.93
  A 1.19 1.18 -88.8 0 1 87.00 114.91
  Q 91.41 114.47 91.13 110.00
  A 1.43 1.42 -3.6 0 1 92.47 108.49
  L 103.23 107.83
  A 1.50 1.49 -87.6 0 0 104.62 106.54
  Q 105.39 101.02 104.49 95.51
  Q 104.42 95.07 104.00 94.91
  Q 103.01 94.54 101.99 94.63
  A 1.95 1.95 0.0 0 1 99.96 93.34
  C 98.93 90.44 101.56 89.07 103.67 88.15
  Q 104.08 87.98 104.20 87.54
  L 105.06 84.41
  A 0.98 0.97 86.9 0 1 105.63 83.77
  Q 108.56 82.51 109.57 79.48
  A 1.17 1.15 88.5 0 1 110.24 78.76
  L 113.55 77.40
  A 1.23 1.21 89.6 0 0 114.23 76.70
  Q 115.24 74.04 114.30 71.34
  Q 114.10 70.77 113.55 70.57
  L 110.27 69.34
  Q 109.96 69.23 109.92 68.91
  Q 109.67 67.29 107.97 66.68
  Q 104.99 65.61 102.62 65.75" stroke="#f07b62"></path>
<path d="M 124.98 100.01
  L 124.85 117.54
  A 1.69 1.69 0.0 0 1 123.14 119.22
  L 115.04 119.14" stroke="#cb3316"></path>
<path d="M 149.03 129.53
  Q 148.71 129.38 148.24 129.37
  Q 147.81 129.35 147.62 128.97
  Q 147.29 128.29 147.46 127.47" stroke="#f67e36"></path>
<path d="M 133.74 88.54
  Q 131.44 87.69 129.76 83.33" stroke="#e3704f"></path>
<path d="M 115.08 124.43
  Q 119.59 124.94 124.70 123.35
  Q 125.12 123.23 125.21 122.81
  Q 125.95 119.51 129.43 119.80
  A 1.44 1.43 2.6 0 0 130.99 118.38
  Q 131.05 111.60 131.04 104.62
  C 131.04 100.74 127.78 100.77 124.98 100.01" stroke="#c74931"></path>
<path d="M 124.98 100.01
  Q 125.91 97.72 124.19 95.16
  A 0.72 0.70 74.2 0 0 123.64 94.84
  L 116.81 94.28
  A 1.80 1.80 0.0 0 0 114.86 96.13
  L 115.02 100.97" stroke="#d03632"></path>
<path d="M 95.9261 130.8070
  A 2.38 1.61 3.3 0 0 93.6427 129.0627
  A 2.38 1.61 3.3 0 0 91.1739 130.5330
  A 2.38 1.61 3.3 0 0 93.4573 132.2773
  A 2.38 1.61 3.3 0 0 95.9261 130.8070" stroke="#ed6840"></path>
</g>
<path d="M 156.74 95.39
  Q 157.79 95.92 158.94 95.75
  A 1.01 1.00 83.3 0 1 160.09 96.66
  Q 160.80 104.78 160.00 112.92
  A 0.95 0.95 0.0 0 1 159.52 113.65
  L 158.07 114.49
  A 1.06 1.04 80.7 0 0 157.56 115.21
  L 155.49 126.60
  Q 155.39 127.18 154.92 127.55
  C 153.89 128.35 152.96 128.81 152.47 130.10
  Q 151.59 132.41 150.78 134.74
  Q 150.61 135.23 150.16 135.47
  C 149.30 135.92 148.80 136.05 148.23 136.92
  Q 146.01 140.37 142.90 143.04
  Q 142.53 143.37 142.38 143.84
  Q 141.97 145.14 141.03 145.29
  Q 137.34 145.88 135.73 149.13
  A 0.73 0.72 9.1 0 1 135.17 149.53
  Q 120.61 151.57 106.00 151.39
  Q 104.25 151.36 103.43 153.61
  Q 103.26 154.07 102.77 154.09
  Q 97.38 154.23 92.00 154.68
  C 87.34 155.07 83.37 154.59 78.90 154.01
  Q 78.30 153.93 78.12 153.36
  L 77.83 152.44
  Q 77.68 151.96 77.20 151.79
  L 71.51 149.81
  A 1.03 1.00 -8.4 0 1 71.05 149.48
  L 69.34 147.31
  Q 69.01 146.90 68.50 146.74
  L 62.09 144.75
  Q 61.59 144.59 61.43 144.09
  Q 60.54 141.10 57.51 140.13
  A 1.01 1.01 0.0 0 1 56.86 139.51
  Q 55.89 136.88 53.20 135.97
  A 1.20 1.20 0.0 0 1 52.45 135.22
  C 51.93 133.70 51.41 129.22 49.56 128.39
  Q 47.95 127.68 47.57 126.04
  Q 46.35 120.74 46.66 115.32
  Q 46.69 114.79 46.18 114.68
  L 43.29 114.05
  Q 42.77 113.94 42.71 113.42
  C 41.67 103.76 41.88 94.05 42.28 84.19
  A 1.12 1.11 -87.0 0 1 43.46 83.12
  L 45.05 83.21
  A 1.61 1.61 0.0 0 0 46.74 81.84
  L 47.66 75.85
  A 0.81 0.80 -2.2 0 1 48.29 75.18
  L 50.98 74.60
  A 0.68 0.67 -7.9 0 0 51.52 73.90
  L 51.38 71.91
  Q 51.35 71.53 51.45 71.16
  L 52.39 67.47
  Q 52.53 66.92 53.08 66.77
  L 55.61 66.08
  A 0.81 0.80 85.8 0 0 56.20 65.39
  C 56.38 63.59 56.55 61.15 59.14 61.34
  A 0.80 0.79 -77.4 0 0 59.95 60.82
  L 61.01 57.89
  A 1.73 1.73 0.0 0 1 62.40 56.77
  L 69.35 55.82
  A 0.94 0.93 85.8 0 0 70.16 54.88
  Q 70.15 53.70 70.64 52.66
  Q 70.87 52.16 71.42 52.10
  C 80.59 50.97 89.28 52.18 98.62 50.38
  Q 99.12 50.29 99.44 49.90
  C 100.40 48.72 100.86 48.32 102.44 47.64
  C 103.99 46.97 104.62 44.64 105.47 43.28
  Q 105.73 42.85 106.18 42.62
  Q 108.09 41.60 109.27 39.86
  Q 110.46 38.11 111.29 37.79
  Q 113.20 37.06 114.44 39.29
  Q 115.65 41.48 117.55 42.47
  A 2.05 2.05 0.0 0 1 117.68 46.03
  Q 112.40 49.30 115.50 55.32
  A 0.83 0.81 81.8 0 0 116.05 55.74
  L 123.45 57.41
  Q 123.99 57.53 124.26 58.02
  Q 124.93 59.25 126.07 60.12
  Q 126.42 60.39 126.85 60.50
  L 134.47 62.45
  A 1.29 1.28 -11.1 0 1 135.22 62.95
  L 136.69 64.91
  Q 137.00 65.33 137.48 65.51
  Q 139.13 66.16 140.72 66.91
  C 142.35 67.69 142.58 69.18 144.17 69.99
  Q 145.89 70.87 147.07 72.35
  C 148.21 73.77 148.99 74.23 150.26 75.26
  C 151.44 76.22 151.92 78.63 152.35 80.06
  C 152.90 81.84 153.85 82.72 155.15 83.90
  Q 155.56 84.26 155.65 84.80
  L 157.33 94.61
  Q 157.38 94.86 157.13 94.86
  Q 156.94 94.87 156.74 94.87
  Q 156.62 94.87 156.62 95.00
  Q 156.62 95.13 156.62 95.25
  Q 156.62 95.33 156.74 95.39
  Z
  M 85.59 56.79
  L 71.53 56.58
  A 1.51 1.50 2.2 0 0 70.00 57.99
  Q 69.92 59.45 69.01 60.84
  L 62.00 61.42
  A 1.26 1.26 0.0 0 0 60.91 62.28
  L 60.17 64.46
  A 1.13 1.02 77.6 0 1 59.96 64.83
  Q 59.21 65.66 58.18 65.89
  A 1.98 1.97 88.3 0 0 56.66 67.51
  L 55.76 73.36
  Q 55.67 73.91 55.15 74.08
  L 53.13 74.76
  A 1.68 1.66 85.4 0 0 52.01 76.09
  L 51.04 82.16
  Q 50.94 82.76 50.33 82.78
  L 48.54 82.84
  A 1.27 1.27 0.0 0 0 47.30 84.06
  L 46.79 94.33
  L 47.42 113.05
  A 0.95 0.95 0.0 0 0 48.02 113.90
  L 50.71 114.95
  A 0.79 0.78 -81.6 0 1 51.20 115.62
  L 51.85 124.80
  Q 51.82 126.27 52.25 127.62
  Q 52.41 128.11 52.85 128.39
  L 54.96 129.76
  A 1.23 1.20 -82.6 0 1 55.46 130.43
  L 56.77 134.89
  Q 56.93 135.44 57.34 135.84
  L 60.39 138.90
  Q 62.51 141.49 67.79 142.16
  A 1.42 1.39 -21.1 0 1 68.53 142.48
  Q 69.84 143.56 70.67 145.05
  A 1.05 1.02 -10.3 0 0 71.44 145.57
  Q 75.19 146.06 77.76 148.74
  A 1.61 1.61 0.0 0 0 78.66 149.22
  C 86.43 150.58 94.96 150.11 103.40 149.65
  A 0.94 0.93 12.9 0 0 104.16 149.18
  C 105.91 146.02 112.01 146.54 115.07 146.45
  L 122.72 146.14
  Q 129.31 146.44 135.22 144.99
  A 1.57 1.54 12.9 0 0 136.02 144.50
  C 137.04 143.34 137.56 142.62 139.04 141.96
  C 140.67 141.24 141.87 140.75 143.02 139.27
  C 144.70 137.10 146.57 135.43 147.60 132.79
  Q 148.25 131.12 149.03 129.53
  C 154.09 124.88 150.25 118.08 154.91 114.13
  Q 155.29 113.80 155.41 113.31
  Q 155.68 112.17 155.68 111.00
  Q 155.67 104.37 155.66 97.75
  Q 155.65 95.35 154.28 94.74
  Q 152.89 94.11 152.76 93.26
  Q 152.10 88.98 151.25 84.74
  C 150.78 82.35 148.56 82.49 148.19 80.03
  C 147.43 74.84 143.51 71.67 138.60 69.60
  A 1.84 1.81 83.3 0 1 137.83 68.98
  C 135.29 65.37 131.48 66.15 127.58 65.08
  C 125.20 64.43 125.18 62.45 122.20 62.08
  Q 118.29 61.60 114.48 61.53
  Q 111.95 61.65 109.51 61.77
  Q 105.42 61.98 102.62 65.75
  L 81.44 66.35
  C 79.30 66.01 76.31 66.26 77.13 62.97
  Q 77.45 61.91 78.88 61.62
  Q 82.03 60.98 85.33 60.84
  C 90.43 61.48 98.00 61.86 100.88 57.92
  Q 101.18 57.51 101.67 57.37
  C 104.81 56.46 109.16 55.97 109.35 51.78
  C 109.43 50.23 109.81 49.28 110.36 48.02
  A 0.68 0.68 0.0 0 1 110.64 47.71
  L 114.13 45.75
  A 1.45 1.45 0.0 0 0 114.08 43.20
  L 113.58 42.94
  A 2.71 2.70 36.8 0 0 110.48 43.38
  C 108.03 45.70 105.56 46.79 104.00 49.77
  C 103.00 51.69 101.34 53.18 101.05 55.50
  A 1.61 1.61 0.0 0 1 99.19 56.90
  C 95.10 56.23 89.69 55.37 85.59 56.79
  Z" fill="#000000"></path>
<path d="M 85.33 60.84
  Q 87.47 58.65 85.59 56.79
  C 89.69 55.37 95.10 56.23 99.19 56.90
  A 1.61 1.61 0.0 0 0 101.05 55.50
  C 101.34 53.18 103.00 51.69 104.00 49.77
  C 105.56 46.79 108.03 45.70 110.48 43.38
  A 2.71 2.70 36.8 0 1 113.58 42.94
  L 114.08 43.20
  A 1.45 1.45 0.0 0 1 114.13 45.75
  L 110.64 47.71
  A 0.68 0.68 0.0 0 0 110.36 48.02
  C 109.81 49.28 109.43 50.23 109.35 51.78
  C 109.16 55.97 104.81 56.46 101.67 57.37
  Q 101.18 57.51 100.88 57.92
  C 98.00 61.86 90.43 61.48 85.33 60.84
  Z" fill="#5c3f19"></path>
<path d="M 85.59 56.79
  Q 87.47 58.65 85.33 60.84
  Q 82.03 60.98 78.88 61.62
  Q 77.45 61.91 77.13 62.97
  L 69.01 60.84
  Q 69.92 59.45 70.00 57.99
  A 1.51 1.50 2.2 0 1 71.53 56.58
  L 85.59 56.79
  Z" fill="#b79c2b"></path>
<path d="M 69.01 60.84
  L 77.13 62.97
  C 76.31 66.26 79.30 66.01 81.44 66.35
  L 84.38 67.44
  A 1.20 1.20 0.0 0 1 85.04 68.07
  Q 85.99 70.30 88.00 70.31
  Q 95.81 70.38 103.16 70.99
  A 1.49 1.49 0.0 0 1 104.49 72.80
  Q 103.91 75.45 101.23 75.42
  A 0.73 0.72 6.9 0 0 100.51 75.98
  C 100.11 77.71 100.38 79.18 99.47 80.69
  Q 98.49 82.30 97.22 83.72
  C 96.16 84.90 95.92 86.13 95.29 87.53
  Q 95.09 87.97 94.61 88.08
  Q 91.23 88.85 88.50 88.63
  C 85.10 88.36 85.41 91.03 85.07 93.37
  A 1.51 1.49 -89.4 0 1 83.79 94.64
  C 81.49 94.97 77.33 94.65 77.09 97.84
  C 76.86 100.85 77.71 108.41 72.75 107.57
  A 2.15 2.15 0.0 0 1 71.10 106.20
  Q 70.51 104.56 70.62 102.82
  A 1.78 1.78 0.0 0 0 68.80 100.94
  L 66.36 100.99
  A 1.61 1.61 0.0 0 0 64.82 102.89
  Q 65.48 106.42 62.29 107.50
  A 1.57 1.55 -83.4 0 0 61.49 108.14
  Q 60.38 109.90 60.11 111.97
  Q 60.05 112.49 59.72 112.90
  Q 58.98 113.83 57.83 113.83
  A 1.57 1.57 0.0 0 1 56.26 112.23
  C 56.37 107.60 56.92 100.44 55.17 96.09
  A 2.01 2.01 0.0 0 0 53.45 94.84
  L 46.79 94.33
  L 47.30 84.06
  A 1.27 1.27 0.0 0 1 48.54 82.84
  L 50.33 82.78
  Q 50.94 82.76 51.04 82.16
  L 52.01 76.09
  A 1.68 1.66 85.4 0 1 53.13 74.76
  L 55.15 74.08
  Q 55.67 73.91 55.76 73.36
  L 56.66 67.51
  A 1.98 1.97 88.3 0 1 58.18 65.89
  Q 59.21 65.66 59.96 64.83
  A 1.13 1.02 77.6 0 0 60.17 64.46
  L 60.91 62.28
  A 1.26 1.26 0.0 0 1 62.00 61.42
  L 69.01 60.84
  Z" fill="#fdc673"></path>
<path d="M 114.48 61.53
  Q 115.99 62.76 116.97 64.42
  A 0.73 0.73 0.0 0 0 117.65 64.78
  Q 118.21 64.75 118.49 65.26
  Q 118.62 65.50 118.62 65.50
  Q 118.55 65.64 118.48 65.79
  Q 118.44 65.87 118.52 65.91
  C 121.50 67.47 119.27 73.18 120.59 75.95
  C 121.36 77.58 122.77 78.18 123.95 79.23
  Q 124.02 79.29 124.96 80.98
  Q 125.93 82.73 129.76 83.33
  L 118.01 82.90
  A 1.77 1.75 -77.6 0 0 116.31 84.00
  C 114.20 89.16 114.64 95.36 115.02 100.97
  L 115.04 119.14
  L 115.08 124.43
  Q 114.96 127.34 115.78 133.25
  C 116.11 135.66 117.42 136.88 119.76 136.50
  C 121.01 136.29 121.90 136.51 123.04 135.94
  Q 126.46 134.22 129.58 131.90
  A 1.72 1.67 -10.6 0 0 130.20 131.02
  Q 131.07 128.22 134.00 127.78
  A 2.75 2.74 88.1 0 0 136.33 125.29
  Q 137.71 109.37 136.07 93.24
  Q 135.85 91.03 133.74 88.54
  Q 137.54 94.13 140.75 94.79
  Q 143.72 95.40 146.71 96.06
  Q 147.19 96.17 147.19 96.65
  L 147.46 127.47
  L 147.27 126.22
  Q 147.23 125.92 147.00 126.12
  Q 146.89 126.20 146.86 126.34
  Q 146.78 126.67 146.51 127.00
  Q 146.02 127.61 145.25 127.55
  A 1.30 1.30 0.0 0 0 143.92 128.42
  C 142.79 131.73 142.05 136.06 138.03 137.09
  Q 137.73 137.17 137.51 137.40
  Q 137.41 137.51 137.32 137.61
  Q 137.10 137.87 136.84 137.99
  Q 132.20 140.27 127.11 141.45
  Q 126.63 141.56 126.31 141.93
  L 122.72 146.14
  L 115.07 146.45
  Q 115.44 141.62 114.76 140.25
  C 112.53 135.80 105.71 136.64 101.74 137.04
  A 1.84 1.82 3.8 0 0 100.14 138.43
  C 99.49 141.18 102.75 141.15 104.52 141.39
  Q 104.95 141.45 105.14 141.84
  Q 106.86 145.33 102.83 146.59
  A 1.82 1.76 -51.7 0 1 102.24 146.67
  L 79.18 146.06
  Q 78.70 146.05 78.43 145.65
  L 76.04 142.10
  A 0.94 0.93 -13.1 0 0 75.36 141.68
  L 71.05 141.15
  Q 70.66 141.10 70.60 140.72
  C 70.24 138.40 69.00 137.00 66.50 136.70
  Q 63.81 136.38 60.85 136.08
  A 0.72 0.72 0.0 0 0 60.07 136.91
  L 60.39 138.90
  L 57.34 135.84
  Q 56.93 135.44 56.77 134.89
  L 55.46 130.43
  A 1.23 1.20 -82.6 0 0 54.96 129.76
  L 52.85 128.39
  Q 52.41 128.11 52.25 127.62
  Q 51.82 126.27 51.85 124.80
  L 52.96 125.54
  A 1.65 1.65 0.0 0 0 55.46 124.59
  Q 56.49 120.72 59.57 120.19
  C 62.08 119.76 68.40 119.78 70.07 122.31
  C 70.97 123.69 70.58 125.80 70.69 127.52
  A 0.86 0.86 0.0 0 0 71.27 128.29
  C 73.28 129.00 75.98 128.25 77.37 126.67
  A 2.12 2.01 9.6 0 1 78.20 126.11
  C 81.24 124.97 85.18 124.83 85.44 120.74
  Q 85.57 118.60 85.94 115.93
  A 1.19 1.18 -88.8 0 1 87.00 114.91
  Q 91.41 114.47 91.13 110.00
  A 1.43 1.42 -3.6 0 1 92.47 108.49
  L 103.23 107.83
  A 1.50 1.49 -87.6 0 0 104.62 106.54
  Q 105.39 101.02 104.49 95.51
  Q 104.42 95.07 104.00 94.91
  Q 103.01 94.54 101.99 94.63
  A 1.95 1.95 0.0 0 1 99.96 93.34
  C 98.93 90.44 101.56 89.07 103.67 88.15
  Q 104.08 87.98 104.20 87.54
  L 105.06 84.41
  A 0.98 0.97 86.9 0 1 105.63 83.77
  Q 108.56 82.51 109.57 79.48
  A 1.17 1.15 88.5 0 1 110.24 78.76
  L 113.55 77.40
  A 1.23 1.21 89.6 0 0 114.23 76.70
  Q 115.24 74.04 114.30 71.34
  Q 114.10 70.77 113.55 70.57
  L 110.27 69.34
  Q 109.96 69.23 109.92 68.91
  Q 109.67 67.29 107.97 66.68
  Q 104.99 65.61 102.62 65.75
  Q 105.42 61.98 109.51 61.77
  Q 111.95 61.65 114.48 61.53
  Z
  M 95.9261 130.8070
  A 2.38 1.61 3.3 0 0 93.6427 129.0627
  A 2.38 1.61 3.3 0 0 91.1739 130.5330
  A 2.38 1.61 3.3 0 0 93.4573 132.2773
  A 2.38 1.61 3.3 0 0 95.9261 130.8070
  Z" fill="#e76765"></path>
<path d="M 114.48 61.53
  Q 118.29 61.60 122.20 62.08
  C 125.18 62.45 125.20 64.43 127.58 65.08
  C 131.48 66.15 135.29 65.37 137.83 68.98
  A 1.84 1.81 83.3 0 0 138.60 69.60
  C 143.51 71.67 147.43 74.84 148.19 80.03
  C 148.56 82.49 150.78 82.35 151.25 84.74
  Q 152.10 88.98 152.76 93.26
  Q 152.89 94.11 154.28 94.74
  Q 155.65 95.35 155.66 97.75
  Q 155.67 104.37 155.68 111.00
  Q 155.68 112.17 155.41 113.31
  Q 155.29 113.80 154.91 114.13
  C 150.25 118.08 154.09 124.88 149.03 129.53
  Q 148.71 129.38 148.24 129.37
  Q 147.81 129.35 147.62 128.97
  Q 147.29 128.29 147.46 127.47
  L 147.19 96.65
  Q 147.19 96.17 146.71 96.06
  Q 143.72 95.40 140.75 94.79
  Q 137.54 94.13 133.74 88.54
  Q 131.44 87.69 129.76 83.33
  Q 125.93 82.73 124.96 80.98
  Q 124.02 79.29 123.95 79.23
  C 122.77 78.18 121.36 77.58 120.59 75.95
  C 119.27 73.18 121.50 67.47 118.52 65.91
  Q 118.44 65.87 118.48 65.79
  Q 118.55 65.64 118.62 65.50
  Q 118.62 65.50 118.49 65.26
  Q 118.21 64.75 117.65 64.78
  A 0.73 0.73 0.0 0 1 116.97 64.42
  Q 115.99 62.76 114.48 61.53
  Z" fill="#fa9350"></path>
<path d="M 102.62 65.75
  Q 104.99 65.61 107.97 66.68
  Q 109.67 67.29 109.92 68.91
  Q 109.96 69.23 110.27 69.34
  L 113.55 70.57
  Q 114.10 70.77 114.30 71.34
  Q 115.24 74.04 114.23 76.70
  A 1.23 1.21 89.6 0 1 113.55 77.40
  L 110.24 78.76
  A 1.17 1.15 88.5 0 0 109.57 79.48
  Q 108.56 82.51 105.63 83.77
  A 0.98 0.97 86.9 0 0 105.06 84.41
  L 104.20 87.54
  Q 104.08 87.98 103.67 88.15
  C 101.56 89.07 98.93 90.44 99.96 93.34
  A 1.95 1.95 0.0 0 0 101.99 94.63
  Q 103.01 94.54 104.00 94.91
  Q 104.42 95.07 104.49 95.51
  Q 105.39 101.02 104.62 106.54
  A 1.50 1.49 -87.6 0 1 103.23 107.83
  L 92.47 108.49
  A 1.43 1.42 -3.6 0 0 91.13 110.00
  Q 91.41 114.47 87.00 114.91
  A 1.19 1.18 -88.8 0 0 85.94 115.93
  Q 85.57 118.60 85.44 120.74
  C 85.18 124.83 81.24 124.97 78.20 126.11
  A 2.12 2.01 9.6 0 0 77.37 126.67
  C 75.98 128.25 73.28 129.00 71.27 128.29
  A 0.86 0.86 0.0 0 1 70.69 127.52
  C 70.58 125.80 70.97 123.69 70.07 122.31
  C 68.40 119.78 62.08 119.76 59.57 120.19
  Q 56.49 120.72 55.46 124.59
  A 1.65 1.65 0.0 0 1 52.96 125.54
  L 51.85 124.80
  L 51.20 115.62
  A 0.79 0.78 -81.6 0 0 50.71 114.95
  L 48.02 113.90
  A 0.95 0.95 0.0 0 1 47.42 113.05
  L 46.79 94.33
  L 53.45 94.84
  A 2.01 2.01 0.0 0 1 55.17 96.09
  C 56.92 100.44 56.37 107.60 56.26 112.23
  A 1.57 1.57 0.0 0 0 57.83 113.83
  Q 58.98 113.83 59.72 112.90
  Q 60.05 112.49 60.11 111.97
  Q 60.38 109.90 61.49 108.14
  A 1.57 1.55 -83.4 0 1 62.29 107.50
  Q 65.48 106.42 64.82 102.89
  A 1.61 1.61 0.0 0 1 66.36 100.99
  L 68.80 100.94
  A 1.78 1.78 0.0 0 1 70.62 102.82
  Q 70.51 104.56 71.10 106.20
  A 2.15 2.15 0.0 0 0 72.75 107.57
  C 77.71 108.41 76.86 100.85 77.09 97.84
  C 77.33 94.65 81.49 94.97 83.79 94.64
  A 1.51 1.49 -89.4 0 0 85.07 93.37
  C 85.41 91.03 85.10 88.36 88.50 88.63
  Q 91.23 88.85 94.61 88.08
  Q 95.09 87.97 95.29 87.53
  C 95.92 86.13 96.16 84.90 97.22 83.72
  Q 98.49 82.30 99.47 80.69
  C 100.38 79.18 100.11 77.71 100.51 75.98
  A 0.73 0.72 6.9 0 1 101.23 75.42
  Q 103.91 75.45 104.49 72.80
  A 1.49 1.49 0.0 0 0 103.16 70.99
  Q 95.81 70.38 88.00 70.31
  Q 85.99 70.30 85.04 68.07
  A 1.20 1.20 0.0 0 0 84.38 67.44
  L 81.44 66.35
  L 102.62 65.75
  Z" fill="#f98e5f"></path>
<path d="M 129.76 83.33
  Q 131.44 87.69 133.74 88.54
  Q 135.85 91.03 136.07 93.24
  Q 137.71 109.37 136.33 125.29
  A 2.75 2.74 88.1 0 1 134.00 127.78
  Q 131.07 128.22 130.20 131.02
  A 1.72 1.67 -10.6 0 1 129.58 131.90
  Q 126.46 134.22 123.04 135.94
  C 121.90 136.51 121.01 136.29 119.76 136.50
  C 117.42 136.88 116.11 135.66 115.78 133.25
  Q 114.96 127.34 115.08 124.43
  Q 119.59 124.94 124.70 123.35
  Q 125.12 123.23 125.21 122.81
  Q 125.95 119.51 129.43 119.80
  A 1.44 1.43 2.6 0 0 130.99 118.38
  Q 131.05 111.60 131.04 104.62
  C 131.04 100.74 127.78 100.77 124.98 100.01
  Q 125.91 97.72 124.19 95.16
  A 0.72 0.70 74.2 0 0 123.64 94.84
  L 116.81 94.28
  A 1.80 1.80 0.0 0 0 114.86 96.13
  L 115.02 100.97
  C 114.64 95.36 114.20 89.16 116.31 84.00
  A 1.77 1.75 -77.6 0 1 118.01 82.90
  L 129.76 83.33
  Z" fill="#cc4c4d"></path>
<path d="M 124.98 100.01
  L 124.85 117.54
  A 1.69 1.69 0.0 0 1 123.14 119.22
  L 115.04 119.14
  L 115.02 100.97
  L 114.86 96.13
  A 1.80 1.80 0.0 0 1 116.81 94.28
  L 123.64 94.84
  A 0.72 0.70 74.2 0 1 124.19 95.16
  Q 125.91 97.72 124.98 100.01
  Z" fill="#d41f17"></path>
<path d="M 124.98 100.01
  C 127.78 100.77 131.04 100.74 131.04 104.62
  Q 131.05 111.60 130.99 118.38
  A 1.44 1.43 2.6 0 1 129.43 119.80
  Q 125.95 119.51 125.21 122.81
  Q 125.12 123.23 124.70 123.35
  Q 119.59 124.94 115.08 124.43
  L 115.04 119.14
  L 123.14 119.22
  A 1.69 1.69 0.0 0 0 124.85 117.54
  L 124.98 100.01
  Z" fill="#c24615"></path>
<path d="M 147.46 127.47
  Q 147.29 128.29 147.62 128.97
  Q 147.81 129.35 148.24 129.37
  Q 148.71 129.38 149.03 129.53
  Q 148.25 131.12 147.60 132.79
  C 146.57 135.43 144.70 137.10 143.02 139.27
  C 141.87 140.75 140.67 141.24 139.04 141.96
  C 137.56 142.62 137.04 143.34 136.02 144.50
  A 1.57 1.54 12.9 0 1 135.22 144.99
  Q 129.31 146.44 122.72 146.14
  L 126.31 141.93
  Q 126.63 141.56 127.11 141.45
  Q 132.20 140.27 136.84 137.99
  Q 137.10 137.87 137.32 137.61
  Q 137.41 137.51 137.51 137.40
  Q 137.73 137.17 138.03 137.09
  C 142.05 136.06 142.79 131.73 143.92 128.42
  A 1.30 1.30 0.0 0 1 145.25 127.55
  Q 146.02 127.61 146.51 127.00
  Q 146.78 126.67 146.86 126.34
  Q 146.89 126.20 147.00 126.12
  Q 147.23 125.92 147.27 126.22
  L 147.46 127.47
  Z" fill="#f2691b"></path>
<ellipse ry="1.61" rx="2.38" transform="translate(93.55,130.67) rotate(3.3)" cy="0.00" cx="0.00" fill="#f2691b"></ellipse>
<path d="M 115.07 146.45
  C 112.01 146.54 105.91 146.02 104.16 149.18
  A 0.94 0.93 12.9 0 1 103.40 149.65
  C 94.96 150.11 86.43 150.58 78.66 149.22
  A 1.61 1.61 0.0 0 1 77.76 148.74
  Q 75.19 146.06 71.44 145.57
  A 1.05 1.02 -10.3 0 1 70.67 145.05
  Q 69.84 143.56 68.53 142.48
  A 1.42 1.39 -21.1 0 0 67.79 142.16
  Q 62.51 141.49 60.39 138.90
  L 60.07 136.91
  A 0.72 0.72 0.0 0 1 60.85 136.08
  Q 63.81 136.38 66.50 136.70
  C 69.00 137.00 70.24 138.40 70.60 140.72
  Q 70.66 141.10 71.05 141.15
  L 75.36 141.68
  A 0.94 0.93 -13.1 0 1 76.04 142.10
  L 78.43 145.65
  Q 78.70 146.05 79.18 146.06
  L 102.24 146.67
  A 1.82 1.76 -51.7 0 0 102.83 146.59
  Q 106.86 145.33 105.14 141.84
  Q 104.95 141.45 104.52 141.39
  C 102.75 141.15 99.49 141.18 100.14 138.43
  A 1.84 1.82 3.8 0 1 101.74 137.04
  C 105.71 136.64 112.53 135.80 114.76 140.25
  Q 115.44 141.62 115.07 146.45
  Z" fill="#f2691b"></path>
</svg>
