<svg viewBox="0.00 0.00 256.00 256.00" version="1.1" xmlns="http://www.w3.org/2000/svg">
<g stroke-linecap="butt" fill="none" stroke-width="2.00">
<path d="M 250.34 0.00
  Q 251.92 0.53 254.35 0.33
  A 1.32 1.32 0.0 0 1 255.71 2.04
  Q 255.65 2.24 255.65 3.00
  Q 255.56 128.13 255.56 255.02
  A 0.57 0.57 0.0 0 1 254.99 255.59
  Q 131.52 255.55 8.53 255.60
  C 5.95 255.60 2.41 256.56 0.00 254.50" stroke="#4829d9"></path>
<path d="M 177.85 55.19
  L 177.77 78.57" stroke="#aa9bed"></path>
<path d="M 177.77 78.57
  Q 176.73 77.61 176.50 78.77
  Q 176.41 79.23 176.61 79.74
  C 179.17 86.27 185.52 83.78 185.66 77.70
  Q 185.99 63.56 185.53 56.25
  Q 185.41 54.38 183.38 52.63
  Q 183.09 52.39 182.73 52.27
  Q 182.33 52.15 182.13 51.77
  A 0.53 0.53 0.0 0 1 182.39 51.03
  C 186.86 49.12 187.10 43.54 182.67 41.85
  C 180.08 40.87 176.79 42.89 176.34 45.41
  Q 175.80 48.43 179.20 51.24
  Q 179.62 51.59 179.34 52.06
  Q 179.10 52.48 178.52 53.15
  Q 176.12 55.92 177.85 55.19" stroke="#4829d9"></path>
<path d="M 177.77 78.57
  C 177.44 81.90 181.56 83.94 183.87 80.71
  A 2.55 2.49 -27.8 0 0 184.34 79.25
  Q 184.29 67.88 184.38 56.25
  C 184.40 52.59 179.99 52.15 177.85 55.19" stroke="#9e8eeb"></path>
<path d="M 104.70 44.71
  A 3.02 3.02 0.0 0 0 101.68 41.69
  L 101.52 41.69
  A 3.02 3.02 0.0 0 0 98.50 44.71
  L 98.50 78.33
  A 3.02 3.02 0.0 0 0 101.52 81.35
  L 101.68 81.35
  A 3.02 3.02 0.0 0 0 104.70 78.33
  L 104.70 44.71" stroke="#aa9bed"></path>
<path d="M 167.4603 66.7892
  A 1.51 1.51 0.0 0 0 166.0820 65.1581
  L 116.7157 61.0127
  A 1.51 1.51 0.0 0 0 115.0847 62.3911
  L 115.0797 62.4508
  A 1.51 1.51 0.0 0 0 116.4580 64.0819
  L 165.8243 68.2273
  A 1.51 1.51 0.0 0 0 167.4553 66.8489
  L 167.4603 66.7892" stroke="#aa9bed"></path>
<path d="M 172.74 156.35
  Q 174.13 156.13 174.61 156.39" stroke="#aa9bed"></path>
<path d="M 174.61 156.39
  Q 176.65 155.54 175.29 153.49
  Q 174.68 152.58 173.29 151.96
  Q 166.21 148.78 157.98 145.03
  A 1.54 1.54 0.0 0 1 157.22 143.00
  Q 167.35 120.66 177.31 97.66
  Q 177.91 96.27 177.99 95.28
  Q 178.14 93.61 177.47 92.79
  Q 175.69 90.56 173.91 92.93
  Q 172.57 94.71 171.65 96.77
  Q 163.33 115.42 155.07 134.10
  Q 153.63 137.35 152.42 140.73
  Q 151.87 142.30 150.35 141.63
  L 80.51 110.66
  A 1.88 1.87 -70.2 0 0 77.95 111.87
  L 77.75 112.56
  Q 76.98 115.29 79.58 116.44
  L 147.79 146.66
  Q 149.23 147.29 148.60 148.73
  L 138.30 172.27
  A 2.27 2.26 25.0 0 0 139.37 175.21
  L 139.90 175.47
  Q 142.43 176.72 143.57 174.14
  L 153.89 150.67
  A 1.19 1.19 0.0 0 1 155.46 150.06
  L 171.90 157.29
  A 0.63 0.63 0.0 0 0 172.78 156.65
  Q 172.77 156.54 172.74 156.35" stroke="#4829d9"></path>
<path d="M 174.61 156.39
  Q 174.89 155.17 174.78 154.43
  Q 174.67 153.72 173.54 153.21
  Q 164.44 149.17 155.37 145.18
  Q 155.09 145.06 155.22 144.78
  L 177.36 94.62
  A 1.16 1.16 0.0 0 0 176.78 93.10
  L 176.54 92.99
  Q 174.91 92.24 174.18 93.89
  L 152.37 143.22
  Q 152.13 143.76 151.59 143.52
  L 80.38 111.96
  Q 79.15 111.41 78.63 112.65
  L 78.53 112.89
  Q 77.91 114.35 79.37 115.00
  L 150.51 146.46
  A 0.41 0.40 24.3 0 1 150.72 146.99
  L 139.31 172.80
  A 1.21 1.21 0.0 0 0 139.98 174.42
  L 140.46 174.61
  Q 141.80 175.13 142.38 173.82
  L 153.59 148.49
  A 0.60 0.60 0.0 0 1 154.38 148.19
  L 172.74 156.35" stroke="#9e8eeb"></path>
<path d="M 57.18 101.43
  L 51.84 108.26
  A 2.91 2.91 0.0 0 0 52.42 112.41
  L 53.17 112.96
  Q 56.14 115.11 58.58 112.38
  Q 63.66 106.71 67.05 102.34
  Q 70.04 98.49 66.54 95.72
  C 59.46 90.12 48.03 91.05 43.05 99.51
  C 40.77 103.39 39.55 107.10 40.76 111.59
  C 42.96 119.79 50.68 125.55 59.22 123.95
  C 63.09 123.23 67.17 121.13 69.06 117.43
  C 70.58 114.46 66.88 111.65 64.26 112.12
  C 60.71 112.75 60.29 116.39 55.14 115.48
  C 47.02 114.05 47.95 99.74 56.92 100.81
  Q 57.60 100.89 57.18 101.43" stroke="#4829d9"></path>
<path d="M 60.0996 134.3264
  A 2.86 2.86 0.0 0 0 56.6039 132.2919
  L 56.4686 132.3276
  A 2.86 2.86 0.0 0 0 54.4340 135.8233
  L 60.3604 158.2536
  A 2.86 2.86 0.0 0 0 63.8561 160.2881
  L 63.9914 160.2524
  A 2.86 2.86 0.0 0 0 66.0260 156.7567
  L 60.0996 134.3264" stroke="#4829d9"></path>
<path d="M 186.71 146.03
  Q 185.27 147.31 185.27 148.75
  Q 185.25 163.88 185.24 179.06" stroke="#aa9bed"></path>
<path d="M 185.24 179.06
  Q 184.88 178.95 184.86 178.27
  Q 184.82 177.33 184.66 178.27
  Q 184.55 178.90 184.29 179.46
  C 182.11 184.15 188.04 189.43 191.94 184.42
  C 193.62 182.27 192.94 178.39 192.78 175.62
  A 0.80 0.80 0.0 0 1 193.91 174.84
  C 209.87 181.98 223.07 161.70 211.60 149.42
  Q 203.46 140.70 192.60 146.57
  Q 192.13 146.83 191.83 146.38
  C 190.76 144.78 189.08 143.84 187.15 144.56
  Q 185.25 145.27 186.71 146.03" stroke="#4829d9"></path>
<path d="M 185.24 179.06
  C 185.15 180.84 184.91 183.05 186.17 184.41
  C 188.13 186.53 191.68 184.91 191.65 182.00
  Q 191.60 177.19 191.61 172.39
  Q 191.61 171.84 192.07 172.15
  Q 198.25 176.33 204.77 174.24
  C 217.26 170.25 218.02 152.31 206.35 146.79
  C 201.79 144.63 196.60 144.97 192.27 148.42
  Q 191.84 148.76 191.57 148.27
  C 190.49 146.21 189.39 144.41 186.71 146.03" stroke="#9e8eeb"></path>
<path d="M 61.81 192.75
  Q 61.45 189.58 61.75 181.55
  Q 61.91 176.95 66.51 176.99
  L 67.51 177.00
  A 3.53 3.53 0.0 0 1 71.01 180.55
  Q 70.97 187.95 71.08 194.95
  C 71.18 201.28 79.57 202.05 80.11 195.78
  Q 80.61 189.77 80.14 182.39
  Q 79.81 177.40 78.06 174.55
  C 72.86 166.12 59.85 166.01 54.59 174.90
  C 51.38 180.32 51.87 186.03 52.08 193.66
  C 52.17 196.97 53.56 198.93 56.36 200.31
  A 1.23 1.22 47.9 0 0 57.32 200.36
  Q 62.46 198.39 61.81 192.75" stroke="#4829d9"></path>
<path d="M 136.12 207.12
  C 127.08 207.78 126.12 194.27 134.47 192.30
  C 139.29 191.17 143.01 198.72 146.87 194.87
  C 150.62 191.14 146.03 186.86 142.75 185.33
  C 133.10 180.84 123.06 185.95 120.00 195.85
  Q 118.66 200.17 120.30 204.55
  C 124.34 215.40 137.17 219.85 146.29 211.62
  Q 150.54 207.78 146.23 204.30
  C 142.77 201.50 139.90 206.85 136.12 207.12" stroke="#4829d9"></path>
<path d="M 110.5282 196.1203
  A 1.49 1.49 0.0 0 0 109.5781 194.2395
  L 91.2626 188.2176
  A 1.49 1.49 0.0 0 0 89.3818 189.1677
  L 89.3318 189.3197
  A 1.49 1.49 0.0 0 0 90.2819 191.2005
  L 108.5974 197.2224
  A 1.49 1.49 0.0 0 0 110.4782 196.2723
  L 110.5282 196.1203" stroke="#aa9bed"></path>
<path d="M 184.80 46.43
  A 3.75 3.75 0.0 0 0 181.05 42.68
  A 3.75 3.75 0.0 0 0 177.30 46.43
  A 3.75 3.75 0.0 0 0 181.05 50.18
  A 3.75 3.75 0.0 0 0 184.80 46.43" stroke="#9e8eeb"></path>
<path d="M 59.33 99.73
  A 0.49 0.48 26.9 0 1 59.59 100.52
  L 52.86 108.32
  A 2.21 2.21 0.0 0 0 53.04 111.39
  L 53.58 111.88
  Q 55.95 114.05 58.01 111.58
  Q 62.20 106.55 66.16 101.85
  C 69.92 97.40 62.92 94.34 59.60 93.67
  C 42.56 90.21 34.83 113.68 49.37 121.14
  C 54.66 123.86 65.43 123.42 68.19 116.50
  Q 68.37 116.04 68.21 115.58
  Q 67.41 113.31 65.27 113.16
  C 63.08 113.01 61.67 115.26 60.09 116.09
  Q 55.80 118.38 51.27 114.99
  C 47.83 112.42 47.46 107.09 49.50 103.47
  Q 52.45 98.21 59.33 99.73" stroke="#9e8eeb"></path>
<path d="M 58.8655 134.4398
  A 1.52 1.52 0.0 0 0 57.0114 133.3521
  L 56.7985 133.4075
  A 1.52 1.52 0.0 0 0 55.7107 135.2616
  L 61.6545 158.0802
  A 1.52 1.52 0.0 0 0 63.5086 159.1679
  L 63.7215 159.1125
  A 1.52 1.52 0.0 0 0 64.8093 157.2584
  L 58.8655 134.4398" stroke="#9e8eeb"></path>
<path d="M 199.6137 169.0366
  A 8.82 8.32 91.6 0 0 208.1768 160.4523
  A 8.82 8.32 91.6 0 0 200.1063 151.4034
  A 8.82 8.32 91.6 0 0 191.5432 159.9877
  A 8.82 8.32 91.6 0 0 199.6137 169.0366" stroke="#9e8eeb"></path>
<path d="M 200.0334 167.6886
  A 7.47 7.01 88.9 0 0 206.8987 160.0854
  A 7.47 7.01 88.9 0 0 199.7466 152.7514
  A 7.47 7.01 88.9 0 0 192.8813 160.3546
  A 7.47 7.01 88.9 0 0 200.0334 167.6886" stroke="#4829d9"></path>
<path d="M 60.28 181.75
  C 60.23 175.72 68.00 173.07 71.33 177.96
  C 73.55 181.22 72.50 191.65 72.54 195.72
  Q 72.56 198.75 75.59 198.85
  L 76.31 198.88
  A 2.39 2.39 0.0 0 0 78.78 196.54
  Q 78.91 189.63 78.79 182.68
  Q 78.72 178.22 77.31 175.75
  C 72.35 167.04 58.84 167.64 54.95 176.96
  C 52.98 181.70 53.77 189.89 53.84 195.62
  A 3.25 3.25 0.0 0 0 56.94 198.82
  L 57.67 198.85
  A 2.40 2.39 -88.0 0 0 60.17 196.51
  Q 60.34 188.95 60.28 181.75" stroke="#9e8eeb"></path>
<path d="M 139.43 191.83
  C 141.38 192.65 143.21 196.47 146.20 193.97
  C 148.64 191.93 146.50 189.19 144.47 187.81
  C 136.98 182.71 126.36 184.77 122.36 193.10
  C 117.17 203.95 125.72 215.79 137.61 214.38
  C 140.11 214.08 150.69 209.70 146.38 205.64
  C 143.44 202.88 141.43 206.51 139.32 207.61
  C 131.54 211.67 124.71 202.34 128.33 195.37
  Q 131.84 188.63 139.43 191.83" stroke="#9e8eeb"></path>
</g>
<path d="M 0.00 0.00
  L 250.34 0.00
  Q 251.92 0.53 254.35 0.33
  A 1.32 1.32 0.0 0 1 255.71 2.04
  Q 255.65 2.24 255.65 3.00
  Q 255.56 128.13 255.56 255.02
  A 0.57 0.57 0.0 0 1 254.99 255.59
  Q 131.52 255.55 8.53 255.60
  C 5.95 255.60 2.41 256.56 0.00 254.50
  L 0.00 0.00
  Z
  M 177.85 55.19
  L 177.77 78.57
  Q 176.73 77.61 176.50 78.77
  Q 176.41 79.23 176.61 79.74
  C 179.17 86.27 185.52 83.78 185.66 77.70
  Q 185.99 63.56 185.53 56.25
  Q 185.41 54.38 183.38 52.63
  Q 183.09 52.39 182.73 52.27
  Q 182.33 52.15 182.13 51.77
  A 0.53 0.53 0.0 0 1 182.39 51.03
  C 186.86 49.12 187.10 43.54 182.67 41.85
  C 180.08 40.87 176.79 42.89 176.34 45.41
  Q 175.80 48.43 179.20 51.24
  Q 179.62 51.59 179.34 52.06
  Q 179.10 52.48 178.52 53.15
  Q 176.12 55.92 177.85 55.19
  Z
  M 104.70 44.71
  A 3.02 3.02 0.0 0 0 101.68 41.69
  L 101.52 41.69
  A 3.02 3.02 0.0 0 0 98.50 44.71
  L 98.50 78.33
  A 3.02 3.02 0.0 0 0 101.52 81.35
  L 101.68 81.35
  A 3.02 3.02 0.0 0 0 104.70 78.33
  L 104.70 44.71
  Z
  M 167.4603 66.7892
  A 1.51 1.51 0.0 0 0 166.0820 65.1581
  L 116.7157 61.0127
  A 1.51 1.51 0.0 0 0 115.0847 62.3911
  L 115.0797 62.4508
  A 1.51 1.51 0.0 0 0 116.4580 64.0819
  L 165.8243 68.2273
  A 1.51 1.51 0.0 0 0 167.4553 66.8489
  L 167.4603 66.7892
  Z
  M 172.74 156.35
  Q 174.13 156.13 174.61 156.39
  Q 176.65 155.54 175.29 153.49
  Q 174.68 152.58 173.29 151.96
  Q 166.21 148.78 157.98 145.03
  A 1.54 1.54 0.0 0 1 157.22 143.00
  Q 167.35 120.66 177.31 97.66
  Q 177.91 96.27 177.99 95.28
  Q 178.14 93.61 177.47 92.79
  Q 175.69 90.56 173.91 92.93
  Q 172.57 94.71 171.65 96.77
  Q 163.33 115.42 155.07 134.10
  Q 153.63 137.35 152.42 140.73
  Q 151.87 142.30 150.35 141.63
  L 80.51 110.66
  A 1.88 1.87 -70.2 0 0 77.95 111.87
  L 77.75 112.56
  Q 76.98 115.29 79.58 116.44
  L 147.79 146.66
  Q 149.23 147.29 148.60 148.73
  L 138.30 172.27
  A 2.27 2.26 25.0 0 0 139.37 175.21
  L 139.90 175.47
  Q 142.43 176.72 143.57 174.14
  L 153.89 150.67
  A 1.19 1.19 0.0 0 1 155.46 150.06
  L 171.90 157.29
  A 0.63 0.63 0.0 0 0 172.78 156.65
  Q 172.77 156.54 172.74 156.35
  Z
  M 57.18 101.43
  L 51.84 108.26
  A 2.91 2.91 0.0 0 0 52.42 112.41
  L 53.17 112.96
  Q 56.14 115.11 58.58 112.38
  Q 63.66 106.71 67.05 102.34
  Q 70.04 98.49 66.54 95.72
  C 59.46 90.12 48.03 91.05 43.05 99.51
  C 40.77 103.39 39.55 107.10 40.76 111.59
  C 42.96 119.79 50.68 125.55 59.22 123.95
  C 63.09 123.23 67.17 121.13 69.06 117.43
  C 70.58 114.46 66.88 111.65 64.26 112.12
  C 60.71 112.75 60.29 116.39 55.14 115.48
  C 47.02 114.05 47.95 99.74 56.92 100.81
  Q 57.60 100.89 57.18 101.43
  Z
  M 60.0996 134.3264
  A 2.86 2.86 0.0 0 0 56.6039 132.2919
  L 56.4686 132.3276
  A 2.86 2.86 0.0 0 0 54.4340 135.8233
  L 60.3604 158.2536
  A 2.86 2.86 0.0 0 0 63.8561 160.2881
  L 63.9914 160.2524
  A 2.86 2.86 0.0 0 0 66.0260 156.7567
  L 60.0996 134.3264
  Z
  M 186.71 146.03
  Q 185.27 147.31 185.27 148.75
  Q 185.25 163.88 185.24 179.06
  Q 184.88 178.95 184.86 178.27
  Q 184.82 177.33 184.66 178.27
  Q 184.55 178.90 184.29 179.46
  C 182.11 184.15 188.04 189.43 191.94 184.42
  C 193.62 182.27 192.94 178.39 192.78 175.62
  A 0.80 0.80 0.0 0 1 193.91 174.84
  C 209.87 181.98 223.07 161.70 211.60 149.42
  Q 203.46 140.70 192.60 146.57
  Q 192.13 146.83 191.83 146.38
  C 190.76 144.78 189.08 143.84 187.15 144.56
  Q 185.25 145.27 186.71 146.03
  Z
  M 61.81 192.75
  Q 61.45 189.58 61.75 181.55
  Q 61.91 176.95 66.51 176.99
  L 67.51 177.00
  A 3.53 3.53 0.0 0 1 71.01 180.55
  Q 70.97 187.95 71.08 194.95
  C 71.18 201.28 79.57 202.05 80.11 195.78
  Q 80.61 189.77 80.14 182.39
  Q 79.81 177.40 78.06 174.55
  C 72.86 166.12 59.85 166.01 54.59 174.90
  C 51.38 180.32 51.87 186.03 52.08 193.66
  C 52.17 196.97 53.56 198.93 56.36 200.31
  A 1.23 1.22 47.9 0 0 57.32 200.36
  Q 62.46 198.39 61.81 192.75
  Z
  M 136.12 207.12
  C 127.08 207.78 126.12 194.27 134.47 192.30
  C 139.29 191.17 143.01 198.72 146.87 194.87
  C 150.62 191.14 146.03 186.86 142.75 185.33
  C 133.10 180.84 123.06 185.95 120.00 195.85
  Q 118.66 200.17 120.30 204.55
  C 124.34 215.40 137.17 219.85 146.29 211.62
  Q 150.54 207.78 146.23 204.30
  C 142.77 201.50 139.90 206.85 136.12 207.12
  Z
  M 110.5282 196.1203
  A 1.49 1.49 0.0 0 0 109.5781 194.2395
  L 91.2626 188.2176
  A 1.49 1.49 0.0 0 0 89.3818 189.1677
  L 89.3318 189.3197
  A 1.49 1.49 0.0 0 0 90.2819 191.2005
  L 108.5974 197.2224
  A 1.49 1.49 0.0 0 0 110.4782 196.2723
  L 110.5282 196.1203
  Z" fill="#5436db"></path>
<path d="M 250.34 0.00
  L 256.00 0.00
  L 256.00 256.00
  L 0.00 256.00
  L 0.00 254.50
  C 2.41 256.56 5.95 255.60 8.53 255.60
  Q 131.52 255.55 254.99 255.59
  A 0.57 0.57 0.0 0 0 255.56 255.02
  Q 255.56 128.13 255.65 3.00
  Q 255.65 2.24 255.71 2.04
  A 1.32 1.32 0.0 0 0 254.35 0.33
  Q 251.92 0.53 250.34 0.00
  Z" fill="#3c1cd6"></path>
<path d="M 177.77 78.57
  C 177.44 81.90 181.56 83.94 183.87 80.71
  A 2.55 2.49 -27.8 0 0 184.34 79.25
  Q 184.29 67.88 184.38 56.25
  C 184.40 52.59 179.99 52.15 177.85 55.19
  Q 176.12 55.92 178.52 53.15
  Q 179.10 52.48 179.34 52.06
  Q 179.62 51.59 179.20 51.24
  Q 175.80 48.43 176.34 45.41
  C 176.79 42.89 180.08 40.87 182.67 41.85
  C 187.10 43.54 186.86 49.12 182.39 51.03
  A 0.53 0.53 0.0 0 0 182.13 51.77
  Q 182.33 52.15 182.73 52.27
  Q 183.09 52.39 183.38 52.63
  Q 185.41 54.38 185.53 56.25
  Q 185.99 63.56 185.66 77.70
  C 185.52 83.78 179.17 86.27 176.61 79.74
  Q 176.41 79.23 176.50 78.77
  Q 176.73 77.61 177.77 78.57
  Z
  M 184.80 46.43
  A 3.75 3.75 0.0 0 0 181.05 42.68
  A 3.75 3.75 0.0 0 0 177.30 46.43
  A 3.75 3.75 0.0 0 0 181.05 50.18
  A 3.75 3.75 0.0 0 0 184.80 46.43
  Z" fill="#3c1cd6"></path>
<rect rx="3.02" height="39.66" width="6.20" y="41.69" x="98.50" fill="#ffffff"></rect>
<circle r="3.75" cy="46.43" cx="181.05" fill="#ffffff"></circle>
<path d="M 177.77 78.57
  L 177.85 55.19
  C 179.99 52.15 184.40 52.59 184.38 56.25
  Q 184.29 67.88 184.34 79.25
  A 2.55 2.49 -27.8 0 1 183.87 80.71
  C 181.56 83.94 177.44 81.90 177.77 78.57
  Z" fill="#ffffff"></path>
<rect rx="1.51" height="3.08" width="52.56" transform="translate(141.27,64.62) rotate(4.8)" y="-1.54" x="-26.28" fill="#ffffff"></rect>
<path d="M 174.61 156.39
  Q 174.89 155.17 174.78 154.43
  Q 174.67 153.72 173.54 153.21
  Q 164.44 149.17 155.37 145.18
  Q 155.09 145.06 155.22 144.78
  L 177.36 94.62
  A 1.16 1.16 0.0 0 0 176.78 93.10
  L 176.54 92.99
  Q 174.91 92.24 174.18 93.89
  L 152.37 143.22
  Q 152.13 143.76 151.59 143.52
  L 80.38 111.96
  Q 79.15 111.41 78.63 112.65
  L 78.53 112.89
  Q 77.91 114.35 79.37 115.00
  L 150.51 146.46
  A 0.41 0.40 24.3 0 1 150.72 146.99
  L 139.31 172.80
  A 1.21 1.21 0.0 0 0 139.98 174.42
  L 140.46 174.61
  Q 141.80 175.13 142.38 173.82
  L 153.59 148.49
  A 0.60 0.60 0.0 0 1 154.38 148.19
  L 172.74 156.35
  Q 172.77 156.54 172.78 156.65
  A 0.63 0.63 0.0 0 1 171.90 157.29
  L 155.46 150.06
  A 1.19 1.19 0.0 0 0 153.89 150.67
  L 143.57 174.14
  Q 142.43 176.72 139.90 175.47
  L 139.37 175.21
  A 2.27 2.26 25.0 0 1 138.30 172.27
  L 148.60 148.73
  Q 149.23 147.29 147.79 146.66
  L 79.58 116.44
  Q 76.98 115.29 77.75 112.56
  L 77.95 111.87
  A 1.88 1.87 -70.2 0 1 80.51 110.66
  L 150.35 141.63
  Q 151.87 142.30 152.42 140.73
  Q 153.63 137.35 155.07 134.10
  Q 163.33 115.42 171.65 96.77
  Q 172.57 94.71 173.91 92.93
  Q 175.69 90.56 177.47 92.79
  Q 178.14 93.61 177.99 95.28
  Q 177.91 96.27 177.31 97.66
  Q 167.35 120.66 157.22 143.00
  A 1.54 1.54 0.0 0 0 157.98 145.03
  Q 166.21 148.78 173.29 151.96
  Q 174.68 152.58 175.29 153.49
  Q 176.65 155.54 174.61 156.39
  Z" fill="#3c1cd6"></path>
<path d="M 56.92 100.81
  C 47.95 99.74 47.02 114.05 55.14 115.48
  C 60.29 116.39 60.71 112.75 64.26 112.12
  C 66.88 111.65 70.58 114.46 69.06 117.43
  C 67.17 121.13 63.09 123.23 59.22 123.95
  C 50.68 125.55 42.96 119.79 40.76 111.59
  C 39.55 107.10 40.77 103.39 43.05 99.51
  C 48.03 91.05 59.46 90.12 66.54 95.72
  Q 70.04 98.49 67.05 102.34
  Q 63.66 106.71 58.58 112.38
  Q 56.14 115.11 53.17 112.96
  L 52.42 112.41
  A 2.91 2.91 0.0 0 1 51.84 108.26
  L 57.18 101.43
  Q 57.60 100.89 56.92 100.81
  Z
  M 59.33 99.73
  A 0.49 0.48 26.9 0 1 59.59 100.52
  L 52.86 108.32
  A 2.21 2.21 0.0 0 0 53.04 111.39
  L 53.58 111.88
  Q 55.95 114.05 58.01 111.58
  Q 62.20 106.55 66.16 101.85
  C 69.92 97.40 62.92 94.34 59.60 93.67
  C 42.56 90.21 34.83 113.68 49.37 121.14
  C 54.66 123.86 65.43 123.42 68.19 116.50
  Q 68.37 116.04 68.21 115.58
  Q 67.41 113.31 65.27 113.16
  C 63.08 113.01 61.67 115.26 60.09 116.09
  Q 55.80 118.38 51.27 114.99
  C 47.83 112.42 47.46 107.09 49.50 103.47
  Q 52.45 98.21 59.33 99.73
  Z" fill="#3c1cd6"></path>
<path d="M 174.61 156.39
  Q 174.13 156.13 172.74 156.35
  L 154.38 148.19
  A 0.60 0.60 0.0 0 0 153.59 148.49
  L 142.38 173.82
  Q 141.80 175.13 140.46 174.61
  L 139.98 174.42
  A 1.21 1.21 0.0 0 1 139.31 172.80
  L 150.72 146.99
  A 0.41 0.40 24.3 0 0 150.51 146.46
  L 79.37 115.00
  Q 77.91 114.35 78.53 112.89
  L 78.63 112.65
  Q 79.15 111.41 80.38 111.96
  L 151.59 143.52
  Q 152.13 143.76 152.37 143.22
  L 174.18 93.89
  Q 174.91 92.24 176.54 92.99
  L 176.78 93.10
  A 1.16 1.16 0.0 0 1 177.36 94.62
  L 155.22 144.78
  Q 155.09 145.06 155.37 145.18
  Q 164.44 149.17 173.54 153.21
  Q 174.67 153.72 174.78 154.43
  Q 174.89 155.17 174.61 156.39
  Z" fill="#ffffff"></path>
<path d="M 59.33 99.73
  Q 52.45 98.21 49.50 103.47
  C 47.46 107.09 47.83 112.42 51.27 114.99
  Q 55.80 118.38 60.09 116.09
  C 61.67 115.26 63.08 113.01 65.27 113.16
  Q 67.41 113.31 68.21 115.58
  Q 68.37 116.04 68.19 116.50
  C 65.43 123.42 54.66 123.86 49.37 121.14
  C 34.83 113.68 42.56 90.21 59.60 93.67
  C 62.92 94.34 69.92 97.40 66.16 101.85
  Q 62.20 106.55 58.01 111.58
  Q 55.95 114.05 53.58 111.88
  L 53.04 111.39
  A 2.21 2.21 0.0 0 1 52.86 108.32
  L 59.59 100.52
  A 0.49 0.48 26.9 0 0 59.33 99.73
  Z" fill="#ffffff"></path>
<path d="M 66.0260 156.7567
  A 2.86 2.86 0.0 0 1 63.9914 160.2524
  L 63.8561 160.2881
  A 2.86 2.86 0.0 0 1 60.3604 158.2536
  L 54.4340 135.8233
  A 2.86 2.86 0.0 0 1 56.4686 132.3276
  L 56.6039 132.2919
  A 2.86 2.86 0.0 0 1 60.0996 134.3264
  L 66.0260 156.7567
  Z
  M 58.8655 134.4398
  A 1.52 1.52 0.0 0 0 57.0114 133.3521
  L 56.7985 133.4075
  A 1.52 1.52 0.0 0 0 55.7107 135.2616
  L 61.6545 158.0802
  A 1.52 1.52 0.0 0 0 63.5086 159.1679
  L 63.7215 159.1125
  A 1.52 1.52 0.0 0 0 64.8093 157.2584
  L 58.8655 134.4398
  Z" fill="#3c1cd6"></path>
<rect rx="1.52" height="26.62" width="3.26" transform="translate(60.26,146.26) rotate(-14.6)" y="-13.31" x="-1.63" fill="#ffffff"></rect>
<path d="M 185.24 179.06
  C 185.15 180.84 184.91 183.05 186.17 184.41
  C 188.13 186.53 191.68 184.91 191.65 182.00
  Q 191.60 177.19 191.61 172.39
  Q 191.61 171.84 192.07 172.15
  Q 198.25 176.33 204.77 174.24
  C 217.26 170.25 218.02 152.31 206.35 146.79
  C 201.79 144.63 196.60 144.97 192.27 148.42
  Q 191.84 148.76 191.57 148.27
  C 190.49 146.21 189.39 144.41 186.71 146.03
  Q 185.25 145.27 187.15 144.56
  C 189.08 143.84 190.76 144.78 191.83 146.38
  Q 192.13 146.83 192.60 146.57
  Q 203.46 140.70 211.60 149.42
  C 223.07 161.70 209.87 181.98 193.91 174.84
  A 0.80 0.80 0.0 0 0 192.78 175.62
  C 192.94 178.39 193.62 182.27 191.94 184.42
  C 188.04 189.43 182.11 184.15 184.29 179.46
  Q 184.55 178.90 184.66 178.27
  Q 184.82 177.33 184.86 178.27
  Q 184.88 178.95 185.24 179.06
  Z" fill="#3c1cd6"></path>
<path d="M 185.24 179.06
  Q 185.25 163.88 185.27 148.75
  Q 185.27 147.31 186.71 146.03
  C 189.39 144.41 190.49 146.21 191.57 148.27
  Q 191.84 148.76 192.27 148.42
  C 196.60 144.97 201.79 144.63 206.35 146.79
  C 218.02 152.31 217.26 170.25 204.77 174.24
  Q 198.25 176.33 192.07 172.15
  Q 191.61 171.84 191.61 172.39
  Q 191.60 177.19 191.65 182.00
  C 191.68 184.91 188.13 186.53 186.17 184.41
  C 184.91 183.05 185.15 180.84 185.24 179.06
  Z
  M 199.6137 169.0366
  A 8.82 8.32 91.6 0 0 208.1768 160.4523
  A 8.82 8.32 91.6 0 0 200.1063 151.4034
  A 8.82 8.32 91.6 0 0 191.5432 159.9877
  A 8.82 8.32 91.6 0 0 199.6137 169.0366
  Z" fill="#ffffff"></path>
<path d="M 199.6137 169.0366
  A 8.82 8.32 91.6 0 1 191.5432 159.9877
  A 8.82 8.32 91.6 0 1 200.1063 151.4034
  A 8.82 8.32 91.6 0 1 208.1768 160.4523
  A 8.82 8.32 91.6 0 1 199.6137 169.0366
  Z
  M 200.0334 167.6886
  A 7.47 7.01 88.9 0 0 206.8987 160.0854
  A 7.47 7.01 88.9 0 0 199.7466 152.7514
  A 7.47 7.01 88.9 0 0 192.8813 160.3546
  A 7.47 7.01 88.9 0 0 200.0334 167.6886
  Z" fill="#3c1cd6"></path>
<ellipse ry="7.01" rx="7.47" transform="translate(199.89,160.22) rotate(88.9)" cy="0.00" cx="0.00" fill="#5436db"></ellipse>
<path d="M 61.81 192.75
  Q 62.46 198.39 57.32 200.36
  A 1.23 1.22 47.9 0 1 56.36 200.31
  C 53.56 198.93 52.17 196.97 52.08 193.66
  C 51.87 186.03 51.38 180.32 54.59 174.90
  C 59.85 166.01 72.86 166.12 78.06 174.55
  Q 79.81 177.40 80.14 182.39
  Q 80.61 189.77 80.11 195.78
  C 79.57 202.05 71.18 201.28 71.08 194.95
  Q 70.97 187.95 71.01 180.55
  A 3.53 3.53 0.0 0 0 67.51 177.00
  L 66.51 176.99
  Q 61.91 176.95 61.75 181.55
  Q 61.45 189.58 61.81 192.75
  Z
  M 60.28 181.75
  C 60.23 175.72 68.00 173.07 71.33 177.96
  C 73.55 181.22 72.50 191.65 72.54 195.72
  Q 72.56 198.75 75.59 198.85
  L 76.31 198.88
  A 2.39 2.39 0.0 0 0 78.78 196.54
  Q 78.91 189.63 78.79 182.68
  Q 78.72 178.22 77.31 175.75
  C 72.35 167.04 58.84 167.64 54.95 176.96
  C 52.98 181.70 53.77 189.89 53.84 195.62
  A 3.25 3.25 0.0 0 0 56.94 198.82
  L 57.67 198.85
  A 2.40 2.39 -88.0 0 0 60.17 196.51
  Q 60.34 188.95 60.28 181.75
  Z" fill="#3c1cd6"></path>
<path d="M 71.33 177.96
  C 68.00 173.07 60.23 175.72 60.28 181.75
  Q 60.34 188.95 60.17 196.51
  A 2.40 2.39 -88.0 0 1 57.67 198.85
  L 56.94 198.82
  A 3.25 3.25 0.0 0 1 53.84 195.62
  C 53.77 189.89 52.98 181.70 54.95 176.96
  C 58.84 167.64 72.35 167.04 77.31 175.75
  Q 78.72 178.22 78.79 182.68
  Q 78.91 189.63 78.78 196.54
  A 2.39 2.39 0.0 0 1 76.31 198.88
  L 75.59 198.85
  Q 72.56 198.75 72.54 195.72
  C 72.50 191.65 73.55 181.22 71.33 177.96
  Z" fill="#ffffff"></path>
<path d="M 134.47 192.30
  C 126.12 194.27 127.08 207.78 136.12 207.12
  C 139.90 206.85 142.77 201.50 146.23 204.30
  Q 150.54 207.78 146.29 211.62
  C 137.17 219.85 124.34 215.40 120.30 204.55
  Q 118.66 200.17 120.00 195.85
  C 123.06 185.95 133.10 180.84 142.75 185.33
  C 146.03 186.86 150.62 191.14 146.87 194.87
  C 143.01 198.72 139.29 191.17 134.47 192.30
  Z
  M 139.43 191.83
  C 141.38 192.65 143.21 196.47 146.20 193.97
  C 148.64 191.93 146.50 189.19 144.47 187.81
  C 136.98 182.71 126.36 184.77 122.36 193.10
  C 117.17 203.95 125.72 215.79 137.61 214.38
  C 140.11 214.08 150.69 209.70 146.38 205.64
  C 143.44 202.88 141.43 206.51 139.32 207.61
  C 131.54 211.67 124.71 202.34 128.33 195.37
  Q 131.84 188.63 139.43 191.83
  Z" fill="#3c1cd6"></path>
<path d="M 139.43 191.83
  Q 131.84 188.63 128.33 195.37
  C 124.71 202.34 131.54 211.67 139.32 207.61
  C 141.43 206.51 143.44 202.88 146.38 205.64
  C 150.69 209.70 140.11 214.08 137.61 214.38
  C 125.72 215.79 117.17 203.95 122.36 193.10
  C 126.36 184.77 136.98 182.71 144.47 187.81
  C 146.50 189.19 148.64 191.93 146.20 193.97
  C 143.21 196.47 141.38 192.65 139.43 191.83
  Z" fill="#ffffff"></path>
<rect rx="1.49" height="3.14" width="22.26" transform="translate(99.93,192.72) rotate(18.2)" y="-1.57" x="-11.13" fill="#ffffff"></rect>
</svg>
