<svg viewBox="0.00 0.00 256.00 256.00" version="1.1" xmlns="http://www.w3.org/2000/svg">
<g stroke-linecap="butt" fill="none" stroke-width="2.00">
<path d="M 208.73 54.37
  A 2.48 2.48 0.0 0 0 212.28 54.38
  L 219.29 47.25
  A 2.48 2.48 0.0 0 0 219.27 43.76
  L 212.27 36.76
  A 2.48 2.48 0.0 0 0 208.77 36.76
  L 201.77 43.68
  A 2.48 2.48 0.0 0 0 201.74 47.17
  L 208.73 54.37" stroke="#b399ff"></path>
<path d="M 86.0775 107.1277
  A 30.49 30.08 90.7 0 0 116.5278 77.0075
  A 30.49 30.08 90.7 0 0 86.8225 46.1523
  A 30.49 30.08 90.7 0 0 56.3722 76.2725
  A 30.49 30.08 90.7 0 0 86.0775 107.1277" stroke="#83808e"></path>
<path d="M 209.64 78.56
  A 30.47 30.47 0.0 0 0 179.17 48.09
  A 30.47 30.47 0.0 0 0 148.70 78.56
  A 30.47 30.47 0.0 0 0 179.17 109.03
  A 30.47 30.47 0.0 0 0 209.64 78.56" stroke="#b399ff"></path>
<path d="M 55.71 213.24
  A 8.68 8.68 0.0 0 0 71.02 216.47
  L 132.24 136.72
  A 8.68 8.68 0.0 0 0 125.36 122.75
  L 44.66 122.75
  A 8.68 8.68 0.0 0 0 36.23 133.49
  L 55.71 213.24" stroke="#83808e"></path>
<path d="M 185.98 129.40
  A 8.68 8.68 0.0 0 0 170.69 126.16
  L 108.81 206.00
  A 8.68 8.68 0.0 0 0 115.67 220.00
  L 197.26 220.00
  A 8.68 8.68 0.0 0 0 205.68 209.24
  L 185.98 129.40" stroke="#b399ff"></path>
<path d="M 101.82 76.65
  A 15.37 15.37 0.0 0 0 86.45 61.28
  A 15.37 15.37 0.0 0 0 71.08 76.65
  A 15.37 15.37 0.0 0 0 86.45 92.02
  A 15.37 15.37 0.0 0 0 101.82 76.65" stroke="#83808e"></path>
<path d="M 194.68 78.55
  A 15.41 15.41 0.0 0 0 179.27 63.14
  A 15.41 15.41 0.0 0 0 163.86 78.55
  A 15.41 15.41 0.0 0 0 179.27 93.96
  A 15.41 15.41 0.0 0 0 194.68 78.55" stroke="#b399ff"></path>
<path d="M 66.88 196.47
  A 0.35 0.35 0.0 0 0 67.49 196.60
  L 112.25 138.31
  A 0.35 0.35 0.0 0 0 111.97 137.75
  L 52.97 137.75
  A 0.35 0.35 0.0 0 0 52.63 138.18
  L 66.88 196.47" stroke="#83808e"></path>
<path d="M 174.82 146.00
  A 0.34 0.34 0.0 0 0 174.22 145.88
  L 128.82 204.45
  A 0.34 0.34 0.0 0 0 129.08 205.00
  L 188.94 205.00
  A 0.34 0.34 0.0 0 0 189.27 204.58
  L 174.82 146.00" stroke="#b399ff"></path>
</g>
<path d="M 56.90 0.00
  L 198.49 0.00
  C 229.96 2.75 253.58 25.87 256.00 57.40
  L 256.00 198.49
  C 253.62 229.81 230.36 252.94 199.10 256.00
  L 57.51 256.00
  C 26.19 253.53 2.69 230.16 0.00 198.86
  L 0.00 57.51
  C 2.58 26.26 25.64 2.79 56.90 0.00
  Z
  M 208.73 54.37
  A 2.48 2.48 0.0 0 0 212.28 54.38
  L 219.29 47.25
  A 2.48 2.48 0.0 0 0 219.27 43.76
  L 212.27 36.76
  A 2.48 2.48 0.0 0 0 208.77 36.76
  L 201.77 43.68
  A 2.48 2.48 0.0 0 0 201.74 47.17
  L 208.73 54.37
  Z
  M 86.0775 107.1277
  A 30.49 30.08 90.7 0 0 116.5278 77.0075
  A 30.49 30.08 90.7 0 0 86.8225 46.1523
  A 30.49 30.08 90.7 0 0 56.3722 76.2725
  A 30.49 30.08 90.7 0 0 86.0775 107.1277
  Z
  M 209.64 78.56
  A 30.47 30.47 0.0 0 0 179.17 48.09
  A 30.47 30.47 0.0 0 0 148.70 78.56
  A 30.47 30.47 0.0 0 0 179.17 109.03
  A 30.47 30.47 0.0 0 0 209.64 78.56
  Z
  M 55.71 213.24
  A 8.68 8.68 0.0 0 0 71.02 216.47
  L 132.24 136.72
  A 8.68 8.68 0.0 0 0 125.36 122.75
  L 44.66 122.75
  A 8.68 8.68 0.0 0 0 36.23 133.49
  L 55.71 213.24
  Z
  M 185.98 129.40
  A 8.68 8.68 0.0 0 0 170.69 126.16
  L 108.81 206.00
  A 8.68 8.68 0.0 0 0 115.67 220.00
  L 197.26 220.00
  A 8.68 8.68 0.0 0 0 205.68 209.24
  L 185.98 129.40
  Z" fill="#ffffff"></path>
<path d="M 208.73 54.37
  L 201.74 47.17
  A 2.48 2.48 0.0 0 1 201.77 43.68
  L 208.77 36.76
  A 2.48 2.48 0.0 0 1 212.27 36.76
  L 219.27 43.76
  A 2.48 2.48 0.0 0 1 219.29 47.25
  L 212.28 54.38
  A 2.48 2.48 0.0 0 1 208.73 54.37
  Z" fill="#6633ff"></path>
<path d="M 86.0775 107.1277
  A 30.49 30.08 90.7 0 1 56.3722 76.2725
  A 30.49 30.08 90.7 0 1 86.8225 46.1523
  A 30.49 30.08 90.7 0 1 116.5278 77.0075
  A 30.49 30.08 90.7 0 1 86.0775 107.1277
  Z
  M 101.82 76.65
  A 15.37 15.37 0.0 0 0 86.45 61.28
  A 15.37 15.37 0.0 0 0 71.08 76.65
  A 15.37 15.37 0.0 0 0 86.45 92.02
  A 15.37 15.37 0.0 0 0 101.82 76.65
  Z" fill="#06001c"></path>
<path d="M 209.64 78.56
  A 30.47 30.47 0.0 0 1 179.17 109.03
  A 30.47 30.47 0.0 0 1 148.70 78.56
  A 30.47 30.47 0.0 0 1 179.17 48.09
  A 30.47 30.47 0.0 0 1 209.64 78.56
  Z
  M 194.68 78.55
  A 15.41 15.41 0.0 0 0 179.27 63.14
  A 15.41 15.41 0.0 0 0 163.86 78.55
  A 15.41 15.41 0.0 0 0 179.27 93.96
  A 15.41 15.41 0.0 0 0 194.68 78.55
  Z" fill="#6633ff"></path>
<circle r="15.37" cy="76.65" cx="86.45" fill="#ffffff"></circle>
<circle r="15.41" cy="78.55" cx="179.27" fill="#ffffff"></circle>
<path d="M 55.71 213.24
  L 36.23 133.49
  A 8.68 8.68 0.0 0 1 44.66 122.75
  L 125.36 122.75
  A 8.68 8.68 0.0 0 1 132.24 136.72
  L 71.02 216.47
  A 8.68 8.68 0.0 0 1 55.71 213.24
  Z
  M 66.88 196.47
  A 0.35 0.35 0.0 0 0 67.49 196.60
  L 112.25 138.31
  A 0.35 0.35 0.0 0 0 111.97 137.75
  L 52.97 137.75
  A 0.35 0.35 0.0 0 0 52.63 138.18
  L 66.88 196.47
  Z" fill="#06001c"></path>
<path d="M 185.98 129.40
  L 205.68 209.24
  A 8.68 8.68 0.0 0 1 197.26 220.00
  L 115.67 220.00
  A 8.68 8.68 0.0 0 1 108.81 206.00
  L 170.69 126.16
  A 8.68 8.68 0.0 0 1 185.98 129.40
  Z
  M 174.82 146.00
  A 0.34 0.34 0.0 0 0 174.22 145.88
  L 128.82 204.45
  A 0.34 0.34 0.0 0 0 129.08 205.00
  L 188.94 205.00
  A 0.34 0.34 0.0 0 0 189.27 204.58
  L 174.82 146.00
  Z" fill="#6633ff"></path>
<path d="M 66.88 196.47
  L 52.63 138.18
  A 0.35 0.35 0.0 0 1 52.97 137.75
  L 111.97 137.75
  A 0.35 0.35 0.0 0 1 112.25 138.31
  L 67.49 196.60
  A 0.35 0.35 0.0 0 1 66.88 196.47
  Z" fill="#ffffff"></path>
<path d="M 174.82 146.00
  L 189.27 204.58
  A 0.34 0.34 0.0 0 1 188.94 205.00
  L 129.08 205.00
  A 0.34 0.34 0.0 0 1 128.82 204.45
  L 174.22 145.88
  A 0.34 0.34 0.0 0 1 174.82 146.00
  Z" fill="#ffffff"></path>
</svg>
