<svg viewBox="0.00 0.00 512.00 512.00" version="1.1" xmlns="http://www.w3.org/2000/svg">
<g stroke-linecap="butt" fill="none" stroke-width="2.00">
<path d="M 165.67 260.59
  L 165.66 294.17
  Q 165.66 294.75 165.08 294.75
  L 99.25 294.75
  A 0.40 0.40 0.0 0 1 98.86 294.44
  C 93.43 270.03 57.40 272.99 56.64 298.22
  Q 56.36 307.59 62.98 314.03
  C 75.20 325.94 94.82 319.40 98.81 303.28
  Q 98.94 302.75 99.48 302.75
  L 165.04 302.75
  Q 165.68 302.75 165.67 303.39
  C 165.66 307.39 165.42 311.64 166.47 315.33
  Q 171.07 331.52 188.60 333.92
  Q 189.09 333.98 189.09 334.47
  Q 189.05 358.34 189.10 382.22
  C 189.11 389.79 188.74 396.16 181.76 399.33
  Q 178.48 400.82 169.04 400.78
  Q 162.01 400.75 154.96 400.75
  A 0.69 0.68 82.9 0 1 154.30 400.23
  C 151.34 388.88 141.54 381.71 129.97 383.50
  C 113.24 386.09 106.93 406.15 117.32 418.70
  Q 121.59 423.85 128.14 425.47
  C 140.29 428.46 151.04 421.12 154.33 409.11
  Q 154.44 408.73 154.83 408.74
  Q 163.40 408.79 172.03 408.73
  Q 178.89 408.69 181.88 407.79
  C 189.08 405.63 194.96 399.41 196.48 392.06
  Q 196.92 389.95 196.92 380.41
  Q 196.92 357.38 196.94 334.31
  Q 196.94 333.75 197.50 333.75
  L 230.50 333.75
  Q 231.00 333.75 231.00 334.25
  L 231.00 415.01
  Q 231.00 415.52 230.53 415.71
  Q 228.84 416.39 227.14 417.02
  C 212.05 422.54 208.99 441.61 220.61 452.42
  C 227.44 458.77 240.53 459.76 247.91 453.65
  C 262.36 441.70 257.40 420.20 239.27 415.60
  Q 238.80 415.48 238.80 415.00
  L 238.81 334.22
  Q 238.81 333.74 239.28 333.74
  L 272.35 333.75
  Q 272.95 333.75 272.95 334.35
  L 272.97 362.92
  Q 272.97 363.48 272.42 363.60
  Q 260.65 366.28 256.98 376.73
  C 251.13 393.36 265.77 409.67 282.86 404.87
  C 293.47 401.89 300.28 390.56 297.78 379.75
  Q 294.78 366.75 281.44 363.55
  Q 281.00 363.44 281.00 362.98
  L 281.00 334.24
  Q 281.00 333.73 281.51 333.73
  L 314.26 333.75
  Q 314.85 333.75 314.85 334.34
  Q 314.88 360.42 314.61 386.50
  C 314.47 399.69 324.67 409.10 337.75 408.76
  Q 342.99 408.62 356.85 408.81
  Q 357.35 408.81 357.48 409.29
  Q 361.15 422.64 374.77 425.70
  C 384.12 427.81 393.77 422.16 397.68 413.98
  C 403.34 402.17 397.09 387.64 384.72 384.16
  C 372.28 380.65 360.86 387.74 357.42 400.25
  Q 357.28 400.75 356.77 400.75
  Q 348.16 400.75 339.55 400.76
  C 332.74 400.76 327.42 399.80 324.43 393.69
  Q 322.93 390.61 322.92 383.08
  Q 322.88 358.72 322.93 334.39
  Q 322.94 333.88 323.44 333.81
  Q 339.61 331.65 344.92 317.14
  C 346.54 312.73 346.45 307.80 346.30 302.98
  Q 346.29 302.50 346.77 302.50
  L 412.48 302.50
  Q 412.93 302.50 413.05 302.93
  C 416.08 314.18 425.99 321.73 437.57 319.68
  C 445.52 318.27 452.23 312.54 454.55 304.70
  C 455.61 301.09 455.38 294.27 454.04 290.89
  Q 451.37 284.12 445.11 280.40
  C 432.34 272.80 416.59 279.67 413.14 294.26
  Q 413.02 294.75 412.52 294.75
  L 346.69 294.75
  A 0.37 0.37 0.0 0 1 346.32 294.38
  L 346.32 260.46
  A 0.47 0.46 -0.0 0 1 346.79 260.00
  L 360.46 260.00
  Q 360.90 260.00 361.02 260.42
  C 365.20 275.43 381.65 282.77 395.08 272.64
  C 408.59 262.46 404.85 240.71 388.66 235.56
  C 377.75 232.09 367.09 237.31 362.20 247.62
  C 361.66 248.76 361.36 250.19 360.95 251.49
  A 0.74 0.73 8.6 0 1 360.25 252.00
  L 346.78 251.99
  A 0.46 0.46 0.0 0 1 346.32 251.53
  L 346.32 217.46
  A 0.47 0.46 -0.0 0 1 346.79 217.00
  L 412.49 217.00
  A 0.63 0.62 -6.4 0 1 413.10 217.48
  C 418.18 238.95 446.84 240.20 454.29 220.05
  C 455.71 216.22 455.42 208.80 453.99 205.15
  C 450.30 195.73 439.85 190.19 430.15 192.12
  C 421.34 193.87 415.10 199.98 413.08 208.78
  Q 412.97 209.25 412.49 209.25
  L 346.77 209.25
  Q 346.31 209.25 346.31 208.79
  C 346.34 205.17 346.47 201.25 345.73 197.94
  C 343.20 186.68 335.09 179.47 323.45 178.19
  Q 322.90 178.13 322.90 177.58
  Q 322.90 153.93 322.93 130.28
  Q 322.94 122.84 323.16 121.76
  C 324.47 115.32 329.84 111.34 336.50 111.27
  Q 346.68 111.17 356.89 111.29
  Q 357.41 111.29 357.54 111.80
  C 360.75 124.72 374.35 132.20 386.62 127.01
  C 404.93 119.28 403.94 93.30 385.26 86.74
  Q 377.40 83.98 369.30 87.79
  C 362.92 90.80 359.37 95.78 357.48 102.51
  Q 357.33 103.03 356.79 103.02
  Q 348.04 102.94 339.31 103.02
  Q 331.84 103.09 328.38 104.41
  C 320.91 107.27 314.78 115.08 314.81 123.01
  Q 314.91 150.19 314.80 177.45
  Q 314.80 178.00 314.25 178.00
  L 281.50 178.00
  A 0.50 0.50 0.0 0 1 281.00 177.50
  L 281.00 149.05
  Q 281.00 148.64 281.39 148.54
  Q 293.28 145.38 296.96 134.74
  C 300.78 123.72 295.49 111.89 284.61 107.69
  C 272.32 102.94 258.99 110.40 256.07 123.09
  C 253.38 134.77 261.24 145.80 272.57 148.51
  A 0.49 0.48 6.8 0 1 272.95 148.98
  L 272.94 177.35
  A 0.65 0.65 0.0 0 1 272.29 178.00
  L 239.40 178.00
  Q 238.80 178.00 238.80 177.40
  L 238.80 96.73
  Q 238.80 96.23 239.30 96.11
  C 266.43 89.87 258.86 49.87 231.17 54.12
  C 220.48 55.76 212.25 66.73 213.53 77.26
  Q 215.35 92.21 230.59 96.21
  A 0.56 0.55 -82.6 0 1 231.00 96.75
  L 231.00 177.70
  A 0.30 0.29 -0.0 0 1 230.70 177.99
  L 197.27 178.00
  A 0.35 0.34 -90.0 0 1 196.93 177.65
  Q 196.94 154.96 196.93 132.53
  Q 196.93 120.81 195.34 116.43
  C 191.77 106.60 183.30 102.94 173.26 103.00
  Q 164.09 103.05 154.92 102.97
  Q 154.40 102.97 154.27 102.47
  C 151.24 91.09 141.59 84.29 130.03 86.01
  C 108.55 89.20 105.68 119.71 125.95 127.26
  C 137.32 131.49 148.75 125.77 153.43 114.67
  C 153.77 113.87 153.94 112.69 154.28 111.75
  Q 154.46 111.26 154.99 111.26
  Q 164.02 111.23 173.07 111.26
  C 179.75 111.28 184.72 112.53 187.62 118.47
  Q 189.05 121.40 189.06 127.76
  Q 189.10 152.76 189.07 177.78
  A 0.43 0.43 0.0 0 1 188.65 178.21
  C 177.42 178.45 168.22 187.52 166.01 198.11
  C 165.36 201.23 165.77 205.14 165.63 208.67
  Q 165.60 209.25 165.02 209.25
  L 99.51 209.25
  Q 99.04 209.25 98.92 208.79
  Q 95.66 196.95 85.10 193.11
  C 72.94 188.69 59.20 196.15 57.06 209.01
  C 52.39 237.03 91.83 244.87 98.87 217.48
  Q 98.99 217.00 99.49 217.00
  L 165.21 217.00
  Q 165.67 217.00 165.67 217.46
  L 165.67 251.62
  A 0.38 0.38 0.0 0 1 165.29 252.00
  L 151.75 252.00
  Q 151.16 252.00 151.01 251.43
  Q 147.78 239.93 137.55 236.00
  C 121.21 229.73 104.77 244.69 109.32 261.58
  C 112.50 273.40 124.78 279.95 136.38 276.29
  Q 147.46 272.80 151.00 260.52
  Q 151.15 260.00 151.69 260.00
  L 165.09 260.00
  Q 165.67 260.00 165.67 260.59" stroke="#aec8e7"></path>
<path d="M 238.63 75.68
  L 242.38 79.53
  Q 243.14 80.31 242.14 80.74
  L 235.64 83.60
  A 1.14 1.12 44.3 0 1 234.73 83.60
  L 228.19 80.77
  A 2.22 2.21 -78.2 0 1 226.86 78.72
  L 226.89 71.18
  Q 226.89 70.56 227.45 70.31
  L 234.74 67.05
  A 1.20 1.20 0.0 0 1 235.72 67.05
  L 242.86 70.27
  A 1.00 1.00 0.0 0 1 243.45 71.10
  L 243.54 72.35
  Q 243.58 72.87 244.10 72.87
  L 244.99 72.87
  A 0.44 0.43 2.9 0 0 245.43 72.48
  Q 245.61 71.08 245.32 69.72
  Q 245.20 69.12 244.64 68.87
  L 236.27 65.11
  A 2.61 2.58 44.7 0 0 234.16 65.11
  L 225.42 69.02
  Q 224.89 69.26 224.89 69.84
  L 224.90 80.75
  A 1.02 1.00 12.3 0 0 225.50 81.67
  Q 229.05 83.26 232.76 84.92
  C 236.37 86.53 241.16 83.30 244.45 81.88
  A 1.60 1.60 0.0 0 0 244.95 79.29
  L 238.52 72.85
  A 0.57 0.56 -45.4 0 0 237.72 72.86
  L 235.69 74.92
  Q 235.32 75.30 234.86 75.04
  Q 234.40 74.79 234.04 74.41
  Q 233.64 73.98 233.23 74.40
  L 229.56 78.12
  Q 229.24 78.44 229.53 78.80
  L 230.18 79.59
  A 0.48 0.48 0.0 0 0 230.90 79.62
  L 233.15 77.31
  Q 233.56 76.89 234.04 77.22
  L 234.86 77.78
  Q 235.37 78.13 235.80 77.69
  L 237.75 75.69
  Q 238.19 75.23 238.63 75.68" stroke="#aec8e7"></path>
<path d="M 131.96 108.94
  L 132.65 109.59
  Q 133.12 110.03 133.54 109.56
  L 135.47 107.42
  A 0.66 0.65 -46.2 0 1 136.42 107.39
  L 140.27 111.24
  Q 140.99 111.96 140.06 112.38
  L 133.95 115.14
  A 2.24 2.23 -45.2 0 1 132.11 115.15
  L 125.51 112.19
  A 1.30 1.28 -78.1 0 1 124.75 111.01
  L 124.75 103.06
  A 1.31 1.29 78.2 0 1 125.52 101.87
  L 132.18 98.87
  A 2.21 2.19 45.9 0 1 134.05 98.91
  Q 136.96 100.37 140.27 101.73
  Q 141.60 102.28 141.23 103.97
  A 0.60 0.60 0.0 0 0 141.80 104.70
  L 142.27 104.71
  Q 143.26 104.72 143.25 103.73
  L 143.24 101.54
  A 0.97 0.96 12.4 0 0 142.67 100.66
  L 134.53 97.02
  A 3.72 3.72 0.0 0 0 131.51 97.02
  L 123.06 100.77
  A 0.53 0.51 -12.5 0 0 122.75 101.24
  L 122.74 112.57
  A 0.84 0.84 0.0 0 0 123.24 113.34
  L 131.40 117.01
  A 3.95 3.94 44.7 0 0 134.63 117.00
  L 142.50 113.45
  A 1.36 1.36 0.0 0 0 142.92 111.26
  L 136.79 104.90
  A 1.20 1.19 36.1 0 0 134.86 105.20
  Q 133.74 107.48 131.79 106.21
  Q 131.26 105.86 130.82 106.32
  L 127.38 109.85
  A 0.68 0.67 36.6 0 0 127.54 110.91
  L 128.01 111.18
  Q 128.54 111.47 128.98 111.04
  L 131.08 108.95
  Q 131.52 108.51 131.96 108.94" stroke="#aec8e7"></path>
<path d="M 377.86 108.99
  L 378.10 109.50
  Q 378.42 110.18 378.96 109.66
  L 381.12 107.59
  Q 381.77 106.96 382.41 107.61
  L 385.99 111.24
  Q 386.76 112.01 385.76 112.45
  L 379.79 115.11
  A 2.47 2.45 44.7 0 1 377.76 115.11
  L 371.22 112.13
  A 1.31 1.30 12.3 0 1 370.45 110.94
  L 370.44 103.11
  A 1.32 1.31 77.8 0 1 371.21 101.91
  L 377.79 98.92
  A 2.44 2.40 45.4 0 1 379.87 98.95
  C 381.91 99.94 387.44 101.36 387.22 104.17
  Q 387.17 104.77 387.77 104.75
  L 388.30 104.73
  Q 389.05 104.70 389.05 103.95
  L 389.07 101.51
  Q 389.07 100.91 388.53 100.67
  L 379.91 96.87
  A 2.79 2.79 0.0 0 0 377.65 96.87
  L 369.26 100.56
  A 1.31 1.29 78.2 0 0 368.49 101.75
  L 368.49 112.26
  A 1.32 1.31 -77.8 0 0 369.26 113.46
  L 377.18 117.01
  A 3.94 3.94 0.0 0 0 380.42 117.01
  L 388.47 113.38
  A 1.27 1.26 -34.4 0 0 388.86 111.34
  L 382.22 104.62
  A 0.70 0.69 44.7 0 0 381.23 104.62
  L 379.17 106.70
  Q 378.63 107.25 378.16 106.64
  Q 377.89 106.29 377.50 106.08
  Q 377.04 105.84 376.68 106.22
  L 373.11 109.97
  A 0.57 0.56 35.3 0 0 373.27 110.87
  L 373.97 111.22
  A 0.70 0.68 -54.2 0 0 374.78 111.08
  L 376.93 108.84
  Q 377.51 108.24 377.86 108.99" stroke="#aec8e7"></path>
<path d="M 280.81 128.17
  L 284.59 131.93
  Q 285.21 132.55 284.42 132.91
  L 277.70 135.95
  Q 277.23 136.17 276.76 135.95
  L 269.95 132.85
  A 1.80 1.77 12.4 0 1 268.90 131.23
  L 268.90 124.07
  A 1.86 1.85 78.1 0 1 270.00 122.37
  L 276.86 119.31
  Q 277.33 119.10 277.79 119.32
  Q 281.00 120.84 284.26 122.21
  Q 286.03 122.96 285.66 124.67
  A 0.43 0.43 0.0 0 0 286.04 125.19
  L 286.84 125.24
  A 0.58 0.58 0.0 0 0 287.44 124.81
  C 288.35 121.27 286.47 121.15 284.17 120.03
  Q 280.99 118.49 277.61 117.16
  Q 277.14 116.98 276.68 117.19
  L 267.50 121.33
  Q 266.97 121.57 266.97 122.15
  L 266.96 133.07
  A 0.93 0.92 12.5 0 0 267.50 133.91
  L 276.21 137.87
  A 2.53 2.53 0.0 0 0 278.27 137.87
  L 286.44 134.22
  A 1.77 1.67 78.8 0 0 287.44 132.63
  Q 287.44 132.30 286.86 131.62
  Q 284.00 128.33 280.69 125.26
  A 0.66 0.65 48.0 0 0 279.86 125.21
  Q 278.64 126.11 277.79 127.36
  Q 277.51 127.77 277.12 127.46
  L 276.18 126.71
  A 0.73 0.71 -48.7 0 0 275.21 126.78
  L 271.70 130.43
  A 0.65 0.64 -43.3 0 0 271.67 131.29
  L 271.96 131.63
  A 0.86 0.86 0.0 0 0 273.26 131.66
  L 275.16 129.61
  Q 275.55 129.19 276.01 129.52
  L 276.80 130.09
  Q 277.26 130.43 277.68 130.03
  L 279.66 128.16
  Q 280.24 127.61 280.81 128.17" stroke="#aec8e7"></path>
<path d="M 75.89 214.32
  L 76.63 214.88
  A 0.73 0.73 0.0 0 0 77.58 214.82
  L 79.58 212.86
  Q 80.10 212.35 80.60 212.87
  L 84.42 216.88
  A 0.57 0.57 0.0 0 1 84.24 217.79
  L 77.53 220.80
  Q 77.07 221.00 76.62 220.80
  L 70.05 217.88
  A 2.10 2.10 0.0 0 1 68.81 215.95
  L 68.86 208.25
  Q 68.86 207.64 69.42 207.39
  L 76.57 204.20
  Q 77.11 203.96 77.64 204.20
  L 84.67 207.37
  Q 85.26 207.64 85.30 208.29
  L 85.36 209.33
  A 0.69 0.69 0.0 0 0 86.08 209.98
  L 86.56 209.96
  Q 87.30 209.94 87.29 209.19
  L 87.28 206.93
  A 0.92 0.92 0.0 0 0 86.74 206.11
  L 77.57 202.01
  A 1.19 1.16 44.3 0 0 76.60 202.01
  L 67.29 206.16
  A 0.87 0.87 0.0 0 0 66.78 206.95
  L 66.77 217.74
  A 1.20 1.18 -77.6 0 0 67.45 218.82
  Q 71.19 220.56 74.94 222.38
  C 77.84 223.78 83.41 220.32 86.21 219.08
  A 1.74 1.74 0.0 0 0 86.73 216.25
  L 80.40 209.96
  Q 79.98 209.54 79.58 209.97
  L 77.56 212.11
  Q 77.17 212.52 76.71 212.19
  Q 76.37 211.96 76.12 211.62
  Q 75.65 211.01 75.11 211.55
  L 71.42 215.23
  Q 71.10 215.56 71.39 215.91
  L 72.06 216.70
  Q 72.38 217.07 72.73 216.72
  L 75.08 214.37
  Q 75.46 213.98 75.89 214.32" stroke="#aec8e7"></path>
<path d="M 437.79 212.95
  L 441.44 216.81
  Q 442.04 217.45 441.25 217.81
  L 434.64 220.80
  A 1.11 1.10 44.0 0 1 433.73 220.81
  L 426.89 217.76
  A 1.74 1.74 0.0 0 1 425.85 216.15
  L 425.87 208.30
  Q 425.87 207.69 426.43 207.44
  L 433.69 204.20
  Q 434.22 203.96 434.75 204.20
  L 441.88 207.42
  Q 442.46 207.69 442.48 208.32
  L 442.51 209.35
  Q 442.53 209.92 443.10 209.95
  L 443.76 209.98
  Q 444.53 210.02 444.50 209.24
  L 444.40 206.95
  A 1.00 0.99 -79.3 0 0 443.82 206.09
  L 434.71 202.02
  A 1.23 1.20 44.3 0 0 433.72 202.02
  L 424.44 206.13
  Q 423.87 206.39 423.87 207.01
  L 423.88 217.97
  A 0.95 0.94 12.1 0 0 424.44 218.83
  L 433.66 222.89
  Q 434.20 223.13 434.74 222.89
  L 443.46 219.04
  A 1.64 1.64 0.0 0 0 443.95 216.38
  L 437.55 210.01
  Q 437.08 209.54 436.62 210.03
  L 434.62 212.15
  Q 434.22 212.57 433.79 212.19
  L 433.10 211.56
  Q 432.66 211.17 432.25 211.58
  L 428.64 215.16
  Q 428.27 215.54 428.57 215.98
  L 429.09 216.74
  Q 429.41 217.21 429.82 216.80
  L 432.10 214.48
  Q 432.52 214.06 433.02 214.39
  L 433.79 214.90
  A 0.76 0.76 0.0 0 0 434.75 214.81
  L 436.66 212.93
  Q 437.23 212.36 437.79 212.95" stroke="#aec8e7"></path>
<path d="M 289.26 224.25
  L 305.69 224.25
  A 3.91 3.91 0.0 0 0 309.60 220.39
  L 309.62 219.31
  A 3.01 3.01 0.0 0 0 306.61 216.26
  L 264.09 216.25
  Q 259.91 216.24 260.21 220.41
  L 260.26 221.15
  A 3.32 3.32 0.0 0 0 263.57 224.23
  L 280.50 224.26
  Q 281.00 224.26 281.00 224.75
  L 281.00 276.50
  Q 281.00 277.00 280.50 277.00
  L 263.38 277.01
  A 3.11 3.11 0.0 0 0 260.28 279.87
  L 260.21 280.83
  Q 259.90 284.75 263.83 284.75
  L 306.63 284.74
  A 3.11 3.10 1.1 0 0 309.74 281.75
  L 309.77 280.96
  A 3.82 3.81 -89.0 0 0 305.96 277.00
  L 289.01 277.00
  Q 288.78 277.00 288.78 276.76
  L 288.78 224.74
  Q 288.78 224.25 289.26 224.25" stroke="#aec8e7"></path>
<path d="M 231.65 263.73
  L 239.37 283.00
  A 2.86 2.86 0.0 0 0 243.26 284.52
  L 244.23 284.05
  Q 247.70 282.39 246.28 278.81
  Q 234.47 248.93 222.67 219.72
  C 221.33 216.40 216.94 214.87 215.39 218.62
  Q 209.38 233.16 190.90 279.91
  A 3.13 3.13 0.0 0 0 192.59 283.94
  L 193.38 284.28
  A 4.00 3.99 22.2 0 0 198.64 282.08
  L 205.94 263.77
  Q 206.15 263.25 206.71 263.25
  L 230.95 263.25
  Q 231.46 263.25 231.65 263.73" stroke="#aec8e7"></path>
<path d="M 127.72 258.12
  L 128.22 258.79
  A 0.56 0.56 0.0 0 0 129.07 258.84
  L 131.18 256.61
  Q 131.57 256.19 131.98 256.59
  L 136.15 260.69
  A 0.56 0.56 0.0 0 1 135.98 261.60
  L 129.63 264.38
  A 2.31 2.30 -44.5 0 1 127.74 264.37
  L 121.20 261.42
  A 1.60 1.59 -78.1 0 1 120.25 259.96
  L 120.25 252.46
  A 1.35 1.34 -12.4 0 1 121.04 251.24
  L 128.05 248.03
  Q 128.69 247.73 129.34 248.03
  L 136.32 251.20
  A 1.16 1.15 7.2 0 1 136.97 252.03
  L 137.28 253.56
  Q 137.36 254.00 137.81 253.98
  L 138.30 253.96
  Q 139.02 253.93 139.02 253.20
  L 139.01 250.83
  Q 139.01 250.18 138.42 249.91
  L 129.98 246.15
  A 3.14 3.11 44.7 0 0 127.47 246.15
  L 119.56 249.64
  A 2.08 2.06 78.3 0 0 118.32 251.54
  L 118.32 261.03
  A 2.03 2.01 -78.2 0 0 119.52 262.88
  C 121.89 263.93 127.79 267.28 130.26 266.22
  Q 134.17 264.55 138.28 262.71
  A 1.38 1.37 55.9 0 0 138.70 260.49
  L 132.47 254.11
  Q 131.70 253.33 130.95 254.13
  L 129.26 255.92
  A 0.66 0.66 0.0 0 1 128.34 255.96
  L 127.68 255.37
  Q 127.17 254.93 126.70 255.41
  L 123.05 259.14
  Q 122.60 259.60 123.15 259.93
  L 123.88 260.38
  Q 124.38 260.68 124.78 260.26
  L 126.86 258.07
  A 0.56 0.56 0.0 0 1 127.72 258.12" stroke="#aec8e7"></path>
<path d="M 385.90 256.55
  L 389.97 260.66
  A 0.58 0.58 0.0 0 1 389.80 261.60
  L 383.43 264.43
  A 2.13 2.13 0.0 0 1 381.71 264.43
  L 375.26 261.57
  A 2.11 2.09 12.3 0 1 374.02 259.66
  L 374.02 252.63
  A 1.55 1.53 77.8 0 1 374.91 251.23
  L 381.83 248.05
  Q 382.30 247.83 382.80 248.01
  C 385.93 249.11 390.92 250.70 391.21 253.41
  Q 391.27 253.92 391.77 253.99
  Q 392.62 254.12 392.87 253.24
  Q 393.24 251.87 392.82 250.57
  A 1.16 1.16 0.0 0 0 392.18 249.86
  L 383.84 246.15
  A 3.15 3.15 0.0 0 0 381.30 246.15
  L 373.11 249.77
  A 1.80 1.78 -11.8 0 0 372.03 251.41
  L 372.04 261.23
  A 1.60 1.60 0.0 0 0 372.96 262.68
  Q 376.68 264.42 380.51 265.99
  C 383.82 267.35 388.94 264.14 391.97 262.78
  A 1.52 1.52 0.0 0 0 392.43 260.32
  L 385.95 253.81
  Q 385.53 253.38 385.11 253.81
  L 383.33 255.68
  A 1.05 1.04 -48.5 0 1 381.94 255.77
  L 381.44 255.38
  Q 380.94 254.98 380.50 255.43
  L 376.88 259.13
  Q 376.49 259.53 376.92 259.90
  Q 377.34 260.27 377.88 260.48
  A 0.62 0.61 -57.0 0 0 378.55 260.33
  L 380.66 258.12
  A 0.57 0.56 -46.0 0 1 381.47 258.10
  L 382.18 258.80
  A 0.56 0.56 0.0 0 0 382.98 258.78
  L 385.04 256.56
  Q 385.47 256.11 385.90 256.55" stroke="#aec8e7"></path>
<path d="M 75.86 301.38
  L 76.66 302.07
  A 0.62 0.61 42.5 0 0 77.50 302.04
  L 79.33 300.16
  Q 80.05 299.42 80.76 300.17
  L 84.21 303.81
  Q 84.91 304.55 83.99 304.97
  L 77.57 307.91
  Q 77.11 308.12 76.64 307.91
  L 70.17 305.02
  Q 68.82 304.41 68.82 302.92
  L 68.82 295.96
  A 1.85 1.83 78.3 0 1 69.91 294.29
  L 76.60 291.34
  Q 77.10 291.11 77.61 291.34
  Q 80.83 292.77 84.05 294.24
  C 85.14 294.73 85.56 295.49 85.34 296.65
  Q 85.24 297.20 85.80 297.19
  L 86.82 297.18
  A 0.50 0.49 -1.2 0 0 87.31 296.68
  L 87.26 294.02
  Q 87.26 293.49 86.77 293.27
  L 77.72 289.17
  A 1.55 1.55 0.0 0 0 76.44 289.17
  L 67.24 293.33
  Q 66.78 293.54 66.78 294.04
  L 66.77 304.88
  A 1.17 1.16 -77.8 0 0 67.46 305.96
  L 76.54 310.04
  A 1.28 1.25 -44.4 0 0 77.59 310.04
  L 86.49 306.06
  A 1.52 1.51 -34.5 0 0 86.95 303.61
  L 80.54 297.17
  A 0.74 0.74 0.0 0 0 79.46 297.20
  L 77.52 299.37
  A 0.53 0.53 0.0 0 1 76.75 299.39
  L 76.05 298.67
  Q 75.60 298.22 75.15 298.67
  L 71.54 302.29
  Q 71.08 302.75 71.53 303.23
  L 71.86 303.59
  Q 72.45 304.21 73.04 303.60
  L 75.16 301.41
  Q 75.50 301.06 75.86 301.38" stroke="#aec8e7"></path>
<path d="M 432.95 301.44
  L 433.69 302.02
  Q 434.20 302.42 434.65 301.97
  L 436.51 300.12
  Q 437.14 299.50 437.76 300.13
  L 441.41 303.83
  Q 442.09 304.52 441.21 304.92
  L 434.54 307.97
  Q 434.19 308.13 433.85 307.97
  L 427.09 304.93
  Q 425.83 304.37 425.84 302.99
  L 425.86 295.82
  A 1.56 1.56 0.0 0 1 426.79 294.39
  L 433.83 291.28
  Q 434.29 291.08 434.75 291.30
  Q 438.75 293.27 440.40 293.87
  Q 442.83 294.76 442.51 296.57
  A 0.53 0.53 0.0 0 0 443.01 297.19
  L 443.91 297.21
  Q 444.53 297.22 444.50 296.59
  L 444.39 294.07
  Q 444.36 293.49 443.83 293.25
  L 434.74 289.13
  Q 434.21 288.89 433.69 289.13
  L 424.30 293.34
  Q 423.87 293.54 423.87 294.01
  L 423.86 305.05
  A 0.91 0.91 0.0 0 0 424.40 305.88
  L 433.17 309.83
  A 2.44 2.44 0.0 0 0 435.19 309.83
  L 443.09 306.28
  Q 445.58 305.16 443.65 303.23
  L 437.51 297.10
  A 0.55 0.55 0.0 0 0 436.72 297.11
  L 434.68 299.27
  Q 434.27 299.70 433.82 299.31
  L 433.30 298.84
  A 0.95 0.94 -47.0 0 0 432.00 298.89
  L 428.72 302.25
  Q 428.21 302.78 428.68 303.34
  L 428.92 303.61
  Q 429.53 304.34 430.18 303.64
  L 432.17 301.50
  Q 432.53 301.11 432.95 301.44" stroke="#aec8e7"></path>
<path d="M 325.11 325.09
  Q 324.81 325.10 324.61 325.31
  Q 324.18 325.76 324.80 325.71
  Q 325.51 325.66 326.22 325.85
  A 0.45 0.44 0.1 0 0 326.77 325.31
  Q 326.48 324.23 325.84 323.31
  Q 325.69 323.10 325.51 323.28
  L 325.26 323.53
  Q 325.10 323.70 325.24 323.88
  Q 325.55 324.29 325.50 324.74
  Q 325.47 325.09 325.11 325.09" stroke="#aec8e7"></path>
<path d="M 328.27 323.95
  L 328.18 325.23
  Q 328.13 325.97 328.71 325.51
  Q 329.43 324.94 329.76 324.08
  A 0.62 0.62 0.0 0 0 329.59 323.41
  Q 329.22 323.08 328.75 323.28
  Q 328.30 323.47 328.27 323.95" stroke="#aec8e7"></path>
<path d="M 332.74 325.16
  Q 332.61 325.19 332.47 325.22
  Q 331.82 325.34 332.39 325.69
  Q 333.40 326.30 333.76 325.11
  A 1.31 1.31 0.0 0 0 331.86 323.58
  Q 330.91 324.11 330.80 325.53
  A 0.17 0.17 0.0 0 0 331.00 325.71
  L 331.51 325.60
  Q 332.02 325.50 331.84 325.01
  Q 331.71 324.68 331.73 324.29
  A 0.56 0.56 0.0 0 1 332.48 323.79
  Q 333.13 324.03 333.16 324.60
  Q 333.18 325.05 332.74 325.16" stroke="#aec8e7"></path>
<path d="M 280.94 385.78
  L 284.60 389.65
  A 0.60 0.60 0.0 0 1 284.41 390.61
  L 278.20 393.38
  A 2.22 2.21 44.5 0 1 276.39 393.39
  L 270.08 390.64
  A 1.96 1.96 0.0 0 1 268.90 388.84
  L 268.91 381.25
  A 1.08 1.06 78.2 0 1 269.54 380.27
  L 276.64 377.04
  Q 277.20 376.78 277.77 377.02
  Q 281.14 378.39 284.40 380.00
  C 285.38 380.48 285.74 381.13 285.73 382.18
  A 0.60 0.60 0.0 0 0 286.25 382.79
  L 286.78 382.86
  Q 287.36 382.94 287.47 382.37
  Q 287.77 380.90 287.32 379.52
  Q 287.14 378.96 286.60 378.72
  L 278.54 375.14
  A 3.13 3.12 -45.1 0 0 276.00 375.15
  L 267.48 378.96
  Q 266.96 379.19 266.96 379.76
  L 266.96 390.73
  A 0.97 0.96 12.4 0 0 267.53 391.61
  Q 271.03 393.20 274.71 394.92
  C 278.19 396.54 283.30 393.28 286.48 391.87
  A 1.67 1.67 0.0 0 0 286.98 389.16
  L 280.66 382.83
  Q 280.24 382.41 279.82 382.83
  L 277.79 384.85
  A 0.78 0.77 41.5 0 1 276.75 384.91
  L 276.06 384.34
  A 0.61 0.61 0.0 0 0 275.24 384.39
  L 271.63 388.11
  Q 271.28 388.48 271.63 388.85
  L 272.27 389.53
  Q 272.66 389.95 273.06 389.53
  L 275.27 387.22
  Q 275.67 386.80 276.14 387.15
  L 277.01 387.81
  Q 277.42 388.12 277.78 387.76
  L 279.76 385.77
  Q 280.36 385.17 280.94 385.78" stroke="#aec8e7"></path>
<path d="M 140.36 411.02
  C 138.03 412.18 134.11 414.76 131.51 413.70
  Q 128.23 412.37 125.30 410.86
  A 1.01 1.01 0.0 0 1 124.75 409.96
  L 124.75 402.04
  A 1.51 1.50 -12.2 0 1 125.65 400.65
  L 132.43 397.64
  A 1.53 1.53 0.0 0 1 133.72 397.66
  Q 136.47 398.97 139.49 400.22
  Q 141.54 401.07 141.28 402.93
  Q 141.19 403.54 141.81 403.51
  L 142.65 403.48
  Q 143.26 403.46 143.25 402.85
  L 143.24 400.25
  A 0.85 0.84 11.5 0 0 142.73 399.49
  L 133.52 395.51
  A 1.24 1.24 0.0 0 0 132.50 395.51
  L 123.35 399.46
  A 1.01 1.00 78.4 0 0 122.75 400.38
  L 122.75 411.34
  Q 122.75 411.99 123.34 412.26
  L 130.95 415.66
  A 5.01 5.01 0.0 0 0 135.07 415.66
  L 142.38 412.37
  A 1.51 1.51 0.0 0 0 142.84 409.93
  L 137.00 403.98
  Q 135.97 402.93 134.98 404.01
  L 133.51 405.62
  Q 133.14 406.02 132.72 405.68
  L 131.80 404.94
  A 0.59 0.58 -47.6 0 0 131.01 404.98
  L 127.30 408.78
  A 0.59 0.58 33.9 0 0 127.49 409.72
  L 127.83 409.86
  Q 128.72 410.25 129.39 409.53
  L 131.14 407.64
  Q 131.50 407.25 131.86 407.64
  L 132.56 408.38
  Q 133.07 408.93 133.55 408.36
  L 135.48 406.13
  A 0.56 0.56 0.0 0 1 136.30 406.10
  L 140.47 410.31
  Q 140.91 410.75 140.36 411.02" stroke="#aec8e7"></path>
<path d="M 386.38 410.98
  L 379.34 414.17
  Q 378.79 414.42 378.23 414.17
  L 371.05 410.89
  A 1.03 1.01 -77.9 0 1 370.46 409.96
  L 370.44 401.73
  A 0.90 0.90 0.0 0 1 370.97 400.91
  L 378.22 397.57
  Q 378.67 397.36 379.12 397.56
  C 381.45 398.56 387.20 400.10 387.26 403.00
  Q 387.27 403.55 387.82 403.54
  L 388.15 403.53
  Q 388.74 403.52 388.95 402.96
  Q 390.02 400.01 387.73 399.09
  Q 384.03 397.60 379.97 395.76
  A 2.85 2.82 -44.2 0 0 377.69 395.74
  L 369.47 399.31
  A 1.62 1.62 0.0 0 0 368.48 400.80
  L 368.49 411.21
  A 1.18 1.18 0.0 0 0 369.18 412.27
  C 372.24 413.65 377.69 417.08 380.91 415.63
  Q 384.71 413.92 388.45 412.27
  A 1.33 1.33 0.0 0 0 388.85 410.11
  L 382.12 403.42
  A 0.61 0.60 -44.7 0 0 381.27 403.42
  L 379.00 405.67
  Q 378.60 406.07 378.22 405.64
  L 377.70 405.05
  Q 377.25 404.54 376.77 405.03
  L 373.13 408.76
  Q 372.51 409.39 373.33 409.74
  L 373.75 409.93
  A 1.11 1.09 -55.8 0 0 374.96 409.69
  L 376.93 407.69
  Q 377.36 407.25 377.80 407.69
  Q 378.08 407.96 378.22 408.33
  Q 378.50 409.06 379.05 408.51
  L 381.30 406.27
  A 0.68 0.68 0.0 0 1 382.27 406.28
  L 386.46 410.55
  A 0.27 0.27 0.0 0 1 386.38 410.98" stroke="#aec8e7"></path>
<path d="M 242.22 440.97
  L 235.56 444.03
  Q 235.19 444.20 234.82 444.03
  L 227.93 440.90
  A 1.80 1.80 0.0 0 1 226.87 439.26
  L 226.87 432.33
  A 2.24 2.23 78.0 0 1 228.19 430.29
  L 234.85 427.31
  Q 235.30 427.11 235.74 427.34
  Q 238.75 428.86 241.86 430.17
  Q 243.81 431.00 243.50 432.32
  Q 243.31 433.15 244.15 433.28
  L 244.44 433.32
  Q 245.29 433.45 245.46 432.61
  Q 246.03 429.77 243.94 428.84
  Q 239.82 427.00 235.61 425.21
  Q 235.13 425.01 234.65 425.22
  L 225.45 429.34
  Q 224.89 429.59 224.89 430.20
  L 224.88 440.97
  A 1.13 1.12 -77.7 0 0 225.53 441.99
  L 233.69 445.71
  A 3.59 3.59 0.0 0 0 236.65 445.71
  L 244.65 442.08
  A 1.44 1.44 0.0 0 0 245.08 439.76
  L 238.63 433.22
  Q 238.11 432.70 237.62 433.24
  L 235.67 435.39
  Q 235.30 435.80 234.89 435.43
  L 234.07 434.67
  Q 233.65 434.29 233.25 434.70
  L 229.66 438.43
  A 0.71 0.71 0.0 0 0 229.63 439.38
  L 229.86 439.66
  Q 230.52 440.44 231.21 439.69
  L 233.14 437.60
  Q 233.52 437.18 233.97 437.53
  L 234.81 438.17
  Q 235.24 438.50 235.60 438.11
  L 237.49 436.16
  Q 238.09 435.54 238.70 436.15
  L 242.41 439.90
  Q 243.07 440.57 242.22 440.97" stroke="#aec8e7"></path>
<path d="M 209.38 254.80
  A 0.34 0.34 0.0 0 0 209.70 255.27
  L 227.87 255.24
  A 0.34 0.34 0.0 0 0 228.19 254.77
  L 219.06 232.06
  A 0.34 0.34 0.0 0 0 218.43 232.06
  L 209.38 254.80" stroke="#aec8e7"></path>
</g>
<path d="M 20.89 0.00
  L 490.99 0.00
  Q 509.55 3.92 512.00 22.61
  L 512.00 489.50
  C 510.75 501.37 501.87 510.81 489.87 512.00
  L 22.00 512.00
  Q 3.05 508.94 0.00 490.13
  L 0.00 20.74
  Q 3.44 3.76 20.89 0.00
  Z
  M 165.67 260.59
  L 165.66 294.17
  Q 165.66 294.75 165.08 294.75
  L 99.25 294.75
  A 0.40 0.40 0.0 0 1 98.86 294.44
  C 93.43 270.03 57.40 272.99 56.64 298.22
  Q 56.36 307.59 62.98 314.03
  C 75.20 325.94 94.82 319.40 98.81 303.28
  Q 98.94 302.75 99.48 302.75
  L 165.04 302.75
  Q 165.68 302.75 165.67 303.39
  C 165.66 307.39 165.42 311.64 166.47 315.33
  Q 171.07 331.52 188.60 333.92
  Q 189.09 333.98 189.09 334.47
  Q 189.05 358.34 189.10 382.22
  C 189.11 389.79 188.74 396.16 181.76 399.33
  Q 178.48 400.82 169.04 400.78
  Q 162.01 400.75 154.96 400.75
  A 0.69 0.68 82.9 0 1 154.30 400.23
  C 151.34 388.88 141.54 381.71 129.97 383.50
  C 113.24 386.09 106.93 406.15 117.32 418.70
  Q 121.59 423.85 128.14 425.47
  C 140.29 428.46 151.04 421.12 154.33 409.11
  Q 154.44 408.73 154.83 408.74
  Q 163.40 408.79 172.03 408.73
  Q 178.89 408.69 181.88 407.79
  C 189.08 405.63 194.96 399.41 196.48 392.06
  Q 196.92 389.95 196.92 380.41
  Q 196.92 357.38 196.94 334.31
  Q 196.94 333.75 197.50 333.75
  L 230.50 333.75
  Q 231.00 333.75 231.00 334.25
  L 231.00 415.01
  Q 231.00 415.52 230.53 415.71
  Q 228.84 416.39 227.14 417.02
  C 212.05 422.54 208.99 441.61 220.61 452.42
  C 227.44 458.77 240.53 459.76 247.91 453.65
  C 262.36 441.70 257.40 420.20 239.27 415.60
  Q 238.80 415.48 238.80 415.00
  L 238.81 334.22
  Q 238.81 333.74 239.28 333.74
  L 272.35 333.75
  Q 272.95 333.75 272.95 334.35
  L 272.97 362.92
  Q 272.97 363.48 272.42 363.60
  Q 260.65 366.28 256.98 376.73
  C 251.13 393.36 265.77 409.67 282.86 404.87
  C 293.47 401.89 300.28 390.56 297.78 379.75
  Q 294.78 366.75 281.44 363.55
  Q 281.00 363.44 281.00 362.98
  L 281.00 334.24
  Q 281.00 333.73 281.51 333.73
  L 314.26 333.75
  Q 314.85 333.75 314.85 334.34
  Q 314.88 360.42 314.61 386.50
  C 314.47 399.69 324.67 409.10 337.75 408.76
  Q 342.99 408.62 356.85 408.81
  Q 357.35 408.81 357.48 409.29
  Q 361.15 422.64 374.77 425.70
  C 384.12 427.81 393.77 422.16 397.68 413.98
  C 403.34 402.17 397.09 387.64 384.72 384.16
  C 372.28 380.65 360.86 387.74 357.42 400.25
  Q 357.28 400.75 356.77 400.75
  Q 348.16 400.75 339.55 400.76
  C 332.74 400.76 327.42 399.80 324.43 393.69
  Q 322.93 390.61 322.92 383.08
  Q 322.88 358.72 322.93 334.39
  Q 322.94 333.88 323.44 333.81
  Q 339.61 331.65 344.92 317.14
  C 346.54 312.73 346.45 307.80 346.30 302.98
  Q 346.29 302.50 346.77 302.50
  L 412.48 302.50
  Q 412.93 302.50 413.05 302.93
  C 416.08 314.18 425.99 321.73 437.57 319.68
  C 445.52 318.27 452.23 312.54 454.55 304.70
  C 455.61 301.09 455.38 294.27 454.04 290.89
  Q 451.37 284.12 445.11 280.40
  C 432.34 272.80 416.59 279.67 413.14 294.26
  Q 413.02 294.75 412.52 294.75
  L 346.69 294.75
  A 0.37 0.37 0.0 0 1 346.32 294.38
  L 346.32 260.46
  A 0.47 0.46 -0.0 0 1 346.79 260.00
  L 360.46 260.00
  Q 360.90 260.00 361.02 260.42
  C 365.20 275.43 381.65 282.77 395.08 272.64
  C 408.59 262.46 404.85 240.71 388.66 235.56
  C 377.75 232.09 367.09 237.31 362.20 247.62
  C 361.66 248.76 361.36 250.19 360.95 251.49
  A 0.74 0.73 8.6 0 1 360.25 252.00
  L 346.78 251.99
  A 0.46 0.46 0.0 0 1 346.32 251.53
  L 346.32 217.46
  A 0.47 0.46 -0.0 0 1 346.79 217.00
  L 412.49 217.00
  A 0.63 0.62 -6.4 0 1 413.10 217.48
  C 418.18 238.95 446.84 240.20 454.29 220.05
  C 455.71 216.22 455.42 208.80 453.99 205.15
  C 450.30 195.73 439.85 190.19 430.15 192.12
  C 421.34 193.87 415.10 199.98 413.08 208.78
  Q 412.97 209.25 412.49 209.25
  L 346.77 209.25
  Q 346.31 209.25 346.31 208.79
  C 346.34 205.17 346.47 201.25 345.73 197.94
  C 343.20 186.68 335.09 179.47 323.45 178.19
  Q 322.90 178.13 322.90 177.58
  Q 322.90 153.93 322.93 130.28
  Q 322.94 122.84 323.16 121.76
  C 324.47 115.32 329.84 111.34 336.50 111.27
  Q 346.68 111.17 356.89 111.29
  Q 357.41 111.29 357.54 111.80
  C 360.75 124.72 374.35 132.20 386.62 127.01
  C 404.93 119.28 403.94 93.30 385.26 86.74
  Q 377.40 83.98 369.30 87.79
  C 362.92 90.80 359.37 95.78 357.48 102.51
  Q 357.33 103.03 356.79 103.02
  Q 348.04 102.94 339.31 103.02
  Q 331.84 103.09 328.38 104.41
  C 320.91 107.27 314.78 115.08 314.81 123.01
  Q 314.91 150.19 314.80 177.45
  Q 314.80 178.00 314.25 178.00
  L 281.50 178.00
  A 0.50 0.50 0.0 0 1 281.00 177.50
  L 281.00 149.05
  Q 281.00 148.64 281.39 148.54
  Q 293.28 145.38 296.96 134.74
  C 300.78 123.72 295.49 111.89 284.61 107.69
  C 272.32 102.94 258.99 110.40 256.07 123.09
  C 253.38 134.77 261.24 145.80 272.57 148.51
  A 0.49 0.48 6.8 0 1 272.95 148.98
  L 272.94 177.35
  A 0.65 0.65 0.0 0 1 272.29 178.00
  L 239.40 178.00
  Q 238.80 178.00 238.80 177.40
  L 238.80 96.73
  Q 238.80 96.23 239.30 96.11
  C 266.43 89.87 258.86 49.87 231.17 54.12
  C 220.48 55.76 212.25 66.73 213.53 77.26
  Q 215.35 92.21 230.59 96.21
  A 0.56 0.55 -82.6 0 1 231.00 96.75
  L 231.00 177.70
  A 0.30 0.29 -0.0 0 1 230.70 177.99
  L 197.27 178.00
  A 0.35 0.34 -90.0 0 1 196.93 177.65
  Q 196.94 154.96 196.93 132.53
  Q 196.93 120.81 195.34 116.43
  C 191.77 106.60 183.30 102.94 173.26 103.00
  Q 164.09 103.05 154.92 102.97
  Q 154.40 102.97 154.27 102.47
  C 151.24 91.09 141.59 84.29 130.03 86.01
  C 108.55 89.20 105.68 119.71 125.95 127.26
  C 137.32 131.49 148.75 125.77 153.43 114.67
  C 153.77 113.87 153.94 112.69 154.28 111.75
  Q 154.46 111.26 154.99 111.26
  Q 164.02 111.23 173.07 111.26
  C 179.75 111.28 184.72 112.53 187.62 118.47
  Q 189.05 121.40 189.06 127.76
  Q 189.10 152.76 189.07 177.78
  A 0.43 0.43 0.0 0 1 188.65 178.21
  C 177.42 178.45 168.22 187.52 166.01 198.11
  C 165.36 201.23 165.77 205.14 165.63 208.67
  Q 165.60 209.25 165.02 209.25
  L 99.51 209.25
  Q 99.04 209.25 98.92 208.79
  Q 95.66 196.95 85.10 193.11
  C 72.94 188.69 59.20 196.15 57.06 209.01
  C 52.39 237.03 91.83 244.87 98.87 217.48
  Q 98.99 217.00 99.49 217.00
  L 165.21 217.00
  Q 165.67 217.00 165.67 217.46
  L 165.67 251.62
  A 0.38 0.38 0.0 0 1 165.29 252.00
  L 151.75 252.00
  Q 151.16 252.00 151.01 251.43
  Q 147.78 239.93 137.55 236.00
  C 121.21 229.73 104.77 244.69 109.32 261.58
  C 112.50 273.40 124.78 279.95 136.38 276.29
  Q 147.46 272.80 151.00 260.52
  Q 151.15 260.00 151.69 260.00
  L 165.09 260.00
  Q 165.67 260.00 165.67 260.59
  Z" fill="#5d91cf"></path>
<path d="M 165.09 260.00
  L 151.69 260.00
  Q 151.15 260.00 151.00 260.52
  Q 147.46 272.80 136.38 276.29
  C 124.78 279.95 112.50 273.40 109.32 261.58
  C 104.77 244.69 121.21 229.73 137.55 236.00
  Q 147.78 239.93 151.01 251.43
  Q 151.16 252.00 151.75 252.00
  L 165.29 252.00
  A 0.38 0.38 0.0 0 0 165.67 251.62
  L 165.67 217.46
  Q 165.67 217.00 165.21 217.00
  L 99.49 217.00
  Q 98.99 217.00 98.87 217.48
  C 91.83 244.87 52.39 237.03 57.06 209.01
  C 59.20 196.15 72.94 188.69 85.10 193.11
  Q 95.66 196.95 98.92 208.79
  Q 99.04 209.25 99.51 209.25
  L 165.02 209.25
  Q 165.60 209.25 165.63 208.67
  C 165.77 205.14 165.36 201.23 166.01 198.11
  C 168.22 187.52 177.42 178.45 188.65 178.21
  A 0.43 0.43 0.0 0 0 189.07 177.78
  Q 189.10 152.76 189.06 127.76
  Q 189.05 121.40 187.62 118.47
  C 184.72 112.53 179.75 111.28 173.07 111.26
  Q 164.02 111.23 154.99 111.26
  Q 154.46 111.26 154.28 111.75
  C 153.94 112.69 153.77 113.87 153.43 114.67
  C 148.75 125.77 137.32 131.49 125.95 127.26
  C 105.68 119.71 108.55 89.20 130.03 86.01
  C 141.59 84.29 151.24 91.09 154.27 102.47
  Q 154.40 102.97 154.92 102.97
  Q 164.09 103.05 173.26 103.00
  C 183.30 102.94 191.77 106.60 195.34 116.43
  Q 196.93 120.81 196.93 132.53
  Q 196.94 154.96 196.93 177.65
  A 0.35 0.34 -90.0 0 0 197.27 178.00
  L 230.70 177.99
  A 0.30 0.29 0.0 0 0 231.00 177.70
  L 231.00 96.75
  A 0.56 0.55 -82.6 0 0 230.59 96.21
  Q 215.35 92.21 213.53 77.26
  C 212.25 66.73 220.48 55.76 231.17 54.12
  C 258.86 49.87 266.43 89.87 239.30 96.11
  Q 238.80 96.23 238.80 96.73
  L 238.80 177.40
  Q 238.80 178.00 239.40 178.00
  L 272.29 178.00
  A 0.65 0.65 0.0 0 0 272.94 177.35
  L 272.95 148.98
  A 0.49 0.48 6.8 0 0 272.57 148.51
  C 261.24 145.80 253.38 134.77 256.07 123.09
  C 258.99 110.40 272.32 102.94 284.61 107.69
  C 295.49 111.89 300.78 123.72 296.96 134.74
  Q 293.28 145.38 281.39 148.54
  Q 281.00 148.64 281.00 149.05
  L 281.00 177.50
  A 0.50 0.50 0.0 0 0 281.50 178.00
  L 314.25 178.00
  Q 314.80 178.00 314.80 177.45
  Q 314.91 150.19 314.81 123.01
  C 314.78 115.08 320.91 107.27 328.38 104.41
  Q 331.84 103.09 339.31 103.02
  Q 348.04 102.94 356.79 103.02
  Q 357.33 103.03 357.48 102.51
  C 359.37 95.78 362.92 90.80 369.30 87.79
  Q 377.40 83.98 385.26 86.74
  C 403.94 93.30 404.93 119.28 386.62 127.01
  C 374.35 132.20 360.75 124.72 357.54 111.80
  Q 357.41 111.29 356.89 111.29
  Q 346.68 111.17 336.50 111.27
  C 329.84 111.34 324.47 115.32 323.16 121.76
  Q 322.94 122.84 322.93 130.28
  Q 322.90 153.93 322.90 177.58
  Q 322.90 178.13 323.45 178.19
  C 335.09 179.47 343.20 186.68 345.73 197.94
  C 346.47 201.25 346.34 205.17 346.31 208.79
  Q 346.31 209.25 346.77 209.25
  L 412.49 209.25
  Q 412.97 209.25 413.08 208.78
  C 415.10 199.98 421.34 193.87 430.15 192.12
  C 439.85 190.19 450.30 195.73 453.99 205.15
  C 455.42 208.80 455.71 216.22 454.29 220.05
  C 446.84 240.20 418.18 238.95 413.10 217.48
  A 0.63 0.62 -6.4 0 0 412.49 217.00
  L 346.79 217.00
  A 0.47 0.46 0.0 0 0 346.32 217.46
  L 346.32 251.53
  A 0.46 0.46 0.0 0 0 346.78 251.99
  L 360.25 252.00
  A 0.74 0.73 8.6 0 0 360.95 251.49
  C 361.36 250.19 361.66 248.76 362.20 247.62
  C 367.09 237.31 377.75 232.09 388.66 235.56
  C 404.85 240.71 408.59 262.46 395.08 272.64
  C 381.65 282.77 365.20 275.43 361.02 260.42
  Q 360.90 260.00 360.46 260.00
  L 346.79 260.00
  A 0.47 0.46 0.0 0 0 346.32 260.46
  L 346.32 294.38
  A 0.37 0.37 0.0 0 0 346.69 294.75
  L 412.52 294.75
  Q 413.02 294.75 413.14 294.26
  C 416.59 279.67 432.34 272.80 445.11 280.40
  Q 451.37 284.12 454.04 290.89
  C 455.38 294.27 455.61 301.09 454.55 304.70
  C 452.23 312.54 445.52 318.27 437.57 319.68
  C 425.99 321.73 416.08 314.18 413.05 302.93
  Q 412.93 302.50 412.48 302.50
  L 346.77 302.50
  Q 346.29 302.50 346.30 302.98
  C 346.45 307.80 346.54 312.73 344.92 317.14
  Q 339.61 331.65 323.44 333.81
  Q 322.94 333.88 322.93 334.39
  Q 322.88 358.72 322.92 383.08
  Q 322.93 390.61 324.43 393.69
  C 327.42 399.80 332.74 400.76 339.55 400.76
  Q 348.16 400.75 356.77 400.75
  Q 357.28 400.75 357.42 400.25
  C 360.86 387.74 372.28 380.65 384.72 384.16
  C 397.09 387.64 403.34 402.17 397.68 413.98
  C 393.77 422.16 384.12 427.81 374.77 425.70
  Q 361.15 422.64 357.48 409.29
  Q 357.35 408.81 356.85 408.81
  Q 342.99 408.62 337.75 408.76
  C 324.67 409.10 314.47 399.69 314.61 386.50
  Q 314.88 360.42 314.85 334.34
  Q 314.85 333.75 314.26 333.75
  L 281.51 333.73
  Q 281.00 333.73 281.00 334.24
  L 281.00 362.98
  Q 281.00 363.44 281.44 363.55
  Q 294.78 366.75 297.78 379.75
  C 300.28 390.56 293.47 401.89 282.86 404.87
  C 265.77 409.67 251.13 393.36 256.98 376.73
  Q 260.65 366.28 272.42 363.60
  Q 272.97 363.48 272.97 362.92
  L 272.95 334.35
  Q 272.95 333.75 272.35 333.75
  L 239.28 333.74
  Q 238.81 333.74 238.81 334.22
  L 238.80 415.00
  Q 238.80 415.48 239.27 415.60
  C 257.40 420.20 262.36 441.70 247.91 453.65
  C 240.53 459.76 227.44 458.77 220.61 452.42
  C 208.99 441.61 212.05 422.54 227.14 417.02
  Q 228.84 416.39 230.53 415.71
  Q 231.00 415.52 231.00 415.01
  L 231.00 334.25
  Q 231.00 333.75 230.50 333.75
  L 197.50 333.75
  Q 196.94 333.75 196.94 334.31
  Q 196.92 357.38 196.92 380.41
  Q 196.92 389.95 196.48 392.06
  C 194.96 399.41 189.08 405.63 181.88 407.79
  Q 178.89 408.69 172.03 408.73
  Q 163.40 408.79 154.83 408.74
  Q 154.44 408.73 154.33 409.11
  C 151.04 421.12 140.29 428.46 128.14 425.47
  Q 121.59 423.85 117.32 418.70
  C 106.93 406.15 113.24 386.09 129.97 383.50
  C 141.54 381.71 151.34 388.88 154.30 400.23
  A 0.69 0.68 82.9 0 0 154.96 400.75
  Q 162.01 400.75 169.04 400.78
  Q 178.48 400.82 181.76 399.33
  C 188.74 396.16 189.11 389.79 189.10 382.22
  Q 189.05 358.34 189.09 334.47
  Q 189.09 333.98 188.60 333.92
  Q 171.07 331.52 166.47 315.33
  C 165.42 311.64 165.66 307.39 165.67 303.39
  Q 165.68 302.75 165.04 302.75
  L 99.48 302.75
  Q 98.94 302.75 98.81 303.28
  C 94.82 319.40 75.20 325.94 62.98 314.03
  Q 56.36 307.59 56.64 298.22
  C 57.40 272.99 93.43 270.03 98.86 294.44
  A 0.40 0.40 0.0 0 0 99.25 294.75
  L 165.08 294.75
  Q 165.66 294.75 165.66 294.17
  L 165.67 260.59
  Q 165.67 260.00 165.09 260.00
  Z
  M 238.63 75.68
  L 242.38 79.53
  Q 243.14 80.31 242.14 80.74
  L 235.64 83.60
  A 1.14 1.12 44.3 0 1 234.73 83.60
  L 228.19 80.77
  A 2.22 2.21 -78.2 0 1 226.86 78.72
  L 226.89 71.18
  Q 226.89 70.56 227.45 70.31
  L 234.74 67.05
  A 1.20 1.20 0.0 0 1 235.72 67.05
  L 242.86 70.27
  A 1.00 1.00 0.0 0 1 243.45 71.10
  L 243.54 72.35
  Q 243.58 72.87 244.10 72.87
  L 244.99 72.87
  A 0.44 0.43 2.9 0 0 245.43 72.48
  Q 245.61 71.08 245.32 69.72
  Q 245.20 69.12 244.64 68.87
  L 236.27 65.11
  A 2.61 2.58 44.7 0 0 234.16 65.11
  L 225.42 69.02
  Q 224.89 69.26 224.89 69.84
  L 224.90 80.75
  A 1.02 1.00 12.3 0 0 225.50 81.67
  Q 229.05 83.26 232.76 84.92
  C 236.37 86.53 241.16 83.30 244.45 81.88
  A 1.60 1.60 0.0 0 0 244.95 79.29
  L 238.52 72.85
  A 0.57 0.56 -45.4 0 0 237.72 72.86
  L 235.69 74.92
  Q 235.32 75.30 234.86 75.04
  Q 234.40 74.79 234.04 74.41
  Q 233.64 73.98 233.23 74.40
  L 229.56 78.12
  Q 229.24 78.44 229.53 78.80
  L 230.18 79.59
  A 0.48 0.48 0.0 0 0 230.90 79.62
  L 233.15 77.31
  Q 233.56 76.89 234.04 77.22
  L 234.86 77.78
  Q 235.37 78.13 235.80 77.69
  L 237.75 75.69
  Q 238.19 75.23 238.63 75.68
  Z
  M 131.96 108.94
  L 132.65 109.59
  Q 133.12 110.03 133.54 109.56
  L 135.47 107.42
  A 0.66 0.65 -46.2 0 1 136.42 107.39
  L 140.27 111.24
  Q 140.99 111.96 140.06 112.38
  L 133.95 115.14
  A 2.24 2.23 -45.2 0 1 132.11 115.15
  L 125.51 112.19
  A 1.30 1.28 -78.1 0 1 124.75 111.01
  L 124.75 103.06
  A 1.31 1.29 78.2 0 1 125.52 101.87
  L 132.18 98.87
  A 2.21 2.19 45.9 0 1 134.05 98.91
  Q 136.96 100.37 140.27 101.73
  Q 141.60 102.28 141.23 103.97
  A 0.60 0.60 0.0 0 0 141.80 104.70
  L 142.27 104.71
  Q 143.26 104.72 143.25 103.73
  L 143.24 101.54
  A 0.97 0.96 12.4 0 0 142.67 100.66
  L 134.53 97.02
  A 3.72 3.72 0.0 0 0 131.51 97.02
  L 123.06 100.77
  A 0.53 0.51 -12.5 0 0 122.75 101.24
  L 122.74 112.57
  A 0.84 0.84 0.0 0 0 123.24 113.34
  L 131.40 117.01
  A 3.95 3.94 44.7 0 0 134.63 117.00
  L 142.50 113.45
  A 1.36 1.36 0.0 0 0 142.92 111.26
  L 136.79 104.90
  A 1.20 1.19 36.1 0 0 134.86 105.20
  Q 133.74 107.48 131.79 106.21
  Q 131.26 105.86 130.82 106.32
  L 127.38 109.85
  A 0.68 0.67 36.6 0 0 127.54 110.91
  L 128.01 111.18
  Q 128.54 111.47 128.98 111.04
  L 131.08 108.95
  Q 131.52 108.51 131.96 108.94
  Z
  M 377.86 108.99
  L 378.10 109.50
  Q 378.42 110.18 378.96 109.66
  L 381.12 107.59
  Q 381.77 106.96 382.41 107.61
  L 385.99 111.24
  Q 386.76 112.01 385.76 112.45
  L 379.79 115.11
  A 2.47 2.45 44.7 0 1 377.76 115.11
  L 371.22 112.13
  A 1.31 1.30 12.3 0 1 370.45 110.94
  L 370.44 103.11
  A 1.32 1.31 77.8 0 1 371.21 101.91
  L 377.79 98.92
  A 2.44 2.40 45.4 0 1 379.87 98.95
  C 381.91 99.94 387.44 101.36 387.22 104.17
  Q 387.17 104.77 387.77 104.75
  L 388.30 104.73
  Q 389.05 104.70 389.05 103.95
  L 389.07 101.51
  Q 389.07 100.91 388.53 100.67
  L 379.91 96.87
  A 2.79 2.79 0.0 0 0 377.65 96.87
  L 369.26 100.56
  A 1.31 1.29 78.2 0 0 368.49 101.75
  L 368.49 112.26
  A 1.32 1.31 -77.8 0 0 369.26 113.46
  L 377.18 117.01
  A 3.94 3.94 0.0 0 0 380.42 117.01
  L 388.47 113.38
  A 1.27 1.26 -34.4 0 0 388.86 111.34
  L 382.22 104.62
  A 0.70 0.69 44.7 0 0 381.23 104.62
  L 379.17 106.70
  Q 378.63 107.25 378.16 106.64
  Q 377.89 106.29 377.50 106.08
  Q 377.04 105.84 376.68 106.22
  L 373.11 109.97
  A 0.57 0.56 35.3 0 0 373.27 110.87
  L 373.97 111.22
  A 0.70 0.68 -54.2 0 0 374.78 111.08
  L 376.93 108.84
  Q 377.51 108.24 377.86 108.99
  Z
  M 280.81 128.17
  L 284.59 131.93
  Q 285.21 132.55 284.42 132.91
  L 277.70 135.95
  Q 277.23 136.17 276.76 135.95
  L 269.95 132.85
  A 1.80 1.77 12.4 0 1 268.90 131.23
  L 268.90 124.07
  A 1.86 1.85 78.1 0 1 270.00 122.37
  L 276.86 119.31
  Q 277.33 119.10 277.79 119.32
  Q 281.00 120.84 284.26 122.21
  Q 286.03 122.96 285.66 124.67
  A 0.43 0.43 0.0 0 0 286.04 125.19
  L 286.84 125.24
  A 0.58 0.58 0.0 0 0 287.44 124.81
  C 288.35 121.27 286.47 121.15 284.17 120.03
  Q 280.99 118.49 277.61 117.16
  Q 277.14 116.98 276.68 117.19
  L 267.50 121.33
  Q 266.97 121.57 266.97 122.15
  L 266.96 133.07
  A 0.93 0.92 12.5 0 0 267.50 133.91
  L 276.21 137.87
  A 2.53 2.53 0.0 0 0 278.27 137.87
  L 286.44 134.22
  A 1.77 1.67 78.8 0 0 287.44 132.63
  Q 287.44 132.30 286.86 131.62
  Q 284.00 128.33 280.69 125.26
  A 0.66 0.65 48.0 0 0 279.86 125.21
  Q 278.64 126.11 277.79 127.36
  Q 277.51 127.77 277.12 127.46
  L 276.18 126.71
  A 0.73 0.71 -48.7 0 0 275.21 126.78
  L 271.70 130.43
  A 0.65 0.64 -43.3 0 0 271.67 131.29
  L 271.96 131.63
  A 0.86 0.86 0.0 0 0 273.26 131.66
  L 275.16 129.61
  Q 275.55 129.19 276.01 129.52
  L 276.80 130.09
  Q 277.26 130.43 277.68 130.03
  L 279.66 128.16
  Q 280.24 127.61 280.81 128.17
  Z
  M 75.89 214.32
  L 76.63 214.88
  A 0.73 0.73 0.0 0 0 77.58 214.82
  L 79.58 212.86
  Q 80.10 212.35 80.60 212.87
  L 84.42 216.88
  A 0.57 0.57 0.0 0 1 84.24 217.79
  L 77.53 220.80
  Q 77.07 221.00 76.62 220.80
  L 70.05 217.88
  A 2.10 2.10 0.0 0 1 68.81 215.95
  L 68.86 208.25
  Q 68.86 207.64 69.42 207.39
  L 76.57 204.20
  Q 77.11 203.96 77.64 204.20
  L 84.67 207.37
  Q 85.26 207.64 85.30 208.29
  L 85.36 209.33
  A 0.69 0.69 0.0 0 0 86.08 209.98
  L 86.56 209.96
  Q 87.30 209.94 87.29 209.19
  L 87.28 206.93
  A 0.92 0.92 0.0 0 0 86.74 206.11
  L 77.57 202.01
  A 1.19 1.16 44.3 0 0 76.60 202.01
  L 67.29 206.16
  A 0.87 0.87 0.0 0 0 66.78 206.95
  L 66.77 217.74
  A 1.20 1.18 -77.6 0 0 67.45 218.82
  Q 71.19 220.56 74.94 222.38
  C 77.84 223.78 83.41 220.32 86.21 219.08
  A 1.74 1.74 0.0 0 0 86.73 216.25
  L 80.40 209.96
  Q 79.98 209.54 79.58 209.97
  L 77.56 212.11
  Q 77.17 212.52 76.71 212.19
  Q 76.37 211.96 76.12 211.62
  Q 75.65 211.01 75.11 211.55
  L 71.42 215.23
  Q 71.10 215.56 71.39 215.91
  L 72.06 216.70
  Q 72.38 217.07 72.73 216.72
  L 75.08 214.37
  Q 75.46 213.98 75.89 214.32
  Z
  M 437.79 212.95
  L 441.44 216.81
  Q 442.04 217.45 441.25 217.81
  L 434.64 220.80
  A 1.11 1.10 44.0 0 1 433.73 220.81
  L 426.89 217.76
  A 1.74 1.74 0.0 0 1 425.85 216.15
  L 425.87 208.30
  Q 425.87 207.69 426.43 207.44
  L 433.69 204.20
  Q 434.22 203.96 434.75 204.20
  L 441.88 207.42
  Q 442.46 207.69 442.48 208.32
  L 442.51 209.35
  Q 442.53 209.92 443.10 209.95
  L 443.76 209.98
  Q 444.53 210.02 444.50 209.24
  L 444.40 206.95
  A 1.00 0.99 -79.3 0 0 443.82 206.09
  L 434.71 202.02
  A 1.23 1.20 44.3 0 0 433.72 202.02
  L 424.44 206.13
  Q 423.87 206.39 423.87 207.01
  L 423.88 217.97
  A 0.95 0.94 12.1 0 0 424.44 218.83
  L 433.66 222.89
  Q 434.20 223.13 434.74 222.89
  L 443.46 219.04
  A 1.64 1.64 0.0 0 0 443.95 216.38
  L 437.55 210.01
  Q 437.08 209.54 436.62 210.03
  L 434.62 212.15
  Q 434.22 212.57 433.79 212.19
  L 433.10 211.56
  Q 432.66 211.17 432.25 211.58
  L 428.64 215.16
  Q 428.27 215.54 428.57 215.98
  L 429.09 216.74
  Q 429.41 217.21 429.82 216.80
  L 432.10 214.48
  Q 432.52 214.06 433.02 214.39
  L 433.79 214.90
  A 0.76 0.76 0.0 0 0 434.75 214.81
  L 436.66 212.93
  Q 437.23 212.36 437.79 212.95
  Z
  M 289.26 224.25
  L 305.69 224.25
  A 3.91 3.91 0.0 0 0 309.60 220.39
  L 309.62 219.31
  A 3.01 3.01 0.0 0 0 306.61 216.26
  L 264.09 216.25
  Q 259.91 216.24 260.21 220.41
  L 260.26 221.15
  A 3.32 3.32 0.0 0 0 263.57 224.23
  L 280.50 224.26
  Q 281.00 224.26 281.00 224.75
  L 281.00 276.50
  Q 281.00 277.00 280.50 277.00
  L 263.38 277.01
  A 3.11 3.11 0.0 0 0 260.28 279.87
  L 260.21 280.83
  Q 259.90 284.75 263.83 284.75
  L 306.63 284.74
  A 3.11 3.10 1.1 0 0 309.74 281.75
  L 309.77 280.96
  A 3.82 3.81 -89.0 0 0 305.96 277.00
  L 289.01 277.00
  Q 288.78 277.00 288.78 276.76
  L 288.78 224.74
  Q 288.78 224.25 289.26 224.25
  Z
  M 231.65 263.73
  L 239.37 283.00
  A 2.86 2.86 0.0 0 0 243.26 284.52
  L 244.23 284.05
  Q 247.70 282.39 246.28 278.81
  Q 234.47 248.93 222.67 219.72
  C 221.33 216.40 216.94 214.87 215.39 218.62
  Q 209.38 233.16 190.90 279.91
  A 3.13 3.13 0.0 0 0 192.59 283.94
  L 193.38 284.28
  A 4.00 3.99 22.2 0 0 198.64 282.08
  L 205.94 263.77
  Q 206.15 263.25 206.71 263.25
  L 230.95 263.25
  Q 231.46 263.25 231.65 263.73
  Z
  M 127.72 258.12
  L 128.22 258.79
  A 0.56 0.56 0.0 0 0 129.07 258.84
  L 131.18 256.61
  Q 131.57 256.19 131.98 256.59
  L 136.15 260.69
  A 0.56 0.56 0.0 0 1 135.98 261.60
  L 129.63 264.38
  A 2.31 2.30 -44.5 0 1 127.74 264.37
  L 121.20 261.42
  A 1.60 1.59 -78.1 0 1 120.25 259.96
  L 120.25 252.46
  A 1.35 1.34 -12.4 0 1 121.04 251.24
  L 128.05 248.03
  Q 128.69 247.73 129.34 248.03
  L 136.32 251.20
  A 1.16 1.15 7.2 0 1 136.97 252.03
  L 137.28 253.56
  Q 137.36 254.00 137.81 253.98
  L 138.30 253.96
  Q 139.02 253.93 139.02 253.20
  L 139.01 250.83
  Q 139.01 250.18 138.42 249.91
  L 129.98 246.15
  A 3.14 3.11 44.7 0 0 127.47 246.15
  L 119.56 249.64
  A 2.08 2.06 78.3 0 0 118.32 251.54
  L 118.32 261.03
  A 2.03 2.01 -78.2 0 0 119.52 262.88
  C 121.89 263.93 127.79 267.28 130.26 266.22
  Q 134.17 264.55 138.28 262.71
  A 1.38 1.37 55.9 0 0 138.70 260.49
  L 132.47 254.11
  Q 131.70 253.33 130.95 254.13
  L 129.26 255.92
  A 0.66 0.66 0.0 0 1 128.34 255.96
  L 127.68 255.37
  Q 127.17 254.93 126.70 255.41
  L 123.05 259.14
  Q 122.60 259.60 123.15 259.93
  L 123.88 260.38
  Q 124.38 260.68 124.78 260.26
  L 126.86 258.07
  A 0.56 0.56 0.0 0 1 127.72 258.12
  Z
  M 385.90 256.55
  L 389.97 260.66
  A 0.58 0.58 0.0 0 1 389.80 261.60
  L 383.43 264.43
  A 2.13 2.13 0.0 0 1 381.71 264.43
  L 375.26 261.57
  A 2.11 2.09 12.3 0 1 374.02 259.66
  L 374.02 252.63
  A 1.55 1.53 77.8 0 1 374.91 251.23
  L 381.83 248.05
  Q 382.30 247.83 382.80 248.01
  C 385.93 249.11 390.92 250.70 391.21 253.41
  Q 391.27 253.92 391.77 253.99
  Q 392.62 254.12 392.87 253.24
  Q 393.24 251.87 392.82 250.57
  A 1.16 1.16 0.0 0 0 392.18 249.86
  L 383.84 246.15
  A 3.15 3.15 0.0 0 0 381.30 246.15
  L 373.11 249.77
  A 1.80 1.78 -11.8 0 0 372.03 251.41
  L 372.04 261.23
  A 1.60 1.60 0.0 0 0 372.96 262.68
  Q 376.68 264.42 380.51 265.99
  C 383.82 267.35 388.94 264.14 391.97 262.78
  A 1.52 1.52 0.0 0 0 392.43 260.32
  L 385.95 253.81
  Q 385.53 253.38 385.11 253.81
  L 383.33 255.68
  A 1.05 1.04 -48.5 0 1 381.94 255.77
  L 381.44 255.38
  Q 380.94 254.98 380.50 255.43
  L 376.88 259.13
  Q 376.49 259.53 376.92 259.90
  Q 377.34 260.27 377.88 260.48
  A 0.62 0.61 -57.0 0 0 378.55 260.33
  L 380.66 258.12
  A 0.57 0.56 -46.0 0 1 381.47 258.10
  L 382.18 258.80
  A 0.56 0.56 0.0 0 0 382.98 258.78
  L 385.04 256.56
  Q 385.47 256.11 385.90 256.55
  Z
  M 75.86 301.38
  L 76.66 302.07
  A 0.62 0.61 42.5 0 0 77.50 302.04
  L 79.33 300.16
  Q 80.05 299.42 80.76 300.17
  L 84.21 303.81
  Q 84.91 304.55 83.99 304.97
  L 77.57 307.91
  Q 77.11 308.12 76.64 307.91
  L 70.17 305.02
  Q 68.82 304.41 68.82 302.92
  L 68.82 295.96
  A 1.85 1.83 78.3 0 1 69.91 294.29
  L 76.60 291.34
  Q 77.10 291.11 77.61 291.34
  Q 80.83 292.77 84.05 294.24
  C 85.14 294.73 85.56 295.49 85.34 296.65
  Q 85.24 297.20 85.80 297.19
  L 86.82 297.18
  A 0.50 0.49 -1.2 0 0 87.31 296.68
  L 87.26 294.02
  Q 87.26 293.49 86.77 293.27
  L 77.72 289.17
  A 1.55 1.55 0.0 0 0 76.44 289.17
  L 67.24 293.33
  Q 66.78 293.54 66.78 294.04
  L 66.77 304.88
  A 1.17 1.16 -77.8 0 0 67.46 305.96
  L 76.54 310.04
  A 1.28 1.25 -44.4 0 0 77.59 310.04
  L 86.49 306.06
  A 1.52 1.51 -34.5 0 0 86.95 303.61
  L 80.54 297.17
  A 0.74 0.74 0.0 0 0 79.46 297.20
  L 77.52 299.37
  A 0.53 0.53 0.0 0 1 76.75 299.39
  L 76.05 298.67
  Q 75.60 298.22 75.15 298.67
  L 71.54 302.29
  Q 71.08 302.75 71.53 303.23
  L 71.86 303.59
  Q 72.45 304.21 73.04 303.60
  L 75.16 301.41
  Q 75.50 301.06 75.86 301.38
  Z
  M 432.95 301.44
  L 433.69 302.02
  Q 434.20 302.42 434.65 301.97
  L 436.51 300.12
  Q 437.14 299.50 437.76 300.13
  L 441.41 303.83
  Q 442.09 304.52 441.21 304.92
  L 434.54 307.97
  Q 434.19 308.13 433.85 307.97
  L 427.09 304.93
  Q 425.83 304.37 425.84 302.99
  L 425.86 295.82
  A 1.56 1.56 0.0 0 1 426.79 294.39
  L 433.83 291.28
  Q 434.29 291.08 434.75 291.30
  Q 438.75 293.27 440.40 293.87
  Q 442.83 294.76 442.51 296.57
  A 0.53 0.53 0.0 0 0 443.01 297.19
  L 443.91 297.21
  Q 444.53 297.22 444.50 296.59
  L 444.39 294.07
  Q 444.36 293.49 443.83 293.25
  L 434.74 289.13
  Q 434.21 288.89 433.69 289.13
  L 424.30 293.34
  Q 423.87 293.54 423.87 294.01
  L 423.86 305.05
  A 0.91 0.91 0.0 0 0 424.40 305.88
  L 433.17 309.83
  A 2.44 2.44 0.0 0 0 435.19 309.83
  L 443.09 306.28
  Q 445.58 305.16 443.65 303.23
  L 437.51 297.10
  A 0.55 0.55 0.0 0 0 436.72 297.11
  L 434.68 299.27
  Q 434.27 299.70 433.82 299.31
  L 433.30 298.84
  A 0.95 0.94 -47.0 0 0 432.00 298.89
  L 428.72 302.25
  Q 428.21 302.78 428.68 303.34
  L 428.92 303.61
  Q 429.53 304.34 430.18 303.64
  L 432.17 301.50
  Q 432.53 301.11 432.95 301.44
  Z
  M 325.11 325.09
  Q 324.81 325.10 324.61 325.31
  Q 324.18 325.76 324.80 325.71
  Q 325.51 325.66 326.22 325.85
  A 0.45 0.44 0.1 0 0 326.77 325.31
  Q 326.48 324.23 325.84 323.31
  Q 325.69 323.10 325.51 323.28
  L 325.26 323.53
  Q 325.10 323.70 325.24 323.88
  Q 325.55 324.29 325.50 324.74
  Q 325.47 325.09 325.11 325.09
  Z
  M 328.27 323.95
  L 328.18 325.23
  Q 328.13 325.97 328.71 325.51
  Q 329.43 324.94 329.76 324.08
  A 0.62 0.62 0.0 0 0 329.59 323.41
  Q 329.22 323.08 328.75 323.28
  Q 328.30 323.47 328.27 323.95
  Z
  M 332.74 325.16
  Q 332.61 325.19 332.47 325.22
  Q 331.82 325.34 332.39 325.69
  Q 333.40 326.30 333.76 325.11
  A 1.31 1.31 0.0 0 0 331.86 323.58
  Q 330.91 324.11 330.80 325.53
  A 0.17 0.17 0.0 0 0 331.00 325.71
  L 331.51 325.60
  Q 332.02 325.50 331.84 325.01
  Q 331.71 324.68 331.73 324.29
  A 0.56 0.56 0.0 0 1 332.48 323.79
  Q 333.13 324.03 333.16 324.60
  Q 333.18 325.05 332.74 325.16
  Z
  M 280.94 385.78
  L 284.60 389.65
  A 0.60 0.60 0.0 0 1 284.41 390.61
  L 278.20 393.38
  A 2.22 2.21 44.5 0 1 276.39 393.39
  L 270.08 390.64
  A 1.96 1.96 0.0 0 1 268.90 388.84
  L 268.91 381.25
  A 1.08 1.06 78.2 0 1 269.54 380.27
  L 276.64 377.04
  Q 277.20 376.78 277.77 377.02
  Q 281.14 378.39 284.40 380.00
  C 285.38 380.48 285.74 381.13 285.73 382.18
  A 0.60 0.60 0.0 0 0 286.25 382.79
  L 286.78 382.86
  Q 287.36 382.94 287.47 382.37
  Q 287.77 380.90 287.32 379.52
  Q 287.14 378.96 286.60 378.72
  L 278.54 375.14
  A 3.13 3.12 -45.1 0 0 276.00 375.15
  L 267.48 378.96
  Q 266.96 379.19 266.96 379.76
  L 266.96 390.73
  A 0.97 0.96 12.4 0 0 267.53 391.61
  Q 271.03 393.20 274.71 394.92
  C 278.19 396.54 283.30 393.28 286.48 391.87
  A 1.67 1.67 0.0 0 0 286.98 389.16
  L 280.66 382.83
  Q 280.24 382.41 279.82 382.83
  L 277.79 384.85
  A 0.78 0.77 41.5 0 1 276.75 384.91
  L 276.06 384.34
  A 0.61 0.61 0.0 0 0 275.24 384.39
  L 271.63 388.11
  Q 271.28 388.48 271.63 388.85
  L 272.27 389.53
  Q 272.66 389.95 273.06 389.53
  L 275.27 387.22
  Q 275.67 386.80 276.14 387.15
  L 277.01 387.81
  Q 277.42 388.12 277.78 387.76
  L 279.76 385.77
  Q 280.36 385.17 280.94 385.78
  Z
  M 140.36 411.02
  C 138.03 412.18 134.11 414.76 131.51 413.70
  Q 128.23 412.37 125.30 410.86
  A 1.01 1.01 0.0 0 1 124.75 409.96
  L 124.75 402.04
  A 1.51 1.50 -12.2 0 1 125.65 400.65
  L 132.43 397.64
  A 1.53 1.53 0.0 0 1 133.72 397.66
  Q 136.47 398.97 139.49 400.22
  Q 141.54 401.07 141.28 402.93
  Q 141.19 403.54 141.81 403.51
  L 142.65 403.48
  Q 143.26 403.46 143.25 402.85
  L 143.24 400.25
  A 0.85 0.84 11.5 0 0 142.73 399.49
  L 133.52 395.51
  A 1.24 1.24 0.0 0 0 132.50 395.51
  L 123.35 399.46
  A 1.01 1.00 78.4 0 0 122.75 400.38
  L 122.75 411.34
  Q 122.75 411.99 123.34 412.26
  L 130.95 415.66
  A 5.01 5.01 0.0 0 0 135.07 415.66
  L 142.38 412.37
  A 1.51 1.51 0.0 0 0 142.84 409.93
  L 137.00 403.98
  Q 135.97 402.93 134.98 404.01
  L 133.51 405.62
  Q 133.14 406.02 132.72 405.68
  L 131.80 404.94
  A 0.59 0.58 -47.6 0 0 131.01 404.98
  L 127.30 408.78
  A 0.59 0.58 33.9 0 0 127.49 409.72
  L 127.83 409.86
  Q 128.72 410.25 129.39 409.53
  L 131.14 407.64
  Q 131.50 407.25 131.86 407.64
  L 132.56 408.38
  Q 133.07 408.93 133.55 408.36
  L 135.48 406.13
  A 0.56 0.56 0.0 0 1 136.30 406.10
  L 140.47 410.31
  Q 140.91 410.75 140.36 411.02
  Z
  M 386.38 410.98
  L 379.34 414.17
  Q 378.79 414.42 378.23 414.17
  L 371.05 410.89
  A 1.03 1.01 -77.9 0 1 370.46 409.96
  L 370.44 401.73
  A 0.90 0.90 0.0 0 1 370.97 400.91
  L 378.22 397.57
  Q 378.67 397.36 379.12 397.56
  C 381.45 398.56 387.20 400.10 387.26 403.00
  Q 387.27 403.55 387.82 403.54
  L 388.15 403.53
  Q 388.74 403.52 388.95 402.96
  Q 390.02 400.01 387.73 399.09
  Q 384.03 397.60 379.97 395.76
  A 2.85 2.82 -44.2 0 0 377.69 395.74
  L 369.47 399.31
  A 1.62 1.62 0.0 0 0 368.48 400.80
  L 368.49 411.21
  A 1.18 1.18 0.0 0 0 369.18 412.27
  C 372.24 413.65 377.69 417.08 380.91 415.63
  Q 384.71 413.92 388.45 412.27
  A 1.33 1.33 0.0 0 0 388.85 410.11
  L 382.12 403.42
  A 0.61 0.60 -44.7 0 0 381.27 403.42
  L 379.00 405.67
  Q 378.60 406.07 378.22 405.64
  L 377.70 405.05
  Q 377.25 404.54 376.77 405.03
  L 373.13 408.76
  Q 372.51 409.39 373.33 409.74
  L 373.75 409.93
  A 1.11 1.09 -55.8 0 0 374.96 409.69
  L 376.93 407.69
  Q 377.36 407.25 377.80 407.69
  Q 378.08 407.96 378.22 408.33
  Q 378.50 409.06 379.05 408.51
  L 381.30 406.27
  A 0.68 0.68 0.0 0 1 382.27 406.28
  L 386.46 410.55
  A 0.27 0.27 0.0 0 1 386.38 410.98
  Z
  M 242.22 440.97
  L 235.56 444.03
  Q 235.19 444.20 234.82 444.03
  L 227.93 440.90
  A 1.80 1.80 0.0 0 1 226.87 439.26
  L 226.87 432.33
  A 2.24 2.23 78.0 0 1 228.19 430.29
  L 234.85 427.31
  Q 235.30 427.11 235.74 427.34
  Q 238.75 428.86 241.86 430.17
  Q 243.81 431.00 243.50 432.32
  Q 243.31 433.15 244.15 433.28
  L 244.44 433.32
  Q 245.29 433.45 245.46 432.61
  Q 246.03 429.77 243.94 428.84
  Q 239.82 427.00 235.61 425.21
  Q 235.13 425.01 234.65 425.22
  L 225.45 429.34
  Q 224.89 429.59 224.89 430.20
  L 224.88 440.97
  A 1.13 1.12 -77.7 0 0 225.53 441.99
  L 233.69 445.71
  A 3.59 3.59 0.0 0 0 236.65 445.71
  L 244.65 442.08
  A 1.44 1.44 0.0 0 0 245.08 439.76
  L 238.63 433.22
  Q 238.11 432.70 237.62 433.24
  L 235.67 435.39
  Q 235.30 435.80 234.89 435.43
  L 234.07 434.67
  Q 233.65 434.29 233.25 434.70
  L 229.66 438.43
  A 0.71 0.71 0.0 0 0 229.63 439.38
  L 229.86 439.66
  Q 230.52 440.44 231.21 439.69
  L 233.14 437.60
  Q 233.52 437.18 233.97 437.53
  L 234.81 438.17
  Q 235.24 438.50 235.60 438.11
  L 237.49 436.16
  Q 238.09 435.54 238.70 436.15
  L 242.41 439.90
  Q 243.07 440.57 242.22 440.97
  Z" fill="#ffffff"></path>
<path d="M 237.75 75.69
  L 235.80 77.69
  Q 235.37 78.13 234.86 77.78
  L 234.04 77.22
  Q 233.56 76.89 233.15 77.31
  L 230.90 79.62
  A 0.48 0.48 0.0 0 1 230.18 79.59
  L 229.53 78.80
  Q 229.24 78.44 229.56 78.12
  L 233.23 74.40
  Q 233.64 73.98 234.04 74.41
  Q 234.40 74.79 234.86 75.04
  Q 235.32 75.30 235.69 74.92
  L 237.72 72.86
  A 0.57 0.56 -45.4 0 1 238.52 72.85
  L 244.95 79.29
  A 1.60 1.60 0.0 0 1 244.45 81.88
  C 241.16 83.30 236.37 86.53 232.76 84.92
  Q 229.05 83.26 225.50 81.67
  A 1.02 1.00 12.3 0 1 224.90 80.75
  L 224.89 69.84
  Q 224.89 69.26 225.42 69.02
  L 234.16 65.11
  A 2.61 2.58 44.7 0 1 236.27 65.11
  L 244.64 68.87
  Q 245.20 69.12 245.32 69.72
  Q 245.61 71.08 245.43 72.48
  A 0.44 0.43 2.9 0 1 244.99 72.87
  L 244.10 72.87
  Q 243.58 72.87 243.54 72.35
  L 243.45 71.10
  A 1.00 1.00 0.0 0 0 242.86 70.27
  L 235.72 67.05
  A 1.20 1.20 0.0 0 0 234.74 67.05
  L 227.45 70.31
  Q 226.89 70.56 226.89 71.18
  L 226.86 78.72
  A 2.22 2.21 -78.2 0 0 228.19 80.77
  L 234.73 83.60
  A 1.14 1.12 44.3 0 0 235.64 83.60
  L 242.14 80.74
  Q 243.14 80.31 242.38 79.53
  L 238.63 75.68
  Q 238.19 75.23 237.75 75.69
  Z" fill="#5d91cf"></path>
<path d="M 131.08 108.95
  L 128.98 111.04
  Q 128.54 111.47 128.01 111.18
  L 127.54 110.91
  A 0.68 0.67 36.6 0 1 127.38 109.85
  L 130.82 106.32
  Q 131.26 105.86 131.79 106.21
  Q 133.74 107.48 134.86 105.20
  A 1.20 1.19 36.1 0 1 136.79 104.90
  L 142.92 111.26
  A 1.36 1.36 0.0 0 1 142.50 113.45
  L 134.63 117.00
  A 3.95 3.94 44.7 0 1 131.40 117.01
  L 123.24 113.34
  A 0.84 0.84 0.0 0 1 122.74 112.57
  L 122.75 101.24
  A 0.53 0.51 -12.5 0 1 123.06 100.77
  L 131.51 97.02
  A 3.72 3.72 0.0 0 1 134.53 97.02
  L 142.67 100.66
  A 0.97 0.96 12.4 0 1 143.24 101.54
  L 143.25 103.73
  Q 143.26 104.72 142.27 104.71
  L 141.80 104.70
  A 0.60 0.60 0.0 0 1 141.23 103.97
  Q 141.60 102.28 140.27 101.73
  Q 136.96 100.37 134.05 98.91
  A 2.21 2.19 45.9 0 0 132.18 98.87
  L 125.52 101.87
  A 1.31 1.29 78.2 0 0 124.75 103.06
  L 124.75 111.01
  A 1.30 1.28 -78.1 0 0 125.51 112.19
  L 132.11 115.15
  A 2.24 2.23 -45.2 0 0 133.95 115.14
  L 140.06 112.38
  Q 140.99 111.96 140.27 111.24
  L 136.42 107.39
  A 0.66 0.65 -46.2 0 0 135.47 107.42
  L 133.54 109.56
  Q 133.12 110.03 132.65 109.59
  L 131.96 108.94
  Q 131.52 108.51 131.08 108.95
  Z" fill="#5d91cf"></path>
<path d="M 376.93 108.84
  L 374.78 111.08
  A 0.70 0.68 -54.2 0 1 373.97 111.22
  L 373.27 110.87
  A 0.57 0.56 35.3 0 1 373.11 109.97
  L 376.68 106.22
  Q 377.04 105.84 377.50 106.08
  Q 377.89 106.29 378.16 106.64
  Q 378.63 107.25 379.17 106.70
  L 381.23 104.62
  A 0.70 0.69 44.7 0 1 382.22 104.62
  L 388.86 111.34
  A 1.27 1.26 -34.4 0 1 388.47 113.38
  L 380.42 117.01
  A 3.94 3.94 0.0 0 1 377.18 117.01
  L 369.26 113.46
  A 1.32 1.31 -77.8 0 1 368.49 112.26
  L 368.49 101.75
  A 1.31 1.29 78.2 0 1 369.26 100.56
  L 377.65 96.87
  A 2.79 2.79 0.0 0 1 379.91 96.87
  L 388.53 100.67
  Q 389.07 100.91 389.07 101.51
  L 389.05 103.95
  Q 389.05 104.70 388.30 104.73
  L 387.77 104.75
  Q 387.17 104.77 387.22 104.17
  C 387.44 101.36 381.91 99.94 379.87 98.95
  A 2.44 2.40 45.4 0 0 377.79 98.92
  L 371.21 101.91
  A 1.32 1.31 77.8 0 0 370.44 103.11
  L 370.45 110.94
  A 1.31 1.30 12.3 0 0 371.22 112.13
  L 377.76 115.11
  A 2.47 2.45 44.7 0 0 379.79 115.11
  L 385.76 112.45
  Q 386.76 112.01 385.99 111.24
  L 382.41 107.61
  Q 381.77 106.96 381.12 107.59
  L 378.96 109.66
  Q 378.42 110.18 378.10 109.50
  L 377.86 108.99
  Q 377.51 108.24 376.93 108.84
  Z" fill="#5d91cf"></path>
<path d="M 279.66 128.16
  L 277.68 130.03
  Q 277.26 130.43 276.80 130.09
  L 276.01 129.52
  Q 275.55 129.19 275.16 129.61
  L 273.26 131.66
  A 0.86 0.86 0.0 0 1 271.96 131.63
  L 271.67 131.29
  A 0.65 0.64 -43.3 0 1 271.70 130.43
  L 275.21 126.78
  A 0.73 0.71 -48.7 0 1 276.18 126.71
  L 277.12 127.46
  Q 277.51 127.77 277.79 127.36
  Q 278.64 126.11 279.86 125.21
  A 0.66 0.65 48.0 0 1 280.69 125.26
  Q 284.00 128.33 286.86 131.62
  Q 287.44 132.30 287.44 132.63
  A 1.77 1.67 78.8 0 1 286.44 134.22
  L 278.27 137.87
  A 2.53 2.53 0.0 0 1 276.21 137.87
  L 267.50 133.91
  A 0.93 0.92 12.5 0 1 266.96 133.07
  L 266.97 122.15
  Q 266.97 121.57 267.50 121.33
  L 276.68 117.19
  Q 277.14 116.98 277.61 117.16
  Q 280.99 118.49 284.17 120.03
  C 286.47 121.15 288.35 121.27 287.44 124.81
  A 0.58 0.58 0.0 0 1 286.84 125.24
  L 286.04 125.19
  A 0.43 0.43 0.0 0 1 285.66 124.67
  Q 286.03 122.96 284.26 122.21
  Q 281.00 120.84 277.79 119.32
  Q 277.33 119.10 276.86 119.31
  L 270.00 122.37
  A 1.86 1.85 78.1 0 0 268.90 124.07
  L 268.90 131.23
  A 1.80 1.77 12.4 0 0 269.95 132.85
  L 276.76 135.95
  Q 277.23 136.17 277.70 135.95
  L 284.42 132.91
  Q 285.21 132.55 284.59 131.93
  L 280.81 128.17
  Q 280.24 127.61 279.66 128.16
  Z" fill="#5d91cf"></path>
<path d="M 75.08 214.37
  L 72.73 216.72
  Q 72.38 217.07 72.06 216.70
  L 71.39 215.91
  Q 71.10 215.56 71.42 215.23
  L 75.11 211.55
  Q 75.65 211.01 76.12 211.62
  Q 76.37 211.96 76.71 212.19
  Q 77.17 212.52 77.56 212.11
  L 79.58 209.97
  Q 79.98 209.54 80.40 209.96
  L 86.73 216.25
  A 1.74 1.74 0.0 0 1 86.21 219.08
  C 83.41 220.32 77.84 223.78 74.94 222.38
  Q 71.19 220.56 67.45 218.82
  A 1.20 1.18 -77.6 0 1 66.77 217.74
  L 66.78 206.95
  A 0.87 0.87 0.0 0 1 67.29 206.16
  L 76.60 202.01
  A 1.19 1.16 44.3 0 1 77.57 202.01
  L 86.74 206.11
  A 0.92 0.92 0.0 0 1 87.28 206.93
  L 87.29 209.19
  Q 87.30 209.94 86.56 209.96
  L 86.08 209.98
  A 0.69 0.69 0.0 0 1 85.36 209.33
  L 85.30 208.29
  Q 85.26 207.64 84.67 207.37
  L 77.64 204.20
  Q 77.11 203.96 76.57 204.20
  L 69.42 207.39
  Q 68.86 207.64 68.86 208.25
  L 68.81 215.95
  A 2.10 2.10 0.0 0 0 70.05 217.88
  L 76.62 220.80
  Q 77.07 221.00 77.53 220.80
  L 84.24 217.79
  A 0.57 0.57 0.0 0 0 84.42 216.88
  L 80.60 212.87
  Q 80.10 212.35 79.58 212.86
  L 77.58 214.82
  A 0.73 0.73 0.0 0 1 76.63 214.88
  L 75.89 214.32
  Q 75.46 213.98 75.08 214.37
  Z" fill="#5d91cf"></path>
<path d="M 436.66 212.93
  L 434.75 214.81
  A 0.76 0.76 0.0 0 1 433.79 214.90
  L 433.02 214.39
  Q 432.52 214.06 432.10 214.48
  L 429.82 216.80
  Q 429.41 217.21 429.09 216.74
  L 428.57 215.98
  Q 428.27 215.54 428.64 215.16
  L 432.25 211.58
  Q 432.66 211.17 433.10 211.56
  L 433.79 212.19
  Q 434.22 212.57 434.62 212.15
  L 436.62 210.03
  Q 437.08 209.54 437.55 210.01
  L 443.95 216.38
  A 1.64 1.64 0.0 0 1 443.46 219.04
  L 434.74 222.89
  Q 434.20 223.13 433.66 222.89
  L 424.44 218.83
  A 0.95 0.94 12.1 0 1 423.88 217.97
  L 423.87 207.01
  Q 423.87 206.39 424.44 206.13
  L 433.72 202.02
  A 1.23 1.20 44.3 0 1 434.71 202.02
  L 443.82 206.09
  A 1.00 0.99 -79.3 0 1 444.40 206.95
  L 444.50 209.24
  Q 444.53 210.02 443.76 209.98
  L 443.10 209.95
  Q 442.53 209.92 442.51 209.35
  L 442.48 208.32
  Q 442.46 207.69 441.88 207.42
  L 434.75 204.20
  Q 434.22 203.96 433.69 204.20
  L 426.43 207.44
  Q 425.87 207.69 425.87 208.30
  L 425.85 216.15
  A 1.74 1.74 0.0 0 0 426.89 217.76
  L 433.73 220.81
  A 1.11 1.10 44.0 0 0 434.64 220.80
  L 441.25 217.81
  Q 442.04 217.45 441.44 216.81
  L 437.79 212.95
  Q 437.23 212.36 436.66 212.93
  Z" fill="#5d91cf"></path>
<path d="M 288.78 224.74
  L 288.78 276.76
  Q 288.78 277.00 289.01 277.00
  L 305.96 277.00
  A 3.82 3.81 -89.0 0 1 309.77 280.96
  L 309.74 281.75
  A 3.11 3.10 1.1 0 1 306.63 284.74
  L 263.83 284.75
  Q 259.90 284.75 260.21 280.83
  L 260.28 279.87
  A 3.11 3.11 0.0 0 1 263.38 277.01
  L 280.50 277.00
  Q 281.00 277.00 281.00 276.50
  L 281.00 224.75
  Q 281.00 224.26 280.50 224.26
  L 263.57 224.23
  A 3.32 3.32 0.0 0 1 260.26 221.15
  L 260.21 220.41
  Q 259.91 216.24 264.09 216.25
  L 306.61 216.26
  A 3.01 3.01 0.0 0 1 309.62 219.31
  L 309.60 220.39
  A 3.91 3.91 0.0 0 1 305.69 224.25
  L 289.26 224.25
  Q 288.78 224.25 288.78 224.74
  Z" fill="#5d91cf"></path>
<path d="M 230.95 263.25
  L 206.71 263.25
  Q 206.15 263.25 205.94 263.77
  L 198.64 282.08
  A 4.00 3.99 22.2 0 1 193.38 284.28
  L 192.59 283.94
  A 3.13 3.13 0.0 0 1 190.90 279.91
  Q 209.38 233.16 215.39 218.62
  C 216.94 214.87 221.33 216.40 222.67 219.72
  Q 234.47 248.93 246.28 278.81
  Q 247.70 282.39 244.23 284.05
  L 243.26 284.52
  A 2.86 2.86 0.0 0 1 239.37 283.00
  L 231.65 263.73
  Q 231.46 263.25 230.95 263.25
  Z
  M 209.38 254.80
  A 0.34 0.34 0.0 0 0 209.70 255.27
  L 227.87 255.24
  A 0.34 0.34 0.0 0 0 228.19 254.77
  L 219.06 232.06
  A 0.34 0.34 0.0 0 0 218.43 232.06
  L 209.38 254.80
  Z" fill="#5d91cf"></path>
<path d="M 209.38 254.80
  L 218.43 232.06
  A 0.34 0.34 0.0 0 1 219.06 232.06
  L 228.19 254.77
  A 0.34 0.34 0.0 0 1 227.87 255.24
  L 209.70 255.27
  A 0.34 0.34 0.0 0 1 209.38 254.80
  Z" fill="#ffffff"></path>
<path d="M 126.86 258.07
  L 124.78 260.26
  Q 124.38 260.68 123.88 260.38
  L 123.15 259.93
  Q 122.60 259.60 123.05 259.14
  L 126.70 255.41
  Q 127.17 254.93 127.68 255.37
  L 128.34 255.96
  A 0.66 0.66 0.0 0 0 129.26 255.92
  L 130.95 254.13
  Q 131.70 253.33 132.47 254.11
  L 138.70 260.49
  A 1.38 1.37 55.9 0 1 138.28 262.71
  Q 134.17 264.55 130.26 266.22
  C 127.79 267.28 121.89 263.93 119.52 262.88
  A 2.03 2.01 -78.2 0 1 118.32 261.03
  L 118.32 251.54
  A 2.08 2.06 78.3 0 1 119.56 249.64
  L 127.47 246.15
  A 3.14 3.11 44.7 0 1 129.98 246.15
  L 138.42 249.91
  Q 139.01 250.18 139.01 250.83
  L 139.02 253.20
  Q 139.02 253.93 138.30 253.96
  L 137.81 253.98
  Q 137.36 254.00 137.28 253.56
  L 136.97 252.03
  A 1.16 1.15 7.2 0 0 136.32 251.20
  L 129.34 248.03
  Q 128.69 247.73 128.05 248.03
  L 121.04 251.24
  A 1.35 1.34 -12.4 0 0 120.25 252.46
  L 120.25 259.96
  A 1.60 1.59 -78.1 0 0 121.20 261.42
  L 127.74 264.37
  A 2.31 2.30 -44.5 0 0 129.63 264.38
  L 135.98 261.60
  A 0.56 0.56 0.0 0 0 136.15 260.69
  L 131.98 256.59
  Q 131.57 256.19 131.18 256.61
  L 129.07 258.84
  A 0.56 0.56 0.0 0 1 128.22 258.79
  L 127.72 258.12
  A 0.56 0.56 0.0 0 0 126.86 258.07
  Z" fill="#5d91cf"></path>
<path d="M 385.04 256.56
  L 382.98 258.78
  A 0.56 0.56 0.0 0 1 382.18 258.80
  L 381.47 258.10
  A 0.57 0.56 -46.0 0 0 380.66 258.12
  L 378.55 260.33
  A 0.62 0.61 -57.0 0 1 377.88 260.48
  Q 377.34 260.27 376.92 259.90
  Q 376.49 259.53 376.88 259.13
  L 380.50 255.43
  Q 380.94 254.98 381.44 255.38
  L 381.94 255.77
  A 1.05 1.04 -48.5 0 0 383.33 255.68
  L 385.11 253.81
  Q 385.53 253.38 385.95 253.81
  L 392.43 260.32
  A 1.52 1.52 0.0 0 1 391.97 262.78
  C 388.94 264.14 383.82 267.35 380.51 265.99
  Q 376.68 264.42 372.96 262.68
  A 1.60 1.60 0.0 0 1 372.04 261.23
  L 372.03 251.41
  A 1.80 1.78 -11.8 0 1 373.11 249.77
  L 381.30 246.15
  A 3.15 3.15 0.0 0 1 383.84 246.15
  L 392.18 249.86
  A 1.16 1.16 0.0 0 1 392.82 250.57
  Q 393.24 251.87 392.87 253.24
  Q 392.62 254.12 391.77 253.99
  Q 391.27 253.92 391.21 253.41
  C 390.92 250.70 385.93 249.11 382.80 248.01
  Q 382.30 247.83 381.83 248.05
  L 374.91 251.23
  A 1.55 1.53 77.8 0 0 374.02 252.63
  L 374.02 259.66
  A 2.11 2.09 12.3 0 0 375.26 261.57
  L 381.71 264.43
  A 2.13 2.13 0.0 0 0 383.43 264.43
  L 389.80 261.60
  A 0.58 0.58 0.0 0 0 389.97 260.66
  L 385.90 256.55
  Q 385.47 256.11 385.04 256.56
  Z" fill="#5d91cf"></path>
<path d="M 75.16 301.41
  L 73.04 303.60
  Q 72.45 304.21 71.86 303.59
  L 71.53 303.23
  Q 71.08 302.75 71.54 302.29
  L 75.15 298.67
  Q 75.60 298.22 76.05 298.67
  L 76.75 299.39
  A 0.53 0.53 0.0 0 0 77.52 299.37
  L 79.46 297.20
  A 0.74 0.74 0.0 0 1 80.54 297.17
  L 86.95 303.61
  A 1.52 1.51 -34.5 0 1 86.49 306.06
  L 77.59 310.04
  A 1.28 1.25 -44.4 0 1 76.54 310.04
  L 67.46 305.96
  A 1.17 1.16 -77.8 0 1 66.77 304.88
  L 66.78 294.04
  Q 66.78 293.54 67.24 293.33
  L 76.44 289.17
  A 1.55 1.55 0.0 0 1 77.72 289.17
  L 86.77 293.27
  Q 87.26 293.49 87.26 294.02
  L 87.31 296.68
  A 0.50 0.49 -1.2 0 1 86.82 297.18
  L 85.80 297.19
  Q 85.24 297.20 85.34 296.65
  C 85.56 295.49 85.14 294.73 84.05 294.24
  Q 80.83 292.77 77.61 291.34
  Q 77.10 291.11 76.60 291.34
  L 69.91 294.29
  A 1.85 1.83 78.3 0 0 68.82 295.96
  L 68.82 302.92
  Q 68.82 304.41 70.17 305.02
  L 76.64 307.91
  Q 77.11 308.12 77.57 307.91
  L 83.99 304.97
  Q 84.91 304.55 84.21 303.81
  L 80.76 300.17
  Q 80.05 299.42 79.33 300.16
  L 77.50 302.04
  A 0.62 0.61 42.5 0 1 76.66 302.07
  L 75.86 301.38
  Q 75.50 301.06 75.16 301.41
  Z" fill="#5d91cf"></path>
<path d="M 432.17 301.50
  L 430.18 303.64
  Q 429.53 304.34 428.92 303.61
  L 428.68 303.34
  Q 428.21 302.78 428.72 302.25
  L 432.00 298.89
  A 0.95 0.94 -47.0 0 1 433.30 298.84
  L 433.82 299.31
  Q 434.27 299.70 434.68 299.27
  L 436.72 297.11
  A 0.55 0.55 0.0 0 1 437.51 297.10
  L 443.65 303.23
  Q 445.58 305.16 443.09 306.28
  L 435.19 309.83
  A 2.44 2.44 0.0 0 1 433.17 309.83
  L 424.40 305.88
  A 0.91 0.91 0.0 0 1 423.86 305.05
  L 423.87 294.01
  Q 423.87 293.54 424.30 293.34
  L 433.69 289.13
  Q 434.21 288.89 434.74 289.13
  L 443.83 293.25
  Q 444.36 293.49 444.39 294.07
  L 444.50 296.59
  Q 444.53 297.22 443.91 297.21
  L 443.01 297.19
  A 0.53 0.53 0.0 0 1 442.51 296.57
  Q 442.83 294.76 440.40 293.87
  Q 438.75 293.27 434.75 291.30
  Q 434.29 291.08 433.83 291.28
  L 426.79 294.39
  A 1.56 1.56 0.0 0 0 425.86 295.82
  L 425.84 302.99
  Q 425.83 304.37 427.09 304.93
  L 433.85 307.97
  Q 434.19 308.13 434.54 307.97
  L 441.21 304.92
  Q 442.09 304.52 441.41 303.83
  L 437.76 300.13
  Q 437.14 299.50 436.51 300.12
  L 434.65 301.97
  Q 434.20 302.42 433.69 302.02
  L 432.95 301.44
  Q 432.53 301.11 432.17 301.50
  Z" fill="#5d91cf"></path>
<path d="M 325.50 324.74
  Q 325.55 324.29 325.24 323.88
  Q 325.10 323.70 325.26 323.53
  L 325.51 323.28
  Q 325.69 323.10 325.84 323.31
  Q 326.48 324.23 326.77 325.31
  A 0.45 0.44 0.1 0 1 326.22 325.85
  Q 325.51 325.66 324.80 325.71
  Q 324.18 325.76 324.61 325.31
  Q 324.81 325.10 325.11 325.09
  Q 325.47 325.09 325.50 324.74
  Z" fill="#5d91cf"></path>
<path d="M 328.18 325.23
  L 328.27 323.95
  Q 328.30 323.47 328.75 323.28
  Q 329.22 323.08 329.59 323.41
  A 0.62 0.62 0.0 0 1 329.76 324.08
  Q 329.43 324.94 328.71 325.51
  Q 328.13 325.97 328.18 325.23
  Z" fill="#5d91cf"></path>
<path d="M 333.16 324.60
  Q 333.13 324.03 332.48 323.79
  A 0.56 0.56 0.0 0 0 331.73 324.29
  Q 331.71 324.68 331.84 325.01
  Q 332.02 325.50 331.51 325.60
  L 331.00 325.71
  A 0.17 0.17 0.0 0 1 330.80 325.53
  Q 330.91 324.11 331.86 323.58
  A 1.31 1.31 0.0 0 1 333.76 325.11
  Q 333.40 326.30 332.39 325.69
  Q 331.82 325.34 332.47 325.22
  Q 332.61 325.19 332.74 325.16
  Q 333.18 325.05 333.16 324.60
  Z" fill="#5d91cf"></path>
<path d="M 279.76 385.77
  L 277.78 387.76
  Q 277.42 388.12 277.01 387.81
  L 276.14 387.15
  Q 275.67 386.80 275.27 387.22
  L 273.06 389.53
  Q 272.66 389.95 272.27 389.53
  L 271.63 388.85
  Q 271.28 388.48 271.63 388.11
  L 275.24 384.39
  A 0.61 0.61 0.0 0 1 276.06 384.34
  L 276.75 384.91
  A 0.78 0.77 41.5 0 0 277.79 384.85
  L 279.82 382.83
  Q 280.24 382.41 280.66 382.83
  L 286.98 389.16
  A 1.67 1.67 0.0 0 1 286.48 391.87
  C 283.30 393.28 278.19 396.54 274.71 394.92
  Q 271.03 393.20 267.53 391.61
  A 0.97 0.96 12.4 0 1 266.96 390.73
  L 266.96 379.76
  Q 266.96 379.19 267.48 378.96
  L 276.00 375.15
  A 3.13 3.12 -45.1 0 1 278.54 375.14
  L 286.60 378.72
  Q 287.14 378.96 287.32 379.52
  Q 287.77 380.90 287.47 382.37
  Q 287.36 382.94 286.78 382.86
  L 286.25 382.79
  A 0.60 0.60 0.0 0 1 285.73 382.18
  C 285.74 381.13 285.38 380.48 284.40 380.00
  Q 281.14 378.39 277.77 377.02
  Q 277.20 376.78 276.64 377.04
  L 269.54 380.27
  A 1.08 1.06 78.2 0 0 268.91 381.25
  L 268.90 388.84
  A 1.96 1.96 0.0 0 0 270.08 390.64
  L 276.39 393.39
  A 2.22 2.21 44.5 0 0 278.20 393.38
  L 284.41 390.61
  A 0.60 0.60 0.0 0 0 284.60 389.65
  L 280.94 385.78
  Q 280.36 385.17 279.76 385.77
  Z" fill="#5d91cf"></path>
<path d="M 140.47 410.31
  L 136.30 406.10
  A 0.56 0.56 0.0 0 0 135.48 406.13
  L 133.55 408.36
  Q 133.07 408.93 132.56 408.38
  L 131.86 407.64
  Q 131.50 407.25 131.14 407.64
  L 129.39 409.53
  Q 128.72 410.25 127.83 409.86
  L 127.49 409.72
  A 0.59 0.58 33.9 0 1 127.30 408.78
  L 131.01 404.98
  A 0.59 0.58 -47.6 0 1 131.80 404.94
  L 132.72 405.68
  Q 133.14 406.02 133.51 405.62
  L 134.98 404.01
  Q 135.97 402.93 137.00 403.98
  L 142.84 409.93
  A 1.51 1.51 0.0 0 1 142.38 412.37
  L 135.07 415.66
  A 5.01 5.01 0.0 0 1 130.95 415.66
  L 123.34 412.26
  Q 122.75 411.99 122.75 411.34
  L 122.75 400.38
  A 1.01 1.00 78.4 0 1 123.35 399.46
  L 132.50 395.51
  A 1.24 1.24 0.0 0 1 133.52 395.51
  L 142.73 399.49
  A 0.85 0.84 11.5 0 1 143.24 400.25
  L 143.25 402.85
  Q 143.26 403.46 142.65 403.48
  L 141.81 403.51
  Q 141.19 403.54 141.28 402.93
  Q 141.54 401.07 139.49 400.22
  Q 136.47 398.97 133.72 397.66
  A 1.53 1.53 0.0 0 0 132.43 397.64
  L 125.65 400.65
  A 1.51 1.50 -12.2 0 0 124.75 402.04
  L 124.75 409.96
  A 1.01 1.01 0.0 0 0 125.30 410.86
  Q 128.23 412.37 131.51 413.70
  C 134.11 414.76 138.03 412.18 140.36 411.02
  Q 140.91 410.75 140.47 410.31
  Z" fill="#5d91cf"></path>
<path d="M 386.38 410.98
  A 0.27 0.27 0.0 0 0 386.46 410.55
  L 382.27 406.28
  A 0.68 0.68 0.0 0 0 381.30 406.27
  L 379.05 408.51
  Q 378.50 409.06 378.22 408.33
  Q 378.08 407.96 377.80 407.69
  Q 377.36 407.25 376.93 407.69
  L 374.96 409.69
  A 1.11 1.09 -55.8 0 1 373.75 409.93
  L 373.33 409.74
  Q 372.51 409.39 373.13 408.76
  L 376.77 405.03
  Q 377.25 404.54 377.70 405.05
  L 378.22 405.64
  Q 378.60 406.07 379.00 405.67
  L 381.27 403.42
  A 0.61 0.60 -44.7 0 1 382.12 403.42
  L 388.85 410.11
  A 1.33 1.33 0.0 0 1 388.45 412.27
  Q 384.71 413.92 380.91 415.63
  C 377.69 417.08 372.24 413.65 369.18 412.27
  A 1.18 1.18 0.0 0 1 368.49 411.21
  L 368.48 400.80
  A 1.62 1.62 0.0 0 1 369.47 399.31
  L 377.69 395.74
  A 2.85 2.82 -44.2 0 1 379.97 395.76
  Q 384.03 397.60 387.73 399.09
  Q 390.02 400.01 388.95 402.96
  Q 388.74 403.52 388.15 403.53
  L 387.82 403.54
  Q 387.27 403.55 387.26 403.00
  C 387.20 400.10 381.45 398.56 379.12 397.56
  Q 378.67 397.36 378.22 397.57
  L 370.97 400.91
  A 0.90 0.90 0.0 0 0 370.44 401.73
  L 370.46 409.96
  A 1.03 1.01 -77.9 0 0 371.05 410.89
  L 378.23 414.17
  Q 378.79 414.42 379.34 414.17
  L 386.38 410.98
  Z" fill="#5d91cf"></path>
<path d="M 242.22 440.97
  Q 243.07 440.57 242.41 439.90
  L 238.70 436.15
  Q 238.09 435.54 237.49 436.16
  L 235.60 438.11
  Q 235.24 438.50 234.81 438.17
  L 233.97 437.53
  Q 233.52 437.18 233.14 437.60
  L 231.21 439.69
  Q 230.52 440.44 229.86 439.66
  L 229.63 439.38
  A 0.71 0.71 0.0 0 1 229.66 438.43
  L 233.25 434.70
  Q 233.65 434.29 234.07 434.67
  L 234.89 435.43
  Q 235.30 435.80 235.67 435.39
  L 237.62 433.24
  Q 238.11 432.70 238.63 433.22
  L 245.08 439.76
  A 1.44 1.44 0.0 0 1 244.65 442.08
  L 236.65 445.71
  A 3.59 3.59 0.0 0 1 233.69 445.71
  L 225.53 441.99
  A 1.13 1.12 -77.7 0 1 224.88 440.97
  L 224.89 430.20
  Q 224.89 429.59 225.45 429.34
  L 234.65 425.22
  Q 235.13 425.01 235.61 425.21
  Q 239.82 427.00 243.94 428.84
  Q 246.03 429.77 245.46 432.61
  Q 245.29 433.45 244.44 433.32
  L 244.15 433.28
  Q 243.31 433.15 243.50 432.32
  Q 243.81 431.00 241.86 430.17
  Q 238.75 428.86 235.74 427.34
  Q 235.30 427.11 234.85 427.31
  L 228.19 430.29
  A 2.24 2.23 78.0 0 0 226.87 432.33
  L 226.87 439.26
  A 1.80 1.80 0.0 0 0 227.93 440.90
  L 234.82 444.03
  Q 235.19 444.20 235.56 444.03
  L 242.22 440.97
  Z" fill="#5d91cf"></path>
</svg>
