<svg viewBox="0.00 0.00 128.00 128.00" version="1.1" xmlns="http://www.w3.org/2000/svg">
<g stroke-linecap="butt" fill="none" stroke-width="2.00">
<path d="M 94.37 7.57
  Q 93.05 8.64 95.91 9.41
  Q 96.35 9.52 96.50 9.95
  Q 96.95 11.20 96.23 11.93
  Q 95.89 12.26 95.89 12.74
  L 95.89 14.73
  Q 95.88 15.19 95.64 15.57
  Q 94.50 17.32 95.89 18.68
  Q 96.23 19.02 96.28 19.49
  L 96.97 25.57
  Q 97.02 26.03 96.87 26.47
  Q 96.33 28.00 96.82 29.53
  Q 96.99 30.03 96.80 30.53
  Q 96.50 31.32 96.79 32.19
  Q 96.94 32.65 96.82 33.13
  Q 96.68 33.68 96.88 34.23" stroke="#d5716e"></path>
<path d="M 96.88 34.23
  Q 84.49 21.08 66.23 19.63" stroke="#6a353f"></path>
<path d="M 66.23 19.63
  C 65.52 16.51 63.60 14.31 62.95 11.32
  Q 62.02 7.00 60.63 2.76
  Q 60.48 2.28 60.01 2.13
  Q 58.55 1.65 57.85 0.39" stroke="#a9578e"></path>
<path d="M 66.23 19.63
  Q 50.55 19.22 37.56 28.20" stroke="#442955"></path>
<path d="M 37.56 28.20
  Q 36.54 27.13 36.55 26.22
  Q 36.56 25.89 36.47 25.58
  L 34.02 16.43
  Q 33.90 16.00 34.02 15.56
  Q 34.44 13.97 33.54 12.77
  Q 33.23 12.37 33.32 11.87
  Q 33.78 9.34 31.98 8.48" stroke="#653fb7"></path>
<path d="M 123.65 87.46
  Q 122.71 87.09 122.66 86.01
  Q 122.64 85.53 122.28 85.19
  C 120.96 83.94 120.67 82.68 119.00 81.46
  Q 118.79 81.32 118.98 81.15
  Q 119.18 80.97 119.43 80.90
  A 0.41 0.40 44.4 0 0 119.42 80.12
  Q 118.63 79.91 118.50 79.12
  Q 118.41 78.56 117.89 78.32
  Q 115.18 77.06 111.86 74.25
  Q 109.61 72.35 107.37 73.06" stroke="#d5716e"></path>
<path d="M 107.37 73.06
  Q 111.77 51.14 96.88 34.23" stroke="#704434"></path>
<path d="M 37.56 28.20
  Q 18.64 42.98 19.67 66.74" stroke="#261d68"></path>
<path d="M 19.67 66.74
  Q 19.57 65.24 14.97 65.99
  Q 14.49 66.07 14.17 66.42
  L 12.40 68.39
  Q 12.13 68.69 11.87 68.38
  Q 11.74 68.24 11.56 68.16
  Q 11.16 67.99 10.87 68.32
  Q 10.03 69.26 8.88 69.39
  Q 8.43 69.44 8.17 69.79
  L 4.74 74.35
  Q 4.54 74.62 4.21 74.50
  Q 4.06 74.45 3.89 74.34
  A 0.84 0.84 0.0 0 0 2.61 74.81
  L 1.55 78.51" stroke="#444bc9"></path>
<path d="M 107.37 73.06
  L 103.21 83.85" stroke="#6a353f"></path>
<path d="M 103.21 83.85
  Q 97.23 94.83 86.32 101.18" stroke="#5f3059"></path>
<path d="M 86.32 101.18
  Q 75.09 107.50 61.71 107.21" stroke="#3f356e"></path>
<path d="M 61.71 107.21
  C 57.22 106.29 53.38 106.18 48.45 104.31
  C 32.01 98.09 21.99 84.45 19.67 66.74" stroke="#233566"></path>
<path d="M 90.7868 64.0218
  A 26.80 26.46 1.8 0 0 64.8311 36.7331
  A 26.80 26.46 1.8 0 0 37.2132 62.3382
  A 26.80 26.46 1.8 0 0 63.1689 89.6269
  A 26.80 26.46 1.8 0 0 90.7868 64.0218" stroke="#828382"></path>
<path d="M 84.4955 62.7405
  A 20.51 20.39 -1.2 0 0 63.5630 42.7845
  A 20.51 20.39 -1.2 0 0 43.4845 63.5995
  A 20.51 20.39 -1.2 0 0 64.4170 83.5555
  A 20.51 20.39 -1.2 0 0 84.4955 62.7405" stroke="#828382"></path>
<path d="M 62.7885 52.9773
  A 3.32 3.32 0.0 0 0 58.0934 52.9445
  L 52.7817 58.1825
  A 3.32 3.32 0.0 0 0 52.7489 62.8776
  L 52.9315 63.0627
  A 3.32 3.32 0.0 0 0 57.6266 63.0955
  L 62.9383 57.8575
  A 3.32 3.32 0.0 0 0 62.9711 53.1624
  L 62.7885 52.9773" stroke="#828382"></path>
<path d="M 75.5818 69.6576
  A 2.94 2.94 0.0 0 0 75.5600 65.4999
  L 75.0909 65.0356
  A 2.94 2.94 0.0 0 0 70.9332 65.0574
  L 66.1782 69.8624
  A 2.94 2.94 0.0 0 0 66.2000 74.0201
  L 66.6691 74.4844
  A 2.94 2.94 0.0 0 0 70.8268 74.4626
  L 75.5818 69.6576" stroke="#828382"></path>
<path d="M 61.71 107.21
  L 61.54 108.55
  A 0.63 0.62 -88.9 0 1 60.97 109.10
  L 48.61 110.15
  Q 48.24 110.19 48.12 110.54
  Q 47.58 112.29 46.04 113.93" stroke="#5e63cf"></path>
<path d="M 46.04 113.93
  Q 43.48 114.69 41.28 112.98
  A 1.60 1.59 41.5 0 0 39.18 113.10
  L 36.80 115.43
  Q 36.64 115.59 35.87 115.86
  Q 35.24 116.08 34.70 115.69
  A 0.21 0.20 18.4 0 0 34.37 115.85
  L 34.37 116.25
  A 0.44 0.44 0.0 0 1 33.79 116.67
  Q 32.27 116.19 32.08 117.48
  A 0.67 0.66 -65.1 0 1 30.98 117.89
  Q 27.84 115.07 28.78 117.82" stroke="#644ed7"></path>
<path d="M 118.25 98.39
  Q 117.24 98.19 117.66 96.63
  Q 117.71 96.44 117.66 96.32
  Q 117.57 96.11 117.35 96.04
  Q 116.99 95.93 116.93 95.55
  Q 116.68 93.77 115.91 92.16
  C 115.35 90.98 114.35 90.57 113.12 90.60
  Q 112.68 90.61 112.45 90.24
  Q 112.06 89.63 111.25 89.80
  Q 109.33 90.21 108.15 88.91
  Q 108.05 88.80 107.57 88.42
  Q 107.28 88.19 107.39 87.88
  Q 107.52 87.51 107.24 87.23
  L 106.62 86.61
  Q 106.27 86.26 105.81 86.08
  Q 104.36 85.49 103.21 83.85" stroke="#c55d93"></path>
<path d="M 95.76 119.75
  Q 96.12 118.45 95.39 118.25
  A 2.44 1.38 26.2 0 0 93.59 118.35
  C 91.98 119.44 90.42 118.52 88.66 118.65
  A 1.13 1.12 -25.9 0 1 87.84 118.37
  C 86.33 117.01 84.58 115.75 83.27 114.20
  Q 82.54 113.33 81.02 113.79
  Q 79.83 114.15 78.09 113.71
  Q 77.63 113.60 77.61 113.13
  L 77.53 110.87" stroke="#a149ca"></path>
<path d="M 77.53 110.87
  C 78.86 110.36 80.26 110.61 81.44 110.18
  Q 82.27 109.87 83.09 109.49
  C 84.53 108.81 85.84 109.14 87.17 107.92
  Q 87.55 107.57 87.55 107.05
  Q 87.54 104.23 86.32 101.18" stroke="#9a5ec2"></path>
<path d="M 77.53 110.87
  Q 74.33 110.93 71.43 111.71
  C 70.28 112.02 68.84 111.64 67.70 112.98
  Q 67.39 113.33 66.93 113.33
  Q 64.76 113.35 63.10 114.63
  C 62.17 115.36 61.00 115.55 60.52 117.05
  A 0.90 0.87 2.0 0 1 59.85 117.65
  C 56.49 118.35 53.84 118.26 49.64 120.13
  Q 48.83 120.50 48.67 119.32
  A 0.40 0.39 62.1 0 1 48.77 118.99
  Q 49.00 118.76 48.84 118.41
  Q 48.71 118.12 48.41 118.12
  L 45.93 118.12
  Q 45.40 118.12 45.05 117.73
  Q 44.17 116.70 45.16 115.98
  Q 47.53 114.27 46.04 113.93" stroke="#814edf"></path>
</g>
<path d="M 61.88 0.00
  L 67.96 0.00
  Q 82.28 1.19 94.37 7.57
  Q 93.05 8.64 95.91 9.41
  Q 96.35 9.52 96.50 9.95
  Q 96.95 11.20 96.23 11.93
  Q 95.89 12.26 95.89 12.74
  L 95.89 14.73
  Q 95.88 15.19 95.64 15.57
  Q 94.50 17.32 95.89 18.68
  Q 96.23 19.02 96.28 19.49
  L 96.97 25.57
  Q 97.02 26.03 96.87 26.47
  Q 96.33 28.00 96.82 29.53
  Q 96.99 30.03 96.80 30.53
  Q 96.50 31.32 96.79 32.19
  Q 96.94 32.65 96.82 33.13
  Q 96.68 33.68 96.88 34.23
  Q 84.49 21.08 66.23 19.63
  C 65.52 16.51 63.60 14.31 62.95 11.32
  Q 62.02 7.00 60.63 2.76
  Q 60.48 2.28 60.01 2.13
  Q 58.55 1.65 57.85 0.39
  L 61.88 0.00
  Z" fill="#cf6278"></path>
<path d="M 57.85 0.39
  Q 58.55 1.65 60.01 2.13
  Q 60.48 2.28 60.63 2.76
  Q 62.02 7.00 62.95 11.32
  C 63.60 14.31 65.52 16.51 66.23 19.63
  Q 50.55 19.22 37.56 28.20
  Q 36.54 27.13 36.55 26.22
  Q 36.56 25.89 36.47 25.58
  L 34.02 16.43
  Q 33.90 16.00 34.02 15.56
  Q 34.44 13.97 33.54 12.77
  Q 33.23 12.37 33.32 11.87
  Q 33.78 9.34 31.98 8.48
  Q 44.21 1.62 57.85 0.39
  Z" fill="#834ba4"></path>
<path d="M 94.37 7.57
  C 113.68 18.03 125.96 37.09 128.00 58.89
  L 128.00 70.21
  Q 126.71 79.25 123.65 87.46
  Q 122.71 87.09 122.66 86.01
  Q 122.64 85.53 122.28 85.19
  C 120.96 83.94 120.67 82.68 119.00 81.46
  Q 118.79 81.32 118.98 81.15
  Q 119.18 80.97 119.43 80.90
  A 0.41 0.40 44.4 0 0 119.42 80.12
  Q 118.63 79.91 118.50 79.12
  Q 118.41 78.56 117.89 78.32
  Q 115.18 77.06 111.86 74.25
  Q 109.61 72.35 107.37 73.06
  Q 111.77 51.14 96.88 34.23
  Q 96.68 33.68 96.82 33.13
  Q 96.94 32.65 96.79 32.19
  Q 96.50 31.32 96.80 30.53
  Q 96.99 30.03 96.82 29.53
  Q 96.33 28.00 96.87 26.47
  Q 97.02 26.03 96.97 25.57
  L 96.28 19.49
  Q 96.23 19.02 95.89 18.68
  Q 94.50 17.32 95.64 15.57
  Q 95.88 15.19 95.89 14.73
  L 95.89 12.74
  Q 95.89 12.26 96.23 11.93
  Q 96.95 11.20 96.50 9.95
  Q 96.35 9.52 95.91 9.41
  Q 93.05 8.64 94.37 7.57
  Z" fill="#db8063"></path>
<path d="M 31.98 8.48
  Q 33.78 9.34 33.32 11.87
  Q 33.23 12.37 33.54 12.77
  Q 34.44 13.97 34.02 15.56
  Q 33.90 16.00 34.02 16.43
  L 36.47 25.58
  Q 36.56 25.89 36.55 26.22
  Q 36.54 27.13 37.56 28.20
  Q 18.64 42.98 19.67 66.74
  Q 19.57 65.24 14.97 65.99
  Q 14.49 66.07 14.17 66.42
  L 12.40 68.39
  Q 12.13 68.69 11.87 68.38
  Q 11.74 68.24 11.56 68.16
  Q 11.16 67.99 10.87 68.32
  Q 10.03 69.26 8.88 69.39
  Q 8.43 69.44 8.17 69.79
  L 4.74 74.35
  Q 4.54 74.62 4.21 74.50
  Q 4.06 74.45 3.89 74.34
  A 0.84 0.84 0.0 0 0 2.61 74.81
  L 1.55 78.51
  L 0.00 69.12
  L 0.00 60.00
  C 1.70 38.26 12.98 19.09 31.98 8.48
  Z" fill="#4733ca"></path>
<path d="M 66.23 19.63
  Q 84.49 21.08 96.88 34.23
  Q 111.77 51.14 107.37 73.06
  L 103.21 83.85
  Q 97.23 94.83 86.32 101.18
  Q 75.09 107.50 61.71 107.21
  C 57.22 106.29 53.38 106.18 48.45 104.31
  C 32.01 98.09 21.99 84.45 19.67 66.74
  Q 18.64 42.98 37.56 28.20
  Q 50.55 19.22 66.23 19.63
  Z
  M 90.7868 64.0218
  A 26.80 26.46 1.8 0 0 64.8311 36.7331
  A 26.80 26.46 1.8 0 0 37.2132 62.3382
  A 26.80 26.46 1.8 0 0 63.1689 89.6269
  A 26.80 26.46 1.8 0 0 90.7868 64.0218
  Z" fill="#040705"></path>
<path d="M 90.7868 64.0218
  A 26.80 26.46 1.8 0 1 63.1689 89.6269
  A 26.80 26.46 1.8 0 1 37.2132 62.3382
  A 26.80 26.46 1.8 0 1 64.8311 36.7331
  A 26.80 26.46 1.8 0 1 90.7868 64.0218
  Z
  M 84.4955 62.7405
  A 20.51 20.39 -1.2 0 0 63.5630 42.7845
  A 20.51 20.39 -1.2 0 0 43.4845 63.5995
  A 20.51 20.39 -1.2 0 0 64.4170 83.5555
  A 20.51 20.39 -1.2 0 0 84.4955 62.7405
  Z" fill="#ffffff"></path>
<path d="M 84.4955 62.7405
  A 20.51 20.39 -1.2 0 1 64.4170 83.5555
  A 20.51 20.39 -1.2 0 1 43.4845 63.5995
  A 20.51 20.39 -1.2 0 1 63.5630 42.7845
  A 20.51 20.39 -1.2 0 1 84.4955 62.7405
  Z
  M 62.7885 52.9773
  A 3.32 3.32 0.0 0 0 58.0934 52.9445
  L 52.7817 58.1825
  A 3.32 3.32 0.0 0 0 52.7489 62.8776
  L 52.9315 63.0627
  A 3.32 3.32 0.0 0 0 57.6266 63.0955
  L 62.9383 57.8575
  A 3.32 3.32 0.0 0 0 62.9711 53.1624
  L 62.7885 52.9773
  Z
  M 75.5818 69.6576
  A 2.94 2.94 0.0 0 0 75.5600 65.4999
  L 75.0909 65.0356
  A 2.94 2.94 0.0 0 0 70.9332 65.0574
  L 66.1782 69.8624
  A 2.94 2.94 0.0 0 0 66.2000 74.0201
  L 66.6691 74.4844
  A 2.94 2.94 0.0 0 0 70.8268 74.4626
  L 75.5818 69.6576
  Z" fill="#040705"></path>
<rect rx="3.32" height="6.90" width="14.10" transform="translate(57.86,58.02) rotate(-44.6)" y="-3.45" x="-7.05" fill="#ffffff"></rect>
<rect rx="2.94" height="12.64" width="6.54" transform="translate(70.88,69.76) rotate(44.7)" y="-6.32" x="-3.27" fill="#ffffff"></rect>
<path d="M 19.67 66.74
  C 21.99 84.45 32.01 98.09 48.45 104.31
  C 53.38 106.18 57.22 106.29 61.71 107.21
  L 61.54 108.55
  A 0.63 0.62 -88.9 0 1 60.97 109.10
  L 48.61 110.15
  Q 48.24 110.19 48.12 110.54
  Q 47.58 112.29 46.04 113.93
  Q 43.48 114.69 41.28 112.98
  A 1.60 1.59 41.5 0 0 39.18 113.10
  L 36.80 115.43
  Q 36.64 115.59 35.87 115.86
  Q 35.24 116.08 34.70 115.69
  A 0.21 0.20 18.4 0 0 34.37 115.85
  L 34.37 116.25
  A 0.44 0.44 0.0 0 1 33.79 116.67
  Q 32.27 116.19 32.08 117.48
  A 0.67 0.66 -65.1 0 1 30.98 117.89
  Q 27.84 115.07 28.78 117.82
  Q 7.65 103.44 1.55 78.51
  L 2.61 74.81
  A 0.84 0.84 0.0 0 1 3.89 74.34
  Q 4.06 74.45 4.21 74.50
  Q 4.54 74.62 4.74 74.35
  L 8.17 69.79
  Q 8.43 69.44 8.88 69.39
  Q 10.03 69.26 10.87 68.32
  Q 11.16 67.99 11.56 68.16
  Q 11.74 68.24 11.87 68.38
  Q 12.13 68.69 12.40 68.39
  L 14.17 66.42
  Q 14.49 66.07 14.97 65.99
  Q 19.57 65.24 19.67 66.74
  Z" fill="#4162c7"></path>
<path d="M 123.65 87.46
  L 118.25 98.39
  Q 117.24 98.19 117.66 96.63
  Q 117.71 96.44 117.66 96.32
  Q 117.57 96.11 117.35 96.04
  Q 116.99 95.93 116.93 95.55
  Q 116.68 93.77 115.91 92.16
  C 115.35 90.98 114.35 90.57 113.12 90.60
  Q 112.68 90.61 112.45 90.24
  Q 112.06 89.63 111.25 89.80
  Q 109.33 90.21 108.15 88.91
  Q 108.05 88.80 107.57 88.42
  Q 107.28 88.19 107.39 87.88
  Q 107.52 87.51 107.24 87.23
  L 106.62 86.61
  Q 106.27 86.26 105.81 86.08
  Q 104.36 85.49 103.21 83.85
  L 107.37 73.06
  Q 109.61 72.35 111.86 74.25
  Q 115.18 77.06 117.89 78.32
  Q 118.41 78.56 118.50 79.12
  Q 118.63 79.91 119.42 80.12
  A 0.41 0.40 44.4 0 1 119.43 80.90
  Q 119.18 80.97 118.98 81.15
  Q 118.79 81.32 119.00 81.46
  C 120.67 82.68 120.96 83.94 122.28 85.19
  Q 122.64 85.53 122.66 86.01
  Q 122.71 87.09 123.65 87.46
  Z" fill="#cf6278"></path>
<path d="M 103.21 83.85
  Q 104.36 85.49 105.81 86.08
  Q 106.27 86.26 106.62 86.61
  L 107.24 87.23
  Q 107.52 87.51 107.39 87.88
  Q 107.28 88.19 107.57 88.42
  Q 108.05 88.80 108.15 88.91
  Q 109.33 90.21 111.25 89.80
  Q 112.06 89.63 112.45 90.24
  Q 112.68 90.61 113.12 90.60
  C 114.35 90.57 115.35 90.98 115.91 92.16
  Q 116.68 93.77 116.93 95.55
  Q 116.99 95.93 117.35 96.04
  Q 117.57 96.11 117.66 96.32
  Q 117.71 96.44 117.66 96.63
  Q 117.24 98.19 118.25 98.39
  Q 109.88 111.77 95.76 119.75
  Q 96.12 118.45 95.39 118.25
  A 2.44 1.38 26.2 0 0 93.59 118.35
  C 91.98 119.44 90.42 118.52 88.66 118.65
  A 1.13 1.12 -25.9 0 1 87.84 118.37
  C 86.33 117.01 84.58 115.75 83.27 114.20
  Q 82.54 113.33 81.02 113.79
  Q 79.83 114.15 78.09 113.71
  Q 77.63 113.60 77.61 113.13
  L 77.53 110.87
  C 78.86 110.36 80.26 110.61 81.44 110.18
  Q 82.27 109.87 83.09 109.49
  C 84.53 108.81 85.84 109.14 87.17 107.92
  Q 87.55 107.57 87.55 107.05
  Q 87.54 104.23 86.32 101.18
  Q 97.23 94.83 103.21 83.85
  Z" fill="#ba58ad"></path>
<path d="M 86.32 101.18
  Q 87.54 104.23 87.55 107.05
  Q 87.55 107.57 87.17 107.92
  C 85.84 109.14 84.53 108.81 83.09 109.49
  Q 82.27 109.87 81.44 110.18
  C 80.26 110.61 78.86 110.36 77.53 110.87
  Q 74.33 110.93 71.43 111.71
  C 70.28 112.02 68.84 111.64 67.70 112.98
  Q 67.39 113.33 66.93 113.33
  Q 64.76 113.35 63.10 114.63
  C 62.17 115.36 61.00 115.55 60.52 117.05
  A 0.90 0.87 2.0 0 1 59.85 117.65
  C 56.49 118.35 53.84 118.26 49.64 120.13
  Q 48.83 120.50 48.67 119.32
  A 0.40 0.39 62.1 0 1 48.77 118.99
  Q 49.00 118.76 48.84 118.41
  Q 48.71 118.12 48.41 118.12
  L 45.93 118.12
  Q 45.40 118.12 45.05 117.73
  Q 44.17 116.70 45.16 115.98
  Q 47.53 114.27 46.04 113.93
  Q 47.58 112.29 48.12 110.54
  Q 48.24 110.19 48.61 110.15
  L 60.97 109.10
  A 0.63 0.62 -88.9 0 0 61.54 108.55
  L 61.71 107.21
  Q 75.09 107.50 86.32 101.18
  Z" fill="#7a63d7"></path>
<path d="M 77.53 110.87
  L 77.61 113.13
  Q 77.63 113.60 78.09 113.71
  Q 79.83 114.15 81.02 113.79
  Q 82.54 113.33 83.27 114.20
  C 84.58 115.75 86.33 117.01 87.84 118.37
  A 1.13 1.12 -25.9 0 0 88.66 118.65
  C 90.42 118.52 91.98 119.44 93.59 118.35
  A 2.44 1.38 26.2 0 1 95.39 118.25
  Q 96.12 118.45 95.76 119.75
  Q 84.04 126.32 70.08 128.00
  L 56.79 128.00
  Q 41.41 126.05 28.78 117.82
  Q 27.84 115.07 30.98 117.89
  A 0.67 0.66 -65.1 0 0 32.08 117.48
  Q 32.27 116.19 33.79 116.67
  A 0.44 0.44 0.0 0 0 34.37 116.25
  L 34.37 115.85
  A 0.21 0.20 18.4 0 1 34.70 115.69
  Q 35.24 116.08 35.87 115.86
  Q 36.64 115.59 36.80 115.43
  L 39.18 113.10
  A 1.60 1.59 41.5 0 1 41.28 112.98
  Q 43.48 114.69 46.04 113.93
  Q 47.53 114.27 45.16 115.98
  Q 44.17 116.70 45.05 117.73
  Q 45.40 118.12 45.93 118.12
  L 48.41 118.12
  Q 48.71 118.12 48.84 118.41
  Q 49.00 118.76 48.77 118.99
  A 0.40 0.39 62.1 0 0 48.67 119.32
  Q 48.83 120.50 49.64 120.13
  C 53.84 118.26 56.49 118.35 59.85 117.65
  A 0.90 0.87 2.0 0 0 60.52 117.05
  C 61.00 115.55 62.17 115.36 63.10 114.63
  Q 64.76 113.35 66.93 113.33
  Q 67.39 113.33 67.70 112.98
  C 68.84 111.64 70.28 112.02 71.43 111.71
  Q 74.33 110.93 77.53 110.87
  Z" fill="#8739e6"></path>
</svg>
