<svg viewBox="0.00 0.00 180.00 180.00" version="1.1" xmlns="http://www.w3.org/2000/svg">
<g stroke-linecap="butt" fill="none" stroke-width="2.00">
<path d="M 27.54 55.05
  L 31.47 54.60" stroke="#c88ee9"></path>
<path d="M 31.47 54.60
  L 33.98 54.40
  Q 35.72 54.26 34.33 55.31
  L 28.05 60.03
  A 1.90 1.87 -11.2 0 0 27.36 61.04
  L 22.75 77.24
  A 0.41 0.41 0.0 0 0 23.25 77.74
  L 34.51 74.75
  Q 35.48 74.49 35.15 75.44
  L 25.72 102.55
  A 0.45 0.45 0.0 0 0 26.14 103.15
  L 38.53 103.08
  A 0.42 0.41 -86.3 0 1 38.94 103.55
  L 34.94 135.18
  A 0.75 0.75 0.0 0 0 35.68 136.02
  L 53.73 135.99
  Q 54.21 135.98 54.30 136.46
  L 56.89 150.76" stroke="#b298ba"></path>
<path d="M 56.89 150.76
  L 58.23 158.97
  Q 58.32 159.49 58.85 159.47
  Q 60.82 159.42 62.73 158.65" stroke="#bba7ca"></path>
<path d="M 62.73 158.65
  L 73.19 156.39
  Q 73.72 156.27 74.17 156.59
  L 90.03 167.89
  A 0.34 0.33 44.0 0 0 90.42 167.89
  L 106.41 156.62
  A 1.30 1.29 -60.0 0 1 107.30 156.38
  L 113.70 157.05" stroke="#b298ba"></path>
<path d="M 113.70 157.05
  L 119.96 157.60" stroke="#96959c"></path>
<path d="M 119.96 157.60
  L 123.04 158.14
  A 0.72 0.71 -80.9 0 0 123.86 157.54
  L 127.10 135.37
  Q 127.22 134.49 128.11 134.50
  L 146.08 134.65
  A 0.74 0.73 -84.2 0 0 146.80 134.06
  Q 146.94 133.36 146.57 132.50" stroke="#bba7ca"></path>
<path d="M 146.57 132.50
  L 146.26 129.02" stroke="#c88ee9"></path>
<path d="M 146.26 129.02
  L 142.94 101.83" stroke="#b298ba"></path>
<path d="M 142.94 101.83
  L 153.96 101.77" stroke="#a9abce"></path>
<path d="M 153.96 101.77
  Q 154.86 101.92 155.24 101.70
  Q 155.58 101.50 155.34 100.74
  Q 151.23 87.90 147.17 74.96
  A 0.28 0.28 0.0 0 1 147.48 74.60
  L 158.00 76.09
  A 0.57 0.56 86.5 0 0 158.62 75.38
  L 154.38 59.91
  A 1.78 1.72 -80.1 0 0 153.73 58.95
  L 145.52 52.95
  A 0.33 0.33 0.0 0 1 145.77 52.36
  L 156.99 54.25
  Q 158.14 54.44 157.59 53.42
  Q 157.09 52.48 156.62 52.14" stroke="#b298ba"></path>
<path d="M 156.62 52.14
  L 139.42 26.97
  Q 139.13 26.55 138.61 26.55
  L 115.29 26.54" stroke="#c4a4c7"></path>
<path d="M 115.29 26.54
  Q 115.16 26.48 115.11 26.29
  Q 115.06 26.09 115.20 25.93
  L 120.14 20.38
  Q 120.94 19.48 119.74 19.55
  L 98.94 20.67
  A 1.30 1.29 66.6 0 1 97.94 20.27
  L 91.36 13.36
  A 0.53 0.53 0.0 0 0 90.58 13.36
  L 84.12 20.32
  A 1.03 1.02 22.9 0 1 83.30 20.65
  L 63.23 19.55
  Q 61.83 19.47 62.74 20.54
  L 67.25 25.85
  Q 67.84 26.55 66.92 26.55
  L 43.97 26.52
  Q 43.34 26.52 43.01 27.04
  L 25.48 54.51
  A 0.48 0.47 -70.2 0 0 25.82 55.24
  Q 26.60 55.34 27.54 55.05" stroke="#b298ba"></path>
<path d="M 115.29 26.54
  Q 115.48 26.75 114.99 27.32" stroke="#773c82"></path>
<path d="M 114.99 27.32
  L 101.02 28.46
  Q 100.78 28.48 100.73 28.73
  L 96.44 49.77
  Q 95.98 52.03 97.44 50.24
  Q 102.11 44.54 107.31 38.47
  C 109.73 35.65 112.99 34.76 116.25 33.34" stroke="#815a96"></path>
<path d="M 116.25 33.34
  Q 116.81 33.64 116.54 34.01" stroke="#773c82"></path>
<path d="M 116.54 34.01
  L 113.22 35.61
  Q 111.18 36.60 113.45 36.72
  L 120.10 37.06
  A 1.34 1.32 13.4 0 0 121.37 36.29
  Q 122.27 34.36 124.27 32.82" stroke="#8f208a"></path>
<path d="M 124.27 32.82
  C 130.55 28.47 139.20 28.70 142.53 36.36
  C 143.34 38.25 143.43 40.18 143.45 42.24
  Q 143.47 43.21 142.86 43.40" stroke="#773c82"></path>
<path d="M 142.86 43.40
  C 142.58 41.65 142.92 39.81 142.39 38.23
  Q 139.32 29.02 129.00 31.46
  Q 124.25 32.59 122.06 36.70
  A 0.50 0.49 -75.1 0 0 122.48 37.43
  L 132.88 37.76
  Q 133.41 37.78 133.85 38.06
  L 143.01 43.93" stroke="#b21887"></path>
<path d="M 143.01 43.93
  Q 149.29 48.58 156.62 52.14" stroke="#773c82"></path>
<path d="M 153.96 101.77
  L 153.84 100.76
  Q 153.80 100.35 153.52 100.03
  L 126.16 68.82
  Q 120.91 62.85 124.84 69.76
  Q 131.90 82.19 140.95 97.98
  Q 141.16 98.35 141.18 98.75
  Q 141.19 99.16 140.90 98.88
  L 140.54 98.54" stroke="#5c4489"></path>
<path d="M 140.54 98.54
  L 127.87 76.38
  Q 127.64 75.97 127.17 75.99
  L 124.80 76.12
  Q 124.24 76.14 124.23 76.70
  L 124.06 86.17
  A 0.94 0.94 0.0 0 0 124.42 86.93
  L 140.06 99.29" stroke="#7a40b2"></path>
<path d="M 140.06 99.29
  Q 140.28 99.81 140.73 99.91
  Q 140.90 99.94 140.98 99.75
  Q 141.09 99.49 141.34 99.62
  Q 143.21 100.60 142.94 101.83" stroke="#5c4489"></path>
<path d="M 146.26 129.02
  Q 145.48 129.26 145.65 128.98" stroke="#7b26a4"></path>
<path d="M 145.65 128.98
  L 131.50 102.28
  Q 131.24 101.78 130.70 101.62
  L 118.61 97.98
  Q 118.14 97.84 117.94 98.28
  L 112.33 110.41
  A 0.81 0.81 0.0 0 0 113.17 111.55
  L 123.70 110.11
  A 0.73 0.71 64.3 0 1 124.30 110.33
  L 144.46 132.18" stroke="#7a40b2"></path>
<path d="M 144.46 132.18
  Q 135.57 123.66 125.32 111.93
  Q 124.24 110.71 122.78 110.97
  C 119.48 111.58 116.20 111.69 112.84 112.42" stroke="#7b26a4"></path>
<path d="M 112.84 112.42
  L 112.28 120.15
  Q 112.26 120.50 112.00 120.75
  L 111.75 120.98" stroke="#773c82"></path>
<path d="M 111.75 120.98
  L 106.04 127.73" stroke="#7a40b2"></path>
<path d="M 106.04 127.73
  L 105.76 127.19" stroke="#7a1e63"></path>
<path d="M 105.76 127.19
  L 111.25 120.55
  Q 111.58 120.16 111.61 119.65
  C 111.80 116.68 111.65 113.70 111.73 110.73
  C 111.82 107.65 105.88 107.17 103.56 106.39
  A 0.81 0.80 21.5 0 0 102.56 106.82
  L 100.81 110.66" stroke="#b21887"></path>
<path d="M 100.81 110.66
  Q 100.95 109.93 100.59 109.94" stroke="#7a1e63"></path>
<path d="M 100.59 109.94
  L 102.28 106.12
  Q 102.50 105.63 103.02 105.77
  L 109.54 107.49
  A 0.46 0.45 85.4 0 0 110.07 106.86
  L 108.24 102.76" stroke="#b24ca3"></path>
<path d="M 108.24 102.76
  Q 108.72 102.34 109.06 101.74
  Q 109.26 101.38 109.41 101.77
  C 110.33 104.17 110.11 106.21 111.58 108.58
  A 0.56 0.56 0.0 0 0 112.57 108.51
  L 117.15 98.14
  A 1.21 1.19 38.4 0 0 117.00 96.92
  Q 113.61 92.64 110.11 88.64
  Q 109.70 88.18 108.97 88.29" stroke="#98358c"></path>
<path d="M 108.97 88.29
  L 108.26 86.46" stroke="#b21887"></path>
<path d="M 108.26 86.46
  Q 108.30 86.03 108.48 85.69" stroke="#7a1e63"></path>
<path d="M 108.48 85.69
  Q 108.70 85.85 109.02 85.85
  Q 109.25 85.84 109.51 85.66
  Q 115.73 81.30 121.18 77.27
  Q 123.09 75.86 120.75 76.27
  L 119.50 76.49" stroke="#a73d76"></path>
<path d="M 119.50 76.49
  Q 120.44 75.63 118.03 75.96" stroke="#7a1e63"></path>
<path d="M 118.03 75.96
  L 126.66 75.36
  A 0.41 0.40 -16.2 0 0 126.99 74.76
  L 119.02 60.75
  A 0.52 0.52 0.0 0 1 119.25 60.02
  L 125.56 57.00" stroke="#b24ca3"></path>
<path d="M 125.56 57.00
  Q 125.62 57.04 125.64 57.32
  Q 125.66 57.48 125.52 57.54
  L 120.77 59.77
  Q 119.36 60.43 120.39 61.59
  L 136.67 79.79" stroke="#8f208a"></path>
<path d="M 136.67 79.79
  L 152.41 97.68
  Q 153.38 98.78 153.36 97.31
  C 153.34 95.59 152.18 93.73 151.76 92.38
  Q 148.82 82.91 145.87 73.55" stroke="#862398"></path>
<path d="M 145.87 73.55
  L 142.33 60.58
  A 1.27 1.27 0.0 0 0 141.35 59.67
  L 125.49 56.62" stroke="#8f208a"></path>
<path d="M 125.49 56.62
  L 109.52 53.21
  Q 108.32 52.95 107.73 54.03
  L 102.87 62.83
  A 0.94 0.93 31.8 0 0 103.16 64.04
  L 106.83 66.57
  A 0.94 0.93 17.4 0 1 107.24 67.34
  L 107.29 73.13" stroke="#b24ca3"></path>
<path d="M 107.29 73.13
  L 106.49 73.12" stroke="#492e57"></path>
<path d="M 106.49 73.12
  L 106.52 67.67
  A 0.90 0.86 -72.8 0 0 106.16 66.95
  L 102.79 64.46
  Q 102.23 64.05 101.88 64.65
  L 100.35 67.30
  A 0.78 0.78 0.0 0 0 100.50 68.26
  Q 102.69 70.24 103.73 72.89" stroke="#a73d76"></path>
<path d="M 103.73 72.89
  L 99.66 67.92
  A 0.54 0.52 40.0 0 1 99.60 67.33
  L 107.56 52.96
  A 1.50 1.48 7.8 0 1 108.53 52.23
  L 120.83 49.56
  Q 121.24 49.47 121.35 49.07
  L 121.57 48.30" stroke="#b21887"></path>
<path d="M 121.57 48.30
  C 122.96 48.46 124.21 48.74 125.61 48.34
  Q 130.08 47.06 134.73 46.17" stroke="#862398"></path>
<path d="M 134.73 46.17
  Q 138.96 47.56 142.74 50.83
  A 1.69 1.66 -20.0 0 0 143.60 51.22
  Q 146.62 51.65 152.73 53.14
  Q 153.77 53.39 154.47 52.81
  Q 154.82 52.53 154.44 52.28
  L 133.04 38.36" stroke="#7b26a4"></path>
<path d="M 133.04 38.36
  L 110.65 37.37
  A 3.05 3.02 -68.6 0 0 108.18 38.46
  L 103.51 44.01
  A 0.50 0.50 0.0 0 0 103.80 44.82
  L 121.57 48.30" stroke="#862398"></path>
<path d="M 121.57 48.30
  Q 121.37 48.77 120.74 48.65
  Q 113.20 47.22 105.62 46.10
  Q 105.12 46.03 104.88 46.48
  L 91.82 70.97
  A 1.26 1.24 -53.7 0 0 92.03 72.42
  L 101.94 82.51
  Q 102.26 82.84 102.26 83.30
  C 102.22 86.09 102.01 88.02 103.27 90.64
  Q 105.67 95.67 107.87 100.78" stroke="#b21887"></path>
<path d="M 107.87 100.78
  Q 107.95 101.18 107.50 101.27" stroke="#98358c"></path>
<path d="M 107.50 101.27
  Q 104.82 95.52 102.23 89.70
  C 101.29 87.59 101.54 85.82 101.52 83.57
  A 1.38 1.37 -67.2 0 0 101.13 82.61
  L 91.40 72.65
  A 0.69 0.68 -43.5 0 0 90.45 72.63
  L 79.49 82.77
  Q 79.14 83.09 79.13 83.57
  C 79.04 86.14 79.32 88.10 78.27 90.54
  Q 74.68 98.94 70.75 107.65" stroke="#b24ca3"></path>
<path d="M 70.75 107.65
  Q 70.94 105.54 71.74 103.58
  C 72.53 101.63 71.70 99.48 71.97 97.41
  Q 72.51 93.33 72.65 89.82
  Q 72.75 87.46 71.22 89.26
  L 63.96 97.83" stroke="#98358c"></path>
<path d="M 63.96 97.83
  L 72.38 87.03" stroke="#ac6aba"></path>
<path d="M 72.38 87.03
  Q 74.34 84.60 77.10 82.86" stroke="#a73d76"></path>
<path d="M 77.10 82.86
  Q 76.05 84.26 73.96 86.21
  C 72.54 87.54 73.26 89.25 73.13 90.56
  Q 72.66 95.40 72.38 100.27
  Q 72.36 100.63 72.73 100.62
  Q 72.86 100.62 72.99 100.62
  Q 73.42 100.63 73.57 100.23
  C 75.85 94.34 79.30 89.45 78.52 82.73" stroke="#b21887"></path>
<path d="M 78.52 82.73
  L 79.19 82.07" stroke="#7a1e63"></path>
<path d="M 79.19 82.07
  L 89.68 72.43
  A 1.41 1.41 0.0 0 0 89.97 70.72
  L 76.95 46.35
  A 0.55 0.55 0.0 0 0 76.36 46.07
  Q 68.39 47.68 60.25 49.24
  Q 59.70 49.34 59.43 49.68
  A 0.32 0.32 0.0 0 0 59.62 50.19
  Q 65.74 51.39 71.89 52.64
  Q 72.47 52.76 73.07 53.69" stroke="#b21887"></path>
<path d="M 73.07 53.69
  Q 72.58 53.88 72.71 54.22" stroke="#7a1e63"></path>
<path d="M 72.71 54.22
  Q 72.23 53.54 71.27 53.77
  Q 64.18 55.41 57.09 56.96
  Q 55.13 57.39 56.94 58.27
  L 61.12 60.30
  A 0.57 0.57 0.0 0 1 61.37 61.08
  L 53.85 75.31
  A 0.55 0.55 0.0 0 0 54.45 76.11
  Q 56.27 75.73 57.59 76.19" stroke="#b24ca3"></path>
<path d="M 57.59 76.19
  Q 56.56 76.41 56.83 76.82" stroke="#7a1e63"></path>
<path d="M 56.83 76.82
  C 54.76 76.26 53.42 76.29 52.33 78.37
  Q 46.67 89.23 41.01 100.07" stroke="#7a40b2"></path>
<path d="M 41.01 100.07
  Q 40.48 100.51 40.74 101.16
  Q 40.93 101.62 40.55 101.94
  C 39.79 102.60 39.36 103.05 39.36 104.16
  C 39.37 107.94 38.56 111.49 38.17 115.34
  Q 37.94 117.75 37.31 120.72
  Q 37.11 121.67 37.80 122.34
  Q 38.18 122.72 38.44 122.25
  L 49.29 102.98" stroke="#7b26a4"></path>
<path d="M 49.29 102.98
  Q 49.94 102.36 50.25 102.27
  Q 56.17 100.66 61.74 98.75
  A 1.04 1.04 0.0 0 0 62.32 97.27
  L 57.87 88.99
  A 0.85 0.85 0.0 0 0 56.59 88.74
  L 44.85 98.52" stroke="#862398"></path>
<path d="M 44.85 98.52
  Q 43.09 100.45 41.20 100.99" stroke="#7b26a4"></path>
<path d="M 41.20 100.99
  L 56.79 87.92
  Q 57.16 87.61 57.13 87.12
  Q 56.96 84.62 56.79 78.50
  Q 56.76 77.51 57.36 77.48" stroke="#7a40b2"></path>
<path d="M 57.36 77.48
  Q 57.32 81.39 57.69 85.19
  Q 57.96 87.84 59.38 90.48
  Q 61.36 94.12 63.27 97.81" stroke="#ac6aba"></path>
<path d="M 63.27 97.81
  L 63.57 97.87
  Q 64.02 97.96 63.96 98.42
  Q 63.94 98.58 63.92 98.76
  Q 63.90 98.91 63.95 99.04
  L 68.23 109.62" stroke="#98358c"></path>
<path d="M 68.23 109.62
  L 63.56 99.36
  Q 63.33 98.84 62.78 99.01
  L 50.92 102.67
  A 2.39 2.33 -83.0 0 0 49.56 103.76
  Q 43.44 114.47 37.55 125.14
  C 36.16 127.66 36.15 130.00 36.05 132.70
  Q 35.99 134.30 37.05 133.10
  L 56.23 111.50
  Q 56.60 111.08 57.16 111.15
  Q 62.38 111.78 67.36 112.58
  Q 67.82 112.65 67.87 113.04" stroke="#7a40b2"></path>
<path d="M 67.87 113.04
  Q 67.82 113.16 67.77 113.27
  Q 67.74 113.33 67.68 113.32
  L 57.43 111.69
  A 0.92 0.89 -64.0 0 0 56.63 111.98
  L 36.78 134.31
  A 0.58 0.57 -68.8 0 0 37.20 135.27
  L 53.16 135.38
  A 1.91 1.90 16.1 0 0 54.77 134.50
  Q 60.89 124.84 67.22 115.30
  Q 67.25 115.26 67.30 115.23
  Q 67.42 115.18 67.53 115.13" stroke="#7b26a4"></path>
<path d="M 67.53 115.13
  Q 67.74 115.20 67.79 115.32
  Q 67.83 115.41 67.73 115.57
  Q 61.53 125.49 55.02 135.22
  A 0.58 0.56 57.7 0 0 54.93 135.64
  L 56.44 145.60
  Q 56.50 146.03 56.71 146.41
  Q 57.82 148.50 56.89 150.76" stroke="#6e4085"></path>
<path d="M 31.47 54.60
  Q 30.67 54.73 30.64 54.71
  Q 29.15 54.22 30.75 53.96
  Q 33.03 53.60 35.29 53.83
  A 1.64 1.63 28.4 0 0 36.45 53.49
  L 43.70 47.66
  A 2.54 2.51 32.1 0 1 45.87 47.18
  C 50.24 48.23 55.01 49.68 59.58 48.73
  Q 68.84 46.82 78.08 44.86
  A 0.23 0.23 0.0 0 0 78.21 44.49
  L 72.45 37.62
  A 0.73 0.71 -20.8 0 0 71.85 37.36
  L 49.27 38.48
  A 2.97 2.94 25.0 0 0 47.70 39.04
  L 28.16 53.46
  Q 27.84 53.70 27.75 54.09
  L 27.54 55.05" stroke="#7b26a4"></path>
<path d="M 140.06 99.29
  Q 140.45 99.02 140.54 98.54" stroke="#7054c6"></path>
<path d="M 63.96 97.83
  Q 63.86 97.67 63.27 97.81" stroke="#df6fd1"></path>
<path d="M 146.57 132.50
  L 145.06 133.51
  Q 144.65 133.79 144.14 133.79
  L 126.83 133.80" stroke="#8336b4"></path>
<path d="M 126.83 133.80
  L 113.16 113.67" stroke="#7b26a4"></path>
<path d="M 113.16 113.67
  L 112.84 112.42" stroke="#8d32b1"></path>
<path d="M 78.52 82.73
  Q 77.91 82.88 77.22 82.62" stroke="#c70674"></path>
<path d="M 77.22 82.62
  Q 76.57 81.89 75.99 82.02
  C 71.86 82.97 70.09 81.16 67.73 78.18
  Q 67.36 77.72 66.78 77.68
  L 61.27 77.29
  Q 58.93 77.13 60.89 78.43
  L 71.90 85.79" stroke="#bc2b63"></path>
<path d="M 71.90 85.79
  L 57.72 77.20" stroke="#c158a8"></path>
<path d="M 57.72 77.20
  L 56.83 76.82" stroke="#8e2ea0"></path>
<path d="M 71.22 73.40
  L 70.81 75.31" stroke="#5d1b45"></path>
<path d="M 70.81 75.31
  Q 69.57 77.55 71.35 78.98
  C 74.71 81.69 79.54 76.87 77.04 74.45" stroke="#bb74a7"></path>
<path d="M 77.04 74.45
  Q 77.16 73.86 76.88 73.93" stroke="#5d1b45"></path>
<path d="M 76.88 73.93
  L 80.81 68.21
  A 0.80 0.79 -43.9 0 0 80.83 67.32
  L 78.64 63.78" stroke="#bc2b63"></path>
<path d="M 57.72 77.20
  Q 57.37 77.40 57.36 77.48" stroke="#c17af7"></path>
<path d="M 41.20 100.99
  Q 41.80 100.65 41.12 100.73
  Q 41.04 100.74 41.01 100.67
  Q 40.86 100.35 41.01 100.07" stroke="#8f36e1"></path>
<path d="M 106.49 73.12
  L 104.96 73.63" stroke="#8b3b58"></path>
<path d="M 104.96 73.63
  Q 104.23 73.41 103.47 73.43" stroke="#bc2b63"></path>
<path d="M 71.96 108.56
  Q 69.44 108.72 69.70 109.78" stroke="#ac2379"></path>
<path d="M 69.70 109.78
  Q 69.45 109.83 69.41 110.06" stroke="#e51d9d"></path>
<path d="M 69.41 110.06
  Q 68.90 109.79 68.74 109.91" stroke="#98358c"></path>
<path d="M 68.74 109.91
  Q 68.12 108.78 68.23 109.62" stroke="#ac45c9"></path>
<path d="M 79.19 82.07
  L 78.17 73.41
  Q 78.11 72.89 78.43 72.47
  L 81.37 68.63
  A 1.52 1.50 47.8 0 0 81.44 66.90
  L 73.07 53.69" stroke="#c70674"></path>
<path d="M 109.33 100.86
  Q 109.71 100.90 109.67 99.25
  Q 109.54 93.88 109.01 88.35" stroke="#98358c"></path>
<path d="M 49.29 102.98
  Q 49.15 102.76 48.67 102.91
  Q 48.41 102.99 48.40 102.71
  L 48.40 102.24
  Q 48.39 101.94 48.18 101.73
  L 44.85 98.52" stroke="#9c19c7"></path>
<path d="M 68.74 109.91
  Q 68.53 109.90 68.45 110.09
  Q 68.40 110.21 68.47 110.40
  Q 69.09 112.01 68.18 112.96" stroke="#7a40b2"></path>
<path d="M 68.18 112.96
  L 67.87 113.04" stroke="#8f36e1"></path>
<path d="M 68.30 114.72
  Q 67.49 114.68 67.53 115.13" stroke="#8336b4"></path>
<path d="M 145.65 128.98
  L 145.63 130.96
  Q 145.63 131.47 145.19 131.74
  L 144.46 132.18" stroke="#8f36e1"></path>
<path d="M 145.87 73.55
  Q 143.36 72.43 142.12 74.55
  Q 141.87 74.98 141.38 75.07
  Q 140.00 75.32 139.11 76.51
  Q 138.78 76.95 138.24 77.09
  Q 137.02 77.41 136.08 78.27
  A 0.21 0.20 -65.2 0 0 136.21 78.63
  Q 136.35 78.63 136.48 78.63
  Q 136.70 78.63 136.80 78.83
  Q 137.04 79.30 136.67 79.79" stroke="#b013ac"></path>
<path d="M 109.34 73.23
  Q 110.38 73.57 110.49 75.61" stroke="#5d1b45"></path>
<path d="M 110.49 75.61
  C 108.28 76.77 106.20 78.13 105.01 74.40" stroke="#8a849c"></path>
<path d="M 105.01 74.40
  Q 104.73 74.29 104.96 73.63" stroke="#5d1b45"></path>
<path d="M 100.81 110.66
  Q 99.22 111.72 96.93 112.16
  Q 96.44 112.25 96.11 112.64
  Q 93.82 115.32 92.94 118.77
  Q 92.80 119.31 93.06 119.80
  L 96.36 125.94
  Q 96.94 127.02 98.17 127.04
  L 105.76 127.19" stroke="#c70674"></path>
<path d="M 106.04 127.73
  Q 106.10 128.29 103.74 127.47" stroke="#8e2ea0"></path>
<path d="M 103.74 127.47
  L 97.34 127.55
  Q 96.73 127.55 96.43 127.02
  L 92.83 120.51
  A 2.57 2.57 0.0 0 0 88.33 120.52
  L 84.75 127.05
  A 0.87 0.85 13.7 0 1 83.99 127.50
  L 76.52 127.54" stroke="#c158a8"></path>
<path d="M 76.52 127.54
  Q 77.06 126.76 77.76 126.82
  Q 80.66 127.05 83.66 126.91
  Q 84.21 126.89 84.48 126.40
  L 88.14 119.61
  A 0.87 0.86 47.7 0 0 88.17 118.85
  L 85.38 112.50" stroke="#c70674"></path>
<path d="M 85.38 112.50
  Q 87.15 112.99 87.38 115.00
  Q 87.39 115.13 87.52 115.13
  Q 87.64 115.13 87.77 115.12
  Q 88.04 115.11 88.14 114.86
  Q 88.54 113.78 88.06 112.57
  Q 87.89 112.14 87.45 112.00
  Q 86.47 111.68 85.38 112.50" stroke="#ba0663"></path>
<path d="M 85.38 112.50
  Q 83.63 112.03 82.34 110.96" stroke="#c70674"></path>
<path d="M 82.34 110.96
  Q 85.06 111.29 87.52 111.35
  Q 89.14 111.39 89.37 112.94
  Q 89.48 113.67 88.83 114.97
  Q 88.03 116.56 88.54 117.64
  A 2.18 2.18 0.0 0 0 92.36 117.88
  Q 92.56 117.58 92.24 117.01
  Q 92.01 116.60 91.95 116.13
  C 91.19 110.05 93.97 111.36 98.37 111.02
  A 0.50 0.50 0.0 0 0 98.72 110.21
  Q 98.05 109.39 97.04 109.01
  Q 96.61 108.84 96.19 109.03
  Q 92.21 110.80 87.92 109.78
  Q 87.89 109.78 87.89 109.74
  L 87.95 109.45
  Q 87.99 109.25 88.19 109.28
  Q 92.12 109.79 95.86 108.51
  Q 96.51 108.29 96.23 107.67
  L 90.86 95.97
  Q 90.49 95.18 90.11 95.97
  Q 87.08 102.21 84.63 108.48
  Q 84.19 109.62 82.40 110.03" stroke="#ba0663"></path>
<path d="M 119.50 76.49
  Q 116.51 76.25 113.84 77.32
  A 1.61 1.56 3.0 0 0 113.05 78.01
  Q 110.53 82.34 105.55 81.19
  Q 103.22 80.64 104.95 82.30
  L 108.48 85.69" stroke="#bc2b63"></path>
<path d="M 105.01 74.40
  Q 103.37 74.25 103.47 75.77
  C 103.66 78.68 107.91 80.57 110.32 78.35
  Q 112.02 76.77 110.49 75.61" stroke="#bb74a7"></path>
<path d="M 143.01 43.93
  Q 143.05 43.46 142.86 43.40" stroke="#c42494"></path>
<path d="M 124.27 32.82
  L 123.11 31.53
  Q 122.82 31.21 122.44 31.39
  L 116.54 34.01" stroke="#a12c97"></path>
<path d="M 116.25 33.34
  Q 121.74 30.57 127.34 28.07
  Q 127.94 27.80 127.58 27.39
  A 0.37 0.37 0.0 0 0 127.30 27.26
  L 114.99 27.32" stroke="#9366a3"></path>
<path d="M 113.16 113.67
  L 126.29 133.81" stroke="#773c82"></path>
<path d="M 126.29 133.81
  Q 126.20 134.77 126.42 135.64
  Q 126.52 136.07 126.28 136.43
  C 125.10 138.19 125.95 140.47 125.31 142.45
  Q 124.67 144.46 124.61 145.72
  Q 124.50 147.94 124.06 150.18
  Q 123.96 150.73 123.43 150.92
  L 121.99 151.43
  Q 121.88 151.47 121.84 151.35
  L 112.32 121.30" stroke="#804c92"></path>
<path d="M 112.32 121.30
  Q 112.20 121.64 111.75 120.98" stroke="#8c4cbf"></path>
<path d="M 133.04 38.36
  L 129.05 38.40
  Q 128.68 38.41 128.92 38.69
  Q 129.29 39.15 129.02 39.57
  Q 128.69 40.08 129.11 40.51
  L 134.73 46.17" stroke="#9c19c7"></path>
<path d="M 107.50 101.27
  Q 107.68 102.27 108.24 102.76" stroke="#e551b9"></path>
<path d="M 100.59 109.94
  Q 100.44 110.02 100.27 110.07
  Q 99.90 110.18 99.59 109.97
  C 98.22 109.05 97.15 108.28 96.44 106.69
  Q 93.71 100.56 90.73 94.61
  A 0.35 0.35 0.0 0 0 90.10 94.62
  Q 87.31 100.57 84.76 106.67
  C 84.19 108.05 83.24 108.78 82.40 110.03" stroke="#c73a90"></path>
<path d="M 82.40 110.03
  Q 82.22 110.21 81.74 110.33" stroke="#f334a3"></path>
<path d="M 81.74 110.33
  Q 80.11 108.77 79.23 106.69
  A 0.69 0.69 0.0 0 0 78.37 106.31
  L 71.96 108.56" stroke="#c73a90"></path>
<path d="M 71.96 108.56
  Q 71.10 108.84 70.75 107.65" stroke="#e551b9"></path>
<path d="M 103.73 72.89
  Q 103.44 72.59 103.47 73.43" stroke="#f42587"></path>
<path d="M 103.47 73.43
  L 102.09 80.79
  Q 101.99 81.35 102.55 81.43
  L 103.05 81.51
  Q 103.53 81.59 103.86 81.94
  L 108.26 86.46" stroke="#c70674"></path>
<path d="M 108.97 88.29
  Q 108.99 88.32 109.01 88.35" stroke="#e51d9d"></path>
<path d="M 109.01 88.35
  Q 108.47 94.37 109.33 100.86" stroke="#b21887"></path>
<path d="M 109.33 100.86
  Q 109.09 100.79 108.88 100.97
  Q 108.65 101.17 108.36 101.10
  Q 108.06 101.03 107.87 100.78" stroke="#e51d9d"></path>
<path d="M 125.49 56.62
  L 125.56 57.00" stroke="#dc3cb7"></path>
<path d="M 118.03 75.96
  C 114.70 76.42 112.89 73.38 109.34 73.23" stroke="#c73a90"></path>
<path d="M 109.34 73.23
  L 107.29 73.13" stroke="#964a85"></path>
<path d="M 69.42 121.47
  L 68.53 122.05" stroke="#8250c2"></path>
<path d="M 68.53 122.05
  Q 68.42 121.99 68.30 121.94
  A 0.13 0.03 -73.1 0 0 68.23 122.06
  L 60.08 152.76
  Q 59.99 153.11 60.29 152.92
  Q 60.55 152.77 60.72 152.27" stroke="#6e4085"></path>
<path d="M 60.72 152.27
  Q 60.74 152.82 61.00 152.93
  Q 61.35 153.08 61.91 153.09" stroke="#8250c2"></path>
<path d="M 74.84 141.80
  Q 74.87 143.02 74.42 144.18" stroke="#8250c2"></path>
<path d="M 74.42 144.18
  Q 74.05 144.65 73.98 145.50
  Q 73.68 149.62 73.84 153.86" stroke="#513d67"></path>
<path d="M 73.84 153.86
  L 74.96 154.32" stroke="#8250c2"></path>
<path d="M 74.96 154.32
  Q 74.85 154.50 75.04 154.66" stroke="#6e4085"></path>
<path d="M 75.04 154.66
  Q 74.54 154.72 74.66 155.47" stroke="#8336b4"></path>
<path d="M 74.66 155.47
  Q 74.43 154.94 73.99 155.13
  Q 70.95 156.42 68.21 156.82
  C 66.10 157.12 64.36 157.68 62.41 157.97
  A 0.30 0.30 0.0 0 0 62.25 158.49
  Q 62.44 158.67 62.73 158.65" stroke="#6e4085"></path>
<path d="M 72.71 54.22
  L 78.64 63.78" stroke="#c73a90"></path>
<path d="M 78.64 63.78
  L 78.43 64.49" stroke="#f459a3"></path>
<path d="M 78.43 64.49
  L 74.74 66.76
  A 0.78 0.76 -17.3 0 0 74.37 67.45
  L 74.53 72.52
  Q 74.54 73.10 73.97 73.15
  L 71.22 73.40" stroke="#964a85"></path>
<path d="M 71.22 73.40
  C 67.96 74.13 65.98 76.90 62.75 76.68
  Q 60.12 76.50 57.59 76.19" stroke="#c73a90"></path>
<path d="M 112.32 121.30
  L 121.44 151.47
  A 0.36 0.35 70.8 0 1 121.24 151.90
  L 120.94 152.03
  Q 120.36 152.28 120.06 151.72
  Q 113.92 140.25 107.14 128.96
  Q 106.80 128.40 106.45 128.26
  A 0.30 0.30 0.0 0 0 106.04 128.51
  Q 105.36 136.06 106.33 143.02" stroke="#8250c2"></path>
<path d="M 106.33 143.02
  L 106.53 152.96" stroke="#5d3e94"></path>
<path d="M 106.53 152.96
  L 106.45 154.08" stroke="#8250c2"></path>
<path d="M 106.45 154.08
  Q 105.86 154.18 105.48 154.56" stroke="#8f36e1"></path>
<path d="M 105.48 154.56
  L 90.43 138.77
  Q 90.14 138.46 89.84 138.77
  L 74.96 154.32" stroke="#7a40b2"></path>
<path d="M 73.84 153.86
  L 74.42 144.18" stroke="#5d3e94"></path>
<path d="M 78.31 130.42
  L 83.19 135.93
  Q 83.57 136.37 84.15 136.37
  L 96.24 136.44
  A 1.34 1.33 -66.9 0 0 97.17 136.06
  L 104.26 129.02" stroke="#7a40b2"></path>
<path d="M 77.22 82.62
  Q 76.79 83.13 77.10 82.86" stroke="#f42587"></path>
<path d="M 72.38 87.03
  Q 72.32 86.26 71.90 85.79" stroke="#ee77bb"></path>
<path d="M 126.83 133.80
  Q 126.42 133.94 126.29 133.81" stroke="#6e4085"></path>
<path d="M 119.96 157.60
  Q 120.10 157.63 120.24 157.60
  Q 120.56 157.53 120.44 157.22
  Q 120.38 157.07 120.25 156.97
  Q 120.15 156.88 119.97 156.88
  Q 117.09 156.78 114.21 156.69" stroke="#513d67"></path>
<path d="M 114.21 156.69
  L 106.25 155.21" stroke="#6e4085"></path>
<path d="M 106.25 155.21
  Q 106.25 154.72 106.45 154.08" stroke="#8336b4"></path>
<path d="M 106.53 152.96
  Q 106.59 152.94 106.64 152.92
  Q 106.75 152.88 106.77 152.76
  Q 107.53 147.86 106.33 143.02" stroke="#513d67"></path>
<path d="M 77.04 74.45
  Q 76.82 74.44 76.52 74.56
  A 0.73 0.73 0.0 0 0 76.06 75.12
  Q 75.64 77.55 73.23 77.52
  Q 72.73 77.51 72.41 77.14
  L 70.81 75.31" stroke="#8a849c"></path>
<path d="M 76.88 73.93
  Q 76.26 73.88 75.48 73.33
  Q 75.11 73.07 75.11 72.62
  L 75.07 67.66
  A 0.97 0.95 77.4 0 1 75.61 66.79
  Q 77.32 65.95 78.43 64.49" stroke="#8b3b58"></path>
<path d="M 82.28 111.05
  Q 81.73 111.46 81.10 110.64
  Q 79.86 109.02 79.22 107.60
  A 1.25 1.25 0.0 0 0 77.66 106.95
  L 69.70 109.78" stroke="#c70674"></path>
<path d="M 76.26 127.55
  Q 75.27 128.86 75.28 129.50
  Q 75.37 135.66 74.84 141.80" stroke="#7a40b2"></path>
<path d="M 74.84 141.80
  Q 74.69 141.78 74.55 141.76
  Q 74.52 141.75 74.52 141.72
  L 74.58 131.00
  Q 74.59 129.62 73.94 130.83
  L 61.91 153.09" stroke="#6e4085"></path>
<path d="M 61.91 153.09
  L 74.69 127.96
  Q 74.93 127.49 74.57 127.10
  L 69.42 121.47" stroke="#7a40b2"></path>
<path d="M 69.42 121.47
  L 68.98 120.97
  Q 68.65 120.61 68.63 120.12
  L 68.30 114.72" stroke="#6e4085"></path>
<path d="M 68.30 114.72
  Q 67.96 113.99 68.18 112.96" stroke="#7b26a4"></path>
<path d="M 76.52 127.54
  Q 76.97 127.41 76.26 127.55" stroke="#c728c4"></path>
<path d="M 76.26 127.55
  L 69.73 120.92
  A 1.24 1.23 23.0 0 1 69.38 120.06
  L 69.41 110.06" stroke="#b21887"></path>
<path d="M 82.34 110.96
  Q 82.31 111.01 82.28 111.05" stroke="#f30087"></path>
<path d="M 82.28 111.05
  Q 82.61 110.44 81.74 110.33" stroke="#ba0663"></path>
<path d="M 103.74 127.47
  L 104.03 127.65
  Q 104.40 127.88 104.27 128.29
  Q 104.08 128.86 104.26 129.02" stroke="#c17af7"></path>
<path d="M 104.26 129.02
  L 97.27 135.41
  A 1.19 1.19 0.0 0 1 96.47 135.72
  L 84.31 135.75
  A 1.95 1.90 67.3 0 1 82.94 135.17
  L 78.31 130.42" stroke="#ac6aba"></path>
<path d="M 78.31 130.42
  L 76.52 127.54" stroke="#c17af7"></path>
<path d="M 60.72 152.27
  Q 64.86 137.76 68.62 123.12
  Q 68.78 122.52 68.53 122.05" stroke="#7a40b2"></path>
<path d="M 105.48 154.56
  L 94.16 143.04
  Q 94.05 142.92 93.88 142.91
  Q 93.69 142.89 93.50 142.87
  A 0.38 0.38 0.0 0 0 93.12 143.42
  C 94.33 145.83 97.15 149.87 96.14 152.61
  Q 93.82 158.91 91.93 164.56
  Q 91.34 166.32 92.87 165.26
  Q 98.88 161.10 105.26 156.62
  C 105.80 156.25 105.96 155.76 106.25 155.21" stroke="#7b26a4"></path>
<path d="M 114.21 156.69
  Q 113.69 156.56 113.70 157.05" stroke="#492e57"></path>
<path d="M 74.66 155.47
  Q 74.84 156.37 75.75 156.98
  Q 82.09 161.22 87.18 165.09
  Q 89.57 166.90 88.68 164.04
  L 84.69 151.32
  A 2.28 2.25 49.2 0 1 84.80 149.69
  L 87.37 144.14
  Q 88.84 140.95 86.35 143.42
  L 75.04 154.66" stroke="#7b26a4"></path>
<path d="M 97.48 20.78
  L 91.61 14.48
  Q 90.98 13.82 90.36 14.49
  L 84.70 20.62
  A 1.20 1.18 -27.9 0 0 84.39 21.60
  L 89.55 56.27
  A 1.43 1.43 0.0 0 0 92.37 56.28
  L 97.75 21.64
  Q 97.83 21.15 97.48 20.78" stroke="#7a40b2"></path>
<path d="M 81.06 27.75
  Q 83.40 39.16 85.31 50.74
  Q 85.65 52.80 87.76 53.50
  Q 88.34 53.69 88.25 53.09
  L 84.21 25.70" stroke="#862398"></path>
<path d="M 84.21 25.70
  L 83.65 22.27
  A 1.02 1.02 0.0 0 0 82.68 21.41
  Q 79.96 21.33 77.56 21.22
  C 73.85 21.05 69.70 20.25 65.54 20.44
  Q 63.76 20.52 64.88 21.91
  L 67.46 25.10
  A 4.24 4.23 73.5 0 0 70.33 26.66
  L 81.06 27.75" stroke="#7b26a4"></path>
<path d="M 84.21 25.70
  Q 82.43 27.54 81.06 27.75" stroke="#9c19c7"></path>
<path d="M 97.47 28.25
  Q 95.21 41.34 94.64 47.25
  Q 94.53 48.48 94.22 49.16
  A 1.02 0.05 -65.0 0 0 93.88 50.00
  Q 93.87 50.40 93.87 50.83
  Q 93.87 51.13 93.82 51.42
  Q 93.73 51.98 93.85 52.61
  A 0.63 0.63 0.0 0 0 95.08 52.62
  L 99.93 28.88" stroke="#8f208a"></path>
<path d="M 99.93 28.88
  Q 100.02 28.29 100.36 27.93
  Q 100.62 27.66 101.24 27.59
  Q 107.32 26.90 113.47 26.47
  Q 113.98 26.43 114.28 26.03
  L 117.81 21.46
  A 0.76 0.76 0.0 0 0 117.16 20.24
  L 99.53 21.49
  A 1.13 1.12 -82.0 0 0 98.55 22.23
  Q 97.53 25.10 97.47 28.25" stroke="#862398"></path>
<path d="M 99.93 28.88
  L 98.84 29.91
  A 0.27 0.26 -20.8 0 1 98.39 29.71
  Q 98.43 28.73 97.47 28.25" stroke="#b013ac"></path>
<path d="M 80.02 28.19
  C 76.34 27.97 73.05 27.35 70.25 27.38
  Q 62.38 27.45 55.46 27.35
  Q 52.36 27.30 55.16 28.63
  Q 62.11 31.94 70.05 35.56
  Q 72.35 36.61 74.00 38.50
  Q 78.91 44.09 83.62 49.41
  Q 84.66 50.59 84.37 49.04
  L 80.63 28.73
  Q 80.54 28.23 80.02 28.19" stroke="#815a96"></path>
<path d="M 42.02 30.58
  Q 41.38 31.45 42.41 31.13
  C 45.55 30.14 48.06 29.07 51.83 30.17
  C 55.20 31.17 58.03 34.08 60.22 36.68
  A 1.13 1.11 -20.4 0 0 61.13 37.09
  L 69.03 36.81
  A 0.34 0.33 57.8 0 0 69.17 36.18
  Q 63.43 33.15 56.90 30.62
  Q 55.23 29.96 53.66 29.06
  C 50.84 27.43 47.89 27.73 44.88 27.89
  Q 43.96 27.93 43.42 28.67
  L 42.02 30.58" stroke="#8f208a"></path>
<path d="M 37.68 44.58
  Q 36.77 42.43 36.81 41.95
  Q 37.11 38.08 34.99 41.33
  C 33.02 44.35 31.12 47.65 28.61 50.84
  Q 28.53 50.93 28.58 51.05
  Q 28.69 51.29 29.02 51.31
  Q 29.40 51.35 29.71 51.12
  L 38.02 45.04" stroke="#6e4085"></path>
<path d="M 38.02 45.04
  L 47.86 38.09
  Q 48.24 37.82 48.71 37.80
  L 59.00 37.43
  A 0.39 0.39 0.0 0 0 59.30 36.82
  C 55.22 30.99 46.78 27.95 41.27 33.64
  C 38.76 36.23 36.63 40.61 38.20 44.24
  Q 38.34 44.57 37.99 44.62
  Q 37.84 44.64 37.68 44.58" stroke="#b21887"></path>
<path d="M 38.02 45.04
  L 37.68 44.58" stroke="#bb2897"></path>
<path d="M 91.25 70.45
  L 104.13 46.50
  A 0.68 0.68 0.0 0 0 103.70 45.52
  Q 102.38 45.17 101.61 46.11
  Q 96.42 52.41 91.28 58.52
  A 0.45 0.45 0.0 0 1 90.59 58.53
  Q 85.19 52.30 79.89 46.11
  Q 79.05 45.13 77.86 45.62
  Q 77.33 45.83 77.60 46.33
  L 90.65 70.46
  A 0.34 0.34 0.0 0 0 91.25 70.45" stroke="#ac6aba"></path>
<path d="M 157.62 74.86
  L 153.78 60.47
  A 1.89 1.87 -79.5 0 0 153.08 59.44
  L 136.79 47.25
  A 1.65 1.62 -27.1 0 0 135.80 46.94
  Q 133.04 46.99 130.43 47.80
  C 129.07 48.22 127.80 48.32 126.44 48.71
  C 121.57 50.10 116.54 50.99 111.59 52.17
  A 0.30 0.30 0.0 0 0 111.57 52.75
  C 116.10 54.31 122.39 55.12 125.52 55.83
  Q 133.63 57.68 141.66 58.96
  A 1.74 1.72 86.5 0 1 143.06 60.21
  L 146.80 73.53
  Q 146.88 73.81 147.17 73.85
  L 157.30 75.23
  A 0.29 0.29 0.0 0 0 157.62 74.86" stroke="#7a40b2"></path>
<path d="M 25.24 76.60
  Q 29.90 75.23 34.65 74.19
  A 1.82 1.82 0.0 0 0 35.98 73.00
  L 40.03 61.10
  A 1.30 1.29 2.5 0 1 40.94 60.27
  L 68.26 53.70
  Q 70.83 53.09 68.25 52.55
  L 46.29 48.00
  A 3.20 3.17 31.4 0 0 43.67 48.62
  L 28.77 60.46
  A 3.04 2.99 -11.9 0 0 27.72 62.04
  L 23.81 76.14
  A 0.50 0.49 -67.5 0 0 24.04 76.70
  Q 24.63 77.05 25.02 76.72
  A 0.73 0.70 -72.6 0 1 25.24 76.60" stroke="#7a40b2"></path>
<path d="M 38.09 68.71
  L 27.71 98.92
  Q 27.67 99.05 27.75 99.15
  L 27.93 99.37
  Q 28.00 99.45 28.08 99.37
  L 46.70 77.40" stroke="#862398"></path>
<path d="M 46.70 77.40
  L 59.94 61.63
  A 0.76 0.76 0.0 0 0 59.70 60.46
  L 54.65 57.96
  A 0.76 0.71 50.4 0 0 54.18 57.90
  L 41.52 60.75
  A 1.36 1.33 -86.2 0 0 40.55 61.62
  L 38.09 68.71" stroke="#8f208a"></path>
<path d="M 46.70 77.40
  Q 45.69 75.16 44.92 74.23
  C 43.75 72.84 41.68 71.34 39.87 69.24
  Q 39.64 68.97 39.29 68.90
  Q 38.72 68.78 38.64 69.26
  Q 38.53 69.94 38.40 69.12
  Q 38.34 68.72 38.09 68.71" stroke="#b013ac"></path>
<path d="M 51.57 78.73
  Q 54.25 73.71 56.35 68.48
  A 0.43 0.43 0.0 0 0 56.13 67.93
  Q 55.83 67.79 55.61 68.05
  Q 41.59 84.51 27.51 101.14
  A 0.67 0.67 0.0 0 0 27.52 102.01
  Q 27.73 102.27 28.15 102.49
  Q 28.46 102.65 28.90 102.63
  Q 33.68 102.40 38.33 102.64
  A 0.93 0.92 14.8 0 0 39.20 102.14
  Q 45.29 90.45 51.57 78.73" stroke="#5c4489"></path>
<path d="M 123.39 86.22
  A 0.31 0.31 0.0 0 0 123.42 86.09
  L 123.66 76.86
  A 0.31 0.31 0.0 0 0 123.17 76.60
  L 109.55 86.41
  A 0.31 0.31 0.0 0 0 109.49 86.86
  L 117.59 96.54
  A 0.31 0.31 0.0 0 0 118.10 96.48
  L 123.39 86.22" stroke="#ac6aba"></path>
<path d="M 144.47 121.53
  Q 144.55 121.41 144.53 121.26
  Q 143.19 111.79 142.28 102.60
  A 2.00 1.96 -73.8 0 0 141.55 101.24
  L 124.39 87.64
  Q 123.75 87.13 123.36 87.85
  L 118.66 96.73
  A 0.43 0.43 0.0 0 0 118.92 97.35
  L 130.69 100.84
  A 2.44 2.43 -5.7 0 1 132.15 102.03
  L 143.29 122.72
  Q 143.99 124.01 144.40 122.49
  Q 144.44 122.35 144.39 121.81
  Q 144.38 121.65 144.47 121.53" stroke="#862398"></path>
<path d="M 94.01 112.12
  L 93.62 112.12
  Q 93.05 112.12 92.86 112.66
  Q 92.50 113.65 92.89 114.72
  Q 93.21 115.59 93.63 114.77
  Q 94.26 113.51 95.41 112.63
  A 0.43 0.43 0.0 0 0 95.23 111.87
  Q 94.82 111.78 94.51 111.98
  Q 94.28 112.12 94.01 112.12" stroke="#ba0663"></path>
<path d="M 85.22 150.43
  A 0.44 0.44 0.0 0 0 85.20 150.74
  L 89.87 165.52
  A 0.44 0.44 0.0 0 0 90.70 165.55
  L 96.18 150.93
  A 0.44 0.44 0.0 0 0 96.16 150.58
  L 90.72 140.14
  A 0.44 0.44 0.0 0 0 89.93 140.16
  L 85.22 150.43" stroke="#815a96"></path>
</g>
<path d="M 0.00 0.00
  L 180.00 0.00
  L 180.00 180.00
  L 0.00 180.00
  L 0.00 0.00
  Z
  M 27.54 55.05
  L 31.47 54.60
  L 33.98 54.40
  Q 35.72 54.26 34.33 55.31
  L 28.05 60.03
  A 1.90 1.87 -11.2 0 0 27.36 61.04
  L 22.75 77.24
  A 0.41 0.41 0.0 0 0 23.25 77.74
  L 34.51 74.75
  Q 35.48 74.49 35.15 75.44
  L 25.72 102.55
  A 0.45 0.45 0.0 0 0 26.14 103.15
  L 38.53 103.08
  A 0.42 0.41 -86.3 0 1 38.94 103.55
  L 34.94 135.18
  A 0.75 0.75 0.0 0 0 35.68 136.02
  L 53.73 135.99
  Q 54.21 135.98 54.30 136.46
  L 56.89 150.76
  L 58.23 158.97
  Q 58.32 159.49 58.85 159.47
  Q 60.82 159.42 62.73 158.65
  L 73.19 156.39
  Q 73.72 156.27 74.17 156.59
  L 90.03 167.89
  A 0.34 0.33 44.0 0 0 90.42 167.89
  L 106.41 156.62
  A 1.30 1.29 -60.0 0 1 107.30 156.38
  L 113.70 157.05
  L 119.96 157.60
  L 123.04 158.14
  A 0.72 0.71 -80.9 0 0 123.86 157.54
  L 127.10 135.37
  Q 127.22 134.49 128.11 134.50
  L 146.08 134.65
  A 0.74 0.73 -84.2 0 0 146.80 134.06
  Q 146.94 133.36 146.57 132.50
  L 146.26 129.02
  L 142.94 101.83
  L 153.96 101.77
  Q 154.86 101.92 155.24 101.70
  Q 155.58 101.50 155.34 100.74
  Q 151.23 87.90 147.17 74.96
  A 0.28 0.28 0.0 0 1 147.48 74.60
  L 158.00 76.09
  A 0.57 0.56 86.5 0 0 158.62 75.38
  L 154.38 59.91
  A 1.78 1.72 -80.1 0 0 153.73 58.95
  L 145.52 52.95
  A 0.33 0.33 0.0 0 1 145.77 52.36
  L 156.99 54.25
  Q 158.14 54.44 157.59 53.42
  Q 157.09 52.48 156.62 52.14
  L 139.42 26.97
  Q 139.13 26.55 138.61 26.55
  L 115.29 26.54
  Q 115.16 26.48 115.11 26.29
  Q 115.06 26.09 115.20 25.93
  L 120.14 20.38
  Q 120.94 19.48 119.74 19.55
  L 98.94 20.67
  A 1.30 1.29 66.6 0 1 97.94 20.27
  L 91.36 13.36
  A 0.53 0.53 0.0 0 0 90.58 13.36
  L 84.12 20.32
  A 1.03 1.02 22.9 0 1 83.30 20.65
  L 63.23 19.55
  Q 61.83 19.47 62.74 20.54
  L 67.25 25.85
  Q 67.84 26.55 66.92 26.55
  L 43.97 26.52
  Q 43.34 26.52 43.01 27.04
  L 25.48 54.51
  A 0.48 0.47 -70.2 0 0 25.82 55.24
  Q 26.60 55.34 27.54 55.05
  Z" fill="#ffffff"></path>
<path d="M 115.29 26.54
  Q 115.48 26.75 114.99 27.32
  L 101.02 28.46
  Q 100.78 28.48 100.73 28.73
  L 96.44 49.77
  Q 95.98 52.03 97.44 50.24
  Q 102.11 44.54 107.31 38.47
  C 109.73 35.65 112.99 34.76 116.25 33.34
  Q 116.81 33.64 116.54 34.01
  L 113.22 35.61
  Q 111.18 36.60 113.45 36.72
  L 120.10 37.06
  A 1.34 1.32 13.4 0 0 121.37 36.29
  Q 122.27 34.36 124.27 32.82
  C 130.55 28.47 139.20 28.70 142.53 36.36
  C 143.34 38.25 143.43 40.18 143.45 42.24
  Q 143.47 43.21 142.86 43.40
  C 142.58 41.65 142.92 39.81 142.39 38.23
  Q 139.32 29.02 129.00 31.46
  Q 124.25 32.59 122.06 36.70
  A 0.50 0.49 -75.1 0 0 122.48 37.43
  L 132.88 37.76
  Q 133.41 37.78 133.85 38.06
  L 143.01 43.93
  Q 149.29 48.58 156.62 52.14
  Q 157.09 52.48 157.59 53.42
  Q 158.14 54.44 156.99 54.25
  L 145.77 52.36
  A 0.33 0.33 0.0 0 0 145.52 52.95
  L 153.73 58.95
  A 1.78 1.72 -80.1 0 1 154.38 59.91
  L 158.62 75.38
  A 0.57 0.56 86.5 0 1 158.00 76.09
  L 147.48 74.60
  A 0.28 0.28 0.0 0 0 147.17 74.96
  Q 151.23 87.90 155.34 100.74
  Q 155.58 101.50 155.24 101.70
  Q 154.86 101.92 153.96 101.77
  L 153.84 100.76
  Q 153.80 100.35 153.52 100.03
  L 126.16 68.82
  Q 120.91 62.85 124.84 69.76
  Q 131.90 82.19 140.95 97.98
  Q 141.16 98.35 141.18 98.75
  Q 141.19 99.16 140.90 98.88
  L 140.54 98.54
  L 127.87 76.38
  Q 127.64 75.97 127.17 75.99
  L 124.80 76.12
  Q 124.24 76.14 124.23 76.70
  L 124.06 86.17
  A 0.94 0.94 0.0 0 0 124.42 86.93
  L 140.06 99.29
  Q 140.28 99.81 140.73 99.91
  Q 140.90 99.94 140.98 99.75
  Q 141.09 99.49 141.34 99.62
  Q 143.21 100.60 142.94 101.83
  L 146.26 129.02
  Q 145.48 129.26 145.65 128.98
  L 131.50 102.28
  Q 131.24 101.78 130.70 101.62
  L 118.61 97.98
  Q 118.14 97.84 117.94 98.28
  L 112.33 110.41
  A 0.81 0.81 0.0 0 0 113.17 111.55
  L 123.70 110.11
  A 0.73 0.71 64.3 0 1 124.30 110.33
  L 144.46 132.18
  Q 135.57 123.66 125.32 111.93
  Q 124.24 110.71 122.78 110.97
  C 119.48 111.58 116.20 111.69 112.84 112.42
  L 112.28 120.15
  Q 112.26 120.50 112.00 120.75
  L 111.75 120.98
  L 106.04 127.73
  L 105.76 127.19
  L 111.25 120.55
  Q 111.58 120.16 111.61 119.65
  C 111.80 116.68 111.65 113.70 111.73 110.73
  C 111.82 107.65 105.88 107.17 103.56 106.39
  A 0.81 0.80 21.5 0 0 102.56 106.82
  L 100.81 110.66
  Q 100.95 109.93 100.59 109.94
  L 102.28 106.12
  Q 102.50 105.63 103.02 105.77
  L 109.54 107.49
  A 0.46 0.45 85.4 0 0 110.07 106.86
  L 108.24 102.76
  Q 108.72 102.34 109.06 101.74
  Q 109.26 101.38 109.41 101.77
  C 110.33 104.17 110.11 106.21 111.58 108.58
  A 0.56 0.56 0.0 0 0 112.57 108.51
  L 117.15 98.14
  A 1.21 1.19 38.4 0 0 117.00 96.92
  Q 113.61 92.64 110.11 88.64
  Q 109.70 88.18 108.97 88.29
  L 108.26 86.46
  Q 108.30 86.03 108.48 85.69
  Q 108.70 85.85 109.02 85.85
  Q 109.25 85.84 109.51 85.66
  Q 115.73 81.30 121.18 77.27
  Q 123.09 75.86 120.75 76.27
  L 119.50 76.49
  Q 120.44 75.63 118.03 75.96
  L 126.66 75.36
  A 0.41 0.40 -16.2 0 0 126.99 74.76
  L 119.02 60.75
  A 0.52 0.52 0.0 0 1 119.25 60.02
  L 125.56 57.00
  Q 125.62 57.04 125.64 57.32
  Q 125.66 57.48 125.52 57.54
  L 120.77 59.77
  Q 119.36 60.43 120.39 61.59
  L 136.67 79.79
  L 152.41 97.68
  Q 153.38 98.78 153.36 97.31
  C 153.34 95.59 152.18 93.73 151.76 92.38
  Q 148.82 82.91 145.87 73.55
  L 142.33 60.58
  A 1.27 1.27 0.0 0 0 141.35 59.67
  L 125.49 56.62
  L 109.52 53.21
  Q 108.32 52.95 107.73 54.03
  L 102.87 62.83
  A 0.94 0.93 31.8 0 0 103.16 64.04
  L 106.83 66.57
  A 0.94 0.93 17.4 0 1 107.24 67.34
  L 107.29 73.13
  L 106.49 73.12
  L 106.52 67.67
  A 0.90 0.86 -72.8 0 0 106.16 66.95
  L 102.79 64.46
  Q 102.23 64.05 101.88 64.65
  L 100.35 67.30
  A 0.78 0.78 0.0 0 0 100.50 68.26
  Q 102.69 70.24 103.73 72.89
  L 99.66 67.92
  A 0.54 0.52 40.0 0 1 99.60 67.33
  L 107.56 52.96
  A 1.50 1.48 7.8 0 1 108.53 52.23
  L 120.83 49.56
  Q 121.24 49.47 121.35 49.07
  L 121.57 48.30
  C 122.96 48.46 124.21 48.74 125.61 48.34
  Q 130.08 47.06 134.73 46.17
  Q 138.96 47.56 142.74 50.83
  A 1.69 1.66 -20.0 0 0 143.60 51.22
  Q 146.62 51.65 152.73 53.14
  Q 153.77 53.39 154.47 52.81
  Q 154.82 52.53 154.44 52.28
  L 133.04 38.36
  L 110.65 37.37
  A 3.05 3.02 -68.6 0 0 108.18 38.46
  L 103.51 44.01
  A 0.50 0.50 0.0 0 0 103.80 44.82
  L 121.57 48.30
  Q 121.37 48.77 120.74 48.65
  Q 113.20 47.22 105.62 46.10
  Q 105.12 46.03 104.88 46.48
  L 91.82 70.97
  A 1.26 1.24 -53.7 0 0 92.03 72.42
  L 101.94 82.51
  Q 102.26 82.84 102.26 83.30
  C 102.22 86.09 102.01 88.02 103.27 90.64
  Q 105.67 95.67 107.87 100.78
  Q 107.95 101.18 107.50 101.27
  Q 104.82 95.52 102.23 89.70
  C 101.29 87.59 101.54 85.82 101.52 83.57
  A 1.38 1.37 -67.2 0 0 101.13 82.61
  L 91.40 72.65
  A 0.69 0.68 -43.5 0 0 90.45 72.63
  L 79.49 82.77
  Q 79.14 83.09 79.13 83.57
  C 79.04 86.14 79.32 88.10 78.27 90.54
  Q 74.68 98.94 70.75 107.65
  Q 70.94 105.54 71.74 103.58
  C 72.53 101.63 71.70 99.48 71.97 97.41
  Q 72.51 93.33 72.65 89.82
  Q 72.75 87.46 71.22 89.26
  L 63.96 97.83
  L 72.38 87.03
  Q 74.34 84.60 77.10 82.86
  Q 76.05 84.26 73.96 86.21
  C 72.54 87.54 73.26 89.25 73.13 90.56
  Q 72.66 95.40 72.38 100.27
  Q 72.36 100.63 72.73 100.62
  Q 72.86 100.62 72.99 100.62
  Q 73.42 100.63 73.57 100.23
  C 75.85 94.34 79.30 89.45 78.52 82.73
  L 79.19 82.07
  L 89.68 72.43
  A 1.41 1.41 0.0 0 0 89.97 70.72
  L 76.95 46.35
  A 0.55 0.55 0.0 0 0 76.36 46.07
  Q 68.39 47.68 60.25 49.24
  Q 59.70 49.34 59.43 49.68
  A 0.32 0.32 0.0 0 0 59.62 50.19
  Q 65.74 51.39 71.89 52.64
  Q 72.47 52.76 73.07 53.69
  Q 72.58 53.88 72.71 54.22
  Q 72.23 53.54 71.27 53.77
  Q 64.18 55.41 57.09 56.96
  Q 55.13 57.39 56.94 58.27
  L 61.12 60.30
  A 0.57 0.57 0.0 0 1 61.37 61.08
  L 53.85 75.31
  A 0.55 0.55 0.0 0 0 54.45 76.11
  Q 56.27 75.73 57.59 76.19
  Q 56.56 76.41 56.83 76.82
  C 54.76 76.26 53.42 76.29 52.33 78.37
  Q 46.67 89.23 41.01 100.07
  Q 40.48 100.51 40.74 101.16
  Q 40.93 101.62 40.55 101.94
  C 39.79 102.60 39.36 103.05 39.36 104.16
  C 39.37 107.94 38.56 111.49 38.17 115.34
  Q 37.94 117.75 37.31 120.72
  Q 37.11 121.67 37.80 122.34
  Q 38.18 122.72 38.44 122.25
  L 49.29 102.98
  Q 49.94 102.36 50.25 102.27
  Q 56.17 100.66 61.74 98.75
  A 1.04 1.04 0.0 0 0 62.32 97.27
  L 57.87 88.99
  A 0.85 0.85 0.0 0 0 56.59 88.74
  L 44.85 98.52
  Q 43.09 100.45 41.20 100.99
  L 56.79 87.92
  Q 57.16 87.61 57.13 87.12
  Q 56.96 84.62 56.79 78.50
  Q 56.76 77.51 57.36 77.48
  Q 57.32 81.39 57.69 85.19
  Q 57.96 87.84 59.38 90.48
  Q 61.36 94.12 63.27 97.81
  L 63.57 97.87
  Q 64.02 97.96 63.96 98.42
  Q 63.94 98.58 63.92 98.76
  Q 63.90 98.91 63.95 99.04
  L 68.23 109.62
  L 63.56 99.36
  Q 63.33 98.84 62.78 99.01
  L 50.92 102.67
  A 2.39 2.33 -83.0 0 0 49.56 103.76
  Q 43.44 114.47 37.55 125.14
  C 36.16 127.66 36.15 130.00 36.05 132.70
  Q 35.99 134.30 37.05 133.10
  L 56.23 111.50
  Q 56.60 111.08 57.16 111.15
  Q 62.38 111.78 67.36 112.58
  Q 67.82 112.65 67.87 113.04
  Q 67.82 113.16 67.77 113.27
  Q 67.74 113.33 67.68 113.32
  L 57.43 111.69
  A 0.92 0.89 -64.0 0 0 56.63 111.98
  L 36.78 134.31
  A 0.58 0.57 -68.8 0 0 37.20 135.27
  L 53.16 135.38
  A 1.91 1.90 16.1 0 0 54.77 134.50
  Q 60.89 124.84 67.22 115.30
  Q 67.25 115.26 67.30 115.23
  Q 67.42 115.18 67.53 115.13
  Q 67.74 115.20 67.79 115.32
  Q 67.83 115.41 67.73 115.57
  Q 61.53 125.49 55.02 135.22
  A 0.58 0.56 57.7 0 0 54.93 135.64
  L 56.44 145.60
  Q 56.50 146.03 56.71 146.41
  Q 57.82 148.50 56.89 150.76
  L 54.30 136.46
  Q 54.21 135.98 53.73 135.99
  L 35.68 136.02
  A 0.75 0.75 0.0 0 1 34.94 135.18
  L 38.94 103.55
  A 0.42 0.41 -86.3 0 0 38.53 103.08
  L 26.14 103.15
  A 0.45 0.45 0.0 0 1 25.72 102.55
  L 35.15 75.44
  Q 35.48 74.49 34.51 74.75
  L 23.25 77.74
  A 0.41 0.41 0.0 0 1 22.75 77.24
  L 27.36 61.04
  A 1.90 1.87 -11.2 0 1 28.05 60.03
  L 34.33 55.31
  Q 35.72 54.26 33.98 54.40
  L 31.47 54.60
  Q 30.67 54.73 30.64 54.71
  Q 29.15 54.22 30.75 53.96
  Q 33.03 53.60 35.29 53.83
  A 1.64 1.63 28.4 0 0 36.45 53.49
  L 43.70 47.66
  A 2.54 2.51 32.1 0 1 45.87 47.18
  C 50.24 48.23 55.01 49.68 59.58 48.73
  Q 68.84 46.82 78.08 44.86
  A 0.23 0.23 0.0 0 0 78.21 44.49
  L 72.45 37.62
  A 0.73 0.71 -20.8 0 0 71.85 37.36
  L 49.27 38.48
  A 2.97 2.94 25.0 0 0 47.70 39.04
  L 28.16 53.46
  Q 27.84 53.70 27.75 54.09
  L 27.54 55.05
  Q 26.60 55.34 25.82 55.24
  A 0.48 0.47 -70.2 0 1 25.48 54.51
  L 43.01 27.04
  Q 43.34 26.52 43.97 26.52
  L 66.92 26.55
  Q 67.84 26.55 67.25 25.85
  L 62.74 20.54
  Q 61.83 19.47 63.23 19.55
  L 83.30 20.65
  A 1.03 1.02 22.9 0 0 84.12 20.32
  L 90.58 13.36
  A 0.53 0.53 0.0 0 1 91.36 13.36
  L 97.94 20.27
  A 1.30 1.29 66.6 0 0 98.94 20.67
  L 119.74 19.55
  Q 120.94 19.48 120.14 20.38
  L 115.20 25.93
  Q 115.06 26.09 115.11 26.29
  Q 115.16 26.48 115.29 26.54
  Z
  M 97.48 20.78
  L 91.61 14.48
  Q 90.98 13.82 90.36 14.49
  L 84.70 20.62
  A 1.20 1.18 -27.9 0 0 84.39 21.60
  L 89.55 56.27
  A 1.43 1.43 0.0 0 0 92.37 56.28
  L 97.75 21.64
  Q 97.83 21.15 97.48 20.78
  Z
  M 81.06 27.75
  Q 83.40 39.16 85.31 50.74
  Q 85.65 52.80 87.76 53.50
  Q 88.34 53.69 88.25 53.09
  L 84.21 25.70
  L 83.65 22.27
  A 1.02 1.02 0.0 0 0 82.68 21.41
  Q 79.96 21.33 77.56 21.22
  C 73.85 21.05 69.70 20.25 65.54 20.44
  Q 63.76 20.52 64.88 21.91
  L 67.46 25.10
  A 4.24 4.23 73.5 0 0 70.33 26.66
  L 81.06 27.75
  Z
  M 97.47 28.25
  Q 95.21 41.34 94.64 47.25
  Q 94.53 48.48 94.22 49.16
  A 1.02 0.05 -65.0 0 0 93.88 50.00
  Q 93.87 50.40 93.87 50.83
  Q 93.87 51.13 93.82 51.42
  Q 93.73 51.98 93.85 52.61
  A 0.63 0.63 0.0 0 0 95.08 52.62
  L 99.93 28.88
  Q 100.02 28.29 100.36 27.93
  Q 100.62 27.66 101.24 27.59
  Q 107.32 26.90 113.47 26.47
  Q 113.98 26.43 114.28 26.03
  L 117.81 21.46
  A 0.76 0.76 0.0 0 0 117.16 20.24
  L 99.53 21.49
  A 1.13 1.12 -82.0 0 0 98.55 22.23
  Q 97.53 25.10 97.47 28.25
  Z
  M 80.02 28.19
  C 76.34 27.97 73.05 27.35 70.25 27.38
  Q 62.38 27.45 55.46 27.35
  Q 52.36 27.30 55.16 28.63
  Q 62.11 31.94 70.05 35.56
  Q 72.35 36.61 74.00 38.50
  Q 78.91 44.09 83.62 49.41
  Q 84.66 50.59 84.37 49.04
  L 80.63 28.73
  Q 80.54 28.23 80.02 28.19
  Z
  M 42.02 30.58
  Q 41.38 31.45 42.41 31.13
  C 45.55 30.14 48.06 29.07 51.83 30.17
  C 55.20 31.17 58.03 34.08 60.22 36.68
  A 1.13 1.11 -20.4 0 0 61.13 37.09
  L 69.03 36.81
  A 0.34 0.33 57.8 0 0 69.17 36.18
  Q 63.43 33.15 56.90 30.62
  Q 55.23 29.96 53.66 29.06
  C 50.84 27.43 47.89 27.73 44.88 27.89
  Q 43.96 27.93 43.42 28.67
  L 42.02 30.58
  Z
  M 37.68 44.58
  Q 36.77 42.43 36.81 41.95
  Q 37.11 38.08 34.99 41.33
  C 33.02 44.35 31.12 47.65 28.61 50.84
  Q 28.53 50.93 28.58 51.05
  Q 28.69 51.29 29.02 51.31
  Q 29.40 51.35 29.71 51.12
  L 38.02 45.04
  L 47.86 38.09
  Q 48.24 37.82 48.71 37.80
  L 59.00 37.43
  A 0.39 0.39 0.0 0 0 59.30 36.82
  C 55.22 30.99 46.78 27.95 41.27 33.64
  C 38.76 36.23 36.63 40.61 38.20 44.24
  Q 38.34 44.57 37.99 44.62
  Q 37.84 44.64 37.68 44.58
  Z
  M 91.25 70.45
  L 104.13 46.50
  A 0.68 0.68 0.0 0 0 103.70 45.52
  Q 102.38 45.17 101.61 46.11
  Q 96.42 52.41 91.28 58.52
  A 0.45 0.45 0.0 0 1 90.59 58.53
  Q 85.19 52.30 79.89 46.11
  Q 79.05 45.13 77.86 45.62
  Q 77.33 45.83 77.60 46.33
  L 90.65 70.46
  A 0.34 0.34 0.0 0 0 91.25 70.45
  Z
  M 157.62 74.86
  L 153.78 60.47
  A 1.89 1.87 -79.5 0 0 153.08 59.44
  L 136.79 47.25
  A 1.65 1.62 -27.1 0 0 135.80 46.94
  Q 133.04 46.99 130.43 47.80
  C 129.07 48.22 127.80 48.32 126.44 48.71
  C 121.57 50.10 116.54 50.99 111.59 52.17
  A 0.30 0.30 0.0 0 0 111.57 52.75
  C 116.10 54.31 122.39 55.12 125.52 55.83
  Q 133.63 57.68 141.66 58.96
  A 1.74 1.72 86.5 0 1 143.06 60.21
  L 146.80 73.53
  Q 146.88 73.81 147.17 73.85
  L 157.30 75.23
  A 0.29 0.29 0.0 0 0 157.62 74.86
  Z
  M 25.24 76.60
  Q 29.90 75.23 34.65 74.19
  A 1.82 1.82 0.0 0 0 35.98 73.00
  L 40.03 61.10
  A 1.30 1.29 2.5 0 1 40.94 60.27
  L 68.26 53.70
  Q 70.83 53.09 68.25 52.55
  L 46.29 48.00
  A 3.20 3.17 31.4 0 0 43.67 48.62
  L 28.77 60.46
  A 3.04 2.99 -11.9 0 0 27.72 62.04
  L 23.81 76.14
  A 0.50 0.49 -67.5 0 0 24.04 76.70
  Q 24.63 77.05 25.02 76.72
  A 0.73 0.70 -72.6 0 1 25.24 76.60
  Z
  M 38.09 68.71
  L 27.71 98.92
  Q 27.67 99.05 27.75 99.15
  L 27.93 99.37
  Q 28.00 99.45 28.08 99.37
  L 46.70 77.40
  L 59.94 61.63
  A 0.76 0.76 0.0 0 0 59.70 60.46
  L 54.65 57.96
  A 0.76 0.71 50.4 0 0 54.18 57.90
  L 41.52 60.75
  A 1.36 1.33 -86.2 0 0 40.55 61.62
  L 38.09 68.71
  Z
  M 51.57 78.73
  Q 54.25 73.71 56.35 68.48
  A 0.43 0.43 0.0 0 0 56.13 67.93
  Q 55.83 67.79 55.61 68.05
  Q 41.59 84.51 27.51 101.14
  A 0.67 0.67 0.0 0 0 27.52 102.01
  Q 27.73 102.27 28.15 102.49
  Q 28.46 102.65 28.90 102.63
  Q 33.68 102.40 38.33 102.64
  A 0.93 0.92 14.8 0 0 39.20 102.14
  Q 45.29 90.45 51.57 78.73
  Z
  M 123.39 86.22
  A 0.31 0.31 0.0 0 0 123.42 86.09
  L 123.66 76.86
  A 0.31 0.31 0.0 0 0 123.17 76.60
  L 109.55 86.41
  A 0.31 0.31 0.0 0 0 109.49 86.86
  L 117.59 96.54
  A 0.31 0.31 0.0 0 0 118.10 96.48
  L 123.39 86.22
  Z
  M 144.47 121.53
  Q 144.55 121.41 144.53 121.26
  Q 143.19 111.79 142.28 102.60
  A 2.00 1.96 -73.8 0 0 141.55 101.24
  L 124.39 87.64
  Q 123.75 87.13 123.36 87.85
  L 118.66 96.73
  A 0.43 0.43 0.0 0 0 118.92 97.35
  L 130.69 100.84
  A 2.44 2.43 -5.7 0 1 132.15 102.03
  L 143.29 122.72
  Q 143.99 124.01 144.40 122.49
  Q 144.44 122.35 144.39 121.81
  Q 144.38 121.65 144.47 121.53
  Z" fill="#653075"></path>
<path d="M 91.61 14.48
  L 97.48 20.78
  Q 97.83 21.15 97.75 21.64
  L 92.37 56.28
  A 1.43 1.43 0.0 0 1 89.55 56.27
  L 84.39 21.60
  A 1.20 1.18 -27.9 0 1 84.70 20.62
  L 90.36 14.49
  Q 90.98 13.82 91.61 14.48
  Z" fill="#8e50ef"></path>
<path d="M 84.21 25.70
  Q 82.43 27.54 81.06 27.75
  L 70.33 26.66
  A 4.24 4.23 73.5 0 1 67.46 25.10
  L 64.88 21.91
  Q 63.76 20.52 65.54 20.44
  C 69.70 20.25 73.85 21.05 77.56 21.22
  Q 79.96 21.33 82.68 21.41
  A 1.02 1.02 0.0 0 1 83.65 22.27
  L 84.21 25.70
  Z" fill="#901cd3"></path>
<path d="M 99.93 28.88
  L 98.84 29.91
  A 0.27 0.26 -20.8 0 1 98.39 29.71
  Q 98.43 28.73 97.47 28.25
  Q 97.53 25.10 98.55 22.23
  A 1.13 1.12 -82.0 0 1 99.53 21.49
  L 117.16 20.24
  A 0.76 0.76 0.0 0 1 117.81 21.46
  L 114.28 26.03
  Q 113.98 26.43 113.47 26.47
  Q 107.32 26.90 101.24 27.59
  Q 100.62 27.66 100.36 27.93
  Q 100.02 28.29 99.93 28.88
  Z" fill="#a716ba"></path>
<path d="M 84.21 25.70
  L 88.25 53.09
  Q 88.34 53.69 87.76 53.50
  Q 85.65 52.80 85.31 50.74
  Q 83.40 39.16 81.06 27.75
  Q 82.43 27.54 84.21 25.70
  Z" fill="#a716ba"></path>
<path d="M 115.29 26.54
  L 138.61 26.55
  Q 139.13 26.55 139.42 26.97
  L 156.62 52.14
  Q 149.29 48.58 143.01 43.93
  Q 143.05 43.46 142.86 43.40
  Q 143.47 43.21 143.45 42.24
  C 143.43 40.18 143.34 38.25 142.53 36.36
  C 139.20 28.70 130.55 28.47 124.27 32.82
  L 123.11 31.53
  Q 122.82 31.21 122.44 31.39
  L 116.54 34.01
  Q 116.81 33.64 116.25 33.34
  Q 121.74 30.57 127.34 28.07
  Q 127.94 27.80 127.58 27.39
  A 0.37 0.37 0.0 0 0 127.30 27.26
  L 114.99 27.32
  Q 115.48 26.75 115.29 26.54
  Z" fill="#89488f"></path>
<path d="M 116.25 33.34
  C 112.99 34.76 109.73 35.65 107.31 38.47
  Q 102.11 44.54 97.44 50.24
  Q 95.98 52.03 96.44 49.77
  L 100.73 28.73
  Q 100.78 28.48 101.02 28.46
  L 114.99 27.32
  L 127.30 27.26
  A 0.37 0.37 0.0 0 1 127.58 27.39
  Q 127.94 27.80 127.34 28.07
  Q 121.74 30.57 116.25 33.34
  Z" fill="#9c83b6"></path>
<path d="M 70.25 27.38
  C 73.05 27.35 76.34 27.97 80.02 28.19
  Q 80.54 28.23 80.63 28.73
  L 84.37 49.04
  Q 84.66 50.59 83.62 49.41
  Q 78.91 44.09 74.00 38.50
  Q 72.35 36.61 70.05 35.56
  Q 62.11 31.94 55.16 28.63
  Q 52.36 27.30 55.46 27.35
  Q 62.38 27.45 70.25 27.38
  Z" fill="#9c83b6"></path>
<path d="M 42.02 30.58
  L 43.42 28.67
  Q 43.96 27.93 44.88 27.89
  C 47.89 27.73 50.84 27.43 53.66 29.06
  Q 55.23 29.96 56.90 30.62
  Q 63.43 33.15 69.17 36.18
  A 0.34 0.33 57.8 0 1 69.03 36.81
  L 61.13 37.09
  A 1.13 1.11 -20.4 0 1 60.22 36.68
  C 58.03 34.08 55.20 31.17 51.83 30.17
  C 48.06 29.07 45.55 30.14 42.41 31.13
  Q 41.38 31.45 42.02 30.58
  Z" fill="#b80f9e"></path>
<path d="M 97.47 28.25
  Q 98.43 28.73 98.39 29.71
  A 0.27 0.26 -20.8 0 0 98.84 29.91
  L 99.93 28.88
  L 95.08 52.62
  A 0.63 0.63 0.0 0 1 93.85 52.61
  Q 93.73 51.98 93.82 51.42
  Q 93.87 51.13 93.87 50.83
  Q 93.87 50.40 93.88 50.00
  A 1.02 0.05 -65.0 0 1 94.22 49.16
  Q 94.53 48.48 94.64 47.25
  Q 95.21 41.34 97.47 28.25
  Z" fill="#b80f9e"></path>
<path d="M 38.02 45.04
  L 37.68 44.58
  Q 37.84 44.64 37.99 44.62
  Q 38.34 44.57 38.20 44.24
  C 36.63 40.61 38.76 36.23 41.27 33.64
  C 46.78 27.95 55.22 30.99 59.30 36.82
  A 0.39 0.39 0.0 0 1 59.00 37.43
  L 48.71 37.80
  Q 48.24 37.82 47.86 38.09
  L 38.02 45.04
  Z" fill="#ff0098"></path>
<path d="M 124.27 32.82
  Q 122.27 34.36 121.37 36.29
  A 1.34 1.32 13.4 0 1 120.10 37.06
  L 113.45 36.72
  Q 111.18 36.60 113.22 35.61
  L 116.54 34.01
  L 122.44 31.39
  Q 122.82 31.21 123.11 31.53
  L 124.27 32.82
  Z" fill="#b80f9e"></path>
<path d="M 142.86 43.40
  Q 143.05 43.46 143.01 43.93
  L 133.85 38.06
  Q 133.41 37.78 132.88 37.76
  L 122.48 37.43
  A 0.50 0.49 -75.1 0 1 122.06 36.70
  Q 124.25 32.59 129.00 31.46
  Q 139.32 29.02 142.39 38.23
  C 142.92 39.81 142.58 41.65 142.86 43.40
  Z" fill="#ff0098"></path>
<path d="M 31.47 54.60
  L 27.54 55.05
  L 27.75 54.09
  Q 27.84 53.70 28.16 53.46
  L 47.70 39.04
  A 2.97 2.94 25.0 0 1 49.27 38.48
  L 71.85 37.36
  A 0.73 0.71 -20.8 0 1 72.45 37.62
  L 78.21 44.49
  A 0.23 0.23 0.0 0 1 78.08 44.86
  Q 68.84 46.82 59.58 48.73
  C 55.01 49.68 50.24 48.23 45.87 47.18
  A 2.54 2.51 32.1 0 0 43.70 47.66
  L 36.45 53.49
  A 1.64 1.63 28.4 0 1 35.29 53.83
  Q 33.03 53.60 30.75 53.96
  Q 29.15 54.22 30.64 54.71
  Q 30.67 54.73 31.47 54.60
  Z" fill="#901cd3"></path>
<path d="M 133.04 38.36
  L 129.05 38.40
  Q 128.68 38.41 128.92 38.69
  Q 129.29 39.15 129.02 39.57
  Q 128.69 40.08 129.11 40.51
  L 134.73 46.17
  Q 130.08 47.06 125.61 48.34
  C 124.21 48.74 122.96 48.46 121.57 48.30
  L 103.80 44.82
  A 0.50 0.50 0.0 0 1 103.51 44.01
  L 108.18 38.46
  A 3.05 3.02 -68.6 0 1 110.65 37.37
  L 133.04 38.36
  Z" fill="#a716ba"></path>
<path d="M 133.04 38.36
  L 154.44 52.28
  Q 154.82 52.53 154.47 52.81
  Q 153.77 53.39 152.73 53.14
  Q 146.62 51.65 143.60 51.22
  A 1.69 1.66 -20.0 0 1 142.74 50.83
  Q 138.96 47.56 134.73 46.17
  L 129.11 40.51
  Q 128.69 40.08 129.02 39.57
  Q 129.29 39.15 128.92 38.69
  Q 128.68 38.41 129.05 38.40
  L 133.04 38.36
  Z" fill="#901cd3"></path>
<path d="M 37.68 44.58
  L 38.02 45.04
  L 29.71 51.12
  Q 29.40 51.35 29.02 51.31
  Q 28.69 51.29 28.58 51.05
  Q 28.53 50.93 28.61 50.84
  C 31.12 47.65 33.02 44.35 34.99 41.33
  Q 37.11 38.08 36.81 41.95
  Q 36.77 42.43 37.68 44.58
  Z" fill="#764f95"></path>
<path d="M 91.25 70.45
  A 0.34 0.34 0.0 0 1 90.65 70.46
  L 77.60 46.33
  Q 77.33 45.83 77.86 45.62
  Q 79.05 45.13 79.89 46.11
  Q 85.19 52.30 90.59 58.53
  A 0.45 0.45 0.0 0 0 91.28 58.52
  Q 96.42 52.41 101.61 46.11
  Q 102.38 45.17 103.70 45.52
  A 0.68 0.68 0.0 0 1 104.13 46.50
  L 91.25 70.45
  Z" fill="#f3a4ff"></path>
<path d="M 79.19 82.07
  L 78.17 73.41
  Q 78.11 72.89 78.43 72.47
  L 81.37 68.63
  A 1.52 1.50 47.8 0 0 81.44 66.90
  L 73.07 53.69
  Q 72.47 52.76 71.89 52.64
  Q 65.74 51.39 59.62 50.19
  A 0.32 0.32 0.0 0 1 59.43 49.68
  Q 59.70 49.34 60.25 49.24
  Q 68.39 47.68 76.36 46.07
  A 0.55 0.55 0.0 0 1 76.95 46.35
  L 89.97 70.72
  A 1.41 1.41 0.0 0 1 89.68 72.43
  L 79.19 82.07
  Z" fill="#ff0098"></path>
<path d="M 121.57 48.30
  L 121.35 49.07
  Q 121.24 49.47 120.83 49.56
  L 108.53 52.23
  A 1.50 1.48 7.8 0 0 107.56 52.96
  L 99.60 67.33
  A 0.54 0.52 40.0 0 0 99.66 67.92
  L 103.73 72.89
  Q 103.44 72.59 103.47 73.43
  L 102.09 80.79
  Q 101.99 81.35 102.55 81.43
  L 103.05 81.51
  Q 103.53 81.59 103.86 81.94
  L 108.26 86.46
  L 108.97 88.29
  Q 108.99 88.32 109.01 88.35
  Q 108.47 94.37 109.33 100.86
  Q 109.09 100.79 108.88 100.97
  Q 108.65 101.17 108.36 101.10
  Q 108.06 101.03 107.87 100.78
  Q 105.67 95.67 103.27 90.64
  C 102.01 88.02 102.22 86.09 102.26 83.30
  Q 102.26 82.84 101.94 82.51
  L 92.03 72.42
  A 1.26 1.24 -53.7 0 1 91.82 70.97
  L 104.88 46.48
  Q 105.12 46.03 105.62 46.10
  Q 113.20 47.22 120.74 48.65
  Q 121.37 48.77 121.57 48.30
  Z" fill="#ff0098"></path>
<path d="M 157.62 74.86
  A 0.29 0.29 0.0 0 1 157.30 75.23
  L 147.17 73.85
  Q 146.88 73.81 146.80 73.53
  L 143.06 60.21
  A 1.74 1.72 86.5 0 0 141.66 58.96
  Q 133.63 57.68 125.52 55.83
  C 122.39 55.12 116.10 54.31 111.57 52.75
  A 0.30 0.30 0.0 0 1 111.59 52.17
  C 116.54 50.99 121.57 50.10 126.44 48.71
  C 127.80 48.32 129.07 48.22 130.43 47.80
  Q 133.04 46.99 135.80 46.94
  A 1.65 1.62 -27.1 0 1 136.79 47.25
  L 153.08 59.44
  A 1.89 1.87 -79.5 0 1 153.78 60.47
  L 157.62 74.86
  Z" fill="#8e50ef"></path>
<path d="M 25.02 76.72
  Q 24.63 77.05 24.04 76.70
  A 0.50 0.49 -67.5 0 1 23.81 76.14
  L 27.72 62.04
  A 3.04 2.99 -11.9 0 1 28.77 60.46
  L 43.67 48.62
  A 3.20 3.17 31.4 0 1 46.29 48.00
  L 68.25 52.55
  Q 70.83 53.09 68.26 53.70
  L 40.94 60.27
  A 1.30 1.29 2.5 0 0 40.03 61.10
  L 35.98 73.00
  A 1.82 1.82 0.0 0 1 34.65 74.19
  Q 29.90 75.23 25.24 76.60
  A 0.73 0.70 -72.6 0 0 25.02 76.72
  Z" fill="#8e50ef"></path>
<path d="M 125.49 56.62
  L 125.56 57.00
  L 119.25 60.02
  A 0.52 0.52 0.0 0 0 119.02 60.75
  L 126.99 74.76
  A 0.41 0.40 -16.2 0 1 126.66 75.36
  L 118.03 75.96
  C 114.70 76.42 112.89 73.38 109.34 73.23
  L 107.29 73.13
  L 107.24 67.34
  A 0.94 0.93 17.4 0 0 106.83 66.57
  L 103.16 64.04
  A 0.94 0.93 31.8 0 1 102.87 62.83
  L 107.73 54.03
  Q 108.32 52.95 109.52 53.21
  L 125.49 56.62
  Z" fill="#ff68d0"></path>
<path d="M 72.71 54.22
  L 78.64 63.78
  L 78.43 64.49
  L 74.74 66.76
  A 0.78 0.76 -17.3 0 0 74.37 67.45
  L 74.53 72.52
  Q 74.54 73.10 73.97 73.15
  L 71.22 73.40
  C 67.96 74.13 65.98 76.90 62.75 76.68
  Q 60.12 76.50 57.59 76.19
  Q 56.27 75.73 54.45 76.11
  A 0.55 0.55 0.0 0 1 53.85 75.31
  L 61.37 61.08
  A 0.57 0.57 0.0 0 0 61.12 60.30
  L 56.94 58.27
  Q 55.13 57.39 57.09 56.96
  Q 64.18 55.41 71.27 53.77
  Q 72.23 53.54 72.71 54.22
  Z" fill="#ff68d0"></path>
<path d="M 73.07 53.69
  L 81.44 66.90
  A 1.52 1.50 47.8 0 1 81.37 68.63
  L 78.43 72.47
  Q 78.11 72.89 78.17 73.41
  L 79.19 82.07
  L 78.52 82.73
  Q 77.91 82.88 77.22 82.62
  Q 76.57 81.89 75.99 82.02
  C 71.86 82.97 70.09 81.16 67.73 78.18
  Q 67.36 77.72 66.78 77.68
  L 61.27 77.29
  Q 58.93 77.13 60.89 78.43
  L 71.90 85.79
  L 57.72 77.20
  L 56.83 76.82
  Q 56.56 76.41 57.59 76.19
  Q 60.12 76.50 62.75 76.68
  C 65.98 76.90 67.96 74.13 71.22 73.40
  L 70.81 75.31
  Q 69.57 77.55 71.35 78.98
  C 74.71 81.69 79.54 76.87 77.04 74.45
  Q 77.16 73.86 76.88 73.93
  L 80.81 68.21
  A 0.80 0.79 -43.9 0 0 80.83 67.32
  L 78.64 63.78
  L 72.71 54.22
  Q 72.58 53.88 73.07 53.69
  Z" fill="#8e0b50"></path>
<path d="M 125.49 56.62
  L 141.35 59.67
  A 1.27 1.27 0.0 0 1 142.33 60.58
  L 145.87 73.55
  Q 143.36 72.43 142.12 74.55
  Q 141.87 74.98 141.38 75.07
  Q 140.00 75.32 139.11 76.51
  Q 138.78 76.95 138.24 77.09
  Q 137.02 77.41 136.08 78.27
  A 0.21 0.20 -65.2 0 0 136.21 78.63
  Q 136.35 78.63 136.48 78.63
  Q 136.70 78.63 136.80 78.83
  Q 137.04 79.30 136.67 79.79
  L 120.39 61.59
  Q 119.36 60.43 120.77 59.77
  L 125.52 57.54
  Q 125.66 57.48 125.64 57.32
  Q 125.62 57.04 125.56 57.00
  L 125.49 56.62
  Z" fill="#b80f9e"></path>
<path d="M 46.70 77.40
  Q 45.69 75.16 44.92 74.23
  C 43.75 72.84 41.68 71.34 39.87 69.24
  Q 39.64 68.97 39.29 68.90
  Q 38.72 68.78 38.64 69.26
  Q 38.53 69.94 38.40 69.12
  Q 38.34 68.72 38.09 68.71
  L 40.55 61.62
  A 1.36 1.33 -86.2 0 1 41.52 60.75
  L 54.18 57.90
  A 0.76 0.71 50.4 0 1 54.65 57.96
  L 59.70 60.46
  A 0.76 0.76 0.0 0 1 59.94 61.63
  L 46.70 77.40
  Z" fill="#b80f9e"></path>
<path d="M 78.64 63.78
  L 80.83 67.32
  A 0.80 0.79 -43.9 0 1 80.81 68.21
  L 76.88 73.93
  Q 76.26 73.88 75.48 73.33
  Q 75.11 73.07 75.11 72.62
  L 75.07 67.66
  A 0.97 0.95 77.4 0 1 75.61 66.79
  Q 77.32 65.95 78.43 64.49
  L 78.64 63.78
  Z" fill="#e94a76"></path>
<path d="M 106.49 73.12
  L 104.96 73.63
  Q 104.23 73.41 103.47 73.43
  Q 103.44 72.59 103.73 72.89
  Q 102.69 70.24 100.50 68.26
  A 0.78 0.78 0.0 0 1 100.35 67.30
  L 101.88 64.65
  Q 102.23 64.05 102.79 64.46
  L 106.16 66.95
  A 0.90 0.86 -72.8 0 1 106.52 67.67
  L 106.49 73.12
  Z" fill="#e94a76"></path>
<path d="M 78.43 64.49
  Q 77.32 65.95 75.61 66.79
  A 0.97 0.95 77.4 0 0 75.07 67.66
  L 75.11 72.62
  Q 75.11 73.07 75.48 73.33
  Q 76.26 73.88 76.88 73.93
  Q 77.16 73.86 77.04 74.45
  Q 76.82 74.44 76.52 74.56
  A 0.73 0.73 0.0 0 0 76.06 75.12
  Q 75.64 77.55 73.23 77.52
  Q 72.73 77.51 72.41 77.14
  L 70.81 75.31
  L 71.22 73.40
  L 73.97 73.15
  Q 74.54 73.10 74.53 72.52
  L 74.37 67.45
  A 0.78 0.76 -17.3 0 1 74.74 66.76
  L 78.43 64.49
  Z" fill="#2c2b39"></path>
<path d="M 153.96 101.77
  L 142.94 101.83
  Q 143.21 100.60 141.34 99.62
  Q 141.09 99.49 140.98 99.75
  Q 140.90 99.94 140.73 99.91
  Q 140.28 99.81 140.06 99.29
  Q 140.45 99.02 140.54 98.54
  L 140.90 98.88
  Q 141.19 99.16 141.18 98.75
  Q 141.16 98.35 140.95 97.98
  Q 131.90 82.19 124.84 69.76
  Q 120.91 62.85 126.16 68.82
  L 153.52 100.03
  Q 153.80 100.35 153.84 100.76
  L 153.96 101.77
  Z" fill="#52579c"></path>
<path d="M 51.57 78.73
  Q 45.29 90.45 39.20 102.14
  A 0.93 0.92 14.8 0 1 38.33 102.64
  Q 33.68 102.40 28.90 102.63
  Q 28.46 102.65 28.15 102.49
  Q 27.73 102.27 27.52 102.01
  A 0.67 0.67 0.0 0 1 27.51 101.14
  Q 41.59 84.51 55.61 68.05
  Q 55.83 67.79 56.13 67.93
  A 0.43 0.43 0.0 0 1 56.35 68.48
  Q 54.25 73.71 51.57 78.73
  Z" fill="#52579c"></path>
<path d="M 38.09 68.71
  Q 38.34 68.72 38.40 69.12
  Q 38.53 69.94 38.64 69.26
  Q 38.72 68.78 39.29 68.90
  Q 39.64 68.97 39.87 69.24
  C 41.68 71.34 43.75 72.84 44.92 74.23
  Q 45.69 75.16 46.70 77.40
  L 28.08 99.37
  Q 28.00 99.45 27.93 99.37
  L 27.75 99.15
  Q 27.67 99.05 27.71 98.92
  L 38.09 68.71
  Z" fill="#a716ba"></path>
<path d="M 107.50 101.27
  Q 107.68 102.27 108.24 102.76
  L 110.07 106.86
  A 0.46 0.45 85.4 0 1 109.54 107.49
  L 103.02 105.77
  Q 102.50 105.63 102.28 106.12
  L 100.59 109.94
  Q 100.44 110.02 100.27 110.07
  Q 99.90 110.18 99.59 109.97
  C 98.22 109.05 97.15 108.28 96.44 106.69
  Q 93.71 100.56 90.73 94.61
  A 0.35 0.35 0.0 0 0 90.10 94.62
  Q 87.31 100.57 84.76 106.67
  C 84.19 108.05 83.24 108.78 82.40 110.03
  Q 82.22 110.21 81.74 110.33
  Q 80.11 108.77 79.23 106.69
  A 0.69 0.69 0.0 0 0 78.37 106.31
  L 71.96 108.56
  Q 71.10 108.84 70.75 107.65
  Q 74.68 98.94 78.27 90.54
  C 79.32 88.10 79.04 86.14 79.13 83.57
  Q 79.14 83.09 79.49 82.77
  L 90.45 72.63
  A 0.69 0.68 -43.5 0 1 91.40 72.65
  L 101.13 82.61
  A 1.38 1.37 -67.2 0 1 101.52 83.57
  C 101.54 85.82 101.29 87.59 102.23 89.70
  Q 104.82 95.52 107.50 101.27
  Z" fill="#ff68d0"></path>
<path d="M 145.87 73.55
  Q 148.82 82.91 151.76 92.38
  C 152.18 93.73 153.34 95.59 153.36 97.31
  Q 153.38 98.78 152.41 97.68
  L 136.67 79.79
  Q 137.04 79.30 136.80 78.83
  Q 136.70 78.63 136.48 78.63
  Q 136.35 78.63 136.21 78.63
  A 0.21 0.20 -65.2 0 1 136.08 78.27
  Q 137.02 77.41 138.24 77.09
  Q 138.78 76.95 139.11 76.51
  Q 140.00 75.32 141.38 75.07
  Q 141.87 74.98 142.12 74.55
  Q 143.36 72.43 145.87 73.55
  Z" fill="#a716ba"></path>
<path d="M 106.49 73.12
  L 107.29 73.13
  L 109.34 73.23
  Q 110.38 73.57 110.49 75.61
  C 108.28 76.77 106.20 78.13 105.01 74.40
  Q 104.73 74.29 104.96 73.63
  L 106.49 73.12
  Z" fill="#2c2b39"></path>
<path d="M 109.34 73.23
  C 112.89 73.38 114.70 76.42 118.03 75.96
  Q 120.44 75.63 119.50 76.49
  Q 116.51 76.25 113.84 77.32
  A 1.61 1.56 3.0 0 0 113.05 78.01
  Q 110.53 82.34 105.55 81.19
  Q 103.22 80.64 104.95 82.30
  L 108.48 85.69
  Q 108.30 86.03 108.26 86.46
  L 103.86 81.94
  Q 103.53 81.59 103.05 81.51
  L 102.55 81.43
  Q 101.99 81.35 102.09 80.79
  L 103.47 73.43
  Q 104.23 73.41 104.96 73.63
  Q 104.73 74.29 105.01 74.40
  Q 103.37 74.25 103.47 75.77
  C 103.66 78.68 107.91 80.57 110.32 78.35
  Q 112.02 76.77 110.49 75.61
  Q 110.38 73.57 109.34 73.23
  Z" fill="#8e0b50"></path>
<path d="M 105.01 74.40
  C 106.20 78.13 108.28 76.77 110.49 75.61
  Q 112.02 76.77 110.32 78.35
  C 107.91 80.57 103.66 78.68 103.47 75.77
  Q 103.37 74.25 105.01 74.40
  Z" fill="#e7ddfe"></path>
<path d="M 77.04 74.45
  C 79.54 76.87 74.71 81.69 71.35 78.98
  Q 69.57 77.55 70.81 75.31
  L 72.41 77.14
  Q 72.73 77.51 73.23 77.52
  Q 75.64 77.55 76.06 75.12
  A 0.73 0.73 0.0 0 1 76.52 74.56
  Q 76.82 74.44 77.04 74.45
  Z" fill="#e7ddfe"></path>
<path d="M 140.54 98.54
  Q 140.45 99.02 140.06 99.29
  L 124.42 86.93
  A 0.94 0.94 0.0 0 1 124.06 86.17
  L 124.23 76.70
  Q 124.24 76.14 124.80 76.12
  L 127.17 75.99
  Q 127.64 75.97 127.87 76.38
  L 140.54 98.54
  Z" fill="#8e50ef"></path>
<path d="M 108.48 85.69
  L 104.95 82.30
  Q 103.22 80.64 105.55 81.19
  Q 110.53 82.34 113.05 78.01
  A 1.61 1.56 3.0 0 1 113.84 77.32
  Q 116.51 76.25 119.50 76.49
  L 120.75 76.27
  Q 123.09 75.86 121.18 77.27
  Q 115.73 81.30 109.51 85.66
  Q 109.25 85.84 109.02 85.85
  Q 108.70 85.85 108.48 85.69
  Z" fill="#e94a76"></path>
<path d="M 56.83 76.82
  L 57.72 77.20
  Q 57.37 77.40 57.36 77.48
  Q 56.76 77.51 56.79 78.50
  Q 56.96 84.62 57.13 87.12
  Q 57.16 87.61 56.79 87.92
  L 41.20 100.99
  Q 41.80 100.65 41.12 100.73
  Q 41.04 100.74 41.01 100.67
  Q 40.86 100.35 41.01 100.07
  Q 46.67 89.23 52.33 78.37
  C 53.42 76.29 54.76 76.26 56.83 76.82
  Z" fill="#8e50ef"></path>
<path d="M 123.39 86.22
  L 118.10 96.48
  A 0.31 0.31 0.0 0 1 117.59 96.54
  L 109.49 86.86
  A 0.31 0.31 0.0 0 1 109.55 86.41
  L 123.17 76.60
  A 0.31 0.31 0.0 0 1 123.66 76.86
  L 123.42 86.09
  A 0.31 0.31 0.0 0 1 123.39 86.22
  Z" fill="#f3a4ff"></path>
<path d="M 77.22 82.62
  Q 76.79 83.13 77.10 82.86
  Q 74.34 84.60 72.38 87.03
  Q 72.32 86.26 71.90 85.79
  L 60.89 78.43
  Q 58.93 77.13 61.27 77.29
  L 66.78 77.68
  Q 67.36 77.72 67.73 78.18
  C 70.09 81.16 71.86 82.97 75.99 82.02
  Q 76.57 81.89 77.22 82.62
  Z" fill="#e94a76"></path>
<path d="M 57.72 77.20
  L 71.90 85.79
  Q 72.32 86.26 72.38 87.03
  L 63.96 97.83
  Q 63.86 97.67 63.27 97.81
  Q 61.36 94.12 59.38 90.48
  Q 57.96 87.84 57.69 85.19
  Q 57.32 81.39 57.36 77.48
  Q 57.37 77.40 57.72 77.20
  Z" fill="#f3a4ff"></path>
<path d="M 77.22 82.62
  Q 77.91 82.88 78.52 82.73
  C 79.30 89.45 75.85 94.34 73.57 100.23
  Q 73.42 100.63 72.99 100.62
  Q 72.86 100.62 72.73 100.62
  Q 72.36 100.63 72.38 100.27
  Q 72.66 95.40 73.13 90.56
  C 73.26 89.25 72.54 87.54 73.96 86.21
  Q 76.05 84.26 77.10 82.86
  Q 76.79 83.13 77.22 82.62
  Z" fill="#ff0098"></path>
<path d="M 144.39 121.81
  Q 144.44 122.35 144.40 122.49
  Q 143.99 124.01 143.29 122.72
  L 132.15 102.03
  A 2.44 2.43 -5.7 0 0 130.69 100.84
  L 118.92 97.35
  A 0.43 0.43 0.0 0 1 118.66 96.73
  L 123.36 87.85
  Q 123.75 87.13 124.39 87.64
  L 141.55 101.24
  A 2.00 1.96 -73.8 0 1 142.28 102.60
  Q 143.19 111.79 144.53 121.26
  Q 144.55 121.41 144.47 121.53
  Q 144.38 121.65 144.39 121.81
  Z" fill="#a716ba"></path>
<path d="M 108.97 88.29
  Q 109.70 88.18 110.11 88.64
  Q 113.61 92.64 117.00 96.92
  A 1.21 1.19 38.4 0 1 117.15 98.14
  L 112.57 108.51
  A 0.56 0.56 0.0 0 1 111.58 108.58
  C 110.11 106.21 110.33 104.17 109.41 101.77
  Q 109.26 101.38 109.06 101.74
  Q 108.72 102.34 108.24 102.76
  Q 107.68 102.27 107.50 101.27
  Q 107.95 101.18 107.87 100.78
  Q 108.06 101.03 108.36 101.10
  Q 108.65 101.17 108.88 100.97
  Q 109.09 100.79 109.33 100.86
  Q 109.71 100.90 109.67 99.25
  Q 109.54 93.88 109.01 88.35
  Q 108.99 88.32 108.97 88.29
  Z" fill="#ca3aa2"></path>
<path d="M 49.29 102.98
  Q 49.15 102.76 48.67 102.91
  Q 48.41 102.99 48.40 102.71
  L 48.40 102.24
  Q 48.39 101.94 48.18 101.73
  L 44.85 98.52
  L 56.59 88.74
  A 0.85 0.85 0.0 0 1 57.87 88.99
  L 62.32 97.27
  A 1.04 1.04 0.0 0 1 61.74 98.75
  Q 56.17 100.66 50.25 102.27
  Q 49.94 102.36 49.29 102.98
  Z" fill="#a716ba"></path>
<path d="M 109.01 88.35
  Q 109.54 93.88 109.67 99.25
  Q 109.71 100.90 109.33 100.86
  Q 108.47 94.37 109.01 88.35
  Z" fill="#653075"></path>
<path d="M 70.75 107.65
  Q 71.10 108.84 71.96 108.56
  Q 69.44 108.72 69.70 109.78
  Q 69.45 109.83 69.41 110.06
  Q 68.90 109.79 68.74 109.91
  Q 68.12 108.78 68.23 109.62
  L 63.95 99.04
  Q 63.90 98.91 63.92 98.76
  Q 63.94 98.58 63.96 98.42
  Q 64.02 97.96 63.57 97.87
  L 63.27 97.81
  Q 63.86 97.67 63.96 97.83
  L 71.22 89.26
  Q 72.75 87.46 72.65 89.82
  Q 72.51 93.33 71.97 97.41
  C 71.70 99.48 72.53 101.63 71.74 103.58
  Q 70.94 105.54 70.75 107.65
  Z" fill="#ca3aa2"></path>
<path d="M 100.59 109.94
  Q 100.95 109.93 100.81 110.66
  Q 99.22 111.72 96.93 112.16
  Q 96.44 112.25 96.11 112.64
  Q 93.82 115.32 92.94 118.77
  Q 92.80 119.31 93.06 119.80
  L 96.36 125.94
  Q 96.94 127.02 98.17 127.04
  L 105.76 127.19
  L 106.04 127.73
  Q 106.10 128.29 103.74 127.47
  L 97.34 127.55
  Q 96.73 127.55 96.43 127.02
  L 92.83 120.51
  A 2.57 2.57 0.0 0 0 88.33 120.52
  L 84.75 127.05
  A 0.87 0.85 13.7 0 1 83.99 127.50
  L 76.52 127.54
  Q 77.06 126.76 77.76 126.82
  Q 80.66 127.05 83.66 126.91
  Q 84.21 126.89 84.48 126.40
  L 88.14 119.61
  A 0.87 0.86 47.7 0 0 88.17 118.85
  L 85.38 112.50
  Q 87.15 112.99 87.38 115.00
  Q 87.39 115.13 87.52 115.13
  Q 87.64 115.13 87.77 115.12
  Q 88.04 115.11 88.14 114.86
  Q 88.54 113.78 88.06 112.57
  Q 87.89 112.14 87.45 112.00
  Q 86.47 111.68 85.38 112.50
  Q 83.63 112.03 82.34 110.96
  Q 85.06 111.29 87.52 111.35
  Q 89.14 111.39 89.37 112.94
  Q 89.48 113.67 88.83 114.97
  Q 88.03 116.56 88.54 117.64
  A 2.18 2.18 0.0 0 0 92.36 117.88
  Q 92.56 117.58 92.24 117.01
  Q 92.01 116.60 91.95 116.13
  C 91.19 110.05 93.97 111.36 98.37 111.02
  A 0.50 0.50 0.0 0 0 98.72 110.21
  Q 98.05 109.39 97.04 109.01
  Q 96.61 108.84 96.19 109.03
  Q 92.21 110.80 87.92 109.78
  Q 87.89 109.78 87.89 109.74
  L 87.95 109.45
  Q 87.99 109.25 88.19 109.28
  Q 92.12 109.79 95.86 108.51
  Q 96.51 108.29 96.23 107.67
  L 90.86 95.97
  Q 90.49 95.18 90.11 95.97
  Q 87.08 102.21 84.63 108.48
  Q 84.19 109.62 82.40 110.03
  C 83.24 108.78 84.19 108.05 84.76 106.67
  Q 87.31 100.57 90.10 94.62
  A 0.35 0.35 0.0 0 1 90.73 94.61
  Q 93.71 100.56 96.44 106.69
  C 97.15 108.28 98.22 109.05 99.59 109.97
  Q 99.90 110.18 100.27 110.07
  Q 100.44 110.02 100.59 109.94
  Z
  M 94.01 112.12
  L 93.62 112.12
  Q 93.05 112.12 92.86 112.66
  Q 92.50 113.65 92.89 114.72
  Q 93.21 115.59 93.63 114.77
  Q 94.26 113.51 95.41 112.63
  A 0.43 0.43 0.0 0 0 95.23 111.87
  Q 94.82 111.78 94.51 111.98
  Q 94.28 112.12 94.01 112.12
  Z" fill="#8e0b50"></path>
<path d="M 82.34 110.96
  Q 82.31 111.01 82.28 111.05
  Q 82.61 110.44 81.74 110.33
  Q 82.22 110.21 82.40 110.03
  Q 84.19 109.62 84.63 108.48
  Q 87.08 102.21 90.11 95.97
  Q 90.49 95.18 90.86 95.97
  L 96.23 107.67
  Q 96.51 108.29 95.86 108.51
  Q 92.12 109.79 88.19 109.28
  Q 87.99 109.25 87.95 109.45
  L 87.89 109.74
  Q 87.89 109.78 87.92 109.78
  Q 92.21 110.80 96.19 109.03
  Q 96.61 108.84 97.04 109.01
  Q 98.05 109.39 98.72 110.21
  A 0.50 0.50 0.0 0 1 98.37 111.02
  C 93.97 111.36 91.19 110.05 91.95 116.13
  Q 92.01 116.60 92.24 117.01
  Q 92.56 117.58 92.36 117.88
  A 2.18 2.18 0.0 0 1 88.54 117.64
  Q 88.03 116.56 88.83 114.97
  Q 89.48 113.67 89.37 112.94
  Q 89.14 111.39 87.52 111.35
  Q 85.06 111.29 82.34 110.96
  Z" fill="#e60076"></path>
<path d="M 145.65 128.98
  L 145.63 130.96
  Q 145.63 131.47 145.19 131.74
  L 144.46 132.18
  L 124.30 110.33
  A 0.73 0.71 64.3 0 0 123.70 110.11
  L 113.17 111.55
  A 0.81 0.81 0.0 0 1 112.33 110.41
  L 117.94 98.28
  Q 118.14 97.84 118.61 97.98
  L 130.70 101.62
  Q 131.24 101.78 131.50 102.28
  L 145.65 128.98
  Z" fill="#8e50ef"></path>
<path d="M 44.85 98.52
  L 48.18 101.73
  Q 48.39 101.94 48.40 102.24
  L 48.40 102.71
  Q 48.41 102.99 48.67 102.91
  Q 49.15 102.76 49.29 102.98
  L 38.44 122.25
  Q 38.18 122.72 37.80 122.34
  Q 37.11 121.67 37.31 120.72
  Q 37.94 117.75 38.17 115.34
  C 38.56 111.49 39.37 107.94 39.36 104.16
  C 39.36 103.05 39.79 102.60 40.55 101.94
  Q 40.93 101.62 40.74 101.16
  Q 40.48 100.51 41.01 100.07
  Q 40.86 100.35 41.01 100.67
  Q 41.04 100.74 41.12 100.73
  Q 41.80 100.65 41.20 100.99
  Q 43.09 100.45 44.85 98.52
  Z" fill="#901cd3"></path>
<path d="M 68.23 109.62
  Q 68.12 108.78 68.74 109.91
  Q 68.53 109.90 68.45 110.09
  Q 68.40 110.21 68.47 110.40
  Q 69.09 112.01 68.18 112.96
  L 67.87 113.04
  Q 67.82 112.65 67.36 112.58
  Q 62.38 111.78 57.16 111.15
  Q 56.60 111.08 56.23 111.50
  L 37.05 133.10
  Q 35.99 134.30 36.05 132.70
  C 36.15 130.00 36.16 127.66 37.55 125.14
  Q 43.44 114.47 49.56 103.76
  A 2.39 2.33 -83.0 0 1 50.92 102.67
  L 62.78 99.01
  Q 63.33 98.84 63.56 99.36
  L 68.23 109.62
  Z" fill="#8e50ef"></path>
<path d="M 81.74 110.33
  Q 82.61 110.44 82.28 111.05
  Q 81.73 111.46 81.10 110.64
  Q 79.86 109.02 79.22 107.60
  A 1.25 1.25 0.0 0 0 77.66 106.95
  L 69.70 109.78
  Q 69.44 108.72 71.96 108.56
  L 78.37 106.31
  A 0.69 0.69 0.0 0 1 79.23 106.69
  Q 80.11 108.77 81.74 110.33
  Z" fill="#8e0b50"></path>
<path d="M 105.76 127.19
  L 98.17 127.04
  Q 96.94 127.02 96.36 125.94
  L 93.06 119.80
  Q 92.80 119.31 92.94 118.77
  Q 93.82 115.32 96.11 112.64
  Q 96.44 112.25 96.93 112.16
  Q 99.22 111.72 100.81 110.66
  L 102.56 106.82
  A 0.81 0.80 21.5 0 1 103.56 106.39
  C 105.88 107.17 111.82 107.65 111.73 110.73
  C 111.65 113.70 111.80 116.68 111.61 119.65
  Q 111.58 120.16 111.25 120.55
  L 105.76 127.19
  Z" fill="#ff0098"></path>
<path d="M 82.28 111.05
  Q 82.31 111.01 82.34 110.96
  Q 83.63 112.03 85.38 112.50
  L 88.17 118.85
  A 0.87 0.86 47.7 0 1 88.14 119.61
  L 84.48 126.40
  Q 84.21 126.89 83.66 126.91
  Q 80.66 127.05 77.76 126.82
  Q 77.06 126.76 76.52 127.54
  Q 76.97 127.41 76.26 127.55
  L 69.73 120.92
  A 1.24 1.23 23.0 0 1 69.38 120.06
  L 69.41 110.06
  Q 69.45 109.83 69.70 109.78
  L 77.66 106.95
  A 1.25 1.25 0.0 0 1 79.22 107.60
  Q 79.86 109.02 81.10 110.64
  Q 81.73 111.46 82.28 111.05
  Z" fill="#ff0098"></path>
<path d="M 68.74 109.91
  Q 68.90 109.79 69.41 110.06
  L 69.38 120.06
  A 1.24 1.23 23.0 0 0 69.73 120.92
  L 76.26 127.55
  Q 75.27 128.86 75.28 129.50
  Q 75.37 135.66 74.84 141.80
  Q 74.69 141.78 74.55 141.76
  Q 74.52 141.75 74.52 141.72
  L 74.58 131.00
  Q 74.59 129.62 73.94 130.83
  L 61.91 153.09
  L 74.69 127.96
  Q 74.93 127.49 74.57 127.10
  L 69.42 121.47
  L 68.98 120.97
  Q 68.65 120.61 68.63 120.12
  L 68.30 114.72
  Q 67.96 113.99 68.18 112.96
  Q 69.09 112.01 68.47 110.40
  Q 68.40 110.21 68.45 110.09
  Q 68.53 109.90 68.74 109.91
  Z" fill="#653075"></path>
<path d="M 144.46 132.18
  L 145.19 131.74
  Q 145.63 131.47 145.63 130.96
  L 145.65 128.98
  Q 145.48 129.26 146.26 129.02
  L 146.57 132.50
  L 145.06 133.51
  Q 144.65 133.79 144.14 133.79
  L 126.83 133.80
  L 113.16 113.67
  L 112.84 112.42
  C 116.20 111.69 119.48 111.58 122.78 110.97
  Q 124.24 110.71 125.32 111.93
  Q 135.57 123.66 144.46 132.18
  Z" fill="#901cd3"></path>
<path d="M 67.87 113.04
  L 68.18 112.96
  Q 67.96 113.99 68.30 114.72
  Q 67.49 114.68 67.53 115.13
  Q 67.42 115.18 67.30 115.23
  Q 67.25 115.26 67.22 115.30
  Q 60.89 124.84 54.77 134.50
  A 1.91 1.90 16.1 0 1 53.16 135.38
  L 37.20 135.27
  A 0.58 0.57 -68.8 0 1 36.78 134.31
  L 56.63 111.98
  A 0.92 0.89 -64.0 0 1 57.43 111.69
  L 67.68 113.32
  Q 67.74 113.33 67.77 113.27
  Q 67.82 113.16 67.87 113.04
  Z" fill="#901cd3"></path>
<path d="M 85.38 112.50
  Q 86.47 111.68 87.45 112.00
  Q 87.89 112.14 88.06 112.57
  Q 88.54 113.78 88.14 114.86
  Q 88.04 115.11 87.77 115.12
  Q 87.64 115.13 87.52 115.13
  Q 87.39 115.13 87.38 115.00
  Q 87.15 112.99 85.38 112.50
  Z" fill="#e60076"></path>
<path d="M 94.51 111.98
  Q 94.82 111.78 95.23 111.87
  A 0.43 0.43 0.0 0 1 95.41 112.63
  Q 94.26 113.51 93.63 114.77
  Q 93.21 115.59 92.89 114.72
  Q 92.50 113.65 92.86 112.66
  Q 93.05 112.12 93.62 112.12
  L 94.01 112.12
  Q 94.28 112.12 94.51 111.98
  Z" fill="#e60076"></path>
<path d="M 112.84 112.42
  L 113.16 113.67
  L 126.29 133.81
  Q 126.20 134.77 126.42 135.64
  Q 126.52 136.07 126.28 136.43
  C 125.10 138.19 125.95 140.47 125.31 142.45
  Q 124.67 144.46 124.61 145.72
  Q 124.50 147.94 124.06 150.18
  Q 123.96 150.73 123.43 150.92
  L 121.99 151.43
  Q 121.88 151.47 121.84 151.35
  L 112.32 121.30
  Q 112.20 121.64 111.75 120.98
  L 112.00 120.75
  Q 112.26 120.50 112.28 120.15
  L 112.84 112.42
  Z" fill="#89488f"></path>
<path d="M 113.16 113.67
  L 126.83 133.80
  Q 126.42 133.94 126.29 133.81
  L 113.16 113.67
  Z" fill="#653075"></path>
<path d="M 68.30 114.72
  L 68.63 120.12
  Q 68.65 120.61 68.98 120.97
  L 69.42 121.47
  L 68.53 122.05
  Q 68.42 121.99 68.30 121.94
  A 0.13 0.03 -73.1 0 0 68.23 122.06
  L 60.08 152.76
  Q 59.99 153.11 60.29 152.92
  Q 60.55 152.77 60.72 152.27
  Q 60.74 152.82 61.00 152.93
  Q 61.35 153.08 61.91 153.09
  L 73.94 130.83
  Q 74.59 129.62 74.58 131.00
  L 74.52 141.72
  Q 74.52 141.75 74.55 141.76
  Q 74.69 141.78 74.84 141.80
  Q 74.87 143.02 74.42 144.18
  Q 74.05 144.65 73.98 145.50
  Q 73.68 149.62 73.84 153.86
  L 74.96 154.32
  Q 74.85 154.50 75.04 154.66
  Q 74.54 154.72 74.66 155.47
  Q 74.43 154.94 73.99 155.13
  Q 70.95 156.42 68.21 156.82
  C 66.10 157.12 64.36 157.68 62.41 157.97
  A 0.30 0.30 0.0 0 0 62.25 158.49
  Q 62.44 158.67 62.73 158.65
  Q 60.82 159.42 58.85 159.47
  Q 58.32 159.49 58.23 158.97
  L 56.89 150.76
  Q 57.82 148.50 56.71 146.41
  Q 56.50 146.03 56.44 145.60
  L 54.93 135.64
  A 0.58 0.56 57.7 0 1 55.02 135.22
  Q 61.53 125.49 67.73 115.57
  Q 67.83 115.41 67.79 115.32
  Q 67.74 115.20 67.53 115.13
  Q 67.49 114.68 68.30 114.72
  Z" fill="#764f95"></path>
<path d="M 103.74 127.47
  L 104.03 127.65
  Q 104.40 127.88 104.27 128.29
  Q 104.08 128.86 104.26 129.02
  L 97.27 135.41
  A 1.19 1.19 0.0 0 1 96.47 135.72
  L 84.31 135.75
  A 1.95 1.90 67.3 0 1 82.94 135.17
  L 78.31 130.42
  L 76.52 127.54
  L 83.99 127.50
  A 0.87 0.85 13.7 0 0 84.75 127.05
  L 88.33 120.52
  A 2.57 2.57 0.0 0 1 92.83 120.51
  L 96.43 127.02
  Q 96.73 127.55 97.34 127.55
  L 103.74 127.47
  Z" fill="#f3a4ff"></path>
<path d="M 111.75 120.98
  Q 112.20 121.64 112.32 121.30
  L 121.44 151.47
  A 0.36 0.35 70.8 0 1 121.24 151.90
  L 120.94 152.03
  Q 120.36 152.28 120.06 151.72
  Q 113.92 140.25 107.14 128.96
  Q 106.80 128.40 106.45 128.26
  A 0.30 0.30 0.0 0 0 106.04 128.51
  Q 105.36 136.06 106.33 143.02
  L 106.53 152.96
  L 106.45 154.08
  Q 105.86 154.18 105.48 154.56
  L 90.43 138.77
  Q 90.14 138.46 89.84 138.77
  L 74.96 154.32
  L 73.84 153.86
  L 74.42 144.18
  Q 74.87 143.02 74.84 141.80
  Q 75.37 135.66 75.28 129.50
  Q 75.27 128.86 76.26 127.55
  Q 76.97 127.41 76.52 127.54
  L 78.31 130.42
  L 83.19 135.93
  Q 83.57 136.37 84.15 136.37
  L 96.24 136.44
  A 1.34 1.33 -66.9 0 0 97.17 136.06
  L 104.26 129.02
  Q 104.08 128.86 104.27 128.29
  Q 104.40 127.88 104.03 127.65
  L 103.74 127.47
  Q 106.10 128.29 106.04 127.73
  L 111.75 120.98
  Z" fill="#8e50ef"></path>
<path d="M 126.29 133.81
  Q 126.42 133.94 126.83 133.80
  L 144.14 133.79
  Q 144.65 133.79 145.06 133.51
  L 146.57 132.50
  Q 146.94 133.36 146.80 134.06
  A 0.74 0.73 -84.2 0 1 146.08 134.65
  L 128.11 134.50
  Q 127.22 134.49 127.10 135.37
  L 123.86 157.54
  A 0.72 0.71 -80.9 0 1 123.04 158.14
  L 119.96 157.60
  Q 120.10 157.63 120.24 157.60
  Q 120.56 157.53 120.44 157.22
  Q 120.38 157.07 120.25 156.97
  Q 120.15 156.88 119.97 156.88
  Q 117.09 156.78 114.21 156.69
  L 106.25 155.21
  Q 106.25 154.72 106.45 154.08
  L 106.53 152.96
  Q 106.59 152.94 106.64 152.92
  Q 106.75 152.88 106.77 152.76
  Q 107.53 147.86 106.33 143.02
  Q 105.36 136.06 106.04 128.51
  A 0.30 0.30 0.0 0 1 106.45 128.26
  Q 106.80 128.40 107.14 128.96
  Q 113.92 140.25 120.06 151.72
  Q 120.36 152.28 120.94 152.03
  L 121.24 151.90
  A 0.36 0.35 70.8 0 0 121.44 151.47
  L 112.32 121.30
  L 121.84 151.35
  Q 121.88 151.47 121.99 151.43
  L 123.43 150.92
  Q 123.96 150.73 124.06 150.18
  Q 124.50 147.94 124.61 145.72
  Q 124.67 144.46 125.31 142.45
  C 125.95 140.47 125.10 138.19 126.28 136.43
  Q 126.52 136.07 126.42 135.64
  Q 126.20 134.77 126.29 133.81
  Z" fill="#764f95"></path>
<path d="M 69.42 121.47
  L 74.57 127.10
  Q 74.93 127.49 74.69 127.96
  L 61.91 153.09
  Q 61.35 153.08 61.00 152.93
  Q 60.74 152.82 60.72 152.27
  Q 64.86 137.76 68.62 123.12
  Q 68.78 122.52 68.53 122.05
  L 69.42 121.47
  Z" fill="#8e50ef"></path>
<path d="M 68.53 122.05
  Q 68.78 122.52 68.62 123.12
  Q 64.86 137.76 60.72 152.27
  Q 60.55 152.77 60.29 152.92
  Q 59.99 153.11 60.08 152.76
  L 68.23 122.06
  A 0.13 0.03 -73.1 0 1 68.30 121.94
  Q 68.42 121.99 68.53 122.05
  Z" fill="#653075"></path>
<path d="M 104.26 129.02
  L 97.17 136.06
  A 1.34 1.33 -66.9 0 1 96.24 136.44
  L 84.15 136.37
  Q 83.57 136.37 83.19 135.93
  L 78.31 130.42
  L 82.94 135.17
  A 1.95 1.90 67.3 0 0 84.31 135.75
  L 96.47 135.72
  A 1.19 1.19 0.0 0 0 97.27 135.41
  L 104.26 129.02
  Z" fill="#653075"></path>
<path d="M 105.48 154.56
  L 94.16 143.04
  Q 94.05 142.92 93.88 142.91
  Q 93.69 142.89 93.50 142.87
  A 0.38 0.38 0.0 0 0 93.12 143.42
  C 94.33 145.83 97.15 149.87 96.14 152.61
  Q 93.82 158.91 91.93 164.56
  Q 91.34 166.32 92.87 165.26
  Q 98.88 161.10 105.26 156.62
  C 105.80 156.25 105.96 155.76 106.25 155.21
  L 114.21 156.69
  Q 113.69 156.56 113.70 157.05
  L 107.30 156.38
  A 1.30 1.29 -60.0 0 0 106.41 156.62
  L 90.42 167.89
  A 0.34 0.33 44.0 0 1 90.03 167.89
  L 74.17 156.59
  Q 73.72 156.27 73.19 156.39
  L 62.73 158.65
  Q 62.44 158.67 62.25 158.49
  A 0.30 0.30 0.0 0 1 62.41 157.97
  C 64.36 157.68 66.10 157.12 68.21 156.82
  Q 70.95 156.42 73.99 155.13
  Q 74.43 154.94 74.66 155.47
  Q 74.84 156.37 75.75 156.98
  Q 82.09 161.22 87.18 165.09
  Q 89.57 166.90 88.68 164.04
  L 84.69 151.32
  A 2.28 2.25 49.2 0 1 84.80 149.69
  L 87.37 144.14
  Q 88.84 140.95 86.35 143.42
  L 75.04 154.66
  Q 74.85 154.50 74.96 154.32
  L 89.84 138.77
  Q 90.14 138.46 90.43 138.77
  L 105.48 154.56
  Z
  M 85.22 150.43
  A 0.44 0.44 0.0 0 0 85.20 150.74
  L 89.87 165.52
  A 0.44 0.44 0.0 0 0 90.70 165.55
  L 96.18 150.93
  A 0.44 0.44 0.0 0 0 96.16 150.58
  L 90.72 140.14
  A 0.44 0.44 0.0 0 0 89.93 140.16
  L 85.22 150.43
  Z" fill="#653075"></path>
<path d="M 85.22 150.43
  L 89.93 140.16
  A 0.44 0.44 0.0 0 1 90.72 140.14
  L 96.16 150.58
  A 0.44 0.44 0.0 0 1 96.18 150.93
  L 90.70 165.55
  A 0.44 0.44 0.0 0 1 89.87 165.52
  L 85.20 150.74
  A 0.44 0.44 0.0 0 1 85.22 150.43
  Z" fill="#9c83b6"></path>
<path d="M 74.66 155.47
  Q 74.54 154.72 75.04 154.66
  L 86.35 143.42
  Q 88.84 140.95 87.37 144.14
  L 84.80 149.69
  A 2.28 2.25 49.2 0 0 84.69 151.32
  L 88.68 164.04
  Q 89.57 166.90 87.18 165.09
  Q 82.09 161.22 75.75 156.98
  Q 74.84 156.37 74.66 155.47
  Z" fill="#901cd3"></path>
<path d="M 105.48 154.56
  Q 105.86 154.18 106.45 154.08
  Q 106.25 154.72 106.25 155.21
  C 105.96 155.76 105.80 156.25 105.26 156.62
  Q 98.88 161.10 92.87 165.26
  Q 91.34 166.32 91.93 164.56
  Q 93.82 158.91 96.14 152.61
  C 97.15 149.87 94.33 145.83 93.12 143.42
  A 0.38 0.38 0.0 0 1 93.50 142.87
  Q 93.69 142.89 93.88 142.91
  Q 94.05 142.92 94.16 143.04
  L 105.48 154.56
  Z" fill="#901cd3"></path>
<path d="M 106.33 143.02
  Q 107.53 147.86 106.77 152.76
  Q 106.75 152.88 106.64 152.92
  Q 106.59 152.94 106.53 152.96
  L 106.33 143.02
  Z" fill="#2c2b39"></path>
<path d="M 74.42 144.18
  L 73.84 153.86
  Q 73.68 149.62 73.98 145.50
  Q 74.05 144.65 74.42 144.18
  Z" fill="#2c2b39"></path>
<path d="M 114.21 156.69
  Q 117.09 156.78 119.97 156.88
  Q 120.15 156.88 120.25 156.97
  Q 120.38 157.07 120.44 157.22
  Q 120.56 157.53 120.24 157.60
  Q 120.10 157.63 119.96 157.60
  L 113.70 157.05
  Q 113.69 156.56 114.21 156.69
  Z" fill="#2c2b39"></path>
</svg>
