<svg viewBox="0.00 0.00 48.00 48.00" version="1.1" xmlns="http://www.w3.org/2000/svg">
<g stroke-linecap="butt" fill="none" stroke-width="2.00">
<path d="M 36.07 19.31
  A 13.62 13.62 0.0 0 0 22.45 5.69
  A 13.62 13.62 0.0 0 0 8.83 19.31
  A 13.62 13.62 0.0 0 0 22.45 32.93
  A 13.62 13.62 0.0 0 0 36.07 19.31" stroke="#808080"></path>
<path d="M 33.07 13.54
  A 1.81 1.81 0.0 0 0 31.26 11.73
  L 13.58 11.73
  A 1.81 1.81 0.0 0 0 11.77 13.54
  L 11.77 25.14
  A 1.81 1.81 0.0 0 0 13.58 26.95
  L 31.26 26.95
  A 1.81 1.81 0.0 0 0 33.07 25.14
  L 33.07 13.54" stroke="#8caee7"></path>
<path d="M 32.1200 13.7069
  A 0.88 0.88 0.0 0 0 31.2415 12.8254
  L 13.6215 12.7946
  A 0.88 0.88 0.0 0 0 12.7400 13.6731
  L 12.7200 25.0931
  A 0.88 0.88 0.0 0 0 13.5985 25.9746
  L 31.2185 26.0054
  A 0.88 0.88 0.0 0 0 32.1000 25.1269
  L 32.1200 13.7069" stroke="#8caee7"></path>
<path d="M 19.48 17.16
  A 0.73 0.72 -44.5 0 1 20.72 17.17
  L 23.88 22.45
  Q 24.68 23.80 25.53 22.48
  L 29.36 16.55
  A 0.43 0.43 0.0 0 0 29.24 15.96
  L 29.02 15.82
  Q 28.91 15.75 28.84 15.86
  L 25.31 21.67
  A 0.70 0.70 0.0 0 1 24.11 21.67
  L 20.56 15.77
  A 0.58 0.58 0.0 0 0 19.57 15.76
  L 15.46 22.41
  Q 15.30 22.67 15.56 22.83
  L 15.80 22.98
  Q 15.91 23.04 15.97 22.94
  L 19.48 17.16" stroke="#a1c2ee"></path>
</g>
<path d="M 33.51 31.99
  L 42.43 41.65
  A 1.10 1.09 43.5 0 1 42.47 43.10
  L 42.19 43.43
  A 1.61 1.61 0.0 0 1 39.77 43.49
  L 30.87 33.80
  Q 30.49 33.39 29.98 33.60
  C 20.22 37.69 10.20 33.82 7.07 23.81
  C 4.66 16.10 9.36 6.52 17.33 4.15
  C 30.27 0.29 41.70 11.78 37.56 24.64
  C 36.77 27.08 35.22 29.00 33.50 30.99
  A 0.76 0.75 -45.9 0 0 33.51 31.99
  Z
  M 36.07 19.31
  A 13.62 13.62 0.0 0 0 22.45 5.69
  A 13.62 13.62 0.0 0 0 8.83 19.31
  A 13.62 13.62 0.0 0 0 22.45 32.93
  A 13.62 13.62 0.0 0 0 36.07 19.31
  Z" fill="#000000"></path>
<path d="M 36.07 19.31
  A 13.62 13.62 0.0 0 1 22.45 32.93
  A 13.62 13.62 0.0 0 1 8.83 19.31
  A 13.62 13.62 0.0 0 1 22.45 5.69
  A 13.62 13.62 0.0 0 1 36.07 19.31
  Z
  M 33.07 13.54
  A 1.81 1.81 0.0 0 0 31.26 11.73
  L 13.58 11.73
  A 1.81 1.81 0.0 0 0 11.77 13.54
  L 11.77 25.14
  A 1.81 1.81 0.0 0 0 13.58 26.95
  L 31.26 26.95
  A 1.81 1.81 0.0 0 0 33.07 25.14
  L 33.07 13.54
  Z" fill="#ffffff"></path>
<path d="M 33.07 25.14
  A 1.81 1.81 0.0 0 1 31.26 26.95
  L 13.58 26.95
  A 1.81 1.81 0.0 0 1 11.77 25.14
  L 11.77 13.54
  A 1.81 1.81 0.0 0 1 13.58 11.73
  L 31.26 11.73
  A 1.81 1.81 0.0 0 1 33.07 13.54
  L 33.07 25.14
  Z
  M 32.1200 13.7069
  A 0.88 0.88 0.0 0 0 31.2415 12.8254
  L 13.6215 12.7946
  A 0.88 0.88 0.0 0 0 12.7400 13.6731
  L 12.7200 25.0931
  A 0.88 0.88 0.0 0 0 13.5985 25.9746
  L 31.2185 26.0054
  A 0.88 0.88 0.0 0 0 32.1000 25.1269
  L 32.1200 13.7069
  Z" fill="#185dce"></path>
<path d="M 32.1000 25.1269
  A 0.88 0.88 0.0 0 1 31.2185 26.0054
  L 13.5985 25.9746
  A 0.88 0.88 0.0 0 1 12.7200 25.0931
  L 12.7400 13.6731
  A 0.88 0.88 0.0 0 1 13.6215 12.7946
  L 31.2415 12.8254
  A 0.88 0.88 0.0 0 1 32.1200 13.7069
  L 32.1000 25.1269
  Z
  M 19.48 17.16
  A 0.73 0.72 -44.5 0 1 20.72 17.17
  L 23.88 22.45
  Q 24.68 23.80 25.53 22.48
  L 29.36 16.55
  A 0.43 0.43 0.0 0 0 29.24 15.96
  L 29.02 15.82
  Q 28.91 15.75 28.84 15.86
  L 25.31 21.67
  A 0.70 0.70 0.0 0 1 24.11 21.67
  L 20.56 15.77
  A 0.58 0.58 0.0 0 0 19.57 15.76
  L 15.46 22.41
  Q 15.30 22.67 15.56 22.83
  L 15.80 22.98
  Q 15.91 23.04 15.97 22.94
  L 19.48 17.16
  Z" fill="#ffffff"></path>
<path d="M 19.48 17.16
  L 15.97 22.94
  Q 15.91 23.04 15.80 22.98
  L 15.56 22.83
  Q 15.30 22.67 15.46 22.41
  L 19.57 15.76
  A 0.58 0.58 0.0 0 1 20.56 15.77
  L 24.11 21.67
  A 0.70 0.70 0.0 0 0 25.31 21.67
  L 28.84 15.86
  Q 28.91 15.75 29.02 15.82
  L 29.24 15.96
  A 0.43 0.43 0.0 0 1 29.36 16.55
  L 25.53 22.48
  Q 24.68 23.80 23.88 22.45
  L 20.72 17.17
  A 0.73 0.72 -44.5 0 0 19.48 17.16
  Z" fill="#4385dd"></path>
</svg>
