<svg viewBox="0.00 0.00 512.00 512.00" version="1.1" xmlns="http://www.w3.org/2000/svg">
<g stroke-linecap="butt" fill="none" stroke-width="2.00">
<path d="M 406.74 28.45
  Q 406.82 28.64 406.81 29.15
  Q 406.80 29.51 406.93 29.82
  C 411.96 42.34 413.08 57.81 413.74 71.13" stroke="#ffbc40"></path>
<path d="M 368.30 241.67
  Q 357.18 262.68 343.33 282.79
  Q 342.73 283.66 342.31 284.45" stroke="#ffbc40"></path>
<path d="M 297.13 334.51
  C 286.67 342.49 275.43 350.30 261.88 351.86
  C 245.10 353.78 227.29 342.85 215.45 331.87
  Q 215.16 331.60 214.41 331.45" stroke="#ffbc40"></path>
<path d="M 173.04 284.42
  C 172.68 283.67 172.68 282.96 172.21 282.28
  Q 158.31 262.54 147.13 241.64" stroke="#ffbc40"></path>
<path d="M 101.54 71.17
  Q 101.73 70.62 101.76 69.99
  C 102.58 56.14 104.15 41.65 108.68 28.46" stroke="#ffbc40"></path>
<path d="M 322.58 426.49
  L 322.21 426.76
  Q 321.92 426.98 321.55 426.98
  Q 256.48 426.98 191.42 426.98
  C 190.52 426.98 189.70 426.65 188.79 426.57" stroke="#e08b41"></path>
</g>
<path d="M 406.74 28.45
  Q 406.82 28.64 406.81 29.15
  Q 406.80 29.51 406.93 29.82
  C 411.96 42.34 413.08 57.81 413.74 71.13
  C 413.97 84.72 414.49 97.99 413.23 111.50
  Q 412.15 123.13 408.03 140.67
  C 399.79 175.76 385.83 210.07 368.30 241.67
  Q 357.18 262.68 343.33 282.79
  Q 342.73 283.66 342.31 284.45
  C 341.89 284.79 341.47 285.01 341.15 285.46
  C 327.93 304.02 314.45 319.97 297.13 334.51
  C 286.67 342.49 275.43 350.30 261.88 351.86
  C 245.10 353.78 227.29 342.85 215.45 331.87
  Q 215.16 331.60 214.41 331.45
  Q 213.79 330.42 213.53 330.21
  Q 208.68 326.10 206.17 323.58
  Q 188.35 305.62 173.88 284.88
  Q 173.64 284.54 173.04 284.42
  C 172.68 283.67 172.68 282.96 172.21 282.28
  Q 158.31 262.54 147.13 241.64
  Q 119.98 192.17 107.09 139.64
  Q 102.52 121.05 101.60 100.45
  C 101.20 91.60 101.64 81.24 101.85 71.65
  Q 101.86 71.48 101.78 71.37
  Q 101.67 71.22 101.54 71.17
  Q 101.73 70.62 101.76 69.99
  C 102.58 56.14 104.15 41.65 108.68 28.46
  C 115.16 10.88 125.74 3.78 144.25 3.71
  Q 250.13 3.28 356.00 3.52
  C 376.85 3.56 398.03 4.55 406.36 27.95
  Q 406.42 28.12 406.74 28.45
  Z" fill="#ffcc4d"></path>
<path d="M 108.68 28.46
  C 104.15 41.65 102.58 56.14 101.76 69.99
  Q 101.73 70.62 101.54 71.17
  Q 92.88 71.08 72.49 71.23
  Q 60.16 71.31 53.57 80.57
  C 47.32 89.37 49.34 104.00 51.47 113.81
  Q 61.76 161.41 72.04 209.01
  Q 74.25 219.26 75.94 222.99
  C 80.55 233.15 89.21 241.51 101.00 241.68
  Q 113.40 241.86 147.13 241.64
  Q 158.31 262.54 172.21 282.28
  C 172.68 282.96 172.68 283.67 173.04 284.42
  Q 132.78 284.50 92.52 284.41
  C 83.04 284.39 74.70 283.66 66.77 280.75
  C 48.11 273.90 32.22 258.02 28.32 237.74
  Q 15.87 173.00 3.46 108.25
  Q 0.83 94.52 0.00 86.38
  L 0.00 81.26
  C 1.19 59.25 10.76 36.27 33.98 29.89
  Q 39.29 28.43 51.14 28.45
  Q 79.74 28.50 108.68 28.46
  Z" fill="#ffac33"></path>
<path d="M 406.74 28.45
  Q 434.31 28.51 461.92 28.45
  Q 473.68 28.43 478.95 29.88
  C 492.98 33.74 503.97 45.92 508.65 59.25
  Q 510.17 63.57 512.00 70.89
  L 512.00 94.21
  Q 500.22 162.14 488.01 229.92
  Q 485.55 243.56 483.07 249.24
  C 475.30 267.03 457.79 279.76 438.94 283.32
  Q 433.21 284.40 419.01 284.42
  Q 380.64 284.49 342.31 284.45
  Q 342.73 283.66 343.33 282.79
  Q 357.18 262.68 368.30 241.67
  C 383.99 241.73 399.75 242.20 415.18 241.34
  C 421.19 241.01 428.08 236.06 431.67 231.66
  Q 437.47 224.54 439.58 214.72
  C 447.18 179.46 454.76 144.22 462.57 109.01
  Q 464.53 100.20 462.81 90.40
  C 460.13 75.13 450.09 70.99 435.75 71.06
  Q 424.83 71.11 413.74 71.13
  C 413.08 57.81 411.96 42.34 406.93 29.82
  Q 406.80 29.51 406.81 29.15
  Q 406.82 28.64 406.74 28.45
  Z" fill="#ffac33"></path>
<path d="M 214.41 331.45
  Q 215.16 331.60 215.45 331.87
  C 227.29 342.85 245.10 353.78 261.88 351.86
  C 275.43 350.30 286.67 342.49 297.13 334.51
  C 299.10 366.00 307.34 398.64 322.58 426.49
  L 322.21 426.76
  Q 321.92 426.98 321.55 426.98
  Q 256.48 426.98 191.42 426.98
  C 190.52 426.98 189.70 426.65 188.79 426.57
  Q 192.23 420.58 196.03 411.81
  C 207.21 386.00 212.52 359.47 214.41 331.45
  Z" fill="#ffac33"></path>
<path d="M 188.79 426.57
  C 189.70 426.65 190.52 426.98 191.42 426.98
  Q 256.48 426.98 321.55 426.98
  Q 321.92 426.98 322.21 426.76
  L 322.58 426.49
  Q 323.08 426.99 323.50 426.99
  Q 340.25 427.00 357.00 427.00
  C 359.78 427.00 362.27 427.07 364.90 428.08
  Q 380.33 434.03 383.33 449.80
  C 384.37 455.26 384.05 462.51 383.99 468.74
  Q 383.99 469.27 384.52 469.28
  C 391.63 469.42 399.76 468.27 405.60 473.53
  C 413.44 480.62 412.85 490.77 412.37 500.49
  C 411.93 509.50 403.88 511.76 395.90 511.76
  Q 257.45 511.78 119.00 511.76
  C 105.45 511.76 99.81 504.93 99.39 492.06
  C 98.84 475.49 112.71 468.22 127.40 469.43
  Q 127.98 469.47 127.99 468.89
  C 128.07 462.25 127.14 454.01 129.08 448.12
  Q 132.12 438.93 140.51 433.27
  C 144.24 430.76 151.07 427.20 156.00 427.15
  Q 171.87 426.98 187.75 426.86
  Q 188.26 426.85 188.79 426.57
  Z" fill="#c1694f"></path>
</svg>
