<svg viewBox="0.00 0.00 100.00 100.00" version="1.1" xmlns="http://www.w3.org/2000/svg">
<g stroke-linecap="butt" fill="none" stroke-width="2.00">
<path d="M 91.28 40.84
  Q 91.04 40.51 90.89 40.45" stroke="#ffedaa"></path>
<path d="M 90.89 40.45
  Q 90.71 37.46 89.91 35.54
  Q 81.50 15.15 60.24 9.20
  Q 59.60 9.02 60.13 8.62
  Q 60.41 8.41 60.74 8.36
  A 0.18 0.18 0.0 0 0 60.76 8.00
  Q 59.01 7.57 57.30 8.14
  A 0.89 0.89 0.0 0 1 56.17 7.56
  C 53.89 0.47 46.00 -0.54 44.13 7.18
  Q 43.99 7.77 43.38 7.79
  Q 42.27 7.84 41.61 8.67
  Q 41.13 9.27 41.13 8.50
  L 41.13 8.11
  A 0.27 0.26 90.0 0 0 40.87 7.84
  L 8.52 7.85
  A 0.63 0.63 0.0 0 0 7.89 8.48
  L 7.90 39.50
  A 0.31 0.31 0.0 0 0 8.21 39.81
  L 8.50 39.80
  Q 8.66 39.80 8.66 39.64
  L 8.59 8.91
  Q 8.59 8.30 9.20 8.27
  Q 9.60 8.25 9.96 8.40
  Q 10.43 8.62 10.95 8.61
  Q 26.66 8.47 36.00 8.70
  Q 37.87 8.75 38.94 8.35
  A 0.70 0.69 57.0 0 1 39.68 8.51
  L 40.11 8.92
  Q 40.43 9.24 39.99 9.36
  C 25.49 13.14 13.25 24.80 9.64 39.51
  C 9.44 40.33 8.84 40.74 8.14 41.12
  Q 7.56 41.42 7.77 42.04
  L 8.09 43.01
  Q 8.28 43.60 7.70 43.80
  C 3.87 45.16 0.41 47.72 2.28 52.21
  Q 3.65 55.50 8.09 55.87
  A 0.24 0.24 0.0 0 1 8.28 56.24
  Q 7.69 57.16 7.90 58.19
  Q 7.95 58.49 8.25 58.57
  Q 8.43 58.62 8.60 58.68
  Q 8.96 58.81 9.07 59.05
  Q 9.14 59.20 9.13 59.36
  A 0.48 0.47 -6.0 0 1 8.78 59.79
  Q 7.94 60.02 7.93 61.50
  Q 7.80 76.79 7.97 92.12
  Q 7.98 92.61 8.47 92.61
  L 38.29 92.66
  Q 38.69 92.66 39.03 92.46
  Q 39.58 92.14 40.01 92.59
  A 0.85 0.85 0.0 0 0 40.92 92.79
  Q 42.32 92.26 43.72 92.71
  Q 44.12 92.83 44.25 93.24
  C 46.16 99.49 53.77 99.87 55.81 93.47
  Q 55.96 93.02 56.40 92.85
  C 58.04 92.22 59.55 93.10 60.81 92.65
  Q 61.63 92.36 60.80 92.10
  L 60.23 91.92
  Q 59.91 91.82 60.07 91.52
  Q 60.25 91.20 60.49 91.15
  C 75.10 88.14 88.51 74.64 91.21 60.04
  Q 91.29 59.61 91.75 59.22
  Q 91.97 59.03 92.28 59.14
  A 0.51 0.51 0.0 0 0 92.95 58.77
  Q 93.20 57.64 92.56 56.66
  A 0.45 0.44 -26.3 0 1 92.79 56.00
  C 93.94 55.57 94.93 55.28 95.82 54.53
  C 99.99 51.05 98.22 44.90 92.75 44.10
  A 0.43 0.43 0.0 0 1 92.43 43.48
  L 93.18 42.02
  A 0.60 0.59 20.0 0 0 92.78 41.17
  L 91.28 40.84" stroke="#8e8d8a"></path>
<path d="M 90.89 40.45
  Q 90.71 40.55 90.56 40.60
  Q 90.16 40.73 90.13 40.31
  Q 89.93 37.30 88.77 34.51
  C 83.78 22.46 72.87 12.77 60.40 10.10" stroke="#8e7a35"></path>
<path d="M 60.40 10.10
  L 56.51 9.40
  A 0.85 0.84 -64.4 0 0 55.71 9.69
  C 54.60 11.03 53.64 12.55 52.00 13.11
  Q 48.47 14.33 45.58 11.47" stroke="#8e804d"></path>
<path d="M 45.58 11.47
  Q 44.63 9.01 42.27 9.59
  Q 21.77 14.58 12.91 32.27
  C 11.36 35.36 10.42 39.19 9.23 42.70
  Q 9.06 43.20 9.33 43.66
  C 10.30 45.27 12.04 46.04 12.79 47.44
  C 14.65 50.95 12.59 53.75 9.32 55.78
  Q 8.90 56.04 9.07 56.52
  Q 9.77 58.47 9.79 60.49" stroke="#8e835e"></path>
<path d="M 9.79 60.49
  Q 8.56 60.08 8.59 61.51
  Q 8.67 66.55 8.68 71.60
  Q 8.68 71.75 8.60 71.87
  L 8.39 72.19
  Q 8.24 72.41 8.40 72.62
  C 9.09 73.57 8.63 74.38 8.62 75.22
  Q 8.60 82.63 8.64 90.04
  Q 8.64 90.53 8.42 90.96
  Q 8.22 91.36 8.42 91.65
  Q 8.61 91.93 9.18 91.93
  Q 24.77 91.99 40.25 91.91" stroke="#8e8d8a"></path>
<path d="M 40.25 91.91
  Q 41.59 91.02 43.47 91.30
  Q 44.01 91.38 44.29 90.92
  L 45.79 88.51" stroke="#8e835e"></path>
<path d="M 45.79 88.51
  C 49.38 84.87 53.67 86.54 55.59 90.73
  Q 55.80 91.18 56.29 91.29
  Q 57.99 91.68 59.44 91.09
  C 62.43 89.86 65.45 89.17 68.35 87.77" stroke="#8e804d"></path>
<path d="M 68.35 87.77
  Q 81.45 81.35 87.71 68.39
  C 89.23 65.26 90.03 61.40 91.39 57.86
  A 1.88 1.87 23.4 0 0 90.45 55.50
  C 84.92 52.84 85.48 47.53 90.56 44.54
  A 1.41 1.36 84.0 0 0 91.18 43.75
  Q 91.38 43.08 91.81 42.54
  Q 92.09 42.19 91.67 42.02
  Q 91.19 41.83 91.09 41.49
  Q 91.01 41.22 91.28 40.84" stroke="#8e7a35"></path>
<path d="M 9.79 60.49
  Q 9.54 61.41 9.74 62.03
  Q 15.85 81.16 34.15 89.33
  Q 37.01 90.61 40.22 90.97" stroke="#8e8d8a"></path>
<path d="M 60.40 10.10
  Q 59.24 11.38 57.12 11.32
  Q 56.59 11.30 56.46 11.82
  Q 56.34 12.30 55.93 12.36
  Q 55.39 12.43 55.38 12.97
  Q 55.23 17.16 53.78 20.97
  Q 51.60 26.69 51.45 27.21
  C 49.76 33.32 50.23 38.44 49.62 44.25
  Q 49.44 46.01 49.71 51.26
  Q 49.81 53.34 50.88 55.77
  Q 52.21 58.82 52.86 62.09
  C 53.27 64.16 54.53 65.92 54.84 68.20
  A 1.06 1.03 24.5 0 0 55.04 68.71
  C 55.73 69.66 55.82 70.97 56.20 71.82
  C 58.59 77.15 60.16 82.49 65.89 85.71
  Q 66.27 85.92 66.18 86.34
  L 66.10 86.68
  Q 65.99 87.22 66.54 87.13
  Q 68.29 86.85 68.35 87.77" stroke="#ffe06e"></path>
<path d="M 45.58 11.47
  Q 39.24 10.06 36.03 13.04
  Q 34.50 14.45 33.96 17.99
  C 33.03 24.05 31.61 30.15 31.40 36.06
  Q 31.21 41.10 31.28 46.15
  C 31.31 48.75 31.03 52.53 31.62 55.81
  Q 31.65 55.95 31.88 58.21
  Q 32.05 59.91 33.12 61.42
  Q 34.58 63.50 35.23 66.41
  Q 35.26 66.50 35.17 66.55
  Q 35.04 66.61 34.92 66.62
  Q 34.89 66.62 34.90 66.65
  C 35.86 69.23 36.11 71.84 37.20 74.26
  C 38.34 76.76 39.30 78.68 39.84 81.65
  C 40.41 84.71 41.36 87.74 45.25 87.36
  Q 45.78 87.31 45.88 87.84
  Q 45.94 88.12 45.79 88.51" stroke="#ffe997"></path>
<path d="M 40.25 91.91
  L 40.22 90.97" stroke="#fff6d4"></path>
<path d="M 40.22 90.97
  Q 40.42 90.88 40.34 90.65
  Q 40.22 90.33 39.89 90.27
  C 25.27 87.53 14.14 75.09 10.43 61.22
  Q 10.24 60.48 9.79 60.49" stroke="#8e835e"></path>
<path d="M 92.80 12.80
  C 92.74 11.58 93.47 9.66 92.56 8.54
  A 1.94 1.93 -19.8 0 0 91.07 7.84
  L 61.34 7.83
  A 0.13 0.13 0.0 0 0 61.21 7.96
  L 61.21 8.22
  Q 61.21 8.59 61.59 8.59
  L 91.03 8.53
  A 1.25 1.25 0.0 0 1 92.28 9.78
  L 92.26 30.17
  Q 92.26 30.22 92.31 30.23
  L 92.70 30.26
  Q 92.93 30.29 92.94 30.05
  Q 93.20 21.40 92.80 12.80" stroke="#8e8d8a"></path>
<path d="M 92.38 34.01
  C 91.87 35.74 92.33 38.07 92.08 40.00
  Q 92.04 40.29 92.33 40.29
  L 92.74 40.29
  Q 92.81 40.29 92.82 40.23
  Q 93.29 37.20 92.81 34.18
  Q 92.73 33.68 92.88 33.20
  Q 93.19 32.26 92.85 31.38
  Q 92.66 30.87 92.36 31.32
  Q 91.70 32.27 92.30 33.31
  Q 92.48 33.64 92.38 34.01" stroke="#8e8d8a"></path>
<path d="M 92.33 63.04
  C 91.91 64.14 92.32 65.38 92.30 66.14
  Q 92.11 73.65 92.14 80.83
  Q 92.14 81.55 92.68 81.06
  Q 93.36 80.43 92.83 79.31
  Q 92.61 78.84 92.77 78.35
  Q 93.18 77.07 92.67 75.82
  Q 92.53 75.49 92.68 75.16
  Q 92.77 74.97 92.78 74.75
  Q 93.14 67.06 92.85 60.15
  Q 92.82 59.37 92.34 59.98
  Q 91.65 60.86 92.30 62.19
  Q 92.50 62.61 92.33 63.04" stroke="#8e8d8a"></path>
<path d="M 90.67 92.40
  Q 91.25 92.98 92.07 92.98
  Q 92.78 92.97 92.79 92.26
  L 93.06 82.47
  Q 93.09 81.48 92.38 82.16
  Q 91.87 82.65 92.01 83.27
  C 92.40 84.88 92.19 86.22 92.31 87.56
  Q 92.52 89.72 91.81 91.86
  A 0.32 0.31 -78.1 0 1 91.49 92.08
  L 88.09 91.90
  A 0.40 0.40 0.0 0 0 87.95 92.68
  Q 89.01 93.02 89.88 92.35
  Q 90.30 92.03 90.67 92.40" stroke="#8e8d8a"></path>
<path d="M 80.68 92.57
  Q 83.73 92.84 86.79 92.60
  Q 87.06 92.58 87.16 92.32
  Q 87.31 91.92 86.88 91.92
  L 62.03 91.92
  A 0.46 0.45 -1.8 0 0 61.57 92.40
  L 61.59 92.68
  A 0.17 0.16 -3.5 0 0 61.77 92.83
  Q 65.33 92.47 68.91 92.70
  C 70.10 92.77 71.11 92.28 72.38 92.73
  Q 72.88 92.90 73.36 92.67
  Q 74.18 92.27 74.97 92.67
  Q 75.45 92.91 75.97 92.78
  C 77.35 92.43 78.81 93.02 79.84 92.67
  A 2.03 2.01 -51.6 0 1 80.68 92.57" stroke="#8e8d8a"></path>
<path d="M 55.02 7.62
  A 5.00 5.00 0.0 0 0 50.02 2.62
  A 5.00 5.00 0.0 0 0 45.02 7.62
  A 5.00 5.00 0.0 0 0 50.02 12.62
  A 5.00 5.00 0.0 0 0 55.02 7.62" stroke="#8e8d8a"></path>
<path d="M 12.63 50.01
  A 5.03 5.03 0.0 0 0 7.60 44.98
  A 5.03 5.03 0.0 0 0 2.57 50.01
  A 5.03 5.03 0.0 0 0 7.60 55.04
  A 5.03 5.03 0.0 0 0 12.63 50.01" stroke="#8e8d8a"></path>
<path d="M 97.44 50.00
  A 5.04 5.04 0.0 0 0 92.40 44.96
  A 5.04 5.04 0.0 0 0 87.36 50.00
  A 5.04 5.04 0.0 0 0 92.40 55.04
  A 5.04 5.04 0.0 0 0 97.44 50.00" stroke="#8e8d8a"></path>
<path d="M 55.09 92.33
  A 5.03 5.03 0.0 0 0 50.06 87.30
  A 5.03 5.03 0.0 0 0 45.03 92.33
  A 5.03 5.03 0.0 0 0 50.06 97.36
  A 5.03 5.03 0.0 0 0 55.09 92.33" stroke="#8e8d8a"></path>
</g>
<path d="M 0.00 0.00
  L 100.00 0.00
  L 100.00 100.00
  L 0.00 100.00
  L 0.00 0.00
  Z
  M 91.28 40.84
  Q 91.04 40.51 90.89 40.45
  Q 90.71 37.46 89.91 35.54
  Q 81.50 15.15 60.24 9.20
  Q 59.60 9.02 60.13 8.62
  Q 60.41 8.41 60.74 8.36
  A 0.18 0.18 0.0 0 0 60.76 8.00
  Q 59.01 7.57 57.30 8.14
  A 0.89 0.89 0.0 0 1 56.17 7.56
  C 53.89 0.47 46.00 -0.54 44.13 7.18
  Q 43.99 7.77 43.38 7.79
  Q 42.27 7.84 41.61 8.67
  Q 41.13 9.27 41.13 8.50
  L 41.13 8.11
  A 0.27 0.26 90.0 0 0 40.87 7.84
  L 8.52 7.85
  A 0.63 0.63 0.0 0 0 7.89 8.48
  L 7.90 39.50
  A 0.31 0.31 0.0 0 0 8.21 39.81
  L 8.50 39.80
  Q 8.66 39.80 8.66 39.64
  L 8.59 8.91
  Q 8.59 8.30 9.20 8.27
  Q 9.60 8.25 9.96 8.40
  Q 10.43 8.62 10.95 8.61
  Q 26.66 8.47 36.00 8.70
  Q 37.87 8.75 38.94 8.35
  A 0.70 0.69 57.0 0 1 39.68 8.51
  L 40.11 8.92
  Q 40.43 9.24 39.99 9.36
  C 25.49 13.14 13.25 24.80 9.64 39.51
  C 9.44 40.33 8.84 40.74 8.14 41.12
  Q 7.56 41.42 7.77 42.04
  L 8.09 43.01
  Q 8.28 43.60 7.70 43.80
  C 3.87 45.16 0.41 47.72 2.28 52.21
  Q 3.65 55.50 8.09 55.87
  A 0.24 0.24 0.0 0 1 8.28 56.24
  Q 7.69 57.16 7.90 58.19
  Q 7.95 58.49 8.25 58.57
  Q 8.43 58.62 8.60 58.68
  Q 8.96 58.81 9.07 59.05
  Q 9.14 59.20 9.13 59.36
  A 0.48 0.47 -6.0 0 1 8.78 59.79
  Q 7.94 60.02 7.93 61.50
  Q 7.80 76.79 7.97 92.12
  Q 7.98 92.61 8.47 92.61
  L 38.29 92.66
  Q 38.69 92.66 39.03 92.46
  Q 39.58 92.14 40.01 92.59
  A 0.85 0.85 0.0 0 0 40.92 92.79
  Q 42.32 92.26 43.72 92.71
  Q 44.12 92.83 44.25 93.24
  C 46.16 99.49 53.77 99.87 55.81 93.47
  Q 55.96 93.02 56.40 92.85
  C 58.04 92.22 59.55 93.10 60.81 92.65
  Q 61.63 92.36 60.80 92.10
  L 60.23 91.92
  Q 59.91 91.82 60.07 91.52
  Q 60.25 91.20 60.49 91.15
  C 75.10 88.14 88.51 74.64 91.21 60.04
  Q 91.29 59.61 91.75 59.22
  Q 91.97 59.03 92.28 59.14
  A 0.51 0.51 0.0 0 0 92.95 58.77
  Q 93.20 57.64 92.56 56.66
  A 0.45 0.44 -26.3 0 1 92.79 56.00
  C 93.94 55.57 94.93 55.28 95.82 54.53
  C 99.99 51.05 98.22 44.90 92.75 44.10
  A 0.43 0.43 0.0 0 1 92.43 43.48
  L 93.18 42.02
  A 0.60 0.59 20.0 0 0 92.78 41.17
  L 91.28 40.84
  Z
  M 92.80 12.80
  C 92.74 11.58 93.47 9.66 92.56 8.54
  A 1.94 1.93 -19.8 0 0 91.07 7.84
  L 61.34 7.83
  A 0.13 0.13 0.0 0 0 61.21 7.96
  L 61.21 8.22
  Q 61.21 8.59 61.59 8.59
  L 91.03 8.53
  A 1.25 1.25 0.0 0 1 92.28 9.78
  L 92.26 30.17
  Q 92.26 30.22 92.31 30.23
  L 92.70 30.26
  Q 92.93 30.29 92.94 30.05
  Q 93.20 21.40 92.80 12.80
  Z
  M 92.38 34.01
  C 91.87 35.74 92.33 38.07 92.08 40.00
  Q 92.04 40.29 92.33 40.29
  L 92.74 40.29
  Q 92.81 40.29 92.82 40.23
  Q 93.29 37.20 92.81 34.18
  Q 92.73 33.68 92.88 33.20
  Q 93.19 32.26 92.85 31.38
  Q 92.66 30.87 92.36 31.32
  Q 91.70 32.27 92.30 33.31
  Q 92.48 33.64 92.38 34.01
  Z
  M 92.33 63.04
  C 91.91 64.14 92.32 65.38 92.30 66.14
  Q 92.11 73.65 92.14 80.83
  Q 92.14 81.55 92.68 81.06
  Q 93.36 80.43 92.83 79.31
  Q 92.61 78.84 92.77 78.35
  Q 93.18 77.07 92.67 75.82
  Q 92.53 75.49 92.68 75.16
  Q 92.77 74.97 92.78 74.75
  Q 93.14 67.06 92.85 60.15
  Q 92.82 59.37 92.34 59.98
  Q 91.65 60.86 92.30 62.19
  Q 92.50 62.61 92.33 63.04
  Z
  M 90.67 92.40
  Q 91.25 92.98 92.07 92.98
  Q 92.78 92.97 92.79 92.26
  L 93.06 82.47
  Q 93.09 81.48 92.38 82.16
  Q 91.87 82.65 92.01 83.27
  C 92.40 84.88 92.19 86.22 92.31 87.56
  Q 92.52 89.72 91.81 91.86
  A 0.32 0.31 -78.1 0 1 91.49 92.08
  L 88.09 91.90
  A 0.40 0.40 0.0 0 0 87.95 92.68
  Q 89.01 93.02 89.88 92.35
  Q 90.30 92.03 90.67 92.40
  Z
  M 80.68 92.57
  Q 83.73 92.84 86.79 92.60
  Q 87.06 92.58 87.16 92.32
  Q 87.31 91.92 86.88 91.92
  L 62.03 91.92
  A 0.46 0.45 -1.8 0 0 61.57 92.40
  L 61.59 92.68
  A 0.17 0.16 -3.5 0 0 61.77 92.83
  Q 65.33 92.47 68.91 92.70
  C 70.10 92.77 71.11 92.28 72.38 92.73
  Q 72.88 92.90 73.36 92.67
  Q 74.18 92.27 74.97 92.67
  Q 75.45 92.91 75.97 92.78
  C 77.35 92.43 78.81 93.02 79.84 92.67
  A 2.03 2.01 -51.6 0 1 80.68 92.57
  Z" fill="#ffffff"></path>
<path d="M 90.89 40.45
  Q 90.71 40.55 90.56 40.60
  Q 90.16 40.73 90.13 40.31
  Q 89.93 37.30 88.77 34.51
  C 83.78 22.46 72.87 12.77 60.40 10.10
  L 56.51 9.40
  A 0.85 0.84 -64.4 0 0 55.71 9.69
  C 54.60 11.03 53.64 12.55 52.00 13.11
  Q 48.47 14.33 45.58 11.47
  Q 44.63 9.01 42.27 9.59
  Q 21.77 14.58 12.91 32.27
  C 11.36 35.36 10.42 39.19 9.23 42.70
  Q 9.06 43.20 9.33 43.66
  C 10.30 45.27 12.04 46.04 12.79 47.44
  C 14.65 50.95 12.59 53.75 9.32 55.78
  Q 8.90 56.04 9.07 56.52
  Q 9.77 58.47 9.79 60.49
  Q 8.56 60.08 8.59 61.51
  Q 8.67 66.55 8.68 71.60
  Q 8.68 71.75 8.60 71.87
  L 8.39 72.19
  Q 8.24 72.41 8.40 72.62
  C 9.09 73.57 8.63 74.38 8.62 75.22
  Q 8.60 82.63 8.64 90.04
  Q 8.64 90.53 8.42 90.96
  Q 8.22 91.36 8.42 91.65
  Q 8.61 91.93 9.18 91.93
  Q 24.77 91.99 40.25 91.91
  Q 41.59 91.02 43.47 91.30
  Q 44.01 91.38 44.29 90.92
  L 45.79 88.51
  C 49.38 84.87 53.67 86.54 55.59 90.73
  Q 55.80 91.18 56.29 91.29
  Q 57.99 91.68 59.44 91.09
  C 62.43 89.86 65.45 89.17 68.35 87.77
  Q 81.45 81.35 87.71 68.39
  C 89.23 65.26 90.03 61.40 91.39 57.86
  A 1.88 1.87 23.4 0 0 90.45 55.50
  C 84.92 52.84 85.48 47.53 90.56 44.54
  A 1.41 1.36 84.0 0 0 91.18 43.75
  Q 91.38 43.08 91.81 42.54
  Q 92.09 42.19 91.67 42.02
  Q 91.19 41.83 91.09 41.49
  Q 91.01 41.22 91.28 40.84
  L 92.78 41.17
  A 0.60 0.59 20.0 0 1 93.18 42.02
  L 92.43 43.48
  A 0.43 0.43 0.0 0 0 92.75 44.10
  C 98.22 44.90 99.99 51.05 95.82 54.53
  C 94.93 55.28 93.94 55.57 92.79 56.00
  A 0.45 0.44 -26.3 0 0 92.56 56.66
  Q 93.20 57.64 92.95 58.77
  A 0.51 0.51 0.0 0 1 92.28 59.14
  Q 91.97 59.03 91.75 59.22
  Q 91.29 59.61 91.21 60.04
  C 88.51 74.64 75.10 88.14 60.49 91.15
  Q 60.25 91.20 60.07 91.52
  Q 59.91 91.82 60.23 91.92
  L 60.80 92.10
  Q 61.63 92.36 60.81 92.65
  C 59.55 93.10 58.04 92.22 56.40 92.85
  Q 55.96 93.02 55.81 93.47
  C 53.77 99.87 46.16 99.49 44.25 93.24
  Q 44.12 92.83 43.72 92.71
  Q 42.32 92.26 40.92 92.79
  A 0.85 0.85 0.0 0 1 40.01 92.59
  Q 39.58 92.14 39.03 92.46
  Q 38.69 92.66 38.29 92.66
  L 8.47 92.61
  Q 7.98 92.61 7.97 92.12
  Q 7.80 76.79 7.93 61.50
  Q 7.94 60.02 8.78 59.79
  A 0.48 0.47 -6.0 0 0 9.13 59.36
  Q 9.14 59.20 9.07 59.05
  Q 8.96 58.81 8.60 58.68
  Q 8.43 58.62 8.25 58.57
  Q 7.95 58.49 7.90 58.19
  Q 7.69 57.16 8.28 56.24
  A 0.24 0.24 0.0 0 0 8.09 55.87
  Q 3.65 55.50 2.28 52.21
  C 0.41 47.72 3.87 45.16 7.70 43.80
  Q 8.28 43.60 8.09 43.01
  L 7.77 42.04
  Q 7.56 41.42 8.14 41.12
  C 8.84 40.74 9.44 40.33 9.64 39.51
  C 13.25 24.80 25.49 13.14 39.99 9.36
  Q 40.43 9.24 40.11 8.92
  L 39.68 8.51
  A 0.70 0.69 57.0 0 0 38.94 8.35
  Q 37.87 8.75 36.00 8.70
  Q 26.66 8.47 10.95 8.61
  Q 10.43 8.62 9.96 8.40
  Q 9.60 8.25 9.20 8.27
  Q 8.59 8.30 8.59 8.91
  L 8.66 39.64
  Q 8.66 39.80 8.50 39.80
  L 8.21 39.81
  A 0.31 0.31 0.0 0 1 7.90 39.50
  L 7.89 8.48
  A 0.63 0.63 0.0 0 1 8.52 7.85
  L 40.87 7.84
  A 0.27 0.26 90.0 0 1 41.13 8.11
  L 41.13 8.50
  Q 41.13 9.27 41.61 8.67
  Q 42.27 7.84 43.38 7.79
  Q 43.99 7.77 44.13 7.18
  C 46.00 -0.54 53.89 0.47 56.17 7.56
  A 0.89 0.89 0.0 0 0 57.30 8.14
  Q 59.01 7.57 60.76 8.00
  A 0.18 0.18 0.0 0 1 60.74 8.36
  Q 60.41 8.41 60.13 8.62
  Q 59.60 9.02 60.24 9.20
  Q 81.50 15.15 89.91 35.54
  Q 90.71 37.46 90.89 40.45
  Z
  M 55.02 7.62
  A 5.00 5.00 0.0 0 0 50.02 2.62
  A 5.00 5.00 0.0 0 0 45.02 7.62
  A 5.00 5.00 0.0 0 0 50.02 12.62
  A 5.00 5.00 0.0 0 0 55.02 7.62
  Z
  M 12.63 50.01
  A 5.03 5.03 0.0 0 0 7.60 44.98
  A 5.03 5.03 0.0 0 0 2.57 50.01
  A 5.03 5.03 0.0 0 0 7.60 55.04
  A 5.03 5.03 0.0 0 0 12.63 50.01
  Z
  M 97.44 50.00
  A 5.04 5.04 0.0 0 0 92.40 44.96
  A 5.04 5.04 0.0 0 0 87.36 50.00
  A 5.04 5.04 0.0 0 0 92.40 55.04
  A 5.04 5.04 0.0 0 0 97.44 50.00
  Z
  M 55.09 92.33
  A 5.03 5.03 0.0 0 0 50.06 87.30
  A 5.03 5.03 0.0 0 0 45.03 92.33
  A 5.03 5.03 0.0 0 0 50.06 97.36
  A 5.03 5.03 0.0 0 0 55.09 92.33
  Z" fill="#1d1a14"></path>
<circle r="5.00" cy="7.62" cx="50.02" fill="#ffffff"></circle>
<path d="M 92.80 12.80
  Q 93.20 21.40 92.94 30.05
  Q 92.93 30.29 92.70 30.26
  L 92.31 30.23
  Q 92.26 30.22 92.26 30.17
  L 92.28 9.78
  A 1.25 1.25 0.0 0 0 91.03 8.53
  L 61.59 8.59
  Q 61.21 8.59 61.21 8.22
  L 61.21 7.96
  A 0.13 0.13 0.0 0 1 61.34 7.83
  L 91.07 7.84
  A 1.94 1.93 -19.8 0 1 92.56 8.54
  C 93.47 9.66 92.74 11.58 92.80 12.80
  Z" fill="#1d1a14"></path>
<path d="M 45.58 11.47
  Q 39.24 10.06 36.03 13.04
  Q 34.50 14.45 33.96 17.99
  C 33.03 24.05 31.61 30.15 31.40 36.06
  Q 31.21 41.10 31.28 46.15
  C 31.31 48.75 31.03 52.53 31.62 55.81
  Q 31.65 55.95 31.88 58.21
  Q 32.05 59.91 33.12 61.42
  Q 34.58 63.50 35.23 66.41
  Q 35.26 66.50 35.17 66.55
  Q 35.04 66.61 34.92 66.62
  Q 34.89 66.62 34.90 66.65
  C 35.86 69.23 36.11 71.84 37.20 74.26
  C 38.34 76.76 39.30 78.68 39.84 81.65
  C 40.41 84.71 41.36 87.74 45.25 87.36
  Q 45.78 87.31 45.88 87.84
  Q 45.94 88.12 45.79 88.51
  L 44.29 90.92
  Q 44.01 91.38 43.47 91.30
  Q 41.59 91.02 40.25 91.91
  L 40.22 90.97
  Q 40.42 90.88 40.34 90.65
  Q 40.22 90.33 39.89 90.27
  C 25.27 87.53 14.14 75.09 10.43 61.22
  Q 10.24 60.48 9.79 60.49
  Q 9.77 58.47 9.07 56.52
  Q 8.90 56.04 9.32 55.78
  C 12.59 53.75 14.65 50.95 12.79 47.44
  C 12.04 46.04 10.30 45.27 9.33 43.66
  Q 9.06 43.20 9.23 42.70
  C 10.42 39.19 11.36 35.36 12.91 32.27
  Q 21.77 14.58 42.27 9.59
  Q 44.63 9.01 45.58 11.47
  Z" fill="#ffeca8"></path>
<path d="M 60.40 10.10
  Q 59.24 11.38 57.12 11.32
  Q 56.59 11.30 56.46 11.82
  Q 56.34 12.30 55.93 12.36
  Q 55.39 12.43 55.38 12.97
  Q 55.23 17.16 53.78 20.97
  Q 51.60 26.69 51.45 27.21
  C 49.76 33.32 50.23 38.44 49.62 44.25
  Q 49.44 46.01 49.71 51.26
  Q 49.81 53.34 50.88 55.77
  Q 52.21 58.82 52.86 62.09
  C 53.27 64.16 54.53 65.92 54.84 68.20
  A 1.06 1.03 24.5 0 0 55.04 68.71
  C 55.73 69.66 55.82 70.97 56.20 71.82
  C 58.59 77.15 60.16 82.49 65.89 85.71
  Q 66.27 85.92 66.18 86.34
  L 66.10 86.68
  Q 65.99 87.22 66.54 87.13
  Q 68.29 86.85 68.35 87.77
  C 65.45 89.17 62.43 89.86 59.44 91.09
  Q 57.99 91.68 56.29 91.29
  Q 55.80 91.18 55.59 90.73
  C 53.67 86.54 49.38 84.87 45.79 88.51
  Q 45.94 88.12 45.88 87.84
  Q 45.78 87.31 45.25 87.36
  C 41.36 87.74 40.41 84.71 39.84 81.65
  C 39.30 78.68 38.34 76.76 37.20 74.26
  C 36.11 71.84 35.86 69.23 34.90 66.65
  Q 34.89 66.62 34.92 66.62
  Q 35.04 66.61 35.17 66.55
  Q 35.26 66.50 35.23 66.41
  Q 34.58 63.50 33.12 61.42
  Q 32.05 59.91 31.88 58.21
  Q 31.65 55.95 31.62 55.81
  C 31.03 52.53 31.31 48.75 31.28 46.15
  Q 31.21 41.10 31.40 36.06
  C 31.61 30.15 33.03 24.05 33.96 17.99
  Q 34.50 14.45 36.03 13.04
  Q 39.24 10.06 45.58 11.47
  Q 48.47 14.33 52.00 13.11
  C 53.64 12.55 54.60 11.03 55.71 9.69
  A 0.85 0.84 -64.4 0 1 56.51 9.40
  L 60.40 10.10
  Z" fill="#ffe586"></path>
<path d="M 60.40 10.10
  C 72.87 12.77 83.78 22.46 88.77 34.51
  Q 89.93 37.30 90.13 40.31
  Q 90.16 40.73 90.56 40.60
  Q 90.71 40.55 90.89 40.45
  Q 91.04 40.51 91.28 40.84
  Q 91.01 41.22 91.09 41.49
  Q 91.19 41.83 91.67 42.02
  Q 92.09 42.19 91.81 42.54
  Q 91.38 43.08 91.18 43.75
  A 1.41 1.36 84.0 0 1 90.56 44.54
  C 85.48 47.53 84.92 52.84 90.45 55.50
  A 1.88 1.87 23.4 0 1 91.39 57.86
  C 90.03 61.40 89.23 65.26 87.71 68.39
  Q 81.45 81.35 68.35 87.77
  Q 68.29 86.85 66.54 87.13
  Q 65.99 87.22 66.10 86.68
  L 66.18 86.34
  Q 66.27 85.92 65.89 85.71
  C 60.16 82.49 58.59 77.15 56.20 71.82
  C 55.82 70.97 55.73 69.66 55.04 68.71
  A 1.06 1.03 24.5 0 1 54.84 68.20
  C 54.53 65.92 53.27 64.16 52.86 62.09
  Q 52.21 58.82 50.88 55.77
  Q 49.81 53.34 49.71 51.26
  Q 49.44 46.01 49.62 44.25
  C 50.23 38.44 49.76 33.32 51.45 27.21
  Q 51.60 26.69 53.78 20.97
  Q 55.23 17.16 55.38 12.97
  Q 55.39 12.43 55.93 12.36
  Q 56.34 12.30 56.46 11.82
  Q 56.59 11.30 57.12 11.32
  Q 59.24 11.38 60.40 10.10
  Z" fill="#ffda55"></path>
<path d="M 92.30 33.31
  Q 91.70 32.27 92.36 31.32
  Q 92.66 30.87 92.85 31.38
  Q 93.19 32.26 92.88 33.20
  Q 92.73 33.68 92.81 34.18
  Q 93.29 37.20 92.82 40.23
  Q 92.81 40.29 92.74 40.29
  L 92.33 40.29
  Q 92.04 40.29 92.08 40.00
  C 92.33 38.07 91.87 35.74 92.38 34.01
  Q 92.48 33.64 92.30 33.31
  Z" fill="#1d1a14"></path>
<circle r="5.03" cy="50.01" cx="7.60" fill="#ffffff"></circle>
<circle r="5.04" cy="50.00" cx="92.40" fill="#ffffff"></circle>
<path d="M 92.30 62.19
  Q 91.65 60.86 92.34 59.98
  Q 92.82 59.37 92.85 60.15
  Q 93.14 67.06 92.78 74.75
  Q 92.77 74.97 92.68 75.16
  Q 92.53 75.49 92.67 75.82
  Q 93.18 77.07 92.77 78.35
  Q 92.61 78.84 92.83 79.31
  Q 93.36 80.43 92.68 81.06
  Q 92.14 81.55 92.14 80.83
  Q 92.11 73.65 92.30 66.14
  C 92.32 65.38 91.91 64.14 92.33 63.04
  Q 92.50 62.61 92.30 62.19
  Z" fill="#1d1a14"></path>
<path d="M 9.79 60.49
  Q 9.54 61.41 9.74 62.03
  Q 15.85 81.16 34.15 89.33
  Q 37.01 90.61 40.22 90.97
  L 40.25 91.91
  Q 24.77 91.99 9.18 91.93
  Q 8.61 91.93 8.42 91.65
  Q 8.22 91.36 8.42 90.96
  Q 8.64 90.53 8.64 90.04
  Q 8.60 82.63 8.62 75.22
  C 8.63 74.38 9.09 73.57 8.40 72.62
  Q 8.24 72.41 8.39 72.19
  L 8.60 71.87
  Q 8.68 71.75 8.68 71.60
  Q 8.67 66.55 8.59 61.51
  Q 8.56 60.08 9.79 60.49
  Z" fill="#ffffff"></path>
<path d="M 9.79 60.49
  Q 10.24 60.48 10.43 61.22
  C 14.14 75.09 25.27 87.53 39.89 90.27
  Q 40.22 90.33 40.34 90.65
  Q 40.42 90.88 40.22 90.97
  Q 37.01 90.61 34.15 89.33
  Q 15.85 81.16 9.74 62.03
  Q 9.54 61.41 9.79 60.49
  Z" fill="#1d1a14"></path>
<path d="M 89.88 92.35
  Q 89.01 93.02 87.95 92.68
  A 0.40 0.40 0.0 0 1 88.09 91.90
  L 91.49 92.08
  A 0.32 0.31 -78.1 0 0 91.81 91.86
  Q 92.52 89.72 92.31 87.56
  C 92.19 86.22 92.40 84.88 92.01 83.27
  Q 91.87 82.65 92.38 82.16
  Q 93.09 81.48 93.06 82.47
  L 92.79 92.26
  Q 92.78 92.97 92.07 92.98
  Q 91.25 92.98 90.67 92.40
  Q 90.30 92.03 89.88 92.35
  Z" fill="#1d1a14"></path>
<circle r="5.03" cy="92.33" cx="50.06" fill="#ffffff"></circle>
<path d="M 79.84 92.67
  C 78.81 93.02 77.35 92.43 75.97 92.78
  Q 75.45 92.91 74.97 92.67
  Q 74.18 92.27 73.36 92.67
  Q 72.88 92.90 72.38 92.73
  C 71.11 92.28 70.10 92.77 68.91 92.70
  Q 65.33 92.47 61.77 92.83
  A 0.17 0.16 -3.5 0 1 61.59 92.68
  L 61.57 92.40
  A 0.46 0.45 -1.8 0 1 62.03 91.92
  L 86.88 91.92
  Q 87.31 91.92 87.16 92.32
  Q 87.06 92.58 86.79 92.60
  Q 83.73 92.84 80.68 92.57
  A 2.03 2.01 -51.6 0 0 79.84 92.67
  Z" fill="#1d1a14"></path>
</svg>
