<svg viewBox="0.00 0.00 192.00 192.00" version="1.1" xmlns="http://www.w3.org/2000/svg">
<path d="M 75.84 0.00
  L 177.90 0.00
  Q 188.91 0.70 192.00 8.04
  L 192.00 28.99
  C 189.99 38.46 186.16 47.52 182.70 56.45
  Q 182.24 57.63 180.98 57.63
  L 35.50 57.59
  A 0.69 0.68 10.2 0 1 34.86 56.68
  Q 40.33 41.48 45.84 26.01
  C 50.89 11.83 60.91 2.39 75.84 0.00
  Z" fill="#00a8fe"></path>
<path d="M 10.81 124.18
  L 30.42 69.23
  Q 30.95 67.75 32.52 67.75
  L 177.77 67.75
  A 0.49 0.48 9.4 0 1 178.23 68.39
  Q 174.05 80.32 169.99 91.82
  Q 164.57 107.20 151.70 116.67
  C 142.71 123.28 134.45 125.01 122.51 125.01
  Q 67.07 125.02 11.39 125.00
  A 0.62 0.61 10.0 0 1 10.81 124.18
  Z" fill="#008eff"></path>
<path d="M 28.66 192.00
  L 0.00 192.00
  L 0.00 156.00
  Q 2.58 145.55 7.08 135.31
  A 0.58 0.57 11.6 0 1 7.61 134.97
  L 66.24 135.00
  Q 67.39 135.00 67.01 136.08
  Q 60.82 153.52 54.62 170.62
  Q 51.63 178.87 48.82 182.38
  Q 41.47 191.61 28.66 192.00
  Z" fill="#2274ff"></path>
</svg>
