<svg viewBox="0.00 0.00 256.00 256.00" version="1.1" xmlns="http://www.w3.org/2000/svg">
<g stroke-linecap="butt" fill="none" stroke-width="2.00">
<path d="M 111.00 88.92
  C 112.57 93.55 108.17 95.17 104.61 95.19
  C 83.67 95.32 31.36 96.73 31.42 128.50
  C 31.49 162.75 86.99 152.48 105.25 147.54
  C 118.82 143.87 123.45 127.46 105.76 125.12
  Q 99.62 124.31 93.47 125.06
  Q 82.62 126.38 69.56 128.50
  Q 65.08 129.23 64.19 124.78
  L 63.98 123.73
  A 3.64 3.64 0.0 0 1 66.84 119.46
  Q 82.45 116.38 96.25 115.33
  C 107.16 114.50 120.96 116.67 125.64 128.25
  Q 129.39 137.54 123.06 146.63
  Q 122.76 147.06 123.14 147.41
  C 133.29 156.96 134.26 171.86 123.43 181.44
  Q 123.02 181.81 123.41 182.20
  C 131.86 190.72 132.55 202.80 124.53 211.91
  Q 124.18 212.30 124.54 212.68
  C 131.77 220.43 131.67 232.23 125.33 240.50
  Q 124.99 240.95 125.55 240.89
  Q 171.88 236.00 214.16 227.23
  C 221.04 225.80 222.05 221.04 222.29 214.40
  Q 223.84 171.28 225.39 128.17
  C 225.58 122.95 225.11 118.90 222.18 115.09
  Q 210.67 100.12 203.19 84.83
  C 196.47 71.11 190.47 56.21 192.31 41.25
  Q 193.42 32.25 194.50 23.26
  C 194.96 19.46 194.31 14.91 190.93 13.28
  C 179.67 7.87 170.46 22.63 167.69 31.68
  Q 162.81 47.67 165.70 63.01
  Q 166.63 67.95 167.62 72.85
  C 169.22 80.72 170.11 87.34 163.21 91.77
  C 156.28 96.21 148.86 91.72 145.08 85.68
  C 133.26 66.81 132.72 47.89 136.32 26.48
  Q 137.37 20.25 136.94 18.00
  C 135.59 10.91 128.59 8.61 122.68 12.16
  C 105.23 22.64 102.34 51.21 105.71 68.89
  Q 107.66 79.08 111.00 88.92" stroke="#808080"></path>
<path d="M 96.24 159.47
  C 76.20 163.22 52.31 165.46 35.47 155.03
  A 0.71 0.71 0.0 0 0 34.46 155.30
  C 28.48 166.72 34.05 177.94 45.28 181.92
  Q 49.12 183.28 54.49 183.83
  C 74.07 185.83 94.60 185.33 112.44 177.18
  C 122.56 172.55 124.74 161.61 116.25 154.15
  Q 115.88 153.83 115.42 154.02
  Q 107.63 157.34 96.24 159.47" stroke="#808080"></path>
<path d="M 114.51 187.06
  C 95.28 194.35 74.12 195.58 53.99 193.57
  Q 46.92 192.86 40.13 190.10
  Q 39.61 189.89 39.37 190.40
  Q 36.04 197.53 39.24 204.05
  C 43.64 213.00 55.25 215.75 64.27 216.02
  C 76.49 216.38 121.09 216.50 120.50 197.23
  C 120.37 193.08 118.00 189.41 114.61 187.07
  A 0.12 0.11 47.9 0 0 114.51 187.06" stroke="#808080"></path>
<path d="M 47.68 226.57
  C 51.48 240.62 65.88 245.98 79.26 245.40
  C 91.01 244.88 103.19 244.24 113.14 238.41
  C 120.04 234.37 123.65 224.22 116.41 218.59
  Q 116.02 218.29 115.56 218.49
  Q 107.35 222.24 100.00 223.47
  Q 80.21 226.79 58.22 225.38
  Q 55.14 225.18 48.63 223.15
  Q 48.13 223.00 47.98 223.50
  Q 47.40 225.53 47.68 226.57" stroke="#808080"></path>
</g>
<path d="M 99.88 85.03
  C 93.99 64.42 92.49 46.76 100.26 25.98
  Q 102.95 18.77 106.08 14.35
  C 113.33 4.11 127.80 -4.12 139.62 4.69
  C 150.35 12.68 145.91 26.54 144.64 37.36
  C 142.78 53.18 144.75 66.94 153.28 80.69
  Q 154.56 82.75 156.43 83.66
  A 1.94 1.93 -75.6 0 0 159.20 82.02
  C 159.25 80.95 159.39 79.75 159.13 78.67
  Q 157.28 71.01 155.98 63.25
  C 153.21 46.72 155.85 27.77 165.87 14.15
  C 172.94 4.56 184.97 -1.03 195.87 5.15
  Q 202.95 9.16 203.82 17.35
  C 205.03 28.62 200.87 39.69 201.97 51.03
  Q 202.74 58.90 205.34 65.68
  Q 212.53 84.40 224.00 100.86
  Q 226.68 104.71 229.37 108.58
  C 233.28 114.22 235.35 119.09 235.12 125.50
  Q 233.56 168.91 231.99 212.32
  Q 231.64 222.15 229.95 225.93
  C 226.53 233.63 220.39 235.85 211.85 237.57
  Q 182.72 243.45 153.24 247.21
  C 118.94 251.59 95.73 254.73 76.25 254.95
  C 57.91 255.16 33.11 241.18 39.15 219.06
  Q 39.29 218.55 38.87 218.22
  Q 22.25 205.01 31.04 185.09
  Q 31.26 184.60 30.87 184.23
  C 20.86 174.71 20.00 159.76 27.49 148.49
  Q 27.77 148.06 27.48 147.64
  Q 22.01 139.67 21.75 129.99
  C 20.69 90.14 71.92 86.55 99.45 85.61
  Q 100.04 85.59 99.88 85.03
  Z
  M 111.00 88.92
  C 112.57 93.55 108.17 95.17 104.61 95.19
  C 83.67 95.32 31.36 96.73 31.42 128.50
  C 31.49 162.75 86.99 152.48 105.25 147.54
  C 118.82 143.87 123.45 127.46 105.76 125.12
  Q 99.62 124.31 93.47 125.06
  Q 82.62 126.38 69.56 128.50
  Q 65.08 129.23 64.19 124.78
  L 63.98 123.73
  A 3.64 3.64 0.0 0 1 66.84 119.46
  Q 82.45 116.38 96.25 115.33
  C 107.16 114.50 120.96 116.67 125.64 128.25
  Q 129.39 137.54 123.06 146.63
  Q 122.76 147.06 123.14 147.41
  C 133.29 156.96 134.26 171.86 123.43 181.44
  Q 123.02 181.81 123.41 182.20
  C 131.86 190.72 132.55 202.80 124.53 211.91
  Q 124.18 212.30 124.54 212.68
  C 131.77 220.43 131.67 232.23 125.33 240.50
  Q 124.99 240.95 125.55 240.89
  Q 171.88 236.00 214.16 227.23
  C 221.04 225.80 222.05 221.04 222.29 214.40
  Q 223.84 171.28 225.39 128.17
  C 225.58 122.95 225.11 118.90 222.18 115.09
  Q 210.67 100.12 203.19 84.83
  C 196.47 71.11 190.47 56.21 192.31 41.25
  Q 193.42 32.25 194.50 23.26
  C 194.96 19.46 194.31 14.91 190.93 13.28
  C 179.67 7.87 170.46 22.63 167.69 31.68
  Q 162.81 47.67 165.70 63.01
  Q 166.63 67.95 167.62 72.85
  C 169.22 80.72 170.11 87.34 163.21 91.77
  C 156.28 96.21 148.86 91.72 145.08 85.68
  C 133.26 66.81 132.72 47.89 136.32 26.48
  Q 137.37 20.25 136.94 18.00
  C 135.59 10.91 128.59 8.61 122.68 12.16
  C 105.23 22.64 102.34 51.21 105.71 68.89
  Q 107.66 79.08 111.00 88.92
  Z
  M 96.24 159.47
  C 76.20 163.22 52.31 165.46 35.47 155.03
  A 0.71 0.71 0.0 0 0 34.46 155.30
  C 28.48 166.72 34.05 177.94 45.28 181.92
  Q 49.12 183.28 54.49 183.83
  C 74.07 185.83 94.60 185.33 112.44 177.18
  C 122.56 172.55 124.74 161.61 116.25 154.15
  Q 115.88 153.83 115.42 154.02
  Q 107.63 157.34 96.24 159.47
  Z
  M 114.51 187.06
  C 95.28 194.35 74.12 195.58 53.99 193.57
  Q 46.92 192.86 40.13 190.10
  Q 39.61 189.89 39.37 190.40
  Q 36.04 197.53 39.24 204.05
  C 43.64 213.00 55.25 215.75 64.27 216.02
  C 76.49 216.38 121.09 216.50 120.50 197.23
  C 120.37 193.08 118.00 189.41 114.61 187.07
  A 0.12 0.11 47.9 0 0 114.51 187.06
  Z
  M 47.68 226.57
  C 51.48 240.62 65.88 245.98 79.26 245.40
  C 91.01 244.88 103.19 244.24 113.14 238.41
  C 120.04 234.37 123.65 224.22 116.41 218.59
  Q 116.02 218.29 115.56 218.49
  Q 107.35 222.24 100.00 223.47
  Q 80.21 226.79 58.22 225.38
  Q 55.14 225.18 48.63 223.15
  Q 48.13 223.00 47.98 223.50
  Q 47.40 225.53 47.68 226.57
  Z" fill="#000000"></path>
<path d="M 104.61 95.19
  C 108.17 95.17 112.57 93.55 111.00 88.92
  Q 107.66 79.08 105.71 68.89
  C 102.34 51.21 105.23 22.64 122.68 12.16
  C 128.59 8.61 135.59 10.91 136.94 18.00
  Q 137.37 20.25 136.32 26.48
  C 132.72 47.89 133.26 66.81 145.08 85.68
  C 148.86 91.72 156.28 96.21 163.21 91.77
  C 170.11 87.34 169.22 80.72 167.62 72.85
  Q 166.63 67.95 165.70 63.01
  Q 162.81 47.67 167.69 31.68
  C 170.46 22.63 179.67 7.87 190.93 13.28
  C 194.31 14.91 194.96 19.46 194.50 23.26
  Q 193.42 32.25 192.31 41.25
  C 190.47 56.21 196.47 71.11 203.19 84.83
  Q 210.67 100.12 222.18 115.09
  C 225.11 118.90 225.58 122.95 225.39 128.17
  Q 223.84 171.28 222.29 214.40
  C 222.05 221.04 221.04 225.80 214.16 227.23
  Q 171.88 236.00 125.55 240.89
  Q 124.99 240.95 125.33 240.50
  C 131.67 232.23 131.77 220.43 124.54 212.68
  Q 124.18 212.30 124.53 211.91
  C 132.55 202.80 131.86 190.72 123.41 182.20
  Q 123.02 181.81 123.43 181.44
  C 134.26 171.86 133.29 156.96 123.14 147.41
  Q 122.76 147.06 123.06 146.63
  Q 129.39 137.54 125.64 128.25
  C 120.96 116.67 107.16 114.50 96.25 115.33
  Q 82.45 116.38 66.84 119.46
  A 3.64 3.64 0.0 0 0 63.98 123.73
  L 64.19 124.78
  Q 65.08 129.23 69.56 128.50
  Q 82.62 126.38 93.47 125.06
  Q 99.62 124.31 105.76 125.12
  C 123.45 127.46 118.82 143.87 105.25 147.54
  C 86.99 152.48 31.49 162.75 31.42 128.50
  C 31.36 96.73 83.67 95.32 104.61 95.19
  Z" fill="#ffffff"></path>
<path d="M 35.47 155.03
  C 52.31 165.46 76.20 163.22 96.24 159.47
  Q 107.63 157.34 115.42 154.02
  Q 115.88 153.83 116.25 154.15
  C 124.74 161.61 122.56 172.55 112.44 177.18
  C 94.60 185.33 74.07 185.83 54.49 183.83
  Q 49.12 183.28 45.28 181.92
  C 34.05 177.94 28.48 166.72 34.46 155.30
  A 0.71 0.71 0.0 0 1 35.47 155.03
  Z" fill="#ffffff"></path>
<path d="M 114.51 187.06
  A 0.12 0.11 47.9 0 1 114.61 187.07
  C 118.00 189.41 120.37 193.08 120.50 197.23
  C 121.09 216.50 76.49 216.38 64.27 216.02
  C 55.25 215.75 43.64 213.00 39.24 204.05
  Q 36.04 197.53 39.37 190.40
  Q 39.61 189.89 40.13 190.10
  Q 46.92 192.86 53.99 193.57
  C 74.12 195.58 95.28 194.35 114.51 187.06
  Z" fill="#ffffff"></path>
<path d="M 79.26 245.40
  C 65.88 245.98 51.48 240.62 47.68 226.57
  Q 47.40 225.53 47.98 223.50
  Q 48.13 223.00 48.63 223.15
  Q 55.14 225.18 58.22 225.38
  Q 80.21 226.79 100.00 223.47
  Q 107.35 222.24 115.56 218.49
  Q 116.02 218.29 116.41 218.59
  C 123.65 224.22 120.04 234.37 113.14 238.41
  C 103.19 244.24 91.01 244.88 79.26 245.40
  Z" fill="#ffffff"></path>
</svg>
