<svg viewBox="0.00 0.00 179.00 185.00" version="1.1" xmlns="http://www.w3.org/2000/svg">
<path d="M 0.00 34.86
  L 0.00 31.70
  Q 0.82 30.02 2.25 30.01
  Q 10.63 29.97 18.52 30.01
  A 2.25 2.24 88.9 0 1 20.75 32.17
  C 22.18 66.05 46.38 94.65 80.61 99.17
  Q 80.94 99.21 91.91 99.74
  C 120.44 101.12 141.00 123.81 143.38 151.62
  C 143.59 154.04 142.66 154.96 140.24 154.98
  Q 129.01 155.09 124.76 154.95
  Q 122.80 154.88 122.61 152.76
  Q 121.15 136.25 109.03 127.14
  C 86.81 110.47 58.00 126.40 55.98 152.76
  A 2.41 2.40 2.1 0 1 53.59 154.98
  Q 46.01 155.01 38.25 155.10
  Q 34.96 155.13 35.21 151.75
  Q 36.83 129.55 52.78 114.20
  A 1.09 1.09 0.0 0 0 52.48 112.42
  C 21.62 98.14 2.52 68.85 0.00 34.86
  Z" fill="#6241dc"></path>
<path d="M 126.08 72.45
  C 157.58 87.29 177.04 117.13 178.59 152.00
  C 178.70 154.50 177.21 155.00 174.99 155.00
  Q 167.49 155.02 160.14 154.99
  A 2.21 2.20 88.5 0 1 157.95 152.91
  Q 156.23 120.94 133.08 101.38
  C 119.68 90.05 104.95 85.38 87.25 85.24
  Q 78.02 85.17 68.93 81.29
  C 49.14 72.85 36.91 54.64 35.16 33.00
  C 34.97 30.66 36.32 30.01 38.45 30.01
  Q 46.32 29.97 53.68 30.01
  A 2.32 2.32 0.0 0 1 55.98 32.17
  C 57.27 50.12 71.55 65.11 90.29 64.45
  C 108.16 63.83 121.28 49.86 122.72 32.16
  A 2.35 2.34 2.1 0 1 125.05 30.00
  Q 132.79 29.99 141.00 30.00
  Q 143.69 30.01 143.48 33.01
  Q 141.93 55.34 125.81 70.81
  A 1.01 1.01 0.0 0 0 126.08 72.45
  Z" fill="#ed3e48"></path>
<path d="M 147.20 67.46
  C 153.75 56.27 157.39 45.31 157.89 32.07
  A 2.15 2.15 0.0 0 1 160.04 30.00
  L 176.48 30.00
  A 2.13 2.13 0.0 0 1 178.61 32.19
  Q 177.85 58.38 163.60 80.18
  A 1.08 1.08 0.0 0 1 162.00 80.41
  L 147.31 68.12
  Q 146.97 67.84 147.20 67.46
  Z" fill="#6241dc"></path>
<path d="M 0.00 153.10
  L 0.00 150.52
  Q 1.54 125.28 15.20 104.47
  A 0.99 0.99 0.0 0 1 16.72 104.30
  Q 23.43 110.93 31.13 116.37
  A 0.91 0.90 33.4 0 1 31.38 117.58
  Q 21.43 133.72 20.76 152.76
  A 2.29 2.29 0.0 0 1 18.48 154.97
  Q 10.58 155.04 2.66 154.97
  C 1.23 154.96 0.57 154.30 0.00 153.10
  Z" fill="#ed3e48"></path>
</svg>
