<svg viewBox="0.00 0.00 114.00 114.00" version="1.1" xmlns="http://www.w3.org/2000/svg">
<g stroke-linecap="butt" fill="none" stroke-width="2.00">
<path d="M 12.51 16.06
  Q 12.02 17.34 10.52 16.98
  A 0.79 0.78 6.7 0 0 9.55 17.74
  L 9.56 53.48
  Q 9.56 53.94 9.99 54.08
  Q 57.04 69.30 104.05 54.04
  A 0.58 0.58 0.0 0 0 104.45 53.49
  L 104.45 9.75
  A 0.20 0.20 0.0 0 0 104.25 9.55
  L 10.51 9.55
  Q 9.57 9.55 9.57 10.49
  L 9.55 14.21
  Q 9.54 15.06 10.40 14.99
  Q 11.25 14.92 12.07 15.16
  A 0.69 0.69 0.0 0 1 12.51 16.06" stroke="#9e9ec7"></path>
<path d="M 11.73 66.71
  L 9.94 66.71
  Q 9.54 66.71 9.54 67.11
  L 9.57 80.09
  A 0.90 0.90 0.0 0 0 10.06 80.89
  L 56.58 104.14
  A 0.97 0.95 -44.3 0 0 57.43 104.14
  L 103.63 81.04
  Q 104.45 80.63 104.44 79.71
  L 104.41 57.74
  Q 104.41 57.31 104.00 57.44
  Q 56.98 72.31 9.95 57.44
  Q 9.55 57.31 9.55 57.73
  L 9.56 63.56
  Q 9.56 64.08 10.06 64.19
  L 11.31 64.45
  Q 11.81 64.56 11.96 65.05
  L 12.25 66.01
  Q 12.46 66.71 11.73 66.71" stroke="#9e9ec7"></path>
<path d="M 21.4799 15.9550
  A 0.95 0.95 0.0 0 0 20.5283 15.0067
  L 16.7283 15.0133
  A 0.95 0.95 0.0 0 0 15.7799 15.9650
  L 15.7801 16.0450
  A 0.95 0.95 0.0 0 0 16.7317 16.9933
  L 20.5317 16.9867
  A 0.95 0.95 0.0 0 0 21.4801 16.0350
  L 21.4799 15.9550" stroke="#9e9ec7"></path>
<path d="M 30.4799 15.9450
  A 0.96 0.96 0.0 0 0 29.5183 14.9867
  L 25.7383 14.9933
  A 0.96 0.96 0.0 0 0 24.7799 15.9550
  L 24.7801 16.0350
  A 0.96 0.96 0.0 0 0 25.7417 16.9933
  L 29.5217 16.9867
  A 0.96 0.96 0.0 0 0 30.4801 16.0250
  L 30.4799 15.9450" stroke="#9e9ec7"></path>
<path d="M 39.46 15.87
  A 0.88 0.88 0.0 0 0 38.58 14.99
  L 35.00 14.99
  A 0.88 0.88 0.0 0 0 34.12 15.87
  L 34.12 16.11
  A 0.88 0.88 0.0 0 0 35.00 16.99
  L 38.58 16.99
  A 0.88 0.88 0.0 0 0 39.46 16.11
  L 39.46 15.87" stroke="#9e9ec7"></path>
<path d="M 48.46 15.89
  A 0.90 0.90 0.0 0 0 47.56 14.99
  L 44.00 14.99
  A 0.90 0.90 0.0 0 0 43.10 15.89
  L 43.10 16.09
  A 0.90 0.90 0.0 0 0 44.00 16.99
  L 47.56 16.99
  A 0.90 0.90 0.0 0 0 48.46 16.09
  L 48.46 15.89" stroke="#9e9ec7"></path>
<path d="M 57.63 15.85
  A 0.85 0.85 0.0 0 0 56.78 15.00
  L 52.98 15.00
  A 0.85 0.85 0.0 0 0 52.13 15.85
  L 52.13 16.15
  A 0.85 0.85 0.0 0 0 52.98 17.00
  L 56.78 17.00
  A 0.85 0.85 0.0 0 0 57.63 16.15
  L 57.63 15.85" stroke="#9e9ec7"></path>
<path d="M 66.62 15.86
  A 0.87 0.87 0.0 0 0 65.75 14.99
  L 61.97 14.99
  A 0.87 0.87 0.0 0 0 61.10 15.86
  L 61.10 16.12
  A 0.87 0.87 0.0 0 0 61.97 16.99
  L 65.75 16.99
  A 0.87 0.87 0.0 0 0 66.62 16.12
  L 66.62 15.86" stroke="#9e9ec7"></path>
<path d="M 75.62 15.86
  A 0.86 0.86 0.0 0 0 74.76 15.00
  L 70.98 15.00
  A 0.86 0.86 0.0 0 0 70.12 15.86
  L 70.12 16.14
  A 0.86 0.86 0.0 0 0 70.98 17.00
  L 74.76 17.00
  A 0.86 0.86 0.0 0 0 75.62 16.14
  L 75.62 15.86" stroke="#9e9ec7"></path>
<path d="M 84.6198 15.8652
  A 0.87 0.87 0.0 0 0 83.7483 14.9967
  L 79.9683 15.0033
  A 0.87 0.87 0.0 0 0 79.0998 15.8748
  L 79.1002 16.1348
  A 0.87 0.87 0.0 0 0 79.9717 17.0033
  L 83.7517 16.9967
  A 0.87 0.87 0.0 0 0 84.6202 16.1252
  L 84.6198 15.8652" stroke="#9e9ec7"></path>
<path d="M 93.6210 15.8737
  A 0.87 0.87 0.0 0 0 92.7587 14.9961
  L 89.0788 14.9640
  A 0.87 0.87 0.0 0 0 88.2012 15.8264
  L 88.1990 16.0863
  A 0.87 0.87 0.0 0 0 89.0613 16.9639
  L 92.7412 16.9960
  A 0.87 0.87 0.0 0 0 93.6188 16.1336
  L 93.6210 15.8737" stroke="#9e9ec7"></path>
<path d="M 102.6102 15.8746
  A 0.87 0.87 0.0 0 0 101.7417 15.0031
  L 98.2017 14.9969
  A 0.87 0.87 0.0 0 0 97.3302 15.8654
  L 97.3298 16.1254
  A 0.87 0.87 0.0 0 0 98.1983 16.9969
  L 101.7383 17.0031
  A 0.87 0.87 0.0 0 0 102.6098 16.1346
  L 102.6102 15.8746" stroke="#9e9ec7"></path>
<path d="M 43.95 36.27
  A 11.65 11.65 0.0 0 0 32.30 24.62
  A 11.65 11.65 0.0 0 0 20.65 36.27
  A 11.65 11.65 0.0 0 0 32.30 47.92
  A 11.65 11.65 0.0 0 0 43.95 36.27" stroke="#9e9ec7"></path>
<path d="M 93.29 36.26
  A 11.64 11.64 0.0 0 0 81.65 24.62
  A 11.64 11.64 0.0 0 0 70.01 36.26
  A 11.64 11.64 0.0 0 0 81.65 47.90
  A 11.64 11.64 0.0 0 0 93.29 36.26" stroke="#9e9ec7"></path>
<path d="M 40.74 36.25
  A 8.43 8.43 0.0 0 0 32.31 27.82
  A 8.43 8.43 0.0 0 0 23.88 36.25
  A 8.43 8.43 0.0 0 0 32.31 44.68
  A 8.43 8.43 0.0 0 0 40.74 36.25" stroke="#9e9ec7"></path>
<path d="M 90.08 36.26
  A 8.43 8.43 0.0 0 0 81.65 27.83
  A 8.43 8.43 0.0 0 0 73.22 36.26
  A 8.43 8.43 0.0 0 0 81.65 44.69
  A 8.43 8.43 0.0 0 0 90.08 36.26" stroke="#9e9ec7"></path>
<path d="M 28.25 37.28
  C 30.14 35.45 29.01 33.20 32.77 32.79
  A 1.06 1.06 0.0 0 0 33.56 31.18
  Q 32.13 28.90 29.28 30.53
  Q 25.86 32.49 26.03 36.39
  A 1.31 1.31 0.0 0 0 28.25 37.28" stroke="#9e9ec7"></path>
<path d="M 79.51 34.06
  Q 80.54 33.17 82.52 32.36
  A 0.91 0.90 63.0 0 0 82.94 31.05
  L 82.71 30.68
  Q 82.03 29.59 80.77 29.87
  Q 75.57 31.02 75.21 36.17
  A 1.40 1.40 0.0 0 0 77.24 37.52
  C 78.55 36.85 78.38 35.02 79.51 34.06" stroke="#9e9ec7"></path>
<path d="M 101.1328 66.1238
  A 1.08 1.08 0.0 0 0 99.7781 65.4186
  L 96.5163 66.4470
  A 1.08 1.08 0.0 0 0 95.8111 67.8017
  L 95.8472 67.9162
  A 1.08 1.08 0.0 0 0 97.2019 68.6214
  L 100.4637 67.5930
  A 1.08 1.08 0.0 0 0 101.1689 66.2383
  L 101.1328 66.1238" stroke="#9e9ec7"></path>
<path d="M 20.7953 68.4250
  A 1.03 1.03 0.0 0 0 20.1003 67.1449
  L 16.8786 66.1906
  A 1.03 1.03 0.0 0 0 15.5985 66.8857
  L 15.5247 67.1350
  A 1.03 1.03 0.0 0 0 16.2197 68.4151
  L 19.4414 69.3694
  A 1.03 1.03 0.0 0 0 20.7215 68.6743
  L 20.7953 68.4250" stroke="#9e9ec7"></path>
<path d="M 92.4605 68.5657
  A 1.06 1.06 0.0 0 0 91.1934 67.7646
  L 87.8766 68.5121
  A 1.06 1.06 0.0 0 0 87.0755 69.7792
  L 87.1195 69.9743
  A 1.06 1.06 0.0 0 0 88.3866 70.7754
  L 91.7034 70.0279
  A 1.06 1.06 0.0 0 0 92.5045 68.7608
  L 92.4605 68.5657" stroke="#9e9ec7"></path>
<path d="M 29.6685 70.4937
  A 1.07 1.07 0.0 0 0 28.8937 69.1939
  L 25.6558 68.3746
  A 1.07 1.07 0.0 0 0 24.3560 69.1494
  L 24.3315 69.2463
  A 1.07 1.07 0.0 0 0 25.1063 70.5461
  L 28.3442 71.3654
  A 1.07 1.07 0.0 0 0 29.6440 70.5906
  L 29.6685 70.4937" stroke="#9e9ec7"></path>
<path d="M 83.30 71.38
  A 0.65 0.65 0.0 0 0 83.58 70.33
  L 82.92 69.60
  A 0.65 0.65 0.0 0 0 82.26 69.42
  L 78.53 70.53
  A 0.65 0.65 0.0 0 0 78.18 71.53
  L 78.79 72.37
  A 0.65 0.65 0.0 0 0 79.52 72.61
  L 83.30 71.38" stroke="#9e9ec7"></path>
<path d="M 38.8081 71.7983
  A 2.94 1.27 7.0 0 0 36.0448 70.1795
  A 2.94 1.27 7.0 0 0 32.9719 71.0817
  A 2.94 1.27 7.0 0 0 35.7352 72.7005
  A 2.94 1.27 7.0 0 0 38.8081 71.7983" stroke="#9e9ec7"></path>
<path d="M 74.8030 71.8757
  A 2.91 1.22 -6.2 0 0 71.7782 70.9771
  A 2.91 1.22 -6.2 0 0 69.0170 72.5043
  A 2.91 1.22 -6.2 0 0 72.0418 73.4029
  A 2.91 1.22 -6.2 0 0 74.8030 71.8757" stroke="#9e9ec7"></path>
<path d="M 47.7122 72.6317
  A 2.89 1.27 4.2 0 0 44.9230 71.1534
  A 2.89 1.27 4.2 0 0 41.9478 72.2083
  A 2.89 1.27 4.2 0 0 44.7370 73.6866
  A 2.89 1.27 4.2 0 0 47.7122 72.6317" stroke="#9e9ec7"></path>
<path d="M 56.6681 72.9441
  A 2.84 1.27 2.1 0 0 53.8765 71.5709
  A 2.84 1.27 2.1 0 0 50.9919 72.7359
  A 2.84 1.27 2.1 0 0 53.7835 74.1091
  A 2.84 1.27 2.1 0 0 56.6681 72.9441" stroke="#9e9ec7"></path>
<path d="M 65.6651 72.5466
  A 1.08 1.08 0.0 0 0 64.5408 71.5127
  L 61.2837 71.6493
  A 1.08 1.08 0.0 0 0 60.2499 72.7735
  L 60.2549 72.8934
  A 1.08 1.08 0.0 0 0 61.3792 73.9273
  L 64.6363 73.7907
  A 1.08 1.08 0.0 0 0 65.6701 72.6665
  L 65.6651 72.5466" stroke="#9e9ec7"></path>
</g>
<path d="M 106.56 83.16
  L 57.97 107.45
  A 2.18 2.18 0.0 0 1 56.03 107.45
  L 7.44 83.16
  A 2.18 2.18 0.0 0 1 6.23 81.21
  L 6.23 8.42
  A 2.18 2.18 0.0 0 1 8.41 6.24
  L 105.59 6.23
  A 2.18 2.18 0.0 0 1 107.77 8.41
  L 107.77 81.21
  A 2.18 2.18 0.0 0 1 106.56 83.16
  Z
  M 12.51 16.06
  Q 12.02 17.34 10.52 16.98
  A 0.79 0.78 6.7 0 0 9.55 17.74
  L 9.56 53.48
  Q 9.56 53.94 9.99 54.08
  Q 57.04 69.30 104.05 54.04
  A 0.58 0.58 0.0 0 0 104.45 53.49
  L 104.45 9.75
  A 0.20 0.20 0.0 0 0 104.25 9.55
  L 10.51 9.55
  Q 9.57 9.55 9.57 10.49
  L 9.55 14.21
  Q 9.54 15.06 10.40 14.99
  Q 11.25 14.92 12.07 15.16
  A 0.69 0.69 0.0 0 1 12.51 16.06
  Z
  M 11.73 66.71
  L 9.94 66.71
  Q 9.54 66.71 9.54 67.11
  L 9.57 80.09
  A 0.90 0.90 0.0 0 0 10.06 80.89
  L 56.58 104.14
  A 0.97 0.95 -44.3 0 0 57.43 104.14
  L 103.63 81.04
  Q 104.45 80.63 104.44 79.71
  L 104.41 57.74
  Q 104.41 57.31 104.00 57.44
  Q 56.98 72.31 9.95 57.44
  Q 9.55 57.31 9.55 57.73
  L 9.56 63.56
  Q 9.56 64.08 10.06 64.19
  L 11.31 64.45
  Q 11.81 64.56 11.96 65.05
  L 12.25 66.01
  Q 12.46 66.71 11.73 66.71
  Z" fill="#ffffff"></path>
<path d="M 12.07 15.16
  Q 11.25 14.92 10.40 14.99
  Q 9.54 15.06 9.55 14.21
  L 9.57 10.49
  Q 9.57 9.55 10.51 9.55
  L 104.25 9.55
  A 0.20 0.20 0.0 0 1 104.45 9.75
  L 104.45 53.49
  A 0.58 0.58 0.0 0 1 104.05 54.04
  Q 57.04 69.30 9.99 54.08
  Q 9.56 53.94 9.56 53.48
  L 9.55 17.74
  A 0.79 0.78 6.7 0 1 10.52 16.98
  Q 12.02 17.34 12.51 16.06
  A 0.69 0.69 0.0 0 0 12.07 15.16
  Z
  M 21.4799 15.9550
  A 0.95 0.95 0.0 0 0 20.5283 15.0067
  L 16.7283 15.0133
  A 0.95 0.95 0.0 0 0 15.7799 15.9650
  L 15.7801 16.0450
  A 0.95 0.95 0.0 0 0 16.7317 16.9933
  L 20.5317 16.9867
  A 0.95 0.95 0.0 0 0 21.4801 16.0350
  L 21.4799 15.9550
  Z
  M 30.4799 15.9450
  A 0.96 0.96 0.0 0 0 29.5183 14.9867
  L 25.7383 14.9933
  A 0.96 0.96 0.0 0 0 24.7799 15.9550
  L 24.7801 16.0350
  A 0.96 0.96 0.0 0 0 25.7417 16.9933
  L 29.5217 16.9867
  A 0.96 0.96 0.0 0 0 30.4801 16.0250
  L 30.4799 15.9450
  Z
  M 39.46 15.87
  A 0.88 0.88 0.0 0 0 38.58 14.99
  L 35.00 14.99
  A 0.88 0.88 0.0 0 0 34.12 15.87
  L 34.12 16.11
  A 0.88 0.88 0.0 0 0 35.00 16.99
  L 38.58 16.99
  A 0.88 0.88 0.0 0 0 39.46 16.11
  L 39.46 15.87
  Z
  M 48.46 15.89
  A 0.90 0.90 0.0 0 0 47.56 14.99
  L 44.00 14.99
  A 0.90 0.90 0.0 0 0 43.10 15.89
  L 43.10 16.09
  A 0.90 0.90 0.0 0 0 44.00 16.99
  L 47.56 16.99
  A 0.90 0.90 0.0 0 0 48.46 16.09
  L 48.46 15.89
  Z
  M 57.63 15.85
  A 0.85 0.85 0.0 0 0 56.78 15.00
  L 52.98 15.00
  A 0.85 0.85 0.0 0 0 52.13 15.85
  L 52.13 16.15
  A 0.85 0.85 0.0 0 0 52.98 17.00
  L 56.78 17.00
  A 0.85 0.85 0.0 0 0 57.63 16.15
  L 57.63 15.85
  Z
  M 66.62 15.86
  A 0.87 0.87 0.0 0 0 65.75 14.99
  L 61.97 14.99
  A 0.87 0.87 0.0 0 0 61.10 15.86
  L 61.10 16.12
  A 0.87 0.87 0.0 0 0 61.97 16.99
  L 65.75 16.99
  A 0.87 0.87 0.0 0 0 66.62 16.12
  L 66.62 15.86
  Z
  M 75.62 15.86
  A 0.86 0.86 0.0 0 0 74.76 15.00
  L 70.98 15.00
  A 0.86 0.86 0.0 0 0 70.12 15.86
  L 70.12 16.14
  A 0.86 0.86 0.0 0 0 70.98 17.00
  L 74.76 17.00
  A 0.86 0.86 0.0 0 0 75.62 16.14
  L 75.62 15.86
  Z
  M 84.6198 15.8652
  A 0.87 0.87 0.0 0 0 83.7483 14.9967
  L 79.9683 15.0033
  A 0.87 0.87 0.0 0 0 79.0998 15.8748
  L 79.1002 16.1348
  A 0.87 0.87 0.0 0 0 79.9717 17.0033
  L 83.7517 16.9967
  A 0.87 0.87 0.0 0 0 84.6202 16.1252
  L 84.6198 15.8652
  Z
  M 93.6210 15.8737
  A 0.87 0.87 0.0 0 0 92.7587 14.9961
  L 89.0788 14.9640
  A 0.87 0.87 0.0 0 0 88.2012 15.8264
  L 88.1990 16.0863
  A 0.87 0.87 0.0 0 0 89.0613 16.9639
  L 92.7412 16.9960
  A 0.87 0.87 0.0 0 0 93.6188 16.1336
  L 93.6210 15.8737
  Z
  M 102.6102 15.8746
  A 0.87 0.87 0.0 0 0 101.7417 15.0031
  L 98.2017 14.9969
  A 0.87 0.87 0.0 0 0 97.3302 15.8654
  L 97.3298 16.1254
  A 0.87 0.87 0.0 0 0 98.1983 16.9969
  L 101.7383 17.0031
  A 0.87 0.87 0.0 0 0 102.6098 16.1346
  L 102.6102 15.8746
  Z
  M 43.95 36.27
  A 11.65 11.65 0.0 0 0 32.30 24.62
  A 11.65 11.65 0.0 0 0 20.65 36.27
  A 11.65 11.65 0.0 0 0 32.30 47.92
  A 11.65 11.65 0.0 0 0 43.95 36.27
  Z
  M 93.29 36.26
  A 11.64 11.64 0.0 0 0 81.65 24.62
  A 11.64 11.64 0.0 0 0 70.01 36.26
  A 11.64 11.64 0.0 0 0 81.65 47.90
  A 11.64 11.64 0.0 0 0 93.29 36.26
  Z" fill="#3d3d8e"></path>
<rect rx="0.95" height="1.98" width="5.70" transform="translate(18.63,16.00) rotate(-0.1)" y="-0.99" x="-2.85" fill="#ffffff"></rect>
<rect rx="0.96" height="2.00" width="5.70" transform="translate(27.63,15.99) rotate(-0.1)" y="-1.00" x="-2.85" fill="#ffffff"></rect>
<rect rx="0.88" height="2.00" width="5.34" y="14.99" x="34.12" fill="#ffffff"></rect>
<rect rx="0.90" height="2.00" width="5.36" y="14.99" x="43.10" fill="#ffffff"></rect>
<rect rx="0.85" height="2.00" width="5.50" y="15.00" x="52.13" fill="#ffffff"></rect>
<rect rx="0.87" height="2.00" width="5.52" y="14.99" x="61.10" fill="#ffffff"></rect>
<rect rx="0.86" height="2.00" width="5.50" y="15.00" x="70.12" fill="#ffffff"></rect>
<rect rx="0.87" height="2.00" width="5.52" transform="translate(81.86,16.00) rotate(-0.1)" y="-1.00" x="-2.76" fill="#ffffff"></rect>
<rect rx="0.87" height="2.00" width="5.42" transform="translate(90.91,15.98) rotate(0.5)" y="-1.00" x="-2.71" fill="#ffffff"></rect>
<rect rx="0.87" height="2.00" width="5.28" transform="translate(99.97,16.00) rotate(0.1)" y="-1.00" x="-2.64" fill="#ffffff"></rect>
<path d="M 43.95 36.27
  A 11.65 11.65 0.0 0 1 32.30 47.92
  A 11.65 11.65 0.0 0 1 20.65 36.27
  A 11.65 11.65 0.0 0 1 32.30 24.62
  A 11.65 11.65 0.0 0 1 43.95 36.27
  Z
  M 40.74 36.25
  A 8.43 8.43 0.0 0 0 32.31 27.82
  A 8.43 8.43 0.0 0 0 23.88 36.25
  A 8.43 8.43 0.0 0 0 32.31 44.68
  A 8.43 8.43 0.0 0 0 40.74 36.25
  Z" fill="#ffffff"></path>
<path d="M 93.29 36.26
  A 11.64 11.64 0.0 0 1 81.65 47.90
  A 11.64 11.64 0.0 0 1 70.01 36.26
  A 11.64 11.64 0.0 0 1 81.65 24.62
  A 11.64 11.64 0.0 0 1 93.29 36.26
  Z
  M 90.08 36.26
  A 8.43 8.43 0.0 0 0 81.65 27.83
  A 8.43 8.43 0.0 0 0 73.22 36.26
  A 8.43 8.43 0.0 0 0 81.65 44.69
  A 8.43 8.43 0.0 0 0 90.08 36.26
  Z" fill="#ffffff"></path>
<path d="M 40.74 36.25
  A 8.43 8.43 0.0 0 1 32.31 44.68
  A 8.43 8.43 0.0 0 1 23.88 36.25
  A 8.43 8.43 0.0 0 1 32.31 27.82
  A 8.43 8.43 0.0 0 1 40.74 36.25
  Z
  M 28.25 37.28
  C 30.14 35.45 29.01 33.20 32.77 32.79
  A 1.06 1.06 0.0 0 0 33.56 31.18
  Q 32.13 28.90 29.28 30.53
  Q 25.86 32.49 26.03 36.39
  A 1.31 1.31 0.0 0 0 28.25 37.28
  Z" fill="#3d3d8e"></path>
<path d="M 90.08 36.26
  A 8.43 8.43 0.0 0 1 81.65 44.69
  A 8.43 8.43 0.0 0 1 73.22 36.26
  A 8.43 8.43 0.0 0 1 81.65 27.83
  A 8.43 8.43 0.0 0 1 90.08 36.26
  Z
  M 79.51 34.06
  Q 80.54 33.17 82.52 32.36
  A 0.91 0.90 63.0 0 0 82.94 31.05
  L 82.71 30.68
  Q 82.03 29.59 80.77 29.87
  Q 75.57 31.02 75.21 36.17
  A 1.40 1.40 0.0 0 0 77.24 37.52
  C 78.55 36.85 78.38 35.02 79.51 34.06
  Z" fill="#3d3d8e"></path>
<path d="M 32.77 32.79
  C 29.01 33.20 30.14 35.45 28.25 37.28
  A 1.31 1.31 0.0 0 1 26.03 36.39
  Q 25.86 32.49 29.28 30.53
  Q 32.13 28.90 33.56 31.18
  A 1.06 1.06 0.0 0 1 32.77 32.79
  Z" fill="#ffffff"></path>
<path d="M 79.51 34.06
  C 78.38 35.02 78.55 36.85 77.24 37.52
  A 1.40 1.40 0.0 0 1 75.21 36.17
  Q 75.57 31.02 80.77 29.87
  Q 82.03 29.59 82.71 30.68
  L 82.94 31.05
  A 0.91 0.90 63.0 0 1 82.52 32.36
  Q 80.54 33.17 79.51 34.06
  Z" fill="#ffffff"></path>
<path d="M 12.25 66.01
  L 11.96 65.05
  Q 11.81 64.56 11.31 64.45
  L 10.06 64.19
  Q 9.56 64.08 9.56 63.56
  L 9.55 57.73
  Q 9.55 57.31 9.95 57.44
  Q 56.98 72.31 104.00 57.44
  Q 104.41 57.31 104.41 57.74
  L 104.44 79.71
  Q 104.45 80.63 103.63 81.04
  L 57.43 104.14
  A 0.97 0.95 -44.3 0 1 56.58 104.14
  L 10.06 80.89
  A 0.90 0.90 0.0 0 1 9.57 80.09
  L 9.54 67.11
  Q 9.54 66.71 9.94 66.71
  L 11.73 66.71
  Q 12.46 66.71 12.25 66.01
  Z
  M 101.1328 66.1238
  A 1.08 1.08 0.0 0 0 99.7781 65.4186
  L 96.5163 66.4470
  A 1.08 1.08 0.0 0 0 95.8111 67.8017
  L 95.8472 67.9162
  A 1.08 1.08 0.0 0 0 97.2019 68.6214
  L 100.4637 67.5930
  A 1.08 1.08 0.0 0 0 101.1689 66.2383
  L 101.1328 66.1238
  Z
  M 20.7953 68.4250
  A 1.03 1.03 0.0 0 0 20.1003 67.1449
  L 16.8786 66.1906
  A 1.03 1.03 0.0 0 0 15.5985 66.8857
  L 15.5247 67.1350
  A 1.03 1.03 0.0 0 0 16.2197 68.4151
  L 19.4414 69.3694
  A 1.03 1.03 0.0 0 0 20.7215 68.6743
  L 20.7953 68.4250
  Z
  M 92.4605 68.5657
  A 1.06 1.06 0.0 0 0 91.1934 67.7646
  L 87.8766 68.5121
  A 1.06 1.06 0.0 0 0 87.0755 69.7792
  L 87.1195 69.9743
  A 1.06 1.06 0.0 0 0 88.3866 70.7754
  L 91.7034 70.0279
  A 1.06 1.06 0.0 0 0 92.5045 68.7608
  L 92.4605 68.5657
  Z
  M 29.6685 70.4937
  A 1.07 1.07 0.0 0 0 28.8937 69.1939
  L 25.6558 68.3746
  A 1.07 1.07 0.0 0 0 24.3560 69.1494
  L 24.3315 69.2463
  A 1.07 1.07 0.0 0 0 25.1063 70.5461
  L 28.3442 71.3654
  A 1.07 1.07 0.0 0 0 29.6440 70.5906
  L 29.6685 70.4937
  Z
  M 83.30 71.38
  A 0.65 0.65 0.0 0 0 83.58 70.33
  L 82.92 69.60
  A 0.65 0.65 0.0 0 0 82.26 69.42
  L 78.53 70.53
  A 0.65 0.65 0.0 0 0 78.18 71.53
  L 78.79 72.37
  A 0.65 0.65 0.0 0 0 79.52 72.61
  L 83.30 71.38
  Z
  M 38.8081 71.7983
  A 2.94 1.27 7.0 0 0 36.0448 70.1795
  A 2.94 1.27 7.0 0 0 32.9719 71.0817
  A 2.94 1.27 7.0 0 0 35.7352 72.7005
  A 2.94 1.27 7.0 0 0 38.8081 71.7983
  Z
  M 74.8030 71.8757
  A 2.91 1.22 -6.2 0 0 71.7782 70.9771
  A 2.91 1.22 -6.2 0 0 69.0170 72.5043
  A 2.91 1.22 -6.2 0 0 72.0418 73.4029
  A 2.91 1.22 -6.2 0 0 74.8030 71.8757
  Z
  M 47.7122 72.6317
  A 2.89 1.27 4.2 0 0 44.9230 71.1534
  A 2.89 1.27 4.2 0 0 41.9478 72.2083
  A 2.89 1.27 4.2 0 0 44.7370 73.6866
  A 2.89 1.27 4.2 0 0 47.7122 72.6317
  Z
  M 56.6681 72.9441
  A 2.84 1.27 2.1 0 0 53.8765 71.5709
  A 2.84 1.27 2.1 0 0 50.9919 72.7359
  A 2.84 1.27 2.1 0 0 53.7835 74.1091
  A 2.84 1.27 2.1 0 0 56.6681 72.9441
  Z
  M 65.6651 72.5466
  A 1.08 1.08 0.0 0 0 64.5408 71.5127
  L 61.2837 71.6493
  A 1.08 1.08 0.0 0 0 60.2499 72.7735
  L 60.2549 72.8934
  A 1.08 1.08 0.0 0 0 61.3792 73.9273
  L 64.6363 73.7907
  A 1.08 1.08 0.0 0 0 65.6701 72.6665
  L 65.6651 72.5466
  Z" fill="#3d3d8e"></path>
<rect rx="1.08" height="2.28" width="5.58" transform="translate(98.49,67.02) rotate(-17.5)" y="-1.14" x="-2.79" fill="#ffffff"></rect>
<rect rx="1.03" height="2.32" width="5.42" transform="translate(18.16,67.78) rotate(16.5)" y="-1.16" x="-2.71" fill="#ffffff"></rect>
<rect rx="1.06" height="2.32" width="5.52" transform="translate(89.79,69.27) rotate(-12.7)" y="-1.16" x="-2.76" fill="#ffffff"></rect>
<rect rx="1.07" height="2.24" width="5.48" transform="translate(27.00,69.87) rotate(14.2)" y="-1.12" x="-2.74" fill="#ffffff"></rect>
<path d="M 83.30 71.38
  L 79.52 72.61
  A 0.65 0.65 0.0 0 1 78.79 72.37
  L 78.18 71.53
  A 0.65 0.65 0.0 0 1 78.53 70.53
  L 82.26 69.42
  A 0.65 0.65 0.0 0 1 82.92 69.60
  L 83.58 70.33
  A 0.65 0.65 0.0 0 1 83.30 71.38
  Z" fill="#ffffff"></path>
<ellipse ry="1.27" rx="2.94" transform="translate(35.89,71.44) rotate(7.0)" cy="0.00" cx="0.00" fill="#ffffff"></ellipse>
<ellipse ry="1.22" rx="2.91" transform="translate(71.91,72.19) rotate(-6.2)" cy="0.00" cx="0.00" fill="#ffffff"></ellipse>
<ellipse ry="1.27" rx="2.89" transform="translate(44.83,72.42) rotate(4.2)" cy="0.00" cx="0.00" fill="#ffffff"></ellipse>
<ellipse ry="1.27" rx="2.84" transform="translate(53.83,72.84) rotate(2.1)" cy="0.00" cx="0.00" fill="#ffffff"></ellipse>
<rect rx="1.08" height="2.28" width="5.42" transform="translate(62.96,72.72) rotate(-2.4)" y="-1.14" x="-2.71" fill="#ffffff"></rect>
</svg>
