<svg viewBox="0.00 0.00 48.00 48.00" version="1.1" xmlns="http://www.w3.org/2000/svg">
<g stroke-linecap="butt" fill="none" stroke-width="2.00">
<path d="M 43.89 27.52
  Q 42.34 28.06 42.58 28.95" stroke="#ce9587"></path>
<path d="M 26.78 40.76
  Q 27.08 41.74 26.53 42.12" stroke="#ce9587"></path>
</g>
<path d="M 4.89 0.00
  L 39.50 0.00
  Q 43.82 0.74 43.89 5.50
  Q 44.05 16.43 43.89 27.52
  Q 42.34 28.06 42.58 28.95
  L 42.53 4.79
  Q 42.53 1.49 39.24 1.49
  L 4.50 1.51
  Q 1.50 1.51 1.50 4.50
  L 1.52 37.76
  A 2.99 2.98 0.0 0 0 4.51 40.74
  L 26.78 40.76
  Q 27.08 41.74 26.53 42.12
  Q 16.03 42.11 5.50 42.13
  Q 0.82 42.13 0.00 37.59
  L 0.00 4.51
  Q 0.60 0.54 4.89 0.00
  Z" fill="#a36cf8"></path>
<path d="M 20.75 8.86
  L 20.74 30.84
  A 2.29 2.29 0.0 0 1 19.91 32.60
  L 15.50 36.26
  A 2.29 2.29 0.0 0 1 11.75 34.50
  L 11.75 12.60
  A 2.29 2.29 0.0 0 1 12.56 10.85
  L 16.98 7.11
  A 2.29 2.29 0.0 0 1 20.75 8.86
  Z" fill="#a36cf8"></path>
<path d="M 22.73 7.40
  A 0.49 0.49 0.0 0 1 23.21 6.91
  L 23.40 6.91
  A 8.74 8.72 89.9 0 1 32.14 15.63
  L 32.14 15.63
  A 8.74 8.72 89.9 0 1 23.44 24.39
  L 23.25 24.39
  A 0.49 0.49 0.0 0 1 22.75 23.90
  L 22.73 7.40
  Z" fill="#c389ac"></path>
<path d="M 43.89 27.52
  L 43.97 37.50
  A 1.14 1.13 -71.3 0 0 44.41 38.40
  Q 45.59 39.32 47.05 39.74
  A 0.97 0.96 -1.1 0 1 47.71 40.37
  Q 47.92 41.01 47.61 41.42
  Q 47.38 41.71 46.80 41.77
  Q 44.80 42.00 42.91 42.62
  Q 42.42 42.77 42.15 43.19
  Q 41.08 44.82 40.24 46.51
  Q 39.88 47.23 39.55 47.30
  A 1.30 1.12 78.7 0 1 38.20 46.25
  L 37.46 42.67
  Q 37.35 42.11 36.78 42.11
  L 26.53 42.12
  Q 27.08 41.74 26.78 40.76
  L 36.09 40.81
  A 0.85 0.84 82.7 0 0 36.91 39.74
  L 35.94 36.07
  A 0.93 0.93 0.0 0 1 37.25 35.00
  L 41.60 37.17
  A 0.62 0.62 0.0 0 0 42.50 36.62
  L 42.58 28.95
  Q 42.34 28.06 43.89 27.52
  Z" fill="#f8bd16"></path>
<ellipse ry="2.88" rx="3.13" transform="translate(25.93,33.78) rotate(0.6)" cy="0.00" cx="0.00" fill="#d5938e"></ellipse>
</svg>
