<svg viewBox="0.00 0.00 32.00 32.00" version="1.1" xmlns="http://www.w3.org/2000/svg">
<path d="M 14.97 4.41
  A 0.28 0.28 0.0 0 1 14.87 4.02
  L 14.96 3.87
  A 1.94 1.53 -59.3 0 1 17.27 2.98
  L 17.46 3.09
  A 1.94 1.53 -59.3 0 1 17.78 5.54
  L 17.69 5.70
  A 0.28 0.28 0.0 0 1 17.31 5.80
  L 14.97 4.41
  Z" fill="#000000"></path>
<path d="M 24.93 21.67
  Q 23.42 21.88 20.83 22.40
  C 17.56 23.05 14.02 20.55 11.14 19.09
  Q 10.66 18.84 10.20 19.13
  Q 9.48 19.59 9.21 20.49
  A 1.08 1.08 0.0 0 1 7.46 21.00
  C 5.79 19.52 4.09 20.20 2.65 19.34
  Q 1.12 18.42 1.77 16.75
  Q 3.28 12.82 4.91 8.96
  Q 5.39 7.83 7.50 7.83
  Q 8.57 7.83 12.00 6.97
  Q 12.50 6.84 12.71 6.37
  Q 12.93 5.90 13.34 5.58
  A 0.86 0.85 -46.3 0 1 14.31 5.55
  L 23.79 11.77
  Q 24.13 11.99 24.55 11.92
  L 27.61 11.39
  A 0.86 0.86 0.0 0 1 28.61 12.11
  L 30.07 22.01
  A 0.66 0.66 0.0 0 1 29.49 22.76
  L 27.00 23.05
  Q 26.25 23.14 26.28 22.39
  Q 26.30 21.98 25.87 21.79
  Q 25.42 21.60 24.93 21.67
  Z
  M 13.90 6.92
  L 10.02 12.70
  A 0.21 0.21 0.0 0 0 10.07 12.99
  L 10.16 13.05
  A 2.37 2.00 -56.1 0 0 13.15 12.20
  L 14.62 10.01
  A 2.37 2.00 -56.1 0 0 14.28 6.93
  L 14.19 6.87
  A 0.21 0.21 0.0 0 0 13.90 6.92
  Z
  M 6.33 9.46
  A 0.45 0.45 0.0 0 0 6.00 9.74
  L 2.91 17.46
  A 0.45 0.45 0.0 0 0 3.15 18.04
  L 4.62 18.65
  A 0.45 0.45 0.0 0 0 5.18 18.46
  L 10.40 9.43
  A 0.45 0.45 0.0 0 0 9.93 8.77
  L 6.33 9.46
  Z
  M 17.73 13.52
  L 16.39 15.36
  A 0.85 0.84 -65.0 0 1 15.53 15.68
  L 10.53 14.54
  A 0.87 0.86 25.2 0 0 9.64 14.86
  Q 9.27 15.36 9.31 16.00
  Q 9.36 16.62 9.90 16.93
  Q 12.92 18.66 16.10 20.11
  C 19.32 21.59 22.07 20.99 25.26 20.01
  Q 25.81 19.84 25.72 19.27
  L 25.00 14.56
  A 1.19 1.18 -78.2 0 0 24.46 13.73
  L 17.07 9.11
  A 0.51 0.51 0.0 0 0 16.35 9.30
  L 14.18 13.24
  Q 13.89 13.75 14.40 14.04
  Q 14.60 14.15 14.81 14.19
  Q 15.27 14.28 15.58 13.94
  Q 16.10 13.37 16.60 12.77
  Q 16.80 12.52 17.04 12.47
  Q 17.32 12.42 17.52 12.53
  Q 18.17 12.91 17.73 13.52
  Z
  M 27.4841 13.4186
  A 0.45 0.45 0.0 0 0 26.9765 13.0347
  L 26.6199 13.0842
  A 0.45 0.45 0.0 0 0 26.2361 13.5918
  L 27.2559 20.9414
  A 0.45 0.45 0.0 0 0 27.7635 21.3253
  L 28.1201 21.2758
  A 0.45 0.45 0.0 0 0 28.5039 20.7682
  L 27.4841 13.4186
  Z
  M 8.80 17.70
  L 8.38 17.13
  Q 8.00 16.61 7.55 17.08
  Q 6.97 17.69 6.83 18.55
  Q 6.73 19.13 7.27 19.35
  Q 8.42 19.81 8.90 18.38
  A 0.74 0.73 -53.9 0 0 8.80 17.70
  Z" fill="#000000"></path>
<path d="M 4.77 21.01
  Q 6.07 21.32 6.94 22.34
  Q 7.32 22.78 6.86 23.13
  L 4.54 24.93
  Q 3.24 25.95 3.54 24.32
  L 4.06 21.46
  A 0.58 0.57 12.2 0 1 4.77 21.01
  Z" fill="#000000"></path>
</svg>
