<svg viewBox="0.00 0.00 180.00 180.00" version="1.1" xmlns="http://www.w3.org/2000/svg">
<g stroke-linecap="butt" fill="none" stroke-width="2.00">
<path d="M 61.49 10.06
  Q 61.31 10.69 61.49 10.77
  Q 61.64 10.84 61.80 10.87
  Q 62.53 11.01 61.89 11.12
  Q 61.65 11.16 61.46 11.30
  Q 61.05 11.60 61.17 12.09
  C 61.60 13.88 62.00 15.43 62.00 17.33
  Q 62.06 42.87 61.89 68.44" stroke="#f49689"></path>
<path d="M 61.89 68.44
  Q 55.78 68.63 54.15 73.91
  Q 49.41 89.29 44.36 104.51" stroke="#f9c9c7"></path>
<path d="M 44.36 104.51
  Q 43.12 103.80 43.12 100.50
  Q 43.12 59.00 43.11 17.50
  Q 43.11 15.07 42.23 12.87
  A 0.44 0.44 0.0 0 1 42.46 12.31
  Q 43.00 12.07 43.14 11.52
  A 0.38 0.38 0.0 0 0 42.63 11.07
  Q 41.92 11.35 41.21 11.37" stroke="#f39293"></path>
<path d="M 122.78 107.70
  Q 120.80 111.36 117.14 112.42
  Q 116.63 112.57 116.72 113.10
  Q 116.79 113.50 116.90 113.88
  C 118.31 118.43 115.29 124.13 110.37 124.61
  Q 109.50 124.69 108.60 124.81
  Q 108.04 124.89 108.18 125.44
  Q 109.59 131.27 104.78 135.07" stroke="#fbd1b2"></path>
<path d="M 104.78 135.07
  C 99.57 138.29 92.39 134.36 87.01 132.75" stroke="#fbceba"></path>
<path d="M 87.01 132.75
  L 68.42 126.77" stroke="#faccc1"></path>
<path d="M 68.42 126.77
  Q 58.61 123.88 50.35 116.30" stroke="#f9c9c7"></path>
<path d="M 82.27 16.62
  Q 80.57 17.65 80.67 19.74
  Q 80.74 21.38 80.76 23.00
  Q 80.98 40.60 81.02 59.33
  A 0.81 0.81 0.0 0 0 81.98 60.13
  Q 82.14 60.10 82.25 60.10
  Q 82.74 60.08 82.50 60.50
  Q 81.54 62.15 82.99 62.66" stroke="#f59b7c"></path>
<path d="M 82.99 62.66
  C 77.96 64.81 72.82 66.52 68.36 69.75
  A 1.36 1.35 35.0 0 1 67.20 69.95
  L 61.89 68.44" stroke="#faccc1"></path>
<path d="M 44.36 104.51
  Q 41.14 115.10 50.35 116.30" stroke="#f9c8cb"></path>
<path d="M 50.35 116.30
  Q 50.12 118.85 50.09 120.75
  Q 49.90 133.50 49.64 146.25
  Q 49.61 147.86 50.00 149.45
  Q 50.01 149.50 50.06 149.53
  Q 50.18 149.60 50.31 149.63
  Q 50.39 149.64 50.32 149.69
  Q 50.23 149.76 50.16 149.90
  Q 50.08 150.06 50.13 150.24
  Q 50.46 151.23 51.43 151.37
  Q 51.71 151.42 51.72 151.70
  Q 51.75 152.52 52.17 153.38
  Q 52.29 153.62 52.19 153.86
  Q 52.06 154.21 52.18 154.71" stroke="#f39293"></path>
<path d="M 31.91 140.11
  Q 32.78 139.68 34.07 139.66
  Q 34.14 139.66 34.10 139.61
  Q 34.02 139.50 33.95 139.39
  Q 33.88 139.26 33.88 139.08
  Q 33.88 82.17 33.91 25.25
  Q 33.91 22.72 34.49 20.25
  Q 34.61 19.75 34.49 19.25
  Q 34.20 18.02 34.41 16.78
  A 0.54 0.54 0.0 0 0 33.57 16.25
  Q 33.05 16.61 32.71 17.16
  Q 32.45 17.57 31.98 17.70
  L 30.92 17.97" stroke="#f28e9c"></path>
<path d="M 123.28 29.67
  L 122.73 30.13
  Q 122.60 30.23 122.67 30.37
  Q 122.73 30.50 122.85 30.57
  Q 122.98 30.64 122.98 30.79
  Q 122.80 54.03 122.91 77.25
  C 122.91 78.36 123.53 80.08 122.85 81.32
  A 1.06 1.05 -78.6 0 0 123.88 82.88
  Q 125.01 82.76 125.19 84.28" stroke="#f8a560"></path>
<path d="M 125.19 84.28
  L 105.60 78.02
  A 0.47 0.47 0.0 0 1 105.40 77.25
  C 111.56 70.64 122.76 52.77 110.01 46.17" stroke="#fbd1b2"></path>
<path d="M 107.99 164.35
  Q 106.02 151.65 107.19 137.83
  A 1.07 1.06 23.4 0 0 106.83 136.93
  L 104.78 135.07" stroke="#f7a06d"></path>
<path d="M 108.08 24.83
  Q 106.78 27.17 106.85 29.13
  C 106.94 31.51 106.23 37.18 107.37 41.08
  Q 107.52 41.58 107.50 42.09
  Q 107.47 42.83 107.02 43.49
  A 0.66 0.65 -56.9 0 0 107.21 44.42
  L 110.01 46.17" stroke="#f7a06d"></path>
<path d="M 110.01 46.17
  Q 100.72 43.00 97.60 51.70
  C 95.10 58.64 89.20 60.28 82.99 62.66" stroke="#fbceba"></path>
<path d="M 87.01 132.75
  Q 86.31 133.58 86.60 134.25
  Q 86.80 134.69 86.69 135.15
  C 86.42 136.36 86.88 137.61 86.88 138.60
  Q 86.88 145.92 86.82 153.25
  Q 86.82 153.49 86.94 153.67
  Q 87.12 153.95 87.09 154.28
  L 86.47 162.73" stroke="#f59b7c"></path>
<path d="M 68.42 126.77
  L 68.74 169.48
  Q 68.74 169.75 69.01 169.73
  Q 70.42 169.61 71.24 170.57" stroke="#f49689"></path>
<path d="M 136.12 33.79
  L 136.17 167.14" stroke="#f9a957"></path>
<path d="M 122.28 168.45
  Q 123.20 167.72 124.07 167.41
  Q 124.28 167.34 124.14 167.17
  Q 123.80 166.79 123.86 166.31
  Q 123.92 165.83 123.71 165.40
  Q 122.88 163.60 122.88 162.25
  Q 122.89 137.88 122.82 113.50
  Q 122.82 112.19 122.21 111.01
  Q 121.96 110.51 122.23 110.03
  Q 123.01 108.62 122.78 107.70" stroke="#f8a560"></path>
<path d="M 122.78 107.70
  Q 124.18 104.47 123.05 101.09
  Q 122.89 100.63 123.36 100.49
  C 131.21 98.15 132.60 88.13 125.19 84.28" stroke="#fcd3ae"></path>
<path d="M 13.86 132.88
  Q 14.65 132.14 14.22 131.79
  Q 14.06 131.67 13.90 131.63
  Q 13.65 131.58 13.69 131.32
  Q 14.12 128.85 14.12 127.25
  Q 14.12 100.15 14.12 73.04
  Q 14.12 72.78 14.23 72.54
  Q 14.29 72.41 14.33 72.27
  Q 14.40 72.04 14.33 71.75
  Q 13.84 69.54 14.32 67.31
  Q 14.43 66.81 14.26 66.32
  Q 14.10 65.82 14.30 65.23
  Q 14.47 64.74 14.40 64.23
  Q 14.34 63.76 14.02 63.52
  Q 13.77 63.33 13.75 63.65
  Q 13.73 63.84 13.68 63.95
  Q 13.39 64.62 13.37 63.74
  Q 13.37 63.60 13.37 63.46
  Q 13.37 63.22 13.14 63.26
  Q 12.67 63.35 12.18 63.94" stroke="#f28aa6"></path>
<path d="M 151.99 38.92
  L 151.99 156.22" stroke="#faad4d"></path>
</g>
<path d="M 61.49 10.06
  Q 61.31 10.69 61.49 10.77
  Q 61.64 10.84 61.80 10.87
  Q 62.53 11.01 61.89 11.12
  Q 61.65 11.16 61.46 11.30
  Q 61.05 11.60 61.17 12.09
  C 61.60 13.88 62.00 15.43 62.00 17.33
  Q 62.06 42.87 61.89 68.44
  Q 55.78 68.63 54.15 73.91
  Q 49.41 89.29 44.36 104.51
  Q 43.12 103.80 43.12 100.50
  Q 43.12 59.00 43.11 17.50
  Q 43.11 15.07 42.23 12.87
  A 0.44 0.44 0.0 0 1 42.46 12.31
  Q 43.00 12.07 43.14 11.52
  A 0.38 0.38 0.0 0 0 42.63 11.07
  Q 41.92 11.35 41.21 11.37
  Q 51.39 7.19 61.49 10.06
  Z" fill="#f3938f"></path>
<path d="M 61.49 10.06
  L 82.27 16.62
  Q 80.57 17.65 80.67 19.74
  Q 80.74 21.38 80.76 23.00
  Q 80.98 40.60 81.02 59.33
  A 0.81 0.81 0.0 0 0 81.98 60.13
  Q 82.14 60.10 82.25 60.10
  Q 82.74 60.08 82.50 60.50
  Q 81.54 62.15 82.99 62.66
  C 77.96 64.81 72.82 66.52 68.36 69.75
  A 1.36 1.35 35.0 0 1 67.20 69.95
  L 61.89 68.44
  Q 62.06 42.87 62.00 17.33
  C 62.00 15.43 61.60 13.88 61.17 12.09
  Q 61.05 11.60 61.46 11.30
  Q 61.65 11.16 61.89 11.12
  Q 62.53 11.01 61.80 10.87
  Q 61.64 10.84 61.49 10.77
  Q 61.31 10.69 61.49 10.06
  Z" fill="#f49882"></path>
<path d="M 41.21 11.37
  Q 41.92 11.35 42.63 11.07
  A 0.38 0.38 0.0 0 1 43.14 11.52
  Q 43.00 12.07 42.46 12.31
  A 0.44 0.44 0.0 0 0 42.23 12.87
  Q 43.11 15.07 43.11 17.50
  Q 43.12 59.00 43.12 100.50
  Q 43.12 103.80 44.36 104.51
  Q 41.14 115.10 50.35 116.30
  Q 50.12 118.85 50.09 120.75
  Q 49.90 133.50 49.64 146.25
  Q 49.61 147.86 50.00 149.45
  Q 50.01 149.50 50.06 149.53
  Q 50.18 149.60 50.31 149.63
  Q 50.39 149.64 50.32 149.69
  Q 50.23 149.76 50.16 149.90
  Q 50.08 150.06 50.13 150.24
  Q 50.46 151.23 51.43 151.37
  Q 51.71 151.42 51.72 151.70
  Q 51.75 152.52 52.17 153.38
  Q 52.29 153.62 52.19 153.86
  Q 52.06 154.21 52.18 154.71
  L 47.73 146.04
  A 3.01 3.00 -4.7 0 0 45.97 144.55
  L 31.91 140.11
  Q 32.78 139.68 34.07 139.66
  Q 34.14 139.66 34.10 139.61
  Q 34.02 139.50 33.95 139.39
  Q 33.88 139.26 33.88 139.08
  Q 33.88 82.17 33.91 25.25
  Q 33.91 22.72 34.49 20.25
  Q 34.61 19.75 34.49 19.25
  Q 34.20 18.02 34.41 16.78
  A 0.54 0.54 0.0 0 0 33.57 16.25
  Q 33.05 16.61 32.71 17.16
  Q 32.45 17.57 31.98 17.70
  L 30.92 17.97
  Q 35.52 13.56 41.21 11.37
  Z" fill="#f29097"></path>
<path d="M 31.91 140.11
  C 25.67 138.16 19.44 136.53 13.86 132.88
  Q 14.65 132.14 14.22 131.79
  Q 14.06 131.67 13.90 131.63
  Q 13.65 131.58 13.69 131.32
  Q 14.12 128.85 14.12 127.25
  Q 14.12 100.15 14.12 73.04
  Q 14.12 72.78 14.23 72.54
  Q 14.29 72.41 14.33 72.27
  Q 14.40 72.04 14.33 71.75
  Q 13.84 69.54 14.32 67.31
  Q 14.43 66.81 14.26 66.32
  Q 14.10 65.82 14.30 65.23
  Q 14.47 64.74 14.40 64.23
  Q 14.34 63.76 14.02 63.52
  Q 13.77 63.33 13.75 63.65
  Q 13.73 63.84 13.68 63.95
  Q 13.39 64.62 13.37 63.74
  Q 13.37 63.60 13.37 63.46
  Q 13.37 63.22 13.14 63.26
  Q 12.67 63.35 12.18 63.94
  Q 17.66 46.45 23.33 29.06
  Q 25.14 23.51 30.92 17.97
  L 31.98 17.70
  Q 32.45 17.57 32.71 17.16
  Q 33.05 16.61 33.57 16.25
  A 0.54 0.54 0.0 0 1 34.41 16.78
  Q 34.20 18.02 34.49 19.25
  Q 34.61 19.75 34.49 20.25
  Q 33.91 22.72 33.91 25.25
  Q 33.88 82.17 33.88 139.08
  Q 33.88 139.26 33.95 139.39
  Q 34.02 139.50 34.10 139.61
  Q 34.14 139.66 34.07 139.66
  Q 32.78 139.68 31.91 140.11
  Z" fill="#f28ca0"></path>
<path d="M 82.27 16.62
  L 108.08 24.83
  Q 106.78 27.17 106.85 29.13
  C 106.94 31.51 106.23 37.18 107.37 41.08
  Q 107.52 41.58 107.50 42.09
  Q 107.47 42.83 107.02 43.49
  A 0.66 0.65 -56.9 0 0 107.21 44.42
  L 110.01 46.17
  Q 100.72 43.00 97.60 51.70
  C 95.10 58.64 89.20 60.28 82.99 62.66
  Q 81.54 62.15 82.50 60.50
  Q 82.74 60.08 82.25 60.10
  Q 82.14 60.10 81.98 60.13
  A 0.81 0.81 0.0 0 1 81.02 59.33
  Q 80.98 40.60 80.76 23.00
  Q 80.74 21.38 80.67 19.74
  Q 80.57 17.65 82.27 16.62
  Z" fill="#f69d75"></path>
<path d="M 108.08 24.83
  L 123.28 29.67
  L 122.73 30.13
  Q 122.60 30.23 122.67 30.37
  Q 122.73 30.50 122.85 30.57
  Q 122.98 30.64 122.98 30.79
  Q 122.80 54.03 122.91 77.25
  C 122.91 78.36 123.53 80.08 122.85 81.32
  A 1.06 1.05 -78.6 0 0 123.88 82.88
  Q 125.01 82.76 125.19 84.28
  L 105.60 78.02
  A 0.47 0.47 0.0 0 1 105.40 77.25
  C 111.56 70.64 122.76 52.77 110.01 46.17
  L 107.21 44.42
  A 0.66 0.65 -56.9 0 1 107.02 43.49
  Q 107.47 42.83 107.50 42.09
  Q 107.52 41.58 107.37 41.08
  C 106.23 37.18 106.94 31.51 106.85 29.13
  Q 106.78 27.17 108.08 24.83
  Z" fill="#f7a364"></path>
<path d="M 123.28 29.67
  L 136.12 33.79
  L 136.17 167.14
  Q 129.69 169.36 122.28 168.45
  Q 123.20 167.72 124.07 167.41
  Q 124.28 167.34 124.14 167.17
  Q 123.80 166.79 123.86 166.31
  Q 123.92 165.83 123.71 165.40
  Q 122.88 163.60 122.88 162.25
  Q 122.89 137.88 122.82 113.50
  Q 122.82 112.19 122.21 111.01
  Q 121.96 110.51 122.23 110.03
  Q 123.01 108.62 122.78 107.70
  Q 124.18 104.47 123.05 101.09
  Q 122.89 100.63 123.36 100.49
  C 131.21 98.15 132.60 88.13 125.19 84.28
  Q 125.01 82.76 123.88 82.88
  A 1.06 1.05 -78.6 0 1 122.85 81.32
  C 123.53 80.08 122.91 78.36 122.91 77.25
  Q 122.80 54.03 122.98 30.79
  Q 122.98 30.64 122.85 30.57
  Q 122.73 30.50 122.67 30.37
  Q 122.60 30.23 122.73 30.13
  L 123.28 29.67
  Z" fill="#f8a75c"></path>
<path d="M 136.12 33.79
  L 151.99 38.92
  L 151.99 156.22
  Q 146.04 164.00 136.17 167.14
  L 136.12 33.79
  Z" fill="#f9ab52"></path>
<path d="M 151.99 38.92
  C 167.98 42.35 179.86 55.01 179.58 71.30
  Q 179.48 76.65 175.66 88.63
  Q 166.51 117.38 157.37 146.12
  Q 155.61 151.66 151.99 156.22
  L 151.99 38.92
  Z" fill="#faaf48"></path>
<path d="M 110.01 46.17
  C 122.76 52.77 111.56 70.64 105.40 77.25
  A 0.47 0.47 0.0 0 0 105.60 78.02
  L 125.19 84.28
  C 132.60 88.13 131.21 98.15 123.36 100.49
  Q 122.89 100.63 123.05 101.09
  Q 124.18 104.47 122.78 107.70
  Q 120.80 111.36 117.14 112.42
  Q 116.63 112.57 116.72 113.10
  Q 116.79 113.50 116.90 113.88
  C 118.31 118.43 115.29 124.13 110.37 124.61
  Q 109.50 124.69 108.60 124.81
  Q 108.04 124.89 108.18 125.44
  Q 109.59 131.27 104.78 135.07
  C 99.57 138.29 92.39 134.36 87.01 132.75
  L 68.42 126.77
  Q 58.61 123.88 50.35 116.30
  Q 41.14 115.10 44.36 104.51
  Q 49.41 89.29 54.15 73.91
  Q 55.78 68.63 61.89 68.44
  L 67.20 69.95
  A 1.36 1.35 35.0 0 0 68.36 69.75
  C 72.82 66.52 77.96 64.81 82.99 62.66
  C 89.20 60.28 95.10 58.64 97.60 51.70
  Q 100.72 43.00 110.01 46.17
  Z" fill="#ffffff"></path>
<path d="M 13.86 132.88
  Q -0.09 121.95 0.35 105.95
  Q 0.49 100.44 4.52 87.89
  Q 8.36 75.90 12.18 63.94
  Q 12.67 63.35 13.14 63.26
  Q 13.37 63.22 13.37 63.46
  Q 13.37 63.60 13.37 63.74
  Q 13.39 64.62 13.68 63.95
  Q 13.73 63.84 13.75 63.65
  Q 13.77 63.33 14.02 63.52
  Q 14.34 63.76 14.40 64.23
  Q 14.47 64.74 14.30 65.23
  Q 14.10 65.82 14.26 66.32
  Q 14.43 66.81 14.32 67.31
  Q 13.84 69.54 14.33 71.75
  Q 14.40 72.04 14.33 72.27
  Q 14.29 72.41 14.23 72.54
  Q 14.12 72.78 14.12 73.04
  Q 14.12 100.15 14.12 127.25
  Q 14.12 128.85 13.69 131.32
  Q 13.65 131.58 13.90 131.63
  Q 14.06 131.67 14.22 131.79
  Q 14.65 132.14 13.86 132.88
  Z" fill="#f188ab"></path>
<path d="M 122.78 107.70
  Q 123.01 108.62 122.23 110.03
  Q 121.96 110.51 122.21 111.01
  Q 122.82 112.19 122.82 113.50
  Q 122.89 137.88 122.88 162.25
  Q 122.88 163.60 123.71 165.40
  Q 123.92 165.83 123.86 166.31
  Q 123.80 166.79 124.14 167.17
  Q 124.28 167.34 124.07 167.41
  Q 123.20 167.72 122.28 168.45
  L 107.99 164.35
  Q 106.02 151.65 107.19 137.83
  A 1.07 1.06 23.4 0 0 106.83 136.93
  L 104.78 135.07
  Q 109.59 131.27 108.18 125.44
  Q 108.04 124.89 108.60 124.81
  Q 109.50 124.69 110.37 124.61
  C 115.29 124.13 118.31 118.43 116.90 113.88
  Q 116.79 113.50 116.72 113.10
  Q 116.63 112.57 117.14 112.42
  Q 120.80 111.36 122.78 107.70
  Z" fill="#f7a364"></path>
<path d="M 50.35 116.30
  Q 58.61 123.88 68.42 126.77
  L 68.74 169.48
  Q 68.74 169.75 69.01 169.73
  Q 70.42 169.61 71.24 170.57
  C 59.75 174.14 55.94 162.39 52.18 154.71
  Q 52.06 154.21 52.19 153.86
  Q 52.29 153.62 52.17 153.38
  Q 51.75 152.52 51.72 151.70
  Q 51.71 151.42 51.43 151.37
  Q 50.46 151.23 50.13 150.24
  Q 50.08 150.06 50.16 149.90
  Q 50.23 149.76 50.32 149.69
  Q 50.39 149.64 50.31 149.63
  Q 50.18 149.60 50.06 149.53
  Q 50.01 149.50 50.00 149.45
  Q 49.61 147.86 49.64 146.25
  Q 49.90 133.50 50.09 120.75
  Q 50.12 118.85 50.35 116.30
  Z" fill="#f3938f"></path>
<path d="M 68.42 126.77
  L 87.01 132.75
  Q 86.31 133.58 86.60 134.25
  Q 86.80 134.69 86.69 135.15
  C 86.42 136.36 86.88 137.61 86.88 138.60
  Q 86.88 145.92 86.82 153.25
  Q 86.82 153.49 86.94 153.67
  Q 87.12 153.95 87.09 154.28
  L 86.47 162.73
  L 71.24 170.57
  Q 70.42 169.61 69.01 169.73
  Q 68.74 169.75 68.74 169.48
  L 68.42 126.77
  Z" fill="#f49882"></path>
<path d="M 87.01 132.75
  C 92.39 134.36 99.57 138.29 104.78 135.07
  L 106.83 136.93
  A 1.07 1.06 23.4 0 1 107.19 137.83
  Q 106.02 151.65 107.99 164.35
  L 94.12 159.91
  Q 92.75 159.47 91.47 160.13
  L 86.47 162.73
  L 87.09 154.28
  Q 87.12 153.95 86.94 153.67
  Q 86.82 153.49 86.82 153.25
  Q 86.88 145.92 86.88 138.60
  C 86.88 137.61 86.42 136.36 86.69 135.15
  Q 86.80 134.69 86.60 134.25
  Q 86.31 133.58 87.01 132.75
  Z" fill="#f69d75"></path>
</svg>
