<svg viewBox="0.00 0.00 128.00 128.00" version="1.1" xmlns="http://www.w3.org/2000/svg">
<g stroke-linecap="butt" fill="none" stroke-width="2.00">
<path d="M 11.13 0.00
  Q 1.99 1.41 0.00 10.23" stroke="#fee9a6"></path>
<path d="M 116.83 0.00
  Q 127.08 1.71 128.00 11.49" stroke="#fee9a6"></path>
<path d="M 128.00 116.06
  Q 127.12 126.35 117.13 128.00" stroke="#fee9a6"></path>
<path d="M 11.13 128.00
  Q 1.66 126.73 0.00 117.18" stroke="#fee9a6"></path>
<path d="M 70.5544 50.4900
  A 7.32 5.64 90.2 0 0 76.2200 43.1897
  A 7.32 5.64 90.2 0 0 70.6056 35.8500
  A 7.32 5.64 90.2 0 0 64.9400 43.1503
  A 7.32 5.64 90.2 0 0 70.5544 50.4900" stroke="#86753c"></path>
<path d="M 104.4100 50.4900
  A 7.32 5.63 90.0 0 0 110.0400 43.1700
  A 7.32 5.63 90.0 0 0 104.4100 35.8500
  A 7.32 5.63 90.0 0 0 98.7800 43.1700
  A 7.32 5.63 90.0 0 0 104.4100 50.4900" stroke="#86753c"></path>
<path d="M 64.46 75.28
  C 77.48 87.02 96.27 85.98 109.99 75.90
  Q 112.61 73.97 110.53 71.48
  L 110.06 70.91
  A 2.45 2.44 -36.2 0 0 106.86 70.42
  C 104.35 72.05 102.13 73.88 99.50 74.92
  Q 83.33 81.35 69.24 71.20
  Q 67.59 70.01 66.45 70.14
  C 64.41 70.37 62.63 73.63 64.46 75.28" stroke="#86753c"></path>
</g>
<path d="M 0.00 0.00
  L 11.13 0.00
  Q 1.99 1.41 0.00 10.23
  L 0.00 0.00
  Z" fill="#ffffff"></path>
<path d="M 11.13 0.00
  L 116.83 0.00
  Q 127.08 1.71 128.00 11.49
  L 128.00 116.06
  Q 127.12 126.35 117.13 128.00
  L 11.13 128.00
  Q 1.66 126.73 0.00 117.18
  L 0.00 10.23
  Q 1.99 1.41 11.13 0.00
  Z
  M 70.5544 50.4900
  A 7.32 5.64 90.2 0 0 76.2200 43.1897
  A 7.32 5.64 90.2 0 0 70.6056 35.8500
  A 7.32 5.64 90.2 0 0 64.9400 43.1503
  A 7.32 5.64 90.2 0 0 70.5544 50.4900
  Z
  M 104.4100 50.4900
  A 7.32 5.63 90.0 0 0 110.0400 43.1700
  A 7.32 5.63 90.0 0 0 104.4100 35.8500
  A 7.32 5.63 90.0 0 0 98.7800 43.1700
  A 7.32 5.63 90.0 0 0 104.4100 50.4900
  Z
  M 64.46 75.28
  C 77.48 87.02 96.27 85.98 109.99 75.90
  Q 112.61 73.97 110.53 71.48
  L 110.06 70.91
  A 2.45 2.44 -36.2 0 0 106.86 70.42
  C 104.35 72.05 102.13 73.88 99.50 74.92
  Q 83.33 81.35 69.24 71.20
  Q 67.59 70.01 66.45 70.14
  C 64.41 70.37 62.63 73.63 64.46 75.28
  Z" fill="#fcd34d"></path>
<path d="M 116.83 0.00
  L 128.00 0.00
  L 128.00 11.49
  Q 127.08 1.71 116.83 0.00
  Z" fill="#ffffff"></path>
<ellipse ry="5.64" rx="7.32" transform="translate(70.58,43.17) rotate(90.2)" cy="0.00" cx="0.00" fill="#0f172a"></ellipse>
<ellipse ry="5.63" rx="7.32" transform="translate(104.41,43.17) rotate(90.0)" cy="0.00" cx="0.00" fill="#0f172a"></ellipse>
<path d="M 109.99 75.90
  C 96.27 85.98 77.48 87.02 64.46 75.28
  C 62.63 73.63 64.41 70.37 66.45 70.14
  Q 67.59 70.01 69.24 71.20
  Q 83.33 81.35 99.50 74.92
  C 102.13 73.88 104.35 72.05 106.86 70.42
  A 2.45 2.44 -36.2 0 1 110.06 70.91
  L 110.53 71.48
  Q 112.61 73.97 109.99 75.90
  Z" fill="#0f172a"></path>
<path d="M 128.00 116.06
  L 128.00 128.00
  L 117.13 128.00
  Q 127.12 126.35 128.00 116.06
  Z" fill="#ffffff"></path>
<path d="M 0.00 117.18
  Q 1.66 126.73 11.13 128.00
  L 0.00 128.00
  L 0.00 117.18
  Z" fill="#ffffff"></path>
</svg>
