<svg viewBox="0.00 0.00 60.00 60.00" version="1.1" xmlns="http://www.w3.org/2000/svg">
<g stroke-linecap="butt" fill="none" stroke-width="2.00">
<path d="M 45.89 10.33
  Q 33.58 3.80 19.02 6.92
  Q 13.96 8.00 12.23 9.24
  C 9.30 11.33 5.06 18.37 9.31 21.76
  Q 9.71 22.08 9.75 21.57
  C 11.05 7.04 37.38 8.02 45.55 11.10
  Q 51.78 13.45 45.89 10.33" stroke="#93b5eb"></path>
<path d="M 20.81 11.99
  Q 20.58 12.15 20.81 12.31
  Q 21.07 12.48 21.64 12.25
  Q 22.06 12.07 22.39 12.04
  C 32.93 11.21 47.64 15.98 52.86 25.88
  Q 56.25 32.31 53.41 38.80
  A 0.13 0.13 0.0 0 0 53.62 38.95
  Q 59.31 34.18 58.39 26.51
  C 56.45 10.29 34.48 8.89 22.27 11.36
  Q 21.47 11.52 20.81 11.99" stroke="#93b5eb"></path>
<path d="M 18.05 27.40
  C 12.26 26.60 3.67 21.75 6.84 14.55
  A 0.10 0.10 0.0 0 0 6.67 14.44
  C 1.18 20.39 4.09 28.56 11.50 30.76
  Q 16.22 32.17 21.90 32.28
  Q 22.39 32.29 22.35 31.80
  Q 21.97 27.94 18.05 27.40" stroke="#93b5eb"></path>
<path d="M 2.74 17.79
  Q 2.36 18.20 2.10 18.89
  C -0.83 26.65 2.03 34.36 9.96 37.36
  C 16.58 39.87 27.35 36.01 31.36 43.13
  Q 31.58 43.51 31.73 43.09
  Q 32.98 39.54 30.58 37.42
  C 25.12 32.61 17.19 34.05 11.27 32.08
  Q 0.85 28.61 2.99 17.91
  Q 3.09 17.41 2.74 17.79" stroke="#93b5eb"></path>
<path d="M 49.06 23.28
  C 49.25 24.17 49.96 25.10 50.15 25.88
  C 52.32 34.88 46.55 39.13 39.80 43.08
  Q 34.81 45.99 36.34 51.73
  Q 36.59 52.68 37.19 53.16
  Q 37.83 53.67 37.68 52.86
  Q 36.47 46.42 42.49 44.23
  C 46.44 42.79 50.24 42.02 52.45 38.06
  C 55.10 33.31 52.87 26.91 49.41 23.10
  Q 48.91 22.56 49.06 23.28" stroke="#ea95ac"></path>
<path d="M 48.72 27.97
  C 47.51 36.66 36.88 36.03 33.44 42.84
  Q 31.62 46.41 33.96 50.57
  Q 35.59 53.47 34.73 50.26
  C 31.94 39.92 51.46 41.22 49.09 27.97
  Q 48.88 26.82 48.72 27.97" stroke="#ea95ac"></path>
</g>
<path d="M 0.00 27.67
  L 0.00 21.17
  C 5.00 5.97 22.64 3.16 36.28 5.66
  C 46.27 7.49 56.64 14.28 59.25 24.74
  C 60.94 31.50 57.94 37.95 52.05 41.52
  C 48.31 43.79 44.38 44.14 41.34 46.10
  C 38.01 48.25 39.05 53.00 38.84 56.33
  Q 38.81 56.94 38.26 56.67
  C 34.62 54.85 32.48 51.10 31.69 47.11
  Q 31.59 46.61 31.33 46.47
  Q 31.14 46.37 30.89 46.36
  Q 30.51 46.36 30.49 45.98
  Q 30.16 40.34 23.97 39.93
  C 13.66 39.23 3.10 40.09 0.00 27.67
  Z
  M 45.89 10.33
  Q 33.58 3.80 19.02 6.92
  Q 13.96 8.00 12.23 9.24
  C 9.30 11.33 5.06 18.37 9.31 21.76
  Q 9.71 22.08 9.75 21.57
  C 11.05 7.04 37.38 8.02 45.55 11.10
  Q 51.78 13.45 45.89 10.33
  Z
  M 20.81 11.99
  Q 20.58 12.15 20.81 12.31
  Q 21.07 12.48 21.64 12.25
  Q 22.06 12.07 22.39 12.04
  C 32.93 11.21 47.64 15.98 52.86 25.88
  Q 56.25 32.31 53.41 38.80
  A 0.13 0.13 0.0 0 0 53.62 38.95
  Q 59.31 34.18 58.39 26.51
  C 56.45 10.29 34.48 8.89 22.27 11.36
  Q 21.47 11.52 20.81 11.99
  Z
  M 34.68 14.38
  C 28.36 12.44 20.76 12.14 14.81 15.55
  C 9.63 18.53 9.54 23.39 15.36 25.46
  C 17.84 26.35 20.39 25.79 22.78 28.46
  A 1.66 1.58 -72.1 0 1 23.18 29.29
  C 24.22 35.77 32.80 33.99 33.08 40.34
  Q 33.08 40.47 33.00 40.58
  Q 29.76 44.88 33.28 40.64
  Q 36.18 37.14 40.18 35.20
  C 44.59 33.06 50.26 28.31 46.26 23.00
  C 43.40 19.22 39.33 15.81 34.68 14.38
  Z
  M 18.05 27.40
  C 12.26 26.60 3.67 21.75 6.84 14.55
  A 0.10 0.10 0.0 0 0 6.67 14.44
  C 1.18 20.39 4.09 28.56 11.50 30.76
  Q 16.22 32.17 21.90 32.28
  Q 22.39 32.29 22.35 31.80
  Q 21.97 27.94 18.05 27.40
  Z
  M 2.74 17.79
  Q 2.36 18.20 2.10 18.89
  C -0.83 26.65 2.03 34.36 9.96 37.36
  C 16.58 39.87 27.35 36.01 31.36 43.13
  Q 31.58 43.51 31.73 43.09
  Q 32.98 39.54 30.58 37.42
  C 25.12 32.61 17.19 34.05 11.27 32.08
  Q 0.85 28.61 2.99 17.91
  Q 3.09 17.41 2.74 17.79
  Z
  M 49.06 23.28
  C 49.25 24.17 49.96 25.10 50.15 25.88
  C 52.32 34.88 46.55 39.13 39.80 43.08
  Q 34.81 45.99 36.34 51.73
  Q 36.59 52.68 37.19 53.16
  Q 37.83 53.67 37.68 52.86
  Q 36.47 46.42 42.49 44.23
  C 46.44 42.79 50.24 42.02 52.45 38.06
  C 55.10 33.31 52.87 26.91 49.41 23.10
  Q 48.91 22.56 49.06 23.28
  Z
  M 48.72 27.97
  C 47.51 36.66 36.88 36.03 33.44 42.84
  Q 31.62 46.41 33.96 50.57
  Q 35.59 53.47 34.73 50.26
  C 31.94 39.92 51.46 41.22 49.09 27.97
  Q 48.88 26.82 48.72 27.97
  Z" fill="#fefefe"></path>
<path d="M 45.89 10.33
  Q 51.78 13.45 45.55 11.10
  C 37.38 8.02 11.05 7.04 9.75 21.57
  Q 9.71 22.08 9.31 21.76
  C 5.06 18.37 9.30 11.33 12.23 9.24
  Q 13.96 8.00 19.02 6.92
  Q 33.58 3.80 45.89 10.33
  Z" fill="#286bd7"></path>
<path d="M 20.81 11.99
  Q 21.47 11.52 22.27 11.36
  C 34.48 8.89 56.45 10.29 58.39 26.51
  Q 59.31 34.18 53.62 38.95
  A 0.13 0.13 0.0 0 1 53.41 38.80
  Q 56.25 32.31 52.86 25.88
  C 47.64 15.98 32.93 11.21 22.39 12.04
  Q 22.06 12.07 21.64 12.25
  Q 21.07 12.48 20.81 12.31
  Q 20.58 12.15 20.81 11.99
  Z" fill="#286bd7"></path>
<path d="M 6.84 14.55
  C 3.67 21.75 12.26 26.60 18.05 27.40
  Q 21.97 27.94 22.35 31.80
  Q 22.39 32.29 21.90 32.28
  Q 16.22 32.17 11.50 30.76
  C 4.09 28.56 1.18 20.39 6.67 14.44
  A 0.10 0.10 0.0 0 1 6.84 14.55
  Z" fill="#286bd7"></path>
<path d="M 2.99 17.91
  Q 0.85 28.61 11.27 32.08
  C 17.19 34.05 25.12 32.61 30.58 37.42
  Q 32.98 39.54 31.73 43.09
  Q 31.58 43.51 31.36 43.13
  C 27.35 36.01 16.58 39.87 9.96 37.36
  C 2.03 34.36 -0.83 26.65 2.10 18.89
  Q 2.36 18.20 2.74 17.79
  Q 3.09 17.41 2.99 17.91
  Z" fill="#286bd7"></path>
<path d="M 49.41 23.10
  C 52.87 26.91 55.10 33.31 52.45 38.06
  C 50.24 42.02 46.44 42.79 42.49 44.23
  Q 36.47 46.42 37.68 52.86
  Q 37.83 53.67 37.19 53.16
  Q 36.59 52.68 36.34 51.73
  Q 34.81 45.99 39.80 43.08
  C 46.55 39.13 52.32 34.88 50.15 25.88
  C 49.96 25.10 49.25 24.17 49.06 23.28
  Q 48.91 22.56 49.41 23.10
  Z" fill="#d52b5a"></path>
<path d="M 49.09 27.97
  C 51.46 41.22 31.94 39.92 34.73 50.26
  Q 35.59 53.47 33.96 50.57
  Q 31.62 46.41 33.44 42.84
  C 36.88 36.03 47.51 36.66 48.72 27.97
  Q 48.88 26.82 49.09 27.97
  Z" fill="#d52b5a"></path>
</svg>
