<svg viewBox="0.00 0.00 32.00 32.00" version="1.1" xmlns="http://www.w3.org/2000/svg">
<path d="M 2.49 0.00
  L 16.72 0.00
  Q 19.08 0.36 21.21 1.26
  C 22.70 1.90 23.46 3.29 24.79 4.30
  Q 25.15 4.58 25.35 4.99
  Q 28.04 10.53 25.61 15.07
  C 22.14 21.55 14.22 20.39 7.91 20.52
  Q 7.40 20.53 7.40 21.03
  L 7.36 32.00
  L 2.48 32.00
  L 2.49 0.00
  Z
  M 7.40 4.74
  L 7.36 15.78
  A 0.32 0.32 0.0 0 0 7.68 16.11
  L 16.26 16.14
  A 5.92 5.21 0.2 0 0 22.20 10.95
  L 22.20 9.69
  A 5.92 5.21 0.2 0 0 16.30 4.46
  L 7.72 4.43
  A 0.32 0.32 0.0 0 0 7.40 4.74
  Z" fill="#434443"></path>
</svg>
