<svg viewBox="0.00 0.00 192.00 192.00" version="1.1" xmlns="http://www.w3.org/2000/svg">
<g stroke-linecap="butt" fill="none" stroke-width="2.00">
<path d="M 101.75 46.55
  Q 101.99 83.99 101.89 121.34
  C 101.88 127.27 101.48 134.58 101.60 140.42
  Q 101.62 140.97 101.99 141.94
  Q 102.16 142.38 101.98 142.82
  Q 101.64 143.63 102.01 144.79" stroke="#8672f4"></path>
<path d="M 93.06 146.06
  Q 93.26 144.62 92.44 143.55
  Q 92.22 143.25 92.50 143.00
  Q 92.90 142.65 92.76 142.01
  Q 92.34 140.03 92.32 138.00
  Q 92.02 94.99 92.21 51.97
  C 92.22 49.99 91.52 48.24 91.61 46.10" stroke="#7784f3"></path>
<path d="M 85.74 142.57
  Q 86.72 142.69 86.68 142.27
  Q 86.63 141.73 86.46 141.17
  Q 86.33 140.71 86.44 140.24
  C 87.15 137.40 86.63 134.37 86.63 132.18
  C 86.64 109.27 86.59 86.37 86.64 63.45
  C 86.65 59.94 86.92 56.39 86.82 52.85
  Q 86.80 52.32 86.55 51.85
  Q 86.32 51.40 86.40 50.89
  Q 86.45 50.61 86.37 50.34
  Q 86.12 49.58 86.49 47.88" stroke="#6e90f2"></path>
<path d="M 111.60 49.89
  Q 111.80 53.16 111.64 56.31
  Q 111.37 61.48 111.37 62.71
  Q 111.32 87.48 111.29 112.25
  Q 111.28 121.74 111.38 131.24
  C 111.39 132.61 110.78 134.51 111.45 136.38
  A 1.39 1.37 44.7 0 1 111.46 137.28
  Q 111.14 138.24 111.40 139.28" stroke="#985df4"></path>
<path d="M 79.79 138.63
  L 79.62 64.67
  Q 79.62 64.24 79.90 63.91
  Q 80.10 63.67 80.05 63.30
  C 79.53 59.22 80.08 54.34 79.90 50.06" stroke="#649df2"></path>
<path d="M 122.34 53.28
  Q 121.68 54.39 122.12 55.24
  Q 122.33 55.65 122.26 56.10
  Q 121.87 58.45 121.89 59.25
  C 122.34 74.40 121.87 89.70 122.00 104.50
  C 122.03 108.42 121.72 112.23 122.06 116.15
  C 122.21 117.94 121.78 119.72 121.89 121.59
  Q 121.98 123.12 121.63 124.86
  Q 121.06 127.72 122.85 128.20" stroke="#a74bf5"></path>
<path d="M 75.92 135.48
  Q 75.87 134.37 75.20 133.84
  Q 74.90 133.60 74.89 133.21
  Q 74.87 132.12 74.27 131.21
  A 1.17 1.16 37.2 0 1 74.13 130.23
  Q 74.68 128.38 74.67 127.50
  C 74.45 113.32 74.68 99.18 74.36 85.00
  Q 74.14 75.49 74.14 65.98
  C 74.14 64.50 73.77 62.73 73.89 61.05
  C 74.12 57.80 74.14 56.08 74.06 53.51
  Q 74.05 53.20 74.27 52.99
  L 74.62 52.63
  A 0.15 0.15 0.0 0 0 74.51 52.37
  Q 73.98 52.40 73.95 52.02" stroke="#59acf2"></path>
<path d="M 62.92 118.73
  Q 63.53 117.15 62.64 116.08
  Q 62.34 115.71 62.35 115.23
  C 62.39 113.49 62.80 112.02 62.61 110.25
  Q 62.36 107.93 62.36 103.50
  Q 62.39 81.62 62.31 59.75
  Q 62.31 58.96 61.98 58.25
  Q 61.92 58.12 62.00 58.12
  Q 62.13 58.12 62.26 58.12
  Q 62.60 58.13 62.51 57.80
  L 61.92 55.58" stroke="#4cbdf1"></path>
</g>
<path d="M 101.75 46.55
  Q 101.99 83.99 101.89 121.34
  C 101.88 127.27 101.48 134.58 101.60 140.42
  Q 101.62 140.97 101.99 141.94
  Q 102.16 142.38 101.98 142.82
  Q 101.64 143.63 102.01 144.79
  Q 99.61 145.91 97.15 146.78
  C 95.54 147.34 94.45 146.77 93.06 146.06
  Q 93.26 144.62 92.44 143.55
  Q 92.22 143.25 92.50 143.00
  Q 92.90 142.65 92.76 142.01
  Q 92.34 140.03 92.32 138.00
  Q 92.02 94.99 92.21 51.97
  C 92.22 49.99 91.52 48.24 91.61 46.10
  C 93.59 45.18 95.20 44.32 97.49 45.03
  Q 99.78 45.74 101.75 46.55
  Z" fill="#7b7ff3"></path>
<path d="M 91.61 46.10
  C 91.52 48.24 92.22 49.99 92.21 51.97
  Q 92.02 94.99 92.32 138.00
  Q 92.34 140.03 92.76 142.01
  Q 92.90 142.65 92.50 143.00
  Q 92.22 143.25 92.44 143.55
  Q 93.26 144.62 93.06 146.06
  L 85.74 142.57
  Q 86.72 142.69 86.68 142.27
  Q 86.63 141.73 86.46 141.17
  Q 86.33 140.71 86.44 140.24
  C 87.15 137.40 86.63 134.37 86.63 132.18
  C 86.64 109.27 86.59 86.37 86.64 63.45
  C 86.65 59.94 86.92 56.39 86.82 52.85
  Q 86.80 52.32 86.55 51.85
  Q 86.32 51.40 86.40 50.89
  Q 86.45 50.61 86.37 50.34
  Q 86.12 49.58 86.49 47.88
  L 91.61 46.10
  Z" fill="#7389f2"></path>
<path d="M 101.75 46.55
  L 111.60 49.89
  Q 111.80 53.16 111.64 56.31
  Q 111.37 61.48 111.37 62.71
  Q 111.32 87.48 111.29 112.25
  Q 111.28 121.74 111.38 131.24
  C 111.39 132.61 110.78 134.51 111.45 136.38
  A 1.39 1.37 44.7 0 1 111.46 137.28
  Q 111.14 138.24 111.40 139.28
  L 102.01 144.79
  Q 101.64 143.63 101.98 142.82
  Q 102.16 142.38 101.99 141.94
  Q 101.62 140.97 101.60 140.42
  C 101.48 134.58 101.88 127.27 101.89 121.34
  Q 101.99 83.99 101.75 46.55
  Z" fill="#9164f4"></path>
<path d="M 86.49 47.88
  Q 86.12 49.58 86.37 50.34
  Q 86.45 50.61 86.40 50.89
  Q 86.32 51.40 86.55 51.85
  Q 86.80 52.32 86.82 52.85
  C 86.92 56.39 86.65 59.94 86.64 63.45
  C 86.59 86.37 86.64 109.27 86.63 132.18
  C 86.63 134.37 87.15 137.40 86.44 140.24
  Q 86.33 140.71 86.46 141.17
  Q 86.63 141.73 86.68 142.27
  Q 86.72 142.69 85.74 142.57
  L 79.79 138.63
  L 79.62 64.67
  Q 79.62 64.24 79.90 63.91
  Q 80.10 63.67 80.05 63.30
  C 79.53 59.22 80.08 54.34 79.90 50.06
  L 86.49 47.88
  Z" fill="#6996f2"></path>
<path d="M 79.90 50.06
  C 80.08 54.34 79.53 59.22 80.05 63.30
  Q 80.10 63.67 79.90 63.91
  Q 79.62 64.24 79.62 64.67
  L 79.79 138.63
  L 75.92 135.48
  Q 75.87 134.37 75.20 133.84
  Q 74.90 133.60 74.89 133.21
  Q 74.87 132.12 74.27 131.21
  A 1.17 1.16 37.2 0 1 74.13 130.23
  Q 74.68 128.38 74.67 127.50
  C 74.45 113.32 74.68 99.18 74.36 85.00
  Q 74.14 75.49 74.14 65.98
  C 74.14 64.50 73.77 62.73 73.89 61.05
  C 74.12 57.80 74.14 56.08 74.06 53.51
  Q 74.05 53.20 74.27 52.99
  L 74.62 52.63
  A 0.15 0.15 0.0 0 0 74.51 52.37
  Q 73.98 52.40 73.95 52.02
  L 79.90 50.06
  Z" fill="#5fa3f2"></path>
<path d="M 111.60 49.89
  L 122.34 53.28
  Q 121.68 54.39 122.12 55.24
  Q 122.33 55.65 122.26 56.10
  Q 121.87 58.45 121.89 59.25
  C 122.34 74.40 121.87 89.70 122.00 104.50
  C 122.03 108.42 121.72 112.23 122.06 116.15
  C 122.21 117.94 121.78 119.72 121.89 121.59
  Q 121.98 123.12 121.63 124.86
  Q 121.06 127.72 122.85 128.20
  Q 118.00 134.39 111.40 139.28
  Q 111.14 138.24 111.46 137.28
  A 1.39 1.37 44.7 0 0 111.45 136.38
  C 110.78 134.51 111.39 132.61 111.38 131.24
  Q 111.28 121.74 111.29 112.25
  Q 111.32 87.48 111.37 62.71
  Q 111.37 61.48 111.64 56.31
  Q 111.80 53.16 111.60 49.89
  Z" fill="#9e55f4"></path>
<path d="M 73.95 52.02
  Q 73.98 52.40 74.51 52.37
  A 0.15 0.15 0.0 0 1 74.62 52.63
  L 74.27 52.99
  Q 74.05 53.20 74.06 53.51
  C 74.14 56.08 74.12 57.80 73.89 61.05
  C 73.77 62.73 74.14 64.50 74.14 65.98
  Q 74.14 75.49 74.36 85.00
  C 74.68 99.18 74.45 113.32 74.67 127.50
  Q 74.68 128.38 74.13 130.23
  A 1.17 1.16 37.2 0 0 74.27 131.21
  Q 74.87 132.12 74.89 133.21
  Q 74.90 133.60 75.20 133.84
  Q 75.87 134.37 75.92 135.48
  Q 68.08 128.17 62.92 118.73
  Q 63.53 117.15 62.64 116.08
  Q 62.34 115.71 62.35 115.23
  C 62.39 113.49 62.80 112.02 62.61 110.25
  Q 62.36 107.93 62.36 103.50
  Q 62.39 81.62 62.31 59.75
  Q 62.31 58.96 61.98 58.25
  Q 61.92 58.12 62.00 58.12
  Q 62.13 58.12 62.26 58.12
  Q 62.60 58.13 62.51 57.80
  L 61.92 55.58
  L 73.95 52.02
  Z" fill="#52b4f1"></path>
<path d="M 122.34 53.28
  Q 131.80 56.54 141.66 57.94
  Q 142.14 58.01 142.15 58.49
  C 142.71 82.52 137.58 108.68 122.85 128.20
  Q 121.06 127.72 121.63 124.86
  Q 121.98 123.12 121.89 121.59
  C 121.78 119.72 122.21 117.94 122.06 116.15
  C 121.72 112.23 122.03 108.42 122.00 104.50
  C 121.87 89.70 122.34 74.40 121.89 59.25
  Q 121.87 58.45 122.26 56.10
  Q 122.33 55.65 122.12 55.24
  Q 121.68 54.39 122.34 53.28
  Z" fill="#af41f5"></path>
<path d="M 61.92 55.58
  L 62.51 57.80
  Q 62.60 58.13 62.26 58.12
  Q 62.13 58.12 62.00 58.12
  Q 61.92 58.12 61.98 58.25
  Q 62.31 58.96 62.31 59.75
  Q 62.39 81.62 62.36 103.50
  Q 62.36 107.93 62.61 110.25
  C 62.80 112.02 62.39 113.49 62.35 115.23
  Q 62.34 115.71 62.64 116.08
  Q 63.53 117.15 62.92 118.73
  C 53.09 100.62 49.41 78.83 49.81 58.42
  Q 49.82 57.94 50.28 57.85
  L 61.92 55.58
  Z" fill="#45c6f1"></path>
</svg>
