<svg viewBox="0.00 0.00 48.00 48.00" version="1.1" xmlns="http://www.w3.org/2000/svg">
<path d="M 17.16 30.81
  Q 17.92 32.44 19.58 32.60
  C 24.58 33.08 23.08 25.91 22.54 23.40
  Q 22.30 22.24 23.08 23.12
  Q 26.35 26.81 25.97 31.87
  A 1.71 1.71 0.0 0 0 28.44 33.53
  Q 29.57 32.96 30.18 31.96
  Q 30.56 31.32 30.75 32.04
  Q 30.85 32.40 30.72 32.77
  Q 29.53 36.13 27.26 36.95
  A 0.41 0.41 0.0 0 0 27.49 37.74
  Q 36.97 35.52 35.23 25.59
  Q 34.76 22.90 34.46 25.61
  C 33.90 30.87 28.29 29.17 29.70 25.23
  C 30.59 22.76 31.73 19.54 29.45 17.34
  Q 29.09 17.00 28.98 17.48
  L 28.54 19.38
  Q 28.42 19.92 27.92 20.17
  C 21.79 23.22 20.56 15.03 22.32 11.38
  Q 23.13 9.69 21.58 10.75
  C 17.01 13.89 18.28 18.81 19.24 23.53
  A 1.46 1.44 -36.5 0 1 19.09 24.50
  C 17.92 26.69 14.82 26.56 14.37 23.84
  Q 14.06 21.97 13.29 23.70
  C 10.83 29.32 13.92 36.71 20.46 37.55
  Q 21.54 37.69 20.61 37.12
  Q 17.10 34.97 16.65 30.95
  Q 16.48 29.34 17.16 30.81" stroke-linecap="butt" fill="none" stroke-width="2.00" stroke="#9fa8da"></path>
<path d="M 22.10 0.00
  L 26.01 0.00
  Q 44.98 3.04 48.00 21.85
  L 48.00 26.25
  Q 44.91 44.97 26.13 48.00
  L 21.74 48.00
  Q 3.10 44.88 0.00 26.11
  L 0.00 22.01
  Q 3.12 2.94 22.10 0.00
  Z
  M 17.16 30.81
  Q 17.92 32.44 19.58 32.60
  C 24.58 33.08 23.08 25.91 22.54 23.40
  Q 22.30 22.24 23.08 23.12
  Q 26.35 26.81 25.97 31.87
  A 1.71 1.71 0.0 0 0 28.44 33.53
  Q 29.57 32.96 30.18 31.96
  Q 30.56 31.32 30.75 32.04
  Q 30.85 32.40 30.72 32.77
  Q 29.53 36.13 27.26 36.95
  A 0.41 0.41 0.0 0 0 27.49 37.74
  Q 36.97 35.52 35.23 25.59
  Q 34.76 22.90 34.46 25.61
  C 33.90 30.87 28.29 29.17 29.70 25.23
  C 30.59 22.76 31.73 19.54 29.45 17.34
  Q 29.09 17.00 28.98 17.48
  L 28.54 19.38
  Q 28.42 19.92 27.92 20.17
  C 21.79 23.22 20.56 15.03 22.32 11.38
  Q 23.13 9.69 21.58 10.75
  C 17.01 13.89 18.28 18.81 19.24 23.53
  A 1.46 1.44 -36.5 0 1 19.09 24.50
  C 17.92 26.69 14.82 26.56 14.37 23.84
  Q 14.06 21.97 13.29 23.70
  C 10.83 29.32 13.92 36.71 20.46 37.55
  Q 21.54 37.69 20.61 37.12
  Q 17.10 34.97 16.65 30.95
  Q 16.48 29.34 17.16 30.81
  Z" fill="#3f51b5"></path>
<path d="M 16.65 30.95
  Q 17.10 34.97 20.61 37.12
  Q 21.54 37.69 20.46 37.55
  C 13.92 36.71 10.83 29.32 13.29 23.70
  Q 14.06 21.97 14.37 23.84
  C 14.82 26.56 17.92 26.69 19.09 24.50
  A 1.46 1.44 -36.5 0 0 19.24 23.53
  C 18.28 18.81 17.01 13.89 21.58 10.75
  Q 23.13 9.69 22.32 11.38
  C 20.56 15.03 21.79 23.22 27.92 20.17
  Q 28.42 19.92 28.54 19.38
  L 28.98 17.48
  Q 29.09 17.00 29.45 17.34
  C 31.73 19.54 30.59 22.76 29.70 25.23
  C 28.29 29.17 33.90 30.87 34.46 25.61
  Q 34.76 22.90 35.23 25.59
  Q 36.97 35.52 27.49 37.74
  A 0.41 0.41 0.0 0 1 27.26 36.95
  Q 29.53 36.13 30.72 32.77
  Q 30.85 32.40 30.75 32.04
  Q 30.56 31.32 30.18 31.96
  Q 29.57 32.96 28.44 33.53
  A 1.71 1.71 0.0 0 1 25.97 31.87
  Q 26.35 26.81 23.08 23.12
  Q 22.30 22.24 22.54 23.40
  C 23.08 25.91 24.58 33.08 19.58 32.60
  Q 17.92 32.44 17.16 30.81
  Q 16.48 29.34 16.65 30.95
  Z" fill="#ffffff"></path>
</svg>
