<svg viewBox="0.00 0.00 512.00 512.00" version="1.1" xmlns="http://www.w3.org/2000/svg">
<g stroke-linecap="butt" fill="none" stroke-width="2.00">
<path d="M 83.34 155.77
  L 83.80 156.97" stroke="#80e7e3"></path>
<path d="M 84.19 159.86
  Q 84.46 159.58 84.70 160.49
  C 89.31 178.05 93.61 195.69 98.25 213.23
  Q 100.40 221.34 102.47 229.46
  Q 113.62 273.22 124.83 316.98
  Q 133.41 350.49 141.85 384.03" stroke="#80e7e3"></path>
<path d="M 144.34 394.33
  Q 144.76 394.73 144.91 395.37
  Q 146.25 401.20 147.93 406.94
  Q 152.58 422.79 169.50 427.98" stroke="#80e7e3"></path>
<path d="M 212.06 428.09
  C 226.37 425.90 236.22 416.03 237.42 401.87
  Q 237.77 397.69 236.31 391.23
  Q 229.91 363.04 223.63 335.41
  Q 223.34 334.16 222.26 333.46
  L 193.78 315.16" stroke="#80e7e3"></path>
<path d="M 369.05 312.71
  Q 383.32 311.01 390.23 299.55
  Q 392.32 296.09 394.22 289.04
  Q 395.69 283.60 397.13 278.12
  Q 397.31 277.42 397.62 277.34" stroke="#80e7e3"></path>
<path d="M 398.23 274.19
  Q 398.52 271.41 399.47 269.49" stroke="#80e7e3"></path>
<path d="M 400.26 265.98
  Q 405.61 244.68 411.13 223.38
  Q 413.20 215.39 415.30 207.42
  Q 417.78 198.00 420.20 188.57
  Q 422.00 181.57 423.69 174.54
  C 425.48 167.07 428.11 157.75 429.95 149.24
  Q 430.08 148.66 430.59 148.51" stroke="#80e7e3"></path>
<path d="M 431.24 145.43
  Q 433.85 134.14 436.94 122.93
  C 437.75 120.00 438.07 117.02 438.59 114.00
  Q 438.79 112.81 438.53 111.50
  C 438.12 109.40 438.01 107.08 437.42 105.25
  Q 432.45 89.89 416.76 85.42
  C 415.12 84.95 413.40 85.17 411.65 84.90
  Q 409.09 84.51 407.81 84.51
  Q 255.17 84.50 102.53 84.51
  Q 101.71 84.51 100.54 84.84
  C 98.88 85.31 96.90 85.11 95.51 85.44
  Q 93.04 86.02 92.01 86.44
  Q 79.69 91.45 75.10 103.65
  C 74.21 106.04 74.06 108.69 73.51 111.31
  Q 73.19 112.86 73.50 114.44
  C 74.02 117.12 74.20 119.84 74.90 122.32
  Q 77.47 131.55 78.05 134.15
  Q 79.79 142.02 81.89 149.81
  Q 82.35 151.52 82.84 153.18" stroke="#80e7e3"></path>
<path d="M 153.78 166.03
  Q 152.23 165.50 151.60 166.10
  Q 151.02 166.65 151.65 167.14
  Q 166.31 178.50 180.27 189.34
  C 182.58 191.14 183.08 192.29 183.73 195.01
  Q 184.76 199.38 188.92 215.14
  C 190.83 222.38 192.89 227.27 199.60 229.97
  Q 203.04 231.35 212.57 231.35
  Q 263.60 231.38 314.63 231.36
  Q 323.20 231.36 326.25 230.28
  C 332.99 227.89 337.55 221.94 337.41 214.50
  Q 337.41 214.34 337.55 214.27
  Q 337.72 214.19 337.75 214.00
  L 345.63 167.02
  Q 345.83 165.83 344.62 165.84
  L 327.46 165.90" stroke="#80e7e3"></path>
</g>
<path d="M 512.00 68.63
  L 512.00 75.75
  Q 511.33 81.39 509.93 86.89
  Q 464.12 265.78 418.35 444.69
  Q 414.85 458.37 412.19 463.65
  Q 404.40 479.11 387.86 487.00
  Q 377.36 492.00 368.75 492.00
  Q 257.13 492.02 145.50 491.87
  C 121.25 491.84 101.63 475.53 95.66 452.23
  Q 48.58 268.50 1.56 84.75
  Q 0.65 81.22 0.00 75.88
  L 0.00 68.27
  C 2.31 45.71 18.02 26.74 40.10 21.82
  Q 46.03 20.49 60.01 20.50
  Q 260.51 20.51 461.00 20.50
  C 470.88 20.50 480.83 23.71 489.10 29.34
  Q 509.14 42.96 512.00 68.63
  Z
  M 82.84 153.18
  Q 82.62 154.58 82.99 155.86
  Q 83.05 156.07 83.25 156.00
  Q 83.37 155.96 83.34 155.77
  L 83.80 156.97
  Q 83.55 158.88 84.19 159.86
  Q 84.46 159.58 84.70 160.49
  C 89.31 178.05 93.61 195.69 98.25 213.23
  Q 100.40 221.34 102.47 229.46
  Q 113.62 273.22 124.83 316.98
  Q 133.41 350.49 141.85 384.03
  Q 141.60 386.05 142.51 387.82
  Q 142.74 388.26 142.76 388.74
  Q 142.80 389.76 143.14 390.74
  Q 143.71 392.39 144.34 394.33
  Q 144.76 394.73 144.91 395.37
  Q 146.25 401.20 147.93 406.94
  Q 152.58 422.79 169.50 427.98
  Q 190.54 428.89 212.06 428.09
  C 226.37 425.90 236.22 416.03 237.42 401.87
  Q 237.77 397.69 236.31 391.23
  Q 229.91 363.04 223.63 335.41
  Q 223.34 334.16 222.26 333.46
  L 193.78 315.16
  Q 191.27 312.73 197.17 313.19
  Q 199.56 313.38 200.83 313.38
  Q 279.04 313.40 357.25 313.33
  Q 365.48 313.32 369.25 313.16
  Q 369.45 313.15 369.66 313.04
  Q 370.17 312.77 369.59 312.74
  L 369.05 312.71
  Q 383.32 311.01 390.23 299.55
  Q 392.32 296.09 394.22 289.04
  Q 395.69 283.60 397.13 278.12
  Q 397.31 277.42 397.62 277.34
  Q 398.35 276.00 398.23 274.19
  Q 398.52 271.41 399.47 269.49
  Q 400.51 268.22 400.26 265.98
  Q 405.61 244.68 411.13 223.38
  Q 413.20 215.39 415.30 207.42
  Q 417.78 198.00 420.20 188.57
  Q 422.00 181.57 423.69 174.54
  C 425.48 167.07 428.11 157.75 429.95 149.24
  Q 430.08 148.66 430.59 148.51
  Q 431.41 147.33 431.24 145.43
  Q 433.85 134.14 436.94 122.93
  C 437.75 120.00 438.07 117.02 438.59 114.00
  Q 438.79 112.81 438.53 111.50
  C 438.12 109.40 438.01 107.08 437.42 105.25
  Q 432.45 89.89 416.76 85.42
  C 415.12 84.95 413.40 85.17 411.65 84.90
  Q 409.09 84.51 407.81 84.51
  Q 255.17 84.50 102.53 84.51
  Q 101.71 84.51 100.54 84.84
  C 98.88 85.31 96.90 85.11 95.51 85.44
  Q 93.04 86.02 92.01 86.44
  Q 79.69 91.45 75.10 103.65
  C 74.21 106.04 74.06 108.69 73.51 111.31
  Q 73.19 112.86 73.50 114.44
  C 74.02 117.12 74.20 119.84 74.90 122.32
  Q 77.47 131.55 78.05 134.15
  Q 79.79 142.02 81.89 149.81
  Q 82.35 151.52 82.84 153.18
  Z" fill="#00cec7"></path>
<path d="M 431.24 145.43
  Q 430.51 146.51 430.59 148.51
  Q 430.08 148.66 429.95 149.24
  C 428.11 157.75 425.48 167.07 423.69 174.54
  Q 422.00 181.57 420.20 188.57
  Q 417.78 198.00 415.30 207.42
  Q 413.20 215.39 411.13 223.38
  Q 405.61 244.68 400.26 265.98
  Q 399.59 267.49 399.47 269.49
  Q 398.52 271.41 398.23 274.19
  Q 397.54 275.47 397.62 277.34
  Q 397.31 277.42 397.13 278.12
  Q 395.69 283.60 394.22 289.04
  Q 392.32 296.09 390.23 299.55
  Q 383.32 311.01 369.05 312.71
  L 192.45 312.84
  Q 190.68 312.84 192.10 313.90
  L 193.78 315.16
  L 222.26 333.46
  Q 223.34 334.16 223.63 335.41
  Q 229.91 363.04 236.31 391.23
  Q 237.77 397.69 237.42 401.87
  C 236.22 416.03 226.37 425.90 212.06 428.09
  L 169.50 427.98
  Q 152.58 422.79 147.93 406.94
  Q 146.25 401.20 144.91 395.37
  Q 144.76 394.73 144.34 394.33
  L 141.85 384.03
  Q 133.41 350.49 124.83 316.98
  Q 113.62 273.22 102.47 229.46
  Q 100.40 221.34 98.25 213.23
  C 93.61 195.69 89.31 178.05 84.70 160.49
  Q 84.46 159.58 84.19 159.86
  Q 84.45 158.32 83.80 156.97
  L 83.34 155.77
  Q 83.35 154.33 82.84 153.18
  Q 82.35 151.52 81.89 149.81
  Q 79.79 142.02 78.05 134.15
  Q 77.47 131.55 74.90 122.32
  C 74.20 119.84 74.02 117.12 73.50 114.44
  Q 73.19 112.86 73.51 111.31
  C 74.06 108.69 74.21 106.04 75.10 103.65
  Q 79.69 91.45 92.01 86.44
  Q 93.04 86.02 95.51 85.44
  C 96.90 85.11 98.88 85.31 100.54 84.84
  Q 101.71 84.51 102.53 84.51
  Q 255.17 84.50 407.81 84.51
  Q 409.09 84.51 411.65 84.90
  C 413.40 85.17 415.12 84.95 416.76 85.42
  Q 432.45 89.89 437.42 105.25
  C 438.01 107.08 438.12 109.40 438.53 111.50
  Q 438.79 112.81 438.59 114.00
  C 438.07 117.02 437.75 120.00 436.94 122.93
  Q 433.85 134.14 431.24 145.43
  Z
  M 153.78 166.03
  Q 152.23 165.50 151.60 166.10
  Q 151.02 166.65 151.65 167.14
  Q 166.31 178.50 180.27 189.34
  C 182.58 191.14 183.08 192.29 183.73 195.01
  Q 184.76 199.38 188.92 215.14
  C 190.83 222.38 192.89 227.27 199.60 229.97
  Q 203.04 231.35 212.57 231.35
  Q 263.60 231.38 314.63 231.36
  Q 323.20 231.36 326.25 230.28
  C 332.99 227.89 337.55 221.94 337.41 214.50
  Q 337.41 214.34 337.55 214.27
  Q 337.72 214.19 337.75 214.00
  L 345.63 167.02
  Q 345.83 165.83 344.62 165.84
  L 327.46 165.90
  L 153.78 166.03
  Z" fill="#ffffff"></path>
<path d="M 327.46 165.90
  L 344.62 165.84
  Q 345.83 165.83 345.63 167.02
  L 337.75 214.00
  Q 337.72 214.19 337.55 214.27
  Q 337.41 214.34 337.41 214.50
  C 337.55 221.94 332.99 227.89 326.25 230.28
  Q 323.20 231.36 314.63 231.36
  Q 263.60 231.38 212.57 231.35
  Q 203.04 231.35 199.60 229.97
  C 192.89 227.27 190.83 222.38 188.92 215.14
  Q 184.76 199.38 183.73 195.01
  C 183.08 192.29 182.58 191.14 180.27 189.34
  Q 166.31 178.50 151.65 167.14
  Q 151.02 166.65 151.60 166.10
  Q 152.23 165.50 153.78 166.03
  L 344.13 166.13
  Q 344.25 166.13 344.25 166.02
  Q 344.25 166.00 344.25 165.98
  Q 344.25 165.92 344.20 165.92
  L 327.46 165.90
  Z" fill="#00cec7"></path>
</svg>
