<svg viewBox="0.00 0.00 256.00 256.00" version="1.1" xmlns="http://www.w3.org/2000/svg">
<g stroke-linecap="butt" fill="none" stroke-width="2.00">
<path d="M 183.26 0.64
  C 182.89 1.17 182.57 1.83 182.57 2.52
  Q 182.86 33.49 182.71 64.46" stroke="#3ca0e5"></path>
<path d="M 182.71 64.46
  Q 182.36 64.61 182.04 64.53" stroke="#6d62f2"></path>
<path d="M 182.04 64.53
  L 118.97 64.49" stroke="#5265f9"></path>
<path d="M 118.97 64.49
  C 118.31 64.35 117.99 64.43 117.46 63.91
  Q 85.46 32.29 53.79 0.33" stroke="#585de0"></path>
<path d="M 118.97 64.49
  L 117.94 64.77" stroke="#333fe7"></path>
<path d="M 117.94 64.77
  L 53.25 65.03" stroke="#1e32b6"></path>
<path d="M 53.25 65.03
  L 53.00 64.58" stroke="#1d7ad3"></path>
<path d="M 53.00 64.58
  Q 52.94 64.52 53.10 64.25
  Q 53.25 63.97 53.25 63.65
  L 53.17 0.30" stroke="#585de0"></path>
<path d="M 53.00 64.58
  L 2.32 64.59" stroke="#3ca0e5"></path>
<path d="M 246.87 64.24
  L 182.71 64.46" stroke="#317ee5"></path>
<path d="M 227.91 175.45
  L 182.68 129.31" stroke="#3236c8"></path>
<path d="M 182.68 129.31
  Q 182.46 80.82 182.69 66.25
  Q 182.71 64.83 182.04 64.53" stroke="#4743f9"></path>
<path d="M 53.25 65.03
  L 53.25 128.96" stroke="#0174bb"></path>
<path d="M 182.68 129.31
  L 118.21 129.38" stroke="#1739cf"></path>
<path d="M 118.21 129.38
  Q 118.67 129.82 117.96 128.79" stroke="#333fe7"></path>
<path d="M 117.96 128.79
  L 117.94 64.77" stroke="#1739cf"></path>
<path d="M 117.96 128.79
  Q 117.81 129.28 117.00 129.28
  Q 86.41 129.26 55.83 129.28
  Q 55.43 129.28 55.22 129.42
  Q 54.88 129.65 54.86 130.01" stroke="#1e32b6"></path>
<path d="M 54.86 130.01
  L 53.75 129.76" stroke="#0174bb"></path>
<path d="M 118.21 129.38
  Q 128.99 153.77 139.92 177.56
  Q 140.24 178.26 140.07 178.69
  Q 139.83 179.30 139.01 179.47" stroke="#1e32b6"></path>
<path d="M 139.01 179.47
  L 54.86 130.01" stroke="#1d7ad3"></path>
<path d="M 140.21 180.16
  L 139.01 179.47" stroke="#0174bb"></path>
</g>
<path d="M 54.62 0.00
  L 182.50 0.00
  Q 182.75 0.36 183.26 0.64
  C 182.89 1.17 182.57 1.83 182.57 2.52
  Q 182.86 33.49 182.71 64.46
  Q 182.36 64.61 182.04 64.53
  L 118.97 64.49
  C 118.31 64.35 117.99 64.43 117.46 63.91
  Q 85.46 32.29 53.79 0.33
  Q 54.39 0.24 54.62 0.00
  Z" fill="#7783f2"></path>
<path d="M 53.79 0.33
  Q 85.46 32.29 117.46 63.91
  C 117.99 64.43 118.31 64.35 118.97 64.49
  L 117.94 64.77
  L 53.25 65.03
  L 53.00 64.58
  Q 52.94 64.52 53.10 64.25
  Q 53.25 63.97 53.25 63.65
  L 53.17 0.30
  Q 52.44 0.97 53.79 0.33
  Z" fill="#3937ce"></path>
<path d="M 53.17 0.30
  L 53.25 63.65
  Q 53.25 63.97 53.10 64.25
  Q 52.94 64.52 53.00 64.58
  L 2.32 64.59
  L 53.17 0.30
  Z" fill="#7783f2"></path>
<path d="M 183.26 0.64
  L 246.87 64.24
  L 182.71 64.46
  Q 182.86 33.49 182.57 2.52
  C 182.57 1.83 182.89 1.17 183.26 0.64
  Z" fill="#00bcd7"></path>
<path d="M 246.87 64.24
  Q 247.12 64.44 247.30 64.73
  Q 247.45 64.96 247.45 65.33
  Q 247.12 95.88 246.59 126.45
  Q 246.54 129.26 245.48 131.87
  Q 236.70 153.44 227.91 175.45
  L 182.68 129.31
  Q 182.46 80.82 182.69 66.25
  Q 182.71 64.83 182.04 64.53
  Q 182.36 64.61 182.71 64.46
  L 246.87 64.24
  Z" fill="#6240f2"></path>
<path d="M 2.32 64.59
  L 53.00 64.58
  L 53.25 65.03
  L 53.25 128.96
  L 2.73 109.05
  A 0.75 0.74 11.2 0 1 2.26 108.36
  L 2.32 64.59
  Z" fill="#00bcd7"></path>
<path d="M 118.97 64.49
  L 182.04 64.53
  Q 182.71 64.83 182.69 66.25
  Q 182.46 80.82 182.68 129.31
  L 118.21 129.38
  Q 118.67 129.82 117.96 128.79
  L 117.94 64.77
  L 118.97 64.49
  Z" fill="#2c46ff"></path>
<path d="M 117.94 64.77
  L 117.96 128.79
  Q 117.81 129.28 117.00 129.28
  Q 86.41 129.26 55.83 129.28
  Q 55.43 129.28 55.22 129.42
  Q 54.88 129.65 54.86 130.01
  L 53.75 129.76
  Q 53.67 129.34 53.25 128.96
  L 53.25 65.03
  L 117.94 64.77
  Z" fill="#022c9e"></path>
<path d="M 117.96 128.79
  Q 118.67 129.82 118.21 129.38
  Q 128.99 153.77 139.92 177.56
  Q 140.24 178.26 140.07 178.69
  Q 139.83 179.30 139.01 179.47
  L 54.86 130.01
  Q 54.88 129.65 55.22 129.42
  Q 55.43 129.28 55.83 129.28
  Q 86.41 129.26 117.00 129.28
  Q 117.81 129.28 117.96 128.79
  Z" fill="#3937ce"></path>
<path d="M 182.68 129.31
  L 227.91 175.45
  L 205.33 193.77
  A 1.90 1.84 -13.4 0 0 204.71 194.74
  L 189.17 255.10
  A 0.14 0.14 0.0 0 1 188.91 255.14
  L 141.11 180.61
  A 0.91 0.86 78.1 0 0 140.53 180.21
  Q 140.38 180.17 140.21 180.16
  L 139.01 179.47
  Q 139.83 179.30 140.07 178.69
  Q 140.24 178.26 139.92 177.56
  Q 128.99 153.77 118.21 129.38
  L 182.68 129.31
  Z" fill="#022c9e"></path>
<path d="M 53.75 129.76
  L 54.86 130.01
  L 139.01 179.47
  L 140.21 180.16
  L 61.06 171.04
  A 0.31 0.31 0.0 0 1 60.78 170.78
  L 53.75 129.76
  Z" fill="#00bcd7"></path>
</svg>
