<svg viewBox="0.00 0.00 256.00 256.00" version="1.1" xmlns="http://www.w3.org/2000/svg">
<path d="M 60.63 53.91
  Q 59.75 55.69 59.75 56.25
  Q 59.75 95.49 59.75 134.75
  C 59.75 143.36 63.91 145.12 72.05 145.13
  Q 87.68 145.15 103.54 145.13
  A 4.20 4.19 0.0 0 1 107.74 149.32
  Q 107.77 173.68 107.74 198.54
  Q 107.74 202.76 108.39 204.39
  C 110.32 209.21 117.43 210.23 120.75 206.24
  Q 156.15 163.75 191.56 121.27
  Q 194.52 117.72 195.01 116.02
  C 196.26 111.65 192.72 106.66 188.01 106.64
  Q 173.88 106.60 159.86 106.64
  A 4.10 4.10 0.0 0 1 155.75 102.53
  Q 155.76 81.74 155.74 60.57
  C 155.74 54.46 154.08 49.10 147.25 49.10
  Q 109.01 49.09 70.76 49.11
  C 65.92 49.11 62.78 49.60 60.63 53.91" stroke-linecap="butt" fill="none" stroke-width="2.00" stroke="#b49cf7"></path>
<path d="M 63.90 0.00
  L 191.49 0.00
  C 226.94 3.10 253.41 28.95 256.00 64.40
  L 256.00 191.50
  C 252.93 226.84 227.31 253.05 192.10 256.00
  L 64.52 256.00
  C 29.36 253.20 2.73 227.09 0.00 191.84
  L 0.00 64.51
  C 2.58 29.40 28.86 3.08 63.90 0.00
  Z
  M 60.63 53.91
  Q 59.75 55.69 59.75 56.25
  Q 59.75 95.49 59.75 134.75
  C 59.75 143.36 63.91 145.12 72.05 145.13
  Q 87.68 145.15 103.54 145.13
  A 4.20 4.19 0.0 0 1 107.74 149.32
  Q 107.77 173.68 107.74 198.54
  Q 107.74 202.76 108.39 204.39
  C 110.32 209.21 117.43 210.23 120.75 206.24
  Q 156.15 163.75 191.56 121.27
  Q 194.52 117.72 195.01 116.02
  C 196.26 111.65 192.72 106.66 188.01 106.64
  Q 173.88 106.60 159.86 106.64
  A 4.10 4.10 0.0 0 1 155.75 102.53
  Q 155.76 81.74 155.74 60.57
  C 155.74 54.46 154.08 49.10 147.25 49.10
  Q 109.01 49.09 70.76 49.11
  C 65.92 49.11 62.78 49.60 60.63 53.91
  Z" fill="#6938ef"></path>
<path d="M 60.63 53.91
  C 62.78 49.60 65.92 49.11 70.76 49.11
  Q 109.01 49.09 147.25 49.10
  C 154.08 49.10 155.74 54.46 155.74 60.57
  Q 155.76 81.74 155.75 102.53
  A 4.10 4.10 0.0 0 0 159.86 106.64
  Q 173.88 106.60 188.01 106.64
  C 192.72 106.66 196.26 111.65 195.01 116.02
  Q 194.52 117.72 191.56 121.27
  Q 156.15 163.75 120.75 206.24
  C 117.43 210.23 110.32 209.21 108.39 204.39
  Q 107.74 202.76 107.74 198.54
  Q 107.77 173.68 107.74 149.32
  A 4.20 4.19 0.0 0 0 103.54 145.13
  Q 87.68 145.15 72.05 145.13
  C 63.91 145.12 59.75 143.36 59.75 134.75
  Q 59.75 95.49 59.75 56.25
  Q 59.75 55.69 60.63 53.91
  Z" fill="#ffffff"></path>
</svg>
