<svg viewBox="0.00 0.00 48.00 48.00" version="1.1" xmlns="http://www.w3.org/2000/svg">
<g stroke-linecap="butt" fill="none" stroke-width="2.00">
<path d="M 33.96 20.47
  Q 36.98 15.36 36.07 11.99
  C 34.86 7.56 29.67 5.59 25.62 7.37
  C 21.14 9.35 21.04 15.20 23.57 18.89
  Q 23.93 19.41 23.30 19.44
  L 18.79 19.69
  Q 18.17 19.72 18.51 19.20
  C 25.29 8.66 10.44 1.21 5.87 11.73
  Q 4.94 13.90 7.00 19.42" stroke="#686867"></path>
<path d="M 33.81 22.26
  Q 33.89 23.01 33.25 23.15
  Q 29.75 23.89 24.93 23.70
  Q 24.38 23.68 24.12 23.92
  Q 23.73 24.28 24.00 24.93
  A 0.73 0.72 71.3 0 1 23.52 25.91
  Q 21.37 26.47 19.04 26.06" stroke="#3d3e3c"></path>
<path d="M 19.04 26.06
  Q 19.19 25.34 19.09 24.73
  Q 19.00 24.18 18.45 24.14
  L 17.97 24.10" stroke="#737675"></path>
<path d="M 17.97 24.10
  L 7.98 24.08" stroke="#686867"></path>
<path d="M 6.92 27.89
  C 9.51 26.82 15.22 27.31 18.56 27.51
  Q 18.75 27.52 18.82 27.34
  Q 18.87 27.18 18.75 27.08" stroke="#4f504e"></path>
<path d="M 18.75 27.08
  L 19.04 26.06" stroke="#5b5e5c"></path>
<path d="M 17.97 24.10
  Q 17.56 26.36 18.75 27.08" stroke="#868887"></path>
<path d="M 5.79 23.97
  L 6.32 27.90" stroke="#4f504e"></path>
<path d="M 23.25 30.13
  L 11.81 30.01
  A 1.99 1.99 0.0 0 0 9.81 32.14
  L 10.19 37.42
  A 0.86 0.86 0.0 0 0 10.76 38.17
  Q 13.08 38.99 15.83 38.41" stroke="#484a48"></path>
<path d="M 15.83 38.41
  L 30.89 38.88
  Q 33.26 38.95 33.17 36.58
  L 33.01 32.35
  Q 32.92 29.98 30.56 30.02
  L 23.25 30.13" stroke="#5b5e5c"></path>
<path d="M 15.83 38.41
  L 12.98 38.06
  Q 11.61 37.90 12.08 36.61
  L 12.88 34.40
  A 1.91 1.91 0.0 0 1 14.62 33.14
  C 16.43 33.09 19.24 32.66 20.71 33.94
  Q 21.05 34.23 21.48 34.10
  Q 22.43 33.79 23.45 33.89
  Q 23.88 33.94 24.21 33.67
  Q 25.32 32.79 26.79 32.88
  Q 27.37 32.91 27.40 33.50
  C 27.47 34.95 28.76 35.45 30.01 34.94
  Q 30.50 34.75 30.57 35.26
  L 30.89 37.31
  Q 31.07 38.49 31.49 37.38
  Q 32.51 34.71 32.20 31.84
  A 1.27 1.26 84.5 0 0 30.83 30.71
  Q 25.93 31.17 21.03 30.75
  Q 19.97 30.66 20.97 30.28
  Q 21.92 29.92 23.25 30.13" stroke="#7e8281"></path>
</g>
<path d="M 33.96 20.47
  Q 36.98 15.36 36.07 11.99
  C 34.86 7.56 29.67 5.59 25.62 7.37
  C 21.14 9.35 21.04 15.20 23.57 18.89
  Q 23.93 19.41 23.30 19.44
  L 18.79 19.69
  Q 18.17 19.72 18.51 19.20
  C 25.29 8.66 10.44 1.21 5.87 11.73
  Q 4.94 13.90 7.00 19.42
  Q 2.67 12.82 7.11 8.51
  C 11.74 4.02 18.19 5.54 20.79 11.43
  Q 21.04 11.99 21.26 11.42
  C 26.04 -0.76 44.45 9.46 33.96 20.47
  Z" fill="#7a7a79"></path>
<path d="M 33.96 20.47
  L 32.41 21.38
  Q 31.83 21.72 32.48 21.90
  L 33.81 22.26
  Q 33.89 23.01 33.25 23.15
  Q 29.75 23.89 24.93 23.70
  Q 24.38 23.68 24.12 23.92
  Q 23.73 24.28 24.00 24.93
  A 0.73 0.72 71.3 0 1 23.52 25.91
  Q 21.37 26.47 19.04 26.06
  Q 19.19 25.34 19.09 24.73
  Q 19.00 24.18 18.45 24.14
  L 17.97 24.10
  L 7.98 24.08
  Q 8.30 22.74 9.47 22.02
  Q 9.88 21.76 9.50 21.46
  L 7.00 19.42
  Q 4.94 13.90 5.87 11.73
  C 10.44 1.21 25.29 8.66 18.51 19.20
  Q 18.17 19.72 18.79 19.69
  L 23.30 19.44
  Q 23.93 19.41 23.57 18.89
  C 21.04 15.20 21.14 9.35 25.62 7.37
  C 29.67 5.59 34.86 7.56 36.07 11.99
  Q 36.98 15.36 33.96 20.47
  Z" fill="#555655"></path>
<path d="M 6.92 27.89
  C 9.51 26.82 15.22 27.31 18.56 27.51
  Q 18.75 27.52 18.82 27.34
  Q 18.87 27.18 18.75 27.08
  L 19.04 26.06
  Q 21.37 26.47 23.52 25.91
  A 0.73 0.72 71.3 0 0 24.00 24.93
  Q 23.73 24.28 24.12 23.92
  Q 24.38 23.68 24.93 23.70
  Q 29.75 23.89 33.25 23.15
  Q 33.89 23.01 33.81 22.26
  Q 35.23 22.93 35.16 23.63
  Q 34.90 26.04 37.02 24.99
  L 44.31 21.35
  Q 44.80 21.11 45.01 20.61
  Q 45.37 19.76 46.43 20.01
  Q 47.00 20.14 47.00 20.72
  L 47.00 35.43
  Q 47.00 35.80 46.65 35.92
  Q 45.45 36.34 44.95 35.35
  Q 44.68 34.83 44.16 34.56
  L 37.03 31.00
  Q 35.00 29.99 35.00 32.25
  L 35.00 39.00
  A 2.00 2.00 0.0 0 1 33.00 41.00
  L 10.00 41.00
  A 2.00 2.00 0.0 0 1 8.00 39.00
  L 8.00 28.52
  Q 8.00 28.02 7.50 27.96
  L 6.92 27.89
  Z
  M 23.25 30.13
  L 11.81 30.01
  A 1.99 1.99 0.0 0 0 9.81 32.14
  L 10.19 37.42
  A 0.86 0.86 0.0 0 0 10.76 38.17
  Q 13.08 38.99 15.83 38.41
  L 30.89 38.88
  Q 33.26 38.95 33.17 36.58
  L 33.01 32.35
  Q 32.92 29.98 30.56 30.02
  L 23.25 30.13
  Z" fill="#242623"></path>
<path d="M 5.79 23.97
  L 6.32 27.90
  L 1.52 29.79
  Q 1.01 30.00 1.00 29.44
  L 1.00 22.55
  Q 1.00 21.99 1.52 22.21
  L 5.79 23.97
  Z" fill="#242623"></path>
<path d="M 5.79 23.97
  L 7.98 24.08
  L 17.97 24.10
  Q 17.56 26.36 18.75 27.08
  Q 18.87 27.18 18.82 27.34
  Q 18.75 27.52 18.56 27.51
  C 15.22 27.31 9.51 26.82 6.92 27.89
  Q 6.78 28.03 6.32 27.90
  L 5.79 23.97
  Z" fill="#7a7a79"></path>
<path d="M 17.97 24.10
  L 18.45 24.14
  Q 19.00 24.18 19.09 24.73
  Q 19.19 25.34 19.04 26.06
  L 18.75 27.08
  Q 17.56 26.36 17.97 24.10
  Z" fill="#919594"></path>
<path d="M 15.83 38.41
  L 12.98 38.06
  Q 11.61 37.90 12.08 36.61
  L 12.88 34.40
  A 1.91 1.91 0.0 0 1 14.62 33.14
  C 16.43 33.09 19.24 32.66 20.71 33.94
  Q 21.05 34.23 21.48 34.10
  Q 22.43 33.79 23.45 33.89
  Q 23.88 33.94 24.21 33.67
  Q 25.32 32.79 26.79 32.88
  Q 27.37 32.91 27.40 33.50
  C 27.47 34.95 28.76 35.45 30.01 34.94
  Q 30.50 34.75 30.57 35.26
  L 30.89 37.31
  Q 31.07 38.49 31.49 37.38
  Q 32.51 34.71 32.20 31.84
  A 1.27 1.26 84.5 0 0 30.83 30.71
  Q 25.93 31.17 21.03 30.75
  Q 19.97 30.66 20.97 30.28
  Q 21.92 29.92 23.25 30.13
  L 30.56 30.02
  Q 32.92 29.98 33.01 32.35
  L 33.17 36.58
  Q 33.26 38.95 30.89 38.88
  L 15.83 38.41
  Z" fill="#919594"></path>
<path d="M 23.25 30.13
  Q 21.92 29.92 20.97 30.28
  Q 19.97 30.66 21.03 30.75
  Q 25.93 31.17 30.83 30.71
  A 1.27 1.26 84.5 0 1 32.20 31.84
  Q 32.51 34.71 31.49 37.38
  Q 31.07 38.49 30.89 37.31
  L 30.57 35.26
  Q 30.50 34.75 30.01 34.94
  C 28.76 35.45 27.47 34.95 27.40 33.50
  Q 27.37 32.91 26.79 32.88
  Q 25.32 32.79 24.21 33.67
  Q 23.88 33.94 23.45 33.89
  Q 22.43 33.79 21.48 34.10
  Q 21.05 34.23 20.71 33.94
  C 19.24 32.66 16.43 33.09 14.62 33.14
  A 1.91 1.91 0.0 0 0 12.88 34.40
  L 12.08 36.61
  Q 11.61 37.90 12.98 38.06
  L 15.83 38.41
  Q 13.08 38.99 10.76 38.17
  A 0.86 0.86 0.0 0 1 10.19 37.42
  L 9.81 32.14
  A 1.99 1.99 0.0 0 1 11.81 30.01
  L 23.25 30.13
  Z" fill="#6b6e6d"></path>
</svg>
