<svg viewBox="0.00 0.00 512.00 512.00" version="1.1" xmlns="http://www.w3.org/2000/svg">
<path d="M 267.36 292.15
  Q 266.43 293.15 264.99 293.46
  Q 256.82 295.23 247.16 297.86
  A 0.51 0.50 53.4 0 0 247.03 298.78
  Q 247.09 298.82 247.72 298.61
  Q 249.80 297.90 251.91 298.17
  C 255.30 298.61 258.29 298.68 261.70 298.52
  A 0.57 0.57 0.0 0 1 262.16 299.46
  C 258.81 303.37 254.87 304.12 250.43 306.15
  Q 248.94 306.83 248.06 308.14
  Q 247.89 308.38 248.18 308.33
  L 264.97 305.56
  Q 269.07 304.89 265.88 307.56
  L 257.94 314.21
  Q 256.82 315.15 258.28 315.21
  Q 258.66 315.22 259.30 314.80
  Q 259.83 314.46 260.25 314.31
  C 266.99 311.96 274.50 310.21 280.70 306.65
  Q 281.60 306.14 283.79 302.80
  C 285.94 299.54 295.32 290.33 300.76 288.55
  C 306.91 286.53 313.86 292.21 319.30 295.02
  A 1.92 1.92 0.0 0 1 320.31 297.03
  C 315.95 323.84 304.68 348.65 283.05 365.87
  C 244.16 396.85 191.21 402.02 146.28 381.25
  Q 142.34 379.43 137.35 376.45
  C 132.73 373.69 127.97 371.18 123.77 367.76
  Q 121.45 365.86 119.10 363.99
  C 112.80 358.98 107.32 352.98 101.70 347.28
  Q 98.88 344.42 92.50 335.24
  C 87.77 328.42 84.27 321.22 80.73 313.78
  Q 75.75 303.31 73.11 292.02
  C 72.21 288.17 71.22 284.36 70.80 280.44
  Q 69.61 269.50 69.01 258.38
  Q 68.93 256.99 67.54 256.98
  L 66.82 256.97
  Q 65.27 256.96 65.30 258.51
  C 65.75 283.50 71.52 307.58 83.14 329.61
  C 91.27 345.05 102.62 358.54 117.18 371.62
  C 128.23 381.54 140.65 389.06 153.35 394.75
  C 193.48 412.74 241.48 412.18 280.83 393.06
  Q 316.63 375.67 343.86 344.13
  Q 354.67 331.60 359.08 323.57
  C 366.30 310.39 369.85 302.13 373.86 288.09
  C 374.34 286.42 375.37 284.14 376.31 283.05
  Q 380.70 277.93 384.85 272.61
  C 387.38 269.38 390.25 266.29 394.76 266.79
  C 401.96 267.59 406.69 271.39 411.85 275.89
  Q 413.42 277.26 415.50 277.23
  Q 426.53 277.03 437.43 277.06
  A 0.35 0.35 0.0 0 0 437.68 276.46
  C 435.43 274.20 430.49 273.62 427.47 272.90
  Q 425.82 272.51 426.04 271.26
  A 1.31 1.31 0.0 0 1 427.24 270.18
  Q 430.08 269.99 432.67 269.60
  C 435.90 269.11 439.15 267.36 443.47 268.23
  A 0.83 0.82 -68.6 0 0 444.33 267.85
  L 444.50 267.58
  A 0.39 0.39 0.0 0 0 444.23 266.99
  L 428.80 264.60
  A 0.97 0.96 -53.8 0 1 428.52 262.78
  Q 434.05 260.00 440.15 258.74
  A 1.15 1.14 -88.3 0 0 441.03 257.90
  L 441.12 257.54
  A 0.31 0.31 0.0 0 0 440.79 257.15
  L 421.50 258.78
  A 1.26 1.24 -83.2 0 1 420.23 257.13
  C 420.72 255.62 423.25 253.03 423.89 251.77
  Q 424.90 249.81 423.07 251.04
  L 416.24 255.65
  A 3.61 3.60 45.1 0 1 412.18 255.64
  C 406.86 252.00 401.24 249.16 394.58 249.28
  C 389.05 249.39 383.38 252.66 378.48 255.54
  A 0.45 0.45 0.0 0 1 377.80 255.14
  C 378.55 228.25 369.03 199.69 353.61 178.09
  Q 352.06 175.91 354.36 174.60
  C 370.49 165.40 374.71 148.58 370.56 131.36
  Q 369.71 127.82 370.44 126.47
  C 372.23 123.18 372.98 119.73 374.49 116.43
  C 375.10 115.10 376.27 113.41 376.22 111.89
  A 0.48 0.48 0.0 0 0 375.40 111.56
  Q 372.12 114.72 368.66 117.67
  Q 367.56 118.60 366.58 118.50
  Q 365.50 118.39 365.39 117.31
  C 365.04 114.01 364.41 107.67 362.13 105.66
  Q 361.63 105.22 361.53 105.88
  C 360.97 109.77 360.58 114.98 358.93 118.54
  A 0.74 0.74 0.0 0 1 357.82 118.82
  Q 354.04 116.00 351.87 112.11
  Q 351.54 111.51 351.13 111.40
  A 0.51 0.51 0.0 0 0 350.50 112.02
  L 353.66 125.27
  A 0.99 0.99 0.0 0 1 352.91 126.47
  Q 348.69 127.41 344.69 128.92
  Q 342.49 129.75 344.82 130.01
  Q 347.27 130.29 350.12 131.48
  C 352.59 132.51 356.27 131.74 356.96 135.02
  C 359.45 146.93 356.39 158.30 344.40 163.42
  Q 343.54 163.79 342.89 163.11
  Q 336.65 156.47 330.85 150.14
  C 323.60 142.22 314.98 136.18 306.98 128.85
  C 302.13 124.40 299.21 121.91 295.23 118.50
  C 288.56 112.77 279.52 108.61 271.29 105.77
  Q 262.46 102.72 252.65 102.28
  Q 234.87 101.47 217.53 106.31
  C 207.28 109.18 196.78 116.87 209.33 127.17
  Q 224.35 139.50 240.24 149.13
  C 248.07 153.88 253.74 155.54 262.50 157.02
  Q 268.33 158.01 274.78 160.90
  C 287.04 166.38 297.31 178.66 304.08 190.09
  A 1.14 1.14 0.0 0 1 303.89 191.48
  C 300.38 194.93 296.50 198.71 292.25 200.88
  Q 277.30 208.48 264.34 197.14
  Q 263.00 195.97 262.81 194.48
  C 262.40 191.35 263.89 186.78 264.31 183.75
  Q 264.57 181.87 263.24 183.23
  L 258.44 188.15
  A 2.14 2.14 0.0 0 1 255.38 188.15
  L 247.31 179.89
  Q 244.56 177.08 246.07 180.71
  Q 247.23 183.49 249.06 188.51
  Q 249.57 189.90 247.71 190.01
  A 2.01 1.87 -35.7 0 1 247.09 189.93
  Q 241.02 188.11 234.77 187.00
  A 0.59 0.59 0.0 0 0 234.16 187.88
  C 236.12 191.20 242.26 191.91 244.50 195.76
  A 1.72 1.72 0.0 0 1 243.63 198.23
  L 233.87 201.91
  A 0.43 0.43 0.0 0 0 233.77 202.65
  Q 234.35 203.08 235.25 203.12
  Q 242.02 203.43 248.77 203.99
  Q 250.83 204.16 251.78 204.98
  C 260.68 212.68 270.46 219.20 281.24 218.73
  C 291.55 218.28 303.54 213.11 309.83 204.93
  A 0.43 0.43 0.0 0 1 310.50 204.91
  Q 312.15 206.91 313.01 209.49
  C 319.93 230.34 322.69 253.01 322.17 275.55
  A 0.76 0.76 0.0 0 1 321.39 276.29
  Q 321.14 276.29 320.64 276.26
  Q 320.28 276.24 319.94 276.07
  C 311.00 271.54 299.88 269.02 290.67 273.94
  Q 281.28 278.97 273.84 286.60
  C 271.19 289.33 264.81 286.89 261.94 285.54
  A 0.48 0.48 0.0 0 0 261.26 286.01
  Q 261.29 286.32 261.64 286.62
  Q 264.42 289.05 267.30 291.37
  Q 267.75 291.73 267.36 292.15" stroke-linecap="butt" fill="none" stroke-width="2.00" stroke="#d29bed"></path>
<path d="M 142.11 0.00
  L 367.75 0.00
  C 369.64 0.33 371.72 0.24 373.40 0.45
  Q 392.20 2.88 410.01 9.12
  C 418.18 11.98 428.21 17.10 434.94 20.81
  C 453.09 30.80 469.78 46.51 482.40 64.06
  C 502.96 92.63 511.53 125.43 511.54 159.87
  Q 511.58 254.56 511.68 349.25
  C 511.71 379.21 504.90 409.99 488.20 436.71
  Q 480.74 448.65 475.70 454.71
  Q 473.11 457.83 464.00 467.00
  C 454.32 476.74 442.09 485.40 429.38 491.90
  C 424.54 494.37 419.47 497.10 414.64 499.01
  Q 390.89 508.39 365.25 509.64
  Q 359.46 509.92 344.50 509.92
  Q 254.50 509.86 164.50 509.79
  Q 156.50 509.78 148.50 509.56
  Q 125.80 508.92 105.50 501.95
  C 100.36 500.19 92.48 497.20 86.92 494.44
  C 55.70 478.92 28.57 451.74 14.43 419.54
  C 7.15 402.96 3.12 385.85 1.28 367.97
  Q 0.49 360.32 0.49 348.00
  Q 0.51 255.37 0.50 162.75
  Q 0.50 149.87 1.16 142.78
  Q 2.66 126.53 6.97 110.77
  C 8.74 104.33 11.47 97.65 14.10 91.12
  Q 15.82 86.86 17.59 83.49
  Q 42.95 35.26 91.47 13.15
  Q 113.86 2.95 142.11 0.00
  Z
  M 267.36 292.15
  Q 266.43 293.15 264.99 293.46
  Q 256.82 295.23 247.16 297.86
  A 0.51 0.50 53.4 0 0 247.03 298.78
  Q 247.09 298.82 247.72 298.61
  Q 249.80 297.90 251.91 298.17
  C 255.30 298.61 258.29 298.68 261.70 298.52
  A 0.57 0.57 0.0 0 1 262.16 299.46
  C 258.81 303.37 254.87 304.12 250.43 306.15
  Q 248.94 306.83 248.06 308.14
  Q 247.89 308.38 248.18 308.33
  L 264.97 305.56
  Q 269.07 304.89 265.88 307.56
  L 257.94 314.21
  Q 256.82 315.15 258.28 315.21
  Q 258.66 315.22 259.30 314.80
  Q 259.83 314.46 260.25 314.31
  C 266.99 311.96 274.50 310.21 280.70 306.65
  Q 281.60 306.14 283.79 302.80
  C 285.94 299.54 295.32 290.33 300.76 288.55
  C 306.91 286.53 313.86 292.21 319.30 295.02
  A 1.92 1.92 0.0 0 1 320.31 297.03
  C 315.95 323.84 304.68 348.65 283.05 365.87
  C 244.16 396.85 191.21 402.02 146.28 381.25
  Q 142.34 379.43 137.35 376.45
  C 132.73 373.69 127.97 371.18 123.77 367.76
  Q 121.45 365.86 119.10 363.99
  C 112.80 358.98 107.32 352.98 101.70 347.28
  Q 98.88 344.42 92.50 335.24
  C 87.77 328.42 84.27 321.22 80.73 313.78
  Q 75.75 303.31 73.11 292.02
  C 72.21 288.17 71.22 284.36 70.80 280.44
  Q 69.61 269.50 69.01 258.38
  Q 68.93 256.99 67.54 256.98
  L 66.82 256.97
  Q 65.27 256.96 65.30 258.51
  C 65.75 283.50 71.52 307.58 83.14 329.61
  C 91.27 345.05 102.62 358.54 117.18 371.62
  C 128.23 381.54 140.65 389.06 153.35 394.75
  C 193.48 412.74 241.48 412.18 280.83 393.06
  Q 316.63 375.67 343.86 344.13
  Q 354.67 331.60 359.08 323.57
  C 366.30 310.39 369.85 302.13 373.86 288.09
  C 374.34 286.42 375.37 284.14 376.31 283.05
  Q 380.70 277.93 384.85 272.61
  C 387.38 269.38 390.25 266.29 394.76 266.79
  C 401.96 267.59 406.69 271.39 411.85 275.89
  Q 413.42 277.26 415.50 277.23
  Q 426.53 277.03 437.43 277.06
  A 0.35 0.35 0.0 0 0 437.68 276.46
  C 435.43 274.20 430.49 273.62 427.47 272.90
  Q 425.82 272.51 426.04 271.26
  A 1.31 1.31 0.0 0 1 427.24 270.18
  Q 430.08 269.99 432.67 269.60
  C 435.90 269.11 439.15 267.36 443.47 268.23
  A 0.83 0.82 -68.6 0 0 444.33 267.85
  L 444.50 267.58
  A 0.39 0.39 0.0 0 0 444.23 266.99
  L 428.80 264.60
  A 0.97 0.96 -53.8 0 1 428.52 262.78
  Q 434.05 260.00 440.15 258.74
  A 1.15 1.14 -88.3 0 0 441.03 257.90
  L 441.12 257.54
  A 0.31 0.31 0.0 0 0 440.79 257.15
  L 421.50 258.78
  A 1.26 1.24 -83.2 0 1 420.23 257.13
  C 420.72 255.62 423.25 253.03 423.89 251.77
  Q 424.90 249.81 423.07 251.04
  L 416.24 255.65
  A 3.61 3.60 45.1 0 1 412.18 255.64
  C 406.86 252.00 401.24 249.16 394.58 249.28
  C 389.05 249.39 383.38 252.66 378.48 255.54
  A 0.45 0.45 0.0 0 1 377.80 255.14
  C 378.55 228.25 369.03 199.69 353.61 178.09
  Q 352.06 175.91 354.36 174.60
  C 370.49 165.40 374.71 148.58 370.56 131.36
  Q 369.71 127.82 370.44 126.47
  C 372.23 123.18 372.98 119.73 374.49 116.43
  C 375.10 115.10 376.27 113.41 376.22 111.89
  A 0.48 0.48 0.0 0 0 375.40 111.56
  Q 372.12 114.72 368.66 117.67
  Q 367.56 118.60 366.58 118.50
  Q 365.50 118.39 365.39 117.31
  C 365.04 114.01 364.41 107.67 362.13 105.66
  Q 361.63 105.22 361.53 105.88
  C 360.97 109.77 360.58 114.98 358.93 118.54
  A 0.74 0.74 0.0 0 1 357.82 118.82
  Q 354.04 116.00 351.87 112.11
  Q 351.54 111.51 351.13 111.40
  A 0.51 0.51 0.0 0 0 350.50 112.02
  L 353.66 125.27
  A 0.99 0.99 0.0 0 1 352.91 126.47
  Q 348.69 127.41 344.69 128.92
  Q 342.49 129.75 344.82 130.01
  Q 347.27 130.29 350.12 131.48
  C 352.59 132.51 356.27 131.74 356.96 135.02
  C 359.45 146.93 356.39 158.30 344.40 163.42
  Q 343.54 163.79 342.89 163.11
  Q 336.65 156.47 330.85 150.14
  C 323.60 142.22 314.98 136.18 306.98 128.85
  C 302.13 124.40 299.21 121.91 295.23 118.50
  C 288.56 112.77 279.52 108.61 271.29 105.77
  Q 262.46 102.72 252.65 102.28
  Q 234.87 101.47 217.53 106.31
  C 207.28 109.18 196.78 116.87 209.33 127.17
  Q 224.35 139.50 240.24 149.13
  C 248.07 153.88 253.74 155.54 262.50 157.02
  Q 268.33 158.01 274.78 160.90
  C 287.04 166.38 297.31 178.66 304.08 190.09
  A 1.14 1.14 0.0 0 1 303.89 191.48
  C 300.38 194.93 296.50 198.71 292.25 200.88
  Q 277.30 208.48 264.34 197.14
  Q 263.00 195.97 262.81 194.48
  C 262.40 191.35 263.89 186.78 264.31 183.75
  Q 264.57 181.87 263.24 183.23
  L 258.44 188.15
  A 2.14 2.14 0.0 0 1 255.38 188.15
  L 247.31 179.89
  Q 244.56 177.08 246.07 180.71
  Q 247.23 183.49 249.06 188.51
  Q 249.57 189.90 247.71 190.01
  A 2.01 1.87 -35.7 0 1 247.09 189.93
  Q 241.02 188.11 234.77 187.00
  A 0.59 0.59 0.0 0 0 234.16 187.88
  C 236.12 191.20 242.26 191.91 244.50 195.76
  A 1.72 1.72 0.0 0 1 243.63 198.23
  L 233.87 201.91
  A 0.43 0.43 0.0 0 0 233.77 202.65
  Q 234.35 203.08 235.25 203.12
  Q 242.02 203.43 248.77 203.99
  Q 250.83 204.16 251.78 204.98
  C 260.68 212.68 270.46 219.20 281.24 218.73
  C 291.55 218.28 303.54 213.11 309.83 204.93
  A 0.43 0.43 0.0 0 1 310.50 204.91
  Q 312.15 206.91 313.01 209.49
  C 319.93 230.34 322.69 253.01 322.17 275.55
  A 0.76 0.76 0.0 0 1 321.39 276.29
  Q 321.14 276.29 320.64 276.26
  Q 320.28 276.24 319.94 276.07
  C 311.00 271.54 299.88 269.02 290.67 273.94
  Q 281.28 278.97 273.84 286.60
  C 271.19 289.33 264.81 286.89 261.94 285.54
  A 0.48 0.48 0.0 0 0 261.26 286.01
  Q 261.29 286.32 261.64 286.62
  Q 264.42 289.05 267.30 291.37
  Q 267.75 291.73 267.36 292.15
  Z" fill="#ffffff"></path>
<path d="M 267.30 291.37
  Q 264.42 289.05 261.64 286.62
  Q 261.29 286.32 261.26 286.01
  A 0.48 0.48 0.0 0 1 261.94 285.54
  C 264.81 286.89 271.19 289.33 273.84 286.60
  Q 281.28 278.97 290.67 273.94
  C 299.88 269.02 311.00 271.54 319.94 276.07
  Q 320.28 276.24 320.64 276.26
  Q 321.14 276.29 321.39 276.29
  A 0.76 0.76 0.0 0 0 322.17 275.55
  C 322.69 253.01 319.93 230.34 313.01 209.49
  Q 312.15 206.91 310.50 204.91
  A 0.43 0.43 0.0 0 0 309.83 204.93
  C 303.54 213.11 291.55 218.28 281.24 218.73
  C 270.46 219.20 260.68 212.68 251.78 204.98
  Q 250.83 204.16 248.77 203.99
  Q 242.02 203.43 235.25 203.12
  Q 234.35 203.08 233.77 202.65
  A 0.43 0.43 0.0 0 1 233.87 201.91
  L 243.63 198.23
  A 1.72 1.72 0.0 0 0 244.50 195.76
  C 242.26 191.91 236.12 191.20 234.16 187.88
  A 0.59 0.59 0.0 0 1 234.77 187.00
  Q 241.02 188.11 247.09 189.93
  A 2.01 1.87 -35.7 0 0 247.71 190.01
  Q 249.57 189.90 249.06 188.51
  Q 247.23 183.49 246.07 180.71
  Q 244.56 177.08 247.31 179.89
  L 255.38 188.15
  A 2.14 2.14 0.0 0 0 258.44 188.15
  L 263.24 183.23
  Q 264.57 181.87 264.31 183.75
  C 263.89 186.78 262.40 191.35 262.81 194.48
  Q 263.00 195.97 264.34 197.14
  Q 277.30 208.48 292.25 200.88
  C 296.50 198.71 300.38 194.93 303.89 191.48
  A 1.14 1.14 0.0 0 0 304.08 190.09
  C 297.31 178.66 287.04 166.38 274.78 160.90
  Q 268.33 158.01 262.50 157.02
  C 253.74 155.54 248.07 153.88 240.24 149.13
  Q 224.35 139.50 209.33 127.17
  C 196.78 116.87 207.28 109.18 217.53 106.31
  Q 234.87 101.47 252.65 102.28
  Q 262.46 102.72 271.29 105.77
  C 279.52 108.61 288.56 112.77 295.23 118.50
  C 299.21 121.91 302.13 124.40 306.98 128.85
  C 314.98 136.18 323.60 142.22 330.85 150.14
  Q 336.65 156.47 342.89 163.11
  Q 343.54 163.79 344.40 163.42
  C 356.39 158.30 359.45 146.93 356.96 135.02
  C 356.27 131.74 352.59 132.51 350.12 131.48
  Q 347.27 130.29 344.82 130.01
  Q 342.49 129.75 344.69 128.92
  Q 348.69 127.41 352.91 126.47
  A 0.99 0.99 0.0 0 0 353.66 125.27
  L 350.50 112.02
  A 0.51 0.51 0.0 0 1 351.13 111.40
  Q 351.54 111.51 351.87 112.11
  Q 354.04 116.00 357.82 118.82
  A 0.74 0.74 0.0 0 0 358.93 118.54
  C 360.58 114.98 360.97 109.77 361.53 105.88
  Q 361.63 105.22 362.13 105.66
  C 364.41 107.67 365.04 114.01 365.39 117.31
  Q 365.50 118.39 366.58 118.50
  Q 367.56 118.60 368.66 117.67
  Q 372.12 114.72 375.40 111.56
  A 0.48 0.48 0.0 0 1 376.22 111.89
  C 376.27 113.41 375.10 115.10 374.49 116.43
  C 372.98 119.73 372.23 123.18 370.44 126.47
  Q 369.71 127.82 370.56 131.36
  C 374.71 148.58 370.49 165.40 354.36 174.60
  Q 352.06 175.91 353.61 178.09
  C 369.03 199.69 378.55 228.25 377.80 255.14
  A 0.45 0.45 0.0 0 0 378.48 255.54
  C 383.38 252.66 389.05 249.39 394.58 249.28
  C 401.24 249.16 406.86 252.00 412.18 255.64
  A 3.61 3.60 45.1 0 0 416.24 255.65
  L 423.07 251.04
  Q 424.90 249.81 423.89 251.77
  C 423.25 253.03 420.72 255.62 420.23 257.13
  A 1.26 1.24 -83.2 0 0 421.50 258.78
  L 440.79 257.15
  A 0.31 0.31 0.0 0 1 441.12 257.54
  L 441.03 257.90
  A 1.15 1.14 -88.3 0 1 440.15 258.74
  Q 434.05 260.00 428.52 262.78
  A 0.97 0.96 -53.8 0 0 428.80 264.60
  L 444.23 266.99
  A 0.39 0.39 0.0 0 1 444.50 267.58
  L 444.33 267.85
  A 0.83 0.82 -68.6 0 1 443.47 268.23
  C 439.15 267.36 435.90 269.11 432.67 269.60
  Q 430.08 269.99 427.24 270.18
  A 1.31 1.31 0.0 0 0 426.04 271.26
  Q 425.82 272.51 427.47 272.90
  C 430.49 273.62 435.43 274.20 437.68 276.46
  A 0.35 0.35 0.0 0 1 437.43 277.06
  Q 426.53 277.03 415.50 277.23
  Q 413.42 277.26 411.85 275.89
  C 406.69 271.39 401.96 267.59 394.76 266.79
  C 390.25 266.29 387.38 269.38 384.85 272.61
  Q 380.70 277.93 376.31 283.05
  C 375.37 284.14 374.34 286.42 373.86 288.09
  C 369.85 302.13 366.30 310.39 359.08 323.57
  Q 354.67 331.60 343.86 344.13
  Q 316.63 375.67 280.83 393.06
  C 241.48 412.18 193.48 412.74 153.35 394.75
  C 140.65 389.06 128.23 381.54 117.18 371.62
  C 102.62 358.54 91.27 345.05 83.14 329.61
  C 71.52 307.58 65.75 283.50 65.30 258.51
  Q 65.27 256.96 66.82 256.97
  L 67.54 256.98
  Q 68.93 256.99 69.01 258.38
  Q 69.61 269.50 70.80 280.44
  C 71.22 284.36 72.21 288.17 73.11 292.02
  Q 75.75 303.31 80.73 313.78
  C 84.27 321.22 87.77 328.42 92.50 335.24
  Q 98.88 344.42 101.70 347.28
  C 107.32 352.98 112.80 358.98 119.10 363.99
  Q 121.45 365.86 123.77 367.76
  C 127.97 371.18 132.73 373.69 137.35 376.45
  Q 142.34 379.43 146.28 381.25
  C 191.21 402.02 244.16 396.85 283.05 365.87
  C 304.68 348.65 315.95 323.84 320.31 297.03
  A 1.92 1.92 0.0 0 0 319.30 295.02
  C 313.86 292.21 306.91 286.53 300.76 288.55
  C 295.32 290.33 285.94 299.54 283.79 302.80
  Q 281.60 306.14 280.70 306.65
  C 274.50 310.21 266.99 311.96 260.25 314.31
  Q 259.83 314.46 259.30 314.80
  Q 258.66 315.22 258.28 315.21
  Q 256.82 315.15 257.94 314.21
  L 265.88 307.56
  Q 269.07 304.89 264.97 305.56
  L 248.18 308.33
  Q 247.89 308.38 248.06 308.14
  Q 248.94 306.83 250.43 306.15
  C 254.87 304.12 258.81 303.37 262.16 299.46
  A 0.57 0.57 0.0 0 0 261.70 298.52
  C 258.29 298.68 255.30 298.61 251.91 298.17
  Q 249.80 297.90 247.72 298.61
  Q 247.09 298.82 247.03 298.78
  A 0.51 0.50 53.4 0 1 247.16 297.86
  Q 256.82 295.23 264.99 293.46
  Q 266.43 293.15 267.36 292.15
  Q 267.75 291.73 267.30 291.37
  Z" fill="#a437db"></path>
</svg>
