<svg viewBox="0.00 0.00 256.00 256.00" version="1.1" xmlns="http://www.w3.org/2000/svg">
<path d="M 63.25 134.81
  C 80.38 137.64 94.25 144.17 105.71 157.30
  C 115.34 168.35 119.47 181.55 121.72 195.50
  Q 124.71 214.03 127.82 239.08
  Q 127.84 239.20 127.92 239.22
  Q 127.97 239.23 128.01 239.23
  Q 128.16 239.21 128.19 239.01
  Q 130.88 217.20 134.38 195.51
  C 136.65 181.42 140.32 169.19 149.47 158.23
  Q 163.81 141.04 185.74 136.25
  C 203.08 132.45 221.16 130.48 238.64 128.20
  Q 240.30 127.98 238.64 127.77
  Q 218.14 125.23 197.01 121.93
  C 181.35 119.49 168.15 115.56 156.46 104.79
  C 143.16 92.54 137.46 79.60 134.49 61.75
  Q 131.42 43.26 128.21 16.92
  Q 128.20 16.84 128.15 16.82
  Q 128.03 16.78 127.91 16.74
  Q 127.84 16.71 127.83 16.79
  Q 123.87 49.06 121.50 61.76
  C 118.78 76.34 114.99 88.55 104.66 99.67
  Q 90.69 114.73 72.24 119.16
  C 54.33 123.46 35.55 125.45 17.44 127.76
  Q 15.39 128.03 17.44 128.27
  Q 40.10 130.97 63.25 134.81" stroke-linecap="butt" fill="none" stroke-width="2.00" stroke="#588026"></path>
<path d="M 122.64 0.00
  L 133.48 0.00
  C 194.20 3.25 242.61 46.01 254.05 105.47
  C 255.08 110.86 255.49 116.93 256.00 122.63
  L 256.00 133.46
  Q 253.97 171.98 232.66 201.67
  Q 196.72 251.76 133.38 256.00
  L 122.54 256.00
  Q 80.05 253.70 48.33 228.16
  Q 3.72 192.25 0.00 133.36
  L 0.00 122.51
  C 4.02 55.17 55.23 3.84 122.64 0.00
  Z
  M 63.25 134.81
  C 80.38 137.64 94.25 144.17 105.71 157.30
  C 115.34 168.35 119.47 181.55 121.72 195.50
  Q 124.71 214.03 127.82 239.08
  Q 127.84 239.20 127.92 239.22
  Q 127.97 239.23 128.01 239.23
  Q 128.16 239.21 128.19 239.01
  Q 130.88 217.20 134.38 195.51
  C 136.65 181.42 140.32 169.19 149.47 158.23
  Q 163.81 141.04 185.74 136.25
  C 203.08 132.45 221.16 130.48 238.64 128.20
  Q 240.30 127.98 238.64 127.77
  Q 218.14 125.23 197.01 121.93
  C 181.35 119.49 168.15 115.56 156.46 104.79
  C 143.16 92.54 137.46 79.60 134.49 61.75
  Q 131.42 43.26 128.21 16.92
  Q 128.20 16.84 128.15 16.82
  Q 128.03 16.78 127.91 16.74
  Q 127.84 16.71 127.83 16.79
  Q 123.87 49.06 121.50 61.76
  C 118.78 76.34 114.99 88.55 104.66 99.67
  Q 90.69 114.73 72.24 119.16
  C 54.33 123.46 35.55 125.45 17.44 127.76
  Q 15.39 128.03 17.44 128.27
  Q 40.10 130.97 63.25 134.81
  Z" fill="#b0ff4b"></path>
<path d="M 105.71 157.30
  C 94.25 144.17 80.38 137.64 63.25 134.81
  Q 40.10 130.97 17.44 128.27
  Q 15.39 128.03 17.44 127.76
  C 35.55 125.45 54.33 123.46 72.24 119.16
  Q 90.69 114.73 104.66 99.67
  C 114.99 88.55 118.78 76.34 121.50 61.76
  Q 123.87 49.06 127.83 16.79
  Q 127.84 16.71 127.91 16.74
  Q 128.03 16.78 128.15 16.82
  Q 128.20 16.84 128.21 16.92
  Q 131.42 43.26 134.49 61.75
  C 137.46 79.60 143.16 92.54 156.46 104.79
  C 168.15 115.56 181.35 119.49 197.01 121.93
  Q 218.14 125.23 238.64 127.77
  Q 240.30 127.98 238.64 128.20
  C 221.16 130.48 203.08 132.45 185.74 136.25
  Q 163.81 141.04 149.47 158.23
  C 140.32 169.19 136.65 181.42 134.38 195.51
  Q 130.88 217.20 128.19 239.01
  Q 128.16 239.21 128.01 239.23
  Q 127.97 239.23 127.92 239.22
  Q 127.84 239.20 127.82 239.08
  Q 124.71 214.03 121.72 195.50
  C 119.47 181.55 115.34 168.35 105.71 157.30
  Z" fill="#000000"></path>
</svg>
