<svg viewBox="0.00 0.00 256.00 256.00" version="1.1" xmlns="http://www.w3.org/2000/svg">
<g stroke-linecap="butt" fill="none" stroke-width="2.00">
<path d="M 79.15 177.33
  C 130.64 173.62 175.04 129.92 178.37 78.35
  A 0.95 0.93 -66.6 0 0 178.09 77.61
  L 159.49 59.28
  Q 158.92 58.72 158.85 59.52
  C 154.53 110.70 111.21 153.95 59.49 157.58
  A 0.40 0.40 0.0 0 0 59.24 158.27
  L 78.11 176.95
  A 1.37 1.34 -24.3 0 0 79.15 177.33" stroke="#828921"></path>
<path d="M 122.46 176.31
  Q 120.83 177.25 122.71 177.25
  L 196.45 177.25
  A 0.40 0.40 0.0 0 0 196.73 176.56
  L 177.90 157.89
  A 0.86 0.84 66.3 0 0 177.31 157.65
  L 147.36 157.64
  A 1.21 1.19 22.2 0 0 146.51 157.99
  Q 135.67 168.71 122.46 176.31" stroke="#828921"></path>
</g>
<path d="M 121.91 0.00
  L 133.47 0.00
  C 196.32 3.31 248.40 50.60 255.09 114.02
  Q 255.50 117.95 256.00 121.88
  L 256.00 134.24
  Q 255.42 139.12 254.81 143.98
  C 247.41 202.42 202.92 246.45 144.88 254.92
  C 141.84 255.37 137.86 255.48 134.37 256.00
  L 121.76 256.00
  Q 115.87 255.38 110.02 254.55
  Q 81.63 250.52 58.02 235.19
  C 23.04 212.47 2.80 175.47 0.00 133.64
  L 0.00 123.01
  C 3.72 55.70 54.62 4.29 121.91 0.00
  Z
  M 79.15 177.33
  C 130.64 173.62 175.04 129.92 178.37 78.35
  A 0.95 0.93 -66.6 0 0 178.09 77.61
  L 159.49 59.28
  Q 158.92 58.72 158.85 59.52
  C 154.53 110.70 111.21 153.95 59.49 157.58
  A 0.40 0.40 0.0 0 0 59.24 158.27
  L 78.11 176.95
  A 1.37 1.34 -24.3 0 0 79.15 177.33
  Z
  M 122.46 176.31
  Q 120.83 177.25 122.71 177.25
  L 196.45 177.25
  A 0.40 0.40 0.0 0 0 196.73 176.56
  L 177.90 157.89
  A 0.86 0.84 66.3 0 0 177.31 157.65
  L 147.36 157.64
  A 1.21 1.19 22.2 0 0 146.51 157.99
  Q 135.67 168.71 122.46 176.31
  Z" fill="#e4f222"></path>
<path d="M 178.37 78.35
  C 175.04 129.92 130.64 173.62 79.15 177.33
  A 1.37 1.34 -24.3 0 1 78.11 176.95
  L 59.24 158.27
  A 0.40 0.40 0.0 0 1 59.49 157.58
  C 111.21 153.95 154.53 110.70 158.85 59.52
  Q 158.92 58.72 159.49 59.28
  L 178.09 77.61
  A 0.95 0.93 -66.6 0 1 178.37 78.35
  Z" fill="#1f1f1f"></path>
<path d="M 122.46 176.31
  Q 135.67 168.71 146.51 157.99
  A 1.21 1.19 22.2 0 1 147.36 157.64
  L 177.31 157.65
  A 0.86 0.84 66.3 0 1 177.90 157.89
  L 196.73 176.56
  A 0.40 0.40 0.0 0 1 196.45 177.25
  L 122.71 177.25
  Q 120.83 177.25 122.46 176.31
  Z" fill="#1f1f1f"></path>
</svg>
