<svg viewBox="0.00 0.00 350.00 350.00" version="1.1" xmlns="http://www.w3.org/2000/svg">
<g stroke-linecap="butt" fill="none" stroke-width="2.00">
<path d="M 97.24 100.34
  L 97.28 119.54" stroke="#a18080"></path>
<path d="M 97.28 119.54
  L 97.52 158.94" stroke="#af8080"></path>
<path d="M 97.52 158.94
  L 97.71 196.04" stroke="#c38080"></path>
<path d="M 97.71 196.04
  L 97.76 212.71" stroke="#af8080"></path>
<path d="M 97.76 212.71
  L 98.10 238.91" stroke="#948080"></path>
<path d="M 98.10 238.91
  L 98.08 251.78" stroke="#e18080"></path>
<path d="M 98.08 251.78
  Q 98.02 259.53 98.18 267.25
  C 98.27 271.71 101.87 274.95 106.17 272.43
  Q 185.92 225.81 265.63 179.15
  C 269.01 177.17 269.75 172.34 266.12 170.11
  Q 261.11 167.04 246.64 158.96" stroke="#f48080"></path>
<path d="M 246.64 158.96
  L 216.30 141.68" stroke="#e18080"></path>
<path d="M 216.30 141.68
  L 170.87 115.81" stroke="#c38080"></path>
<path d="M 170.87 115.81
  L 137.71 96.91" stroke="#af8080"></path>
<path d="M 137.71 96.91
  L 119.50 86.57" stroke="#a18080"></path>
<path d="M 119.50 86.57
  Q 112.84 82.69 106.67 79.01
  C 101.66 76.02 97.29 77.63 97.17 83.82
  Q 97.00 91.98 97.24 100.34" stroke="#948080"></path>
<path d="M 119.50 86.57
  L 115.35 88.28
  Q 114.91 88.46 114.94 88.93
  Q 115.00 89.68 114.28 90.01
  Q 113.85 90.21 113.40 90.07
  Q 112.55 89.80 112.05 90.56
  Q 111.16 91.89 109.71 91.88
  A 0.10 0.10 0.0 0 0 109.65 92.06
  Q 109.80 92.16 109.92 92.30
  Q 110.22 92.66 109.77 92.79
  Q 107.91 93.38 106.66 94.93
  Q 106.48 95.15 106.20 95.15
  L 105.77 95.15
  Q 105.29 95.14 104.96 95.50
  Q 101.97 98.73 97.24 100.34" stroke="#360101"></path>
<path d="M 137.71 96.91
  L 133.99 99.16
  Q 133.59 99.40 133.28 99.73
  C 132.28 100.78 131.10 100.63 130.19 101.41
  Q 129.50 102.01 128.93 102.77
  Q 128.67 103.12 128.24 103.12
  L 127.76 103.12
  A 0.36 0.35 -1.5 0 0 127.40 103.49
  Q 127.45 104.87 126.04 104.97
  Q 125.98 104.98 125.96 104.92
  Q 125.94 104.89 125.93 104.86
  Q 125.90 104.79 125.74 104.80
  Q 123.40 105.00 121.99 106.76
  Q 121.72 107.10 121.29 107.19
  C 119.32 107.60 119.03 109.36 117.10 109.90
  Q 116.60 110.04 116.30 110.46
  Q 115.76 111.23 114.78 111.14
  Q 114.34 111.09 114.13 111.49
  Q 113.65 112.43 112.59 112.06
  A 0.56 0.56 0.0 0 0 111.88 112.40
  L 111.73 112.82
  Q 111.69 112.93 111.57 112.96
  L 109.25 113.45
  Q 108.57 113.60 108.93 114.18
  Q 109.28 114.76 108.62 115.12
  A 0.96 0.95 75.9 0 0 108.12 115.96
  L 108.12 116.47
  Q 108.12 117.13 107.49 117.33
  Q 106.42 117.68 106.00 118.74
  A 0.67 0.66 16.0 0 1 105.26 119.14
  Q 104.42 118.97 103.77 119.34
  Q 103.46 119.51 103.31 119.83
  Q 102.93 120.64 101.90 120.76
  Q 101.37 120.82 101.00 121.20
  L 99.22 123.06
  A 0.13 0.13 0.0 0 1 99.02 123.03
  Q 98.95 122.88 98.91 122.76
  Q 98.76 122.31 98.41 122.61
  Q 98.28 122.72 98.16 122.79
  Q 97.83 122.99 97.77 122.61
  L 97.28 119.54" stroke="#510101"></path>
<path d="M 170.87 115.81
  L 168.05 117.95
  Q 167.87 118.08 167.70 117.95
  Q 167.56 117.85 167.40 117.92
  Q 167.28 117.97 167.15 118.20
  Q 166.59 119.19 165.00 118.82
  Q 164.18 118.63 163.96 119.42
  Q 163.82 119.91 163.32 119.88
  Q 161.36 119.77 160.24 121.29
  Q 159.94 121.70 159.47 121.88
  Q 158.55 122.23 158.95 123.28
  A 0.44 0.44 0.0 0 1 158.50 123.88
  Q 157.80 123.82 157.88 124.53
  Q 157.94 125.02 157.46 124.90
  Q 156.38 124.61 155.85 125.50
  Q 155.64 125.87 155.21 125.86
  Q 154.37 125.85 153.96 126.60
  Q 153.80 126.89 153.48 126.89
  L 152.87 126.89
  Q 152.42 126.89 152.12 127.22
  Q 150.77 128.72 148.91 129.68
  Q 148.51 129.89 148.24 130.25
  L 147.84 130.78
  Q 147.75 130.90 147.60 130.89
  Q 147.31 130.87 147.02 130.90
  Q 146.66 130.94 146.37 131.17
  Q 145.08 132.20 143.50 132.85
  Q 143.06 133.04 142.90 133.49
  Q 142.73 133.97 142.25 133.92
  Q 141.70 133.86 141.29 134.24
  L 138.70 136.60
  Q 138.24 137.02 137.64 136.90
  Q 136.08 136.60 134.95 137.55
  Q 134.53 137.90 133.98 137.90
  L 133.51 137.90
  Q 132.97 137.90 132.98 138.44
  Q 133.03 139.91 131.52 139.93
  Q 130.85 139.94 130.87 140.54
  Q 130.89 140.95 130.47 140.90
  Q 129.31 140.76 128.20 141.07
  Q 128.20 141.07 128.01 141.26
  Q 127.80 141.49 127.99 141.71
  Q 128.20 141.96 128.00 142.22
  Q 127.20 143.21 126.01 143.65
  A 3.58 0.35 -18.5 0 0 123.99 144.55
  Q 123.43 144.93 123.76 145.24
  A 0.38 0.38 0.0 0 1 123.50 145.89
  L 122.52 145.89
  Q 121.93 145.89 121.91 146.48
  L 121.84 148.18
  A 0.61 0.61 0.0 0 1 121.36 148.76
  Q 119.79 149.10 118.23 148.84
  Q 117.27 148.68 116.91 149.45
  Q 116.71 149.89 116.23 149.89
  L 115.75 149.89
  Q 114.89 149.89 114.89 150.75
  L 114.89 151.25
  A 0.70 0.70 0.0 0 1 114.02 151.92
  Q 112.54 151.54 111.66 152.59
  Q 111.42 152.87 111.05 152.86
  C 110.08 152.82 108.98 154.54 107.79 154.94
  Q 107.34 155.09 106.97 155.37
  L 104.71 157.04
  A 0.10 0.10 0.0 0 0 104.70 157.19
  Q 104.79 157.28 104.88 157.37
  Q 105.08 157.58 104.80 157.67
  Q 104.07 157.91 102.49 157.87
  Q 101.86 157.85 101.89 158.45
  Q 101.92 158.89 101.47 158.90
  L 97.52 158.94" stroke="#730101"></path>
<path d="M 216.30 141.68
  C 215.89 143.74 214.35 143.71 212.86 144.56
  Q 212.69 144.65 212.00 144.86
  Q 211.54 145.00 211.19 144.72
  Q 210.93 144.51 210.73 144.78
  Q 210.63 144.93 210.62 145.10
  Q 210.61 145.41 210.34 145.55
  Q 209.72 145.89 209.05 145.89
  Q 208.50 145.89 208.14 146.32
  Q 206.54 148.24 204.21 149.04
  A 0.47 0.46 -7.6 0 0 203.89 149.45
  Q 203.87 149.77 203.55 149.91
  A 0.16 0.16 0.0 0 1 203.37 149.88
  Q 203.26 149.77 203.15 149.66
  Q 203.06 149.57 202.96 149.65
  L 199.59 152.39
  Q 199.21 152.70 198.73 152.75
  Q 197.99 152.81 197.83 153.38
  Q 197.72 153.75 197.34 153.85
  Q 196.96 153.96 196.88 154.20
  Q 196.78 154.54 196.44 154.62
  L 195.45 154.87
  Q 194.99 154.99 194.84 155.46
  Q 194.75 155.74 194.57 156.00
  Q 194.27 156.40 193.77 156.48
  Q 192.64 156.67 192.17 157.40
  Q 191.91 157.80 191.50 158.05
  Q 189.98 158.99 188.95 160.33
  Q 188.63 160.74 188.13 160.64
  Q 186.74 160.35 186.14 161.47
  Q 186.00 161.74 185.72 161.85
  Q 185.56 161.90 185.41 161.98
  Q 185.21 162.08 184.96 162.41
  Q 184.43 163.12 183.57 162.87
  Q 183.10 162.73 182.68 162.98
  L 178.35 165.54" stroke="#a50101"></path>
<path d="M 178.35 165.54
  Q 167.54 159.41 156.62 153.17
  C 152.99 151.09 149.38 149.82 146.52 153.38
  C 145.72 154.38 145.03 156.66 145.04 157.75
  Q 145.14 170.63 145.23 182.70" stroke="#c38080"></path>
<path d="M 145.23 182.70
  Q 141.36 181.94 138.47 183.46
  Q 136.33 184.59 135.07 184.92
  Q 134.60 185.05 134.17 184.82
  Q 133.57 184.51 133.01 185.05
  Q 132.65 185.40 132.16 185.33
  Q 131.53 185.24 131.19 185.80
  Q 130.90 186.27 130.37 186.41
  L 120.56 189.08
  Q 120.15 189.19 119.89 189.53
  Q 119.52 190.00 118.86 190.03
  Q 118.41 190.06 118.77 189.79
  Q 119.02 189.60 118.89 189.35
  A 0.28 0.27 -32.3 0 0 118.47 189.26
  L 115.74 191.49
  Q 115.29 191.86 114.73 191.69
  L 114.10 191.50
  Q 113.58 191.34 113.07 191.51
  Q 111.55 192.01 110.04 192.49
  C 108.98 192.83 107.72 192.75 106.61 193.71
  Q 106.23 194.04 105.73 194.00
  Q 104.67 193.90 103.87 194.57
  Q 103.50 194.88 103.01 194.90
  L 101.74 194.94
  Q 101.25 194.95 101.00 195.37
  Q 100.38 196.41 97.71 196.04" stroke="#730101"></path>
<path d="M 145.54 203.09
  L 145.44 199.23" stroke="#948080"></path>
<path d="M 145.44 199.23
  L 145.23 182.70" stroke="#af8080"></path>
<path d="M 246.64 158.96
  Q 246.31 159.41 246.32 159.76
  Q 246.32 160.36 246.89 160.15
  L 247.35 159.99
  Q 247.86 159.80 247.83 160.35
  Q 247.82 160.63 247.47 160.74
  Q 246.47 161.05 245.85 161.56
  A 0.66 0.65 35.4 0 1 245.23 161.66
  L 244.76 161.49
  Q 244.33 161.35 244.06 161.70
  C 242.88 163.20 241.40 163.13 240.25 164.40
  Q 239.89 164.79 239.42 165.02
  Q 236.92 166.27 234.94 168.31
  Q 234.62 168.66 234.15 168.72
  C 232.36 168.99 231.08 171.14 230.00 171.12
  Q 229.54 171.12 229.25 171.47
  Q 228.68 172.17 227.78 172.39
  Q 227.38 172.49 227.06 172.75
  L 224.44 174.89
  Q 224.07 175.19 223.61 175.09
  Q 222.78 174.91 222.51 175.68
  Q 220.65 177.05 219.37 178.22
  A 2.98 2.94 17.4 0 1 218.05 178.90
  Q 215.82 179.41 214.49 181.23
  A 1.06 1.04 -78.5 0 1 213.88 181.64
  Q 212.12 182.04 211.07 183.52
  Q 210.77 183.94 210.25 183.93
  Q 208.60 183.92 207.82 185.35
  Q 207.58 185.79 207.09 185.89
  Q 204.79 186.36 203.73 188.43
  Q 203.67 188.55 203.13 188.61
  Q 202.94 188.63 202.77 188.49
  A 0.45 0.44 42.4 0 0 202.18 188.51
  L 199.93 190.61
  Q 199.55 190.96 199.06 191.10
  Q 197.80 191.46 196.78 192.40
  Q 196.43 192.72 196.00 192.89
  Q 194.78 193.40 193.89 194.46
  Q 193.56 194.86 193.04 194.89
  Q 191.00 195.01 190.15 196.86
  A 1.36 1.33 -88.5 0 1 189.46 197.53
  C 187.19 198.46 184.24 199.78 182.68 201.69
  Q 182.36 202.08 181.86 202.10
  Q 181.27 202.12 180.71 202.40
  Q 180.43 202.54 180.36 202.84
  Q 180.18 203.58 179.56 203.79
  C 177.77 204.40 176.18 205.67 174.42 206.47
  Q 173.23 207.00 172.76 208.36
  Q 172.61 208.79 172.15 208.81
  Q 170.20 208.87 168.88 210.49
  Q 168.58 210.86 168.11 210.90
  Q 166.49 211.03 165.84 212.42
  Q 165.56 213.01 164.91 213.13
  Q 164.13 213.27 163.77 213.91
  Q 163.64 214.15 163.42 214.00
  Q 163.26 213.89 163.11 213.87
  Q 162.93 213.85 162.70 214.03
  Q 161.71 214.82 160.87 215.73
  Q 160.55 216.08 160.08 216.09
  Q 159.82 216.09 159.32 216.25
  Q 158.93 216.37 158.67 216.69
  C 157.89 217.67 156.52 218.08 155.68 218.74
  Q 154.36 219.77 152.85 220.51
  A 1.47 1.42 89.2 0 0 152.19 221.21
  Q 151.44 222.90 149.57 222.56
  A 0.76 0.75 -67.7 0 0 148.79 222.89
  Q 148.21 223.76 147.25 224.16
  Q 146.81 224.34 146.40 224.59
  L 142.45 227.09
  Q 142.17 227.26 142.04 227.57
  Q 141.92 227.86 141.60 228.02
  Q 141.50 228.07 141.40 228.03
  Q 141.29 227.98 141.18 227.90
  Q 141.10 227.84 141.03 227.90
  Q 139.00 229.67 136.62 230.90
  C 134.61 231.93 133.18 233.73 130.72 234.36
  Q 130.25 234.48 130.09 234.93
  C 129.07 237.68 123.79 238.07 121.82 240.83
  A 0.66 0.66 0.0 0 1 121.31 241.10
  Q 121.16 241.10 121.00 241.10
  A 0.88 0.88 0.0 0 0 120.22 241.48
  Q 119.32 242.76 117.77 242.95
  A 1.04 1.01 -77.5 0 0 117.02 243.44
  Q 116.31 244.62 115.01 244.89
  Q 114.52 245.00 114.26 245.42
  Q 113.73 246.29 112.82 246.10
  Q 112.36 246.00 112.11 246.40
  Q 111.11 247.95 109.54 248.64
  Q 106.85 249.83 106.64 249.97
  Q 103.99 251.71 100.91 254.06
  A 1.70 1.44 50.4 0 1 98.79 253.68
  Q 98.44 253.27 98.08 251.78" stroke="#d60000"></path>
<path d="M 98.10 238.91
  Q 99.20 235.19 101.22 232.97
  Q 104.71 229.12 109.09 226.33
  Q 127.35 214.70 145.54 203.09" stroke="#760000"></path>
<path d="M 145.54 203.09
  Q 164.96 191.83 184.29 180.53
  C 189.08 177.73 189.48 172.14 184.55 169.18
  Q 181.56 167.38 178.35 165.54" stroke="#e18080"></path>
<path d="M 145.44 199.23
  L 144.83 197.40
  Q 144.67 196.89 144.15 197.03
  Q 139.17 198.40 134.37 200.29
  C 133.25 200.73 131.59 200.61 130.75 201.08
  Q 129.04 202.04 127.28 202.93
  Q 126.82 203.16 126.31 203.12
  Q 124.27 202.96 122.83 204.38
  Q 122.46 204.75 121.96 204.90
  L 104.43 210.31
  Q 103.96 210.45 103.58 210.77
  Q 101.53 212.51 97.76 212.71" stroke="#440100"></path>
<path d="M 183.64 250.17
  L 194.74 257.04" stroke="#af8080"></path>
<path d="M 194.74 257.04
  L 205.33 263.59" stroke="#c38080"></path>
<path d="M 205.33 263.59
  L 216.02 270.23" stroke="#e18080"></path>
<path d="M 216.02 270.23
  Q 221.89 274.33 228.14 273.32
  Q 231.47 272.79 238.79 268.42
  Q 252.55 260.23 266.33 252.10
  Q 269.90 249.99 268.02 246.19
  C 266.69 243.51 260.73 240.71 257.19 238.76" stroke="#f48080"></path>
<path d="M 257.19 238.76
  L 245.65 232.04" stroke="#e18080"></path>
<path d="M 245.65 232.04
  L 234.82 225.73" stroke="#c38080"></path>
<path d="M 234.82 225.73
  L 223.25 218.98" stroke="#af8080"></path>
<path d="M 223.25 218.98
  C 214.71 214.98 208.65 216.89 200.34 221.76
  Q 184.43 231.08 168.60 240.44
  A 0.24 0.24 0.0 0 0 168.60 240.86
  L 183.64 250.17" stroke="#a18080"></path>
<path d="M 223.25 218.98
  L 221.63 221.26
  Q 221.37 221.62 220.97 221.78
  Q 219.76 222.27 218.95 223.35
  Q 218.64 223.75 218.16 223.94
  C 216.86 224.46 216.36 225.41 215.24 226.03
  Q 212.06 227.80 209.08 229.88
  Q 206.47 231.71 204.00 233.75
  C 203.00 234.59 201.81 234.92 200.77 235.98
  C 198.46 238.35 195.72 239.97 192.90 241.66
  C 191.63 242.42 190.94 243.79 189.63 244.25
  A 1.21 1.18 -76.7 0 0 189.19 244.53
  L 183.64 250.17" stroke="#510101"></path>
<path d="M 234.82 225.73
  Q 230.59 228.01 227.48 231.35
  Q 226.73 232.15 224.46 233.33
  C 219.54 235.89 215.87 240.45 211.12 243.35
  Q 210.40 243.79 209.28 244.64
  Q 206.18 246.97 203.29 249.55
  C 201.85 250.83 199.70 251.75 198.27 253.39
  Q 197.63 254.12 196.41 255.04
  Q 195.36 255.84 194.74 257.04" stroke="#730101"></path>
<path d="M 245.65 232.04
  L 238.56 237.10
  Q 238.18 237.37 237.72 237.49
  C 236.43 237.83 235.79 239.20 235.11 239.73
  C 231.26 242.74 226.91 245.21 223.28 248.43
  Q 222.29 249.31 220.63 250.63
  Q 216.28 254.06 211.84 257.37
  Q 211.56 257.58 211.22 257.63
  Q 210.94 257.67 210.64 257.89
  Q 206.96 260.56 205.33 263.59" stroke="#a50101"></path>
<path d="M 257.19 238.76
  Q 256.74 239.74 255.77 240.14
  Q 255.32 240.33 254.94 240.62
  L 245.55 247.80
  Q 245.20 248.06 244.79 247.91
  Q 244.52 247.82 244.24 248.12
  Q 242.70 249.78 241.08 250.81
  Q 239.13 252.05 237.90 253.29
  C 236.44 254.77 234.58 255.92 233.12 257.18
  Q 231.81 258.31 230.40 259.32
  Q 226.00 262.48 221.83 265.95
  Q 221.53 266.20 221.15 266.26
  C 220.46 266.39 217.45 269.34 216.02 270.23" stroke="#d60000"></path>
</g>
<path d="M 299.88 268.69
  A 30.06 30.06 0.0 0 1 269.82 298.75
  L 80.18 298.75
  A 30.06 30.06 0.0 0 1 50.12 268.69
  L 50.12 82.07
  A 30.06 30.06 0.0 0 1 80.18 52.01
  L 269.82 52.01
  A 30.06 30.06 0.0 0 1 299.88 82.07
  L 299.88 268.69
  Z
  M 97.24 100.34
  L 97.28 119.54
  L 97.52 158.94
  L 97.71 196.04
  L 97.76 212.71
  L 98.10 238.91
  L 98.08 251.78
  Q 98.02 259.53 98.18 267.25
  C 98.27 271.71 101.87 274.95 106.17 272.43
  Q 185.92 225.81 265.63 179.15
  C 269.01 177.17 269.75 172.34 266.12 170.11
  Q 261.11 167.04 246.64 158.96
  L 216.30 141.68
  L 170.87 115.81
  L 137.71 96.91
  L 119.50 86.57
  Q 112.84 82.69 106.67 79.01
  C 101.66 76.02 97.29 77.63 97.17 83.82
  Q 97.00 91.98 97.24 100.34
  Z
  M 183.64 250.17
  L 194.74 257.04
  L 205.33 263.59
  L 216.02 270.23
  Q 221.89 274.33 228.14 273.32
  Q 231.47 272.79 238.79 268.42
  Q 252.55 260.23 266.33 252.10
  Q 269.90 249.99 268.02 246.19
  C 266.69 243.51 260.73 240.71 257.19 238.76
  L 245.65 232.04
  L 234.82 225.73
  L 223.25 218.98
  C 214.71 214.98 208.65 216.89 200.34 221.76
  Q 184.43 231.08 168.60 240.44
  A 0.24 0.24 0.0 0 0 168.60 240.86
  L 183.64 250.17
  Z" fill="#ffffff"></path>
<path d="M 119.50 86.57
  L 115.35 88.28
  Q 114.91 88.46 114.94 88.93
  Q 115.00 89.68 114.28 90.01
  Q 113.85 90.21 113.40 90.07
  Q 112.55 89.80 112.05 90.56
  Q 111.16 91.89 109.71 91.88
  A 0.10 0.10 0.0 0 0 109.65 92.06
  Q 109.80 92.16 109.92 92.30
  Q 110.22 92.66 109.77 92.79
  Q 107.91 93.38 106.66 94.93
  Q 106.48 95.15 106.20 95.15
  L 105.77 95.15
  Q 105.29 95.14 104.96 95.50
  Q 101.97 98.73 97.24 100.34
  Q 97.00 91.98 97.17 83.82
  C 97.29 77.63 101.66 76.02 106.67 79.01
  Q 112.84 82.69 119.50 86.57
  Z" fill="#290000"></path>
<path d="M 119.50 86.57
  L 137.71 96.91
  L 133.99 99.16
  Q 133.59 99.40 133.28 99.73
  C 132.28 100.78 131.10 100.63 130.19 101.41
  Q 129.50 102.01 128.93 102.77
  Q 128.67 103.12 128.24 103.12
  L 127.76 103.12
  A 0.36 0.35 -1.5 0 0 127.40 103.49
  Q 127.45 104.87 126.04 104.97
  Q 125.98 104.98 125.96 104.92
  Q 125.94 104.89 125.93 104.86
  Q 125.90 104.79 125.74 104.80
  Q 123.40 105.00 121.99 106.76
  Q 121.72 107.10 121.29 107.19
  C 119.32 107.60 119.03 109.36 117.10 109.90
  Q 116.60 110.04 116.30 110.46
  Q 115.76 111.23 114.78 111.14
  Q 114.34 111.09 114.13 111.49
  Q 113.65 112.43 112.59 112.06
  A 0.56 0.56 0.0 0 0 111.88 112.40
  L 111.73 112.82
  Q 111.69 112.93 111.57 112.96
  L 109.25 113.45
  Q 108.57 113.60 108.93 114.18
  Q 109.28 114.76 108.62 115.12
  A 0.96 0.95 75.9 0 0 108.12 115.96
  L 108.12 116.47
  Q 108.12 117.13 107.49 117.33
  Q 106.42 117.68 106.00 118.74
  A 0.67 0.66 16.0 0 1 105.26 119.14
  Q 104.42 118.97 103.77 119.34
  Q 103.46 119.51 103.31 119.83
  Q 102.93 120.64 101.90 120.76
  Q 101.37 120.82 101.00 121.20
  L 99.22 123.06
  A 0.13 0.13 0.0 0 1 99.02 123.03
  Q 98.95 122.88 98.91 122.76
  Q 98.76 122.31 98.41 122.61
  Q 98.28 122.72 98.16 122.79
  Q 97.83 122.99 97.77 122.61
  L 97.28 119.54
  L 97.24 100.34
  Q 101.97 98.73 104.96 95.50
  Q 105.29 95.14 105.77 95.15
  L 106.20 95.15
  Q 106.48 95.15 106.66 94.93
  Q 107.91 93.38 109.77 92.79
  Q 110.22 92.66 109.92 92.30
  Q 109.80 92.16 109.65 92.06
  A 0.10 0.10 0.0 0 1 109.71 91.88
  Q 111.16 91.89 112.05 90.56
  Q 112.55 89.80 113.40 90.07
  Q 113.85 90.21 114.28 90.01
  Q 115.00 89.68 114.94 88.93
  Q 114.91 88.46 115.35 88.28
  L 119.50 86.57
  Z" fill="#430101"></path>
<path d="M 137.71 96.91
  L 170.87 115.81
  L 168.05 117.95
  Q 167.87 118.08 167.70 117.95
  Q 167.56 117.85 167.40 117.92
  Q 167.28 117.97 167.15 118.20
  Q 166.59 119.19 165.00 118.82
  Q 164.18 118.63 163.96 119.42
  Q 163.82 119.91 163.32 119.88
  Q 161.36 119.77 160.24 121.29
  Q 159.94 121.70 159.47 121.88
  Q 158.55 122.23 158.95 123.28
  A 0.44 0.44 0.0 0 1 158.50 123.88
  Q 157.80 123.82 157.88 124.53
  Q 157.94 125.02 157.46 124.90
  Q 156.38 124.61 155.85 125.50
  Q 155.64 125.87 155.21 125.86
  Q 154.37 125.85 153.96 126.60
  Q 153.80 126.89 153.48 126.89
  L 152.87 126.89
  Q 152.42 126.89 152.12 127.22
  Q 150.77 128.72 148.91 129.68
  Q 148.51 129.89 148.24 130.25
  L 147.84 130.78
  Q 147.75 130.90 147.60 130.89
  Q 147.31 130.87 147.02 130.90
  Q 146.66 130.94 146.37 131.17
  Q 145.08 132.20 143.50 132.85
  Q 143.06 133.04 142.90 133.49
  Q 142.73 133.97 142.25 133.92
  Q 141.70 133.86 141.29 134.24
  L 138.70 136.60
  Q 138.24 137.02 137.64 136.90
  Q 136.08 136.60 134.95 137.55
  Q 134.53 137.90 133.98 137.90
  L 133.51 137.90
  Q 132.97 137.90 132.98 138.44
  Q 133.03 139.91 131.52 139.93
  Q 130.85 139.94 130.87 140.54
  Q 130.89 140.95 130.47 140.90
  Q 129.31 140.76 128.20 141.07
  Q 128.20 141.07 128.01 141.26
  Q 127.80 141.49 127.99 141.71
  Q 128.20 141.96 128.00 142.22
  Q 127.20 143.21 126.01 143.65
  A 3.58 0.35 -18.5 0 0 123.99 144.55
  Q 123.43 144.93 123.76 145.24
  A 0.38 0.38 0.0 0 1 123.50 145.89
  L 122.52 145.89
  Q 121.93 145.89 121.91 146.48
  L 121.84 148.18
  A 0.61 0.61 0.0 0 1 121.36 148.76
  Q 119.79 149.10 118.23 148.84
  Q 117.27 148.68 116.91 149.45
  Q 116.71 149.89 116.23 149.89
  L 115.75 149.89
  Q 114.89 149.89 114.89 150.75
  L 114.89 151.25
  A 0.70 0.70 0.0 0 1 114.02 151.92
  Q 112.54 151.54 111.66 152.59
  Q 111.42 152.87 111.05 152.86
  C 110.08 152.82 108.98 154.54 107.79 154.94
  Q 107.34 155.09 106.97 155.37
  L 104.71 157.04
  A 0.10 0.10 0.0 0 0 104.70 157.19
  Q 104.79 157.28 104.88 157.37
  Q 105.08 157.58 104.80 157.67
  Q 104.07 157.91 102.49 157.87
  Q 101.86 157.85 101.89 158.45
  Q 101.92 158.89 101.47 158.90
  L 97.52 158.94
  L 97.28 119.54
  L 97.77 122.61
  Q 97.83 122.99 98.16 122.79
  Q 98.28 122.72 98.41 122.61
  Q 98.76 122.31 98.91 122.76
  Q 98.95 122.88 99.02 123.03
  A 0.13 0.13 0.0 0 0 99.22 123.06
  L 101.00 121.20
  Q 101.37 120.82 101.90 120.76
  Q 102.93 120.64 103.31 119.83
  Q 103.46 119.51 103.77 119.34
  Q 104.42 118.97 105.26 119.14
  A 0.67 0.66 16.0 0 0 106.00 118.74
  Q 106.42 117.68 107.49 117.33
  Q 108.12 117.13 108.12 116.47
  L 108.12 115.96
  A 0.96 0.95 75.9 0 1 108.62 115.12
  Q 109.28 114.76 108.93 114.18
  Q 108.57 113.60 109.25 113.45
  L 111.57 112.96
  Q 111.69 112.93 111.73 112.82
  L 111.88 112.40
  A 0.56 0.56 0.0 0 1 112.59 112.06
  Q 113.65 112.43 114.13 111.49
  Q 114.34 111.09 114.78 111.14
  Q 115.76 111.23 116.30 110.46
  Q 116.60 110.04 117.10 109.90
  C 119.03 109.36 119.32 107.60 121.29 107.19
  Q 121.72 107.10 121.99 106.76
  Q 123.40 105.00 125.74 104.80
  Q 125.90 104.79 125.93 104.86
  Q 125.94 104.89 125.96 104.92
  Q 125.98 104.98 126.04 104.97
  Q 127.45 104.87 127.40 103.49
  A 0.36 0.35 -1.5 0 1 127.76 103.12
  L 128.24 103.12
  Q 128.67 103.12 128.93 102.77
  Q 129.50 102.01 130.19 101.41
  C 131.10 100.63 132.28 100.78 133.28 99.73
  Q 133.59 99.40 133.99 99.16
  L 137.71 96.91
  Z" fill="#5f0100"></path>
<path d="M 170.87 115.81
  L 216.30 141.68
  C 215.89 143.74 214.35 143.71 212.86 144.56
  Q 212.69 144.65 212.00 144.86
  Q 211.54 145.00 211.19 144.72
  Q 210.93 144.51 210.73 144.78
  Q 210.63 144.93 210.62 145.10
  Q 210.61 145.41 210.34 145.55
  Q 209.72 145.89 209.05 145.89
  Q 208.50 145.89 208.14 146.32
  Q 206.54 148.24 204.21 149.04
  A 0.47 0.46 -7.6 0 0 203.89 149.45
  Q 203.87 149.77 203.55 149.91
  A 0.16 0.16 0.0 0 1 203.37 149.88
  Q 203.26 149.77 203.15 149.66
  Q 203.06 149.57 202.96 149.65
  L 199.59 152.39
  Q 199.21 152.70 198.73 152.75
  Q 197.99 152.81 197.83 153.38
  Q 197.72 153.75 197.34 153.85
  Q 196.96 153.96 196.88 154.20
  Q 196.78 154.54 196.44 154.62
  L 195.45 154.87
  Q 194.99 154.99 194.84 155.46
  Q 194.75 155.74 194.57 156.00
  Q 194.27 156.40 193.77 156.48
  Q 192.64 156.67 192.17 157.40
  Q 191.91 157.80 191.50 158.05
  Q 189.98 158.99 188.95 160.33
  Q 188.63 160.74 188.13 160.64
  Q 186.74 160.35 186.14 161.47
  Q 186.00 161.74 185.72 161.85
  Q 185.56 161.90 185.41 161.98
  Q 185.21 162.08 184.96 162.41
  Q 184.43 163.12 183.57 162.87
  Q 183.10 162.73 182.68 162.98
  L 178.35 165.54
  Q 167.54 159.41 156.62 153.17
  C 152.99 151.09 149.38 149.82 146.52 153.38
  C 145.72 154.38 145.03 156.66 145.04 157.75
  Q 145.14 170.63 145.23 182.70
  Q 141.36 181.94 138.47 183.46
  Q 136.33 184.59 135.07 184.92
  Q 134.60 185.05 134.17 184.82
  Q 133.57 184.51 133.01 185.05
  Q 132.65 185.40 132.16 185.33
  Q 131.53 185.24 131.19 185.80
  Q 130.90 186.27 130.37 186.41
  L 120.56 189.08
  Q 120.15 189.19 119.89 189.53
  Q 119.52 190.00 118.86 190.03
  Q 118.41 190.06 118.77 189.79
  Q 119.02 189.60 118.89 189.35
  A 0.28 0.27 -32.3 0 0 118.47 189.26
  L 115.74 191.49
  Q 115.29 191.86 114.73 191.69
  L 114.10 191.50
  Q 113.58 191.34 113.07 191.51
  Q 111.55 192.01 110.04 192.49
  C 108.98 192.83 107.72 192.75 106.61 193.71
  Q 106.23 194.04 105.73 194.00
  Q 104.67 193.90 103.87 194.57
  Q 103.50 194.88 103.01 194.90
  L 101.74 194.94
  Q 101.25 194.95 101.00 195.37
  Q 100.38 196.41 97.71 196.04
  L 97.52 158.94
  L 101.47 158.90
  Q 101.92 158.89 101.89 158.45
  Q 101.86 157.85 102.49 157.87
  Q 104.07 157.91 104.80 157.67
  Q 105.08 157.58 104.88 157.37
  Q 104.79 157.28 104.70 157.19
  A 0.10 0.10 0.0 0 1 104.71 157.04
  L 106.97 155.37
  Q 107.34 155.09 107.79 154.94
  C 108.98 154.54 110.08 152.82 111.05 152.86
  Q 111.42 152.87 111.66 152.59
  Q 112.54 151.54 114.02 151.92
  A 0.70 0.70 0.0 0 0 114.89 151.25
  L 114.89 150.75
  Q 114.89 149.89 115.75 149.89
  L 116.23 149.89
  Q 116.71 149.89 116.91 149.45
  Q 117.27 148.68 118.23 148.84
  Q 119.79 149.10 121.36 148.76
  A 0.61 0.61 0.0 0 0 121.84 148.18
  L 121.91 146.48
  Q 121.93 145.89 122.52 145.89
  L 123.50 145.89
  A 0.38 0.38 0.0 0 0 123.76 145.24
  Q 123.43 144.93 123.99 144.55
  A 3.58 0.35 -18.5 0 1 126.01 143.65
  Q 127.20 143.21 128.00 142.22
  Q 128.20 141.96 127.99 141.71
  Q 127.80 141.49 128.01 141.26
  Q 128.20 141.07 128.20 141.07
  Q 129.31 140.76 130.47 140.90
  Q 130.89 140.95 130.87 140.54
  Q 130.85 139.94 131.52 139.93
  Q 133.03 139.91 132.98 138.44
  Q 132.97 137.90 133.51 137.90
  L 133.98 137.90
  Q 134.53 137.90 134.95 137.55
  Q 136.08 136.60 137.64 136.90
  Q 138.24 137.02 138.70 136.60
  L 141.29 134.24
  Q 141.70 133.86 142.25 133.92
  Q 142.73 133.97 142.90 133.49
  Q 143.06 133.04 143.50 132.85
  Q 145.08 132.20 146.37 131.17
  Q 146.66 130.94 147.02 130.90
  Q 147.31 130.87 147.60 130.89
  Q 147.75 130.90 147.84 130.78
  L 148.24 130.25
  Q 148.51 129.89 148.91 129.68
  Q 150.77 128.72 152.12 127.22
  Q 152.42 126.89 152.87 126.89
  L 153.48 126.89
  Q 153.80 126.89 153.96 126.60
  Q 154.37 125.85 155.21 125.86
  Q 155.64 125.87 155.85 125.50
  Q 156.38 124.61 157.46 124.90
  Q 157.94 125.02 157.88 124.53
  Q 157.80 123.82 158.50 123.88
  A 0.44 0.44 0.0 0 0 158.95 123.28
  Q 158.55 122.23 159.47 121.88
  Q 159.94 121.70 160.24 121.29
  Q 161.36 119.77 163.32 119.88
  Q 163.82 119.91 163.96 119.42
  Q 164.18 118.63 165.00 118.82
  Q 166.59 119.19 167.15 118.20
  Q 167.28 117.97 167.40 117.92
  Q 167.56 117.85 167.70 117.95
  Q 167.87 118.08 168.05 117.95
  L 170.87 115.81
  Z" fill="#860101"></path>
<path d="M 216.30 141.68
  L 246.64 158.96
  Q 246.31 159.41 246.32 159.76
  Q 246.32 160.36 246.89 160.15
  L 247.35 159.99
  Q 247.86 159.80 247.83 160.35
  Q 247.82 160.63 247.47 160.74
  Q 246.47 161.05 245.85 161.56
  A 0.66 0.65 35.4 0 1 245.23 161.66
  L 244.76 161.49
  Q 244.33 161.35 244.06 161.70
  C 242.88 163.20 241.40 163.13 240.25 164.40
  Q 239.89 164.79 239.42 165.02
  Q 236.92 166.27 234.94 168.31
  Q 234.62 168.66 234.15 168.72
  C 232.36 168.99 231.08 171.14 230.00 171.12
  Q 229.54 171.12 229.25 171.47
  Q 228.68 172.17 227.78 172.39
  Q 227.38 172.49 227.06 172.75
  L 224.44 174.89
  Q 224.07 175.19 223.61 175.09
  Q 222.78 174.91 222.51 175.68
  Q 220.65 177.05 219.37 178.22
  A 2.98 2.94 17.4 0 1 218.05 178.90
  Q 215.82 179.41 214.49 181.23
  A 1.06 1.04 -78.5 0 1 213.88 181.64
  Q 212.12 182.04 211.07 183.52
  Q 210.77 183.94 210.25 183.93
  Q 208.60 183.92 207.82 185.35
  Q 207.58 185.79 207.09 185.89
  Q 204.79 186.36 203.73 188.43
  Q 203.67 188.55 203.13 188.61
  Q 202.94 188.63 202.77 188.49
  A 0.45 0.44 42.4 0 0 202.18 188.51
  L 199.93 190.61
  Q 199.55 190.96 199.06 191.10
  Q 197.80 191.46 196.78 192.40
  Q 196.43 192.72 196.00 192.89
  Q 194.78 193.40 193.89 194.46
  Q 193.56 194.86 193.04 194.89
  Q 191.00 195.01 190.15 196.86
  A 1.36 1.33 -88.5 0 1 189.46 197.53
  C 187.19 198.46 184.24 199.78 182.68 201.69
  Q 182.36 202.08 181.86 202.10
  Q 181.27 202.12 180.71 202.40
  Q 180.43 202.54 180.36 202.84
  Q 180.18 203.58 179.56 203.79
  C 177.77 204.40 176.18 205.67 174.42 206.47
  Q 173.23 207.00 172.76 208.36
  Q 172.61 208.79 172.15 208.81
  Q 170.20 208.87 168.88 210.49
  Q 168.58 210.86 168.11 210.90
  Q 166.49 211.03 165.84 212.42
  Q 165.56 213.01 164.91 213.13
  Q 164.13 213.27 163.77 213.91
  Q 163.64 214.15 163.42 214.00
  Q 163.26 213.89 163.11 213.87
  Q 162.93 213.85 162.70 214.03
  Q 161.71 214.82 160.87 215.73
  Q 160.55 216.08 160.08 216.09
  Q 159.82 216.09 159.32 216.25
  Q 158.93 216.37 158.67 216.69
  C 157.89 217.67 156.52 218.08 155.68 218.74
  Q 154.36 219.77 152.85 220.51
  A 1.47 1.42 89.2 0 0 152.19 221.21
  Q 151.44 222.90 149.57 222.56
  A 0.76 0.75 -67.7 0 0 148.79 222.89
  Q 148.21 223.76 147.25 224.16
  Q 146.81 224.34 146.40 224.59
  L 142.45 227.09
  Q 142.17 227.26 142.04 227.57
  Q 141.92 227.86 141.60 228.02
  Q 141.50 228.07 141.40 228.03
  Q 141.29 227.98 141.18 227.90
  Q 141.10 227.84 141.03 227.90
  Q 139.00 229.67 136.62 230.90
  C 134.61 231.93 133.18 233.73 130.72 234.36
  Q 130.25 234.48 130.09 234.93
  C 129.07 237.68 123.79 238.07 121.82 240.83
  A 0.66 0.66 0.0 0 1 121.31 241.10
  Q 121.16 241.10 121.00 241.10
  A 0.88 0.88 0.0 0 0 120.22 241.48
  Q 119.32 242.76 117.77 242.95
  A 1.04 1.01 -77.5 0 0 117.02 243.44
  Q 116.31 244.62 115.01 244.89
  Q 114.52 245.00 114.26 245.42
  Q 113.73 246.29 112.82 246.10
  Q 112.36 246.00 112.11 246.40
  Q 111.11 247.95 109.54 248.64
  Q 106.85 249.83 106.64 249.97
  Q 103.99 251.71 100.91 254.06
  A 1.70 1.44 50.4 0 1 98.79 253.68
  Q 98.44 253.27 98.08 251.78
  L 98.10 238.91
  Q 99.20 235.19 101.22 232.97
  Q 104.71 229.12 109.09 226.33
  Q 127.35 214.70 145.54 203.09
  Q 164.96 191.83 184.29 180.53
  C 189.08 177.73 189.48 172.14 184.55 169.18
  Q 181.56 167.38 178.35 165.54
  L 182.68 162.98
  Q 183.10 162.73 183.57 162.87
  Q 184.43 163.12 184.96 162.41
  Q 185.21 162.08 185.41 161.98
  Q 185.56 161.90 185.72 161.85
  Q 186.00 161.74 186.14 161.47
  Q 186.74 160.35 188.13 160.64
  Q 188.63 160.74 188.95 160.33
  Q 189.98 158.99 191.50 158.05
  Q 191.91 157.80 192.17 157.40
  Q 192.64 156.67 193.77 156.48
  Q 194.27 156.40 194.57 156.00
  Q 194.75 155.74 194.84 155.46
  Q 194.99 154.99 195.45 154.87
  L 196.44 154.62
  Q 196.78 154.54 196.88 154.20
  Q 196.96 153.96 197.34 153.85
  Q 197.72 153.75 197.83 153.38
  Q 197.99 152.81 198.73 152.75
  Q 199.21 152.70 199.59 152.39
  L 202.96 149.65
  Q 203.06 149.57 203.15 149.66
  Q 203.26 149.77 203.37 149.88
  A 0.16 0.16 0.0 0 0 203.55 149.91
  Q 203.87 149.77 203.89 149.45
  A 0.47 0.46 -7.6 0 1 204.21 149.04
  Q 206.54 148.24 208.14 146.32
  Q 208.50 145.89 209.05 145.89
  Q 209.72 145.89 210.34 145.55
  Q 210.61 145.41 210.62 145.10
  Q 210.63 144.93 210.73 144.78
  Q 210.93 144.51 211.19 144.72
  Q 211.54 145.00 212.00 144.86
  Q 212.69 144.65 212.86 144.56
  C 214.35 143.71 215.89 143.74 216.30 141.68
  Z" fill="#c30000"></path>
<path d="M 178.35 165.54
  Q 181.56 167.38 184.55 169.18
  C 189.48 172.14 189.08 177.73 184.29 180.53
  Q 164.96 191.83 145.54 203.09
  L 145.44 199.23
  L 145.23 182.70
  Q 145.14 170.63 145.04 157.75
  C 145.03 156.66 145.72 154.38 146.52 153.38
  C 149.38 149.82 152.99 151.09 156.62 153.17
  Q 167.54 159.41 178.35 165.54
  Z" fill="#ffffff"></path>
<path d="M 246.64 158.96
  Q 261.11 167.04 266.12 170.11
  C 269.75 172.34 269.01 177.17 265.63 179.15
  Q 185.92 225.81 106.17 272.43
  C 101.87 274.95 98.27 271.71 98.18 267.25
  Q 98.02 259.53 98.08 251.78
  Q 98.44 253.27 98.79 253.68
  A 1.70 1.44 50.4 0 0 100.91 254.06
  Q 103.99 251.71 106.64 249.97
  Q 106.85 249.83 109.54 248.64
  Q 111.11 247.95 112.11 246.40
  Q 112.36 246.00 112.82 246.10
  Q 113.73 246.29 114.26 245.42
  Q 114.52 245.00 115.01 244.89
  Q 116.31 244.62 117.02 243.44
  A 1.04 1.01 -77.5 0 1 117.77 242.95
  Q 119.32 242.76 120.22 241.48
  A 0.88 0.88 0.0 0 1 121.00 241.10
  Q 121.16 241.10 121.31 241.10
  A 0.66 0.66 0.0 0 0 121.82 240.83
  C 123.79 238.07 129.07 237.68 130.09 234.93
  Q 130.25 234.48 130.72 234.36
  C 133.18 233.73 134.61 231.93 136.62 230.90
  Q 139.00 229.67 141.03 227.90
  Q 141.10 227.84 141.18 227.90
  Q 141.29 227.98 141.40 228.03
  Q 141.50 228.07 141.60 228.02
  Q 141.92 227.86 142.04 227.57
  Q 142.17 227.26 142.45 227.09
  L 146.40 224.59
  Q 146.81 224.34 147.25 224.16
  Q 148.21 223.76 148.79 222.89
  A 0.76 0.75 -67.7 0 1 149.57 222.56
  Q 151.44 222.90 152.19 221.21
  A 1.47 1.42 89.2 0 1 152.85 220.51
  Q 154.36 219.77 155.68 218.74
  C 156.52 218.08 157.89 217.67 158.67 216.69
  Q 158.93 216.37 159.32 216.25
  Q 159.82 216.09 160.08 216.09
  Q 160.55 216.08 160.87 215.73
  Q 161.71 214.82 162.70 214.03
  Q 162.93 213.85 163.11 213.87
  Q 163.26 213.89 163.42 214.00
  Q 163.64 214.15 163.77 213.91
  Q 164.13 213.27 164.91 213.13
  Q 165.56 213.01 165.84 212.42
  Q 166.49 211.03 168.11 210.90
  Q 168.58 210.86 168.88 210.49
  Q 170.20 208.87 172.15 208.81
  Q 172.61 208.79 172.76 208.36
  Q 173.23 207.00 174.42 206.47
  C 176.18 205.67 177.77 204.40 179.56 203.79
  Q 180.18 203.58 180.36 202.84
  Q 180.43 202.54 180.71 202.40
  Q 181.27 202.12 181.86 202.10
  Q 182.36 202.08 182.68 201.69
  C 184.24 199.78 187.19 198.46 189.46 197.53
  A 1.36 1.33 -88.5 0 0 190.15 196.86
  Q 191.00 195.01 193.04 194.89
  Q 193.56 194.86 193.89 194.46
  Q 194.78 193.40 196.00 192.89
  Q 196.43 192.72 196.78 192.40
  Q 197.80 191.46 199.06 191.10
  Q 199.55 190.96 199.93 190.61
  L 202.18 188.51
  A 0.45 0.44 42.4 0 1 202.77 188.49
  Q 202.94 188.63 203.13 188.61
  Q 203.67 188.55 203.73 188.43
  Q 204.79 186.36 207.09 185.89
  Q 207.58 185.79 207.82 185.35
  Q 208.60 183.92 210.25 183.93
  Q 210.77 183.94 211.07 183.52
  Q 212.12 182.04 213.88 181.64
  A 1.06 1.04 -78.5 0 0 214.49 181.23
  Q 215.82 179.41 218.05 178.90
  A 2.98 2.94 17.4 0 0 219.37 178.22
  Q 220.65 177.05 222.51 175.68
  Q 222.78 174.91 223.61 175.09
  Q 224.07 175.19 224.44 174.89
  L 227.06 172.75
  Q 227.38 172.49 227.78 172.39
  Q 228.68 172.17 229.25 171.47
  Q 229.54 171.12 230.00 171.12
  C 231.08 171.14 232.36 168.99 234.15 168.72
  Q 234.62 168.66 234.94 168.31
  Q 236.92 166.27 239.42 165.02
  Q 239.89 164.79 240.25 164.40
  C 241.40 163.13 242.88 163.20 244.06 161.70
  Q 244.33 161.35 244.76 161.49
  L 245.23 161.66
  A 0.66 0.65 35.4 0 0 245.85 161.56
  Q 246.47 161.05 247.47 160.74
  Q 247.82 160.63 247.83 160.35
  Q 247.86 159.80 247.35 159.99
  L 246.89 160.15
  Q 246.32 160.36 246.32 159.76
  Q 246.31 159.41 246.64 158.96
  Z" fill="#e80000"></path>
<path d="M 145.23 182.70
  L 145.44 199.23
  L 144.83 197.40
  Q 144.67 196.89 144.15 197.03
  Q 139.17 198.40 134.37 200.29
  C 133.25 200.73 131.59 200.61 130.75 201.08
  Q 129.04 202.04 127.28 202.93
  Q 126.82 203.16 126.31 203.12
  Q 124.27 202.96 122.83 204.38
  Q 122.46 204.75 121.96 204.90
  L 104.43 210.31
  Q 103.96 210.45 103.58 210.77
  Q 101.53 212.51 97.76 212.71
  L 97.71 196.04
  Q 100.38 196.41 101.00 195.37
  Q 101.25 194.95 101.74 194.94
  L 103.01 194.90
  Q 103.50 194.88 103.87 194.57
  Q 104.67 193.90 105.73 194.00
  Q 106.23 194.04 106.61 193.71
  C 107.72 192.75 108.98 192.83 110.04 192.49
  Q 111.55 192.01 113.07 191.51
  Q 113.58 191.34 114.10 191.50
  L 114.73 191.69
  Q 115.29 191.86 115.74 191.49
  L 118.47 189.26
  A 0.28 0.27 -32.3 0 1 118.89 189.35
  Q 119.02 189.60 118.77 189.79
  Q 118.41 190.06 118.86 190.03
  Q 119.52 190.00 119.89 189.53
  Q 120.15 189.19 120.56 189.08
  L 130.37 186.41
  Q 130.90 186.27 131.19 185.80
  Q 131.53 185.24 132.16 185.33
  Q 132.65 185.40 133.01 185.05
  Q 133.57 184.51 134.17 184.82
  Q 134.60 185.05 135.07 184.92
  Q 136.33 184.59 138.47 183.46
  Q 141.36 181.94 145.23 182.70
  Z" fill="#5f0100"></path>
<path d="M 145.44 199.23
  L 145.54 203.09
  Q 127.35 214.70 109.09 226.33
  Q 104.71 229.12 101.22 232.97
  Q 99.20 235.19 98.10 238.91
  L 97.76 212.71
  Q 101.53 212.51 103.58 210.77
  Q 103.96 210.45 104.43 210.31
  L 121.96 204.90
  Q 122.46 204.75 122.83 204.38
  Q 124.27 202.96 126.31 203.12
  Q 126.82 203.16 127.28 202.93
  Q 129.04 202.04 130.75 201.08
  C 131.59 200.61 133.25 200.73 134.37 200.29
  Q 139.17 198.40 144.15 197.03
  Q 144.67 196.89 144.83 197.40
  L 145.44 199.23
  Z" fill="#290000"></path>
<path d="M 223.25 218.98
  L 221.63 221.26
  Q 221.37 221.62 220.97 221.78
  Q 219.76 222.27 218.95 223.35
  Q 218.64 223.75 218.16 223.94
  C 216.86 224.46 216.36 225.41 215.24 226.03
  Q 212.06 227.80 209.08 229.88
  Q 206.47 231.71 204.00 233.75
  C 203.00 234.59 201.81 234.92 200.77 235.98
  C 198.46 238.35 195.72 239.97 192.90 241.66
  C 191.63 242.42 190.94 243.79 189.63 244.25
  A 1.21 1.18 -76.7 0 0 189.19 244.53
  L 183.64 250.17
  L 168.60 240.86
  A 0.24 0.24 0.0 0 1 168.60 240.44
  Q 184.43 231.08 200.34 221.76
  C 208.65 216.89 214.71 214.98 223.25 218.98
  Z" fill="#430101"></path>
<path d="M 223.25 218.98
  L 234.82 225.73
  Q 230.59 228.01 227.48 231.35
  Q 226.73 232.15 224.46 233.33
  C 219.54 235.89 215.87 240.45 211.12 243.35
  Q 210.40 243.79 209.28 244.64
  Q 206.18 246.97 203.29 249.55
  C 201.85 250.83 199.70 251.75 198.27 253.39
  Q 197.63 254.12 196.41 255.04
  Q 195.36 255.84 194.74 257.04
  L 183.64 250.17
  L 189.19 244.53
  A 1.21 1.18 -76.7 0 1 189.63 244.25
  C 190.94 243.79 191.63 242.42 192.90 241.66
  C 195.72 239.97 198.46 238.35 200.77 235.98
  C 201.81 234.92 203.00 234.59 204.00 233.75
  Q 206.47 231.71 209.08 229.88
  Q 212.06 227.80 215.24 226.03
  C 216.36 225.41 216.86 224.46 218.16 223.94
  Q 218.64 223.75 218.95 223.35
  Q 219.76 222.27 220.97 221.78
  Q 221.37 221.62 221.63 221.26
  L 223.25 218.98
  Z" fill="#5f0100"></path>
<path d="M 234.82 225.73
  L 245.65 232.04
  L 238.56 237.10
  Q 238.18 237.37 237.72 237.49
  C 236.43 237.83 235.79 239.20 235.11 239.73
  C 231.26 242.74 226.91 245.21 223.28 248.43
  Q 222.29 249.31 220.63 250.63
  Q 216.28 254.06 211.84 257.37
  Q 211.56 257.58 211.22 257.63
  Q 210.94 257.67 210.64 257.89
  Q 206.96 260.56 205.33 263.59
  L 194.74 257.04
  Q 195.36 255.84 196.41 255.04
  Q 197.63 254.12 198.27 253.39
  C 199.70 251.75 201.85 250.83 203.29 249.55
  Q 206.18 246.97 209.28 244.64
  Q 210.40 243.79 211.12 243.35
  C 215.87 240.45 219.54 235.89 224.46 233.33
  Q 226.73 232.15 227.48 231.35
  Q 230.59 228.01 234.82 225.73
  Z" fill="#860101"></path>
<path d="M 245.65 232.04
  L 257.19 238.76
  Q 256.74 239.74 255.77 240.14
  Q 255.32 240.33 254.94 240.62
  L 245.55 247.80
  Q 245.20 248.06 244.79 247.91
  Q 244.52 247.82 244.24 248.12
  Q 242.70 249.78 241.08 250.81
  Q 239.13 252.05 237.90 253.29
  C 236.44 254.77 234.58 255.92 233.12 257.18
  Q 231.81 258.31 230.40 259.32
  Q 226.00 262.48 221.83 265.95
  Q 221.53 266.20 221.15 266.26
  C 220.46 266.39 217.45 269.34 216.02 270.23
  L 205.33 263.59
  Q 206.96 260.56 210.64 257.89
  Q 210.94 257.67 211.22 257.63
  Q 211.56 257.58 211.84 257.37
  Q 216.28 254.06 220.63 250.63
  Q 222.29 249.31 223.28 248.43
  C 226.91 245.21 231.26 242.74 235.11 239.73
  C 235.79 239.20 236.43 237.83 237.72 237.49
  Q 238.18 237.37 238.56 237.10
  L 245.65 232.04
  Z" fill="#c30000"></path>
<path d="M 257.19 238.76
  C 260.73 240.71 266.69 243.51 268.02 246.19
  Q 269.90 249.99 266.33 252.10
  Q 252.55 260.23 238.79 268.42
  Q 231.47 272.79 228.14 273.32
  Q 221.89 274.33 216.02 270.23
  C 217.45 269.34 220.46 266.39 221.15 266.26
  Q 221.53 266.20 221.83 265.95
  Q 226.00 262.48 230.40 259.32
  Q 231.81 258.31 233.12 257.18
  C 234.58 255.92 236.44 254.77 237.90 253.29
  Q 239.13 252.05 241.08 250.81
  Q 242.70 249.78 244.24 248.12
  Q 244.52 247.82 244.79 247.91
  Q 245.20 248.06 245.55 247.80
  L 254.94 240.62
  Q 255.32 240.33 255.77 240.14
  Q 256.74 239.74 257.19 238.76
  Z" fill="#e80000"></path>
</svg>
