<svg viewBox="0.00 0.00 192.00 192.00" version="1.1" xmlns="http://www.w3.org/2000/svg">
<g stroke-linecap="butt" fill="none" stroke-width="2.00">
<path d="M 155.34 116.04
  Q 149.63 111.18 143.13 107.63
  C 140.91 106.42 137.76 105.51 135.38 104.01
  Q 131.08 101.30 128.35 99.92
  Q 128.12 99.80 128.09 100.03
  A 0.30 0.30 0.0 0 1 127.67 100.27
  L 119.01 96.35
  Q 118.51 96.12 117.96 96.12
  Q 115.70 96.11 113.44 96.11
  A 0.22 0.21 22.4 0 1 113.28 95.74
  L 113.50 95.51
  Q 113.68 95.33 113.50 95.14
  Q 112.64 94.27 111.67 93.48
  Q 111.58 93.41 111.46 93.38
  L 111.08 93.28
  Q 111.00 93.26 110.98 93.18
  Q 110.96 93.01 111.11 92.86
  Q 111.13 92.84 111.10 92.85
  C 109.86 93.15 109.11 92.81 108.45 91.81
  Q 108.15 91.34 107.64 91.44
  Q 107.21 91.53 106.82 91.31
  Q 106.07 90.90 105.76 90.05
  Q 105.74 90.01 105.63 90.12
  L 105.41 90.33
  Q 105.25 90.48 105.05 90.39
  Q 103.63 89.70 102.06 89.97
  Q 101.68 90.03 101.39 89.79
  Q 101.23 89.66 101.13 89.50
  Q 100.94 89.19 100.58 89.17
  C 99.32 89.09 99.01 88.43 98.02 88.21
  Q 97.34 88.07 96.99 88.36" stroke="#3ec8ff"></path>
<path d="M 60.40 69.48
  L 53.93 66.06" stroke="#3ec8ff"></path>
<path d="M 59.98 100.14
  Q 52.63 97.08 45.72 93.81
  C 42.06 92.08 38.03 89.16 33.90 87.76
  Q 33.07 87.48 31.75 86.62
  Q 28.27 84.35 23.25 84.40" stroke="#788fff"></path>
<path d="M 74.01 120.42
  Q 74.71 122.04 75.94 122.59
  C 77.76 123.40 78.87 124.16 80.40 125.13
  C 84.31 127.61 89.16 128.23 93.33 130.28
  C 98.05 132.61 102.91 134.67 107.08 137.95
  Q 107.44 138.24 107.89 138.13
  Q 108.95 137.87 109.28 138.88
  Q 109.40 139.26 109.80 139.30
  Q 110.16 139.34 110.23 139.77
  Q 110.36 140.52 110.88 139.88
  Q 110.97 139.77 111.09 139.70
  Q 111.41 139.52 111.57 139.86
  Q 111.67 140.06 111.55 140.29" stroke="#788fff"></path>
<path d="M 60.18 157.44
  Q 54.71 156.01 49.74 153.27
  Q 49.42 153.10 48.87 153.13
  Q 48.37 153.15 47.95 152.87
  L 40.79 148.10
  A 1.00 0.93 -25.0 0 0 40.27 147.93
  C 38.69 147.85 37.77 146.28 36.16 145.89
  Q 35.68 145.77 35.29 145.46
  Q 31.96 142.78 28.50 140.25
  Q 26.20 138.57 24.36 137.79
  Q 23.87 137.58 23.87 137.04
  L 23.87 133.75
  Q 23.87 133.56 23.63 133.56
  L 23.62 133.56
  Q 23.44 133.57 23.44 133.75
  L 23.27 137.96" stroke="#b352ff"></path>
</g>
<path d="M 155.34 116.04
  Q 149.63 111.18 143.13 107.63
  C 140.91 106.42 137.76 105.51 135.38 104.01
  Q 131.08 101.30 128.35 99.92
  Q 128.12 99.80 128.09 100.03
  A 0.30 0.30 0.0 0 1 127.67 100.27
  L 119.01 96.35
  Q 118.51 96.12 117.96 96.12
  Q 115.70 96.11 113.44 96.11
  A 0.22 0.21 22.4 0 1 113.28 95.74
  L 113.50 95.51
  Q 113.68 95.33 113.50 95.14
  Q 112.64 94.27 111.67 93.48
  Q 111.58 93.41 111.46 93.38
  L 111.08 93.28
  Q 111.00 93.26 110.98 93.18
  Q 110.96 93.01 111.11 92.86
  Q 111.13 92.84 111.10 92.85
  C 109.86 93.15 109.11 92.81 108.45 91.81
  Q 108.15 91.34 107.64 91.44
  Q 107.21 91.53 106.82 91.31
  Q 106.07 90.90 105.76 90.05
  Q 105.74 90.01 105.63 90.12
  L 105.41 90.33
  Q 105.25 90.48 105.05 90.39
  Q 103.63 89.70 102.06 89.97
  Q 101.68 90.03 101.39 89.79
  Q 101.23 89.66 101.13 89.50
  Q 100.94 89.19 100.58 89.17
  C 99.32 89.09 99.01 88.43 98.02 88.21
  Q 97.34 88.07 96.99 88.36
  C 91.60 85.28 86.63 81.87 80.98 79.06
  Q 73.10 75.14 65.71 70.34
  C 64.56 69.60 63.58 68.29 62.21 67.54
  A 0.95 0.94 44.2 0 0 61.26 67.55
  Q 60.48 68.00 60.40 69.48
  L 53.93 66.06
  Q 55.02 65.22 53.84 64.42
  C 44.23 57.88 33.69 53.15 23.92 47.02
  A 1.79 1.79 0.0 0 1 23.07 45.48
  L 23.17 6.01
  A 0.51 0.50 15.7 0 1 23.94 5.58
  Q 30.02 9.36 36.14 13.05
  Q 40.57 15.72 48.62 19.99
  Q 56.13 23.97 63.41 28.39
  C 64.33 28.96 65.53 28.85 66.35 29.54
  C 69.24 31.96 73.42 33.64 75.70 34.99
  Q 79.15 37.04 82.56 39.14
  C 84.11 40.09 86.19 40.68 87.88 41.82
  Q 88.27 42.09 88.74 42.09
  Q 89.93 42.09 90.59 43.17
  A 0.69 0.66 -1.1 0 0 90.87 43.43
  L 100.01 48.66
  A 0.93 0.90 61.0 0 0 100.44 48.79
  Q 102.53 48.95 104.00 50.51
  Q 104.38 50.91 104.92 50.86
  Q 105.53 50.79 105.86 51.40
  Q 106.36 52.31 105.58 51.62
  Q 105.19 51.27 104.72 51.10
  Q 104.21 50.90 104.48 51.38
  Q 104.56 51.52 104.64 51.65
  Q 104.72 51.78 104.86 51.86
  Q 106.72 52.95 108.69 53.80
  C 112.88 55.60 116.77 57.89 120.64 60.29
  A 2.67 2.66 23.3 0 1 121.81 63.22
  Q 121.59 64.06 121.48 65.63
  Q 120.67 76.88 119.84 88.12
  Q 119.65 90.70 119.96 93.14
  A 1.51 1.51 0.0 0 0 122.42 94.11
  C 123.32 93.36 124.19 92.56 125.26 92.00
  Q 135.40 86.75 147.73 79.27
  C 149.25 78.35 150.74 78.63 152.25 79.64
  C 162.42 86.48 173.15 92.67 183.11 99.89
  A 0.69 0.69 0.0 0 1 183.04 101.06
  L 155.34 116.04
  Z" fill="#1ee5ff"></path>
<path d="M 60.40 69.48
  L 59.98 100.14
  Q 52.63 97.08 45.72 93.81
  C 42.06 92.08 38.03 89.16 33.90 87.76
  Q 33.07 87.48 31.75 86.62
  Q 28.27 84.35 23.25 84.40
  L 23.44 79.66
  Q 23.46 79.14 23.95 79.00
  C 31.94 76.61 39.51 72.48 46.91 68.66
  C 49.13 67.51 51.51 66.95 53.93 66.06
  L 60.40 69.48
  Z" fill="#5daaff"></path>
<path d="M 59.98 100.14
  Q 60.05 110.13 60.10 121.00
  Q 60.12 123.65 60.63 126.58
  A 1.34 1.34 0.0 0 0 62.70 127.46
  C 63.84 126.69 64.54 125.59 65.83 124.94
  Q 69.99 122.82 74.01 120.42
  Q 74.71 122.04 75.94 122.59
  C 77.76 123.40 78.87 124.16 80.40 125.13
  C 84.31 127.61 89.16 128.23 93.33 130.28
  C 98.05 132.61 102.91 134.67 107.08 137.95
  Q 107.44 138.24 107.89 138.13
  Q 108.95 137.87 109.28 138.88
  Q 109.40 139.26 109.80 139.30
  Q 110.16 139.34 110.23 139.77
  Q 110.36 140.52 110.88 139.88
  Q 110.97 139.77 111.09 139.70
  Q 111.41 139.52 111.57 139.86
  Q 111.67 140.06 111.55 140.29
  Q 101.22 146.56 90.42 151.92
  C 89.06 152.59 88.08 152.76 86.59 152.10
  C 79.85 149.13 73.93 145.66 67.58 141.98
  C 65.67 140.87 64.10 139.33 62.28 137.95
  A 0.63 0.63 0.0 0 0 61.44 138.03
  C 59.17 140.53 60.05 153.47 60.18 157.44
  Q 54.71 156.01 49.74 153.27
  Q 49.42 153.10 48.87 153.13
  Q 48.37 153.15 47.95 152.87
  L 40.79 148.10
  A 1.00 0.93 -25.0 0 0 40.27 147.93
  C 38.69 147.85 37.77 146.28 36.16 145.89
  Q 35.68 145.77 35.29 145.46
  Q 31.96 142.78 28.50 140.25
  Q 26.20 138.57 24.36 137.79
  Q 23.87 137.58 23.87 137.04
  L 23.87 133.75
  Q 23.87 133.56 23.63 133.56
  L 23.62 133.56
  Q 23.44 133.57 23.44 133.75
  L 23.27 137.96
  L 23.25 84.40
  Q 28.27 84.35 31.75 86.62
  Q 33.07 87.48 33.90 87.76
  C 38.03 89.16 42.06 92.08 45.72 93.81
  Q 52.63 97.08 59.98 100.14
  Z" fill="#9373ff"></path>
<path d="M 155.34 116.04
  L 111.55 140.29
  Q 111.67 140.06 111.57 139.86
  Q 111.41 139.52 111.09 139.70
  Q 110.97 139.77 110.88 139.88
  Q 110.36 140.52 110.23 139.77
  Q 110.16 139.34 109.80 139.30
  Q 109.40 139.26 109.28 138.88
  Q 108.95 137.87 107.89 138.13
  Q 107.44 138.24 107.08 137.95
  C 102.91 134.67 98.05 132.61 93.33 130.28
  C 89.16 128.23 84.31 127.61 80.40 125.13
  C 78.87 124.16 77.76 123.40 75.94 122.59
  Q 74.71 122.04 74.01 120.42
  L 114.06 98.39
  A 0.72 0.71 -45.7 0 0 114.05 97.13
  L 96.99 88.36
  Q 97.34 88.07 98.02 88.21
  C 99.01 88.43 99.32 89.09 100.58 89.17
  Q 100.94 89.19 101.13 89.50
  Q 101.23 89.66 101.39 89.79
  Q 101.68 90.03 102.06 89.97
  Q 103.63 89.70 105.05 90.39
  Q 105.25 90.48 105.41 90.33
  L 105.63 90.12
  Q 105.74 90.01 105.76 90.05
  Q 106.07 90.90 106.82 91.31
  Q 107.21 91.53 107.64 91.44
  Q 108.15 91.34 108.45 91.81
  C 109.11 92.81 109.86 93.15 111.10 92.85
  Q 111.13 92.84 111.11 92.86
  Q 110.96 93.01 110.98 93.18
  Q 111.00 93.26 111.08 93.28
  L 111.46 93.38
  Q 111.58 93.41 111.67 93.48
  Q 112.64 94.27 113.50 95.14
  Q 113.68 95.33 113.50 95.51
  L 113.28 95.74
  A 0.22 0.21 22.4 0 0 113.44 96.11
  Q 115.70 96.11 117.96 96.12
  Q 118.51 96.12 119.01 96.35
  L 127.67 100.27
  A 0.30 0.30 0.0 0 0 128.09 100.03
  Q 128.12 99.80 128.35 99.92
  Q 131.08 101.30 135.38 104.01
  C 137.76 105.51 140.91 106.42 143.13 107.63
  Q 149.63 111.18 155.34 116.04
  Z" fill="#5daaff"></path>
<path d="M 60.18 157.44
  C 60.04 161.92 60.51 165.47 57.15 167.67
  Q 55.07 169.03 46.60 172.75
  Q 35.58 177.60 24.85 183.08
  Q 24.26 183.38 24.07 183.38
  Q 23.27 183.38 23.27 182.58
  L 23.27 137.96
  L 23.44 133.75
  Q 23.44 133.57 23.62 133.56
  L 23.63 133.56
  Q 23.87 133.56 23.87 133.75
  L 23.87 137.04
  Q 23.87 137.58 24.36 137.79
  Q 26.20 138.57 28.50 140.25
  Q 31.96 142.78 35.29 145.46
  Q 35.68 145.77 36.16 145.89
  C 37.77 146.28 38.69 147.85 40.27 147.93
  A 1.00 0.93 -25.0 0 1 40.79 148.10
  L 47.95 152.87
  Q 48.37 153.15 48.87 153.13
  Q 49.42 153.10 49.74 153.27
  Q 54.71 156.01 60.18 157.44
  Z" fill="#d331ff"></path>
</svg>
