<svg viewBox="0.00 0.00 256.00 256.00" version="1.1" xmlns="http://www.w3.org/2000/svg">
<g stroke-linecap="butt" fill="none" stroke-width="2.00">
<path d="M 176.27 73.07
  C 180.79 86.65 184.70 99.09 181.36 113.61
  Q 180.60 116.94 180.80 118.46
  C 181.73 125.46 190.55 128.18 195.28 123.11
  Q 196.92 121.34 197.84 117.47
  C 202.83 96.56 196.02 72.54 185.92 54.33
  C 183.56 50.08 181.16 47.92 176.26 48.59
  Q 173.23 49.00 170.84 51.83
  Q 164.80 58.96 158.87 66.21
  Q 158.54 66.62 158.02 66.61
  C 151.64 66.46 145.96 66.29 139.28 67.64
  Q 138.78 67.74 138.43 67.37
  Q 132.28 60.86 126.07 54.44
  Q 122.43 50.68 118.16 50.76
  C 115.20 50.81 111.57 53.17 110.82 56.01
  Q 106.87 70.90 102.84 86.12
  Q 102.68 86.73 102.06 86.64
  Q 87.03 84.56 74.39 93.13
  C 49.63 109.93 41.89 139.37 55.12 166.36
  C 63.98 184.42 79.50 195.95 98.83 200.96
  C 119.41 206.30 143.48 204.37 162.69 194.69
  C 194.70 178.55 194.81 132.98 161.43 118.43
  C 148.32 112.72 130.86 114.15 119.31 123.82
  C 107.39 133.78 107.64 152.90 119.72 162.44
  C 128.68 169.52 139.89 169.99 149.54 163.78
  C 154.54 160.57 154.64 153.87 150.03 150.24
  C 146.29 147.31 143.57 148.10 139.63 150.03
  C 133.31 153.11 125.70 148.28 127.42 141.26
  C 128.66 136.21 135.04 133.33 139.76 132.51
  Q 149.59 130.80 157.22 135.22
  C 171.14 143.26 174.38 162.62 162.39 174.29
  C 150.75 185.62 129.23 187.82 114.00 186.58
  C 91.91 184.78 72.18 171.63 66.68 149.11
  C 62.64 132.57 69.31 118.00 83.03 108.05
  Q 93.12 100.73 103.76 104.57
  C 107.91 106.06 110.84 106.74 114.07 103.92
  Q 116.02 102.22 117.31 97.46
  Q 120.17 86.93 122.85 76.44
  A 0.37 0.36 -60.4 0 1 123.46 76.27
  C 127.67 80.45 132.02 87.27 138.99 85.16
  Q 148.97 82.13 158.85 83.77
  C 162.55 84.38 165.84 84.38 168.11 81.60
  Q 171.42 77.55 175.43 72.90
  Q 176.00 72.24 176.27 73.07" stroke="#ffb980"></path>
<path d="M 138.53 103.49
  C 140.79 105.37 141.97 107.15 145.21 105.52
  C 154.77 100.70 139.91 86.07 129.74 97.24
  C 125.45 101.94 130.72 108.62 135.83 105.28
  C 136.52 104.83 137.01 104.10 137.67 103.51
  Q 138.09 103.12 138.53 103.49" stroke="#ffb980"></path>
<path d="M 163.58 104.47
  C 167.05 111.17 176.71 106.10 172.06 98.97
  C 168.06 92.85 159.99 92.83 155.11 97.81
  C 149.52 103.51 158.21 110.34 162.67 104.40
  A 0.54 0.54 0.0 0 1 163.58 104.47" stroke="#ffb980"></path>
</g>
<path d="M 0.00 0.00
  L 256.00 0.00
  L 256.00 256.00
  L 0.00 256.00
  L 0.00 0.00
  Z
  M 176.27 73.07
  C 180.79 86.65 184.70 99.09 181.36 113.61
  Q 180.60 116.94 180.80 118.46
  C 181.73 125.46 190.55 128.18 195.28 123.11
  Q 196.92 121.34 197.84 117.47
  C 202.83 96.56 196.02 72.54 185.92 54.33
  C 183.56 50.08 181.16 47.92 176.26 48.59
  Q 173.23 49.00 170.84 51.83
  Q 164.80 58.96 158.87 66.21
  Q 158.54 66.62 158.02 66.61
  C 151.64 66.46 145.96 66.29 139.28 67.64
  Q 138.78 67.74 138.43 67.37
  Q 132.28 60.86 126.07 54.44
  Q 122.43 50.68 118.16 50.76
  C 115.20 50.81 111.57 53.17 110.82 56.01
  Q 106.87 70.90 102.84 86.12
  Q 102.68 86.73 102.06 86.64
  Q 87.03 84.56 74.39 93.13
  C 49.63 109.93 41.89 139.37 55.12 166.36
  C 63.98 184.42 79.50 195.95 98.83 200.96
  C 119.41 206.30 143.48 204.37 162.69 194.69
  C 194.70 178.55 194.81 132.98 161.43 118.43
  C 148.32 112.72 130.86 114.15 119.31 123.82
  C 107.39 133.78 107.64 152.90 119.72 162.44
  C 128.68 169.52 139.89 169.99 149.54 163.78
  C 154.54 160.57 154.64 153.87 150.03 150.24
  C 146.29 147.31 143.57 148.10 139.63 150.03
  C 133.31 153.11 125.70 148.28 127.42 141.26
  C 128.66 136.21 135.04 133.33 139.76 132.51
  Q 149.59 130.80 157.22 135.22
  C 171.14 143.26 174.38 162.62 162.39 174.29
  C 150.75 185.62 129.23 187.82 114.00 186.58
  C 91.91 184.78 72.18 171.63 66.68 149.11
  C 62.64 132.57 69.31 118.00 83.03 108.05
  Q 93.12 100.73 103.76 104.57
  C 107.91 106.06 110.84 106.74 114.07 103.92
  Q 116.02 102.22 117.31 97.46
  Q 120.17 86.93 122.85 76.44
  A 0.37 0.36 -60.4 0 1 123.46 76.27
  C 127.67 80.45 132.02 87.27 138.99 85.16
  Q 148.97 82.13 158.85 83.77
  C 162.55 84.38 165.84 84.38 168.11 81.60
  Q 171.42 77.55 175.43 72.90
  Q 176.00 72.24 176.27 73.07
  Z
  M 138.53 103.49
  C 140.79 105.37 141.97 107.15 145.21 105.52
  C 154.77 100.70 139.91 86.07 129.74 97.24
  C 125.45 101.94 130.72 108.62 135.83 105.28
  C 136.52 104.83 137.01 104.10 137.67 103.51
  Q 138.09 103.12 138.53 103.49
  Z
  M 163.58 104.47
  C 167.05 111.17 176.71 106.10 172.06 98.97
  C 168.06 92.85 159.99 92.83 155.11 97.81
  C 149.52 103.51 158.21 110.34 162.67 104.40
  A 0.54 0.54 0.0 0 1 163.58 104.47
  Z" fill="#ffffff"></path>
<path d="M 176.27 73.07
  Q 176.00 72.24 175.43 72.90
  Q 171.42 77.55 168.11 81.60
  C 165.84 84.38 162.55 84.38 158.85 83.77
  Q 148.97 82.13 138.99 85.16
  C 132.02 87.27 127.67 80.45 123.46 76.27
  A 0.37 0.36 -60.4 0 0 122.85 76.44
  Q 120.17 86.93 117.31 97.46
  Q 116.02 102.22 114.07 103.92
  C 110.84 106.74 107.91 106.06 103.76 104.57
  Q 93.12 100.73 83.03 108.05
  C 69.31 118.00 62.64 132.57 66.68 149.11
  C 72.18 171.63 91.91 184.78 114.00 186.58
  C 129.23 187.82 150.75 185.62 162.39 174.29
  C 174.38 162.62 171.14 143.26 157.22 135.22
  Q 149.59 130.80 139.76 132.51
  C 135.04 133.33 128.66 136.21 127.42 141.26
  C 125.70 148.28 133.31 153.11 139.63 150.03
  C 143.57 148.10 146.29 147.31 150.03 150.24
  C 154.64 153.87 154.54 160.57 149.54 163.78
  C 139.89 169.99 128.68 169.52 119.72 162.44
  C 107.64 152.90 107.39 133.78 119.31 123.82
  C 130.86 114.15 148.32 112.72 161.43 118.43
  C 194.81 132.98 194.70 178.55 162.69 194.69
  C 143.48 204.37 119.41 206.30 98.83 200.96
  C 79.50 195.95 63.98 184.42 55.12 166.36
  C 41.89 139.37 49.63 109.93 74.39 93.13
  Q 87.03 84.56 102.06 86.64
  Q 102.68 86.73 102.84 86.12
  Q 106.87 70.90 110.82 56.01
  C 111.57 53.17 115.20 50.81 118.16 50.76
  Q 122.43 50.68 126.07 54.44
  Q 132.28 60.86 138.43 67.37
  Q 138.78 67.74 139.28 67.64
  C 145.96 66.29 151.64 66.46 158.02 66.61
  Q 158.54 66.62 158.87 66.21
  Q 164.80 58.96 170.84 51.83
  Q 173.23 49.00 176.26 48.59
  C 181.16 47.92 183.56 50.08 185.92 54.33
  C 196.02 72.54 202.83 96.56 197.84 117.47
  Q 196.92 121.34 195.28 123.11
  C 190.55 128.18 181.73 125.46 180.80 118.46
  Q 180.60 116.94 181.36 113.61
  C 184.70 99.09 180.79 86.65 176.27 73.07
  Z" fill="#ff7300"></path>
<path d="M 137.67 103.51
  C 137.01 104.10 136.52 104.83 135.83 105.28
  C 130.72 108.62 125.45 101.94 129.74 97.24
  C 139.91 86.07 154.77 100.70 145.21 105.52
  C 141.97 107.15 140.79 105.37 138.53 103.49
  Q 138.09 103.12 137.67 103.51
  Z" fill="#ff7300"></path>
<path d="M 163.58 104.47
  A 0.54 0.54 0.0 0 0 162.67 104.40
  C 158.21 110.34 149.52 103.51 155.11 97.81
  C 159.99 92.83 168.06 92.85 172.06 98.97
  C 176.71 106.10 167.05 111.17 163.58 104.47
  Z" fill="#ff7300"></path>
</svg>
