<svg viewBox="0.00 0.00 48.00 48.00" version="1.1" xmlns="http://www.w3.org/2000/svg">
<g stroke-linecap="butt" fill="none" stroke-width="2.00">
<path d="M 11.36 12.03
  C 15.51 8.18 21.98 9.56 24.97 14.05
  Q 27.11 17.25 28.09 20.94
  Q 28.13 21.12 28.31 21.08
  L 28.32 21.08
  Q 28.49 21.04 28.46 20.86
  Q 27.26 14.96 23.94 11.81
  C 19.93 7.99 13.96 8.36 10.23 12.33
  C 5.02 17.85 4.89 28.64 9.37 34.61
  Q 10.97 36.74 11.81 37.20
  C 20.58 41.97 26.43 35.29 28.45 27.47
  Q 28.51 27.23 28.27 27.16
  L 28.02 27.08
  Q 27.98 27.07 27.97 27.11
  Q 26.55 33.96 22.13 36.88
  C 18.53 39.27 13.44 38.21 10.48 35.07
  C 5.16 29.44 5.47 17.50 11.36 12.03" stroke="#42432d"></path>
<path d="M 13.10 25.39
  L 14.69 25.44" stroke="#42432d"></path>
<path d="M 14.69 25.44
  Q 15.66 26.02 16.03 25.20
  Q 16.57 23.99 15.50 23.21
  L 13.95 22.09
  A 0.57 0.56 28.4 0 0 13.09 22.34
  Q 12.42 24.07 13.10 25.39" stroke="#53512a"></path>
<path d="M 14.69 25.44
  Q 15.44 24.17 14.00 23.17
  Q 13.79 23.03 13.62 23.22
  L 13.43 23.42
  Q 13.37 23.48 13.44 23.53
  Q 14.25 24.11 14.16 25.00
  Q 14.13 25.41 13.10 25.39" stroke="#897720"></path>
<path d="M 19.31 22.79
  L 19.64 25.52
  A 0.36 0.36 0.0 0 0 20.04 25.84
  L 20.48 25.81
  Q 20.90 25.77 20.75 25.38
  Q 20.41 24.53 20.89 23.82
  Q 21.29 23.24 20.60 23.08
  L 19.31 22.79" stroke="#53512a"></path>
<path d="M 19.31 22.79
  Q 17.96 21.05 16.70 23.31
  A 1.47 1.47 0.0 0 0 16.62 24.57
  Q 17.19 25.96 18.66 25.90
  A 0.11 0.10 72.4 0 0 18.74 25.74
  Q 17.73 24.08 18.09 23.11
  Q 18.23 22.74 18.57 22.65
  Q 18.94 22.54 19.31 22.79" stroke="#53512a"></path>
<path d="M 33.86 24.63
  Q 33.04 24.01 32.91 23.08
  Q 32.70 21.62 31.98 22.90
  Q 31.54 23.68 31.22 25.22
  Q 31.11 25.77 31.56 25.44
  Q 32.71 24.61 33.67 25.80
  A 0.66 0.65 -55.8 0 0 34.80 25.58
  Q 35.33 23.92 34.88 22.22
  Q 34.84 22.07 34.68 22.08
  L 34.38 22.11
  Q 34.02 22.14 34.07 22.50
  L 34.37 24.32
  Q 34.50 25.11 33.86 24.63" stroke="#53512a"></path>
<path d="M 29.87 24.46
  Q 30.29 23.47 29.71 22.58
  A 0.33 0.32 -53.5 0 0 29.13 22.67
  Q 28.68 24.11 29.19 25.62
  Q 29.22 25.71 29.31 25.71
  L 29.70 25.74
  Q 30.20 25.77 30.03 25.29
  L 29.86 24.82
  Q 29.79 24.64 29.87 24.46" stroke="#53512a"></path>
<path d="M 23.88 23.86
  Q 24.30 24.01 24.41 24.46
  Q 24.47 24.72 24.28 24.90
  Q 24.11 25.07 24.11 25.17
  A 0.78 0.72 64.3 0 0 25.43 25.70
  Q 25.99 24.91 26.01 23.97
  A 0.95 0.95 0.0 0 0 25.38 23.06
  Q 23.85 22.51 22.32 23.06
  A 1.27 1.27 0.0 0 0 21.58 24.77
  Q 21.88 25.45 22.49 25.72
  A 0.46 0.46 0.0 0 0 23.09 25.11
  Q 22.76 24.40 23.19 24.00
  Q 23.49 23.72 23.88 23.86" stroke="#53512a"></path>
<path d="M 28.15 24.22
  L 28.40 23.85
  Q 28.70 23.41 28.23 23.14
  Q 27.44 22.69 26.67 23.45
  Q 26.39 23.73 26.48 24.11
  Q 26.67 24.91 27.20 25.52
  A 0.44 0.44 0.0 0 0 27.98 25.27
  L 28.04 24.54
  Q 28.05 24.36 28.15 24.22" stroke="#53512a"></path>
</g>
<path d="M 0.00 0.00
  L 48.00 0.00
  L 48.00 48.00
  L 0.00 48.00
  L 0.00 0.00
  Z
  M 11.36 12.03
  C 15.51 8.18 21.98 9.56 24.97 14.05
  Q 27.11 17.25 28.09 20.94
  Q 28.13 21.12 28.31 21.08
  L 28.32 21.08
  Q 28.49 21.04 28.46 20.86
  Q 27.26 14.96 23.94 11.81
  C 19.93 7.99 13.96 8.36 10.23 12.33
  C 5.02 17.85 4.89 28.64 9.37 34.61
  Q 10.97 36.74 11.81 37.20
  C 20.58 41.97 26.43 35.29 28.45 27.47
  Q 28.51 27.23 28.27 27.16
  L 28.02 27.08
  Q 27.98 27.07 27.97 27.11
  Q 26.55 33.96 22.13 36.88
  C 18.53 39.27 13.44 38.21 10.48 35.07
  C 5.16 29.44 5.47 17.50 11.36 12.03
  Z
  M 13.10 25.39
  L 14.69 25.44
  Q 15.66 26.02 16.03 25.20
  Q 16.57 23.99 15.50 23.21
  L 13.95 22.09
  A 0.57 0.56 28.4 0 0 13.09 22.34
  Q 12.42 24.07 13.10 25.39
  Z
  M 19.31 22.79
  L 19.64 25.52
  A 0.36 0.36 0.0 0 0 20.04 25.84
  L 20.48 25.81
  Q 20.90 25.77 20.75 25.38
  Q 20.41 24.53 20.89 23.82
  Q 21.29 23.24 20.60 23.08
  L 19.31 22.79
  Q 17.96 21.05 16.70 23.31
  A 1.47 1.47 0.0 0 0 16.62 24.57
  Q 17.19 25.96 18.66 25.90
  A 0.11 0.10 72.4 0 0 18.74 25.74
  Q 17.73 24.08 18.09 23.11
  Q 18.23 22.74 18.57 22.65
  Q 18.94 22.54 19.31 22.79
  Z
  M 33.86 24.63
  Q 33.04 24.01 32.91 23.08
  Q 32.70 21.62 31.98 22.90
  Q 31.54 23.68 31.22 25.22
  Q 31.11 25.77 31.56 25.44
  Q 32.71 24.61 33.67 25.80
  A 0.66 0.65 -55.8 0 0 34.80 25.58
  Q 35.33 23.92 34.88 22.22
  Q 34.84 22.07 34.68 22.08
  L 34.38 22.11
  Q 34.02 22.14 34.07 22.50
  L 34.37 24.32
  Q 34.50 25.11 33.86 24.63
  Z
  M 29.87 24.46
  Q 30.29 23.47 29.71 22.58
  A 0.33 0.32 -53.5 0 0 29.13 22.67
  Q 28.68 24.11 29.19 25.62
  Q 29.22 25.71 29.31 25.71
  L 29.70 25.74
  Q 30.20 25.77 30.03 25.29
  L 29.86 24.82
  Q 29.79 24.64 29.87 24.46
  Z
  M 23.88 23.86
  Q 24.30 24.01 24.41 24.46
  Q 24.47 24.72 24.28 24.90
  Q 24.11 25.07 24.11 25.17
  A 0.78 0.72 64.3 0 0 25.43 25.70
  Q 25.99 24.91 26.01 23.97
  A 0.95 0.95 0.0 0 0 25.38 23.06
  Q 23.85 22.51 22.32 23.06
  A 1.27 1.27 0.0 0 0 21.58 24.77
  Q 21.88 25.45 22.49 25.72
  A 0.46 0.46 0.0 0 0 23.09 25.11
  Q 22.76 24.40 23.19 24.00
  Q 23.49 23.72 23.88 23.86
  Z
  M 28.15 24.22
  L 28.40 23.85
  Q 28.70 23.41 28.23 23.14
  Q 27.44 22.69 26.67 23.45
  Q 26.39 23.73 26.48 24.11
  Q 26.67 24.91 27.20 25.52
  A 0.44 0.44 0.0 0 0 27.98 25.27
  L 28.04 24.54
  Q 28.05 24.36 28.15 24.22
  Z" fill="#0c1d36"></path>
<path d="M 24.97 14.05
  C 21.98 9.56 15.51 8.18 11.36 12.03
  C 5.47 17.50 5.16 29.44 10.48 35.07
  C 13.44 38.21 18.53 39.27 22.13 36.88
  Q 26.55 33.96 27.97 27.11
  Q 27.98 27.07 28.02 27.08
  L 28.27 27.16
  Q 28.51 27.23 28.45 27.47
  C 26.43 35.29 20.58 41.97 11.81 37.20
  Q 10.97 36.74 9.37 34.61
  C 4.89 28.64 5.02 17.85 10.23 12.33
  C 13.96 8.36 19.93 7.99 23.94 11.81
  Q 27.26 14.96 28.46 20.86
  Q 28.49 21.04 28.32 21.08
  L 28.31 21.08
  Q 28.13 21.12 28.09 20.94
  Q 27.11 17.25 24.97 14.05
  Z" fill="#786923"></path>
<path d="M 14.69 25.44
  Q 15.44 24.17 14.00 23.17
  Q 13.79 23.03 13.62 23.22
  L 13.43 23.42
  Q 13.37 23.48 13.44 23.53
  Q 14.25 24.11 14.16 25.00
  Q 14.13 25.41 13.10 25.39
  Q 12.42 24.07 13.09 22.34
  A 0.57 0.56 28.4 0 1 13.95 22.09
  L 15.50 23.21
  Q 16.57 23.99 16.03 25.20
  Q 15.66 26.02 14.69 25.44
  Z" fill="#9a841d"></path>
<path d="M 19.31 22.79
  Q 18.94 22.54 18.57 22.65
  Q 18.23 22.74 18.09 23.11
  Q 17.73 24.08 18.74 25.74
  A 0.11 0.10 72.4 0 1 18.66 25.90
  Q 17.19 25.96 16.62 24.57
  A 1.47 1.47 0.0 0 1 16.70 23.31
  Q 17.96 21.05 19.31 22.79
  Z" fill="#9a841d"></path>
<path d="M 34.37 24.32
  L 34.07 22.50
  Q 34.02 22.14 34.38 22.11
  L 34.68 22.08
  Q 34.84 22.07 34.88 22.22
  Q 35.33 23.92 34.80 25.58
  A 0.66 0.65 -55.8 0 1 33.67 25.80
  Q 32.71 24.61 31.56 25.44
  Q 31.11 25.77 31.22 25.22
  Q 31.54 23.68 31.98 22.90
  Q 32.70 21.62 32.91 23.08
  Q 33.04 24.01 33.86 24.63
  Q 34.50 25.11 34.37 24.32
  Z" fill="#9a841d"></path>
<path d="M 29.86 24.82
  L 30.03 25.29
  Q 30.20 25.77 29.70 25.74
  L 29.31 25.71
  Q 29.22 25.71 29.19 25.62
  Q 28.68 24.11 29.13 22.67
  A 0.33 0.32 -53.5 0 1 29.71 22.58
  Q 30.29 23.47 29.87 24.46
  Q 29.79 24.64 29.86 24.82
  Z" fill="#9a841d"></path>
<path d="M 19.31 22.79
  L 20.60 23.08
  Q 21.29 23.24 20.89 23.82
  Q 20.41 24.53 20.75 25.38
  Q 20.90 25.77 20.48 25.81
  L 20.04 25.84
  A 0.36 0.36 0.0 0 1 19.64 25.52
  L 19.31 22.79
  Z" fill="#9a841d"></path>
<path d="M 23.19 24.00
  Q 22.76 24.40 23.09 25.11
  A 0.46 0.46 0.0 0 1 22.49 25.72
  Q 21.88 25.45 21.58 24.77
  A 1.27 1.27 0.0 0 1 22.32 23.06
  Q 23.85 22.51 25.38 23.06
  A 0.95 0.95 0.0 0 1 26.01 23.97
  Q 25.99 24.91 25.43 25.70
  A 0.78 0.72 64.3 0 1 24.11 25.17
  Q 24.11 25.07 24.28 24.90
  Q 24.47 24.72 24.41 24.46
  Q 24.30 24.01 23.88 23.86
  Q 23.49 23.72 23.19 24.00
  Z" fill="#9a841d"></path>
<path d="M 28.04 24.54
  L 27.98 25.27
  A 0.44 0.44 0.0 0 1 27.20 25.52
  Q 26.67 24.91 26.48 24.11
  Q 26.39 23.73 26.67 23.45
  Q 27.44 22.69 28.23 23.14
  Q 28.70 23.41 28.40 23.85
  L 28.15 24.22
  Q 28.05 24.36 28.04 24.54
  Z" fill="#9a841d"></path>
<path d="M 14.69 25.44
  L 13.10 25.39
  Q 14.13 25.41 14.16 25.00
  Q 14.25 24.11 13.44 23.53
  Q 13.37 23.48 13.43 23.42
  L 13.62 23.22
  Q 13.79 23.03 14.00 23.17
  Q 15.44 24.17 14.69 25.44
  Z" fill="#786923"></path>
</svg>
