<svg viewBox="0.00 0.00 180.00 180.00" version="1.1" xmlns="http://www.w3.org/2000/svg">
<g stroke-linecap="butt" fill="none" stroke-width="2.00">
<path d="M 92.7545 58.5165
  A 9.80 9.80 0.0 0 0 82.8694 48.8024
  L 62.7102 48.9784
  A 9.80 9.80 0.0 0 0 52.9960 58.8635
  L 53.0055 59.9435
  A 9.80 9.80 0.0 0 0 62.8906 69.6576
  L 83.0498 69.4816
  A 9.80 9.80 0.0 0 0 92.7640 59.5965
  L 92.7545 58.5165" stroke="#808080"></path>
<path d="M 53.12 87.02
  C 51.64 94.32 56.25 100.40 63.76 100.40
  Q 90.32 100.40 116.88 100.19
  C 130.83 100.08 130.44 79.62 116.50 79.62
  Q 89.75 79.61 63.00 79.60
  C 59.45 79.60 53.93 83.05 53.12 87.02" stroke="#808080"></path>
<path d="M 127.16 120.49
  A 10.09 10.09 0.0 0 0 117.07 110.40
  L 62.93 110.40
  A 10.09 10.09 0.0 0 0 52.84 120.49
  L 52.84 121.09
  A 10.09 10.09 0.0 0 0 62.93 131.18
  L 117.07 131.18
  A 10.09 10.09 0.0 0 0 127.16 121.09
  L 127.16 120.49" stroke="#808080"></path>
</g>
<path d="M 0.00 0.00
  L 180.00 0.00
  L 180.00 180.00
  L 0.00 180.00
  L 0.00 0.00
  Z
  M 92.7545 58.5165
  A 9.80 9.80 0.0 0 0 82.8694 48.8024
  L 62.7102 48.9784
  A 9.80 9.80 0.0 0 0 52.9960 58.8635
  L 53.0055 59.9435
  A 9.80 9.80 0.0 0 0 62.8906 69.6576
  L 83.0498 69.4816
  A 9.80 9.80 0.0 0 0 92.7640 59.5965
  L 92.7545 58.5165
  Z
  M 53.12 87.02
  C 51.64 94.32 56.25 100.40 63.76 100.40
  Q 90.32 100.40 116.88 100.19
  C 130.83 100.08 130.44 79.62 116.50 79.62
  Q 89.75 79.61 63.00 79.60
  C 59.45 79.60 53.93 83.05 53.12 87.02
  Z
  M 127.16 120.49
  A 10.09 10.09 0.0 0 0 117.07 110.40
  L 62.93 110.40
  A 10.09 10.09 0.0 0 0 52.84 120.49
  L 52.84 121.09
  A 10.09 10.09 0.0 0 0 62.93 131.18
  L 117.07 131.18
  A 10.09 10.09 0.0 0 0 127.16 121.09
  L 127.16 120.49
  Z" fill="#000000"></path>
<rect rx="9.80" height="20.68" width="39.76" transform="translate(72.88,59.23) rotate(-0.5)" y="-10.34" x="-19.88" fill="#ffffff"></rect>
<path d="M 63.76 100.40
  C 56.25 100.40 51.64 94.32 53.12 87.02
  C 53.93 83.05 59.45 79.60 63.00 79.60
  Q 89.75 79.61 116.50 79.62
  C 130.44 79.62 130.83 100.08 116.88 100.19
  Q 90.32 100.40 63.76 100.40
  Z" fill="#ffffff"></path>
<rect rx="10.09" height="20.78" width="74.32" y="110.40" x="52.84" fill="#ffffff"></rect>
</svg>
