<svg viewBox="0.00 0.00 320.00 320.00" version="1.1" xmlns="http://www.w3.org/2000/svg">
<g stroke-linecap="butt" fill="none" stroke-width="2.00">
<path d="M 237.78 157.75
  Q 237.68 144.75 237.67 131.75
  C 237.64 103.27 215.98 81.36 187.50 81.47
  Q 167.03 81.56 146.63 81.59
  A 0.40 0.39 0.0 0 0 146.23 81.98
  L 146.23 108.98
  A 0.53 0.53 0.0 0 0 146.76 109.51
  Q 165.73 109.52 184.77 109.52
  Q 192.15 109.51 195.96 110.89
  Q 205.17 114.21 208.52 123.50
  Q 209.87 127.23 209.87 134.16
  Q 209.88 145.99 209.89 157.87
  A 0.29 0.29 0.0 0 1 209.41 158.09
  L 195.79 146.07
  A 0.43 0.43 0.0 0 0 195.18 146.11
  L 177.37 166.31
  A 0.51 0.51 0.0 0 0 177.41 167.03
  L 223.44 207.61
  A 0.53 0.51 44.9 0 0 224.13 207.62
  L 270.13 167.07
  Q 270.56 166.69 270.18 166.26
  L 252.59 146.30
  Q 252.14 145.78 251.62 146.23
  L 238.27 157.97
  Q 237.79 158.40 237.78 157.75" stroke="#8ecdf8"></path>
<path d="M 84.21 164.38
  Q 84.30 177.38 84.43 190.75
  C 84.70 218.74 105.75 240.36 133.76 240.40
  Q 154.48 240.42 175.31 240.41
  Q 175.76 240.41 175.76 239.96
  L 175.76 213.24
  Q 175.76 212.49 175.01 212.49
  Q 155.97 212.49 136.75 212.48
  Q 129.79 212.48 126.07 211.13
  Q 116.82 207.78 113.47 198.51
  Q 112.13 194.78 112.12 187.84
  Q 112.11 176.03 112.11 164.28
  A 0.37 0.36 -69.6 0 1 112.71 164.00
  L 126.26 175.93
  A 0.41 0.41 0.0 0 0 126.84 175.89
  L 144.54 155.81
  A 0.69 0.69 0.0 0 0 144.48 154.83
  L 98.60 114.39
  A 0.53 0.53 0.0 0 0 97.90 114.39
  L 51.88 154.94
  Q 51.47 155.31 51.83 155.72
  L 69.50 175.79
  A 0.60 0.59 48.8 0 0 70.33 175.85
  L 83.63 164.12
  Q 84.20 163.63 84.21 164.38" stroke="#8ecdf8"></path>
</g>
<path d="M 65.14 0.00
  L 254.98 0.00
  C 290.61 2.99 317.44 29.68 320.00 65.39
  L 320.00 254.74
  C 316.83 290.60 290.66 317.27 254.86 320.00
  L 65.02 320.00
  C 29.49 316.92 2.67 290.50 0.00 254.85
  L 0.00 65.02
  C 2.74 29.39 29.59 2.98 65.14 0.00
  Z
  M 237.78 157.75
  Q 237.68 144.75 237.67 131.75
  C 237.64 103.27 215.98 81.36 187.50 81.47
  Q 167.03 81.56 146.63 81.59
  A 0.40 0.39 0.0 0 0 146.23 81.98
  L 146.23 108.98
  A 0.53 0.53 0.0 0 0 146.76 109.51
  Q 165.73 109.52 184.77 109.52
  Q 192.15 109.51 195.96 110.89
  Q 205.17 114.21 208.52 123.50
  Q 209.87 127.23 209.87 134.16
  Q 209.88 145.99 209.89 157.87
  A 0.29 0.29 0.0 0 1 209.41 158.09
  L 195.79 146.07
  A 0.43 0.43 0.0 0 0 195.18 146.11
  L 177.37 166.31
  A 0.51 0.51 0.0 0 0 177.41 167.03
  L 223.44 207.61
  A 0.53 0.51 44.9 0 0 224.13 207.62
  L 270.13 167.07
  Q 270.56 166.69 270.18 166.26
  L 252.59 146.30
  Q 252.14 145.78 251.62 146.23
  L 238.27 157.97
  Q 237.79 158.40 237.78 157.75
  Z
  M 84.21 164.38
  Q 84.30 177.38 84.43 190.75
  C 84.70 218.74 105.75 240.36 133.76 240.40
  Q 154.48 240.42 175.31 240.41
  Q 175.76 240.41 175.76 239.96
  L 175.76 213.24
  Q 175.76 212.49 175.01 212.49
  Q 155.97 212.49 136.75 212.48
  Q 129.79 212.48 126.07 211.13
  Q 116.82 207.78 113.47 198.51
  Q 112.13 194.78 112.12 187.84
  Q 112.11 176.03 112.11 164.28
  A 0.37 0.36 -69.6 0 1 112.71 164.00
  L 126.26 175.93
  A 0.41 0.41 0.0 0 0 126.84 175.89
  L 144.54 155.81
  A 0.69 0.69 0.0 0 0 144.48 154.83
  L 98.60 114.39
  A 0.53 0.53 0.0 0 0 97.90 114.39
  L 51.88 154.94
  Q 51.47 155.31 51.83 155.72
  L 69.50 175.79
  A 0.60 0.59 48.8 0 0 70.33 175.85
  L 83.63 164.12
  Q 84.20 163.63 84.21 164.38
  Z" fill="#1d9bf0"></path>
<path d="M 238.27 157.97
  L 251.62 146.23
  Q 252.14 145.78 252.59 146.30
  L 270.18 166.26
  Q 270.56 166.69 270.13 167.07
  L 224.13 207.62
  A 0.53 0.51 44.9 0 1 223.44 207.61
  L 177.41 167.03
  A 0.51 0.51 0.0 0 1 177.37 166.31
  L 195.18 146.11
  A 0.43 0.43 0.0 0 1 195.79 146.07
  L 209.41 158.09
  A 0.29 0.29 0.0 0 0 209.89 157.87
  Q 209.88 145.99 209.87 134.16
  Q 209.87 127.23 208.52 123.50
  Q 205.17 114.21 195.96 110.89
  Q 192.15 109.51 184.77 109.52
  Q 165.73 109.52 146.76 109.51
  A 0.53 0.53 0.0 0 1 146.23 108.98
  L 146.23 81.98
  A 0.40 0.39 0.0 0 1 146.63 81.59
  Q 167.03 81.56 187.50 81.47
  C 215.98 81.36 237.64 103.27 237.67 131.75
  Q 237.68 144.75 237.78 157.75
  Q 237.79 158.40 238.27 157.97
  Z" fill="#ffffff"></path>
<path d="M 84.21 164.38
  Q 84.20 163.63 83.63 164.12
  L 70.33 175.85
  A 0.60 0.59 48.8 0 1 69.50 175.79
  L 51.83 155.72
  Q 51.47 155.31 51.88 154.94
  L 97.90 114.39
  A 0.53 0.53 0.0 0 1 98.60 114.39
  L 144.48 154.83
  A 0.69 0.69 0.0 0 1 144.54 155.81
  L 126.84 175.89
  A 0.41 0.41 0.0 0 1 126.26 175.93
  L 112.71 164.00
  A 0.37 0.36 -69.6 0 0 112.11 164.28
  Q 112.11 176.03 112.12 187.84
  Q 112.13 194.78 113.47 198.51
  Q 116.82 207.78 126.07 211.13
  Q 129.79 212.48 136.75 212.48
  Q 155.97 212.49 175.01 212.49
  Q 175.76 212.49 175.76 213.24
  L 175.76 239.96
  Q 175.76 240.41 175.31 240.41
  Q 154.48 240.42 133.76 240.40
  C 105.75 240.36 84.70 218.74 84.43 190.75
  Q 84.30 177.38 84.21 164.38
  Z" fill="#ffffff"></path>
</svg>
