<svg viewBox="0.00 0.00 128.00 128.00" version="1.1" xmlns="http://www.w3.org/2000/svg">
<path d="M 17.99 38.00
  C 17.99 19.17 34.74 1.94 53.84 2.51
  A 0.71 0.70 0.8 0 1 54.53 3.21
  L 54.53 125.44
  A 0.72 0.72 0.0 0 1 53.81 126.16
  L 18.71 126.10
  Q 18.00 126.10 18.00 125.39
  Q 18.00 81.83 17.99 38.00
  Z" fill="#00c7b5"></path>
<path d="M 111.55 3.29
  C 111.81 27.90 91.10 45.80 67.35 45.75
  Q 66.83 45.75 66.83 45.23
  L 66.86 3.06
  A 0.58 0.58 0.0 0 1 67.44 2.48
  L 110.74 2.48
  Q 111.55 2.48 111.55 3.29
  Z" fill="#5a4cff"></path>
</svg>
