<svg viewBox="0.00 0.00 192.00 192.00" version="1.1" xmlns="http://www.w3.org/2000/svg">
<g stroke-linecap="butt" fill="none" stroke-width="2.00">
<path d="M 44.62 0.00
  Q 44.15 0.40 43.44 0.16" stroke="#a4ddfd"></path>
<path d="M 43.44 0.16
  Q 23.00 3.46 16.80 23.35" stroke="#a5d9fd"></path>
<path d="M 16.80 23.35
  Q 16.41 25.78 16.36 28.25
  Q 15.86 53.10 16.07 77.97" stroke="#a6d2fd"></path>
<path d="M 16.07 77.97
  L 16.11 129.72" stroke="#a6ccfc"></path>
<path d="M 16.11 129.72
  C 16.95 142.21 25.36 152.97 37.06 156.91
  Q 41.67 158.46 51.15 158.53
  Q 64.51 158.63 77.61 158.44" stroke="#a7c7fc"></path>
<path d="M 77.61 158.44
  L 99.96 158.51
  A 1.28 1.24 -24.1 0 1 100.78 158.81
  L 140.12 192.00" stroke="#a6ccfc"></path>
<path d="M 86.97 0.00
  L 90.25 0.81
  Q 90.72 0.92 90.85 1.38
  Q 91.08 2.18 91.81 2.13
  Q 92.33 2.10 92.76 2.41
  Q 93.55 2.99 94.05 3.75
  Q 94.30 4.12 94.75 4.12
  L 96.25 4.12
  Q 96.88 4.12 96.88 4.75
  L 96.88 5.07
  Q 96.88 5.50 97.18 5.81
  L 99.10 7.77
  Q 99.44 8.12 99.92 8.12
  L 101.25 8.12
  Q 101.88 8.12 101.88 8.75
  L 101.88 9.31
  Q 101.88 9.80 102.33 10.00
  Q 102.84 10.22 103.41 10.12
  Q 103.74 10.07 103.84 10.39
  Q 104.08 11.17 104.85 11.13
  Q 105.34 11.11 105.68 11.46
  Q 106.72 12.50 108.28 12.08
  Q 108.91 11.91 108.87 12.56
  Q 108.83 13.16 109.48 13.14
  Q 109.88 13.13 109.88 13.53
  L 109.88 14.30
  Q 109.88 14.77 110.29 14.99
  Q 110.71 15.22 111.21 15.12
  Q 111.68 15.02 111.87 15.46
  Q 112.28 16.40 113.22 16.13
  Q 113.88 15.94 113.88 16.63
  Q 113.88 17.14 114.41 17.12
  Q 115.01 17.09 114.89 17.68
  Q 114.79 18.20 114.97 18.67
  Q 115.18 19.20 115.71 18.99
  Q 116.11 18.84 116.49 19.00
  Q 116.78 19.12 117.10 19.68
  Q 118.07 21.36 120.10 21.13
  Q 120.53 21.09 120.67 21.51
  Q 120.84 22.06 121.48 22.13
  Q 122.22 22.76 122.92 23.55
  Q 123.21 23.88 123.66 23.96
  Q 124.97 24.19 125.86 25.65
  Q 126.32 26.40 127.28 26.24
  Q 127.71 26.17 127.87 26.57
  Q 128.21 27.39 129.13 27.13
  Q 129.53 27.02 129.72 27.40
  Q 129.97 27.88 129.89 28.41
  Q 129.77 29.12 130.49 29.12
  L 131.02 29.12
  Q 131.58 29.12 131.87 29.58
  Q 132.30 30.24 132.96 30.12
  Q 133.47 30.03 133.64 30.52
  Q 133.82 31.02 134.38 31.15
  A 0.67 0.67 0.0 0 1 134.88 31.80
  L 134.88 32.50
  Q 134.88 33.12 135.50 33.12
  L 137.25 33.12
  Q 137.88 33.11 137.88 33.75
  L 137.89 34.42
  Q 137.89 34.95 138.42 34.99
  L 141.26 35.16
  Q 141.80 35.19 141.88 35.74
  Q 141.93 36.06 142.27 36.10
  A 0.62 0.62 0.0 0 1 142.81 36.75
  Q 142.73 38.29 144.22 38.12
  Q 144.59 38.08 144.81 38.40
  Q 144.95 38.60 145.10 38.79
  Q 145.33 39.10 145.76 39.30
  Q 146.95 39.85 147.92 40.69
  Q 148.28 41.00 148.32 41.48
  Q 148.44 42.95 149.89 42.87
  Q 150.01 42.87 150.08 42.97
  Q 150.16 43.10 150.11 43.25
  Q 149.91 43.92 150.74 43.55
  Q 151.75 43.08 152.36 43.79
  Q 153.13 44.70 153.62 44.56
  A 1.74 1.68 -9.0 0 1 155.80 46.09
  Q 155.85 47.13 157.00 47.15
  Q 157.47 47.15 157.78 47.50
  Q 159.06 48.96 161.04 49.14
  Q 161.47 49.18 161.65 49.37
  Q 161.97 49.69 161.87 50.18
  Q 161.78 50.67 162.20 50.94
  Q 162.66 51.23 163.19 51.12
  Q 163.66 51.03 163.83 51.48
  C 164.39 52.95 165.95 53.11 167.14 54.11
  Q 169.68 56.24 172.23 58.38
  Q 172.56 58.66 172.66 58.23
  Q 173.02 56.75 172.85 55.19
  A 0.08 0.08 0.0 0 1 172.93 55.10
  Q 173.13 55.11 173.25 55.26
  Q 173.55 55.66 173.69 54.75
  L 173.90 53.39
  A 0.01 0.01 0.0 0 0 173.89 53.38
  Q 173.71 53.88 173.97 54.39
  A 0.20 0.20 0.0 0 0 174.35 54.32
  L 174.50 52.78" stroke="#49bffc"></path>
<path d="M 174.50 52.78
  L 174.50 105.70" stroke="#a4ddfd"></path>
<path d="M 174.50 105.70
  Q 173.59 106.28 173.42 107.27
  Q 173.37 107.55 173.37 107.27
  L 173.37 98.00
  Q 173.37 97.71 173.08 97.70
  L 172.81 97.69
  Q 172.75 97.69 172.74 97.75
  L 172.41 100.55
  A 0.05 0.05 0.0 0 1 172.31 100.57
  C 171.72 99.41 169.70 98.06 168.69 97.17
  Q 168.32 96.85 167.83 96.91
  Q 167.18 96.99 167.12 96.46
  Q 167.05 95.88 166.47 95.88
  L 165.81 95.88
  Q 165.33 95.88 165.24 95.42
  Q 164.63 92.53 161.72 92.88
  Q 161.22 92.94 161.17 92.44
  Q 161.03 91.02 159.82 90.14
  Q 159.38 89.82 158.84 89.89
  Q 158.12 89.98 158.01 89.28
  A 0.56 0.56 0.0 0 0 157.28 88.84
  Q 156.28 89.18 156.01 88.31
  Q 155.86 87.80 155.32 87.88
  Q 153.83 88.11 154.07 86.72
  Q 154.18 86.11 153.56 86.15
  Q 152.96 86.20 152.68 86.92
  A 0.23 0.23 0.0 0 1 152.23 86.80
  Q 152.53 84.96 150.74 84.83
  Q 150.31 84.79 150.09 84.43
  Q 149.61 83.63 148.62 83.89
  A 0.61 0.60 -10.5 0 1 147.87 83.38
  Q 147.84 83.02 147.56 82.80
  Q 147.20 82.51 146.75 82.56
  Q 145.41 82.70 145.54 81.71
  Q 145.58 81.33 145.80 81.03
  Q 146.26 80.37 146.82 79.23
  Q 147.55 77.72 146.41 77.19" stroke="#4ab6fb"></path>
<path d="M 146.41 77.19
  L 151.02 70.23
  A 0.31 0.31 0.0 0 0 150.76 69.75
  L 139.04 69.76
  A 1.05 1.04 14.7 0 0 138.13 70.29
  L 131.46 81.99
  A 0.51 0.51 0.0 0 1 130.56 81.98
  L 124.21 70.28
  Q 123.95 69.80 123.41 69.80
  L 111.16 69.90" stroke="#a4ddfd"></path>
<path d="M 111.16 69.90
  Q 110.02 70.11 109.12 68.09
  Q 108.78 67.32 108.21 67.15
  Q 107.93 67.07 107.81 66.80
  Q 107.59 66.33 107.16 66.30
  Q 106.79 66.27 106.69 65.91
  Q 106.61 65.58 106.14 65.47
  Q 105.57 65.34 105.88 65.12
  Q 106.03 65.00 106.10 64.80
  Q 106.23 64.41 106.64 64.44
  Q 107.06 64.46 107.37 64.18
  Q 107.72 63.88 107.26 63.88
  L 106.03 63.88
  Q 105.48 63.88 105.17 63.43
  Q 104.69 62.74 103.94 62.58
  Q 103.48 62.48 103.11 62.19
  Q 102.22 61.51 101.68 60.60
  A 1.13 1.10 -8.2 0 0 100.97 60.08
  L 98.76 59.55
  Q 98.72 59.54 98.76 59.53
  L 104.21 58.77
  Q 105.44 58.60 104.27 58.18
  Q 102.86 57.66 101.45 57.59
  A 0.03 0.03 0.0 0 0 101.45 57.65
  Q 102.01 57.71 102.05 57.28" stroke="#4ab6fb"></path>
<path d="M 102.05 57.28
  Q 123.26 57.26 144.50 57.23
  C 154.54 57.21 154.38 42.98 144.25 43.01
  Q 113.52 43.09 82.79 42.98" stroke="#a4ddfd"></path>
<path d="M 82.79 42.98
  L 89.01 42.73
  Q 89.58 42.71 89.23 42.26
  Q 88.98 41.95 88.62 42.07
  Q 88.48 42.11 88.63 42.13
  Q 89.66 42.22 90.88 41.88
  Q 91.57 41.69 90.88 41.49
  Q 89.64 41.14 88.38 41.42
  Q 88.35 41.43 88.35 41.41
  Q 88.35 41.39 88.36 41.38
  Q 88.38 41.37 88.41 41.37
  Q 92.12 41.37 94.81 41.21
  Q 96.73 41.09 95.10 40.07
  Q 92.17 38.23 91.52 36.59
  Q 91.29 36.02 91.02 36.57
  Q 90.58 37.48 89.38 37.04
  Q 88.86 36.85 88.91 36.30
  Q 89.05 34.82 87.18 34.32
  Q 86.71 34.19 86.23 34.13
  Q 84.66 33.92 83.81 32.26
  Q 83.62 31.89 83.21 31.96
  L 82.78 32.04
  Q 82.22 32.15 81.97 31.63
  Q 81.78 31.22 81.90 30.75
  A 0.54 0.54 0.0 0 0 81.25 30.10
  Q 80.18 30.34 79.84 29.38
  Q 79.75 29.11 79.47 29.11
  L 78.95 29.11
  Q 78.53 29.11 78.22 28.81
  L 74.86 25.51
  Q 74.45 25.10 73.87 25.14
  Q 73.14 25.18 72.88 24.47
  Q 72.72 24.01 72.24 24.11
  Q 71.65 24.23 71.21 23.95
  A 0.83 0.82 -65.6 0 1 70.87 23.03
  Q 71.00 22.59 70.77 22.23
  A 0.35 0.35 0.0 0 0 70.13 22.37
  Q 70.07 22.78 69.69 23.04
  A 0.45 0.45 0.0 0 1 68.98 22.66
  Q 69.00 21.28 67.90 20.43
  Q 67.50 20.13 67.00 20.15
  Q 64.31 20.28 63.78 17.58
  Q 63.66 16.98 63.07 17.13
  Q 62.09 17.38 61.87 16.50
  Q 61.74 16.00 61.23 16.11
  Q 60.23 16.32 59.88 15.47
  Q 59.70 15.02 59.22 15.11
  Q 58.75 15.20 58.37 15.03
  Q 57.89 14.81 57.89 14.28
  L 57.88 13.34
  Q 57.88 12.32 57.29 13.15
  Q 57.04 13.50 56.95 13.90
  A 0.32 0.32 0.0 0 1 56.50 14.11
  Q 56.35 14.04 56.20 13.96
  Q 55.89 13.79 55.89 13.44
  L 55.89 12.51
  Q 55.89 11.94 55.33 12.08
  Q 54.24 12.37 53.88 11.47
  Q 53.69 11.01 53.21 11.11
  Q 52.22 11.32 51.88 10.47
  Q 51.70 10.02 51.22 10.11
  Q 50.57 10.24 50.10 9.87
  Q 49.60 9.46 50.14 9.11
  L 50.55 8.84
  Q 51.24 8.40 50.45 8.19
  Q 49.74 8.01 48.99 8.14
  A 0.80 0.78 -26.3 0 1 48.31 7.92
  L 46.83 6.49
  Q 46.44 6.10 45.88 6.14
  Q 45.15 6.18 44.89 5.48
  Q 44.72 5.01 44.23 5.11
  Q 43.75 5.21 43.36 5.03
  Q 42.89 4.80 42.89 4.28
  L 42.89 3.56
  A 0.44 0.44 0.0 0 0 42.41 3.12
  Q 41.52 3.19 40.72 2.77
  A 0.28 0.27 -30.4 0 1 40.86 2.25
  Q 41.79 2.27 42.60 1.82
  Q 42.95 1.63 42.96 1.23
  Q 42.98 0.70 43.44 0.16" stroke="#4ab6fb"></path>
<path d="M 145.99 0.00
  C 158.56 1.34 169.13 9.47 172.98 21.46
  Q 174.41 25.90 174.52 35.83
  Q 174.61 44.31 174.50 52.78" stroke="#a4e2fe"></path>
<path d="M 140.25 192.00
  L 142.88 165.04" stroke="#a6ccfc"></path>
<path d="M 142.88 165.04
  L 143.43 159.07
  Q 143.48 158.55 144.00 158.53
  C 159.85 158.08 171.94 146.83 174.37 131.24" stroke="#a6d2fd"></path>
<path d="M 174.37 131.24
  L 174.50 105.70" stroke="#a5d9fd"></path>
<path d="M 82.79 42.98
  Q 67.40 43.04 52.00 43.03
  Q 48.13 43.02 45.82 46.00" stroke="#a5d9fd"></path>
<path d="M 45.82 46.00
  L 45.69 45.40
  Q 45.64 45.13 45.91 45.11
  Q 46.07 45.10 46.23 45.10
  Q 46.42 45.10 46.47 44.91
  Q 46.51 44.78 46.50 44.64
  Q 46.49 44.16 46.10 44.43
  Q 45.61 44.78 44.82 44.74
  Q 44.41 44.72 44.10 44.45
  Q 43.70 44.10 43.47 43.63
  Q 43.41 43.51 42.92 43.08
  Q 42.77 42.95 42.55 42.98
  A 0.52 0.52 0.0 0 1 41.98 42.32
  Q 42.20 41.59 41.76 41.10
  Q 41.38 40.69 41.14 41.19
  L 40.90 41.71
  A 0.45 0.45 0.0 0 1 40.05 41.60
  Q 39.97 41.13 40.03 40.64
  A 0.57 0.57 0.0 0 0 39.46 39.99
  L 38.75 39.99
  Q 38.27 39.99 38.06 39.55
  Q 37.67 38.75 36.79 39.00
  Q 36.23 39.15 36.05 38.60
  Q 35.77 37.73 34.75 38.01
  A 0.56 0.56 0.0 0 1 34.05 37.47
  Q 34.04 36.02 32.70 35.20
  Q 32.29 34.95 31.81 35.00
  Q 30.16 35.18 29.26 33.75
  Q 28.97 33.30 29.03 32.76
  Q 29.05 32.56 28.97 32.38
  Q 28.83 32.00 28.43 32.03
  L 27.21 32.11
  Q 26.68 32.14 26.29 31.77
  L 24.83 30.33
  Q 24.43 29.94 23.87 30.01
  Q 23.21 30.10 22.99 29.45
  Q 22.81 28.91 22.24 28.98
  Q 21.07 29.13 20.66 28.03
  A 0.97 0.96 -3.5 0 0 19.98 27.43
  Q 17.48 26.88 17.80 24.20
  Q 17.87 23.63 17.32 23.44
  Q 17.10 23.36 16.80 23.35" stroke="#4bacfb"></path>
<path d="M 45.82 46.00
  Q 42.80 50.87 46.57 54.93
  Q 48.74 57.28 50.75 57.28
  Q 64.67 57.32 78.03 57.30" stroke="#a6d2fd"></path>
<path d="M 78.03 57.30
  Q 78.13 57.86 79.78 57.77
  A 0.48 0.48 0.0 0 1 80.29 58.30
  Q 80.20 59.06 79.72 59.14
  Q 79.19 59.24 79.12 59.77
  Q 78.98 60.92 79.42 62.01
  Q 79.57 62.37 79.50 62.75
  Q 79.06 65.07 80.31 66.92
  Q 80.50 67.22 80.33 67.53
  L 80.06 68.04
  Q 79.83 68.46 80.29 68.56
  L 80.76 68.67
  Q 81.63 68.87 80.77 69.07
  Q 78.86 69.53 76.89 69.35
  Q 76.87 69.35 76.87 69.36
  Q 76.87 69.37 76.87 69.38
  Q 76.87 69.41 76.90 69.40
  Q 78.11 69.16 78.56 69.75" stroke="#4bacfb"></path>
<path d="M 78.56 69.75
  Q 66.14 69.77 53.77 69.77
  Q 50.10 69.77 48.37 70.63
  C 43.32 73.17 43.17 80.50 48.24 83.18
  Q 50.03 84.12 54.42 84.12
  Q 75.98 84.11 97.55 84.23
  Q 98.08 84.24 98.21 83.73
  Q 98.48 82.68 98.25 81.51" stroke="#a6d2fd"></path>
<path d="M 98.25 81.51
  Q 98.55 81.77 98.59 82.19
  Q 98.62 82.50 98.92 82.56
  Q 99.10 82.59 99.29 82.55
  Q 99.67 82.45 99.68 82.06
  L 99.88 76.40
  Q 99.89 76.14 99.99 76.38
  Q 100.06 76.56 100.05 76.74
  Q 99.84 79.01 100.45 81.24
  Q 100.55 81.60 100.79 81.31
  Q 101.01 81.05 100.87 80.61
  Q 100.63 81.56 101.97 80.86
  A 1.74 1.73 67.9 0 1 104.45 81.91
  Q 104.79 83.09 105.82 82.94
  Q 106.35 82.86 106.62 83.32
  Q 107.55 84.84 109.34 85.27
  Q 109.87 85.39 110.22 85.80
  Q 110.56 86.20 111.04 86.47
  Q 111.46 86.71 111.67 87.13
  C 112.15 88.08 113.06 88.10 113.65 88.50
  Q 114.76 89.26 115.90 89.96
  Q 116.30 90.21 116.58 90.58
  L 117.61 91.92
  Q 117.95 92.36 118.05 92.92
  Q 118.27 94.22 120.02 94.55" stroke="#4bacfb"></path>
<path d="M 120.02 94.55
  L 110.89 108.72
  Q 110.50 109.33 111.22 109.33
  L 122.49 109.31
  A 0.65 0.64 -73.6 0 0 123.03 109.01
  L 130.58 97.30
  Q 131.01 96.63 131.42 97.31
  L 138.39 108.84
  A 0.94 0.93 -15.3 0 0 139.19 109.29
  L 151.91 109.35" stroke="#a6d2fd"></path>
<path d="M 151.91 109.35
  L 151.58 110.24
  A 0.87 0.85 10.5 0 1 150.76 110.79
  Q 145.72 110.67 140.74 111.42
  Q 140.12 111.52 140.72 111.69
  L 146.01 113.22
  Q 146.65 113.40 146.88 114.03
  Q 147.27 115.07 148.35 115.70
  Q 148.77 115.95 149.27 115.95
  Q 149.80 115.95 150.01 116.49
  Q 150.21 116.99 150.75 116.99
  L 151.36 116.99
  A 0.64 0.64 0.0 0 1 152.00 117.60
  L 152.04 118.72
  A 0.38 0.38 0.0 0 0 152.74 118.90
  L 153.19 118.15
  A 0.35 0.33 -65.3 0 1 153.57 118.00
  Q 153.72 118.04 153.81 118.18
  Q 154.01 118.47 154.01 118.50
  L 154.01 119.49
  A 0.55 0.55 0.0 0 0 154.72 120.02
  Q 155.73 119.73 156.05 120.56
  A 0.68 0.67 73.1 0 0 156.83 120.98
  Q 157.71 120.79 158.02 121.50
  A 0.81 0.80 78.3 0 0 158.76 121.99
  L 159.24 121.99
  Q 159.72 121.99 159.81 122.46
  Q 160.06 123.92 161.43 124.75
  Q 161.79 124.96 162.21 124.95
  Q 164.75 124.86 165.10 127.56
  Q 165.18 128.18 165.77 127.96
  Q 166.92 127.53 167.03 128.49
  A 0.60 0.60 0.0 0 0 167.77 129.00
  Q 168.69 128.76 169.01 129.49
  Q 169.24 130.01 169.76 130.18
  Q 171.29 130.69 172.23 131.95
  Q 172.36 132.12 172.54 132.02
  Q 172.70 131.94 172.85 131.97
  Q 173.13 132.03 173.16 131.74
  L 173.20 131.36
  A 0.05 0.01 -83.0 0 0 173.20 131.30
  Q 173.07 131.39 172.95 131.48
  Q 172.78 131.60 172.80 131.39
  Q 172.94 129.88 172.88 128.37
  Q 172.87 128.18 173.07 128.16
  L 173.08 128.16
  Q 173.27 128.14 173.30 128.33
  Q 173.40 129.20 173.61 130.07
  Q 173.46 130.55 174.37 131.24" stroke="#4bacfb"></path>
<path d="M 142.88 165.04
  Q 142.72 164.22 142.30 163.94
  Q 142.15 163.84 141.67 163.85
  Q 141.19 163.87 140.93 163.59
  Q 140.67 163.31 140.42 163.60
  Q 140.28 163.77 140.36 164.03
  A 0.01 0.01 0.0 0 0 140.38 164.03
  Q 140.42 163.82 140.37 163.57
  Q 140.29 163.19 139.95 163.01
  Q 138.71 162.35 137.90 161.19
  Q 137.62 160.77 137.13 160.89
  Q 136.26 161.11 136.03 160.31
  Q 135.91 159.88 135.46 159.88
  L 134.50 159.88
  Q 134.12 159.88 134.12 159.50
  L 134.12 158.62
  A 0.74 0.74 0.0 0 0 133.38 157.88
  L 132.77 157.88
  Q 132.41 157.88 132.22 157.58
  Q 131.56 156.57 130.42 156.89
  A 0.30 0.30 0.0 0 1 130.06 156.51
  Q 130.42 155.39 129.68 154.98
  Q 129.45 154.86 129.30 154.65
  Q 128.52 153.61 127.28 153.84
  Q 126.77 153.94 126.35 153.63
  Q 125.48 153.01 124.90 152.20
  Q 124.67 151.88 124.28 151.88
  L 123.79 151.88
  Q 123.32 151.88 123.02 151.51
  Q 121.87 150.10 120.47 148.96
  A 0.37 0.36 -25.1 0 0 120.24 148.88
  L 119.51 148.88
  Q 119.19 148.88 119.09 148.57
  Q 118.87 147.92 117.52 147.83
  A 0.46 0.46 0.0 0 1 117.11 147.27
  Q 117.34 146.22 116.44 145.85
  A 0.40 0.40 0.0 0 0 115.89 146.29
  Q 115.96 146.69 115.60 146.89
  A 0.35 0.35 0.0 0 1 115.10 146.49
  Q 115.41 145.39 114.51 144.88
  Q 114.47 144.86 114.01 144.26
  Q 113.61 143.75 112.84 143.88
  Q 112.38 143.96 112.16 143.55
  Q 111.64 142.58 110.51 142.90
  Q 109.99 143.04 110.11 142.52
  Q 110.26 141.79 109.93 141.19
  Q 109.63 140.65 109.16 141.07
  Q 108.90 141.31 108.86 141.66
  A 0.29 0.29 0.0 0 1 108.40 141.86
  Q 107.91 141.49 108.13 140.80
  A 0.65 0.64 -65.6 0 0 107.86 140.07
  Q 107.45 139.80 106.95 139.86
  Q 106.33 139.93 106.00 139.40
  Q 104.85 137.55 102.75 137.88
  Q 102.24 137.96 102.18 137.45
  Q 102.01 135.96 100.71 135.10
  Q 100.29 134.82 99.80 134.89
  Q 98.21 135.10 97.33 133.75
  Q 97.06 133.32 97.13 132.82
  Q 97.21 132.19 96.57 131.97
  Q 95.87 131.74 95.88 132.47
  Q 95.88 132.62 95.88 132.78
  A 0.11 0.10 -0.0 0 1 95.77 132.88
  Q 95.64 132.88 95.49 132.88
  Q 95.12 132.86 95.12 132.49
  L 95.12 131.50
  A 0.62 0.62 0.0 0 0 94.50 130.88
  L 94.04 130.88
  Q 93.49 130.88 93.16 130.43
  Q 92.64 129.71 91.81 129.88
  Q 91.34 129.97 91.14 129.54
  Q 90.74 128.69 89.87 128.87
  Q 89.12 129.02 89.12 128.25
  L 89.12 127.63
  A 0.75 0.75 0.0 0 0 88.37 126.88
  L 87.52 126.88
  Q 87.24 126.88 87.16 126.61
  Q 86.93 125.81 86.25 125.95
  A 1.87 1.62 4.0 0 1 84.05 123.75
  Q 84.26 123.28 83.72 123.06
  Q 83.17 122.83 82.96 123.39
  Q 82.87 123.64 82.67 123.83
  A 0.34 0.34 0.0 0 1 82.11 123.54
  Q 82.20 122.88 82.02 122.29
  Q 81.89 121.88 81.46 121.88
  L 80.79 121.88
  Q 80.44 121.88 80.26 121.58
  Q 79.76 120.74 78.87 120.86
  Q 78.44 120.91 78.17 120.57
  Q 77.48 119.69 76.65 119.03
  Q 76.24 118.70 75.76 118.71
  Q 74.97 118.73 74.87 119.23
  Q 74.54 120.95 74.08 119.26
  Q 74.05 119.15 74.18 118.52
  Q 74.45 117.16 73.38 116.90
  Q 73.14 116.84 73.13 116.59
  Q 73.11 116.13 72.38 115.93
  A 0.79 0.72 47.7 0 0 72.06 115.90
  Q 69.73 116.16 68.88 113.80
  Q 68.72 113.33 68.27 113.12
  Q 66.31 112.16 64.16 111.79
  Q 64.13 111.78 64.13 111.75
  Q 64.11 111.63 64.12 111.50
  Q 64.15 111.21 64.44 111.19
  L 70.61 110.83
  Q 71.28 110.79 70.67 110.50
  Q 70.03 110.19 69.24 110.39
  Q 68.19 110.64 67.53 110.08
  Q 67.17 109.78 66.70 109.79
  Q 65.27 109.82 63.99 109.32" stroke="#4d9ffa"></path>
<path d="M 63.99 109.32
  L 97.75 109.30
  Q 98.31 109.30 98.31 108.74
  L 98.31 95.30
  Q 98.31 95.15 98.17 95.15
  L 48.34 95.31" stroke="#a6d2fd"></path>
<path d="M 48.34 95.31
  Q 45.30 97.22 47.79 94.13
  Q 48.06 93.80 47.88 93.42
  Q 47.39 92.39 46.42 91.91
  Q 46.00 91.71 46.00 91.23
  L 46.00 90.54
  A 0.58 0.58 0.0 0 0 45.32 89.97
  Q 43.10 90.38 42.03 88.45
  A 0.87 0.86 75.9 0 0 41.32 88.02
  L 40.39 87.97
  A 0.47 0.47 0.0 0 1 39.96 87.37
  Q 40.17 86.62 39.76 86.08
  A 0.35 0.34 43.7 0 0 39.20 86.09
  Q 39.06 86.29 39.00 86.54
  Q 38.77 87.58 38.17 86.70
  Q 37.85 86.22 37.94 85.55
  Q 38.01 85.00 37.46 85.00
  L 36.75 85.00
  Q 36.20 85.00 36.00 84.49
  Q 35.73 83.80 34.90 84.02
  Q 34.31 84.18 34.06 83.63
  Q 33.63 82.67 32.51 83.02
  A 0.41 0.41 0.0 0 1 32.00 82.52
  Q 32.13 82.04 32.10 81.54
  Q 32.08 81.00 31.53 81.00
  L 31.00 81.00
  Q 30.48 81.00 30.12 80.63
  L 28.71 79.17
  A 0.58 0.58 0.0 0 0 28.30 79.00
  Q 28.12 79.00 27.93 78.99
  Q 27.48 78.94 27.15 78.62
  L 24.75 76.25
  Q 24.42 75.92 23.96 76.01
  Q 23.22 76.15 22.99 75.47
  A 0.74 0.72 76.4 0 0 22.22 74.99
  Q 20.82 75.17 21.00 73.78
  Q 21.02 73.64 20.92 73.54
  L 20.67 73.29
  Q 20.49 73.11 20.30 73.29
  L 19.85 73.74
  Q 19.45 74.14 19.07 73.73
  Q 17.90 72.49 17.66 70.81
  Q 17.51 69.78 17.10 70.74
  Q 15.71 73.99 16.07 77.97" stroke="#4d9ffa"></path>
<path d="M 102.05 57.28
  L 78.03 57.30" stroke="#a5d9fd"></path>
<path d="M 111.16 69.90
  L 123.11 88.80
  Q 123.41 89.27 123.11 89.74
  L 120.02 94.55" stroke="#a5d9fd"></path>
<path d="M 98.25 81.51
  L 98.27 70.35
  Q 98.27 69.78 97.70 69.78
  L 78.56 69.75" stroke="#a5d9fd"></path>
<path d="M 146.41 77.19
  L 138.81 88.70
  Q 138.41 89.31 138.82 89.91
  L 151.91 109.35" stroke="#a5d9fd"></path>
<path d="M 48.34 95.31
  Q 43.08 100.17 44.99 104.73
  C 46.50 108.34 48.91 109.32 52.89 109.31
  Q 58.49 109.30 63.99 109.32" stroke="#a6ccfc"></path>
<path d="M 77.61 158.44
  Q 80.47 157.20 84.37 157.42
  Q 85.12 157.47 84.53 157.15
  Q 84.31 157.03 84.00 157.22
  Q 75.81 156.79 67.67 156.87
  Q 67.64 156.87 67.67 156.88
  Q 67.99 156.97 68.24 156.87
  Q 68.83 156.63 68.38 156.18
  Q 67.78 155.58 66.83 155.69
  Q 66.40 155.74 66.15 155.39
  Q 65.55 154.57 64.69 154.08
  Q 64.42 153.92 64.21 153.69
  Q 63.66 153.10 62.99 152.95
  A 2.29 1.47 15.7 0 1 61.05 150.76
  Q 61.23 150.33 60.86 150.12
  Q 60.57 149.96 60.26 150.09
  Q 59.84 150.29 59.87 150.63
  A 0.27 0.27 0.0 0 1 59.46 150.89
  Q 58.89 150.52 59.15 149.78
  A 0.62 0.62 0.0 0 0 58.82 149.02
  Q 58.31 148.79 57.76 148.88
  A 0.58 0.58 0.0 0 1 57.12 148.51
  Q 56.84 147.77 56.02 147.87
  Q 55.48 147.93 55.13 147.53
  Q 53.92 146.14 52.51 144.99
  Q 52.20 144.74 52.02 144.40
  Q 51.67 143.73 50.81 143.88
  Q 50.35 143.96 50.14 143.53
  Q 49.72 142.66 48.82 142.88
  Q 48.35 142.99 48.15 142.55
  Q 47.73 141.65 46.79 141.89
  Q 45.99 142.09 46.11 141.28
  Q 46.35 139.66 44.74 139.88
  Q 44.26 139.95 44.11 139.50
  Q 43.89 138.82 43.25 138.95
  A 1.88 1.62 4.1 0 1 41.05 136.75
  Q 41.35 136.07 40.09 135.90
  A 1.24 0.69 34.4 0 0 39.88 135.88
  Q 39.43 135.89 38.95 135.82
  Q 38.46 135.74 38.09 135.41
  L 36.73 134.16
  Q 36.42 133.88 36.00 133.88
  L 34.75 133.88
  Q 34.12 133.88 34.12 133.25
  L 34.12 132.78
  Q 34.12 132.13 33.51 131.90
  Q 33.12 131.75 33.02 131.35
  A 0.72 0.71 -15.0 0 0 32.13 130.84
  Q 31.17 131.11 31.01 130.28
  A 0.57 0.57 0.0 0 0 30.27 129.84
  Q 29.36 130.14 29.08 129.45
  Q 28.85 128.88 28.23 128.88
  L 27.75 128.88
  Q 27.12 128.88 27.12 128.25
  L 27.12 127.50
  A 0.62 0.62 0.0 0 0 26.50 126.88
  L 26.04 126.88
  Q 25.49 126.88 25.16 126.43
  Q 24.63 125.69 23.77 125.89
  Q 23.28 126.00 23.12 125.52
  Q 22.90 124.86 22.21 124.87
  Q 21.73 124.87 21.35 124.58
  L 19.42 123.06
  Q 19.15 122.85 18.86 123.03
  Q 18.61 123.18 18.48 122.84
  Q 18.14 121.90 17.71 120.85
  Q 17.54 120.43 17.17 120.69
  Q 16.13 121.39 16.13 122.25
  Q 16.14 125.98 16.11 129.72" stroke="#4e93f9"></path>
</g>
<path d="M 0.00 0.00
  L 44.62 0.00
  Q 44.15 0.40 43.44 0.16
  Q 23.00 3.46 16.80 23.35
  Q 16.41 25.78 16.36 28.25
  Q 15.86 53.10 16.07 77.97
  L 16.11 129.72
  C 16.95 142.21 25.36 152.97 37.06 156.91
  Q 41.67 158.46 51.15 158.53
  Q 64.51 158.63 77.61 158.44
  L 99.96 158.51
  A 1.28 1.24 -24.1 0 1 100.78 158.81
  L 140.12 192.00
  L 0.00 192.00
  L 0.00 0.00
  Z" fill="#ffffff"></path>
<path d="M 44.62 0.00
  L 86.97 0.00
  L 90.25 0.81
  Q 90.72 0.92 90.85 1.38
  Q 91.08 2.18 91.81 2.13
  Q 92.33 2.10 92.76 2.41
  Q 93.55 2.99 94.05 3.75
  Q 94.30 4.12 94.75 4.12
  L 96.25 4.12
  Q 96.88 4.12 96.88 4.75
  L 96.88 5.07
  Q 96.88 5.50 97.18 5.81
  L 99.10 7.77
  Q 99.44 8.12 99.92 8.12
  L 101.25 8.12
  Q 101.88 8.12 101.88 8.75
  L 101.88 9.31
  Q 101.88 9.80 102.33 10.00
  Q 102.84 10.22 103.41 10.12
  Q 103.74 10.07 103.84 10.39
  Q 104.08 11.17 104.85 11.13
  Q 105.34 11.11 105.68 11.46
  Q 106.72 12.50 108.28 12.08
  Q 108.91 11.91 108.87 12.56
  Q 108.83 13.16 109.48 13.14
  Q 109.88 13.13 109.88 13.53
  L 109.88 14.30
  Q 109.88 14.77 110.29 14.99
  Q 110.71 15.22 111.21 15.12
  Q 111.68 15.02 111.87 15.46
  Q 112.28 16.40 113.22 16.13
  Q 113.88 15.94 113.88 16.63
  Q 113.88 17.14 114.41 17.12
  Q 115.01 17.09 114.89 17.68
  Q 114.79 18.20 114.97 18.67
  Q 115.18 19.20 115.71 18.99
  Q 116.11 18.84 116.49 19.00
  Q 116.78 19.12 117.10 19.68
  Q 118.07 21.36 120.10 21.13
  Q 120.53 21.09 120.67 21.51
  Q 120.84 22.06 121.48 22.13
  Q 122.22 22.76 122.92 23.55
  Q 123.21 23.88 123.66 23.96
  Q 124.97 24.19 125.86 25.65
  Q 126.32 26.40 127.28 26.24
  Q 127.71 26.17 127.87 26.57
  Q 128.21 27.39 129.13 27.13
  Q 129.53 27.02 129.72 27.40
  Q 129.97 27.88 129.89 28.41
  Q 129.77 29.12 130.49 29.12
  L 131.02 29.12
  Q 131.58 29.12 131.87 29.58
  Q 132.30 30.24 132.96 30.12
  Q 133.47 30.03 133.64 30.52
  Q 133.82 31.02 134.38 31.15
  A 0.67 0.67 0.0 0 1 134.88 31.80
  L 134.88 32.50
  Q 134.88 33.12 135.50 33.12
  L 137.25 33.12
  Q 137.88 33.11 137.88 33.75
  L 137.89 34.42
  Q 137.89 34.95 138.42 34.99
  L 141.26 35.16
  Q 141.80 35.19 141.88 35.74
  Q 141.93 36.06 142.27 36.10
  A 0.62 0.62 0.0 0 1 142.81 36.75
  Q 142.73 38.29 144.22 38.12
  Q 144.59 38.08 144.81 38.40
  Q 144.95 38.60 145.10 38.79
  Q 145.33 39.10 145.76 39.30
  Q 146.95 39.85 147.92 40.69
  Q 148.28 41.00 148.32 41.48
  Q 148.44 42.95 149.89 42.87
  Q 150.01 42.87 150.08 42.97
  Q 150.16 43.10 150.11 43.25
  Q 149.91 43.92 150.74 43.55
  Q 151.75 43.08 152.36 43.79
  Q 153.13 44.70 153.62 44.56
  A 1.74 1.68 -9.0 0 1 155.80 46.09
  Q 155.85 47.13 157.00 47.15
  Q 157.47 47.15 157.78 47.50
  Q 159.06 48.96 161.04 49.14
  Q 161.47 49.18 161.65 49.37
  Q 161.97 49.69 161.87 50.18
  Q 161.78 50.67 162.20 50.94
  Q 162.66 51.23 163.19 51.12
  Q 163.66 51.03 163.83 51.48
  C 164.39 52.95 165.95 53.11 167.14 54.11
  Q 169.68 56.24 172.23 58.38
  Q 172.56 58.66 172.66 58.23
  Q 173.02 56.75 172.85 55.19
  A 0.08 0.08 0.0 0 1 172.93 55.10
  Q 173.13 55.11 173.25 55.26
  Q 173.55 55.66 173.69 54.75
  L 173.90 53.39
  A 0.01 0.01 0.0 0 0 173.89 53.38
  Q 173.71 53.88 173.97 54.39
  A 0.20 0.20 0.0 0 0 174.35 54.32
  L 174.50 52.78
  L 174.50 105.70
  Q 173.59 106.28 173.42 107.27
  Q 173.37 107.55 173.37 107.27
  L 173.37 98.00
  Q 173.37 97.71 173.08 97.70
  L 172.81 97.69
  Q 172.75 97.69 172.74 97.75
  L 172.41 100.55
  A 0.05 0.05 0.0 0 1 172.31 100.57
  C 171.72 99.41 169.70 98.06 168.69 97.17
  Q 168.32 96.85 167.83 96.91
  Q 167.18 96.99 167.12 96.46
  Q 167.05 95.88 166.47 95.88
  L 165.81 95.88
  Q 165.33 95.88 165.24 95.42
  Q 164.63 92.53 161.72 92.88
  Q 161.22 92.94 161.17 92.44
  Q 161.03 91.02 159.82 90.14
  Q 159.38 89.82 158.84 89.89
  Q 158.12 89.98 158.01 89.28
  A 0.56 0.56 0.0 0 0 157.28 88.84
  Q 156.28 89.18 156.01 88.31
  Q 155.86 87.80 155.32 87.88
  Q 153.83 88.11 154.07 86.72
  Q 154.18 86.11 153.56 86.15
  Q 152.96 86.20 152.68 86.92
  A 0.23 0.23 0.0 0 1 152.23 86.80
  Q 152.53 84.96 150.74 84.83
  Q 150.31 84.79 150.09 84.43
  Q 149.61 83.63 148.62 83.89
  A 0.61 0.60 -10.5 0 1 147.87 83.38
  Q 147.84 83.02 147.56 82.80
  Q 147.20 82.51 146.75 82.56
  Q 145.41 82.70 145.54 81.71
  Q 145.58 81.33 145.80 81.03
  Q 146.26 80.37 146.82 79.23
  Q 147.55 77.72 146.41 77.19
  L 151.02 70.23
  A 0.31 0.31 0.0 0 0 150.76 69.75
  L 139.04 69.76
  A 1.05 1.04 14.7 0 0 138.13 70.29
  L 131.46 81.99
  A 0.51 0.51 0.0 0 1 130.56 81.98
  L 124.21 70.28
  Q 123.95 69.80 123.41 69.80
  L 111.16 69.90
  Q 110.02 70.11 109.12 68.09
  Q 108.78 67.32 108.21 67.15
  Q 107.93 67.07 107.81 66.80
  Q 107.59 66.33 107.16 66.30
  Q 106.79 66.27 106.69 65.91
  Q 106.61 65.58 106.14 65.47
  Q 105.57 65.34 105.88 65.12
  Q 106.03 65.00 106.10 64.80
  Q 106.23 64.41 106.64 64.44
  Q 107.06 64.46 107.37 64.18
  Q 107.72 63.88 107.26 63.88
  L 106.03 63.88
  Q 105.48 63.88 105.17 63.43
  Q 104.69 62.74 103.94 62.58
  Q 103.48 62.48 103.11 62.19
  Q 102.22 61.51 101.68 60.60
  A 1.13 1.10 -8.2 0 0 100.97 60.08
  L 98.76 59.55
  Q 98.72 59.54 98.76 59.53
  L 104.21 58.77
  Q 105.44 58.60 104.27 58.18
  Q 102.86 57.66 101.45 57.59
  A 0.03 0.03 0.0 0 0 101.45 57.65
  Q 102.01 57.71 102.05 57.28
  Q 123.26 57.26 144.50 57.23
  C 154.54 57.21 154.38 42.98 144.25 43.01
  Q 113.52 43.09 82.79 42.98
  L 89.01 42.73
  Q 89.58 42.71 89.23 42.26
  Q 88.98 41.95 88.62 42.07
  Q 88.48 42.11 88.63 42.13
  Q 89.66 42.22 90.88 41.88
  Q 91.57 41.69 90.88 41.49
  Q 89.64 41.14 88.38 41.42
  Q 88.35 41.43 88.35 41.41
  Q 88.35 41.39 88.36 41.38
  Q 88.38 41.37 88.41 41.37
  Q 92.12 41.37 94.81 41.21
  Q 96.73 41.09 95.10 40.07
  Q 92.17 38.23 91.52 36.59
  Q 91.29 36.02 91.02 36.57
  Q 90.58 37.48 89.38 37.04
  Q 88.86 36.85 88.91 36.30
  Q 89.05 34.82 87.18 34.32
  Q 86.71 34.19 86.23 34.13
  Q 84.66 33.92 83.81 32.26
  Q 83.62 31.89 83.21 31.96
  L 82.78 32.04
  Q 82.22 32.15 81.97 31.63
  Q 81.78 31.22 81.90 30.75
  A 0.54 0.54 0.0 0 0 81.25 30.10
  Q 80.18 30.34 79.84 29.38
  Q 79.75 29.11 79.47 29.11
  L 78.95 29.11
  Q 78.53 29.11 78.22 28.81
  L 74.86 25.51
  Q 74.45 25.10 73.87 25.14
  Q 73.14 25.18 72.88 24.47
  Q 72.72 24.01 72.24 24.11
  Q 71.65 24.23 71.21 23.95
  A 0.83 0.82 -65.6 0 1 70.87 23.03
  Q 71.00 22.59 70.77 22.23
  A 0.35 0.35 0.0 0 0 70.13 22.37
  Q 70.07 22.78 69.69 23.04
  A 0.45 0.45 0.0 0 1 68.98 22.66
  Q 69.00 21.28 67.90 20.43
  Q 67.50 20.13 67.00 20.15
  Q 64.31 20.28 63.78 17.58
  Q 63.66 16.98 63.07 17.13
  Q 62.09 17.38 61.87 16.50
  Q 61.74 16.00 61.23 16.11
  Q 60.23 16.32 59.88 15.47
  Q 59.70 15.02 59.22 15.11
  Q 58.75 15.20 58.37 15.03
  Q 57.89 14.81 57.89 14.28
  L 57.88 13.34
  Q 57.88 12.32 57.29 13.15
  Q 57.04 13.50 56.95 13.90
  A 0.32 0.32 0.0 0 1 56.50 14.11
  Q 56.35 14.04 56.20 13.96
  Q 55.89 13.79 55.89 13.44
  L 55.89 12.51
  Q 55.89 11.94 55.33 12.08
  Q 54.24 12.37 53.88 11.47
  Q 53.69 11.01 53.21 11.11
  Q 52.22 11.32 51.88 10.47
  Q 51.70 10.02 51.22 10.11
  Q 50.57 10.24 50.10 9.87
  Q 49.60 9.46 50.14 9.11
  L 50.55 8.84
  Q 51.24 8.40 50.45 8.19
  Q 49.74 8.01 48.99 8.14
  A 0.80 0.78 -26.3 0 1 48.31 7.92
  L 46.83 6.49
  Q 46.44 6.10 45.88 6.14
  Q 45.15 6.18 44.89 5.48
  Q 44.72 5.01 44.23 5.11
  Q 43.75 5.21 43.36 5.03
  Q 42.89 4.80 42.89 4.28
  L 42.89 3.56
  A 0.44 0.44 0.0 0 0 42.41 3.12
  Q 41.52 3.19 40.72 2.77
  A 0.28 0.27 -30.4 0 1 40.86 2.25
  Q 41.79 2.27 42.60 1.82
  Q 42.95 1.63 42.96 1.23
  Q 42.98 0.70 43.44 0.16
  Q 44.15 0.40 44.62 0.00
  Z" fill="#49bafb"></path>
<path d="M 86.97 0.00
  L 145.99 0.00
  C 158.56 1.34 169.13 9.47 172.98 21.46
  Q 174.41 25.90 174.52 35.83
  Q 174.61 44.31 174.50 52.78
  L 174.35 54.32
  A 0.20 0.20 0.0 0 1 173.97 54.39
  Q 173.71 53.88 173.89 53.38
  A 0.01 0.01 0.0 0 1 173.90 53.39
  L 173.69 54.75
  Q 173.55 55.66 173.25 55.26
  Q 173.13 55.11 172.93 55.10
  A 0.08 0.08 0.0 0 0 172.85 55.19
  Q 173.02 56.75 172.66 58.23
  Q 172.56 58.66 172.23 58.38
  Q 169.68 56.24 167.14 54.11
  C 165.95 53.11 164.39 52.95 163.83 51.48
  Q 163.66 51.03 163.19 51.12
  Q 162.66 51.23 162.20 50.94
  Q 161.78 50.67 161.87 50.18
  Q 161.97 49.69 161.65 49.37
  Q 161.47 49.18 161.04 49.14
  Q 159.06 48.96 157.78 47.50
  Q 157.47 47.15 157.00 47.15
  Q 155.85 47.13 155.80 46.09
  A 1.74 1.68 -9.0 0 0 153.62 44.56
  Q 153.13 44.70 152.36 43.79
  Q 151.75 43.08 150.74 43.55
  Q 149.91 43.92 150.11 43.25
  Q 150.16 43.10 150.08 42.97
  Q 150.01 42.87 149.89 42.87
  Q 148.44 42.95 148.32 41.48
  Q 148.28 41.00 147.92 40.69
  Q 146.95 39.85 145.76 39.30
  Q 145.33 39.10 145.10 38.79
  Q 144.95 38.60 144.81 38.40
  Q 144.59 38.08 144.22 38.12
  Q 142.73 38.29 142.81 36.75
  A 0.62 0.62 0.0 0 0 142.27 36.10
  Q 141.93 36.06 141.88 35.74
  Q 141.80 35.19 141.26 35.16
  L 138.42 34.99
  Q 137.89 34.95 137.89 34.42
  L 137.88 33.75
  Q 137.88 33.11 137.25 33.12
  L 135.50 33.12
  Q 134.88 33.12 134.88 32.50
  L 134.88 31.80
  A 0.67 0.67 0.0 0 0 134.38 31.15
  Q 133.82 31.02 133.64 30.52
  Q 133.47 30.03 132.96 30.12
  Q 132.30 30.24 131.87 29.58
  Q 131.58 29.12 131.02 29.12
  L 130.49 29.12
  Q 129.77 29.12 129.89 28.41
  Q 129.97 27.88 129.72 27.40
  Q 129.53 27.02 129.13 27.13
  Q 128.21 27.39 127.87 26.57
  Q 127.71 26.17 127.28 26.24
  Q 126.32 26.40 125.86 25.65
  Q 124.97 24.19 123.66 23.96
  Q 123.21 23.88 122.92 23.55
  Q 122.22 22.76 121.48 22.13
  Q 120.84 22.06 120.67 21.51
  Q 120.53 21.09 120.10 21.13
  Q 118.07 21.36 117.10 19.68
  Q 116.78 19.12 116.49 19.00
  Q 116.11 18.84 115.71 18.99
  Q 115.18 19.20 114.97 18.67
  Q 114.79 18.20 114.89 17.68
  Q 115.01 17.09 114.41 17.12
  Q 113.88 17.14 113.88 16.63
  Q 113.88 15.94 113.22 16.13
  Q 112.28 16.40 111.87 15.46
  Q 111.68 15.02 111.21 15.12
  Q 110.71 15.22 110.29 14.99
  Q 109.88 14.77 109.88 14.30
  L 109.88 13.53
  Q 109.88 13.13 109.48 13.14
  Q 108.83 13.16 108.87 12.56
  Q 108.91 11.91 108.28 12.08
  Q 106.72 12.50 105.68 11.46
  Q 105.34 11.11 104.85 11.13
  Q 104.08 11.17 103.84 10.39
  Q 103.74 10.07 103.41 10.12
  Q 102.84 10.22 102.33 10.00
  Q 101.88 9.80 101.88 9.31
  L 101.88 8.75
  Q 101.88 8.12 101.25 8.12
  L 99.92 8.12
  Q 99.44 8.12 99.10 7.77
  L 97.18 5.81
  Q 96.88 5.50 96.88 5.07
  L 96.88 4.75
  Q 96.88 4.12 96.25 4.12
  L 94.75 4.12
  Q 94.30 4.12 94.05 3.75
  Q 93.55 2.99 92.76 2.41
  Q 92.33 2.10 91.81 2.13
  Q 91.08 2.18 90.85 1.38
  Q 90.72 0.92 90.25 0.81
  L 86.97 0.00
  Z" fill="#48c4fc"></path>
<path d="M 145.99 0.00
  L 192.00 0.00
  L 192.00 192.00
  L 140.25 192.00
  L 142.88 165.04
  L 143.43 159.07
  Q 143.48 158.55 144.00 158.53
  C 159.85 158.08 171.94 146.83 174.37 131.24
  L 174.50 105.70
  L 174.50 52.78
  Q 174.61 44.31 174.52 35.83
  Q 174.41 25.90 172.98 21.46
  C 169.13 9.47 158.56 1.34 145.99 0.00
  Z" fill="#ffffff"></path>
<path d="M 43.44 0.16
  Q 42.98 0.70 42.96 1.23
  Q 42.95 1.63 42.60 1.82
  Q 41.79 2.27 40.86 2.25
  A 0.28 0.27 -30.4 0 0 40.72 2.77
  Q 41.52 3.19 42.41 3.12
  A 0.44 0.44 0.0 0 1 42.89 3.56
  L 42.89 4.28
  Q 42.89 4.80 43.36 5.03
  Q 43.75 5.21 44.23 5.11
  Q 44.72 5.01 44.89 5.48
  Q 45.15 6.18 45.88 6.14
  Q 46.44 6.10 46.83 6.49
  L 48.31 7.92
  A 0.80 0.78 -26.3 0 0 48.99 8.14
  Q 49.74 8.01 50.45 8.19
  Q 51.24 8.40 50.55 8.84
  L 50.14 9.11
  Q 49.60 9.46 50.10 9.87
  Q 50.57 10.24 51.22 10.11
  Q 51.70 10.02 51.88 10.47
  Q 52.22 11.32 53.21 11.11
  Q 53.69 11.01 53.88 11.47
  Q 54.24 12.37 55.33 12.08
  Q 55.89 11.94 55.89 12.51
  L 55.89 13.44
  Q 55.89 13.79 56.20 13.96
  Q 56.35 14.04 56.50 14.11
  A 0.32 0.32 0.0 0 0 56.95 13.90
  Q 57.04 13.50 57.29 13.15
  Q 57.88 12.32 57.88 13.34
  L 57.89 14.28
  Q 57.89 14.81 58.37 15.03
  Q 58.75 15.20 59.22 15.11
  Q 59.70 15.02 59.88 15.47
  Q 60.23 16.32 61.23 16.11
  Q 61.74 16.00 61.87 16.50
  Q 62.09 17.38 63.07 17.13
  Q 63.66 16.98 63.78 17.58
  Q 64.31 20.28 67.00 20.15
  Q 67.50 20.13 67.90 20.43
  Q 69.00 21.28 68.98 22.66
  A 0.45 0.45 0.0 0 0 69.69 23.04
  Q 70.07 22.78 70.13 22.37
  A 0.35 0.35 0.0 0 1 70.77 22.23
  Q 71.00 22.59 70.87 23.03
  A 0.83 0.82 -65.6 0 0 71.21 23.95
  Q 71.65 24.23 72.24 24.11
  Q 72.72 24.01 72.88 24.47
  Q 73.14 25.18 73.87 25.14
  Q 74.45 25.10 74.86 25.51
  L 78.22 28.81
  Q 78.53 29.11 78.95 29.11
  L 79.47 29.11
  Q 79.75 29.11 79.84 29.38
  Q 80.18 30.34 81.25 30.10
  A 0.54 0.54 0.0 0 1 81.90 30.75
  Q 81.78 31.22 81.97 31.63
  Q 82.22 32.15 82.78 32.04
  L 83.21 31.96
  Q 83.62 31.89 83.81 32.26
  Q 84.66 33.92 86.23 34.13
  Q 86.71 34.19 87.18 34.32
  Q 89.05 34.82 88.91 36.30
  Q 88.86 36.85 89.38 37.04
  Q 90.58 37.48 91.02 36.57
  Q 91.29 36.02 91.52 36.59
  Q 92.17 38.23 95.10 40.07
  Q 96.73 41.09 94.81 41.21
  Q 92.12 41.37 88.41 41.37
  Q 88.38 41.37 88.36 41.38
  Q 88.35 41.39 88.35 41.41
  Q 88.35 41.43 88.38 41.42
  Q 89.64 41.14 90.88 41.49
  Q 91.57 41.69 90.88 41.88
  Q 89.66 42.22 88.63 42.13
  Q 88.48 42.11 88.62 42.07
  Q 88.98 41.95 89.23 42.26
  Q 89.58 42.71 89.01 42.73
  L 82.79 42.98
  Q 67.40 43.04 52.00 43.03
  Q 48.13 43.02 45.82 46.00
  L 45.69 45.40
  Q 45.64 45.13 45.91 45.11
  Q 46.07 45.10 46.23 45.10
  Q 46.42 45.10 46.47 44.91
  Q 46.51 44.78 46.50 44.64
  Q 46.49 44.16 46.10 44.43
  Q 45.61 44.78 44.82 44.74
  Q 44.41 44.72 44.10 44.45
  Q 43.70 44.10 43.47 43.63
  Q 43.41 43.51 42.92 43.08
  Q 42.77 42.95 42.55 42.98
  A 0.52 0.52 0.0 0 1 41.98 42.32
  Q 42.20 41.59 41.76 41.10
  Q 41.38 40.69 41.14 41.19
  L 40.90 41.71
  A 0.45 0.45 0.0 0 1 40.05 41.60
  Q 39.97 41.13 40.03 40.64
  A 0.57 0.57 0.0 0 0 39.46 39.99
  L 38.75 39.99
  Q 38.27 39.99 38.06 39.55
  Q 37.67 38.75 36.79 39.00
  Q 36.23 39.15 36.05 38.60
  Q 35.77 37.73 34.75 38.01
  A 0.56 0.56 0.0 0 1 34.05 37.47
  Q 34.04 36.02 32.70 35.20
  Q 32.29 34.95 31.81 35.00
  Q 30.16 35.18 29.26 33.75
  Q 28.97 33.30 29.03 32.76
  Q 29.05 32.56 28.97 32.38
  Q 28.83 32.00 28.43 32.03
  L 27.21 32.11
  Q 26.68 32.14 26.29 31.77
  L 24.83 30.33
  Q 24.43 29.94 23.87 30.01
  Q 23.21 30.10 22.99 29.45
  Q 22.81 28.91 22.24 28.98
  Q 21.07 29.13 20.66 28.03
  A 0.97 0.96 -3.5 0 0 19.98 27.43
  Q 17.48 26.88 17.80 24.20
  Q 17.87 23.63 17.32 23.44
  Q 17.10 23.36 16.80 23.35
  Q 23.00 3.46 43.44 0.16
  Z" fill="#4ab2fb"></path>
<path d="M 16.80 23.35
  Q 17.10 23.36 17.32 23.44
  Q 17.87 23.63 17.80 24.20
  Q 17.48 26.88 19.98 27.43
  A 0.97 0.96 -3.5 0 1 20.66 28.03
  Q 21.07 29.13 22.24 28.98
  Q 22.81 28.91 22.99 29.45
  Q 23.21 30.10 23.87 30.01
  Q 24.43 29.94 24.83 30.33
  L 26.29 31.77
  Q 26.68 32.14 27.21 32.11
  L 28.43 32.03
  Q 28.83 32.00 28.97 32.38
  Q 29.05 32.56 29.03 32.76
  Q 28.97 33.30 29.26 33.75
  Q 30.16 35.18 31.81 35.00
  Q 32.29 34.95 32.70 35.20
  Q 34.04 36.02 34.05 37.47
  A 0.56 0.56 0.0 0 0 34.75 38.01
  Q 35.77 37.73 36.05 38.60
  Q 36.23 39.15 36.79 39.00
  Q 37.67 38.75 38.06 39.55
  Q 38.27 39.99 38.75 39.99
  L 39.46 39.99
  A 0.57 0.57 0.0 0 1 40.03 40.64
  Q 39.97 41.13 40.05 41.60
  A 0.45 0.45 0.0 0 0 40.90 41.71
  L 41.14 41.19
  Q 41.38 40.69 41.76 41.10
  Q 42.20 41.59 41.98 42.32
  A 0.52 0.52 0.0 0 0 42.55 42.98
  Q 42.77 42.95 42.92 43.08
  Q 43.41 43.51 43.47 43.63
  Q 43.70 44.10 44.10 44.45
  Q 44.41 44.72 44.82 44.74
  Q 45.61 44.78 46.10 44.43
  Q 46.49 44.16 46.50 44.64
  Q 46.51 44.78 46.47 44.91
  Q 46.42 45.10 46.23 45.10
  Q 46.07 45.10 45.91 45.11
  Q 45.64 45.13 45.69 45.40
  L 45.82 46.00
  Q 42.80 50.87 46.57 54.93
  Q 48.74 57.28 50.75 57.28
  Q 64.67 57.32 78.03 57.30
  Q 78.13 57.86 79.78 57.77
  A 0.48 0.48 0.0 0 1 80.29 58.30
  Q 80.20 59.06 79.72 59.14
  Q 79.19 59.24 79.12 59.77
  Q 78.98 60.92 79.42 62.01
  Q 79.57 62.37 79.50 62.75
  Q 79.06 65.07 80.31 66.92
  Q 80.50 67.22 80.33 67.53
  L 80.06 68.04
  Q 79.83 68.46 80.29 68.56
  L 80.76 68.67
  Q 81.63 68.87 80.77 69.07
  Q 78.86 69.53 76.89 69.35
  Q 76.87 69.35 76.87 69.36
  Q 76.87 69.37 76.87 69.38
  Q 76.87 69.41 76.90 69.40
  Q 78.11 69.16 78.56 69.75
  Q 66.14 69.77 53.77 69.77
  Q 50.10 69.77 48.37 70.63
  C 43.32 73.17 43.17 80.50 48.24 83.18
  Q 50.03 84.12 54.42 84.12
  Q 75.98 84.11 97.55 84.23
  Q 98.08 84.24 98.21 83.73
  Q 98.48 82.68 98.25 81.51
  Q 98.55 81.77 98.59 82.19
  Q 98.62 82.50 98.92 82.56
  Q 99.10 82.59 99.29 82.55
  Q 99.67 82.45 99.68 82.06
  L 99.88 76.40
  Q 99.89 76.14 99.99 76.38
  Q 100.06 76.56 100.05 76.74
  Q 99.84 79.01 100.45 81.24
  Q 100.55 81.60 100.79 81.31
  Q 101.01 81.05 100.87 80.61
  Q 100.63 81.56 101.97 80.86
  A 1.74 1.73 67.9 0 1 104.45 81.91
  Q 104.79 83.09 105.82 82.94
  Q 106.35 82.86 106.62 83.32
  Q 107.55 84.84 109.34 85.27
  Q 109.87 85.39 110.22 85.80
  Q 110.56 86.20 111.04 86.47
  Q 111.46 86.71 111.67 87.13
  C 112.15 88.08 113.06 88.10 113.65 88.50
  Q 114.76 89.26 115.90 89.96
  Q 116.30 90.21 116.58 90.58
  L 117.61 91.92
  Q 117.95 92.36 118.05 92.92
  Q 118.27 94.22 120.02 94.55
  L 110.89 108.72
  Q 110.50 109.33 111.22 109.33
  L 122.49 109.31
  A 0.65 0.64 -73.6 0 0 123.03 109.01
  L 130.58 97.30
  Q 131.01 96.63 131.42 97.31
  L 138.39 108.84
  A 0.94 0.93 -15.3 0 0 139.19 109.29
  L 151.91 109.35
  L 151.58 110.24
  A 0.87 0.85 10.5 0 1 150.76 110.79
  Q 145.72 110.67 140.74 111.42
  Q 140.12 111.52 140.72 111.69
  L 146.01 113.22
  Q 146.65 113.40 146.88 114.03
  Q 147.27 115.07 148.35 115.70
  Q 148.77 115.95 149.27 115.95
  Q 149.80 115.95 150.01 116.49
  Q 150.21 116.99 150.75 116.99
  L 151.36 116.99
  A 0.64 0.64 0.0 0 1 152.00 117.60
  L 152.04 118.72
  A 0.38 0.38 0.0 0 0 152.74 118.90
  L 153.19 118.15
  A 0.35 0.33 -65.3 0 1 153.57 118.00
  Q 153.72 118.04 153.81 118.18
  Q 154.01 118.47 154.01 118.50
  L 154.01 119.49
  A 0.55 0.55 0.0 0 0 154.72 120.02
  Q 155.73 119.73 156.05 120.56
  A 0.68 0.67 73.1 0 0 156.83 120.98
  Q 157.71 120.79 158.02 121.50
  A 0.81 0.80 78.3 0 0 158.76 121.99
  L 159.24 121.99
  Q 159.72 121.99 159.81 122.46
  Q 160.06 123.92 161.43 124.75
  Q 161.79 124.96 162.21 124.95
  Q 164.75 124.86 165.10 127.56
  Q 165.18 128.18 165.77 127.96
  Q 166.92 127.53 167.03 128.49
  A 0.60 0.60 0.0 0 0 167.77 129.00
  Q 168.69 128.76 169.01 129.49
  Q 169.24 130.01 169.76 130.18
  Q 171.29 130.69 172.23 131.95
  Q 172.36 132.12 172.54 132.02
  Q 172.70 131.94 172.85 131.97
  Q 173.13 132.03 173.16 131.74
  L 173.20 131.36
  A 0.05 0.01 -83.0 0 0 173.20 131.30
  Q 173.07 131.39 172.95 131.48
  Q 172.78 131.60 172.80 131.39
  Q 172.94 129.88 172.88 128.37
  Q 172.87 128.18 173.07 128.16
  L 173.08 128.16
  Q 173.27 128.14 173.30 128.33
  Q 173.40 129.20 173.61 130.07
  Q 173.46 130.55 174.37 131.24
  C 171.94 146.83 159.85 158.08 144.00 158.53
  Q 143.48 158.55 143.43 159.07
  L 142.88 165.04
  Q 142.72 164.22 142.30 163.94
  Q 142.15 163.84 141.67 163.85
  Q 141.19 163.87 140.93 163.59
  Q 140.67 163.31 140.42 163.60
  Q 140.28 163.77 140.36 164.03
  A 0.01 0.01 0.0 0 0 140.38 164.03
  Q 140.42 163.82 140.37 163.57
  Q 140.29 163.19 139.95 163.01
  Q 138.71 162.35 137.90 161.19
  Q 137.62 160.77 137.13 160.89
  Q 136.26 161.11 136.03 160.31
  Q 135.91 159.88 135.46 159.88
  L 134.50 159.88
  Q 134.12 159.88 134.12 159.50
  L 134.12 158.62
  A 0.74 0.74 0.0 0 0 133.38 157.88
  L 132.77 157.88
  Q 132.41 157.88 132.22 157.58
  Q 131.56 156.57 130.42 156.89
  A 0.30 0.30 0.0 0 1 130.06 156.51
  Q 130.42 155.39 129.68 154.98
  Q 129.45 154.86 129.30 154.65
  Q 128.52 153.61 127.28 153.84
  Q 126.77 153.94 126.35 153.63
  Q 125.48 153.01 124.90 152.20
  Q 124.67 151.88 124.28 151.88
  L 123.79 151.88
  Q 123.32 151.88 123.02 151.51
  Q 121.87 150.10 120.47 148.96
  A 0.37 0.36 -25.1 0 0 120.24 148.88
  L 119.51 148.88
  Q 119.19 148.88 119.09 148.57
  Q 118.87 147.92 117.52 147.83
  A 0.46 0.46 0.0 0 1 117.11 147.27
  Q 117.34 146.22 116.44 145.85
  A 0.40 0.40 0.0 0 0 115.89 146.29
  Q 115.96 146.69 115.60 146.89
  A 0.35 0.35 0.0 0 1 115.10 146.49
  Q 115.41 145.39 114.51 144.88
  Q 114.47 144.86 114.01 144.26
  Q 113.61 143.75 112.84 143.88
  Q 112.38 143.96 112.16 143.55
  Q 111.64 142.58 110.51 142.90
  Q 109.99 143.04 110.11 142.52
  Q 110.26 141.79 109.93 141.19
  Q 109.63 140.65 109.16 141.07
  Q 108.90 141.31 108.86 141.66
  A 0.29 0.29 0.0 0 1 108.40 141.86
  Q 107.91 141.49 108.13 140.80
  A 0.65 0.64 -65.6 0 0 107.86 140.07
  Q 107.45 139.80 106.95 139.86
  Q 106.33 139.93 106.00 139.40
  Q 104.85 137.55 102.75 137.88
  Q 102.24 137.96 102.18 137.45
  Q 102.01 135.96 100.71 135.10
  Q 100.29 134.82 99.80 134.89
  Q 98.21 135.10 97.33 133.75
  Q 97.06 133.32 97.13 132.82
  Q 97.21 132.19 96.57 131.97
  Q 95.87 131.74 95.88 132.47
  Q 95.88 132.62 95.88 132.78
  A 0.11 0.10 -0.0 0 1 95.77 132.88
  Q 95.64 132.88 95.49 132.88
  Q 95.12 132.86 95.12 132.49
  L 95.12 131.50
  A 0.62 0.62 0.0 0 0 94.50 130.88
  L 94.04 130.88
  Q 93.49 130.88 93.16 130.43
  Q 92.64 129.71 91.81 129.88
  Q 91.34 129.97 91.14 129.54
  Q 90.74 128.69 89.87 128.87
  Q 89.12 129.02 89.12 128.25
  L 89.12 127.63
  A 0.75 0.75 0.0 0 0 88.37 126.88
  L 87.52 126.88
  Q 87.24 126.88 87.16 126.61
  Q 86.93 125.81 86.25 125.95
  A 1.87 1.62 4.0 0 1 84.05 123.75
  Q 84.26 123.28 83.72 123.06
  Q 83.17 122.83 82.96 123.39
  Q 82.87 123.64 82.67 123.83
  A 0.34 0.34 0.0 0 1 82.11 123.54
  Q 82.20 122.88 82.02 122.29
  Q 81.89 121.88 81.46 121.88
  L 80.79 121.88
  Q 80.44 121.88 80.26 121.58
  Q 79.76 120.74 78.87 120.86
  Q 78.44 120.91 78.17 120.57
  Q 77.48 119.69 76.65 119.03
  Q 76.24 118.70 75.76 118.71
  Q 74.97 118.73 74.87 119.23
  Q 74.54 120.95 74.08 119.26
  Q 74.05 119.15 74.18 118.52
  Q 74.45 117.16 73.38 116.90
  Q 73.14 116.84 73.13 116.59
  Q 73.11 116.13 72.38 115.93
  A 0.79 0.72 47.7 0 0 72.06 115.90
  Q 69.73 116.16 68.88 113.80
  Q 68.72 113.33 68.27 113.12
  Q 66.31 112.16 64.16 111.79
  Q 64.13 111.78 64.13 111.75
  Q 64.11 111.63 64.12 111.50
  Q 64.15 111.21 64.44 111.19
  L 70.61 110.83
  Q 71.28 110.79 70.67 110.50
  Q 70.03 110.19 69.24 110.39
  Q 68.19 110.64 67.53 110.08
  Q 67.17 109.78 66.70 109.79
  Q 65.27 109.82 63.99 109.32
  L 97.75 109.30
  Q 98.31 109.30 98.31 108.74
  L 98.31 95.30
  Q 98.31 95.15 98.17 95.15
  L 48.34 95.31
  Q 45.30 97.22 47.79 94.13
  Q 48.06 93.80 47.88 93.42
  Q 47.39 92.39 46.42 91.91
  Q 46.00 91.71 46.00 91.23
  L 46.00 90.54
  A 0.58 0.58 0.0 0 0 45.32 89.97
  Q 43.10 90.38 42.03 88.45
  A 0.87 0.86 75.9 0 0 41.32 88.02
  L 40.39 87.97
  A 0.47 0.47 0.0 0 1 39.96 87.37
  Q 40.17 86.62 39.76 86.08
  A 0.35 0.34 43.7 0 0 39.20 86.09
  Q 39.06 86.29 39.00 86.54
  Q 38.77 87.58 38.17 86.70
  Q 37.85 86.22 37.94 85.55
  Q 38.01 85.00 37.46 85.00
  L 36.75 85.00
  Q 36.20 85.00 36.00 84.49
  Q 35.73 83.80 34.90 84.02
  Q 34.31 84.18 34.06 83.63
  Q 33.63 82.67 32.51 83.02
  A 0.41 0.41 0.0 0 1 32.00 82.52
  Q 32.13 82.04 32.10 81.54
  Q 32.08 81.00 31.53 81.00
  L 31.00 81.00
  Q 30.48 81.00 30.12 80.63
  L 28.71 79.17
  A 0.58 0.58 0.0 0 0 28.30 79.00
  Q 28.12 79.00 27.93 78.99
  Q 27.48 78.94 27.15 78.62
  L 24.75 76.25
  Q 24.42 75.92 23.96 76.01
  Q 23.22 76.15 22.99 75.47
  A 0.74 0.72 76.4 0 0 22.22 74.99
  Q 20.82 75.17 21.00 73.78
  Q 21.02 73.64 20.92 73.54
  L 20.67 73.29
  Q 20.49 73.11 20.30 73.29
  L 19.85 73.74
  Q 19.45 74.14 19.07 73.73
  Q 17.90 72.49 17.66 70.81
  Q 17.51 69.78 17.10 70.74
  Q 15.71 73.99 16.07 77.97
  Q 15.86 53.10 16.36 28.25
  Q 16.41 25.78 16.80 23.35
  Z" fill="#4ca5fa"></path>
<path d="M 82.79 42.98
  Q 113.52 43.09 144.25 43.01
  C 154.38 42.98 154.54 57.21 144.50 57.23
  Q 123.26 57.26 102.05 57.28
  L 78.03 57.30
  Q 64.67 57.32 50.75 57.28
  Q 48.74 57.28 46.57 54.93
  Q 42.80 50.87 45.82 46.00
  Q 48.13 43.02 52.00 43.03
  Q 67.40 43.04 82.79 42.98
  Z" fill="#ffffff"></path>
<path d="M 78.03 57.30
  L 102.05 57.28
  Q 102.01 57.71 101.45 57.65
  A 0.03 0.03 0.0 0 1 101.45 57.59
  Q 102.86 57.66 104.27 58.18
  Q 105.44 58.60 104.21 58.77
  L 98.76 59.53
  Q 98.72 59.54 98.76 59.55
  L 100.97 60.08
  A 1.13 1.10 -8.2 0 1 101.68 60.60
  Q 102.22 61.51 103.11 62.19
  Q 103.48 62.48 103.94 62.58
  Q 104.69 62.74 105.17 63.43
  Q 105.48 63.88 106.03 63.88
  L 107.26 63.88
  Q 107.72 63.88 107.37 64.18
  Q 107.06 64.46 106.64 64.44
  Q 106.23 64.41 106.10 64.80
  Q 106.03 65.00 105.88 65.12
  Q 105.57 65.34 106.14 65.47
  Q 106.61 65.58 106.69 65.91
  Q 106.79 66.27 107.16 66.30
  Q 107.59 66.33 107.81 66.80
  Q 107.93 67.07 108.21 67.15
  Q 108.78 67.32 109.12 68.09
  Q 110.02 70.11 111.16 69.90
  L 123.11 88.80
  Q 123.41 89.27 123.11 89.74
  L 120.02 94.55
  Q 118.27 94.22 118.05 92.92
  Q 117.95 92.36 117.61 91.92
  L 116.58 90.58
  Q 116.30 90.21 115.90 89.96
  Q 114.76 89.26 113.65 88.50
  C 113.06 88.10 112.15 88.08 111.67 87.13
  Q 111.46 86.71 111.04 86.47
  Q 110.56 86.20 110.22 85.80
  Q 109.87 85.39 109.34 85.27
  Q 107.55 84.84 106.62 83.32
  Q 106.35 82.86 105.82 82.94
  Q 104.79 83.09 104.45 81.91
  A 1.74 1.73 67.9 0 0 101.97 80.86
  Q 100.63 81.56 100.87 80.61
  Q 101.01 81.05 100.79 81.31
  Q 100.55 81.60 100.45 81.24
  Q 99.84 79.01 100.05 76.74
  Q 100.06 76.56 99.99 76.38
  Q 99.89 76.14 99.88 76.40
  L 99.68 82.06
  Q 99.67 82.45 99.29 82.55
  Q 99.10 82.59 98.92 82.56
  Q 98.62 82.50 98.59 82.19
  Q 98.55 81.77 98.25 81.51
  L 98.27 70.35
  Q 98.27 69.78 97.70 69.78
  L 78.56 69.75
  Q 78.11 69.16 76.90 69.40
  Q 76.87 69.41 76.87 69.38
  Q 76.87 69.37 76.87 69.36
  Q 76.87 69.35 76.89 69.35
  Q 78.86 69.53 80.77 69.07
  Q 81.63 68.87 80.76 68.67
  L 80.29 68.56
  Q 79.83 68.46 80.06 68.04
  L 80.33 67.53
  Q 80.50 67.22 80.31 66.92
  Q 79.06 65.07 79.50 62.75
  Q 79.57 62.37 79.42 62.01
  Q 78.98 60.92 79.12 59.77
  Q 79.19 59.24 79.72 59.14
  Q 80.20 59.06 80.29 58.30
  A 0.48 0.48 0.0 0 0 79.78 57.77
  Q 78.13 57.86 78.03 57.30
  Z" fill="#4ab2fb"></path>
<path d="M 78.56 69.75
  L 97.70 69.78
  Q 98.27 69.78 98.27 70.35
  L 98.25 81.51
  Q 98.48 82.68 98.21 83.73
  Q 98.08 84.24 97.55 84.23
  Q 75.98 84.11 54.42 84.12
  Q 50.03 84.12 48.24 83.18
  C 43.17 80.50 43.32 73.17 48.37 70.63
  Q 50.10 69.77 53.77 69.77
  Q 66.14 69.77 78.56 69.75
  Z" fill="#ffffff"></path>
<path d="M 146.41 77.19
  L 138.81 88.70
  Q 138.41 89.31 138.82 89.91
  L 151.91 109.35
  L 139.19 109.29
  A 0.94 0.93 -15.3 0 1 138.39 108.84
  L 131.42 97.31
  Q 131.01 96.63 130.58 97.30
  L 123.03 109.01
  A 0.65 0.64 -73.6 0 1 122.49 109.31
  L 111.22 109.33
  Q 110.50 109.33 110.89 108.72
  L 120.02 94.55
  L 123.11 89.74
  Q 123.41 89.27 123.11 88.80
  L 111.16 69.90
  L 123.41 69.80
  Q 123.95 69.80 124.21 70.28
  L 130.56 81.98
  A 0.51 0.51 0.0 0 0 131.46 81.99
  L 138.13 70.29
  A 1.05 1.04 14.7 0 1 139.04 69.76
  L 150.76 69.75
  A 0.31 0.31 0.0 0 1 151.02 70.23
  L 146.41 77.19
  Z" fill="#ffffff"></path>
<path d="M 48.34 95.31
  Q 43.08 100.17 44.99 104.73
  C 46.50 108.34 48.91 109.32 52.89 109.31
  Q 58.49 109.30 63.99 109.32
  Q 65.27 109.82 66.70 109.79
  Q 67.17 109.78 67.53 110.08
  Q 68.19 110.64 69.24 110.39
  Q 70.03 110.19 70.67 110.50
  Q 71.28 110.79 70.61 110.83
  L 64.44 111.19
  Q 64.15 111.21 64.12 111.50
  Q 64.11 111.63 64.13 111.75
  Q 64.13 111.78 64.16 111.79
  Q 66.31 112.16 68.27 113.12
  Q 68.72 113.33 68.88 113.80
  Q 69.73 116.16 72.06 115.90
  A 0.79 0.72 47.7 0 1 72.38 115.93
  Q 73.11 116.13 73.13 116.59
  Q 73.14 116.84 73.38 116.90
  Q 74.45 117.16 74.18 118.52
  Q 74.05 119.15 74.08 119.26
  Q 74.54 120.95 74.87 119.23
  Q 74.97 118.73 75.76 118.71
  Q 76.24 118.70 76.65 119.03
  Q 77.48 119.69 78.17 120.57
  Q 78.44 120.91 78.87 120.86
  Q 79.76 120.74 80.26 121.58
  Q 80.44 121.88 80.79 121.88
  L 81.46 121.88
  Q 81.89 121.88 82.02 122.29
  Q 82.20 122.88 82.11 123.54
  A 0.34 0.34 0.0 0 0 82.67 123.83
  Q 82.87 123.64 82.96 123.39
  Q 83.17 122.83 83.72 123.06
  Q 84.26 123.28 84.05 123.75
  A 1.87 1.62 4.0 0 0 86.25 125.95
  Q 86.93 125.81 87.16 126.61
  Q 87.24 126.88 87.52 126.88
  L 88.37 126.88
  A 0.75 0.75 0.0 0 1 89.12 127.63
  L 89.12 128.25
  Q 89.12 129.02 89.87 128.87
  Q 90.74 128.69 91.14 129.54
  Q 91.34 129.97 91.81 129.88
  Q 92.64 129.71 93.16 130.43
  Q 93.49 130.88 94.04 130.88
  L 94.50 130.88
  A 0.62 0.62 0.0 0 1 95.12 131.50
  L 95.12 132.49
  Q 95.12 132.86 95.49 132.88
  Q 95.64 132.88 95.77 132.88
  A 0.11 0.10 0.0 0 0 95.88 132.78
  Q 95.88 132.62 95.88 132.47
  Q 95.87 131.74 96.57 131.97
  Q 97.21 132.19 97.13 132.82
  Q 97.06 133.32 97.33 133.75
  Q 98.21 135.10 99.80 134.89
  Q 100.29 134.82 100.71 135.10
  Q 102.01 135.96 102.18 137.45
  Q 102.24 137.96 102.75 137.88
  Q 104.85 137.55 106.00 139.40
  Q 106.33 139.93 106.95 139.86
  Q 107.45 139.80 107.86 140.07
  A 0.65 0.64 -65.6 0 1 108.13 140.80
  Q 107.91 141.49 108.40 141.86
  A 0.29 0.29 0.0 0 0 108.86 141.66
  Q 108.90 141.31 109.16 141.07
  Q 109.63 140.65 109.93 141.19
  Q 110.26 141.79 110.11 142.52
  Q 109.99 143.04 110.51 142.90
  Q 111.64 142.58 112.16 143.55
  Q 112.38 143.96 112.84 143.88
  Q 113.61 143.75 114.01 144.26
  Q 114.47 144.86 114.51 144.88
  Q 115.41 145.39 115.10 146.49
  A 0.35 0.35 0.0 0 0 115.60 146.89
  Q 115.96 146.69 115.89 146.29
  A 0.40 0.40 0.0 0 1 116.44 145.85
  Q 117.34 146.22 117.11 147.27
  A 0.46 0.46 0.0 0 0 117.52 147.83
  Q 118.87 147.92 119.09 148.57
  Q 119.19 148.88 119.51 148.88
  L 120.24 148.88
  A 0.37 0.36 -25.1 0 1 120.47 148.96
  Q 121.87 150.10 123.02 151.51
  Q 123.32 151.88 123.79 151.88
  L 124.28 151.88
  Q 124.67 151.88 124.90 152.20
  Q 125.48 153.01 126.35 153.63
  Q 126.77 153.94 127.28 153.84
  Q 128.52 153.61 129.30 154.65
  Q 129.45 154.86 129.68 154.98
  Q 130.42 155.39 130.06 156.51
  A 0.30 0.30 0.0 0 0 130.42 156.89
  Q 131.56 156.57 132.22 157.58
  Q 132.41 157.88 132.77 157.88
  L 133.38 157.88
  A 0.74 0.74 0.0 0 1 134.12 158.62
  L 134.12 159.50
  Q 134.12 159.88 134.50 159.88
  L 135.46 159.88
  Q 135.91 159.88 136.03 160.31
  Q 136.26 161.11 137.13 160.89
  Q 137.62 160.77 137.90 161.19
  Q 138.71 162.35 139.95 163.01
  Q 140.29 163.19 140.37 163.57
  Q 140.42 163.82 140.38 164.03
  A 0.01 0.01 0.0 0 1 140.36 164.03
  Q 140.28 163.77 140.42 163.60
  Q 140.67 163.31 140.93 163.59
  Q 141.19 163.87 141.67 163.85
  Q 142.15 163.84 142.30 163.94
  Q 142.72 164.22 142.88 165.04
  L 140.25 192.00
  Q 140.18 192.00 140.12 192.00
  L 100.78 158.81
  A 1.28 1.24 -24.1 0 0 99.96 158.51
  L 77.61 158.44
  Q 80.47 157.20 84.37 157.42
  Q 85.12 157.47 84.53 157.15
  Q 84.31 157.03 84.00 157.22
  Q 75.81 156.79 67.67 156.87
  Q 67.64 156.87 67.67 156.88
  Q 67.99 156.97 68.24 156.87
  Q 68.83 156.63 68.38 156.18
  Q 67.78 155.58 66.83 155.69
  Q 66.40 155.74 66.15 155.39
  Q 65.55 154.57 64.69 154.08
  Q 64.42 153.92 64.21 153.69
  Q 63.66 153.10 62.99 152.95
  A 2.29 1.47 15.7 0 1 61.05 150.76
  Q 61.23 150.33 60.86 150.12
  Q 60.57 149.96 60.26 150.09
  Q 59.84 150.29 59.87 150.63
  A 0.27 0.27 0.0 0 1 59.46 150.89
  Q 58.89 150.52 59.15 149.78
  A 0.62 0.62 0.0 0 0 58.82 149.02
  Q 58.31 148.79 57.76 148.88
  A 0.58 0.58 0.0 0 1 57.12 148.51
  Q 56.84 147.77 56.02 147.87
  Q 55.48 147.93 55.13 147.53
  Q 53.92 146.14 52.51 144.99
  Q 52.20 144.74 52.02 144.40
  Q 51.67 143.73 50.81 143.88
  Q 50.35 143.96 50.14 143.53
  Q 49.72 142.66 48.82 142.88
  Q 48.35 142.99 48.15 142.55
  Q 47.73 141.65 46.79 141.89
  Q 45.99 142.09 46.11 141.28
  Q 46.35 139.66 44.74 139.88
  Q 44.26 139.95 44.11 139.50
  Q 43.89 138.82 43.25 138.95
  A 1.88 1.62 4.1 0 1 41.05 136.75
  Q 41.35 136.07 40.09 135.90
  A 1.24 0.69 34.4 0 0 39.88 135.88
  Q 39.43 135.89 38.95 135.82
  Q 38.46 135.74 38.09 135.41
  L 36.73 134.16
  Q 36.42 133.88 36.00 133.88
  L 34.75 133.88
  Q 34.12 133.88 34.12 133.25
  L 34.12 132.78
  Q 34.12 132.13 33.51 131.90
  Q 33.12 131.75 33.02 131.35
  A 0.72 0.71 -15.0 0 0 32.13 130.84
  Q 31.17 131.11 31.01 130.28
  A 0.57 0.57 0.0 0 0 30.27 129.84
  Q 29.36 130.14 29.08 129.45
  Q 28.85 128.88 28.23 128.88
  L 27.75 128.88
  Q 27.12 128.88 27.12 128.25
  L 27.12 127.50
  A 0.62 0.62 0.0 0 0 26.50 126.88
  L 26.04 126.88
  Q 25.49 126.88 25.16 126.43
  Q 24.63 125.69 23.77 125.89
  Q 23.28 126.00 23.12 125.52
  Q 22.90 124.86 22.21 124.87
  Q 21.73 124.87 21.35 124.58
  L 19.42 123.06
  Q 19.15 122.85 18.86 123.03
  Q 18.61 123.18 18.48 122.84
  Q 18.14 121.90 17.71 120.85
  Q 17.54 120.43 17.17 120.69
  Q 16.13 121.39 16.13 122.25
  Q 16.14 125.98 16.11 129.72
  L 16.07 77.97
  Q 15.71 73.99 17.10 70.74
  Q 17.51 69.78 17.66 70.81
  Q 17.90 72.49 19.07 73.73
  Q 19.45 74.14 19.85 73.74
  L 20.30 73.29
  Q 20.49 73.11 20.67 73.29
  L 20.92 73.54
  Q 21.02 73.64 21.00 73.78
  Q 20.82 75.17 22.22 74.99
  A 0.74 0.72 76.4 0 1 22.99 75.47
  Q 23.22 76.15 23.96 76.01
  Q 24.42 75.92 24.75 76.25
  L 27.15 78.62
  Q 27.48 78.94 27.93 78.99
  Q 28.12 79.00 28.30 79.00
  A 0.58 0.58 0.0 0 1 28.71 79.17
  L 30.12 80.63
  Q 30.48 81.00 31.00 81.00
  L 31.53 81.00
  Q 32.08 81.00 32.10 81.54
  Q 32.13 82.04 32.00 82.52
  A 0.41 0.41 0.0 0 0 32.51 83.02
  Q 33.63 82.67 34.06 83.63
  Q 34.31 84.18 34.90 84.02
  Q 35.73 83.80 36.00 84.49
  Q 36.20 85.00 36.75 85.00
  L 37.46 85.00
  Q 38.01 85.00 37.94 85.55
  Q 37.85 86.22 38.17 86.70
  Q 38.77 87.58 39.00 86.54
  Q 39.06 86.29 39.20 86.09
  A 0.35 0.34 43.7 0 1 39.76 86.08
  Q 40.17 86.62 39.96 87.37
  A 0.47 0.47 0.0 0 0 40.39 87.97
  L 41.32 88.02
  A 0.87 0.86 75.9 0 1 42.03 88.45
  Q 43.10 90.38 45.32 89.97
  A 0.58 0.58 0.0 0 1 46.00 90.54
  L 46.00 91.23
  Q 46.00 91.71 46.42 91.91
  Q 47.39 92.39 47.88 93.42
  Q 48.06 93.80 47.79 94.13
  Q 45.30 97.22 48.34 95.31
  Z" fill="#4d98f9"></path>
<path d="M 146.41 77.19
  Q 147.55 77.72 146.82 79.23
  Q 146.26 80.37 145.80 81.03
  Q 145.58 81.33 145.54 81.71
  Q 145.41 82.70 146.75 82.56
  Q 147.20 82.51 147.56 82.80
  Q 147.84 83.02 147.87 83.38
  A 0.61 0.60 -10.5 0 0 148.62 83.89
  Q 149.61 83.63 150.09 84.43
  Q 150.31 84.79 150.74 84.83
  Q 152.53 84.96 152.23 86.80
  A 0.23 0.23 0.0 0 0 152.68 86.92
  Q 152.96 86.20 153.56 86.15
  Q 154.18 86.11 154.07 86.72
  Q 153.83 88.11 155.32 87.88
  Q 155.86 87.80 156.01 88.31
  Q 156.28 89.18 157.28 88.84
  A 0.56 0.56 0.0 0 1 158.01 89.28
  Q 158.12 89.98 158.84 89.89
  Q 159.38 89.82 159.82 90.14
  Q 161.03 91.02 161.17 92.44
  Q 161.22 92.94 161.72 92.88
  Q 164.63 92.53 165.24 95.42
  Q 165.33 95.88 165.81 95.88
  L 166.47 95.88
  Q 167.05 95.88 167.12 96.46
  Q 167.18 96.99 167.83 96.91
  Q 168.32 96.85 168.69 97.17
  C 169.70 98.06 171.72 99.41 172.31 100.57
  A 0.05 0.05 0.0 0 0 172.41 100.55
  L 172.74 97.75
  Q 172.75 97.69 172.81 97.69
  L 173.08 97.70
  Q 173.37 97.71 173.37 98.00
  L 173.37 107.27
  Q 173.37 107.55 173.42 107.27
  Q 173.59 106.28 174.50 105.70
  L 174.37 131.24
  Q 173.46 130.55 173.61 130.07
  Q 173.40 129.20 173.30 128.33
  Q 173.27 128.14 173.08 128.16
  L 173.07 128.16
  Q 172.87 128.18 172.88 128.37
  Q 172.94 129.88 172.80 131.39
  Q 172.78 131.60 172.95 131.48
  Q 173.07 131.39 173.20 131.30
  A 0.05 0.01 -83.0 0 1 173.20 131.36
  L 173.16 131.74
  Q 173.13 132.03 172.85 131.97
  Q 172.70 131.94 172.54 132.02
  Q 172.36 132.12 172.23 131.95
  Q 171.29 130.69 169.76 130.18
  Q 169.24 130.01 169.01 129.49
  Q 168.69 128.76 167.77 129.00
  A 0.60 0.60 0.0 0 1 167.03 128.49
  Q 166.92 127.53 165.77 127.96
  Q 165.18 128.18 165.10 127.56
  Q 164.75 124.86 162.21 124.95
  Q 161.79 124.96 161.43 124.75
  Q 160.06 123.92 159.81 122.46
  Q 159.72 121.99 159.24 121.99
  L 158.76 121.99
  A 0.81 0.80 78.3 0 1 158.02 121.50
  Q 157.71 120.79 156.83 120.98
  A 0.68 0.67 73.1 0 1 156.05 120.56
  Q 155.73 119.73 154.72 120.02
  A 0.55 0.55 0.0 0 1 154.01 119.49
  L 154.01 118.50
  Q 154.01 118.47 153.81 118.18
  Q 153.72 118.04 153.57 118.00
  A 0.35 0.33 -65.3 0 0 153.19 118.15
  L 152.74 118.90
  A 0.38 0.38 0.0 0 1 152.04 118.72
  L 152.00 117.60
  A 0.64 0.64 0.0 0 0 151.36 116.99
  L 150.75 116.99
  Q 150.21 116.99 150.01 116.49
  Q 149.80 115.95 149.27 115.95
  Q 148.77 115.95 148.35 115.70
  Q 147.27 115.07 146.88 114.03
  Q 146.65 113.40 146.01 113.22
  L 140.72 111.69
  Q 140.12 111.52 140.74 111.42
  Q 145.72 110.67 150.76 110.79
  A 0.87 0.85 10.5 0 0 151.58 110.24
  L 151.91 109.35
  L 138.82 89.91
  Q 138.41 89.31 138.81 88.70
  L 146.41 77.19
  Z" fill="#4ab2fb"></path>
<path d="M 63.99 109.32
  Q 58.49 109.30 52.89 109.31
  C 48.91 109.32 46.50 108.34 44.99 104.73
  Q 43.08 100.17 48.34 95.31
  L 98.17 95.15
  Q 98.31 95.15 98.31 95.30
  L 98.31 108.74
  Q 98.31 109.30 97.75 109.30
  L 63.99 109.32
  Z" fill="#ffffff"></path>
<path d="M 77.61 158.44
  Q 64.51 158.63 51.15 158.53
  Q 41.67 158.46 37.06 156.91
  C 25.36 152.97 16.95 142.21 16.11 129.72
  Q 16.14 125.98 16.13 122.25
  Q 16.13 121.39 17.17 120.69
  Q 17.54 120.43 17.71 120.85
  Q 18.14 121.90 18.48 122.84
  Q 18.61 123.18 18.86 123.03
  Q 19.15 122.85 19.42 123.06
  L 21.35 124.58
  Q 21.73 124.87 22.21 124.87
  Q 22.90 124.86 23.12 125.52
  Q 23.28 126.00 23.77 125.89
  Q 24.63 125.69 25.16 126.43
  Q 25.49 126.88 26.04 126.88
  L 26.50 126.88
  A 0.62 0.62 0.0 0 1 27.12 127.50
  L 27.12 128.25
  Q 27.12 128.88 27.75 128.88
  L 28.23 128.88
  Q 28.85 128.88 29.08 129.45
  Q 29.36 130.14 30.27 129.84
  A 0.57 0.57 0.0 0 1 31.01 130.28
  Q 31.17 131.11 32.13 130.84
  A 0.72 0.71 -15.0 0 1 33.02 131.35
  Q 33.12 131.75 33.51 131.90
  Q 34.12 132.13 34.12 132.78
  L 34.12 133.25
  Q 34.12 133.88 34.75 133.88
  L 36.00 133.88
  Q 36.42 133.88 36.73 134.16
  L 38.09 135.41
  Q 38.46 135.74 38.95 135.82
  Q 39.43 135.89 39.88 135.88
  A 1.24 0.69 34.4 0 1 40.09 135.90
  Q 41.35 136.07 41.05 136.75
  A 1.88 1.62 4.1 0 0 43.25 138.95
  Q 43.89 138.82 44.11 139.50
  Q 44.26 139.95 44.74 139.88
  Q 46.35 139.66 46.11 141.28
  Q 45.99 142.09 46.79 141.89
  Q 47.73 141.65 48.15 142.55
  Q 48.35 142.99 48.82 142.88
  Q 49.72 142.66 50.14 143.53
  Q 50.35 143.96 50.81 143.88
  Q 51.67 143.73 52.02 144.40
  Q 52.20 144.74 52.51 144.99
  Q 53.92 146.14 55.13 147.53
  Q 55.48 147.93 56.02 147.87
  Q 56.84 147.77 57.12 148.51
  A 0.58 0.58 0.0 0 0 57.76 148.88
  Q 58.31 148.79 58.82 149.02
  A 0.62 0.62 0.0 0 1 59.15 149.78
  Q 58.89 150.52 59.46 150.89
  A 0.27 0.27 0.0 0 0 59.87 150.63
  Q 59.84 150.29 60.26 150.09
  Q 60.57 149.96 60.86 150.12
  Q 61.23 150.33 61.05 150.76
  A 2.29 1.47 15.7 0 0 62.99 152.95
  Q 63.66 153.10 64.21 153.69
  Q 64.42 153.92 64.69 154.08
  Q 65.55 154.57 66.15 155.39
  Q 66.40 155.74 66.83 155.69
  Q 67.78 155.58 68.38 156.18
  Q 68.83 156.63 68.24 156.87
  Q 67.99 156.97 67.67 156.88
  Q 67.64 156.87 67.67 156.87
  Q 75.81 156.79 84.00 157.22
  Q 84.31 157.03 84.53 157.15
  Q 85.12 157.47 84.37 157.42
  Q 80.47 157.20 77.61 158.44
  Z" fill="#4e8ef8"></path>
</svg>
