<svg viewBox="0.00 0.00 256.00 256.00" version="1.1" xmlns="http://www.w3.org/2000/svg">
<g stroke-linecap="butt" fill="none" stroke-width="2.00">
<path d="M 39.84 28.77
  Q 38.31 34.07 38.90 36.25
  Q 39.99 40.28 41.27 43.29
  A 7.62 6.49 15.3 0 0 42.78 45.51
  Q 43.81 46.55 45.69 47.03" stroke="#11cea9"></path>
<path d="M 45.70 191.98
  Q 45.05 190.15 45.28 188.08
  C 45.37 187.24 44.98 186.58 44.50 185.97
  A 0.15 0.15 0.0 0 0 44.25 186.00
  Q 44.19 186.12 44.13 186.24
  Q 44.11 186.29 44.06 186.25
  C 41.38 184.06 38.85 181.69 35.60 180.20
  Q 33.62 179.30 32.27 177.49
  A 0.16 0.16 0.0 0 0 32.02 177.48
  Q 31.90 177.62 31.86 177.81
  Q 31.75 178.36 31.22 178.20
  C 30.47 177.97 30.11 177.53 30.06 176.68
  Q 29.87 173.56 28.74 175.15" stroke="#00c4d6"></path>
<path d="M 62.41 28.82
  Q 57.42 30.05 51.04 29.82
  A 0.53 0.53 0.0 0 0 50.51 30.23
  Q 49.83 33.08 50.29 36.02
  Q 51.13 41.26 54.13 45.70" stroke="#3dd587"></path>
<path d="M 67.78 210.51
  Q 69.96 210.91 69.72 212.57
  Q 69.65 213.03 69.83 213.47
  Q 70.29 214.62 70.91 215.68
  C 71.53 216.75 72.52 217.04 73.14 218.25
  Q 73.37 218.70 73.79 219.00
  Q 74.93 219.81 74.87 221.22
  Q 74.85 221.70 75.12 222.10
  Q 76.20 223.76 78.17 224.31
  Q 78.59 224.43 78.69 224.85
  Q 79.06 226.25 80.36 226.01
  Q 80.70 225.94 80.81 226.27
  Q 80.92 226.57 81.11 226.78
  Q 81.49 227.19 80.95 227.31
  L 80.04 227.51" stroke="#00c3db"></path>
<path d="M 96.94 28.76
  L 97.68 31.71
  Q 97.73 31.90 97.75 31.90
  Q 97.89 31.90 98.02 31.90
  Q 98.25 31.90 98.28 32.12
  Q 98.90 36.67 100.79 40.80
  Q 101.01 41.27 101.56 43.28
  Q 101.87 44.39 102.66 45.69" stroke="#74dd5c"></path>
<path d="M 147.46 165.22
  Q 147.18 165.72 147.94 165.91
  Q 148.40 166.02 148.31 166.48
  Q 148.25 166.80 148.05 166.85
  Q 146.00 167.30 147.81 168.36
  Q 148.23 168.61 149.06 168.60
  A 2.00 1.98 57.5 0 1 149.99 168.81
  Q 155.76 171.69 161.68 174.21
  Q 161.76 174.25 161.79 174.31
  Q 161.83 174.36 161.85 174.42
  Q 161.92 174.64 162.01 174.63
  Q 163.64 174.47 164.96 175.48
  Q 165.44 175.85 166.01 175.62
  Q 167.83 174.85 169.31 176.38
  A 0.62 0.62 0.0 0 0 169.82 176.57
  L 179.02 175.75
  A 0.29 0.28 16.9 0 1 179.27 176.21
  L 179.03 176.49" stroke="#11d0a2"></path>
<path d="M 113.29 123.34
  Q 112.45 122.99 111.06 125.09
  Q 109.94 126.77 109.31 128.25
  Q 108.33 130.51 107.73 128.12
  Q 107.69 127.97 106.93 127.51
  Q 106.50 127.25 106.19 126.87
  Q 104.06 124.27 99.98 120.77
  Q 98.61 119.60 98.79 117.88
  C 99.02 115.75 101.19 114.94 100.54 112.01" stroke="#2cd393"></path>
<path d="M 144.20 28.81
  Q 145.61 29.70 146.22 31.54
  A 0.88 0.87 -1.9 0 0 146.83 32.11
  Q 147.79 32.35 148.28 33.23
  Q 151.65 39.29 154.80 45.71" stroke="#a3e521"></path>
<path d="M 214.68 147.75
  Q 211.22 149.30 209.79 152.92
  A 0.57 0.50 -14.9 0 1 209.67 153.10
  L 199.54 162.95
  Q 199.15 163.34 198.63 163.51
  Q 197.04 164.04 195.92 165.39
  A 1.36 1.33 -26.9 0 0 195.61 166.30
  Q 195.63 167.39 194.88 167.22
  Q 194.42 167.12 194.09 167.46
  Q 193.65 167.93 193.01 167.85
  Q 182.65 166.49 172.85 162.86
  Q 172.45 162.71 172.52 162.28
  Q 172.66 161.40 171.97 161.33" stroke="#3dd587"></path>
<path d="M 206.88 184.59
  Q 205.26 185.57 203.53 184.41
  Q 203.17 184.17 202.75 184.14
  Q 202.24 184.10 201.96 183.72
  Q 201.64 183.32 201.18 183.55
  Q 200.54 183.88 199.82 183.67
  C 198.25 183.21 196.52 183.34 194.87 183.24
  Q 193.42 183.15 191.29 182.27
  Q 188.21 180.99 184.97 181.45" stroke="#11cdae"></path>
<path d="M 226.18 119.53
  L 208.71 119.83" stroke="#74dd5c"></path>
<path d="M 174.06 134.15
  Q 173.21 134.67 172.70 134.18
  Q 172.36 133.85 171.88 133.90
  Q 171.11 133.98 170.51 133.50
  Q 170.11 133.18 169.88 132.73
  Q 169.58 132.12 168.74 132.09
  Q 167.79 132.04 166.85 131.86
  Q 166.37 131.76 166.09 131.36
  Q 165.70 130.79 165.10 130.87
  Q 164.63 130.94 164.29 130.61
  Q 163.57 129.94 162.64 129.82
  Q 162.26 129.77 162.09 129.43
  Q 161.66 128.61 160.83 129.15
  A 0.45 0.45 0.0 0 1 160.13 128.78
  Q 160.11 127.46 158.72 127.92
  A 0.46 0.46 0.0 0 1 158.13 127.61
  Q 157.91 126.74 157.01 126.89
  A 0.77 0.76 69.5 0 1 156.24 126.53
  Q 155.79 125.78 154.91 125.87
  A 0.91 0.90 67.6 0 1 154.11 125.53
  Q 152.29 123.22 149.28 123.69
  A 1.09 1.09 0.0 0 1 148.03 122.55
  Q 148.10 121.30 147.10 120.87
  Q 146.71 120.71 146.52 120.32
  Q 146.36 120.00 145.99 119.79
  Q 145.82 119.69 145.70 119.79
  Q 145.61 119.86 145.62 119.75
  Q 145.64 119.36 145.41 119.10
  Q 145.06 118.72 144.67 119.01" stroke="#64da6f"></path>
<path d="M 123.34 104.47
  Q 123.26 103.81 122.49 104.84
  Q 122.23 105.19 122.14 104.76
  Q 121.94 103.70 122.68 102.99
  A 0.21 0.21 0.0 0 0 122.53 102.63
  Q 122.36 102.63 122.18 102.61
  Q 121.69 102.54 121.33 102.18
  L 119.78 100.64
  Q 119.45 100.30 119.31 99.86
  Q 118.94 98.66 117.57 98.62
  A 0.38 0.38 0.0 0 1 117.25 98.07
  Q 117.62 97.33 116.72 97.01
  Q 116.28 96.85 115.93 96.56
  Q 115.46 96.16 115.35 96.01
  L 114.13 94.33
  Q 113.77 93.84 113.20 94.07
  Q 113.00 94.15 112.76 94.13
  Q 112.37 94.10 112.36 93.71
  L 112.24 90.25" stroke="#64da6f"></path>
<path d="M 226.21 91.37
  Q 217.51 89.56 208.52 90.23" stroke="#a3e521"></path>
</g>
<path d="M 39.84 28.77
  Q 38.31 34.07 38.90 36.25
  Q 39.99 40.28 41.27 43.29
  A 7.62 6.49 15.3 0 0 42.78 45.51
  Q 43.81 46.55 45.69 47.03
  L 45.70 191.98
  Q 45.05 190.15 45.28 188.08
  C 45.37 187.24 44.98 186.58 44.50 185.97
  A 0.15 0.15 0.0 0 0 44.25 186.00
  Q 44.19 186.12 44.13 186.24
  Q 44.11 186.29 44.06 186.25
  C 41.38 184.06 38.85 181.69 35.60 180.20
  Q 33.62 179.30 32.27 177.49
  A 0.16 0.16 0.0 0 0 32.02 177.48
  Q 31.90 177.62 31.86 177.81
  Q 31.75 178.36 31.22 178.20
  C 30.47 177.97 30.11 177.53 30.06 176.68
  Q 29.87 173.56 28.74 175.15
  Q 28.65 107.18 28.79 39.07
  Q 28.80 34.84 30.13 32.72
  Q 33.06 28.06 39.84 28.77
  Z" fill="#00cabb"></path>
<path d="M 39.84 28.77
  L 62.41 28.82
  Q 57.42 30.05 51.04 29.82
  A 0.53 0.53 0.0 0 0 50.51 30.23
  Q 49.83 33.08 50.29 36.02
  Q 51.13 41.26 54.13 45.70
  L 46.24 45.73
  Q 45.71 45.73 45.65 46.26
  Q 45.60 46.64 45.69 47.03
  Q 43.81 46.55 42.78 45.51
  A 7.62 6.49 15.3 0 1 41.27 43.29
  Q 39.99 40.28 38.90 36.25
  Q 38.31 34.07 39.84 28.77
  Z" fill="#21d296"></path>
<path d="M 62.41 28.82
  L 96.94 28.76
  L 97.68 31.71
  Q 97.73 31.90 97.75 31.90
  Q 97.89 31.90 98.02 31.90
  Q 98.25 31.90 98.28 32.12
  Q 98.90 36.67 100.79 40.80
  Q 101.01 41.27 101.56 43.28
  Q 101.87 44.39 102.66 45.69
  L 54.13 45.70
  Q 51.13 41.26 50.29 36.02
  Q 49.83 33.08 50.51 30.23
  A 0.53 0.53 0.0 0 1 51.04 29.82
  Q 57.42 30.05 62.41 28.82
  Z" fill="#58d878"></path>
<path d="M 96.94 28.76
  L 144.20 28.81
  Q 145.61 29.70 146.22 31.54
  A 0.88 0.87 -1.9 0 0 146.83 32.11
  Q 147.79 32.35 148.28 33.23
  Q 151.65 39.29 154.80 45.71
  L 102.66 45.69
  Q 101.87 44.39 101.56 43.28
  Q 101.01 41.27 100.79 40.80
  Q 98.90 36.67 98.28 32.12
  Q 98.25 31.90 98.02 31.90
  Q 97.89 31.90 97.75 31.90
  Q 97.73 31.90 97.68 31.71
  L 96.94 28.76
  Z" fill="#8fe140"></path>
<path d="M 144.20 28.81
  C 184.27 26.33 218.25 52.12 226.21 91.37
  Q 217.51 89.56 208.52 90.23
  C 201.70 65.16 180.86 47.73 154.80 45.71
  Q 151.65 39.29 148.28 33.23
  Q 147.79 32.35 146.83 32.11
  A 0.88 0.87 -1.9 0 1 146.22 31.54
  Q 145.61 29.70 144.20 28.81
  Z" fill="#b6e801"></path>
<path d="M 174.06 134.15
  Q 173.21 134.67 172.70 134.18
  Q 172.36 133.85 171.88 133.90
  Q 171.11 133.98 170.51 133.50
  Q 170.11 133.18 169.88 132.73
  Q 169.58 132.12 168.74 132.09
  Q 167.79 132.04 166.85 131.86
  Q 166.37 131.76 166.09 131.36
  Q 165.70 130.79 165.10 130.87
  Q 164.63 130.94 164.29 130.61
  Q 163.57 129.94 162.64 129.82
  Q 162.26 129.77 162.09 129.43
  Q 161.66 128.61 160.83 129.15
  A 0.45 0.45 0.0 0 1 160.13 128.78
  Q 160.11 127.46 158.72 127.92
  A 0.46 0.46 0.0 0 1 158.13 127.61
  Q 157.91 126.74 157.01 126.89
  A 0.77 0.76 69.5 0 1 156.24 126.53
  Q 155.79 125.78 154.91 125.87
  A 0.91 0.90 67.6 0 1 154.11 125.53
  Q 152.29 123.22 149.28 123.69
  A 1.09 1.09 0.0 0 1 148.03 122.55
  Q 148.10 121.30 147.10 120.87
  Q 146.71 120.71 146.52 120.32
  Q 146.36 120.00 145.99 119.79
  Q 145.82 119.69 145.70 119.79
  Q 145.61 119.86 145.62 119.75
  Q 145.64 119.36 145.41 119.10
  Q 145.06 118.72 144.67 119.01
  L 129.15 94.97
  A 0.43 0.43 0.0 0 0 128.40 95.00
  L 123.34 104.47
  Q 123.26 103.81 122.49 104.84
  Q 122.23 105.19 122.14 104.76
  Q 121.94 103.70 122.68 102.99
  A 0.21 0.21 0.0 0 0 122.53 102.63
  Q 122.36 102.63 122.18 102.61
  Q 121.69 102.54 121.33 102.18
  L 119.78 100.64
  Q 119.45 100.30 119.31 99.86
  Q 118.94 98.66 117.57 98.62
  A 0.38 0.38 0.0 0 1 117.25 98.07
  Q 117.62 97.33 116.72 97.01
  Q 116.28 96.85 115.93 96.56
  Q 115.46 96.16 115.35 96.01
  L 114.13 94.33
  Q 113.77 93.84 113.20 94.07
  Q 113.00 94.15 112.76 94.13
  Q 112.37 94.10 112.36 93.71
  L 112.24 90.25
  Q 115.69 83.64 119.26 77.05
  Q 121.70 72.53 123.67 71.13
  C 127.41 68.47 132.29 69.75 134.91 73.50
  Q 135.85 74.86 137.23 76.99
  Q 155.67 105.56 174.06 134.15
  Z" fill="#6fdc66"></path>
<path d="M 208.52 90.23
  Q 217.51 89.56 226.21 91.37
  Q 228.78 105.58 226.18 119.53
  L 208.71 119.83
  Q 212.22 104.34 208.52 90.23
  Z" fill="#8fe140"></path>
<path d="M 112.24 90.25
  L 112.36 93.71
  Q 112.37 94.10 112.76 94.13
  Q 113.00 94.15 113.20 94.07
  Q 113.77 93.84 114.13 94.33
  L 115.35 96.01
  Q 115.46 96.16 115.93 96.56
  Q 116.28 96.85 116.72 97.01
  Q 117.62 97.33 117.25 98.07
  A 0.38 0.38 0.0 0 0 117.57 98.62
  Q 118.94 98.66 119.31 99.86
  Q 119.45 100.30 119.78 100.64
  L 121.33 102.18
  Q 121.69 102.54 122.18 102.61
  Q 122.36 102.63 122.53 102.63
  A 0.21 0.21 0.0 0 1 122.68 102.99
  Q 121.94 103.70 122.14 104.76
  Q 122.23 105.19 122.49 104.84
  Q 123.26 103.81 123.34 104.47
  L 113.29 123.34
  Q 112.45 122.99 111.06 125.09
  Q 109.94 126.77 109.31 128.25
  Q 108.33 130.51 107.73 128.12
  Q 107.69 127.97 106.93 127.51
  Q 106.50 127.25 106.19 126.87
  Q 104.06 124.27 99.98 120.77
  Q 98.61 119.60 98.79 117.88
  C 99.02 115.75 101.19 114.94 100.54 112.01
  L 112.24 90.25
  Z" fill="#58d878"></path>
<path d="M 100.54 112.01
  C 101.19 114.94 99.02 115.75 98.79 117.88
  Q 98.61 119.60 99.98 120.77
  Q 104.06 124.27 106.19 126.87
  Q 106.50 127.25 106.93 127.51
  Q 107.69 127.97 107.73 128.12
  Q 108.33 130.51 109.31 128.25
  Q 109.94 126.77 111.06 125.09
  Q 112.45 122.99 113.29 123.34
  L 91.27 164.53
  A 0.42 0.42 0.0 0 0 91.64 165.14
  L 147.46 165.22
  Q 147.18 165.72 147.94 165.91
  Q 148.40 166.02 148.31 166.48
  Q 148.25 166.80 148.05 166.85
  Q 146.00 167.30 147.81 168.36
  Q 148.23 168.61 149.06 168.60
  A 2.00 1.98 57.5 0 1 149.99 168.81
  Q 155.76 171.69 161.68 174.21
  Q 161.76 174.25 161.79 174.31
  Q 161.83 174.36 161.85 174.42
  Q 161.92 174.64 162.01 174.63
  Q 163.64 174.47 164.96 175.48
  Q 165.44 175.85 166.01 175.62
  Q 167.83 174.85 169.31 176.38
  A 0.62 0.62 0.0 0 0 169.82 176.57
  L 179.02 175.75
  A 0.29 0.28 16.9 0 1 179.27 176.21
  L 179.03 176.49
  Q 164.82 181.99 151.00 182.00
  Q 114.00 182.04 77.00 182.03
  C 72.39 182.03 68.14 177.57 68.60 172.91
  Q 68.77 171.16 70.90 167.19
  Q 85.68 139.59 100.54 112.01
  Z" fill="#00cdad"></path>
<path d="M 144.67 119.01
  Q 145.06 118.72 145.41 119.10
  Q 145.64 119.36 145.62 119.75
  Q 145.61 119.86 145.70 119.79
  Q 145.82 119.69 145.99 119.79
  Q 146.36 120.00 146.52 120.32
  Q 146.71 120.71 147.10 120.87
  Q 148.10 121.30 148.03 122.55
  A 1.09 1.09 0.0 0 0 149.28 123.69
  Q 152.29 123.22 154.11 125.53
  A 0.91 0.90 67.6 0 0 154.91 125.87
  Q 155.79 125.78 156.24 126.53
  A 0.77 0.76 69.5 0 0 157.01 126.89
  Q 157.91 126.74 158.13 127.61
  A 0.46 0.46 0.0 0 0 158.72 127.92
  Q 160.11 127.46 160.13 128.78
  A 0.45 0.45 0.0 0 0 160.83 129.15
  Q 161.66 128.61 162.09 129.43
  Q 162.26 129.77 162.64 129.82
  Q 163.57 129.94 164.29 130.61
  Q 164.63 130.94 165.10 130.87
  Q 165.70 130.79 166.09 131.36
  Q 166.37 131.76 166.85 131.86
  Q 167.79 132.04 168.74 132.09
  Q 169.58 132.12 169.88 132.73
  Q 170.11 133.18 170.51 133.50
  Q 171.11 133.98 171.88 133.90
  Q 172.36 133.85 172.70 134.18
  Q 173.21 134.67 174.06 134.15
  L 186.07 152.74
  A 0.91 0.90 -38.2 0 0 187.46 152.90
  C 191.37 149.14 195.64 145.07 198.70 140.91
  Q 205.83 131.21 208.71 119.83
  L 226.18 119.53
  Q 223.20 134.81 214.68 147.75
  Q 211.22 149.30 209.79 152.92
  A 0.57 0.50 -14.9 0 1 209.67 153.10
  L 199.54 162.95
  Q 199.15 163.34 198.63 163.51
  Q 197.04 164.04 195.92 165.39
  A 1.36 1.33 -26.9 0 0 195.61 166.30
  Q 195.63 167.39 194.88 167.22
  Q 194.42 167.12 194.09 167.46
  Q 193.65 167.93 193.01 167.85
  Q 182.65 166.49 172.85 162.86
  Q 172.45 162.71 172.52 162.28
  Q 172.66 161.40 171.97 161.33
  L 144.67 119.01
  Z" fill="#58d878"></path>
<path d="M 214.68 147.75
  Q 207.05 159.03 196.22 167.12
  A 0.55 0.55 0.0 0 0 196.09 167.86
  L 206.88 184.59
  Q 205.26 185.57 203.53 184.41
  Q 203.17 184.17 202.75 184.14
  Q 202.24 184.10 201.96 183.72
  Q 201.64 183.32 201.18 183.55
  Q 200.54 183.88 199.82 183.67
  C 198.25 183.21 196.52 183.34 194.87 183.24
  Q 193.42 183.15 191.29 182.27
  Q 188.21 180.99 184.97 181.45
  Q 182.76 178.40 181.69 176.51
  Q 180.98 175.24 179.03 176.49
  L 179.27 176.21
  A 0.29 0.28 16.9 0 0 179.02 175.75
  L 169.82 176.57
  A 0.62 0.62 0.0 0 1 169.31 176.38
  Q 167.83 174.85 166.01 175.62
  Q 165.44 175.85 164.96 175.48
  Q 163.64 174.47 162.01 174.63
  Q 161.92 174.64 161.85 174.42
  Q 161.83 174.36 161.79 174.31
  Q 161.76 174.25 161.68 174.21
  Q 155.76 171.69 149.99 168.81
  A 2.00 1.98 57.5 0 0 149.06 168.60
  Q 148.23 168.61 147.81 168.36
  Q 146.00 167.30 148.05 166.85
  Q 148.25 166.80 148.31 166.48
  Q 148.40 166.02 147.94 165.91
  Q 147.18 165.72 147.46 165.22
  C 156.71 165.15 163.68 164.50 171.97 161.33
  Q 172.66 161.40 172.52 162.28
  Q 172.45 162.71 172.85 162.86
  Q 182.65 166.49 193.01 167.85
  Q 193.65 167.93 194.09 167.46
  Q 194.42 167.12 194.88 167.22
  Q 195.63 167.39 195.61 166.30
  A 1.36 1.33 -26.9 0 1 195.92 165.39
  Q 197.04 164.04 198.63 163.51
  Q 199.15 163.34 199.54 162.95
  L 209.67 153.10
  A 0.57 0.50 -14.9 0 0 209.79 152.92
  Q 211.22 149.30 214.68 147.75
  Z" fill="#21d296"></path>
<path d="M 45.70 191.98
  L 45.68 209.97
  A 0.52 0.52 0.0 0 0 46.20 210.50
  L 67.78 210.51
  Q 69.96 210.91 69.72 212.57
  Q 69.65 213.03 69.83 213.47
  Q 70.29 214.62 70.91 215.68
  C 71.53 216.75 72.52 217.04 73.14 218.25
  Q 73.37 218.70 73.79 219.00
  Q 74.93 219.81 74.87 221.22
  Q 74.85 221.70 75.12 222.10
  Q 76.20 223.76 78.17 224.31
  Q 78.59 224.43 78.69 224.85
  Q 79.06 226.25 80.36 226.01
  Q 80.70 225.94 80.81 226.27
  Q 80.92 226.57 81.11 226.78
  Q 81.49 227.19 80.95 227.31
  L 80.04 227.51
  Q 60.01 227.54 39.97 227.51
  Q 35.23 227.51 33.21 226.42
  C 29.96 224.67 28.77 221.85 28.76 218.02
  Q 28.67 196.66 28.74 175.15
  Q 29.87 173.56 30.06 176.68
  C 30.11 177.53 30.47 177.97 31.22 178.20
  Q 31.75 178.36 31.86 177.81
  Q 31.90 177.62 32.02 177.48
  A 0.16 0.16 0.0 0 1 32.27 177.49
  Q 33.62 179.30 35.60 180.20
  C 38.85 181.69 41.38 184.06 44.06 186.25
  Q 44.11 186.29 44.13 186.24
  Q 44.19 186.12 44.25 186.00
  A 0.15 0.15 0.0 0 1 44.50 185.97
  C 44.98 186.58 45.37 187.24 45.28 188.08
  Q 45.05 190.15 45.70 191.98
  Z" fill="#00bef0"></path>
<path d="M 206.88 184.59
  Q 216.59 199.58 226.32 214.74
  C 229.09 219.04 226.83 224.87 222.24 226.81
  Q 220.60 227.50 216.68 227.50
  Q 148.36 227.53 80.04 227.51
  L 80.95 227.31
  Q 81.49 227.19 81.11 226.78
  Q 80.92 226.57 80.81 226.27
  Q 80.70 225.94 80.36 226.01
  Q 79.06 226.25 78.69 224.85
  Q 78.59 224.43 78.17 224.31
  Q 76.20 223.76 75.12 222.10
  Q 74.85 221.70 74.87 221.22
  Q 74.93 219.81 73.79 219.00
  Q 73.37 218.70 73.14 218.25
  C 72.52 217.04 71.53 216.75 70.91 215.68
  Q 70.29 214.62 69.83 213.47
  Q 69.65 213.03 69.72 212.57
  Q 69.96 210.91 67.78 210.51
  L 202.85 210.50
  A 0.42 0.42 0.0 0 0 203.20 209.85
  L 184.97 181.45
  Q 188.21 180.99 191.29 182.27
  Q 193.42 183.15 194.87 183.24
  C 196.52 183.34 198.25 183.21 199.82 183.67
  Q 200.54 183.88 201.18 183.55
  Q 201.64 183.32 201.96 183.72
  Q 202.24 184.10 202.75 184.14
  Q 203.17 184.17 203.53 184.41
  Q 205.26 185.57 206.88 184.59
  Z" fill="#00c8c5"></path>
</svg>
