<svg viewBox="0.00 0.00 512.00 512.00" version="1.1" xmlns="http://www.w3.org/2000/svg">
<g stroke-linecap="butt" fill="none" stroke-width="2.00">
<path d="M 362.64 138.42
  A 0.30 0.30 0.0 0 1 362.48 138.26
  L 348.09 106.59
  A 0.30 0.30 0.0 0 0 347.55 106.59
  L 333.23 138.23
  A 0.30 0.30 0.0 0 1 333.07 138.39
  L 298.30 153.40
  A 0.30 0.30 0.0 0 0 298.30 153.95
  L 333.06 169.30
  A 0.30 0.30 0.0 0 1 333.22 169.46
  L 347.55 202.77
  A 0.30 0.30 0.0 0 0 348.11 202.77
  L 362.44 169.46
  A 0.30 0.30 0.0 0 1 362.60 169.30
  L 397.36 153.94
  A 0.30 0.30 0.0 0 0 397.36 153.39
  L 362.64 138.42" stroke="#fa9faf"></path>
<path d="M 166.50 286.43
  A 0.30 0.30 0.0 0 1 166.65 286.58
  L 197.73 352.98
  A 0.30 0.30 0.0 0 0 198.27 352.98
  L 229.69 286.57
  A 0.30 0.30 0.0 0 1 229.84 286.42
  L 297.39 256.09
  A 0.30 0.30 0.0 0 0 297.39 255.55
  L 229.85 225.24
  A 0.30 0.30 0.0 0 1 229.70 225.09
  L 198.27 159.01
  A 0.30 0.30 0.0 0 0 197.73 159.01
  L 166.65 225.09
  A 0.30 0.30 0.0 0 1 166.50 225.24
  L 98.61 255.56
  A 0.30 0.30 0.0 0 0 98.61 256.10
  L 166.50 286.43" stroke="#fa9faf"></path>
<path d="M 347.53 308.97
  L 333.37 342.15
  Q 333.15 342.66 332.64 342.89
  L 298.77 357.51
  Q 298.57 357.59 298.35 357.54
  Q 297.77 357.40 298.02 358.11
  A 0.13 0.13 0.0 0 0 298.09 358.18
  L 332.28 372.93
  A 2.47 2.45 -0.2 0 1 333.55 374.18
  L 347.67 405.65
  A 0.18 0.17 45.9 0 0 347.99 405.66
  L 362.27 373.82
  Q 362.50 373.31 363.02 373.09
  L 397.69 358.12
  A 0.15 0.15 0.0 0 0 397.69 357.84
  L 363.23 342.99
  A 1.96 1.91 0.7 0 1 362.22 341.98
  L 348.11 308.97
  Q 347.82 308.29 347.53 308.97" stroke="#fa9faf"></path>
</g>
<path d="M 246.88 0.00
  L 262.75 0.00
  C 271.40 0.47 280.46 0.93 288.71 2.05
  Q 367.08 12.69 425.86 64.52
  C 474.31 107.23 504.75 167.32 510.71 231.64
  Q 511.42 239.24 512.00 246.88
  L 512.00 262.74
  C 507.69 392.28 409.91 498.30 280.35 510.68
  Q 272.76 511.41 265.12 512.00
  L 247.75 512.00
  Q 234.31 511.20 227.75 510.46
  C 160.81 502.92 98.84 469.19 56.84 416.90
  Q 3.07 349.95 0.00 262.63
  L 0.00 248.76
  C 4.35 119.17 103.38 12.54 233.26 1.16
  Q 240.07 0.56 246.88 0.00
  Z
  M 362.64 138.42
  A 0.30 0.30 0.0 0 1 362.48 138.26
  L 348.09 106.59
  A 0.30 0.30 0.0 0 0 347.55 106.59
  L 333.23 138.23
  A 0.30 0.30 0.0 0 1 333.07 138.39
  L 298.30 153.40
  A 0.30 0.30 0.0 0 0 298.30 153.95
  L 333.06 169.30
  A 0.30 0.30 0.0 0 1 333.22 169.46
  L 347.55 202.77
  A 0.30 0.30 0.0 0 0 348.11 202.77
  L 362.44 169.46
  A 0.30 0.30 0.0 0 1 362.60 169.30
  L 397.36 153.94
  A 0.30 0.30 0.0 0 0 397.36 153.39
  L 362.64 138.42
  Z
  M 166.50 286.43
  A 0.30 0.30 0.0 0 1 166.65 286.58
  L 197.73 352.98
  A 0.30 0.30 0.0 0 0 198.27 352.98
  L 229.69 286.57
  A 0.30 0.30 0.0 0 1 229.84 286.42
  L 297.39 256.09
  A 0.30 0.30 0.0 0 0 297.39 255.55
  L 229.85 225.24
  A 0.30 0.30 0.0 0 1 229.70 225.09
  L 198.27 159.01
  A 0.30 0.30 0.0 0 0 197.73 159.01
  L 166.65 225.09
  A 0.30 0.30 0.0 0 1 166.50 225.24
  L 98.61 255.56
  A 0.30 0.30 0.0 0 0 98.61 256.10
  L 166.50 286.43
  Z
  M 347.53 308.97
  L 333.37 342.15
  Q 333.15 342.66 332.64 342.89
  L 298.77 357.51
  Q 298.57 357.59 298.35 357.54
  Q 297.77 357.40 298.02 358.11
  A 0.13 0.13 0.0 0 0 298.09 358.18
  L 332.28 372.93
  A 2.47 2.45 -0.2 0 1 333.55 374.18
  L 347.67 405.65
  A 0.18 0.17 45.9 0 0 347.99 405.66
  L 362.27 373.82
  Q 362.50 373.31 363.02 373.09
  L 397.69 358.12
  A 0.15 0.15 0.0 0 0 397.69 357.84
  L 363.23 342.99
  A 1.96 1.91 0.7 0 1 362.22 341.98
  L 348.11 308.97
  Q 347.82 308.29 347.53 308.97
  Z" fill="#f43f5e"></path>
<path d="M 362.64 138.42
  L 397.36 153.39
  A 0.30 0.30 0.0 0 1 397.36 153.94
  L 362.60 169.30
  A 0.30 0.30 0.0 0 0 362.44 169.46
  L 348.11 202.77
  A 0.30 0.30 0.0 0 1 347.55 202.77
  L 333.22 169.46
  A 0.30 0.30 0.0 0 0 333.06 169.30
  L 298.30 153.95
  A 0.30 0.30 0.0 0 1 298.30 153.40
  L 333.07 138.39
  A 0.30 0.30 0.0 0 0 333.23 138.23
  L 347.55 106.59
  A 0.30 0.30 0.0 0 1 348.09 106.59
  L 362.48 138.26
  A 0.30 0.30 0.0 0 0 362.64 138.42
  Z" fill="#ffffff"></path>
<path d="M 166.50 286.43
  L 98.61 256.10
  A 0.30 0.30 0.0 0 1 98.61 255.56
  L 166.50 225.24
  A 0.30 0.30 0.0 0 0 166.65 225.09
  L 197.73 159.01
  A 0.30 0.30 0.0 0 1 198.27 159.01
  L 229.70 225.09
  A 0.30 0.30 0.0 0 0 229.85 225.24
  L 297.39 255.55
  A 0.30 0.30 0.0 0 1 297.39 256.09
  L 229.84 286.42
  A 0.30 0.30 0.0 0 0 229.69 286.57
  L 198.27 352.98
  A 0.30 0.30 0.0 0 1 197.73 352.98
  L 166.65 286.58
  A 0.30 0.30 0.0 0 0 166.50 286.43
  Z" fill="#ffffff"></path>
<path d="M 333.37 342.15
  L 347.53 308.97
  Q 347.82 308.29 348.11 308.97
  L 362.22 341.98
  A 1.96 1.91 0.7 0 0 363.23 342.99
  L 397.69 357.84
  A 0.15 0.15 0.0 0 1 397.69 358.12
  L 363.02 373.09
  Q 362.50 373.31 362.27 373.82
  L 347.99 405.66
  A 0.18 0.17 45.9 0 1 347.67 405.65
  L 333.55 374.18
  A 2.47 2.45 -0.2 0 0 332.28 372.93
  L 298.09 358.18
  A 0.13 0.13 0.0 0 1 298.02 358.11
  Q 297.77 357.40 298.35 357.54
  Q 298.57 357.59 298.77 357.51
  L 332.64 342.89
  Q 333.15 342.66 333.37 342.15
  Z" fill="#ffffff"></path>
</svg>
