<svg viewBox="0.00 0.00 48.00 48.00" version="1.1" xmlns="http://www.w3.org/2000/svg">
<g stroke-linecap="butt" fill="none" stroke-width="2.00">
<path d="M 4.99 41.53
  Q 4.22 42.97 5.53 43.48
  C 6.45 43.84 7.13 44.11 8.19 43.88
  Q 11.97 43.07 15.73 44.00
  Q 16.45 44.18 18.14 43.44" stroke="#a694be"></path>
<path d="M 18.14 43.44
  L 19.92 43.39" stroke="#c8a8aa"></path>
<path d="M 19.92 43.39
  L 22.91 43.49" stroke="#9188bb"></path>
<path d="M 22.91 43.49
  Q 23.65 42.86 24.16 43.34" stroke="#c8a8aa"></path>
<path d="M 24.16 43.34
  L 28.26 43.38" stroke="#9188bb"></path>
<path d="M 28.26 43.38
  L 28.93 43.38" stroke="#c8a8aa"></path>
<path d="M 28.93 43.38
  C 30.34 43.67 31.48 44.05 33.04 43.82
  Q 35.98 43.39 40.48 44.02
  Q 44.16 44.53 42.92 41.46" stroke="#a694be"></path>
<path d="M 42.92 41.46
  Q 42.48 32.38 42.92 30.00
  C 43.46 27.10 42.33 24.49 43.52 21.42
  A 1.02 1.00 -50.6 0 0 43.44 20.51
  Q 42.29 18.62 42.82 16.50
  Q 42.92 16.10 43.19 15.77
  Q 43.65 15.21 43.54 14.49
  Q 43.47 14.04 43.07 13.83
  L 24.61 4.31
  A 1.55 1.52 -44.8 0 0 23.18 4.32
  L 4.51 13.93
  A 0.91 0.90 56.2 0 0 4.24 15.32
  Q 5.58 16.93 5.03 19.13
  Q 4.91 19.61 4.56 19.95
  Q 3.41 21.05 4.59 22.15
  A 1.67 1.65 18.1 0 1 5.09 23.12
  Q 5.41 25.44 4.82 27.67
  Q 4.71 28.11 4.72 28.57
  L 4.99 41.53" stroke="#b7a6d1"></path>
<path d="M 42.92 41.46
  L 42.78 41.25
  Q 42.64 41.06 42.44 41.18
  Q 41.93 41.48 41.64 41.89
  Q 41.28 42.39 41.18 41.78
  Q 41.07 41.16 41.26 40.50" stroke="#809090"></path>
<path d="M 41.26 40.50
  L 41.16 24.05
  Q 41.15 23.56 40.77 23.24
  Q 39.80 22.46 39.08 23.41" stroke="#c5cccd"></path>
<path d="M 39.08 23.41
  Q 39.40 21.89 37.76 21.58
  Q 36.01 21.24 34.41 21.42
  A 0.24 0.24 0.0 0 1 34.14 21.20
  L 34.11 20.82
  Q 34.07 20.35 34.53 20.27
  L 36.94 19.84
  Q 38.20 19.62 37.02 19.11
  Q 36.17 18.74 35.24 18.89
  A 0.32 0.31 -4.7 0 1 34.87 18.58
  L 34.87 17.79
  Q 34.87 17.42 35.24 17.41
  Q 38.09 17.34 41.14 16.64
  Q 42.04 16.44 42.20 15.82
  A 0.62 0.61 -81.6 0 0 41.63 15.05
  L 32.76 14.72" stroke="#809090"></path>
<path d="M 32.76 14.72
  Q 31.26 11.46 28.26 9.63
  C 26.46 8.52 24.28 8.89 22.20 8.87
  C 20.43 8.86 19.25 9.77 17.69 10.46
  Q 17.25 10.66 17.01 11.09
  L 14.92 14.81" stroke="#bcaf7b"></path>
<path d="M 14.92 14.81
  L 6.03 14.83
  A 0.41 0.40 0.0 0 0 5.62 15.23
  L 5.62 15.67
  A 0.97 0.97 0.0 0 0 6.54 16.64
  L 12.62 16.96
  Q 13.02 16.98 13.23 17.33
  Q 13.72 18.12 13.03 18.95
  A 0.14 0.14 0.0 0 0 13.00 19.11
  Q 13.56 20.40 13.64 21.21
  A 0.54 0.54 0.0 0 1 13.02 21.80
  Q 8.62 21.16 8.65 23.06" stroke="#809090"></path>
<path d="M 8.65 23.06
  Q 7.54 22.84 6.97 23.19
  Q 6.52 23.46 6.49 24.50
  Q 6.22 33.49 6.23 42.58" stroke="#c5cccd"></path>
<path d="M 6.23 42.58
  Q 5.96 42.12 5.81 41.51
  Q 5.71 41.11 5.54 41.12
  Q 5.33 41.12 4.99 41.53" stroke="#809090"></path>
<path d="M 32.76 14.72
  Q 34.64 18.83 32.53 23.14" stroke="#aa9e68"></path>
<path d="M 32.53 23.14
  Q 32.03 24.61 31.14 25.64" stroke="#efdaa4"></path>
<path d="M 31.14 25.64
  C 29.38 26.45 27.61 27.77 25.83 28.10
  Q 20.97 29.01 16.51 25.33" stroke="#aa9e68"></path>
<path d="M 16.51 25.33
  L 14.92 22.51" stroke="#efdaa4"></path>
<path d="M 14.92 22.51
  Q 13.04 18.73 14.92 14.81" stroke="#aa9e68"></path>
<path d="M 14.92 22.51
  Q 14.33 23.30 14.16 24.25" stroke="#b3baba"></path>
<path d="M 14.16 24.25
  L 14.03 29.78
  A 0.41 0.41 0.0 0 1 13.43 30.13
  Q 12.17 29.44 10.75 29.96
  Q 10.11 30.21 10.12 30.89
  L 10.25 40.01
  Q 10.26 40.48 10.64 40.73
  Q 12.03 41.66 13.22 40.78
  Q 13.62 40.49 13.86 40.93
  L 14.24 41.60" stroke="#809090"></path>
<path d="M 14.24 41.60
  Q 14.18 43.19 15.93 42.85
  A 0.86 0.86 0.0 0 0 16.62 42.01
  L 16.51 25.33" stroke="#b3baba"></path>
<path d="M 31.14 25.64
  C 29.87 30.51 30.46 36.89 30.59 41.94
  Q 30.61 42.43 31.03 42.68
  Q 32.08 43.29 32.83 42.22" stroke="#b3baba"></path>
<path d="M 32.83 42.22
  Q 32.73 41.02 33.37 40.68
  Q 33.84 40.43 34.28 40.72
  Q 35.61 41.61 37.16 41.19
  Q 37.81 41.01 37.81 40.34
  L 37.79 30.41
  Q 37.79 29.73 37.12 29.65
  Q 35.39 29.43 34.03 30.48
  A 0.71 0.71 0.0 0 1 32.88 29.92
  L 32.88 24.05" stroke="#809090"></path>
<path d="M 32.88 24.05
  L 32.53 23.14" stroke="#b3baba"></path>
<path d="M 39.08 23.41
  L 38.97 41.86
  A 0.96 0.96 0.0 0 0 39.43 42.68
  Q 40.15 43.12 40.75 42.54
  A 1.16 1.11 -19.2 0 0 41.09 41.87
  L 41.26 40.50" stroke="#b3baba"></path>
<path d="M 28.93 43.38
  L 29.16 32.88" stroke="#919269"></path>
<path d="M 29.16 32.88
  Q 29.87 31.58 29.35 30.12
  Q 29.20 29.68 28.74 29.65
  Q 23.25 29.28 19.00 29.89
  Q 17.56 30.09 18.26 31.79" stroke="#809090"></path>
<path d="M 18.26 31.79
  L 18.45 32.45
  Q 18.57 32.90 18.36 33.32
  C 17.20 35.58 18.05 40.81 18.14 43.44" stroke="#919269"></path>
<path d="M 6.23 42.58
  Q 7.05 43.07 7.83 42.89
  A 1.19 1.18 83.4 0 0 8.75 41.72
  L 8.65 23.06" stroke="#b3baba"></path>
<path d="M 14.24 41.60
  L 14.16 24.25" stroke="#c5cccd"></path>
<path d="M 32.88 24.05
  L 32.83 42.22" stroke="#c5cccd"></path>
<path d="M 29.16 32.88
  Q 23.91 33.51 18.76 32.34
  Q 18.47 32.27 18.26 31.79" stroke="#a2a37c"></path>
<path d="M 28.26 43.38
  L 27.93 35.40
  Q 27.89 34.52 27.01 34.52
  L 25.30 34.54
  Q 24.44 34.55 24.41 35.41
  L 24.16 43.34" stroke="#7c8666"></path>
<path d="M 22.91 43.49
  L 22.88 35.06
  A 0.55 0.54 -1.0 0 0 22.31 34.52
  L 20.36 34.59
  Q 19.84 34.60 19.84 35.13
  L 19.92 43.39" stroke="#7c8666"></path>
<path d="M 17.71 13.75
  C 15.56 16.05 15.51 22.46 18.62 24.41
  Q 20.94 25.87 23.48 26.80
  Q 23.91 26.95 24.34 26.82
  C 26.97 26.01 29.61 25.07 30.86 22.42
  Q 34.37 14.96 26.49 10.86
  Q 25.76 10.48 25.45 10.08
  Q 25.14 9.67 24.64 9.54
  Q 23.59 9.28 22.99 9.97
  Q 22.64 10.38 22.14 10.60
  Q 19.60 11.74 17.71 13.75" stroke="#e8cb46"></path>
<path d="M 22.67 22.35
  Q 22.30 22.19 22.00 21.74
  Q 21.27 20.63 20.12 21.02
  Q 19.61 21.20 19.72 21.73
  C 20.07 23.35 22.36 23.94 23.49 24.59
  Q 23.88 24.81 24.28 24.60
  C 26.29 23.54 30.11 21.95 27.51 19.03
  C 26.88 18.32 25.91 18.07 25.02 17.70
  Q 24.55 17.51 24.42 17.01
  Q 24.27 16.40 24.49 15.80
  Q 24.74 15.13 25.30 15.58
  L 25.74 15.93
  Q 28.10 17.85 27.72 14.83
  Q 27.70 14.61 27.03 14.11
  C 25.91 13.25 25.18 13.77 24.18 12.40
  Q 23.82 11.91 23.41 12.37
  C 22.47 13.43 21.27 13.54 20.53 14.48
  Q 18.83 16.66 21.05 18.74
  A 1.86 1.83 -14.1 0 0 21.80 19.18
  Q 23.94 19.82 23.06 22.18
  A 0.30 0.29 -68.0 0 1 22.67 22.35" stroke="#b19c3b"></path>
<path d="M 23.24 15.44
  A 0.54 0.54 0.0 0 0 22.42 15.04
  Q 21.51 15.60 21.75 16.78
  A 0.60 0.59 -30.0 0 0 22.78 17.05
  Q 23.36 16.37 23.24 15.44" stroke="#b19c3b"></path>
<path d="M 24.30 20.79
  Q 24.13 21.07 24.75 21.91
  Q 24.99 22.23 25.37 22.09
  Q 26.08 21.83 25.95 21.11
  Q 25.55 18.80 24.30 20.79" stroke="#b19c3b"></path>
</g>
<path d="M 4.12 0.00
  L 44.21 0.00
  Q 47.05 1.06 48.00 3.89
  L 48.00 43.98
  Q 47.11 47.04 44.10 48.00
  L 4.01 48.00
  Q 1.02 47.19 0.00 44.09
  L 0.00 4.02
  Q 0.93 0.83 4.12 0.00
  Z
  M 4.99 41.53
  Q 4.22 42.97 5.53 43.48
  C 6.45 43.84 7.13 44.11 8.19 43.88
  Q 11.97 43.07 15.73 44.00
  Q 16.45 44.18 18.14 43.44
  L 19.92 43.39
  L 22.91 43.49
  Q 23.65 42.86 24.16 43.34
  L 28.26 43.38
  L 28.93 43.38
  C 30.34 43.67 31.48 44.05 33.04 43.82
  Q 35.98 43.39 40.48 44.02
  Q 44.16 44.53 42.92 41.46
  Q 42.48 32.38 42.92 30.00
  C 43.46 27.10 42.33 24.49 43.52 21.42
  A 1.02 1.00 -50.6 0 0 43.44 20.51
  Q 42.29 18.62 42.82 16.50
  Q 42.92 16.10 43.19 15.77
  Q 43.65 15.21 43.54 14.49
  Q 43.47 14.04 43.07 13.83
  L 24.61 4.31
  A 1.55 1.52 -44.8 0 0 23.18 4.32
  L 4.51 13.93
  A 0.91 0.90 56.2 0 0 4.24 15.32
  Q 5.58 16.93 5.03 19.13
  Q 4.91 19.61 4.56 19.95
  Q 3.41 21.05 4.59 22.15
  A 1.67 1.65 18.1 0 1 5.09 23.12
  Q 5.41 25.44 4.82 27.67
  Q 4.71 28.11 4.72 28.57
  L 4.99 41.53
  Z" fill="#ddaaff"></path>
<path d="M 42.92 41.46
  L 42.78 41.25
  Q 42.64 41.06 42.44 41.18
  Q 41.93 41.48 41.64 41.89
  Q 41.28 42.39 41.18 41.78
  Q 41.07 41.16 41.26 40.50
  L 41.16 24.05
  Q 41.15 23.56 40.77 23.24
  Q 39.80 22.46 39.08 23.41
  Q 39.40 21.89 37.76 21.58
  Q 36.01 21.24 34.41 21.42
  A 0.24 0.24 0.0 0 1 34.14 21.20
  L 34.11 20.82
  Q 34.07 20.35 34.53 20.27
  L 36.94 19.84
  Q 38.20 19.62 37.02 19.11
  Q 36.17 18.74 35.24 18.89
  A 0.32 0.31 -4.7 0 1 34.87 18.58
  L 34.87 17.79
  Q 34.87 17.42 35.24 17.41
  Q 38.09 17.34 41.14 16.64
  Q 42.04 16.44 42.20 15.82
  A 0.62 0.61 -81.6 0 0 41.63 15.05
  L 32.76 14.72
  Q 31.26 11.46 28.26 9.63
  C 26.46 8.52 24.28 8.89 22.20 8.87
  C 20.43 8.86 19.25 9.77 17.69 10.46
  Q 17.25 10.66 17.01 11.09
  L 14.92 14.81
  L 6.03 14.83
  A 0.41 0.40 0.0 0 0 5.62 15.23
  L 5.62 15.67
  A 0.97 0.97 0.0 0 0 6.54 16.64
  L 12.62 16.96
  Q 13.02 16.98 13.23 17.33
  Q 13.72 18.12 13.03 18.95
  A 0.14 0.14 0.0 0 0 13.00 19.11
  Q 13.56 20.40 13.64 21.21
  A 0.54 0.54 0.0 0 1 13.02 21.80
  Q 8.62 21.16 8.65 23.06
  Q 7.54 22.84 6.97 23.19
  Q 6.52 23.46 6.49 24.50
  Q 6.22 33.49 6.23 42.58
  Q 5.96 42.12 5.81 41.51
  Q 5.71 41.11 5.54 41.12
  Q 5.33 41.12 4.99 41.53
  L 4.72 28.57
  Q 4.71 28.11 4.82 27.67
  Q 5.41 25.44 5.09 23.12
  A 1.67 1.65 18.1 0 0 4.59 22.15
  Q 3.41 21.05 4.56 19.95
  Q 4.91 19.61 5.03 19.13
  Q 5.58 16.93 4.24 15.32
  A 0.91 0.90 56.2 0 1 4.51 13.93
  L 23.18 4.32
  A 1.55 1.52 -44.8 0 1 24.61 4.31
  L 43.07 13.83
  Q 43.47 14.04 43.54 14.49
  Q 43.65 15.21 43.19 15.77
  Q 42.92 16.10 42.82 16.50
  Q 42.29 18.62 43.44 20.51
  A 1.02 1.00 -50.6 0 1 43.52 21.42
  C 42.33 24.49 43.46 27.10 42.92 30.00
  Q 42.48 32.38 42.92 41.46
  Z" fill="#91a1a3"></path>
<path d="M 32.76 14.72
  Q 34.64 18.83 32.53 23.14
  Q 32.03 24.61 31.14 25.64
  C 29.38 26.45 27.61 27.77 25.83 28.10
  Q 20.97 29.01 16.51 25.33
  L 14.92 22.51
  Q 13.04 18.73 14.92 14.81
  L 17.01 11.09
  Q 17.25 10.66 17.69 10.46
  C 19.25 9.77 20.43 8.86 22.20 8.87
  C 24.28 8.89 26.46 8.52 28.26 9.63
  Q 31.26 11.46 32.76 14.72
  Z
  M 17.71 13.75
  C 15.56 16.05 15.51 22.46 18.62 24.41
  Q 20.94 25.87 23.48 26.80
  Q 23.91 26.95 24.34 26.82
  C 26.97 26.01 29.61 25.07 30.86 22.42
  Q 34.37 14.96 26.49 10.86
  Q 25.76 10.48 25.45 10.08
  Q 25.14 9.67 24.64 9.54
  Q 23.59 9.28 22.99 9.97
  Q 22.64 10.38 22.14 10.60
  Q 19.60 11.74 17.71 13.75
  Z" fill="#e6bd52"></path>
<path d="M 18.62 24.41
  C 15.51 22.46 15.56 16.05 17.71 13.75
  Q 19.60 11.74 22.14 10.60
  Q 22.64 10.38 22.99 9.97
  Q 23.59 9.28 24.64 9.54
  Q 25.14 9.67 25.45 10.08
  Q 25.76 10.48 26.49 10.86
  Q 34.37 14.96 30.86 22.42
  C 29.61 25.07 26.97 26.01 24.34 26.82
  Q 23.91 26.95 23.48 26.80
  Q 20.94 25.87 18.62 24.41
  Z
  M 22.67 22.35
  Q 22.30 22.19 22.00 21.74
  Q 21.27 20.63 20.12 21.02
  Q 19.61 21.20 19.72 21.73
  C 20.07 23.35 22.36 23.94 23.49 24.59
  Q 23.88 24.81 24.28 24.60
  C 26.29 23.54 30.11 21.95 27.51 19.03
  C 26.88 18.32 25.91 18.07 25.02 17.70
  Q 24.55 17.51 24.42 17.01
  Q 24.27 16.40 24.49 15.80
  Q 24.74 15.13 25.30 15.58
  L 25.74 15.93
  Q 28.10 17.85 27.72 14.83
  Q 27.70 14.61 27.03 14.11
  C 25.91 13.25 25.18 13.77 24.18 12.40
  Q 23.82 11.91 23.41 12.37
  C 22.47 13.43 21.27 13.54 20.53 14.48
  Q 18.83 16.66 21.05 18.74
  A 1.86 1.83 -14.1 0 0 21.80 19.18
  Q 23.94 19.82 23.06 22.18
  A 0.30 0.29 -68.0 0 1 22.67 22.35
  Z" fill="#e9d839"></path>
<path d="M 22.67 22.35
  A 0.30 0.29 -68.0 0 0 23.06 22.18
  Q 23.94 19.82 21.80 19.18
  A 1.86 1.83 -14.1 0 1 21.05 18.74
  Q 18.83 16.66 20.53 14.48
  C 21.27 13.54 22.47 13.43 23.41 12.37
  Q 23.82 11.91 24.18 12.40
  C 25.18 13.77 25.91 13.25 27.03 14.11
  Q 27.70 14.61 27.72 14.83
  Q 28.10 17.85 25.74 15.93
  L 25.30 15.58
  Q 24.74 15.13 24.49 15.80
  Q 24.27 16.40 24.42 17.01
  Q 24.55 17.51 25.02 17.70
  C 25.91 18.07 26.88 18.32 27.51 19.03
  C 30.11 21.95 26.29 23.54 24.28 24.60
  Q 23.88 24.81 23.49 24.59
  C 22.36 23.94 20.07 23.35 19.72 21.73
  Q 19.61 21.20 20.12 21.02
  Q 21.27 20.63 22.00 21.74
  Q 22.30 22.19 22.67 22.35
  Z
  M 23.24 15.44
  A 0.54 0.54 0.0 0 0 22.42 15.04
  Q 21.51 15.60 21.75 16.78
  A 0.60 0.59 -30.0 0 0 22.78 17.05
  Q 23.36 16.37 23.24 15.44
  Z
  M 24.30 20.79
  Q 24.13 21.07 24.75 21.91
  Q 24.99 22.23 25.37 22.09
  Q 26.08 21.83 25.95 21.11
  Q 25.55 18.80 24.30 20.79
  Z" fill="#785f3c"></path>
<path d="M 14.92 14.81
  Q 13.04 18.73 14.92 22.51
  Q 14.33 23.30 14.16 24.25
  L 14.03 29.78
  A 0.41 0.41 0.0 0 1 13.43 30.13
  Q 12.17 29.44 10.75 29.96
  Q 10.11 30.21 10.12 30.89
  L 10.25 40.01
  Q 10.26 40.48 10.64 40.73
  Q 12.03 41.66 13.22 40.78
  Q 13.62 40.49 13.86 40.93
  L 14.24 41.60
  Q 14.18 43.19 15.93 42.85
  A 0.86 0.86 0.0 0 0 16.62 42.01
  L 16.51 25.33
  Q 20.97 29.01 25.83 28.10
  C 27.61 27.77 29.38 26.45 31.14 25.64
  C 29.87 30.51 30.46 36.89 30.59 41.94
  Q 30.61 42.43 31.03 42.68
  Q 32.08 43.29 32.83 42.22
  Q 32.73 41.02 33.37 40.68
  Q 33.84 40.43 34.28 40.72
  Q 35.61 41.61 37.16 41.19
  Q 37.81 41.01 37.81 40.34
  L 37.79 30.41
  Q 37.79 29.73 37.12 29.65
  Q 35.39 29.43 34.03 30.48
  A 0.71 0.71 0.0 0 1 32.88 29.92
  L 32.88 24.05
  L 32.53 23.14
  Q 34.64 18.83 32.76 14.72
  L 41.63 15.05
  A 0.62 0.61 -81.6 0 1 42.20 15.82
  Q 42.04 16.44 41.14 16.64
  Q 38.09 17.34 35.24 17.41
  Q 34.87 17.42 34.87 17.79
  L 34.87 18.58
  A 0.32 0.31 -4.7 0 0 35.24 18.89
  Q 36.17 18.74 37.02 19.11
  Q 38.20 19.62 36.94 19.84
  L 34.53 20.27
  Q 34.07 20.35 34.11 20.82
  L 34.14 21.20
  A 0.24 0.24 0.0 0 0 34.41 21.42
  Q 36.01 21.24 37.76 21.58
  Q 39.40 21.89 39.08 23.41
  L 38.97 41.86
  A 0.96 0.96 0.0 0 0 39.43 42.68
  Q 40.15 43.12 40.75 42.54
  A 1.16 1.11 -19.2 0 0 41.09 41.87
  L 41.26 40.50
  Q 41.07 41.16 41.18 41.78
  Q 41.28 42.39 41.64 41.89
  Q 41.93 41.48 42.44 41.18
  Q 42.64 41.06 42.78 41.25
  L 42.92 41.46
  Q 44.16 44.53 40.48 44.02
  Q 35.98 43.39 33.04 43.82
  C 31.48 44.05 30.34 43.67 28.93 43.38
  L 29.16 32.88
  Q 29.87 31.58 29.35 30.12
  Q 29.20 29.68 28.74 29.65
  Q 23.25 29.28 19.00 29.89
  Q 17.56 30.09 18.26 31.79
  L 18.45 32.45
  Q 18.57 32.90 18.36 33.32
  C 17.20 35.58 18.05 40.81 18.14 43.44
  Q 16.45 44.18 15.73 44.00
  Q 11.97 43.07 8.19 43.88
  C 7.13 44.11 6.45 43.84 5.53 43.48
  Q 4.22 42.97 4.99 41.53
  Q 5.33 41.12 5.54 41.12
  Q 5.71 41.11 5.81 41.51
  Q 5.96 42.12 6.23 42.58
  Q 7.05 43.07 7.83 42.89
  A 1.19 1.18 83.4 0 0 8.75 41.72
  L 8.65 23.06
  Q 8.62 21.16 13.02 21.80
  A 0.54 0.54 0.0 0 0 13.64 21.21
  Q 13.56 20.40 13.00 19.11
  A 0.14 0.14 0.0 0 1 13.03 18.95
  Q 13.72 18.12 13.23 17.33
  Q 13.02 16.98 12.62 16.96
  L 6.54 16.64
  A 0.97 0.97 0.0 0 1 5.62 15.67
  L 5.62 15.23
  A 0.41 0.40 -0.0 0 1 6.03 14.83
  L 14.92 14.81
  Z" fill="#6e7e7d"></path>
<path d="M 23.24 15.44
  Q 23.36 16.37 22.78 17.05
  A 0.60 0.59 -30.0 0 1 21.75 16.78
  Q 21.51 15.60 22.42 15.04
  A 0.54 0.54 0.0 0 1 23.24 15.44
  Z" fill="#e9d839"></path>
<path d="M 24.30 20.79
  Q 25.55 18.80 25.95 21.11
  Q 26.08 21.83 25.37 22.09
  Q 24.99 22.23 24.75 21.91
  Q 24.13 21.07 24.30 20.79
  Z" fill="#e9d839"></path>
<path d="M 14.92 22.51
  L 16.51 25.33
  L 16.62 42.01
  A 0.86 0.86 0.0 0 1 15.93 42.85
  Q 14.18 43.19 14.24 41.60
  L 14.16 24.25
  Q 14.33 23.30 14.92 22.51
  Z" fill="#f8f6f6"></path>
<path d="M 8.65 23.06
  L 8.75 41.72
  A 1.19 1.18 83.4 0 1 7.83 42.89
  Q 7.05 43.07 6.23 42.58
  Q 6.22 33.49 6.49 24.50
  Q 6.52 23.46 6.97 23.19
  Q 7.54 22.84 8.65 23.06
  Z" fill="#f8f6f6"></path>
<path d="M 41.26 40.50
  L 41.09 41.87
  A 1.16 1.11 -19.2 0 1 40.75 42.54
  Q 40.15 43.12 39.43 42.68
  A 0.96 0.96 0.0 0 1 38.97 41.86
  L 39.08 23.41
  Q 39.80 22.46 40.77 23.24
  Q 41.15 23.56 41.16 24.05
  L 41.26 40.50
  Z" fill="#f8f6f6"></path>
<path d="M 32.53 23.14
  L 32.88 24.05
  L 32.83 42.22
  Q 32.08 43.29 31.03 42.68
  Q 30.61 42.43 30.59 41.94
  C 30.46 36.89 29.87 30.51 31.14 25.64
  Q 32.03 24.61 32.53 23.14
  Z" fill="#f8f6f6"></path>
<path d="M 32.88 24.05
  L 32.88 29.92
  A 0.71 0.71 0.0 0 0 34.03 30.48
  Q 35.39 29.43 37.12 29.65
  Q 37.79 29.73 37.79 30.41
  L 37.81 40.34
  Q 37.81 41.01 37.16 41.19
  Q 35.61 41.61 34.28 40.72
  Q 33.84 40.43 33.37 40.68
  Q 32.73 41.02 32.83 42.22
  L 32.88 24.05
  Z" fill="#91a1a3"></path>
<path d="M 14.16 24.25
  L 14.24 41.60
  L 13.86 40.93
  Q 13.62 40.49 13.22 40.78
  Q 12.03 41.66 10.64 40.73
  Q 10.26 40.48 10.25 40.01
  L 10.12 30.89
  Q 10.11 30.21 10.75 29.96
  Q 12.17 29.44 13.43 30.13
  A 0.41 0.41 0.0 0 0 14.03 29.78
  L 14.16 24.25
  Z" fill="#91a1a3"></path>
<path d="M 29.16 32.88
  Q 23.91 33.51 18.76 32.34
  Q 18.47 32.27 18.26 31.79
  Q 17.56 30.09 19.00 29.89
  Q 23.25 29.28 28.74 29.65
  Q 29.20 29.68 29.35 30.12
  Q 29.87 31.58 29.16 32.88
  Z" fill="#91a1a3"></path>
<path d="M 18.26 31.79
  Q 18.47 32.27 18.76 32.34
  Q 23.91 33.51 29.16 32.88
  L 28.93 43.38
  L 28.26 43.38
  L 27.93 35.40
  Q 27.89 34.52 27.01 34.52
  L 25.30 34.54
  Q 24.44 34.55 24.41 35.41
  L 24.16 43.34
  Q 23.65 42.86 22.91 43.49
  L 22.88 35.06
  A 0.55 0.54 -1.0 0 0 22.31 34.52
  L 20.36 34.59
  Q 19.84 34.60 19.84 35.13
  L 19.92 43.39
  L 18.14 43.44
  C 18.05 40.81 17.20 35.58 18.36 33.32
  Q 18.57 32.90 18.45 32.45
  L 18.26 31.79
  Z" fill="#b3a555"></path>
<path d="M 22.91 43.49
  L 19.92 43.39
  L 19.84 35.13
  Q 19.84 34.60 20.36 34.59
  L 22.31 34.52
  A 0.55 0.54 -1.0 0 1 22.88 35.06
  L 22.91 43.49
  Z" fill="#446677"></path>
<path d="M 28.26 43.38
  L 24.16 43.34
  L 24.41 35.41
  Q 24.44 34.55 25.30 34.54
  L 27.01 34.52
  Q 27.89 34.52 27.93 35.40
  L 28.26 43.38
  Z" fill="#446677"></path>
</svg>
