<svg viewBox="0.00 0.00 256.00 256.00" version="1.1" xmlns="http://www.w3.org/2000/svg">
<path d="M 127.50 53.01
  Q 127.48 53.35 127.25 53.48
  C 94.76 72.68 78.00 110.07 86.52 147.00
  C 91.74 169.62 106.49 190.39 127.25 201.99
  Q 127.48 202.12 127.56 202.72" stroke-linecap="butt" fill="none" stroke-width="2.00" stroke="#829471"></path>
<path d="M 127.50 53.01
  Q 127.48 53.35 127.25 53.48
  C 94.76 72.68 78.00 110.07 86.52 147.00
  C 91.74 169.62 106.49 190.39 127.25 201.99
  Q 127.48 202.12 127.56 202.72
  C 97.50 219.50 60.24 216.63 33.31 195.58
  Q 3.03 171.93 0.00 131.66
  L 0.00 123.50
  C 4.36 61.14 68.46 23.25 125.05 51.42
  Q 126.36 52.07 127.50 53.01
  Z" fill="#fa7157"></path>
<path d="M 256.00 123.37
  L 256.00 131.73
  C 252.30 195.85 185.03 233.02 128.59 202.85
  Q 127.99 202.53 127.56 202.72
  Q 127.48 202.12 127.25 201.99
  C 106.49 190.39 91.74 169.62 86.52 147.00
  C 78.00 110.07 94.76 72.68 127.25 53.48
  Q 127.48 53.35 127.50 53.01
  Q 127.92 52.98 128.29 52.78
  C 162.00 34.39 203.58 39.83 230.91 67.25
  Q 253.52 89.94 256.00 123.37
  Z" fill="#09b78b"></path>
</svg>
