<svg viewBox="0.00 0.00 320.00 320.00" version="1.1" xmlns="http://www.w3.org/2000/svg">
<g stroke-linecap="butt" fill="none" stroke-width="2.00">
<path d="M 109.54 65.47
  C 101.63 81.51 120.67 97.01 134.77 85.61
  Q 135.20 85.26 135.67 85.57
  L 180.52 114.55
  A 0.62 0.62 0.0 0 1 180.80 115.03
  L 182.13 130.98
  A 1.15 1.13 63.4 0 1 181.86 131.82
  L 175.58 139.28
  Q 175.36 139.54 175.60 139.79
  L 180.70 145.01
  Q 180.88 145.20 181.05 145.00
  Q 184.64 140.78 188.72 136.20
  Q 190.22 134.53 190.01 131.25
  Q 189.51 123.21 188.71 115.35" stroke="#a0aab0"></path>
<path d="M 188.71 115.35
  Q 189.18 110.85 187.04 109.45
  Q 164.52 94.70 141.84 80.20" stroke="#919ba1"></path>
<path d="M 141.84 80.20
  L 140.09 78.91
  Q 139.66 78.59 139.80 78.07
  Q 141.59 71.45 138.92 65.56" stroke="#a0aab0"></path>
<path d="M 138.92 65.56
  Q 131.60 52.68 118.00 57.29
  Q 112.50 59.16 109.54 65.47" stroke="#919ba1"></path>
<path d="M 138.92 65.56
  Q 136.16 63.77 133.71 61.84
  Q 131.21 59.88 129.03 59.37
  Q 122.77 57.93 116.49 60.15
  Q 114.55 60.84 109.54 65.47" stroke="#e8e8e8"></path>
<path d="M 141.84 80.20
  L 141.47 81.16
  A 1.77 1.76 30.6 0 0 141.99 83.17
  Q 148.12 88.25 155.03 92.19
  C 156.77 93.18 158.15 94.53 159.79 95.71
  Q 160.20 96.01 160.70 96.08
  Q 161.59 96.22 162.02 96.99
  A 1.88 1.82 0.5 0 0 162.76 97.72
  C 165.29 99.12 166.99 100.81 169.29 101.87
  Q 171.31 102.81 172.02 103.27
  Q 174.10 104.60 176.33 105.70
  C 177.15 106.11 177.72 106.97 178.89 107.10
  Q 179.29 107.14 179.41 107.53
  Q 179.49 107.80 179.77 107.96
  Q 182.72 109.66 185.51 111.61
  Q 186.42 112.25 188.71 115.35" stroke="#e8e8e8"></path>
<path d="M 199.91 90.32
  Q 202.08 99.39 210.97 102.51
  Q 211.49 102.70 211.50 103.25
  L 211.68 136.29" stroke="#a0aab0"></path>
<path d="M 211.68 136.29
  L 211.52 151.41
  A 1.10 1.09 -18.1 0 1 211.06 152.30
  L 196.85 162.52
  Q 196.40 162.84 195.85 162.84
  L 185.92 162.74
  Q 185.35 162.73 185.15 163.28
  Q 184.74 164.45 184.89 165.60" stroke="#919ba1"></path>
<path d="M 184.89 165.60
  L 183.31 170.14
  Q 183.12 170.68 183.69 170.68
  C 187.92 170.71 197.51 171.71 200.85 169.35
  Q 209.67 163.10 217.87 157.16
  A 3.81 3.80 -18.1 0 0 219.43 154.09
  L 219.44 103.55
  Q 219.44 102.95 220.02 102.76
  Q 230.52 99.33 232.15 88.31" stroke="#a0aab0"></path>
<path d="M 232.15 88.31
  C 232.85 78.85 226.24 70.16 216.51 69.90
  C 205.28 69.59 197.58 79.53 199.91 90.32" stroke="#919ba1"></path>
<path d="M 232.15 88.31
  L 231.63 87.89
  Q 231.22 87.58 231.12 87.08
  C 229.11 77.34 218.89 71.10 209.51 75.39
  Q 200.65 79.44 199.91 90.32" stroke="#e8e8e8"></path>
<path d="M 184.89 165.60
  Q 190.61 168.83 196.81 166.77
  Q 198.67 166.15 201.79 163.78
  Q 204.13 162.00 206.69 160.53
  C 208.41 159.55 209.36 158.29 210.75 156.97
  C 211.83 155.95 212.11 154.86 212.82 153.60
  Q 213.00 153.28 212.83 152.94
  Q 212.52 152.36 212.64 151.51
  Q 212.73 150.88 212.21 150.26
  Q 211.91 149.90 211.90 149.43
  L 211.68 136.29" stroke="#e8e8e8"></path>
<path d="M 52.15 143.99
  Q 50.08 149.68 51.99 155.26
  C 55.02 164.08 65.44 169.27 73.98 165.20
  Q 85.30 159.80 83.63 146.45
  Q 83.56 145.90 84.04 145.61
  L 128.48 119.82
  A 0.95 0.95 0.0 0 1 129.41 119.80
  L 147.06 129.41
  A 1.33 1.29 4.7 0 1 147.68 130.12
  L 150.33 137.26
  Q 150.54 137.85 151.14 137.64
  L 156.65 135.69" stroke="#a0aab0"></path>
<path d="M 156.65 135.69
  Q 157.29 135.85 157.65 135.69
  Q 158.10 135.49 157.93 135.02
  L 154.62 125.92
  A 5.13 5.10 -86.1 0 0 152.23 123.16
  L 130.45 111.41
  A 3.41 3.40 -45.7 0 0 127.15 111.46
  L 80.47 138.53
  A 0.78 0.77 53.4 0 1 79.50 138.38
  C 70.97 129.13 56.56 132.41 52.15 143.99" stroke="#919ba1"></path>
<path d="M 156.65 135.69
  C 155.11 131.22 152.89 127.48 148.46 125.29
  Q 141.76 121.99 135.45 117.99
  C 132.36 116.04 128.20 115.07 124.89 116.77
  Q 120.88 118.83 120.85 118.84
  C 118.46 119.91 116.45 121.68 114.27 122.83
  Q 111.82 124.13 109.58 125.77
  Q 109.44 125.87 109.27 125.87
  Q 109.14 125.87 109.01 125.87
  Q 108.77 125.88 108.57 126.01
  Q 104.31 128.81 99.94 131.43
  C 99.04 131.97 97.87 132.09 96.98 132.97
  Q 96.59 133.37 96.04 133.37
  L 95.51 133.37
  Q 95.08 133.37 94.70 133.57
  Q 91.16 135.40 87.63 137.31
  C 86.74 137.80 85.84 137.64 85.17 138.85
  Q 84.96 139.23 84.55 139.40
  Q 81.80 140.47 78.99 139.84
  Q 78.48 139.73 78.12 139.35
  Q 77.79 139.00 77.29 139.12
  A 0.75 0.74 65.1 0 1 76.49 138.82
  C 74.58 136.06 72.36 136.81 69.84 136.39
  C 64.40 135.46 61.57 136.98 57.48 139.15
  Q 56.04 139.90 54.72 141.40
  Q 53.53 142.75 52.15 143.99" stroke="#e8e8e8"></path>
<path d="M 101.02 169.65
  L 100.99 220.26" stroke="#a0aab0"></path>
<path d="M 100.99 220.26
  Q 87.47 224.53 87.82 238.53" stroke="#919ba1"></path>
<path d="M 87.82 238.53
  C 90.42 258.92 118.97 258.39 120.46 238.16
  C 121.05 230.26 116.70 224.27 109.37 221.03
  Q 108.89 220.82 108.89 220.29
  L 108.95 167.46
  A 1.10 1.06 72.2 0 1 109.38 166.59
  L 122.26 157.03
  Q 122.70 156.70 123.25 156.70
  L 137.25 156.69
  Q 137.68 156.69 137.76 156.26
  L 138.24 153.67" stroke="#a0aab0"></path>
<path d="M 138.24 153.67
  L 139.71 149.43
  Q 139.93 148.81 139.27 148.81
  L 121.02 148.83
  A 3.12 3.09 -63.2 0 0 119.16 149.45
  Q 110.94 155.54 102.60 161.86
  C 100.33 163.59 100.96 167.11 101.02 169.65" stroke="#919ba1"></path>
<path d="M 138.24 153.67
  Q 130.02 152.92 121.86 153.75
  C 120.52 153.89 120.07 154.67 118.61 154.67
  A 1.74 1.68 26.3 0 0 117.67 154.97
  Q 114.98 156.85 106.73 162.99
  Q 102.88 165.85 101.02 169.65" stroke="#e8e8e8"></path>
<path d="M 87.82 238.53
  C 89.17 235.66 89.70 232.79 92.07 230.18
  C 93.89 228.17 96.60 226.47 98.89 224.66
  Q 100.57 223.33 100.99 220.26" stroke="#e8e8e8"></path>
<path d="M 237.95 167.57
  Q 235.79 172.11 236.14 177.26" stroke="#a0aab0"></path>
<path d="M 236.14 177.26
  L 191.96 201.14
  A 1.75 1.75 0.0 0 1 190.33 201.16
  L 176.56 194.10
  A 1.51 1.48 2.6 0 1 175.86 193.35
  L 173.38 187.51" stroke="#919ba1"></path>
<path d="M 173.38 187.51
  L 171.86 183.52
  Q 171.46 182.48 170.38 182.76
  L 164.52 184.33
  Q 163.50 184.60 163.92 185.56
  L 169.41 198.31
  A 3.95 3.92 -88.1 0 0 171.24 200.28
  L 189.25 209.50
  A 4.29 4.28 -45.6 0 0 193.25 209.45
  L 238.49 185.01
  Q 238.89 184.79 239.16 185.16
  C 245.61 194.25 258.57 194.52 265.45 185.56
  Q 271.50 177.67 267.00 167.67" stroke="#a0aab0"></path>
<path d="M 267.00 167.67
  C 260.35 155.44 245.12 156.07 237.95 167.57" stroke="#919ba1"></path>
<path d="M 267.00 167.67
  Q 263.61 165.56 260.54 163.49
  C 258.71 162.26 256.81 162.32 254.75 161.66
  Q 252.86 161.05 247.44 162.05
  Q 246.95 162.14 246.58 162.47
  Q 245.36 163.53 243.76 163.89
  A 1.17 1.17 0.0 0 0 242.97 164.53
  Q 242.65 165.23 241.87 165.37
  Q 241.35 165.47 241.02 165.88
  Q 239.80 167.39 237.95 167.57" stroke="#e8e8e8"></path>
<path d="M 173.38 187.51
  C 171.94 189.72 174.24 191.67 174.82 193.95
  Q 175.27 195.71 176.21 196.67
  Q 178.53 199.04 181.60 200.45
  Q 184.55 201.81 187.50 203.17
  C 192.00 205.24 196.01 202.70 200.14 200.08
  Q 200.53 199.84 200.99 199.87
  Q 201.75 199.92 202.16 199.35
  Q 202.48 198.89 202.97 198.62
  L 210.68 194.36
  Q 211.02 194.17 211.41 194.13
  Q 211.70 194.10 211.97 193.95
  Q 216.68 191.36 221.28 188.60
  Q 224.34 186.76 227.65 185.37
  Q 228.44 185.04 231.49 183.36
  Q 234.80 181.52 236.14 177.26" stroke="#e8e8e8"></path>
<path d="M 211.60 242.56
  C 207.82 230.84 193.99 226.45 184.91 234.77
  A 1.03 1.03 0.0 0 1 183.68 234.89
  L 144.23 210.85" stroke="#919ba1"></path>
<path d="M 144.23 210.85
  L 142.39 209.67
  Q 141.89 209.36 141.90 208.78
  L 141.92 188.85
  Q 141.92 188.31 142.26 187.90
  L 148.04 180.72
  Q 148.18 180.54 148.02 180.39
  L 142.55 175.19
  Q 142.36 175.01 142.20 175.22
  L 134.53 185.02
  A 2.41 2.39 64.2 0 0 134.02 186.50
  L 134.00 211.69
  A 3.73 3.71 15.8 0 0 135.78 214.86
  L 179.62 241.63
  Q 180.07 241.90 179.97 242.42
  Q 177.71 253.86 185.63 260.23
  C 190.60 264.22 197.76 265.27 203.34 262.14
  Q 214.45 255.89 211.60 242.56" stroke="#a0aab0"></path>
<path d="M 144.23 210.85
  Q 144.23 213.43 147.14 214.86
  C 149.45 215.99 150.85 217.34 152.92 218.40
  Q 153.97 218.93 154.95 219.58
  Q 156.47 220.58 157.99 221.32
  Q 160.74 222.66 163.12 224.65
  Q 163.26 224.77 163.41 224.81
  Q 163.61 224.86 163.81 224.89
  Q 164.29 224.95 164.70 225.21
  Q 169.13 228.11 173.48 231.16
  Q 174.31 231.74 176.29 232.58
  Q 177.43 233.07 178.98 234.12
  Q 184.60 237.93 190.65 233.75
  Q 191.23 233.34 191.95 233.28
  Q 194.67 233.03 198.16 233.09
  C 200.78 233.13 202.37 234.36 204.43 235.74
  Q 204.81 235.99 204.99 236.41
  Q 205.20 236.91 205.85 237.15
  Q 206.24 237.29 206.55 237.59
  L 211.60 242.56" stroke="#e8e8e8"></path>
<path d="M 116.45 77.05
  Q 116.84 82.65 121.77 84.40
  C 125.81 85.84 131.45 83.12 131.03 78.31" stroke="#e8e8e8"></path>
<path d="M 131.03 78.31
  C 135.73 70.00 127.86 59.61 119.40 65.60
  Q 114.05 69.39 116.45 77.05" stroke="#a0aab0"></path>
<path d="M 131.03 78.31
  Q 123.21 85.84 116.45 77.05" stroke="#919ba1"></path>
<path d="M 215.9946 95.4087
  A 8.86 8.50 89.0 0 0 224.3387 86.4017
  A 8.86 8.50 89.0 0 0 215.6854 77.6913
  A 8.86 8.50 89.0 0 0 207.3413 86.6983
  A 8.86 8.50 89.0 0 0 215.9946 95.4087" stroke="#a0aab0"></path>
<path d="M 60.75 155.30
  Q 60.84 156.51 61.25 157.68
  C 61.89 159.51 65.06 161.22 66.90 161.14
  Q 72.80 160.90 73.81 156.00" stroke="#e8e8e8"></path>
<path d="M 73.81 156.00
  Q 77.37 151.07 75.45 146.53
  C 70.35 134.47 53.43 143.89 60.75 155.30" stroke="#a0aab0"></path>
<path d="M 73.81 156.00
  Q 66.65 161.65 60.75 155.30" stroke="#919ba1"></path>
<path d="M 95.66 237.80
  Q 95.78 239.23 95.05 240.49
  Q 94.83 240.88 95.01 241.29
  Q 95.53 242.46 95.65 243.72
  Q 95.69 244.15 96.00 244.44
  Q 97.00 245.39 97.45 246.69
  Q 97.62 247.21 98.10 247.48
  C 99.57 248.31 100.60 249.24 102.22 249.54
  C 105.73 250.20 109.64 248.90 111.21 245.47
  Q 111.69 244.43 112.17 243.44
  Q 113.19 241.32 112.16 240.18" stroke="#e8e8e8"></path>
<path d="M 112.16 240.18
  C 116.12 226.01 95.18 223.53 95.66 237.80" stroke="#a0aab0"></path>
<path d="M 112.16 240.18
  C 108.33 248.82 96.82 247.01 95.66 237.80" stroke="#919ba1"></path>
<path d="M 244.20 177.90
  Q 243.31 182.27 246.00 185.79
  C 246.70 186.70 247.51 186.92 248.44 187.55
  Q 249.54 188.30 250.47 188.47
  Q 255.38 189.40 258.86 185.97
  C 259.51 185.33 259.78 184.07 260.23 183.23
  C 261.22 181.37 261.32 179.82 260.67 177.96" stroke="#e8e8e8"></path>
<path d="M 260.67 177.96
  C 264.26 163.71 241.50 162.35 244.20 177.90" stroke="#a0aab0"></path>
<path d="M 260.67 177.96
  C 257.82 186.47 247.66 186.25 244.20 177.90" stroke="#919ba1"></path>
<path d="M 195.7216 256.0993
  A 8.87 8.50 90.7 0 0 204.3294 247.3338
  A 8.87 8.50 90.7 0 0 195.9384 238.3607
  A 8.87 8.50 90.7 0 0 187.3306 247.1262
  A 8.87 8.50 90.7 0 0 195.7216 256.0993" stroke="#a0aab0"></path>
</g>
<path d="M 56.39 0.00
  L 263.73 0.00
  C 294.60 2.88 317.48 25.54 320.00 56.39
  L 320.00 263.74
  C 317.06 294.59 294.47 317.49 263.61 320.00
  L 56.26 320.00
  C 25.41 317.05 2.53 294.47 0.00 263.61
  L 0.00 56.26
  C 2.62 25.40 25.50 2.86 56.39 0.00
  Z
  M 109.54 65.47
  C 101.63 81.51 120.67 97.01 134.77 85.61
  Q 135.20 85.26 135.67 85.57
  L 180.52 114.55
  A 0.62 0.62 0.0 0 1 180.80 115.03
  L 182.13 130.98
  A 1.15 1.13 63.4 0 1 181.86 131.82
  L 175.58 139.28
  Q 175.36 139.54 175.60 139.79
  L 180.70 145.01
  Q 180.88 145.20 181.05 145.00
  Q 184.64 140.78 188.72 136.20
  Q 190.22 134.53 190.01 131.25
  Q 189.51 123.21 188.71 115.35
  Q 189.18 110.85 187.04 109.45
  Q 164.52 94.70 141.84 80.20
  L 140.09 78.91
  Q 139.66 78.59 139.80 78.07
  Q 141.59 71.45 138.92 65.56
  Q 131.60 52.68 118.00 57.29
  Q 112.50 59.16 109.54 65.47
  Z
  M 199.91 90.32
  Q 202.08 99.39 210.97 102.51
  Q 211.49 102.70 211.50 103.25
  L 211.68 136.29
  L 211.52 151.41
  A 1.10 1.09 -18.1 0 1 211.06 152.30
  L 196.85 162.52
  Q 196.40 162.84 195.85 162.84
  L 185.92 162.74
  Q 185.35 162.73 185.15 163.28
  Q 184.74 164.45 184.89 165.60
  L 183.31 170.14
  Q 183.12 170.68 183.69 170.68
  C 187.92 170.71 197.51 171.71 200.85 169.35
  Q 209.67 163.10 217.87 157.16
  A 3.81 3.80 -18.1 0 0 219.43 154.09
  L 219.44 103.55
  Q 219.44 102.95 220.02 102.76
  Q 230.52 99.33 232.15 88.31
  C 232.85 78.85 226.24 70.16 216.51 69.90
  C 205.28 69.59 197.58 79.53 199.91 90.32
  Z
  M 52.15 143.99
  Q 50.08 149.68 51.99 155.26
  C 55.02 164.08 65.44 169.27 73.98 165.20
  Q 85.30 159.80 83.63 146.45
  Q 83.56 145.90 84.04 145.61
  L 128.48 119.82
  A 0.95 0.95 0.0 0 1 129.41 119.80
  L 147.06 129.41
  A 1.33 1.29 4.7 0 1 147.68 130.12
  L 150.33 137.26
  Q 150.54 137.85 151.14 137.64
  L 156.65 135.69
  Q 157.29 135.85 157.65 135.69
  Q 158.10 135.49 157.93 135.02
  L 154.62 125.92
  A 5.13 5.10 -86.1 0 0 152.23 123.16
  L 130.45 111.41
  A 3.41 3.40 -45.7 0 0 127.15 111.46
  L 80.47 138.53
  A 0.78 0.77 53.4 0 1 79.50 138.38
  C 70.97 129.13 56.56 132.41 52.15 143.99
  Z
  M 101.02 169.65
  L 100.99 220.26
  Q 87.47 224.53 87.82 238.53
  C 90.42 258.92 118.97 258.39 120.46 238.16
  C 121.05 230.26 116.70 224.27 109.37 221.03
  Q 108.89 220.82 108.89 220.29
  L 108.95 167.46
  A 1.10 1.06 72.2 0 1 109.38 166.59
  L 122.26 157.03
  Q 122.70 156.70 123.25 156.70
  L 137.25 156.69
  Q 137.68 156.69 137.76 156.26
  L 138.24 153.67
  L 139.71 149.43
  Q 139.93 148.81 139.27 148.81
  L 121.02 148.83
  A 3.12 3.09 -63.2 0 0 119.16 149.45
  Q 110.94 155.54 102.60 161.86
  C 100.33 163.59 100.96 167.11 101.02 169.65
  Z
  M 237.95 167.57
  Q 235.79 172.11 236.14 177.26
  L 191.96 201.14
  A 1.75 1.75 0.0 0 1 190.33 201.16
  L 176.56 194.10
  A 1.51 1.48 2.6 0 1 175.86 193.35
  L 173.38 187.51
  L 171.86 183.52
  Q 171.46 182.48 170.38 182.76
  L 164.52 184.33
  Q 163.50 184.60 163.92 185.56
  L 169.41 198.31
  A 3.95 3.92 -88.1 0 0 171.24 200.28
  L 189.25 209.50
  A 4.29 4.28 -45.6 0 0 193.25 209.45
  L 238.49 185.01
  Q 238.89 184.79 239.16 185.16
  C 245.61 194.25 258.57 194.52 265.45 185.56
  Q 271.50 177.67 267.00 167.67
  C 260.35 155.44 245.12 156.07 237.95 167.57
  Z
  M 211.60 242.56
  C 207.82 230.84 193.99 226.45 184.91 234.77
  A 1.03 1.03 0.0 0 1 183.68 234.89
  L 144.23 210.85
  L 142.39 209.67
  Q 141.89 209.36 141.90 208.78
  L 141.92 188.85
  Q 141.92 188.31 142.26 187.90
  L 148.04 180.72
  Q 148.18 180.54 148.02 180.39
  L 142.55 175.19
  Q 142.36 175.01 142.20 175.22
  L 134.53 185.02
  A 2.41 2.39 64.2 0 0 134.02 186.50
  L 134.00 211.69
  A 3.73 3.71 15.8 0 0 135.78 214.86
  L 179.62 241.63
  Q 180.07 241.90 179.97 242.42
  Q 177.71 253.86 185.63 260.23
  C 190.60 264.22 197.76 265.27 203.34 262.14
  Q 214.45 255.89 211.60 242.56
  Z" fill="#495d68"></path>
<path d="M 138.92 65.56
  Q 136.16 63.77 133.71 61.84
  Q 131.21 59.88 129.03 59.37
  Q 122.77 57.93 116.49 60.15
  Q 114.55 60.84 109.54 65.47
  Q 112.50 59.16 118.00 57.29
  Q 131.60 52.68 138.92 65.56
  Z" fill="#d9d9d9"></path>
<path d="M 138.92 65.56
  Q 141.59 71.45 139.80 78.07
  Q 139.66 78.59 140.09 78.91
  L 141.84 80.20
  L 141.47 81.16
  A 1.77 1.76 30.6 0 0 141.99 83.17
  Q 148.12 88.25 155.03 92.19
  C 156.77 93.18 158.15 94.53 159.79 95.71
  Q 160.20 96.01 160.70 96.08
  Q 161.59 96.22 162.02 96.99
  A 1.88 1.82 0.5 0 0 162.76 97.72
  C 165.29 99.12 166.99 100.81 169.29 101.87
  Q 171.31 102.81 172.02 103.27
  Q 174.10 104.60 176.33 105.70
  C 177.15 106.11 177.72 106.97 178.89 107.10
  Q 179.29 107.14 179.41 107.53
  Q 179.49 107.80 179.77 107.96
  Q 182.72 109.66 185.51 111.61
  Q 186.42 112.25 188.71 115.35
  Q 189.51 123.21 190.01 131.25
  Q 190.22 134.53 188.72 136.20
  Q 184.64 140.78 181.05 145.00
  Q 180.88 145.20 180.70 145.01
  L 175.60 139.79
  Q 175.36 139.54 175.58 139.28
  L 181.86 131.82
  A 1.15 1.13 63.4 0 0 182.13 130.98
  L 180.80 115.03
  A 0.62 0.62 0.0 0 0 180.52 114.55
  L 135.67 85.57
  Q 135.20 85.26 134.77 85.61
  C 120.67 97.01 101.63 81.51 109.54 65.47
  Q 114.55 60.84 116.49 60.15
  Q 122.77 57.93 129.03 59.37
  Q 131.21 59.88 133.71 61.84
  Q 136.16 63.77 138.92 65.56
  Z
  M 116.45 77.05
  Q 116.84 82.65 121.77 84.40
  C 125.81 85.84 131.45 83.12 131.03 78.31
  C 135.73 70.00 127.86 59.61 119.40 65.60
  Q 114.05 69.39 116.45 77.05
  Z" fill="#f7f7f7"></path>
<path d="M 131.03 78.31
  Q 123.21 85.84 116.45 77.05
  Q 114.05 69.39 119.40 65.60
  C 127.86 59.61 135.73 70.00 131.03 78.31
  Z" fill="#495d68"></path>
<path d="M 232.15 88.31
  L 231.63 87.89
  Q 231.22 87.58 231.12 87.08
  C 229.11 77.34 218.89 71.10 209.51 75.39
  Q 200.65 79.44 199.91 90.32
  C 197.58 79.53 205.28 69.59 216.51 69.90
  C 226.24 70.16 232.85 78.85 232.15 88.31
  Z" fill="#d9d9d9"></path>
<path d="M 232.15 88.31
  Q 230.52 99.33 220.02 102.76
  Q 219.44 102.95 219.44 103.55
  L 219.43 154.09
  A 3.81 3.80 -18.1 0 1 217.87 157.16
  Q 209.67 163.10 200.85 169.35
  C 197.51 171.71 187.92 170.71 183.69 170.68
  Q 183.12 170.68 183.31 170.14
  L 184.89 165.60
  Q 190.61 168.83 196.81 166.77
  Q 198.67 166.15 201.79 163.78
  Q 204.13 162.00 206.69 160.53
  C 208.41 159.55 209.36 158.29 210.75 156.97
  C 211.83 155.95 212.11 154.86 212.82 153.60
  Q 213.00 153.28 212.83 152.94
  Q 212.52 152.36 212.64 151.51
  Q 212.73 150.88 212.21 150.26
  Q 211.91 149.90 211.90 149.43
  L 211.68 136.29
  L 211.50 103.25
  Q 211.49 102.70 210.97 102.51
  Q 202.08 99.39 199.91 90.32
  Q 200.65 79.44 209.51 75.39
  C 218.89 71.10 229.11 77.34 231.12 87.08
  Q 231.22 87.58 231.63 87.89
  L 232.15 88.31
  Z
  M 215.9946 95.4087
  A 8.86 8.50 89.0 0 0 224.3387 86.4017
  A 8.86 8.50 89.0 0 0 215.6854 77.6913
  A 8.86 8.50 89.0 0 0 207.3413 86.6983
  A 8.86 8.50 89.0 0 0 215.9946 95.4087
  Z" fill="#f7f7f7"></path>
<path d="M 116.45 77.05
  Q 123.21 85.84 131.03 78.31
  C 131.45 83.12 125.81 85.84 121.77 84.40
  Q 116.84 82.65 116.45 77.05
  Z" fill="#d9d9d9"></path>
<ellipse ry="8.50" rx="8.86" transform="translate(215.84,86.55) rotate(89.0)" cy="0.00" cx="0.00" fill="#495d68"></ellipse>
<path d="M 141.84 80.20
  Q 164.52 94.70 187.04 109.45
  Q 189.18 110.85 188.71 115.35
  Q 186.42 112.25 185.51 111.61
  Q 182.72 109.66 179.77 107.96
  Q 179.49 107.80 179.41 107.53
  Q 179.29 107.14 178.89 107.10
  C 177.72 106.97 177.15 106.11 176.33 105.70
  Q 174.10 104.60 172.02 103.27
  Q 171.31 102.81 169.29 101.87
  C 166.99 100.81 165.29 99.12 162.76 97.72
  A 1.88 1.82 0.5 0 1 162.02 96.99
  Q 161.59 96.22 160.70 96.08
  Q 160.20 96.01 159.79 95.71
  C 158.15 94.53 156.77 93.18 155.03 92.19
  Q 148.12 88.25 141.99 83.17
  A 1.77 1.76 30.6 0 1 141.47 81.16
  L 141.84 80.20
  Z" fill="#d9d9d9"></path>
<path d="M 156.65 135.69
  C 155.11 131.22 152.89 127.48 148.46 125.29
  Q 141.76 121.99 135.45 117.99
  C 132.36 116.04 128.20 115.07 124.89 116.77
  Q 120.88 118.83 120.85 118.84
  C 118.46 119.91 116.45 121.68 114.27 122.83
  Q 111.82 124.13 109.58 125.77
  Q 109.44 125.87 109.27 125.87
  Q 109.14 125.87 109.01 125.87
  Q 108.77 125.88 108.57 126.01
  Q 104.31 128.81 99.94 131.43
  C 99.04 131.97 97.87 132.09 96.98 132.97
  Q 96.59 133.37 96.04 133.37
  L 95.51 133.37
  Q 95.08 133.37 94.70 133.57
  Q 91.16 135.40 87.63 137.31
  C 86.74 137.80 85.84 137.64 85.17 138.85
  Q 84.96 139.23 84.55 139.40
  Q 81.80 140.47 78.99 139.84
  Q 78.48 139.73 78.12 139.35
  Q 77.79 139.00 77.29 139.12
  A 0.75 0.74 65.1 0 1 76.49 138.82
  C 74.58 136.06 72.36 136.81 69.84 136.39
  C 64.40 135.46 61.57 136.98 57.48 139.15
  Q 56.04 139.90 54.72 141.40
  Q 53.53 142.75 52.15 143.99
  C 56.56 132.41 70.97 129.13 79.50 138.38
  A 0.78 0.77 53.4 0 0 80.47 138.53
  L 127.15 111.46
  A 3.41 3.40 -45.7 0 1 130.45 111.41
  L 152.23 123.16
  A 5.13 5.10 -86.1 0 1 154.62 125.92
  L 157.93 135.02
  Q 158.10 135.49 157.65 135.69
  Q 157.29 135.85 156.65 135.69
  Z" fill="#d9d9d9"></path>
<path d="M 156.65 135.69
  L 151.14 137.64
  Q 150.54 137.85 150.33 137.26
  L 147.68 130.12
  A 1.33 1.29 4.7 0 0 147.06 129.41
  L 129.41 119.80
  A 0.95 0.95 0.0 0 0 128.48 119.82
  L 84.04 145.61
  Q 83.56 145.90 83.63 146.45
  Q 85.30 159.80 73.98 165.20
  C 65.44 169.27 55.02 164.08 51.99 155.26
  Q 50.08 149.68 52.15 143.99
  Q 53.53 142.75 54.72 141.40
  Q 56.04 139.90 57.48 139.15
  C 61.57 136.98 64.40 135.46 69.84 136.39
  C 72.36 136.81 74.58 136.06 76.49 138.82
  A 0.75 0.74 65.1 0 0 77.29 139.12
  Q 77.79 139.00 78.12 139.35
  Q 78.48 139.73 78.99 139.84
  Q 81.80 140.47 84.55 139.40
  Q 84.96 139.23 85.17 138.85
  C 85.84 137.64 86.74 137.80 87.63 137.31
  Q 91.16 135.40 94.70 133.57
  Q 95.08 133.37 95.51 133.37
  L 96.04 133.37
  Q 96.59 133.37 96.98 132.97
  C 97.87 132.09 99.04 131.97 99.94 131.43
  Q 104.31 128.81 108.57 126.01
  Q 108.77 125.88 109.01 125.87
  Q 109.14 125.87 109.27 125.87
  Q 109.44 125.87 109.58 125.77
  Q 111.82 124.13 114.27 122.83
  C 116.45 121.68 118.46 119.91 120.85 118.84
  Q 120.88 118.83 124.89 116.77
  C 128.20 115.07 132.36 116.04 135.45 117.99
  Q 141.76 121.99 148.46 125.29
  C 152.89 127.48 155.11 131.22 156.65 135.69
  Z
  M 60.75 155.30
  Q 60.84 156.51 61.25 157.68
  C 61.89 159.51 65.06 161.22 66.90 161.14
  Q 72.80 160.90 73.81 156.00
  Q 77.37 151.07 75.45 146.53
  C 70.35 134.47 53.43 143.89 60.75 155.30
  Z" fill="#f7f7f7"></path>
<path d="M 211.68 136.29
  L 211.90 149.43
  Q 211.91 149.90 212.21 150.26
  Q 212.73 150.88 212.64 151.51
  Q 212.52 152.36 212.83 152.94
  Q 213.00 153.28 212.82 153.60
  C 212.11 154.86 211.83 155.95 210.75 156.97
  C 209.36 158.29 208.41 159.55 206.69 160.53
  Q 204.13 162.00 201.79 163.78
  Q 198.67 166.15 196.81 166.77
  Q 190.61 168.83 184.89 165.60
  Q 184.74 164.45 185.15 163.28
  Q 185.35 162.73 185.92 162.74
  L 195.85 162.84
  Q 196.40 162.84 196.85 162.52
  L 211.06 152.30
  A 1.10 1.09 -18.1 0 0 211.52 151.41
  L 211.68 136.29
  Z" fill="#d9d9d9"></path>
<path d="M 73.81 156.00
  Q 66.65 161.65 60.75 155.30
  C 53.43 143.89 70.35 134.47 75.45 146.53
  Q 77.37 151.07 73.81 156.00
  Z" fill="#495d68"></path>
<path d="M 138.24 153.67
  Q 130.02 152.92 121.86 153.75
  C 120.52 153.89 120.07 154.67 118.61 154.67
  A 1.74 1.68 26.3 0 0 117.67 154.97
  Q 114.98 156.85 106.73 162.99
  Q 102.88 165.85 101.02 169.65
  C 100.96 167.11 100.33 163.59 102.60 161.86
  Q 110.94 155.54 119.16 149.45
  A 3.12 3.09 -63.2 0 1 121.02 148.83
  L 139.27 148.81
  Q 139.93 148.81 139.71 149.43
  L 138.24 153.67
  Z" fill="#d9d9d9"></path>
<path d="M 138.24 153.67
  L 137.76 156.26
  Q 137.68 156.69 137.25 156.69
  L 123.25 156.70
  Q 122.70 156.70 122.26 157.03
  L 109.38 166.59
  A 1.10 1.06 72.2 0 0 108.95 167.46
  L 108.89 220.29
  Q 108.89 220.82 109.37 221.03
  C 116.70 224.27 121.05 230.26 120.46 238.16
  C 118.97 258.39 90.42 258.92 87.82 238.53
  C 89.17 235.66 89.70 232.79 92.07 230.18
  C 93.89 228.17 96.60 226.47 98.89 224.66
  Q 100.57 223.33 100.99 220.26
  L 101.02 169.65
  Q 102.88 165.85 106.73 162.99
  Q 114.98 156.85 117.67 154.97
  A 1.74 1.68 26.3 0 1 118.61 154.67
  C 120.07 154.67 120.52 153.89 121.86 153.75
  Q 130.02 152.92 138.24 153.67
  Z
  M 95.66 237.80
  Q 95.78 239.23 95.05 240.49
  Q 94.83 240.88 95.01 241.29
  Q 95.53 242.46 95.65 243.72
  Q 95.69 244.15 96.00 244.44
  Q 97.00 245.39 97.45 246.69
  Q 97.62 247.21 98.10 247.48
  C 99.57 248.31 100.60 249.24 102.22 249.54
  C 105.73 250.20 109.64 248.90 111.21 245.47
  Q 111.69 244.43 112.17 243.44
  Q 113.19 241.32 112.16 240.18
  C 116.12 226.01 95.18 223.53 95.66 237.80
  Z" fill="#f7f7f7"></path>
<path d="M 60.75 155.30
  Q 66.65 161.65 73.81 156.00
  Q 72.80 160.90 66.90 161.14
  C 65.06 161.22 61.89 159.51 61.25 157.68
  Q 60.84 156.51 60.75 155.30
  Z" fill="#d9d9d9"></path>
<path d="M 267.00 167.67
  Q 263.61 165.56 260.54 163.49
  C 258.71 162.26 256.81 162.32 254.75 161.66
  Q 252.86 161.05 247.44 162.05
  Q 246.95 162.14 246.58 162.47
  Q 245.36 163.53 243.76 163.89
  A 1.17 1.17 0.0 0 0 242.97 164.53
  Q 242.65 165.23 241.87 165.37
  Q 241.35 165.47 241.02 165.88
  Q 239.80 167.39 237.95 167.57
  C 245.12 156.07 260.35 155.44 267.00 167.67
  Z" fill="#d9d9d9"></path>
<path d="M 267.00 167.67
  Q 271.50 177.67 265.45 185.56
  C 258.57 194.52 245.61 194.25 239.16 185.16
  Q 238.89 184.79 238.49 185.01
  L 193.25 209.45
  A 4.29 4.28 -45.6 0 1 189.25 209.50
  L 171.24 200.28
  A 3.95 3.92 -88.1 0 1 169.41 198.31
  L 163.92 185.56
  Q 163.50 184.60 164.52 184.33
  L 170.38 182.76
  Q 171.46 182.48 171.86 183.52
  L 173.38 187.51
  C 171.94 189.72 174.24 191.67 174.82 193.95
  Q 175.27 195.71 176.21 196.67
  Q 178.53 199.04 181.60 200.45
  Q 184.55 201.81 187.50 203.17
  C 192.00 205.24 196.01 202.70 200.14 200.08
  Q 200.53 199.84 200.99 199.87
  Q 201.75 199.92 202.16 199.35
  Q 202.48 198.89 202.97 198.62
  L 210.68 194.36
  Q 211.02 194.17 211.41 194.13
  Q 211.70 194.10 211.97 193.95
  Q 216.68 191.36 221.28 188.60
  Q 224.34 186.76 227.65 185.37
  Q 228.44 185.04 231.49 183.36
  Q 234.80 181.52 236.14 177.26
  Q 235.79 172.11 237.95 167.57
  Q 239.80 167.39 241.02 165.88
  Q 241.35 165.47 241.87 165.37
  Q 242.65 165.23 242.97 164.53
  A 1.17 1.17 0.0 0 1 243.76 163.89
  Q 245.36 163.53 246.58 162.47
  Q 246.95 162.14 247.44 162.05
  Q 252.86 161.05 254.75 161.66
  C 256.81 162.32 258.71 162.26 260.54 163.49
  Q 263.61 165.56 267.00 167.67
  Z
  M 244.20 177.90
  Q 243.31 182.27 246.00 185.79
  C 246.70 186.70 247.51 186.92 248.44 187.55
  Q 249.54 188.30 250.47 188.47
  Q 255.38 189.40 258.86 185.97
  C 259.51 185.33 259.78 184.07 260.23 183.23
  C 261.22 181.37 261.32 179.82 260.67 177.96
  C 264.26 163.71 241.50 162.35 244.20 177.90
  Z" fill="#f7f7f7"></path>
<path d="M 260.67 177.96
  C 257.82 186.47 247.66 186.25 244.20 177.90
  C 241.50 162.35 264.26 163.71 260.67 177.96
  Z" fill="#495d68"></path>
<path d="M 144.23 210.85
  Q 144.23 213.43 147.14 214.86
  C 149.45 215.99 150.85 217.34 152.92 218.40
  Q 153.97 218.93 154.95 219.58
  Q 156.47 220.58 157.99 221.32
  Q 160.74 222.66 163.12 224.65
  Q 163.26 224.77 163.41 224.81
  Q 163.61 224.86 163.81 224.89
  Q 164.29 224.95 164.70 225.21
  Q 169.13 228.11 173.48 231.16
  Q 174.31 231.74 176.29 232.58
  Q 177.43 233.07 178.98 234.12
  Q 184.60 237.93 190.65 233.75
  Q 191.23 233.34 191.95 233.28
  Q 194.67 233.03 198.16 233.09
  C 200.78 233.13 202.37 234.36 204.43 235.74
  Q 204.81 235.99 204.99 236.41
  Q 205.20 236.91 205.85 237.15
  Q 206.24 237.29 206.55 237.59
  L 211.60 242.56
  Q 214.45 255.89 203.34 262.14
  C 197.76 265.27 190.60 264.22 185.63 260.23
  Q 177.71 253.86 179.97 242.42
  Q 180.07 241.90 179.62 241.63
  L 135.78 214.86
  A 3.73 3.71 15.8 0 1 134.00 211.69
  L 134.02 186.50
  A 2.41 2.39 64.2 0 1 134.53 185.02
  L 142.20 175.22
  Q 142.36 175.01 142.55 175.19
  L 148.02 180.39
  Q 148.18 180.54 148.04 180.72
  L 142.26 187.90
  Q 141.92 188.31 141.92 188.85
  L 141.90 208.78
  Q 141.89 209.36 142.39 209.67
  L 144.23 210.85
  Z
  M 195.7216 256.0993
  A 8.87 8.50 90.7 0 0 204.3294 247.3338
  A 8.87 8.50 90.7 0 0 195.9384 238.3607
  A 8.87 8.50 90.7 0 0 187.3306 247.1262
  A 8.87 8.50 90.7 0 0 195.7216 256.0993
  Z" fill="#f7f7f7"></path>
<path d="M 236.14 177.26
  Q 234.80 181.52 231.49 183.36
  Q 228.44 185.04 227.65 185.37
  Q 224.34 186.76 221.28 188.60
  Q 216.68 191.36 211.97 193.95
  Q 211.70 194.10 211.41 194.13
  Q 211.02 194.17 210.68 194.36
  L 202.97 198.62
  Q 202.48 198.89 202.16 199.35
  Q 201.75 199.92 200.99 199.87
  Q 200.53 199.84 200.14 200.08
  C 196.01 202.70 192.00 205.24 187.50 203.17
  Q 184.55 201.81 181.60 200.45
  Q 178.53 199.04 176.21 196.67
  Q 175.27 195.71 174.82 193.95
  C 174.24 191.67 171.94 189.72 173.38 187.51
  L 175.86 193.35
  A 1.51 1.48 2.6 0 0 176.56 194.10
  L 190.33 201.16
  A 1.75 1.75 0.0 0 0 191.96 201.14
  L 236.14 177.26
  Z" fill="#d9d9d9"></path>
<path d="M 244.20 177.90
  C 247.66 186.25 257.82 186.47 260.67 177.96
  C 261.32 179.82 261.22 181.37 260.23 183.23
  C 259.78 184.07 259.51 185.33 258.86 185.97
  Q 255.38 189.40 250.47 188.47
  Q 249.54 188.30 248.44 187.55
  C 247.51 186.92 246.70 186.70 246.00 185.79
  Q 243.31 182.27 244.20 177.90
  Z" fill="#d9d9d9"></path>
<path d="M 144.23 210.85
  L 183.68 234.89
  A 1.03 1.03 0.0 0 0 184.91 234.77
  C 193.99 226.45 207.82 230.84 211.60 242.56
  L 206.55 237.59
  Q 206.24 237.29 205.85 237.15
  Q 205.20 236.91 204.99 236.41
  Q 204.81 235.99 204.43 235.74
  C 202.37 234.36 200.78 233.13 198.16 233.09
  Q 194.67 233.03 191.95 233.28
  Q 191.23 233.34 190.65 233.75
  Q 184.60 237.93 178.98 234.12
  Q 177.43 233.07 176.29 232.58
  Q 174.31 231.74 173.48 231.16
  Q 169.13 228.11 164.70 225.21
  Q 164.29 224.95 163.81 224.89
  Q 163.61 224.86 163.41 224.81
  Q 163.26 224.77 163.12 224.65
  Q 160.74 222.66 157.99 221.32
  Q 156.47 220.58 154.95 219.58
  Q 153.97 218.93 152.92 218.40
  C 150.85 217.34 149.45 215.99 147.14 214.86
  Q 144.23 213.43 144.23 210.85
  Z" fill="#d9d9d9"></path>
<path d="M 100.99 220.26
  Q 100.57 223.33 98.89 224.66
  C 96.60 226.47 93.89 228.17 92.07 230.18
  C 89.70 232.79 89.17 235.66 87.82 238.53
  Q 87.47 224.53 100.99 220.26
  Z" fill="#d9d9d9"></path>
<path d="M 112.16 240.18
  C 108.33 248.82 96.82 247.01 95.66 237.80
  C 95.18 223.53 116.12 226.01 112.16 240.18
  Z" fill="#495d68"></path>
<path d="M 95.66 237.80
  C 96.82 247.01 108.33 248.82 112.16 240.18
  Q 113.19 241.32 112.17 243.44
  Q 111.69 244.43 111.21 245.47
  C 109.64 248.90 105.73 250.20 102.22 249.54
  C 100.60 249.24 99.57 248.31 98.10 247.48
  Q 97.62 247.21 97.45 246.69
  Q 97.00 245.39 96.00 244.44
  Q 95.69 244.15 95.65 243.72
  Q 95.53 242.46 95.01 241.29
  Q 94.83 240.88 95.05 240.49
  Q 95.78 239.23 95.66 237.80
  Z" fill="#d9d9d9"></path>
<ellipse ry="8.50" rx="8.87" transform="translate(195.83,247.23) rotate(90.7)" cy="0.00" cx="0.00" fill="#495d68"></ellipse>
</svg>
