<svg viewBox="0.00 0.00 180.00 180.00" version="1.1" xmlns="http://www.w3.org/2000/svg">
<path d="M 72.14 90.08
  C 82.18 94.80 93.03 96.14 103.07 100.69
  C 111.44 104.48 110.84 114.37 103.73 118.99
  C 94.14 125.21 73.71 122.39 72.08 108.16
  Q 72.02 107.60 71.46 107.60
  L 57.90 107.59
  A 0.45 0.44 -1.8 0 0 57.45 108.06
  C 59.01 133.98 95.83 140.12 113.15 127.92
  C 124.08 120.22 127.00 103.57 115.96 94.27
  C 110.78 89.91 104.77 87.85 98.81 86.27
  C 91.13 84.23 73.67 80.83 73.01 70.98
  C 72.61 65.10 76.71 61.14 82.14 59.36
  C 92.41 55.98 106.63 59.64 107.97 72.36
  Q 108.02 72.88 108.55 72.88
  L 121.69 72.87
  A 0.45 0.45 0.0 0 0 122.14 72.39
  C 120.28 48.56 95.04 42.16 75.99 48.72
  C 65.31 52.40 57.47 62.12 59.19 73.53
  C 60.35 81.23 65.20 86.82 72.14 90.08" stroke-linecap="butt" fill="none" stroke-width="2.00" stroke="#808080"></path>
<path d="M 86.01 0.00
  L 94.25 0.00
  C 141.55 2.91 176.91 38.83 180.00 86.02
  L 180.00 94.23
  C 177.05 141.16 141.07 177.38 93.98 180.00
  L 85.76 180.00
  C 39.05 177.29 2.74 141.13 0.00 94.11
  L 0.00 85.91
  C 2.98 38.68 38.74 2.84 86.01 0.00
  Z
  M 72.14 90.08
  C 82.18 94.80 93.03 96.14 103.07 100.69
  C 111.44 104.48 110.84 114.37 103.73 118.99
  C 94.14 125.21 73.71 122.39 72.08 108.16
  Q 72.02 107.60 71.46 107.60
  L 57.90 107.59
  A 0.45 0.44 -1.8 0 0 57.45 108.06
  C 59.01 133.98 95.83 140.12 113.15 127.92
  C 124.08 120.22 127.00 103.57 115.96 94.27
  C 110.78 89.91 104.77 87.85 98.81 86.27
  C 91.13 84.23 73.67 80.83 73.01 70.98
  C 72.61 65.10 76.71 61.14 82.14 59.36
  C 92.41 55.98 106.63 59.64 107.97 72.36
  Q 108.02 72.88 108.55 72.88
  L 121.69 72.87
  A 0.45 0.45 0.0 0 0 122.14 72.39
  C 120.28 48.56 95.04 42.16 75.99 48.72
  C 65.31 52.40 57.47 62.12 59.19 73.53
  C 60.35 81.23 65.20 86.82 72.14 90.08
  Z" fill="#000000"></path>
<path d="M 103.07 100.69
  C 93.03 96.14 82.18 94.80 72.14 90.08
  C 65.20 86.82 60.35 81.23 59.19 73.53
  C 57.47 62.12 65.31 52.40 75.99 48.72
  C 95.04 42.16 120.28 48.56 122.14 72.39
  A 0.45 0.45 0.0 0 1 121.69 72.87
  L 108.55 72.88
  Q 108.02 72.88 107.97 72.36
  C 106.63 59.64 92.41 55.98 82.14 59.36
  C 76.71 61.14 72.61 65.10 73.01 70.98
  C 73.67 80.83 91.13 84.23 98.81 86.27
  C 104.77 87.85 110.78 89.91 115.96 94.27
  C 127.00 103.57 124.08 120.22 113.15 127.92
  C 95.83 140.12 59.01 133.98 57.45 108.06
  A 0.45 0.44 -1.8 0 1 57.90 107.59
  L 71.46 107.60
  Q 72.02 107.60 72.08 108.16
  C 73.71 122.39 94.14 125.21 103.73 118.99
  C 110.84 114.37 111.44 104.48 103.07 100.69
  Z" fill="#ffffff"></path>
</svg>
