<svg viewBox="0.00 0.00 128.00 128.00" version="1.1" xmlns="http://www.w3.org/2000/svg">
<path d="M 23.05 12.67
  A 0.78 0.77 -90.0 0 0 22.28 13.45
  L 22.30 109.46
  A 3.30 3.29 -0.4 0 1 19.04 112.75
  L 18.16 112.76
  Q 14.00 112.81 14.00 108.66
  L 14.00 8.18
  A 3.82 3.82 0.0 0 1 17.82 4.36
  L 84.43 4.34
  Q 88.36 4.34 88.46 8.27
  L 88.48 9.44
  A 3.04 3.04 0.0 0 1 85.44 12.56
  L 23.05 12.67
  Z" fill="#000000"></path>
<path d="M 120.12 128.00
  L 31.95 128.00
  Q 30.52 127.62 30.52 125.63
  Q 30.61 75.82 30.59 26.02
  C 30.59 21.41 32.43 21.00 36.60 21.00
  Q 65.16 21.00 93.52 21.00
  A 2.35 2.34 67.6 0 1 95.19 21.70
  L 121.17 47.89
  A 1.99 1.94 -68.0 0 1 121.74 49.28
  L 121.77 126.78
  Q 121.77 127.32 121.26 127.46
  Q 120.59 127.63 120.12 128.00
  Z
  M 88.93 30.26
  A 0.90 0.90 0.0 0 0 88.03 29.34
  L 39.95 29.32
  A 0.99 0.98 -0.0 0 0 38.96 30.30
  L 38.93 120.99
  Q 38.93 121.27 39.21 121.27
  L 112.77 121.27
  Q 113.56 121.27 113.56 120.48
  L 113.53 55.28
  A 0.94 0.94 0.0 0 0 112.59 54.34
  Q 104.75 54.38 97.45 54.35
  C 92.49 54.32 88.58 55.06 88.64 49.02
  Q 88.74 39.57 88.93 30.26
  Z
  M 106.95 46.17
  A 0.42 0.42 0.0 0 0 107.25 45.45
  L 97.70 35.80
  A 0.42 0.42 0.0 0 0 96.98 36.09
  L 96.81 45.81
  A 0.42 0.42 0.0 0 0 97.23 46.24
  L 106.95 46.17
  Z" fill="#000000"></path>
<path d="M 80.08 64.50
  L 84.52 64.54
  A 0.98 0.98 0.0 0 1 85.49 65.52
  L 85.51 68.57
  A 0.98 0.98 0.0 0 1 84.54 69.55
  L 79.63 69.60
  A 0.98 0.98 0.0 0 1 78.65 68.48
  L 79.10 65.34
  A 0.98 0.98 0.0 0 1 80.08 64.50
  Z" fill="#000000"></path>
<path d="M 63.81 99.88
  C 49.78 109.90 40.26 85.51 62.15 87.01
  Q 64.44 87.17 64.27 84.88
  L 64.23 84.30
  Q 64.03 81.80 61.65 81.02
  Q 57.03 79.51 55.64 83.65
  Q 55.45 84.22 54.85 84.23
  L 51.31 84.25
  A 0.70 0.69 0.0 0 1 50.61 83.56
  L 50.60 79.40
  A 1.78 1.76 75.0 0 1 51.47 77.87
  C 58.01 74.02 70.74 73.82 70.95 84.25
  Q 71.07 89.95 70.98 95.67
  A 1.30 1.29 26.3 0 0 71.25 96.46
  C 72.15 97.61 74.41 99.63 72.86 101.17
  Q 72.36 101.67 71.27 101.70
  Q 68.86 101.76 66.53 101.71
  Q 66.04 101.70 65.66 101.40
  Q 65.01 100.88 64.67 100.12
  Q 64.38 99.47 63.81 99.88
  Z
  M 64.4081 92.0144
  A 4.42 3.15 -21.3 0 0 59.1458 90.6852
  A 4.42 3.15 -21.3 0 0 56.1719 95.2256
  A 4.42 3.15 -21.3 0 0 61.4342 96.5548
  A 4.42 3.15 -21.3 0 0 64.4081 92.0144
  Z" fill="#000000"></path>
<path d="M 78.89 96.03
  L 78.55 81.68
  A 0.79 0.78 10.0 0 0 78.04 80.96
  L 76.49 80.37
  A 1.21 1.18 -0.9 0 1 75.81 79.73
  Q 75.17 78.22 75.29 76.56
  Q 75.33 75.96 75.93 75.94
  L 84.65 75.70
  Q 85.37 75.68 85.41 76.40
  L 86.38 95.85
  A 0.99 0.98 17.4 0 0 86.75 96.55
  Q 88.68 98.00 89.08 100.42
  A 0.99 0.98 84.7 0 1 88.13 101.57
  L 76.92 101.75
  A 1.41 1.39 -5.0 0 1 75.51 100.58
  Q 74.92 97.04 78.35 96.65
  A 0.61 0.61 0.0 0 0 78.89 96.03
  Z" fill="#000000"></path>
</svg>
