<svg viewBox="0.00 0.00 300.00 300.00" version="1.1" xmlns="http://www.w3.org/2000/svg">
<g stroke-linecap="butt" fill="none" stroke-width="2.00">
<path d="M 195.82 152.78
  Q 196.02 152.07 195.50 151.74
  Q 192.02 149.57 188.72 147.08
  Q 187.92 146.48 188.32 147.39
  C 189.36 149.73 193.72 152.44 195.35 153.28" stroke="#fac190"></path>
<path d="M 220.99 207.03
  L 219.99 207.27
  Q 219.47 207.40 219.15 206.98
  Q 217.74 205.17 215.93 203.77
  C 214.75 202.85 214.24 201.37 213.30 200.68
  C 211.05 199.05 208.85 196.49 207.40 195.12
  Q 182.84 171.99 152.52 157.21
  C 147.25 154.64 141.14 152.27 135.49 150.65
  C 130.22 149.12 125.73 147.19 119.85 146.51
  Q 119.57 146.48 119.61 146.75
  Q 119.63 146.87 119.70 146.99
  Q 119.80 147.14 120.07 147.25
  C 150.41 158.75 178.10 172.37 202.38 192.83
  C 207.63 197.26 213.42 203.28 219.06 208.35" stroke="#fac190"></path>
<path d="M 263.19 251.52
  Q 251.04 237.08 235.52 227.37
  C 229.55 223.64 222.83 220.72 216.12 218.05
  Q 214.74 217.50 216.05 218.22
  C 236.29 229.29 254.26 242.63 268.80 262.01
  Q 270.97 264.91 274.02 266.46" stroke="#fac190"></path>
<path d="M 258.65 266.52
  Q 256.71 264.59 255.24 262.42
  C 248.04 251.82 239.36 241.96 230.46 233.25
  Q 229.35 232.16 230.04 233.55
  C 231.04 235.56 233.51 237.55 234.93 239.33
  Q 245.81 252.98 248.38 256.86
  Q 252.76 263.46 257.13 270.31" stroke="#fac190"></path>
<path d="M 262.00 278.81
  Q 266.49 287.34 270.83 295.40
  Q 271.08 295.86 270.76 296.47" stroke="#fac190"></path>
<path d="M 163.10 205.99
  Q 164.52 203.14 164.56 202.25
  C 164.67 199.51 165.74 193.72 161.24 194.17
  Q 160.40 194.26 159.87 194.74
  Q 158.96 195.57 159.63 196.41" stroke="#c1875a"></path>
<path d="M 159.63 196.41
  L 156.74 203.73" stroke="#7a4212"></path>
<path d="M 148.47 200.04
  L 150.48 195.51" stroke="#7a4212"></path>
<path d="M 150.48 195.51
  Q 151.54 193.92 150.65 192.53
  C 148.80 189.63 144.93 191.98 143.71 194.26" stroke="#c1875a"></path>
<path d="M 29.54 81.41
  Q 29.94 80.97 30.54 80.92" stroke="#c1875a"></path>
<path d="M 30.54 80.92
  C 34.67 80.17 44.25 76.77 45.87 72.31
  A 2.37 2.35 -62.2 0 0 45.04 69.59
  C 41.60 67.13 38.02 64.23 34.25 62.31
  Q 32.69 61.52 31.09 60.67" stroke="#7a4212"></path>
<path d="M 161.98 208.78
  Q 159.80 207.99 159.76 205.48
  Q 159.70 201.06 159.63 196.41" stroke="#474649"></path>
<path d="M 30.54 80.92
  Q 27.41 79.92 24.01 81.03" stroke="#474649"></path>
<path d="M 150.48 195.51
  Q 147.62 198.81 144.96 200.18
  Q 140.23 202.63 133.96 204.44
  Q 132.74 204.80 133.00 204.13" stroke="#474649"></path>
<path d="M 273.34 297.25
  C 272.36 294.27 271.70 291.32 270.41 288.53
  Q 268.14 283.63 265.79 278.77" stroke="#fac190"></path>
<path d="M 74.1406 63.9804
  A 8.37 6.23 7.9 0 0 66.7063 56.6591
  A 8.37 6.23 7.9 0 0 57.5594 61.6796
  A 8.37 6.23 7.9 0 0 64.9937 69.0009
  A 8.37 6.23 7.9 0 0 74.1406 63.9804" stroke="#7a4212"></path>
<path d="M 38.24 80.55
  Q 37.93 80.19 37.44 80.41
  Q 36.92 80.65 37.35 81.03
  C 43.33 86.29 48.41 91.36 55.45 95.29
  C 58.69 97.10 62.77 98.17 66.45 99.63
  Q 71.68 101.70 81.45 101.12
  Q 81.68 101.11 81.69 100.88
  L 81.69 100.87
  Q 81.69 100.63 81.46 100.61
  Q 62.73 98.43 47.27 87.70
  Q 44.92 86.07 38.57 80.90
  Q 38.51 80.85 38.24 80.55" stroke="#fac190"></path>
<path d="M 44.36 82.96
  Q 51.14 89.18 60.00 91.71
  C 64.87 93.10 72.81 93.51 76.99 91.63
  Q 77.87 91.23 76.90 91.33
  C 69.72 92.06 59.57 90.61 53.04 87.14
  Q 48.82 84.89 44.58 82.64
  Q 43.25 81.94 44.36 82.96" stroke="#fac190"></path>
<path d="M 61.55 100.23
  Q 52.73 94.82 60.69 101.43
  Q 65.04 105.04 71.74 107.61
  Q 77.39 109.77 84.00 110.21
  C 93.90 110.86 100.28 109.25 110.50 105.52
  Q 110.69 105.45 110.63 105.25
  L 110.63 105.24
  Q 110.57 105.04 110.36 105.08
  C 97.37 108.06 82.78 108.19 70.09 103.90
  Q 64.37 101.96 61.55 100.23" stroke="#fac190"></path>
<path d="M 138.32 127.67
  Q 132.31 124.74 129.88 123.29
  Q 129.59 123.12 129.56 123.45
  L 129.52 123.99
  A 0.45 0.45 0.0 0 0 129.73 124.42
  C 161.98 144.93 191.68 169.04 215.56 199.59
  A 0.98 0.97 66.9 0 0 216.47 199.96
  L 216.90 199.90
  Q 217.35 199.84 217.08 199.48
  Q 200.82 177.12 176.56 154.70
  Q 157.33 136.93 138.32 127.67" stroke="#fac190"></path>
<path d="M 187.55 191.42
  Q 165.55 178.69 144.48 171.73
  Q 131.16 167.33 110.44 165.31
  Q 110.17 165.28 110.13 165.55
  L 110.09 165.82
  A 0.57 0.55 -80.7 0 0 110.53 166.45
  C 146.88 173.72 180.48 186.30 210.40 208.19
  A 0.33 0.32 -45.7 0 0 210.80 208.18
  L 211.10 207.94
  A 0.46 0.45 43.6 0 0 211.08 207.22
  Q 199.28 198.63 195.92 196.33
  C 195.25 195.88 194.11 195.59 193.25 194.96
  Q 191.61 193.77 187.55 191.42" stroke="#fac190"></path>
<path d="M 64.52 62.25
  Q 66.00 63.28 67.90 62.98
  A 1.68 1.68 0.0 0 0 68.59 59.94
  C 67.06 58.88 64.63 59.13 64.24 61.38
  Q 64.16 61.88 63.66 61.87
  Q 63.13 61.86 62.65 61.85
  Q 61.89 61.84 61.57 62.11
  Q 61.01 62.58 61.42 63.40
  A 1.00 0.99 52.1 0 0 63.06 63.61
  Q 63.50 63.10 63.75 62.48
  Q 64.00 61.89 64.52 62.25" stroke="#807f7f"></path>
<path d="M 18.09 79.44
  C 27.51 78.29 35.95 79.57 43.80 72.60
  Q 45.13 71.42 43.67 70.41
  C 38.06 66.54 34.33 62.90 26.87 60.81
  C 21.28 59.24 15.61 60.84 10.72 63.51
  A 0.69 0.68 -27.9 0 0 10.44 64.41
  Q 10.57 64.67 10.95 64.82
  Q 11.21 64.92 11.58 64.87
  C 17.32 64.06 21.31 64.70 26.73 67.40
  Q 33.16 70.59 40.39 69.85
  A 1.07 1.07 0.0 0 1 41.51 70.59
  L 41.67 71.08
  Q 42.07 72.31 40.80 72.58
  L 18.06 77.42
  A 0.96 0.95 -10.7 0 0 17.31 78.51
  L 17.38 78.91
  A 0.64 0.64 0.0 0 0 18.09 79.44" stroke="#5c5a5d"></path>
</g>
<path d="M 195.82 152.78
  Q 196.02 152.07 195.50 151.74
  Q 192.02 149.57 188.72 147.08
  Q 187.92 146.48 188.32 147.39
  C 189.36 149.73 193.72 152.44 195.35 153.28
  Q 197.72 155.83 200.23 158.51
  C 204.21 162.75 205.84 169.91 209.24 175.27
  C 211.67 179.11 214.21 182.12 214.01 187.24
  C 213.84 191.73 220.42 194.23 217.38 199.39
  Q 217.12 199.83 217.17 200.33
  C 217.43 202.95 219.87 204.89 220.99 207.03
  L 219.99 207.27
  Q 219.47 207.40 219.15 206.98
  Q 217.74 205.17 215.93 203.77
  C 214.75 202.85 214.24 201.37 213.30 200.68
  C 211.05 199.05 208.85 196.49 207.40 195.12
  Q 182.84 171.99 152.52 157.21
  C 147.25 154.64 141.14 152.27 135.49 150.65
  C 130.22 149.12 125.73 147.19 119.85 146.51
  Q 119.57 146.48 119.61 146.75
  Q 119.63 146.87 119.70 146.99
  Q 119.80 147.14 120.07 147.25
  C 150.41 158.75 178.10 172.37 202.38 192.83
  C 207.63 197.26 213.42 203.28 219.06 208.35
  Q 218.68 208.52 218.58 208.98
  A 1.10 1.09 31.9 0 0 218.80 209.90
  C 221.17 212.83 223.32 211.37 226.21 212.33
  C 229.38 213.38 233.48 215.55 236.18 217.58
  C 248.50 226.81 256.48 237.78 263.19 251.52
  Q 251.04 237.08 235.52 227.37
  C 229.55 223.64 222.83 220.72 216.12 218.05
  Q 214.74 217.50 216.05 218.22
  C 236.29 229.29 254.26 242.63 268.80 262.01
  Q 270.97 264.91 274.02 266.46
  Q 277.69 270.29 280.94 275.05
  Q 283.42 278.67 292.24 286.18
  Q 292.39 286.31 292.27 286.46
  L 292.09 286.69
  A 0.49 0.49 0.0 0 1 291.42 286.79
  C 279.71 278.43 270.44 268.87 260.38 259.19
  Q 259.69 258.53 259.57 259.48
  L 258.65 266.52
  Q 256.71 264.59 255.24 262.42
  C 248.04 251.82 239.36 241.96 230.46 233.25
  Q 229.35 232.16 230.04 233.55
  C 231.04 235.56 233.51 237.55 234.93 239.33
  Q 245.81 252.98 248.38 256.86
  Q 252.76 263.46 257.13 270.31
  Q 259.11 273.28 259.05 277.48
  A 0.74 0.72 -82.9 0 0 259.59 278.19
  L 262.00 278.81
  Q 266.49 287.34 270.83 295.40
  Q 271.08 295.86 270.76 296.47
  C 267.72 294.26 265.25 290.31 262.80 287.44
  C 250.35 272.91 242.13 256.91 231.45 242.09
  Q 229.58 239.50 226.86 237.61
  C 221.24 233.73 215.65 229.85 209.71 226.62
  Q 191.82 216.92 172.02 208.98
  Q 167.28 207.08 163.10 205.99
  Q 164.52 203.14 164.56 202.25
  C 164.67 199.51 165.74 193.72 161.24 194.17
  Q 160.40 194.26 159.87 194.74
  Q 158.96 195.57 159.63 196.41
  L 156.74 203.73
  L 148.47 200.04
  L 150.48 195.51
  Q 151.54 193.92 150.65 192.53
  C 148.80 189.63 144.93 191.98 143.71 194.26
  Q 141.55 198.38 139.00 197.48
  C 128.63 193.83 118.26 190.21 107.73 187.03
  Q 99.07 184.40 91.46 179.53
  C 87.68 177.12 84.21 173.33 80.44 170.28
  C 75.31 166.15 71.82 162.47 67.85 157.93
  C 66.57 156.45 65.06 155.90 63.52 154.67
  Q 63.08 154.32 62.90 153.80
  L 59.07 142.66
  A 1.63 1.62 -6.0 0 0 57.72 141.57
  Q 55.01 141.27 54.05 138.16
  Q 51.36 129.46 49.02 120.48
  A 0.81 0.81 0.0 0 0 47.90 119.95
  Q 46.23 120.71 45.38 118.78
  Q 41.87 110.83 40.44 102.25
  C 39.91 99.09 37.43 95.53 34.88 92.01
  Q 31.31 87.07 29.54 81.41
  Q 29.94 80.97 30.54 80.92
  C 34.67 80.17 44.25 76.77 45.87 72.31
  A 2.37 2.35 -62.2 0 0 45.04 69.59
  C 41.60 67.13 38.02 64.23 34.25 62.31
  Q 32.69 61.52 31.09 60.67
  Q 40.50 53.97 47.20 49.94
  C 64.70 39.44 81.70 43.81 97.22 55.76
  C 102.97 60.20 108.77 64.49 115.75 66.77
  Q 117.49 67.34 115.74 67.90
  L 112.21 69.04
  Q 109.98 69.76 112.18 70.57
  Q 121.07 73.81 130.50 74.18
  Q 132.88 74.28 131.35 76.10
  Q 130.98 76.54 129.13 76.88
  Q 125.32 77.57 121.07 77.31
  A 0.82 0.82 0.0 0 0 120.35 78.61
  Q 120.66 79.06 121.39 79.59
  Q 133.78 88.57 140.37 102.30
  C 141.41 104.46 143.25 107.42 144.91 108.36
  C 150.34 111.42 155.09 115.13 160.19 118.66
  Q 165.39 122.26 170.19 126.59
  Q 183.03 138.15 196.13 149.41
  C 198.15 151.15 200.80 152.42 202.87 154.41
  Q 203.79 155.31 202.54 155.02
  Q 200.22 154.50 197.73 152.82
  Q 196.57 152.04 195.82 152.78
  Z
  M 74.1406 63.9804
  A 8.37 6.23 7.9 0 0 66.7063 56.6591
  A 8.37 6.23 7.9 0 0 57.5594 61.6796
  A 8.37 6.23 7.9 0 0 64.9937 69.0009
  A 8.37 6.23 7.9 0 0 74.1406 63.9804
  Z
  M 38.24 80.55
  Q 37.93 80.19 37.44 80.41
  Q 36.92 80.65 37.35 81.03
  C 43.33 86.29 48.41 91.36 55.45 95.29
  C 58.69 97.10 62.77 98.17 66.45 99.63
  Q 71.68 101.70 81.45 101.12
  Q 81.68 101.11 81.69 100.88
  L 81.69 100.87
  Q 81.69 100.63 81.46 100.61
  Q 62.73 98.43 47.27 87.70
  Q 44.92 86.07 38.57 80.90
  Q 38.51 80.85 38.24 80.55
  Z
  M 44.36 82.96
  Q 51.14 89.18 60.00 91.71
  C 64.87 93.10 72.81 93.51 76.99 91.63
  Q 77.87 91.23 76.90 91.33
  C 69.72 92.06 59.57 90.61 53.04 87.14
  Q 48.82 84.89 44.58 82.64
  Q 43.25 81.94 44.36 82.96
  Z
  M 61.55 100.23
  Q 52.73 94.82 60.69 101.43
  Q 65.04 105.04 71.74 107.61
  Q 77.39 109.77 84.00 110.21
  C 93.90 110.86 100.28 109.25 110.50 105.52
  Q 110.69 105.45 110.63 105.25
  L 110.63 105.24
  Q 110.57 105.04 110.36 105.08
  C 97.37 108.06 82.78 108.19 70.09 103.90
  Q 64.37 101.96 61.55 100.23
  Z
  M 138.32 127.67
  Q 132.31 124.74 129.88 123.29
  Q 129.59 123.12 129.56 123.45
  L 129.52 123.99
  A 0.45 0.45 0.0 0 0 129.73 124.42
  C 161.98 144.93 191.68 169.04 215.56 199.59
  A 0.98 0.97 66.9 0 0 216.47 199.96
  L 216.90 199.90
  Q 217.35 199.84 217.08 199.48
  Q 200.82 177.12 176.56 154.70
  Q 157.33 136.93 138.32 127.67
  Z
  M 187.55 191.42
  Q 165.55 178.69 144.48 171.73
  Q 131.16 167.33 110.44 165.31
  Q 110.17 165.28 110.13 165.55
  L 110.09 165.82
  A 0.57 0.55 -80.7 0 0 110.53 166.45
  C 146.88 173.72 180.48 186.30 210.40 208.19
  A 0.33 0.32 -45.7 0 0 210.80 208.18
  L 211.10 207.94
  A 0.46 0.45 43.6 0 0 211.08 207.22
  Q 199.28 198.63 195.92 196.33
  C 195.25 195.88 194.11 195.59 193.25 194.96
  Q 191.61 193.77 187.55 191.42
  Z" fill="#f48323"></path>
<path d="M 74.1406 63.9804
  A 8.37 6.23 7.9 0 1 64.9937 69.0009
  A 8.37 6.23 7.9 0 1 57.5594 61.6796
  A 8.37 6.23 7.9 0 1 66.7063 56.6591
  A 8.37 6.23 7.9 0 1 74.1406 63.9804
  Z
  M 64.52 62.25
  Q 66.00 63.28 67.90 62.98
  A 1.68 1.68 0.0 0 0 68.59 59.94
  C 67.06 58.88 64.63 59.13 64.24 61.38
  Q 64.16 61.88 63.66 61.87
  Q 63.13 61.86 62.65 61.85
  Q 61.89 61.84 61.57 62.11
  Q 61.01 62.58 61.42 63.40
  A 1.00 0.99 52.1 0 0 63.06 63.61
  Q 63.50 63.10 63.75 62.48
  Q 64.00 61.89 64.52 62.25
  Z" fill="#000000"></path>
<path d="M 63.75 62.48
  Q 63.50 63.10 63.06 63.61
  A 1.00 0.99 52.1 0 1 61.42 63.40
  Q 61.01 62.58 61.57 62.11
  Q 61.89 61.84 62.65 61.85
  Q 63.13 61.86 63.66 61.87
  Q 64.16 61.88 64.24 61.38
  C 64.63 59.13 67.06 58.88 68.59 59.94
  A 1.68 1.68 0.0 0 1 67.90 62.98
  Q 66.00 63.28 64.52 62.25
  Q 64.00 61.89 63.75 62.48
  Z" fill="#fffefd"></path>
<path d="M 31.09 60.67
  Q 32.69 61.52 34.25 62.31
  C 38.02 64.23 41.60 67.13 45.04 69.59
  A 2.37 2.35 -62.2 0 1 45.87 72.31
  C 44.25 76.77 34.67 80.17 30.54 80.92
  Q 27.41 79.92 24.01 81.03
  L 13.89 81.77
  A 0.52 0.52 0.0 0 1 13.43 80.95
  C 15.55 78.04 17.64 77.29 20.66 75.67
  A 1.58 1.57 -26.8 0 0 21.34 73.62
  C 18.99 68.59 12.43 67.44 7.37 67.61
  A 0.59 0.59 0.0 0 1 6.88 66.66
  Q 10.92 61.38 17.75 59.93
  Q 20.82 59.28 31.09 60.67
  Z
  M 18.09 79.44
  C 27.51 78.29 35.95 79.57 43.80 72.60
  Q 45.13 71.42 43.67 70.41
  C 38.06 66.54 34.33 62.90 26.87 60.81
  C 21.28 59.24 15.61 60.84 10.72 63.51
  A 0.69 0.68 -27.9 0 0 10.44 64.41
  Q 10.57 64.67 10.95 64.82
  Q 11.21 64.92 11.58 64.87
  C 17.32 64.06 21.31 64.70 26.73 67.40
  Q 33.16 70.59 40.39 69.85
  A 1.07 1.07 0.0 0 1 41.51 70.59
  L 41.67 71.08
  Q 42.07 72.31 40.80 72.58
  L 18.06 77.42
  A 0.96 0.95 -10.7 0 0 17.31 78.51
  L 17.38 78.91
  A 0.64 0.64 0.0 0 0 18.09 79.44
  Z" fill="#000000"></path>
<path d="M 43.80 72.60
  C 35.95 79.57 27.51 78.29 18.09 79.44
  A 0.64 0.64 0.0 0 1 17.38 78.91
  L 17.31 78.51
  A 0.96 0.95 -10.7 0 1 18.06 77.42
  L 40.80 72.58
  Q 42.07 72.31 41.67 71.08
  L 41.51 70.59
  A 1.07 1.07 0.0 0 0 40.39 69.85
  Q 33.16 70.59 26.73 67.40
  C 21.31 64.70 17.32 64.06 11.58 64.87
  Q 11.21 64.92 10.95 64.82
  Q 10.57 64.67 10.44 64.41
  A 0.69 0.68 -27.9 0 1 10.72 63.51
  C 15.61 60.84 21.28 59.24 26.87 60.81
  C 34.33 62.90 38.06 66.54 43.67 70.41
  Q 45.13 71.42 43.80 72.60
  Z" fill="#b7b3b9"></path>
<path d="M 38.57 80.90
  Q 44.92 86.07 47.27 87.70
  Q 62.73 98.43 81.46 100.61
  Q 81.69 100.63 81.69 100.87
  L 81.69 100.88
  Q 81.68 101.11 81.45 101.12
  Q 71.68 101.70 66.45 99.63
  C 62.77 98.17 58.69 97.10 55.45 95.29
  C 48.41 91.36 43.33 86.29 37.35 81.03
  Q 36.92 80.65 37.44 80.41
  Q 37.93 80.19 38.24 80.55
  Q 38.51 80.85 38.57 80.90
  Z" fill="#fffefd"></path>
<path d="M 30.54 80.92
  Q 29.94 80.97 29.54 81.41
  L 24.01 81.03
  Q 27.41 79.92 30.54 80.92
  Z" fill="#8d8b91"></path>
<path d="M 44.58 82.64
  Q 48.82 84.89 53.04 87.14
  C 59.57 90.61 69.72 92.06 76.90 91.33
  Q 77.87 91.23 76.99 91.63
  C 72.81 93.51 64.87 93.10 60.00 91.71
  Q 51.14 89.18 44.36 82.96
  Q 43.25 81.94 44.58 82.64
  Z" fill="#fffefd"></path>
<path d="M 61.55 100.23
  Q 64.37 101.96 70.09 103.90
  C 82.78 108.19 97.37 108.06 110.36 105.08
  Q 110.57 105.04 110.63 105.24
  L 110.63 105.25
  Q 110.69 105.45 110.50 105.52
  C 100.28 109.25 93.90 110.86 84.00 110.21
  Q 77.39 109.77 71.74 107.61
  Q 65.04 105.04 60.69 101.43
  Q 52.73 94.82 61.55 100.23
  Z" fill="#fffefd"></path>
<path d="M 138.32 127.67
  Q 157.33 136.93 176.56 154.70
  Q 200.82 177.12 217.08 199.48
  Q 217.35 199.84 216.90 199.90
  L 216.47 199.96
  A 0.98 0.97 66.9 0 1 215.56 199.59
  C 191.68 169.04 161.98 144.93 129.73 124.42
  A 0.45 0.45 0.0 0 1 129.52 123.99
  L 129.56 123.45
  Q 129.59 123.12 129.88 123.29
  Q 132.31 124.74 138.32 127.67
  Z" fill="#fffefd"></path>
<path d="M 220.99 207.03
  Q 221.72 207.84 219.06 208.35
  C 213.42 203.28 207.63 197.26 202.38 192.83
  C 178.10 172.37 150.41 158.75 120.07 147.25
  Q 119.80 147.14 119.70 146.99
  Q 119.63 146.87 119.61 146.75
  Q 119.57 146.48 119.85 146.51
  C 125.73 147.19 130.22 149.12 135.49 150.65
  C 141.14 152.27 147.25 154.64 152.52 157.21
  Q 182.84 171.99 207.40 195.12
  C 208.85 196.49 211.05 199.05 213.30 200.68
  C 214.24 201.37 214.75 202.85 215.93 203.77
  Q 217.74 205.17 219.15 206.98
  Q 219.47 207.40 219.99 207.27
  L 220.99 207.03
  Z" fill="#fffefd"></path>
<path d="M 195.82 152.78
  L 195.35 153.28
  C 193.72 152.44 189.36 149.73 188.32 147.39
  Q 187.92 146.48 188.72 147.08
  Q 192.02 149.57 195.50 151.74
  Q 196.02 152.07 195.82 152.78
  Z" fill="#fffefd"></path>
<path d="M 187.55 191.42
  Q 191.61 193.77 193.25 194.96
  C 194.11 195.59 195.25 195.88 195.92 196.33
  Q 199.28 198.63 211.08 207.22
  A 0.46 0.45 43.6 0 1 211.10 207.94
  L 210.80 208.18
  A 0.33 0.32 -45.7 0 1 210.40 208.19
  C 180.48 186.30 146.88 173.72 110.53 166.45
  A 0.57 0.55 -80.7 0 1 110.09 165.82
  L 110.13 165.55
  Q 110.17 165.28 110.44 165.31
  Q 131.16 167.33 144.48 171.73
  Q 165.55 178.69 187.55 191.42
  Z" fill="#fffefd"></path>
<path d="M 150.48 195.51
  Q 147.62 198.81 144.96 200.18
  Q 140.23 202.63 133.96 204.44
  Q 132.74 204.80 133.00 204.13
  C 136.49 202.11 142.97 198.60 143.71 194.26
  C 144.93 191.98 148.80 189.63 150.65 192.53
  Q 151.54 193.92 150.48 195.51
  Z" fill="#8d8b91"></path>
<path d="M 163.10 205.99
  Q 162.42 206.33 162.33 207.37
  Q 162.26 208.06 161.98 208.78
  Q 159.80 207.99 159.76 205.48
  Q 159.70 201.06 159.63 196.41
  Q 158.96 195.57 159.87 194.74
  Q 160.40 194.26 161.24 194.17
  C 165.74 193.72 164.67 199.51 164.56 202.25
  Q 164.52 203.14 163.10 205.99
  Z" fill="#8d8b91"></path>
<path d="M 150.48 195.51
  L 148.47 200.04
  C 146.40 202.19 142.76 207.07 139.50 207.05
  Q 133.04 207.00 126.28 207.13
  Q 125.56 207.14 125.80 206.47
  Q 125.93 206.08 126.72 205.84
  Q 129.81 204.93 133.00 204.13
  Q 132.74 204.80 133.96 204.44
  Q 140.23 202.63 144.96 200.18
  Q 147.62 198.81 150.48 195.51
  Z" fill="#000000"></path>
<path d="M 159.63 196.41
  Q 159.70 201.06 159.76 205.48
  Q 159.80 207.99 161.98 208.78
  Q 162.04 208.98 161.94 209.14
  Q 161.73 209.46 161.35 209.39
  L 157.17 208.58
  A 0.86 0.85 7.5 0 1 156.47 207.68
  L 156.74 203.73
  L 159.63 196.41
  Z" fill="#000000"></path>
<path d="M 263.19 251.52
  L 274.02 266.46
  Q 270.97 264.91 268.80 262.01
  C 254.26 242.63 236.29 229.29 216.05 218.22
  Q 214.74 217.50 216.12 218.05
  C 222.83 220.72 229.55 223.64 235.52 227.37
  Q 251.04 237.08 263.19 251.52
  Z" fill="#fffefd"></path>
<path d="M 258.65 266.52
  Q 258.61 267.91 257.13 270.31
  Q 252.76 263.46 248.38 256.86
  Q 245.81 252.98 234.93 239.33
  C 233.51 237.55 231.04 235.56 230.04 233.55
  Q 229.35 232.16 230.46 233.25
  C 239.36 241.96 248.04 251.82 255.24 262.42
  Q 256.71 264.59 258.65 266.52
  Z" fill="#fffefd"></path>
<path d="M 273.34 297.25
  C 272.36 294.27 271.70 291.32 270.41 288.53
  Q 268.14 283.63 265.79 278.77
  Q 268.07 277.43 270.52 278.26
  A 0.97 0.96 2.4 0 1 271.13 278.92
  C 272.63 284.72 275.48 291.37 273.34 297.25
  Z" fill="#f48323"></path>
<path d="M 262.00 278.81
  Q 264.48 279.14 265.79 278.77
  Q 268.14 283.63 270.41 288.53
  C 271.70 291.32 272.36 294.27 273.34 297.25
  Q 272.58 298.48 270.76 296.47
  Q 271.08 295.86 270.83 295.40
  Q 266.49 287.34 262.00 278.81
  Z" fill="#fffefd"></path>
</svg>
