<svg viewBox="0.00 0.00 214.00 214.00" version="1.1" xmlns="http://www.w3.org/2000/svg">
<path d="M 175.43 50.01
  C 172.35 55.06 169.33 60.33 167.24 65.88
  A 2.21 2.20 -87.1 0 1 165.73 67.25
  L 162.34 68.14
  A 0.65 0.65 0.0 0 1 161.57 67.26
  Q 165.75 57.37 166.24 53.01
  Q 167.22 44.41 166.13 38.93
  C 164.86 32.55 152.55 27.44 147.06 26.50
  C 130.85 23.72 115.44 29.65 108.82 45.83
  C 106.13 52.41 106.58 59.49 109.22 66.42
  Q 112.90 76.09 118.43 82.80
  Q 133.68 101.29 140.17 110.08
  C 158.11 134.36 156.52 161.73 131.21 179.68
  Q 99.24 202.35 61.78 189.22
  C 45.60 183.55 33.49 170.29 35.18 152.33
  C 36.13 142.25 40.87 131.98 48.67 125.46
  Q 49.50 124.77 50.14 125.64
  L 51.01 126.81
  Q 51.61 127.62 50.90 128.33
  C 42.11 137.05 44.71 152.07 50.71 161.58
  Q 56.71 171.07 66.33 176.91
  C 88.12 190.12 124.33 191.84 132.87 161.01
  C 137.42 144.59 129.37 125.88 120.61 111.89
  Q 111.89 97.95 104.14 83.45
  C 86.58 50.64 113.19 21.90 145.49 19.89
  Q 162.60 18.83 175.10 30.27
  C 178.94 33.77 179.63 38.32 178.64 43.12
  Q 178.13 45.58 175.43 50.01
  Z" fill="#000000"></path>
</svg>
