<svg viewBox="0.00 0.00 180.00 180.00" version="1.1" xmlns="http://www.w3.org/2000/svg">
<g stroke-linecap="butt" fill="none" stroke-width="2.00">
<path d="M 131.22 117.69
  C 144.81 113.03 149.71 99.00 148.08 85.54
  C 144.03 51.98 96.66 53.34 93.74 86.25
  C 92.59 99.21 97.05 112.21 109.79 117.23
  C 116.35 119.81 124.54 119.98 131.22 117.69" stroke="#a690b7"></path>
<path d="M 52.47 89.56
  A 0.28 0.28 0.0 0 1 52.46 89.04
  C 58.05 86.55 62.91 82.85 62.48 75.99
  C 61.72 63.64 47.37 61.78 38.00 61.80
  Q 26.97 61.82 15.24 61.88
  A 1.65 1.65 0.0 0 0 13.59 63.53
  L 13.57 116.52
  Q 13.57 118.51 15.57 118.52
  Q 29.41 118.55 43.24 118.22
  C 53.63 117.97 64.75 114.54 63.73 101.88
  C 63.13 94.55 58.55 92.10 52.47 89.56" stroke="#a690b7"></path>
<path d="M 87.28 63.39
  A 1.54 1.54 0.0 0 0 85.74 61.85
  L 71.52 61.85
  A 1.54 1.54 0.0 0 0 69.98 63.39
  L 69.98 116.95
  A 1.54 1.54 0.0 0 0 71.52 118.49
  L 85.74 118.49
  A 1.54 1.54 0.0 0 0 87.28 116.95
  L 87.28 63.39" stroke="#a690b7"></path>
<path d="M 169.2408 104.6640
  A 1.49 1.49 0.0 0 0 167.7534 103.1714
  L 154.7134 103.1486
  A 1.49 1.49 0.0 0 0 153.2208 104.6360
  L 153.1992 116.9760
  A 1.49 1.49 0.0 0 0 154.6866 118.4686
  L 167.7266 118.4914
  A 1.49 1.49 0.0 0 0 169.2192 117.0040
  L 169.2408 104.6640" stroke="#a690b7"></path>
<path d="M 128.54 102.55
  C 131.01 96.66 131.20 81.52 127.72 76.25
  C 123.88 70.42 114.68 72.35 113.03 79.25
  Q 110.48 89.91 112.94 100.91
  C 114.71 108.82 125.48 109.86 128.54 102.55" stroke="#a690b7"></path>
<path d="M 30.94 74.51
  L 30.94 82.87
  A 1.15 1.15 0.0 0 0 32.09 84.02
  L 39.45 84.02
  A 5.85 5.09 -0.0 0 0 45.30 78.93
  L 45.30 78.45
  A 5.85 5.09 0.0 0 0 39.45 73.36
  L 32.09 73.36
  A 1.15 1.15 0.0 0 0 30.94 74.51" stroke="#a690b7"></path>
<path d="M 30.96 96.89
  L 30.92 105.81
  A 1.18 1.18 0.0 0 0 32.10 107.00
  L 39.48 107.02
  A 6.26 5.44 0.2 0 0 45.76 101.61
  L 45.76 101.21
  A 6.26 5.44 0.2 0 0 39.52 95.74
  L 32.14 95.72
  A 1.18 1.18 0.0 0 0 30.96 96.89" stroke="#a690b7"></path>
</g>
<path d="M 87.12 0.00
  L 92.99 0.00
  Q 120.06 1.30 140.65 15.60
  Q 177.52 41.21 180.00 87.61
  L 180.00 92.51
  Q 177.15 141.34 137.15 166.65
  Q 117.48 179.09 92.09 180.00
  L 87.79 180.00
  C 39.27 177.87 2.11 141.19 0.00 92.58
  L 0.00 87.51
  Q 0.38 85.44 0.53 83.25
  C 1.74 65.40 7.82 49.25 18.80 35.13
  Q 43.97 2.75 87.12 0.00
  Z
  M 131.22 117.69
  C 144.81 113.03 149.71 99.00 148.08 85.54
  C 144.03 51.98 96.66 53.34 93.74 86.25
  C 92.59 99.21 97.05 112.21 109.79 117.23
  C 116.35 119.81 124.54 119.98 131.22 117.69
  Z
  M 52.47 89.56
  A 0.28 0.28 0.0 0 1 52.46 89.04
  C 58.05 86.55 62.91 82.85 62.48 75.99
  C 61.72 63.64 47.37 61.78 38.00 61.80
  Q 26.97 61.82 15.24 61.88
  A 1.65 1.65 0.0 0 0 13.59 63.53
  L 13.57 116.52
  Q 13.57 118.51 15.57 118.52
  Q 29.41 118.55 43.24 118.22
  C 53.63 117.97 64.75 114.54 63.73 101.88
  C 63.13 94.55 58.55 92.10 52.47 89.56
  Z
  M 87.28 63.39
  A 1.54 1.54 0.0 0 0 85.74 61.85
  L 71.52 61.85
  A 1.54 1.54 0.0 0 0 69.98 63.39
  L 69.98 116.95
  A 1.54 1.54 0.0 0 0 71.52 118.49
  L 85.74 118.49
  A 1.54 1.54 0.0 0 0 87.28 116.95
  L 87.28 63.39
  Z
  M 169.2408 104.6640
  A 1.49 1.49 0.0 0 0 167.7534 103.1714
  L 154.7134 103.1486
  A 1.49 1.49 0.0 0 0 153.2208 104.6360
  L 153.1992 116.9760
  A 1.49 1.49 0.0 0 0 154.6866 118.4686
  L 167.7266 118.4914
  A 1.49 1.49 0.0 0 0 169.2192 117.0040
  L 169.2408 104.6640
  Z" fill="#ffffff"></path>
<path d="M 148.08 85.54
  C 149.71 99.00 144.81 113.03 131.22 117.69
  C 124.54 119.98 116.35 119.81 109.79 117.23
  C 97.05 112.21 92.59 99.21 93.74 86.25
  C 96.66 53.34 144.03 51.98 148.08 85.54
  Z
  M 128.54 102.55
  C 131.01 96.66 131.20 81.52 127.72 76.25
  C 123.88 70.42 114.68 72.35 113.03 79.25
  Q 110.48 89.91 112.94 100.91
  C 114.71 108.82 125.48 109.86 128.54 102.55
  Z" fill="#4d206f"></path>
<path d="M 52.47 89.56
  C 58.55 92.10 63.13 94.55 63.73 101.88
  C 64.75 114.54 53.63 117.97 43.24 118.22
  Q 29.41 118.55 15.57 118.52
  Q 13.57 118.51 13.57 116.52
  L 13.59 63.53
  A 1.65 1.65 0.0 0 1 15.24 61.88
  Q 26.97 61.82 38.00 61.80
  C 47.37 61.78 61.72 63.64 62.48 75.99
  C 62.91 82.85 58.05 86.55 52.46 89.04
  A 0.28 0.28 0.0 0 0 52.47 89.56
  Z
  M 30.94 74.51
  L 30.94 82.87
  A 1.15 1.15 0.0 0 0 32.09 84.02
  L 39.45 84.02
  A 5.85 5.09 -0.0 0 0 45.30 78.93
  L 45.30 78.45
  A 5.85 5.09 0.0 0 0 39.45 73.36
  L 32.09 73.36
  A 1.15 1.15 0.0 0 0 30.94 74.51
  Z
  M 30.96 96.89
  L 30.92 105.81
  A 1.18 1.18 0.0 0 0 32.10 107.00
  L 39.48 107.02
  A 6.26 5.44 0.2 0 0 45.76 101.61
  L 45.76 101.21
  A 6.26 5.44 0.2 0 0 39.52 95.74
  L 32.14 95.72
  A 1.18 1.18 0.0 0 0 30.96 96.89
  Z" fill="#4d206f"></path>
<rect rx="1.54" height="56.64" width="17.30" y="61.85" x="69.98" fill="#4d206f"></rect>
<path d="M 128.54 102.55
  C 125.48 109.86 114.71 108.82 112.94 100.91
  Q 110.48 89.91 113.03 79.25
  C 114.68 72.35 123.88 70.42 127.72 76.25
  C 131.20 81.52 131.01 96.66 128.54 102.55
  Z" fill="#ffffff"></path>
<path d="M 30.94 74.51
  A 1.15 1.15 0.0 0 1 32.09 73.36
  L 39.45 73.36
  A 5.85 5.09 -0.0 0 1 45.30 78.45
  L 45.30 78.93
  A 5.85 5.09 -0.0 0 1 39.45 84.02
  L 32.09 84.02
  A 1.15 1.15 0.0 0 1 30.94 82.87
  L 30.94 74.51
  Z" fill="#ffffff"></path>
<path d="M 30.96 96.89
  A 1.18 1.18 0.0 0 1 32.14 95.72
  L 39.52 95.74
  A 6.26 5.44 0.2 0 1 45.76 101.21
  L 45.76 101.61
  A 6.26 5.44 0.2 0 1 39.48 107.02
  L 32.10 107.00
  A 1.18 1.18 0.0 0 1 30.92 105.81
  L 30.96 96.89
  Z" fill="#ffffff"></path>
<rect rx="1.49" height="15.32" width="16.02" transform="translate(161.22,110.82) rotate(0.1)" y="-7.66" x="-8.01" fill="#4d206f"></rect>
</svg>
