<svg viewBox="0.00 0.00 192.00 192.00" version="1.1" xmlns="http://www.w3.org/2000/svg">
<path d="M 178.46 169.26
  Q 173.85 187.91 156.63 191.15" stroke-linecap="butt" fill="none" stroke-width="2.00" stroke="#99999a"></path>
<path d="M 91.35 60.30
  L 84.95 52.56
  A 0.11 0.11 0.0 0 1 84.95 52.42
  L 131.10 0.49
  A 0.11 0.11 0.0 0 1 131.25 0.47
  L 131.41 0.60
  A 0.11 0.11 0.0 0 1 131.43 0.74
  L 91.52 60.29
  A 0.11 0.11 0.0 0 1 91.35 60.30
  Z" fill="#ed1b24"></path>
<path d="M 52.68 13.29
  Q 70.19 26.97 87.64 40.56
  A 0.30 0.30 0.0 0 1 87.68 41.00
  L 81.36 48.13
  A 0.50 0.50 0.0 0 1 80.60 48.12
  L 51.68 13.27
  Q 50.67 12.06 52.08 12.84
  Q 52.16 12.88 52.68 13.29
  Z" fill="#3a3a3c"></path>
<path d="M 37.26 76.00
  C 27.66 77.55 20.18 83.47 20.17 93.54
  Q 20.15 122.64 20.15 151.75
  C 20.15 159.25 24.87 165.02 31.51 167.77
  Q 34.37 168.96 41.66 169.60
  Q 97.28 174.47 152.92 179.16
  Q 152.94 179.16 152.92 179.17
  Q 149.73 179.64 146.50 179.58
  Q 92.63 178.69 38.76 177.74
  Q 25.08 177.51 16.82 167.43
  C 12.63 162.31 11.54 156.95 11.53 149.84
  Q 11.49 122.90 11.54 95.96
  Q 11.55 88.53 12.93 84.73
  C 15.64 77.26 22.06 71.51 29.49 68.87
  Q 33.03 67.62 40.68 66.96
  Q 95.97 62.22 151.26 57.26
  Q 151.53 57.24 151.56 57.50
  L 151.60 57.76
  Q 151.61 57.82 151.53 57.83
  Q 94.37 66.80 37.26 76.00
  Z" fill="#ed1b24"></path>
<path d="M 178.46 169.26
  Q 173.85 187.91 156.63 191.15
  Q 153.91 191.36 152.50 191.23
  Q 100.50 186.70 48.50 182.21
  Q 43.06 181.74 37.62 181.12
  Q 37.62 181.12 37.62 181.12
  Q 37.62 181.12 37.63 181.12
  C 41.74 180.73 46.29 181.31 49.79 181.25
  Q 57.03 181.12 64.26 181.24
  Q 106.00 181.90 147.75 182.58
  C 151.59 182.64 155.86 183.03 159.30 181.52
  Q 165.84 178.66 168.52 172.29
  Q 169.90 169.01 169.91 162.49
  Q 169.96 126.01 169.91 89.53
  Q 169.91 82.77 168.51 79.47
  C 165.98 73.49 160.14 68.88 153.26 69.44
  Q 96.15 74.10 39.08 79.20
  Q 38.85 79.22 38.82 78.98
  L 38.82 78.97
  Q 38.79 78.74 39.02 78.70
  Q 94.64 69.90 150.26 61.01
  C 162.59 59.04 173.05 66.53 177.11 77.84
  Q 178.48 81.65 178.50 88.83
  Q 178.62 129.29 178.46 169.26
  Z" fill="#3a3a3c"></path>
<path d="M 78.23 101.89
  L 113.10 125.52
  A 0.33 0.33 0.0 0 1 113.09 126.07
  L 77.82 149.09
  A 0.33 0.33 0.0 0 1 77.31 148.81
  L 77.71 102.16
  A 0.33 0.33 0.0 0 1 78.23 101.89
  Z" fill="#ed1b24"></path>
<path d="M 178.46 169.26
  L 178.47 190.67
  Q 178.47 191.20 177.94 191.20
  L 156.63 191.15
  Q 173.85 187.91 178.46 169.26
  Z" fill="#f7f7f7"></path>
</svg>
