<svg viewBox="0.00 0.00 100.00 100.00" version="1.1" xmlns="http://www.w3.org/2000/svg">
<g stroke-linecap="butt" fill="none" stroke-width="2.00">
<path d="M 33.46 22.48
  A 3.24 3.24 0.0 0 0 30.22 19.24
  A 3.24 3.24 0.0 0 0 26.98 22.48
  A 3.24 3.24 0.0 0 0 30.22 25.72
  A 3.24 3.24 0.0 0 0 33.46 22.48" stroke="#cdc2d0"></path>
<path d="M 33.50 30.51
  A 3.22 3.22 0.0 0 0 30.28 27.29
  L 30.10 27.29
  A 3.22 3.22 0.0 0 0 26.88 30.51
  L 26.88 54.41
  A 3.22 3.22 0.0 0 0 30.10 57.63
  L 30.28 57.63
  A 3.22 3.22 0.0 0 0 33.50 54.41
  L 33.50 30.51" stroke="#96819e"></path>
<path d="M 60.5005 30.5858
  A 3.28 3.28 0.0 0 0 57.2262 27.3001
  L 57.1262 27.3000
  A 3.28 3.28 0.0 0 0 53.8405 30.5742
  L 53.7595 76.9342
  A 3.28 3.28 0.0 0 0 57.0338 80.2199
  L 57.1338 80.2200
  A 3.28 3.28 0.0 0 0 60.4195 76.9458
  L 60.5005 30.5858" stroke="#96819e"></path>
<path d="M 46.83 41.07
  A 3.16 3.16 0.0 0 0 43.67 37.91
  L 43.47 37.91
  A 3.16 3.16 0.0 0 0 40.31 41.07
  L 40.31 61.03
  A 3.16 3.16 0.0 0 0 43.47 64.19
  L 43.67 64.19
  A 3.16 3.16 0.0 0 0 46.83 61.03
  L 46.83 41.07" stroke="#96819e"></path>
<path d="M 72.98 45.99
  A 3.20 3.20 0.0 0 0 69.78 42.79
  A 3.20 3.20 0.0 0 0 66.58 45.99
  A 3.20 3.20 0.0 0 0 69.78 49.19
  A 3.20 3.20 0.0 0 0 72.98 45.99" stroke="#cdc2d0"></path>
<path d="M 73.0679 53.9843
  A 3.16 3.16 0.0 0 0 69.9024 50.8298
  L 69.6424 50.8302
  A 3.16 3.16 0.0 0 0 66.4879 53.9958
  L 66.5121 67.8757
  A 3.16 3.16 0.0 0 0 69.6776 71.0302
  L 69.9376 71.0298
  A 3.16 3.16 0.0 0 0 73.0921 67.8642
  L 73.0679 53.9843" stroke="#96819e"></path>
<path d="M 46.82 69.21
  A 3.24 3.24 0.0 0 0 43.58 65.97
  A 3.24 3.24 0.0 0 0 40.34 69.21
  A 3.24 3.24 0.0 0 0 43.58 72.45
  A 3.24 3.24 0.0 0 0 46.82 69.21" stroke="#cdc2d0"></path>
</g>
<path d="M 0.00 0.00
  L 100.00 0.00
  L 100.00 100.00
  L 0.00 100.00
  L 0.00 0.00
  Z
  M 33.46 22.48
  A 3.24 3.24 0.0 0 0 30.22 19.24
  A 3.24 3.24 0.0 0 0 26.98 22.48
  A 3.24 3.24 0.0 0 0 30.22 25.72
  A 3.24 3.24 0.0 0 0 33.46 22.48
  Z
  M 33.50 30.51
  A 3.22 3.22 0.0 0 0 30.28 27.29
  L 30.10 27.29
  A 3.22 3.22 0.0 0 0 26.88 30.51
  L 26.88 54.41
  A 3.22 3.22 0.0 0 0 30.10 57.63
  L 30.28 57.63
  A 3.22 3.22 0.0 0 0 33.50 54.41
  L 33.50 30.51
  Z
  M 60.5005 30.5858
  A 3.28 3.28 0.0 0 0 57.2262 27.3001
  L 57.1262 27.3000
  A 3.28 3.28 0.0 0 0 53.8405 30.5742
  L 53.7595 76.9342
  A 3.28 3.28 0.0 0 0 57.0338 80.2199
  L 57.1338 80.2200
  A 3.28 3.28 0.0 0 0 60.4195 76.9458
  L 60.5005 30.5858
  Z
  M 46.83 41.07
  A 3.16 3.16 0.0 0 0 43.67 37.91
  L 43.47 37.91
  A 3.16 3.16 0.0 0 0 40.31 41.07
  L 40.31 61.03
  A 3.16 3.16 0.0 0 0 43.47 64.19
  L 43.67 64.19
  A 3.16 3.16 0.0 0 0 46.83 61.03
  L 46.83 41.07
  Z
  M 72.98 45.99
  A 3.20 3.20 0.0 0 0 69.78 42.79
  A 3.20 3.20 0.0 0 0 66.58 45.99
  A 3.20 3.20 0.0 0 0 69.78 49.19
  A 3.20 3.20 0.0 0 0 72.98 45.99
  Z
  M 73.0679 53.9843
  A 3.16 3.16 0.0 0 0 69.9024 50.8298
  L 69.6424 50.8302
  A 3.16 3.16 0.0 0 0 66.4879 53.9958
  L 66.5121 67.8757
  A 3.16 3.16 0.0 0 0 69.6776 71.0302
  L 69.9376 71.0298
  A 3.16 3.16 0.0 0 0 73.0921 67.8642
  L 73.0679 53.9843
  Z
  M 46.82 69.21
  A 3.24 3.24 0.0 0 0 43.58 65.97
  A 3.24 3.24 0.0 0 0 40.34 69.21
  A 3.24 3.24 0.0 0 0 43.58 72.45
  A 3.24 3.24 0.0 0 0 46.82 69.21
  Z" fill="#ffffff"></path>
<circle r="3.24" cy="22.48" cx="30.22" fill="#9a84a1"></circle>
<rect rx="3.22" height="30.34" width="6.62" y="27.29" x="26.88" fill="#2d023c"></rect>
<rect rx="3.28" height="52.92" width="6.66" transform="translate(57.13,53.76) rotate(0.1)" y="-26.46" x="-3.33" fill="#2d023c"></rect>
<rect rx="3.16" height="26.28" width="6.52" y="37.91" x="40.31" fill="#2d023c"></rect>
<circle r="3.20" cy="45.99" cx="69.78" fill="#9a84a1"></circle>
<rect rx="3.16" height="20.20" width="6.58" transform="translate(69.79,60.93) rotate(-0.1)" y="-10.10" x="-3.29" fill="#2d023c"></rect>
<circle r="3.24" cy="69.21" cx="43.58" fill="#9a84a1"></circle>
</svg>
