<svg viewBox="0.00 0.00 256.00 256.00" version="1.1" xmlns="http://www.w3.org/2000/svg">
<g stroke-linecap="butt" fill="none" stroke-width="2.00">
<path d="M 132.75 41.49
  L 134.38 41.50
  Q 134.95 41.50 135.01 40.94
  L 139.04 7.12" stroke="#606d4b"></path>
<path d="M 139.04 7.12
  L 117.63 7.05
  A 0.61 0.60 86.6 0 0 117.03 7.73
  L 120.97 41.04
  A 0.53 0.52 86.3 0 0 121.49 41.50
  L 132.75 41.49" stroke="#576e51"></path>
<path d="M 139.04 7.12
  Q 135.05 6.75 133.51 7.84
  Q 132.43 8.61 133.12 9.57
  Q 133.35 9.90 133.32 10.30
  Q 133.08 13.40 132.98 16.51
  Q 132.97 16.75 133.07 16.98
  C 133.25 17.38 133.41 17.66 133.36 18.11
  Q 132.05 29.84 132.75 41.49" stroke="#b7db9b"></path>
<path d="M 94.24 40.71
  Q 82.53 45.68 74.29 55.17
  A 0.92 0.91 43.3 0 0 74.33 56.40
  L 88.68 71.09
  A 0.73 0.73 0.0 0 0 89.56 71.22
  L 95.36 68.07" stroke="#376c70"></path>
<path d="M 95.36 68.07
  Q 104.43 64.15 112.86 62.67" stroke="#3e7262"></path>
<path d="M 112.86 62.67
  L 126.39 61.22" stroke="#49705a"></path>
<path d="M 126.39 61.22
  L 133.40 61.40" stroke="#576e51"></path>
<path d="M 133.40 61.40
  Q 142.82 62.10 152.25 64.86" stroke="#74693d"></path>
<path d="M 152.25 64.86
  Q 159.60 67.21 166.47 71.22
  Q 166.96 71.50 167.35 71.10
  L 181.68 56.45
  A 0.97 0.97 0.0 0 0 181.71 55.13
  Q 170.37 42.27 152.50 37.35" stroke="#7c6738"></path>
<path d="M 152.50 37.35
  L 146.99 35.82
  A 0.54 0.53 -78.7 0 0 146.32 36.27
  L 144.50 51.75
  Q 144.44 52.24 143.95 52.24
  L 131.31 52.27" stroke="#74693d"></path>
<path d="M 131.31 52.27
  L 124.97 52.28" stroke="#576e51"></path>
<path d="M 124.97 52.28
  L 111.77 52.29" stroke="#49705a"></path>
<path d="M 111.77 52.29
  L 109.80 36.47
  A 0.70 0.69 -9.5 0 0 108.96 35.88
  Q 101.42 37.50 94.24 40.71" stroke="#3e7262"></path>
<path d="M 111.77 52.29
  L 112.86 62.67" stroke="#87e2bc"></path>
<path d="M 95.36 68.07
  Q 94.10 64.25 94.17 59.50
  Q 94.29 51.13 94.33 42.76
  Q 94.33 42.58 94.60 41.84
  Q 94.70 41.58 94.63 41.24
  Q 94.61 41.13 94.54 41.21
  Q 94.39 41.37 94.19 41.44
  Q 93.69 41.63 93.97 41.17
  L 94.24 40.71" stroke="#75ded2"></path>
<path d="M 124.97 52.28
  L 126.39 61.22" stroke="#a0deab"></path>
<path d="M 152.50 37.35
  L 152.25 64.86" stroke="#f0d075"></path>
<path d="M 133.40 61.40
  C 131.32 59.31 132.21 57.32 131.80 55.26
  Q 131.52 53.80 131.31 52.27" stroke="#cbd78e"></path>
<path d="M 54.78 94.81
  A 0.42 0.42 0.0 0 0 55.16 95.41
  L 82.97 95.38
  A 0.42 0.42 0.0 0 0 83.39 94.95
  L 82.90 80.71
  A 0.42 0.42 0.0 0 0 82.78 80.43
  L 68.85 66.07
  A 0.42 0.42 0.0 0 0 68.17 66.18
  L 54.78 94.81" stroke="#356a74"></path>
<path d="M 172.61 95.04
  A 0.34 0.34 0.0 0 0 172.95 95.39
  L 200.96 95.43
  A 0.34 0.34 0.0 0 0 201.26 94.95
  L 187.78 66.04
  A 0.34 0.34 0.0 0 0 187.23 65.94
  L 173.19 80.41
  A 0.34 0.34 0.0 0 0 173.10 80.63
  L 172.61 95.04" stroke="#7e6144"></path>
<path d="M 126.79 71.89
  L 122.89 72.19" stroke="#576e51"></path>
<path d="M 122.89 72.19
  L 110.44 74.17" stroke="#49705a"></path>
<path d="M 110.44 74.17
  Q 101.72 76.10 94.19 80.96
  A 0.92 0.92 0.0 0 0 93.76 81.74
  C 93.57 101.59 97.13 128.62 112.54 143.27" stroke="#3e7262"></path>
<path d="M 112.54 143.27
  Q 117.47 147.79 123.63 149.79" stroke="#49705a"></path>
<path d="M 123.63 149.79
  Q 125.83 150.73 128.48 150.80" stroke="#576e51"></path>
<path d="M 128.48 150.80
  Q 134.13 149.80 138.44 146.96" stroke="#606d4b"></path>
<path d="M 138.44 146.96
  L 144.85 141.98" stroke="#6a6b44"></path>
<path d="M 144.85 141.98
  Q 151.26 134.98 155.00 125.77" stroke="#74693d"></path>
<path d="M 155.00 125.77
  Q 162.72 104.49 162.16 81.61
  Q 162.15 81.10 161.69 80.86
  L 154.46 77.08" stroke="#7c6738"></path>
<path d="M 154.46 77.08
  L 144.43 73.91" stroke="#74693d"></path>
<path d="M 144.43 73.91
  L 139.42 72.89" stroke="#6a6b44"></path>
<path d="M 139.42 72.89
  L 126.79 71.89" stroke="#606d4b"></path>
<path d="M 139.42 72.89
  Q 138.28 74.05 138.28 75.25
  Q 138.46 110.85 138.44 146.96" stroke="#cad88e"></path>
<path d="M 128.48 150.80
  Q 128.89 142.30 128.39 133.99
  C 128.29 132.39 128.63 130.68 128.55 129.03
  Q 128.37 125.54 128.37 125.46
  Q 128.42 114.61 128.05 103.76
  Q 127.82 97.23 128.65 90.75
  Q 128.74 90.09 128.52 89.50
  Q 128.35 89.04 128.36 88.54
  Q 128.51 80.63 128.12 72.69
  Q 128.09 72.08 127.76 71.95
  Q 127.42 71.81 126.79 71.89" stroke="#b7db9b"></path>
<path d="M 123.63 149.79
  Q 123.89 149.40 123.89 149.01
  Q 123.89 148.87 123.75 148.87
  Q 123.60 148.87 123.44 148.87
  Q 123.05 148.87 123.06 148.47
  Q 123.11 146.11 123.15 143.75
  Q 123.54 118.34 123.03 112.39
  A 30.90 7.93 -77.8 0 1 122.88 108.51
  L 122.89 72.19" stroke="#a0deab"></path>
<path d="M 144.43 73.91
  L 145.12 98.13
  A 8.63 1.00 89.5 0 1 145.13 99.35
  L 144.85 141.98" stroke="#ded481"></path>
<path d="M 112.54 143.27
  Q 112.92 141.24 112.05 138.74
  Q 111.50 137.14 111.58 133.91
  C 111.62 132.49 112.21 130.90 112.00 129.20
  Q 111.62 126.05 111.62 125.75
  Q 111.74 103.19 111.35 80.64
  C 111.31 78.42 110.77 76.40 110.44 74.17" stroke="#87e2bc"></path>
<path d="M 154.46 77.08
  C 154.72 81.30 155.29 85.52 155.31 89.74
  Q 155.31 91.09 155.64 92.74
  Q 155.73 93.20 155.43 93.72
  Q 155.20 94.13 155.27 94.60
  Q 155.53 96.27 155.27 97.94
  Q 155.19 98.44 155.27 98.93
  Q 155.56 100.61 155.10 102.50
  Q 155.05 102.72 155.18 102.92
  Q 155.37 103.21 155.36 103.55
  Q 155.00 112.48 154.76 121.41
  Q 154.75 121.50 154.82 121.56
  Q 154.92 121.66 155.02 121.76
  Q 155.12 121.86 155.04 121.98
  Q 154.55 122.68 154.62 123.49
  A 1.78 1.73 -38.1 0 1 154.51 124.29
  Q 153.93 125.82 155.00 125.77" stroke="#f0d075"></path>
<path d="M 42.95 120.21
  L 20.06 169.29
  Q 19.81 169.82 20.33 170.10
  L 42.71 182.41" stroke="#3a5f80"></path>
<path d="M 42.71 182.41
  L 58.51 191.00" stroke="#32657e"></path>
<path d="M 58.51 191.00
  L 62.89 202.15" stroke="#356a74"></path>
<path d="M 62.89 202.15
  L 89.50 202.09" stroke="#376c70"></path>
<path d="M 89.50 202.09
  L 106.45 202.10" stroke="#3a7167"></path>
<path d="M 106.45 202.10
  L 113.71 202.16
  A 0.37 0.36 -3.9 0 0 114.08 201.74
  L 109.94 177.19
  Q 109.85 176.68 109.34 176.67
  L 105.71 176.56" stroke="#3e7262"></path>
<path d="M 105.71 176.56
  L 87.43 176.54" stroke="#3a7167"></path>
<path d="M 87.43 176.54
  L 68.03 176.56" stroke="#376c70"></path>
<path d="M 68.03 176.56
  L 62.58 176.55
  Q 62.08 176.55 61.74 176.92
  Q 59.67 179.15 56.75 180.02" stroke="#356a74"></path>
<path d="M 56.75 180.02
  C 42.03 182.00 42.68 159.30 57.74 162.59" stroke="#32657e"></path>
<path d="M 57.74 162.59
  Q 59.90 163.59 61.67 165.37
  Q 62.03 165.73 62.55 165.73
  L 85.03 165.75" stroke="#356a74"></path>
<path d="M 85.03 165.75
  L 107.35 165.83
  A 0.52 0.52 0.0 0 0 107.87 165.22
  L 105.70 152.27
  A 1.93 1.91 16.9 0 0 105.12 151.20
  Q 100.03 146.50 96.43 140.58
  Q 96.16 140.13 95.63 140.13
  L 77.46 140.15" stroke="#3a7167"></path>
<path d="M 77.46 140.15
  L 62.67 140.18
  Q 62.15 140.18 61.75 140.50
  L 58.34 143.18" stroke="#356a74"></path>
<path d="M 58.34 143.18
  C 46.17 146.28 40.78 131.29 52.27 126.08" stroke="#32657e"></path>
<path d="M 52.27 126.08
  C 56.52 125.08 58.89 126.42 61.76 129.01
  Q 62.16 129.37 62.70 129.37
  L 90.26 129.39
  A 0.43 0.42 -10.7 0 0 90.66 128.81
  Q 86.53 118.04 84.89 106.62
  A 0.67 0.66 -4.0 0 0 84.23 106.05
  L 56.86 106.00" stroke="#356a74"></path>
<path d="M 56.86 106.00
  L 50.14 106.00
  Q 49.53 106.00 49.27 106.55
  L 42.95 120.21" stroke="#32657e"></path>
<path d="M 56.86 106.00
  Q 56.59 107.08 55.37 107.58
  Q 54.90 107.78 54.96 108.29
  Q 55.29 111.17 55.71 114.04
  Q 55.92 115.46 55.78 117.94
  C 55.68 119.70 56.21 121.39 56.08 123.07
  Q 56.01 123.91 56.36 124.24
  Q 58.01 125.76 55.81 125.32
  Q 54.03 124.97 52.27 126.08" stroke="#67cff2"></path>
<path d="M 58.34 143.18
  L 59.24 158.93
  Q 59.26 159.39 59.06 159.80
  Q 58.78 160.38 59.04 160.92
  Q 59.26 161.37 59.02 161.80
  Q 58.50 162.76 57.74 162.59" stroke="#67cff2"></path>
<path d="M 56.75 180.02
  Q 58.51 183.83 58.55 188.26
  Q 58.56 189.52 58.51 191.00" stroke="#67cff2"></path>
<path d="M 42.71 182.41
  Q 40.78 172.63 41.55 162.49
  C 41.70 160.51 41.37 158.56 41.46 156.50
  C 41.76 149.78 41.16 143.03 41.37 136.28
  Q 41.38 135.80 41.58 135.28
  C 42.34 133.30 41.17 130.09 41.69 127.59
  Q 42.45 123.95 42.95 120.21" stroke="#6cc4fe"></path>
<path d="M 77.46 140.15
  L 82.70 140.24
  A 0.13 0.13 0.0 0 1 82.75 140.48
  Q 82.60 140.56 82.44 140.62
  Q 82.15 140.74 82.10 141.05
  Q 82.02 141.47 82.50 141.50
  A 0.17 0.17 0.0 0 1 82.61 141.79
  L 82.38 142.02
  Q 82.12 142.28 82.25 142.63
  C 84.29 148.11 82.67 155.64 83.12 159.75
  Q 83.47 162.88 83.25 164.80
  Q 83.19 165.27 83.65 165.39
  L 85.03 165.75" stroke="#6fdbda"></path>
<path d="M 68.03 176.56
  Q 68.34 176.63 68.53 176.77
  A 0.15 0.14 -28.3 0 1 68.45 177.03
  Q 67.92 177.08 67.74 177.38
  Q 67.63 177.56 67.68 177.89
  C 67.97 179.70 67.84 181.14 68.26 183.12
  C 68.86 185.98 68.22 189.53 68.33 192.79
  C 68.41 194.99 67.69 198.08 68.87 200.95
  Q 68.90 201.02 68.85 201.07
  L 68.57 201.35
  Q 68.29 201.63 68.68 201.63
  L 69.25 201.63
  Q 69.90 201.63 69.36 202.01
  Q 69.23 202.10 69.00 202.10
  Q 66.76 202.11 62.89 202.15" stroke="#6cd6e4"></path>
<path d="M 87.43 176.54
  Q 87.16 187.74 86.87 198.89
  Q 86.83 200.67 89.50 202.09" stroke="#71ddd7"></path>
<path d="M 105.71 176.56
  Q 106.06 176.98 105.46 177.59
  Q 105.33 177.73 105.51 177.77
  L 105.86 177.86
  Q 106.18 177.94 106.15 178.27
  Q 105.92 180.58 106.60 182.76
  Q 106.64 182.87 106.58 182.96
  Q 106.51 183.09 106.41 183.22
  Q 106.20 183.53 106.18 183.91
  Q 105.99 187.91 106.20 191.91
  Q 106.20 191.99 106.29 192.00
  Q 106.34 192.01 106.38 192.02
  Q 106.69 192.15 106.69 192.25
  L 106.90 200.37
  A 1.92 1.02 -84.8 0 0 107.54 201.90
  Q 107.66 201.96 108.01 201.89
  A 0.01 0.01 0.0 0 0 108.01 201.87
  Q 107.19 201.73 106.45 202.10" stroke="#78e3c8"></path>
<path d="M 185.74 129.39
  L 193.41 129.34
  Q 193.94 129.34 194.31 128.96
  Q 197.02 126.14 200.76 125.82" stroke="#7e6144"></path>
<path d="M 200.76 125.82
  C 213.85 125.62 212.73 145.54 199.19 143.57" stroke="#7f594e"></path>
<path d="M 199.19 143.57
  Q 196.13 142.47 193.54 140.09" stroke="#7e6144"></path>
<path d="M 193.54 140.09
  L 160.02 140.05" stroke="#7e6340"></path>
<path d="M 160.02 140.05
  Q 156.26 146.05 150.98 151.47
  Q 150.25 152.22 150.07 153.28
  Q 149.10 159.14 148.11 164.98
  A 0.78 0.77 4.7 0 0 148.88 165.88
  L 173.02 165.74" stroke="#7c6738"></path>
<path d="M 173.02 165.74
  L 184.44 165.81" stroke="#7e6340"></path>
<path d="M 184.44 165.81
  L 193.45 165.76
  Q 193.98 165.76 194.34 165.38
  Q 196.55 163.08 199.40 162.35" stroke="#7e6144"></path>
<path d="M 199.40 162.35
  C 212.22 160.73 214.08 178.95 201.44 180.22" stroke="#7f594e"></path>
<path d="M 201.44 180.22
  Q 197.16 180.11 194.27 176.92
  A 1.15 1.14 68.6 0 0 193.43 176.55
  L 187.73 176.54" stroke="#7e6144"></path>
<path d="M 187.73 176.54
  L 167.95 176.54" stroke="#7e6340"></path>
<path d="M 167.95 176.54
  L 152.27 176.54" stroke="#7c6738"></path>
<path d="M 152.27 176.54
  L 146.80 176.57
  Q 146.18 176.57 146.07 177.19
  L 141.99 201.51
  A 0.58 0.57 -85.3 0 0 142.55 202.18
  L 152.81 202.19" stroke="#74693d"></path>
<path d="M 152.81 202.19
  L 165.28 202.14" stroke="#7c6738"></path>
<path d="M 165.28 202.14
  L 186.52 202.14" stroke="#7e6340"></path>
<path d="M 186.52 202.14
  L 192.89 202.16
  Q 193.33 202.16 193.48 201.75
  L 197.23 191.70
  A 1.58 1.58 0.0 0 1 197.95 190.85
  L 200.99 189.16" stroke="#7e6144"></path>
<path d="M 200.99 189.16
  L 235.70 170.05
  A 0.58 0.57 -27.1 0 0 235.94 169.31
  L 206.47 106.16" stroke="#7f594e"></path>
<path d="M 206.47 106.16
  L 197.71 106.09" stroke="#7e6144"></path>
<path d="M 197.71 106.09
  L 171.98 105.97
  A 0.94 0.94 0.0 0 0 171.04 106.77
  Q 169.41 118.22 165.29 129.01
  A 0.29 0.29 0.0 0 0 165.56 129.40
  L 185.74 129.39" stroke="#7e6340"></path>
<path d="M 197.71 106.09
  L 184.01 106.80
  Q 183.68 106.82 183.99 106.93
  L 184.28 107.03
  Q 184.53 107.12 184.53 107.39
  L 184.07 126.48
  A 0.38 0.38 0.0 0 0 184.17 126.76
  Q 185.02 127.73 184.47 127.86
  Q 183.71 128.05 184.21 128.65
  Q 184.83 129.39 185.74 129.39" stroke="#fcc383"></path>
<path d="M 206.47 106.16
  Q 202.29 105.67 199.39 106.90
  Q 198.92 107.10 198.92 107.62
  Q 198.94 112.18 198.94 116.73
  C 198.95 119.06 199.90 122.48 198.71 124.99
  Q 198.46 125.52 199.04 125.59
  L 200.76 125.82" stroke="#fdba92"></path>
<path d="M 200.99 189.16
  C 200.59 187.87 200.37 187.06 200.61 185.62
  Q 200.94 183.68 200.06 181.92
  Q 199.85 181.50 200.25 181.26
  Q 200.54 181.10 200.91 181.13
  Q 201.33 181.18 201.38 180.75
  L 201.44 180.22" stroke="#fdba92"></path>
<path d="M 199.40 162.35
  L 199.19 143.57" stroke="#fdba92"></path>
<path d="M 187.73 176.54
  Q 187.85 177.86 187.75 180.00
  Q 187.67 181.79 187.81 188.40
  C 187.83 189.29 187.42 190.22 187.80 191.28
  Q 188.42 193.00 188.44 193.09
  Q 188.79 195.40 188.28 197.68
  Q 188.17 198.18 188.33 198.66
  Q 188.72 199.86 188.39 201.01
  Q 188.36 201.13 188.24 201.13
  Q 188.10 201.13 187.97 201.12
  Q 187.27 201.11 187.68 201.69
  Q 187.95 202.07 188.40 201.93
  Q 188.53 201.89 188.40 201.87
  Q 187.48 201.78 186.52 202.14" stroke="#fcc383"></path>
<path d="M 193.54 140.09
  L 178.70 140.19
  A 0.75 0.75 0.0 0 0 178.07 141.35
  C 179.42 143.46 178.85 146.12 179.06 148.09
  Q 179.24 149.70 179.39 151.33
  Q 179.43 151.79 179.68 152.19
  Q 180.01 152.73 180.01 153.01
  C 179.93 156.16 180.00 161.82 181.98 163.92
  A 0.25 0.25 0.0 0 1 181.98 164.27
  L 181.73 164.51
  A 0.25 0.25 0.0 0 0 181.90 164.93
  Q 183.86 165.00 184.44 165.81" stroke="#fcc383"></path>
<path d="M 173.02 165.74
  C 168.02 164.81 170.19 161.55 169.59 158.76
  Q 168.16 152.12 168.36 145.34
  A 1.86 1.84 34.0 0 0 168.19 144.48
  Q 167.72 143.44 167.68 142.34
  Q 167.65 141.30 168.26 140.83
  Q 168.97 140.28 170.16 140.66
  A 0.11 0.11 0.0 0 0 170.31 140.56
  L 170.31 140.55
  Q 170.31 140.40 170.17 140.40
  L 160.02 140.05" stroke="#faca78"></path>
<path d="M 167.95 176.54
  L 167.17 199.02
  Q 167.16 199.50 167.41 199.90
  Q 167.74 200.41 167.61 200.88
  Q 167.40 201.66 166.91 201.95
  Q 166.40 202.24 165.28 202.14" stroke="#faca78"></path>
<path d="M 152.27 176.54
  Q 151.00 189.65 152.81 202.19" stroke="#f0d075"></path>
<path d="M 118.24 159.58
  A 0.33 0.33 0.0 0 0 117.83 159.96
  L 127.66 218.23
  A 0.33 0.33 0.0 0 0 128.32 218.23
  L 138.16 159.94
  A 0.33 0.33 0.0 0 0 137.75 159.57
  L 128.17 162.03
  A 0.33 0.33 0.0 0 1 128.01 162.03
  L 118.24 159.58" stroke="#576e51"></path>
<path d="M 27.40 199.70
  C 12.01 210.78 8.13 230.62 10.73 248.49
  Q 10.79 248.95 11.26 248.95
  L 30.47 248.92" stroke="#455a80"></path>
<path d="M 30.47 248.92
  L 44.46 248.94" stroke="#3a5f80"></path>
<path d="M 44.46 248.94
  L 68.19 248.96
  A 0.36 0.36 0.0 0 0 68.53 248.48
  L 50.20 199.22
  Q 49.98 198.65 49.45 198.36
  L 43.63 195.22" stroke="#32657e"></path>
<path d="M 43.63 195.22
  L 41.32 193.90
  Q 40.86 193.64 40.35 193.77
  Q 33.09 195.60 27.40 199.70" stroke="#3a5f80"></path>
<path d="M 43.63 195.22
  Q 41.84 194.51 42.00 197.53
  Q 42.13 199.85 42.13 199.98
  Q 42.13 220.71 42.13 241.45
  C 42.13 243.40 43.04 245.38 42.34 247.75
  Q 42.20 248.24 41.70 248.14
  Q 41.24 248.05 40.82 248.21
  Q 40.20 248.46 40.87 248.53
  L 44.46 248.94" stroke="#6cc4fe"></path>
<path d="M 30.47 248.92
  L 25.13 248.67
  A 0.01 0.01 0.0 0 1 25.13 248.65
  L 26.86 248.16
  Q 27.29 248.04 27.29 247.59
  L 27.40 199.70" stroke="#7fb9ff"></path>
<path d="M 205.75 199.34
  L 187.33 248.86" stroke="#7f5d4a"></path>
<path d="M 187.33 248.86
  L 215.24 248.90" stroke="#7f594e"></path>
<path d="M 215.24 248.90
  L 244.87 248.94
  Q 245.42 248.94 245.48 248.40
  C 247.89 227.40 242.56 204.75 221.39 195.75" stroke="#7f524f"></path>
<path d="M 221.39 195.75
  L 215.67 193.83
  Q 215.19 193.67 214.76 193.94
  L 205.75 199.34" stroke="#7f594e"></path>
<path d="M 221.39 195.75
  Q 221.84 198.35 221.66 201.27
  Q 221.37 206.12 221.37 206.74
  Q 221.32 226.74 220.84 247.64
  A 0.93 0.93 0.0 0 0 221.80 248.59
  Q 222.89 248.55 223.87 248.63
  Q 223.88 248.63 223.88 248.63
  Q 223.88 248.64 223.88 248.65
  Q 223.88 248.67 223.84 248.67
  L 215.24 248.90" stroke="#feab9d"></path>
<path d="M 187.33 248.86
  Q 199.08 248.48 203.51 248.46
  Q 204.68 248.45 205.45 247.90
  Q 205.83 247.63 205.54 247.25
  C 204.48 245.87 205.23 242.14 205.82 240.62
  A 1.65 1.60 50.1 0 0 205.89 239.67
  C 205.38 237.58 206.20 235.77 206.07 233.91
  Q 205.61 227.47 206.24 221.05
  C 206.37 219.70 205.92 218.34 206.20 216.85
  C 206.93 212.93 207.41 209.29 207.06 204.39
  Q 207.00 203.60 207.22 201.80
  Q 207.52 199.46 205.75 199.34" stroke="#feb698"></path>
<path d="M 94.55 237.97
  L 113.70 237.94" stroke="#3a7167"></path>
<path d="M 113.70 237.94
  L 119.63 237.98
  Q 120.19 237.99 120.09 237.43
  L 116.10 213.59
  A 0.99 0.98 85.1 0 0 115.13 212.77
  L 108.72 212.82" stroke="#49705a"></path>
<path d="M 108.72 212.82
  L 84.95 212.81" stroke="#3a7167"></path>
<path d="M 84.95 212.81
  L 67.26 212.79
  A 0.44 0.44 0.0 0 0 66.85 213.38
  L 75.82 237.49
  A 0.87 0.86 79.8 0 0 76.63 238.06
  L 94.55 237.97" stroke="#376c70"></path>
<path d="M 84.95 212.81
  L 86.29 213.10
  Q 86.57 213.15 86.74 213.38
  Q 86.99 213.70 86.69 214.07
  Q 86.51 214.28 86.61 214.55
  Q 87.08 215.81 87.11 217.25
  Q 87.23 224.75 87.15 232.25
  Q 87.13 234.45 86.61 236.17
  A 0.79 0.78 11.5 0 0 87.28 237.18
  L 94.55 237.97" stroke="#71ddd7"></path>
<path d="M 108.72 212.82
  L 106.27 213.18
  A 0.30 0.30 0.0 0 0 106.25 213.77
  Q 107.08 213.97 106.79 214.95
  A 0.96 0.94 49.5 0 0 106.76 215.40
  Q 107.10 217.57 107.13 219.75
  Q 107.24 227.38 107.89 234.98
  Q 107.97 235.85 107.72 236.76
  Q 107.59 237.21 108.06 237.14
  Q 108.73 237.06 109.24 237.25
  Q 109.82 237.48 109.20 237.55
  Q 107.68 237.72 106.13 237.60
  Q 106.12 237.60 106.12 237.62
  Q 106.12 237.62 106.12 237.61
  Q 109.93 237.67 113.70 237.94" stroke="#83e1c1"></path>
<path d="M 146.23 237.93
  L 152.91 238.00" stroke="#74693d"></path>
<path d="M 152.91 238.00
  L 172.72 237.96" stroke="#7c6738"></path>
<path d="M 172.72 237.96
  L 179.44 238.02
  Q 179.98 238.02 180.16 237.52
  L 189.06 213.76
  Q 189.43 212.76 188.37 212.77
  L 165.05 212.82" stroke="#7e6340"></path>
<path d="M 165.05 212.82
  L 153.46 212.82" stroke="#7c6738"></path>
<path d="M 153.46 212.82
  L 144.24 212.81" stroke="#74693d"></path>
<path d="M 144.24 212.81
  L 140.51 212.78
  A 0.56 0.55 -85.0 0 0 139.97 213.24
  L 135.93 237.42
  Q 135.83 237.99 136.41 237.98
  L 146.23 237.93" stroke="#6a6b44"></path>
<path d="M 144.24 212.81
  Q 143.56 214.50 143.89 216.66
  Q 144.37 219.74 144.38 220.40
  Q 144.61 230.07 144.12 236.02
  Q 143.96 237.91 146.23 237.93" stroke="#ded481"></path>
<path d="M 153.46 212.82
  L 153.10 212.87
  Q 152.69 212.93 152.69 213.34
  L 152.84 236.19
  Q 152.84 236.72 153.23 237.07
  Q 154.45 238.19 156.35 237.53
  Q 156.39 237.52 156.38 237.56
  Q 156.38 237.57 156.38 237.59
  A 0.07 0.06 -86.4 0 1 156.31 237.66
  Q 154.43 237.34 152.91 238.00" stroke="#f0d075"></path>
<path d="M 165.05 212.82
  Q 168.51 212.41 168.39 215.48
  Q 168.07 224.02 168.33 229.45
  C 168.42 231.33 167.96 234.13 168.73 236.63
  Q 168.77 236.77 168.74 236.88
  Q 168.70 237.02 168.62 237.13
  Q 168.45 237.37 168.74 237.41
  L 172.72 237.96" stroke="#faca78"></path>
</g>
<path d="M 109.01 0.00
  L 146.99 0.00
  L 143.77 27.38
  A 0.61 0.60 -81.5 0 0 144.26 28.05
  C 160.92 30.90 176.87 38.22 187.78 51.43
  Q 190.85 55.16 193.83 61.58
  Q 219.47 116.93 245.15 172.32
  A 0.61 0.61 0.0 0 1 244.89 173.11
  L 219.70 186.95
  A 0.25 0.25 0.0 0 0 219.74 187.40
  C 244.15 195.84 254.01 217.55 253.06 242.00
  Q 252.79 249.11 251.73 256.00
  L 177.29 256.00
  L 181.01 245.58
  A 0.27 0.26 10.2 0 0 180.75 245.22
  L 75.29 245.21
  A 0.35 0.35 0.0 0 0 74.96 245.68
  L 78.63 256.00
  L 4.23 256.00
  C 0.10 227.44 5.55 197.75 36.44 187.39
  A 0.19 0.19 0.0 0 0 36.47 187.04
  L 11.07 173.10
  A 0.57 0.56 27.3 0 1 10.83 172.37
  Q 36.79 116.33 62.70 60.47
  Q 65.25 54.96 68.16 51.49
  C 79.16 38.35 94.83 30.98 111.61 28.13
  Q 112.33 28.00 112.24 27.27
  L 109.01 0.00
  Z
  M 132.75 41.49
  L 134.38 41.50
  Q 134.95 41.50 135.01 40.94
  L 139.04 7.12
  L 117.63 7.05
  A 0.61 0.60 86.6 0 0 117.03 7.73
  L 120.97 41.04
  A 0.53 0.52 86.3 0 0 121.49 41.50
  L 132.75 41.49
  Z
  M 94.24 40.71
  Q 82.53 45.68 74.29 55.17
  A 0.92 0.91 43.3 0 0 74.33 56.40
  L 88.68 71.09
  A 0.73 0.73 0.0 0 0 89.56 71.22
  L 95.36 68.07
  Q 104.43 64.15 112.86 62.67
  L 126.39 61.22
  L 133.40 61.40
  Q 142.82 62.10 152.25 64.86
  Q 159.60 67.21 166.47 71.22
  Q 166.96 71.50 167.35 71.10
  L 181.68 56.45
  A 0.97 0.97 0.0 0 0 181.71 55.13
  Q 170.37 42.27 152.50 37.35
  L 146.99 35.82
  A 0.54 0.53 -78.7 0 0 146.32 36.27
  L 144.50 51.75
  Q 144.44 52.24 143.95 52.24
  L 131.31 52.27
  L 124.97 52.28
  L 111.77 52.29
  L 109.80 36.47
  A 0.70 0.69 -9.5 0 0 108.96 35.88
  Q 101.42 37.50 94.24 40.71
  Z
  M 54.78 94.81
  A 0.42 0.42 0.0 0 0 55.16 95.41
  L 82.97 95.38
  A 0.42 0.42 0.0 0 0 83.39 94.95
  L 82.90 80.71
  A 0.42 0.42 0.0 0 0 82.78 80.43
  L 68.85 66.07
  A 0.42 0.42 0.0 0 0 68.17 66.18
  L 54.78 94.81
  Z
  M 172.61 95.04
  A 0.34 0.34 0.0 0 0 172.95 95.39
  L 200.96 95.43
  A 0.34 0.34 0.0 0 0 201.26 94.95
  L 187.78 66.04
  A 0.34 0.34 0.0 0 0 187.23 65.94
  L 173.19 80.41
  A 0.34 0.34 0.0 0 0 173.10 80.63
  L 172.61 95.04
  Z
  M 126.79 71.89
  L 122.89 72.19
  L 110.44 74.17
  Q 101.72 76.10 94.19 80.96
  A 0.92 0.92 0.0 0 0 93.76 81.74
  C 93.57 101.59 97.13 128.62 112.54 143.27
  Q 117.47 147.79 123.63 149.79
  Q 125.83 150.73 128.48 150.80
  Q 134.13 149.80 138.44 146.96
  L 144.85 141.98
  Q 151.26 134.98 155.00 125.77
  Q 162.72 104.49 162.16 81.61
  Q 162.15 81.10 161.69 80.86
  L 154.46 77.08
  L 144.43 73.91
  L 139.42 72.89
  L 126.79 71.89
  Z
  M 42.95 120.21
  L 20.06 169.29
  Q 19.81 169.82 20.33 170.10
  L 42.71 182.41
  L 58.51 191.00
  L 62.89 202.15
  L 89.50 202.09
  L 106.45 202.10
  L 113.71 202.16
  A 0.37 0.36 -3.9 0 0 114.08 201.74
  L 109.94 177.19
  Q 109.85 176.68 109.34 176.67
  L 105.71 176.56
  L 87.43 176.54
  L 68.03 176.56
  L 62.58 176.55
  Q 62.08 176.55 61.74 176.92
  Q 59.67 179.15 56.75 180.02
  C 42.03 182.00 42.68 159.30 57.74 162.59
  Q 59.90 163.59 61.67 165.37
  Q 62.03 165.73 62.55 165.73
  L 85.03 165.75
  L 107.35 165.83
  A 0.52 0.52 0.0 0 0 107.87 165.22
  L 105.70 152.27
  A 1.93 1.91 16.9 0 0 105.12 151.20
  Q 100.03 146.50 96.43 140.58
  Q 96.16 140.13 95.63 140.13
  L 77.46 140.15
  L 62.67 140.18
  Q 62.15 140.18 61.75 140.50
  L 58.34 143.18
  C 46.17 146.28 40.78 131.29 52.27 126.08
  C 56.52 125.08 58.89 126.42 61.76 129.01
  Q 62.16 129.37 62.70 129.37
  L 90.26 129.39
  A 0.43 0.42 -10.7 0 0 90.66 128.81
  Q 86.53 118.04 84.89 106.62
  A 0.67 0.66 -4.0 0 0 84.23 106.05
  L 56.86 106.00
  L 50.14 106.00
  Q 49.53 106.00 49.27 106.55
  L 42.95 120.21
  Z
  M 185.74 129.39
  L 193.41 129.34
  Q 193.94 129.34 194.31 128.96
  Q 197.02 126.14 200.76 125.82
  C 213.85 125.62 212.73 145.54 199.19 143.57
  Q 196.13 142.47 193.54 140.09
  L 160.02 140.05
  Q 156.26 146.05 150.98 151.47
  Q 150.25 152.22 150.07 153.28
  Q 149.10 159.14 148.11 164.98
  A 0.78 0.77 4.7 0 0 148.88 165.88
  L 173.02 165.74
  L 184.44 165.81
  L 193.45 165.76
  Q 193.98 165.76 194.34 165.38
  Q 196.55 163.08 199.40 162.35
  C 212.22 160.73 214.08 178.95 201.44 180.22
  Q 197.16 180.11 194.27 176.92
  A 1.15 1.14 68.6 0 0 193.43 176.55
  L 187.73 176.54
  L 167.95 176.54
  L 152.27 176.54
  L 146.80 176.57
  Q 146.18 176.57 146.07 177.19
  L 141.99 201.51
  A 0.58 0.57 -85.3 0 0 142.55 202.18
  L 152.81 202.19
  L 165.28 202.14
  L 186.52 202.14
  L 192.89 202.16
  Q 193.33 202.16 193.48 201.75
  L 197.23 191.70
  A 1.58 1.58 0.0 0 1 197.95 190.85
  L 200.99 189.16
  L 235.70 170.05
  A 0.58 0.57 -27.1 0 0 235.94 169.31
  L 206.47 106.16
  L 197.71 106.09
  L 171.98 105.97
  A 0.94 0.94 0.0 0 0 171.04 106.77
  Q 169.41 118.22 165.29 129.01
  A 0.29 0.29 0.0 0 0 165.56 129.40
  L 185.74 129.39
  Z
  M 118.24 159.58
  A 0.33 0.33 0.0 0 0 117.83 159.96
  L 127.66 218.23
  A 0.33 0.33 0.0 0 0 128.32 218.23
  L 138.16 159.94
  A 0.33 0.33 0.0 0 0 137.75 159.57
  L 128.17 162.03
  A 0.33 0.33 0.0 0 1 128.01 162.03
  L 118.24 159.58
  Z
  M 27.40 199.70
  C 12.01 210.78 8.13 230.62 10.73 248.49
  Q 10.79 248.95 11.26 248.95
  L 30.47 248.92
  L 44.46 248.94
  L 68.19 248.96
  A 0.36 0.36 0.0 0 0 68.53 248.48
  L 50.20 199.22
  Q 49.98 198.65 49.45 198.36
  L 43.63 195.22
  L 41.32 193.90
  Q 40.86 193.64 40.35 193.77
  Q 33.09 195.60 27.40 199.70
  Z
  M 205.75 199.34
  L 187.33 248.86
  L 215.24 248.90
  L 244.87 248.94
  Q 245.42 248.94 245.48 248.40
  C 247.89 227.40 242.56 204.75 221.39 195.75
  L 215.67 193.83
  Q 215.19 193.67 214.76 193.94
  L 205.75 199.34
  Z
  M 94.55 237.97
  L 113.70 237.94
  L 119.63 237.98
  Q 120.19 237.99 120.09 237.43
  L 116.10 213.59
  A 0.99 0.98 85.1 0 0 115.13 212.77
  L 108.72 212.82
  L 84.95 212.81
  L 67.26 212.79
  A 0.44 0.44 0.0 0 0 66.85 213.38
  L 75.82 237.49
  A 0.87 0.86 79.8 0 0 76.63 238.06
  L 94.55 237.97
  Z
  M 146.23 237.93
  L 152.91 238.00
  L 172.72 237.96
  L 179.44 238.02
  Q 179.98 238.02 180.16 237.52
  L 189.06 213.76
  Q 189.43 212.76 188.37 212.77
  L 165.05 212.82
  L 153.46 212.82
  L 144.24 212.81
  L 140.51 212.78
  A 0.56 0.55 -85.0 0 0 139.97 213.24
  L 135.93 237.42
  Q 135.83 237.99 136.41 237.98
  L 146.23 237.93
  Z" fill="#000000"></path>
<path d="M 139.04 7.12
  Q 135.05 6.75 133.51 7.84
  Q 132.43 8.61 133.12 9.57
  Q 133.35 9.90 133.32 10.30
  Q 133.08 13.40 132.98 16.51
  Q 132.97 16.75 133.07 16.98
  C 133.25 17.38 133.41 17.66 133.36 18.11
  Q 132.05 29.84 132.75 41.49
  L 121.49 41.50
  A 0.53 0.52 86.3 0 1 120.97 41.04
  L 117.03 7.73
  A 0.61 0.60 86.6 0 1 117.63 7.05
  L 139.04 7.12
  Z" fill="#aedca1"></path>
<path d="M 139.04 7.12
  L 135.01 40.94
  Q 134.95 41.50 134.38 41.50
  L 132.75 41.49
  Q 132.05 29.84 133.36 18.11
  C 133.41 17.66 133.25 17.38 133.07 16.98
  Q 132.97 16.75 132.98 16.51
  Q 133.08 13.40 133.32 10.30
  Q 133.35 9.90 133.12 9.57
  Q 132.43 8.61 133.51 7.84
  Q 135.05 6.75 139.04 7.12
  Z" fill="#c0d995"></path>
<path d="M 111.77 52.29
  L 112.86 62.67
  Q 104.43 64.15 95.36 68.07
  Q 94.10 64.25 94.17 59.50
  Q 94.29 51.13 94.33 42.76
  Q 94.33 42.58 94.60 41.84
  Q 94.70 41.58 94.63 41.24
  Q 94.61 41.13 94.54 41.21
  Q 94.39 41.37 94.19 41.44
  Q 93.69 41.63 93.97 41.17
  L 94.24 40.71
  Q 101.42 37.50 108.96 35.88
  A 0.70 0.69 -9.5 0 1 109.80 36.47
  L 111.77 52.29
  Z" fill="#7ce4c3"></path>
<path d="M 152.50 37.35
  L 152.25 64.86
  Q 142.82 62.10 133.40 61.40
  C 131.32 59.31 132.21 57.32 131.80 55.26
  Q 131.52 53.80 131.31 52.27
  L 143.95 52.24
  Q 144.44 52.24 144.50 51.75
  L 146.32 36.27
  A 0.54 0.53 -78.7 0 1 146.99 35.82
  L 152.50 37.35
  Z" fill="#e7d27a"></path>
<path d="M 152.50 37.35
  Q 170.37 42.27 181.71 55.13
  A 0.97 0.97 0.0 0 1 181.68 56.45
  L 167.35 71.10
  Q 166.96 71.50 166.47 71.22
  Q 159.60 67.21 152.25 64.86
  L 152.50 37.35
  Z" fill="#f8ce70"></path>
<path d="M 94.24 40.71
  L 93.97 41.17
  Q 93.69 41.63 94.19 41.44
  Q 94.39 41.37 94.54 41.21
  Q 94.61 41.13 94.63 41.24
  Q 94.70 41.58 94.60 41.84
  Q 94.33 42.58 94.33 42.76
  Q 94.29 51.13 94.17 59.50
  Q 94.10 64.25 95.36 68.07
  L 89.56 71.22
  A 0.73 0.73 0.0 0 1 88.68 71.09
  L 74.33 56.40
  A 0.92 0.91 43.3 0 1 74.29 55.17
  Q 82.53 45.68 94.24 40.71
  Z" fill="#6dd8e0"></path>
<path d="M 111.77 52.29
  L 124.97 52.28
  L 126.39 61.22
  L 112.86 62.67
  L 111.77 52.29
  Z" fill="#92e0b4"></path>
<path d="M 124.97 52.28
  L 131.31 52.27
  Q 131.52 53.80 131.80 55.26
  C 132.21 57.32 131.32 59.31 133.40 61.40
  L 126.39 61.22
  L 124.97 52.28
  Z" fill="#aedca1"></path>
<path d="M 54.78 94.81
  L 68.17 66.18
  A 0.42 0.42 0.0 0 1 68.85 66.07
  L 82.78 80.43
  A 0.42 0.42 0.0 0 1 82.90 80.71
  L 83.39 94.95
  A 0.42 0.42 0.0 0 1 82.97 95.38
  L 55.16 95.41
  A 0.42 0.42 0.0 0 1 54.78 94.81
  Z" fill="#6ad4e7"></path>
<path d="M 172.61 95.04
  L 173.10 80.63
  A 0.34 0.34 0.0 0 1 173.19 80.41
  L 187.23 65.94
  A 0.34 0.34 0.0 0 1 187.78 66.04
  L 201.26 94.95
  A 0.34 0.34 0.0 0 1 200.96 95.43
  L 172.95 95.39
  A 0.34 0.34 0.0 0 1 172.61 95.04
  Z" fill="#fcc187"></path>
<path d="M 139.42 72.89
  Q 138.28 74.05 138.28 75.25
  Q 138.46 110.85 138.44 146.96
  Q 134.13 149.80 128.48 150.80
  Q 128.89 142.30 128.39 133.99
  C 128.29 132.39 128.63 130.68 128.55 129.03
  Q 128.37 125.54 128.37 125.46
  Q 128.42 114.61 128.05 103.76
  Q 127.82 97.23 128.65 90.75
  Q 128.74 90.09 128.52 89.50
  Q 128.35 89.04 128.36 88.54
  Q 128.51 80.63 128.12 72.69
  Q 128.09 72.08 127.76 71.95
  Q 127.42 71.81 126.79 71.89
  L 139.42 72.89
  Z" fill="#c0d995"></path>
<path d="M 126.79 71.89
  Q 127.42 71.81 127.76 71.95
  Q 128.09 72.08 128.12 72.69
  Q 128.51 80.63 128.36 88.54
  Q 128.35 89.04 128.52 89.50
  Q 128.74 90.09 128.65 90.75
  Q 127.82 97.23 128.05 103.76
  Q 128.42 114.61 128.37 125.46
  Q 128.37 125.54 128.55 129.03
  C 128.63 130.68 128.29 132.39 128.39 133.99
  Q 128.89 142.30 128.48 150.80
  Q 125.83 150.73 123.63 149.79
  Q 123.89 149.40 123.89 149.01
  Q 123.89 148.87 123.75 148.87
  Q 123.60 148.87 123.44 148.87
  Q 123.05 148.87 123.06 148.47
  Q 123.11 146.11 123.15 143.75
  Q 123.54 118.34 123.03 112.39
  A 30.90 7.93 -77.8 0 1 122.88 108.51
  L 122.89 72.19
  L 126.79 71.89
  Z" fill="#aedca1"></path>
<path d="M 122.89 72.19
  L 122.88 108.51
  A 30.90 7.93 -77.8 0 0 123.03 112.39
  Q 123.54 118.34 123.15 143.75
  Q 123.11 146.11 123.06 148.47
  Q 123.05 148.87 123.44 148.87
  Q 123.60 148.87 123.75 148.87
  Q 123.89 148.87 123.89 149.01
  Q 123.89 149.40 123.63 149.79
  Q 117.47 147.79 112.54 143.27
  Q 112.92 141.24 112.05 138.74
  Q 111.50 137.14 111.58 133.91
  C 111.62 132.49 112.21 130.90 112.00 129.20
  Q 111.62 126.05 111.62 125.75
  Q 111.74 103.19 111.35 80.64
  C 111.31 78.42 110.77 76.40 110.44 74.17
  L 122.89 72.19
  Z" fill="#92e0b4"></path>
<path d="M 139.42 72.89
  L 144.43 73.91
  L 145.12 98.13
  A 8.63 1.00 89.5 0 1 145.13 99.35
  L 144.85 141.98
  L 138.44 146.96
  Q 138.46 110.85 138.28 75.25
  Q 138.28 74.05 139.42 72.89
  Z" fill="#d4d687"></path>
<path d="M 144.43 73.91
  L 154.46 77.08
  C 154.72 81.30 155.29 85.52 155.31 89.74
  Q 155.31 91.09 155.64 92.74
  Q 155.73 93.20 155.43 93.72
  Q 155.20 94.13 155.27 94.60
  Q 155.53 96.27 155.27 97.94
  Q 155.19 98.44 155.27 98.93
  Q 155.56 100.61 155.10 102.50
  Q 155.05 102.72 155.18 102.92
  Q 155.37 103.21 155.36 103.55
  Q 155.00 112.48 154.76 121.41
  Q 154.75 121.50 154.82 121.56
  Q 154.92 121.66 155.02 121.76
  Q 155.12 121.86 155.04 121.98
  Q 154.55 122.68 154.62 123.49
  A 1.78 1.73 -38.1 0 1 154.51 124.29
  Q 153.93 125.82 155.00 125.77
  Q 151.26 134.98 144.85 141.98
  L 145.13 99.35
  A 8.63 1.00 89.5 0 0 145.12 98.13
  L 144.43 73.91
  Z" fill="#e7d27a"></path>
<path d="M 110.44 74.17
  C 110.77 76.40 111.31 78.42 111.35 80.64
  Q 111.74 103.19 111.62 125.75
  Q 111.62 126.05 112.00 129.20
  C 112.21 130.90 111.62 132.49 111.58 133.91
  Q 111.50 137.14 112.05 138.74
  Q 112.92 141.24 112.54 143.27
  C 97.13 128.62 93.57 101.59 93.76 81.74
  A 0.92 0.92 0.0 0 1 94.19 80.96
  Q 101.72 76.10 110.44 74.17
  Z" fill="#7ce4c3"></path>
<path d="M 154.46 77.08
  L 161.69 80.86
  Q 162.15 81.10 162.16 81.61
  Q 162.72 104.49 155.00 125.77
  Q 153.93 125.82 154.51 124.29
  A 1.78 1.73 -38.1 0 0 154.62 123.49
  Q 154.55 122.68 155.04 121.98
  Q 155.12 121.86 155.02 121.76
  Q 154.92 121.66 154.82 121.56
  Q 154.75 121.50 154.76 121.41
  Q 155.00 112.48 155.36 103.55
  Q 155.37 103.21 155.18 102.92
  Q 155.05 102.72 155.10 102.50
  Q 155.56 100.61 155.27 98.93
  Q 155.19 98.44 155.27 97.94
  Q 155.53 96.27 155.27 94.60
  Q 155.20 94.13 155.43 93.72
  Q 155.73 93.20 155.64 92.74
  Q 155.31 91.09 155.31 89.74
  C 155.29 85.52 154.72 81.30 154.46 77.08
  Z" fill="#f8ce70"></path>
<path d="M 56.86 106.00
  Q 56.59 107.08 55.37 107.58
  Q 54.90 107.78 54.96 108.29
  Q 55.29 111.17 55.71 114.04
  Q 55.92 115.46 55.78 117.94
  C 55.68 119.70 56.21 121.39 56.08 123.07
  Q 56.01 123.91 56.36 124.24
  Q 58.01 125.76 55.81 125.32
  Q 54.03 124.97 52.27 126.08
  C 40.78 131.29 46.17 146.28 58.34 143.18
  L 59.24 158.93
  Q 59.26 159.39 59.06 159.80
  Q 58.78 160.38 59.04 160.92
  Q 59.26 161.37 59.02 161.80
  Q 58.50 162.76 57.74 162.59
  C 42.68 159.30 42.03 182.00 56.75 180.02
  Q 58.51 183.83 58.55 188.26
  Q 58.56 189.52 58.51 191.00
  L 42.71 182.41
  Q 40.78 172.63 41.55 162.49
  C 41.70 160.51 41.37 158.56 41.46 156.50
  C 41.76 149.78 41.16 143.03 41.37 136.28
  Q 41.38 135.80 41.58 135.28
  C 42.34 133.30 41.17 130.09 41.69 127.59
  Q 42.45 123.95 42.95 120.21
  L 49.27 106.55
  Q 49.53 106.00 50.14 106.00
  L 56.86 106.00
  Z" fill="#63c9fc"></path>
<path d="M 56.86 106.00
  L 84.23 106.05
  A 0.67 0.66 -4.0 0 1 84.89 106.62
  Q 86.53 118.04 90.66 128.81
  A 0.43 0.42 -10.7 0 1 90.26 129.39
  L 62.70 129.37
  Q 62.16 129.37 61.76 129.01
  C 58.89 126.42 56.52 125.08 52.27 126.08
  Q 54.03 124.97 55.81 125.32
  Q 58.01 125.76 56.36 124.24
  Q 56.01 123.91 56.08 123.07
  C 56.21 121.39 55.68 119.70 55.78 117.94
  Q 55.92 115.46 55.71 114.04
  Q 55.29 111.17 54.96 108.29
  Q 54.90 107.78 55.37 107.58
  Q 56.59 107.08 56.86 106.00
  Z" fill="#6ad4e7"></path>
<path d="M 197.71 106.09
  L 184.01 106.80
  Q 183.68 106.82 183.99 106.93
  L 184.28 107.03
  Q 184.53 107.12 184.53 107.39
  L 184.07 126.48
  A 0.38 0.38 0.0 0 0 184.17 126.76
  Q 185.02 127.73 184.47 127.86
  Q 183.71 128.05 184.21 128.65
  Q 184.83 129.39 185.74 129.39
  L 165.56 129.40
  A 0.29 0.29 0.0 0 1 165.29 129.01
  Q 169.41 118.22 171.04 106.77
  A 0.94 0.94 0.0 0 1 171.98 105.97
  L 197.71 106.09
  Z" fill="#fbc57f"></path>
<path d="M 197.71 106.09
  L 206.47 106.16
  Q 202.29 105.67 199.39 106.90
  Q 198.92 107.10 198.92 107.62
  Q 198.94 112.18 198.94 116.73
  C 198.95 119.06 199.90 122.48 198.71 124.99
  Q 198.46 125.52 199.04 125.59
  L 200.76 125.82
  Q 197.02 126.14 194.31 128.96
  Q 193.94 129.34 193.41 129.34
  L 185.74 129.39
  Q 184.83 129.39 184.21 128.65
  Q 183.71 128.05 184.47 127.86
  Q 185.02 127.73 184.17 126.76
  A 0.38 0.38 0.0 0 1 184.07 126.48
  L 184.53 107.39
  Q 184.53 107.12 184.28 107.03
  L 183.99 106.93
  Q 183.68 106.82 184.01 106.80
  L 197.71 106.09
  Z" fill="#fcc187"></path>
<path d="M 206.47 106.16
  L 235.94 169.31
  A 0.58 0.57 -27.1 0 1 235.70 170.05
  L 200.99 189.16
  C 200.59 187.87 200.37 187.06 200.61 185.62
  Q 200.94 183.68 200.06 181.92
  Q 199.85 181.50 200.25 181.26
  Q 200.54 181.10 200.91 181.13
  Q 201.33 181.18 201.38 180.75
  L 201.44 180.22
  C 214.08 178.95 212.22 160.73 199.40 162.35
  L 199.19 143.57
  C 212.73 145.54 213.85 125.62 200.76 125.82
  L 199.04 125.59
  Q 198.46 125.52 198.71 124.99
  C 199.90 122.48 198.95 119.06 198.94 116.73
  Q 198.94 112.18 198.92 107.62
  Q 198.92 107.10 199.39 106.90
  Q 202.29 105.67 206.47 106.16
  Z" fill="#feb29c"></path>
<path d="M 42.95 120.21
  Q 42.45 123.95 41.69 127.59
  C 41.17 130.09 42.34 133.30 41.58 135.28
  Q 41.38 135.80 41.37 136.28
  C 41.16 143.03 41.76 149.78 41.46 156.50
  C 41.37 158.56 41.70 160.51 41.55 162.49
  Q 40.78 172.63 42.71 182.41
  L 20.33 170.10
  Q 19.81 169.82 20.06 169.29
  L 42.95 120.21
  Z" fill="#74beff"></path>
<path d="M 77.46 140.15
  L 82.70 140.24
  A 0.13 0.13 0.0 0 1 82.75 140.48
  Q 82.60 140.56 82.44 140.62
  Q 82.15 140.74 82.10 141.05
  Q 82.02 141.47 82.50 141.50
  A 0.17 0.17 0.0 0 1 82.61 141.79
  L 82.38 142.02
  Q 82.12 142.28 82.25 142.63
  C 84.29 148.11 82.67 155.64 83.12 159.75
  Q 83.47 162.88 83.25 164.80
  Q 83.19 165.27 83.65 165.39
  L 85.03 165.75
  L 62.55 165.73
  Q 62.03 165.73 61.67 165.37
  Q 59.90 163.59 57.74 162.59
  Q 58.50 162.76 59.02 161.80
  Q 59.26 161.37 59.04 160.92
  Q 58.78 160.38 59.06 159.80
  Q 59.26 159.39 59.24 158.93
  L 58.34 143.18
  L 61.75 140.50
  Q 62.15 140.18 62.67 140.18
  L 77.46 140.15
  Z" fill="#6ad4e7"></path>
<path d="M 77.46 140.15
  L 95.63 140.13
  Q 96.16 140.13 96.43 140.58
  Q 100.03 146.50 105.12 151.20
  A 1.93 1.91 16.9 0 1 105.70 152.27
  L 107.87 165.22
  A 0.52 0.52 0.0 0 1 107.35 165.83
  L 85.03 165.75
  L 83.65 165.39
  Q 83.19 165.27 83.25 164.80
  Q 83.47 162.88 83.12 159.75
  C 82.67 155.64 84.29 148.11 82.25 142.63
  Q 82.12 142.28 82.38 142.02
  L 82.61 141.79
  A 0.17 0.17 0.0 0 0 82.50 141.50
  Q 82.02 141.47 82.10 141.05
  Q 82.15 140.74 82.44 140.62
  Q 82.60 140.56 82.75 140.48
  A 0.13 0.13 0.0 0 0 82.70 140.24
  L 77.46 140.15
  Z" fill="#74e2cd"></path>
<path d="M 193.54 140.09
  L 178.70 140.19
  A 0.75 0.75 0.0 0 0 178.07 141.35
  C 179.42 143.46 178.85 146.12 179.06 148.09
  Q 179.24 149.70 179.39 151.33
  Q 179.43 151.79 179.68 152.19
  Q 180.01 152.73 180.01 153.01
  C 179.93 156.16 180.00 161.82 181.98 163.92
  A 0.25 0.25 0.0 0 1 181.98 164.27
  L 181.73 164.51
  A 0.25 0.25 0.0 0 0 181.90 164.93
  Q 183.86 165.00 184.44 165.81
  L 173.02 165.74
  C 168.02 164.81 170.19 161.55 169.59 158.76
  Q 168.16 152.12 168.36 145.34
  A 1.86 1.84 34.0 0 0 168.19 144.48
  Q 167.72 143.44 167.68 142.34
  Q 167.65 141.30 168.26 140.83
  Q 168.97 140.28 170.16 140.66
  A 0.11 0.11 0.0 0 0 170.31 140.56
  L 170.31 140.55
  Q 170.31 140.40 170.17 140.40
  L 160.02 140.05
  L 193.54 140.09
  Z" fill="#fbc57f"></path>
<path d="M 160.02 140.05
  L 170.17 140.40
  Q 170.31 140.40 170.31 140.55
  L 170.31 140.56
  A 0.11 0.11 0.0 0 1 170.16 140.66
  Q 168.97 140.28 168.26 140.83
  Q 167.65 141.30 167.68 142.34
  Q 167.72 143.44 168.19 144.48
  A 1.86 1.84 34.0 0 1 168.36 145.34
  Q 168.16 152.12 169.59 158.76
  C 170.19 161.55 168.02 164.81 173.02 165.74
  L 148.88 165.88
  A 0.78 0.77 4.7 0 1 148.11 164.98
  Q 149.10 159.14 150.07 153.28
  Q 150.25 152.22 150.98 151.47
  Q 156.26 146.05 160.02 140.05
  Z" fill="#f8ce70"></path>
<path d="M 193.54 140.09
  Q 196.13 142.47 199.19 143.57
  L 199.40 162.35
  Q 196.55 163.08 194.34 165.38
  Q 193.98 165.76 193.45 165.76
  L 184.44 165.81
  Q 183.86 165.00 181.90 164.93
  A 0.25 0.25 0.0 0 1 181.73 164.51
  L 181.98 164.27
  A 0.25 0.25 0.0 0 0 181.98 163.92
  C 180.00 161.82 179.93 156.16 180.01 153.01
  Q 180.01 152.73 179.68 152.19
  Q 179.43 151.79 179.39 151.33
  Q 179.24 149.70 179.06 148.09
  C 178.85 146.12 179.42 143.46 178.07 141.35
  A 0.75 0.75 0.0 0 1 178.70 140.19
  L 193.54 140.09
  Z" fill="#fcc187"></path>
<path d="M 118.24 159.58
  L 128.01 162.03
  A 0.33 0.33 0.0 0 0 128.17 162.03
  L 137.75 159.57
  A 0.33 0.33 0.0 0 1 138.16 159.94
  L 128.32 218.23
  A 0.33 0.33 0.0 0 1 127.66 218.23
  L 117.83 159.96
  A 0.33 0.33 0.0 0 1 118.24 159.58
  Z" fill="#aedca1"></path>
<path d="M 68.03 176.56
  Q 68.34 176.63 68.53 176.77
  A 0.15 0.14 -28.3 0 1 68.45 177.03
  Q 67.92 177.08 67.74 177.38
  Q 67.63 177.56 67.68 177.89
  C 67.97 179.70 67.84 181.14 68.26 183.12
  C 68.86 185.98 68.22 189.53 68.33 192.79
  C 68.41 194.99 67.69 198.08 68.87 200.95
  Q 68.90 201.02 68.85 201.07
  L 68.57 201.35
  Q 68.29 201.63 68.68 201.63
  L 69.25 201.63
  Q 69.90 201.63 69.36 202.01
  Q 69.23 202.10 69.00 202.10
  Q 66.76 202.11 62.89 202.15
  L 58.51 191.00
  Q 58.56 189.52 58.55 188.26
  Q 58.51 183.83 56.75 180.02
  Q 59.67 179.15 61.74 176.92
  Q 62.08 176.55 62.58 176.55
  L 68.03 176.56
  Z" fill="#6ad4e7"></path>
<path d="M 68.03 176.56
  L 87.43 176.54
  Q 87.16 187.74 86.87 198.89
  Q 86.83 200.67 89.50 202.09
  L 62.89 202.15
  Q 66.76 202.11 69.00 202.10
  Q 69.23 202.10 69.36 202.01
  Q 69.90 201.63 69.25 201.63
  L 68.68 201.63
  Q 68.29 201.63 68.57 201.35
  L 68.85 201.07
  Q 68.90 201.02 68.87 200.95
  C 67.69 198.08 68.41 194.99 68.33 192.79
  C 68.22 189.53 68.86 185.98 68.26 183.12
  C 67.84 181.14 67.97 179.70 67.68 177.89
  Q 67.63 177.56 67.74 177.38
  Q 67.92 177.08 68.45 177.03
  A 0.15 0.14 -28.3 0 0 68.53 176.77
  Q 68.34 176.63 68.03 176.56
  Z" fill="#6dd8e0"></path>
<path d="M 87.43 176.54
  L 105.71 176.56
  Q 106.06 176.98 105.46 177.59
  Q 105.33 177.73 105.51 177.77
  L 105.86 177.86
  Q 106.18 177.94 106.15 178.27
  Q 105.92 180.58 106.60 182.76
  Q 106.64 182.87 106.58 182.96
  Q 106.51 183.09 106.41 183.22
  Q 106.20 183.53 106.18 183.91
  Q 105.99 187.91 106.20 191.91
  Q 106.20 191.99 106.29 192.00
  Q 106.34 192.01 106.38 192.02
  Q 106.69 192.15 106.69 192.25
  L 106.90 200.37
  A 1.92 1.02 -84.8 0 0 107.54 201.90
  Q 107.66 201.96 108.01 201.89
  A 0.01 0.01 0.0 0 0 108.01 201.87
  Q 107.19 201.73 106.45 202.10
  L 89.50 202.09
  Q 86.83 200.67 86.87 198.89
  Q 87.16 187.74 87.43 176.54
  Z" fill="#74e2cd"></path>
<path d="M 105.71 176.56
  L 109.34 176.67
  Q 109.85 176.68 109.94 177.19
  L 114.08 201.74
  A 0.37 0.36 -3.9 0 1 113.71 202.16
  L 106.45 202.10
  Q 107.19 201.73 108.01 201.87
  A 0.01 0.01 0.0 0 1 108.01 201.89
  Q 107.66 201.96 107.54 201.90
  A 1.92 1.02 -84.8 0 1 106.90 200.37
  L 106.69 192.25
  Q 106.69 192.15 106.38 192.02
  Q 106.34 192.01 106.29 192.00
  Q 106.20 191.99 106.20 191.91
  Q 105.99 187.91 106.18 183.91
  Q 106.20 183.53 106.41 183.22
  Q 106.51 183.09 106.58 182.96
  Q 106.64 182.87 106.60 182.76
  Q 105.92 180.58 106.15 178.27
  Q 106.18 177.94 105.86 177.86
  L 105.51 177.77
  Q 105.33 177.73 105.46 177.59
  Q 106.06 176.98 105.71 176.56
  Z" fill="#7ce4c3"></path>
<path d="M 152.27 176.54
  Q 151.00 189.65 152.81 202.19
  L 142.55 202.18
  A 0.58 0.57 -85.3 0 1 141.99 201.51
  L 146.07 177.19
  Q 146.18 176.57 146.80 176.57
  L 152.27 176.54
  Z" fill="#e7d27a"></path>
<path d="M 152.27 176.54
  L 167.95 176.54
  L 167.17 199.02
  Q 167.16 199.50 167.41 199.90
  Q 167.74 200.41 167.61 200.88
  Q 167.40 201.66 166.91 201.95
  Q 166.40 202.24 165.28 202.14
  L 152.81 202.19
  Q 151.00 189.65 152.27 176.54
  Z" fill="#f8ce70"></path>
<path d="M 167.95 176.54
  L 187.73 176.54
  Q 187.85 177.86 187.75 180.00
  Q 187.67 181.79 187.81 188.40
  C 187.83 189.29 187.42 190.22 187.80 191.28
  Q 188.42 193.00 188.44 193.09
  Q 188.79 195.40 188.28 197.68
  Q 188.17 198.18 188.33 198.66
  Q 188.72 199.86 188.39 201.01
  Q 188.36 201.13 188.24 201.13
  Q 188.10 201.13 187.97 201.12
  Q 187.27 201.11 187.68 201.69
  Q 187.95 202.07 188.40 201.93
  Q 188.53 201.89 188.40 201.87
  Q 187.48 201.78 186.52 202.14
  L 165.28 202.14
  Q 166.40 202.24 166.91 201.95
  Q 167.40 201.66 167.61 200.88
  Q 167.74 200.41 167.41 199.90
  Q 167.16 199.50 167.17 199.02
  L 167.95 176.54
  Z" fill="#fbc57f"></path>
<path d="M 187.73 176.54
  L 193.43 176.55
  A 1.15 1.14 68.6 0 1 194.27 176.92
  Q 197.16 180.11 201.44 180.22
  L 201.38 180.75
  Q 201.33 181.18 200.91 181.13
  Q 200.54 181.10 200.25 181.26
  Q 199.85 181.50 200.06 181.92
  Q 200.94 183.68 200.61 185.62
  C 200.37 187.06 200.59 187.87 200.99 189.16
  L 197.95 190.85
  A 1.58 1.58 0.0 0 0 197.23 191.70
  L 193.48 201.75
  Q 193.33 202.16 192.89 202.16
  L 186.52 202.14
  Q 187.48 201.78 188.40 201.87
  Q 188.53 201.89 188.40 201.93
  Q 187.95 202.07 187.68 201.69
  Q 187.27 201.11 187.97 201.12
  Q 188.10 201.13 188.24 201.13
  Q 188.36 201.13 188.39 201.01
  Q 188.72 199.86 188.33 198.66
  Q 188.17 198.18 188.28 197.68
  Q 188.79 195.40 188.44 193.09
  Q 188.42 193.00 187.80 191.28
  C 187.42 190.22 187.83 189.29 187.81 188.40
  Q 187.67 181.79 187.75 180.00
  Q 187.85 177.86 187.73 176.54
  Z" fill="#fcc187"></path>
<path d="M 43.63 195.22
  Q 41.84 194.51 42.00 197.53
  Q 42.13 199.85 42.13 199.98
  Q 42.13 220.71 42.13 241.45
  C 42.13 243.40 43.04 245.38 42.34 247.75
  Q 42.20 248.24 41.70 248.14
  Q 41.24 248.05 40.82 248.21
  Q 40.20 248.46 40.87 248.53
  L 44.46 248.94
  L 30.47 248.92
  L 25.13 248.67
  A 0.01 0.01 0.0 0 1 25.13 248.65
  L 26.86 248.16
  Q 27.29 248.04 27.29 247.59
  L 27.40 199.70
  Q 33.09 195.60 40.35 193.77
  Q 40.86 193.64 41.32 193.90
  L 43.63 195.22
  Z" fill="#74beff"></path>
<path d="M 221.39 195.75
  Q 221.84 198.35 221.66 201.27
  Q 221.37 206.12 221.37 206.74
  Q 221.32 226.74 220.84 247.64
  A 0.93 0.93 0.0 0 0 221.80 248.59
  Q 222.89 248.55 223.87 248.63
  Q 223.88 248.63 223.88 248.63
  Q 223.88 248.64 223.88 248.65
  Q 223.88 248.67 223.84 248.67
  L 215.24 248.90
  L 187.33 248.86
  Q 199.08 248.48 203.51 248.46
  Q 204.68 248.45 205.45 247.90
  Q 205.83 247.63 205.54 247.25
  C 204.48 245.87 205.23 242.14 205.82 240.62
  A 1.65 1.60 50.1 0 0 205.89 239.67
  C 205.38 237.58 206.20 235.77 206.07 233.91
  Q 205.61 227.47 206.24 221.05
  C 206.37 219.70 205.92 218.34 206.20 216.85
  C 206.93 212.93 207.41 209.29 207.06 204.39
  Q 207.00 203.60 207.22 201.80
  Q 207.52 199.46 205.75 199.34
  L 214.76 193.94
  Q 215.19 193.67 215.67 193.83
  L 221.39 195.75
  Z" fill="#feb29c"></path>
<path d="M 43.63 195.22
  L 49.45 198.36
  Q 49.98 198.65 50.20 199.22
  L 68.53 248.48
  A 0.36 0.36 0.0 0 1 68.19 248.96
  L 44.46 248.94
  L 40.87 248.53
  Q 40.20 248.46 40.82 248.21
  Q 41.24 248.05 41.70 248.14
  Q 42.20 248.24 42.34 247.75
  C 43.04 245.38 42.13 243.40 42.13 241.45
  Q 42.13 220.71 42.13 199.98
  Q 42.13 199.85 42.00 197.53
  Q 41.84 194.51 43.63 195.22
  Z" fill="#63c9fc"></path>
<path d="M 221.39 195.75
  C 242.56 204.75 247.89 227.40 245.48 248.40
  Q 245.42 248.94 244.87 248.94
  L 215.24 248.90
  L 223.84 248.67
  Q 223.88 248.67 223.88 248.65
  Q 223.88 248.64 223.88 248.63
  Q 223.88 248.63 223.87 248.63
  Q 222.89 248.55 221.80 248.59
  A 0.93 0.93 0.0 0 1 220.84 247.64
  Q 221.32 226.74 221.37 206.74
  Q 221.37 206.12 221.66 201.27
  Q 221.84 198.35 221.39 195.75
  Z" fill="#fea39e"></path>
<path d="M 187.33 248.86
  L 205.75 199.34
  Q 207.52 199.46 207.22 201.80
  Q 207.00 203.60 207.06 204.39
  C 207.41 209.29 206.93 212.93 206.20 216.85
  C 205.92 218.34 206.37 219.70 206.24 221.05
  Q 205.61 227.47 206.07 233.91
  C 206.20 235.77 205.38 237.58 205.89 239.67
  A 1.65 1.60 50.1 0 1 205.82 240.62
  C 205.23 242.14 204.48 245.87 205.54 247.25
  Q 205.83 247.63 205.45 247.90
  Q 204.68 248.45 203.51 248.46
  Q 199.08 248.48 187.33 248.86
  Z" fill="#fdba93"></path>
<path d="M 27.40 199.70
  L 27.29 247.59
  Q 27.29 248.04 26.86 248.16
  L 25.13 248.65
  A 0.01 0.01 0.0 0 0 25.13 248.67
  L 30.47 248.92
  L 11.26 248.95
  Q 10.79 248.95 10.73 248.49
  C 8.13 230.62 12.01 210.78 27.40 199.70
  Z" fill="#89b3ff"></path>
<path d="M 84.95 212.81
  L 86.29 213.10
  Q 86.57 213.15 86.74 213.38
  Q 86.99 213.70 86.69 214.07
  Q 86.51 214.28 86.61 214.55
  Q 87.08 215.81 87.11 217.25
  Q 87.23 224.75 87.15 232.25
  Q 87.13 234.45 86.61 236.17
  A 0.79 0.78 11.5 0 0 87.28 237.18
  L 94.55 237.97
  L 76.63 238.06
  A 0.87 0.86 79.8 0 1 75.82 237.49
  L 66.85 213.38
  A 0.44 0.44 0.0 0 1 67.26 212.79
  L 84.95 212.81
  Z" fill="#6dd8e0"></path>
<path d="M 84.95 212.81
  L 108.72 212.82
  L 106.27 213.18
  A 0.30 0.30 0.0 0 0 106.25 213.77
  Q 107.08 213.97 106.79 214.95
  A 0.96 0.94 49.5 0 0 106.76 215.40
  Q 107.10 217.57 107.13 219.75
  Q 107.24 227.38 107.89 234.98
  Q 107.97 235.85 107.72 236.76
  Q 107.59 237.21 108.06 237.14
  Q 108.73 237.06 109.24 237.25
  Q 109.82 237.48 109.20 237.55
  Q 107.68 237.72 106.13 237.60
  Q 106.12 237.60 106.12 237.62
  Q 106.12 237.62 106.12 237.61
  Q 109.93 237.67 113.70 237.94
  L 94.55 237.97
  L 87.28 237.18
  A 0.79 0.78 11.5 0 1 86.61 236.17
  Q 87.13 234.45 87.15 232.25
  Q 87.23 224.75 87.11 217.25
  Q 87.08 215.81 86.61 214.55
  Q 86.51 214.28 86.69 214.07
  Q 86.99 213.70 86.74 213.38
  Q 86.57 213.15 86.29 213.10
  L 84.95 212.81
  Z" fill="#74e2cd"></path>
<path d="M 108.72 212.82
  L 115.13 212.77
  A 0.99 0.98 85.1 0 1 116.10 213.59
  L 120.09 237.43
  Q 120.19 237.99 119.63 237.98
  L 113.70 237.94
  Q 109.93 237.67 106.12 237.61
  Q 106.12 237.62 106.12 237.62
  Q 106.12 237.60 106.13 237.60
  Q 107.68 237.72 109.20 237.55
  Q 109.82 237.48 109.24 237.25
  Q 108.73 237.06 108.06 237.14
  Q 107.59 237.21 107.72 236.76
  Q 107.97 235.85 107.89 234.98
  Q 107.24 227.38 107.13 219.75
  Q 107.10 217.57 106.76 215.40
  A 0.96 0.94 49.5 0 1 106.79 214.95
  Q 107.08 213.97 106.25 213.77
  A 0.30 0.30 0.0 0 1 106.27 213.18
  L 108.72 212.82
  Z" fill="#92e0b4"></path>
<path d="M 144.24 212.81
  Q 143.56 214.50 143.89 216.66
  Q 144.37 219.74 144.38 220.40
  Q 144.61 230.07 144.12 236.02
  Q 143.96 237.91 146.23 237.93
  L 136.41 237.98
  Q 135.83 237.99 135.93 237.42
  L 139.97 213.24
  A 0.56 0.55 -85.0 0 1 140.51 212.78
  L 144.24 212.81
  Z" fill="#d4d687"></path>
<path d="M 144.24 212.81
  L 153.46 212.82
  L 153.10 212.87
  Q 152.69 212.93 152.69 213.34
  L 152.84 236.19
  Q 152.84 236.72 153.23 237.07
  Q 154.45 238.19 156.35 237.53
  Q 156.39 237.52 156.38 237.56
  Q 156.38 237.57 156.38 237.59
  A 0.07 0.06 -86.4 0 1 156.31 237.66
  Q 154.43 237.34 152.91 238.00
  L 146.23 237.93
  Q 143.96 237.91 144.12 236.02
  Q 144.61 230.07 144.38 220.40
  Q 144.37 219.74 143.89 216.66
  Q 143.56 214.50 144.24 212.81
  Z" fill="#e7d27a"></path>
<path d="M 153.46 212.82
  L 165.05 212.82
  Q 168.51 212.41 168.39 215.48
  Q 168.07 224.02 168.33 229.45
  C 168.42 231.33 167.96 234.13 168.73 236.63
  Q 168.77 236.77 168.74 236.88
  Q 168.70 237.02 168.62 237.13
  Q 168.45 237.37 168.74 237.41
  L 172.72 237.96
  L 152.91 238.00
  Q 154.43 237.34 156.31 237.66
  A 0.07 0.06 -86.4 0 0 156.38 237.59
  Q 156.38 237.57 156.38 237.56
  Q 156.39 237.52 156.35 237.53
  Q 154.45 238.19 153.23 237.07
  Q 152.84 236.72 152.84 236.19
  L 152.69 213.34
  Q 152.69 212.93 153.10 212.87
  L 153.46 212.82
  Z" fill="#f8ce70"></path>
<path d="M 165.05 212.82
  L 188.37 212.77
  Q 189.43 212.76 189.06 213.76
  L 180.16 237.52
  Q 179.98 238.02 179.44 238.02
  L 172.72 237.96
  L 168.74 237.41
  Q 168.45 237.37 168.62 237.13
  Q 168.70 237.02 168.74 236.88
  Q 168.77 236.77 168.73 236.63
  C 167.96 234.13 168.42 231.33 168.33 229.45
  Q 168.07 224.02 168.39 215.48
  Q 168.51 212.41 165.05 212.82
  Z" fill="#fbc57f"></path>
</svg>
