<svg viewBox="0.00 0.00 512.00 512.00" version="1.1" xmlns="http://www.w3.org/2000/svg">
<g stroke-linecap="butt" fill="none" stroke-width="2.00">
<path d="M 115.45 196.84
  A 0.50 0.50 0.0 0 1 114.95 197.34
  L 104.36 197.35
  A 0.50 0.50 0.0 0 0 103.86 197.85
  L 103.94 208.61
  A 0.50 0.50 0.0 0 1 103.44 209.12
  L 92.76 209.22
  A 0.50 0.50 0.0 0 0 92.27 209.72
  L 92.25 231.77
  A 0.50 0.50 0.0 0 1 91.75 232.27
  L 81.04 232.27
  A 0.50 0.50 0.0 0 0 80.54 232.77
  L 80.55 278.43
  A 0.50 0.50 0.0 0 0 81.05 278.93
  L 91.76 278.87
  A 0.50 0.50 0.0 0 1 92.26 279.37
  L 92.26 301.91
  A 0.50 0.50 0.0 0 0 92.77 302.41
  L 103.48 302.30
  A 0.50 0.50 0.0 0 1 103.98 302.80
  L 103.82 313.25
  A 0.50 0.50 0.0 0 0 104.32 313.76
  L 114.91 313.77
  A 0.50 0.50 0.0 0 1 115.41 314.27
  L 115.46 325.01
  A 0.50 0.50 0.0 0 0 115.96 325.51
  L 138.05 325.51
  A 0.50 0.50 0.0 0 1 138.55 326.01
  L 138.54 336.58
  A 0.50 0.50 0.0 0 0 139.04 337.08
  L 185.01 337.04
  A 0.50 0.50 0.0 0 0 185.51 336.54
  L 185.43 326.01
  A 0.50 0.50 0.0 0 1 185.93 325.51
  L 208.16 325.51
  A 0.50 0.50 0.0 0 0 208.66 325.01
  L 208.65 314.26
  A 0.50 0.50 0.0 0 1 209.15 313.76
  L 219.77 313.77
  A 0.50 0.50 0.0 0 0 220.27 313.27
  L 220.26 302.87
  A 0.50 0.50 0.0 0 1 220.76 302.37
  L 231.25 302.37
  A 0.50 0.50 0.0 0 0 231.75 301.87
  L 231.74 279.43
  A 0.50 0.50 0.0 0 1 232.24 278.93
  L 243.05 278.97
  A 0.50 0.50 0.0 0 0 243.55 278.47
  L 243.61 232.74
  A 0.50 0.50 0.0 0 0 243.11 232.24
  L 232.25 232.30
  A 0.50 0.50 0.0 0 1 231.75 231.80
  L 231.75 209.66
  A 0.50 0.50 0.0 0 0 231.25 209.16
  L 220.74 209.22
  A 0.50 0.50 0.0 0 1 220.24 208.72
  L 220.28 197.82
  A 0.50 0.50 0.0 0 0 219.77 197.31
  L 209.16 197.39
  A 0.50 0.50 0.0 0 1 208.66 196.89
  L 208.69 186.33
  A 0.50 0.50 0.0 0 0 208.19 185.83
  L 185.94 185.90
  A 0.50 0.50 0.0 0 1 185.44 185.40
  L 185.49 174.74
  A 0.50 0.50 0.0 0 0 184.99 174.24
  L 139.04 174.25
  A 0.50 0.50 0.0 0 0 138.54 174.75
  L 138.61 185.43
  A 0.50 0.50 0.0 0 1 138.11 185.93
  L 115.94 185.84
  A 0.50 0.50 0.0 0 0 115.44 186.34
  L 115.45 196.84" stroke="#80bdf7"></path>
<path d="M 279.50 278.88
  A 0.49 0.49 0.0 0 1 279.99 279.37
  L 280.00 301.91
  A 0.49 0.49 0.0 0 0 280.49 302.40
  L 291.06 302.35
  A 0.49 0.49 0.0 0 1 291.55 302.84
  L 291.53 313.27
  A 0.49 0.49 0.0 0 0 292.02 313.76
  L 302.74 313.76
  A 0.49 0.49 0.0 0 1 303.23 314.25
  L 303.25 325.02
  A 0.49 0.49 0.0 0 0 303.74 325.51
  L 325.87 325.50
  A 0.49 0.49 0.0 0 1 326.36 325.99
  L 326.35 336.62
  A 0.49 0.49 0.0 0 0 326.84 337.11
  L 372.77 337.02
  A 0.49 0.49 0.0 0 0 373.26 336.52
  L 373.09 326.01
  A 0.49 0.49 0.0 0 1 373.58 325.51
  L 395.91 325.52
  A 0.49 0.49 0.0 0 0 396.40 325.03
  L 396.37 314.25
  A 0.49 0.49 0.0 0 1 396.86 313.76
  L 407.40 313.76
  A 0.49 0.49 0.0 0 0 407.89 313.27
  L 407.87 302.76
  A 0.49 0.49 0.0 0 1 408.37 302.27
  L 419.06 302.39
  A 0.49 0.49 0.0 0 0 419.56 301.90
  L 419.56 279.41
  A 0.49 0.49 0.0 0 1 420.05 278.92
  L 430.78 278.96
  A 0.49 0.49 0.0 0 0 431.27 278.47
  L 431.29 232.75
  A 0.49 0.49 0.0 0 0 430.80 232.26
  L 420.05 232.29
  A 0.49 0.49 0.0 0 1 419.56 231.80
  L 419.58 209.67
  A 0.49 0.49 0.0 0 0 419.09 209.18
  L 408.36 209.22
  A 0.49 0.49 0.0 0 1 407.87 208.73
  L 407.88 197.80
  A 0.49 0.49 0.0 0 0 407.39 197.31
  L 396.88 197.38
  A 0.49 0.49 0.0 0 1 396.39 196.89
  L 396.42 186.35
  A 0.49 0.49 0.0 0 0 395.93 185.86
  L 373.67 185.92
  A 0.49 0.49 0.0 0 1 373.18 185.43
  L 373.15 174.75
  A 0.49 0.49 0.0 0 0 372.66 174.26
  L 326.84 174.24
  A 0.49 0.49 0.0 0 0 326.35 174.73
  L 326.39 185.43
  A 0.49 0.49 0.0 0 1 325.90 185.92
  L 303.74 185.84
  A 0.49 0.49 0.0 0 0 303.25 186.33
  L 303.24 196.87
  A 0.49 0.49 0.0 0 1 302.75 197.36
  L 291.99 197.36
  A 0.49 0.49 0.0 0 0 291.50 197.85
  L 291.60 208.71
  A 0.49 0.49 0.0 0 1 291.11 209.20
  L 280.48 209.21
  A 0.49 0.49 0.0 0 0 279.99 209.70
  L 280.00 231.79
  A 0.49 0.49 0.0 0 1 279.51 232.28
  L 268.82 232.27
  A 0.49 0.49 0.0 0 0 268.33 232.76
  L 268.33 278.49
  A 0.49 0.49 0.0 0 0 268.82 278.98
  L 279.50 278.88" stroke="#80bdf7"></path>
<path d="M 138.77 197.16
  A 0.48 0.48 0.0 0 1 138.29 197.64
  L 116.21 197.64
  A 0.48 0.48 0.0 0 0 115.73 198.12
  L 115.74 209.04
  A 0.48 0.48 0.0 0 1 115.25 209.52
  L 104.56 209.35
  A 0.48 0.48 0.0 0 0 104.07 209.83
  L 104.16 232.05
  A 0.48 0.48 0.0 0 1 103.68 232.53
  L 92.99 232.63
  A 0.48 0.48 0.0 0 0 92.51 233.11
  L 92.50 278.39
  A 0.48 0.48 0.0 0 0 92.99 278.87
  L 103.59 278.70
  A 0.48 0.48 0.0 0 1 104.08 279.18
  L 104.06 301.64
  A 0.48 0.48 0.0 0 0 104.55 302.12
  L 115.26 302.00
  A 0.48 0.48 0.0 0 1 115.75 302.48
  L 115.72 313.03
  A 0.48 0.48 0.0 0 0 116.20 313.51
  L 138.30 313.50
  A 0.48 0.48 0.0 0 1 138.78 313.98
  L 138.78 324.77
  A 0.48 0.48 0.0 0 0 139.26 325.25
  L 184.76 325.23
  A 0.48 0.48 0.0 0 0 185.24 324.75
  L 185.24 313.98
  A 0.48 0.48 0.0 0 1 185.72 313.50
  L 207.86 313.51
  A 0.48 0.48 0.0 0 0 208.34 313.03
  L 208.38 302.51
  A 0.48 0.48 0.0 0 1 208.86 302.03
  L 219.70 302.05
  A 0.48 0.48 0.0 0 0 220.18 301.57
  L 220.20 279.21
  A 0.48 0.48 0.0 0 1 220.68 278.73
  L 231.02 278.76
  A 0.48 0.48 0.0 0 0 231.50 278.28
  L 231.49 233.02
  A 0.48 0.48 0.0 0 0 231.01 232.54
  L 220.66 232.57
  A 0.48 0.48 0.0 0 1 220.18 232.09
  L 220.19 209.94
  A 0.48 0.48 0.0 0 0 219.71 209.46
  L 208.86 209.51
  A 0.48 0.48 0.0 0 1 208.38 209.03
  L 208.35 198.12
  A 0.48 0.48 0.0 0 0 207.87 197.64
  L 185.72 197.62
  A 0.48 0.48 0.0 0 1 185.24 197.14
  L 185.24 186.49
  A 0.48 0.48 0.0 0 0 184.76 186.01
  L 139.27 186.02
  A 0.48 0.48 0.0 0 0 138.79 186.50
  L 138.77 197.16" stroke="#80bdf7"></path>
<path d="M 291.36 278.71
  A 0.41 0.41 0.0 0 1 291.77 279.12
  L 291.77 301.70
  A 0.41 0.41 0.0 0 0 292.18 302.11
  L 303.10 302.00
  A 0.41 0.41 0.0 0 1 303.51 302.41
  L 303.49 313.10
  A 0.41 0.41 0.0 0 0 303.90 313.51
  L 326.22 313.49
  A 0.41 0.41 0.0 0 1 326.63 313.90
  L 326.61 324.84
  A 0.41 0.41 0.0 0 0 327.02 325.25
  L 372.41 325.23
  A 0.41 0.41 0.0 0 0 372.82 324.82
  L 372.77 313.91
  A 0.41 0.41 0.0 0 1 373.18 313.50
  L 395.76 313.51
  A 0.41 0.41 0.0 0 0 396.17 313.10
  L 396.24 302.46
  A 0.41 0.41 0.0 0 1 396.65 302.05
  L 407.34 302.04
  A 0.41 0.41 0.0 0 0 407.75 301.63
  L 407.74 279.14
  A 0.41 0.41 0.0 0 1 408.15 278.73
  L 418.87 278.74
  A 0.41 0.41 0.0 0 0 419.28 278.33
  L 419.27 232.98
  A 0.41 0.41 0.0 0 0 418.86 232.57
  L 408.13 232.55
  A 0.41 0.41 0.0 0 1 407.72 232.14
  L 407.75 209.84
  A 0.41 0.41 0.0 0 0 407.34 209.43
  L 396.64 209.51
  A 0.41 0.41 0.0 0 1 396.23 209.10
  L 396.20 198.06
  A 0.41 0.41 0.0 0 0 395.79 197.65
  L 373.16 197.65
  A 0.41 0.41 0.0 0 1 372.75 197.24
  L 372.78 186.43
  A 0.41 0.41 0.0 0 0 372.37 186.02
  L 327.05 186.01
  A 0.41 0.41 0.0 0 0 326.64 186.42
  L 326.65 197.23
  A 0.41 0.41 0.0 0 1 326.24 197.64
  L 303.88 197.64
  A 0.41 0.41 0.0 0 0 303.47 198.05
  L 303.51 209.11
  A 0.41 0.41 0.0 0 1 303.09 209.53
  L 292.18 209.39
  A 0.41 0.41 0.0 0 0 291.77 209.80
  L 291.77 232.13
  A 0.41 0.41 0.0 0 1 291.36 232.54
  L 280.67 232.60
  A 0.41 0.41 0.0 0 0 280.26 233.01
  L 280.27 278.37
  A 0.41 0.41 0.0 0 0 280.68 278.78
  L 291.36 278.71" stroke="#80bdf7"></path>
<path d="M 146.92 267.21
  A 0.44 0.44 0.0 0 1 146.48 266.77
  L 146.51 255.94
  A 0.44 0.44 0.0 0 0 146.07 255.50
  L 135.17 255.52
  A 0.44 0.44 0.0 0 0 134.73 255.96
  L 134.70 290.17
  A 0.44 0.44 0.0 0 0 135.14 290.61
  L 157.74 290.58
  A 0.44 0.44 0.0 0 0 158.18 290.14
  L 158.21 267.64
  A 0.44 0.44 0.0 0 0 157.77 267.20
  L 146.92 267.21" stroke="#80bdf7"></path>
<path d="M 334.67 267.22
  A 0.44 0.44 0.0 0 1 334.23 266.78
  L 334.31 255.95
  A 0.44 0.44 0.0 0 0 333.87 255.51
  L 322.94 255.51
  A 0.44 0.44 0.0 0 0 322.50 255.95
  L 322.43 290.19
  A 0.44 0.44 0.0 0 0 322.87 290.63
  L 345.31 290.61
  A 0.44 0.44 0.0 0 0 345.75 290.17
  L 345.75 267.63
  A 0.44 0.44 0.0 0 0 345.31 267.19
  L 334.67 267.22" stroke="#80bdf7"></path>
</g>
<path d="M 0.00 0.00
  L 512.00 0.00
  L 512.00 512.00
  L 0.00 512.00
  L 0.00 0.00
  Z
  M 115.45 196.84
  A 0.50 0.50 0.0 0 1 114.95 197.34
  L 104.36 197.35
  A 0.50 0.50 0.0 0 0 103.86 197.85
  L 103.94 208.61
  A 0.50 0.50 0.0 0 1 103.44 209.12
  L 92.76 209.22
  A 0.50 0.50 0.0 0 0 92.27 209.72
  L 92.25 231.77
  A 0.50 0.50 0.0 0 1 91.75 232.27
  L 81.04 232.27
  A 0.50 0.50 0.0 0 0 80.54 232.77
  L 80.55 278.43
  A 0.50 0.50 0.0 0 0 81.05 278.93
  L 91.76 278.87
  A 0.50 0.50 0.0 0 1 92.26 279.37
  L 92.26 301.91
  A 0.50 0.50 0.0 0 0 92.77 302.41
  L 103.48 302.30
  A 0.50 0.50 0.0 0 1 103.98 302.80
  L 103.82 313.25
  A 0.50 0.50 0.0 0 0 104.32 313.76
  L 114.91 313.77
  A 0.50 0.50 0.0 0 1 115.41 314.27
  L 115.46 325.01
  A 0.50 0.50 0.0 0 0 115.96 325.51
  L 138.05 325.51
  A 0.50 0.50 0.0 0 1 138.55 326.01
  L 138.54 336.58
  A 0.50 0.50 0.0 0 0 139.04 337.08
  L 185.01 337.04
  A 0.50 0.50 0.0 0 0 185.51 336.54
  L 185.43 326.01
  A 0.50 0.50 0.0 0 1 185.93 325.51
  L 208.16 325.51
  A 0.50 0.50 0.0 0 0 208.66 325.01
  L 208.65 314.26
  A 0.50 0.50 0.0 0 1 209.15 313.76
  L 219.77 313.77
  A 0.50 0.50 0.0 0 0 220.27 313.27
  L 220.26 302.87
  A 0.50 0.50 0.0 0 1 220.76 302.37
  L 231.25 302.37
  A 0.50 0.50 0.0 0 0 231.75 301.87
  L 231.74 279.43
  A 0.50 0.50 0.0 0 1 232.24 278.93
  L 243.05 278.97
  A 0.50 0.50 0.0 0 0 243.55 278.47
  L 243.61 232.74
  A 0.50 0.50 0.0 0 0 243.11 232.24
  L 232.25 232.30
  A 0.50 0.50 0.0 0 1 231.75 231.80
  L 231.75 209.66
  A 0.50 0.50 0.0 0 0 231.25 209.16
  L 220.74 209.22
  A 0.50 0.50 0.0 0 1 220.24 208.72
  L 220.28 197.82
  A 0.50 0.50 0.0 0 0 219.77 197.31
  L 209.16 197.39
  A 0.50 0.50 0.0 0 1 208.66 196.89
  L 208.69 186.33
  A 0.50 0.50 0.0 0 0 208.19 185.83
  L 185.94 185.90
  A 0.50 0.50 0.0 0 1 185.44 185.40
  L 185.49 174.74
  A 0.50 0.50 0.0 0 0 184.99 174.24
  L 139.04 174.25
  A 0.50 0.50 0.0 0 0 138.54 174.75
  L 138.61 185.43
  A 0.50 0.50 0.0 0 1 138.11 185.93
  L 115.94 185.84
  A 0.50 0.50 0.0 0 0 115.44 186.34
  L 115.45 196.84
  Z
  M 279.50 278.88
  A 0.49 0.49 0.0 0 1 279.99 279.37
  L 280.00 301.91
  A 0.49 0.49 0.0 0 0 280.49 302.40
  L 291.06 302.35
  A 0.49 0.49 0.0 0 1 291.55 302.84
  L 291.53 313.27
  A 0.49 0.49 0.0 0 0 292.02 313.76
  L 302.74 313.76
  A 0.49 0.49 0.0 0 1 303.23 314.25
  L 303.25 325.02
  A 0.49 0.49 0.0 0 0 303.74 325.51
  L 325.87 325.50
  A 0.49 0.49 0.0 0 1 326.36 325.99
  L 326.35 336.62
  A 0.49 0.49 0.0 0 0 326.84 337.11
  L 372.77 337.02
  A 0.49 0.49 0.0 0 0 373.26 336.52
  L 373.09 326.01
  A 0.49 0.49 0.0 0 1 373.58 325.51
  L 395.91 325.52
  A 0.49 0.49 0.0 0 0 396.40 325.03
  L 396.37 314.25
  A 0.49 0.49 0.0 0 1 396.86 313.76
  L 407.40 313.76
  A 0.49 0.49 0.0 0 0 407.89 313.27
  L 407.87 302.76
  A 0.49 0.49 0.0 0 1 408.37 302.27
  L 419.06 302.39
  A 0.49 0.49 0.0 0 0 419.56 301.90
  L 419.56 279.41
  A 0.49 0.49 0.0 0 1 420.05 278.92
  L 430.78 278.96
  A 0.49 0.49 0.0 0 0 431.27 278.47
  L 431.29 232.75
  A 0.49 0.49 0.0 0 0 430.80 232.26
  L 420.05 232.29
  A 0.49 0.49 0.0 0 1 419.56 231.80
  L 419.58 209.67
  A 0.49 0.49 0.0 0 0 419.09 209.18
  L 408.36 209.22
  A 0.49 0.49 0.0 0 1 407.87 208.73
  L 407.88 197.80
  A 0.49 0.49 0.0 0 0 407.39 197.31
  L 396.88 197.38
  A 0.49 0.49 0.0 0 1 396.39 196.89
  L 396.42 186.35
  A 0.49 0.49 0.0 0 0 395.93 185.86
  L 373.67 185.92
  A 0.49 0.49 0.0 0 1 373.18 185.43
  L 373.15 174.75
  A 0.49 0.49 0.0 0 0 372.66 174.26
  L 326.84 174.24
  A 0.49 0.49 0.0 0 0 326.35 174.73
  L 326.39 185.43
  A 0.49 0.49 0.0 0 1 325.90 185.92
  L 303.74 185.84
  A 0.49 0.49 0.0 0 0 303.25 186.33
  L 303.24 196.87
  A 0.49 0.49 0.0 0 1 302.75 197.36
  L 291.99 197.36
  A 0.49 0.49 0.0 0 0 291.50 197.85
  L 291.60 208.71
  A 0.49 0.49 0.0 0 1 291.11 209.20
  L 280.48 209.21
  A 0.49 0.49 0.0 0 0 279.99 209.70
  L 280.00 231.79
  A 0.49 0.49 0.0 0 1 279.51 232.28
  L 268.82 232.27
  A 0.49 0.49 0.0 0 0 268.33 232.76
  L 268.33 278.49
  A 0.49 0.49 0.0 0 0 268.82 278.98
  L 279.50 278.88
  Z" fill="#007bef"></path>
<path d="M 115.45 196.84
  L 115.44 186.34
  A 0.50 0.50 0.0 0 1 115.94 185.84
  L 138.11 185.93
  A 0.50 0.50 0.0 0 0 138.61 185.43
  L 138.54 174.75
  A 0.50 0.50 0.0 0 1 139.04 174.25
  L 184.99 174.24
  A 0.50 0.50 0.0 0 1 185.49 174.74
  L 185.44 185.40
  A 0.50 0.50 0.0 0 0 185.94 185.90
  L 208.19 185.83
  A 0.50 0.50 0.0 0 1 208.69 186.33
  L 208.66 196.89
  A 0.50 0.50 0.0 0 0 209.16 197.39
  L 219.77 197.31
  A 0.50 0.50 0.0 0 1 220.28 197.82
  L 220.24 208.72
  A 0.50 0.50 0.0 0 0 220.74 209.22
  L 231.25 209.16
  A 0.50 0.50 0.0 0 1 231.75 209.66
  L 231.75 231.80
  A 0.50 0.50 0.0 0 0 232.25 232.30
  L 243.11 232.24
  A 0.50 0.50 0.0 0 1 243.61 232.74
  L 243.55 278.47
  A 0.50 0.50 0.0 0 1 243.05 278.97
  L 232.24 278.93
  A 0.50 0.50 0.0 0 0 231.74 279.43
  L 231.75 301.87
  A 0.50 0.50 0.0 0 1 231.25 302.37
  L 220.76 302.37
  A 0.50 0.50 0.0 0 0 220.26 302.87
  L 220.27 313.27
  A 0.50 0.50 0.0 0 1 219.77 313.77
  L 209.15 313.76
  A 0.50 0.50 0.0 0 0 208.65 314.26
  L 208.66 325.01
  A 0.50 0.50 0.0 0 1 208.16 325.51
  L 185.93 325.51
  A 0.50 0.50 0.0 0 0 185.43 326.01
  L 185.51 336.54
  A 0.50 0.50 0.0 0 1 185.01 337.04
  L 139.04 337.08
  A 0.50 0.50 0.0 0 1 138.54 336.58
  L 138.55 326.01
  A 0.50 0.50 0.0 0 0 138.05 325.51
  L 115.96 325.51
  A 0.50 0.50 0.0 0 1 115.46 325.01
  L 115.41 314.27
  A 0.50 0.50 0.0 0 0 114.91 313.77
  L 104.32 313.76
  A 0.50 0.50 0.0 0 1 103.82 313.25
  L 103.98 302.80
  A 0.50 0.50 0.0 0 0 103.48 302.30
  L 92.77 302.41
  A 0.50 0.50 0.0 0 1 92.26 301.91
  L 92.26 279.37
  A 0.50 0.50 0.0 0 0 91.76 278.87
  L 81.05 278.93
  A 0.50 0.50 0.0 0 1 80.55 278.43
  L 80.54 232.77
  A 0.50 0.50 0.0 0 1 81.04 232.27
  L 91.75 232.27
  A 0.50 0.50 0.0 0 0 92.25 231.77
  L 92.27 209.72
  A 0.50 0.50 0.0 0 1 92.76 209.22
  L 103.44 209.12
  A 0.50 0.50 0.0 0 0 103.94 208.61
  L 103.86 197.85
  A 0.50 0.50 0.0 0 1 104.36 197.35
  L 114.95 197.34
  A 0.50 0.50 0.0 0 0 115.45 196.84
  Z
  M 138.77 197.16
  A 0.48 0.48 0.0 0 1 138.29 197.64
  L 116.21 197.64
  A 0.48 0.48 0.0 0 0 115.73 198.12
  L 115.74 209.04
  A 0.48 0.48 0.0 0 1 115.25 209.52
  L 104.56 209.35
  A 0.48 0.48 0.0 0 0 104.07 209.83
  L 104.16 232.05
  A 0.48 0.48 0.0 0 1 103.68 232.53
  L 92.99 232.63
  A 0.48 0.48 0.0 0 0 92.51 233.11
  L 92.50 278.39
  A 0.48 0.48 0.0 0 0 92.99 278.87
  L 103.59 278.70
  A 0.48 0.48 0.0 0 1 104.08 279.18
  L 104.06 301.64
  A 0.48 0.48 0.0 0 0 104.55 302.12
  L 115.26 302.00
  A 0.48 0.48 0.0 0 1 115.75 302.48
  L 115.72 313.03
  A 0.48 0.48 0.0 0 0 116.20 313.51
  L 138.30 313.50
  A 0.48 0.48 0.0 0 1 138.78 313.98
  L 138.78 324.77
  A 0.48 0.48 0.0 0 0 139.26 325.25
  L 184.76 325.23
  A 0.48 0.48 0.0 0 0 185.24 324.75
  L 185.24 313.98
  A 0.48 0.48 0.0 0 1 185.72 313.50
  L 207.86 313.51
  A 0.48 0.48 0.0 0 0 208.34 313.03
  L 208.38 302.51
  A 0.48 0.48 0.0 0 1 208.86 302.03
  L 219.70 302.05
  A 0.48 0.48 0.0 0 0 220.18 301.57
  L 220.20 279.21
  A 0.48 0.48 0.0 0 1 220.68 278.73
  L 231.02 278.76
  A 0.48 0.48 0.0 0 0 231.50 278.28
  L 231.49 233.02
  A 0.48 0.48 0.0 0 0 231.01 232.54
  L 220.66 232.57
  A 0.48 0.48 0.0 0 1 220.18 232.09
  L 220.19 209.94
  A 0.48 0.48 0.0 0 0 219.71 209.46
  L 208.86 209.51
  A 0.48 0.48 0.0 0 1 208.38 209.03
  L 208.35 198.12
  A 0.48 0.48 0.0 0 0 207.87 197.64
  L 185.72 197.62
  A 0.48 0.48 0.0 0 1 185.24 197.14
  L 185.24 186.49
  A 0.48 0.48 0.0 0 0 184.76 186.01
  L 139.27 186.02
  A 0.48 0.48 0.0 0 0 138.79 186.50
  L 138.77 197.16
  Z" fill="#ffffff"></path>
<path d="M 279.50 278.88
  L 268.82 278.98
  A 0.49 0.49 0.0 0 1 268.33 278.49
  L 268.33 232.76
  A 0.49 0.49 0.0 0 1 268.82 232.27
  L 279.51 232.28
  A 0.49 0.49 0.0 0 0 280.00 231.79
  L 279.99 209.70
  A 0.49 0.49 0.0 0 1 280.48 209.21
  L 291.11 209.20
  A 0.49 0.49 0.0 0 0 291.60 208.71
  L 291.50 197.85
  A 0.49 0.49 0.0 0 1 291.99 197.36
  L 302.75 197.36
  A 0.49 0.49 0.0 0 0 303.24 196.87
  L 303.25 186.33
  A 0.49 0.49 0.0 0 1 303.74 185.84
  L 325.90 185.92
  A 0.49 0.49 0.0 0 0 326.39 185.43
  L 326.35 174.73
  A 0.49 0.49 0.0 0 1 326.84 174.24
  L 372.66 174.26
  A 0.49 0.49 0.0 0 1 373.15 174.75
  L 373.18 185.43
  A 0.49 0.49 0.0 0 0 373.67 185.92
  L 395.93 185.86
  A 0.49 0.49 0.0 0 1 396.42 186.35
  L 396.39 196.89
  A 0.49 0.49 0.0 0 0 396.88 197.38
  L 407.39 197.31
  A 0.49 0.49 0.0 0 1 407.88 197.80
  L 407.87 208.73
  A 0.49 0.49 0.0 0 0 408.36 209.22
  L 419.09 209.18
  A 0.49 0.49 0.0 0 1 419.58 209.67
  L 419.56 231.80
  A 0.49 0.49 0.0 0 0 420.05 232.29
  L 430.80 232.26
  A 0.49 0.49 0.0 0 1 431.29 232.75
  L 431.27 278.47
  A 0.49 0.49 0.0 0 1 430.78 278.96
  L 420.05 278.92
  A 0.49 0.49 0.0 0 0 419.56 279.41
  L 419.56 301.90
  A 0.49 0.49 0.0 0 1 419.06 302.39
  L 408.37 302.27
  A 0.49 0.49 0.0 0 0 407.87 302.76
  L 407.89 313.27
  A 0.49 0.49 0.0 0 1 407.40 313.76
  L 396.86 313.76
  A 0.49 0.49 0.0 0 0 396.37 314.25
  L 396.40 325.03
  A 0.49 0.49 0.0 0 1 395.91 325.52
  L 373.58 325.51
  A 0.49 0.49 0.0 0 0 373.09 326.01
  L 373.26 336.52
  A 0.49 0.49 0.0 0 1 372.77 337.02
  L 326.84 337.11
  A 0.49 0.49 0.0 0 1 326.35 336.62
  L 326.36 325.99
  A 0.49 0.49 0.0 0 0 325.87 325.50
  L 303.74 325.51
  A 0.49 0.49 0.0 0 1 303.25 325.02
  L 303.23 314.25
  A 0.49 0.49 0.0 0 0 302.74 313.76
  L 292.02 313.76
  A 0.49 0.49 0.0 0 1 291.53 313.27
  L 291.55 302.84
  A 0.49 0.49 0.0 0 0 291.06 302.35
  L 280.49 302.40
  A 0.49 0.49 0.0 0 1 280.00 301.91
  L 279.99 279.37
  A 0.49 0.49 0.0 0 0 279.50 278.88
  Z
  M 291.36 278.71
  A 0.41 0.41 0.0 0 1 291.77 279.12
  L 291.77 301.70
  A 0.41 0.41 0.0 0 0 292.18 302.11
  L 303.10 302.00
  A 0.41 0.41 0.0 0 1 303.51 302.41
  L 303.49 313.10
  A 0.41 0.41 0.0 0 0 303.90 313.51
  L 326.22 313.49
  A 0.41 0.41 0.0 0 1 326.63 313.90
  L 326.61 324.84
  A 0.41 0.41 0.0 0 0 327.02 325.25
  L 372.41 325.23
  A 0.41 0.41 0.0 0 0 372.82 324.82
  L 372.77 313.91
  A 0.41 0.41 0.0 0 1 373.18 313.50
  L 395.76 313.51
  A 0.41 0.41 0.0 0 0 396.17 313.10
  L 396.24 302.46
  A 0.41 0.41 0.0 0 1 396.65 302.05
  L 407.34 302.04
  A 0.41 0.41 0.0 0 0 407.75 301.63
  L 407.74 279.14
  A 0.41 0.41 0.0 0 1 408.15 278.73
  L 418.87 278.74
  A 0.41 0.41 0.0 0 0 419.28 278.33
  L 419.27 232.98
  A 0.41 0.41 0.0 0 0 418.86 232.57
  L 408.13 232.55
  A 0.41 0.41 0.0 0 1 407.72 232.14
  L 407.75 209.84
  A 0.41 0.41 0.0 0 0 407.34 209.43
  L 396.64 209.51
  A 0.41 0.41 0.0 0 1 396.23 209.10
  L 396.20 198.06
  A 0.41 0.41 0.0 0 0 395.79 197.65
  L 373.16 197.65
  A 0.41 0.41 0.0 0 1 372.75 197.24
  L 372.78 186.43
  A 0.41 0.41 0.0 0 0 372.37 186.02
  L 327.05 186.01
  A 0.41 0.41 0.0 0 0 326.64 186.42
  L 326.65 197.23
  A 0.41 0.41 0.0 0 1 326.24 197.64
  L 303.88 197.64
  A 0.41 0.41 0.0 0 0 303.47 198.05
  L 303.51 209.11
  A 0.41 0.41 0.0 0 1 303.09 209.53
  L 292.18 209.39
  A 0.41 0.41 0.0 0 0 291.77 209.80
  L 291.77 232.13
  A 0.41 0.41 0.0 0 1 291.36 232.54
  L 280.67 232.60
  A 0.41 0.41 0.0 0 0 280.26 233.01
  L 280.27 278.37
  A 0.41 0.41 0.0 0 0 280.68 278.78
  L 291.36 278.71
  Z" fill="#ffffff"></path>
<path d="M 138.77 197.16
  L 138.79 186.50
  A 0.48 0.48 0.0 0 1 139.27 186.02
  L 184.76 186.01
  A 0.48 0.48 0.0 0 1 185.24 186.49
  L 185.24 197.14
  A 0.48 0.48 0.0 0 0 185.72 197.62
  L 207.87 197.64
  A 0.48 0.48 0.0 0 1 208.35 198.12
  L 208.38 209.03
  A 0.48 0.48 0.0 0 0 208.86 209.51
  L 219.71 209.46
  A 0.48 0.48 0.0 0 1 220.19 209.94
  L 220.18 232.09
  A 0.48 0.48 0.0 0 0 220.66 232.57
  L 231.01 232.54
  A 0.48 0.48 0.0 0 1 231.49 233.02
  L 231.50 278.28
  A 0.48 0.48 0.0 0 1 231.02 278.76
  L 220.68 278.73
  A 0.48 0.48 0.0 0 0 220.20 279.21
  L 220.18 301.57
  A 0.48 0.48 0.0 0 1 219.70 302.05
  L 208.86 302.03
  A 0.48 0.48 0.0 0 0 208.38 302.51
  L 208.34 313.03
  A 0.48 0.48 0.0 0 1 207.86 313.51
  L 185.72 313.50
  A 0.48 0.48 0.0 0 0 185.24 313.98
  L 185.24 324.75
  A 0.48 0.48 0.0 0 1 184.76 325.23
  L 139.26 325.25
  A 0.48 0.48 0.0 0 1 138.78 324.77
  L 138.78 313.98
  A 0.48 0.48 0.0 0 0 138.30 313.50
  L 116.20 313.51
  A 0.48 0.48 0.0 0 1 115.72 313.03
  L 115.75 302.48
  A 0.48 0.48 0.0 0 0 115.26 302.00
  L 104.55 302.12
  A 0.48 0.48 0.0 0 1 104.06 301.64
  L 104.08 279.18
  A 0.48 0.48 0.0 0 0 103.59 278.70
  L 92.99 278.87
  A 0.48 0.48 0.0 0 1 92.50 278.39
  L 92.51 233.11
  A 0.48 0.48 0.0 0 1 92.99 232.63
  L 103.68 232.53
  A 0.48 0.48 0.0 0 0 104.16 232.05
  L 104.07 209.83
  A 0.48 0.48 0.0 0 1 104.56 209.35
  L 115.25 209.52
  A 0.48 0.48 0.0 0 0 115.74 209.04
  L 115.73 198.12
  A 0.48 0.48 0.0 0 1 116.21 197.64
  L 138.29 197.64
  A 0.48 0.48 0.0 0 0 138.77 197.16
  Z
  M 146.92 267.21
  A 0.44 0.44 0.0 0 1 146.48 266.77
  L 146.51 255.94
  A 0.44 0.44 0.0 0 0 146.07 255.50
  L 135.17 255.52
  A 0.44 0.44 0.0 0 0 134.73 255.96
  L 134.70 290.17
  A 0.44 0.44 0.0 0 0 135.14 290.61
  L 157.74 290.58
  A 0.44 0.44 0.0 0 0 158.18 290.14
  L 158.21 267.64
  A 0.44 0.44 0.0 0 0 157.77 267.20
  L 146.92 267.21
  Z" fill="#007bef"></path>
<path d="M 291.36 278.71
  L 280.68 278.78
  A 0.41 0.41 0.0 0 1 280.27 278.37
  L 280.26 233.01
  A 0.41 0.41 0.0 0 1 280.67 232.60
  L 291.36 232.54
  A 0.41 0.41 0.0 0 0 291.77 232.13
  L 291.77 209.80
  A 0.41 0.41 0.0 0 1 292.18 209.39
  L 303.09 209.53
  A 0.41 0.41 0.0 0 0 303.51 209.11
  L 303.47 198.05
  A 0.41 0.41 0.0 0 1 303.88 197.64
  L 326.24 197.64
  A 0.41 0.41 0.0 0 0 326.65 197.23
  L 326.64 186.42
  A 0.41 0.41 0.0 0 1 327.05 186.01
  L 372.37 186.02
  A 0.41 0.41 0.0 0 1 372.78 186.43
  L 372.75 197.24
  A 0.41 0.41 0.0 0 0 373.16 197.65
  L 395.79 197.65
  A 0.41 0.41 0.0 0 1 396.20 198.06
  L 396.23 209.10
  A 0.41 0.41 0.0 0 0 396.64 209.51
  L 407.34 209.43
  A 0.41 0.41 0.0 0 1 407.75 209.84
  L 407.72 232.14
  A 0.41 0.41 0.0 0 0 408.13 232.55
  L 418.86 232.57
  A 0.41 0.41 0.0 0 1 419.27 232.98
  L 419.28 278.33
  A 0.41 0.41 0.0 0 1 418.87 278.74
  L 408.15 278.73
  A 0.41 0.41 0.0 0 0 407.74 279.14
  L 407.75 301.63
  A 0.41 0.41 0.0 0 1 407.34 302.04
  L 396.65 302.05
  A 0.41 0.41 0.0 0 0 396.24 302.46
  L 396.17 313.10
  A 0.41 0.41 0.0 0 1 395.76 313.51
  L 373.18 313.50
  A 0.41 0.41 0.0 0 0 372.77 313.91
  L 372.82 324.82
  A 0.41 0.41 0.0 0 1 372.41 325.23
  L 327.02 325.25
  A 0.41 0.41 0.0 0 1 326.61 324.84
  L 326.63 313.90
  A 0.41 0.41 0.0 0 0 326.22 313.49
  L 303.90 313.51
  A 0.41 0.41 0.0 0 1 303.49 313.10
  L 303.51 302.41
  A 0.41 0.41 0.0 0 0 303.10 302.00
  L 292.18 302.11
  A 0.41 0.41 0.0 0 1 291.77 301.70
  L 291.77 279.12
  A 0.41 0.41 0.0 0 0 291.36 278.71
  Z
  M 334.67 267.22
  A 0.44 0.44 0.0 0 1 334.23 266.78
  L 334.31 255.95
  A 0.44 0.44 0.0 0 0 333.87 255.51
  L 322.94 255.51
  A 0.44 0.44 0.0 0 0 322.50 255.95
  L 322.43 290.19
  A 0.44 0.44 0.0 0 0 322.87 290.63
  L 345.31 290.61
  A 0.44 0.44 0.0 0 0 345.75 290.17
  L 345.75 267.63
  A 0.44 0.44 0.0 0 0 345.31 267.19
  L 334.67 267.22
  Z" fill="#007bef"></path>
<path d="M 146.92 267.21
  L 157.77 267.20
  A 0.44 0.44 0.0 0 1 158.21 267.64
  L 158.18 290.14
  A 0.44 0.44 0.0 0 1 157.74 290.58
  L 135.14 290.61
  A 0.44 0.44 0.0 0 1 134.70 290.17
  L 134.73 255.96
  A 0.44 0.44 0.0 0 1 135.17 255.52
  L 146.07 255.50
  A 0.44 0.44 0.0 0 1 146.51 255.94
  L 146.48 266.77
  A 0.44 0.44 0.0 0 0 146.92 267.21
  Z" fill="#ffffff"></path>
<path d="M 334.67 267.22
  L 345.31 267.19
  A 0.44 0.44 0.0 0 1 345.75 267.63
  L 345.75 290.17
  A 0.44 0.44 0.0 0 1 345.31 290.61
  L 322.87 290.63
  A 0.44 0.44 0.0 0 1 322.43 290.19
  L 322.50 255.95
  A 0.44 0.44 0.0 0 1 322.94 255.51
  L 333.87 255.51
  A 0.44 0.44 0.0 0 1 334.31 255.95
  L 334.23 266.78
  A 0.44 0.44 0.0 0 0 334.67 267.22
  Z" fill="#ffffff"></path>
</svg>
