<svg viewBox="0.00 0.00 48.00 48.00" version="1.1" xmlns="http://www.w3.org/2000/svg">
<path d="M 30.24 13.50
  C 32.69 14.36 36.48 14.77 34.93 18.68
  A 1.27 1.25 -1.4 0 1 34.25 19.38
  L 32.91 19.96
  Q 32.32 20.22 32.26 20.86
  L 32.21 21.28
  Q 32.16 21.72 31.72 21.78
  L 30.88 21.90
  Q 30.29 21.99 30.28 21.39
  Q 30.28 19.76 28.57 19.51
  Q 27.99 19.43 27.80 18.88
  L 27.32 17.49
  A 0.65 0.65 0.0 0 1 28.32 16.75
  L 30.34 18.26
  A 1.66 1.66 0.0 0 0 32.34 18.25
  L 32.83 17.87
  A 0.83 0.82 38.8 0 0 32.67 16.47
  C 30.40 15.40 25.96 15.13 27.98 11.23
  A 1.33 1.32 -85.4 0 1 28.75 10.57
  Q 30.35 10.04 30.33 8.34
  A 0.38 0.38 0.0 0 1 30.76 7.96
  L 31.86 8.12
  Q 32.17 8.16 32.19 8.48
  L 32.24 9.26
  A 0.80 0.79 6.1 0 0 32.83 9.98
  Q 34.46 10.41 35.10 11.95
  A 0.66 0.66 0.0 0 1 34.78 12.79
  L 34.53 12.91
  A 1.05 1.04 -29.7 0 1 33.22 12.56
  Q 32.25 11.16 30.77 11.50
  Q 29.58 11.77 29.74 12.89
  Q 29.80 13.35 30.24 13.50
  Z" fill="#38a169"></path>
<circle r="4.59" cy="14.93" cx="17.27" fill="#38a169"></circle>
<path d="M 40.28 24.02
  C 38.08 45.29 9.17 45.01 7.68 24.02
  A 0.28 0.27 -2.8 0 1 7.96 23.72
  L 13.38 23.76
  A 0.28 0.28 0.0 0 1 13.66 24.02
  C 14.89 37.25 33.43 37.08 34.31 24.10
  Q 34.33 23.73 34.70 23.73
  L 40.03 23.74
  A 0.25 0.25 0.0 0 1 40.28 24.02
  Z" fill="#38a169"></path>
</svg>
