<svg viewBox="0.00 0.00 192.00 192.00" version="1.1" xmlns="http://www.w3.org/2000/svg">
<path d="M 59.06 90.69
  Q 55.61 80.74 46.42 76.43
  C 41.66 74.20 35.47 74.92 30.09 74.97
  A 1.37 1.36 -17.0 0 1 28.93 74.36
  C 19.96 60.84 24.76 41.65 40.75 36.20
  A 0.73 0.73 0.0 0 1 41.68 36.66
  Q 42.99 40.51 45.22 43.91
  C 47.05 46.69 49.96 48.88 52.49 51.30
  Q 53.51 52.28 54.73 52.18
  Q 55.48 52.12 54.90 51.64
  C 51.05 48.50 46.89 45.54 44.58 40.84
  C 37.60 26.66 43.21 10.88 57.74 4.62
  C 62.87 2.41 73.00 1.97 78.36 4.17
  Q 85.68 7.16 91.31 13.68
  C 93.89 16.68 95.11 18.54 95.03 22.77
  C 94.88 30.45 95.27 39.22 95.27 45.74
  Q 95.30 106.40 95.22 167.07
  Q 95.21 171.88 94.17 174.79
  C 89.86 186.82 76.63 192.81 64.62 191.36
  C 53.52 190.03 43.21 181.03 41.93 169.76
  Q 41.72 167.95 41.81 163.10
  C 41.93 156.08 46.14 151.01 50.48 146.02
  Q 50.92 145.52 50.26 145.38
  L 49.84 145.29
  A 0.82 0.82 0.0 0 0 49.06 145.54
  Q 44.69 150.35 41.58 156.05
  A 0.68 0.68 0.0 0 1 40.57 156.26
  Q 29.57 147.59 31.97 133.50
  Q 32.10 132.71 31.33 132.53
  C 12.98 128.30 -0.93 104.87 11.43 87.65
  C 23.40 70.96 47.49 73.68 57.86 90.15
  Q 58.13 90.59 58.75 90.95
  Q 59.25 91.25 59.06 90.69
  Z" fill="#e85a4f"></path>
<path d="M 153.12 76.95
  C 161.07 75.83 168.22 76.17 174.95 80.80
  Q 187.42 89.37 186.84 103.68
  C 186.38 115.00 179.66 123.51 169.23 127.49
  C 164.32 129.36 155.29 129.68 151.07 127.57
  A 0.86 0.85 28.1 0 0 149.94 127.91
  L 141.42 143.00
  Q 141.16 143.46 141.52 143.85
  Q 142.72 145.17 144.04 146.37
  C 157.12 158.26 153.71 180.68 137.98 188.54
  C 121.89 196.59 100.31 188.26 98.28 169.00
  C 96.94 156.30 102.52 145.38 114.47 140.92
  C 116.48 140.17 118.44 139.26 120.60 139.17
  Q 124.86 138.99 129.11 139.12
  C 131.72 139.20 133.71 140.56 136.29 141.14
  Q 137.20 141.34 137.66 140.53
  L 146.00 125.84
  A 0.39 0.37 -61.1 0 0 145.86 125.32
  C 136.37 120.05 131.93 110.62 132.85 99.89
  Q 134.03 86.13 147.29 79.10
  A 0.51 0.50 -28.3 0 0 147.50 78.41
  Q 141.66 67.92 135.75 57.58
  Q 135.70 57.49 134.99 55.87
  C 133.92 53.43 131.79 54.71 130.13 54.76
  C 125.33 54.91 120.18 55.28 115.75 53.78
  C 108.32 51.26 100.49 44.95 99.21 36.75
  C 98.36 31.31 97.60 25.28 99.19 20.18
  C 101.54 12.62 107.64 7.06 114.93 4.25
  C 119.36 2.54 128.02 2.23 132.75 3.55
  C 146.57 7.40 154.13 20.21 151.46 34.23
  C 149.87 42.53 145.53 47.10 139.37 51.64
  A 0.57 0.56 57.6 0 0 139.21 52.36
  L 152.56 76.68
  Q 152.74 77.01 153.12 76.95
  Z" fill="#e85a4f"></path>
</svg>
