<svg viewBox="0.00 0.00 32.00 32.00" version="1.1" xmlns="http://www.w3.org/2000/svg">
<g stroke-linecap="butt" fill="none" stroke-width="2.00">
<path d="M 25.37 30.98
  C 28.48 30.96 30.74 28.57 30.80 25.49
  Q 31.02 13.76 31.02 2.16
  A 1.14 1.14 0.0 0 0 29.88 1.02
  Q 19.11 0.98 8.02 1.03
  C 2.68 1.05 1.03 3.42 1.01 8.71
  Q 0.98 19.35 1.01 29.94
  A 1.05 1.05 0.0 0 0 2.05 30.98
  Q 13.69 31.03 25.37 30.98" stroke="#126655"></path>
<path d="M 21.46 9.49
  Q 21.42 10.98 22.88 11.31
  A 0.66 0.66 0.0 0 0 23.68 10.68
  L 23.73 7.08
  A 0.58 0.57 2.1 0 0 23.18 6.50
  C 18.28 6.31 9.61 4.81 8.26 11.75
  C 7.21 17.11 11.76 20.60 16.89 19.98
  Q 17.54 19.90 17.83 19.55
  Q 18.25 19.03 17.98 18.36
  Q 17.78 17.85 17.25 17.74
  C 15.79 17.45 14.25 17.79 13.00 17.11
  C 8.82 14.84 10.35 8.93 14.99 8.76
  Q 17.89 8.66 20.81 8.78
  Q 21.48 8.81 21.46 9.49" stroke="#126655"></path>
<path d="M 10.74 22.67
  Q 10.51 22.03 10.24 21.46
  Q 9.72 20.38 8.78 20.93
  A 1.01 1.01 0.0 0 0 8.27 21.81
  L 8.23 24.68
  A 0.91 0.91 0.0 0 0 9.13 25.60
  C 12.57 25.64 17.56 26.26 20.25 24.72
  C 22.70 23.32 23.99 20.59 23.46 17.74
  Q 22.30 11.59 14.99 12.14
  Q 13.73 12.24 13.86 13.46
  A 0.92 0.92 0.0 0 0 14.68 14.29
  C 16.30 14.46 18.20 14.28 19.55 15.09
  C 22.59 16.89 22.01 22.30 18.51 23.07
  Q 16.23 23.57 11.34 23.13
  Q 10.89 23.09 10.74 22.67" stroke="#126655"></path>
</g>
<path d="M 5.84 0.00
  L 30.47 0.00
  Q 31.48 0.67 32.00 1.63
  L 32.00 26.23
  Q 30.72 30.82 26.17 32.00
  L 1.53 32.00
  Q 0.50 31.36 0.00 30.37
  L 0.00 5.74
  Q 1.28 1.19 5.84 0.00
  Z
  M 25.37 30.98
  C 28.48 30.96 30.74 28.57 30.80 25.49
  Q 31.02 13.76 31.02 2.16
  A 1.14 1.14 0.0 0 0 29.88 1.02
  Q 19.11 0.98 8.02 1.03
  C 2.68 1.05 1.03 3.42 1.01 8.71
  Q 0.98 19.35 1.01 29.94
  A 1.05 1.05 0.0 0 0 2.05 30.98
  Q 13.69 31.03 25.37 30.98
  Z" fill="#24cba9"></path>
<path d="M 30.80 25.49
  C 30.74 28.57 28.48 30.96 25.37 30.98
  Q 13.69 31.03 2.05 30.98
  A 1.05 1.05 0.0 0 1 1.01 29.94
  Q 0.98 19.35 1.01 8.71
  C 1.03 3.42 2.68 1.05 8.02 1.03
  Q 19.11 0.98 29.88 1.02
  A 1.14 1.14 0.0 0 1 31.02 2.16
  Q 31.02 13.76 30.80 25.49
  Z
  M 21.46 9.49
  Q 21.42 10.98 22.88 11.31
  A 0.66 0.66 0.0 0 0 23.68 10.68
  L 23.73 7.08
  A 0.58 0.57 2.1 0 0 23.18 6.50
  C 18.28 6.31 9.61 4.81 8.26 11.75
  C 7.21 17.11 11.76 20.60 16.89 19.98
  Q 17.54 19.90 17.83 19.55
  Q 18.25 19.03 17.98 18.36
  Q 17.78 17.85 17.25 17.74
  C 15.79 17.45 14.25 17.79 13.00 17.11
  C 8.82 14.84 10.35 8.93 14.99 8.76
  Q 17.89 8.66 20.81 8.78
  Q 21.48 8.81 21.46 9.49
  Z
  M 10.74 22.67
  Q 10.51 22.03 10.24 21.46
  Q 9.72 20.38 8.78 20.93
  A 1.01 1.01 0.0 0 0 8.27 21.81
  L 8.23 24.68
  A 0.91 0.91 0.0 0 0 9.13 25.60
  C 12.57 25.64 17.56 26.26 20.25 24.72
  C 22.70 23.32 23.99 20.59 23.46 17.74
  Q 22.30 11.59 14.99 12.14
  Q 13.73 12.24 13.86 13.46
  A 0.92 0.92 0.0 0 0 14.68 14.29
  C 16.30 14.46 18.20 14.28 19.55 15.09
  C 22.59 16.89 22.01 22.30 18.51 23.07
  Q 16.23 23.57 11.34 23.13
  Q 10.89 23.09 10.74 22.67
  Z" fill="#000000"></path>
<path d="M 20.81 8.78
  Q 17.89 8.66 14.99 8.76
  C 10.35 8.93 8.82 14.84 13.00 17.11
  C 14.25 17.79 15.79 17.45 17.25 17.74
  Q 17.78 17.85 17.98 18.36
  Q 18.25 19.03 17.83 19.55
  Q 17.54 19.90 16.89 19.98
  C 11.76 20.60 7.21 17.11 8.26 11.75
  C 9.61 4.81 18.28 6.31 23.18 6.50
  A 0.58 0.57 2.1 0 1 23.73 7.08
  L 23.68 10.68
  A 0.66 0.66 0.0 0 1 22.88 11.31
  Q 21.42 10.98 21.46 9.49
  Q 21.48 8.81 20.81 8.78
  Z" fill="#24cba9"></path>
<path d="M 11.34 23.13
  Q 16.23 23.57 18.51 23.07
  C 22.01 22.30 22.59 16.89 19.55 15.09
  C 18.20 14.28 16.30 14.46 14.68 14.29
  A 0.92 0.92 0.0 0 1 13.86 13.46
  Q 13.73 12.24 14.99 12.14
  Q 22.30 11.59 23.46 17.74
  C 23.99 20.59 22.70 23.32 20.25 24.72
  C 17.56 26.26 12.57 25.64 9.13 25.60
  A 0.91 0.91 0.0 0 1 8.23 24.68
  L 8.27 21.81
  A 1.01 1.01 0.0 0 1 8.78 20.93
  Q 9.72 20.38 10.24 21.46
  Q 10.51 22.03 10.74 22.67
  Q 10.89 23.09 11.34 23.13
  Z" fill="#24cba9"></path>
</svg>
