<svg viewBox="0.00 0.00 192.00 192.00" version="1.1" xmlns="http://www.w3.org/2000/svg">
<g stroke-linecap="butt" fill="none" stroke-width="2.00">
<path d="M 186.01 61.85
  Q 151.01 83.44 115.99 104.84
  Q 111.06 107.85 108.18 108.51
  C 104.45 109.37 98.50 109.44 95.45 106.57
  Q 80.54 92.57 48.56 61.73" stroke="#bdc9d1"></path>
<path d="M 183.87 75.70
  L 133.64 105.84
  A 0.37 0.37 0.0 0 0 133.55 106.39
  L 162.56 141.55" stroke="#b3c0c9"></path>
<path d="M 153.37 148.75
  L 123.59 112.60
  Q 123.07 111.98 122.42 112.45
  C 109.65 121.70 96.62 123.36 85.20 110.72
  A 0.35 0.33 -38.9 0 0 84.75 110.68
  L 31.84 148.79" stroke="#b3c0c9"></path>
<path d="M 26.66 141.57
  L 78.05 104.63
  A 0.42 0.42 0.0 0 0 78.10 103.98
  L 43.84 71.21" stroke="#b3c0c9"></path>
</g>
<path d="M 186.01 61.85
  Q 151.01 83.44 115.99 104.84
  Q 111.06 107.85 108.18 108.51
  C 104.45 109.37 98.50 109.44 95.45 106.57
  Q 80.54 92.57 48.56 61.73
  Q 58.01 50.36 72.25 50.36
  Q 118.26 50.37 164.25 50.38
  C 174.39 50.39 182.76 50.49 186.01 61.85
  Z" fill="#e1e8ed"></path>
<rect rx="4.88" height="10.08" width="35.22" transform="translate(22.74,65.68) rotate(-0.1)" y="-5.04" x="-17.61" fill="#55acee"></rect>
<path d="M 48.56 61.73
  Q 80.54 92.57 95.45 106.57
  C 98.50 109.44 104.45 109.37 108.18 108.51
  Q 111.06 107.85 115.99 104.84
  Q 151.01 83.44 186.01 61.85
  Q 186.43 64.35 186.20 66.50
  Q 185.67 71.40 183.87 75.70
  L 133.64 105.84
  A 0.37 0.37 0.0 0 0 133.55 106.39
  L 162.56 141.55
  Q 158.83 145.93 153.37 148.75
  L 123.59 112.60
  Q 123.07 111.98 122.42 112.45
  C 109.65 121.70 96.62 123.36 85.20 110.72
  A 0.35 0.33 -38.9 0 0 84.75 110.68
  L 31.84 148.79
  Q 28.10 146.15 26.66 141.57
  L 78.05 104.63
  A 0.42 0.42 0.0 0 0 78.10 103.98
  L 43.84 71.21
  Q 45.21 66.03 48.56 61.73
  Z" fill="#99aab5"></path>
<path d="M 43.84 71.21
  L 78.10 103.98
  A 0.42 0.42 0.0 0 1 78.05 104.63
  L 26.66 141.57
  Q 25.39 136.45 26.92 131.00
  Q 35.17 101.70 43.84 71.21
  Z" fill="#ccd6dd"></path>
<path d="M 183.87 75.70
  Q 172.67 116.70 167.42 133.75
  Q 166.42 137.02 162.56 141.55
  L 133.55 106.39
  A 0.37 0.37 0.0 0 1 133.64 105.84
  L 183.87 75.70
  Z" fill="#ccd6dd"></path>
<rect rx="4.82" height="10.06" width="25.06" transform="translate(17.69,90.94) rotate(0.2)" y="-5.03" x="-12.53" fill="#55acee"></rect>
<path d="M 153.37 148.75
  Q 147.57 151.65 143.38 151.65
  Q 92.19 151.64 41.00 151.63
  Q 36.35 151.63 31.84 148.79
  L 84.75 110.68
  A 0.35 0.33 -38.9 0 1 85.20 110.72
  C 96.62 123.36 109.65 121.70 122.42 112.45
  Q 123.07 111.98 123.59 112.60
  L 153.37 148.75
  Z" fill="#ccd6dd"></path>
<rect rx="4.66" height="9.96" width="14.92" transform="translate(12.64,116.23) rotate(-0.7)" y="-4.98" x="-7.46" fill="#55acee"></rect>
</svg>
