<svg viewBox="0.00 0.00 256.00 256.00" version="1.1" xmlns="http://www.w3.org/2000/svg">
<g stroke-linecap="butt" fill="none" stroke-width="2.00">
<path d="M 234.92 15.12
  Q 217.02 3.04 197.75 3.04
  Q 127.63 3.05 57.50 3.04
  Q 40.56 3.04 25.82 12.49
  Q 24.25 13.49 20.71 16.57
  Q 18.20 18.75 15.42 20.45" stroke="#ffc272"></path>
<path d="M 252.57 212.28
  Q 246.18 224.40 238.03 233.38
  C 235.12 236.59 231.85 238.57 228.23 240.91
  Q 216.47 248.51 202.50 249.59
  Q 197.88 249.95 193.25 249.96
  Q 125.63 250.08 58.00 249.76
  Q 49.97 249.72 46.48 248.86
  Q 12.49 240.44 2.23 205.74" stroke="#f1a43e"></path>
<path d="M 101.10 123.43
  Q 106.23 130.52 115.03 133.16
  Q 124.27 135.93 133.54 138.52
  Q 140.58 140.48 145.43 145.79
  Q 145.61 146.00 147.22 145.79" stroke="#ffc272"></path>
<path d="M 147.22 145.79
  Q 154.98 163.81 141.11 172.22
  C 133.92 176.58 123.91 177.14 116.58 173.17
  C 108.80 168.96 105.92 161.87 105.94 153.33
  A 3.08 3.07 1.6 0 0 103.03 150.26
  C 100.23 150.11 89.34 148.75 89.05 152.99
  Q 88.01 168.62 98.41 180.45" stroke="#a6712a"></path>
<path d="M 98.41 180.45
  Q 98.70 182.58 101.62 184.62
  C 119.64 197.19 145.53 196.07 160.16 178.80
  A 0.35 0.23 40.1 0 0 160.04 178.39
  Q 159.91 178.27 159.50 178.28" stroke="#ffc272"></path>
<path d="M 159.50 178.28
  Q 167.28 168.11 167.12 155.26
  C 166.78 128.19 145.14 123.58 124.54 117.12
  C 116.35 114.55 109.95 109.35 109.50 100.26
  Q 109.18 93.69 112.59 89.90" stroke="#a6712a"></path>
<path d="M 112.59 89.90
  Q 117.46 86.27 119.91 85.40
  Q 133.00 80.76 144.79 89.02" stroke="#ffc272"></path>
<path d="M 144.79 89.02
  Q 146.59 90.53 147.43 93.06
  C 148.60 96.58 147.62 101.54 149.88 104.47" stroke="#a6712a"></path>
<path d="M 149.88 104.47
  Q 149.47 105.48 150.83 105.68
  C 153.15 106.02 163.54 107.15 165.12 104.13
  Q 165.39 103.60 164.74 103.47" stroke="#ffc272"></path>
<path d="M 164.74 103.47
  Q 164.81 103.16 165.02 102.84
  A 1.89 1.82 64.4 0 0 165.32 101.93
  C 168.05 53.94 87.95 55.48 92.66 104.00
  Q 93.70 114.79 101.10 123.43" stroke="#a6712a"></path>
<path d="M 164.74 103.47
  Q 163.58 104.85 160.80 104.85
  Q 152.61 104.83 149.88 104.47" stroke="#a6855b"></path>
<path d="M 144.79 89.02
  Q 136.03 80.04 121.89 83.65
  Q 116.13 85.13 112.59 89.90" stroke="#a6855b"></path>
<path d="M 159.50 178.28
  C 144.70 196.03 114.57 195.92 98.41 180.45" stroke="#a6855b"></path>
<path d="M 147.22 145.79
  Q 141.31 139.80 132.73 137.23
  Q 125.02 134.93 117.33 132.54
  Q 108.32 129.75 101.10 123.43" stroke="#a6855b"></path>
</g>
<path d="M 234.92 15.12
  Q 217.02 3.04 197.75 3.04
  Q 127.63 3.05 57.50 3.04
  Q 40.56 3.04 25.82 12.49
  Q 24.25 13.49 20.71 16.57
  Q 18.20 18.75 15.42 20.45
  Q 27.95 6.54 45.36 2.65
  Q 51.52 1.27 65.25 1.26
  Q 128.37 1.22 191.50 1.27
  Q 205.31 1.28 211.37 2.73
  Q 224.40 5.84 234.92 15.12
  Z" fill="#ffd6a2"></path>
<path d="M 234.92 15.12
  Q 249.40 27.21 253.38 45.61
  Q 254.74 51.86 254.74 65.50
  Q 254.77 133.49 254.73 201.50
  Q 254.73 207.29 252.57 212.28
  Q 246.18 224.40 238.03 233.38
  C 235.12 236.59 231.85 238.57 228.23 240.91
  Q 216.47 248.51 202.50 249.59
  Q 197.88 249.95 193.25 249.96
  Q 125.63 250.08 58.00 249.76
  Q 49.97 249.72 46.48 248.86
  Q 12.49 240.44 2.23 205.74
  Q 1.24 204.39 1.24 200.75
  Q 1.24 133.37 1.25 66.01
  Q 1.26 51.95 2.48 46.09
  Q 5.47 31.73 15.42 20.45
  Q 18.20 18.75 20.71 16.57
  Q 24.25 13.49 25.82 12.49
  Q 40.56 3.04 57.50 3.04
  Q 127.63 3.05 197.75 3.04
  Q 217.02 3.04 234.92 15.12
  Z
  M 101.10 123.43
  Q 106.23 130.52 115.03 133.16
  Q 124.27 135.93 133.54 138.52
  Q 140.58 140.48 145.43 145.79
  Q 145.61 146.00 147.22 145.79
  Q 154.98 163.81 141.11 172.22
  C 133.92 176.58 123.91 177.14 116.58 173.17
  C 108.80 168.96 105.92 161.87 105.94 153.33
  A 3.08 3.07 1.6 0 0 103.03 150.26
  C 100.23 150.11 89.34 148.75 89.05 152.99
  Q 88.01 168.62 98.41 180.45
  Q 98.70 182.58 101.62 184.62
  C 119.64 197.19 145.53 196.07 160.16 178.80
  A 0.35 0.23 40.1 0 0 160.04 178.39
  Q 159.91 178.27 159.50 178.28
  Q 167.28 168.11 167.12 155.26
  C 166.78 128.19 145.14 123.58 124.54 117.12
  C 116.35 114.55 109.95 109.35 109.50 100.26
  Q 109.18 93.69 112.59 89.90
  Q 117.46 86.27 119.91 85.40
  Q 133.00 80.76 144.79 89.02
  Q 146.59 90.53 147.43 93.06
  C 148.60 96.58 147.62 101.54 149.88 104.47
  Q 149.47 105.48 150.83 105.68
  C 153.15 106.02 163.54 107.15 165.12 104.13
  Q 165.39 103.60 164.74 103.47
  Q 164.81 103.16 165.02 102.84
  A 1.89 1.82 64.4 0 0 165.32 101.93
  C 168.05 53.94 87.95 55.48 92.66 104.00
  Q 93.70 114.79 101.10 123.43
  Z" fill="#ffae41"></path>
<path d="M 164.74 103.47
  Q 163.58 104.85 160.80 104.85
  Q 152.61 104.83 149.88 104.47
  C 147.62 101.54 148.60 96.58 147.43 93.06
  Q 146.59 90.53 144.79 89.02
  Q 136.03 80.04 121.89 83.65
  Q 116.13 85.13 112.59 89.90
  Q 109.18 93.69 109.50 100.26
  C 109.95 109.35 116.35 114.55 124.54 117.12
  C 145.14 123.58 166.78 128.19 167.12 155.26
  Q 167.28 168.11 159.50 178.28
  C 144.70 196.03 114.57 195.92 98.41 180.45
  Q 88.01 168.62 89.05 152.99
  C 89.34 148.75 100.23 150.11 103.03 150.26
  A 3.08 3.07 1.6 0 1 105.94 153.33
  C 105.92 161.87 108.80 168.96 116.58 173.17
  C 123.91 177.14 133.92 176.58 141.11 172.22
  Q 154.98 163.81 147.22 145.79
  Q 141.31 139.80 132.73 137.23
  Q 125.02 134.93 117.33 132.54
  Q 108.32 129.75 101.10 123.43
  Q 93.70 114.79 92.66 104.00
  C 87.95 55.48 168.05 53.94 165.32 101.93
  A 1.89 1.82 64.4 0 1 165.02 102.84
  Q 164.81 103.16 164.74 103.47
  Z" fill="#4d3413"></path>
<path d="M 144.79 89.02
  Q 133.00 80.76 119.91 85.40
  Q 117.46 86.27 112.59 89.90
  Q 116.13 85.13 121.89 83.65
  Q 136.03 80.04 144.79 89.02
  Z" fill="#ffd6a2"></path>
<path d="M 164.74 103.47
  Q 165.39 103.60 165.12 104.13
  C 163.54 107.15 153.15 106.02 150.83 105.68
  Q 149.47 105.48 149.88 104.47
  Q 152.61 104.83 160.80 104.85
  Q 163.58 104.85 164.74 103.47
  Z" fill="#ffd6a2"></path>
<path d="M 101.10 123.43
  Q 108.32 129.75 117.33 132.54
  Q 125.02 134.93 132.73 137.23
  Q 141.31 139.80 147.22 145.79
  Q 145.61 146.00 145.43 145.79
  Q 140.58 140.48 133.54 138.52
  Q 124.27 135.93 115.03 133.16
  Q 106.23 130.52 101.10 123.43
  Z" fill="#ffd6a2"></path>
<path d="M 159.50 178.28
  Q 159.91 178.27 160.04 178.39
  A 0.35 0.23 40.1 0 1 160.16 178.80
  C 145.53 196.07 119.64 197.19 101.62 184.62
  Q 98.70 182.58 98.41 180.45
  C 114.57 195.92 144.70 196.03 159.50 178.28
  Z" fill="#ffd6a2"></path>
<path d="M 2.23 205.74
  Q 12.49 240.44 46.48 248.86
  Q 49.97 249.72 58.00 249.76
  Q 125.63 250.08 193.25 249.96
  Q 197.88 249.95 202.50 249.59
  Q 216.47 248.51 228.23 240.91
  C 231.85 238.57 235.12 236.59 238.03 233.38
  Q 246.18 224.40 252.57 212.28
  Q 249.96 224.54 242.10 233.84
  Q 229.09 249.25 210.40 253.38
  Q 204.18 254.76 190.50 254.75
  Q 127.76 254.73 65.03 254.77
  Q 51.96 254.77 45.56 253.35
  Q 22.18 248.17 8.94 226.76
  Q 3.03 217.22 2.23 205.74
  Z" fill="#e39a3a"></path>
</svg>
