<svg viewBox="0.00 0.00 256.00 256.00" version="1.1" xmlns="http://www.w3.org/2000/svg">
<path d="M 254.00 234.42
  A 19.58 19.58 0.0 0 1 234.42 254.00
  L 21.58 254.00
  A 19.58 19.58 0.0 0 1 2.00 234.42
  L 2.00 21.58
  A 19.58 19.58 0.0 0 1 21.58 2.00
  L 234.42 2.00
  A 19.58 19.58 0.0 0 1 254.00 21.58
  L 254.00 234.42
  Z
  M 133.12 81.37
  C 144.08 79.98 152.44 85.19 159.05 93.82
  Q 159.42 94.30 159.88 93.91
  L 182.58 74.62
  Q 182.93 74.32 182.66 73.93
  C 170.33 56.05 147.69 49.00 126.75 52.51
  C 105.27 56.10 88.33 71.64 86.73 93.71
  C 85.42 111.96 94.11 124.22 108.99 133.56
  Q 117.52 138.91 132.64 147.66
  Q 137.67 150.56 140.19 152.82
  C 147.39 159.26 142.26 170.07 134.51 172.89
  C 119.86 178.22 104.75 170.37 97.11 157.48
  A 0.48 0.48 0.0 0 0 96.38 157.36
  L 73.51 177.49
  A 0.75 0.74 -37.9 0 0 73.38 178.47
  Q 80.81 189.71 92.78 196.43
  C 111.28 206.83 138.74 207.59 157.18 196.17
  Q 174.71 185.32 177.82 164.00
  C 180.50 145.58 174.36 133.62 158.76 123.93
  Q 151.90 119.66 137.29 111.23
  C 130.89 107.54 120.19 101.38 121.41 92.45
  C 122.25 86.36 127.06 82.14 133.12 81.37
  Z" fill="#ffffff"></path>
</svg>
