<svg viewBox="0.00 0.00 256.00 256.00" version="1.1" xmlns="http://www.w3.org/2000/svg">
<g stroke-linecap="butt" fill="none" stroke-width="2.00">
<path d="M 70.53 90.26
  A 10.26 10.26 0.0 0 0 60.27 80.00
  A 10.26 10.26 0.0 0 0 50.01 90.26
  A 10.26 10.26 0.0 0 0 60.27 100.52
  A 10.26 10.26 0.0 0 0 70.53 90.26" stroke="#df8ca8"></path>
<path d="M 205.99 80.32
  A 0.32 0.32 0.0 0 0 205.67 80.00
  L 83.19 80.00
  A 0.32 0.32 0.0 0 0 82.87 80.32
  L 82.87 100.18
  A 0.32 0.32 0.0 0 0 83.19 100.50
  L 205.67 100.50
  A 0.32 0.32 0.0 0 0 205.99 100.18
  L 205.99 80.32" stroke="#df8ca8"></path>
<path d="M 70.54 127.22
  A 10.27 10.27 0.0 0 0 60.27 116.95
  A 10.27 10.27 0.0 0 0 50.00 127.22
  A 10.27 10.27 0.0 0 0 60.27 137.49
  A 10.27 10.27 0.0 0 0 70.54 127.22" stroke="#b57ca6"></path>
<path d="M 206.00 117.38
  A 0.38 0.38 0.0 0 0 205.62 117.00
  L 83.24 117.00
  A 0.38 0.38 0.0 0 0 82.86 117.38
  L 82.86 137.12
  A 0.38 0.38 0.0 0 0 83.24 137.50
  L 205.62 137.50
  A 0.38 0.38 0.0 0 0 206.00 137.12
  L 206.00 117.38" stroke="#b57ca6"></path>
<path d="M 70.52 166.22
  A 10.26 10.26 0.0 0 0 60.26 155.96
  A 10.26 10.26 0.0 0 0 50.00 166.22
  A 10.26 10.26 0.0 0 0 60.26 176.48
  A 10.26 10.26 0.0 0 0 70.52 166.22" stroke="#a489ad"></path>
<path d="M 206.00 156.41
  A 0.41 0.41 0.0 0 0 205.59 156.00
  L 83.29 156.00
  A 0.41 0.41 0.0 0 0 82.88 156.41
  L 82.88 176.09
  A 0.41 0.41 0.0 0 0 83.29 176.50
  L 205.59 176.50
  A 0.41 0.41 0.0 0 0 206.00 176.09
  L 206.00 156.41" stroke="#a489ad"></path>
</g>
<path d="M 0.00 0.00
  L 256.00 0.00
  L 256.00 256.00
  L 0.00 256.00
  L 0.00 0.00
  Z
  M 70.53 90.26
  A 10.26 10.26 0.0 0 0 60.27 80.00
  A 10.26 10.26 0.0 0 0 50.01 90.26
  A 10.26 10.26 0.0 0 0 60.27 100.52
  A 10.26 10.26 0.0 0 0 70.53 90.26
  Z
  M 205.99 80.32
  A 0.32 0.32 0.0 0 0 205.67 80.00
  L 83.19 80.00
  A 0.32 0.32 0.0 0 0 82.87 80.32
  L 82.87 100.18
  A 0.32 0.32 0.0 0 0 83.19 100.50
  L 205.67 100.50
  A 0.32 0.32 0.0 0 0 205.99 100.18
  L 205.99 80.32
  Z
  M 70.54 127.22
  A 10.27 10.27 0.0 0 0 60.27 116.95
  A 10.27 10.27 0.0 0 0 50.00 127.22
  A 10.27 10.27 0.0 0 0 60.27 137.49
  A 10.27 10.27 0.0 0 0 70.54 127.22
  Z
  M 206.00 117.38
  A 0.38 0.38 0.0 0 0 205.62 117.00
  L 83.24 117.00
  A 0.38 0.38 0.0 0 0 82.86 117.38
  L 82.86 137.12
  A 0.38 0.38 0.0 0 0 83.24 137.50
  L 205.62 137.50
  A 0.38 0.38 0.0 0 0 206.00 137.12
  L 206.00 117.38
  Z
  M 70.52 166.22
  A 10.26 10.26 0.0 0 0 60.26 155.96
  A 10.26 10.26 0.0 0 0 50.00 166.22
  A 10.26 10.26 0.0 0 0 60.26 176.48
  A 10.26 10.26 0.0 0 0 70.52 166.22
  Z
  M 206.00 156.41
  A 0.41 0.41 0.0 0 0 205.59 156.00
  L 83.29 156.00
  A 0.41 0.41 0.0 0 0 82.88 156.41
  L 82.88 176.09
  A 0.41 0.41 0.0 0 0 83.29 176.50
  L 205.59 176.50
  A 0.41 0.41 0.0 0 0 206.00 176.09
  L 206.00 156.41
  Z" fill="#e5d6e9"></path>
<circle r="10.26" cy="90.26" cx="60.27" fill="#d94167"></circle>
<rect rx="0.32" height="20.50" width="123.12" y="80.00" x="82.87" fill="#d94167"></rect>
<circle r="10.27" cy="127.22" cx="60.27" fill="#842162"></circle>
<rect rx="0.38" height="20.50" width="123.14" y="117.00" x="82.86" fill="#842162"></rect>
<circle r="10.26" cy="166.22" cx="60.26" fill="#623b70"></circle>
<rect rx="0.41" height="20.50" width="123.12" y="156.00" x="82.88" fill="#623b70"></rect>
</svg>
