<svg viewBox="0.00 0.00 48.00 48.00" version="1.1" xmlns="http://www.w3.org/2000/svg">
<path d="M 16.35 4.47
  Q 15.32 2.71 16.05 0.78
  A 0.53 0.52 -58.0 0 1 16.90 0.58
  Q 17.37 1.03 17.46 1.71
  A 0.38 0.38 0.0 0 0 18.13 1.91
  Q 19.92 -0.23 22.77 0.68
  Q 23.24 0.83 23.15 1.31
  Q 22.53 4.59 19.38 5.50
  Q 18.59 5.73 18.76 6.53
  L 18.94 7.43
  Q 19.10 8.22 19.90 8.08
  Q 31.25 6.08 39.55 14.99
  Q 41.03 16.59 40.61 18.28
  Q 40.46 18.84 39.93 19.08
  L 7.23 33.50
  A 1.96 1.95 -16.6 0 1 4.51 32.03
  Q 2.51 20.06 11.03 12.53
  C 12.91 10.88 15.41 9.78 17.70 8.51
  Q 17.86 8.42 17.78 8.27
  L 17.63 7.97
  A 0.51 0.51 0.0 0 0 16.97 7.74
  Q 14.42 8.91 13.03 6.45
  Q 12.72 5.90 13.30 5.66
  Q 14.60 5.13 16.02 5.08
  A 0.41 0.40 73.5 0 0 16.35 4.47
  Z
  M 25.03 15.43
  A 0.56 0.56 0.0 0 0 24.29 15.17
  L 22.72 15.93
  A 0.56 0.56 0.0 0 0 22.44 16.64
  L 23.36 18.96
  A 0.56 0.56 0.0 0 0 24.14 19.25
  L 25.86 18.38
  A 0.56 0.56 0.0 0 0 26.11 17.63
  L 25.03 15.43
  Z
  M 17.0141 19.1726
  A 0.68 0.68 0.0 0 0 16.1322 18.7891
  L 14.7738 19.3242
  A 0.68 0.68 0.0 0 0 14.3903 20.2061
  L 15.2259 22.3274
  A 0.68 0.68 0.0 0 0 16.1078 22.7109
  L 17.4662 22.1758
  A 0.68 0.68 0.0 0 0 17.8497 21.2939
  L 17.0141 19.1726
  Z" fill="#ff5c00"></path>
<path d="M 37.20 22.52
  C 38.32 22.10 39.92 21.11 41.50 20.94
  A 0.79 0.79 0.0 0 1 42.32 21.45
  Q 43.90 25.84 43.34 30.54
  A 1.54 1.54 0.0 0 1 41.25 31.79
  L 31.30 27.91
  A 1.41 1.41 0.0 0 1 31.11 25.38
  Q 33.91 23.75 37.20 22.52
  Z" fill="#ff5c00"></path>
<path d="M 33.64 43.28
  L 28.55 31.89
  A 1.49 1.48 -1.5 0 1 30.44 29.90
  L 40.95 33.95
  Q 42.40 34.50 41.80 35.94
  Q 39.83 40.62 35.86 43.74
  A 1.48 1.39 -31.6 0 1 33.64 43.28
  Z" fill="#ff5c00"></path>
<path d="M 21.90 32.04
  L 16.62 45.54
  A 1.13 1.06 24.7 0 1 15.07 46.06
  Q 9.71 43.21 6.52 38.05
  A 1.61 1.61 0.0 0 1 7.24 35.73
  L 19.94 30.16
  A 1.47 1.47 0.0 0 1 21.90 32.04
  Z" fill="#ff5c00"></path>
<path d="M 25.60 48.00
  L 21.53 48.00
  L 19.18 47.26
  A 0.72 0.72 0.0 0 1 18.72 46.32
  L 23.43 33.88
  Q 25.14 29.35 27.10 33.78
  L 31.68 44.14
  Q 32.56 46.14 30.44 46.71
  L 25.60 48.00
  Z" fill="#ff5c00"></path>
</svg>
