<svg viewBox="0.00 0.00 48.00 48.00" version="1.1" xmlns="http://www.w3.org/2000/svg">
<g stroke-linecap="butt" fill="none" stroke-width="2.00">
<path d="M 40.79 23.23
  Q 40.63 23.65 40.61 24.03
  Q 40.60 24.35 40.28 24.37
  Q 40.15 24.38 40.01 24.37
  Q 39.59 24.36 39.30 24.66
  C 33.14 30.90 20.77 30.39 13.06 27.71
  Q 10.23 26.72 7.04 23.51" stroke="#5225c1"></path>
<path d="M 10.2249 21.0396
  A 9.73 8.70 89.5 0 0 18.8397 11.2341
  A 9.73 8.70 89.5 0 0 10.0551 1.5804
  A 9.73 8.70 89.5 0 0 1.4403 11.3859
  A 9.73 8.70 89.5 0 0 10.2249 21.0396" stroke="#aa98e9"></path>
<path d="M 37.6423 21.0371
  A 9.73 8.70 91.4 0 0 46.5774 11.5226
  A 9.73 8.70 91.4 0 0 38.1177 1.5829
  A 9.73 8.70 91.4 0 0 29.1826 11.0974
  A 9.73 8.70 91.4 0 0 37.6423 21.0371" stroke="#aa98e9"></path>
<path d="M 9.9592 17.8580
  A 6.58 5.90 91.4 0 0 16.0182 11.4241
  A 6.58 5.90 91.4 0 0 10.2808 4.7020
  A 6.58 5.90 91.4 0 0 4.2218 11.1359
  A 6.58 5.90 91.4 0 0 9.9592 17.8580" stroke="#aa98e9"></path>
<path d="M 37.8685 17.8600
  A 6.58 5.90 90.1 0 0 43.7800 11.2903
  A 6.58 5.90 90.1 0 0 37.8915 4.7000
  A 6.58 5.90 90.1 0 0 31.9800 11.2697
  A 6.58 5.90 90.1 0 0 37.8685 17.8600" stroke="#aa98e9"></path>
<path d="M 12.6924 9.9039
  A 1.28 1.13 80.9 0 0 13.6058 8.4613
  A 1.28 1.13 80.9 0 0 12.2876 7.3761
  A 1.28 1.13 80.9 0 0 11.3742 8.8187
  A 1.28 1.13 80.9 0 0 12.6924 9.9039" stroke="#aa98e9"></path>
<path d="M 40.5978 9.8469
  A 1.27 1.09 76.9 0 0 41.3716 8.3630
  A 1.27 1.09 76.9 0 0 40.0222 7.3731
  A 1.27 1.09 76.9 0 0 39.2484 8.8570
  A 1.27 1.09 76.9 0 0 40.5978 9.8469" stroke="#aa98e9"></path>
<path d="M 41.73 24.82
  L 40.65 28.93
  Q 40.53 29.40 40.21 29.76
  C 33.83 37.18 16.38 37.40 9.04 31.16
  Q 6.44 28.94 6.93 24.44" stroke="#7257a3"></path>
<path d="M 44.32 32.41
  Q 41.92 35.65 39.52 37.05
  C 34.40 40.03 28.41 40.76 22.35 40.74
  Q 10.12 40.71 3.49 32.06" stroke="#757779"></path>
</g>
<path d="M 9.03 0.00
  L 11.36 0.00
  Q 20.18 2.41 20.23 11.85
  Q 20.23 12.12 20.50 12.12
  L 27.45 12.14
  Q 27.69 12.14 27.70 11.90
  Q 28.16 2.06 36.63 0.00
  L 39.27 0.00
  Q 46.69 1.95 48.00 9.92
  L 48.00 12.96
  Q 46.88 18.96 41.38 22.13
  Q 40.59 22.58 40.79 23.23
  Q 40.63 23.65 40.61 24.03
  Q 40.60 24.35 40.28 24.37
  Q 40.15 24.38 40.01 24.37
  Q 39.59 24.36 39.30 24.66
  C 33.14 30.90 20.77 30.39 13.06 27.71
  Q 10.23 26.72 7.04 23.51
  Q 7.50 22.59 6.49 22.00
  Q 1.03 18.86 0.00 12.83
  L 0.00 9.85
  Q 1.55 1.64 9.03 0.00
  Z
  M 10.2249 21.0396
  A 9.73 8.70 89.5 0 0 18.8397 11.2341
  A 9.73 8.70 89.5 0 0 10.0551 1.5804
  A 9.73 8.70 89.5 0 0 1.4403 11.3859
  A 9.73 8.70 89.5 0 0 10.2249 21.0396
  Z
  M 37.6423 21.0371
  A 9.73 8.70 91.4 0 0 46.5774 11.5226
  A 9.73 8.70 91.4 0 0 38.1177 1.5829
  A 9.73 8.70 91.4 0 0 29.1826 11.0974
  A 9.73 8.70 91.4 0 0 37.6423 21.0371
  Z" fill="#5431d3"></path>
<path d="M 10.2249 21.0396
  A 9.73 8.70 89.5 0 1 1.4403 11.3859
  A 9.73 8.70 89.5 0 1 10.0551 1.5804
  A 9.73 8.70 89.5 0 1 18.8397 11.2341
  A 9.73 8.70 89.5 0 1 10.2249 21.0396
  Z
  M 9.9592 17.8580
  A 6.58 5.90 91.4 0 0 16.0182 11.4241
  A 6.58 5.90 91.4 0 0 10.2808 4.7020
  A 6.58 5.90 91.4 0 0 4.2218 11.1359
  A 6.58 5.90 91.4 0 0 9.9592 17.8580
  Z" fill="#fffefe"></path>
<path d="M 37.6423 21.0371
  A 9.73 8.70 91.4 0 1 29.1826 11.0974
  A 9.73 8.70 91.4 0 1 38.1177 1.5829
  A 9.73 8.70 91.4 0 1 46.5774 11.5226
  A 9.73 8.70 91.4 0 1 37.6423 21.0371
  Z
  M 37.8685 17.8600
  A 6.58 5.90 90.1 0 0 43.7800 11.2903
  A 6.58 5.90 90.1 0 0 37.8915 4.7000
  A 6.58 5.90 90.1 0 0 31.9800 11.2697
  A 6.58 5.90 90.1 0 0 37.8685 17.8600
  Z" fill="#fffefe"></path>
<path d="M 9.9592 17.8580
  A 6.58 5.90 91.4 0 1 4.2218 11.1359
  A 6.58 5.90 91.4 0 1 10.2808 4.7020
  A 6.58 5.90 91.4 0 1 16.0182 11.4241
  A 6.58 5.90 91.4 0 1 9.9592 17.8580
  Z
  M 12.6924 9.9039
  A 1.28 1.13 80.9 0 0 13.6058 8.4613
  A 1.28 1.13 80.9 0 0 12.2876 7.3761
  A 1.28 1.13 80.9 0 0 11.3742 8.8187
  A 1.28 1.13 80.9 0 0 12.6924 9.9039
  Z" fill="#5431d3"></path>
<path d="M 37.8685 17.8600
  A 6.58 5.90 90.1 0 1 31.9800 11.2697
  A 6.58 5.90 90.1 0 1 37.8915 4.7000
  A 6.58 5.90 90.1 0 1 43.7800 11.2903
  A 6.58 5.90 90.1 0 1 37.8685 17.8600
  Z
  M 40.5978 9.8469
  A 1.27 1.09 76.9 0 0 41.3716 8.3630
  A 1.27 1.09 76.9 0 0 40.0222 7.3731
  A 1.27 1.09 76.9 0 0 39.2484 8.8570
  A 1.27 1.09 76.9 0 0 40.5978 9.8469
  Z" fill="#5431d3"></path>
<ellipse ry="1.13" rx="1.28" transform="translate(12.49,8.64) rotate(80.9)" cy="0.00" cx="0.00" fill="#fffefe"></ellipse>
<ellipse ry="1.09" rx="1.27" transform="translate(40.31,8.61) rotate(76.9)" cy="0.00" cx="0.00" fill="#fffefe"></ellipse>
<path d="M 7.04 23.51
  Q 10.23 26.72 13.06 27.71
  C 20.77 30.39 33.14 30.90 39.30 24.66
  Q 39.59 24.36 40.01 24.37
  Q 40.15 24.38 40.28 24.37
  Q 40.60 24.35 40.61 24.03
  Q 40.63 23.65 40.79 23.23
  Q 41.25 24.60 41.73 24.82
  L 40.65 28.93
  Q 40.53 29.40 40.21 29.76
  C 33.83 37.18 16.38 37.40 9.04 31.16
  Q 6.44 28.94 6.93 24.44
  Q 6.87 23.91 7.04 23.51
  Z" fill="#5018ae"></path>
<path d="M 6.93 24.44
  Q 6.44 28.94 9.04 31.16
  C 16.38 37.40 33.83 37.18 40.21 29.76
  Q 40.53 29.40 40.65 28.93
  L 41.73 24.82
  Q 45.32 27.98 44.32 32.41
  Q 41.92 35.65 39.52 37.05
  C 34.40 40.03 28.41 40.76 22.35 40.74
  Q 10.12 40.71 3.49 32.06
  Q 3.18 26.61 6.93 24.44
  Z" fill="#939598"></path>
<path d="M 3.49 32.06
  Q 10.12 40.71 22.35 40.74
  C 28.41 40.76 34.40 40.03 39.52 37.05
  Q 41.92 35.65 44.32 32.41
  Q 44.89 36.97 44.21 39.26
  C 42.47 45.21 32.75 47.17 26.85 48.00
  L 21.02 48.00
  C 14.79 47.05 4.17 45.07 3.72 37.74
  Q 3.50 34.15 3.49 32.06
  Z" fill="#57585a"></path>
</svg>
