<svg viewBox="0.00 0.00 192.00 192.00" version="1.1" xmlns="http://www.w3.org/2000/svg">
<g stroke-linecap="butt" fill="none" stroke-width="2.00">
<path d="M 24.67 142.72
  A 0.31 0.31 0.0 0 0 24.89 143.25
  L 64.94 143.25
  A 0.31 0.31 0.0 0 0 65.16 143.16
  L 162.82 45.54
  A 0.31 0.31 0.0 0 0 162.60 45.01
  L 122.49 44.96
  A 0.31 0.31 0.0 0 0 122.27 45.05
  L 24.67 142.72" stroke="#648d3d"></path>
<path d="M 65.6559 45.2232
  A 0.65 0.65 0.0 0 0 64.7366 45.2216
  L 45.0731 64.8166
  A 0.65 0.65 0.0 0 0 45.0715 65.7358
  L 64.6241 85.3568
  A 0.65 0.65 0.0 0 0 65.5434 85.3584
  L 85.2069 65.7634
  A 0.65 0.65 0.0 0 0 85.2085 64.8442
  L 65.6559 45.2232" stroke="#648d3d"></path>
<path d="M 142.6818 123.2084
  A 0.62 0.62 0.0 0 0 142.6818 122.3316
  L 123.0384 102.6882
  A 0.62 0.62 0.0 0 0 122.1616 102.6882
  L 102.5182 122.3316
  A 0.62 0.62 0.0 0 0 102.5182 123.2084
  L 122.1616 142.8518
  A 0.62 0.62 0.0 0 0 123.0384 142.8518
  L 142.6818 123.2084" stroke="#648d3d"></path>
</g>
<path d="M 0.00 0.00
  L 192.00 0.00
  L 192.00 192.00
  L 0.00 192.00
  L 0.00 0.00
  Z
  M 24.67 142.72
  A 0.31 0.31 0.0 0 0 24.89 143.25
  L 64.94 143.25
  A 0.31 0.31 0.0 0 0 65.16 143.16
  L 162.82 45.54
  A 0.31 0.31 0.0 0 0 162.60 45.01
  L 122.49 44.96
  A 0.31 0.31 0.0 0 0 122.27 45.05
  L 24.67 142.72
  Z
  M 65.6559 45.2232
  A 0.65 0.65 0.0 0 0 64.7366 45.2216
  L 45.0731 64.8166
  A 0.65 0.65 0.0 0 0 45.0715 65.7358
  L 64.6241 85.3568
  A 0.65 0.65 0.0 0 0 65.5434 85.3584
  L 85.2069 65.7634
  A 0.65 0.65 0.0 0 0 85.2085 64.8442
  L 65.6559 45.2232
  Z
  M 142.6818 123.2084
  A 0.62 0.62 0.0 0 0 142.6818 122.3316
  L 123.0384 102.6882
  A 0.62 0.62 0.0 0 0 122.1616 102.6882
  L 102.5182 122.3316
  A 0.62 0.62 0.0 0 0 102.5182 123.2084
  L 122.1616 142.8518
  A 0.62 0.62 0.0 0 0 123.0384 142.8518
  L 142.6818 123.2084
  Z" fill="#144643"></path>
<path d="M 24.67 142.72
  L 122.27 45.05
  A 0.31 0.31 0.0 0 1 122.49 44.96
  L 162.60 45.01
  A 0.31 0.31 0.0 0 1 162.82 45.54
  L 65.16 143.16
  A 0.31 0.31 0.0 0 1 64.94 143.25
  L 24.89 143.25
  A 0.31 0.31 0.0 0 1 24.67 142.72
  Z" fill="#b3d337"></path>
<rect rx="0.65" height="29.00" width="29.06" transform="translate(65.14,65.29) rotate(-44.9)" y="-14.50" x="-14.53" fill="#b3d337"></rect>
<rect rx="0.62" height="29.02" width="29.02" transform="translate(122.60,122.77) rotate(45.0)" y="-14.51" x="-14.51" fill="#b3d337"></rect>
</svg>
