<svg viewBox="0.00 0.00 256.00 256.00" version="1.1" xmlns="http://www.w3.org/2000/svg">
<g stroke-linecap="butt" fill="none" stroke-width="2.00">
<path d="M 101.86 0.00
  Q 102.32 0.61 103.70 0.32
  A 0.47 0.47 0.0 0 1 104.21 0.99
  Q 104.08 1.23 104.11 1.50
  Q 104.12 1.58 104.20 1.56
  L 104.46 1.50
  A 0.40 0.40 0.0 0 1 104.91 2.06
  Q 103.34 5.43 102.73 7.98
  Q 101.89 11.54 101.54 12.41
  Q 100.77 14.27 99.91 16.08
  Q 99.73 16.47 99.90 16.86
  Q 100.14 17.40 99.62 19.14
  A 0.13 0.11 -13.3 0 1 99.56 19.22
  Q 99.41 19.29 99.26 19.35
  Q 99.04 19.43 99.17 19.63
  Q 99.62 20.29 99.34 21.05
  Q 99.21 21.42 99.31 21.80
  Q 99.66 23.06 98.69 24.07
  Q 98.38 24.39 98.33 24.84
  L 98.07 27.22
  Q 98.03 27.62 98.38 27.82
  Q 99.47 28.43 98.78 29.46
  Q 97.69 31.11 98.02 32.54
  Q 98.15 33.09 98.12 33.64
  L 97.73 40.44
  A 0.64 0.60 61.6 0 1 97.68 40.63
  Q 97.27 41.53 97.37 42.24
  Q 98.12 47.22 97.16 52.14
  Q 97.66 52.46 97.00 53.45
  A 0.39 0.39 0.0 0 0 97.44 54.04
  Q 97.67 53.98 97.92 54.13
  Q 98.43 54.45 97.84 54.58
  L 95.96 54.97" stroke="#090804"></path>
<path d="M 95.96 54.97
  L 82.98 55.01
  Q 82.45 55.01 82.45 55.53
  C 82.16 74.81 70.97 90.58 52.40 96.00
  Q 51.86 96.16 51.86 96.73
  L 51.89 119.46
  A 0.32 0.32 0.0 0 0 52.21 119.78
  L 71.25 119.79
  Q 71.76 119.80 71.76 120.31
  L 71.78 132.73" stroke="#7f7e7f"></path>
<path d="M 71.78 132.73
  L 71.76 136.71" stroke="#787880"></path>
<path d="M 71.76 136.71
  Q 71.17 136.47 70.94 136.84
  Q 70.86 136.96 70.90 137.10
  Q 70.93 137.25 70.92 137.36
  Q 70.90 137.51 70.78 137.42
  Q 67.93 135.27 64.41 135.16
  Q 63.94 135.15 63.54 134.90
  Q 61.42 133.54 58.93 133.44
  Q 58.54 133.42 58.17 133.28
  Q 57.41 132.99 56.59 133.02
  Q 56.52 133.03 56.47 132.98
  L 56.27 132.78
  Q 55.95 132.46 55.50 132.43
  Q 53.88 132.35 52.24 132.10
  Q 51.73 132.42 51.43 132.04
  Q 51.16 131.71 50.74 131.69
  L 45.12 131.48
  Q 44.74 131.46 44.47 131.19
  Q 44.18 130.90 44.00 130.88
  Q 41.02 130.54 38.09 129.90
  Q 37.99 129.88 37.92 129.94
  Q 37.82 130.02 37.72 130.12
  Q 37.50 130.35 37.29 130.09
  Q 37.05 129.78 36.75 129.76
  Q 35.08 129.66 31.86 129.95
  Q 31.38 129.99 30.94 129.79
  Q 30.27 129.48 29.68 130.15
  Q 29.38 130.50 28.99 130.25
  Q 28.52 129.94 28.14 130.36
  A 0.65 0.64 44.1 0 1 27.20 130.37
  Q 26.21 129.32 25.36 130.43
  A 1.39 1.38 -45.2 0 1 23.17 130.44
  Q 22.35 129.39 21.75 130.26
  A 0.90 0.89 18.6 0 1 20.98 130.64
  C 19.28 130.56 17.71 130.58 16.04 130.37
  Q 14.76 130.21 13.77 131.30
  A 1.02 1.01 -67.4 0 1 12.98 131.63
  Q 11.79 131.58 10.91 132.34
  A 1.01 0.98 -55.5 0 1 9.96 132.53
  Q 7.39 131.70 4.90 132.38
  C 3.74 132.70 2.57 132.43 1.49 133.17
  Q 1.10 133.44 0.96 133.90
  Q 0.68 134.83 0.00 135.63" stroke="#07070d"></path>
<path d="M 147.64 0.00
  Q 145.78 0.48 145.85 1.91
  A 1.38 1.38 0.0 0 1 145.61 2.75
  Q 144.22 4.69 144.93 7.01
  A 0.51 0.51 0.0 0 1 144.61 7.64
  L 143.50 8.02
  Q 142.85 8.24 143.30 8.75
  Q 144.17 9.72 143.57 10.99
  Q 143.38 11.40 143.07 11.07
  Q 142.84 10.82 142.50 10.88
  Q 141.96 10.97 141.89 11.51
  Q 141.75 12.45 142.26 13.23
  Q 142.44 13.51 142.24 13.78
  L 141.20 15.15
  Q 140.86 15.60 140.90 16.15
  Q 140.97 17.14 140.58 18.07
  Q 140.42 18.46 140.22 18.82
  Q 139.78 19.61 139.86 20.48
  Q 139.90 20.90 139.74 21.29
  Q 139.54 21.79 139.12 22.15
  Q 138.67 22.52 138.80 23.09
  Q 139.34 25.45 137.46 26.01
  Q 136.88 26.18 136.88 26.78
  L 136.88 30.26
  Q 136.88 30.75 136.42 30.91
  Q 136.24 30.98 136.12 31.14
  Q 135.84 31.53 136.16 31.89
  Q 136.56 32.34 136.36 33.02
  Q 136.29 33.28 136.09 33.10
  Q 135.98 32.99 135.83 32.94
  Q 135.49 32.82 135.21 33.03
  Q 135.08 33.12 135.02 33.25
  Q 134.84 33.59 135.12 33.86
  L 135.52 34.25
  Q 135.94 34.67 135.42 34.96
  Q 134.82 35.30 134.87 36.01
  Q 134.89 36.44 134.64 36.79
  L 133.57 38.32
  Q 133.21 38.83 133.82 38.66
  Q 134.05 38.59 134.29 38.50
  Q 134.70 38.34 134.70 38.78
  L 134.67 45.00
  Q 134.67 45.42 134.36 45.70
  Q 134.23 45.82 134.21 46.01
  Q 134.13 46.75 134.19 46.82
  Q 135.18 47.82 134.30 49.20
  Q 134.04 49.60 134.03 50.08
  L 133.89 56.47
  Q 133.88 56.95 134.19 57.31
  Q 134.49 57.67 134.16 58.06
  Q 133.88 58.40 134.07 58.81
  Q 134.85 60.48 134.36 62.11
  Q 134.23 62.56 134.42 62.99
  Q 136.10 66.85 136.27 71.08
  Q 136.29 71.53 136.58 71.88
  Q 137.85 73.42 137.44 75.15
  Q 137.32 75.63 137.66 76.01
  C 138.72 77.20 138.95 79.07 139.47 80.10
  Q 140.60 82.36 141.52 84.72
  Q 141.59 84.89 141.73 85.00
  Q 141.89 85.12 142.06 85.24
  Q 142.50 85.54 142.37 86.06
  Q 142.10 87.14 142.90 87.90
  Q 143.13 88.12 143.14 88.45
  Q 143.14 88.60 143.15 88.75
  A 1.56 1.52 24.3 0 0 143.52 89.69
  C 144.39 90.73 144.03 91.80 144.58 92.75
  C 145.27 93.91 146.57 94.25 146.95 95.66
  Q 147.07 96.11 147.53 96.11
  L 148.48 96.12
  Q 149.01 96.12 149.08 96.65
  Q 149.18 97.41 149.55 98.07
  Q 149.67 98.28 149.64 98.44
  Q 149.60 98.75 149.35 98.89
  Q 148.95 99.12 148.88 99.58
  Q 148.75 100.44 149.42 100.89
  Q 149.84 101.18 150.02 100.70
  L 150.12 100.41
  Q 150.30 99.90 150.58 100.37
  Q 151.10 101.27 150.92 102.01
  Q 150.47 103.94 152.05 104.17
  Q 152.54 104.25 152.56 104.75
  Q 152.62 106.46 153.94 107.51
  Q 154.33 107.82 154.81 107.95
  C 156.74 108.46 156.79 110.77 158.55 112.04
  Q 158.92 112.30 158.99 112.75
  Q 159.14 113.68 158.78 114.53
  Q 158.54 115.10 157.91 115.08
  Q 157.63 115.07 157.45 115.27
  Q 157.04 115.71 157.64 115.62
  C 160.52 115.21 161.27 117.42 161.10 119.75
  Q 161.06 120.20 161.33 120.53
  A 0.34 0.33 -69.4 0 0 161.92 120.26
  Q 161.84 119.84 162.07 119.51
  A 0.42 0.42 0.0 0 1 162.83 119.69
  Q 162.86 119.92 162.87 120.15
  Q 162.88 120.58 163.28 120.75
  L 166.58 122.18
  Q 166.90 122.32 166.98 122.66
  Q 167.02 122.85 167.06 123.03
  Q 167.18 123.57 167.70 123.75
  Q 169.61 124.42 170.68 126.34
  A 1.34 1.33 76.2 0 0 171.81 127.03
  Q 172.62 127.06 173.08 127.58
  Q 173.43 127.99 173.96 127.92
  Q 177.12 127.50 178.21 130.32
  Q 178.39 130.79 178.84 130.54
  L 179.13 130.38
  Q 180.14 129.82 179.88 130.76
  Q 179.71 131.35 180.24 131.75
  A 0.79 0.74 -31.0 0 0 180.83 131.88
  Q 181.78 131.70 182.11 132.50
  Q 182.31 132.97 182.78 132.76
  L 183.27 132.52
  A 0.42 0.42 0.0 0 1 183.86 132.96
  Q 183.79 133.48 184.24 133.75
  Q 184.49 133.89 184.74 133.76
  Q 184.86 133.70 184.98 133.64
  A 0.53 0.52 68.9 0 1 185.74 133.98
  Q 186.00 135.00 186.96 134.88
  A 0.90 0.90 0.0 0 1 187.85 135.34
  Q 188.21 135.99 188.95 135.89
  A 0.37 0.33 47.9 0 1 189.15 135.91
  L 192.47 137.16
  A 0.77 0.76 -2.0 0 1 192.88 137.54
  Q 193.17 138.18 193.78 137.75
  Q 194.33 137.36 194.75 137.88
  Q 195.20 138.45 195.85 138.41
  Q 196.33 138.38 196.75 138.62
  C 198.00 139.34 199.22 140.36 200.71 140.52
  Q 204.42 140.92 207.99 141.98
  C 208.61 142.17 209.40 141.97 209.97 142.45
  Q 210.33 142.76 210.78 142.61
  Q 211.92 142.24 213.13 142.38
  Q 213.62 142.44 213.98 142.79
  Q 214.51 143.31 215.32 143.14
  Q 215.53 143.10 215.67 143.14
  Q 215.84 143.18 215.99 143.27
  Q 216.26 143.43 216.56 143.44
  L 230.91 143.84
  Q 231.37 143.85 231.76 143.63
  Q 232.31 143.32 232.99 143.52
  Q 233.58 143.69 234.09 143.38
  Q 234.48 143.14 234.88 143.36
  C 236.65 144.32 237.39 142.34 239.21 143.45
  Q 239.58 143.67 239.89 143.37
  L 240.09 143.17
  Q 240.41 142.84 240.80 143.08
  Q 241.15 143.30 241.12 143.63
  Q 241.05 144.38 241.87 143.46
  Q 242.70 142.53 244.05 142.93
  A 0.70 0.70 0.0 0 0 244.90 142.49
  Q 244.97 142.30 245.09 142.15
  Q 245.34 141.86 245.69 142.03
  Q 246.17 142.26 246.12 142.68
  A 0.26 0.25 -20.2 0 0 246.56 142.88
  L 248.22 141.12
  A 0.44 0.44 0.0 0 1 248.92 141.19
  L 249.35 141.91
  A 0.56 0.55 -36.4 0 0 250.19 142.03
  Q 251.29 141.02 251.99 140.77
  Q 252.85 140.46 252.86 140.45
  Q 253.83 139.52 255.23 139.92
  A 0.32 0.31 5.2 0 0 255.63 139.59
  Q 255.56 138.73 256.00 138.75" stroke="#151108"></path>
<path d="M 256.00 181.00
  Q 255.08 179.92 253.66 180.18
  Q 253.33 180.23 253.02 180.13
  Q 252.52 179.95 252.01 180.17
  Q 251.51 180.37 250.98 180.24
  Q 249.87 179.96 249.87 181.09
  A 0.44 0.44 0.0 0 1 249.27 181.50
  L 248.75 181.32
  A 0.68 0.67 35.3 0 0 248.08 181.43
  Q 247.45 181.96 246.82 181.34
  A 0.88 0.87 59.1 0 0 245.95 181.12
  Q 245.02 181.39 244.71 180.78
  A 0.61 0.61 0.0 0 0 244.26 180.45
  L 242.17 180.13
  A 0.99 0.97 -66.8 0 0 241.22 180.52
  Q 240.60 181.39 239.62 181.84
  A 0.55 0.55 0.0 0 1 238.87 181.51
  Q 238.72 181.07 238.30 180.90
  Q 237.80 180.70 237.42 181.08
  L 236.85 181.65
  Q 236.62 181.89 236.31 181.78
  Q 236.09 181.70 236.12 181.52
  Q 236.20 181.01 235.69 180.91
  Q 234.54 180.68 233.94 181.56
  Q 233.57 182.11 233.08 181.65
  Q 231.63 180.30 229.77 181.22
  Q 229.36 181.42 229.64 181.78
  Q 229.82 182.01 229.85 182.17
  Q 230.05 183.37 229.14 182.48
  L 227.81 181.18
  Q 227.39 180.78 226.91 181.09
  Q 226.75 181.19 226.53 181.14
  Q 226.23 181.08 226.20 180.77
  Q 226.15 180.32 225.82 180.09
  Q 225.29 179.73 225.04 180.32
  Q 224.72 181.11 223.88 181.53
  Q 223.42 181.76 222.92 181.87
  Q 222.34 182.00 222.00 182.53
  A 0.77 0.76 19.5 0 1 221.24 182.89
  Q 220.49 182.79 219.76 183.00
  Q 219.30 183.13 219.01 182.75
  Q 218.76 182.43 218.63 182.01
  A 0.71 0.71 0.0 0 0 217.74 181.57
  L 215.74 182.23
  Q 215.25 182.39 215.18 182.90
  Q 215.11 183.36 215.02 183.50
  Q 214.60 184.12 213.98 183.79
  Q 213.55 183.57 213.15 183.83
  Q 212.28 184.37 211.30 184.04
  Q 210.80 183.87 210.38 184.19
  Q 208.86 185.33 206.99 184.14
  Q 205.99 183.51 204.18 180.59" stroke="#090804"></path>
<path d="M 204.18 180.59
  C 204.55 166.22 192.97 156.35 178.70 157.92" stroke="#3e3e78"></path>
<path d="M 178.70 157.92
  Q 178.52 157.54 178.97 157.01
  Q 179.25 156.67 178.84 156.81
  Q 177.86 157.14 177.06 156.22
  Q 176.75 155.85 176.27 155.89
  Q 175.57 155.95 175.63 155.21
  Q 175.69 154.55 175.04 154.67
  Q 174.77 154.73 174.50 154.68
  Q 174.01 154.60 174.05 154.10
  Q 174.09 153.62 173.41 153.05
  Q 173.01 152.71 172.56 152.98
  L 167.83 155.71
  Q 167.41 155.96 167.10 155.56
  Q 166.37 154.63 166.94 153.65
  Q 167.10 153.37 166.77 153.37
  Q 166.63 153.37 166.48 153.37
  Q 166.37 153.37 166.37 153.48
  Q 166.37 153.61 166.37 153.74
  Q 166.37 154.12 165.99 154.10
  Q 164.53 154.03 163.32 154.91
  A 0.80 0.79 43.8 0 1 162.40 154.92
  C 160.48 153.56 160.88 151.46 158.20 150.80
  Q 157.97 150.74 157.85 150.63
  Q 157.66 150.45 157.52 150.22
  Q 157.27 149.79 156.79 149.94
  Q 156.04 150.18 155.23 149.48
  Q 155.01 149.28 155.13 149.01
  Q 155.19 148.87 155.27 148.74
  A 0.42 0.42 0.0 0 0 154.97 148.11
  Q 154.36 148.03 153.93 148.42
  Q 153.64 148.68 153.29 148.51
  Q 152.83 148.27 152.84 147.70
  Q 152.84 147.62 152.75 147.62
  Q 152.61 147.62 152.48 147.62
  A 0.19 0.18 25.5 0 1 152.36 147.29
  Q 153.31 146.53 152.15 145.54
  A 0.72 0.72 0.0 0 0 151.67 145.38
  Q 151.13 145.39 151.13 144.87
  Q 151.12 144.20 151.19 144.08
  Q 151.36 143.79 151.32 143.52
  Q 151.28 143.15 150.90 143.15
  Q 150.65 143.15 150.42 143.07
  Q 150.09 142.94 149.95 142.57
  Q 149.88 142.38 149.88 142.14
  Q 149.87 141.83 149.60 141.69
  Q 149.00 141.36 148.60 140.83
  Q 148.31 140.43 147.82 140.38
  Q 146.71 140.25 145.58 140.59
  Q 144.62 140.88 145.17 140.05
  L 145.71 139.22
  Q 145.99 138.80 145.73 138.37
  L 142.93 133.64
  A 0.46 0.45 24.0 0 0 142.09 133.96
  Q 142.13 134.16 142.13 134.37
  Q 142.10 135.07 141.59 134.60
  L 140.48 133.58
  Q 140.00 133.15 140.51 132.75
  Q 140.83 132.50 141.32 132.63
  Q 141.38 132.64 141.38 132.59
  Q 141.38 132.57 141.38 132.53
  Q 141.36 132.40 141.23 132.40
  Q 138.79 132.44 139.02 129.96
  Q 139.03 129.78 138.91 129.65
  L 138.62 129.36
  A 0.19 0.19 0.0 0 0 138.33 129.40
  Q 137.95 130.02 137.23 130.13
  A 0.69 0.68 -89.4 0 1 136.46 129.34
  Q 136.66 128.13 135.77 128.38
  Q 135.20 128.54 135.37 127.98
  Q 135.59 127.23 134.82 127.26
  A 0.68 0.67 -11.3 0 1 134.16 126.83
  Q 133.77 125.81 132.76 125.86
  A 0.67 0.62 22.4 0 1 132.24 124.75
  Q 132.35 124.66 132.42 124.56
  Q 132.48 124.47 132.45 124.36
  Q 132.14 123.44 131.33 123.11
  Q 130.78 122.89 131.12 122.39
  Q 131.22 122.25 131.37 122.19
  Q 131.98 121.93 131.70 121.32
  Q 131.35 120.56 131.44 119.81" stroke="#090804"></path>
<path d="M 131.44 119.81
  Q 131.64 119.84 131.86 119.81
  Q 132.35 119.76 132.35 119.26
  L 132.37 93.31
  Q 132.37 92.75 131.81 92.75
  L 105.73 92.75
  Q 105.35 92.75 105.35 92.38
  L 105.40 55.50
  Q 105.40 55.04 104.93 55.03
  L 95.96 54.97" stroke="#868481"></path>
<path d="M 171.56 0.00
  Q 169.88 4.12 167.07 7.32
  Q 166.85 7.58 166.88 8.22
  Q 166.90 8.70 166.51 9.00
  Q 165.68 9.62 165.87 10.65
  Q 165.98 11.23 165.51 11.59
  Q 163.64 13.00 163.86 15.26
  Q 163.90 15.74 163.44 15.89
  Q 163.22 15.97 163.02 16.30
  A 0.90 0.86 60.1 0 0 162.89 16.83
  Q 163.10 18.93 161.22 20.03
  Q 160.74 20.31 160.88 20.85
  Q 161.10 21.67 160.44 21.93
  Q 159.88 22.15 159.88 22.76
  L 159.88 23.23
  Q 159.88 23.60 159.55 23.79
  Q 158.84 24.18 158.85 24.82
  Q 158.86 25.33 158.56 25.74
  Q 157.94 26.58 157.12 27.15
  Q 156.41 27.65 157.23 27.93
  Q 158.21 28.27 157.81 29.37
  Q 157.68 29.72 157.32 29.79
  Q 155.85 30.07 154.89 31.50
  Q 154.70 31.80 154.35 31.85
  Q 153.89 31.92 153.87 32.41
  A 0.54 0.54 0.0 0 0 154.22 32.94
  Q 154.90 33.20 155.24 32.45
  A 0.23 0.23 0.0 0 1 155.67 32.54
  Q 155.71 34.20 154.24 35.04
  Q 153.81 35.28 154.02 35.73
  Q 154.15 35.99 154.46 36.13
  Q 154.88 36.31 154.88 36.77
  L 154.88 41.26
  Q 154.88 41.75 154.42 41.91
  Q 154.25 41.98 154.14 42.12
  Q 153.86 42.49 154.12 42.86
  Q 154.24 43.02 154.42 43.08
  Q 154.88 43.25 154.88 43.74
  L 154.88 49.26
  Q 154.88 49.75 154.42 49.91
  Q 154.26 49.97 154.15 50.11
  Q 153.85 50.48 154.14 50.85
  C 155.38 52.46 154.89 55.46 154.88 57.41
  Q 154.88 57.65 154.76 57.82
  Q 154.64 58.00 154.49 58.16
  Q 153.83 58.88 154.50 58.87
  Q 154.63 58.86 154.76 58.87
  Q 154.99 58.89 155.03 59.11
  L 155.71 62.27
  Q 155.78 62.63 155.68 62.98
  Q 155.50 63.56 155.89 63.83
  Q 156.19 64.05 156.30 64.40
  Q 156.96 66.56 158.72 71.27
  Q 158.87 71.66 159.04 72.91
  A 1.75 1.71 -67.7 0 0 159.37 73.72
  C 160.45 75.13 160.93 76.82 161.94 78.23
  Q 163.49 80.40 164.20 83.01
  Q 164.33 83.52 164.73 83.88
  Q 165.81 84.86 166.21 86.18
  A 0.95 0.94 6.0 0 0 166.69 86.77
  Q 168.28 87.64 168.85 89.37
  A 0.91 0.91 0.0 0 0 169.35 89.91
  C 171.80 90.93 171.20 92.65 172.58 94.18
  Q 172.88 94.52 172.88 94.97
  L 172.88 95.51
  Q 172.88 96.14 173.51 96.10
  Q 177.24 95.83 177.06 99.42
  Q 177.05 99.54 177.14 99.63
  L 177.37 99.86
  Q 177.76 100.25 177.99 99.75
  L 178.21 99.28
  Q 178.57 98.50 178.81 99.32
  Q 178.97 99.91 178.87 100.53
  A 0.53 0.53 0.0 0 0 179.54 101.13
  Q 180.40 100.88 180.67 101.55
  A 0.24 0.24 0.0 0 1 180.41 101.88
  Q 179.78 101.77 179.33 102.14
  Q 178.68 102.69 179.49 102.96
  L 180.24 103.21
  Q 180.69 103.37 180.86 102.91
  Q 180.96 102.63 181.15 102.41
  Q 181.46 102.04 181.93 102.07
  Q 182.25 102.09 182.52 102.23
  A 0.69 0.69 0.0 0 1 182.88 102.85
  Q 182.82 104.54 184.61 104.09
  A 0.28 0.27 -0.2 0 1 184.95 104.42
  Q 184.58 105.78 185.29 106.82
  Q 185.63 107.32 185.96 106.80
  Q 186.06 106.64 186.10 106.46
  Q 186.26 105.84 186.71 106.29
  L 189.31 108.96
  Q 189.46 109.12 189.68 109.11
  Q 189.88 109.11 190.07 109.14
  Q 190.57 109.22 190.93 109.57
  L 193.20 111.82
  Q 193.49 112.11 193.84 111.89
  Q 194.04 111.76 194.09 111.53
  Q 194.21 110.96 194.64 111.36
  L 197.02 113.54
  Q 197.34 113.84 197.75 113.68
  L 198.29 113.48
  Q 198.74 113.31 198.81 113.78
  L 198.97 114.71
  A 0.58 0.58 0.0 0 0 199.65 115.18
  Q 202.35 114.63 204.09 116.63
  Q 204.28 116.85 204.57 116.88
  Q 204.76 116.89 204.93 116.81
  Q 205.25 116.63 205.62 116.69
  Q 207.17 116.93 208.20 117.90
  Q 208.59 118.27 209.13 118.16
  Q 210.18 117.93 211.01 118.47
  Q 211.46 118.76 211.99 118.82
  L 216.07 119.23
  Q 216.59 119.28 217.02 119.58
  Q 219.40 121.19 222.17 120.48
  Q 222.70 120.34 223.15 120.65
  Q 224.75 121.75 226.65 120.86
  A 0.22 0.18 33.2 0 1 226.76 120.85
  L 232.56 121.80
  A 0.24 0.21 -59.8 0 0 232.76 121.73
  L 232.97 121.52
  Q 233.38 121.12 233.95 121.12
  Q 237.61 121.12 241.28 121.11
  Q 241.53 121.11 241.70 121.00
  Q 241.83 120.91 241.96 120.79
  Q 242.22 120.55 242.55 120.67
  Q 246.55 122.12 247.34 118.41
  A 0.54 0.54 0.0 0 1 248.05 118.01
  Q 249.54 118.56 250.20 117.39
  Q 250.43 116.99 250.88 117.10
  Q 252.31 117.47 253.23 116.45
  Q 253.57 116.06 254.09 116.13
  Q 255.92 116.35 256.00 114.78" stroke="#1d180b"></path>
<path d="M 223.76 0.00
  L 222.32 0.15
  Q 221.88 0.19 221.88 0.64
  L 221.88 1.20
  A 0.39 0.38 -50.8 0 1 221.12 1.28
  Q 221.05 0.96 220.74 0.80
  Q 220.30 0.57 219.86 0.79
  Q 218.65 1.39 218.64 2.25
  Q 218.63 2.73 218.25 2.25
  Q 217.92 1.84 217.40 1.90
  Q 217.05 1.93 216.70 2.30
  Q 215.84 3.22 214.87 4.11
  Q 214.50 4.46 214.13 4.10
  C 213.42 3.41 212.16 3.35 211.73 4.39
  Q 211.56 4.81 211.23 4.49
  L 210.91 4.16
  Q 210.62 3.88 210.29 4.11
  Q 209.27 4.81 208.89 5.83
  Q 208.71 6.31 208.21 6.43
  Q 204.90 7.19 203.62 10.28
  Q 203.38 10.86 203.07 10.32
  Q 202.75 9.75 202.22 10.05
  Q 201.64 10.38 202.11 10.85
  L 202.50 11.25
  A 0.32 0.32 0.0 0 1 202.27 11.80
  Q 200.83 11.77 200.69 13.26
  A 0.47 0.47 0.0 0 1 200.27 13.68
  Q 198.85 13.84 198.64 15.23
  Q 198.55 15.78 197.99 15.82
  L 196.28 15.95
  A 0.53 0.53 0.0 0 0 195.80 16.62
  Q 196.43 18.87 194.06 19.79
  Q 193.85 19.87 193.62 19.87
  Q 193.12 19.87 193.12 20.46
  Q 193.13 21.09 193.76 21.09
  Q 194.02 21.09 194.23 21.23
  Q 194.75 21.59 194.12 21.63
  Q 193.72 21.66 193.52 22.01
  Q 193.12 22.68 193.12 22.00
  L 193.12 21.23
  Q 193.12 20.88 192.77 20.88
  Q 192.63 20.88 192.49 20.88
  A 0.48 0.47 4.2 0 0 192.02 21.28
  Q 191.78 22.93 190.32 23.84
  Q 189.87 24.12 189.88 24.65
  Q 189.88 24.83 189.87 25.00
  Q 189.84 25.55 189.39 25.86
  Q 188.82 26.26 188.87 26.94
  Q 188.91 27.51 188.44 27.82
  Q 187.83 28.23 187.87 28.90
  Q 187.90 29.40 187.59 29.79
  L 186.50 31.17
  Q 186.20 31.55 186.15 32.04
  Q 186.07 32.81 185.42 33.32
  Q 185.09 33.58 185.38 33.88
  L 185.63 34.12
  Q 185.91 34.40 185.60 34.65
  Q 185.46 34.76 185.46 34.92
  Q 185.43 35.62 185.39 35.75
  Q 185.29 36.07 185.07 36.14
  Q 184.50 36.31 184.36 36.89
  Q 183.99 38.31 184.32 39.73
  Q 184.35 39.86 184.22 39.89
  Q 184.10 39.92 183.98 40.00
  Q 183.92 40.04 183.93 40.10
  Q 184.33 43.11 183.97 46.15
  Q 183.91 46.67 184.21 47.11
  Q 184.54 47.62 184.10 48.12
  Q 183.77 48.50 184.11 48.89
  Q 184.63 49.48 184.11 49.92
  Q 183.64 50.31 184.03 50.79
  Q 184.87 51.81 184.50 52.95
  Q 184.39 53.29 184.45 53.64
  Q 184.61 54.55 185.27 54.98
  Q 185.67 55.25 185.70 55.73
  L 185.86 59.21
  Q 185.90 59.87 186.51 60.10
  Q 187.03 60.31 186.90 60.91
  Q 186.78 61.45 187.12 61.87
  Q 187.34 62.14 187.63 62.12
  A 0.45 0.32 -44.6 0 1 187.50 62.89
  Q 187.25 62.95 187.11 63.15
  Q 186.82 63.59 187.25 63.89
  Q 188.03 64.43 188.87 64.15
  A 0.03 0.03 0.0 0 0 188.87 64.09
  Q 188.71 64.04 188.41 64.17
  A 0.34 0.34 0.0 0 0 188.49 64.81
  L 190.51 65.16
  A 0.48 0.47 -75.7 0 1 190.88 65.79
  Q 190.58 66.66 191.40 67.11
  A 0.94 0.93 16.5 0 1 191.89 68.01
  Q 191.78 69.25 193.06 69.11
  A 0.33 0.33 0.0 0 1 193.32 69.68
  Q 193.11 69.86 193.13 70.13
  Q 193.17 70.80 193.18 70.82
  L 194.21 71.84
  Q 194.56 72.19 194.90 71.84
  L 195.24 71.50
  A 0.27 0.27 0.0 0 1 195.70 71.71
  Q 195.57 73.42 196.72 74.41
  A 0.25 0.22 32.2 0 1 196.79 74.66
  Q 196.70 74.93 196.51 74.89
  A 0.53 0.51 -15.4 0 0 196.00 75.75
  L 196.25 75.99
  Q 196.45 76.19 196.69 76.03
  Q 196.98 75.84 197.11 75.52
  Q 197.32 75.00 197.72 75.39
  L 200.11 77.72
  Q 200.44 78.04 200.89 78.10
  Q 201.19 78.14 201.44 78.28
  Q 201.88 78.54 201.88 79.05
  L 201.88 80.20
  Q 201.88 80.73 202.40 80.87
  Q 205.12 81.58 205.43 84.42
  A 0.71 0.71 0.0 0 0 206.64 84.85
  L 207.03 84.46
  Q 207.28 84.21 207.59 84.40
  Q 208.52 84.98 209.13 85.84
  A 0.76 0.75 63.6 0 0 209.98 86.13
  Q 210.69 85.91 210.90 86.52
  Q 211.12 87.12 211.75 87.12
  L 212.26 87.12
  Q 212.57 87.12 212.73 87.39
  Q 213.24 88.28 214.12 88.13
  Q 214.56 88.06 214.88 88.38
  L 216.25 89.75
  A 0.52 0.52 0.0 0 0 216.99 89.75
  L 217.39 89.35
  A 0.27 0.26 -33.8 0 1 217.82 89.43
  Q 218.21 90.32 219.26 90.11
  A 0.53 0.53 0.0 0 1 219.89 90.51
  Q 219.94 90.73 220.13 90.87
  A 1.14 0.71 53.7 0 0 220.75 91.12
  L 230.26 91.12
  Q 230.63 91.12 230.88 90.86
  L 231.12 90.62
  Q 231.39 90.35 231.70 90.57
  Q 233.01 91.49 234.65 91.04
  Q 235.29 90.86 235.12 90.22
  Q 235.00 89.73 235.29 89.44
  A 0.34 0.34 0.0 0 1 235.87 89.73
  Q 235.70 90.81 236.75 91.06
  Q 238.32 91.45 239.28 90.50
  Q 240.08 89.71 239.92 90.50
  Q 239.78 91.17 240.00 91.75
  Q 240.22 92.31 240.70 91.96
  Q 241.90 91.07 242.21 89.71
  Q 242.34 89.12 242.95 89.12
  L 243.64 89.12
  Q 243.78 89.12 243.80 89.25
  L 243.94 89.90
  A 0.36 0.36 0.0 0 0 244.44 90.15
  Q 244.61 90.07 244.77 89.98
  Q 245.07 89.80 245.00 89.46
  Q 244.90 88.92 244.33 88.84
  Q 243.98 88.80 244.11 88.46
  Q 244.18 88.29 244.40 88.21
  Q 245.70 87.75 246.17 88.88
  A 0.35 0.34 56.4 0 0 246.74 89.00
  L 246.99 88.76
  A 0.94 0.91 -31.8 0 0 247.22 87.84
  Q 246.53 85.56 248.23 84.36
  Q 248.58 84.11 249.00 84.15
  Q 249.73 84.22 250.04 83.64
  Q 250.37 83.01 250.87 83.51
  L 252.68 85.34
  A 0.77 0.77 0.0 0 0 253.99 84.88
  Q 254.04 84.47 254.27 84.22
  A 0.26 0.25 31.7 0 1 254.57 84.16
  Q 254.99 84.34 255.12 84.71
  Q 255.48 85.71 255.85 84.76
  L 256.00 84.36" stroke="#27200e"></path>
<path d="M 131.44 119.81
  L 105.72 119.79
  A 0.36 0.36 0.0 0 0 105.36 120.15
  L 105.38 151.95" stroke="#7f7e7f"></path>
<path d="M 105.38 151.95
  Q 105.08 152.62 105.14 153.53
  Q 105.16 153.81 104.91 153.70
  Q 104.79 153.65 104.78 153.50
  Q 104.70 152.63 104.61 151.78
  Q 104.59 151.65 104.47 151.69
  Q 104.28 151.75 104.21 151.85
  Q 104.08 152.03 103.89 151.93
  Q 103.10 151.52 102.15 151.44
  Q 101.90 151.42 101.98 151.18
  L 102.34 150.19
  A 0.44 0.42 40.3 0 0 102.30 149.82
  Q 102.05 149.41 101.63 149.31
  Q 101.27 149.24 101.10 148.91
  Q 98.80 144.69 93.95 145.91
  A 0.83 0.83 0.0 0 1 93.18 145.71
  L 87.01 139.75
  A 2.27 2.27 0.0 0 0 85.43 139.11
  L 83.12 139.11
  Q 82.64 139.11 82.28 138.79
  L 77.89 134.84
  A 3.54 1.96 46.7 0 0 74.65 133.81
  Q 73.52 134.43 71.78 132.73" stroke="#f5f4fd"></path>
<path d="M 178.70 157.92
  C 154.49 163.44 154.80 196.78 179.02 200.80
  C 192.09 202.96 202.59 193.38 204.18 180.59" stroke="#373976"></path>
<path d="M 133.50 256.00
  Q 133.33 255.46 133.37 254.81
  Q 133.41 254.16 133.87 254.62
  L 134.14 254.89
  A 0.58 0.57 -67.6 0 0 135.12 254.48
  L 135.12 253.76
  Q 135.12 253.44 135.39 253.28
  Q 136.32 252.73 136.12 251.80
  Q 136.02 251.34 136.45 251.12
  Q 137.57 250.57 136.99 249.25
  A 0.55 0.51 88.9 0 0 136.75 249.00
  Q 136.63 248.94 136.50 248.89
  Q 136.12 248.71 136.12 248.29
  L 136.12 242.74
  Q 136.12 242.26 136.58 242.09
  Q 136.75 242.03 136.86 241.88
  Q 137.13 241.53 136.82 241.21
  Q 135.13 239.50 136.82 237.79
  Q 137.13 237.48 136.87 237.12
  Q 136.73 236.94 136.50 236.90
  Q 135.55 236.75 136.50 236.13
  L 136.72 235.99
  Q 137.17 235.70 136.93 235.22
  Q 136.79 234.95 136.50 234.90
  Q 135.55 234.75 136.50 234.13
  L 136.73 233.98
  Q 137.16 233.70 136.94 233.24
  Q 136.82 233.00 136.58 232.91
  Q 136.12 232.75 136.12 232.26
  L 136.12 226.76
  Q 136.12 226.22 135.63 226.01
  Q 134.72 225.62 135.31 224.39
  Q 135.44 224.12 135.75 224.12
  L 136.18 224.12
  Q 136.66 224.12 136.95 223.73
  Q 137.26 223.30 137.14 222.74
  Q 137.04 222.27 136.61 222.04
  Q 136.01 221.72 136.09 221.15
  Q 136.16 220.66 135.84 220.27
  L 134.46 218.56
  Q 134.12 218.15 134.12 217.61
  L 134.12 212.96
  A 1.58 1.55 26.4 0 0 133.78 211.99
  Q 133.09 211.15 133.54 210.01
  Q 134.51 207.57 133.76 205.03
  Q 133.69 204.80 133.45 204.81
  Q 133.29 204.81 133.15 204.72
  Q 132.78 204.47 132.86 204.03
  Q 132.99 203.34 132.48 203.00
  Q 132.05 202.70 132.26 202.22
  Q 132.45 201.79 132.04 201.52
  Q 131.64 201.25 132.00 200.92
  Q 132.35 200.61 132.37 200.28" stroke="#07070d"></path>
<path d="M 132.37 200.28
  L 132.36 174.69
  Q 132.36 174.16 131.83 174.15
  C 121.72 173.97 110.42 176.25 106.27 164.59
  C 104.98 160.96 105.37 156.06 105.38 151.95" stroke="#787880"></path>
<path d="M 71.76 136.71
  L 71.76 162.46" stroke="#7d7d8b"></path>
<path d="M 71.76 162.46
  Q 71.27 162.53 71.16 163.01
  Q 71.11 163.22 71.19 163.39
  Q 71.33 163.71 71.15 164.00
  L 70.36 165.24
  Q 70.26 165.40 70.19 165.22
  L 69.88 164.41
  Q 69.68 163.90 69.16 164.05
  Q 68.59 164.22 68.00 164.12
  A 0.95 0.01 9.6 0 1 67.09 163.96
  Q 63.30 161.78 58.97 161.44
  Q 58.48 161.40 58.07 161.13
  Q 56.11 159.86 54.02 158.82
  Q 53.28 158.89 52.95 158.33
  Q 52.69 157.89 52.17 157.90
  Q 50.43 157.92 48.89 157.09
  Q 48.46 156.85 48.05 157.11
  Q 46.87 157.85 45.71 156.69
  Q 44.84 155.82 43.95 156.35
  Q 43.62 156.55 43.37 156.26
  C 42.73 155.51 40.68 155.37 39.61 154.77
  Q 39.10 154.49 38.53 154.57
  L 33.95 155.26
  Q 33.52 155.33 33.09 155.20
  Q 31.17 154.63 29.16 154.77
  C 28.06 154.85 26.78 154.40 25.73 155.14
  Q 25.37 155.39 24.94 155.39
  L 22.97 155.39
  Q 22.51 155.39 22.13 155.13
  Q 21.46 154.68 20.59 154.90
  Q 20.23 154.99 20.03 155.27
  Q 19.83 155.53 19.68 155.91
  Q 19.58 156.17 19.33 156.06
  C 17.67 155.37 16.55 156.52 15.27 156.81
  Q 13.09 157.28 10.90 157.72
  C 9.25 158.05 8.11 158.74 6.64 159.48
  Q 6.27 159.67 6.02 159.33
  L 5.77 159.00
  Q 5.39 158.50 5.22 159.10
  Q 5.06 159.65 4.56 159.85
  Q 4.35 159.92 3.93 159.85
  Q 3.01 159.70 2.81 160.40
  Q 2.71 160.74 2.39 160.92
  Q 1.53 161.40 1.62 162.33
  A 0.08 0.08 0.0 0 1 1.51 162.41
  L 1.03 162.16
  Q 0.62 161.93 0.32 162.30
  Q 0.07 162.60 0.00 163.14" stroke="#0d0d1d"></path>
<path d="M 132.37 200.28
  L 112.55 200.27" stroke="#7d7d8b"></path>
<path d="M 112.55 200.27
  C 109.14 200.22 105.42 200.50 102.17 199.79
  C 84.20 195.89 71.91 180.99 71.76 162.46" stroke="#7f7f8f"></path>
<path d="M 112.55 200.27
  Q 111.74 201.09 111.91 203.14
  Q 111.95 203.56 112.24 203.85
  L 113.46 205.09
  Q 113.88 205.51 113.88 206.10
  L 113.88 208.74
  Q 113.88 209.20 114.19 209.55
  Q 115.31 210.81 114.80 212.58
  A 1.01 1.00 -59.3 0 0 115.04 213.54
  L 116.81 215.42
  A 0.27 0.27 0.0 0 1 116.59 215.88
  Q 116.22 215.85 115.96 216.48
  Q 115.79 216.89 115.84 217.32
  L 116.12 220.17
  Q 116.16 220.60 116.51 220.88
  Q 117.13 221.37 116.86 222.50
  Q 116.54 223.89 117.62 224.97
  Q 117.99 225.32 117.88 225.82
  Q 117.62 227.10 118.57 227.96
  Q 118.98 228.33 118.78 228.84
  Q 118.26 230.15 117.91 232.24
  Q 117.69 233.62 118.51 234.22
  Q 118.88 234.50 118.88 234.96
  L 118.88 241.24
  Q 118.88 241.66 118.52 241.86
  Q 117.45 242.46 118.02 243.83
  Q 118.17 244.17 118.53 244.12
  Q 118.67 244.09 118.76 244.24
  Q 119.03 244.71 118.52 244.88
  Q 118.20 244.99 118.00 245.25
  Q 117.79 245.54 118.04 245.79
  L 118.56 246.30
  Q 118.91 246.66 118.94 247.15
  Q 118.97 247.79 118.30 247.99
  A 0.52 0.52 0.0 0 0 118.25 248.97
  Q 119.25 249.37 118.84 250.53
  Q 118.74 250.80 118.46 250.89
  Q 118.06 251.02 117.90 251.58
  A 0.87 0.75 52.1 0 0 117.88 251.98
  Q 118.03 252.82 117.30 253.10
  Q 116.88 253.27 117.03 253.70
  Q 117.35 254.60 116.40 255.03
  A 0.07 0.06 52.1 0 0 116.39 255.14
  Q 116.50 255.22 116.61 255.28
  Q 116.74 255.36 116.59 255.38
  Q 116.12 255.44 115.88 256.00" stroke="#0d0d1d"></path>
<path d="M 78.94 256.00
  Q 78.96 254.63 79.60 253.77
  Q 79.89 253.37 79.53 253.05
  Q 79.04 252.62 78.87 251.98
  Q 78.76 251.57 78.99 251.22
  Q 79.33 250.72 79.38 250.13
  Q 79.42 249.69 79.70 249.35
  Q 80.34 248.58 80.18 247.58
  Q 80.12 247.20 80.45 247.01
  Q 80.64 246.90 80.78 246.73
  A 0.41 0.40 89.9 0 0 80.21 246.16
  Q 79.66 246.60 78.88 246.25
  A 0.45 0.43 10.8 0 1 78.62 245.89
  Q 78.48 244.28 79.59 243.09
  Q 79.68 242.99 79.86 242.25
  Q 79.93 241.98 79.75 241.76
  Q 79.54 241.50 79.75 241.25
  Q 79.88 241.08 79.88 240.87
  Q 79.90 240.04 79.87 240.00
  L 79.02 238.75
  Q 78.81 238.45 79.17 238.39
  Q 79.49 238.33 79.59 238.12
  Q 79.86 237.54 79.73 237.18
  Q 79.09 235.48 79.38 233.67
  Q 79.45 233.21 79.90 233.09
  Q 81.47 232.65 80.79 230.81
  A 0.32 0.31 -40.4 0 0 80.22 230.77
  Q 79.83 231.46 79.02 231.40
  Q 78.41 231.35 78.59 230.76
  Q 79.04 229.23 80.36 228.32
  A 1.02 1.02 0.0 0 0 80.48 226.74
  Q 79.83 226.12 80.18 225.16
  A 0.32 0.32 0.0 0 0 80.03 224.77
  Q 79.89 224.70 79.73 224.64
  Q 79.27 224.49 80.02 224.39
  Q 80.53 224.33 80.70 223.75
  Q 80.82 223.31 80.49 222.98
  Q 78.76 221.31 79.17 218.80
  A 0.75 0.75 0.0 0 0 78.84 218.05
  Q 78.45 217.80 77.98 217.89
  A 0.69 0.68 -16.3 0 1 77.22 217.48
  Q 77.02 217.01 77.12 216.51
  Q 77.19 216.15 77.55 216.10
  Q 77.94 216.04 78.02 215.63
  Q 78.17 214.86 77.39 214.90
  Q 75.78 214.97 76.14 213.45
  A 0.67 0.67 0.0 0 0 75.50 212.63
  L 75.00 212.63
  Q 74.63 212.63 74.57 212.26
  Q 74.33 210.91 73.07 210.59
  Q 72.67 210.49 72.49 210.11
  L 71.82 208.65
  Q 71.60 208.20 71.14 208.38
  L 70.63 208.58
  Q 70.27 208.73 70.44 208.37
  Q 70.61 208.01 71.13 208.01
  Q 71.43 208.02 71.36 207.73
  L 71.03 206.42
  Q 70.90 205.87 70.33 205.91
  Q 70.07 205.93 69.85 206.15
  Q 69.08 206.92 69.76 206.01
  L 70.11 205.54
  Q 70.18 205.44 70.09 205.36
  Q 69.98 205.24 69.85 205.12
  Q 69.60 204.87 69.28 205.02
  L 68.62 205.33
  Q 68.33 205.46 68.13 205.21
  Q 67.59 204.52 67.00 203.25
  Q 66.64 202.50 65.66 202.58
  Q 65.12 202.62 65.50 202.24
  L 65.87 201.87
  Q 66.46 201.28 65.68 200.99
  Q 65.09 200.77 64.89 200.13
  A 0.44 0.44 0.0 0 0 64.23 199.88
  L 64.01 200.03
  Q 63.59 200.30 63.21 199.99
  Q 61.77 198.85 62.15 196.96
  A 0.76 0.76 0.0 0 0 61.72 196.12
  Q 60.91 195.75 60.00 195.88
  Q 59.52 195.96 59.26 195.54
  Q 58.88 194.93 58.18 194.85
  Q 57.63 194.79 57.20 194.45
  L 55.73 193.26
  Q 55.34 192.95 54.92 193.21
  Q 54.13 193.71 53.46 192.90
  Q 52.01 191.14 50.96 190.25
  Q 50.59 189.94 50.21 190.22
  C 47.33 192.33 45.41 187.63 43.84 187.89
  Q 43.35 187.97 43.13 187.52
  Q 42.70 186.64 41.76 186.90
  A 0.53 0.52 -13.8 0 1 41.11 186.51
  Q 41.06 186.27 40.87 186.13
  A 1.14 0.71 53.7 0 0 40.25 185.88
  L 36.76 185.88
  A 1.21 1.19 25.1 0 0 36.00 186.15
  Q 35.38 186.64 34.92 186.19
  Q 34.57 185.84 34.16 186.11
  Q 33.97 186.23 33.91 186.43
  Q 33.71 187.14 33.19 186.62
  Q 33.02 186.45 32.91 186.24
  Q 32.71 185.84 32.27 185.81
  Q 31.33 185.72 30.91 186.47
  Q 30.54 187.11 30.13 186.50
  Q 29.34 185.33 28.03 186.17
  Q 27.88 186.26 27.88 186.44
  Q 27.88 186.61 27.87 186.78
  A 0.23 0.23 0.0 0 1 27.47 186.92
  L 25.70 185.01
  A 0.42 0.42 0.0 0 0 24.97 185.30
  Q 24.99 186.17 24.56 186.77
  A 0.62 0.61 -51.5 0 1 23.65 186.88
  L 21.76 185.18
  Q 21.44 184.88 21.14 185.20
  L 19.73 186.69
  Q 19.39 187.06 18.91 186.92
  Q 17.54 186.53 16.69 187.60
  Q 16.44 187.92 16.04 187.87
  Q 15.19 187.76 14.87 188.53
  Q 14.69 188.99 14.21 188.88
  Q 13.72 188.78 13.34 188.98
  Q 12.88 189.22 12.88 189.74
  L 12.88 191.02
  Q 12.88 192.28 12.10 191.29
  Q 11.71 190.81 11.20 190.46
  A 0.09 0.09 0.0 0 1 11.18 190.32
  Q 11.33 190.13 11.49 190.11
  A 0.61 0.49 -20.7 0 0 12.00 189.25
  L 11.74 189.00
  Q 11.49 188.75 11.25 189.01
  Q 10.96 189.30 10.80 189.69
  Q 10.68 189.96 10.41 189.86
  Q 10.18 189.77 10.08 189.53
  Q 9.92 189.13 9.52 188.96
  Q 8.43 188.51 7.81 189.56
  Q 7.59 189.94 7.15 189.87
  Q 6.66 189.79 6.28 190.02
  Q 5.84 190.28 6.06 190.74
  Q 6.13 190.89 6.23 190.98
  Q 6.64 191.31 6.36 191.76
  L 5.84 192.61
  Q 5.57 193.05 5.07 192.90
  Q 4.16 192.64 3.78 193.37
  Q 3.55 193.82 3.15 194.14
  Q 2.16 194.94 0.74 194.66
  Q 0.63 194.64 0.63 194.61
  Q 0.63 194.45 0.54 194.32
  A 0.13 0.13 0.0 0 0 0.39 194.26
  L 0.00 194.39" stroke="#121328"></path>
</g>
<path d="M 0.00 0.00
  L 101.86 0.00
  Q 102.32 0.61 103.70 0.32
  A 0.47 0.47 0.0 0 1 104.21 0.99
  Q 104.08 1.23 104.11 1.50
  Q 104.12 1.58 104.20 1.56
  L 104.46 1.50
  A 0.40 0.40 0.0 0 1 104.91 2.06
  Q 103.34 5.43 102.73 7.98
  Q 101.89 11.54 101.54 12.41
  Q 100.77 14.27 99.91 16.08
  Q 99.73 16.47 99.90 16.86
  Q 100.14 17.40 99.62 19.14
  A 0.13 0.11 -13.3 0 1 99.56 19.22
  Q 99.41 19.29 99.26 19.35
  Q 99.04 19.43 99.17 19.63
  Q 99.62 20.29 99.34 21.05
  Q 99.21 21.42 99.31 21.80
  Q 99.66 23.06 98.69 24.07
  Q 98.38 24.39 98.33 24.84
  L 98.07 27.22
  Q 98.03 27.62 98.38 27.82
  Q 99.47 28.43 98.78 29.46
  Q 97.69 31.11 98.02 32.54
  Q 98.15 33.09 98.12 33.64
  L 97.73 40.44
  A 0.64 0.60 61.6 0 1 97.68 40.63
  Q 97.27 41.53 97.37 42.24
  Q 98.12 47.22 97.16 52.14
  Q 97.66 52.46 97.00 53.45
  A 0.39 0.39 0.0 0 0 97.44 54.04
  Q 97.67 53.98 97.92 54.13
  Q 98.43 54.45 97.84 54.58
  L 95.96 54.97
  L 82.98 55.01
  Q 82.45 55.01 82.45 55.53
  C 82.16 74.81 70.97 90.58 52.40 96.00
  Q 51.86 96.16 51.86 96.73
  L 51.89 119.46
  A 0.32 0.32 0.0 0 0 52.21 119.78
  L 71.25 119.79
  Q 71.76 119.80 71.76 120.31
  L 71.78 132.73
  L 71.76 136.71
  Q 71.17 136.47 70.94 136.84
  Q 70.86 136.96 70.90 137.10
  Q 70.93 137.25 70.92 137.36
  Q 70.90 137.51 70.78 137.42
  Q 67.93 135.27 64.41 135.16
  Q 63.94 135.15 63.54 134.90
  Q 61.42 133.54 58.93 133.44
  Q 58.54 133.42 58.17 133.28
  Q 57.41 132.99 56.59 133.02
  Q 56.52 133.03 56.47 132.98
  L 56.27 132.78
  Q 55.95 132.46 55.50 132.43
  Q 53.88 132.35 52.24 132.10
  Q 51.73 132.42 51.43 132.04
  Q 51.16 131.71 50.74 131.69
  L 45.12 131.48
  Q 44.74 131.46 44.47 131.19
  Q 44.18 130.90 44.00 130.88
  Q 41.02 130.54 38.09 129.90
  Q 37.99 129.88 37.92 129.94
  Q 37.82 130.02 37.72 130.12
  Q 37.50 130.35 37.29 130.09
  Q 37.05 129.78 36.75 129.76
  Q 35.08 129.66 31.86 129.95
  Q 31.38 129.99 30.94 129.79
  Q 30.27 129.48 29.68 130.15
  Q 29.38 130.50 28.99 130.25
  Q 28.52 129.94 28.14 130.36
  A 0.65 0.64 44.1 0 1 27.20 130.37
  Q 26.21 129.32 25.36 130.43
  A 1.39 1.38 -45.2 0 1 23.17 130.44
  Q 22.35 129.39 21.75 130.26
  A 0.90 0.89 18.6 0 1 20.98 130.64
  C 19.28 130.56 17.71 130.58 16.04 130.37
  Q 14.76 130.21 13.77 131.30
  A 1.02 1.01 -67.4 0 1 12.98 131.63
  Q 11.79 131.58 10.91 132.34
  A 1.01 0.98 -55.5 0 1 9.96 132.53
  Q 7.39 131.70 4.90 132.38
  C 3.74 132.70 2.57 132.43 1.49 133.17
  Q 1.10 133.44 0.96 133.90
  Q 0.68 134.83 0.00 135.63
  L 0.00 0.00
  Z" fill="#020202"></path>
<path d="M 101.86 0.00
  L 147.64 0.00
  Q 145.78 0.48 145.85 1.91
  A 1.38 1.38 0.0 0 1 145.61 2.75
  Q 144.22 4.69 144.93 7.01
  A 0.51 0.51 0.0 0 1 144.61 7.64
  L 143.50 8.02
  Q 142.85 8.24 143.30 8.75
  Q 144.17 9.72 143.57 10.99
  Q 143.38 11.40 143.07 11.07
  Q 142.84 10.82 142.50 10.88
  Q 141.96 10.97 141.89 11.51
  Q 141.75 12.45 142.26 13.23
  Q 142.44 13.51 142.24 13.78
  L 141.20 15.15
  Q 140.86 15.60 140.90 16.15
  Q 140.97 17.14 140.58 18.07
  Q 140.42 18.46 140.22 18.82
  Q 139.78 19.61 139.86 20.48
  Q 139.90 20.90 139.74 21.29
  Q 139.54 21.79 139.12 22.15
  Q 138.67 22.52 138.80 23.09
  Q 139.34 25.45 137.46 26.01
  Q 136.88 26.18 136.88 26.78
  L 136.88 30.26
  Q 136.88 30.75 136.42 30.91
  Q 136.24 30.98 136.12 31.14
  Q 135.84 31.53 136.16 31.89
  Q 136.56 32.34 136.36 33.02
  Q 136.29 33.28 136.09 33.10
  Q 135.98 32.99 135.83 32.94
  Q 135.49 32.82 135.21 33.03
  Q 135.08 33.12 135.02 33.25
  Q 134.84 33.59 135.12 33.86
  L 135.52 34.25
  Q 135.94 34.67 135.42 34.96
  Q 134.82 35.30 134.87 36.01
  Q 134.89 36.44 134.64 36.79
  L 133.57 38.32
  Q 133.21 38.83 133.82 38.66
  Q 134.05 38.59 134.29 38.50
  Q 134.70 38.34 134.70 38.78
  L 134.67 45.00
  Q 134.67 45.42 134.36 45.70
  Q 134.23 45.82 134.21 46.01
  Q 134.13 46.75 134.19 46.82
  Q 135.18 47.82 134.30 49.20
  Q 134.04 49.60 134.03 50.08
  L 133.89 56.47
  Q 133.88 56.95 134.19 57.31
  Q 134.49 57.67 134.16 58.06
  Q 133.88 58.40 134.07 58.81
  Q 134.85 60.48 134.36 62.11
  Q 134.23 62.56 134.42 62.99
  Q 136.10 66.85 136.27 71.08
  Q 136.29 71.53 136.58 71.88
  Q 137.85 73.42 137.44 75.15
  Q 137.32 75.63 137.66 76.01
  C 138.72 77.20 138.95 79.07 139.47 80.10
  Q 140.60 82.36 141.52 84.72
  Q 141.59 84.89 141.73 85.00
  Q 141.89 85.12 142.06 85.24
  Q 142.50 85.54 142.37 86.06
  Q 142.10 87.14 142.90 87.90
  Q 143.13 88.12 143.14 88.45
  Q 143.14 88.60 143.15 88.75
  A 1.56 1.52 24.3 0 0 143.52 89.69
  C 144.39 90.73 144.03 91.80 144.58 92.75
  C 145.27 93.91 146.57 94.25 146.95 95.66
  Q 147.07 96.11 147.53 96.11
  L 148.48 96.12
  Q 149.01 96.12 149.08 96.65
  Q 149.18 97.41 149.55 98.07
  Q 149.67 98.28 149.64 98.44
  Q 149.60 98.75 149.35 98.89
  Q 148.95 99.12 148.88 99.58
  Q 148.75 100.44 149.42 100.89
  Q 149.84 101.18 150.02 100.70
  L 150.12 100.41
  Q 150.30 99.90 150.58 100.37
  Q 151.10 101.27 150.92 102.01
  Q 150.47 103.94 152.05 104.17
  Q 152.54 104.25 152.56 104.75
  Q 152.62 106.46 153.94 107.51
  Q 154.33 107.82 154.81 107.95
  C 156.74 108.46 156.79 110.77 158.55 112.04
  Q 158.92 112.30 158.99 112.75
  Q 159.14 113.68 158.78 114.53
  Q 158.54 115.10 157.91 115.08
  Q 157.63 115.07 157.45 115.27
  Q 157.04 115.71 157.64 115.62
  C 160.52 115.21 161.27 117.42 161.10 119.75
  Q 161.06 120.20 161.33 120.53
  A 0.34 0.33 -69.4 0 0 161.92 120.26
  Q 161.84 119.84 162.07 119.51
  A 0.42 0.42 0.0 0 1 162.83 119.69
  Q 162.86 119.92 162.87 120.15
  Q 162.88 120.58 163.28 120.75
  L 166.58 122.18
  Q 166.90 122.32 166.98 122.66
  Q 167.02 122.85 167.06 123.03
  Q 167.18 123.57 167.70 123.75
  Q 169.61 124.42 170.68 126.34
  A 1.34 1.33 76.2 0 0 171.81 127.03
  Q 172.62 127.06 173.08 127.58
  Q 173.43 127.99 173.96 127.92
  Q 177.12 127.50 178.21 130.32
  Q 178.39 130.79 178.84 130.54
  L 179.13 130.38
  Q 180.14 129.82 179.88 130.76
  Q 179.71 131.35 180.24 131.75
  A 0.79 0.74 -31.0 0 0 180.83 131.88
  Q 181.78 131.70 182.11 132.50
  Q 182.31 132.97 182.78 132.76
  L 183.27 132.52
  A 0.42 0.42 0.0 0 1 183.86 132.96
  Q 183.79 133.48 184.24 133.75
  Q 184.49 133.89 184.74 133.76
  Q 184.86 133.70 184.98 133.64
  A 0.53 0.52 68.9 0 1 185.74 133.98
  Q 186.00 135.00 186.96 134.88
  A 0.90 0.90 0.0 0 1 187.85 135.34
  Q 188.21 135.99 188.95 135.89
  A 0.37 0.33 47.9 0 1 189.15 135.91
  L 192.47 137.16
  A 0.77 0.76 -2.0 0 1 192.88 137.54
  Q 193.17 138.18 193.78 137.75
  Q 194.33 137.36 194.75 137.88
  Q 195.20 138.45 195.85 138.41
  Q 196.33 138.38 196.75 138.62
  C 198.00 139.34 199.22 140.36 200.71 140.52
  Q 204.42 140.92 207.99 141.98
  C 208.61 142.17 209.40 141.97 209.97 142.45
  Q 210.33 142.76 210.78 142.61
  Q 211.92 142.24 213.13 142.38
  Q 213.62 142.44 213.98 142.79
  Q 214.51 143.31 215.32 143.14
  Q 215.53 143.10 215.67 143.14
  Q 215.84 143.18 215.99 143.27
  Q 216.26 143.43 216.56 143.44
  L 230.91 143.84
  Q 231.37 143.85 231.76 143.63
  Q 232.31 143.32 232.99 143.52
  Q 233.58 143.69 234.09 143.38
  Q 234.48 143.14 234.88 143.36
  C 236.65 144.32 237.39 142.34 239.21 143.45
  Q 239.58 143.67 239.89 143.37
  L 240.09 143.17
  Q 240.41 142.84 240.80 143.08
  Q 241.15 143.30 241.12 143.63
  Q 241.05 144.38 241.87 143.46
  Q 242.70 142.53 244.05 142.93
  A 0.70 0.70 0.0 0 0 244.90 142.49
  Q 244.97 142.30 245.09 142.15
  Q 245.34 141.86 245.69 142.03
  Q 246.17 142.26 246.12 142.68
  A 0.26 0.25 -20.2 0 0 246.56 142.88
  L 248.22 141.12
  A 0.44 0.44 0.0 0 1 248.92 141.19
  L 249.35 141.91
  A 0.56 0.55 -36.4 0 0 250.19 142.03
  Q 251.29 141.02 251.99 140.77
  Q 252.85 140.46 252.86 140.45
  Q 253.83 139.52 255.23 139.92
  A 0.32 0.31 5.2 0 0 255.63 139.59
  Q 255.56 138.73 256.00 138.75
  L 256.00 181.00
  Q 255.08 179.92 253.66 180.18
  Q 253.33 180.23 253.02 180.13
  Q 252.52 179.95 252.01 180.17
  Q 251.51 180.37 250.98 180.24
  Q 249.87 179.96 249.87 181.09
  A 0.44 0.44 0.0 0 1 249.27 181.50
  L 248.75 181.32
  A 0.68 0.67 35.3 0 0 248.08 181.43
  Q 247.45 181.96 246.82 181.34
  A 0.88 0.87 59.1 0 0 245.95 181.12
  Q 245.02 181.39 244.71 180.78
  A 0.61 0.61 0.0 0 0 244.26 180.45
  L 242.17 180.13
  A 0.99 0.97 -66.8 0 0 241.22 180.52
  Q 240.60 181.39 239.62 181.84
  A 0.55 0.55 0.0 0 1 238.87 181.51
  Q 238.72 181.07 238.30 180.90
  Q 237.80 180.70 237.42 181.08
  L 236.85 181.65
  Q 236.62 181.89 236.31 181.78
  Q 236.09 181.70 236.12 181.52
  Q 236.20 181.01 235.69 180.91
  Q 234.54 180.68 233.94 181.56
  Q 233.57 182.11 233.08 181.65
  Q 231.63 180.30 229.77 181.22
  Q 229.36 181.42 229.64 181.78
  Q 229.82 182.01 229.85 182.17
  Q 230.05 183.37 229.14 182.48
  L 227.81 181.18
  Q 227.39 180.78 226.91 181.09
  Q 226.75 181.19 226.53 181.14
  Q 226.23 181.08 226.20 180.77
  Q 226.15 180.32 225.82 180.09
  Q 225.29 179.73 225.04 180.32
  Q 224.72 181.11 223.88 181.53
  Q 223.42 181.76 222.92 181.87
  Q 222.34 182.00 222.00 182.53
  A 0.77 0.76 19.5 0 1 221.24 182.89
  Q 220.49 182.79 219.76 183.00
  Q 219.30 183.13 219.01 182.75
  Q 218.76 182.43 218.63 182.01
  A 0.71 0.71 0.0 0 0 217.74 181.57
  L 215.74 182.23
  Q 215.25 182.39 215.18 182.90
  Q 215.11 183.36 215.02 183.50
  Q 214.60 184.12 213.98 183.79
  Q 213.55 183.57 213.15 183.83
  Q 212.28 184.37 211.30 184.04
  Q 210.80 183.87 210.38 184.19
  Q 208.86 185.33 206.99 184.14
  Q 205.99 183.51 204.18 180.59
  C 204.55 166.22 192.97 156.35 178.70 157.92
  Q 178.52 157.54 178.97 157.01
  Q 179.25 156.67 178.84 156.81
  Q 177.86 157.14 177.06 156.22
  Q 176.75 155.85 176.27 155.89
  Q 175.57 155.95 175.63 155.21
  Q 175.69 154.55 175.04 154.67
  Q 174.77 154.73 174.50 154.68
  Q 174.01 154.60 174.05 154.10
  Q 174.09 153.62 173.41 153.05
  Q 173.01 152.71 172.56 152.98
  L 167.83 155.71
  Q 167.41 155.96 167.10 155.56
  Q 166.37 154.63 166.94 153.65
  Q 167.10 153.37 166.77 153.37
  Q 166.63 153.37 166.48 153.37
  Q 166.37 153.37 166.37 153.48
  Q 166.37 153.61 166.37 153.74
  Q 166.37 154.12 165.99 154.10
  Q 164.53 154.03 163.32 154.91
  A 0.80 0.79 43.8 0 1 162.40 154.92
  C 160.48 153.56 160.88 151.46 158.20 150.80
  Q 157.97 150.74 157.85 150.63
  Q 157.66 150.45 157.52 150.22
  Q 157.27 149.79 156.79 149.94
  Q 156.04 150.18 155.23 149.48
  Q 155.01 149.28 155.13 149.01
  Q 155.19 148.87 155.27 148.74
  A 0.42 0.42 0.0 0 0 154.97 148.11
  Q 154.36 148.03 153.93 148.42
  Q 153.64 148.68 153.29 148.51
  Q 152.83 148.27 152.84 147.70
  Q 152.84 147.62 152.75 147.62
  Q 152.61 147.62 152.48 147.62
  A 0.19 0.18 25.5 0 1 152.36 147.29
  Q 153.31 146.53 152.15 145.54
  A 0.72 0.72 0.0 0 0 151.67 145.38
  Q 151.13 145.39 151.13 144.87
  Q 151.12 144.20 151.19 144.08
  Q 151.36 143.79 151.32 143.52
  Q 151.28 143.15 150.90 143.15
  Q 150.65 143.15 150.42 143.07
  Q 150.09 142.94 149.95 142.57
  Q 149.88 142.38 149.88 142.14
  Q 149.87 141.83 149.60 141.69
  Q 149.00 141.36 148.60 140.83
  Q 148.31 140.43 147.82 140.38
  Q 146.71 140.25 145.58 140.59
  Q 144.62 140.88 145.17 140.05
  L 145.71 139.22
  Q 145.99 138.80 145.73 138.37
  L 142.93 133.64
  A 0.46 0.45 24.0 0 0 142.09 133.96
  Q 142.13 134.16 142.13 134.37
  Q 142.10 135.07 141.59 134.60
  L 140.48 133.58
  Q 140.00 133.15 140.51 132.75
  Q 140.83 132.50 141.32 132.63
  Q 141.38 132.64 141.38 132.59
  Q 141.38 132.57 141.38 132.53
  Q 141.36 132.40 141.23 132.40
  Q 138.79 132.44 139.02 129.96
  Q 139.03 129.78 138.91 129.65
  L 138.62 129.36
  A 0.19 0.19 0.0 0 0 138.33 129.40
  Q 137.95 130.02 137.23 130.13
  A 0.69 0.68 -89.4 0 1 136.46 129.34
  Q 136.66 128.13 135.77 128.38
  Q 135.20 128.54 135.37 127.98
  Q 135.59 127.23 134.82 127.26
  A 0.68 0.67 -11.3 0 1 134.16 126.83
  Q 133.77 125.81 132.76 125.86
  A 0.67 0.62 22.4 0 1 132.24 124.75
  Q 132.35 124.66 132.42 124.56
  Q 132.48 124.47 132.45 124.36
  Q 132.14 123.44 131.33 123.11
  Q 130.78 122.89 131.12 122.39
  Q 131.22 122.25 131.37 122.19
  Q 131.98 121.93 131.70 121.32
  Q 131.35 120.56 131.44 119.81
  Q 131.64 119.84 131.86 119.81
  Q 132.35 119.76 132.35 119.26
  L 132.37 93.31
  Q 132.37 92.75 131.81 92.75
  L 105.73 92.75
  Q 105.35 92.75 105.35 92.38
  L 105.40 55.50
  Q 105.40 55.04 104.93 55.03
  L 95.96 54.97
  L 97.84 54.58
  Q 98.43 54.45 97.92 54.13
  Q 97.67 53.98 97.44 54.04
  A 0.39 0.39 0.0 0 1 97.00 53.45
  Q 97.66 52.46 97.16 52.14
  Q 98.12 47.22 97.37 42.24
  Q 97.27 41.53 97.68 40.63
  A 0.64 0.60 61.6 0 0 97.73 40.44
  L 98.12 33.64
  Q 98.15 33.09 98.02 32.54
  Q 97.69 31.11 98.78 29.46
  Q 99.47 28.43 98.38 27.82
  Q 98.03 27.62 98.07 27.22
  L 98.33 24.84
  Q 98.38 24.39 98.69 24.07
  Q 99.66 23.06 99.31 21.80
  Q 99.21 21.42 99.34 21.05
  Q 99.62 20.29 99.17 19.63
  Q 99.04 19.43 99.26 19.35
  Q 99.41 19.29 99.56 19.22
  A 0.13 0.11 -13.3 0 0 99.62 19.14
  Q 100.14 17.40 99.90 16.86
  Q 99.73 16.47 99.91 16.08
  Q 100.77 14.27 101.54 12.41
  Q 101.89 11.54 102.73 7.98
  Q 103.34 5.43 104.91 2.06
  A 0.40 0.40 0.0 0 0 104.46 1.50
  L 104.20 1.56
  Q 104.12 1.58 104.11 1.50
  Q 104.08 1.23 104.21 0.99
  A 0.47 0.47 0.0 0 0 103.70 0.32
  Q 102.32 0.61 101.86 0.00
  Z" fill="#100d06"></path>
<path d="M 147.64 0.00
  L 171.56 0.00
  Q 169.88 4.12 167.07 7.32
  Q 166.85 7.58 166.88 8.22
  Q 166.90 8.70 166.51 9.00
  Q 165.68 9.62 165.87 10.65
  Q 165.98 11.23 165.51 11.59
  Q 163.64 13.00 163.86 15.26
  Q 163.90 15.74 163.44 15.89
  Q 163.22 15.97 163.02 16.30
  A 0.90 0.86 60.1 0 0 162.89 16.83
  Q 163.10 18.93 161.22 20.03
  Q 160.74 20.31 160.88 20.85
  Q 161.10 21.67 160.44 21.93
  Q 159.88 22.15 159.88 22.76
  L 159.88 23.23
  Q 159.88 23.60 159.55 23.79
  Q 158.84 24.18 158.85 24.82
  Q 158.86 25.33 158.56 25.74
  Q 157.94 26.58 157.12 27.15
  Q 156.41 27.65 157.23 27.93
  Q 158.21 28.27 157.81 29.37
  Q 157.68 29.72 157.32 29.79
  Q 155.85 30.07 154.89 31.50
  Q 154.70 31.80 154.35 31.85
  Q 153.89 31.92 153.87 32.41
  A 0.54 0.54 0.0 0 0 154.22 32.94
  Q 154.90 33.20 155.24 32.45
  A 0.23 0.23 0.0 0 1 155.67 32.54
  Q 155.71 34.20 154.24 35.04
  Q 153.81 35.28 154.02 35.73
  Q 154.15 35.99 154.46 36.13
  Q 154.88 36.31 154.88 36.77
  L 154.88 41.26
  Q 154.88 41.75 154.42 41.91
  Q 154.25 41.98 154.14 42.12
  Q 153.86 42.49 154.12 42.86
  Q 154.24 43.02 154.42 43.08
  Q 154.88 43.25 154.88 43.74
  L 154.88 49.26
  Q 154.88 49.75 154.42 49.91
  Q 154.26 49.97 154.15 50.11
  Q 153.85 50.48 154.14 50.85
  C 155.38 52.46 154.89 55.46 154.88 57.41
  Q 154.88 57.65 154.76 57.82
  Q 154.64 58.00 154.49 58.16
  Q 153.83 58.88 154.50 58.87
  Q 154.63 58.86 154.76 58.87
  Q 154.99 58.89 155.03 59.11
  L 155.71 62.27
  Q 155.78 62.63 155.68 62.98
  Q 155.50 63.56 155.89 63.83
  Q 156.19 64.05 156.30 64.40
  Q 156.96 66.56 158.72 71.27
  Q 158.87 71.66 159.04 72.91
  A 1.75 1.71 -67.7 0 0 159.37 73.72
  C 160.45 75.13 160.93 76.82 161.94 78.23
  Q 163.49 80.40 164.20 83.01
  Q 164.33 83.52 164.73 83.88
  Q 165.81 84.86 166.21 86.18
  A 0.95 0.94 6.0 0 0 166.69 86.77
  Q 168.28 87.64 168.85 89.37
  A 0.91 0.91 0.0 0 0 169.35 89.91
  C 171.80 90.93 171.20 92.65 172.58 94.18
  Q 172.88 94.52 172.88 94.97
  L 172.88 95.51
  Q 172.88 96.14 173.51 96.10
  Q 177.24 95.83 177.06 99.42
  Q 177.05 99.54 177.14 99.63
  L 177.37 99.86
  Q 177.76 100.25 177.99 99.75
  L 178.21 99.28
  Q 178.57 98.50 178.81 99.32
  Q 178.97 99.91 178.87 100.53
  A 0.53 0.53 0.0 0 0 179.54 101.13
  Q 180.40 100.88 180.67 101.55
  A 0.24 0.24 0.0 0 1 180.41 101.88
  Q 179.78 101.77 179.33 102.14
  Q 178.68 102.69 179.49 102.96
  L 180.24 103.21
  Q 180.69 103.37 180.86 102.91
  Q 180.96 102.63 181.15 102.41
  Q 181.46 102.04 181.93 102.07
  Q 182.25 102.09 182.52 102.23
  A 0.69 0.69 0.0 0 1 182.88 102.85
  Q 182.82 104.54 184.61 104.09
  A 0.28 0.27 -0.2 0 1 184.95 104.42
  Q 184.58 105.78 185.29 106.82
  Q 185.63 107.32 185.96 106.80
  Q 186.06 106.64 186.10 106.46
  Q 186.26 105.84 186.71 106.29
  L 189.31 108.96
  Q 189.46 109.12 189.68 109.11
  Q 189.88 109.11 190.07 109.14
  Q 190.57 109.22 190.93 109.57
  L 193.20 111.82
  Q 193.49 112.11 193.84 111.89
  Q 194.04 111.76 194.09 111.53
  Q 194.21 110.96 194.64 111.36
  L 197.02 113.54
  Q 197.34 113.84 197.75 113.68
  L 198.29 113.48
  Q 198.74 113.31 198.81 113.78
  L 198.97 114.71
  A 0.58 0.58 0.0 0 0 199.65 115.18
  Q 202.35 114.63 204.09 116.63
  Q 204.28 116.85 204.57 116.88
  Q 204.76 116.89 204.93 116.81
  Q 205.25 116.63 205.62 116.69
  Q 207.17 116.93 208.20 117.90
  Q 208.59 118.27 209.13 118.16
  Q 210.18 117.93 211.01 118.47
  Q 211.46 118.76 211.99 118.82
  L 216.07 119.23
  Q 216.59 119.28 217.02 119.58
  Q 219.40 121.19 222.17 120.48
  Q 222.70 120.34 223.15 120.65
  Q 224.75 121.75 226.65 120.86
  A 0.22 0.18 33.2 0 1 226.76 120.85
  L 232.56 121.80
  A 0.24 0.21 -59.8 0 0 232.76 121.73
  L 232.97 121.52
  Q 233.38 121.12 233.95 121.12
  Q 237.61 121.12 241.28 121.11
  Q 241.53 121.11 241.70 121.00
  Q 241.83 120.91 241.96 120.79
  Q 242.22 120.55 242.55 120.67
  Q 246.55 122.12 247.34 118.41
  A 0.54 0.54 0.0 0 1 248.05 118.01
  Q 249.54 118.56 250.20 117.39
  Q 250.43 116.99 250.88 117.10
  Q 252.31 117.47 253.23 116.45
  Q 253.57 116.06 254.09 116.13
  Q 255.92 116.35 256.00 114.78
  L 256.00 138.75
  Q 255.56 138.73 255.63 139.59
  A 0.32 0.31 5.2 0 1 255.23 139.92
  Q 253.83 139.52 252.86 140.45
  Q 252.85 140.46 251.99 140.77
  Q 251.29 141.02 250.19 142.03
  A 0.56 0.55 -36.4 0 1 249.35 141.91
  L 248.92 141.19
  A 0.44 0.44 0.0 0 0 248.22 141.12
  L 246.56 142.88
  A 0.26 0.25 -20.2 0 1 246.12 142.68
  Q 246.17 142.26 245.69 142.03
  Q 245.34 141.86 245.09 142.15
  Q 244.97 142.30 244.90 142.49
  A 0.70 0.70 0.0 0 1 244.05 142.93
  Q 242.70 142.53 241.87 143.46
  Q 241.05 144.38 241.12 143.63
  Q 241.15 143.30 240.80 143.08
  Q 240.41 142.84 240.09 143.17
  L 239.89 143.37
  Q 239.58 143.67 239.21 143.45
  C 237.39 142.34 236.65 144.32 234.88 143.36
  Q 234.48 143.14 234.09 143.38
  Q 233.58 143.69 232.99 143.52
  Q 232.31 143.32 231.76 143.63
  Q 231.37 143.85 230.91 143.84
  L 216.56 143.44
  Q 216.26 143.43 215.99 143.27
  Q 215.84 143.18 215.67 143.14
  Q 215.53 143.10 215.32 143.14
  Q 214.51 143.31 213.98 142.79
  Q 213.62 142.44 213.13 142.38
  Q 211.92 142.24 210.78 142.61
  Q 210.33 142.76 209.97 142.45
  C 209.40 141.97 208.61 142.17 207.99 141.98
  Q 204.42 140.92 200.71 140.52
  C 199.22 140.36 198.00 139.34 196.75 138.62
  Q 196.33 138.38 195.85 138.41
  Q 195.20 138.45 194.75 137.88
  Q 194.33 137.36 193.78 137.75
  Q 193.17 138.18 192.88 137.54
  A 0.77 0.76 -2.0 0 0 192.47 137.16
  L 189.15 135.91
  A 0.37 0.33 47.9 0 0 188.95 135.89
  Q 188.21 135.99 187.85 135.34
  A 0.90 0.90 0.0 0 0 186.96 134.88
  Q 186.00 135.00 185.74 133.98
  A 0.53 0.52 68.9 0 0 184.98 133.64
  Q 184.86 133.70 184.74 133.76
  Q 184.49 133.89 184.24 133.75
  Q 183.79 133.48 183.86 132.96
  A 0.42 0.42 0.0 0 0 183.27 132.52
  L 182.78 132.76
  Q 182.31 132.97 182.11 132.50
  Q 181.78 131.70 180.83 131.88
  A 0.79 0.74 -31.0 0 1 180.24 131.75
  Q 179.71 131.35 179.88 130.76
  Q 180.14 129.82 179.13 130.38
  L 178.84 130.54
  Q 178.39 130.79 178.21 130.32
  Q 177.12 127.50 173.96 127.92
  Q 173.43 127.99 173.08 127.58
  Q 172.62 127.06 171.81 127.03
  A 1.34 1.33 76.2 0 1 170.68 126.34
  Q 169.61 124.42 167.70 123.75
  Q 167.18 123.57 167.06 123.03
  Q 167.02 122.85 166.98 122.66
  Q 166.90 122.32 166.58 122.18
  L 163.28 120.75
  Q 162.88 120.58 162.87 120.15
  Q 162.86 119.92 162.83 119.69
  A 0.42 0.42 0.0 0 0 162.07 119.51
  Q 161.84 119.84 161.92 120.26
  A 0.34 0.33 -69.4 0 1 161.33 120.53
  Q 161.06 120.20 161.10 119.75
  C 161.27 117.42 160.52 115.21 157.64 115.62
  Q 157.04 115.71 157.45 115.27
  Q 157.63 115.07 157.91 115.08
  Q 158.54 115.10 158.78 114.53
  Q 159.14 113.68 158.99 112.75
  Q 158.92 112.30 158.55 112.04
  C 156.79 110.77 156.74 108.46 154.81 107.95
  Q 154.33 107.82 153.94 107.51
  Q 152.62 106.46 152.56 104.75
  Q 152.54 104.25 152.05 104.17
  Q 150.47 103.94 150.92 102.01
  Q 151.10 101.27 150.58 100.37
  Q 150.30 99.90 150.12 100.41
  L 150.02 100.70
  Q 149.84 101.18 149.42 100.89
  Q 148.75 100.44 148.88 99.58
  Q 148.95 99.12 149.35 98.89
  Q 149.60 98.75 149.64 98.44
  Q 149.67 98.28 149.55 98.07
  Q 149.18 97.41 149.08 96.65
  Q 149.01 96.12 148.48 96.12
  L 147.53 96.11
  Q 147.07 96.11 146.95 95.66
  C 146.57 94.25 145.27 93.91 144.58 92.75
  C 144.03 91.80 144.39 90.73 143.52 89.69
  A 1.56 1.52 24.3 0 1 143.15 88.75
  Q 143.14 88.60 143.14 88.45
  Q 143.13 88.12 142.90 87.90
  Q 142.10 87.14 142.37 86.06
  Q 142.50 85.54 142.06 85.24
  Q 141.89 85.12 141.73 85.00
  Q 141.59 84.89 141.52 84.72
  Q 140.60 82.36 139.47 80.10
  C 138.95 79.07 138.72 77.20 137.66 76.01
  Q 137.32 75.63 137.44 75.15
  Q 137.85 73.42 136.58 71.88
  Q 136.29 71.53 136.27 71.08
  Q 136.10 66.85 134.42 62.99
  Q 134.23 62.56 134.36 62.11
  Q 134.85 60.48 134.07 58.81
  Q 133.88 58.40 134.16 58.06
  Q 134.49 57.67 134.19 57.31
  Q 133.88 56.95 133.89 56.47
  L 134.03 50.08
  Q 134.04 49.60 134.30 49.20
  Q 135.18 47.82 134.19 46.82
  Q 134.13 46.75 134.21 46.01
  Q 134.23 45.82 134.36 45.70
  Q 134.67 45.42 134.67 45.00
  L 134.70 38.78
  Q 134.70 38.34 134.29 38.50
  Q 134.05 38.59 133.82 38.66
  Q 133.21 38.83 133.57 38.32
  L 134.64 36.79
  Q 134.89 36.44 134.87 36.01
  Q 134.82 35.30 135.42 34.96
  Q 135.94 34.67 135.52 34.25
  L 135.12 33.86
  Q 134.84 33.59 135.02 33.25
  Q 135.08 33.12 135.21 33.03
  Q 135.49 32.82 135.83 32.94
  Q 135.98 32.99 136.09 33.10
  Q 136.29 33.28 136.36 33.02
  Q 136.56 32.34 136.16 31.89
  Q 135.84 31.53 136.12 31.14
  Q 136.24 30.98 136.42 30.91
  Q 136.88 30.75 136.88 30.26
  L 136.88 26.78
  Q 136.88 26.18 137.46 26.01
  Q 139.34 25.45 138.80 23.09
  Q 138.67 22.52 139.12 22.15
  Q 139.54 21.79 139.74 21.29
  Q 139.90 20.90 139.86 20.48
  Q 139.78 19.61 140.22 18.82
  Q 140.42 18.46 140.58 18.07
  Q 140.97 17.14 140.90 16.15
  Q 140.86 15.60 141.20 15.15
  L 142.24 13.78
  Q 142.44 13.51 142.26 13.23
  Q 141.75 12.45 141.89 11.51
  Q 141.96 10.97 142.50 10.88
  Q 142.84 10.82 143.07 11.07
  Q 143.38 11.40 143.57 10.99
  Q 144.17 9.72 143.30 8.75
  Q 142.85 8.24 143.50 8.02
  L 144.61 7.64
  A 0.51 0.51 0.0 0 0 144.93 7.01
  Q 144.22 4.69 145.61 2.75
  A 1.38 1.38 0.0 0 0 145.85 1.91
  Q 145.78 0.48 147.64 0.00
  Z" fill="#191409"></path>
<path d="M 171.56 0.00
  L 223.76 0.00
  L 222.32 0.15
  Q 221.88 0.19 221.88 0.64
  L 221.88 1.20
  A 0.39 0.38 -50.8 0 1 221.12 1.28
  Q 221.05 0.96 220.74 0.80
  Q 220.30 0.57 219.86 0.79
  Q 218.65 1.39 218.64 2.25
  Q 218.63 2.73 218.25 2.25
  Q 217.92 1.84 217.40 1.90
  Q 217.05 1.93 216.70 2.30
  Q 215.84 3.22 214.87 4.11
  Q 214.50 4.46 214.13 4.10
  C 213.42 3.41 212.16 3.35 211.73 4.39
  Q 211.56 4.81 211.23 4.49
  L 210.91 4.16
  Q 210.62 3.88 210.29 4.11
  Q 209.27 4.81 208.89 5.83
  Q 208.71 6.31 208.21 6.43
  Q 204.90 7.19 203.62 10.28
  Q 203.38 10.86 203.07 10.32
  Q 202.75 9.75 202.22 10.05
  Q 201.64 10.38 202.11 10.85
  L 202.50 11.25
  A 0.32 0.32 0.0 0 1 202.27 11.80
  Q 200.83 11.77 200.69 13.26
  A 0.47 0.47 0.0 0 1 200.27 13.68
  Q 198.85 13.84 198.64 15.23
  Q 198.55 15.78 197.99 15.82
  L 196.28 15.95
  A 0.53 0.53 0.0 0 0 195.80 16.62
  Q 196.43 18.87 194.06 19.79
  Q 193.85 19.87 193.62 19.87
  Q 193.12 19.87 193.12 20.46
  Q 193.13 21.09 193.76 21.09
  Q 194.02 21.09 194.23 21.23
  Q 194.75 21.59 194.12 21.63
  Q 193.72 21.66 193.52 22.01
  Q 193.12 22.68 193.12 22.00
  L 193.12 21.23
  Q 193.12 20.88 192.77 20.88
  Q 192.63 20.88 192.49 20.88
  A 0.48 0.47 4.2 0 0 192.02 21.28
  Q 191.78 22.93 190.32 23.84
  Q 189.87 24.12 189.88 24.65
  Q 189.88 24.83 189.87 25.00
  Q 189.84 25.55 189.39 25.86
  Q 188.82 26.26 188.87 26.94
  Q 188.91 27.51 188.44 27.82
  Q 187.83 28.23 187.87 28.90
  Q 187.90 29.40 187.59 29.79
  L 186.50 31.17
  Q 186.20 31.55 186.15 32.04
  Q 186.07 32.81 185.42 33.32
  Q 185.09 33.58 185.38 33.88
  L 185.63 34.12
  Q 185.91 34.40 185.60 34.65
  Q 185.46 34.76 185.46 34.92
  Q 185.43 35.62 185.39 35.75
  Q 185.29 36.07 185.07 36.14
  Q 184.50 36.31 184.36 36.89
  Q 183.99 38.31 184.32 39.73
  Q 184.35 39.86 184.22 39.89
  Q 184.10 39.92 183.98 40.00
  Q 183.92 40.04 183.93 40.10
  Q 184.33 43.11 183.97 46.15
  Q 183.91 46.67 184.21 47.11
  Q 184.54 47.62 184.10 48.12
  Q 183.77 48.50 184.11 48.89
  Q 184.63 49.48 184.11 49.92
  Q 183.64 50.31 184.03 50.79
  Q 184.87 51.81 184.50 52.95
  Q 184.39 53.29 184.45 53.64
  Q 184.61 54.55 185.27 54.98
  Q 185.67 55.25 185.70 55.73
  L 185.86 59.21
  Q 185.90 59.87 186.51 60.10
  Q 187.03 60.31 186.90 60.91
  Q 186.78 61.45 187.12 61.87
  Q 187.34 62.14 187.63 62.12
  A 0.45 0.32 -44.6 0 1 187.50 62.89
  Q 187.25 62.95 187.11 63.15
  Q 186.82 63.59 187.25 63.89
  Q 188.03 64.43 188.87 64.15
  A 0.03 0.03 0.0 0 0 188.87 64.09
  Q 188.71 64.04 188.41 64.17
  A 0.34 0.34 0.0 0 0 188.49 64.81
  L 190.51 65.16
  A 0.48 0.47 -75.7 0 1 190.88 65.79
  Q 190.58 66.66 191.40 67.11
  A 0.94 0.93 16.5 0 1 191.89 68.01
  Q 191.78 69.25 193.06 69.11
  A 0.33 0.33 0.0 0 1 193.32 69.68
  Q 193.11 69.86 193.13 70.13
  Q 193.17 70.80 193.18 70.82
  L 194.21 71.84
  Q 194.56 72.19 194.90 71.84
  L 195.24 71.50
  A 0.27 0.27 0.0 0 1 195.70 71.71
  Q 195.57 73.42 196.72 74.41
  A 0.25 0.22 32.2 0 1 196.79 74.66
  Q 196.70 74.93 196.51 74.89
  A 0.53 0.51 -15.4 0 0 196.00 75.75
  L 196.25 75.99
  Q 196.45 76.19 196.69 76.03
  Q 196.98 75.84 197.11 75.52
  Q 197.32 75.00 197.72 75.39
  L 200.11 77.72
  Q 200.44 78.04 200.89 78.10
  Q 201.19 78.14 201.44 78.28
  Q 201.88 78.54 201.88 79.05
  L 201.88 80.20
  Q 201.88 80.73 202.40 80.87
  Q 205.12 81.58 205.43 84.42
  A 0.71 0.71 0.0 0 0 206.64 84.85
  L 207.03 84.46
  Q 207.28 84.21 207.59 84.40
  Q 208.52 84.98 209.13 85.84
  A 0.76 0.75 63.6 0 0 209.98 86.13
  Q 210.69 85.91 210.90 86.52
  Q 211.12 87.12 211.75 87.12
  L 212.26 87.12
  Q 212.57 87.12 212.73 87.39
  Q 213.24 88.28 214.12 88.13
  Q 214.56 88.06 214.88 88.38
  L 216.25 89.75
  A 0.52 0.52 0.0 0 0 216.99 89.75
  L 217.39 89.35
  A 0.27 0.26 -33.8 0 1 217.82 89.43
  Q 218.21 90.32 219.26 90.11
  A 0.53 0.53 0.0 0 1 219.89 90.51
  Q 219.94 90.73 220.13 90.87
  A 1.14 0.71 53.7 0 0 220.75 91.12
  L 230.26 91.12
  Q 230.63 91.12 230.88 90.86
  L 231.12 90.62
  Q 231.39 90.35 231.70 90.57
  Q 233.01 91.49 234.65 91.04
  Q 235.29 90.86 235.12 90.22
  Q 235.00 89.73 235.29 89.44
  A 0.34 0.34 0.0 0 1 235.87 89.73
  Q 235.70 90.81 236.75 91.06
  Q 238.32 91.45 239.28 90.50
  Q 240.08 89.71 239.92 90.50
  Q 239.78 91.17 240.00 91.75
  Q 240.22 92.31 240.70 91.96
  Q 241.90 91.07 242.21 89.71
  Q 242.34 89.12 242.95 89.12
  L 243.64 89.12
  Q 243.78 89.12 243.80 89.25
  L 243.94 89.90
  A 0.36 0.36 0.0 0 0 244.44 90.15
  Q 244.61 90.07 244.77 89.98
  Q 245.07 89.80 245.00 89.46
  Q 244.90 88.92 244.33 88.84
  Q 243.98 88.80 244.11 88.46
  Q 244.18 88.29 244.40 88.21
  Q 245.70 87.75 246.17 88.88
  A 0.35 0.34 56.4 0 0 246.74 89.00
  L 246.99 88.76
  A 0.94 0.91 -31.8 0 0 247.22 87.84
  Q 246.53 85.56 248.23 84.36
  Q 248.58 84.11 249.00 84.15
  Q 249.73 84.22 250.04 83.64
  Q 250.37 83.01 250.87 83.51
  L 252.68 85.34
  A 0.77 0.77 0.0 0 0 253.99 84.88
  Q 254.04 84.47 254.27 84.22
  A 0.26 0.25 31.7 0 1 254.57 84.16
  Q 254.99 84.34 255.12 84.71
  Q 255.48 85.71 255.85 84.76
  L 256.00 84.36
  L 256.00 114.78
  Q 255.92 116.35 254.09 116.13
  Q 253.57 116.06 253.23 116.45
  Q 252.31 117.47 250.88 117.10
  Q 250.43 116.99 250.20 117.39
  Q 249.54 118.56 248.05 118.01
  A 0.54 0.54 0.0 0 0 247.34 118.41
  Q 246.55 122.12 242.55 120.67
  Q 242.22 120.55 241.96 120.79
  Q 241.83 120.91 241.70 121.00
  Q 241.53 121.11 241.28 121.11
  Q 237.61 121.12 233.95 121.12
  Q 233.38 121.12 232.97 121.52
  L 232.76 121.73
  A 0.24 0.21 -59.8 0 1 232.56 121.80
  L 226.76 120.85
  A 0.22 0.18 33.2 0 0 226.65 120.86
  Q 224.75 121.75 223.15 120.65
  Q 222.70 120.34 222.17 120.48
  Q 219.40 121.19 217.02 119.58
  Q 216.59 119.28 216.07 119.23
  L 211.99 118.82
  Q 211.46 118.76 211.01 118.47
  Q 210.18 117.93 209.13 118.16
  Q 208.59 118.27 208.20 117.90
  Q 207.17 116.93 205.62 116.69
  Q 205.25 116.63 204.93 116.81
  Q 204.76 116.89 204.57 116.88
  Q 204.28 116.85 204.09 116.63
  Q 202.35 114.63 199.65 115.18
  A 0.58 0.58 0.0 0 1 198.97 114.71
  L 198.81 113.78
  Q 198.74 113.31 198.29 113.48
  L 197.75 113.68
  Q 197.34 113.84 197.02 113.54
  L 194.64 111.36
  Q 194.21 110.96 194.09 111.53
  Q 194.04 111.76 193.84 111.89
  Q 193.49 112.11 193.20 111.82
  L 190.93 109.57
  Q 190.57 109.22 190.07 109.14
  Q 189.88 109.11 189.68 109.11
  Q 189.46 109.12 189.31 108.96
  L 186.71 106.29
  Q 186.26 105.84 186.10 106.46
  Q 186.06 106.64 185.96 106.80
  Q 185.63 107.32 185.29 106.82
  Q 184.58 105.78 184.95 104.42
  A 0.28 0.27 -0.2 0 0 184.61 104.09
  Q 182.82 104.54 182.88 102.85
  A 0.69 0.69 0.0 0 0 182.52 102.23
  Q 182.25 102.09 181.93 102.07
  Q 181.46 102.04 181.15 102.41
  Q 180.96 102.63 180.86 102.91
  Q 180.69 103.37 180.24 103.21
  L 179.49 102.96
  Q 178.68 102.69 179.33 102.14
  Q 179.78 101.77 180.41 101.88
  A 0.24 0.24 0.0 0 0 180.67 101.55
  Q 180.40 100.88 179.54 101.13
  A 0.53 0.53 0.0 0 1 178.87 100.53
  Q 178.97 99.91 178.81 99.32
  Q 178.57 98.50 178.21 99.28
  L 177.99 99.75
  Q 177.76 100.25 177.37 99.86
  L 177.14 99.63
  Q 177.05 99.54 177.06 99.42
  Q 177.24 95.83 173.51 96.10
  Q 172.88 96.14 172.88 95.51
  L 172.88 94.97
  Q 172.88 94.52 172.58 94.18
  C 171.20 92.65 171.80 90.93 169.35 89.91
  A 0.91 0.91 0.0 0 1 168.85 89.37
  Q 168.28 87.64 166.69 86.77
  A 0.95 0.94 6.0 0 1 166.21 86.18
  Q 165.81 84.86 164.73 83.88
  Q 164.33 83.52 164.20 83.01
  Q 163.49 80.40 161.94 78.23
  C 160.93 76.82 160.45 75.13 159.37 73.72
  A 1.75 1.71 -67.7 0 1 159.04 72.91
  Q 158.87 71.66 158.72 71.27
  Q 156.96 66.56 156.30 64.40
  Q 156.19 64.05 155.89 63.83
  Q 155.50 63.56 155.68 62.98
  Q 155.78 62.63 155.71 62.27
  L 155.03 59.11
  Q 154.99 58.89 154.76 58.87
  Q 154.63 58.86 154.50 58.87
  Q 153.83 58.88 154.49 58.16
  Q 154.64 58.00 154.76 57.82
  Q 154.88 57.65 154.88 57.41
  C 154.89 55.46 155.38 52.46 154.14 50.85
  Q 153.85 50.48 154.15 50.11
  Q 154.26 49.97 154.42 49.91
  Q 154.88 49.75 154.88 49.26
  L 154.88 43.74
  Q 154.88 43.25 154.42 43.08
  Q 154.24 43.02 154.12 42.86
  Q 153.86 42.49 154.14 42.12
  Q 154.25 41.98 154.42 41.91
  Q 154.88 41.75 154.88 41.26
  L 154.88 36.77
  Q 154.88 36.31 154.46 36.13
  Q 154.15 35.99 154.02 35.73
  Q 153.81 35.28 154.24 35.04
  Q 155.71 34.20 155.67 32.54
  A 0.23 0.23 0.0 0 0 155.24 32.45
  Q 154.90 33.20 154.22 32.94
  A 0.54 0.54 0.0 0 1 153.87 32.41
  Q 153.89 31.92 154.35 31.85
  Q 154.70 31.80 154.89 31.50
  Q 155.85 30.07 157.32 29.79
  Q 157.68 29.72 157.81 29.37
  Q 158.21 28.27 157.23 27.93
  Q 156.41 27.65 157.12 27.15
  Q 157.94 26.58 158.56 25.74
  Q 158.86 25.33 158.85 24.82
  Q 158.84 24.18 159.55 23.79
  Q 159.88 23.60 159.88 23.23
  L 159.88 22.76
  Q 159.88 22.15 160.44 21.93
  Q 161.10 21.67 160.88 20.85
  Q 160.74 20.31 161.22 20.03
  Q 163.10 18.93 162.89 16.83
  A 0.90 0.86 60.1 0 1 163.02 16.30
  Q 163.22 15.97 163.44 15.89
  Q 163.90 15.74 163.86 15.26
  Q 163.64 13.00 165.51 11.59
  Q 165.98 11.23 165.87 10.65
  Q 165.68 9.62 166.51 9.00
  Q 166.90 8.70 166.88 8.22
  Q 166.85 7.58 167.07 7.32
  Q 169.88 4.12 171.56 0.00
  Z" fill="#211b0c"></path>
<path d="M 223.76 0.00
  L 256.00 0.00
  L 256.00 84.36
  L 255.85 84.76
  Q 255.48 85.71 255.12 84.71
  Q 254.99 84.34 254.57 84.16
  A 0.26 0.25 31.7 0 0 254.27 84.22
  Q 254.04 84.47 253.99 84.88
  A 0.77 0.77 0.0 0 1 252.68 85.34
  L 250.87 83.51
  Q 250.37 83.01 250.04 83.64
  Q 249.73 84.22 249.00 84.15
  Q 248.58 84.11 248.23 84.36
  Q 246.53 85.56 247.22 87.84
  A 0.94 0.91 -31.8 0 1 246.99 88.76
  L 246.74 89.00
  A 0.35 0.34 56.4 0 1 246.17 88.88
  Q 245.70 87.75 244.40 88.21
  Q 244.18 88.29 244.11 88.46
  Q 243.98 88.80 244.33 88.84
  Q 244.90 88.92 245.00 89.46
  Q 245.07 89.80 244.77 89.98
  Q 244.61 90.07 244.44 90.15
  A 0.36 0.36 0.0 0 1 243.94 89.90
  L 243.80 89.25
  Q 243.78 89.12 243.64 89.12
  L 242.95 89.12
  Q 242.34 89.12 242.21 89.71
  Q 241.90 91.07 240.70 91.96
  Q 240.22 92.31 240.00 91.75
  Q 239.78 91.17 239.92 90.50
  Q 240.08 89.71 239.28 90.50
  Q 238.32 91.45 236.75 91.06
  Q 235.70 90.81 235.87 89.73
  A 0.34 0.34 0.0 0 0 235.29 89.44
  Q 235.00 89.73 235.12 90.22
  Q 235.29 90.86 234.65 91.04
  Q 233.01 91.49 231.70 90.57
  Q 231.39 90.35 231.12 90.62
  L 230.88 90.86
  Q 230.63 91.12 230.26 91.12
  L 220.75 91.12
  A 1.14 0.71 53.7 0 1 220.13 90.87
  Q 219.94 90.73 219.89 90.51
  A 0.53 0.53 0.0 0 0 219.26 90.11
  Q 218.21 90.32 217.82 89.43
  A 0.27 0.26 -33.8 0 0 217.39 89.35
  L 216.99 89.75
  A 0.52 0.52 0.0 0 1 216.25 89.75
  L 214.88 88.38
  Q 214.56 88.06 214.12 88.13
  Q 213.24 88.28 212.73 87.39
  Q 212.57 87.12 212.26 87.12
  L 211.75 87.12
  Q 211.12 87.12 210.90 86.52
  Q 210.69 85.91 209.98 86.13
  A 0.76 0.75 63.6 0 1 209.13 85.84
  Q 208.52 84.98 207.59 84.40
  Q 207.28 84.21 207.03 84.46
  L 206.64 84.85
  A 0.71 0.71 0.0 0 1 205.43 84.42
  Q 205.12 81.58 202.40 80.87
  Q 201.88 80.73 201.88 80.20
  L 201.88 79.05
  Q 201.88 78.54 201.44 78.28
  Q 201.19 78.14 200.89 78.10
  Q 200.44 78.04 200.11 77.72
  L 197.72 75.39
  Q 197.32 75.00 197.11 75.52
  Q 196.98 75.84 196.69 76.03
  Q 196.45 76.19 196.25 75.99
  L 196.00 75.75
  A 0.53 0.51 -15.4 0 1 196.51 74.89
  Q 196.70 74.93 196.79 74.66
  A 0.25 0.22 32.2 0 0 196.72 74.41
  Q 195.57 73.42 195.70 71.71
  A 0.27 0.27 0.0 0 0 195.24 71.50
  L 194.90 71.84
  Q 194.56 72.19 194.21 71.84
  L 193.18 70.82
  Q 193.17 70.80 193.13 70.13
  Q 193.11 69.86 193.32 69.68
  A 0.33 0.33 0.0 0 0 193.06 69.11
  Q 191.78 69.25 191.89 68.01
  A 0.94 0.93 16.5 0 0 191.40 67.11
  Q 190.58 66.66 190.88 65.79
  A 0.48 0.47 -75.7 0 0 190.51 65.16
  L 188.49 64.81
  A 0.34 0.34 0.0 0 1 188.41 64.17
  Q 188.71 64.04 188.87 64.09
  A 0.03 0.03 0.0 0 1 188.87 64.15
  Q 188.03 64.43 187.25 63.89
  Q 186.82 63.59 187.11 63.15
  Q 187.25 62.95 187.50 62.89
  A 0.45 0.32 -44.6 0 0 187.63 62.12
  Q 187.34 62.14 187.12 61.87
  Q 186.78 61.45 186.90 60.91
  Q 187.03 60.31 186.51 60.10
  Q 185.90 59.87 185.86 59.21
  L 185.70 55.73
  Q 185.67 55.25 185.27 54.98
  Q 184.61 54.55 184.45 53.64
  Q 184.39 53.29 184.50 52.95
  Q 184.87 51.81 184.03 50.79
  Q 183.64 50.31 184.11 49.92
  Q 184.63 49.48 184.11 48.89
  Q 183.77 48.50 184.10 48.12
  Q 184.54 47.62 184.21 47.11
  Q 183.91 46.67 183.97 46.15
  Q 184.33 43.11 183.93 40.10
  Q 183.92 40.04 183.98 40.00
  Q 184.10 39.92 184.22 39.89
  Q 184.35 39.86 184.32 39.73
  Q 183.99 38.31 184.36 36.89
  Q 184.50 36.31 185.07 36.14
  Q 185.29 36.07 185.39 35.75
  Q 185.43 35.62 185.46 34.92
  Q 185.46 34.76 185.60 34.65
  Q 185.91 34.40 185.63 34.12
  L 185.38 33.88
  Q 185.09 33.58 185.42 33.32
  Q 186.07 32.81 186.15 32.04
  Q 186.20 31.55 186.50 31.17
  L 187.59 29.79
  Q 187.90 29.40 187.87 28.90
  Q 187.83 28.23 188.44 27.82
  Q 188.91 27.51 188.87 26.94
  Q 188.82 26.26 189.39 25.86
  Q 189.84 25.55 189.87 25.00
  Q 189.88 24.83 189.88 24.65
  Q 189.87 24.12 190.32 23.84
  Q 191.78 22.93 192.02 21.28
  A 0.48 0.47 4.2 0 1 192.49 20.88
  Q 192.63 20.88 192.77 20.88
  Q 193.12 20.88 193.12 21.23
  L 193.12 22.00
  Q 193.12 22.68 193.52 22.01
  Q 193.72 21.66 194.12 21.63
  Q 194.75 21.59 194.23 21.23
  Q 194.02 21.09 193.76 21.09
  Q 193.13 21.09 193.12 20.46
  Q 193.12 19.87 193.62 19.87
  Q 193.85 19.87 194.06 19.79
  Q 196.43 18.87 195.80 16.62
  A 0.53 0.53 0.0 0 1 196.28 15.95
  L 197.99 15.82
  Q 198.55 15.78 198.64 15.23
  Q 198.85 13.84 200.27 13.68
  A 0.47 0.47 0.0 0 0 200.69 13.26
  Q 200.83 11.77 202.27 11.80
  A 0.32 0.32 0.0 0 0 202.50 11.25
  L 202.11 10.85
  Q 201.64 10.38 202.22 10.05
  Q 202.75 9.75 203.07 10.32
  Q 203.38 10.86 203.62 10.28
  Q 204.90 7.19 208.21 6.43
  Q 208.71 6.31 208.89 5.83
  Q 209.27 4.81 210.29 4.11
  Q 210.62 3.88 210.91 4.16
  L 211.23 4.49
  Q 211.56 4.81 211.73 4.39
  C 212.16 3.35 213.42 3.41 214.13 4.10
  Q 214.50 4.46 214.87 4.11
  Q 215.84 3.22 216.70 2.30
  Q 217.05 1.93 217.40 1.90
  Q 217.92 1.84 218.25 2.25
  Q 218.63 2.73 218.64 2.25
  Q 218.65 1.39 219.86 0.79
  Q 220.30 0.57 220.74 0.80
  Q 221.05 0.96 221.12 1.28
  A 0.39 0.38 -50.8 0 0 221.88 1.20
  L 221.88 0.64
  Q 221.88 0.19 222.32 0.15
  L 223.76 0.00
  Z" fill="#2d2510"></path>
<path d="M 95.96 54.97
  L 104.93 55.03
  Q 105.40 55.04 105.40 55.50
  L 105.35 92.38
  Q 105.35 92.75 105.73 92.75
  L 131.81 92.75
  Q 132.37 92.75 132.37 93.31
  L 132.35 119.26
  Q 132.35 119.76 131.86 119.81
  Q 131.64 119.84 131.44 119.81
  L 105.72 119.79
  A 0.36 0.36 0.0 0 0 105.36 120.15
  L 105.38 151.95
  Q 105.08 152.62 105.14 153.53
  Q 105.16 153.81 104.91 153.70
  Q 104.79 153.65 104.78 153.50
  Q 104.70 152.63 104.61 151.78
  Q 104.59 151.65 104.47 151.69
  Q 104.28 151.75 104.21 151.85
  Q 104.08 152.03 103.89 151.93
  Q 103.10 151.52 102.15 151.44
  Q 101.90 151.42 101.98 151.18
  L 102.34 150.19
  A 0.44 0.42 40.3 0 0 102.30 149.82
  Q 102.05 149.41 101.63 149.31
  Q 101.27 149.24 101.10 148.91
  Q 98.80 144.69 93.95 145.91
  A 0.83 0.83 0.0 0 1 93.18 145.71
  L 87.01 139.75
  A 2.27 2.27 0.0 0 0 85.43 139.11
  L 83.12 139.11
  Q 82.64 139.11 82.28 138.79
  L 77.89 134.84
  A 3.54 1.96 46.7 0 0 74.65 133.81
  Q 73.52 134.43 71.78 132.73
  L 71.76 120.31
  Q 71.76 119.80 71.25 119.79
  L 52.21 119.78
  A 0.32 0.32 0.0 0 1 51.89 119.46
  L 51.86 96.73
  Q 51.86 96.16 52.40 96.00
  C 70.97 90.58 82.16 74.81 82.45 55.53
  Q 82.45 55.01 82.98 55.01
  L 95.96 54.97
  Z" fill="#fbfafc"></path>
<path d="M 131.44 119.81
  Q 131.35 120.56 131.70 121.32
  Q 131.98 121.93 131.37 122.19
  Q 131.22 122.25 131.12 122.39
  Q 130.78 122.89 131.33 123.11
  Q 132.14 123.44 132.45 124.36
  Q 132.48 124.47 132.42 124.56
  Q 132.35 124.66 132.24 124.75
  A 0.67 0.62 22.4 0 0 132.76 125.86
  Q 133.77 125.81 134.16 126.83
  A 0.68 0.67 -11.3 0 0 134.82 127.26
  Q 135.59 127.23 135.37 127.98
  Q 135.20 128.54 135.77 128.38
  Q 136.66 128.13 136.46 129.34
  A 0.69 0.68 -89.4 0 0 137.23 130.13
  Q 137.95 130.02 138.33 129.40
  A 0.19 0.19 0.0 0 1 138.62 129.36
  L 138.91 129.65
  Q 139.03 129.78 139.02 129.96
  Q 138.79 132.44 141.23 132.40
  Q 141.36 132.40 141.38 132.53
  Q 141.38 132.57 141.38 132.59
  Q 141.38 132.64 141.32 132.63
  Q 140.83 132.50 140.51 132.75
  Q 140.00 133.15 140.48 133.58
  L 141.59 134.60
  Q 142.10 135.07 142.13 134.37
  Q 142.13 134.16 142.09 133.96
  A 0.46 0.45 24.0 0 1 142.93 133.64
  L 145.73 138.37
  Q 145.99 138.80 145.71 139.22
  L 145.17 140.05
  Q 144.62 140.88 145.58 140.59
  Q 146.71 140.25 147.82 140.38
  Q 148.31 140.43 148.60 140.83
  Q 149.00 141.36 149.60 141.69
  Q 149.87 141.83 149.88 142.14
  Q 149.88 142.38 149.95 142.57
  Q 150.09 142.94 150.42 143.07
  Q 150.65 143.15 150.90 143.15
  Q 151.28 143.15 151.32 143.52
  Q 151.36 143.79 151.19 144.08
  Q 151.12 144.20 151.13 144.87
  Q 151.13 145.39 151.67 145.38
  A 0.72 0.72 0.0 0 1 152.15 145.54
  Q 153.31 146.53 152.36 147.29
  A 0.19 0.18 25.5 0 0 152.48 147.62
  Q 152.61 147.62 152.75 147.62
  Q 152.84 147.62 152.84 147.70
  Q 152.83 148.27 153.29 148.51
  Q 153.64 148.68 153.93 148.42
  Q 154.36 148.03 154.97 148.11
  A 0.42 0.42 0.0 0 1 155.27 148.74
  Q 155.19 148.87 155.13 149.01
  Q 155.01 149.28 155.23 149.48
  Q 156.04 150.18 156.79 149.94
  Q 157.27 149.79 157.52 150.22
  Q 157.66 150.45 157.85 150.63
  Q 157.97 150.74 158.20 150.80
  C 160.88 151.46 160.48 153.56 162.40 154.92
  A 0.80 0.79 43.8 0 0 163.32 154.91
  Q 164.53 154.03 165.99 154.10
  Q 166.37 154.12 166.37 153.74
  Q 166.37 153.61 166.37 153.48
  Q 166.37 153.37 166.48 153.37
  Q 166.63 153.37 166.77 153.37
  Q 167.10 153.37 166.94 153.65
  Q 166.37 154.63 167.10 155.56
  Q 167.41 155.96 167.83 155.71
  L 172.56 152.98
  Q 173.01 152.71 173.41 153.05
  Q 174.09 153.62 174.05 154.10
  Q 174.01 154.60 174.50 154.68
  Q 174.77 154.73 175.04 154.67
  Q 175.69 154.55 175.63 155.21
  Q 175.57 155.95 176.27 155.89
  Q 176.75 155.85 177.06 156.22
  Q 177.86 157.14 178.84 156.81
  Q 179.25 156.67 178.97 157.01
  Q 178.52 157.54 178.70 157.92
  C 154.49 163.44 154.80 196.78 179.02 200.80
  C 192.09 202.96 202.59 193.38 204.18 180.59
  Q 205.99 183.51 206.99 184.14
  Q 208.86 185.33 210.38 184.19
  Q 210.80 183.87 211.30 184.04
  Q 212.28 184.37 213.15 183.83
  Q 213.55 183.57 213.98 183.79
  Q 214.60 184.12 215.02 183.50
  Q 215.11 183.36 215.18 182.90
  Q 215.25 182.39 215.74 182.23
  L 217.74 181.57
  A 0.71 0.71 0.0 0 1 218.63 182.01
  Q 218.76 182.43 219.01 182.75
  Q 219.30 183.13 219.76 183.00
  Q 220.49 182.79 221.24 182.89
  A 0.77 0.76 19.5 0 0 222.00 182.53
  Q 222.34 182.00 222.92 181.87
  Q 223.42 181.76 223.88 181.53
  Q 224.72 181.11 225.04 180.32
  Q 225.29 179.73 225.82 180.09
  Q 226.15 180.32 226.20 180.77
  Q 226.23 181.08 226.53 181.14
  Q 226.75 181.19 226.91 181.09
  Q 227.39 180.78 227.81 181.18
  L 229.14 182.48
  Q 230.05 183.37 229.85 182.17
  Q 229.82 182.01 229.64 181.78
  Q 229.36 181.42 229.77 181.22
  Q 231.63 180.30 233.08 181.65
  Q 233.57 182.11 233.94 181.56
  Q 234.54 180.68 235.69 180.91
  Q 236.20 181.01 236.12 181.52
  Q 236.09 181.70 236.31 181.78
  Q 236.62 181.89 236.85 181.65
  L 237.42 181.08
  Q 237.80 180.70 238.30 180.90
  Q 238.72 181.07 238.87 181.51
  A 0.55 0.55 0.0 0 0 239.62 181.84
  Q 240.60 181.39 241.22 180.52
  A 0.99 0.97 -66.8 0 1 242.17 180.13
  L 244.26 180.45
  A 0.61 0.61 0.0 0 1 244.71 180.78
  Q 245.02 181.39 245.95 181.12
  A 0.88 0.87 59.1 0 1 246.82 181.34
  Q 247.45 181.96 248.08 181.43
  A 0.68 0.67 35.3 0 1 248.75 181.32
  L 249.27 181.50
  A 0.44 0.44 0.0 0 0 249.87 181.09
  Q 249.87 179.96 250.98 180.24
  Q 251.51 180.37 252.01 180.17
  Q 252.52 179.95 253.02 180.13
  Q 253.33 180.23 253.66 180.18
  Q 255.08 179.92 256.00 181.00
  L 256.00 256.00
  L 133.50 256.00
  Q 133.33 255.46 133.37 254.81
  Q 133.41 254.16 133.87 254.62
  L 134.14 254.89
  A 0.58 0.57 -67.6 0 0 135.12 254.48
  L 135.12 253.76
  Q 135.12 253.44 135.39 253.28
  Q 136.32 252.73 136.12 251.80
  Q 136.02 251.34 136.45 251.12
  Q 137.57 250.57 136.99 249.25
  A 0.55 0.51 88.9 0 0 136.75 249.00
  Q 136.63 248.94 136.50 248.89
  Q 136.12 248.71 136.12 248.29
  L 136.12 242.74
  Q 136.12 242.26 136.58 242.09
  Q 136.75 242.03 136.86 241.88
  Q 137.13 241.53 136.82 241.21
  Q 135.13 239.50 136.82 237.79
  Q 137.13 237.48 136.87 237.12
  Q 136.73 236.94 136.50 236.90
  Q 135.55 236.75 136.50 236.13
  L 136.72 235.99
  Q 137.17 235.70 136.93 235.22
  Q 136.79 234.95 136.50 234.90
  Q 135.55 234.75 136.50 234.13
  L 136.73 233.98
  Q 137.16 233.70 136.94 233.24
  Q 136.82 233.00 136.58 232.91
  Q 136.12 232.75 136.12 232.26
  L 136.12 226.76
  Q 136.12 226.22 135.63 226.01
  Q 134.72 225.62 135.31 224.39
  Q 135.44 224.12 135.75 224.12
  L 136.18 224.12
  Q 136.66 224.12 136.95 223.73
  Q 137.26 223.30 137.14 222.74
  Q 137.04 222.27 136.61 222.04
  Q 136.01 221.72 136.09 221.15
  Q 136.16 220.66 135.84 220.27
  L 134.46 218.56
  Q 134.12 218.15 134.12 217.61
  L 134.12 212.96
  A 1.58 1.55 26.4 0 0 133.78 211.99
  Q 133.09 211.15 133.54 210.01
  Q 134.51 207.57 133.76 205.03
  Q 133.69 204.80 133.45 204.81
  Q 133.29 204.81 133.15 204.72
  Q 132.78 204.47 132.86 204.03
  Q 132.99 203.34 132.48 203.00
  Q 132.05 202.70 132.26 202.22
  Q 132.45 201.79 132.04 201.52
  Q 131.64 201.25 132.00 200.92
  Q 132.35 200.61 132.37 200.28
  L 132.36 174.69
  Q 132.36 174.16 131.83 174.15
  C 121.72 173.97 110.42 176.25 106.27 164.59
  C 104.98 160.96 105.37 156.06 105.38 151.95
  L 105.36 120.15
  A 0.36 0.36 0.0 0 1 105.72 119.79
  L 131.44 119.81
  Z" fill="#020202"></path>
<path d="M 71.76 136.71
  L 71.76 162.46
  Q 71.27 162.53 71.16 163.01
  Q 71.11 163.22 71.19 163.39
  Q 71.33 163.71 71.15 164.00
  L 70.36 165.24
  Q 70.26 165.40 70.19 165.22
  L 69.88 164.41
  Q 69.68 163.90 69.16 164.05
  Q 68.59 164.22 68.00 164.12
  A 0.95 0.01 9.6 0 1 67.09 163.96
  Q 63.30 161.78 58.97 161.44
  Q 58.48 161.40 58.07 161.13
  Q 56.11 159.86 54.02 158.82
  Q 53.28 158.89 52.95 158.33
  Q 52.69 157.89 52.17 157.90
  Q 50.43 157.92 48.89 157.09
  Q 48.46 156.85 48.05 157.11
  Q 46.87 157.85 45.71 156.69
  Q 44.84 155.82 43.95 156.35
  Q 43.62 156.55 43.37 156.26
  C 42.73 155.51 40.68 155.37 39.61 154.77
  Q 39.10 154.49 38.53 154.57
  L 33.95 155.26
  Q 33.52 155.33 33.09 155.20
  Q 31.17 154.63 29.16 154.77
  C 28.06 154.85 26.78 154.40 25.73 155.14
  Q 25.37 155.39 24.94 155.39
  L 22.97 155.39
  Q 22.51 155.39 22.13 155.13
  Q 21.46 154.68 20.59 154.90
  Q 20.23 154.99 20.03 155.27
  Q 19.83 155.53 19.68 155.91
  Q 19.58 156.17 19.33 156.06
  C 17.67 155.37 16.55 156.52 15.27 156.81
  Q 13.09 157.28 10.90 157.72
  C 9.25 158.05 8.11 158.74 6.64 159.48
  Q 6.27 159.67 6.02 159.33
  L 5.77 159.00
  Q 5.39 158.50 5.22 159.10
  Q 5.06 159.65 4.56 159.85
  Q 4.35 159.92 3.93 159.85
  Q 3.01 159.70 2.81 160.40
  Q 2.71 160.74 2.39 160.92
  Q 1.53 161.40 1.62 162.33
  A 0.08 0.08 0.0 0 1 1.51 162.41
  L 1.03 162.16
  Q 0.62 161.93 0.32 162.30
  Q 0.07 162.60 0.00 163.14
  L 0.00 135.63
  Q 0.68 134.83 0.96 133.90
  Q 1.10 133.44 1.49 133.17
  C 2.57 132.43 3.74 132.70 4.90 132.38
  Q 7.39 131.70 9.96 132.53
  A 1.01 0.98 -55.5 0 0 10.91 132.34
  Q 11.79 131.58 12.98 131.63
  A 1.02 1.01 -67.4 0 0 13.77 131.30
  Q 14.76 130.21 16.04 130.37
  C 17.71 130.58 19.28 130.56 20.98 130.64
  A 0.90 0.89 18.6 0 0 21.75 130.26
  Q 22.35 129.39 23.17 130.44
  A 1.39 1.38 -45.2 0 0 25.36 130.43
  Q 26.21 129.32 27.20 130.37
  A 0.65 0.64 44.1 0 0 28.14 130.36
  Q 28.52 129.94 28.99 130.25
  Q 29.38 130.50 29.68 130.15
  Q 30.27 129.48 30.94 129.79
  Q 31.38 129.99 31.86 129.95
  Q 35.08 129.66 36.75 129.76
  Q 37.05 129.78 37.29 130.09
  Q 37.50 130.35 37.72 130.12
  Q 37.82 130.02 37.92 129.94
  Q 37.99 129.88 38.09 129.90
  Q 41.02 130.54 44.00 130.88
  Q 44.18 130.90 44.47 131.19
  Q 44.74 131.46 45.12 131.48
  L 50.74 131.69
  Q 51.16 131.71 51.43 132.04
  Q 51.73 132.42 52.24 132.10
  Q 53.88 132.35 55.50 132.43
  Q 55.95 132.46 56.27 132.78
  L 56.47 132.98
  Q 56.52 133.03 56.59 133.02
  Q 57.41 132.99 58.17 133.28
  Q 58.54 133.42 58.93 133.44
  Q 61.42 133.54 63.54 134.90
  Q 63.94 135.15 64.41 135.16
  Q 67.93 135.27 70.78 137.42
  Q 70.90 137.51 70.92 137.36
  Q 70.93 137.25 70.90 137.10
  Q 70.86 136.96 70.94 136.84
  Q 71.17 136.47 71.76 136.71
  Z" fill="#0b0b18"></path>
<path d="M 71.78 132.73
  Q 73.52 134.43 74.65 133.81
  A 3.54 1.96 46.7 0 1 77.89 134.84
  L 82.28 138.79
  Q 82.64 139.11 83.12 139.11
  L 85.43 139.11
  A 2.27 2.27 0.0 0 1 87.01 139.75
  L 93.18 145.71
  A 0.83 0.83 0.0 0 0 93.95 145.91
  Q 98.80 144.69 101.10 148.91
  Q 101.27 149.24 101.63 149.31
  Q 102.05 149.41 102.30 149.82
  A 0.44 0.42 40.3 0 1 102.34 150.19
  L 101.98 151.18
  Q 101.90 151.42 102.15 151.44
  Q 103.10 151.52 103.89 151.93
  Q 104.08 152.03 104.21 151.85
  Q 104.28 151.75 104.47 151.69
  Q 104.59 151.65 104.61 151.78
  Q 104.70 152.63 104.78 153.50
  Q 104.79 153.65 104.91 153.70
  Q 105.16 153.81 105.14 153.53
  Q 105.08 152.62 105.38 151.95
  C 105.37 156.06 104.98 160.96 106.27 164.59
  C 110.42 176.25 121.72 173.97 131.83 174.15
  Q 132.36 174.16 132.36 174.69
  L 132.37 200.28
  L 112.55 200.27
  C 109.14 200.22 105.42 200.50 102.17 199.79
  C 84.20 195.89 71.91 180.99 71.76 162.46
  L 71.76 136.71
  L 71.78 132.73
  Z" fill="#eeeefd"></path>
<path d="M 71.76 162.46
  C 71.91 180.99 84.20 195.89 102.17 199.79
  C 105.42 200.50 109.14 200.22 112.55 200.27
  Q 111.74 201.09 111.91 203.14
  Q 111.95 203.56 112.24 203.85
  L 113.46 205.09
  Q 113.88 205.51 113.88 206.10
  L 113.88 208.74
  Q 113.88 209.20 114.19 209.55
  Q 115.31 210.81 114.80 212.58
  A 1.01 1.00 -59.3 0 0 115.04 213.54
  L 116.81 215.42
  A 0.27 0.27 0.0 0 1 116.59 215.88
  Q 116.22 215.85 115.96 216.48
  Q 115.79 216.89 115.84 217.32
  L 116.12 220.17
  Q 116.16 220.60 116.51 220.88
  Q 117.13 221.37 116.86 222.50
  Q 116.54 223.89 117.62 224.97
  Q 117.99 225.32 117.88 225.82
  Q 117.62 227.10 118.57 227.96
  Q 118.98 228.33 118.78 228.84
  Q 118.26 230.15 117.91 232.24
  Q 117.69 233.62 118.51 234.22
  Q 118.88 234.50 118.88 234.96
  L 118.88 241.24
  Q 118.88 241.66 118.52 241.86
  Q 117.45 242.46 118.02 243.83
  Q 118.17 244.17 118.53 244.12
  Q 118.67 244.09 118.76 244.24
  Q 119.03 244.71 118.52 244.88
  Q 118.20 244.99 118.00 245.25
  Q 117.79 245.54 118.04 245.79
  L 118.56 246.30
  Q 118.91 246.66 118.94 247.15
  Q 118.97 247.79 118.30 247.99
  A 0.52 0.52 0.0 0 0 118.25 248.97
  Q 119.25 249.37 118.84 250.53
  Q 118.74 250.80 118.46 250.89
  Q 118.06 251.02 117.90 251.58
  A 0.87 0.75 52.1 0 0 117.88 251.98
  Q 118.03 252.82 117.30 253.10
  Q 116.88 253.27 117.03 253.70
  Q 117.35 254.60 116.40 255.03
  A 0.07 0.06 52.1 0 0 116.39 255.14
  Q 116.50 255.22 116.61 255.28
  Q 116.74 255.36 116.59 255.38
  Q 116.12 255.44 115.88 256.00
  L 78.94 256.00
  Q 78.96 254.63 79.60 253.77
  Q 79.89 253.37 79.53 253.05
  Q 79.04 252.62 78.87 251.98
  Q 78.76 251.57 78.99 251.22
  Q 79.33 250.72 79.38 250.13
  Q 79.42 249.69 79.70 249.35
  Q 80.34 248.58 80.18 247.58
  Q 80.12 247.20 80.45 247.01
  Q 80.64 246.90 80.78 246.73
  A 0.41 0.40 89.9 0 0 80.21 246.16
  Q 79.66 246.60 78.88 246.25
  A 0.45 0.43 10.8 0 1 78.62 245.89
  Q 78.48 244.28 79.59 243.09
  Q 79.68 242.99 79.86 242.25
  Q 79.93 241.98 79.75 241.76
  Q 79.54 241.50 79.75 241.25
  Q 79.88 241.08 79.88 240.87
  Q 79.90 240.04 79.87 240.00
  L 79.02 238.75
  Q 78.81 238.45 79.17 238.39
  Q 79.49 238.33 79.59 238.12
  Q 79.86 237.54 79.73 237.18
  Q 79.09 235.48 79.38 233.67
  Q 79.45 233.21 79.90 233.09
  Q 81.47 232.65 80.79 230.81
  A 0.32 0.31 -40.4 0 0 80.22 230.77
  Q 79.83 231.46 79.02 231.40
  Q 78.41 231.35 78.59 230.76
  Q 79.04 229.23 80.36 228.32
  A 1.02 1.02 0.0 0 0 80.48 226.74
  Q 79.83 226.12 80.18 225.16
  A 0.32 0.32 0.0 0 0 80.03 224.77
  Q 79.89 224.70 79.73 224.64
  Q 79.27 224.49 80.02 224.39
  Q 80.53 224.33 80.70 223.75
  Q 80.82 223.31 80.49 222.98
  Q 78.76 221.31 79.17 218.80
  A 0.75 0.75 0.0 0 0 78.84 218.05
  Q 78.45 217.80 77.98 217.89
  A 0.69 0.68 -16.3 0 1 77.22 217.48
  Q 77.02 217.01 77.12 216.51
  Q 77.19 216.15 77.55 216.10
  Q 77.94 216.04 78.02 215.63
  Q 78.17 214.86 77.39 214.90
  Q 75.78 214.97 76.14 213.45
  A 0.67 0.67 0.0 0 0 75.50 212.63
  L 75.00 212.63
  Q 74.63 212.63 74.57 212.26
  Q 74.33 210.91 73.07 210.59
  Q 72.67 210.49 72.49 210.11
  L 71.82 208.65
  Q 71.60 208.20 71.14 208.38
  L 70.63 208.58
  Q 70.27 208.73 70.44 208.37
  Q 70.61 208.01 71.13 208.01
  Q 71.43 208.02 71.36 207.73
  L 71.03 206.42
  Q 70.90 205.87 70.33 205.91
  Q 70.07 205.93 69.85 206.15
  Q 69.08 206.92 69.76 206.01
  L 70.11 205.54
  Q 70.18 205.44 70.09 205.36
  Q 69.98 205.24 69.85 205.12
  Q 69.60 204.87 69.28 205.02
  L 68.62 205.33
  Q 68.33 205.46 68.13 205.21
  Q 67.59 204.52 67.00 203.25
  Q 66.64 202.50 65.66 202.58
  Q 65.12 202.62 65.50 202.24
  L 65.87 201.87
  Q 66.46 201.28 65.68 200.99
  Q 65.09 200.77 64.89 200.13
  A 0.44 0.44 0.0 0 0 64.23 199.88
  L 64.01 200.03
  Q 63.59 200.30 63.21 199.99
  Q 61.77 198.85 62.15 196.96
  A 0.76 0.76 0.0 0 0 61.72 196.12
  Q 60.91 195.75 60.00 195.88
  Q 59.52 195.96 59.26 195.54
  Q 58.88 194.93 58.18 194.85
  Q 57.63 194.79 57.20 194.45
  L 55.73 193.26
  Q 55.34 192.95 54.92 193.21
  Q 54.13 193.71 53.46 192.90
  Q 52.01 191.14 50.96 190.25
  Q 50.59 189.94 50.21 190.22
  C 47.33 192.33 45.41 187.63 43.84 187.89
  Q 43.35 187.97 43.13 187.52
  Q 42.70 186.64 41.76 186.90
  A 0.53 0.52 -13.8 0 1 41.11 186.51
  Q 41.06 186.27 40.87 186.13
  A 1.14 0.71 53.7 0 0 40.25 185.88
  L 36.76 185.88
  A 1.21 1.19 25.1 0 0 36.00 186.15
  Q 35.38 186.64 34.92 186.19
  Q 34.57 185.84 34.16 186.11
  Q 33.97 186.23 33.91 186.43
  Q 33.71 187.14 33.19 186.62
  Q 33.02 186.45 32.91 186.24
  Q 32.71 185.84 32.27 185.81
  Q 31.33 185.72 30.91 186.47
  Q 30.54 187.11 30.13 186.50
  Q 29.34 185.33 28.03 186.17
  Q 27.88 186.26 27.88 186.44
  Q 27.88 186.61 27.87 186.78
  A 0.23 0.23 0.0 0 1 27.47 186.92
  L 25.70 185.01
  A 0.42 0.42 0.0 0 0 24.97 185.30
  Q 24.99 186.17 24.56 186.77
  A 0.62 0.61 -51.5 0 1 23.65 186.88
  L 21.76 185.18
  Q 21.44 184.88 21.14 185.20
  L 19.73 186.69
  Q 19.39 187.06 18.91 186.92
  Q 17.54 186.53 16.69 187.60
  Q 16.44 187.92 16.04 187.87
  Q 15.19 187.76 14.87 188.53
  Q 14.69 188.99 14.21 188.88
  Q 13.72 188.78 13.34 188.98
  Q 12.88 189.22 12.88 189.74
  L 12.88 191.02
  Q 12.88 192.28 12.10 191.29
  Q 11.71 190.81 11.20 190.46
  A 0.09 0.09 0.0 0 1 11.18 190.32
  Q 11.33 190.13 11.49 190.11
  A 0.61 0.49 -20.7 0 0 12.00 189.25
  L 11.74 189.00
  Q 11.49 188.75 11.25 189.01
  Q 10.96 189.30 10.80 189.69
  Q 10.68 189.96 10.41 189.86
  Q 10.18 189.77 10.08 189.53
  Q 9.92 189.13 9.52 188.96
  Q 8.43 188.51 7.81 189.56
  Q 7.59 189.94 7.15 189.87
  Q 6.66 189.79 6.28 190.02
  Q 5.84 190.28 6.06 190.74
  Q 6.13 190.89 6.23 190.98
  Q 6.64 191.31 6.36 191.76
  L 5.84 192.61
  Q 5.57 193.05 5.07 192.90
  Q 4.16 192.64 3.78 193.37
  Q 3.55 193.82 3.15 194.14
  Q 2.16 194.94 0.74 194.66
  Q 0.63 194.64 0.63 194.61
  Q 0.63 194.45 0.54 194.32
  A 0.13 0.13 0.0 0 0 0.39 194.26
  L 0.00 194.39
  L 0.00 163.14
  Q 0.07 162.60 0.32 162.30
  Q 0.62 161.93 1.03 162.16
  L 1.51 162.41
  A 0.08 0.08 0.0 0 0 1.62 162.33
  Q 1.53 161.40 2.39 160.92
  Q 2.71 160.74 2.81 160.40
  Q 3.01 159.70 3.93 159.85
  Q 4.35 159.92 4.56 159.85
  Q 5.06 159.65 5.22 159.10
  Q 5.39 158.50 5.77 159.00
  L 6.02 159.33
  Q 6.27 159.67 6.64 159.48
  C 8.11 158.74 9.25 158.05 10.90 157.72
  Q 13.09 157.28 15.27 156.81
  C 16.55 156.52 17.67 155.37 19.33 156.06
  Q 19.58 156.17 19.68 155.91
  Q 19.83 155.53 20.03 155.27
  Q 20.23 154.99 20.59 154.90
  Q 21.46 154.68 22.13 155.13
  Q 22.51 155.39 22.97 155.39
  L 24.94 155.39
  Q 25.37 155.39 25.73 155.14
  C 26.78 154.40 28.06 154.85 29.16 154.77
  Q 31.17 154.63 33.09 155.20
  Q 33.52 155.33 33.95 155.26
  L 38.53 154.57
  Q 39.10 154.49 39.61 154.77
  C 40.68 155.37 42.73 155.51 43.37 156.26
  Q 43.62 156.55 43.95 156.35
  Q 44.84 155.82 45.71 156.69
  Q 46.87 157.85 48.05 157.11
  Q 48.46 156.85 48.89 157.09
  Q 50.43 157.92 52.17 157.90
  Q 52.69 157.89 52.95 158.33
  Q 53.28 158.89 54.02 158.82
  Q 56.11 159.86 58.07 161.13
  Q 58.48 161.40 58.97 161.44
  Q 63.30 161.78 67.09 163.96
  A 0.95 0.01 9.6 0 0 68.00 164.12
  Q 68.59 164.22 69.16 164.05
  Q 69.68 163.90 69.88 164.41
  L 70.19 165.22
  Q 70.26 165.40 70.36 165.24
  L 71.15 164.00
  Q 71.33 163.71 71.19 163.39
  Q 71.11 163.22 71.16 163.01
  Q 71.27 162.53 71.76 162.46
  Z" fill="#0f0f21"></path>
<path d="M 204.18 180.59
  C 202.59 193.38 192.09 202.96 179.02 200.80
  C 154.80 196.78 154.49 163.44 178.70 157.92
  C 192.97 156.35 204.55 166.22 204.18 180.59
  Z" fill="#6c6fe9"></path>
<path d="M 78.94 256.00
  L 0.00 256.00
  L 0.00 194.39
  L 0.39 194.26
  A 0.13 0.13 0.0 0 1 0.54 194.32
  Q 0.63 194.45 0.63 194.61
  Q 0.63 194.64 0.74 194.66
  Q 2.16 194.94 3.15 194.14
  Q 3.55 193.82 3.78 193.37
  Q 4.16 192.64 5.07 192.90
  Q 5.57 193.05 5.84 192.61
  L 6.36 191.76
  Q 6.64 191.31 6.23 190.98
  Q 6.13 190.89 6.06 190.74
  Q 5.84 190.28 6.28 190.02
  Q 6.66 189.79 7.15 189.87
  Q 7.59 189.94 7.81 189.56
  Q 8.43 188.51 9.52 188.96
  Q 9.92 189.13 10.08 189.53
  Q 10.18 189.77 10.41 189.86
  Q 10.68 189.96 10.80 189.69
  Q 10.96 189.30 11.25 189.01
  Q 11.49 188.75 11.74 189.00
  L 12.00 189.25
  A 0.61 0.49 -20.7 0 1 11.49 190.11
  Q 11.33 190.13 11.18 190.32
  A 0.09 0.09 0.0 0 0 11.20 190.46
  Q 11.71 190.81 12.10 191.29
  Q 12.88 192.28 12.88 191.02
  L 12.88 189.74
  Q 12.88 189.22 13.34 188.98
  Q 13.72 188.78 14.21 188.88
  Q 14.69 188.99 14.87 188.53
  Q 15.19 187.76 16.04 187.87
  Q 16.44 187.92 16.69 187.60
  Q 17.54 186.53 18.91 186.92
  Q 19.39 187.06 19.73 186.69
  L 21.14 185.20
  Q 21.44 184.88 21.76 185.18
  L 23.65 186.88
  A 0.62 0.61 -51.5 0 0 24.56 186.77
  Q 24.99 186.17 24.97 185.30
  A 0.42 0.42 0.0 0 1 25.70 185.01
  L 27.47 186.92
  A 0.23 0.23 0.0 0 0 27.87 186.78
  Q 27.88 186.61 27.88 186.44
  Q 27.88 186.26 28.03 186.17
  Q 29.34 185.33 30.13 186.50
  Q 30.54 187.11 30.91 186.47
  Q 31.33 185.72 32.27 185.81
  Q 32.71 185.84 32.91 186.24
  Q 33.02 186.45 33.19 186.62
  Q 33.71 187.14 33.91 186.43
  Q 33.97 186.23 34.16 186.11
  Q 34.57 185.84 34.92 186.19
  Q 35.38 186.64 36.00 186.15
  A 1.21 1.19 25.1 0 1 36.76 185.88
  L 40.25 185.88
  A 1.14 0.71 53.7 0 1 40.87 186.13
  Q 41.06 186.27 41.11 186.51
  A 0.53 0.52 -13.8 0 0 41.76 186.90
  Q 42.70 186.64 43.13 187.52
  Q 43.35 187.97 43.84 187.89
  C 45.41 187.63 47.33 192.33 50.21 190.22
  Q 50.59 189.94 50.96 190.25
  Q 52.01 191.14 53.46 192.90
  Q 54.13 193.71 54.92 193.21
  Q 55.34 192.95 55.73 193.26
  L 57.20 194.45
  Q 57.63 194.79 58.18 194.85
  Q 58.88 194.93 59.26 195.54
  Q 59.52 195.96 60.00 195.88
  Q 60.91 195.75 61.72 196.12
  A 0.76 0.76 0.0 0 1 62.15 196.96
  Q 61.77 198.85 63.21 199.99
  Q 63.59 200.30 64.01 200.03
  L 64.23 199.88
  A 0.44 0.44 0.0 0 1 64.89 200.13
  Q 65.09 200.77 65.68 200.99
  Q 66.46 201.28 65.87 201.87
  L 65.50 202.24
  Q 65.12 202.62 65.66 202.58
  Q 66.64 202.50 67.00 203.25
  Q 67.59 204.52 68.13 205.21
  Q 68.33 205.46 68.62 205.33
  L 69.28 205.02
  Q 69.60 204.87 69.85 205.12
  Q 69.98 205.24 70.09 205.36
  Q 70.18 205.44 70.11 205.54
  L 69.76 206.01
  Q 69.08 206.92 69.85 206.15
  Q 70.07 205.93 70.33 205.91
  Q 70.90 205.87 71.03 206.42
  L 71.36 207.73
  Q 71.43 208.02 71.13 208.01
  Q 70.61 208.01 70.44 208.37
  Q 70.27 208.73 70.63 208.58
  L 71.14 208.38
  Q 71.60 208.20 71.82 208.65
  L 72.49 210.11
  Q 72.67 210.49 73.07 210.59
  Q 74.33 210.91 74.57 212.26
  Q 74.63 212.63 75.00 212.63
  L 75.50 212.63
  A 0.67 0.67 0.0 0 1 76.14 213.45
  Q 75.78 214.97 77.39 214.90
  Q 78.17 214.86 78.02 215.63
  Q 77.94 216.04 77.55 216.10
  Q 77.19 216.15 77.12 216.51
  Q 77.02 217.01 77.22 217.48
  A 0.69 0.68 -16.3 0 0 77.98 217.89
  Q 78.45 217.80 78.84 218.05
  A 0.75 0.75 0.0 0 1 79.17 218.80
  Q 78.76 221.31 80.49 222.98
  Q 80.82 223.31 80.70 223.75
  Q 80.53 224.33 80.02 224.39
  Q 79.27 224.49 79.73 224.64
  Q 79.89 224.70 80.03 224.77
  A 0.32 0.32 0.0 0 1 80.18 225.16
  Q 79.83 226.12 80.48 226.74
  A 1.02 1.02 0.0 0 1 80.36 228.32
  Q 79.04 229.23 78.59 230.76
  Q 78.41 231.35 79.02 231.40
  Q 79.83 231.46 80.22 230.77
  A 0.32 0.31 -40.4 0 1 80.79 230.81
  Q 81.47 232.65 79.90 233.09
  Q 79.45 233.21 79.38 233.67
  Q 79.09 235.48 79.73 237.18
  Q 79.86 237.54 79.59 238.12
  Q 79.49 238.33 79.17 238.39
  Q 78.81 238.45 79.02 238.75
  L 79.87 240.00
  Q 79.90 240.04 79.88 240.87
  Q 79.88 241.08 79.75 241.25
  Q 79.54 241.50 79.75 241.76
  Q 79.93 241.98 79.86 242.25
  Q 79.68 242.99 79.59 243.09
  Q 78.48 244.28 78.62 245.89
  A 0.45 0.43 10.8 0 0 78.88 246.25
  Q 79.66 246.60 80.21 246.16
  A 0.41 0.40 89.9 0 1 80.78 246.73
  Q 80.64 246.90 80.45 247.01
  Q 80.12 247.20 80.18 247.58
  Q 80.34 248.58 79.70 249.35
  Q 79.42 249.69 79.38 250.13
  Q 79.33 250.72 78.99 251.22
  Q 78.76 251.57 78.87 251.98
  Q 79.04 252.62 79.53 253.05
  Q 79.89 253.37 79.60 253.77
  Q 78.96 254.63 78.94 256.00
  Z" fill="#15162f"></path>
<path d="M 112.55 200.27
  L 132.37 200.28
  Q 132.35 200.61 132.00 200.92
  Q 131.64 201.25 132.04 201.52
  Q 132.45 201.79 132.26 202.22
  Q 132.05 202.70 132.48 203.00
  Q 132.99 203.34 132.86 204.03
  Q 132.78 204.47 133.15 204.72
  Q 133.29 204.81 133.45 204.81
  Q 133.69 204.80 133.76 205.03
  Q 134.51 207.57 133.54 210.01
  Q 133.09 211.15 133.78 211.99
  A 1.58 1.55 26.4 0 1 134.12 212.96
  L 134.12 217.61
  Q 134.12 218.15 134.46 218.56
  L 135.84 220.27
  Q 136.16 220.66 136.09 221.15
  Q 136.01 221.72 136.61 222.04
  Q 137.04 222.27 137.14 222.74
  Q 137.26 223.30 136.95 223.73
  Q 136.66 224.12 136.18 224.12
  L 135.75 224.12
  Q 135.44 224.12 135.31 224.39
  Q 134.72 225.62 135.63 226.01
  Q 136.12 226.22 136.12 226.76
  L 136.12 232.26
  Q 136.12 232.75 136.58 232.91
  Q 136.82 233.00 136.94 233.24
  Q 137.16 233.70 136.73 233.98
  L 136.50 234.13
  Q 135.55 234.75 136.50 234.90
  Q 136.79 234.95 136.93 235.22
  Q 137.17 235.70 136.72 235.99
  L 136.50 236.13
  Q 135.55 236.75 136.50 236.90
  Q 136.73 236.94 136.87 237.12
  Q 137.13 237.48 136.82 237.79
  Q 135.13 239.50 136.82 241.21
  Q 137.13 241.53 136.86 241.88
  Q 136.75 242.03 136.58 242.09
  Q 136.12 242.26 136.12 242.74
  L 136.12 248.29
  Q 136.12 248.71 136.50 248.89
  Q 136.63 248.94 136.75 249.00
  A 0.55 0.51 88.9 0 1 136.99 249.25
  Q 137.57 250.57 136.45 251.12
  Q 136.02 251.34 136.12 251.80
  Q 136.32 252.73 135.39 253.28
  Q 135.12 253.44 135.12 253.76
  L 135.12 254.48
  A 0.58 0.57 -67.6 0 1 134.14 254.89
  L 133.87 254.62
  Q 133.41 254.16 133.37 254.81
  Q 133.33 255.46 133.50 256.00
  L 115.88 256.00
  Q 116.12 255.44 116.59 255.38
  Q 116.74 255.36 116.61 255.28
  Q 116.50 255.22 116.39 255.14
  A 0.07 0.06 52.1 0 1 116.40 255.03
  Q 117.35 254.60 117.03 253.70
  Q 116.88 253.27 117.30 253.10
  Q 118.03 252.82 117.88 251.98
  A 0.87 0.75 52.1 0 1 117.90 251.58
  Q 118.06 251.02 118.46 250.89
  Q 118.74 250.80 118.84 250.53
  Q 119.25 249.37 118.25 248.97
  A 0.52 0.52 0.0 0 1 118.30 247.99
  Q 118.97 247.79 118.94 247.15
  Q 118.91 246.66 118.56 246.30
  L 118.04 245.79
  Q 117.79 245.54 118.00 245.25
  Q 118.20 244.99 118.52 244.88
  Q 119.03 244.71 118.76 244.24
  Q 118.67 244.09 118.53 244.12
  Q 118.17 244.17 118.02 243.83
  Q 117.45 242.46 118.52 241.86
  Q 118.88 241.66 118.88 241.24
  L 118.88 234.96
  Q 118.88 234.50 118.51 234.22
  Q 117.69 233.62 117.91 232.24
  Q 118.26 230.15 118.78 228.84
  Q 118.98 228.33 118.57 227.96
  Q 117.62 227.10 117.88 225.82
  Q 117.99 225.32 117.62 224.97
  Q 116.54 223.89 116.86 222.50
  Q 117.13 221.37 116.51 220.88
  Q 116.16 220.60 116.12 220.17
  L 115.84 217.32
  Q 115.79 216.89 115.96 216.48
  Q 116.22 215.85 116.59 215.88
  A 0.27 0.27 0.0 0 0 116.81 215.42
  L 115.04 213.54
  A 1.01 1.00 -59.3 0 1 114.80 212.58
  Q 115.31 210.81 114.19 209.55
  Q 113.88 209.20 113.88 208.74
  L 113.88 206.10
  Q 113.88 205.51 113.46 205.09
  L 112.24 203.85
  Q 111.95 203.56 111.91 203.14
  Q 111.74 201.09 112.55 200.27
  Z" fill="#0b0b18"></path>
</svg>
