<svg viewBox="0.00 0.00 256.00 256.00" version="1.1" xmlns="http://www.w3.org/2000/svg">
<g stroke-linecap="butt" fill="none" stroke-width="2.00">
<path d="M 191.42 111.46
  Q 191.03 111.94 190.51 111.64
  Q 149.84 88.16 109.17 64.67
  Q 97.04 57.66 91.63 56.35
  C 74.66 52.23 56.12 63.21 51.21 80.06
  Q 49.75 85.08 49.75 96.08
  Q 49.75 142.38 49.74 188.68
  Q 49.74 188.85 49.86 189.81
  Q 49.95 190.57 49.60 190.98" stroke="#2cc4ee"></path>
<path d="M 191.30 111.90
  Q 187.18 117.43 182.89 119.90
  Q 168.79 128.01 154.63 136.20" stroke="#1a7cff"></path>
<path d="M 154.06 136.49
  Q 154.27 135.77 153.62 135.40
  Q 121.55 116.94 89.59 98.44
  A 0.42 0.42 0.0 0 0 88.96 98.81
  L 88.96 174.06" stroke="#2cc4ee"></path>
<path d="M 88.96 174.06
  Q 70.95 184.58 65.91 187.41
  Q 58.46 191.58 49.60 190.98" stroke="#1a7cff"></path>
<path d="M 89.03 174.04
  Q 89.00 174.05 88.96 174.06" stroke="#12b0ee"></path>
</g>
<path d="M 191.42 111.46
  Q 191.03 111.94 190.51 111.64
  Q 149.84 88.16 109.17 64.67
  Q 97.04 57.66 91.63 56.35
  C 74.66 52.23 56.12 63.21 51.21 80.06
  Q 49.75 85.08 49.75 96.08
  Q 49.75 142.38 49.74 188.68
  Q 49.74 188.85 49.86 189.81
  Q 49.95 190.57 49.60 190.98
  C 37.29 189.71 26.77 181.31 24.00 169.18
  Q 23.26 165.94 23.26 157.25
  Q 23.25 95.63 23.26 34.00
  Q 23.26 24.32 24.52 20.13
  C 28.73 6.17 44.07 -2.29 57.90 0.92
  Q 62.70 2.03 71.37 7.04
  Q 123.92 37.40 176.48 67.74
  Q 185.97 73.21 189.16 76.81
  C 197.51 86.22 198.35 100.72 191.42 111.46
  Z" fill="#24f8dc"></path>
<path d="M 191.42 111.46
  Q 191.50 112.34 191.30 111.90
  Q 187.18 117.43 182.89 119.90
  Q 168.79 128.01 154.63 136.20
  Q 154.70 136.38 154.06 136.49
  Q 154.27 135.77 153.62 135.40
  Q 121.55 116.94 89.59 98.44
  A 0.42 0.42 0.0 0 0 88.96 98.81
  L 88.96 174.06
  Q 70.95 184.58 65.91 187.41
  Q 58.46 191.58 49.60 190.98
  Q 49.95 190.57 49.86 189.81
  Q 49.74 188.85 49.74 188.68
  Q 49.75 142.38 49.75 96.08
  Q 49.75 85.08 51.21 80.06
  C 56.12 63.21 74.66 52.23 91.63 56.35
  Q 97.04 57.66 109.17 64.67
  Q 149.84 88.16 190.51 111.64
  Q 191.03 111.94 191.42 111.46
  Z" fill="#3390ff"></path>
<path d="M 154.06 136.49
  L 89.03 174.04
  Q 89.00 174.05 88.96 174.06
  L 88.96 98.81
  A 0.42 0.42 0.0 0 1 89.59 98.44
  Q 121.55 116.94 153.62 135.40
  Q 154.27 135.77 154.06 136.49
  Z" fill="#24f8dc"></path>
<path d="M 191.30 111.90
  Q 203.60 118.99 215.44 125.83
  C 234.50 136.84 237.83 163.78 222.70 179.36
  Q 218.89 183.29 208.37 189.35
  Q 158.76 217.95 109.18 246.61
  Q 97.19 253.54 91.96 254.78
  C 81.83 257.17 71.41 254.69 63.11 248.37
  Q 49.34 237.89 49.53 218.75
  Q 49.68 204.89 49.60 190.98
  Q 58.46 191.58 65.91 187.41
  Q 70.95 184.58 88.96 174.06
  Q 89.00 174.05 89.03 174.04
  L 88.98 212.02
  A 0.44 0.44 0.0 0 0 89.64 212.40
  L 187.44 155.94
  A 0.47 0.46 45.2 0 0 187.44 155.13
  L 154.63 136.20
  Q 168.79 128.01 182.89 119.90
  Q 187.18 117.43 191.30 111.90
  Z" fill="#0067ff"></path>
</svg>
