<svg viewBox="0.00 0.00 192.00 192.00" version="1.1" xmlns="http://www.w3.org/2000/svg">
<g stroke-linecap="butt" fill="none" stroke-width="2.00">
<path d="M 73.85 153.79
  Q 72.63 155.89 73.08 158.05
  Q 73.19 158.61 72.95 159.14
  L 71.68 161.90
  Q 71.61 162.05 71.72 162.11
  L 71.72 162.11
  Q 71.80 162.15 71.84 162.10
  L 130.30 74.53
  Q 130.75 73.85 129.94 73.96
  L 122.45 74.96" stroke="#7ad1bb"></path>
<path d="M 122.45 74.96
  L 124.71 71.30
  A 0.46 0.46 0.0 0 0 124.26 70.60
  L 118.21 71.46" stroke="#89e1cd"></path>
<path d="M 118.21 71.46
  L 133.91 45.14
  A 0.38 0.38 0.0 0 0 133.53 44.57
  L 126.16 45.61" stroke="#7ad1bb"></path>
<path d="M 126.16 45.61
  L 128.54 41.72
  Q 128.85 41.20 128.26 41.29
  L 91.94 46.80
  Q 91.45 46.87 91.22 47.30
  L 59.11 106.04
  A 0.42 0.42 0.0 0 0 59.54 106.65
  C 64.12 105.94 68.45 105.20 73.21 105.03
  Q 80.69 104.75 87.94 104.07
  Q 88.70 103.99 88.48 104.72
  L 73.85 153.79" stroke="#89e1cd"></path>
<path d="M 126.16 45.61
  L 108.94 72.59
  A 0.40 0.40 0.0 0 0 109.35 73.19
  L 118.21 71.46" stroke="#f0efee"></path>
<path d="M 122.45 74.96
  L 74.91 154.27
  A 0.54 0.53 -36.2 0 1 73.93 154.12
  L 73.85 153.79" stroke="#f0efee"></path>
</g>
<path d="M 90.65 0.00
  L 101.47 0.00
  C 150.93 3.91 188.46 41.07 192.00 90.66
  L 192.00 101.47
  C 188.14 150.90 150.88 188.46 101.34 192.00
  L 90.50 192.00
  Q 40.72 187.65 14.58 146.93
  Q 1.81 127.04 0.00 101.35
  L 0.00 90.53
  C 3.65 40.99 41.19 3.85 90.65 0.00
  Z
  M 73.85 153.79
  Q 72.63 155.89 73.08 158.05
  Q 73.19 158.61 72.95 159.14
  L 71.68 161.90
  Q 71.61 162.05 71.72 162.11
  L 71.72 162.11
  Q 71.80 162.15 71.84 162.10
  L 130.30 74.53
  Q 130.75 73.85 129.94 73.96
  L 122.45 74.96
  L 124.71 71.30
  A 0.46 0.46 0.0 0 0 124.26 70.60
  L 118.21 71.46
  L 133.91 45.14
  A 0.38 0.38 0.0 0 0 133.53 44.57
  L 126.16 45.61
  L 128.54 41.72
  Q 128.85 41.20 128.26 41.29
  L 91.94 46.80
  Q 91.45 46.87 91.22 47.30
  L 59.11 106.04
  A 0.42 0.42 0.0 0 0 59.54 106.65
  C 64.12 105.94 68.45 105.20 73.21 105.03
  Q 80.69 104.75 87.94 104.07
  Q 88.70 103.99 88.48 104.72
  L 73.85 153.79
  Z" fill="#13c39a"></path>
<path d="M 126.16 45.61
  L 108.94 72.59
  A 0.40 0.40 0.0 0 0 109.35 73.19
  L 118.21 71.46
  L 124.26 70.60
  A 0.46 0.46 0.0 0 1 124.71 71.30
  L 122.45 74.96
  L 74.91 154.27
  A 0.54 0.53 -36.2 0 1 73.93 154.12
  L 73.85 153.79
  L 88.48 104.72
  Q 88.70 103.99 87.94 104.07
  Q 80.69 104.75 73.21 105.03
  C 68.45 105.20 64.12 105.94 59.54 106.65
  A 0.42 0.42 0.0 0 1 59.11 106.04
  L 91.22 47.30
  Q 91.45 46.87 91.94 46.80
  L 128.26 41.29
  Q 128.85 41.20 128.54 41.72
  L 126.16 45.61
  Z" fill="#ffffff"></path>
<path d="M 118.21 71.46
  L 109.35 73.19
  A 0.40 0.40 0.0 0 1 108.94 72.59
  L 126.16 45.61
  L 133.53 44.57
  A 0.38 0.38 0.0 0 1 133.91 45.14
  L 118.21 71.46
  Z" fill="#e0dfdc"></path>
<path d="M 73.85 153.79
  L 73.93 154.12
  A 0.54 0.53 -36.2 0 0 74.91 154.27
  L 122.45 74.96
  L 129.94 73.96
  Q 130.75 73.85 130.30 74.53
  L 71.84 162.10
  Q 71.80 162.15 71.72 162.11
  L 71.72 162.11
  Q 71.61 162.05 71.68 161.90
  L 72.95 159.14
  Q 73.19 158.61 73.08 158.05
  Q 72.63 155.89 73.85 153.79
  Z" fill="#e0dfdc"></path>
</svg>
