<svg viewBox="0.00 0.00 512.00 512.00" version="1.1" xmlns="http://www.w3.org/2000/svg">
<g stroke-linecap="butt" fill="none" stroke-width="2.00">
<path d="M 484.02 291.26
  C 466.08 291.05 451.42 278.11 449.14 260.25
  C 446.38 238.65 463.03 221.53 484.06 220.99
  A 0.71 0.70 -0.8 0 0 484.75 220.29
  L 484.75 155.25
  Q 484.75 154.49 484.00 154.49
  L 27.95 154.50
  A 0.36 0.36 0.0 0 0 27.59 154.86
  L 27.58 220.75
  Q 27.58 221.07 27.89 221.12
  C 45.26 224.21 57.15 237.15 58.20 254.50
  C 59.29 272.46 45.88 288.14 28.22 290.79
  A 0.75 0.74 -4.6 0 0 27.59 291.52
  L 27.57 357.91
  A 0.60 0.59 90.0 0 0 28.16 358.51
  L 483.99 358.51
  A 0.75 0.75 0.0 0 0 484.74 357.76
  L 484.75 292.00
  A 0.74 0.74 0.0 0 0 484.02 291.26" stroke="#a3a9e2"></path>
<path d="M 163.14 241.60
  C 169.18 235.22 182.14 237.09 183.80 246.92
  A 0.70 0.70 0.0 0 0 184.49 247.50
  L 194.96 247.51
  A 0.70 0.70 0.0 0 0 195.64 246.66
  Q 192.40 232.64 180.43 229.02
  C 164.60 224.23 150.17 233.02 147.37 249.36
  C 145.28 261.52 149.18 275.64 160.84 280.92
  C 175.52 287.56 191.30 281.22 195.68 264.80
  A 0.46 0.46 0.0 0 0 195.23 264.22
  L 184.30 264.20
  Q 183.82 264.20 183.72 264.66
  C 181.49 274.72 168.28 275.74 162.54 269.04
  C 156.64 262.14 157.15 247.93 163.14 241.60" stroke="#a3a9e2"></path>
<path d="M 102.95 238.51
  A 0.50 0.50 0.0 0 1 103.45 238.00
  L 118.95 237.85
  A 0.50 0.50 0.0 0 0 119.45 237.35
  L 119.56 229.03
  A 0.50 0.50 0.0 0 0 119.06 228.52
  L 75.61 228.52
  A 0.50 0.50 0.0 0 0 75.11 229.02
  L 75.11 237.48
  A 0.50 0.50 0.0 0 0 75.61 237.98
  L 91.16 237.98
  A 0.50 0.50 0.0 0 1 91.66 238.48
  L 91.65 282.12
  A 0.50 0.50 0.0 0 0 92.15 282.62
  L 102.47 282.56
  A 0.50 0.50 0.0 0 0 102.97 282.06
  L 102.95 238.51" stroke="#a3a9e2"></path>
<path d="M 138.50 229.09
  A 0.59 0.59 0.0 0 0 137.91 228.50
  L 127.63 228.50
  A 0.59 0.59 0.0 0 0 127.04 229.09
  L 127.04 282.03
  A 0.59 0.59 0.0 0 0 127.63 282.62
  L 137.91 282.62
  A 0.59 0.59 0.0 0 0 138.50 282.03
  L 138.50 229.09" stroke="#a3a9e2"></path>
<path d="M 215.94 252.47
  A 0.39 0.39 0.0 0 1 215.25 252.22
  L 215.28 228.89
  A 0.39 0.39 0.0 0 0 214.89 228.50
  L 204.31 228.50
  A 0.39 0.39 0.0 0 0 203.92 228.89
  L 203.89 282.25
  A 0.39 0.39 0.0 0 0 204.28 282.64
  L 214.88 282.56
  A 0.39 0.39 0.0 0 0 215.27 282.17
  L 215.26 267.43
  A 0.39 0.39 0.0 0 1 215.35 267.18
  L 220.56 260.72
  A 0.39 0.39 0.0 0 1 221.18 260.75
  L 235.62 282.46
  A 0.39 0.39 0.0 0 0 235.95 282.63
  L 248.71 282.61
  A 0.39 0.39 0.0 0 0 249.03 282.00
  L 229.27 253.01
  A 0.39 0.39 0.0 0 1 229.29 252.54
  L 248.70 229.14
  A 0.39 0.39 0.0 0 0 248.40 228.50
  L 235.71 228.50
  A 0.39 0.39 0.0 0 0 235.40 228.64
  L 215.94 252.47" stroke="#a3a9e2"></path>
<path d="M 266.87 273.25
  A 0.35 0.35 0.0 0 1 266.52 272.90
  L 266.48 260.70
  A 0.35 0.35 0.0 0 1 266.83 260.35
  L 289.16 260.09
  A 0.35 0.35 0.0 0 0 289.51 259.75
  L 289.75 251.36
  A 0.35 0.35 0.0 0 0 289.40 251.00
  L 266.85 250.79
  A 0.35 0.35 0.0 0 1 266.50 250.44
  L 266.51 238.31
  A 0.35 0.35 0.0 0 1 266.86 237.96
  L 291.11 237.91
  A 0.35 0.35 0.0 0 0 291.46 237.56
  L 291.54 228.94
  A 0.35 0.35 0.0 0 0 291.19 228.59
  L 255.38 228.44
  A 0.35 0.35 0.0 0 0 255.03 228.79
  L 255.02 282.29
  A 0.35 0.35 0.0 0 0 255.37 282.64
  L 291.26 282.58
  A 0.35 0.35 0.0 0 0 291.61 282.23
  L 291.54 273.63
  A 0.35 0.35 0.0 0 0 291.19 273.28
  L 266.87 273.25" stroke="#a3a9e2"></path>
<path d="M 298.58 237.47
  A 0.43 0.43 0.0 0 0 299.01 237.90
  L 314.77 238.14
  A 0.43 0.43 0.0 0 1 315.19 238.57
  L 315.15 282.18
  A 0.43 0.43 0.0 0 0 315.58 282.61
  L 326.04 282.61
  A 0.43 0.43 0.0 0 0 326.47 282.18
  L 326.44 238.36
  A 0.43 0.43 0.0 0 1 326.87 237.93
  L 342.51 237.94
  A 0.43 0.43 0.0 0 0 342.94 237.51
  L 343.04 228.93
  A 0.43 0.43 0.0 0 0 342.60 228.49
  L 298.91 228.77
  A 0.43 0.43 0.0 0 0 298.49 229.20
  L 298.58 237.47" stroke="#a3a9e2"></path>
<path d="M 380.94 270.61
  A 0.50 0.50 0.0 0 1 381.42 270.26
  L 400.25 270.27
  A 0.50 0.50 0.0 0 1 400.73 270.62
  L 404.43 282.29
  A 0.50 0.50 0.0 0 0 404.91 282.64
  L 416.14 282.55
  A 0.50 0.50 0.0 0 0 416.61 281.88
  L 398.28 228.84
  A 0.50 0.50 0.0 0 0 397.80 228.50
  L 383.83 228.50
  A 0.50 0.50 0.0 0 0 383.35 228.84
  L 365.05 281.92
  A 0.50 0.50 0.0 0 0 365.52 282.58
  L 376.73 282.59
  A 0.50 0.50 0.0 0 0 377.21 282.24
  L 380.94 270.61" stroke="#a3a9e2"></path>
<path d="M 434.71 229.10
  A 0.61 0.61 0.0 0 0 434.10 228.49
  L 423.86 228.49
  A 0.61 0.61 0.0 0 0 423.25 229.10
  L 423.25 282.00
  A 0.61 0.61 0.0 0 0 423.86 282.61
  L 434.10 282.61
  A 0.61 0.61 0.0 0 0 434.71 282.00
  L 434.71 229.10" stroke="#a3a9e2"></path>
<path d="M 384.14 260.86
  A 0.42 0.42 0.0 0 0 384.54 261.41
  L 397.11 261.39
  A 0.42 0.42 0.0 0 0 397.50 260.84
  L 391.19 241.40
  A 0.42 0.42 0.0 0 0 390.39 241.40
  L 384.14 260.86" stroke="#a3a9e2"></path>
</g>
<path d="M 0.00 0.00
  L 512.00 0.00
  L 512.00 512.00
  L 0.00 512.00
  L 0.00 0.00
  Z
  M 484.02 291.26
  C 466.08 291.05 451.42 278.11 449.14 260.25
  C 446.38 238.65 463.03 221.53 484.06 220.99
  A 0.71 0.70 -0.8 0 0 484.75 220.29
  L 484.75 155.25
  Q 484.75 154.49 484.00 154.49
  L 27.95 154.50
  A 0.36 0.36 0.0 0 0 27.59 154.86
  L 27.58 220.75
  Q 27.58 221.07 27.89 221.12
  C 45.26 224.21 57.15 237.15 58.20 254.50
  C 59.29 272.46 45.88 288.14 28.22 290.79
  A 0.75 0.74 -4.6 0 0 27.59 291.52
  L 27.57 357.91
  A 0.60 0.59 90.0 0 0 28.16 358.51
  L 483.99 358.51
  A 0.75 0.75 0.0 0 0 484.74 357.76
  L 484.75 292.00
  A 0.74 0.74 0.0 0 0 484.02 291.26
  Z" fill="#4752c4"></path>
<path d="M 449.14 260.25
  C 451.42 278.11 466.08 291.05 484.02 291.26
  A 0.74 0.74 0.0 0 1 484.75 292.00
  L 484.74 357.76
  A 0.75 0.75 0.0 0 1 483.99 358.51
  L 28.16 358.51
  A 0.60 0.59 90.0 0 1 27.57 357.91
  L 27.59 291.52
  A 0.75 0.74 -4.6 0 1 28.22 290.79
  C 45.88 288.14 59.29 272.46 58.20 254.50
  C 57.15 237.15 45.26 224.21 27.89 221.12
  Q 27.58 221.07 27.58 220.75
  L 27.59 154.86
  A 0.36 0.36 0.0 0 1 27.95 154.50
  L 484.00 154.49
  Q 484.75 154.49 484.75 155.25
  L 484.75 220.29
  A 0.71 0.70 -0.8 0 1 484.06 220.99
  C 463.03 221.53 446.38 238.65 449.14 260.25
  Z
  M 163.14 241.60
  C 169.18 235.22 182.14 237.09 183.80 246.92
  A 0.70 0.70 0.0 0 0 184.49 247.50
  L 194.96 247.51
  A 0.70 0.70 0.0 0 0 195.64 246.66
  Q 192.40 232.64 180.43 229.02
  C 164.60 224.23 150.17 233.02 147.37 249.36
  C 145.28 261.52 149.18 275.64 160.84 280.92
  C 175.52 287.56 191.30 281.22 195.68 264.80
  A 0.46 0.46 0.0 0 0 195.23 264.22
  L 184.30 264.20
  Q 183.82 264.20 183.72 264.66
  C 181.49 274.72 168.28 275.74 162.54 269.04
  C 156.64 262.14 157.15 247.93 163.14 241.60
  Z
  M 102.95 238.51
  A 0.50 0.50 0.0 0 1 103.45 238.00
  L 118.95 237.85
  A 0.50 0.50 0.0 0 0 119.45 237.35
  L 119.56 229.03
  A 0.50 0.50 0.0 0 0 119.06 228.52
  L 75.61 228.52
  A 0.50 0.50 0.0 0 0 75.11 229.02
  L 75.11 237.48
  A 0.50 0.50 0.0 0 0 75.61 237.98
  L 91.16 237.98
  A 0.50 0.50 0.0 0 1 91.66 238.48
  L 91.65 282.12
  A 0.50 0.50 0.0 0 0 92.15 282.62
  L 102.47 282.56
  A 0.50 0.50 0.0 0 0 102.97 282.06
  L 102.95 238.51
  Z
  M 138.50 229.09
  A 0.59 0.59 0.0 0 0 137.91 228.50
  L 127.63 228.50
  A 0.59 0.59 0.0 0 0 127.04 229.09
  L 127.04 282.03
  A 0.59 0.59 0.0 0 0 127.63 282.62
  L 137.91 282.62
  A 0.59 0.59 0.0 0 0 138.50 282.03
  L 138.50 229.09
  Z
  M 215.94 252.47
  A 0.39 0.39 0.0 0 1 215.25 252.22
  L 215.28 228.89
  A 0.39 0.39 0.0 0 0 214.89 228.50
  L 204.31 228.50
  A 0.39 0.39 0.0 0 0 203.92 228.89
  L 203.89 282.25
  A 0.39 0.39 0.0 0 0 204.28 282.64
  L 214.88 282.56
  A 0.39 0.39 0.0 0 0 215.27 282.17
  L 215.26 267.43
  A 0.39 0.39 0.0 0 1 215.35 267.18
  L 220.56 260.72
  A 0.39 0.39 0.0 0 1 221.18 260.75
  L 235.62 282.46
  A 0.39 0.39 0.0 0 0 235.95 282.63
  L 248.71 282.61
  A 0.39 0.39 0.0 0 0 249.03 282.00
  L 229.27 253.01
  A 0.39 0.39 0.0 0 1 229.29 252.54
  L 248.70 229.14
  A 0.39 0.39 0.0 0 0 248.40 228.50
  L 235.71 228.50
  A 0.39 0.39 0.0 0 0 235.40 228.64
  L 215.94 252.47
  Z
  M 266.87 273.25
  A 0.35 0.35 0.0 0 1 266.52 272.90
  L 266.48 260.70
  A 0.35 0.35 0.0 0 1 266.83 260.35
  L 289.16 260.09
  A 0.35 0.35 0.0 0 0 289.51 259.75
  L 289.75 251.36
  A 0.35 0.35 0.0 0 0 289.40 251.00
  L 266.85 250.79
  A 0.35 0.35 0.0 0 1 266.50 250.44
  L 266.51 238.31
  A 0.35 0.35 0.0 0 1 266.86 237.96
  L 291.11 237.91
  A 0.35 0.35 0.0 0 0 291.46 237.56
  L 291.54 228.94
  A 0.35 0.35 0.0 0 0 291.19 228.59
  L 255.38 228.44
  A 0.35 0.35 0.0 0 0 255.03 228.79
  L 255.02 282.29
  A 0.35 0.35 0.0 0 0 255.37 282.64
  L 291.26 282.58
  A 0.35 0.35 0.0 0 0 291.61 282.23
  L 291.54 273.63
  A 0.35 0.35 0.0 0 0 291.19 273.28
  L 266.87 273.25
  Z
  M 298.58 237.47
  A 0.43 0.43 0.0 0 0 299.01 237.90
  L 314.77 238.14
  A 0.43 0.43 0.0 0 1 315.19 238.57
  L 315.15 282.18
  A 0.43 0.43 0.0 0 0 315.58 282.61
  L 326.04 282.61
  A 0.43 0.43 0.0 0 0 326.47 282.18
  L 326.44 238.36
  A 0.43 0.43 0.0 0 1 326.87 237.93
  L 342.51 237.94
  A 0.43 0.43 0.0 0 0 342.94 237.51
  L 343.04 228.93
  A 0.43 0.43 0.0 0 0 342.60 228.49
  L 298.91 228.77
  A 0.43 0.43 0.0 0 0 298.49 229.20
  L 298.58 237.47
  Z
  M 380.94 270.61
  A 0.50 0.50 0.0 0 1 381.42 270.26
  L 400.25 270.27
  A 0.50 0.50 0.0 0 1 400.73 270.62
  L 404.43 282.29
  A 0.50 0.50 0.0 0 0 404.91 282.64
  L 416.14 282.55
  A 0.50 0.50 0.0 0 0 416.61 281.88
  L 398.28 228.84
  A 0.50 0.50 0.0 0 0 397.80 228.50
  L 383.83 228.50
  A 0.50 0.50 0.0 0 0 383.35 228.84
  L 365.05 281.92
  A 0.50 0.50 0.0 0 0 365.52 282.58
  L 376.73 282.59
  A 0.50 0.50 0.0 0 0 377.21 282.24
  L 380.94 270.61
  Z
  M 434.71 229.10
  A 0.61 0.61 0.0 0 0 434.10 228.49
  L 423.86 228.49
  A 0.61 0.61 0.0 0 0 423.25 229.10
  L 423.25 282.00
  A 0.61 0.61 0.0 0 0 423.86 282.61
  L 434.10 282.61
  A 0.61 0.61 0.0 0 0 434.71 282.00
  L 434.71 229.10
  Z" fill="#ffffff"></path>
<path d="M 183.80 246.92
  C 182.14 237.09 169.18 235.22 163.14 241.60
  C 157.15 247.93 156.64 262.14 162.54 269.04
  C 168.28 275.74 181.49 274.72 183.72 264.66
  Q 183.82 264.20 184.30 264.20
  L 195.23 264.22
  A 0.46 0.46 0.0 0 1 195.68 264.80
  C 191.30 281.22 175.52 287.56 160.84 280.92
  C 149.18 275.64 145.28 261.52 147.37 249.36
  C 150.17 233.02 164.60 224.23 180.43 229.02
  Q 192.40 232.64 195.64 246.66
  A 0.70 0.70 0.0 0 1 194.96 247.51
  L 184.49 247.50
  A 0.70 0.70 0.0 0 1 183.80 246.92
  Z" fill="#4752c4"></path>
<path d="M 102.95 238.51
  L 102.97 282.06
  A 0.50 0.50 0.0 0 1 102.47 282.56
  L 92.15 282.62
  A 0.50 0.50 0.0 0 1 91.65 282.12
  L 91.66 238.48
  A 0.50 0.50 0.0 0 0 91.16 237.98
  L 75.61 237.98
  A 0.50 0.50 0.0 0 1 75.11 237.48
  L 75.11 229.02
  A 0.50 0.50 0.0 0 1 75.61 228.52
  L 119.06 228.52
  A 0.50 0.50 0.0 0 1 119.56 229.03
  L 119.45 237.35
  A 0.50 0.50 0.0 0 1 118.95 237.85
  L 103.45 238.00
  A 0.50 0.50 0.0 0 0 102.95 238.51
  Z" fill="#4752c4"></path>
<rect rx="0.59" height="54.12" width="11.46" y="228.50" x="127.04" fill="#4752c4"></rect>
<path d="M 215.94 252.47
  L 235.40 228.64
  A 0.39 0.39 0.0 0 1 235.71 228.50
  L 248.40 228.50
  A 0.39 0.39 0.0 0 1 248.70 229.14
  L 229.29 252.54
  A 0.39 0.39 0.0 0 0 229.27 253.01
  L 249.03 282.00
  A 0.39 0.39 0.0 0 1 248.71 282.61
  L 235.95 282.63
  A 0.39 0.39 0.0 0 1 235.62 282.46
  L 221.18 260.75
  A 0.39 0.39 0.0 0 0 220.56 260.72
  L 215.35 267.18
  A 0.39 0.39 0.0 0 0 215.26 267.43
  L 215.27 282.17
  A 0.39 0.39 0.0 0 1 214.88 282.56
  L 204.28 282.64
  A 0.39 0.39 0.0 0 1 203.89 282.25
  L 203.92 228.89
  A 0.39 0.39 0.0 0 1 204.31 228.50
  L 214.89 228.50
  A 0.39 0.39 0.0 0 1 215.28 228.89
  L 215.25 252.22
  A 0.39 0.39 0.0 0 0 215.94 252.47
  Z" fill="#4752c4"></path>
<path d="M 266.87 273.25
  L 291.19 273.28
  A 0.35 0.35 0.0 0 1 291.54 273.63
  L 291.61 282.23
  A 0.35 0.35 0.0 0 1 291.26 282.58
  L 255.37 282.64
  A 0.35 0.35 0.0 0 1 255.02 282.29
  L 255.03 228.79
  A 0.35 0.35 0.0 0 1 255.38 228.44
  L 291.19 228.59
  A 0.35 0.35 0.0 0 1 291.54 228.94
  L 291.46 237.56
  A 0.35 0.35 0.0 0 1 291.11 237.91
  L 266.86 237.96
  A 0.35 0.35 0.0 0 0 266.51 238.31
  L 266.50 250.44
  A 0.35 0.35 0.0 0 0 266.85 250.79
  L 289.40 251.00
  A 0.35 0.35 0.0 0 1 289.75 251.36
  L 289.51 259.75
  A 0.35 0.35 0.0 0 1 289.16 260.09
  L 266.83 260.35
  A 0.35 0.35 0.0 0 0 266.48 260.70
  L 266.52 272.90
  A 0.35 0.35 0.0 0 0 266.87 273.25
  Z" fill="#4752c4"></path>
<path d="M 298.58 237.47
  L 298.49 229.20
  A 0.43 0.43 0.0 0 1 298.91 228.77
  L 342.60 228.49
  A 0.43 0.43 0.0 0 1 343.04 228.93
  L 342.94 237.51
  A 0.43 0.43 0.0 0 1 342.51 237.94
  L 326.87 237.93
  A 0.43 0.43 0.0 0 0 326.44 238.36
  L 326.47 282.18
  A 0.43 0.43 0.0 0 1 326.04 282.61
  L 315.58 282.61
  A 0.43 0.43 0.0 0 1 315.15 282.18
  L 315.19 238.57
  A 0.43 0.43 0.0 0 0 314.77 238.14
  L 299.01 237.90
  A 0.43 0.43 0.0 0 1 298.58 237.47
  Z" fill="#4752c4"></path>
<path d="M 380.94 270.61
  L 377.21 282.24
  A 0.50 0.50 0.0 0 1 376.73 282.59
  L 365.52 282.58
  A 0.50 0.50 0.0 0 1 365.05 281.92
  L 383.35 228.84
  A 0.50 0.50 0.0 0 1 383.83 228.50
  L 397.80 228.50
  A 0.50 0.50 0.0 0 1 398.28 228.84
  L 416.61 281.88
  A 0.50 0.50 0.0 0 1 416.14 282.55
  L 404.91 282.64
  A 0.50 0.50 0.0 0 1 404.43 282.29
  L 400.73 270.62
  A 0.50 0.50 0.0 0 0 400.25 270.27
  L 381.42 270.26
  A 0.50 0.50 0.0 0 0 380.94 270.61
  Z
  M 384.14 260.86
  A 0.42 0.42 0.0 0 0 384.54 261.41
  L 397.11 261.39
  A 0.42 0.42 0.0 0 0 397.50 260.84
  L 391.19 241.40
  A 0.42 0.42 0.0 0 0 390.39 241.40
  L 384.14 260.86
  Z" fill="#4752c4"></path>
<rect rx="0.61" height="54.12" width="11.46" y="228.49" x="423.25" fill="#4752c4"></rect>
<path d="M 384.14 260.86
  L 390.39 241.40
  A 0.42 0.42 0.0 0 1 391.19 241.40
  L 397.50 260.84
  A 0.42 0.42 0.0 0 1 397.11 261.39
  L 384.54 261.41
  A 0.42 0.42 0.0 0 1 384.14 260.86
  Z" fill="#ffffff"></path>
</svg>
