<svg viewBox="0.00 0.00 100.00 100.00" version="1.1" xmlns="http://www.w3.org/2000/svg">
<g stroke-linecap="butt" fill="none" stroke-width="2.00">
<path d="M 77.06 18.13
  Q 75.60 22.41 71.80 25.11" stroke="#fe5969"></path>
<path d="M 71.80 25.11
  Q 71.89 25.23 71.97 25.35" stroke="#d395a5"></path>
<path d="M 71.97 25.35
  L 66.02 19.74" stroke="#e0a0ae"></path>
<path d="M 76.37 29.73
  L 65.93 40.06" stroke="#9ba6b8"></path>
<path d="M 65.93 40.06
  L 61.54 35.65" stroke="#d3ac64"></path>
<path d="M 83.36 24.46
  C 79.92 25.75 78.64 27.47 76.30 29.62" stroke="#ea3849"></path>
<path d="M 76.30 29.62
  L 71.80 25.11" stroke="#d2788b"></path>
<path d="M 71.97 25.35
  Q 71.04 26.19 69.76 26.61" stroke="#b4bfd0"></path>
<path d="M 69.76 26.61
  C 67.26 21.56 63.57 26.70 61.70 28.85
  C 59.99 30.81 60.93 32.20 62.71 33.50" stroke="#e0e5ec"></path>
<path d="M 62.71 33.50
  Q 62.68 34.80 61.54 35.65" stroke="#b4bfd0"></path>
<path d="M 61.54 35.65
  Q 60.78 35.59 61.18 35.45" stroke="#e0b86c"></path>
<path d="M 61.18 35.45
  L 55.94 29.93" stroke="#e0c592"></path>
<path d="M 69.76 26.61
  Q 67.14 31.23 62.71 33.50" stroke="#d3d9e3"></path>
<path d="M 71.64 45.40
  L 65.92 40.03" stroke="#b49255"></path>
<path d="M 65.92 40.03
  Q 65.92 40.04 65.93 40.06" stroke="#c79f55"></path>
<path d="M 81.78 35.37
  L 76.37 29.73" stroke="#b36676"></path>
<path d="M 76.37 29.73
  Q 76.33 29.68 76.30 29.62" stroke="#bf7385"></path>
<path d="M 65.92 40.03
  Q 49.71 56.32 33.65 72.40
  Q 31.40 74.64 29.19 75.02" stroke="#ec9900"></path>
<path d="M 29.19 75.02
  Q 28.45 74.53 28.93 75.25" stroke="#ecaa12"></path>
<path d="M 28.93 75.25
  Q 28.78 74.55 28.74 74.51
  Q 24.67 70.69 20.05 66.64" stroke="#ffba15"></path>
<path d="M 61.18 35.45
  Q 60.84 35.61 60.85 36.00
  A 0.69 0.64 -25.1 0 1 60.65 36.49
  Q 53.66 43.48 46.67 50.47
  C 42.26 54.89 38.49 57.64 33.04 53.14" stroke="#ffb326"></path>
<path d="M 65.77 51.89
  L 65.13 52.20
  Q 64.76 52.39 64.47 52.68
  L 50.13 67.13" stroke="#bb6061"></path>
<path d="M 35.78 81.26
  L 29.19 75.02" stroke="#d99e12"></path>
<path d="M 28.93 75.25
  Q 23.65 75.40 20.39 78.34" stroke="#ecbf26"></path>
<path d="M 20.39 78.34
  Q 19.18 76.93 17.69 76.04" stroke="#ce8176"></path>
<path d="M 25.51 83.77
  L 20.39 78.34" stroke="#bb7273"></path>
<path d="M 34.73 20.81
  L 27.79 27.81
  A 2.53 2.53 0.0 0 0 27.60 31.18
  L 28.03 31.73
  A 2.83 2.82 -41.5 0 0 32.22 31.98
  L 39.12 25.19" stroke="#ce6bb7"></path>
<path d="M 42.65 28.62
  Q 40.49 29.95 37.66 33.57
  A 2.77 2.76 -54.1 0 0 38.29 37.56
  L 38.84 37.92
  A 2.58 2.57 -50.2 0 0 42.08 37.62
  L 46.91 32.90" stroke="#ce6bb7"></path>
<path d="M 49.96 36.07
  L 34.50 51.51" stroke="#ce7a87"></path>
<path d="M 68.30 54.26
  Q 64.84 57.39 63.74 58.73
  C 61.17 61.88 64.85 65.80 68.38 62.89
  Q 70.82 60.88 72.45 58.37" stroke="#ce6bb7"></path>
<path d="M 76.39 62.32
  L 69.24 69.50
  A 2.39 2.39 0.0 0 0 69.17 72.80
  L 69.68 73.34
  Q 71.73 75.57 73.83 73.38
  L 80.50 66.43" stroke="#ce6bb7"></path>
</g>
<path d="M 77.06 18.13
  Q 75.60 22.41 71.80 25.11
  Q 71.89 25.23 71.97 25.35
  L 66.02 19.74
  Q 72.49 12.29 77.06 18.13
  Z" fill="#fe7683"></path>
<path d="M 34.73 20.81
  L 27.79 27.81
  A 2.53 2.53 0.0 0 0 27.60 31.18
  L 28.03 31.73
  A 2.83 2.82 -41.5 0 0 32.22 31.98
  L 39.12 25.19
  L 42.65 28.62
  Q 40.49 29.95 37.66 33.57
  A 2.77 2.76 -54.1 0 0 38.29 37.56
  L 38.84 37.92
  A 2.58 2.57 -50.2 0 0 42.08 37.62
  L 46.91 32.90
  L 49.96 36.07
  L 34.50 51.51
  L 17.05 34.07
  Q 14.30 31.32 17.06 28.58
  Q 21.97 23.70 27.32 18.33
  C 30.26 15.38 32.81 18.92 34.73 20.81
  Z" fill="#9c34c2"></path>
<path d="M 77.06 18.13
  L 83.36 24.46
  C 79.92 25.75 78.64 27.47 76.30 29.62
  L 71.80 25.11
  Q 75.60 22.41 77.06 18.13
  Z" fill="#fd3c4f"></path>
<path d="M 66.02 19.74
  L 71.97 25.35
  Q 71.04 26.19 69.76 26.61
  C 67.26 21.56 63.57 26.70 61.70 28.85
  C 59.99 30.81 60.93 32.20 62.71 33.50
  Q 62.68 34.80 61.54 35.65
  Q 60.78 35.59 61.18 35.45
  L 55.94 29.93
  Q 57.10 20.90 66.02 19.74
  Z" fill="#c1cad8"></path>
<path d="M 34.73 20.81
  L 39.12 25.19
  L 32.22 31.98
  A 2.83 2.82 -41.5 0 1 28.03 31.73
  L 27.60 31.18
  A 2.53 2.53 0.0 0 1 27.79 27.81
  L 34.73 20.81
  Z" fill="#ffa1ac"></path>
<path d="M 69.76 26.61
  Q 67.14 31.23 62.71 33.50
  C 60.93 32.20 59.99 30.81 61.70 28.85
  C 63.57 26.70 67.26 21.56 69.76 26.61
  Z" fill="#ffffff"></path>
<path d="M 83.36 24.46
  C 88.34 27.89 85.59 32.40 81.78 35.37
  L 76.37 29.73
  Q 76.33 29.68 76.30 29.62
  C 78.64 27.47 79.92 25.75 83.36 24.46
  Z" fill="#d73343"></path>
<path d="M 71.97 25.35
  Q 71.89 25.23 71.80 25.11
  L 76.30 29.62
  Q 76.33 29.68 76.37 29.73
  L 65.93 40.06
  L 61.54 35.65
  Q 62.68 34.80 62.71 33.50
  Q 67.14 31.23 69.76 26.61
  Q 71.04 26.19 71.97 25.35
  Z" fill="#a7b3c7"></path>
<path d="M 42.65 28.62
  L 46.91 32.90
  L 42.08 37.62
  A 2.58 2.57 -50.2 0 1 38.84 37.92
  L 38.29 37.56
  A 2.77 2.76 -54.1 0 1 37.66 33.57
  Q 40.49 29.95 42.65 28.62
  Z" fill="#ffa1ac"></path>
<path d="M 76.37 29.73
  L 81.78 35.37
  C 82.16 39.66 76.83 45.80 71.64 45.40
  L 65.92 40.03
  Q 65.92 40.04 65.93 40.06
  L 76.37 29.73
  Z" fill="#8e98a9"></path>
<path d="M 55.94 29.93
  L 61.18 35.45
  Q 60.84 35.61 60.85 36.00
  A 0.69 0.64 -25.1 0 1 60.65 36.49
  Q 53.66 43.48 46.67 50.47
  C 42.26 54.89 38.49 57.64 33.04 53.14
  L 34.50 51.51
  L 49.96 36.07
  L 55.94 29.93
  Z" fill="#ffc04c"></path>
<path d="M 61.18 35.45
  Q 60.78 35.59 61.54 35.65
  L 65.93 40.06
  Q 65.92 40.04 65.92 40.03
  Q 49.71 56.32 33.65 72.40
  Q 31.40 74.64 29.19 75.02
  Q 28.45 74.53 28.93 75.25
  Q 28.78 74.55 28.74 74.51
  Q 24.67 70.69 20.05 66.64
  L 33.04 53.14
  C 38.49 57.64 42.26 54.89 46.67 50.47
  Q 53.66 43.48 60.65 36.49
  A 0.69 0.64 -25.1 0 0 60.85 36.00
  Q 60.84 35.61 61.18 35.45
  Z" fill="#ffa500"></path>
<path d="M 65.92 40.03
  L 71.64 45.40
  L 65.77 51.89
  L 65.13 52.20
  Q 64.76 52.39 64.47 52.68
  L 50.13 67.13
  Q 50.09 67.13 50.05 67.13
  Q 49.96 67.13 49.91 67.19
  L 35.78 81.26
  L 29.19 75.02
  Q 31.40 74.64 33.65 72.40
  Q 49.71 56.32 65.92 40.03
  Z" fill="#d98c00"></path>
<path d="M 65.77 51.89
  L 68.30 54.26
  Q 64.84 57.39 63.74 58.73
  C 61.17 61.88 64.85 65.80 68.38 62.89
  Q 70.82 60.88 72.45 58.37
  L 76.39 62.32
  L 69.24 69.50
  A 2.39 2.39 0.0 0 0 69.17 72.80
  L 69.68 73.34
  Q 71.73 75.57 73.83 73.38
  L 80.50 66.43
  C 82.14 68.38 86.09 70.88 83.30 73.82
  Q 77.84 79.58 72.49 84.95
  A 3.20 3.19 -45.1 0 1 67.97 84.96
  L 50.13 67.13
  L 64.47 52.68
  Q 64.76 52.39 65.13 52.20
  L 65.77 51.89
  Z" fill="#9c34c2"></path>
<path d="M 68.30 54.26
  L 72.45 58.37
  Q 70.82 60.88 68.38 62.89
  C 64.85 65.80 61.17 61.88 63.74 58.73
  Q 64.84 57.39 68.30 54.26
  Z" fill="#ffa1ac"></path>
<path d="M 76.39 62.32
  L 80.50 66.43
  L 73.83 73.38
  Q 71.73 75.57 69.68 73.34
  L 69.17 72.80
  A 2.39 2.39 0.0 0 1 69.24 69.50
  L 76.39 62.32
  Z" fill="#ffa1ac"></path>
<path d="M 20.05 66.64
  Q 24.67 70.69 28.74 74.51
  Q 28.78 74.55 28.93 75.25
  Q 23.65 75.40 20.39 78.34
  Q 19.18 76.93 17.69 76.04
  L 20.05 66.64
  Z" fill="#ffce29"></path>
<path d="M 28.93 75.25
  Q 28.45 74.53 29.19 75.02
  L 35.78 81.26
  L 25.51 83.77
  L 20.39 78.34
  Q 23.65 75.40 28.93 75.25
  Z" fill="#d9af23"></path>
<path d="M 17.69 76.04
  Q 19.18 76.93 20.39 78.34
  L 25.51 83.77
  C 20.75 85.88 15.75 85.65 16.80 79.66
  Q 17.13 77.79 17.69 76.04
  Z" fill="#9c34c2"></path>
<path d="M 55.24 100.00
  L 44.64 100.00
  C 37.25 99.55 29.56 99.28 22.60 97.10
  Q 18.58 95.84 22.25 93.76
  Q 24.53 92.48 28.99 91.92
  C 43.74 90.07 60.39 89.72 75.00 92.78
  Q 77.36 93.27 79.43 94.74
  A 0.76 0.76 0.0 0 1 79.40 96.01
  Q 76.79 97.66 73.49 98.21
  Q 64.46 99.71 55.24 100.00
  Z" fill-opacity="0.298" fill="#000000"></path>
</svg>
