<svg viewBox="0.00 0.00 192.00 192.00" version="1.1" xmlns="http://www.w3.org/2000/svg">
<g stroke-linecap="butt" fill="none" stroke-width="2.00">
<path d="M 151.95 14.98
  Q 99.54 15.26 47.10 15.08
  Q 43.85 15.07 42.47 15.63
  C 38.40 17.29 38.05 23.88 41.64 26.01
  Q 43.47 27.10 47.59 27.09
  Q 99.60 27.02 151.85 27.03" stroke="#57cee6"></path>
<path d="M 157.75 32.22
  Q 157.26 32.91 156.50 32.91
  Q 100.17 32.91 45.01 32.95" stroke="#a1dfd3"></path>
<path d="M 45.01 32.95
  C 37.98 32.57 32.99 27.46 33.07 20.53" stroke="#80d0be"></path>
<path d="M 45.01 32.95
  Q 45.05 59.96 45.16 86.75
  Q 45.21 99.94 51.04 113.24" stroke="#74c69d"></path>
<path d="M 51.04 113.24
  L 51.07 122.15
  A 1.13 1.12 -83.8 0 0 51.94 123.24
  L 53.21 123.53
  Q 53.70 123.64 53.76 124.14
  C 54.02 126.24 53.42 131.56 56.06 132.18
  Q 59.83 133.08 59.97 129.05" stroke="#9c785f"></path>
<path d="M 59.97 129.05
  Q 60.12 128.97 60.27 128.90" stroke="#a1856c"></path>
<path d="M 60.27 128.90
  L 64.19 134.11" stroke="#74c69d"></path>
<path d="M 64.19 134.11
  Q 63.48 134.43 63.57 134.54" stroke="#4dc1b6"></path>
<path d="M 63.57 134.54
  L 50.22 138.42
  A 2.95 2.95 0.0 0 0 48.22 142.07
  L 48.40 142.71
  A 2.37 2.37 0.0 0 0 51.32 144.32
  Q 60.11 141.85 67.85 139.37
  Q 68.41 139.19 68.34 138.79" stroke="#29b6b0"></path>
<path d="M 68.34 138.79
  Q 68.69 139.39 69.31 139.34" stroke="#4dc1b6"></path>
<path d="M 69.31 139.34
  C 71.27 141.26 74.67 144.64 77.45 145.13" stroke="#74c69d"></path>
<path d="M 77.45 145.13
  L 77.23 145.90" stroke="#4dc1b6"></path>
<path d="M 77.23 145.90
  L 62.07 150.54
  A 2.84 2.84 0.0 0 0 60.28 154.35
  L 60.55 155.01
  A 2.42 2.41 69.3 0 0 63.55 156.37
  L 79.96 150.87
  A 3.15 3.15 0.0 0 1 82.22 150.98
  Q 91.17 154.95 100.60 158.91
  Q 102.72 159.80 105.04 158.52" stroke="#29b6b0"></path>
<path d="M 105.04 158.52
  L 107.27 158.09" stroke="#4dc1b6"></path>
<path d="M 107.27 158.09
  L 119.71 159.40" stroke="#74c69d"></path>
<path d="M 119.71 159.40
  Q 121.39 164.85 126.62 166.86
  Q 127.07 167.03 127.06 167.51
  L 127.03 170.81
  A 2.69 2.68 89.3 0 0 129.81 173.53
  L 130.78 173.50
  A 2.33 2.33 0.0 0 0 133.02 171.22
  L 133.10 167.69
  Q 133.11 167.06 133.70 166.81
  Q 138.45 164.82 140.30 159.97" stroke="#a8bf65"></path>
<path d="M 140.30 159.97
  Q 140.48 159.65 140.51 159.26" stroke="#a7d165"></path>
<path d="M 140.51 159.26
  L 159.25 159.03" stroke="#74c69d"></path>
<path d="M 140.51 159.26
  Q 141.06 148.39 131.47 146.56
  Q 127.88 145.88 127.14 145.41
  C 123.28 142.97 126.26 135.94 132.03 137.72
  Q 134.49 138.48 134.85 142.82
  A 2.20 2.19 85.9 0 0 137.18 144.84
  L 137.94 144.79
  A 2.83 2.83 0.0 0 0 140.58 141.75
  Q 140.07 134.94 133.95 132.19
  Q 133.08 131.79 133.05 130.84
  L 132.93 127.60
  A 2.16 2.16 0.0 0 0 130.90 125.52
  L 129.75 125.45
  A 2.39 2.37 2.6 0 0 127.22 127.75
  L 127.11 131.34
  A 0.84 0.82 -10.9 0 1 126.59 132.09
  C 116.50 136.11 117.59 150.81 128.46 152.18
  C 132.47 152.68 135.72 153.80 134.26 158.80" stroke="#c9e07a"></path>
<path d="M 134.26 158.80
  L 133.55 159.48" stroke="#c9ce7a"></path>
<path d="M 133.55 159.48
  L 126.29 159.37" stroke="#74c69d"></path>
<path d="M 126.29 159.37
  Q 126.11 159.03 125.95 159.04" stroke="#c9ce7a"></path>
<path d="M 125.95 159.04
  C 125.47 156.81 125.23 153.22 121.74 154.08
  C 119.57 154.61 119.38 156.95 119.90 158.78" stroke="#c9e07a"></path>
<path d="M 119.90 158.78
  L 119.71 159.40" stroke="#c9ce7a"></path>
<path d="M 107.27 158.09
  L 112.21 156.06
  Q 114.68 155.04 114.01 152.45
  L 113.85 151.83
  A 2.25 2.25 0.0 0 0 110.98 150.26
  L 103.48 152.68
  A 3.33 3.30 47.2 0 1 101.17 152.58
  Q 92.65 148.96 83.75 145.07
  C 81.42 144.05 79.71 144.34 77.45 145.13" stroke="#6fd0cb"></path>
<path d="M 69.31 139.34
  Q 69.39 139.21 69.46 139.11
  Q 69.61 138.88 69.88 138.80
  L 79.84 135.79
  A 3.26 3.23 48.1 0 1 82.06 135.92
  L 100.83 143.99
  A 3.64 3.61 -42.3 0 0 103.42 144.10
  L 112.89 140.90
  A 2.24 2.23 69.5 0 0 114.24 137.93
  L 113.97 137.27
  Q 112.84 134.54 110.04 135.48
  L 102.91 137.88
  Q 102.37 138.06 101.85 137.84
  L 82.85 129.67
  Q 81.42 129.05 79.92 129.49
  L 64.19 134.11" stroke="#6fd0cb"></path>
<path d="M 60.27 128.90
  L 60.22 123.98
  Q 60.21 123.39 60.80 123.34
  L 62.10 123.23
  A 1.10 1.09 -2.0 0 0 63.11 122.15
  L 63.17 106.28
  Q 63.18 105.63 62.57 105.38
  Q 61.70 105.03 60.74 105.14
  A 0.54 0.54 0.0 0 1 60.14 104.54
  Q 60.59 100.30 59.44 96.95" stroke="#c29481"></path>
<path d="M 59.44 96.95
  C 52.99 93.86 54.05 101.13 54.00 104.44
  A 0.69 0.69 0.0 0 1 53.31 105.12
  L 51.81 105.14
  A 0.61 0.61 0.0 0 0 51.21 105.74
  L 51.04 113.24" stroke="#bd8774"></path>
<path d="M 59.44 96.95
  L 59.95 104.63
  Q 59.99 105.13 59.49 105.13
  L 58.19 105.11
  A 1.14 1.14 0.0 0 0 57.04 106.26
  L 57.18 122.19
  A 0.97 0.96 -74.7 0 0 57.65 123.02
  Q 58.52 123.53 59.51 123.65
  Q 60.08 123.72 59.98 124.28
  Q 59.51 126.83 59.97 129.05" stroke="#ea4643"></path>
<path d="M 68.34 138.79
  Q 66.43 135.77 63.57 134.54" stroke="#24bfde"></path>
<path d="M 126.29 159.37
  C 127.71 161.97 132.01 162.17 133.55 159.48" stroke="#a8bf65"></path>
<path d="M 140.30 159.97
  L 140.30 159.62
  Q 140.31 159.12 139.82 159.18
  Q 136.73 159.55 134.74 159.34
  Q 134.31 159.29 134.26 158.80" stroke="#fdd942"></path>
<path d="M 105.04 158.52
  Q 105.36 157.78 104.49 157.59
  C 94.51 155.40 85.89 151.41 77.23 145.90" stroke="#24bfde"></path>
<path d="M 125.95 159.04
  Q 125.98 159.19 125.91 159.31
  Q 125.88 159.37 125.82 159.36
  Q 123.17 159.04 120.52 159.38
  Q 120.21 159.42 120.02 159.16
  Q 119.88 158.97 119.90 158.78" stroke="#fdd942"></path>
<path d="M 117.27 57.10
  L 111.28 57.11" stroke="#c9e07a"></path>
<path d="M 111.28 57.11
  L 105.68 57.18
  Q 105.11 57.19 105.12 57.76
  L 105.22 66.05" stroke="#c9ce7a"></path>
<path d="M 105.22 66.05
  L 99.10 66.07" stroke="#c9e07a"></path>
<path d="M 99.10 66.07
  L 93.25 66.28" stroke="#c9ce7a"></path>
<path d="M 93.25 66.28
  L 93.23 60.66
  A 0.53 0.53 0.0 0 0 92.70 60.14
  L 87.11 60.10" stroke="#c9e07a"></path>
<path d="M 87.11 60.10
  L 81.24 60.24" stroke="#c9ce7a"></path>
<path d="M 81.24 60.24
  L 81.20 54.72
  A 0.60 0.60 0.0 0 0 80.61 54.12
  L 75.08 54.03" stroke="#c9e07a"></path>
<path d="M 75.08 54.03
  L 70.01 54.07
  A 0.95 0.95 0.0 0 0 69.06 55.05
  L 69.21 59.89" stroke="#c9ce7a"></path>
<path d="M 69.21 59.89
  Q 66.43 60.52 63.14 60.07" stroke="#c9e07a"></path>
<path d="M 63.14 60.07
  L 57.70 60.02
  A 0.66 0.65 -0.4 0 0 57.04 60.68
  L 57.25 79.40" stroke="#c9ce7a"></path>
<path d="M 57.25 79.40
  Q 54.70 80.16 51.34 81.01
  C 46.28 82.28 47.90 88.07 51.75 87.04
  Q 67.21 82.92 83.27 78.51
  A 2.08 2.02 48.3 0 1 84.63 78.61
  L 103.55 86.75
  A 4.42 4.41 48.2 0 0 106.53 86.92
  L 136.25 78.01
  A 2.78 2.78 0.0 0 0 138.11 74.53
  L 137.87 73.76
  A 2.36 2.36 0.0 0 0 134.99 72.17
  L 129.24 73.72" stroke="#6fd0cb"></path>
<path d="M 129.24 73.72
  L 129.28 45.79
  Q 129.29 45.05 128.54 45.05
  L 123.29 45.04" stroke="#c9e07a"></path>
<path d="M 123.29 45.04
  L 118.09 45.07
  A 0.93 0.93 0.0 0 0 117.16 46.01
  L 117.27 57.10" stroke="#c9ce7a"></path>
<path d="M 123.29 45.04
  L 123.50 75.44" stroke="#fdd942"></path>
<path d="M 123.50 75.44
  L 117.17 77.38" stroke="#a3c993"></path>
<path d="M 117.17 77.38
  L 117.27 57.10" stroke="#fdd942"></path>
<path d="M 129.24 73.72
  L 123.50 75.44" stroke="#a2da93"></path>
<path d="M 117.17 77.38
  L 111.26 79.24" stroke="#a2da93"></path>
<path d="M 63.33 77.70
  L 57.25 79.40" stroke="#a3c993"></path>
<path d="M 103.97 80.37
  L 98.99 78.18" stroke="#a2da93"></path>
<path d="M 99.10 66.07
  L 98.99 78.18" stroke="#fdd942"></path>
<path d="M 98.99 78.18
  L 93.05 75.61" stroke="#a3c993"></path>
<path d="M 111.28 57.11
  L 111.26 79.24" stroke="#fdd942"></path>
<path d="M 111.26 79.24
  C 109.21 79.86 105.99 81.45 103.97 80.37" stroke="#a3c993"></path>
<path d="M 103.97 80.37
  Q 104.80 80.43 104.87 79.75
  Q 105.45 74.27 105.22 66.05" stroke="#fdd942"></path>
<path d="M 93.25 66.28
  L 93.05 75.61" stroke="#fdd942"></path>
<path d="M 93.05 75.61
  L 87.28 73.19" stroke="#a2da93"></path>
<path d="M 81.24 60.24
  L 81.08 72.87" stroke="#fdd942"></path>
<path d="M 81.08 72.87
  L 75.18 74.49" stroke="#a2da93"></path>
<path d="M 87.11 60.10
  L 87.28 73.19" stroke="#fdd942"></path>
<path d="M 87.28 73.19
  Q 84.34 71.54 81.08 72.87" stroke="#a3c993"></path>
<path d="M 75.08 54.03
  L 75.18 74.49" stroke="#fdd942"></path>
<path d="M 75.18 74.49
  L 69.04 76.12" stroke="#a3c993"></path>
<path d="M 69.04 76.12
  L 69.21 59.89" stroke="#fdd942"></path>
<path d="M 69.04 76.12
  L 63.33 77.70" stroke="#a2da93"></path>
<path d="M 63.33 77.70
  L 63.14 60.07" stroke="#fdd942"></path>
<path d="M 126.22 92.58
  L 123.93 93.28
  Q 123.40 93.44 123.39 94.00
  L 123.37 104.25" stroke="#c29481"></path>
<path d="M 123.37 104.25
  Q 122.88 108.68 124.05 110.46" stroke="#c9ce7a"></path>
<path d="M 124.05 110.46
  Q 125.99 113.29 126.36 117.47" stroke="#c29481"></path>
<path d="M 126.36 117.47
  Q 127.58 121.66 130.54 119.82
  Q 132.65 118.51 132.28 114.72" stroke="#bd8774"></path>
<path d="M 132.28 114.72
  L 132.45 113.03
  A 1.27 1.26 -19.8 0 1 132.83 112.23
  C 133.99 111.10 134.89 110.26 134.97 108.50
  Q 135.22 102.14 135.00 95.74
  C 134.93 93.79 134.02 93.01 132.32 92.42" stroke="#caa493"></path>
<path d="M 132.32 92.42
  L 132.20 86.96
  Q 132.15 84.09 129.28 84.20
  L 128.61 84.23
  A 2.26 2.25 -0.3 0 0 126.45 86.40
  L 126.22 92.58" stroke="#bd8774"></path>
<path d="M 132.32 92.42
  Q 132.03 93.45 129.55 93.17" stroke="#f25654"></path>
<path d="M 129.55 93.17
  L 126.22 92.58" stroke="#ea4643"></path>
<path d="M 130.14 111.18
  Q 128.85 110.99 127.51 111.47
  Q 126.99 111.65 126.93 112.21
  L 126.36 117.47" stroke="#ea4643"></path>
<path d="M 124.05 110.46
  L 123.37 104.25" stroke="#f68d49"></path>
<path d="M 132.28 114.72
  Q 132.80 111.18 130.14 111.18" stroke="#f25654"></path>
<path d="M 130.14 111.18
  Q 129.14 102.40 129.55 93.17" stroke="#f76362"></path>
<path d="M 78.59 88.32
  L 78.01 95.68
  A 0.38 0.38 0.0 0 1 77.58 96.03
  Q 76.45 95.90 75.49 96.43
  Q 74.99 96.71 74.99 97.29
  L 75.24 113.53
  A 0.61 0.61 0.0 0 0 75.89 114.13
  Q 77.42 114.02 77.56 115.76
  Q 77.79 118.54 78.54 121.65" stroke="#c29481"></path>
<path d="M 78.54 121.65
  Q 79.88 123.88 81.92 123.09
  C 84.36 122.16 84.54 119.46 84.13 117.19" stroke="#bd8774"></path>
<path d="M 84.13 117.19
  Q 84.43 114.95 86.60 113.74
  A 0.68 0.68 0.0 0 0 86.95 113.16
  L 87.22 97.59
  A 1.16 1.14 -71.7 0 0 86.75 96.64
  Q 85.57 95.74 84.09 95.90" stroke="#caa493"></path>
<path d="M 84.09 95.90
  Q 84.38 92.84 84.02 89.75
  C 83.68 86.80 80.63 86.54 78.59 88.32" stroke="#bd8774"></path>
<path d="M 84.09 95.90
  L 81.32 96.22" stroke="#f25654"></path>
<path d="M 81.32 96.22
  L 79.09 96.01
  Q 78.55 95.96 78.55 95.41
  L 78.59 88.32" stroke="#ea4643"></path>
<path d="M 81.32 96.22
  L 81.49 114.29" stroke="#f76362"></path>
<path d="M 81.49 114.29
  Q 77.53 113.01 78.54 121.65" stroke="#ea4643"></path>
<path d="M 84.13 117.19
  L 84.01 115.03
  A 0.76 0.76 0.0 0 0 83.51 114.36
  Q 82.68 114.06 81.49 114.29" stroke="#f25654"></path>
<path d="M 102.64 94.39
  Q 101.85 96.67 101.94 99.31" stroke="#c29481"></path>
<path d="M 101.94 99.31
  Q 102.14 101.98 99.49 102.23
  A 0.59 0.59 0.0 0 0 98.95 102.84
  L 99.56 120.26" stroke="#c9ce7a"></path>
<path d="M 99.56 120.26
  Q 101.67 120.16 101.72 121.01
  Q 101.91 123.92 102.41 127.13" stroke="#c29481"></path>
<path d="M 102.41 127.13
  C 102.62 129.57 106.32 129.79 107.49 128.20
  C 108.70 126.55 108.25 122.82 108.20 120.69" stroke="#bd8774"></path>
<path d="M 108.20 120.69
  Q 110.97 120.44 111.02 118.28
  Q 111.23 109.61 110.97 103.99
  Q 110.90 102.41 108.98 101.72
  A 0.84 0.82 8.5 0 1 108.44 101.01
  L 108.30 99.27" stroke="#caa493"></path>
<path d="M 108.30 99.27
  C 108.26 97.75 108.44 96.07 107.71 94.75
  Q 106.04 91.72 102.64 94.39" stroke="#bd8774"></path>
<path d="M 108.30 99.27
  Q 108.55 100.68 108.10 101.59
  Q 107.86 102.07 107.32 102.10
  L 105.35 102.22" stroke="#f25654"></path>
<path d="M 105.35 102.22
  L 103.19 101.87
  A 0.87 0.87 0.0 0 1 102.46 100.99
  L 102.64 94.39" stroke="#ea4643"></path>
<path d="M 108.20 120.69
  Q 107.28 120.09 105.32 120.27" stroke="#f25654"></path>
<path d="M 105.35 102.22
  L 105.32 120.27" stroke="#f76362"></path>
<path d="M 105.32 120.27
  Q 101.90 119.31 102.41 127.13" stroke="#ea4643"></path>
<path d="M 99.56 120.26
  Q 99.34 114.19 99.12 108.25
  Q 99.05 106.23 100.17 103.02
  Q 100.34 102.54 100.83 102.40
  Q 102.86 101.83 101.94 99.31" stroke="#f68d49"></path>
</g>
<path d="M 151.95 14.98
  Q 99.54 15.26 47.10 15.08
  Q 43.85 15.07 42.47 15.63
  C 38.40 17.29 38.05 23.88 41.64 26.01
  Q 43.47 27.10 47.59 27.09
  Q 99.60 27.02 151.85 27.03
  Q 153.86 30.30 157.75 32.22
  Q 157.26 32.91 156.50 32.91
  Q 100.17 32.91 45.01 32.95
  C 37.98 32.57 32.99 27.46 33.07 20.53
  C 34.21 11.55 39.93 9.03 48.39 9.03
  Q 103.51 9.05 158.66 9.03
  Q 159.36 9.03 158.74 9.36
  C 155.59 11.03 153.69 12.05 151.95 14.98
  Z" fill="#ade8f4"></path>
<path d="M 151.95 14.98
  Q 148.86 20.39 151.85 27.03
  Q 99.60 27.02 47.59 27.09
  Q 43.47 27.10 41.64 26.01
  C 38.05 23.88 38.40 17.29 42.47 15.63
  Q 43.85 15.07 47.10 15.08
  Q 99.54 15.26 151.95 14.98
  Z" fill="#00b4d8"></path>
<path d="M 33.07 20.53
  C 32.99 27.46 37.98 32.57 45.01 32.95
  Q 45.05 59.96 45.16 86.75
  Q 45.21 99.94 51.04 113.24
  L 51.07 122.15
  A 1.13 1.12 -83.8 0 0 51.94 123.24
  L 53.21 123.53
  Q 53.70 123.64 53.76 124.14
  C 54.02 126.24 53.42 131.56 56.06 132.18
  Q 59.83 133.08 59.97 129.05
  Q 60.12 128.97 60.27 128.90
  L 64.19 134.11
  Q 63.48 134.43 63.57 134.54
  L 50.22 138.42
  A 2.95 2.95 0.0 0 0 48.22 142.07
  L 48.40 142.71
  A 2.37 2.37 0.0 0 0 51.32 144.32
  Q 60.11 141.85 67.85 139.37
  Q 68.41 139.19 68.34 138.79
  Q 68.69 139.39 69.31 139.34
  C 71.27 141.26 74.67 144.64 77.45 145.13
  L 77.23 145.90
  L 62.07 150.54
  A 2.84 2.84 0.0 0 0 60.28 154.35
  L 60.55 155.01
  A 2.42 2.41 69.3 0 0 63.55 156.37
  L 79.96 150.87
  A 3.15 3.15 0.0 0 1 82.22 150.98
  Q 91.17 154.95 100.60 158.91
  Q 102.72 159.80 105.04 158.52
  L 107.27 158.09
  L 119.71 159.40
  Q 121.39 164.85 126.62 166.86
  Q 127.07 167.03 127.06 167.51
  L 127.03 170.81
  A 2.69 2.68 89.3 0 0 129.81 173.53
  L 130.78 173.50
  A 2.33 2.33 0.0 0 0 133.02 171.22
  L 133.10 167.69
  Q 133.11 167.06 133.70 166.81
  Q 138.45 164.82 140.30 159.97
  Q 140.48 159.65 140.51 159.26
  L 159.25 159.03
  L 159.24 183.00
  A 0.42 0.42 0.0 0 1 158.82 183.42
  Q 102.20 183.48 45.50 183.47
  Q 37.54 183.47 34.46 177.09
  Q 33.07 174.20 33.06 168.18
  Q 32.97 94.36 33.07 20.53
  Z" fill="#52b788"></path>
<path d="M 157.75 32.22
  Q 158.32 32.27 158.78 32.54
  Q 159.23 32.81 159.23 33.33
  L 159.25 159.03
  L 140.51 159.26
  Q 141.06 148.39 131.47 146.56
  Q 127.88 145.88 127.14 145.41
  C 123.28 142.97 126.26 135.94 132.03 137.72
  Q 134.49 138.48 134.85 142.82
  A 2.20 2.19 85.9 0 0 137.18 144.84
  L 137.94 144.79
  A 2.83 2.83 0.0 0 0 140.58 141.75
  Q 140.07 134.94 133.95 132.19
  Q 133.08 131.79 133.05 130.84
  L 132.93 127.60
  A 2.16 2.16 0.0 0 0 130.90 125.52
  L 129.75 125.45
  A 2.39 2.37 2.6 0 0 127.22 127.75
  L 127.11 131.34
  A 0.84 0.82 -10.9 0 1 126.59 132.09
  C 116.50 136.11 117.59 150.81 128.46 152.18
  C 132.47 152.68 135.72 153.80 134.26 158.80
  L 133.55 159.48
  L 126.29 159.37
  Q 126.11 159.03 125.95 159.04
  C 125.47 156.81 125.23 153.22 121.74 154.08
  C 119.57 154.61 119.38 156.95 119.90 158.78
  L 119.71 159.40
  L 107.27 158.09
  L 112.21 156.06
  Q 114.68 155.04 114.01 152.45
  L 113.85 151.83
  A 2.25 2.25 0.0 0 0 110.98 150.26
  L 103.48 152.68
  A 3.33 3.30 47.2 0 1 101.17 152.58
  Q 92.65 148.96 83.75 145.07
  C 81.42 144.05 79.71 144.34 77.45 145.13
  C 74.67 144.64 71.27 141.26 69.31 139.34
  Q 69.39 139.21 69.46 139.11
  Q 69.61 138.88 69.88 138.80
  L 79.84 135.79
  A 3.26 3.23 48.1 0 1 82.06 135.92
  L 100.83 143.99
  A 3.64 3.61 -42.3 0 0 103.42 144.10
  L 112.89 140.90
  A 2.24 2.23 69.5 0 0 114.24 137.93
  L 113.97 137.27
  Q 112.84 134.54 110.04 135.48
  L 102.91 137.88
  Q 102.37 138.06 101.85 137.84
  L 82.85 129.67
  Q 81.42 129.05 79.92 129.49
  L 64.19 134.11
  L 60.27 128.90
  L 60.22 123.98
  Q 60.21 123.39 60.80 123.34
  L 62.10 123.23
  A 1.10 1.09 -2.0 0 0 63.11 122.15
  L 63.17 106.28
  Q 63.18 105.63 62.57 105.38
  Q 61.70 105.03 60.74 105.14
  A 0.54 0.54 0.0 0 1 60.14 104.54
  Q 60.59 100.30 59.44 96.95
  C 52.99 93.86 54.05 101.13 54.00 104.44
  A 0.69 0.69 0.0 0 1 53.31 105.12
  L 51.81 105.14
  A 0.61 0.61 0.0 0 0 51.21 105.74
  L 51.04 113.24
  Q 45.21 99.94 45.16 86.75
  Q 45.05 59.96 45.01 32.95
  Q 100.17 32.91 156.50 32.91
  Q 157.26 32.91 157.75 32.22
  Z
  M 117.27 57.10
  L 111.28 57.11
  L 105.68 57.18
  Q 105.11 57.19 105.12 57.76
  L 105.22 66.05
  L 99.10 66.07
  L 93.25 66.28
  L 93.23 60.66
  A 0.53 0.53 0.0 0 0 92.70 60.14
  L 87.11 60.10
  L 81.24 60.24
  L 81.20 54.72
  A 0.60 0.60 0.0 0 0 80.61 54.12
  L 75.08 54.03
  L 70.01 54.07
  A 0.95 0.95 0.0 0 0 69.06 55.05
  L 69.21 59.89
  Q 66.43 60.52 63.14 60.07
  L 57.70 60.02
  A 0.66 0.65 -0.4 0 0 57.04 60.68
  L 57.25 79.40
  Q 54.70 80.16 51.34 81.01
  C 46.28 82.28 47.90 88.07 51.75 87.04
  Q 67.21 82.92 83.27 78.51
  A 2.08 2.02 48.3 0 1 84.63 78.61
  L 103.55 86.75
  A 4.42 4.41 48.2 0 0 106.53 86.92
  L 136.25 78.01
  A 2.78 2.78 0.0 0 0 138.11 74.53
  L 137.87 73.76
  A 2.36 2.36 0.0 0 0 134.99 72.17
  L 129.24 73.72
  L 129.28 45.79
  Q 129.29 45.05 128.54 45.05
  L 123.29 45.04
  L 118.09 45.07
  A 0.93 0.93 0.0 0 0 117.16 46.01
  L 117.27 57.10
  Z
  M 126.22 92.58
  L 123.93 93.28
  Q 123.40 93.44 123.39 94.00
  L 123.37 104.25
  Q 122.88 108.68 124.05 110.46
  Q 125.99 113.29 126.36 117.47
  Q 127.58 121.66 130.54 119.82
  Q 132.65 118.51 132.28 114.72
  L 132.45 113.03
  A 1.27 1.26 -19.8 0 1 132.83 112.23
  C 133.99 111.10 134.89 110.26 134.97 108.50
  Q 135.22 102.14 135.00 95.74
  C 134.93 93.79 134.02 93.01 132.32 92.42
  L 132.20 86.96
  Q 132.15 84.09 129.28 84.20
  L 128.61 84.23
  A 2.26 2.25 -0.3 0 0 126.45 86.40
  L 126.22 92.58
  Z
  M 78.59 88.32
  L 78.01 95.68
  A 0.38 0.38 0.0 0 1 77.58 96.03
  Q 76.45 95.90 75.49 96.43
  Q 74.99 96.71 74.99 97.29
  L 75.24 113.53
  A 0.61 0.61 0.0 0 0 75.89 114.13
  Q 77.42 114.02 77.56 115.76
  Q 77.79 118.54 78.54 121.65
  Q 79.88 123.88 81.92 123.09
  C 84.36 122.16 84.54 119.46 84.13 117.19
  Q 84.43 114.95 86.60 113.74
  A 0.68 0.68 0.0 0 0 86.95 113.16
  L 87.22 97.59
  A 1.16 1.14 -71.7 0 0 86.75 96.64
  Q 85.57 95.74 84.09 95.90
  Q 84.38 92.84 84.02 89.75
  C 83.68 86.80 80.63 86.54 78.59 88.32
  Z
  M 102.64 94.39
  Q 101.85 96.67 101.94 99.31
  Q 102.14 101.98 99.49 102.23
  A 0.59 0.59 0.0 0 0 98.95 102.84
  L 99.56 120.26
  Q 101.67 120.16 101.72 121.01
  Q 101.91 123.92 102.41 127.13
  C 102.62 129.57 106.32 129.79 107.49 128.20
  C 108.70 126.55 108.25 122.82 108.20 120.69
  Q 110.97 120.44 111.02 118.28
  Q 111.23 109.61 110.97 103.99
  Q 110.90 102.41 108.98 101.72
  A 0.84 0.82 8.5 0 1 108.44 101.01
  L 108.30 99.27
  C 108.26 97.75 108.44 96.07 107.71 94.75
  Q 106.04 91.72 102.64 94.39
  Z" fill="#95d5b2"></path>
<path d="M 123.29 45.04
  L 123.50 75.44
  L 117.17 77.38
  L 117.27 57.10
  L 117.16 46.01
  A 0.93 0.93 0.0 0 1 118.09 45.07
  L 123.29 45.04
  Z" fill="#fdc741"></path>
<path d="M 123.29 45.04
  L 128.54 45.05
  Q 129.29 45.05 129.28 45.79
  L 129.24 73.72
  L 123.50 75.44
  L 123.29 45.04
  Z" fill="#fcea42"></path>
<path d="M 75.08 54.03
  L 75.18 74.49
  L 69.04 76.12
  L 69.21 59.89
  L 69.06 55.05
  A 0.95 0.95 0.0 0 1 70.01 54.07
  L 75.08 54.03
  Z" fill="#fdc741"></path>
<path d="M 75.08 54.03
  L 80.61 54.12
  A 0.60 0.60 0.0 0 1 81.20 54.72
  L 81.24 60.24
  L 81.08 72.87
  L 75.18 74.49
  L 75.08 54.03
  Z" fill="#fcea42"></path>
<path d="M 111.28 57.11
  L 111.26 79.24
  C 109.21 79.86 105.99 81.45 103.97 80.37
  Q 104.80 80.43 104.87 79.75
  Q 105.45 74.27 105.22 66.05
  L 105.12 57.76
  Q 105.11 57.19 105.68 57.18
  L 111.28 57.11
  Z" fill="#fdc741"></path>
<path d="M 111.28 57.11
  L 117.27 57.10
  L 117.17 77.38
  L 111.26 79.24
  L 111.28 57.11
  Z" fill="#fcea42"></path>
<path d="M 69.21 59.89
  L 69.04 76.12
  L 63.33 77.70
  L 63.14 60.07
  Q 66.43 60.52 69.21 59.89
  Z" fill="#fcea42"></path>
<path d="M 63.14 60.07
  L 63.33 77.70
  L 57.25 79.40
  L 57.04 60.68
  A 0.66 0.65 -0.4 0 1 57.70 60.02
  L 63.14 60.07
  Z" fill="#fdc741"></path>
<path d="M 87.11 60.10
  L 87.28 73.19
  Q 84.34 71.54 81.08 72.87
  L 81.24 60.24
  L 87.11 60.10
  Z" fill="#fdc741"></path>
<path d="M 87.11 60.10
  L 92.70 60.14
  A 0.53 0.53 0.0 0 1 93.23 60.66
  L 93.25 66.28
  L 93.05 75.61
  L 87.28 73.19
  L 87.11 60.10
  Z" fill="#fcea42"></path>
<path d="M 99.10 66.07
  L 98.99 78.18
  L 93.05 75.61
  L 93.25 66.28
  L 99.10 66.07
  Z" fill="#fdc741"></path>
<path d="M 99.10 66.07
  L 105.22 66.05
  Q 105.45 74.27 104.87 79.75
  Q 104.80 80.43 103.97 80.37
  L 98.99 78.18
  L 99.10 66.07
  Z" fill="#fcea42"></path>
<path d="M 87.28 73.19
  L 93.05 75.61
  L 98.99 78.18
  L 103.97 80.37
  C 105.99 81.45 109.21 79.86 111.26 79.24
  L 117.17 77.38
  L 123.50 75.44
  L 129.24 73.72
  L 134.99 72.17
  A 2.36 2.36 0.0 0 1 137.87 73.76
  L 138.11 74.53
  A 2.78 2.78 0.0 0 1 136.25 78.01
  L 106.53 86.92
  A 4.42 4.41 48.2 0 1 103.55 86.75
  L 84.63 78.61
  A 2.08 2.02 48.3 0 0 83.27 78.51
  Q 67.21 82.92 51.75 87.04
  C 47.90 88.07 46.28 82.28 51.34 81.01
  Q 54.70 80.16 57.25 79.40
  L 63.33 77.70
  L 69.04 76.12
  L 75.18 74.49
  L 81.08 72.87
  Q 84.34 71.54 87.28 73.19
  Z" fill="#48cae4"></path>
<path d="M 132.32 92.42
  Q 132.03 93.45 129.55 93.17
  L 126.22 92.58
  L 126.45 86.40
  A 2.26 2.25 -0.3 0 1 128.61 84.23
  L 129.28 84.20
  Q 132.15 84.09 132.20 86.96
  L 132.32 92.42
  Z" fill="#e53935"></path>
<path d="M 84.09 95.90
  L 81.32 96.22
  L 79.09 96.01
  Q 78.55 95.96 78.55 95.41
  L 78.59 88.32
  C 80.63 86.54 83.68 86.80 84.02 89.75
  Q 84.38 92.84 84.09 95.90
  Z" fill="#e53935"></path>
<path d="M 78.59 88.32
  L 78.55 95.41
  Q 78.55 95.96 79.09 96.01
  L 81.32 96.22
  L 81.49 114.29
  Q 77.53 113.01 78.54 121.65
  Q 77.79 118.54 77.56 115.76
  Q 77.42 114.02 75.89 114.13
  A 0.61 0.61 0.0 0 1 75.24 113.53
  L 74.99 97.29
  Q 74.99 96.71 75.49 96.43
  Q 76.45 95.90 77.58 96.03
  A 0.38 0.38 0.0 0 0 78.01 95.68
  L 78.59 88.32
  Z" fill="#ef5350"></path>
<path d="M 132.32 92.42
  C 134.02 93.01 134.93 93.79 135.00 95.74
  Q 135.22 102.14 134.97 108.50
  C 134.89 110.26 133.99 111.10 132.83 112.23
  A 1.27 1.26 -19.8 0 0 132.45 113.03
  L 132.28 114.72
  Q 132.80 111.18 130.14 111.18
  Q 129.14 102.40 129.55 93.17
  Q 132.03 93.45 132.32 92.42
  Z" fill="#ff7373"></path>
<path d="M 126.22 92.58
  L 129.55 93.17
  Q 129.14 102.40 130.14 111.18
  Q 128.85 110.99 127.51 111.47
  Q 126.99 111.65 126.93 112.21
  L 126.36 117.47
  Q 125.99 113.29 124.05 110.46
  L 123.37 104.25
  L 123.39 94.00
  Q 123.40 93.44 123.93 93.28
  L 126.22 92.58
  Z" fill="#ef5350"></path>
<path d="M 108.30 99.27
  Q 108.55 100.68 108.10 101.59
  Q 107.86 102.07 107.32 102.10
  L 105.35 102.22
  L 103.19 101.87
  A 0.87 0.87 0.0 0 1 102.46 100.99
  L 102.64 94.39
  Q 106.04 91.72 107.71 94.75
  C 108.44 96.07 108.26 97.75 108.30 99.27
  Z" fill="#e53935"></path>
<path d="M 102.64 94.39
  L 102.46 100.99
  A 0.87 0.87 0.0 0 0 103.19 101.87
  L 105.35 102.22
  L 105.32 120.27
  Q 101.90 119.31 102.41 127.13
  Q 101.91 123.92 101.72 121.01
  Q 101.67 120.16 99.56 120.26
  Q 99.34 114.19 99.12 108.25
  Q 99.05 106.23 100.17 103.02
  Q 100.34 102.54 100.83 102.40
  Q 102.86 101.83 101.94 99.31
  Q 101.85 96.67 102.64 94.39
  Z" fill="#ef5350"></path>
<path d="M 84.09 95.90
  Q 85.57 95.74 86.75 96.64
  A 1.16 1.14 -71.7 0 1 87.22 97.59
  L 86.95 113.16
  A 0.68 0.68 0.0 0 1 86.60 113.74
  Q 84.43 114.95 84.13 117.19
  L 84.01 115.03
  A 0.76 0.76 0.0 0 0 83.51 114.36
  Q 82.68 114.06 81.49 114.29
  L 81.32 96.22
  L 84.09 95.90
  Z" fill="#ff7373"></path>
<path d="M 59.44 96.95
  L 59.95 104.63
  Q 59.99 105.13 59.49 105.13
  L 58.19 105.11
  A 1.14 1.14 0.0 0 0 57.04 106.26
  L 57.18 122.19
  A 0.97 0.96 -74.7 0 0 57.65 123.02
  Q 58.52 123.53 59.51 123.65
  Q 60.08 123.72 59.98 124.28
  Q 59.51 126.83 59.97 129.05
  Q 59.83 133.08 56.06 132.18
  C 53.42 131.56 54.02 126.24 53.76 124.14
  Q 53.70 123.64 53.21 123.53
  L 51.94 123.24
  A 1.13 1.12 -83.8 0 1 51.07 122.15
  L 51.04 113.24
  L 51.21 105.74
  A 0.61 0.61 0.0 0 1 51.81 105.14
  L 53.31 105.12
  A 0.69 0.69 0.0 0 0 54.00 104.44
  C 54.05 101.13 52.99 93.86 59.44 96.95
  Z" fill="#e53935"></path>
<path d="M 59.44 96.95
  Q 60.59 100.30 60.14 104.54
  A 0.54 0.54 0.0 0 0 60.74 105.14
  Q 61.70 105.03 62.57 105.38
  Q 63.18 105.63 63.17 106.28
  L 63.11 122.15
  A 1.10 1.09 -2.0 0 1 62.10 123.23
  L 60.80 123.34
  Q 60.21 123.39 60.22 123.98
  L 60.27 128.90
  Q 60.12 128.97 59.97 129.05
  Q 59.51 126.83 59.98 124.28
  Q 60.08 123.72 59.51 123.65
  Q 58.52 123.53 57.65 123.02
  A 0.97 0.96 -74.7 0 1 57.18 122.19
  L 57.04 106.26
  A 1.14 1.14 0.0 0 1 58.19 105.11
  L 59.49 105.13
  Q 59.99 105.13 59.95 104.63
  L 59.44 96.95
  Z" fill="#ef5350"></path>
<path d="M 101.94 99.31
  Q 102.86 101.83 100.83 102.40
  Q 100.34 102.54 100.17 103.02
  Q 99.05 106.23 99.12 108.25
  Q 99.34 114.19 99.56 120.26
  L 98.95 102.84
  A 0.59 0.59 0.0 0 1 99.49 102.23
  Q 102.14 101.98 101.94 99.31
  Z" fill="#fdc741"></path>
<path d="M 108.30 99.27
  L 108.44 101.01
  A 0.84 0.82 8.5 0 0 108.98 101.72
  Q 110.90 102.41 110.97 103.99
  Q 111.23 109.61 111.02 118.28
  Q 110.97 120.44 108.20 120.69
  Q 107.28 120.09 105.32 120.27
  L 105.35 102.22
  L 107.32 102.10
  Q 107.86 102.07 108.10 101.59
  Q 108.55 100.68 108.30 99.27
  Z" fill="#ff7373"></path>
<path d="M 123.37 104.25
  L 124.05 110.46
  Q 122.88 108.68 123.37 104.25
  Z" fill="#fdc741"></path>
<path d="M 130.14 111.18
  Q 132.80 111.18 132.28 114.72
  Q 132.65 118.51 130.54 119.82
  Q 127.58 121.66 126.36 117.47
  L 126.93 112.21
  Q 126.99 111.65 127.51 111.47
  Q 128.85 110.99 130.14 111.18
  Z" fill="#e53935"></path>
<path d="M 81.49 114.29
  Q 82.68 114.06 83.51 114.36
  A 0.76 0.76 0.0 0 1 84.01 115.03
  L 84.13 117.19
  C 84.54 119.46 84.36 122.16 81.92 123.09
  Q 79.88 123.88 78.54 121.65
  Q 77.53 113.01 81.49 114.29
  Z" fill="#e53935"></path>
<path d="M 105.32 120.27
  Q 107.28 120.09 108.20 120.69
  C 108.25 122.82 108.70 126.55 107.49 128.20
  C 106.32 129.79 102.62 129.57 102.41 127.13
  Q 101.90 119.31 105.32 120.27
  Z" fill="#e53935"></path>
<path d="M 140.51 159.26
  Q 140.48 159.65 140.30 159.97
  L 140.30 159.62
  Q 140.31 159.12 139.82 159.18
  Q 136.73 159.55 134.74 159.34
  Q 134.31 159.29 134.26 158.80
  C 135.72 153.80 132.47 152.68 128.46 152.18
  C 117.59 150.81 116.50 136.11 126.59 132.09
  A 0.84 0.82 -10.9 0 0 127.11 131.34
  L 127.22 127.75
  A 2.39 2.37 2.6 0 1 129.75 125.45
  L 130.90 125.52
  A 2.16 2.16 0.0 0 1 132.93 127.60
  L 133.05 130.84
  Q 133.08 131.79 133.95 132.19
  Q 140.07 134.94 140.58 141.75
  A 2.83 2.83 0.0 0 1 137.94 144.79
  L 137.18 144.84
  A 2.20 2.19 85.9 0 1 134.85 142.82
  Q 134.49 138.48 132.03 137.72
  C 126.26 135.94 123.28 142.97 127.14 145.41
  Q 127.88 145.88 131.47 146.56
  Q 141.06 148.39 140.51 159.26
  Z" fill="#fcea42"></path>
<path d="M 69.31 139.34
  Q 68.69 139.39 68.34 138.79
  Q 66.43 135.77 63.57 134.54
  Q 63.48 134.43 64.19 134.11
  L 79.92 129.49
  Q 81.42 129.05 82.85 129.67
  L 101.85 137.84
  Q 102.37 138.06 102.91 137.88
  L 110.04 135.48
  Q 112.84 134.54 113.97 137.27
  L 114.24 137.93
  A 2.24 2.23 69.5 0 1 112.89 140.90
  L 103.42 144.10
  A 3.64 3.61 -42.3 0 1 100.83 143.99
  L 82.06 135.92
  A 3.26 3.23 48.1 0 0 79.84 135.79
  L 69.88 138.80
  Q 69.61 138.88 69.46 139.11
  Q 69.39 139.21 69.31 139.34
  Z" fill="#48cae4"></path>
<path d="M 63.57 134.54
  Q 66.43 135.77 68.34 138.79
  Q 68.41 139.19 67.85 139.37
  Q 60.11 141.85 51.32 144.32
  A 2.37 2.37 0.0 0 1 48.40 142.71
  L 48.22 142.07
  A 2.95 2.95 0.0 0 1 50.22 138.42
  L 63.57 134.54
  Z" fill="#00b4d8"></path>
<path d="M 107.27 158.09
  L 105.04 158.52
  Q 105.36 157.78 104.49 157.59
  C 94.51 155.40 85.89 151.41 77.23 145.90
  L 77.45 145.13
  C 79.71 144.34 81.42 144.05 83.75 145.07
  Q 92.65 148.96 101.17 152.58
  A 3.33 3.30 47.2 0 0 103.48 152.68
  L 110.98 150.26
  A 2.25 2.25 0.0 0 1 113.85 151.83
  L 114.01 152.45
  Q 114.68 155.04 112.21 156.06
  L 107.27 158.09
  Z" fill="#48cae4"></path>
<path d="M 77.23 145.90
  C 85.89 151.41 94.51 155.40 104.49 157.59
  Q 105.36 157.78 105.04 158.52
  Q 102.72 159.80 100.60 158.91
  Q 91.17 154.95 82.22 150.98
  A 3.15 3.15 0.0 0 0 79.96 150.87
  L 63.55 156.37
  A 2.42 2.41 69.3 0 1 60.55 155.01
  L 60.28 154.35
  A 2.84 2.84 0.0 0 1 62.07 150.54
  L 77.23 145.90
  Z" fill="#00b4d8"></path>
<path d="M 125.95 159.04
  Q 125.98 159.19 125.91 159.31
  Q 125.88 159.37 125.82 159.36
  Q 123.17 159.04 120.52 159.38
  Q 120.21 159.42 120.02 159.16
  Q 119.88 158.97 119.90 158.78
  C 119.38 156.95 119.57 154.61 121.74 154.08
  C 125.23 153.22 125.47 156.81 125.95 159.04
  Z" fill="#fcea42"></path>
<path d="M 119.90 158.78
  Q 119.88 158.97 120.02 159.16
  Q 120.21 159.42 120.52 159.38
  Q 123.17 159.04 125.82 159.36
  Q 125.88 159.37 125.91 159.31
  Q 125.98 159.19 125.95 159.04
  Q 126.11 159.03 126.29 159.37
  C 127.71 161.97 132.01 162.17 133.55 159.48
  L 134.26 158.80
  Q 134.31 159.29 134.74 159.34
  Q 136.73 159.55 139.82 159.18
  Q 140.31 159.12 140.30 159.62
  L 140.30 159.97
  Q 138.45 164.82 133.70 166.81
  Q 133.11 167.06 133.10 167.69
  L 133.02 171.22
  A 2.33 2.33 0.0 0 1 130.78 173.50
  L 129.81 173.53
  A 2.69 2.68 89.3 0 1 127.03 170.81
  L 127.06 167.51
  Q 127.07 167.03 126.62 166.86
  Q 121.39 164.85 119.71 159.40
  L 119.90 158.78
  Z" fill="#fdc741"></path>
<path d="M 126.29 159.37
  L 133.55 159.48
  C 132.01 162.17 127.71 161.97 126.29 159.37
  Z" fill="#52b788"></path>
</svg>
