<svg viewBox="0.00 0.00 48.00 48.00" version="1.1" xmlns="http://www.w3.org/2000/svg">
<path d="M 32.25 8.96
  Q 31.60 9.10 30.99 8.97
  A 1.38 1.38 0.0 0 1 31.01 6.27
  L 37.32 4.98
  A 1.62 1.61 16.1 0 1 38.81 7.68
  C 31.30 15.52 21.76 18.52 10.80 17.60
  Q 9.18 17.46 9.62 15.90
  L 9.71 15.60
  A 1.18 1.17 -81.0 0 1 10.89 14.74
  C 18.65 15.02 26.13 14.06 32.52 9.61
  Q 34.01 8.57 32.25 8.96
  Z" fill="#1abf62"></path>
<rect rx="5.37" height="25.56" width="11.24" y="18.29" x="26.51" fill="#1abf62"></rect>
<rect rx="5.34" height="19.74" width="11.32" y="24.08" x="9.09" fill="#1abf62"></rect>
</svg>
