<svg viewBox="0.00 0.00 196.00 196.00" version="1.1" xmlns="http://www.w3.org/2000/svg">
<g stroke-linecap="butt" fill="none" stroke-width="2.00">
<path d="M 17.23 33.99
  Q 21.35 38.14 26.04 41.01
  Q 32.34 44.87 38.42 49.09
  Q 38.77 49.33 39.12 49.37
  Q 39.60 49.43 39.94 49.77
  Q 41.91 51.70 44.59 52.73
  Q 45.15 52.95 44.85 53.14
  Q 44.63 53.29 44.02 53.40" stroke="#6f10da"></path>
<path d="M 20.73 58.38
  Q 10.79 51.01 0.32 46.05" stroke="#5107e8"></path>
<path d="M 44.08 67.28
  Q 46.56 69.64 49.28 71.32
  C 51.31 72.58 52.59 74.39 54.61 75.43
  Q 55.67 75.98 56.73 76.51
  C 57.99 77.13 59.03 78.27 60.43 78.93
  C 62.00 79.68 62.94 80.70 64.44 81.51
  Q 64.88 81.75 65.02 82.24
  Q 65.22 82.98 65.91 83.15
  Q 66.28 83.23 66.53 83.51
  C 67.87 84.99 69.81 85.34 71.66 87.14
  A 0.54 0.53 51.4 0 0 72.31 87.22
  Q 72.69 87.00 72.74 87.40
  A 0.45 0.41 -73.8 0 0 72.86 87.65
  Q 73.31 88.11 73.69 87.53" stroke="#5107e8"></path>
<path d="M 73.68 114.61
  Q 72.93 113.93 72.44 113.86
  Q 72.17 113.82 71.96 113.67
  L 66.29 109.70
  Q 65.86 109.40 65.57 108.96
  Q 64.69 107.63 63.02 107.40
  Q 62.47 107.33 62.13 106.88
  Q 61.62 106.22 60.82 106.03
  Q 60.33 105.91 59.97 105.56
  Q 58.79 104.37 56.48 102.91
  Q 54.16 101.43 53.25 101.46" stroke="#3b22ee"></path>
<path d="M 29.42 86.71
  Q 27.49 84.47 25.59 83.98
  Q 25.12 83.85 24.72 83.56
  C 23.76 82.87 22.71 82.91 21.85 82.38
  Q 19.91 81.19 18.15 79.75
  Q 16.44 78.34 14.51 77.21
  C 11.90 75.69 9.84 73.92 7.46 72.12
  Q 6.29 71.24 3.84 70.02
  Q 1.94 69.06 0.27 67.74" stroke="#3b22ee"></path>
<path d="M 69.90 53.40
  Q 64.58 48.34 60.01 45.98
  C 58.62 45.26 58.16 44.67 57.16 44.06
  C 52.01 40.90 47.20 37.27 42.14 33.98" stroke="#8718cf"></path>
<path d="M 73.68 126.33
  Q 71.85 126.57 70.25 125.15
  C 68.56 123.65 67.61 123.00 66.12 121.95
  Q 65.73 121.68 65.26 121.59
  C 63.90 121.33 63.15 120.38 62.29 119.85
  Q 59.25 117.99 56.35 115.90
  Q 55.47 115.26 54.40 114.86
  Q 53.95 114.69 53.90 114.22
  Q 53.77 113.02 53.27 113.17" stroke="#314cec"></path>
<path d="M 73.66 138.63
  Q 68.09 136.56 65.29 134.07
  Q 62.88 131.92 60.81 131.09
  Q 60.36 130.91 60.11 130.48
  Q 59.89 130.09 59.75 130.00
  Q 56.57 128.00 53.27 125.98" stroke="#2a6eea"></path>
<path d="M 73.64 148.82
  L 54.28 137.79
  Q 54.11 137.69 54.12 137.49
  Q 54.12 137.32 54.12 137.15
  Q 54.11 136.32 53.55 136.94
  L 53.28 137.23" stroke="#238ee9"></path>
<path d="M 73.68 157.20
  C 71.28 157.27 69.71 155.38 68.28 154.48
  C 65.98 153.02 64.12 150.79 61.19 149.99
  Q 60.74 149.87 60.35 149.60
  L 53.30 144.65" stroke="#1fa6e8"></path>
<path d="M 73.70 166.43
  Q 70.25 165.00 68.15 163.28
  Q 66.04 161.54 64.00 160.42
  Q 61.02 158.78 59.97 157.97
  Q 58.09 156.51 56.25 155.00
  Q 54.95 153.94 53.27 154.38" stroke="#19c2e6"></path>
<path d="M 8.48 0.00
  Q 10.40 3.28 14.02 5.85
  Q 16.84 7.86 19.72 9.70
  Q 20.83 10.40 21.96 11.12
  Q 26.84 14.19 31.52 17.59
  Q 31.87 17.84 31.90 18.27
  Q 31.95 18.90 32.75 18.89
  Q 35.44 18.87 37.02 19.72" stroke="#9e20c4"></path>
<path d="M 38.88 0.00
  Q 38.75 0.23 38.45 0.41
  Q 38.12 0.60 38.43 0.83
  Q 40.62 2.38 42.48 4.35
  Q 42.69 4.57 43.24 4.76
  Q 43.68 4.91 43.98 5.13
  Q 54.43 12.74 65.04 19.77" stroke="#bf2bb4"></path>
<path d="M 64.75 0.00
  L 91.10 17.28
  A 1.32 1.32 0.0 0 1 91.19 19.43
  L 90.78 19.75" stroke="#d73d9c"></path>
<path d="M 83.60 0.00
  L 111.41 18.11
  Q 111.79 18.35 111.72 18.80
  Q 111.64 19.29 111.19 19.73" stroke="#e15281"></path>
<path d="M 91.12 0.00
  Q 94.99 2.00 97.93 4.46
  C 99.44 5.72 101.90 6.74 103.07 8.26
  Q 103.33 8.60 103.73 8.73
  Q 104.64 9.03 104.77 9.11
  Q 112.28 13.61 119.71 19.62" stroke="#e76569"></path>
<path d="M 119.93 0.00
  Q 120.29 1.68 121.74 2.31
  Q 124.17 3.39 124.21 3.41
  C 130.30 7.42 136.25 11.62 142.50 15.37
  Q 143.14 15.75 143.52 16.38
  Q 143.77 16.80 144.22 17.02
  Q 146.05 17.91 147.04 19.72" stroke="#ed7d4c"></path>
<path d="M 140.24 0.00
  Q 147.05 5.41 149.12 6.63
  Q 151.19 7.86 153.18 9.23
  Q 155.11 10.56 157.26 11.74
  Q 162.65 14.69 167.42 18.63
  A 0.14 0.13 43.6 0 1 167.43 18.83
  Q 167.33 18.93 167.22 19.04
  A 0.27 0.27 0.0 0 0 167.38 19.51
  L 169.47 19.71" stroke="#f4962d"></path>
<path d="M 156.87 0.00
  L 193.33 25.41
  Q 193.77 25.72 194.24 25.46
  Q 194.94 25.07 195.39 24.46" stroke="#f9a817"></path>
<path d="M 195.36 42.53
  Q 192.69 42.27 189.83 39.11
  Q 189.73 39.00 189.63 38.96
  Q 189.47 38.89 189.31 38.88
  Q 188.95 38.83 188.65 38.62
  Q 185.41 36.28 182.17 33.96
  Q 181.88 33.75 181.23 33.56
  Q 180.71 33.40 180.34 33.03
  Q 179.49 32.15 179.42 32.10
  Q 177.25 30.52 175.04 28.76" stroke="#f29035"></path>
<path d="M 189.04 53.20
  Q 186.02 50.42 180.13 46.73
  C 178.91 45.96 176.47 44.88 176.18 44.39
  A 1.67 1.64 -0.4 0 0 175.50 43.73
  C 172.82 42.28 170.55 40.32 167.78 38.98
  C 166.72 38.46 166.16 37.56 164.78 37.22
  A 1.13 1.12 -8.8 0 1 164.10 36.73
  Q 162.59 34.41 159.49 34.03" stroke="#eb7754"></path>
<path d="M 102.79 34.05
  Q 104.12 34.11 105.39 34.20
  Q 105.78 34.23 106.01 34.41
  Q 106.33 34.65 106.50 35.00
  Q 106.71 35.43 107.11 35.71
  Q 112.80 39.74 113.66 40.25
  A 62.22 14.38 31.4 0 1 121.16 44.85
  Q 124.75 47.14 128.89 50.44
  Q 129.37 50.82 129.41 51.23
  Q 129.46 51.83 128.76 51.98
  Q 128.19 52.11 128.57 52.54
  Q 128.94 52.96 128.79 53.28" stroke="#d535a6"></path>
<path d="M 108.50 53.42
  L 102.55 49.22
  Q 102.42 49.13 102.26 49.13
  Q 102.09 49.13 101.90 49.11
  Q 101.56 49.06 101.28 48.88
  L 98.26 46.93
  Q 98.23 46.91 98.19 46.93
  Q 97.96 47.00 97.90 47.14
  Q 97.82 47.31 97.66 47.20
  L 88.18 40.65" stroke="#bf2bb4"></path>
<path d="M 122.03 34.03
  Q 123.14 35.64 125.48 36.40
  Q 126.84 36.85 128.12 37.88
  C 130.39 39.70 132.78 40.83 135.10 42.44
  Q 137.38 44.02 139.57 45.31
  Q 145.32 48.71 150.20 53.25" stroke="#dc4197"></path>
<path d="M 133.67 34.01
  L 142.64 38.54
  Q 143.07 38.76 143.36 39.14
  Q 144.01 39.98 144.40 40.22
  Q 149.25 43.22 154.02 46.35
  Q 154.98 46.98 157.26 48.94
  Q 158.86 50.30 160.73 51.29
  Q 161.37 51.63 161.41 52.29
  Q 161.43 52.78 161.89 52.98
  L 162.49 53.24" stroke="#e15281"></path>
<path d="M 147.29 34.01
  C 149.65 35.04 151.32 36.79 153.56 37.84
  Q 154.86 38.44 156.09 39.18
  Q 159.65 41.30 163.08 43.62
  Q 164.76 44.75 170.10 48.02
  Q 173.87 50.34 177.26 53.24" stroke="#e76569"></path>
<path d="M 108.46 65.78
  Q 101.81 63.12 97.03 59.45
  Q 92.80 56.19 89.33 54.19
  Q 89.11 54.06 89.00 54.30
  Q 88.93 54.47 88.73 54.52
  Q 88.60 54.56 88.52 54.45
  Q 88.40 54.29 88.26 54.26" stroke="#9e20c4"></path>
<path d="M 108.47 84.88
  L 88.32 71.59" stroke="#8718cf"></path>
<path d="M 136.05 67.28
  Q 137.92 68.27 139.62 69.47
  Q 145.90 73.91 152.24 78.27
  Q 152.38 78.37 152.39 78.62
  Q 152.39 78.93 152.64 79.11
  L 163.26 86.64" stroke="#bf2bb4"></path>
<path d="M 143.29 87.29
  Q 142.93 87.30 142.76 87.47
  Q 142.58 87.63 142.37 87.51
  Q 139.95 86.14 137.76 84.43
  C 134.19 81.64 130.80 79.68 127.27 77.33
  C 126.43 76.77 125.67 75.77 124.39 75.52
  Q 123.87 75.41 123.86 74.88
  Q 123.86 74.39 123.67 74.00
  Q 123.41 73.48 123.30 74.05
  L 123.06 75.23" stroke="#9e20c4"></path>
<path d="M 159.44 67.29
  Q 160.17 67.91 160.65 68.45
  Q 161.33 69.22 161.85 69.56
  Q 173.32 77.14 184.88 84.56
  Q 185.48 84.95 185.61 85.42
  Q 185.76 86.00 185.54 86.64" stroke="#d535a6"></path>
<path d="M 179.23 67.26
  C 182.14 69.74 185.45 71.76 188.66 73.78
  Q 188.78 73.85 188.89 73.86
  Q 189.03 73.88 189.17 73.88
  Q 189.53 73.87 189.80 74.11
  Q 192.27 76.30 195.40 77.22" stroke="#dc4197"></path>
<path d="M 108.45 97.97
  Q 108.44 96.61 107.93 96.66
  Q 107.79 96.67 107.74 96.79
  Q 107.67 96.94 107.79 97.06
  Q 107.88 97.15 107.79 97.24
  Q 107.69 97.35 107.56 97.38
  Q 107.44 97.40 107.37 97.30
  Q 106.09 95.34 103.75 94.68
  Q 103.49 94.60 103.39 94.35
  Q 103.34 94.20 103.27 94.06
  Q 103.17 93.84 102.93 93.69
  Q 101.02 92.41 99.23 90.93
  A 1.59 1.58 69.6 0 0 98.45 90.57
  C 96.25 90.22 94.12 87.44 92.25 86.13
  Q 91.52 85.62 88.32 84.60" stroke="#6f10da"></path>
<path d="M 143.29 116.04
  Q 140.74 114.77 139.11 112.69
  Q 138.82 112.32 138.38 112.14
  C 137.17 111.66 135.94 109.76 134.85 109.88
  Q 134.39 109.93 134.08 109.58
  Q 133.45 108.87 132.61 108.42
  Q 127.86 105.86 123.82 102.31
  Q 123.37 101.92 123.25 102.51
  L 123.10 103.29" stroke="#7713d7"></path>
<path d="M 108.49 105.82
  Q 108.06 105.40 107.90 104.74
  Q 107.88 104.63 107.80 104.71
  Q 107.70 104.79 107.58 104.86
  Q 107.48 104.91 107.39 104.86
  Q 104.66 103.26 102.03 101.51
  Q 101.94 101.44 99.69 99.50
  Q 98.32 98.32 96.44 97.96
  Q 95.96 97.87 95.59 97.55
  Q 92.30 94.79 88.29 93.19" stroke="#5107e8"></path>
<path d="M 108.47 140.86
  L 88.30 128.54" stroke="#392eed"></path>
<path d="M 143.27 133.45
  Q 136.09 130.00 131.63 126.37
  Q 130.38 125.35 129.53 125.06
  A 2.12 1.93 -12.9 0 1 128.84 124.67
  Q 126.69 122.79 124.10 121.70
  Q 124.04 121.68 124.03 121.62
  Q 124.01 121.46 123.89 121.30
  Q 123.72 121.05 123.64 121.34
  Q 123.43 122.12 123.09 121.78" stroke="#5107e8"></path>
<path d="M 143.28 164.22
  L 142.85 163.68
  Q 142.78 163.60 142.65 163.67
  Q 142.59 163.69 142.55 163.72
  Q 142.42 163.80 142.38 163.75
  Q 142.08 163.40 142.12 163.03
  Q 142.15 162.70 141.90 162.48
  C 140.08 160.92 137.86 160.62 136.19 158.70
  Q 136.13 158.63 136.03 158.63
  Q 135.87 158.63 135.71 158.62
  Q 135.42 158.61 135.22 158.41
  C 133.40 156.57 131.38 155.86 129.40 154.32
  Q 128.57 153.66 127.54 153.31
  Q 127.12 153.16 126.82 152.83
  Q 125.86 151.80 124.54 151.85
  Q 124.12 151.86 124.12 151.45
  L 124.12 150.73
  Q 124.12 150.10 123.55 150.34
  L 123.10 150.53" stroke="#3b22ee"></path>
<path d="M 108.48 160.66
  Q 102.35 157.40 96.80 153.61
  C 95.41 152.65 94.36 152.56 92.85 150.90
  Q 91.38 149.30 88.30 148.80" stroke="#2a6eea"></path>
<path d="M 108.48 175.22
  Q 108.02 175.14 107.88 174.24
  Q 107.71 173.19 106.79 173.24
  Q 106.38 173.27 106.04 173.02
  C 104.22 171.69 102.61 169.70 100.46 168.83
  Q 99.14 168.30 98.25 167.55
  Q 93.66 163.69 88.31 160.36" stroke="#238ee9"></path>
<path d="M 143.28 176.22
  Q 138.69 174.14 137.49 173.15
  Q 133.28 169.67 130.79 168.41
  Q 130.40 168.21 130.17 167.83
  Q 129.28 166.30 127.53 165.84
  Q 127.11 165.72 126.77 165.44
  Q 123.35 162.53 123.10 165.71" stroke="#2e58ec"></path>
<path d="M 122.95 176.18
  Q 122.07 177.37 123.88 178.13
  Q 124.34 178.31 124.75 178.58
  L 141.05 189.00" stroke="#2584e9"></path>
<path d="M 132.64 195.03
  L 114.89 183.63
  Q 114.47 183.37 114.21 182.95
  Q 113.04 181.10 111.99 180.64
  Q 107.41 178.62 103.46 175.56
  Q 101.33 173.91 98.94 172.73
  Q 96.19 171.37 94.39 170.02
  Q 91.48 167.86 88.30 166.02" stroke="#1fa6e8"></path>
<path d="M 115.26 195.66
  Q 115.39 193.58 113.50 193.24
  Q 113.09 193.17 112.76 192.92
  L 106.81 188.47
  A 0.25 0.24 64.5 0 0 106.65 188.41
  Q 105.67 188.31 105.08 187.49
  Q 104.73 187.01 104.18 186.78
  Q 103.15 186.37 102.31 185.65
  C 100.90 184.44 100.10 184.02 98.58 183.38
  A 1.40 1.39 88.0 0 1 97.88 182.72
  Q 97.70 182.36 97.39 182.11
  Q 93.19 178.78 88.31 177.41" stroke="#19c2e6"></path>
</g>
<path d="M 3.62 0.00
  L 8.48 0.00
  Q 10.40 3.28 14.02 5.85
  Q 16.84 7.86 19.72 9.70
  Q 20.83 10.40 21.96 11.12
  Q 26.84 14.19 31.52 17.59
  Q 31.87 17.84 31.90 18.27
  Q 31.95 18.90 32.75 18.89
  Q 35.44 18.87 37.02 19.72
  L 4.03 20.03
  A 3.75 3.75 0.0 0 1 0.24 16.28
  L 0.24 3.48
  A 1.14 1.13 -27.1 0 1 0.46 2.81
  Q 1.77 1.03 3.62 0.00
  Z" fill="#8f1bcb"></path>
<path d="M 8.48 0.00
  L 38.88 0.00
  Q 38.75 0.23 38.45 0.41
  Q 38.12 0.60 38.43 0.83
  Q 40.62 2.38 42.48 4.35
  Q 42.69 4.57 43.24 4.76
  Q 43.68 4.91 43.98 5.13
  Q 54.43 12.74 65.04 19.77
  L 37.02 19.72
  Q 35.44 18.87 32.75 18.89
  Q 31.95 18.90 31.90 18.27
  Q 31.87 17.84 31.52 17.59
  Q 26.84 14.19 21.96 11.12
  Q 20.83 10.40 19.72 9.70
  Q 16.84 7.86 14.02 5.85
  Q 10.40 3.28 8.48 0.00
  Z" fill="#ad25bc"></path>
<path d="M 38.88 0.00
  L 64.75 0.00
  L 91.10 17.28
  A 1.32 1.32 0.0 0 1 91.19 19.43
  L 90.78 19.75
  L 65.04 19.77
  Q 54.43 12.74 43.98 5.13
  Q 43.68 4.91 43.24 4.76
  Q 42.69 4.57 42.48 4.35
  Q 40.62 2.38 38.43 0.83
  Q 38.12 0.60 38.45 0.41
  Q 38.75 0.23 38.88 0.00
  Z" fill="#d031ab"></path>
<path d="M 64.75 0.00
  L 83.60 0.00
  L 111.41 18.11
  Q 111.79 18.35 111.72 18.80
  Q 111.64 19.29 111.19 19.73
  L 90.78 19.75
  L 91.19 19.43
  A 1.32 1.32 0.0 0 0 91.10 17.28
  L 64.75 0.00
  Z" fill="#de488d"></path>
<path d="M 83.60 0.00
  L 91.12 0.00
  Q 94.99 2.00 97.93 4.46
  C 99.44 5.72 101.90 6.74 103.07 8.26
  Q 103.33 8.60 103.73 8.73
  Q 104.64 9.03 104.77 9.11
  Q 112.28 13.61 119.71 19.62
  L 111.19 19.73
  Q 111.64 19.29 111.72 18.80
  Q 111.79 18.35 111.41 18.11
  L 83.60 0.00
  Z" fill="#e45c74"></path>
<path d="M 91.12 0.00
  L 119.93 0.00
  Q 120.29 1.68 121.74 2.31
  Q 124.17 3.39 124.21 3.41
  C 130.30 7.42 136.25 11.62 142.50 15.37
  Q 143.14 15.75 143.52 16.38
  Q 143.77 16.80 144.22 17.02
  Q 146.05 17.91 147.04 19.72
  L 119.71 19.62
  Q 112.28 13.61 104.77 9.11
  Q 104.64 9.03 103.73 8.73
  Q 103.33 8.60 103.07 8.26
  C 101.90 6.74 99.44 5.72 97.93 4.46
  Q 94.99 2.00 91.12 0.00
  Z" fill="#e96e5e"></path>
<path d="M 119.93 0.00
  L 140.24 0.00
  Q 147.05 5.41 149.12 6.63
  Q 151.19 7.86 153.18 9.23
  Q 155.11 10.56 157.26 11.74
  Q 162.65 14.69 167.42 18.63
  A 0.14 0.13 43.6 0 1 167.43 18.83
  Q 167.33 18.93 167.22 19.04
  A 0.27 0.27 0.0 0 0 167.38 19.51
  L 169.47 19.71
  L 147.04 19.72
  Q 146.05 17.91 144.22 17.02
  Q 143.77 16.80 143.52 16.38
  Q 143.14 15.75 142.50 15.37
  C 136.25 11.62 130.30 7.42 124.21 3.41
  Q 124.17 3.39 121.74 2.31
  Q 120.29 1.68 119.93 0.00
  Z" fill="#f18c39"></path>
<path d="M 140.24 0.00
  L 156.87 0.00
  L 193.33 25.41
  Q 193.77 25.72 194.24 25.46
  Q 194.94 25.07 195.39 24.46
  L 195.36 42.53
  Q 192.69 42.27 189.83 39.11
  Q 189.73 39.00 189.63 38.96
  Q 189.47 38.89 189.31 38.88
  Q 188.95 38.83 188.65 38.62
  Q 185.41 36.28 182.17 33.96
  Q 181.88 33.75 181.23 33.56
  Q 180.71 33.40 180.34 33.03
  Q 179.49 32.15 179.42 32.10
  Q 177.25 30.52 175.04 28.76
  L 175.08 20.32
  Q 175.08 19.80 174.56 19.79
  L 169.47 19.71
  L 167.38 19.51
  A 0.27 0.27 0.0 0 1 167.22 19.04
  Q 167.33 18.93 167.43 18.83
  A 0.14 0.13 43.6 0 0 167.42 18.63
  Q 162.65 14.69 157.26 11.74
  Q 155.11 10.56 153.18 9.23
  Q 151.19 7.86 149.12 6.63
  Q 147.05 5.41 140.24 0.00
  Z" fill="#f6a021"></path>
<path d="M 156.87 0.00
  L 192.20 0.00
  C 194.32 1.07 195.34 2.20 195.37 4.74
  Q 195.48 14.60 195.39 24.46
  Q 194.94 25.07 194.24 25.46
  Q 193.77 25.72 193.33 25.41
  L 156.87 0.00
  Z" fill="#fbb00c"></path>
<path d="M 175.04 28.76
  Q 177.25 30.52 179.42 32.10
  Q 179.49 32.15 180.34 33.03
  Q 180.71 33.40 181.23 33.56
  Q 181.88 33.75 182.17 33.96
  Q 185.41 36.28 188.65 38.62
  Q 188.95 38.83 189.31 38.88
  Q 189.47 38.89 189.63 38.96
  Q 189.73 39.00 189.83 39.11
  Q 192.69 42.27 195.36 42.53
  Q 195.48 45.77 195.40 49.62
  C 195.36 51.47 194.13 53.18 192.23 53.29
  Q 190.40 53.38 189.04 53.20
  Q 186.02 50.42 180.13 46.73
  C 178.91 45.96 176.47 44.88 176.18 44.39
  A 1.67 1.64 -0.4 0 0 175.50 43.73
  C 172.82 42.28 170.55 40.32 167.78 38.98
  C 166.72 38.46 166.16 37.56 164.78 37.22
  A 1.13 1.12 -8.8 0 1 164.10 36.73
  Q 162.59 34.41 159.49 34.03
  L 174.47 33.92
  Q 175.05 33.92 175.05 33.33
  L 175.04 28.76
  Z" fill="#ed7f49"></path>
<path d="M 17.23 33.99
  Q 21.35 38.14 26.04 41.01
  Q 32.34 44.87 38.42 49.09
  Q 38.77 49.33 39.12 49.37
  Q 39.60 49.43 39.94 49.77
  Q 41.91 51.70 44.59 52.73
  Q 45.15 52.95 44.85 53.14
  Q 44.63 53.29 44.02 53.40
  L 21.33 53.43
  Q 20.78 53.43 20.77 53.98
  L 20.73 58.38
  Q 10.79 51.01 0.32 46.05
  L 0.27 37.51
  A 3.56 3.56 0.0 0 1 3.85 33.93
  L 17.23 33.99
  Z" fill="#5e0ae2"></path>
<path d="M 69.90 53.40
  Q 64.58 48.34 60.01 45.98
  C 58.62 45.26 58.16 44.67 57.16 44.06
  C 52.01 40.90 47.20 37.27 42.14 33.98
  L 73.20 33.94
  Q 73.75 33.94 73.75 34.49
  L 73.75 52.79
  Q 73.75 53.35 73.19 53.36
  L 69.90 53.40
  Z" fill="#8f1bcb"></path>
<path d="M 17.23 33.99
  L 42.14 33.98
  C 47.20 37.27 52.01 40.90 57.16 44.06
  C 58.16 44.67 58.62 45.26 60.01 45.98
  Q 64.58 48.34 69.90 53.40
  L 44.02 53.40
  Q 44.63 53.29 44.85 53.14
  Q 45.15 52.95 44.59 52.73
  Q 41.91 51.70 39.94 49.77
  Q 39.60 49.43 39.12 49.37
  Q 38.77 49.33 38.42 49.09
  Q 32.34 44.87 26.04 41.01
  Q 21.35 38.14 17.23 33.99
  Z" fill="#7f15d2"></path>
<path d="M 102.79 34.05
  Q 104.12 34.11 105.39 34.20
  Q 105.78 34.23 106.01 34.41
  Q 106.33 34.65 106.50 35.00
  Q 106.71 35.43 107.11 35.71
  Q 112.80 39.74 113.66 40.25
  A 62.22 14.38 31.4 0 1 121.16 44.85
  Q 124.75 47.14 128.89 50.44
  Q 129.37 50.82 129.41 51.23
  Q 129.46 51.83 128.76 51.98
  Q 128.19 52.11 128.57 52.54
  Q 128.94 52.96 128.79 53.28
  L 108.50 53.42
  L 102.55 49.22
  Q 102.42 49.13 102.26 49.13
  Q 102.09 49.13 101.90 49.11
  Q 101.56 49.06 101.28 48.88
  L 98.26 46.93
  Q 98.23 46.91 98.19 46.93
  Q 97.96 47.00 97.90 47.14
  Q 97.82 47.31 97.66 47.20
  L 88.18 40.65
  L 88.06 34.57
  Q 88.05 34.02 88.60 34.02
  L 102.79 34.05
  Z" fill="#d031ab"></path>
<path d="M 102.79 34.05
  L 122.03 34.03
  Q 123.14 35.64 125.48 36.40
  Q 126.84 36.85 128.12 37.88
  C 130.39 39.70 132.78 40.83 135.10 42.44
  Q 137.38 44.02 139.57 45.31
  Q 145.32 48.71 150.20 53.25
  L 128.79 53.28
  Q 128.94 52.96 128.57 52.54
  Q 128.19 52.11 128.76 51.98
  Q 129.46 51.83 129.41 51.23
  Q 129.37 50.82 128.89 50.44
  Q 124.75 47.14 121.16 44.85
  A 62.22 14.38 31.4 0 0 113.66 40.25
  Q 112.80 39.74 107.11 35.71
  Q 106.71 35.43 106.50 35.00
  Q 106.33 34.65 106.01 34.41
  Q 105.78 34.23 105.39 34.20
  Q 104.12 34.11 102.79 34.05
  Z" fill="#da39a0"></path>
<path d="M 122.03 34.03
  L 133.67 34.01
  L 142.64 38.54
  Q 143.07 38.76 143.36 39.14
  Q 144.01 39.98 144.40 40.22
  Q 149.25 43.22 154.02 46.35
  Q 154.98 46.98 157.26 48.94
  Q 158.86 50.30 160.73 51.29
  Q 161.37 51.63 161.41 52.29
  Q 161.43 52.78 161.89 52.98
  L 162.49 53.24
  L 150.20 53.25
  Q 145.32 48.71 139.57 45.31
  Q 137.38 44.02 135.10 42.44
  C 132.78 40.83 130.39 39.70 128.12 37.88
  Q 126.84 36.85 125.48 36.40
  Q 123.14 35.64 122.03 34.03
  Z" fill="#de488d"></path>
<path d="M 133.67 34.01
  L 147.29 34.01
  C 149.65 35.04 151.32 36.79 153.56 37.84
  Q 154.86 38.44 156.09 39.18
  Q 159.65 41.30 163.08 43.62
  Q 164.76 44.75 170.10 48.02
  Q 173.87 50.34 177.26 53.24
  L 162.49 53.24
  L 161.89 52.98
  Q 161.43 52.78 161.41 52.29
  Q 161.37 51.63 160.73 51.29
  Q 158.86 50.30 157.26 48.94
  Q 154.98 46.98 154.02 46.35
  Q 149.25 43.22 144.40 40.22
  Q 144.01 39.98 143.36 39.14
  Q 143.07 38.76 142.64 38.54
  L 133.67 34.01
  Z" fill="#e45c74"></path>
<path d="M 147.29 34.01
  L 159.49 34.03
  Q 162.59 34.41 164.10 36.73
  A 1.13 1.12 -8.8 0 0 164.78 37.22
  C 166.16 37.56 166.72 38.46 167.78 38.98
  C 170.55 40.32 172.82 42.28 175.50 43.73
  A 1.67 1.64 -0.4 0 1 176.18 44.39
  C 176.47 44.88 178.91 45.96 180.13 46.73
  Q 186.02 50.42 189.04 53.20
  L 177.26 53.24
  Q 173.87 50.34 170.10 48.02
  Q 164.76 44.75 163.08 43.62
  Q 159.65 41.30 156.09 39.18
  Q 154.86 38.44 153.56 37.84
  C 151.32 36.79 149.65 35.04 147.29 34.01
  Z" fill="#e96e5e"></path>
<path d="M 88.18 40.65
  L 97.66 47.20
  Q 97.82 47.31 97.90 47.14
  Q 97.96 47.00 98.19 46.93
  Q 98.23 46.91 98.26 46.93
  L 101.28 48.88
  Q 101.56 49.06 101.90 49.11
  Q 102.09 49.13 102.26 49.13
  Q 102.42 49.13 102.55 49.22
  L 108.50 53.42
  L 108.46 65.78
  Q 101.81 63.12 97.03 59.45
  Q 92.80 56.19 89.33 54.19
  Q 89.11 54.06 89.00 54.30
  Q 88.93 54.47 88.73 54.52
  Q 88.60 54.56 88.52 54.45
  Q 88.40 54.29 88.26 54.26
  L 88.18 40.65
  Z" fill="#ad25bc"></path>
<path d="M 20.73 58.38
  L 20.77 66.70
  Q 20.77 67.24 21.31 67.24
  L 44.08 67.28
  Q 46.56 69.64 49.28 71.32
  C 51.31 72.58 52.59 74.39 54.61 75.43
  Q 55.67 75.98 56.73 76.51
  C 57.99 77.13 59.03 78.27 60.43 78.93
  C 62.00 79.68 62.94 80.70 64.44 81.51
  Q 64.88 81.75 65.02 82.24
  Q 65.22 82.98 65.91 83.15
  Q 66.28 83.23 66.53 83.51
  C 67.87 84.99 69.81 85.34 71.66 87.14
  A 0.54 0.53 51.4 0 0 72.31 87.22
  Q 72.69 87.00 72.74 87.40
  A 0.45 0.41 -73.8 0 0 72.86 87.65
  Q 73.31 88.11 73.69 87.53
  L 73.68 114.61
  Q 72.93 113.93 72.44 113.86
  Q 72.17 113.82 71.96 113.67
  L 66.29 109.70
  Q 65.86 109.40 65.57 108.96
  Q 64.69 107.63 63.02 107.40
  Q 62.47 107.33 62.13 106.88
  Q 61.62 106.22 60.82 106.03
  Q 60.33 105.91 59.97 105.56
  Q 58.79 104.37 56.48 102.91
  Q 54.16 101.43 53.25 101.46
  L 53.09 87.43
  Q 53.08 86.86 52.50 86.85
  L 29.42 86.71
  Q 27.49 84.47 25.59 83.98
  Q 25.12 83.85 24.72 83.56
  C 23.76 82.87 22.71 82.91 21.85 82.38
  Q 19.91 81.19 18.15 79.75
  Q 16.44 78.34 14.51 77.21
  C 11.90 75.69 9.84 73.92 7.46 72.12
  Q 6.29 71.24 3.84 70.02
  Q 1.94 69.06 0.27 67.74
  L 0.32 46.05
  Q 10.79 51.01 20.73 58.38
  Z" fill="#4304ee"></path>
<path d="M 108.46 65.78
  L 108.47 84.88
  L 88.32 71.59
  L 88.26 54.26
  Q 88.40 54.29 88.52 54.45
  Q 88.60 54.56 88.73 54.52
  Q 88.93 54.47 89.00 54.30
  Q 89.11 54.06 89.33 54.19
  Q 92.80 56.19 97.03 59.45
  Q 101.81 63.12 108.46 65.78
  Z" fill="#8f1bcb"></path>
<path d="M 44.08 67.28
  L 73.15 67.30
  Q 73.69 67.30 73.69 67.84
  L 73.69 87.53
  Q 73.31 88.11 72.86 87.65
  A 0.45 0.41 -73.8 0 1 72.74 87.40
  Q 72.69 87.00 72.31 87.22
  A 0.54 0.53 51.4 0 1 71.66 87.14
  C 69.81 85.34 67.87 84.99 66.53 83.51
  Q 66.28 83.23 65.91 83.15
  Q 65.22 82.98 65.02 82.24
  Q 64.88 81.75 64.44 81.51
  C 62.94 80.70 62.00 79.68 60.43 78.93
  C 59.03 78.27 57.99 77.13 56.73 76.51
  Q 55.67 75.98 54.61 75.43
  C 52.59 74.39 51.31 72.58 49.28 71.32
  Q 46.56 69.64 44.08 67.28
  Z" fill="#5e0ae2"></path>
<path d="M 136.05 67.28
  Q 137.92 68.27 139.62 69.47
  Q 145.90 73.91 152.24 78.27
  Q 152.38 78.37 152.39 78.62
  Q 152.39 78.93 152.64 79.11
  L 163.26 86.64
  Q 153.61 86.65 143.88 86.63
  Q 143.59 86.63 143.42 86.76
  Q 143.09 87.02 143.29 87.29
  Q 142.93 87.30 142.76 87.47
  Q 142.58 87.63 142.37 87.51
  Q 139.95 86.14 137.76 84.43
  C 134.19 81.64 130.80 79.68 127.27 77.33
  C 126.43 76.77 125.67 75.77 124.39 75.52
  Q 123.87 75.41 123.86 74.88
  Q 123.86 74.39 123.67 74.00
  Q 123.41 73.48 123.30 74.05
  L 123.06 75.23
  L 123.02 67.83
  Q 123.02 67.29 123.57 67.29
  L 136.05 67.28
  Z" fill="#ad25bc"></path>
<path d="M 136.05 67.28
  L 159.44 67.29
  Q 160.17 67.91 160.65 68.45
  Q 161.33 69.22 161.85 69.56
  Q 173.32 77.14 184.88 84.56
  Q 185.48 84.95 185.61 85.42
  Q 185.76 86.00 185.54 86.64
  L 163.26 86.64
  L 152.64 79.11
  Q 152.39 78.93 152.39 78.62
  Q 152.38 78.37 152.24 78.27
  Q 145.90 73.91 139.62 69.47
  Q 137.92 68.27 136.05 67.28
  Z" fill="#d031ab"></path>
<path d="M 159.44 67.29
  L 179.23 67.26
  C 182.14 69.74 185.45 71.76 188.66 73.78
  Q 188.78 73.85 188.89 73.86
  Q 189.03 73.88 189.17 73.88
  Q 189.53 73.87 189.80 74.11
  Q 192.27 76.30 195.40 77.22
  L 195.42 83.20
  A 3.44 3.43 -89.9 0 1 191.98 86.64
  L 185.54 86.64
  Q 185.76 86.00 185.61 85.42
  Q 185.48 84.95 184.88 84.56
  Q 173.32 77.14 161.85 69.56
  Q 161.33 69.22 160.65 68.45
  Q 160.17 67.91 159.44 67.29
  Z" fill="#da39a0"></path>
<path d="M 179.23 67.26
  L 192.07 67.25
  A 3.34 3.34 0.0 0 1 195.41 70.60
  L 195.40 77.22
  Q 192.27 76.30 189.80 74.11
  Q 189.53 73.87 189.17 73.88
  Q 189.03 73.88 188.89 73.86
  Q 188.78 73.85 188.66 73.78
  C 185.45 71.76 182.14 69.74 179.23 67.26
  Z" fill="#de488d"></path>
<path d="M 0.27 67.74
  Q 1.94 69.06 3.84 70.02
  Q 6.29 71.24 7.46 72.12
  C 9.84 73.92 11.90 75.69 14.51 77.21
  Q 16.44 78.34 18.15 79.75
  Q 19.91 81.19 21.85 82.38
  C 22.71 82.91 23.76 82.87 24.72 83.56
  Q 25.12 83.85 25.59 83.98
  Q 27.49 84.47 29.42 86.71
  L 3.94 86.65
  A 3.71 3.71 0.0 0 1 0.24 82.94
  L 0.27 67.74
  Z" fill="#3340ed"></path>
<path d="M 88.32 71.59
  L 108.47 84.88
  L 108.45 97.97
  Q 108.44 96.61 107.93 96.66
  Q 107.79 96.67 107.74 96.79
  Q 107.67 96.94 107.79 97.06
  Q 107.88 97.15 107.79 97.24
  Q 107.69 97.35 107.56 97.38
  Q 107.44 97.40 107.37 97.30
  Q 106.09 95.34 103.75 94.68
  Q 103.49 94.60 103.39 94.35
  Q 103.34 94.20 103.27 94.06
  Q 103.17 93.84 102.93 93.69
  Q 101.02 92.41 99.23 90.93
  A 1.59 1.58 69.6 0 0 98.45 90.57
  C 96.25 90.22 94.12 87.44 92.25 86.13
  Q 91.52 85.62 88.32 84.60
  L 88.32 71.59
  Z" fill="#7f15d2"></path>
<path d="M 143.29 87.29
  L 143.29 116.04
  Q 140.74 114.77 139.11 112.69
  Q 138.82 112.32 138.38 112.14
  C 137.17 111.66 135.94 109.76 134.85 109.88
  Q 134.39 109.93 134.08 109.58
  Q 133.45 108.87 132.61 108.42
  Q 127.86 105.86 123.82 102.31
  Q 123.37 101.92 123.25 102.51
  L 123.10 103.29
  L 123.06 75.23
  L 123.30 74.05
  Q 123.41 73.48 123.67 74.00
  Q 123.86 74.39 123.86 74.88
  Q 123.87 75.41 124.39 75.52
  C 125.67 75.77 126.43 76.77 127.27 77.33
  C 130.80 79.68 134.19 81.64 137.76 84.43
  Q 139.95 86.14 142.37 87.51
  Q 142.58 87.63 142.76 87.47
  Q 142.93 87.30 143.29 87.29
  Z" fill="#8f1bcb"></path>
<path d="M 88.32 84.60
  Q 91.52 85.62 92.25 86.13
  C 94.12 87.44 96.25 90.22 98.45 90.57
  A 1.59 1.58 69.6 0 1 99.23 90.93
  Q 101.02 92.41 102.93 93.69
  Q 103.17 93.84 103.27 94.06
  Q 103.34 94.20 103.39 94.35
  Q 103.49 94.60 103.75 94.68
  Q 106.09 95.34 107.37 97.30
  Q 107.44 97.40 107.56 97.38
  Q 107.69 97.35 107.79 97.24
  Q 107.88 97.15 107.79 97.06
  Q 107.67 96.94 107.74 96.79
  Q 107.79 96.67 107.93 96.66
  Q 108.44 96.61 108.45 97.97
  L 108.49 105.82
  Q 108.06 105.40 107.90 104.74
  Q 107.88 104.63 107.80 104.71
  Q 107.70 104.79 107.58 104.86
  Q 107.48 104.91 107.39 104.86
  Q 104.66 103.26 102.03 101.51
  Q 101.94 101.44 99.69 99.50
  Q 98.32 98.32 96.44 97.96
  Q 95.96 97.87 95.59 97.55
  Q 92.30 94.79 88.29 93.19
  L 88.32 84.60
  Z" fill="#5e0ae2"></path>
<path d="M 88.29 93.19
  Q 92.30 94.79 95.59 97.55
  Q 95.96 97.87 96.44 97.96
  Q 98.32 98.32 99.69 99.50
  Q 101.94 101.44 102.03 101.51
  Q 104.66 103.26 107.39 104.86
  Q 107.48 104.91 107.58 104.86
  Q 107.70 104.79 107.80 104.71
  Q 107.88 104.63 107.90 104.74
  Q 108.06 105.40 108.49 105.82
  L 108.47 140.86
  L 88.30 128.54
  L 88.29 93.19
  Z" fill="#4304ee"></path>
<path d="M 73.68 114.61
  L 73.68 126.33
  Q 71.85 126.57 70.25 125.15
  C 68.56 123.65 67.61 123.00 66.12 121.95
  Q 65.73 121.68 65.26 121.59
  C 63.90 121.33 63.15 120.38 62.29 119.85
  Q 59.25 117.99 56.35 115.90
  Q 55.47 115.26 54.40 114.86
  Q 53.95 114.69 53.90 114.22
  Q 53.77 113.02 53.27 113.17
  L 53.25 101.46
  Q 54.16 101.43 56.48 102.91
  Q 58.79 104.37 59.97 105.56
  Q 60.33 105.91 60.82 106.03
  Q 61.62 106.22 62.13 106.88
  Q 62.47 107.33 63.02 107.40
  Q 64.69 107.63 65.57 108.96
  Q 65.86 109.40 66.29 109.70
  L 71.96 113.67
  Q 72.17 113.82 72.44 113.86
  Q 72.93 113.93 73.68 114.61
  Z" fill="#3340ed"></path>
<path d="M 143.29 116.04
  L 143.27 133.45
  Q 136.09 130.00 131.63 126.37
  Q 130.38 125.35 129.53 125.06
  A 2.12 1.93 -12.9 0 1 128.84 124.67
  Q 126.69 122.79 124.10 121.70
  Q 124.04 121.68 124.03 121.62
  Q 124.01 121.46 123.89 121.30
  Q 123.72 121.05 123.64 121.34
  Q 123.43 122.12 123.09 121.78
  L 123.10 103.29
  L 123.25 102.51
  Q 123.37 101.92 123.82 102.31
  Q 127.86 105.86 132.61 108.42
  Q 133.45 108.87 134.08 109.58
  Q 134.39 109.93 134.85 109.88
  C 135.94 109.76 137.17 111.66 138.38 112.14
  Q 138.82 112.32 139.11 112.69
  Q 140.74 114.77 143.29 116.04
  Z" fill="#5e0ae2"></path>
<path d="M 53.27 113.17
  Q 53.77 113.02 53.90 114.22
  Q 53.95 114.69 54.40 114.86
  Q 55.47 115.26 56.35 115.90
  Q 59.25 117.99 62.29 119.85
  C 63.15 120.38 63.90 121.33 65.26 121.59
  Q 65.73 121.68 66.12 121.95
  C 67.61 123.00 68.56 123.65 70.25 125.15
  Q 71.85 126.57 73.68 126.33
  L 73.66 138.63
  Q 68.09 136.56 65.29 134.07
  Q 62.88 131.92 60.81 131.09
  Q 60.36 130.91 60.11 130.48
  Q 59.89 130.09 59.75 130.00
  Q 56.57 128.00 53.27 125.98
  L 53.27 113.17
  Z" fill="#2f57eb"></path>
<path d="M 143.27 133.45
  L 143.28 164.22
  L 142.85 163.68
  Q 142.78 163.60 142.65 163.67
  Q 142.59 163.69 142.55 163.72
  Q 142.42 163.80 142.38 163.75
  Q 142.08 163.40 142.12 163.03
  Q 142.15 162.70 141.90 162.48
  C 140.08 160.92 137.86 160.62 136.19 158.70
  Q 136.13 158.63 136.03 158.63
  Q 135.87 158.63 135.71 158.62
  Q 135.42 158.61 135.22 158.41
  C 133.40 156.57 131.38 155.86 129.40 154.32
  Q 128.57 153.66 127.54 153.31
  Q 127.12 153.16 126.82 152.83
  Q 125.86 151.80 124.54 151.85
  Q 124.12 151.86 124.12 151.45
  L 124.12 150.73
  Q 124.12 150.10 123.55 150.34
  L 123.10 150.53
  L 123.09 121.78
  Q 123.43 122.12 123.64 121.34
  Q 123.72 121.05 123.89 121.30
  Q 124.01 121.46 124.03 121.62
  Q 124.04 121.68 124.10 121.70
  Q 126.69 122.79 128.84 124.67
  A 2.12 1.93 -12.9 0 0 129.53 125.06
  Q 130.38 125.35 131.63 126.37
  Q 136.09 130.00 143.27 133.45
  Z" fill="#4304ee"></path>
<path d="M 53.27 125.98
  Q 56.57 128.00 59.75 130.00
  Q 59.89 130.09 60.11 130.48
  Q 60.36 130.91 60.81 131.09
  Q 62.88 131.92 65.29 134.07
  Q 68.09 136.56 73.66 138.63
  L 73.64 148.82
  L 54.28 137.79
  Q 54.11 137.69 54.12 137.49
  Q 54.12 137.32 54.12 137.15
  Q 54.11 136.32 53.55 136.94
  L 53.28 137.23
  L 53.27 125.98
  Z" fill="#2584e9"></path>
<path d="M 108.47 140.86
  L 108.48 160.66
  Q 102.35 157.40 96.80 153.61
  C 95.41 152.65 94.36 152.56 92.85 150.90
  Q 91.38 149.30 88.30 148.80
  L 88.30 128.54
  L 108.47 140.86
  Z" fill="#2f57eb"></path>
<path d="M 73.64 148.82
  L 73.68 157.20
  C 71.28 157.27 69.71 155.38 68.28 154.48
  C 65.98 153.02 64.12 150.79 61.19 149.99
  Q 60.74 149.87 60.35 149.60
  L 53.30 144.65
  L 53.28 137.23
  L 53.55 136.94
  Q 54.11 136.32 54.12 137.15
  Q 54.12 137.32 54.12 137.49
  Q 54.11 137.69 54.28 137.79
  L 73.64 148.82
  Z" fill="#2198e8"></path>
<path d="M 73.68 157.20
  L 73.70 166.43
  Q 70.25 165.00 68.15 163.28
  Q 66.04 161.54 64.00 160.42
  Q 61.02 158.78 59.97 157.97
  Q 58.09 156.51 56.25 155.00
  Q 54.95 153.94 53.27 154.38
  L 53.30 144.65
  L 60.35 149.60
  Q 60.74 149.87 61.19 149.99
  C 64.12 150.79 65.98 153.02 68.28 154.48
  C 69.71 155.38 71.28 157.27 73.68 157.20
  Z" fill="#1cb3e7"></path>
<path d="M 108.48 160.66
  L 108.48 175.22
  Q 108.02 175.14 107.88 174.24
  Q 107.71 173.19 106.79 173.24
  Q 106.38 173.27 106.04 173.02
  C 104.22 171.69 102.61 169.70 100.46 168.83
  Q 99.14 168.30 98.25 167.55
  Q 93.66 163.69 88.31 160.36
  L 88.30 148.80
  Q 91.38 149.30 92.85 150.90
  C 94.36 152.56 95.41 152.65 96.80 153.61
  Q 102.35 157.40 108.48 160.66
  Z" fill="#2584e9"></path>
<path d="M 143.28 164.22
  L 143.28 176.22
  Q 138.69 174.14 137.49 173.15
  Q 133.28 169.67 130.79 168.41
  Q 130.40 168.21 130.17 167.83
  Q 129.28 166.30 127.53 165.84
  Q 127.11 165.72 126.77 165.44
  Q 123.35 162.53 123.10 165.71
  L 123.10 150.53
  L 123.55 150.34
  Q 124.12 150.10 124.12 150.73
  L 124.12 151.45
  Q 124.12 151.86 124.54 151.85
  Q 125.86 151.80 126.82 152.83
  Q 127.12 153.16 127.54 153.31
  Q 128.57 153.66 129.40 154.32
  C 131.38 155.86 133.40 156.57 135.22 158.41
  Q 135.42 158.61 135.71 158.62
  Q 135.87 158.63 136.03 158.63
  Q 136.13 158.63 136.19 158.70
  C 137.86 160.62 140.08 160.92 141.90 162.48
  Q 142.15 162.70 142.12 163.03
  Q 142.08 163.40 142.38 163.75
  Q 142.42 163.80 142.55 163.72
  Q 142.59 163.69 142.65 163.67
  Q 142.78 163.60 142.85 163.68
  L 143.28 164.22
  Z" fill="#3340ed"></path>
<path d="M 73.70 166.43
  L 73.62 195.17
  Q 73.62 195.68 73.10 195.69
  C 63.52 195.87 53.56 195.72 53.51 183.11
  Q 53.46 168.89 53.27 154.38
  Q 54.95 153.94 56.25 155.00
  Q 58.09 156.51 59.97 157.97
  Q 61.02 158.78 64.00 160.42
  Q 66.04 161.54 68.15 163.28
  Q 70.25 165.00 73.70 166.43
  Z" fill="#16d1e5"></path>
<path d="M 88.31 160.36
  Q 93.66 163.69 98.25 167.55
  Q 99.14 168.30 100.46 168.83
  C 102.61 169.70 104.22 171.69 106.04 173.02
  Q 106.38 173.27 106.79 173.24
  Q 107.71 173.19 107.88 174.24
  Q 108.02 175.14 108.48 175.22
  Q 108.40 176.26 109.00 176.22
  Q 114.67 175.82 122.95 176.18
  Q 122.07 177.37 123.88 178.13
  Q 124.34 178.31 124.75 178.58
  L 141.05 189.00
  Q 137.93 193.37 132.64 195.03
  L 114.89 183.63
  Q 114.47 183.37 114.21 182.95
  Q 113.04 181.10 111.99 180.64
  Q 107.41 178.62 103.46 175.56
  Q 101.33 173.91 98.94 172.73
  Q 96.19 171.37 94.39 170.02
  Q 91.48 167.86 88.30 166.02
  L 88.31 160.36
  Z" fill="#2198e8"></path>
<path d="M 143.28 176.22
  C 143.40 180.77 143.77 185.04 141.05 189.00
  L 124.75 178.58
  Q 124.34 178.31 123.88 178.13
  Q 122.07 177.37 122.95 176.18
  L 123.10 165.71
  Q 123.35 162.53 126.77 165.44
  Q 127.11 165.72 127.53 165.84
  Q 129.28 166.30 130.17 167.83
  Q 130.40 168.21 130.79 168.41
  Q 133.28 169.67 137.49 173.15
  Q 138.69 174.14 143.28 176.22
  Z" fill="#2970ea"></path>
<path d="M 88.30 166.02
  Q 91.48 167.86 94.39 170.02
  Q 96.19 171.37 98.94 172.73
  Q 101.33 173.91 103.46 175.56
  Q 107.41 178.62 111.99 180.64
  Q 113.04 181.10 114.21 182.95
  Q 114.47 183.37 114.89 183.63
  L 132.64 195.03
  Q 124.17 196.33 115.26 195.66
  Q 115.39 193.58 113.50 193.24
  Q 113.09 193.17 112.76 192.92
  L 106.81 188.47
  A 0.25 0.24 64.5 0 0 106.65 188.41
  Q 105.67 188.31 105.08 187.49
  Q 104.73 187.01 104.18 186.78
  Q 103.15 186.37 102.31 185.65
  C 100.90 184.44 100.10 184.02 98.58 183.38
  A 1.40 1.39 88.0 0 1 97.88 182.72
  Q 97.70 182.36 97.39 182.11
  Q 93.19 178.78 88.31 177.41
  L 88.30 166.02
  Z" fill="#1cb3e7"></path>
<path d="M 88.31 177.41
  Q 93.19 178.78 97.39 182.11
  Q 97.70 182.36 97.88 182.72
  A 1.40 1.39 88.0 0 0 98.58 183.38
  C 100.10 184.02 100.90 184.44 102.31 185.65
  Q 103.15 186.37 104.18 186.78
  Q 104.73 187.01 105.08 187.49
  Q 105.67 188.31 106.65 188.41
  A 0.25 0.24 64.5 0 1 106.81 188.47
  L 112.76 192.92
  Q 113.09 193.17 113.50 193.24
  Q 115.39 193.58 115.26 195.66
  L 88.84 195.71
  Q 88.31 195.71 88.31 195.18
  L 88.31 177.41
  Z" fill="#16d1e5"></path>
</svg>
