<svg viewBox="0.00 0.00 256.00 256.00" version="1.1" xmlns="http://www.w3.org/2000/svg">
<g stroke-linecap="butt" fill="none" stroke-width="2.00">
<path d="M 130.1908 212.4995
  A 83.31 83.09 89.8 0 0 212.9895 128.9000
  A 83.31 83.09 89.8 0 0 129.6092 45.8805
  A 83.31 83.09 89.8 0 0 46.8105 129.4800
  A 83.31 83.09 89.8 0 0 130.1908 212.4995" stroke="#9ab8ff"></path>
<path d="M 133.66 140.20
  L 117.74 167.76
  A 0.31 0.31 0.0 0 0 118.01 168.22
  L 128.98 168.22
  Q 129.53 168.22 129.81 167.74
  Q 137.88 154.04 145.18 139.93
  C 148.89 132.76 151.32 125.82 150.78 119.26
  C 149.63 105.28 140.12 97.45 126.74 97.53
  C 111.60 97.63 101.15 108.54 103.28 124.17
  Q 104.29 131.63 109.20 136.55
  C 115.23 142.60 125.99 144.57 133.52 140.06
  Q 133.86 139.85 133.66 140.20" stroke="#9ab8ff"></path>
<path d="M 127.3833 133.8180
  A 13.69 13.45 87.6 0 0 140.2482 119.5768
  A 13.69 13.45 87.6 0 0 126.2367 106.4620
  A 13.69 13.45 87.6 0 0 113.3718 120.7032
  A 13.69 13.45 87.6 0 0 127.3833 133.8180" stroke="#9ab8ff"></path>
</g>
<path d="M 252.45 206.12
  A 47.03 47.03 0.0 0 1 205.42 253.15
  L 50.34 253.15
  A 47.03 47.03 0.0 0 1 3.31 206.12
  L 3.31 50.34
  A 47.03 47.03 0.0 0 1 50.34 3.31
  L 205.42 3.31
  A 47.03 47.03 0.0 0 1 252.45 50.34
  L 252.45 206.12
  Z
  M 130.1908 212.4995
  A 83.31 83.09 89.8 0 0 212.9895 128.9000
  A 83.31 83.09 89.8 0 0 129.6092 45.8805
  A 83.31 83.09 89.8 0 0 46.8105 129.4800
  A 83.31 83.09 89.8 0 0 130.1908 212.4995
  Z" fill="#3570ff"></path>
<path d="M 130.1908 212.4995
  A 83.31 83.09 89.8 0 1 46.8105 129.4800
  A 83.31 83.09 89.8 0 1 129.6092 45.8805
  A 83.31 83.09 89.8 0 1 212.9895 128.9000
  A 83.31 83.09 89.8 0 1 130.1908 212.4995
  Z
  M 133.66 140.20
  L 117.74 167.76
  A 0.31 0.31 0.0 0 0 118.01 168.22
  L 128.98 168.22
  Q 129.53 168.22 129.81 167.74
  Q 137.88 154.04 145.18 139.93
  C 148.89 132.76 151.32 125.82 150.78 119.26
  C 149.63 105.28 140.12 97.45 126.74 97.53
  C 111.60 97.63 101.15 108.54 103.28 124.17
  Q 104.29 131.63 109.20 136.55
  C 115.23 142.60 125.99 144.57 133.52 140.06
  Q 133.86 139.85 133.66 140.20
  Z" fill="#ffffff"></path>
<path d="M 133.52 140.06
  C 125.99 144.57 115.23 142.60 109.20 136.55
  Q 104.29 131.63 103.28 124.17
  C 101.15 108.54 111.60 97.63 126.74 97.53
  C 140.12 97.45 149.63 105.28 150.78 119.26
  C 151.32 125.82 148.89 132.76 145.18 139.93
  Q 137.88 154.04 129.81 167.74
  Q 129.53 168.22 128.98 168.22
  L 118.01 168.22
  A 0.31 0.31 0.0 0 1 117.74 167.76
  L 133.66 140.20
  Q 133.86 139.85 133.52 140.06
  Z
  M 127.3833 133.8180
  A 13.69 13.45 87.6 0 0 140.2482 119.5768
  A 13.69 13.45 87.6 0 0 126.2367 106.4620
  A 13.69 13.45 87.6 0 0 113.3718 120.7032
  A 13.69 13.45 87.6 0 0 127.3833 133.8180
  Z" fill="#3570ff"></path>
<ellipse ry="13.45" rx="13.69" transform="translate(126.81,120.14) rotate(87.6)" cy="0.00" cx="0.00" fill="#ffffff"></ellipse>
</svg>
