<svg viewBox="0.00 0.00 256.00 256.00" version="1.1" xmlns="http://www.w3.org/2000/svg">
<g stroke-linecap="butt" fill="none" stroke-width="2.00">
<path d="M 42.63 108.97
  Q 42.61 127.87 42.65 146.95
  C 42.67 154.53 43.27 160.03 48.32 164.99
  C 55.95 172.47 70.80 172.74 80.81 170.19
  Q 81.37 170.05 81.37 169.48
  L 81.38 152.95
  Q 81.38 152.21 80.68 152.46
  Q 74.50 154.70 70.41 153.43
  C 66.18 152.12 65.96 147.03 65.94 143.00
  Q 65.87 125.86 65.86 108.75
  A 0.38 0.38 0.0 0 1 66.24 108.37
  L 88.89 108.37
  A 0.26 0.26 0.0 0 0 89.15 108.11
  L 89.14 91.01
  Q 89.13 90.39 88.51 90.39
  L 66.50 90.38
  Q 65.87 90.38 65.87 89.75
  L 65.86 64.50
  A 0.37 0.37 0.0 0 0 65.49 64.13
  L 43.01 64.13
  A 0.40 0.40 0.0 0 0 42.61 64.54
  Q 42.83 74.20 42.00 83.73
  Q 41.48 89.83 35.42 90.18
  Q 30.14 90.48 24.70 90.35
  Q 24.25 90.33 24.25 90.79
  L 24.25 107.81
  Q 24.25 108.36 24.81 108.36
  L 42.03 108.37
  Q 42.63 108.37 42.63 108.97" stroke="#8c8c8c"></path>
<path d="M 126.37 99.52
  L 126.38 91.01
  Q 126.38 90.39 125.76 90.39
  L 103.33 90.38
  A 0.22 0.21 -90.0 0 0 103.12 90.60
  L 103.12 169.63
  A 0.37 0.37 0.0 0 0 103.49 170.00
  L 126.00 170.00
  A 0.41 0.41 0.0 0 0 126.41 169.59
  Q 126.34 149.09 126.31 128.50
  C 126.29 119.57 129.83 109.59 139.76 108.85
  C 149.86 108.09 152.88 115.31 152.88 124.02
  Q 152.88 146.85 152.87 169.61
  A 0.39 0.39 0.0 0 0 153.26 170.00
  L 175.73 170.00
  A 0.28 0.28 0.0 0 0 176.01 169.72
  Q 175.97 149.73 176.03 129.68
  C 176.05 119.88 178.83 107.80 191.51 108.79
  C 200.11 109.46 202.36 116.05 202.38 123.50
  Q 202.43 146.57 202.36 169.62
  A 0.38 0.38 0.0 0 0 202.74 170.00
  L 224.99 170.00
  Q 225.61 170.00 225.62 169.38
  Q 225.66 143.67 225.58 117.96
  C 225.55 107.11 221.44 94.77 211.26 90.77
  C 197.53 85.38 181.51 90.39 174.08 103.73
  A 0.42 0.42 0.0 0 1 173.31 103.65
  C 166.87 83.78 138.16 84.96 127.27 99.81
  Q 126.37 101.04 126.37 99.52" stroke="#8c8c8c"></path>
</g>
<path d="M 0.00 0.00
  L 256.00 0.00
  L 256.00 256.00
  L 0.00 256.00
  L 0.00 0.00
  Z
  M 42.63 108.97
  Q 42.61 127.87 42.65 146.95
  C 42.67 154.53 43.27 160.03 48.32 164.99
  C 55.95 172.47 70.80 172.74 80.81 170.19
  Q 81.37 170.05 81.37 169.48
  L 81.38 152.95
  Q 81.38 152.21 80.68 152.46
  Q 74.50 154.70 70.41 153.43
  C 66.18 152.12 65.96 147.03 65.94 143.00
  Q 65.87 125.86 65.86 108.75
  A 0.38 0.38 0.0 0 1 66.24 108.37
  L 88.89 108.37
  A 0.26 0.26 0.0 0 0 89.15 108.11
  L 89.14 91.01
  Q 89.13 90.39 88.51 90.39
  L 66.50 90.38
  Q 65.87 90.38 65.87 89.75
  L 65.86 64.50
  A 0.37 0.37 0.0 0 0 65.49 64.13
  L 43.01 64.13
  A 0.40 0.40 0.0 0 0 42.61 64.54
  Q 42.83 74.20 42.00 83.73
  Q 41.48 89.83 35.42 90.18
  Q 30.14 90.48 24.70 90.35
  Q 24.25 90.33 24.25 90.79
  L 24.25 107.81
  Q 24.25 108.36 24.81 108.36
  L 42.03 108.37
  Q 42.63 108.37 42.63 108.97
  Z
  M 126.37 99.52
  L 126.38 91.01
  Q 126.38 90.39 125.76 90.39
  L 103.33 90.38
  A 0.22 0.21 -90.0 0 0 103.12 90.60
  L 103.12 169.63
  A 0.37 0.37 0.0 0 0 103.49 170.00
  L 126.00 170.00
  A 0.41 0.41 0.0 0 0 126.41 169.59
  Q 126.34 149.09 126.31 128.50
  C 126.29 119.57 129.83 109.59 139.76 108.85
  C 149.86 108.09 152.88 115.31 152.88 124.02
  Q 152.88 146.85 152.87 169.61
  A 0.39 0.39 0.0 0 0 153.26 170.00
  L 175.73 170.00
  A 0.28 0.28 0.0 0 0 176.01 169.72
  Q 175.97 149.73 176.03 129.68
  C 176.05 119.88 178.83 107.80 191.51 108.79
  C 200.11 109.46 202.36 116.05 202.38 123.50
  Q 202.43 146.57 202.36 169.62
  A 0.38 0.38 0.0 0 0 202.74 170.00
  L 224.99 170.00
  Q 225.61 170.00 225.62 169.38
  Q 225.66 143.67 225.58 117.96
  C 225.55 107.11 221.44 94.77 211.26 90.77
  C 197.53 85.38 181.51 90.39 174.08 103.73
  A 0.42 0.42 0.0 0 1 173.31 103.65
  C 166.87 83.78 138.16 84.96 127.27 99.81
  Q 126.37 101.04 126.37 99.52
  Z" fill="#191919"></path>
<path d="M 42.63 108.97
  Q 42.63 108.37 42.03 108.37
  L 24.81 108.36
  Q 24.25 108.36 24.25 107.81
  L 24.25 90.79
  Q 24.25 90.33 24.70 90.35
  Q 30.14 90.48 35.42 90.18
  Q 41.48 89.83 42.00 83.73
  Q 42.83 74.20 42.61 64.54
  A 0.40 0.40 0.0 0 1 43.01 64.13
  L 65.49 64.13
  A 0.37 0.37 0.0 0 1 65.86 64.50
  L 65.87 89.75
  Q 65.87 90.38 66.50 90.38
  L 88.51 90.39
  Q 89.13 90.39 89.14 91.01
  L 89.15 108.11
  A 0.26 0.26 0.0 0 1 88.89 108.37
  L 66.24 108.37
  A 0.38 0.38 0.0 0 0 65.86 108.75
  Q 65.87 125.86 65.94 143.00
  C 65.96 147.03 66.18 152.12 70.41 153.43
  Q 74.50 154.70 80.68 152.46
  Q 81.38 152.21 81.38 152.95
  L 81.37 169.48
  Q 81.37 170.05 80.81 170.19
  C 70.80 172.74 55.95 172.47 48.32 164.99
  C 43.27 160.03 42.67 154.53 42.65 146.95
  Q 42.61 127.87 42.63 108.97
  Z" fill="#ffffff"></path>
<path d="M 126.37 99.52
  Q 126.37 101.04 127.27 99.81
  C 138.16 84.96 166.87 83.78 173.31 103.65
  A 0.42 0.42 0.0 0 0 174.08 103.73
  C 181.51 90.39 197.53 85.38 211.26 90.77
  C 221.44 94.77 225.55 107.11 225.58 117.96
  Q 225.66 143.67 225.62 169.38
  Q 225.61 170.00 224.99 170.00
  L 202.74 170.00
  A 0.38 0.38 0.0 0 1 202.36 169.62
  Q 202.43 146.57 202.38 123.50
  C 202.36 116.05 200.11 109.46 191.51 108.79
  C 178.83 107.80 176.05 119.88 176.03 129.68
  Q 175.97 149.73 176.01 169.72
  A 0.28 0.28 0.0 0 1 175.73 170.00
  L 153.26 170.00
  A 0.39 0.39 0.0 0 1 152.87 169.61
  Q 152.88 146.85 152.88 124.02
  C 152.88 115.31 149.86 108.09 139.76 108.85
  C 129.83 109.59 126.29 119.57 126.31 128.50
  Q 126.34 149.09 126.41 169.59
  A 0.41 0.41 0.0 0 1 126.00 170.00
  L 103.49 170.00
  A 0.37 0.37 0.0 0 1 103.12 169.63
  L 103.12 90.60
  A 0.22 0.21 -90.0 0 1 103.33 90.38
  L 125.76 90.39
  Q 126.38 90.39 126.38 91.01
  L 126.37 99.52
  Z" fill="#ffffff"></path>
</svg>
