<svg viewBox="0.00 0.00 256.00 256.00" version="1.1" xmlns="http://www.w3.org/2000/svg">
<path d="M 124.57 0.00
  L 128.74 0.00
  C 140.74 2.14 148.54 12.70 154.32 22.70
  Q 159.18 31.10 163.93 39.33
  Q 164.32 40.01 165.09 39.80
  Q 177.25 36.37 189.24 33.02
  C 203.55 29.03 220.87 30.54 223.31 48.77
  C 225.23 63.06 219.53 77.08 215.97 90.44
  A 0.66 0.65 22.1 0 0 216.29 91.18
  Q 228.48 98.01 240.63 104.91
  C 247.93 109.06 254.19 115.61 256.00 123.78
  L 256.00 128.29
  C 253.88 138.01 246.17 145.74 237.58 150.79
  Q 227.46 156.74 217.29 162.54
  Q 216.86 162.78 217.00 163.25
  Q 220.67 176.21 224.27 189.20
  C 227.48 200.77 227.41 214.82 215.06 220.29
  C 207.77 223.52 197.51 223.20 189.50 221.19
  Q 181.11 219.09 166.33 214.99
  Q 165.84 214.86 165.59 215.30
  Q 159.22 226.40 152.79 237.46
  C 147.80 246.07 141.91 253.79 131.91 256.00
  L 126.97 256.00
  C 117.41 254.00 109.63 245.97 104.75 237.81
  Q 98.23 226.89 92.07 216.02
  A 0.70 0.70 0.0 0 0 91.27 215.69
  Q 79.00 219.08 66.72 222.28
  C 55.90 225.10 41.56 226.24 35.22 215.26
  C 30.87 207.72 31.24 196.44 33.59 187.77
  Q 36.73 176.25 39.97 164.79
  A 0.79 0.79 0.0 0 0 39.58 163.88
  Q 28.28 157.54 17.31 151.18
  C 9.55 146.68 1.94 140.37 0.00 131.13
  L 0.00 126.45
  C 2.53 115.22 11.69 107.81 21.24 102.43
  Q 30.30 97.33 39.26 92.33
  A 0.58 0.58 0.0 0 0 39.54 91.67
  Q 35.71 77.74 31.81 64.01
  Q 30.96 61.01 30.71 55.83
  C 29.57 31.83 50.76 29.60 68.56 34.19
  Q 79.63 37.04 90.73 40.14
  Q 91.23 40.28 91.49 39.82
  Q 97.41 29.16 103.43 18.43
  C 107.99 10.29 114.99 2.01 124.57 0.00
  Z
  M 114.07 48.15
  Q 105.14 67.70 96.89 87.49
  Q 96.44 88.58 97.37 87.85
  C 112.80 75.75 128.56 63.47 143.32 50.25
  A 0.54 0.53 54.0 0 0 143.42 49.58
  Q 137.74 39.56 132.04 29.76
  C 129.72 25.77 124.74 27.39 122.80 30.77
  Q 118.89 37.59 114.07 48.15
  Z
  M 79.04 113.89
  Q 81.71 89.34 83.90 63.00
  Q 83.99 61.89 82.92 61.59
  Q 73.35 58.93 63.12 56.22
  Q 59.89 55.36 58.33 55.80
  C 54.78 56.79 54.47 61.43 55.50 64.20
  Q 65.87 92.09 77.92 119.32
  Q 78.14 119.82 78.24 119.28
  Q 78.75 116.56 79.04 113.89
  Z
  M 133.09 78.24
  C 150.72 80.20 169.87 82.20 186.00 83.40
  Q 189.82 83.69 193.61 83.51
  Q 194.11 83.48 194.24 83.00
  Q 196.92 73.35 199.57 63.66
  C 202.59 52.62 192.61 55.25 185.96 57.60
  Q 159.24 67.02 133.04 77.90
  Q 132.39 78.17 133.09 78.24
  Z
  M 126.75 162.10
  A 1.28 1.28 0.0 0 0 127.73 162.10
  L 151.19 152.37
  A 1.28 1.28 0.0 0 0 151.88 151.68
  L 161.59 128.24
  A 1.28 1.28 0.0 0 0 161.59 127.26
  L 151.88 103.80
  A 1.28 1.28 0.0 0 0 151.19 103.11
  L 127.72 93.39
  A 1.28 1.28 0.0 0 0 126.74 93.39
  L 103.28 103.11
  A 1.28 1.28 0.0 0 0 102.59 103.80
  L 92.87 127.26
  A 1.28 1.28 0.0 0 0 92.87 128.24
  L 102.58 151.68
  A 1.28 1.28 0.0 0 0 103.27 152.37
  L 126.75 162.10
  Z
  M 215.06 117.00
  C 199.43 110.03 183.87 103.07 168.06 96.75
  Q 167.03 96.34 167.74 97.19
  C 180.09 112.26 192.53 127.84 205.94 142.14
  Q 206.35 142.57 206.86 142.27
  Q 215.39 137.38 223.74 132.58
  C 235.84 125.64 221.51 119.88 215.06 117.00
  Z
  M 49.67 112.71
  C 42.92 115.82 36.09 120.14 29.62 123.86
  Q 27.50 125.08 27.55 127.63
  C 27.59 130.07 29.63 132.31 31.75 133.28
  Q 59.41 145.93 86.67 158.43
  Q 87.86 158.97 87.03 157.96
  L 50.53 112.91
  Q 50.18 112.47 49.67 112.71
  Z
  M 178.95 134.30
  Q 178.79 133.90 178.61 134.30
  Q 178.27 135.09 178.13 136.24
  Q 175.06 161.70 172.79 187.25
  Q 172.55 189.90 172.53 192.64
  Q 172.53 193.15 173.02 193.28
  Q 183.07 195.95 193.13 198.66
  Q 196.84 199.66 198.69 199.03
  C 201.69 198.01 202.21 194.19 201.19 191.07
  C 194.86 171.76 186.83 153.10 178.95 134.30
  Z
  M 139.96 212.88
  Q 150.35 190.81 159.51 168.40
  Q 159.88 167.50 159.11 168.09
  C 143.54 179.97 127.54 192.05 112.73 205.14
  A 0.65 0.64 -36.0 0 0 112.60 205.94
  Q 117.75 214.95 123.02 224.10
  C 125.79 228.89 130.05 231.12 133.57 225.07
  Q 137.03 219.11 139.96 212.88
  Z
  M 55.58 193.42
  C 54.34 197.78 57.69 200.83 62.01 199.90
  Q 67.49 198.71 72.78 196.82
  Q 97.88 187.86 122.53 178.18
  Q 123.13 177.94 122.49 177.88
  L 62.48 171.73
  Q 61.95 171.67 61.79 172.19
  Q 58.59 182.82 55.58 193.42
  Z" fill="#1d2338"></path>
</svg>
