<svg viewBox="0.00 0.00 183.00 183.00" version="1.1" xmlns="http://www.w3.org/2000/svg">
<g stroke-linecap="butt" fill="none" stroke-width="2.00">
<path d="M 54.01 72.26
  L 43.27 72.25
  Q 42.78 72.25 42.78 72.74
  L 42.78 89.02
  Q 42.78 89.51 43.27 89.51
  L 54.17 89.52
  A 0.40 0.40 0.0 0 1 54.57 89.92
  L 54.57 130.08
  Q 54.57 130.58 55.08 130.58
  L 74.20 130.58
  A 2.28 2.27 90.0 0 0 76.47 128.30
  L 76.37 53.19
  Q 76.37 52.26 75.44 52.26
  L 55.01 52.26
  Q 54.53 52.26 54.53 52.74
  L 54.53 71.74
  Q 54.53 72.26 54.01 72.26" stroke="#ea8ea2"></path>
<path d="M 124.53 101.02
  A 0.30 0.30 0.0 0 1 124.53 101.54
  L 101.91 114.89
  A 0.30 0.30 0.0 0 1 101.46 114.63
  L 101.47 53.74
  A 1.48 1.48 0.0 0 0 99.99 52.26
  L 79.80 52.26
  A 0.23 0.22 0.0 0 0 79.57 52.48
  Q 79.52 73.84 79.67 95.09
  Q 79.74 105.49 81.27 110.27
  Q 85.62 123.91 100.50 129.11
  C 110.82 132.73 121.31 129.73 129.40 122.90
  C 141.76 112.46 143.96 94.98 133.43 82.32
  C 126.85 74.40 116.20 69.94 105.96 71.58
  A 2.12 2.11 85.7 0 0 104.18 73.66
  L 104.15 86.52
  A 4.31 4.29 -74.8 0 0 106.27 90.25
  L 124.53 101.02" stroke="#ea8ea2"></path>
</g>
<path d="M 86.91 0.00
  L 96.22 0.00
  C 143.84 3.49 180.03 39.41 183.00 87.16
  L 183.00 95.96
  C 179.82 143.81 143.46 180.01 95.60 183.00
  L 87.28 183.00
  C 39.44 179.93 3.11 143.69 0.00 95.85
  L 0.00 86.78
  C 3.38 39.25 39.32 3.19 86.91 0.00
  Z
  M 54.01 72.26
  L 43.27 72.25
  Q 42.78 72.25 42.78 72.74
  L 42.78 89.02
  Q 42.78 89.51 43.27 89.51
  L 54.17 89.52
  A 0.40 0.40 0.0 0 1 54.57 89.92
  L 54.57 130.08
  Q 54.57 130.58 55.08 130.58
  L 74.20 130.58
  A 2.28 2.27 90.0 0 0 76.47 128.30
  L 76.37 53.19
  Q 76.37 52.26 75.44 52.26
  L 55.01 52.26
  Q 54.53 52.26 54.53 52.74
  L 54.53 71.74
  Q 54.53 72.26 54.01 72.26
  Z
  M 124.53 101.02
  A 0.30 0.30 0.0 0 1 124.53 101.54
  L 101.91 114.89
  A 0.30 0.30 0.0 0 1 101.46 114.63
  L 101.47 53.74
  A 1.48 1.48 0.0 0 0 99.99 52.26
  L 79.80 52.26
  A 0.23 0.22 0.0 0 0 79.57 52.48
  Q 79.52 73.84 79.67 95.09
  Q 79.74 105.49 81.27 110.27
  Q 85.62 123.91 100.50 129.11
  C 110.82 132.73 121.31 129.73 129.40 122.90
  C 141.76 112.46 143.96 94.98 133.43 82.32
  C 126.85 74.40 116.20 69.94 105.96 71.58
  A 2.12 2.11 85.7 0 0 104.18 73.66
  L 104.15 86.52
  A 4.31 4.29 -74.8 0 0 106.27 90.25
  L 124.53 101.02
  Z" fill="#d92145"></path>
<path d="M 54.53 71.74
  L 54.53 52.74
  Q 54.53 52.26 55.01 52.26
  L 75.44 52.26
  Q 76.37 52.26 76.37 53.19
  L 76.47 128.30
  A 2.28 2.27 -90.0 0 1 74.20 130.58
  L 55.08 130.58
  Q 54.57 130.58 54.57 130.08
  L 54.57 89.92
  A 0.40 0.40 0.0 0 0 54.17 89.52
  L 43.27 89.51
  Q 42.78 89.51 42.78 89.02
  L 42.78 72.74
  Q 42.78 72.25 43.27 72.25
  L 54.01 72.26
  Q 54.53 72.26 54.53 71.74
  Z" fill="#fafaff"></path>
<path d="M 124.53 101.02
  L 106.27 90.25
  A 4.31 4.29 -74.8 0 1 104.15 86.52
  L 104.18 73.66
  A 2.12 2.11 85.7 0 1 105.96 71.58
  C 116.20 69.94 126.85 74.40 133.43 82.32
  C 143.96 94.98 141.76 112.46 129.40 122.90
  C 121.31 129.73 110.82 132.73 100.50 129.11
  Q 85.62 123.91 81.27 110.27
  Q 79.74 105.49 79.67 95.09
  Q 79.52 73.84 79.57 52.48
  A 0.23 0.22 0.0 0 1 79.80 52.26
  L 99.99 52.26
  A 1.48 1.48 0.0 0 1 101.47 53.74
  L 101.46 114.63
  A 0.30 0.30 0.0 0 0 101.91 114.89
  L 124.53 101.54
  A 0.30 0.30 0.0 0 0 124.53 101.02
  Z" fill="#fafaff"></path>
</svg>
