<svg viewBox="0.00 0.00 192.00 192.00" version="1.1" xmlns="http://www.w3.org/2000/svg">
<g stroke-linecap="butt" fill="none" stroke-width="2.00">
<path d="M 49.57 95.51
  Q 47.12 102.99 48.15 112.17
  Q 48.20 112.63 48.57 112.89
  L 54.61 117.15" stroke="#e1a283"></path>
<path d="M 54.61 117.15
  Q 56.83 120.95 59.31 123.20
  Q 67.05 130.27 74.77 137.39
  C 78.00 140.37 80.42 143.87 83.12 147.33
  C 86.24 151.32 91.16 153.47 95.57 155.60
  A 1.29 1.29 0.0 0 0 96.69 155.60
  C 100.72 153.69 106.14 151.37 108.94 147.75
  C 111.48 144.46 113.85 141.19 116.76 138.32
  Q 124.09 131.11 131.80 124.31
  Q 134.44 121.98 137.27 117.87" stroke="#e2c7ad"></path>
<path d="M 137.27 117.87
  L 144.00 112.78
  Q 144.41 112.48 144.42 111.97
  Q 144.59 106.58 144.39 101.30
  C 144.31 99.07 143.00 97.53 142.56 95.41" stroke="#e1a283"></path>
<path d="M 142.56 95.41
  L 150.79 36.84
  A 0.50 0.49 77.7 0 0 150.04 36.35
  L 106.57 64.71" stroke="#e4ac7f"></path>
<path d="M 106.57 64.71
  L 85.75 64.69" stroke="#e1a283"></path>
<path d="M 85.75 64.69
  L 41.85 36.41
  A 0.34 0.34 0.0 0 0 41.33 36.75
  L 49.57 95.51" stroke="#e4ac7f"></path>
<path d="M 85.75 64.69
  Q 77.29 72.95 68.95 80.70
  Q 65.21 84.17 60.57 86.25
  A 1.22 1.21 -49.2 0 1 59.77 86.31
  L 56.65 85.49
  A 2.66 2.66 0.0 0 0 53.39 87.44
  Q 52.42 91.46 49.57 95.51" stroke="#df681d"></path>
<path d="M 137.27 117.87
  Q 134.29 119.09 131.78 120.79
  Q 116.83 130.92 102.03 141.16" stroke="#dd834b"></path>
<path d="M 102.03 141.16
  Q 95.98 138.62 90.36 141.16" stroke="#6e2f10"></path>
<path d="M 90.36 141.16
  L 54.61 117.15" stroke="#dd834b"></path>
<path d="M 90.36 141.16
  L 90.25 146.31
  A 0.88 0.88 0.0 0 0 90.61 147.04
  Q 94.05 149.59 95.46 149.86
  C 97.31 150.22 100.38 147.94 101.66 147.23
  Q 102.16 146.96 102.14 146.39
  L 102.03 141.16" stroke="#6f543b"></path>
<path d="M 142.56 95.41
  Q 139.68 91.75 138.55 87.48
  Q 138.42 86.98 138.07 86.60
  L 136.93 85.36
  A 3.21 3.21 0.0 0 0 132.82 84.83
  Q 131.47 85.70 129.65 85.63
  A 1.50 1.48 67.4 0 1 128.74 85.25
  L 106.57 64.71" stroke="#df681d"></path>
<path d="M 77.93 106.84
  L 71.65 107.29
  Q 70.09 107.41 71.20 108.52
  L 75.00 112.34
  Q 76.06 113.40 77.54 113.13
  L 83.75 111.99" stroke="#6e2f10"></path>
<path d="M 83.75 111.99
  Q 83.59 112.66 84.46 112.99
  Q 84.84 113.13 84.88 113.54
  Q 84.90 113.77 84.99 113.99
  Q 89.66 125.31 94.61 136.51
  Q 94.89 137.16 94.81 138.45
  Q 94.78 138.94 95.20 139.19
  Q 95.94 139.64 96.63 139.15
  Q 96.95 138.92 96.87 138.53
  Q 96.80 138.20 96.90 138.01
  Q 99.21 133.50 101.23 128.85
  Q 104.97 120.21 108.51 111.74" stroke="#df681d"></path>
<path d="M 108.51 111.74
  Q 111.76 112.58 114.44 113.26
  C 116.82 113.87 120.02 109.66 121.49 108.09
  A 0.44 0.43 -67.7 0 0 121.19 107.36
  L 113.40 107.05" stroke="#6e2f10"></path>
<path d="M 113.40 107.05
  Q 112.87 106.77 114.56 105.69
  A 0.90 0.89 -22.9 0 0 114.95 104.74
  L 114.55 103.01
  A 0.56 0.55 -16.9 0 0 113.81 102.62
  Q 113.02 102.91 112.17 102.61
  Q 111.73 102.46 111.75 101.98
  L 111.91 99.05
  Q 111.94 98.49 111.39 98.38
  Q 109.51 97.99 105.99 97.92
  Q 94.09 97.71 85.10 98.84
  A 0.78 0.63 20.3 0 0 84.83 98.93
  L 80.95 101.21
  A 0.66 0.64 74.7 0 0 80.63 101.79
  Q 80.72 104.01 78.59 104.41
  A 0.68 0.66 8.5 0 0 78.13 104.74
  Q 77.37 106.06 77.93 106.84" stroke="#df681d"></path>
<path d="M 113.40 107.05
  L 108.51 111.74" stroke="#71390d"></path>
<path d="M 83.75 111.99
  Q 81.46 108.67 77.93 106.84" stroke="#71390d"></path>
</g>
<path d="M 91.14 0.00
  L 100.74 0.00
  C 150.77 3.32 188.52 41.17 192.00 91.14
  L 192.00 100.99
  C 188.51 150.95 150.58 188.66 100.63 192.00
  L 91.03 192.00
  C 41.21 188.64 3.63 150.83 0.00 101.10
  L 0.00 90.78
  C 3.58 40.99 41.37 3.45 91.14 0.00
  Z
  M 49.57 95.51
  Q 47.12 102.99 48.15 112.17
  Q 48.20 112.63 48.57 112.89
  L 54.61 117.15
  Q 56.83 120.95 59.31 123.20
  Q 67.05 130.27 74.77 137.39
  C 78.00 140.37 80.42 143.87 83.12 147.33
  C 86.24 151.32 91.16 153.47 95.57 155.60
  A 1.29 1.29 0.0 0 0 96.69 155.60
  C 100.72 153.69 106.14 151.37 108.94 147.75
  C 111.48 144.46 113.85 141.19 116.76 138.32
  Q 124.09 131.11 131.80 124.31
  Q 134.44 121.98 137.27 117.87
  L 144.00 112.78
  Q 144.41 112.48 144.42 111.97
  Q 144.59 106.58 144.39 101.30
  C 144.31 99.07 143.00 97.53 142.56 95.41
  L 150.79 36.84
  A 0.50 0.49 77.7 0 0 150.04 36.35
  L 106.57 64.71
  L 85.75 64.69
  L 41.85 36.41
  A 0.34 0.34 0.0 0 0 41.33 36.75
  L 49.57 95.51
  Z" fill="#e6e5e5"></path>
<path d="M 85.75 64.69
  Q 77.29 72.95 68.95 80.70
  Q 65.21 84.17 60.57 86.25
  A 1.22 1.21 -49.2 0 1 59.77 86.31
  L 56.65 85.49
  A 2.66 2.66 0.0 0 0 53.39 87.44
  Q 52.42 91.46 49.57 95.51
  L 41.33 36.75
  A 0.34 0.34 0.0 0 1 41.85 36.41
  L 85.75 64.69
  Z" fill="#e27219"></path>
<path d="M 142.56 95.41
  Q 139.68 91.75 138.55 87.48
  Q 138.42 86.98 138.07 86.60
  L 136.93 85.36
  A 3.21 3.21 0.0 0 0 132.82 84.83
  Q 131.47 85.70 129.65 85.63
  A 1.50 1.48 67.4 0 1 128.74 85.25
  L 106.57 64.71
  L 150.04 36.35
  A 0.50 0.49 77.7 0 1 150.79 36.84
  L 142.56 95.41
  Z" fill="#e27219"></path>
<path d="M 85.75 64.69
  L 106.57 64.71
  L 128.74 85.25
  A 1.50 1.48 67.4 0 0 129.65 85.63
  Q 131.47 85.70 132.82 84.83
  A 3.21 3.21 0.0 0 1 136.93 85.36
  L 138.07 86.60
  Q 138.42 86.98 138.55 87.48
  Q 139.68 91.75 142.56 95.41
  C 143.00 97.53 144.31 99.07 144.39 101.30
  Q 144.59 106.58 144.42 111.97
  Q 144.41 112.48 144.00 112.78
  L 137.27 117.87
  Q 134.29 119.09 131.78 120.79
  Q 116.83 130.92 102.03 141.16
  Q 95.98 138.62 90.36 141.16
  L 54.61 117.15
  L 48.57 112.89
  Q 48.20 112.63 48.15 112.17
  Q 47.12 102.99 49.57 95.51
  Q 52.42 91.46 53.39 87.44
  A 2.66 2.66 0.0 0 1 56.65 85.49
  L 59.77 86.31
  A 1.22 1.21 -49.2 0 0 60.57 86.25
  Q 65.21 84.17 68.95 80.70
  Q 77.29 72.95 85.75 64.69
  Z
  M 77.93 106.84
  L 71.65 107.29
  Q 70.09 107.41 71.20 108.52
  L 75.00 112.34
  Q 76.06 113.40 77.54 113.13
  L 83.75 111.99
  Q 83.59 112.66 84.46 112.99
  Q 84.84 113.13 84.88 113.54
  Q 84.90 113.77 84.99 113.99
  Q 89.66 125.31 94.61 136.51
  Q 94.89 137.16 94.81 138.45
  Q 94.78 138.94 95.20 139.19
  Q 95.94 139.64 96.63 139.15
  Q 96.95 138.92 96.87 138.53
  Q 96.80 138.20 96.90 138.01
  Q 99.21 133.50 101.23 128.85
  Q 104.97 120.21 108.51 111.74
  Q 111.76 112.58 114.44 113.26
  C 116.82 113.87 120.02 109.66 121.49 108.09
  A 0.44 0.43 -67.7 0 0 121.19 107.36
  L 113.40 107.05
  Q 112.87 106.77 114.56 105.69
  A 0.90 0.89 -22.9 0 0 114.95 104.74
  L 114.55 103.01
  A 0.56 0.55 -16.9 0 0 113.81 102.62
  Q 113.02 102.91 112.17 102.61
  Q 111.73 102.46 111.75 101.98
  L 111.91 99.05
  Q 111.94 98.49 111.39 98.38
  Q 109.51 97.99 105.99 97.92
  Q 94.09 97.71 85.10 98.84
  A 0.78 0.63 20.3 0 0 84.83 98.93
  L 80.95 101.21
  A 0.66 0.64 74.7 0 0 80.63 101.79
  Q 80.72 104.01 78.59 104.41
  A 0.68 0.66 8.5 0 0 78.13 104.74
  Q 77.37 106.06 77.93 106.84
  Z" fill="#db5e20"></path>
<path d="M 113.40 107.05
  L 108.51 111.74
  Q 104.97 120.21 101.23 128.85
  Q 99.21 133.50 96.90 138.01
  Q 96.80 138.20 96.87 138.53
  Q 96.95 138.92 96.63 139.15
  Q 95.94 139.64 95.20 139.19
  Q 94.78 138.94 94.81 138.45
  Q 94.89 137.16 94.61 136.51
  Q 89.66 125.31 84.99 113.99
  Q 84.90 113.77 84.88 113.54
  Q 84.84 113.13 84.46 112.99
  Q 83.59 112.66 83.75 111.99
  Q 81.46 108.67 77.93 106.84
  Q 77.37 106.06 78.13 104.74
  A 0.68 0.66 8.5 0 1 78.59 104.41
  Q 80.72 104.01 80.63 101.79
  A 0.66 0.64 74.7 0 1 80.95 101.21
  L 84.83 98.93
  A 0.78 0.63 20.3 0 1 85.10 98.84
  Q 94.09 97.71 105.99 97.92
  Q 109.51 97.99 111.39 98.38
  Q 111.94 98.49 111.91 99.05
  L 111.75 101.98
  Q 111.73 102.46 112.17 102.61
  Q 113.02 102.91 113.81 102.62
  A 0.56 0.55 -16.9 0 1 114.55 103.01
  L 114.95 104.74
  A 0.90 0.89 -22.9 0 1 114.56 105.69
  Q 112.87 106.77 113.40 107.05
  Z" fill="#e27219"></path>
<path d="M 77.93 106.84
  Q 81.46 108.67 83.75 111.99
  L 77.54 113.13
  Q 76.06 113.40 75.00 112.34
  L 71.20 108.52
  Q 70.09 107.41 71.65 107.29
  L 77.93 106.84
  Z" fill="#000000"></path>
<path d="M 108.51 111.74
  L 113.40 107.05
  L 121.19 107.36
  A 0.44 0.43 -67.7 0 1 121.49 108.09
  C 120.02 109.66 116.82 113.87 114.44 113.26
  Q 111.76 112.58 108.51 111.74
  Z" fill="#000000"></path>
<path d="M 54.61 117.15
  L 90.36 141.16
  L 90.25 146.31
  A 0.88 0.88 0.0 0 0 90.61 147.04
  Q 94.05 149.59 95.46 149.86
  C 97.31 150.22 100.38 147.94 101.66 147.23
  Q 102.16 146.96 102.14 146.39
  L 102.03 141.16
  Q 116.83 130.92 131.78 120.79
  Q 134.29 119.09 137.27 117.87
  Q 134.44 121.98 131.80 124.31
  Q 124.09 131.11 116.76 138.32
  C 113.85 141.19 111.48 144.46 108.94 147.75
  C 106.14 151.37 100.72 153.69 96.69 155.60
  A 1.29 1.29 0.0 0 1 95.57 155.60
  C 91.16 153.47 86.24 151.32 83.12 147.33
  C 80.42 143.87 78.00 140.37 74.77 137.39
  Q 67.05 130.27 59.31 123.20
  Q 56.83 120.95 54.61 117.15
  Z" fill="#dea875"></path>
<path d="M 102.03 141.16
  L 102.14 146.39
  Q 102.16 146.96 101.66 147.23
  C 100.38 147.94 97.31 150.22 95.46 149.86
  Q 94.05 149.59 90.61 147.04
  A 0.88 0.88 0.0 0 1 90.25 146.31
  L 90.36 141.16
  Q 95.98 138.62 102.03 141.16
  Z" fill="#000000"></path>
</svg>
