<svg viewBox="0.00 0.00 192.00 192.00" version="1.1" xmlns="http://www.w3.org/2000/svg">
<path d="M 0.00 180.58
  Q 8.62 169.26 17.48 158.06
  C 43.67 124.95 69.22 91.30 95.04 57.90
  Q 98.72 53.13 101.91 51.08
  C 118.54 40.35 139.16 50.35 143.33 69.00
  C 144.02 72.11 145.54 73.78 147.84 75.59
  Q 148.78 76.34 147.58 76.32
  Q 143.01 76.27 138.30 76.27
  C 134.12 76.28 133.33 78.37 134.49 82.14
  C 146.19 120.12 109.65 153.84 72.90 137.45
  A 0.45 0.44 -60.4 0 1 72.72 136.78
  L 112.32 81.79
  A 2.53 2.53 0.0 0 0 111.70 78.22
  L 111.03 77.76
  Q 108.34 75.91 106.44 78.55
  Q 85.04 108.25 64.54 136.74
  C 62.21 139.98 68.36 142.73 70.43 143.63
  C 102.17 157.50 139.70 137.82 143.17 102.50
  C 143.85 95.62 143.11 90.17 141.95 83.43
  Q 141.86 82.92 142.38 82.92
  C 147.11 82.95 151.90 82.76 156.61 82.94
  C 159.80 83.06 161.55 79.16 159.30 77.21
  Q 154.67 73.22 150.44 68.79
  A 1.82 1.79 17.1 0 1 149.97 67.92
  C 144.57 44.10 118.03 31.72 97.25 46.16
  Q 93.84 48.53 89.95 53.57
  Q 45.45 111.27 0.68 168.74
  Q 0.43 169.06 0.20 168.73
  L 0.00 168.44" stroke-linecap="butt" fill="none" stroke-width="2.00" stroke="#8ed0f9"></path>
<path d="M 0.00 0.00
  L 192.00 0.00
  L 192.00 192.00
  L 0.00 192.00
  L 0.00 180.58
  Q 8.62 169.26 17.48 158.06
  C 43.67 124.95 69.22 91.30 95.04 57.90
  Q 98.72 53.13 101.91 51.08
  C 118.54 40.35 139.16 50.35 143.33 69.00
  C 144.02 72.11 145.54 73.78 147.84 75.59
  Q 148.78 76.34 147.58 76.32
  Q 143.01 76.27 138.30 76.27
  C 134.12 76.28 133.33 78.37 134.49 82.14
  C 146.19 120.12 109.65 153.84 72.90 137.45
  A 0.45 0.44 -60.4 0 1 72.72 136.78
  L 112.32 81.79
  A 2.53 2.53 0.0 0 0 111.70 78.22
  L 111.03 77.76
  Q 108.34 75.91 106.44 78.55
  Q 85.04 108.25 64.54 136.74
  C 62.21 139.98 68.36 142.73 70.43 143.63
  C 102.17 157.50 139.70 137.82 143.17 102.50
  C 143.85 95.62 143.11 90.17 141.95 83.43
  Q 141.86 82.92 142.38 82.92
  C 147.11 82.95 151.90 82.76 156.61 82.94
  C 159.80 83.06 161.55 79.16 159.30 77.21
  Q 154.67 73.22 150.44 68.79
  A 1.82 1.79 17.1 0 1 149.97 67.92
  C 144.57 44.10 118.03 31.72 97.25 46.16
  Q 93.84 48.53 89.95 53.57
  Q 45.45 111.27 0.68 168.74
  Q 0.43 169.06 0.20 168.73
  L 0.00 168.44
  L 0.00 0.00
  Z" fill="#1da1f2"></path>
<path d="M 0.00 180.58
  L 0.00 168.44
  L 0.20 168.73
  Q 0.43 169.06 0.68 168.74
  Q 45.45 111.27 89.95 53.57
  Q 93.84 48.53 97.25 46.16
  C 118.03 31.72 144.57 44.10 149.97 67.92
  A 1.82 1.79 17.1 0 0 150.44 68.79
  Q 154.67 73.22 159.30 77.21
  C 161.55 79.16 159.80 83.06 156.61 82.94
  C 151.90 82.76 147.11 82.95 142.38 82.92
  Q 141.86 82.92 141.95 83.43
  C 143.11 90.17 143.85 95.62 143.17 102.50
  C 139.70 137.82 102.17 157.50 70.43 143.63
  C 68.36 142.73 62.21 139.98 64.54 136.74
  Q 85.04 108.25 106.44 78.55
  Q 108.34 75.91 111.03 77.76
  L 111.70 78.22
  A 2.53 2.53 0.0 0 1 112.32 81.79
  L 72.72 136.78
  A 0.45 0.44 -60.4 0 0 72.90 137.45
  C 109.65 153.84 146.19 120.12 134.49 82.14
  C 133.33 78.37 134.12 76.28 138.30 76.27
  Q 143.01 76.27 147.58 76.32
  Q 148.78 76.34 147.84 75.59
  C 145.54 73.78 144.02 72.11 143.33 69.00
  C 139.16 50.35 118.54 40.35 101.91 51.08
  Q 98.72 53.13 95.04 57.90
  C 69.22 91.30 43.67 124.95 17.48 158.06
  Q 8.62 169.26 0.00 180.58
  Z" fill="#ffffff"></path>
</svg>
