<svg viewBox="0.00 0.00 512.00 512.00" version="1.1" xmlns="http://www.w3.org/2000/svg">
<g stroke-linecap="butt" fill="none" stroke-width="2.00">
<path d="M 310.04 212.46
  Q 311.15 212.69 311.01 214.88
  Q 310.88 216.98 310.88 217.12
  Q 310.84 268.85 310.90 320.64
  A 0.69 0.69 0.0 0 1 310.21 321.33
  L 289.58 321.35
  A 0.58 0.58 0.0 0 0 289.00 321.92
  L 288.97 341.97
  A 0.51 0.50 90.0 0 0 289.47 342.48
  L 353.53 342.45
  A 0.23 0.23 0.0 0 0 353.76 342.22
  L 353.76 321.82
  Q 353.76 321.37 353.32 321.37
  L 332.99 321.35
  Q 332.02 321.35 332.02 320.38
  Q 332.03 267.10 332.03 214.00
  Q 332.30 213.84 332.16 212.91" stroke="#80bfff"></path>
<path d="M 353.80 212.51
  L 353.76 191.27
  A 0.27 0.27 0.0 0 0 353.49 191.00
  L 289.71 190.97
  Q 288.99 190.97 288.99 191.69
  L 288.92 212.47" stroke="#80bfff"></path>
<path d="M 245.21 229.79
  Q 242.70 212.55 231.00 202.24
  C 218.87 191.56 206.22 190.75 190.62 190.86
  Q 177.85 190.95 172.93 191.82
  C 150.48 195.80 137.00 214.72 137.00 236.75
  Q 137.00 289.47 137.00 341.95
  A 0.50 0.50 0.0 0 0 137.50 342.45
  L 157.51 342.46
  A 0.97 0.97 0.0 0 0 158.48 341.49
  L 158.45 278.22
  A 0.84 0.83 90.0 0 1 159.28 277.38
  L 223.00 277.38
  A 0.99 0.98 0.0 0 1 223.99 278.36
  Q 224.03 310.03 223.97 342.00
  Q 223.97 342.61 225.19 342.68" stroke="#80bfff"></path>
<path d="M 159.23 256.25
  L 223.27 256.25
  A 0.83 0.83 0.0 0 0 224.10 255.42
  L 224.10 234.71
  A 22.85 22.56 0.0 0 0 201.25 212.15
  L 181.25 212.15
  A 22.85 22.56 -0.0 0 0 158.40 234.71
  L 158.40 255.42
  A 0.83 0.83 0.0 0 0 159.23 256.25" stroke="#80bfff"></path>
</g>
<path d="M 440.69 407.94
  L 71.94 407.94
  A 65.19 65.19 0.0 0 1 6.75 342.75
  L 6.75 191.00
  A 65.19 65.19 0.0 0 1 71.94 125.81
  L 440.69 125.81
  A 65.19 65.19 0.0 0 1 505.88 191.00
  L 505.88 342.75
  A 65.19 65.19 0.0 0 1 440.69 407.94
  Z
  M 288.92 212.47
  L 310.04 212.46
  Q 311.15 212.69 311.01 214.88
  Q 310.88 216.98 310.88 217.12
  Q 310.84 268.85 310.90 320.64
  A 0.69 0.69 0.0 0 1 310.21 321.33
  L 289.58 321.35
  A 0.58 0.58 0.0 0 0 289.00 321.92
  L 288.97 341.97
  A 0.51 0.50 90.0 0 0 289.47 342.48
  L 353.53 342.45
  A 0.23 0.23 0.0 0 0 353.76 342.22
  L 353.76 321.82
  Q 353.76 321.37 353.32 321.37
  L 332.99 321.35
  Q 332.02 321.35 332.02 320.38
  Q 332.03 267.10 332.03 214.00
  Q 332.30 213.84 332.16 212.91
  L 353.80 212.51
  L 353.76 191.27
  A 0.27 0.27 0.0 0 0 353.49 191.00
  L 289.71 190.97
  Q 288.99 190.97 288.99 191.69
  L 288.92 212.47
  Z
  M 225.19 342.68
  L 244.97 342.75
  A 0.49 0.48 -0.0 0 0 245.46 342.27
  L 245.21 229.79
  Q 242.70 212.55 231.00 202.24
  C 218.87 191.56 206.22 190.75 190.62 190.86
  Q 177.85 190.95 172.93 191.82
  C 150.48 195.80 137.00 214.72 137.00 236.75
  Q 137.00 289.47 137.00 341.95
  A 0.50 0.50 0.0 0 0 137.50 342.45
  L 157.51 342.46
  A 0.97 0.97 0.0 0 0 158.48 341.49
  L 158.45 278.22
  A 0.84 0.83 90.0 0 1 159.28 277.38
  L 223.00 277.38
  A 0.99 0.98 0.0 0 1 223.99 278.36
  Q 224.03 310.03 223.97 342.00
  Q 223.97 342.61 225.19 342.68
  Z" fill="#007fff"></path>
<path d="M 353.80 212.51
  Q 343.33 212.04 333.04 212.32
  Q 332.74 212.33 332.52 212.46
  Q 332.02 212.77 332.16 212.91
  Q 332.30 213.84 332.03 214.00
  Q 332.03 267.10 332.02 320.38
  Q 332.02 321.35 332.99 321.35
  L 353.32 321.37
  Q 353.76 321.37 353.76 321.82
  L 353.76 342.22
  A 0.23 0.23 0.0 0 1 353.53 342.45
  L 289.47 342.48
  A 0.51 0.50 90.0 0 1 288.97 341.97
  L 289.00 321.92
  A 0.58 0.58 0.0 0 1 289.58 321.35
  L 310.21 321.33
  A 0.69 0.69 0.0 0 0 310.90 320.64
  Q 310.84 268.85 310.88 217.12
  Q 310.88 216.98 311.01 214.88
  Q 311.15 212.69 310.04 212.46
  L 288.92 212.47
  L 288.99 191.69
  Q 288.99 190.97 289.71 190.97
  L 353.49 191.00
  A 0.27 0.27 0.0 0 1 353.76 191.27
  L 353.80 212.51
  Z" fill="#ffffff"></path>
<path d="M 245.21 229.79
  L 245.10 341.88
  A 0.68 0.68 0.0 0 1 244.43 342.56
  L 225.19 342.68
  Q 223.97 342.61 223.97 342.00
  Q 224.03 310.03 223.99 278.36
  A 0.99 0.98 0.0 0 0 223.00 277.38
  L 159.28 277.38
  A 0.84 0.83 90.0 0 0 158.45 278.22
  L 158.48 341.49
  A 0.97 0.97 0.0 0 1 157.51 342.46
  L 137.50 342.45
  A 0.50 0.50 0.0 0 1 137.00 341.95
  Q 137.00 289.47 137.00 236.75
  C 137.00 214.72 150.48 195.80 172.93 191.82
  Q 177.85 190.95 190.62 190.86
  C 206.22 190.75 218.87 191.56 231.00 202.24
  Q 242.70 212.55 245.21 229.79
  Z
  M 159.23 256.25
  L 223.27 256.25
  A 0.83 0.83 0.0 0 0 224.10 255.42
  L 224.10 234.71
  A 22.85 22.56 0.0 0 0 201.25 212.15
  L 181.25 212.15
  A 22.85 22.56 -0.0 0 0 158.40 234.71
  L 158.40 255.42
  A 0.83 0.83 0.0 0 0 159.23 256.25
  Z" fill="#ffffff"></path>
<path d="M 159.23 256.25
  A 0.83 0.83 0.0 0 1 158.40 255.42
  L 158.40 234.71
  A 22.85 22.56 -0.0 0 1 181.25 212.15
  L 201.25 212.15
  A 22.85 22.56 -0.0 0 1 224.10 234.71
  L 224.10 255.42
  A 0.83 0.83 0.0 0 1 223.27 256.25
  L 159.23 256.25
  Z" fill="#007fff"></path>
</svg>
