<svg viewBox="0.00 0.00 256.00 256.00" version="1.1" xmlns="http://www.w3.org/2000/svg">
<g stroke-linecap="butt" fill="none" stroke-width="2.00">
<path d="M 241.82 128.00
  A 113.82 113.82 0.0 0 0 128.00 14.18
  A 113.82 113.82 0.0 0 0 14.18 128.00
  A 113.82 113.82 0.0 0 0 128.00 241.82
  A 113.82 113.82 0.0 0 0 241.82 128.00" stroke="#999ba0"></path>
<path d="M 152.18 97.78
  L 149.04 94.87" stroke="#7f8186"></path>
<path d="M 149.04 94.87
  Q 134.80 84.50 118.23 83.23
  Q 112.02 82.75 98.34 84.62
  Q 87.92 86.04 77.47 87.50
  A 1.13 1.13 0.0 0 1 76.51 87.18
  L 69.37 79.88
  Q 68.99 79.49 68.62 79.87
  L 57.29 91.22
  A 0.42 0.42 0.0 0 0 57.29 91.81
  L 72.07 106.66" stroke="#999ba0"></path>
<path d="M 72.07 106.66
  L 107.70 142.28" stroke="#7f8186"></path>
<path d="M 107.70 142.28
  L 88.04 161.95
  A 0.83 0.82 -59.1 0 1 87.22 162.16
  L 77.61 159.42
  A 0.57 0.55 30.0 0 0 77.06 159.56
  L 56.61 180.02
  A 0.28 0.27 -56.9 0 0 56.70 180.48
  L 69.74 185.52
  Q 70.37 185.76 70.61 186.38
  L 75.58 199.25
  A 0.33 0.33 0.0 0 0 76.12 199.36
  L 96.41 179.09
  A 0.85 0.84 -30.7 0 0 96.63 178.24
  L 93.85 168.74
  Q 93.71 168.29 94.05 167.95
  L 113.67 148.32" stroke="#999ba0"></path>
<path d="M 113.67 148.32
  L 149.31 183.90" stroke="#7f8186"></path>
<path d="M 149.31 183.90
  L 163.87 198.87
  A 0.52 0.52 0.0 0 0 164.61 198.88
  L 175.86 187.65
  Q 176.23 187.28 175.87 186.91
  L 167.69 178.57
  A 0.88 0.87 -62.7 0 1 167.45 177.80
  Q 169.13 167.59 170.70 157.40
  Q 172.73 144.16 172.26 137.52
  Q 171.07 120.88 160.98 106.96" stroke="#999ba0"></path>
<path d="M 160.98 106.96
  L 158.27 103.74" stroke="#7f8186"></path>
<path d="M 158.27 103.74
  L 173.50 88.48
  A 0.97 0.94 25.1 0 1 174.28 88.21
  L 189.50 89.87
  Q 189.97 89.92 190.11 89.47
  L 199.48 57.00
  Q 199.68 56.33 199.01 56.53
  L 166.74 65.82
  Q 166.08 66.01 166.16 66.70
  L 167.79 81.69
  Q 167.85 82.18 167.50 82.52
  L 152.18 97.78" stroke="#999ba0"></path>
<path d="M 158.27 103.74
  L 146.23 115.77" stroke="#e5e5e5"></path>
<path d="M 146.23 115.77
  L 119.71 142.29" stroke="#999ba0"></path>
<path d="M 119.71 142.29
  L 113.67 148.32" stroke="#e5e5e5"></path>
<path d="M 107.70 142.28
  L 113.66 136.29" stroke="#e5e5e5"></path>
<path d="M 113.66 136.29
  L 140.30 109.71" stroke="#999ba0"></path>
<path d="M 140.30 109.71
  L 152.18 97.78" stroke="#e5e5e5"></path>
<path d="M 151.16 173.45
  L 150.89 173.43
  Q 150.82 173.43 150.78 173.38
  L 119.71 142.29" stroke="#7f8186"></path>
<path d="M 160.98 106.96
  L 148.97 119.11" stroke="#e5e5e5"></path>
<path d="M 148.97 119.11
  Q 147.82 117.10 146.23 115.77" stroke="#7f8186"></path>
<path d="M 113.66 136.29
  L 82.25 104.86" stroke="#7f8186"></path>
<path d="M 140.30 109.71
  L 137.09 107.13" stroke="#7f8186"></path>
<path d="M 149.31 183.90
  L 151.16 173.45" stroke="#e5e5e5"></path>
<path d="M 151.16 173.45
  Q 153.15 160.96 155.21 148.50
  Q 157.78 132.97 148.97 119.11" stroke="#999ba0"></path>
<path d="M 149.04 94.87
  L 137.09 107.13" stroke="#e5e5e5"></path>
<path d="M 137.09 107.13
  Q 133.77 105.09 130.93 103.83
  Q 120.39 99.16 108.52 100.87
  Q 95.40 102.77 82.25 104.86" stroke="#999ba0"></path>
<path d="M 82.25 104.86
  L 72.07 106.66" stroke="#e5e5e5"></path>
</g>
<path d="M 121.88 0.00
  L 134.24 0.00
  Q 139.11 0.59 143.98 1.20
  Q 174.37 5.04 199.32 21.71
  C 233.35 44.43 253.11 80.84 256.00 121.88
  L 256.00 133.97
  C 251.94 200.92 201.10 251.29 134.35 256.00
  L 121.51 256.00
  Q 115.75 255.34 110.03 254.53
  Q 80.77 250.38 56.67 234.30
  C 22.56 211.54 2.81 175.01 0.00 133.88
  L 0.00 122.01
  C 0.55 117.47 0.78 112.47 1.48 108.32
  C 11.24 50.85 55.75 7.34 114.02 0.95
  Q 117.96 0.52 121.88 0.00
  Z
  M 241.82 128.00
  A 113.82 113.82 0.0 0 0 128.00 14.18
  A 113.82 113.82 0.0 0 0 14.18 128.00
  A 113.82 113.82 0.0 0 0 128.00 241.82
  A 113.82 113.82 0.0 0 0 241.82 128.00
  Z" fill="#ffffff"></path>
<path d="M 241.82 128.00
  A 113.82 113.82 0.0 0 1 128.00 241.82
  A 113.82 113.82 0.0 0 1 14.18 128.00
  A 113.82 113.82 0.0 0 1 128.00 14.18
  A 113.82 113.82 0.0 0 1 241.82 128.00
  Z
  M 152.18 97.78
  L 149.04 94.87
  Q 134.80 84.50 118.23 83.23
  Q 112.02 82.75 98.34 84.62
  Q 87.92 86.04 77.47 87.50
  A 1.13 1.13 0.0 0 1 76.51 87.18
  L 69.37 79.88
  Q 68.99 79.49 68.62 79.87
  L 57.29 91.22
  A 0.42 0.42 0.0 0 0 57.29 91.81
  L 72.07 106.66
  L 107.70 142.28
  L 88.04 161.95
  A 0.83 0.82 -59.1 0 1 87.22 162.16
  L 77.61 159.42
  A 0.57 0.55 30.0 0 0 77.06 159.56
  L 56.61 180.02
  A 0.28 0.27 -56.9 0 0 56.70 180.48
  L 69.74 185.52
  Q 70.37 185.76 70.61 186.38
  L 75.58 199.25
  A 0.33 0.33 0.0 0 0 76.12 199.36
  L 96.41 179.09
  A 0.85 0.84 -30.7 0 0 96.63 178.24
  L 93.85 168.74
  Q 93.71 168.29 94.05 167.95
  L 113.67 148.32
  L 149.31 183.90
  L 163.87 198.87
  A 0.52 0.52 0.0 0 0 164.61 198.88
  L 175.86 187.65
  Q 176.23 187.28 175.87 186.91
  L 167.69 178.57
  A 0.88 0.87 -62.7 0 1 167.45 177.80
  Q 169.13 167.59 170.70 157.40
  Q 172.73 144.16 172.26 137.52
  Q 171.07 120.88 160.98 106.96
  L 158.27 103.74
  L 173.50 88.48
  A 0.97 0.94 25.1 0 1 174.28 88.21
  L 189.50 89.87
  Q 189.97 89.92 190.11 89.47
  L 199.48 57.00
  Q 199.68 56.33 199.01 56.53
  L 166.74 65.82
  Q 166.08 66.01 166.16 66.70
  L 167.79 81.69
  Q 167.85 82.18 167.50 82.52
  L 152.18 97.78
  Z" fill="#323640"></path>
<path d="M 158.27 103.74
  L 146.23 115.77
  L 119.71 142.29
  L 113.67 148.32
  L 94.05 167.95
  Q 93.71 168.29 93.85 168.74
  L 96.63 178.24
  A 0.85 0.84 -30.7 0 1 96.41 179.09
  L 76.12 199.36
  A 0.33 0.33 0.0 0 1 75.58 199.25
  L 70.61 186.38
  Q 70.37 185.76 69.74 185.52
  L 56.70 180.48
  A 0.28 0.27 -56.9 0 1 56.61 180.02
  L 77.06 159.56
  A 0.57 0.55 30.0 0 1 77.61 159.42
  L 87.22 162.16
  A 0.83 0.82 -59.1 0 0 88.04 161.95
  L 107.70 142.28
  L 113.66 136.29
  L 140.30 109.71
  L 152.18 97.78
  L 167.50 82.52
  Q 167.85 82.18 167.79 81.69
  L 166.16 66.70
  Q 166.08 66.01 166.74 65.82
  L 199.01 56.53
  Q 199.68 56.33 199.48 57.00
  L 190.11 89.47
  Q 189.97 89.92 189.50 89.87
  L 174.28 88.21
  A 0.97 0.94 25.1 0 0 173.50 88.48
  L 158.27 103.74
  Z" fill="#ffffff"></path>
<path d="M 149.04 94.87
  L 137.09 107.13
  Q 133.77 105.09 130.93 103.83
  Q 120.39 99.16 108.52 100.87
  Q 95.40 102.77 82.25 104.86
  L 72.07 106.66
  L 57.29 91.81
  A 0.42 0.42 0.0 0 1 57.29 91.22
  L 68.62 79.87
  Q 68.99 79.49 69.37 79.88
  L 76.51 87.18
  A 1.13 1.13 0.0 0 0 77.47 87.50
  Q 87.92 86.04 98.34 84.62
  Q 112.02 82.75 118.23 83.23
  Q 134.80 84.50 149.04 94.87
  Z" fill="#ffffff"></path>
<path d="M 149.04 94.87
  L 152.18 97.78
  L 140.30 109.71
  L 137.09 107.13
  L 149.04 94.87
  Z" fill="#cbcbcb"></path>
<path d="M 137.09 107.13
  L 140.30 109.71
  L 113.66 136.29
  L 82.25 104.86
  Q 95.40 102.77 108.52 100.87
  Q 120.39 99.16 130.93 103.83
  Q 133.77 105.09 137.09 107.13
  Z" fill="#323640"></path>
<path d="M 158.27 103.74
  L 160.98 106.96
  L 148.97 119.11
  Q 147.82 117.10 146.23 115.77
  L 158.27 103.74
  Z" fill="#cbcbcb"></path>
<path d="M 82.25 104.86
  L 113.66 136.29
  L 107.70 142.28
  L 72.07 106.66
  L 82.25 104.86
  Z" fill="#cbcbcb"></path>
<path d="M 160.98 106.96
  Q 171.07 120.88 172.26 137.52
  Q 172.73 144.16 170.70 157.40
  Q 169.13 167.59 167.45 177.80
  A 0.88 0.87 -62.7 0 0 167.69 178.57
  L 175.87 186.91
  Q 176.23 187.28 175.86 187.65
  L 164.61 198.88
  A 0.52 0.52 0.0 0 1 163.87 198.87
  L 149.31 183.90
  L 151.16 173.45
  Q 153.15 160.96 155.21 148.50
  Q 157.78 132.97 148.97 119.11
  L 160.98 106.96
  Z" fill="#ffffff"></path>
<path d="M 146.23 115.77
  Q 147.82 117.10 148.97 119.11
  Q 157.78 132.97 155.21 148.50
  Q 153.15 160.96 151.16 173.45
  L 150.89 173.43
  Q 150.82 173.43 150.78 173.38
  L 119.71 142.29
  L 146.23 115.77
  Z" fill="#323640"></path>
<path d="M 119.71 142.29
  L 150.78 173.38
  Q 150.82 173.43 150.89 173.43
  L 151.16 173.45
  L 149.31 183.90
  L 113.67 148.32
  L 119.71 142.29
  Z" fill="#cbcbcb"></path>
</svg>
