<svg viewBox="0.00 0.00 128.00 128.00" version="1.1" xmlns="http://www.w3.org/2000/svg">
<path d="M 33.17 86.25
  A 0.35 0.35 0.0 0 0 33.47 86.77
  L 95.77 86.77
  A 0.35 0.35 0.0 0 0 96.07 86.25
  L 64.92 31.76
  A 0.35 0.35 0.0 0 0 64.32 31.76
  L 33.17 86.25" stroke-linecap="butt" fill="none" stroke-width="2.00" stroke="#808080"></path>
<path d="M 61.09 0.00
  L 67.00 0.00
  C 70.65 0.61 74.66 0.85 77.94 1.63
  C 102.20 7.37 120.78 25.61 126.36 49.99
  C 127.13 53.34 127.42 57.41 128.00 61.12
  L 128.00 66.99
  Q 127.55 69.66 127.25 72.32
  C 124.22 98.92 103.71 120.47 77.99 126.36
  C 74.67 127.12 70.60 127.42 66.90 128.00
  L 60.97 128.00
  C 57.34 127.38 53.34 127.14 50.07 126.37
  C 25.78 120.62 7.25 102.43 1.65 78.01
  C 0.88 74.66 0.59 70.59 0.00 66.87
  L 0.00 61.01
  Q 0.44 58.34 0.75 55.68
  C 3.87 28.94 24.15 7.69 50.01 1.65
  C 53.35 0.87 57.39 0.59 61.09 0.00
  Z
  M 33.17 86.25
  A 0.35 0.35 0.0 0 0 33.47 86.77
  L 95.77 86.77
  A 0.35 0.35 0.0 0 0 96.07 86.25
  L 64.92 31.76
  A 0.35 0.35 0.0 0 0 64.32 31.76
  L 33.17 86.25
  Z" fill="#000000"></path>
<path d="M 33.17 86.25
  L 64.32 31.76
  A 0.35 0.35 0.0 0 1 64.92 31.76
  L 96.07 86.25
  A 0.35 0.35 0.0 0 1 95.77 86.77
  L 33.47 86.77
  A 0.35 0.35 0.0 0 1 33.17 86.25
  Z" fill="#ffffff"></path>
</svg>
