<svg viewBox="0.00 0.00 16.00 16.00" version="1.1" xmlns="http://www.w3.org/2000/svg">
<g stroke-linecap="butt" fill="none" stroke-width="2.00">
<path d="M 11.87 0.00
  L 0.00 11.84" stroke="#7a7c80"></path>
<path d="M 0.48 2.81
  Q 1.66 3.11 2.08 4.26
  Q 2.28 4.82 2.70 4.39
  L 4.25 2.76
  Q 4.60 2.40 4.17 2.14
  Q 3.20 1.57 2.79 0.49
  Q 2.70 0.27 2.53 0.44
  L 0.40 2.51
  A 0.18 0.18 0.0 0 0 0.48 2.81" stroke="#7a7c80"></path>
<path d="M 7.97 1.46
  A 0.97 0.97 0.0 0 0 7.00 0.49
  A 0.97 0.97 0.0 0 0 6.03 1.46
  A 0.97 0.97 0.0 0 0 7.00 2.43
  A 0.97 0.97 0.0 0 0 7.97 1.46" stroke="#7a7c80"></path>
<path d="M 13.00 0.00
  L 16.00 3.09" stroke="#7a7c80"></path>
<path d="M 16.00 4.09
  L 4.12 16.00" stroke="#7a7c80"></path>
<path d="M 3.15 16.00
  L 0.00 12.87" stroke="#7a7c80"></path>
<path d="M 13.4700 4.1381
  A 0.72 0.72 0.0 0 0 13.4700 3.1198
  L 12.8902 2.5400
  A 0.72 0.72 0.0 0 0 11.8719 2.5400
  L 10.0900 4.3219
  A 0.72 0.72 0.0 0 0 10.0900 5.3402
  L 10.6698 5.9200
  A 0.72 0.72 0.0 0 0 11.6881 5.9200
  L 13.4700 4.1381" stroke="#7a7c80"></path>
<path d="M 13.24 9.81
  L 11.79 11.25
  Q 11.37 11.67 11.90 11.94
  Q 12.69 12.34 13.04 13.13
  Q 13.29 13.71 13.74 13.27
  L 15.28 11.77
  Q 15.72 11.34 15.17 11.08
  Q 14.38 10.71 13.98 9.93
  Q 13.69 9.36 13.24 9.81" stroke="#7a7c80"></path>
</g>
<path d="M 0.00 0.00
  L 11.87 0.00
  L 0.00 11.84
  L 0.00 0.00
  Z
  M 0.48 2.81
  Q 1.66 3.11 2.08 4.26
  Q 2.28 4.82 2.70 4.39
  L 4.25 2.76
  Q 4.60 2.40 4.17 2.14
  Q 3.20 1.57 2.79 0.49
  Q 2.70 0.27 2.53 0.44
  L 0.40 2.51
  A 0.18 0.18 0.0 0 0 0.48 2.81
  Z
  M 7.97 1.46
  A 0.97 0.97 0.0 0 0 7.00 0.49
  A 0.97 0.97 0.0 0 0 6.03 1.46
  A 0.97 0.97 0.0 0 0 7.00 2.43
  A 0.97 0.97 0.0 0 0 7.97 1.46
  Z" fill="#070c14"></path>
<path d="M 11.87 0.00
  L 13.00 0.00
  L 16.00 3.09
  L 16.00 4.09
  L 4.12 16.00
  L 3.15 16.00
  L 0.00 12.87
  L 0.00 11.84
  L 11.87 0.00
  Z
  M 13.4700 4.1381
  A 0.72 0.72 0.0 0 0 13.4700 3.1198
  L 12.8902 2.5400
  A 0.72 0.72 0.0 0 0 11.8719 2.5400
  L 10.0900 4.3219
  A 0.72 0.72 0.0 0 0 10.0900 5.3402
  L 10.6698 5.9200
  A 0.72 0.72 0.0 0 0 11.6881 5.9200
  L 13.4700 4.1381
  Z" fill="#ececec"></path>
<path d="M 13.00 0.00
  L 16.00 0.00
  L 16.00 3.09
  L 13.00 0.00
  Z" fill="#070c14"></path>
<path d="M 0.48 2.81
  A 0.18 0.18 0.0 0 1 0.40 2.51
  L 2.53 0.44
  Q 2.70 0.27 2.79 0.49
  Q 3.20 1.57 4.17 2.14
  Q 4.60 2.40 4.25 2.76
  L 2.70 4.39
  Q 2.28 4.82 2.08 4.26
  Q 1.66 3.11 0.48 2.81
  Z" fill="#ececec"></path>
<circle r="0.97" cy="1.46" cx="7.00" fill="#ececec"></circle>
<rect rx="0.72" height="3.96" width="2.26" transform="translate(11.78,4.23) rotate(45.0)" y="-1.98" x="-1.13" fill="#070c14"></rect>
<path d="M 16.00 4.09
  L 16.00 16.00
  L 4.12 16.00
  L 16.00 4.09
  Z
  M 13.24 9.81
  L 11.79 11.25
  Q 11.37 11.67 11.90 11.94
  Q 12.69 12.34 13.04 13.13
  Q 13.29 13.71 13.74 13.27
  L 15.28 11.77
  Q 15.72 11.34 15.17 11.08
  Q 14.38 10.71 13.98 9.93
  Q 13.69 9.36 13.24 9.81
  Z" fill="#070c14"></path>
<path d="M 13.98 9.93
  Q 14.38 10.71 15.17 11.08
  Q 15.72 11.34 15.28 11.77
  L 13.74 13.27
  Q 13.29 13.71 13.04 13.13
  Q 12.69 12.34 11.90 11.94
  Q 11.37 11.67 11.79 11.25
  L 13.24 9.81
  Q 13.69 9.36 13.98 9.93
  Z" fill="#ececec"></path>
<path d="M 0.00 12.87
  L 3.15 16.00
  L 0.00 16.00
  L 0.00 12.87
  Z" fill="#070c14"></path>
</svg>
