<svg viewBox="0.00 0.00 144.00 144.00" version="1.1" xmlns="http://www.w3.org/2000/svg">
<path d="M 34.86 50.15
  Q 34.77 63.87 34.88 77.58
  C 34.90 80.45 34.64 83.03 37.25 84.59
  C 39.91 86.18 46.13 85.63 49.62 85.59
  A 0.29 0.28 89.0 0 1 49.91 85.88
  L 49.91 104.28
  Q 49.91 104.89 49.30 104.91
  C 30.35 105.44 12.18 104.46 12.10 79.75
  Q 12.06 64.91 12.06 50.07
  Q 12.06 49.51 11.50 49.52
  L 3.52 49.52
  Q 3.01 49.52 3.01 49.02
  L 3.01 31.17
  A 0.57 0.57 0.0 0 1 3.58 30.60
  L 11.49 30.59
  Q 12.06 30.59 12.06 30.01
  L 12.06 12.96
  Q 12.06 12.48 12.54 12.48
  L 34.28 12.48
  A 0.55 0.55 0.0 0 1 34.83 13.03
  L 34.84 29.96
  Q 34.84 30.59 35.46 30.59
  L 49.18 30.60
  Q 49.76 30.60 49.76 31.18
  L 49.76 49.00
  Q 49.76 49.52 49.25 49.52
  L 35.49 49.52
  Q 34.86 49.52 34.86 50.15
  Z" fill="#27272a"></path>
<rect rx="0.27" height="18.80" width="89.78" y="113.00" x="50.49" fill="#1da1f2"></rect>
</svg>
