<svg viewBox="0.00 0.00 512.00 512.00" version="1.1" xmlns="http://www.w3.org/2000/svg">
<g stroke-linecap="butt" fill="none" stroke-width="2.00">
<path d="M 266.74 25.97
  Q 266.64 27.24 267.03 27.83
  Q 267.20 28.09 266.98 28.31
  L 248.16 47.33
  Q 247.78 47.72 247.24 47.78
  Q 244.84 48.05 244.14 49.12" stroke="#cb75d1"></path>
<path d="M 49.40 239.36
  Q 48.11 240.61 47.90 243.57
  Q 47.88 243.88 47.63 243.69
  Q 47.35 243.48 47.37 243.09
  A 0.63 0.62 70.7 0 0 46.34 242.59
  Q 39.97 248.19 33.89 254.51
  Q 32.57 255.89 32.01 256.04
  Q 31.88 256.07 31.88 256.20
  Q 31.88 256.35 31.88 256.51
  Q 31.88 256.82 31.64 256.99
  C 29.91 258.26 27.78 260.42 27.06 262.48
  Q 26.91 262.89 26.44 262.87
  Q 26.13 262.86 26.12 262.54
  Q 26.11 262.19 25.79 262.23" stroke="#cb75d1"></path>
<path d="M 352.05 46.75
  Q 351.77 47.07 352.37 47.33
  Q 352.77 47.50 352.88 47.92
  Q 353.09 48.68 353.79 48.95
  Q 354.13 49.08 354.16 49.43
  Q 354.23 50.40 353.68 50.39
  Q 353.32 50.38 353.05 50.62
  Q 345.29 57.46 338.60 65.66" stroke="#d26cb8"></path>
<path d="M 58.09 318.35
  Q 57.99 319.30 56.35 319.98
  Q 55.12 320.49 54.43 321.18
  Q 47.81 327.79 41.23 334.44
  A 0.37 0.36 -21.7 0 0 41.11 334.71
  Q 41.12 334.90 41.12 335.08
  Q 41.11 335.58 40.65 335.38
  L 39.79 335.02" stroke="#d26cb8"></path>
<path d="M 451.43 134.55
  Q 446.62 136.92 442.97 141.56
  Q 442.62 142.00 442.07 141.89
  Q 441.40 141.75 441.04 142.21
  Q 440.87 142.42 440.88 142.69
  Q 440.88 142.90 440.85 143.11
  Q 440.77 143.55 440.46 143.87
  L 437.49 146.93
  Q 437.07 147.36 436.90 147.95
  Q 436.65 148.88 435.69 149.24
  Q 435.22 149.42 434.81 149.13
  Q 433.95 148.52 434.14 147.57
  Q 434.23 147.07 433.80 146.80
  Q 433.19 146.43 432.20 146.72" stroke="#d9629a"></path>
<path d="M 139.23 427.32
  Q 138.29 427.95 138.61 428.37
  C 133.90 432.06 129.86 436.58 125.59 440.76
  C 124.62 441.70 124.21 443.11 122.76 443.77" stroke="#d9629a"></path>
<path d="M 247.18 463.00
  Q 246.99 463.64 248.75 463.58
  Q 256.96 463.26 265.11 464.08
  Q 265.15 464.09 265.11 464.10
  C 262.89 464.98 260.56 465.29 258.83 467.32
  C 257.75 468.58 256.39 469.00 255.50 469.88
  Q 248.18 477.16 240.94 484.50
  Q 240.91 484.53 240.93 484.56
  Q 241.01 484.68 241.06 484.82
  Q 241.15 485.04 240.91 485.02
  Q 239.22 484.91 237.56 484.69
  Q 237.20 484.64 236.97 484.79
  Q 236.54 485.06 236.72 485.41" stroke="#e05980"></path>
<path d="M 275.55 485.41
  L 278.80 484.02
  A 1.04 0.05 5.5 0 1 279.74 484.07
  Q 280.55 484.14 281.07 483.53
  C 282.37 482.01 285.71 478.68 287.52 478.06
  Q 287.99 477.89 288.13 477.41
  Q 288.54 476.03 289.84 475.23
  Q 290.31 474.94 290.61 474.48
  Q 291.58 472.97 293.14 472.07
  Q 293.25 472.00 293.29 471.91
  Q 293.36 471.77 293.38 471.63
  Q 293.41 471.37 293.67 471.37
  Q 295.31 471.39 295.36 469.84
  Q 295.38 469.37 295.72 469.04
  L 306.40 459.03
  Q 306.74 458.71 306.86 458.27
  Q 306.93 458.03 307.07 457.82
  Q 307.47 457.24 306.77 457.35
  C 304.71 457.67 303.68 458.55 301.51 458.33" stroke="#e5526c"></path>
<path d="M 484.45 283.32
  L 482.69 284.59
  Q 482.29 284.89 481.82 284.75
  Q 480.84 284.46 480.00 285.30
  Q 479.54 285.76 479.36 286.00
  L 477.80 288.14
  Q 477.64 288.36 477.37 288.36
  L 477.06 288.36
  Q 476.65 288.36 476.35 288.64
  L 471.39 293.26
  Q 471.09 293.54 471.14 293.94
  Q 471.21 294.48 470.87 294.87
  Q 470.66 295.12 470.34 295.12
  L 469.94 295.12
  Q 469.46 295.12 469.13 295.45
  Q 467.42 297.17 466.06 299.17
  Q 466.00 299.26 465.93 299.30
  Q 465.80 299.37 465.66 299.38
  Q 465.50 299.40 465.41 299.52
  C 463.65 301.96 460.93 303.64 458.50 306.26
  Q 457.70 306.28 457.86 307.02
  Q 457.90 307.17 457.75 307.24
  Q 457.61 307.31 457.47 307.38
  A 0.16 0.16 0.0 0 1 457.24 307.22
  Q 457.28 306.79 457.16 306.50" stroke="#e5526c"></path>
<path d="M 482.05 212.80
  Q 481.29 214.20 481.26 215.62
  Q 481.24 216.07 480.79 216.09
  Q 480.44 216.11 480.26 216.27
  Q 473.52 222.55 463.88 232.71
  Q 463.47 233.14 463.35 232.57
  Q 462.96 230.65 461.75 231.19" stroke="#e05980"></path>
<path d="M 265.19 187.23
  Q 266.65 187.92 268.54 187.64
  Q 268.63 187.62 268.69 187.68
  Q 268.72 187.72 268.75 187.75
  Q 268.87 187.88 268.75 187.88
  L 267.00 187.88
  Q 266.48 187.88 266.32 188.38
  C 265.81 189.94 264.68 190.54 263.83 191.60
  A 0.77 0.76 -70.1 0 1 263.24 191.88
  L 262.79 191.88
  Q 262.44 191.88 262.20 192.13
  L 260.73 193.69
  Q 260.55 193.88 260.29 193.88
  L 259.93 193.88
  Q 259.50 193.88 259.19 194.18
  L 256.70 196.69
  Q 256.51 196.88 256.26 196.88
  L 255.96 196.88
  Q 255.53 196.88 255.22 197.18
  L 251.85 200.49
  Q 251.45 200.89 250.89 200.86
  Q 250.10 200.81 249.84 201.60
  Q 249.76 201.88 249.47 201.88
  L 248.93 201.88
  Q 248.50 201.88 248.19 202.18
  L 245.70 204.69
  Q 245.51 204.88 245.26 204.88
  L 244.94 204.88
  Q 244.52 204.88 244.21 205.18
  L 242.84 206.53
  Q 242.41 206.95 241.82 206.86
  Q 241.26 206.77 240.90 207.44
  A 0.13 0.11 66.3 0 0 240.88 207.51
  L 240.88 208.50
  Q 240.88 209.05 240.35 208.91
  Q 239.19 208.61 238.83 209.62
  Q 238.74 209.88 238.47 209.88
  L 237.93 209.88
  Q 237.50 209.88 237.19 210.18
  L 234.70 212.69
  Q 234.51 212.88 234.26 212.88
  L 233.93 212.88
  Q 233.50 212.88 233.19 213.18
  L 230.70 215.69
  Q 230.51 215.88 230.26 215.88
  L 229.91 215.88
  Q 229.48 215.88 229.18 216.19
  L 227.71 217.69
  Q 227.53 217.88 227.27 217.88
  L 226.93 217.88
  Q 226.50 217.88 226.19 218.18
  L 223.70 220.69
  Q 223.51 220.88 223.26 220.88
  L 222.93 220.88
  Q 222.50 220.88 222.19 221.18
  L 219.70 223.69
  Q 219.51 223.88 219.26 223.88
  L 218.93 223.88
  Q 218.50 223.88 218.19 224.18
  L 215.70 226.69
  Q 215.51 226.88 215.26 226.88
  L 214.98 226.88
  Q 214.55 226.88 214.24 227.17
  L 212.02 229.31
  Q 211.65 229.66 211.16 229.78
  Q 209.53 230.16 208.86 231.77
  Q 208.69 232.21 208.23 232.12
  Q 207.53 231.99 207.04 232.43
  A 0.95 0.95 0.0 0 1 206.29 232.67
  Q 204.39 232.46 202.70 232.89" stroke="#cb75d1"></path>
<path d="M 295.13 202.78
  Q 294.18 203.23 293.98 204.38
  Q 293.86 205.04 293.20 204.89
  Q 292.24 204.69 291.92 205.46
  Q 291.75 205.89 291.29 205.89
  L 290.93 205.89
  Q 290.50 205.89 290.20 206.19
  L 286.69 209.70
  Q 286.51 209.89 286.25 209.89
  L 285.91 209.89
  Q 285.48 209.89 285.18 210.19
  L 283.72 211.70
  Q 283.53 211.89 283.27 211.89
  L 282.96 211.89
  Q 282.54 211.89 282.24 212.18
  L 279.92 214.43
  Q 279.62 214.72 279.21 214.83
  Q 277.74 215.25 276.89 216.56
  A 0.71 0.69 -73.2 0 1 276.30 216.89
  L 275.82 216.89
  Q 275.47 216.89 275.23 217.13
  L 272.71 219.70
  Q 272.53 219.89 272.26 219.89
  L 271.91 219.89
  Q 271.48 219.89 271.18 220.19
  L 269.72 221.70
  Q 269.53 221.89 269.27 221.89
  L 268.92 221.89
  Q 268.50 221.89 268.19 222.19
  L 265.70 224.70
  Q 265.51 224.89 265.25 224.89
  L 264.98 224.89
  Q 264.56 224.89 264.26 225.18
  L 261.70 227.70
  Q 261.51 227.89 261.25 227.89
  L 260.96 227.89
  Q 260.54 227.89 260.24 228.18
  L 257.89 230.46
  Q 257.54 230.79 257.07 230.85
  Q 256.25 230.95 256.05 231.69
  Q 255.93 232.12 255.49 232.17
  L 248.45 232.91" stroke="#d26cb8"></path>
<path d="M 211.46 256.13
  L 214.76 256.26
  Q 215.15 256.28 214.81 256.47
  C 213.60 257.14 212.47 257.38 211.44 258.31
  Q 210.66 259.01 209.91 259.75
  Q 209.57 260.08 209.09 260.07
  Q 208.71 260.05 208.49 260.24
  Q 207.38 261.12 205.72 262.91
  Q 205.54 263.11 205.27 263.11
  Q 205.12 263.11 204.96 263.13
  Q 204.51 263.19 204.17 263.50
  L 202.09 265.46
  Q 201.71 265.81 201.23 265.98
  C 200.14 266.35 198.85 268.17 197.94 268.12
  A 0.97 0.97 0.0 0 0 197.10 268.52
  Q 196.21 269.76 195.01 270.63
  Q 193.45 271.78 192.74 272.45
  Q 189.54 275.47 186.13 276.68" stroke="#d26cb8"></path>
<path d="M 291.23 265.03
  Q 290.88 266.06 291.34 266.41
  A 1.11 0.94 -38.1 0 1 290.99 268.12
  Q 289.25 269.02 287.86 270.49
  Q 287.52 270.85 287.02 270.86
  Q 285.60 270.88 285.90 272.25
  A 0.55 0.54 -89.7 0 1 285.25 272.90
  Q 284.25 272.67 283.89 273.49
  Q 283.72 273.88 283.28 273.88
  L 282.93 273.88
  Q 282.50 273.88 282.19 274.19
  L 279.70 276.70
  Q 279.51 276.88 279.25 276.88
  L 278.93 276.88
  Q 278.50 276.88 278.19 277.19
  L 275.70 279.70
  Q 275.51 279.88 275.25 279.88
  L 274.91 279.88
  Q 274.48 279.88 274.18 280.19
  L 272.72 281.69
  Q 272.53 281.88 272.27 281.88
  L 271.93 281.88
  Q 271.50 281.88 271.19 282.19
  L 268.70 284.70
  Q 268.51 284.88 268.25 284.88
  L 267.93 284.88
  Q 267.50 284.88 267.19 285.19
  L 264.70 287.70
  Q 264.51 287.88 264.25 287.88
  L 263.91 287.88
  Q 263.48 287.88 263.18 288.19
  L 261.72 289.69
  Q 261.53 289.88 261.27 289.88
  L 260.93 289.88
  Q 260.50 289.88 260.19 290.19
  L 257.70 292.70
  Q 257.51 292.88 257.25 292.88
  L 256.93 292.88
  Q 256.50 292.88 256.19 293.19
  L 253.70 295.70
  Q 253.51 295.88 253.25 295.88
  L 252.91 295.88
  Q 252.48 295.88 252.18 296.19
  L 250.72 297.69
  Q 250.53 297.88 250.27 297.88
  L 249.87 297.88
  Q 249.43 297.88 249.13 298.20
  L 246.43 301.08
  Q 246.09 301.45 245.59 301.52
  L 243.20 301.88" stroke="#d9629a"></path>
<path d="M 286.07 329.06
  L 285.55 330.05
  Q 285.36 330.41 284.98 330.59
  Q 284.36 330.89 283.87 331.37
  Q 283.54 331.70 283.10 331.87
  Q 281.74 332.37 280.87 333.57
  Q 280.64 333.88 280.26 333.88
  L 279.93 333.88
  Q 279.50 333.88 279.19 334.18
  L 275.69 337.70
  Q 275.51 337.88 275.25 337.88
  L 274.80 337.88
  A 0.60 0.58 -64.7 0 0 274.41 338.03
  L 272.90 339.42
  Q 272.60 339.70 272.21 339.83
  Q 270.77 340.32 269.86 341.57
  A 0.74 0.71 -71.8 0 1 269.27 341.88
  L 268.81 341.88
  Q 268.46 341.88 268.22 342.13
  L 265.58 344.84
  Q 265.54 344.88 265.49 344.88
  L 265.03 344.88
  Q 264.74 344.88 264.50 345.06
  Q 262.93 346.29 261.65 347.81
  Q 261.59 347.88 261.51 347.88
  L 261.16 347.88
  Q 260.72 347.88 260.40 348.17
  L 257.87 350.46
  Q 257.49 350.81 256.98 350.87
  Q 256.63 350.90 256.36 351.12
  Q 256.07 351.35 255.93 352.07
  C 255.55 354.03 253.47 354.38 253.07 356.49
  Q 252.98 356.98 252.48 357.04
  Q 252.19 357.08 251.93 357.00" stroke="#e05980"></path>
<path d="M 296.27 347.72
  Q 295.51 348.16 294.73 348.13
  Q 294.27 348.12 294.09 348.54
  Q 293.83 349.17 293.15 349.13
  Q 292.55 349.10 292.12 349.52
  L 289.65 351.96
  A 0.51 0.51 0.0 0 1 289.28 352.12
  Q 289.04 352.12 288.81 352.14
  Q 288.41 352.17 288.13 352.45
  L 285.69 354.97
  Q 285.54 355.13 285.32 355.12
  Q 285.10 355.11 284.89 355.15
  Q 284.40 355.24 284.04 355.59
  L 281.67 357.97
  Q 281.51 358.12 281.29 358.12
  Q 281.09 358.11 280.89 358.15
  Q 280.40 358.24 280.04 358.59
  L 277.67 360.97
  Q 277.51 361.12 277.29 361.12
  Q 277.02 361.11 276.75 361.18
  Q 276.32 361.29 276.01 361.61
  L 274.69 362.96
  Q 274.53 363.12 274.29 363.12
  Q 274.12 363.11 273.95 363.14
  Q 273.46 363.21 273.10 363.56
  L 270.85 365.74
  Q 270.46 366.12 269.91 366.12
  L 269.58 366.12
  A 0.49 0.48 -14.0 0 0 269.15 366.83
  Q 269.67 367.79 269.09 368.28" stroke="#e5526c"></path>
</g>
<path d="M 266.74 25.97
  Q 266.64 27.24 267.03 27.83
  Q 267.20 28.09 266.98 28.31
  L 248.16 47.33
  Q 247.78 47.72 247.24 47.78
  Q 244.84 48.05 244.14 49.12
  C 212.92 50.72 180.41 59.87 153.45 75.70
  Q 137.57 85.03 131.96 89.71
  C 127.08 93.77 121.93 97.56 117.38 101.84
  C 113.97 105.05 110.36 108.29 107.29 111.47
  C 73.39 146.55 53.25 191.43 49.40 239.36
  Q 48.11 240.61 47.90 243.57
  Q 47.88 243.88 47.63 243.69
  Q 47.35 243.48 47.37 243.09
  A 0.63 0.62 70.7 0 0 46.34 242.59
  Q 39.97 248.19 33.89 254.51
  Q 32.57 255.89 32.01 256.04
  Q 31.88 256.07 31.88 256.20
  Q 31.88 256.35 31.88 256.51
  Q 31.88 256.82 31.64 256.99
  C 29.91 258.26 27.78 260.42 27.06 262.48
  Q 26.91 262.89 26.44 262.87
  Q 26.13 262.86 26.12 262.54
  Q 26.11 262.19 25.79 262.23
  C 24.77 212.99 38.52 167.16 65.55 126.63
  C 72.94 115.54 82.11 104.12 91.70 94.87
  C 94.47 92.19 97.04 89.23 99.86 86.81
  Q 104.83 82.56 109.86 78.39
  Q 138.29 54.77 172.79 41.43
  Q 218.04 23.94 266.74 25.97
  Z" fill="#c879dc"></path>
<path d="M 266.74 25.97
  C 296.29 27.60 325.13 34.36 352.05 46.75
  Q 351.77 47.07 352.37 47.33
  Q 352.77 47.50 352.88 47.92
  Q 353.09 48.68 353.79 48.95
  Q 354.13 49.08 354.16 49.43
  Q 354.23 50.40 353.68 50.39
  Q 353.32 50.38 353.05 50.62
  Q 345.29 57.46 338.60 65.66
  Q 322.52 59.30 316.25 57.47
  Q 281.02 47.14 244.14 49.12
  Q 244.84 48.05 247.24 47.78
  Q 247.78 47.72 248.16 47.33
  L 266.98 28.31
  Q 267.20 28.09 267.03 27.83
  Q 266.64 27.24 266.74 25.97
  Z" fill="#ce71c6"></path>
<path d="M 352.05 46.75
  Q 380.25 59.75 403.90 79.89
  Q 407.26 82.75 410.66 85.59
  Q 413.66 88.09 417.09 91.64
  C 419.96 94.60 423.03 97.29 425.66 100.40
  Q 428.42 103.66 431.28 106.84
  C 435.18 111.18 438.30 115.53 442.07 120.43
  Q 446.99 126.84 451.43 134.55
  Q 446.62 136.92 442.97 141.56
  Q 442.62 142.00 442.07 141.89
  Q 441.40 141.75 441.04 142.21
  Q 440.87 142.42 440.88 142.69
  Q 440.88 142.90 440.85 143.11
  Q 440.77 143.55 440.46 143.87
  L 437.49 146.93
  Q 437.07 147.36 436.90 147.95
  Q 436.65 148.88 435.69 149.24
  Q 435.22 149.42 434.81 149.13
  Q 433.95 148.52 434.14 147.57
  Q 434.23 147.07 433.80 146.80
  Q 433.19 146.43 432.20 146.72
  C 422.98 132.48 412.40 118.22 399.63 106.56
  Q 396.78 103.95 393.98 101.29
  C 390.87 98.31 387.49 95.83 384.16 93.12
  C 370.61 82.10 355.09 73.18 338.60 65.66
  Q 345.29 57.46 353.05 50.62
  Q 353.32 50.38 353.68 50.39
  Q 354.23 50.40 354.16 49.43
  Q 354.13 49.08 353.79 48.95
  Q 353.09 48.68 352.88 47.92
  Q 352.77 47.50 352.37 47.33
  Q 351.77 47.07 352.05 46.75
  Z" fill="#d567a9"></path>
<path d="M 451.43 134.55
  C 457.38 143.34 461.88 152.86 466.46 162.28
  Q 469.45 168.44 475.74 187.01
  Q 479.34 197.64 482.05 212.80
  Q 481.29 214.20 481.26 215.62
  Q 481.24 216.07 480.79 216.09
  Q 480.44 216.11 480.26 216.27
  Q 473.52 222.55 463.88 232.71
  Q 463.47 233.14 463.35 232.57
  Q 462.96 230.65 461.75 231.19
  Q 456.36 185.77 432.20 146.72
  Q 433.19 146.43 433.80 146.80
  Q 434.23 147.07 434.14 147.57
  Q 433.95 148.52 434.81 149.13
  Q 435.22 149.42 435.69 149.24
  Q 436.65 148.88 436.90 147.95
  Q 437.07 147.36 437.49 146.93
  L 440.46 143.87
  Q 440.77 143.55 440.85 143.11
  Q 440.88 142.90 440.88 142.69
  Q 440.87 142.42 441.04 142.21
  Q 441.40 141.75 442.07 141.89
  Q 442.62 142.00 442.97 141.56
  Q 446.62 136.92 451.43 134.55
  Z" fill="#dd5d8b"></path>
<path d="M 265.19 187.23
  Q 266.65 187.92 268.54 187.64
  Q 268.63 187.62 268.69 187.68
  Q 268.72 187.72 268.75 187.75
  Q 268.87 187.88 268.75 187.88
  L 267.00 187.88
  Q 266.48 187.88 266.32 188.38
  C 265.81 189.94 264.68 190.54 263.83 191.60
  A 0.77 0.76 -70.1 0 1 263.24 191.88
  L 262.79 191.88
  Q 262.44 191.88 262.20 192.13
  L 260.73 193.69
  Q 260.55 193.88 260.29 193.88
  L 259.93 193.88
  Q 259.50 193.88 259.19 194.18
  L 256.70 196.69
  Q 256.51 196.88 256.26 196.88
  L 255.96 196.88
  Q 255.53 196.88 255.22 197.18
  L 251.85 200.49
  Q 251.45 200.89 250.89 200.86
  Q 250.10 200.81 249.84 201.60
  Q 249.76 201.88 249.47 201.88
  L 248.93 201.88
  Q 248.50 201.88 248.19 202.18
  L 245.70 204.69
  Q 245.51 204.88 245.26 204.88
  L 244.94 204.88
  Q 244.52 204.88 244.21 205.18
  L 242.84 206.53
  Q 242.41 206.95 241.82 206.86
  Q 241.26 206.77 240.90 207.44
  A 0.13 0.11 66.3 0 0 240.88 207.51
  L 240.88 208.50
  Q 240.88 209.05 240.35 208.91
  Q 239.19 208.61 238.83 209.62
  Q 238.74 209.88 238.47 209.88
  L 237.93 209.88
  Q 237.50 209.88 237.19 210.18
  L 234.70 212.69
  Q 234.51 212.88 234.26 212.88
  L 233.93 212.88
  Q 233.50 212.88 233.19 213.18
  L 230.70 215.69
  Q 230.51 215.88 230.26 215.88
  L 229.91 215.88
  Q 229.48 215.88 229.18 216.19
  L 227.71 217.69
  Q 227.53 217.88 227.27 217.88
  L 226.93 217.88
  Q 226.50 217.88 226.19 218.18
  L 223.70 220.69
  Q 223.51 220.88 223.26 220.88
  L 222.93 220.88
  Q 222.50 220.88 222.19 221.18
  L 219.70 223.69
  Q 219.51 223.88 219.26 223.88
  L 218.93 223.88
  Q 218.50 223.88 218.19 224.18
  L 215.70 226.69
  Q 215.51 226.88 215.26 226.88
  L 214.98 226.88
  Q 214.55 226.88 214.24 227.17
  L 212.02 229.31
  Q 211.65 229.66 211.16 229.78
  Q 209.53 230.16 208.86 231.77
  Q 208.69 232.21 208.23 232.12
  Q 207.53 231.99 207.04 232.43
  A 0.95 0.95 0.0 0 1 206.29 232.67
  Q 204.39 232.46 202.70 232.89
  Q 189.02 232.93 175.31 232.90
  Q 164.04 232.88 159.02 231.66
  C 146.31 228.59 135.11 219.84 129.05 208.30
  C 126.20 202.88 123.88 194.43 121.04 187.66
  A 0.31 0.31 0.0 0 1 121.32 187.23
  L 265.19 187.23
  Z" fill="#c879dc"></path>
<path d="M 265.19 187.23
  C 269.72 187.18 274.77 186.86 278.87 187.89
  Q 290.48 190.83 295.13 202.78
  Q 294.18 203.23 293.98 204.38
  Q 293.86 205.04 293.20 204.89
  Q 292.24 204.69 291.92 205.46
  Q 291.75 205.89 291.29 205.89
  L 290.93 205.89
  Q 290.50 205.89 290.20 206.19
  L 286.69 209.70
  Q 286.51 209.89 286.25 209.89
  L 285.91 209.89
  Q 285.48 209.89 285.18 210.19
  L 283.72 211.70
  Q 283.53 211.89 283.27 211.89
  L 282.96 211.89
  Q 282.54 211.89 282.24 212.18
  L 279.92 214.43
  Q 279.62 214.72 279.21 214.83
  Q 277.74 215.25 276.89 216.56
  A 0.71 0.69 -73.2 0 1 276.30 216.89
  L 275.82 216.89
  Q 275.47 216.89 275.23 217.13
  L 272.71 219.70
  Q 272.53 219.89 272.26 219.89
  L 271.91 219.89
  Q 271.48 219.89 271.18 220.19
  L 269.72 221.70
  Q 269.53 221.89 269.27 221.89
  L 268.92 221.89
  Q 268.50 221.89 268.19 222.19
  L 265.70 224.70
  Q 265.51 224.89 265.25 224.89
  L 264.98 224.89
  Q 264.56 224.89 264.26 225.18
  L 261.70 227.70
  Q 261.51 227.89 261.25 227.89
  L 260.96 227.89
  Q 260.54 227.89 260.24 228.18
  L 257.89 230.46
  Q 257.54 230.79 257.07 230.85
  Q 256.25 230.95 256.05 231.69
  Q 255.93 232.12 255.49 232.17
  L 248.45 232.91
  L 202.70 232.89
  Q 204.39 232.46 206.29 232.67
  A 0.95 0.95 0.0 0 0 207.04 232.43
  Q 207.53 231.99 208.23 232.12
  Q 208.69 232.21 208.86 231.77
  Q 209.53 230.16 211.16 229.78
  Q 211.65 229.66 212.02 229.31
  L 214.24 227.17
  Q 214.55 226.88 214.98 226.88
  L 215.26 226.88
  Q 215.51 226.88 215.70 226.69
  L 218.19 224.18
  Q 218.50 223.88 218.93 223.88
  L 219.26 223.88
  Q 219.51 223.88 219.70 223.69
  L 222.19 221.18
  Q 222.50 220.88 222.93 220.88
  L 223.26 220.88
  Q 223.51 220.88 223.70 220.69
  L 226.19 218.18
  Q 226.50 217.88 226.93 217.88
  L 227.27 217.88
  Q 227.53 217.88 227.71 217.69
  L 229.18 216.19
  Q 229.48 215.88 229.91 215.88
  L 230.26 215.88
  Q 230.51 215.88 230.70 215.69
  L 233.19 213.18
  Q 233.50 212.88 233.93 212.88
  L 234.26 212.88
  Q 234.51 212.88 234.70 212.69
  L 237.19 210.18
  Q 237.50 209.88 237.93 209.88
  L 238.47 209.88
  Q 238.74 209.88 238.83 209.62
  Q 239.19 208.61 240.35 208.91
  Q 240.88 209.05 240.88 208.50
  L 240.88 207.51
  A 0.13 0.11 66.3 0 1 240.90 207.44
  Q 241.26 206.77 241.82 206.86
  Q 242.41 206.95 242.84 206.53
  L 244.21 205.18
  Q 244.52 204.88 244.94 204.88
  L 245.26 204.88
  Q 245.51 204.88 245.70 204.69
  L 248.19 202.18
  Q 248.50 201.88 248.93 201.88
  L 249.47 201.88
  Q 249.76 201.88 249.84 201.60
  Q 250.10 200.81 250.89 200.86
  Q 251.45 200.89 251.85 200.49
  L 255.22 197.18
  Q 255.53 196.88 255.96 196.88
  L 256.26 196.88
  Q 256.51 196.88 256.70 196.69
  L 259.19 194.18
  Q 259.50 193.88 259.93 193.88
  L 260.29 193.88
  Q 260.55 193.88 260.73 193.69
  L 262.20 192.13
  Q 262.44 191.88 262.79 191.88
  L 263.24 191.88
  A 0.77 0.76 -70.1 0 0 263.83 191.60
  C 264.68 190.54 265.81 189.94 266.32 188.38
  Q 266.48 187.88 267.00 187.88
  L 268.75 187.88
  Q 268.87 187.88 268.75 187.75
  Q 268.72 187.72 268.69 187.68
  Q 268.63 187.62 268.54 187.64
  Q 266.65 187.92 265.19 187.23
  Z" fill="#ce71c6"></path>
<path d="M 319.42 209.76
  C 319.38 200.36 325.44 191.95 334.00 188.69
  Q 337.67 187.29 344.73 187.24
  Q 361.97 187.13 379.25 187.22
  Q 379.60 187.22 379.47 187.55
  C 375.81 196.38 373.86 206.01 368.06 213.79
  Q 356.12 229.80 336.25 232.70
  Q 331.81 233.35 319.95 232.79
  Q 319.47 232.76 319.47 232.29
  Q 319.48 220.97 319.42 209.76
  Z" fill="#d567a9"></path>
<path d="M 295.13 202.78
  Q 296.18 206.20 296.19 208.00
  Q 296.29 220.37 296.23 232.67
  A 0.26 0.26 0.0 0 1 295.97 232.93
  L 248.45 232.91
  L 255.49 232.17
  Q 255.93 232.12 256.05 231.69
  Q 256.25 230.95 257.07 230.85
  Q 257.54 230.79 257.89 230.46
  L 260.24 228.18
  Q 260.54 227.89 260.96 227.89
  L 261.25 227.89
  Q 261.51 227.89 261.70 227.70
  L 264.26 225.18
  Q 264.56 224.89 264.98 224.89
  L 265.25 224.89
  Q 265.51 224.89 265.70 224.70
  L 268.19 222.19
  Q 268.50 221.89 268.92 221.89
  L 269.27 221.89
  Q 269.53 221.89 269.72 221.70
  L 271.18 220.19
  Q 271.48 219.89 271.91 219.89
  L 272.26 219.89
  Q 272.53 219.89 272.71 219.70
  L 275.23 217.13
  Q 275.47 216.89 275.82 216.89
  L 276.30 216.89
  A 0.71 0.69 -73.2 0 0 276.89 216.56
  Q 277.74 215.25 279.21 214.83
  Q 279.62 214.72 279.92 214.43
  L 282.24 212.18
  Q 282.54 211.89 282.96 211.89
  L 283.27 211.89
  Q 283.53 211.89 283.72 211.70
  L 285.18 210.19
  Q 285.48 209.89 285.91 209.89
  L 286.25 209.89
  Q 286.51 209.89 286.69 209.70
  L 290.20 206.19
  Q 290.50 205.89 290.93 205.89
  L 291.29 205.89
  Q 291.75 205.89 291.92 205.46
  Q 292.24 204.69 293.20 204.89
  Q 293.86 205.04 293.98 204.38
  Q 294.18 203.23 295.13 202.78
  Z" fill="#d567a9"></path>
<path d="M 482.05 212.80
  C 486.48 235.70 487.87 260.14 484.45 283.32
  L 482.69 284.59
  Q 482.29 284.89 481.82 284.75
  Q 480.84 284.46 480.00 285.30
  Q 479.54 285.76 479.36 286.00
  L 477.80 288.14
  Q 477.64 288.36 477.37 288.36
  L 477.06 288.36
  Q 476.65 288.36 476.35 288.64
  L 471.39 293.26
  Q 471.09 293.54 471.14 293.94
  Q 471.21 294.48 470.87 294.87
  Q 470.66 295.12 470.34 295.12
  L 469.94 295.12
  Q 469.46 295.12 469.13 295.45
  Q 467.42 297.17 466.06 299.17
  Q 466.00 299.26 465.93 299.30
  Q 465.80 299.37 465.66 299.38
  Q 465.50 299.40 465.41 299.52
  C 463.65 301.96 460.93 303.64 458.50 306.26
  Q 457.70 306.28 457.86 307.02
  Q 457.90 307.17 457.75 307.24
  Q 457.61 307.31 457.47 307.38
  A 0.16 0.16 0.0 0 1 457.24 307.22
  Q 457.28 306.79 457.16 306.50
  Q 466.04 269.28 461.75 231.19
  Q 462.96 230.65 463.35 232.57
  Q 463.47 233.14 463.88 232.71
  Q 473.52 222.55 480.26 216.27
  Q 480.44 216.11 480.79 216.09
  Q 481.24 216.07 481.26 215.62
  Q 481.29 214.20 482.05 212.80
  Z" fill="#e35574"></path>
<path d="M 49.40 239.36
  Q 46.38 279.71 58.09 318.35
  Q 57.99 319.30 56.35 319.98
  Q 55.12 320.49 54.43 321.18
  Q 47.81 327.79 41.23 334.44
  A 0.37 0.36 -21.7 0 0 41.11 334.71
  Q 41.12 334.90 41.12 335.08
  Q 41.11 335.58 40.65 335.38
  L 39.79 335.02
  C 31.14 311.88 26.63 286.89 25.79 262.23
  Q 26.11 262.19 26.12 262.54
  Q 26.13 262.86 26.44 262.87
  Q 26.91 262.89 27.06 262.48
  C 27.78 260.42 29.91 258.26 31.64 256.99
  Q 31.88 256.82 31.88 256.51
  Q 31.88 256.35 31.88 256.20
  Q 31.88 256.07 32.01 256.04
  Q 32.57 255.89 33.89 254.51
  Q 39.97 248.19 46.34 242.59
  A 0.63 0.62 70.7 0 1 47.37 243.09
  Q 47.35 243.48 47.63 243.69
  Q 47.88 243.88 47.90 243.57
  Q 48.11 240.61 49.40 239.36
  Z" fill="#ce71c6"></path>
<path d="M 211.46 256.13
  L 214.76 256.26
  Q 215.15 256.28 214.81 256.47
  C 213.60 257.14 212.47 257.38 211.44 258.31
  Q 210.66 259.01 209.91 259.75
  Q 209.57 260.08 209.09 260.07
  Q 208.71 260.05 208.49 260.24
  Q 207.38 261.12 205.72 262.91
  Q 205.54 263.11 205.27 263.11
  Q 205.12 263.11 204.96 263.13
  Q 204.51 263.19 204.17 263.50
  L 202.09 265.46
  Q 201.71 265.81 201.23 265.98
  C 200.14 266.35 198.85 268.17 197.94 268.12
  A 0.97 0.97 0.0 0 0 197.10 268.52
  Q 196.21 269.76 195.01 270.63
  Q 193.45 271.78 192.74 272.45
  Q 189.54 275.47 186.13 276.68
  L 178.82 256.48
  A 0.26 0.26 0.0 0 1 179.07 256.13
  L 211.46 256.13
  Z" fill="#ce71c6"></path>
<path d="M 211.46 256.13
  Q 242.86 256.12 274.25 256.12
  Q 284.54 256.12 291.23 265.03
  Q 290.88 266.06 291.34 266.41
  A 1.11 0.94 -38.1 0 1 290.99 268.12
  Q 289.25 269.02 287.86 270.49
  Q 287.52 270.85 287.02 270.86
  Q 285.60 270.88 285.90 272.25
  A 0.55 0.54 -89.7 0 1 285.25 272.90
  Q 284.25 272.67 283.89 273.49
  Q 283.72 273.88 283.28 273.88
  L 282.93 273.88
  Q 282.50 273.88 282.19 274.19
  L 279.70 276.70
  Q 279.51 276.88 279.25 276.88
  L 278.93 276.88
  Q 278.50 276.88 278.19 277.19
  L 275.70 279.70
  Q 275.51 279.88 275.25 279.88
  L 274.91 279.88
  Q 274.48 279.88 274.18 280.19
  L 272.72 281.69
  Q 272.53 281.88 272.27 281.88
  L 271.93 281.88
  Q 271.50 281.88 271.19 282.19
  L 268.70 284.70
  Q 268.51 284.88 268.25 284.88
  L 267.93 284.88
  Q 267.50 284.88 267.19 285.19
  L 264.70 287.70
  Q 264.51 287.88 264.25 287.88
  L 263.91 287.88
  Q 263.48 287.88 263.18 288.19
  L 261.72 289.69
  Q 261.53 289.88 261.27 289.88
  L 260.93 289.88
  Q 260.50 289.88 260.19 290.19
  L 257.70 292.70
  Q 257.51 292.88 257.25 292.88
  L 256.93 292.88
  Q 256.50 292.88 256.19 293.19
  L 253.70 295.70
  Q 253.51 295.88 253.25 295.88
  L 252.91 295.88
  Q 252.48 295.88 252.18 296.19
  L 250.72 297.69
  Q 250.53 297.88 250.27 297.88
  L 249.87 297.88
  Q 249.43 297.88 249.13 298.20
  L 246.43 301.08
  Q 246.09 301.45 245.59 301.52
  L 243.20 301.88
  C 228.39 301.95 214.65 303.00 201.87 294.37
  Q 191.85 287.59 186.13 276.68
  Q 189.54 275.47 192.74 272.45
  Q 193.45 271.78 195.01 270.63
  Q 196.21 269.76 197.10 268.52
  A 0.97 0.97 0.0 0 1 197.94 268.12
  C 198.85 268.17 200.14 266.35 201.23 265.98
  Q 201.71 265.81 202.09 265.46
  L 204.17 263.50
  Q 204.51 263.19 204.96 263.13
  Q 205.12 263.11 205.27 263.11
  Q 205.54 263.11 205.72 262.91
  Q 207.38 261.12 208.49 260.24
  Q 208.71 260.05 209.09 260.07
  Q 209.57 260.08 209.91 259.75
  Q 210.66 259.01 211.44 258.31
  C 212.47 257.38 213.60 257.14 214.81 256.47
  Q 215.15 256.28 214.76 256.26
  L 211.46 256.13
  Z" fill="#d567a9"></path>
<path d="M 291.23 265.03
  Q 295.81 270.25 296.15 276.76
  Q 296.51 283.68 296.15 301.41
  Q 296.14 301.90 295.66 301.90
  L 243.20 301.88
  L 245.59 301.52
  Q 246.09 301.45 246.43 301.08
  L 249.13 298.20
  Q 249.43 297.88 249.87 297.88
  L 250.27 297.88
  Q 250.53 297.88 250.72 297.69
  L 252.18 296.19
  Q 252.48 295.88 252.91 295.88
  L 253.25 295.88
  Q 253.51 295.88 253.70 295.70
  L 256.19 293.19
  Q 256.50 292.88 256.93 292.88
  L 257.25 292.88
  Q 257.51 292.88 257.70 292.70
  L 260.19 290.19
  Q 260.50 289.88 260.93 289.88
  L 261.27 289.88
  Q 261.53 289.88 261.72 289.69
  L 263.18 288.19
  Q 263.48 287.88 263.91 287.88
  L 264.25 287.88
  Q 264.51 287.88 264.70 287.70
  L 267.19 285.19
  Q 267.50 284.88 267.93 284.88
  L 268.25 284.88
  Q 268.51 284.88 268.70 284.70
  L 271.19 282.19
  Q 271.50 281.88 271.93 281.88
  L 272.27 281.88
  Q 272.53 281.88 272.72 281.69
  L 274.18 280.19
  Q 274.48 279.88 274.91 279.88
  L 275.25 279.88
  Q 275.51 279.88 275.70 279.70
  L 278.19 277.19
  Q 278.50 276.88 278.93 276.88
  L 279.25 276.88
  Q 279.51 276.88 279.70 276.70
  L 282.19 274.19
  Q 282.50 273.88 282.93 273.88
  L 283.28 273.88
  Q 283.72 273.88 283.89 273.49
  Q 284.25 272.67 285.25 272.90
  A 0.55 0.54 -89.7 0 0 285.90 272.25
  Q 285.60 270.88 287.02 270.86
  Q 287.52 270.85 287.86 270.49
  Q 289.25 269.02 290.99 268.12
  A 1.11 0.94 -38.1 0 0 291.34 266.41
  Q 290.88 266.06 291.23 265.03
  Z" fill="#dd5d8b"></path>
<path d="M 484.45 283.32
  Q 481.20 312.71 470.30 340.27
  Q 456.83 374.31 433.40 402.43
  Q 429.13 407.55 424.76 412.59
  Q 423.21 414.37 419.87 417.52
  C 417.60 419.66 415.57 422.19 413.33 424.13
  C 408.46 428.36 403.43 432.96 398.68 436.69
  Q 344.62 479.06 275.55 485.41
  L 278.80 484.02
  A 1.04 0.05 5.5 0 1 279.74 484.07
  Q 280.55 484.14 281.07 483.53
  C 282.37 482.01 285.71 478.68 287.52 478.06
  Q 287.99 477.89 288.13 477.41
  Q 288.54 476.03 289.84 475.23
  Q 290.31 474.94 290.61 474.48
  Q 291.58 472.97 293.14 472.07
  Q 293.25 472.00 293.29 471.91
  Q 293.36 471.77 293.38 471.63
  Q 293.41 471.37 293.67 471.37
  Q 295.31 471.39 295.36 469.84
  Q 295.38 469.37 295.72 469.04
  L 306.40 459.03
  Q 306.74 458.71 306.86 458.27
  Q 306.93 458.03 307.07 457.82
  Q 307.47 457.24 306.77 457.35
  C 304.71 457.67 303.68 458.55 301.51 458.33
  C 378.42 440.54 437.26 382.81 457.16 306.50
  Q 457.28 306.79 457.24 307.22
  A 0.16 0.16 0.0 0 0 457.47 307.38
  Q 457.61 307.31 457.75 307.24
  Q 457.90 307.17 457.86 307.02
  Q 457.70 306.28 458.50 306.26
  C 460.93 303.64 463.65 301.96 465.41 299.52
  Q 465.50 299.40 465.66 299.38
  Q 465.80 299.37 465.93 299.30
  Q 466.00 299.26 466.06 299.17
  Q 467.42 297.17 469.13 295.45
  Q 469.46 295.12 469.94 295.12
  L 470.34 295.12
  Q 470.66 295.12 470.87 294.87
  Q 471.21 294.48 471.14 293.94
  Q 471.09 293.54 471.39 293.26
  L 476.35 288.64
  Q 476.65 288.36 477.06 288.36
  L 477.37 288.36
  Q 477.64 288.36 477.80 288.14
  L 479.36 286.00
  Q 479.54 285.76 480.00 285.30
  Q 480.84 284.46 481.82 284.75
  Q 482.29 284.89 482.69 284.59
  L 484.45 283.32
  Z" fill="#e74f64"></path>
<path d="M 58.09 318.35
  C 59.67 321.97 60.98 326.49 62.13 329.47
  Q 85.49 390.17 139.23 427.32
  Q 138.29 427.95 138.61 428.37
  C 133.90 432.06 129.86 436.58 125.59 440.76
  C 124.62 441.70 124.21 443.11 122.76 443.77
  C 109.69 434.35 100.46 425.71 91.74 417.25
  C 86.99 412.64 82.81 407.52 78.43 402.57
  Q 71.06 394.22 61.53 379.28
  Q 48.19 358.36 39.79 335.02
  L 40.65 335.38
  Q 41.11 335.58 41.12 335.08
  Q 41.12 334.90 41.11 334.71
  A 0.37 0.36 -21.7 0 1 41.23 334.44
  Q 47.81 327.79 54.43 321.18
  Q 55.12 320.49 56.35 319.98
  Q 57.99 319.30 58.09 318.35
  Z" fill="#d567a9"></path>
<path d="M 286.07 329.06
  L 285.55 330.05
  Q 285.36 330.41 284.98 330.59
  Q 284.36 330.89 283.87 331.37
  Q 283.54 331.70 283.10 331.87
  Q 281.74 332.37 280.87 333.57
  Q 280.64 333.88 280.26 333.88
  L 279.93 333.88
  Q 279.50 333.88 279.19 334.18
  L 275.69 337.70
  Q 275.51 337.88 275.25 337.88
  L 274.80 337.88
  A 0.60 0.58 -64.7 0 0 274.41 338.03
  L 272.90 339.42
  Q 272.60 339.70 272.21 339.83
  Q 270.77 340.32 269.86 341.57
  A 0.74 0.71 -71.8 0 1 269.27 341.88
  L 268.81 341.88
  Q 268.46 341.88 268.22 342.13
  L 265.58 344.84
  Q 265.54 344.88 265.49 344.88
  L 265.03 344.88
  Q 264.74 344.88 264.50 345.06
  Q 262.93 346.29 261.65 347.81
  Q 261.59 347.88 261.51 347.88
  L 261.16 347.88
  Q 260.72 347.88 260.40 348.17
  L 257.87 350.46
  Q 257.49 350.81 256.98 350.87
  Q 256.63 350.90 256.36 351.12
  Q 256.07 351.35 255.93 352.07
  C 255.55 354.03 253.47 354.38 253.07 356.49
  Q 252.98 356.98 252.48 357.04
  Q 252.19 357.08 251.93 357.00
  Q 245.85 351.20 242.51 342.72
  Q 238.47 332.42 236.17 325.61
  Q 235.98 325.06 236.56 325.06
  Q 254.01 324.95 271.40 325.09
  C 277.16 325.13 281.45 326.27 286.07 329.06
  Z" fill="#dd5d8b"></path>
<path d="M 286.07 329.06
  Q 295.88 336.13 296.27 347.72
  Q 295.51 348.16 294.73 348.13
  Q 294.27 348.12 294.09 348.54
  Q 293.83 349.17 293.15 349.13
  Q 292.55 349.10 292.12 349.52
  L 289.65 351.96
  A 0.51 0.51 0.0 0 1 289.28 352.12
  Q 289.04 352.12 288.81 352.14
  Q 288.41 352.17 288.13 352.45
  L 285.69 354.97
  Q 285.54 355.13 285.32 355.12
  Q 285.10 355.11 284.89 355.15
  Q 284.40 355.24 284.04 355.59
  L 281.67 357.97
  Q 281.51 358.12 281.29 358.12
  Q 281.09 358.11 280.89 358.15
  Q 280.40 358.24 280.04 358.59
  L 277.67 360.97
  Q 277.51 361.12 277.29 361.12
  Q 277.02 361.11 276.75 361.18
  Q 276.32 361.29 276.01 361.61
  L 274.69 362.96
  Q 274.53 363.12 274.29 363.12
  Q 274.12 363.11 273.95 363.14
  Q 273.46 363.21 273.10 363.56
  L 270.85 365.74
  Q 270.46 366.12 269.91 366.12
  L 269.58 366.12
  A 0.49 0.48 -14.0 0 0 269.15 366.83
  Q 269.67 367.79 269.09 368.28
  Q 259.63 364.68 252.59 357.91
  Q 252.15 357.49 251.93 357.00
  Q 252.19 357.08 252.48 357.04
  Q 252.98 356.98 253.07 356.49
  C 253.47 354.38 255.55 354.03 255.93 352.07
  Q 256.07 351.35 256.36 351.12
  Q 256.63 350.90 256.98 350.87
  Q 257.49 350.81 257.87 350.46
  L 260.40 348.17
  Q 260.72 347.88 261.16 347.88
  L 261.51 347.88
  Q 261.59 347.88 261.65 347.81
  Q 262.93 346.29 264.50 345.06
  Q 264.74 344.88 265.03 344.88
  L 265.49 344.88
  Q 265.54 344.88 265.58 344.84
  L 268.22 342.13
  Q 268.46 341.88 268.81 341.88
  L 269.27 341.88
  A 0.74 0.71 -71.8 0 0 269.86 341.57
  Q 270.77 340.32 272.21 339.83
  Q 272.60 339.70 272.90 339.42
  L 274.41 338.03
  A 0.60 0.58 -64.7 0 1 274.80 337.88
  L 275.25 337.88
  Q 275.51 337.88 275.69 337.70
  L 279.19 334.18
  Q 279.50 333.88 279.93 333.88
  L 280.26 333.88
  Q 280.64 333.88 280.87 333.57
  Q 281.74 332.37 283.10 331.87
  Q 283.54 331.70 283.87 331.37
  Q 284.36 330.89 284.98 330.59
  Q 285.36 330.41 285.55 330.05
  L 286.07 329.06
  Z" fill="#e35574"></path>
<path d="M 296.27 347.72
  L 296.23 370.61
  Q 296.23 371.12 295.72 371.13
  C 286.56 371.18 277.73 371.58 269.09 368.28
  Q 269.67 367.79 269.15 366.83
  A 0.49 0.48 -14.0 0 1 269.58 366.12
  L 269.91 366.12
  Q 270.46 366.12 270.85 365.74
  L 273.10 363.56
  Q 273.46 363.21 273.95 363.14
  Q 274.12 363.11 274.29 363.12
  Q 274.53 363.12 274.69 362.96
  L 276.01 361.61
  Q 276.32 361.29 276.75 361.18
  Q 277.02 361.11 277.29 361.12
  Q 277.51 361.12 277.67 360.97
  L 280.04 358.59
  Q 280.40 358.24 280.89 358.15
  Q 281.09 358.11 281.29 358.12
  Q 281.51 358.12 281.67 357.97
  L 284.04 355.59
  Q 284.40 355.24 284.89 355.15
  Q 285.10 355.11 285.32 355.12
  Q 285.54 355.13 285.69 354.97
  L 288.13 352.45
  Q 288.41 352.17 288.81 352.14
  Q 289.04 352.12 289.28 352.12
  A 0.51 0.51 0.0 0 0 289.65 351.96
  L 292.12 349.52
  Q 292.55 349.10 293.15 349.13
  Q 293.83 349.17 294.09 348.54
  Q 294.27 348.12 294.73 348.13
  Q 295.51 348.16 296.27 347.72
  Z" fill="#e74f64"></path>
<path d="M 139.23 427.32
  Q 188.08 460.42 247.18 463.00
  Q 246.99 463.64 248.75 463.58
  Q 256.96 463.26 265.11 464.08
  Q 265.15 464.09 265.11 464.10
  C 262.89 464.98 260.56 465.29 258.83 467.32
  C 257.75 468.58 256.39 469.00 255.50 469.88
  Q 248.18 477.16 240.94 484.50
  Q 240.91 484.53 240.93 484.56
  Q 241.01 484.68 241.06 484.82
  Q 241.15 485.04 240.91 485.02
  Q 239.22 484.91 237.56 484.69
  Q 237.20 484.64 236.97 484.79
  Q 236.54 485.06 236.72 485.41
  Q 173.99 479.88 122.76 443.77
  C 124.21 443.11 124.62 441.70 125.59 440.76
  C 129.86 436.58 133.90 432.06 138.61 428.37
  Q 138.29 427.95 139.23 427.32
  Z" fill="#dd5d8b"></path>
<path d="M 275.55 485.41
  Q 256.09 487.13 236.72 485.41
  Q 236.54 485.06 236.97 484.79
  Q 237.20 484.64 237.56 484.69
  Q 239.22 484.91 240.91 485.02
  Q 241.15 485.04 241.06 484.82
  Q 241.01 484.68 240.93 484.56
  Q 240.91 484.53 240.94 484.50
  Q 248.18 477.16 255.50 469.88
  C 256.39 469.00 257.75 468.58 258.83 467.32
  C 260.56 465.29 262.89 464.98 265.11 464.10
  Q 265.15 464.09 265.11 464.08
  Q 256.96 463.26 248.75 463.58
  Q 246.99 463.64 247.18 463.00
  Q 274.65 464.02 301.51 458.33
  C 303.68 458.55 304.71 457.67 306.77 457.35
  Q 307.47 457.24 307.07 457.82
  Q 306.93 458.03 306.86 458.27
  Q 306.74 458.71 306.40 459.03
  L 295.72 469.04
  Q 295.38 469.37 295.36 469.84
  Q 295.31 471.39 293.67 471.37
  Q 293.41 471.37 293.38 471.63
  Q 293.36 471.77 293.29 471.91
  Q 293.25 472.00 293.14 472.07
  Q 291.58 472.97 290.61 474.48
  Q 290.31 474.94 289.84 475.23
  Q 288.54 476.03 288.13 477.41
  Q 287.99 477.89 287.52 478.06
  C 285.71 478.68 282.37 482.01 281.07 483.53
  Q 280.55 484.14 279.74 484.07
  A 1.04 0.05 5.5 0 0 278.80 484.02
  L 275.55 485.41
  Z" fill="#e35574"></path>
</svg>
