<svg viewBox="0.00 0.00 64.00 64.00" version="1.1" xmlns="http://www.w3.org/2000/svg">
<g stroke-linecap="butt" fill="none" stroke-width="2.00">
<path d="M 33.38 28.00
  Q 33.38 26.53 33.97 27.88
  Q 36.28 33.14 38.77 38.76
  C 39.24 39.81 40.04 40.40 41.17 39.94
  A 1.80 1.78 89.7 0 0 42.17 38.92
  L 51.15 15.57
  A 1.99 1.98 -79.5 0 0 49.30 12.87
  Q 32.17 12.86 14.75 12.86
  Q 13.73 12.86 13.29 13.00
  A 1.96 1.93 -19.5 0 0 12.06 15.54
  L 21.06 38.95
  A 1.79 1.78 46.3 0 0 24.36 39.03
  L 29.25 27.82
  Q 29.82 26.52 29.82 27.94
  L 29.83 50.64
  Q 29.83 52.46 31.64 52.30
  L 32.11 52.26
  A 1.38 1.37 -2.5 0 0 33.37 50.89
  L 33.38 28.00" stroke="#7c7d7e"></path>
<path d="M 46.88 16.80
  A 0.33 0.33 0.0 0 0 46.57 16.35
  L 33.39 16.58
  A 0.33 0.33 0.0 0 0 33.09 17.04
  L 39.96 32.91
  A 0.33 0.33 0.0 0 0 40.57 32.90
  L 46.88 16.80" stroke="#7c7d7e"></path>
<path d="M 30.19 16.91
  A 0.32 0.32 0.0 0 0 29.90 16.46
  L 16.69 16.46
  A 0.32 0.32 0.0 0 0 16.39 16.90
  L 22.56 32.91
  A 0.32 0.32 0.0 0 0 23.15 32.92
  L 30.19 16.91" stroke="#7c7d7e"></path>
</g>
<path d="M 9.09 0.00
  L 54.99 0.00
  Q 62.34 1.79 64.00 9.10
  L 64.00 54.98
  Q 62.22 62.34 54.89 64.00
  L 9.00 64.00
  Q 1.65 62.19 0.00 54.89
  L 0.00 9.01
  Q 1.78 1.68 9.09 0.00
  Z
  M 33.38 28.00
  Q 33.38 26.53 33.97 27.88
  Q 36.28 33.14 38.77 38.76
  C 39.24 39.81 40.04 40.40 41.17 39.94
  A 1.80 1.78 89.7 0 0 42.17 38.92
  L 51.15 15.57
  A 1.99 1.98 -79.5 0 0 49.30 12.87
  Q 32.17 12.86 14.75 12.86
  Q 13.73 12.86 13.29 13.00
  A 1.96 1.93 -19.5 0 0 12.06 15.54
  L 21.06 38.95
  A 1.79 1.78 46.3 0 0 24.36 39.03
  L 29.25 27.82
  Q 29.82 26.52 29.82 27.94
  L 29.83 50.64
  Q 29.83 52.46 31.64 52.30
  L 32.11 52.26
  A 1.38 1.37 -2.5 0 0 33.37 50.89
  L 33.38 28.00
  Z" fill="#000000"></path>
<path d="M 33.38 28.00
  L 33.37 50.89
  A 1.38 1.37 -2.5 0 1 32.11 52.26
  L 31.64 52.30
  Q 29.83 52.46 29.83 50.64
  L 29.82 27.94
  Q 29.82 26.52 29.25 27.82
  L 24.36 39.03
  A 1.79 1.78 46.3 0 1 21.06 38.95
  L 12.06 15.54
  A 1.96 1.93 -19.5 0 1 13.29 13.00
  Q 13.73 12.86 14.75 12.86
  Q 32.17 12.86 49.30 12.87
  A 1.99 1.98 -79.5 0 1 51.15 15.57
  L 42.17 38.92
  A 1.80 1.78 89.7 0 1 41.17 39.94
  C 40.04 40.40 39.24 39.81 38.77 38.76
  Q 36.28 33.14 33.97 27.88
  Q 33.38 26.53 33.38 28.00
  Z
  M 46.88 16.80
  A 0.33 0.33 0.0 0 0 46.57 16.35
  L 33.39 16.58
  A 0.33 0.33 0.0 0 0 33.09 17.04
  L 39.96 32.91
  A 0.33 0.33 0.0 0 0 40.57 32.90
  L 46.88 16.80
  Z
  M 30.19 16.91
  A 0.32 0.32 0.0 0 0 29.90 16.46
  L 16.69 16.46
  A 0.32 0.32 0.0 0 0 16.39 16.90
  L 22.56 32.91
  A 0.32 0.32 0.0 0 0 23.15 32.92
  L 30.19 16.91
  Z" fill="#f8fafc"></path>
<path d="M 46.88 16.80
  L 40.57 32.90
  A 0.33 0.33 0.0 0 1 39.96 32.91
  L 33.09 17.04
  A 0.33 0.33 0.0 0 1 33.39 16.58
  L 46.57 16.35
  A 0.33 0.33 0.0 0 1 46.88 16.80
  Z" fill="#000000"></path>
<path d="M 30.19 16.91
  L 23.15 32.92
  A 0.32 0.32 0.0 0 1 22.56 32.91
  L 16.39 16.90
  A 0.32 0.32 0.0 0 1 16.69 16.46
  L 29.90 16.46
  A 0.32 0.32 0.0 0 1 30.19 16.91
  Z" fill="#000000"></path>
</svg>
