<svg viewBox="0.00 0.00 16.00 16.00" version="1.1" xmlns="http://www.w3.org/2000/svg">
<path d="M 7.71 14.27
  L 6.72 14.69
  Q 6.22 14.90 5.80 14.55
  C 1.46 10.96 -1.58 2.67 5.69 0.59
  C 6.50 0.36 8.98 0.21 9.85 0.44
  C 17.59 2.47 14.73 10.59 10.29 14.52
  Q 9.93 14.84 9.46 14.73
  Q 9.03 14.63 8.63 14.36
  Q 8.19 14.07 7.71 14.27
  Z
  M 13.59 6.37
  C 13.76 -0.25 2.82 -0.53 2.23 6.14
  C 2.03 8.41 4.64 11.62 5.99 13.36
  A 0.67 0.67 0.0 0 0 6.79 13.56
  Q 8.05 13.00 9.31 13.60
  Q 9.87 13.87 10.20 13.35
  L 12.63 9.51
  Q 13.55 8.07 13.59 6.37
  Z" fill-opacity="0.996" fill="#0166cc"></path>
</svg>
