<svg viewBox="0.00 0.00 32.00 32.00" version="1.1" xmlns="http://www.w3.org/2000/svg">
<g stroke-linecap="butt" fill="none" stroke-width="2.00">
<path d="M 19.34 6.94
  L 14.89 16.04" stroke="#9ac2f5"></path>
<path d="M 14.89 16.04
  C 13.22 19.48 11.05 24.73 8.53 24.45
  A 0.43 0.42 80.8 0 0 8.10 25.05
  L 8.26 25.41
  Q 8.52 25.98 9.15 25.98
  L 20.37 25.99
  A 0.88 0.87 11.9 0 0 21.17 25.48
  L 23.32 20.71" stroke-opacity="0.996" stroke="#a5a5f4"></path>
<path d="M 23.32 20.71
  L 27.22 12.17" stroke="#9ac2f5"></path>
<path d="M 27.22 12.17
  L 29.43 6.88
  A 0.53 0.53 0.0 0 0 29.01 6.15
  Q 22.57 5.32 19.34 6.94" stroke="#80dbf9"></path>
<path d="M 27.22 12.17
  Q 25.15 10.75 22.96 9.88
  C 22.22 9.59 21.37 9.80 20.65 8.90
  Q 20.34 8.51 19.85 8.42
  Q 18.73 8.21 19.34 6.94" stroke="#1da0f8"></path>
<path d="M 23.32 20.71
  Q 22.31 19.40 20.22 18.91
  A 1.60 1.55 76.2 0 1 19.37 18.38
  Q 18.27 17.06 16.54 17.40
  Q 16.10 17.49 15.97 17.07
  Q 15.68 16.17 14.89 16.04" stroke="#4269f2"></path>
<path d="M 2.65 10.82
  L 7.54 22.51
  A 1.40 1.40 0.0 0 0 10.07 22.62
  L 13.82 15.40
  Q 14.09 14.89 13.86 14.35
  L 12.35 10.79
  Q 11.82 9.55 10.47 9.54
  L 3.51 9.54
  Q 2.12 9.54 2.65 10.82" stroke-opacity="0.996" stroke="#a5a5f4"></path>
</g>
<path d="M 15.24 13.17
  L 18.78 6.15
  Q 19.37 4.98 20.68 4.98
  L 29.31 4.99
  A 1.52 1.52 0.0 0 1 30.70 7.14
  L 22.05 26.23
  Q 21.68 27.03 20.80 27.03
  L 9.18 27.03
  A 1.81 1.80 -10.2 0 1 7.51 25.88
  L 1.52 10.40
  A 1.41 1.41 0.0 0 1 2.84 8.48
  L 10.83 8.47
  A 2.58 2.56 78.6 0 1 13.22 10.07
  L 14.47 13.14
  Q 14.82 14.00 15.24 13.17
  Z
  M 19.34 6.94
  L 14.89 16.04
  C 13.22 19.48 11.05 24.73 8.53 24.45
  A 0.43 0.42 80.8 0 0 8.10 25.05
  L 8.26 25.41
  Q 8.52 25.98 9.15 25.98
  L 20.37 25.99
  A 0.88 0.87 11.9 0 0 21.17 25.48
  L 23.32 20.71
  L 27.22 12.17
  L 29.43 6.88
  A 0.53 0.53 0.0 0 0 29.01 6.15
  Q 22.57 5.32 19.34 6.94
  Z
  M 2.65 10.82
  L 7.54 22.51
  A 1.40 1.40 0.0 0 0 10.07 22.62
  L 13.82 15.40
  Q 14.09 14.89 13.86 14.35
  L 12.35 10.79
  Q 11.82 9.55 10.47 9.54
  L 3.51 9.54
  Q 2.12 9.54 2.65 10.82
  Z" fill-opacity="0.996" fill="#fdfef7"></path>
<path d="M 27.22 12.17
  Q 25.15 10.75 22.96 9.88
  C 22.22 9.59 21.37 9.80 20.65 8.90
  Q 20.34 8.51 19.85 8.42
  Q 18.73 8.21 19.34 6.94
  Q 22.57 5.32 29.01 6.15
  A 0.53 0.53 0.0 0 1 29.43 6.88
  L 27.22 12.17
  Z" fill="#03b8fb"></path>
<path d="M 19.34 6.94
  Q 18.73 8.21 19.85 8.42
  Q 20.34 8.51 20.65 8.90
  C 21.37 9.80 22.22 9.59 22.96 9.88
  Q 25.15 10.75 27.22 12.17
  L 23.32 20.71
  Q 22.31 19.40 20.22 18.91
  A 1.60 1.55 76.2 0 1 19.37 18.38
  Q 18.27 17.06 16.54 17.40
  Q 16.10 17.49 15.97 17.07
  Q 15.68 16.17 14.89 16.04
  L 19.34 6.94
  Z" fill="#3787f4"></path>
<path d="M 7.54 22.51
  L 2.65 10.82
  Q 2.12 9.54 3.51 9.54
  L 10.47 9.54
  Q 11.82 9.55 12.35 10.79
  L 13.86 14.35
  Q 14.09 14.89 13.82 15.40
  L 10.07 22.62
  A 1.40 1.40 0.0 0 1 7.54 22.51
  Z" fill-opacity="0.996" fill="#4d4bf0"></path>
<path d="M 14.89 16.04
  Q 15.68 16.17 15.97 17.07
  Q 16.10 17.49 16.54 17.40
  Q 18.27 17.06 19.37 18.38
  A 1.60 1.55 76.2 0 0 20.22 18.91
  Q 22.31 19.40 23.32 20.71
  L 21.17 25.48
  A 0.88 0.87 11.9 0 1 20.37 25.99
  L 9.15 25.98
  Q 8.52 25.98 8.26 25.41
  L 8.10 25.05
  A 0.43 0.42 80.8 0 1 8.53 24.45
  C 11.05 24.73 13.22 19.48 14.89 16.04
  Z" fill-opacity="0.996" fill="#4d4bf0"></path>
</svg>
