<svg viewBox="0.00 0.00 200.00 200.00" version="1.1" xmlns="http://www.w3.org/2000/svg">
<path d="M 106.11 157.50
  Q 106.02 158.44 106.20 159.00
  Q 112.60 178.96 118.78 199.18" stroke-linecap="butt" fill="none" stroke-width="2.00" stroke="#1212dd"></path>
<path d="M 106.11 157.50
  Q 106.02 158.44 106.20 159.00
  Q 112.60 178.96 118.78 199.18
  C 101.15 199.49 84.17 200.63 70.79 187.95
  C 63.59 181.12 60.18 172.00 56.83 161.13
  Q 32.58 82.63 8.89 4.26
  Q 8.70 3.63 9.34 3.48
  C 27.97 -0.83 56.37 -4.39 63.62 19.77
  Q 84.12 88.14 105.55 156.23
  Q 105.77 156.93 106.11 157.50
  Z" fill="#0000ba"></path>
<path d="M 118.78 199.18
  Q 112.60 178.96 106.20 159.00
  Q 106.02 158.44 106.11 157.50
  Q 106.64 158.54 107.46 158.62
  Q 108.00 158.67 108.16 158.15
  Q 122.94 107.99 138.23 57.99
  Q 148.31 25.05 151.82 15.99
  C 158.22 -0.53 177.90 3.31 191.25 4.97
  A 0.23 0.23 0.0 0 1 191.44 5.26
  L 132.95 198.23
  A 0.90 0.90 0.0 0 1 132.10 198.87
  L 118.78 199.18
  Z" fill="#2424ff"></path>
</svg>
