<svg viewBox="0.00 0.00 512.00 512.00" version="1.1" xmlns="http://www.w3.org/2000/svg">
<g stroke-linecap="butt" fill="none" stroke-width="2.00">
<path d="M 413.98 256.50
  A 157.53 157.53 0.0 0 0 256.45 98.97
  A 157.53 157.53 0.0 0 0 98.92 256.50
  A 157.53 157.53 0.0 0 0 256.45 414.03
  A 157.53 157.53 0.0 0 0 413.98 256.50" stroke="#dbdbdb"></path>
<path d="M 243.65 244.28
  L 184.96 244.37
  Q 182.99 244.37 183.00 246.35
  Q 183.03 255.35 182.91 264.38
  Q 182.89 266.14 183.20 267.65
  A 1.30 1.29 -5.7 0 0 184.47 268.68
  L 243.27 268.78
  A 0.99 0.98 90.0 0 1 244.25 269.77
  L 244.26 328.32
  A 1.69 1.69 0.0 0 0 245.95 330.01
  L 267.92 329.94
  A 0.86 0.85 -90.0 0 0 268.77 329.08
  L 268.72 269.49
  A 0.57 0.56 -0.5 0 1 269.28 268.93
  L 329.10 268.72
  A 0.91 0.90 -0.0 0 0 330.00 267.83
  Q 330.03 257.80 329.94 247.75
  Q 329.92 246.30 329.73 245.03
  A 0.85 0.85 0.0 0 0 328.89 244.31
  L 269.76 244.35
  A 1.10 1.09 0.0 0 1 268.66 243.26
  L 268.74 184.75
  Q 268.74 183.00 266.99 183.00
  L 245.25 183.02
  A 0.98 0.97 -90.0 0 0 244.28 184.00
  L 244.25 243.69
  Q 244.25 244.28 243.65 244.28" stroke="#dbdbdb"></path>
</g>
<path d="M 0.00 0.00
  L 512.00 0.00
  L 512.00 512.00
  L 0.00 512.00
  L 0.00 0.00
  Z
  M 413.98 256.50
  A 157.53 157.53 0.0 0 0 256.45 98.97
  A 157.53 157.53 0.0 0 0 98.92 256.50
  A 157.53 157.53 0.0 0 0 256.45 414.03
  A 157.53 157.53 0.0 0 0 413.98 256.50
  Z" fill="#d1d1d1"></path>
<path d="M 413.98 256.50
  A 157.53 157.53 0.0 0 1 256.45 414.03
  A 157.53 157.53 0.0 0 1 98.92 256.50
  A 157.53 157.53 0.0 0 1 256.45 98.97
  A 157.53 157.53 0.0 0 1 413.98 256.50
  Z
  M 243.65 244.28
  L 184.96 244.37
  Q 182.99 244.37 183.00 246.35
  Q 183.03 255.35 182.91 264.38
  Q 182.89 266.14 183.20 267.65
  A 1.30 1.29 -5.7 0 0 184.47 268.68
  L 243.27 268.78
  A 0.99 0.98 90.0 0 1 244.25 269.77
  L 244.26 328.32
  A 1.69 1.69 0.0 0 0 245.95 330.01
  L 267.92 329.94
  A 0.86 0.85 -90.0 0 0 268.77 329.08
  L 268.72 269.49
  A 0.57 0.56 -0.5 0 1 269.28 268.93
  L 329.10 268.72
  A 0.91 0.90 -0.0 0 0 330.00 267.83
  Q 330.03 257.80 329.94 247.75
  Q 329.92 246.30 329.73 245.03
  A 0.85 0.85 0.0 0 0 328.89 244.31
  L 269.76 244.35
  A 1.10 1.09 0.0 0 1 268.66 243.26
  L 268.74 184.75
  Q 268.74 183.00 266.99 183.00
  L 245.25 183.02
  A 0.98 0.97 -90.0 0 0 244.28 184.00
  L 244.25 243.69
  Q 244.25 244.28 243.65 244.28
  Z" fill="#e4e4e4"></path>
<path d="M 244.25 243.69
  L 244.28 184.00
  A 0.98 0.97 -90.0 0 1 245.25 183.02
  L 266.99 183.00
  Q 268.74 183.00 268.74 184.75
  L 268.66 243.26
  A 1.10 1.09 -0.0 0 0 269.76 244.35
  L 328.89 244.31
  A 0.85 0.85 0.0 0 1 329.73 245.03
  Q 329.92 246.30 329.94 247.75
  Q 330.03 257.80 330.00 267.83
  A 0.91 0.90 -0.0 0 1 329.10 268.72
  L 269.28 268.93
  A 0.57 0.56 -0.5 0 0 268.72 269.49
  L 268.77 329.08
  A 0.86 0.85 -90.0 0 1 267.92 329.94
  L 245.95 330.01
  A 1.69 1.69 0.0 0 1 244.26 328.32
  L 244.25 269.77
  A 0.99 0.98 -90.0 0 0 243.27 268.78
  L 184.47 268.68
  A 1.30 1.29 -5.7 0 1 183.20 267.65
  Q 182.89 266.14 182.91 264.38
  Q 183.03 255.35 183.00 246.35
  Q 182.99 244.37 184.96 244.37
  L 243.65 244.28
  Q 244.25 244.28 244.25 243.69
  Z" fill="#d1d1d1"></path>
</svg>
