<svg viewBox="0.00 0.00 256.00 256.00" version="1.1" xmlns="http://www.w3.org/2000/svg">
<g stroke-linecap="butt" fill="none" stroke-width="2.00">
<path d="M 15.91 199.78
  Q 16.07 199.18 15.20 198.94
  Q 14.64 198.79 14.67 198.21
  L 15.25 184.76" stroke="#614a2e"></path>
<path d="M 15.25 184.76
  L 15.65 197.21
  A 0.94 0.93 12.5 0 0 16.17 198.01
  L 126.50 252.95
  A 0.59 0.59 0.0 0 0 127.36 252.42
  Q 127.24 213.31 127.54 174.00
  Q 127.57 170.12 124.59 169.18
  C 120.40 167.85 116.49 165.77 112.63 163.70
  Q 110.23 162.40 107.61 161.19
  Q 105.05 160.01 102.55 158.70
  Q 102.08 158.45 101.87 157.98
  A 0.31 0.31 0.0 0 0 101.37 157.88
  L 100.92 158.33
  Q 100.69 158.55 100.69 158.87
  L 100.55 213.18
  A 0.37 0.37 0.0 0 1 100.09 213.54
  C 95.92 212.55 92.41 209.70 88.72 208.18
  C 87.69 207.76 87.13 206.94 85.87 206.72
  Q 85.43 206.64 85.05 206.40
  Q 83.98 205.73 81.49 204.48
  Q 62.62 195.01 43.89 185.69
  A 1.85 1.85 0.0 0 1 42.86 184.03
  L 42.89 157.49
  Q 42.89 157.25 43.01 157.05
  Q 43.13 156.86 43.13 156.75
  C 43.13 130.41 42.85 104.10 42.88 77.75
  C 42.89 76.41 43.29 74.59 43.11 72.93
  Q 43.06 72.51 42.68 72.32
  L 16.70 59.40
  Q 15.80 58.95 15.88 59.95
  C 16.63 69.23 16.01 78.87 15.88 88.17
  C 15.78 94.83 15.19 103.72 15.19 111.50
  Q 15.19 114.73 15.03 117.97" stroke="#c95f15"></path>
<path d="M 15.03 117.97
  L 14.41 117.78" stroke="#614a2e"></path>
<path d="M 14.74 125.97
  Q 14.54 125.78 14.41 125.77" stroke="#191919"></path>
<path d="M 15.25 184.76
  L 14.66 133.54" stroke="#984619"></path>
<path d="M 14.66 133.54
  L 14.74 125.97" stroke="#802e01"></path>
<path d="M 14.74 125.97
  L 15.03 117.97" stroke="#984619"></path>
<path d="M 14.66 133.54
  Q 14.49 133.47 14.42 133.54" stroke="#191919"></path>
<path d="M 44.47 70.77
  Q 43.83 71.14 43.83 71.75
  Q 43.43 127.27 43.83 183.26
  Q 43.84 183.85 44.36 184.12
  L 98.76 212.58
  Q 99.23 212.82 99.23 212.30
  L 99.19 157.62
  A 1.55 1.53 -14.5 0 1 100.00 156.27
  L 127.42 141.61
  A 0.86 0.85 43.9 0 1 128.21 141.60
  L 156.63 155.61
  A 1.12 1.11 14.2 0 1 157.25 156.64
  L 155.85 205.79" stroke="#493215"></path>
<path d="M 155.85 205.79
  Q 155.33 205.86 155.33 205.25
  Q 155.33 195.49 155.48 185.75
  Q 155.68 172.56 155.39 159.37
  Q 155.37 158.76 155.09 158.36
  Q 154.87 158.05 154.52 158.22
  L 129.79 170.48
  Q 128.97 170.88 128.97 171.79
  L 128.96 252.76
  A 0.37 0.37 0.0 0 0 129.49 253.09
  L 239.49 198.23
  A 1.08 1.05 77.2 0 0 240.08 197.27
  L 240.19 60.04
  A 0.74 0.73 76.8 0 0 239.13 59.38
  L 214.08 71.88
  Q 213.59 72.13 213.58 72.69
  Q 212.72 127.89 213.19 183.37
  Q 213.21 185.39 211.17 186.41
  C 192.73 195.56 174.29 204.24 155.91 213.93
  Q 154.60 214.62 155.05 213.21
  L 155.63 211.42" stroke="#c95f15"></path>
<path d="M 155.63 211.42
  Q 155.65 211.88 155.86 212.17
  Q 156.20 212.63 156.70 212.37
  L 210.46 184.64
  Q 211.84 183.93 211.84 182.37
  L 211.79 73.32
  Q 211.79 71.27 209.95 70.38
  L 128.75 30.82
  A 3.00 2.99 -44.2 0 0 126.19 30.79
  L 110.24 38.10" stroke="#493215"></path>
<path d="M 110.24 38.10
  L 127.88 28.72
  Q 128.24 28.53 128.59 28.71
  L 212.10 70.37
  A 1.47 1.44 -44.6 0 0 213.41 70.37
  L 238.52 57.77
  A 0.29 0.29 0.0 0 0 238.52 57.25
  L 128.54 2.49
  A 1.35 1.35 0.0 0 0 127.32 2.49
  L 17.57 57.34
  A 0.31 0.31 0.0 0 0 17.57 57.90
  Q 30.25 64.19 42.98 70.71
  Q 43.42 70.93 44.47 70.77" stroke="#c9b090"></path>
<path d="M 110.24 38.10
  L 44.47 70.77" stroke="#807e7b"></path>
<path d="M 155.63 211.42
  L 155.85 205.79" stroke="#802e01"></path>
<path d="M 102.38 156.12
  A 0.47 0.47 0.0 0 0 102.38 156.96
  L 127.80 169.85
  A 0.47 0.47 0.0 0 0 128.22 169.85
  L 153.69 156.89
  A 0.47 0.47 0.0 0 0 153.68 156.05
  L 128.26 143.39
  A 0.47 0.47 0.0 0 0 127.84 143.39
  L 102.38 156.12" stroke="#614a2e"></path>
<path d="M 157.64 99.66
  L 128.54 85.32
  Q 128.09 85.10 127.64 85.33
  L 98.46 99.79
  A 0.10 0.09 -45.9 0 0 98.46 99.96
  L 127.57 114.44
  Q 128.03 114.66 128.48 114.44
  L 157.64 99.92
  A 0.15 0.15 0.0 0 0 157.64 99.66" stroke="#493215"></path>
<path d="M 125.34 87.60
  C 123.07 88.32 121.28 90.01 119.51 90.89
  Q 111.23 95.01 103.12 99.02
  A 0.89 0.89 0.0 0 0 103.12 100.62
  L 126.97 112.50
  A 2.46 2.46 0.0 0 0 129.17 112.50
  L 153.50 100.25
  A 0.59 0.58 44.6 0 0 153.49 99.20
  Q 141.14 93.26 129.01 86.97
  C 127.54 86.21 126.45 87.24 125.34 87.60" stroke="#c95f15"></path>
</g>
<path d="M 0.00 0.00
  L 256.00 0.00
  L 256.00 256.00
  L 0.00 256.00
  L 0.00 0.00
  Z
  M 14.41 117.78
  L 14.41 125.77
  L 14.42 133.54
  Q 14.11 180.75 14.23 198.25
  Q 14.24 199.33 15.91 199.78
  L 127.55 255.42
  A 1.29 1.27 44.5 0 0 128.70 255.42
  L 241.53 199.17
  Q 241.98 198.95 241.98 198.46
  L 241.98 57.55
  A 0.80 0.79 -76.7 0 0 241.55 56.84
  L 128.76 0.66
  A 1.82 1.79 -44.6 0 0 127.17 0.66
  L 14.98 56.73
  A 0.91 0.90 76.7 0 0 14.48 57.54
  L 14.41 117.78
  Z" fill-opacity="0.004" fill="#010101"></path>
<path d="M 15.91 199.78
  Q 16.07 199.18 15.20 198.94
  Q 14.64 198.79 14.67 198.21
  L 15.25 184.76
  L 15.65 197.21
  A 0.94 0.93 12.5 0 0 16.17 198.01
  L 126.50 252.95
  A 0.59 0.59 0.0 0 0 127.36 252.42
  Q 127.24 213.31 127.54 174.00
  Q 127.57 170.12 124.59 169.18
  C 120.40 167.85 116.49 165.77 112.63 163.70
  Q 110.23 162.40 107.61 161.19
  Q 105.05 160.01 102.55 158.70
  Q 102.08 158.45 101.87 157.98
  A 0.31 0.31 0.0 0 0 101.37 157.88
  L 100.92 158.33
  Q 100.69 158.55 100.69 158.87
  L 100.55 213.18
  A 0.37 0.37 0.0 0 1 100.09 213.54
  C 95.92 212.55 92.41 209.70 88.72 208.18
  C 87.69 207.76 87.13 206.94 85.87 206.72
  Q 85.43 206.64 85.05 206.40
  Q 83.98 205.73 81.49 204.48
  Q 62.62 195.01 43.89 185.69
  A 1.85 1.85 0.0 0 1 42.86 184.03
  L 42.89 157.49
  Q 42.89 157.25 43.01 157.05
  Q 43.13 156.86 43.13 156.75
  C 43.13 130.41 42.85 104.10 42.88 77.75
  C 42.89 76.41 43.29 74.59 43.11 72.93
  Q 43.06 72.51 42.68 72.32
  L 16.70 59.40
  Q 15.80 58.95 15.88 59.95
  C 16.63 69.23 16.01 78.87 15.88 88.17
  C 15.78 94.83 15.19 103.72 15.19 111.50
  Q 15.19 114.73 15.03 117.97
  L 14.41 117.78
  L 14.48 57.54
  A 0.91 0.90 76.7 0 1 14.98 56.73
  L 127.17 0.66
  A 1.82 1.79 -44.6 0 1 128.76 0.66
  L 241.55 56.84
  A 0.80 0.79 -76.7 0 1 241.98 57.55
  L 241.98 198.46
  Q 241.98 198.95 241.53 199.17
  L 128.70 255.42
  A 1.29 1.27 44.5 0 1 127.55 255.42
  L 15.91 199.78
  Z
  M 44.47 70.77
  Q 43.83 71.14 43.83 71.75
  Q 43.43 127.27 43.83 183.26
  Q 43.84 183.85 44.36 184.12
  L 98.76 212.58
  Q 99.23 212.82 99.23 212.30
  L 99.19 157.62
  A 1.55 1.53 -14.5 0 1 100.00 156.27
  L 127.42 141.61
  A 0.86 0.85 43.9 0 1 128.21 141.60
  L 156.63 155.61
  A 1.12 1.11 14.2 0 1 157.25 156.64
  L 155.85 205.79
  Q 155.33 205.86 155.33 205.25
  Q 155.33 195.49 155.48 185.75
  Q 155.68 172.56 155.39 159.37
  Q 155.37 158.76 155.09 158.36
  Q 154.87 158.05 154.52 158.22
  L 129.79 170.48
  Q 128.97 170.88 128.97 171.79
  L 128.96 252.76
  A 0.37 0.37 0.0 0 0 129.49 253.09
  L 239.49 198.23
  A 1.08 1.05 77.2 0 0 240.08 197.27
  L 240.19 60.04
  A 0.74 0.73 76.8 0 0 239.13 59.38
  L 214.08 71.88
  Q 213.59 72.13 213.58 72.69
  Q 212.72 127.89 213.19 183.37
  Q 213.21 185.39 211.17 186.41
  C 192.73 195.56 174.29 204.24 155.91 213.93
  Q 154.60 214.62 155.05 213.21
  L 155.63 211.42
  Q 155.65 211.88 155.86 212.17
  Q 156.20 212.63 156.70 212.37
  L 210.46 184.64
  Q 211.84 183.93 211.84 182.37
  L 211.79 73.32
  Q 211.79 71.27 209.95 70.38
  L 128.75 30.82
  A 3.00 2.99 -44.2 0 0 126.19 30.79
  L 110.24 38.10
  L 127.88 28.72
  Q 128.24 28.53 128.59 28.71
  L 212.10 70.37
  A 1.47 1.44 -44.6 0 0 213.41 70.37
  L 238.52 57.77
  A 0.29 0.29 0.0 0 0 238.52 57.25
  L 128.54 2.49
  A 1.35 1.35 0.0 0 0 127.32 2.49
  L 17.57 57.34
  A 0.31 0.31 0.0 0 0 17.57 57.90
  Q 30.25 64.19 42.98 70.71
  Q 43.42 70.93 44.47 70.77
  Z
  M 102.38 156.12
  A 0.47 0.47 0.0 0 0 102.38 156.96
  L 127.80 169.85
  A 0.47 0.47 0.0 0 0 128.22 169.85
  L 153.69 156.89
  A 0.47 0.47 0.0 0 0 153.68 156.05
  L 128.26 143.39
  A 0.47 0.47 0.0 0 0 127.84 143.39
  L 102.38 156.12
  Z" fill-opacity="0.996" fill="#92642a"></path>
<path d="M 110.24 38.10
  L 44.47 70.77
  Q 43.42 70.93 42.98 70.71
  Q 30.25 64.19 17.57 57.90
  A 0.31 0.31 0.0 0 1 17.57 57.34
  L 127.32 2.49
  A 1.35 1.35 0.0 0 1 128.54 2.49
  L 238.52 57.25
  A 0.29 0.29 0.0 0 1 238.52 57.77
  L 213.41 70.37
  A 1.47 1.44 -44.6 0 1 212.10 70.37
  L 128.59 28.71
  Q 128.24 28.53 127.88 28.72
  L 110.24 38.10
  Z" fill="#fffbf5"></path>
<path d="M 155.63 211.42
  L 155.85 205.79
  L 157.25 156.64
  A 1.12 1.11 14.2 0 0 156.63 155.61
  L 128.21 141.60
  A 0.86 0.85 43.9 0 0 127.42 141.61
  L 100.00 156.27
  A 1.55 1.53 -14.5 0 0 99.19 157.62
  L 99.23 212.30
  Q 99.23 212.82 98.76 212.58
  L 44.36 184.12
  Q 43.84 183.85 43.83 183.26
  Q 43.43 127.27 43.83 71.75
  Q 43.83 71.14 44.47 70.77
  L 110.24 38.10
  L 126.19 30.79
  A 3.00 2.99 -44.2 0 1 128.75 30.82
  L 209.95 70.38
  Q 211.79 71.27 211.79 73.32
  L 211.84 182.37
  Q 211.84 183.93 210.46 184.64
  L 156.70 212.37
  Q 156.20 212.63 155.86 212.17
  Q 155.65 211.88 155.63 211.42
  Z
  M 157.64 99.66
  L 128.54 85.32
  Q 128.09 85.10 127.64 85.33
  L 98.46 99.79
  A 0.10 0.09 -45.9 0 0 98.46 99.96
  L 127.57 114.44
  Q 128.03 114.66 128.48 114.44
  L 157.64 99.92
  A 0.15 0.15 0.0 0 0 157.64 99.66
  Z" fill="#000000"></path>
<path d="M 15.25 184.76
  L 14.66 133.54
  L 14.74 125.97
  L 15.03 117.97
  Q 15.19 114.73 15.19 111.50
  C 15.19 103.72 15.78 94.83 15.88 88.17
  C 16.01 78.87 16.63 69.23 15.88 59.95
  Q 15.80 58.95 16.70 59.40
  L 42.68 72.32
  Q 43.06 72.51 43.11 72.93
  C 43.29 74.59 42.89 76.41 42.88 77.75
  C 42.85 104.10 43.13 130.41 43.13 156.75
  Q 43.13 156.86 43.01 157.05
  Q 42.89 157.25 42.89 157.49
  L 42.86 184.03
  A 1.85 1.85 0.0 0 0 43.89 185.69
  Q 62.62 195.01 81.49 204.48
  Q 83.98 205.73 85.05 206.40
  Q 85.43 206.64 85.87 206.72
  C 87.13 206.94 87.69 207.76 88.72 208.18
  C 92.41 209.70 95.92 212.55 100.09 213.54
  A 0.37 0.37 0.0 0 0 100.55 213.18
  L 100.69 158.87
  Q 100.69 158.55 100.92 158.33
  L 101.37 157.88
  A 0.31 0.31 0.0 0 1 101.87 157.98
  Q 102.08 158.45 102.55 158.70
  Q 105.05 160.01 107.61 161.19
  Q 110.23 162.40 112.63 163.70
  C 116.49 165.77 120.40 167.85 124.59 169.18
  Q 127.57 170.12 127.54 174.00
  Q 127.24 213.31 127.36 252.42
  A 0.59 0.59 0.0 0 1 126.50 252.95
  L 16.17 198.01
  A 0.94 0.93 12.5 0 1 15.65 197.21
  L 15.25 184.76
  Z" fill="#ff5b01"></path>
<path d="M 155.85 205.79
  L 155.63 211.42
  L 155.05 213.21
  Q 154.60 214.62 155.91 213.93
  C 174.29 204.24 192.73 195.56 211.17 186.41
  Q 213.21 185.39 213.19 183.37
  Q 212.72 127.89 213.58 72.69
  Q 213.59 72.13 214.08 71.88
  L 239.13 59.38
  A 0.74 0.73 76.8 0 1 240.19 60.04
  L 240.08 197.27
  A 1.08 1.05 77.2 0 1 239.49 198.23
  L 129.49 253.09
  A 0.37 0.37 0.0 0 1 128.96 252.76
  L 128.97 171.79
  Q 128.97 170.88 129.79 170.48
  L 154.52 158.22
  Q 154.87 158.05 155.09 158.36
  Q 155.37 158.76 155.39 159.37
  Q 155.68 172.56 155.48 185.75
  Q 155.33 195.49 155.33 205.25
  Q 155.33 205.86 155.85 205.79
  Z" fill="#ff5b01"></path>
<path d="M 128.54 85.32
  L 157.64 99.66
  A 0.15 0.15 0.0 0 1 157.64 99.92
  L 128.48 114.44
  Q 128.03 114.66 127.57 114.44
  L 98.46 99.96
  A 0.10 0.09 -45.9 0 1 98.46 99.79
  L 127.64 85.33
  Q 128.09 85.10 128.54 85.32
  Z
  M 125.34 87.60
  C 123.07 88.32 121.28 90.01 119.51 90.89
  Q 111.23 95.01 103.12 99.02
  A 0.89 0.89 0.0 0 0 103.12 100.62
  L 126.97 112.50
  A 2.46 2.46 0.0 0 0 129.17 112.50
  L 153.50 100.25
  A 0.59 0.58 44.6 0 0 153.49 99.20
  Q 141.14 93.26 129.01 86.97
  C 127.54 86.21 126.45 87.24 125.34 87.60
  Z" fill-opacity="0.996" fill="#92642a"></path>
<path d="M 125.34 87.60
  C 126.45 87.24 127.54 86.21 129.01 86.97
  Q 141.14 93.26 153.49 99.20
  A 0.59 0.58 44.6 0 1 153.50 100.25
  L 129.17 112.50
  A 2.46 2.46 0.0 0 1 126.97 112.50
  L 103.12 100.62
  A 0.89 0.89 0.0 0 1 103.12 99.02
  Q 111.23 95.01 119.51 90.89
  C 121.28 90.01 123.07 88.32 125.34 87.60
  Z" fill="#ff5b01"></path>
<path d="M 14.41 117.78
  L 15.03 117.97
  L 14.74 125.97
  Q 14.54 125.78 14.41 125.77
  L 14.41 117.78
  Z" fill="#313131"></path>
<path d="M 14.41 125.77
  Q 14.54 125.78 14.74 125.97
  L 14.66 133.54
  Q 14.49 133.47 14.42 133.54
  L 14.41 125.77
  Z" fill="#000000"></path>
<path d="M 14.42 133.54
  Q 14.49 133.47 14.66 133.54
  L 15.25 184.76
  L 14.67 198.21
  Q 14.64 198.79 15.20 198.94
  Q 16.07 199.18 15.91 199.78
  Q 14.24 199.33 14.23 198.25
  Q 14.11 180.75 14.42 133.54
  Z" fill="#313131"></path>
<path d="M 102.38 156.12
  L 127.84 143.39
  A 0.47 0.47 0.0 0 1 128.26 143.39
  L 153.68 156.05
  A 0.47 0.47 0.0 0 1 153.69 156.89
  L 128.22 169.85
  A 0.47 0.47 0.0 0 1 127.80 169.85
  L 102.38 156.96
  A 0.47 0.47 0.0 0 1 102.38 156.12
  Z" fill="#313131"></path>
</svg>
