<svg viewBox="0.00 0.00 180.00 180.00" version="1.1" xmlns="http://www.w3.org/2000/svg">
<g stroke-linecap="butt" fill="none" stroke-width="2.00">
<path d="M 176.20 90.41
  A 86.46 86.46 0.0 0 0 89.74 3.95
  A 86.46 86.46 0.0 0 0 3.28 90.41
  A 86.46 86.46 0.0 0 0 89.74 176.87
  A 86.46 86.46 0.0 0 0 176.20 90.41" stroke-opacity="0.518" stroke="#f7f5f2"></path>
<path d="M 172.78 90.45
  A 83.02 83.02 0.0 0 0 89.76 7.43
  A 83.02 83.02 0.0 0 0 6.74 90.45
  A 83.02 83.02 0.0 0 0 89.76 173.47
  A 83.02 83.02 0.0 0 0 172.78 90.45" stroke="#f5b4b4"></path>
<path d="M 83.73 30.21
  L 76.77 30.09
  Q 76.12 30.08 76.12 30.73
  L 76.12 31.12
  A 1.00 0.99 -90.0 0 1 75.13 32.12
  L 73.75 32.12
  Q 73.28 32.12 73.10 32.55
  Q 72.90 33.01 72.50 33.09
  Q 71.84 33.23 71.51 33.11
  Q 70.95 32.90 70.79 31.59
  A 0.27 0.27 0.0 0 0 70.34 31.42
  C 69.14 32.45 68.42 33.82 66.57 33.22
  Q 66.12 33.07 66.12 33.54
  L 66.12 35.52
  Q 66.12 35.93 65.73 36.02
  L 65.30 36.13
  Q 64.88 36.23 64.88 35.80
  L 64.88 34.72
  Q 64.87 33.85 64.22 34.42
  Q 62.77 35.67 60.74 35.03
  A 0.47 0.46 -74.1 0 0 60.14 35.37
  Q 59.91 36.28 58.95 36.12
  Q 58.56 36.05 58.27 36.34
  L 55.95 38.72
  Q 55.55 39.12 54.99 39.12
  L 53.75 39.12
  Q 53.12 39.12 53.12 39.75
  L 53.12 40.50
  A 0.62 0.62 0.0 0 1 52.50 41.12
  L 51.71 41.12
  A 0.61 0.60 84.8 0 0 51.12 41.84
  Q 51.30 42.77 50.49 43.12
  Q 50.05 43.31 50.13 43.78
  Q 50.22 44.32 49.98 44.72
  Q 49.72 45.17 49.25 44.95
  Q 48.93 44.79 48.89 44.46
  Q 48.82 43.92 48.35 44.20
  Q 47.97 44.43 48.08 44.97
  Q 48.17 45.43 47.89 45.80
  Q 46.95 47.00 45.49 47.26
  Q 45.12 47.33 45.12 47.71
  L 45.12 47.98
  Q 45.12 48.40 44.83 48.70
  L 41.84 51.81
  Q 41.52 52.15 41.14 51.88
  Q 40.95 51.74 40.88 51.49
  A 0.34 0.33 -45.8 0 0 40.23 51.50
  Q 40.02 52.37 40.14 53.30
  A 0.67 0.65 -13.7 0 1 39.70 54.00
  Q 39.08 54.22 38.89 54.86
  A 0.36 0.36 0.0 0 1 38.28 55.01
  Q 37.95 54.67 38.31 53.99" stroke="#ec6e6f"></path>
<path d="M 38.31 53.99
  Q 38.04 52.85 36.73 52.39
  Q 36.20 52.20 35.87 52.66
  L 33.76 55.61
  Q 33.16 56.46 32.36 55.80
  L 31.26 54.91
  Q 30.49 54.28 31.13 53.53
  L 34.31 49.74
  Q 34.50 49.51 34.41 49.22
  L 33.71 47.06
  A 0.37 0.36 55.5 0 0 33.08 46.94
  L 27.08 54.25
  A 0.82 0.82 0.0 0 0 27.20 55.41
  L 37.95 64.09" stroke="#f58081"></path>
<path d="M 37.95 64.09
  Q 37.53 66.29 36.24 64.78
  Q 34.97 63.29 35.01 65.25
  L 35.03 66.50
  A 0.59 0.58 7.9 0 1 34.27 67.07
  Q 33.23 66.75 32.95 67.65
  Q 32.77 68.22 32.19 68.05
  Q 31.63 67.88 31.34 68.30
  Q 31.07 68.69 31.48 68.94
  Q 32.32 69.46 31.98 70.54
  Q 31.86 70.91 31.48 71.02
  Q 31.12 71.12 31.02 71.48
  A 0.34 0.34 0.0 0 0 31.31 71.91
  Q 31.72 71.97 31.98 72.32
  Q 32.47 72.98 31.64 73.00
  L 30.40 73.03
  A 0.53 0.53 0.0 0 0 29.88 73.56
  Q 29.88 73.97 30.06 74.43" stroke="#ec6e6f"></path>
<path d="M 30.06 74.43
  C 26.87 74.46 25.47 77.31 23.87 79.57
  A 0.98 0.98 0.0 0 1 22.45 79.75
  C 20.87 78.44 22.48 75.98 23.51 74.80
  Q 23.84 74.42 23.58 73.99
  Q 23.10 73.20 22.25 72.94
  A 0.92 0.90 -58.7 0 0 21.34 73.17
  Q 15.66 78.93 22.15 83.16" stroke="#f58081"></path>
<path d="M 22.15 83.16
  Q 22.41 84.57 21.82 84.95
  A 1.95 1.87 51.8 0 0 21.53 87.84
  L 22.82 89.25
  Q 23.15 89.61 22.81 89.94
  Q 22.70 90.06 22.54 90.10
  Q 22.06 90.24 22.12 90.73
  Q 22.25 91.81 21.36 92.37
  Q 20.81 92.71 21.50 92.88
  Q 21.78 92.96 21.92 93.21
  Q 22.20 93.72 21.69 93.99
  L 21.33 94.19
  A 0.37 0.37 0.0 0 0 21.47 94.88
  Q 21.72 94.91 21.87 95.14
  Q 22.08 95.44 21.97 95.79
  Q 21.85 96.12 21.99 96.42
  Q 22.22 96.89 22.74 96.84
  Q 25.93 96.49 25.58 97.98" stroke="#ec6e6f"></path>
<path d="M 25.58 97.98
  C 21.51 98.02 19.52 97.61 19.04 102.51
  Q 18.74 105.58 19.24 107.90
  A 1.59 1.59 0.0 0 0 21.20 109.09
  L 24.30 108.27" stroke="#f58081"></path>
<path d="M 24.30 108.27
  Q 23.62 109.25 24.92 110.19
  A 0.73 0.73 0.0 0 1 25.18 111.00
  Q 24.69 112.43 25.71 113.05
  Q 26.12 113.29 26.12 113.78
  L 26.12 115.96
  Q 26.12 116.44 26.46 116.77
  Q 27.52 117.79 27.07 119.30
  Q 26.90 119.88 27.50 119.88
  L 29.52 119.89
  Q 30.09 119.89 30.07 120.45
  L 29.99 123.56" stroke="#ec6e6f"></path>
<path d="M 29.99 123.56
  Q 28.86 120.71 26.76 120.95
  A 0.86 0.86 0.0 0 0 26.13 122.25
  Q 28.08 125.46 30.05 128.72
  Q 31.31 130.80 33.43 128.78" stroke="#f58081"></path>
<path d="M 33.43 128.78
  Q 34.44 128.94 34.84 129.40
  Q 35.09 129.69 34.77 129.89
  Q 34.59 130.00 34.44 130.14
  Q 33.59 130.88 34.72 130.88
  L 35.15 130.88
  Q 35.50 130.88 35.79 131.06
  Q 36.04 131.22 36.11 131.49
  Q 36.24 132.00 36.75 131.89
  Q 37.39 131.75 37.86 132.10
  A 0.81 0.81 0.0 0 1 38.14 133.00
  Q 37.92 133.70 38.53 133.91
  A 0.87 0.86 12.4 0 1 39.12 134.83
  Q 38.95 136.25 40.32 135.90
  Q 41.35 135.64 41.56 136.67
  Q 41.63 137.01 41.48 137.23
  Q 41.09 137.82 41.76 137.48
  Q 43.07 136.83 43.60 137.93" stroke="#ec6e6f"></path>
<path d="M 43.60 137.93
  L 40.14 141.03
  A 0.92 0.91 -42.6 0 0 40.08 142.34
  L 40.33 142.61
  A 1.61 1.61 0.0 0 0 42.57 142.72
  L 49.98 136.25
  Q 51.12 135.25 50.66 136.70
  L 47.63 146.35
  Q 47.48 146.84 47.80 147.25
  Q 49.37 149.25 50.77 146.73" stroke="#f58081"></path>
<path d="M 50.77 146.73
  Q 50.99 146.69 51.30 146.74
  Q 51.63 146.79 51.63 146.46
  Q 51.64 146.33 51.63 146.19
  Q 51.63 145.82 52.00 145.83
  L 53.45 145.90
  Q 53.87 145.91 54.02 146.30
  Q 54.21 146.79 54.10 147.34
  A 0.45 0.44 6.2 0 0 54.54 147.88
  L 55.29 147.88
  Q 55.81 147.88 56.02 148.37
  Q 56.22 148.87 56.12 149.44
  Q 56.05 149.88 56.49 149.88
  Q 58.05 149.88 59.57 149.89
  Q 59.79 149.89 59.92 149.99
  Q 60.10 150.13 60.14 150.35
  Q 60.21 150.71 60.54 150.89
  Q 61.25 151.28 61.15 152.01
  Q 61.05 152.69 61.74 152.75
  L 64.18 152.94
  Q 64.65 152.98 64.99 153.30
  Q 65.73 153.99 66.15 155.25
  Q 66.59 156.58 68.34 155.54" stroke="#ec6e6f"></path>
<path d="M 68.34 155.54
  Q 68.95 156.70 70.32 156.98" stroke="#f58081"></path>
<path d="M 70.32 156.98
  Q 70.86 158.42 72.06 157.90
  A 0.68 0.68 0.0 0 1 72.97 158.29
  Q 73.34 159.32 74.63 158.83
  Q 74.82 158.75 74.87 158.55
  Q 74.93 158.28 75.14 158.12
  Q 75.53 157.84 75.88 158.16
  Q 76.89 159.08 78.26 158.86
  Q 78.81 158.78 78.87 158.23
  Q 78.91 157.83 79.15 157.49
  Q 79.50 157.00 79.91 157.43
  Q 80.65 158.21 81.88 157.81
  A 0.87 0.84 51.0 0 1 82.61 157.90
  Q 83.01 158.15 83.16 158.58
  Q 83.27 158.92 83.62 158.87
  Q 84.28 158.77 84.84 159.07
  Q 85.35 159.35 85.16 159.90
  Q 84.99 160.42 85.27 160.80
  Q 85.39 160.96 85.57 160.86
  L 85.80 160.74
  Q 85.90 160.69 85.88 160.57
  Q 85.73 159.75 86.14 159.06
  A 0.42 0.42 0.0 0 1 86.91 159.17
  Q 87.10 159.89 87.77 159.90
  Q 87.88 159.90 87.88 159.78
  Q 87.88 159.64 87.88 159.52
  A 0.49 0.49 0.0 0 1 88.76 159.24
  L 89.18 159.79
  Q 89.41 160.10 89.68 159.83
  L 90.02 159.48
  Q 90.35 159.15 90.76 159.36
  Q 91.65 159.82 92.13 160.61
  A 1.59 0.86 -38.3 0 0 94.04 160.28
  Q 94.37 160.00 94.87 160.16
  Q 95.14 160.25 95.11 160.54
  Q 95.10 160.70 95.28 160.78
  Q 95.63 160.94 95.82 160.61
  Q 96.74 159.11 97.59 160.03" stroke="#ec6e6f"></path>
<path d="M 97.59 160.03
  Q 101.06 164.18 107.81 160.60
  A 0.71 0.70 68.8 0 0 108.16 159.80
  L 107.24 156.16" stroke="#f58081"></path>
<path d="M 107.24 156.16
  Q 109.90 154.17 115.09 155.04
  A 0.66 0.65 -73.9 0 0 115.82 154.63
  Q 116.26 153.53 117.62 153.92
  Q 118.13 154.07 118.59 153.79
  Q 120.36 152.67 119.84 150.53
  A 0.48 0.48 0.0 0 1 120.31 149.93
  L 125.07 149.95" stroke="#ec6e6f"></path>
<path d="M 125.07 149.95
  L 126.43 151.75
  Q 126.97 152.45 127.64 151.88
  L 128.49 151.16
  Q 129.08 150.66 128.63 150.04
  L 123.26 142.66
  A 2.31 2.30 -32.1 0 1 124.04 139.27
  L 124.73 138.90
  A 2.33 2.33 0.0 0 1 127.71 139.59
  L 133.20 147.15
  Q 133.57 147.66 134.08 147.28
  L 135.33 146.33
  Q 135.92 145.88 135.47 145.29
  L 128.52 136.21" stroke="#f58081"></path>
<path d="M 128.52 136.21
  L 135.74 128.92
  Q 136.12 128.53 136.12 128.00
  L 136.12 126.75
  Q 136.12 126.13 136.75 126.12
  L 138.28 126.11
  Q 138.86 126.11 139.04 125.56
  Q 139.16 125.19 139.14 124.80
  Q 139.12 124.50 139.35 124.31
  Q 140.54 123.40 140.06 121.89
  A 0.59 0.58 80.9 0 1 140.61 121.12
  Q 141.09 121.12 141.13 120.69
  Q 141.17 120.10 141.76 120.10
  L 143.36 120.11
  Q 143.89 120.11 144.05 119.61
  Q 144.19 119.19 144.11 118.74
  A 0.57 0.56 -13.6 0 1 144.50 118.11
  Q 145.18 117.89 145.05 117.24
  A 1.86 1.73 -88.1 0 1 147.24 115.04
  Q 147.81 115.22 148.06 114.58
  Q 148.29 114.01 148.13 113.42
  Q 147.80 112.25 148.87 111.89
  A 0.41 0.41 0.0 0 0 148.87 111.11
  Q 148.29 110.92 148.04 110.40
  Q 147.80 109.88 147.23 109.88
  L 146.37 109.88
  Q 145.43 109.88 146.23 109.40
  Q 147.18 108.83 147.15 107.73
  Q 147.14 107.12 147.75 107.12
  L 148.38 107.12
  A 0.74 0.74 0.0 0 0 149.12 106.37
  L 149.12 104.76
  Q 149.11 104.21 148.56 104.18
  Q 147.82 104.15 147.51 103.60" stroke="#ec6e6f"></path>
<path d="M 147.51 103.60
  L 153.16 99.61
  A 0.82 0.81 -43.6 0 1 154.14 99.63
  L 159.30 103.69
  Q 160.64 104.74 160.70 103.04
  L 160.74 101.89
  A 2.08 2.07 16.6 0 0 159.74 100.05
  C 158.10 99.06 155.92 98.13 154.92 96.19
  A 0.80 0.80 0.0 0 1 155.82 95.05
  L 159.33 95.93
  A 1.58 1.57 18.8 0 0 161.15 95.04
  L 161.57 94.10
  Q 162.10 92.89 160.78 92.78
  L 149.98 91.87" stroke="#f58081"></path>
<path d="M 149.98 91.87
  Q 150.65 89.72 149.40 88.66
  Q 149.02 88.33 149.13 87.84
  Q 149.40 86.69 148.62 85.95
  Q 148.04 85.40 148.73 85.00
  Q 148.95 84.87 149.07 84.62
  Q 149.30 84.15 148.82 83.96
  Q 147.33 83.35 147.05 81.80
  A 0.57 0.57 0.0 0 1 147.38 81.18
  Q 148.46 80.68 148.11 79.50
  Q 147.86 78.63 147.98 78.06" stroke="#ec6e6f"></path>
<path d="M 147.98 78.06
  Q 148.73 78.09 149.10 77.93
  A 0.36 0.36 0.0 0 0 149.19 77.33
  C 145.13 73.82 146.26 66.81 152.76 68.01
  C 156.43 68.68 155.41 71.64 155.22 74.26
  A 0.72 0.71 10.8 0 0 155.72 74.99
  C 158.29 75.79 159.20 72.01 158.81 70.31
  C 157.20 63.22 149.42 63.76 144.91 67.35" stroke="#f58081"></path>
<path d="M 144.91 67.35
  Q 144.09 67.97 143.24 66.71
  Q 142.89 66.20 143.48 66.00
  Q 144.22 65.74 143.94 64.82
  A 0.65 0.65 0.0 0 1 144.45 63.99
  Q 144.79 63.93 144.97 63.61
  A 0.38 0.38 0.0 0 0 144.65 63.04
  L 142.98 63.01
  Q 142.46 63.00 142.10 62.62
  L 139.45 59.88
  Q 139.06 59.47 139.48 59.09
  L 139.78 58.81
  Q 140.31 58.32 139.62 58.10
  Q 138.21 57.64 137.69 58.83
  A 0.25 0.25 0.0 0 1 137.23 58.81
  Q 137.00 58.10 137.02 57.36
  A 0.51 0.51 0.0 0 1 137.69 56.88
  Q 138.45 57.12 139.00 56.68
  Q 139.66 56.15 138.81 56.10
  Q 138.33 56.07 138.03 55.75
  Q 137.71 55.42 137.27 55.53
  Q 135.88 55.90 135.88 57.26
  Q 135.89 57.89 135.25 57.89
  L 134.49 57.89
  A 0.36 0.36 0.0 0 1 134.27 57.25
  Q 135.41 56.35 136.09 54.97" stroke="#ec6e6f"></path>
<path d="M 136.09 54.97
  C 140.43 53.85 147.59 48.66 143.82 43.44
  C 139.07 36.85 133.73 41.59 130.38 46.13" stroke="#f58081"></path>
<path d="M 130.38 46.13
  Q 129.91 45.19 130.90 44.65
  A 0.08 0.08 0.0 0 0 130.93 44.55
  L 130.76 44.24
  A 0.30 0.30 0.0 0 0 130.22 44.27
  Q 129.82 45.32 128.58 45.11
  A 0.86 0.84 -85.5 0 1 127.88 44.28
  L 127.88 43.06
  Q 127.88 42.64 127.58 42.35
  Q 126.80 41.57 126.11 40.73
  Q 125.63 40.15 125.17 40.06
  Q 124.33 39.90 123.92 40.80
  Q 123.69 41.31 123.14 41.17
  Q 121.25 40.70 120.71 38.68
  Q 120.59 38.25 120.28 37.92
  L 118.66 36.20
  A 0.31 0.31 0.0 0 0 118.12 36.43
  Q 118.13 36.60 118.00 36.75
  A 0.68 0.15 -49.2 0 1 117.50 37.12
  Q 117.28 37.06 117.13 36.88
  Q 116.76 36.46 116.89 35.92
  Q 117.03 35.35 116.57 35.14
  Q 116.16 34.96 115.72 34.97
  Q 115.31 34.99 115.18 34.51" stroke="#ec6e6f"></path>
<path d="M 115.18 34.51
  L 117.99 27.91
  Q 118.46 26.80 119.55 27.34
  L 122.24 28.70
  Q 122.83 28.99 123.12 28.40
  L 123.74 27.15
  Q 124.13 26.35 123.31 26.01
  L 113.28 21.74
  A 0.86 0.86 0.0 0 0 112.08 22.54
  L 112.08 23.15
  Q 112.10 24.30 113.17 24.71
  L 115.38 25.55
  Q 115.86 25.73 115.66 26.21
  L 111.48 35.87" stroke="#f58081"></path>
<path d="M 111.48 35.87
  Q 110.64 35.21 110.91 33.28
  A 0.58 0.58 0.0 0 0 110.13 32.66
  Q 109.22 33.00 108.91 33.79
  A 0.41 0.41 0.0 0 1 108.18 33.87
  Q 107.36 32.63 105.76 33.18
  Q 105.49 33.28 105.31 33.06
  Q 105.22 32.95 105.10 32.85
  Q 104.64 32.43 105.17 32.10
  Q 105.77 31.74 106.50 31.86
  Q 106.70 31.90 106.80 31.72
  Q 106.87 31.59 106.82 31.44
  Q 106.68 31.02 106.25 31.11
  Q 105.33 31.30 104.82 30.56
  Q 104.51 30.12 103.97 30.12
  L 103.50 30.12
  Q 103.12 30.12 103.12 30.50
  L 103.12 31.75
  A 0.48 0.48 0.0 0 1 102.23 32.01
  L 101.65 31.11
  A 0.23 0.23 0.0 0 0 101.23 31.19
  Q 101.02 32.18 100.05 32.12
  Q 99.53 32.09 99.15 31.73
  L 97.82 30.44
  Q 97.47 30.09 96.98 30.11
  L 93.84 30.20" stroke="#ec6e6f"></path>
<path d="M 93.84 30.20
  C 95.02 24.66 90.90 24.13 87.20 22.54
  A 0.98 0.98 0.0 0 1 86.69 21.25
  L 86.81 20.95
  A 1.37 1.36 -70.7 0 1 88.42 20.17
  L 92.17 21.19
  Q 92.72 21.34 92.93 20.81
  L 93.32 19.82
  Q 93.55 19.26 93.05 18.90
  C 90.55 17.13 85.28 16.37 84.15 20.20
  C 82.61 25.42 87.81 25.58 90.70 27.50
  A 0.81 0.81 0.0 0 1 90.89 28.68
  C 89.88 29.93 88.87 29.92 87.39 29.36
  Q 83.01 27.68 83.73 30.21" stroke="#f58081"></path>
<path d="M 93.84 30.20
  Q 88.27 34.87 83.73 30.21" stroke="#f68382"></path>
<path d="M 130.38 46.13
  Q 128.72 52.27 136.09 54.97" stroke="#f68382"></path>
<path d="M 144.91 67.35
  Q 142.23 73.10 146.29 77.73
  Q 146.90 78.42 147.98 78.06" stroke="#f68382"></path>
<path d="M 149.98 91.87
  Q 148.86 92.18 148.02 91.83
  A 0.67 0.67 0.0 0 0 147.10 92.37
  L 146.90 93.99
  Q 146.78 94.93 147.74 94.95
  L 151.28 95.01
  Q 151.75 95.01 151.99 95.42
  Q 152.65 96.52 151.54 97.32
  C 149.57 98.75 146.47 98.55 146.09 102.26
  Q 145.87 104.53 147.51 103.60" stroke="#f68382"></path>
<path d="M 128.52 136.21
  Q 123.77 134.90 120.92 138.45
  C 118.27 141.74 122.65 147.00 125.07 149.95" stroke="#f68382"></path>
<path d="M 107.24 156.16
  L 105.59 148.31
  Q 105.30 146.97 103.94 147.00
  L 102.94 147.02
  Q 101.55 147.04 102.21 148.27
  Q 103.93 151.50 102.04 151.79
  Q 95.32 152.81 97.59 160.03" stroke="#f68382"></path>
<path d="M 70.32 156.98
  Q 72.74 157.19 73.57 155.70
  C 75.78 151.75 67.22 150.11 68.34 155.54" stroke="#f68382"></path>
<path d="M 50.77 146.73
  L 54.09 134.80
  A 1.28 1.28 0.0 0 0 53.26 133.24
  Q 52.58 133.01 52.06 132.49
  A 1.27 1.26 47.8 0 0 50.37 132.40
  L 43.60 137.93" stroke="#f68382"></path>
<path d="M 33.43 128.78
  L 43.54 122.72
  A 0.26 0.25 -32.8 0 0 43.62 122.36
  L 38.28 114.34
  A 1.13 1.13 0.0 0 0 36.84 113.95
  L 36.50 114.12
  A 1.07 1.06 -29.0 0 0 36.06 115.64
  L 39.63 121.29
  Q 39.81 121.57 39.53 121.74
  L 37.07 123.21
  Q 36.85 123.34 36.71 123.13
  L 34.08 119.23
  Q 33.76 118.76 33.20 118.88
  Q 32.25 119.08 32.08 119.89
  Q 31.95 120.50 32.47 121.34
  Q 33.43 122.92 34.48 124.08
  Q 34.87 124.51 34.38 124.83
  L 32.51 126.03
  A 0.66 0.65 55.7 0 1 31.62 125.85
  L 29.99 123.56" stroke="#f68382"></path>
<path d="M 24.30 108.27
  L 33.29 107.01
  Q 34.02 106.91 34.02 106.17
  L 34.01 104.97
  A 0.95 0.94 -86.2 0 0 33.20 104.03
  Q 31.54 103.81 31.16 103.92
  Q 27.09 105.11 29.87 101.91
  Q 30.74 100.90 32.39 99.92
  Q 33.62 99.19 32.96 97.93
  L 32.13 96.34
  Q 31.62 95.37 30.93 96.21
  L 28.95 98.62
  A 0.97 0.97 0.0 0 1 28.06 98.96
  Q 26.70 98.76 25.58 97.98" stroke="#f68382"></path>
<path d="M 22.15 83.16
  Q 25.98 82.90 27.53 79.71
  Q 28.54 77.66 30.53 78.00
  Q 31.03 78.08 31.04 78.60
  Q 31.05 80.96 29.60 82.86
  Q 29.04 83.60 29.73 84.21
  L 30.37 84.78
  Q 31.15 85.48 31.73 84.61
  C 34.10 81.05 36.12 75.77 30.06 74.43" stroke="#f68382"></path>
<path d="M 37.95 64.09
  L 44.12 56.45
  A 0.81 0.81 0.0 0 0 43.82 55.19
  L 43.32 54.97
  A 1.41 1.40 27.6 0 0 41.56 55.52
  Q 40.08 57.93 37.81 59.65
  Q 37.40 59.96 37.02 59.61
  L 35.33 58.12
  Q 34.91 57.75 35.28 57.34
  L 38.31 53.99" stroke="#f68382"></path>
<path d="M 115.18 34.51
  L 113.99 37.48
  Q 113.81 37.93 113.35 37.77
  Q 110.34 36.72 111.48 35.87" stroke="#f68382"></path>
<path d="M 58.9242 31.5988
  A 2.77 2.63 3.7 0 0 56.3297 28.7955
  A 2.77 2.63 3.7 0 0 53.3958 31.2412
  A 2.77 2.63 3.7 0 0 55.9903 34.0445
  A 2.77 2.63 3.7 0 0 58.9242 31.5988" stroke="#f58081"></path>
<path d="M 151.19 126.92
  A 2.84 2.84 0.0 0 0 148.35 124.08
  A 2.84 2.84 0.0 0 0 145.51 126.92
  A 2.84 2.84 0.0 0 0 148.35 129.76
  A 2.84 2.84 0.0 0 0 151.19 126.92" stroke="#f58081"></path>
<path d="M 101.65 70.44
  Q 101.55 69.48 100.49 69.36
  C 94.68 68.74 89.12 69.64 83.54 69.52
  Q 80.18 69.44 76.65 69.52
  Q 73.45 69.59 73.42 72.79
  L 73.19 92.64
  A 2.15 2.15 0.0 0 1 71.91 94.59
  L 71.54 94.76
  A 0.78 0.78 0.0 0 1 70.44 94.05
  L 70.14 72.94
  A 1.93 1.92 -2.4 0 0 68.08 71.05
  C 65.63 71.21 64.01 69.58 61.54 69.51
  Q 58.14 69.41 54.27 69.51
  A 2.86 2.85 89.2 0 0 51.50 72.37
  Q 51.49 80.19 51.48 88.10
  Q 51.48 96.15 52.67 99.29
  C 55.09 105.66 60.62 108.37 67.10 109.20
  C 71.84 109.80 82.00 110.95 85.67 106.99
  Q 86.92 105.63 86.94 107.48
  L 87.06 121.54
  A 3.17 3.16 -86.1 0 0 89.77 124.65
  C 94.58 125.34 99.40 126.28 104.42 125.79
  A 1.60 1.60 0.0 0 0 105.86 124.22
  L 106.05 109.22
  A 0.88 0.88 0.0 0 1 107.05 108.36
  C 114.42 109.42 121.42 110.31 126.87 104.14
  C 134.49 95.50 134.24 74.81 121.70 70.34
  C 114.43 67.75 108.67 66.02 102.03 70.61
  Q 101.69 70.85 101.65 70.44" stroke="#844646"></path>
<path d="M 141.2424 44.2564
  A 4.89 3.33 -39.7 0 0 135.3529 44.8179
  A 4.89 3.33 -39.7 0 0 133.7176 50.5036
  A 4.89 3.33 -39.7 0 0 139.6071 49.9421
  A 4.89 3.33 -39.7 0 0 141.2424 44.2564" stroke="#f58081"></path>
<path d="M 87.99 71.48
  L 88.11 120.55
  Q 88.12 123.49 91.05 123.48
  L 98.25 123.46
  A 1.71 1.71 0.0 0 0 99.96 121.76
  Q 99.99 115.48 100.22 108.75
  Q 100.35 105.10 103.56 105.91
  C 108.73 107.22 113.44 108.00 118.05 104.99
  C 125.76 99.98 126.63 91.92 125.77 83.25
  C 124.88 74.43 117.75 68.08 108.82 69.08
  Q 107.35 69.24 105.93 69.95
  C 104.30 70.76 101.29 73.87 99.95 70.75
  A 0.97 0.97 0.0 0 0 99.05 70.15
  Q 94.57 70.12 90.70 70.09
  C 89.53 70.08 88.64 70.61 87.50 70.86
  Q 87.34 70.89 87.47 71.00
  Q 87.57 71.09 87.70 71.12
  Q 87.99 71.18 87.99 71.48" stroke="#2c7364"></path>
<path d="M 77.42 106.66
  Q 86.22 102.73 86.60 93.24
  Q 86.99 83.53 86.84 72.23
  A 1.44 1.44 0.0 0 0 85.41 70.81
  L 76.33 70.73
  A 1.57 1.56 0.2 0 0 74.75 72.29
  Q 74.74 80.47 74.74 89.00
  C 74.74 94.16 72.65 97.97 66.94 95.76" stroke="#40745e"></path>
<path d="M 66.94 95.76
  Q 64.98 94.38 64.93 93.01
  Q 64.63 83.30 64.63 73.27
  Q 64.63 70.80 62.16 70.79
  L 54.31 70.79
  A 1.56 1.56 0.0 0 0 52.74 72.35
  Q 52.77 80.71 52.74 89.19
  Q 52.71 96.47 54.14 99.64
  C 57.98 108.19 69.29 109.61 77.42 106.66" stroke="#507559"></path>
<path d="M 66.94 95.76
  Q 65.95 97.03 66.67 98.18
  A 0.63 0.62 -41.4 0 1 66.62 98.91
  Q 66.20 99.43 66.55 99.94
  Q 66.82 100.35 66.63 100.80
  Q 66.13 101.98 67.19 103.06
  A 0.48 0.48 0.0 0 1 67.01 103.84
  Q 66.78 103.92 66.71 104.10
  Q 66.59 104.41 66.89 104.58
  Q 67.17 104.73 67.32 104.95" stroke="#75ce9b"></path>
<path d="M 67.32 104.95
  Q 67.05 105.33 67.08 105.45
  A 0.81 0.81 0.0 0 0 67.73 106.05
  Q 72.71 106.89 77.14 105.13" stroke="#c2e6c8"></path>
<path d="M 77.14 105.13
  Q 76.76 106.88 77.42 106.66" stroke="#75ce9b"></path>
<path d="M 77.14 105.13
  C 81.23 102.75 84.92 98.60 85.12 93.62
  Q 85.13 93.37 84.88 93.36
  L 84.63 93.35
  Q 84.13 93.34 84.13 93.84
  Q 84.11 95.20 83.75 96.03
  Q 79.10 106.72 67.32 104.95" stroke="#b2e5cd"></path>
<path d="M 115.23 72.00
  L 115.11 72.23
  Q 115.05 72.34 115.16 72.40
  C 123.22 76.72 123.22 84.75 123.20 92.68
  Q 123.20 92.76 123.28 92.79
  L 123.54 92.87
  Q 123.85 92.98 123.86 92.65
  C 124.05 84.11 124.16 76.82 115.86 71.83
  Q 115.46 71.58 115.23 72.00" stroke="#9ee4d4"></path>
<path d="M 100.69 92.41
  C 102.23 94.88 106.28 95.61 109.00 95.20
  C 112.62 94.66 114.04 89.75 113.53 86.79
  C 112.73 82.15 108.18 79.42 103.84 82.08
  C 100.82 83.92 98.64 89.14 100.69 92.41" stroke="#2c7364"></path>
<path d="M 121.07 99.42
  C 121.90 98.72 123.22 97.06 122.91 95.79
  Q 122.72 95.01 122.37 95.73
  L 120.72 99.16
  Q 120.27 100.11 121.07 99.42" stroke="#9ee4d4"></path>
<path d="M 84.6767 90.6890
  A 2.25 0.52 88.3 0 0 85.1298 88.4246
  A 2.25 0.52 88.3 0 0 84.5433 86.1910
  A 2.25 0.52 88.3 0 0 84.0902 88.4554
  A 2.25 0.52 88.3 0 0 84.6767 90.6890" stroke="#b2e5cd"></path>
<path d="M 107.8900 94.2622
  A 5.48 3.17 101.9 0 0 112.1219 89.5537
  A 5.48 3.17 101.9 0 0 110.1500 83.5378
  A 5.48 3.17 101.9 0 0 105.9181 88.2463
  A 5.48 3.17 101.9 0 0 107.8900 94.2622" stroke="#844646"></path>
<path d="M 26.06 104.87
  A 0.68 0.68 0.0 0 0 26.53 104.03
  L 25.78 101.35
  A 0.68 0.68 0.0 0 0 25.04 100.86
  L 22.14 101.21
  A 0.68 0.68 0.0 0 0 21.54 101.92
  L 21.68 105.21
  A 0.68 0.68 0.0 0 0 22.53 105.83
  L 26.06 104.87" stroke="#f58081"></path>
<path d="M 105.02 158.15
  L 103.92 154.48
  A 0.66 0.66 0.0 0 0 103.09 154.03
  L 101.53 154.50
  A 2.55 2.41 -16.7 0 0 99.78 157.54
  L 99.88 157.87
  A 2.55 2.41 -16.7 0 0 103.02 159.44
  L 104.58 158.98
  A 0.66 0.66 0.0 0 0 105.02 158.15" stroke="#f58081"></path>
</g>
<path d="M 0.00 0.00
  L 180.00 0.00
  L 180.00 180.00
  L 0.00 180.00
  L 0.00 0.00
  Z
  M 176.20 90.41
  A 86.46 86.46 0.0 0 0 89.74 3.95
  A 86.46 86.46 0.0 0 0 3.28 90.41
  A 86.46 86.46 0.0 0 0 89.74 176.87
  A 86.46 86.46 0.0 0 0 176.20 90.41
  Z" fill-opacity="0.035" fill="#080705"></path>
<path d="M 176.20 90.41
  A 86.46 86.46 0.0 0 1 89.74 176.87
  A 86.46 86.46 0.0 0 1 3.28 90.41
  A 86.46 86.46 0.0 0 1 89.74 3.95
  A 86.46 86.46 0.0 0 1 176.20 90.41
  Z
  M 172.78 90.45
  A 83.02 83.02 0.0 0 0 89.76 7.43
  A 83.02 83.02 0.0 0 0 6.74 90.45
  A 83.02 83.02 0.0 0 0 89.76 173.47
  A 83.02 83.02 0.0 0 0 172.78 90.45
  Z" fill="#fffdfa"></path>
<path d="M 172.78 90.45
  A 83.02 83.02 0.0 0 1 89.76 173.47
  A 83.02 83.02 0.0 0 1 6.74 90.45
  A 83.02 83.02 0.0 0 1 89.76 7.43
  A 83.02 83.02 0.0 0 1 172.78 90.45
  Z
  M 83.73 30.21
  L 76.77 30.09
  Q 76.12 30.08 76.12 30.73
  L 76.12 31.12
  A 1.00 0.99 -90.0 0 1 75.13 32.12
  L 73.75 32.12
  Q 73.28 32.12 73.10 32.55
  Q 72.90 33.01 72.50 33.09
  Q 71.84 33.23 71.51 33.11
  Q 70.95 32.90 70.79 31.59
  A 0.27 0.27 0.0 0 0 70.34 31.42
  C 69.14 32.45 68.42 33.82 66.57 33.22
  Q 66.12 33.07 66.12 33.54
  L 66.12 35.52
  Q 66.12 35.93 65.73 36.02
  L 65.30 36.13
  Q 64.88 36.23 64.88 35.80
  L 64.88 34.72
  Q 64.87 33.85 64.22 34.42
  Q 62.77 35.67 60.74 35.03
  A 0.47 0.46 -74.1 0 0 60.14 35.37
  Q 59.91 36.28 58.95 36.12
  Q 58.56 36.05 58.27 36.34
  L 55.95 38.72
  Q 55.55 39.12 54.99 39.12
  L 53.75 39.12
  Q 53.12 39.12 53.12 39.75
  L 53.12 40.50
  A 0.62 0.62 0.0 0 1 52.50 41.12
  L 51.71 41.12
  A 0.61 0.60 84.8 0 0 51.12 41.84
  Q 51.30 42.77 50.49 43.12
  Q 50.05 43.31 50.13 43.78
  Q 50.22 44.32 49.98 44.72
  Q 49.72 45.17 49.25 44.95
  Q 48.93 44.79 48.89 44.46
  Q 48.82 43.92 48.35 44.20
  Q 47.97 44.43 48.08 44.97
  Q 48.17 45.43 47.89 45.80
  Q 46.95 47.00 45.49 47.26
  Q 45.12 47.33 45.12 47.71
  L 45.12 47.98
  Q 45.12 48.40 44.83 48.70
  L 41.84 51.81
  Q 41.52 52.15 41.14 51.88
  Q 40.95 51.74 40.88 51.49
  A 0.34 0.33 -45.8 0 0 40.23 51.50
  Q 40.02 52.37 40.14 53.30
  A 0.67 0.65 -13.7 0 1 39.70 54.00
  Q 39.08 54.22 38.89 54.86
  A 0.36 0.36 0.0 0 1 38.28 55.01
  Q 37.95 54.67 38.31 53.99
  Q 38.04 52.85 36.73 52.39
  Q 36.20 52.20 35.87 52.66
  L 33.76 55.61
  Q 33.16 56.46 32.36 55.80
  L 31.26 54.91
  Q 30.49 54.28 31.13 53.53
  L 34.31 49.74
  Q 34.50 49.51 34.41 49.22
  L 33.71 47.06
  A 0.37 0.36 55.5 0 0 33.08 46.94
  L 27.08 54.25
  A 0.82 0.82 0.0 0 0 27.20 55.41
  L 37.95 64.09
  Q 37.53 66.29 36.24 64.78
  Q 34.97 63.29 35.01 65.25
  L 35.03 66.50
  A 0.59 0.58 7.9 0 1 34.27 67.07
  Q 33.23 66.75 32.95 67.65
  Q 32.77 68.22 32.19 68.05
  Q 31.63 67.88 31.34 68.30
  Q 31.07 68.69 31.48 68.94
  Q 32.32 69.46 31.98 70.54
  Q 31.86 70.91 31.48 71.02
  Q 31.12 71.12 31.02 71.48
  A 0.34 0.34 0.0 0 0 31.31 71.91
  Q 31.72 71.97 31.98 72.32
  Q 32.47 72.98 31.64 73.00
  L 30.40 73.03
  A 0.53 0.53 0.0 0 0 29.88 73.56
  Q 29.88 73.97 30.06 74.43
  C 26.87 74.46 25.47 77.31 23.87 79.57
  A 0.98 0.98 0.0 0 1 22.45 79.75
  C 20.87 78.44 22.48 75.98 23.51 74.80
  Q 23.84 74.42 23.58 73.99
  Q 23.10 73.20 22.25 72.94
  A 0.92 0.90 -58.7 0 0 21.34 73.17
  Q 15.66 78.93 22.15 83.16
  Q 22.41 84.57 21.82 84.95
  A 1.95 1.87 51.8 0 0 21.53 87.84
  L 22.82 89.25
  Q 23.15 89.61 22.81 89.94
  Q 22.70 90.06 22.54 90.10
  Q 22.06 90.24 22.12 90.73
  Q 22.25 91.81 21.36 92.37
  Q 20.81 92.71 21.50 92.88
  Q 21.78 92.96 21.92 93.21
  Q 22.20 93.72 21.69 93.99
  L 21.33 94.19
  A 0.37 0.37 0.0 0 0 21.47 94.88
  Q 21.72 94.91 21.87 95.14
  Q 22.08 95.44 21.97 95.79
  Q 21.85 96.12 21.99 96.42
  Q 22.22 96.89 22.74 96.84
  Q 25.93 96.49 25.58 97.98
  C 21.51 98.02 19.52 97.61 19.04 102.51
  Q 18.74 105.58 19.24 107.90
  A 1.59 1.59 0.0 0 0 21.20 109.09
  L 24.30 108.27
  Q 23.62 109.25 24.92 110.19
  A 0.73 0.73 0.0 0 1 25.18 111.00
  Q 24.69 112.43 25.71 113.05
  Q 26.12 113.29 26.12 113.78
  L 26.12 115.96
  Q 26.12 116.44 26.46 116.77
  Q 27.52 117.79 27.07 119.30
  Q 26.90 119.88 27.50 119.88
  L 29.52 119.89
  Q 30.09 119.89 30.07 120.45
  L 29.99 123.56
  Q 28.86 120.71 26.76 120.95
  A 0.86 0.86 0.0 0 0 26.13 122.25
  Q 28.08 125.46 30.05 128.72
  Q 31.31 130.80 33.43 128.78
  Q 34.44 128.94 34.84 129.40
  Q 35.09 129.69 34.77 129.89
  Q 34.59 130.00 34.44 130.14
  Q 33.59 130.88 34.72 130.88
  L 35.15 130.88
  Q 35.50 130.88 35.79 131.06
  Q 36.04 131.22 36.11 131.49
  Q 36.24 132.00 36.75 131.89
  Q 37.39 131.75 37.86 132.10
  A 0.81 0.81 0.0 0 1 38.14 133.00
  Q 37.92 133.70 38.53 133.91
  A 0.87 0.86 12.4 0 1 39.12 134.83
  Q 38.95 136.25 40.32 135.90
  Q 41.35 135.64 41.56 136.67
  Q 41.63 137.01 41.48 137.23
  Q 41.09 137.82 41.76 137.48
  Q 43.07 136.83 43.60 137.93
  L 40.14 141.03
  A 0.92 0.91 -42.6 0 0 40.08 142.34
  L 40.33 142.61
  A 1.61 1.61 0.0 0 0 42.57 142.72
  L 49.98 136.25
  Q 51.12 135.25 50.66 136.70
  L 47.63 146.35
  Q 47.48 146.84 47.80 147.25
  Q 49.37 149.25 50.77 146.73
  Q 50.99 146.69 51.30 146.74
  Q 51.63 146.79 51.63 146.46
  Q 51.64 146.33 51.63 146.19
  Q 51.63 145.82 52.00 145.83
  L 53.45 145.90
  Q 53.87 145.91 54.02 146.30
  Q 54.21 146.79 54.10 147.34
  A 0.45 0.44 6.2 0 0 54.54 147.88
  L 55.29 147.88
  Q 55.81 147.88 56.02 148.37
  Q 56.22 148.87 56.12 149.44
  Q 56.05 149.88 56.49 149.88
  Q 58.05 149.88 59.57 149.89
  Q 59.79 149.89 59.92 149.99
  Q 60.10 150.13 60.14 150.35
  Q 60.21 150.71 60.54 150.89
  Q 61.25 151.28 61.15 152.01
  Q 61.05 152.69 61.74 152.75
  L 64.18 152.94
  Q 64.65 152.98 64.99 153.30
  Q 65.73 153.99 66.15 155.25
  Q 66.59 156.58 68.34 155.54
  Q 68.95 156.70 70.32 156.98
  Q 70.86 158.42 72.06 157.90
  A 0.68 0.68 0.0 0 1 72.97 158.29
  Q 73.34 159.32 74.63 158.83
  Q 74.82 158.75 74.87 158.55
  Q 74.93 158.28 75.14 158.12
  Q 75.53 157.84 75.88 158.16
  Q 76.89 159.08 78.26 158.86
  Q 78.81 158.78 78.87 158.23
  Q 78.91 157.83 79.15 157.49
  Q 79.50 157.00 79.91 157.43
  Q 80.65 158.21 81.88 157.81
  A 0.87 0.84 51.0 0 1 82.61 157.90
  Q 83.01 158.15 83.16 158.58
  Q 83.27 158.92 83.62 158.87
  Q 84.28 158.77 84.84 159.07
  Q 85.35 159.35 85.16 159.90
  Q 84.99 160.42 85.27 160.80
  Q 85.39 160.96 85.57 160.86
  L 85.80 160.74
  Q 85.90 160.69 85.88 160.57
  Q 85.73 159.75 86.14 159.06
  A 0.42 0.42 0.0 0 1 86.91 159.17
  Q 87.10 159.89 87.77 159.90
  Q 87.88 159.90 87.88 159.78
  Q 87.88 159.64 87.88 159.52
  A 0.49 0.49 0.0 0 1 88.76 159.24
  L 89.18 159.79
  Q 89.41 160.10 89.68 159.83
  L 90.02 159.48
  Q 90.35 159.15 90.76 159.36
  Q 91.65 159.82 92.13 160.61
  A 1.59 0.86 -38.3 0 0 94.04 160.28
  Q 94.37 160.00 94.87 160.16
  Q 95.14 160.25 95.11 160.54
  Q 95.10 160.70 95.28 160.78
  Q 95.63 160.94 95.82 160.61
  Q 96.74 159.11 97.59 160.03
  Q 101.06 164.18 107.81 160.60
  A 0.71 0.70 68.8 0 0 108.16 159.80
  L 107.24 156.16
  Q 109.90 154.17 115.09 155.04
  A 0.66 0.65 -73.9 0 0 115.82 154.63
  Q 116.26 153.53 117.62 153.92
  Q 118.13 154.07 118.59 153.79
  Q 120.36 152.67 119.84 150.53
  A 0.48 0.48 0.0 0 1 120.31 149.93
  L 125.07 149.95
  L 126.43 151.75
  Q 126.97 152.45 127.64 151.88
  L 128.49 151.16
  Q 129.08 150.66 128.63 150.04
  L 123.26 142.66
  A 2.31 2.30 -32.1 0 1 124.04 139.27
  L 124.73 138.90
  A 2.33 2.33 0.0 0 1 127.71 139.59
  L 133.20 147.15
  Q 133.57 147.66 134.08 147.28
  L 135.33 146.33
  Q 135.92 145.88 135.47 145.29
  L 128.52 136.21
  L 135.74 128.92
  Q 136.12 128.53 136.12 128.00
  L 136.12 126.75
  Q 136.12 126.13 136.75 126.12
  L 138.28 126.11
  Q 138.86 126.11 139.04 125.56
  Q 139.16 125.19 139.14 124.80
  Q 139.12 124.50 139.35 124.31
  Q 140.54 123.40 140.06 121.89
  A 0.59 0.58 80.9 0 1 140.61 121.12
  Q 141.09 121.12 141.13 120.69
  Q 141.17 120.10 141.76 120.10
  L 143.36 120.11
  Q 143.89 120.11 144.05 119.61
  Q 144.19 119.19 144.11 118.74
  A 0.57 0.56 -13.6 0 1 144.50 118.11
  Q 145.18 117.89 145.05 117.24
  A 1.86 1.73 -88.1 0 1 147.24 115.04
  Q 147.81 115.22 148.06 114.58
  Q 148.29 114.01 148.13 113.42
  Q 147.80 112.25 148.87 111.89
  A 0.41 0.41 0.0 0 0 148.87 111.11
  Q 148.29 110.92 148.04 110.40
  Q 147.80 109.88 147.23 109.88
  L 146.37 109.88
  Q 145.43 109.88 146.23 109.40
  Q 147.18 108.83 147.15 107.73
  Q 147.14 107.12 147.75 107.12
  L 148.38 107.12
  A 0.74 0.74 0.0 0 0 149.12 106.37
  L 149.12 104.76
  Q 149.11 104.21 148.56 104.18
  Q 147.82 104.15 147.51 103.60
  L 153.16 99.61
  A 0.82 0.81 -43.6 0 1 154.14 99.63
  L 159.30 103.69
  Q 160.64 104.74 160.70 103.04
  L 160.74 101.89
  A 2.08 2.07 16.6 0 0 159.74 100.05
  C 158.10 99.06 155.92 98.13 154.92 96.19
  A 0.80 0.80 0.0 0 1 155.82 95.05
  L 159.33 95.93
  A 1.58 1.57 18.8 0 0 161.15 95.04
  L 161.57 94.10
  Q 162.10 92.89 160.78 92.78
  L 149.98 91.87
  Q 150.65 89.72 149.40 88.66
  Q 149.02 88.33 149.13 87.84
  Q 149.40 86.69 148.62 85.95
  Q 148.04 85.40 148.73 85.00
  Q 148.95 84.87 149.07 84.62
  Q 149.30 84.15 148.82 83.96
  Q 147.33 83.35 147.05 81.80
  A 0.57 0.57 0.0 0 1 147.38 81.18
  Q 148.46 80.68 148.11 79.50
  Q 147.86 78.63 147.98 78.06
  Q 148.73 78.09 149.10 77.93
  A 0.36 0.36 0.0 0 0 149.19 77.33
  C 145.13 73.82 146.26 66.81 152.76 68.01
  C 156.43 68.68 155.41 71.64 155.22 74.26
  A 0.72 0.71 10.8 0 0 155.72 74.99
  C 158.29 75.79 159.20 72.01 158.81 70.31
  C 157.20 63.22 149.42 63.76 144.91 67.35
  Q 144.09 67.97 143.24 66.71
  Q 142.89 66.20 143.48 66.00
  Q 144.22 65.74 143.94 64.82
  A 0.65 0.65 0.0 0 1 144.45 63.99
  Q 144.79 63.93 144.97 63.61
  A 0.38 0.38 0.0 0 0 144.65 63.04
  L 142.98 63.01
  Q 142.46 63.00 142.10 62.62
  L 139.45 59.88
  Q 139.06 59.47 139.48 59.09
  L 139.78 58.81
  Q 140.31 58.32 139.62 58.10
  Q 138.21 57.64 137.69 58.83
  A 0.25 0.25 0.0 0 1 137.23 58.81
  Q 137.00 58.10 137.02 57.36
  A 0.51 0.51 0.0 0 1 137.69 56.88
  Q 138.45 57.12 139.00 56.68
  Q 139.66 56.15 138.81 56.10
  Q 138.33 56.07 138.03 55.75
  Q 137.71 55.42 137.27 55.53
  Q 135.88 55.90 135.88 57.26
  Q 135.89 57.89 135.25 57.89
  L 134.49 57.89
  A 0.36 0.36 0.0 0 1 134.27 57.25
  Q 135.41 56.35 136.09 54.97
  C 140.43 53.85 147.59 48.66 143.82 43.44
  C 139.07 36.85 133.73 41.59 130.38 46.13
  Q 129.91 45.19 130.90 44.65
  A 0.08 0.08 0.0 0 0 130.93 44.55
  L 130.76 44.24
  A 0.30 0.30 0.0 0 0 130.22 44.27
  Q 129.82 45.32 128.58 45.11
  A 0.86 0.84 -85.5 0 1 127.88 44.28
  L 127.88 43.06
  Q 127.88 42.64 127.58 42.35
  Q 126.80 41.57 126.11 40.73
  Q 125.63 40.15 125.17 40.06
  Q 124.33 39.90 123.92 40.80
  Q 123.69 41.31 123.14 41.17
  Q 121.25 40.70 120.71 38.68
  Q 120.59 38.25 120.28 37.92
  L 118.66 36.20
  A 0.31 0.31 0.0 0 0 118.12 36.43
  Q 118.13 36.60 118.00 36.75
  A 0.68 0.15 -49.2 0 1 117.50 37.12
  Q 117.28 37.06 117.13 36.88
  Q 116.76 36.46 116.89 35.92
  Q 117.03 35.35 116.57 35.14
  Q 116.16 34.96 115.72 34.97
  Q 115.31 34.99 115.18 34.51
  L 117.99 27.91
  Q 118.46 26.80 119.55 27.34
  L 122.24 28.70
  Q 122.83 28.99 123.12 28.40
  L 123.74 27.15
  Q 124.13 26.35 123.31 26.01
  L 113.28 21.74
  A 0.86 0.86 0.0 0 0 112.08 22.54
  L 112.08 23.15
  Q 112.10 24.30 113.17 24.71
  L 115.38 25.55
  Q 115.86 25.73 115.66 26.21
  L 111.48 35.87
  Q 110.64 35.21 110.91 33.28
  A 0.58 0.58 0.0 0 0 110.13 32.66
  Q 109.22 33.00 108.91 33.79
  A 0.41 0.41 0.0 0 1 108.18 33.87
  Q 107.36 32.63 105.76 33.18
  Q 105.49 33.28 105.31 33.06
  Q 105.22 32.95 105.10 32.85
  Q 104.64 32.43 105.17 32.10
  Q 105.77 31.74 106.50 31.86
  Q 106.70 31.90 106.80 31.72
  Q 106.87 31.59 106.82 31.44
  Q 106.68 31.02 106.25 31.11
  Q 105.33 31.30 104.82 30.56
  Q 104.51 30.12 103.97 30.12
  L 103.50 30.12
  Q 103.12 30.12 103.12 30.50
  L 103.12 31.75
  A 0.48 0.48 0.0 0 1 102.23 32.01
  L 101.65 31.11
  A 0.23 0.23 0.0 0 0 101.23 31.19
  Q 101.02 32.18 100.05 32.12
  Q 99.53 32.09 99.15 31.73
  L 97.82 30.44
  Q 97.47 30.09 96.98 30.11
  L 93.84 30.20
  C 95.02 24.66 90.90 24.13 87.20 22.54
  A 0.98 0.98 0.0 0 1 86.69 21.25
  L 86.81 20.95
  A 1.37 1.36 -70.7 0 1 88.42 20.17
  L 92.17 21.19
  Q 92.72 21.34 92.93 20.81
  L 93.32 19.82
  Q 93.55 19.26 93.05 18.90
  C 90.55 17.13 85.28 16.37 84.15 20.20
  C 82.61 25.42 87.81 25.58 90.70 27.50
  A 0.81 0.81 0.0 0 1 90.89 28.68
  C 89.88 29.93 88.87 29.92 87.39 29.36
  Q 83.01 27.68 83.73 30.21
  Z
  M 58.9242 31.5988
  A 2.77 2.63 3.7 0 0 56.3297 28.7955
  A 2.77 2.63 3.7 0 0 53.3958 31.2412
  A 2.77 2.63 3.7 0 0 55.9903 34.0445
  A 2.77 2.63 3.7 0 0 58.9242 31.5988
  Z
  M 151.19 126.92
  A 2.84 2.84 0.0 0 0 148.35 124.08
  A 2.84 2.84 0.0 0 0 145.51 126.92
  A 2.84 2.84 0.0 0 0 148.35 129.76
  A 2.84 2.84 0.0 0 0 151.19 126.92
  Z" fill="#eb6a6e"></path>
<path d="M 93.84 30.20
  Q 88.27 34.87 83.73 30.21
  Q 83.01 27.68 87.39 29.36
  C 88.87 29.92 89.88 29.93 90.89 28.68
  A 0.81 0.81 0.0 0 0 90.70 27.50
  C 87.81 25.58 82.61 25.42 84.15 20.20
  C 85.28 16.37 90.55 17.13 93.05 18.90
  Q 93.55 19.26 93.32 19.82
  L 92.93 20.81
  Q 92.72 21.34 92.17 21.19
  L 88.42 20.17
  A 1.37 1.36 -70.7 0 0 86.81 20.95
  L 86.69 21.25
  A 0.98 0.98 0.0 0 0 87.20 22.54
  C 90.90 24.13 95.02 24.66 93.84 30.20
  Z" fill="#ff9594"></path>
<path d="M 115.18 34.51
  L 113.99 37.48
  Q 113.81 37.93 113.35 37.77
  Q 110.34 36.72 111.48 35.87
  L 115.66 26.21
  Q 115.86 25.73 115.38 25.55
  L 113.17 24.71
  Q 112.10 24.30 112.08 23.15
  L 112.08 22.54
  A 0.86 0.86 0.0 0 1 113.28 21.74
  L 123.31 26.01
  Q 124.13 26.35 123.74 27.15
  L 123.12 28.40
  Q 122.83 28.99 122.24 28.70
  L 119.55 27.34
  Q 118.46 26.80 117.99 27.91
  L 115.18 34.51
  Z" fill="#ff9594"></path>
<ellipse ry="2.63" rx="2.77" transform="translate(56.16,31.42) rotate(3.7)" cy="0.00" cx="0.00" fill="#ff9594"></ellipse>
<path d="M 83.73 30.21
  Q 88.27 34.87 93.84 30.20
  L 96.98 30.11
  Q 97.47 30.09 97.82 30.44
  L 99.15 31.73
  Q 99.53 32.09 100.05 32.12
  Q 101.02 32.18 101.23 31.19
  A 0.23 0.23 0.0 0 1 101.65 31.11
  L 102.23 32.01
  A 0.48 0.48 0.0 0 0 103.12 31.75
  L 103.12 30.50
  Q 103.12 30.12 103.50 30.12
  L 103.97 30.12
  Q 104.51 30.12 104.82 30.56
  Q 105.33 31.30 106.25 31.11
  Q 106.68 31.02 106.82 31.44
  Q 106.87 31.59 106.80 31.72
  Q 106.70 31.90 106.50 31.86
  Q 105.77 31.74 105.17 32.10
  Q 104.64 32.43 105.10 32.85
  Q 105.22 32.95 105.31 33.06
  Q 105.49 33.28 105.76 33.18
  Q 107.36 32.63 108.18 33.87
  A 0.41 0.41 0.0 0 0 108.91 33.79
  Q 109.22 33.00 110.13 32.66
  A 0.58 0.58 0.0 0 1 110.91 33.28
  Q 110.64 35.21 111.48 35.87
  Q 110.34 36.72 113.35 37.77
  Q 113.81 37.93 113.99 37.48
  L 115.18 34.51
  Q 115.31 34.99 115.72 34.97
  Q 116.16 34.96 116.57 35.14
  Q 117.03 35.35 116.89 35.92
  Q 116.76 36.46 117.13 36.88
  Q 117.28 37.06 117.50 37.12
  A 0.68 0.15 -49.2 0 0 118.00 36.75
  Q 118.13 36.60 118.12 36.43
  A 0.31 0.31 0.0 0 1 118.66 36.20
  L 120.28 37.92
  Q 120.59 38.25 120.71 38.68
  Q 121.25 40.70 123.14 41.17
  Q 123.69 41.31 123.92 40.80
  Q 124.33 39.90 125.17 40.06
  Q 125.63 40.15 126.11 40.73
  Q 126.80 41.57 127.58 42.35
  Q 127.88 42.64 127.88 43.06
  L 127.88 44.28
  A 0.86 0.84 -85.5 0 0 128.58 45.11
  Q 129.82 45.32 130.22 44.27
  A 0.30 0.30 0.0 0 1 130.76 44.24
  L 130.93 44.55
  A 0.08 0.08 0.0 0 1 130.90 44.65
  Q 129.91 45.19 130.38 46.13
  Q 128.72 52.27 136.09 54.97
  Q 135.41 56.35 134.27 57.25
  A 0.36 0.36 0.0 0 0 134.49 57.89
  L 135.25 57.89
  Q 135.89 57.89 135.88 57.26
  Q 135.88 55.90 137.27 55.53
  Q 137.71 55.42 138.03 55.75
  Q 138.33 56.07 138.81 56.10
  Q 139.66 56.15 139.00 56.68
  Q 138.45 57.12 137.69 56.88
  A 0.51 0.51 0.0 0 0 137.02 57.36
  Q 137.00 58.10 137.23 58.81
  A 0.25 0.25 0.0 0 0 137.69 58.83
  Q 138.21 57.64 139.62 58.10
  Q 140.31 58.32 139.78 58.81
  L 139.48 59.09
  Q 139.06 59.47 139.45 59.88
  L 142.10 62.62
  Q 142.46 63.00 142.98 63.01
  L 144.65 63.04
  A 0.38 0.38 0.0 0 1 144.97 63.61
  Q 144.79 63.93 144.45 63.99
  A 0.65 0.65 0.0 0 0 143.94 64.82
  Q 144.22 65.74 143.48 66.00
  Q 142.89 66.20 143.24 66.71
  Q 144.09 67.97 144.91 67.35
  Q 142.23 73.10 146.29 77.73
  Q 146.90 78.42 147.98 78.06
  Q 147.86 78.63 148.11 79.50
  Q 148.46 80.68 147.38 81.18
  A 0.57 0.57 0.0 0 0 147.05 81.80
  Q 147.33 83.35 148.82 83.96
  Q 149.30 84.15 149.07 84.62
  Q 148.95 84.87 148.73 85.00
  Q 148.04 85.40 148.62 85.95
  Q 149.40 86.69 149.13 87.84
  Q 149.02 88.33 149.40 88.66
  Q 150.65 89.72 149.98 91.87
  Q 148.86 92.18 148.02 91.83
  A 0.67 0.67 0.0 0 0 147.10 92.37
  L 146.90 93.99
  Q 146.78 94.93 147.74 94.95
  L 151.28 95.01
  Q 151.75 95.01 151.99 95.42
  Q 152.65 96.52 151.54 97.32
  C 149.57 98.75 146.47 98.55 146.09 102.26
  Q 145.87 104.53 147.51 103.60
  Q 147.82 104.15 148.56 104.18
  Q 149.11 104.21 149.12 104.76
  L 149.12 106.37
  A 0.74 0.74 0.0 0 1 148.38 107.12
  L 147.75 107.12
  Q 147.14 107.12 147.15 107.73
  Q 147.18 108.83 146.23 109.40
  Q 145.43 109.88 146.37 109.88
  L 147.23 109.88
  Q 147.80 109.88 148.04 110.40
  Q 148.29 110.92 148.87 111.11
  A 0.41 0.41 0.0 0 1 148.87 111.89
  Q 147.80 112.25 148.13 113.42
  Q 148.29 114.01 148.06 114.58
  Q 147.81 115.22 147.24 115.04
  A 1.86 1.73 -88.1 0 0 145.05 117.24
  Q 145.18 117.89 144.50 118.11
  A 0.57 0.56 -13.6 0 0 144.11 118.74
  Q 144.19 119.19 144.05 119.61
  Q 143.89 120.11 143.36 120.11
  L 141.76 120.10
  Q 141.17 120.10 141.13 120.69
  Q 141.09 121.12 140.61 121.12
  A 0.59 0.58 80.9 0 0 140.06 121.89
  Q 140.54 123.40 139.35 124.31
  Q 139.12 124.50 139.14 124.80
  Q 139.16 125.19 139.04 125.56
  Q 138.86 126.11 138.28 126.11
  L 136.75 126.12
  Q 136.12 126.13 136.12 126.75
  L 136.12 128.00
  Q 136.12 128.53 135.74 128.92
  L 128.52 136.21
  Q 123.77 134.90 120.92 138.45
  C 118.27 141.74 122.65 147.00 125.07 149.95
  L 120.31 149.93
  A 0.48 0.48 0.0 0 0 119.84 150.53
  Q 120.36 152.67 118.59 153.79
  Q 118.13 154.07 117.62 153.92
  Q 116.26 153.53 115.82 154.63
  A 0.66 0.65 -73.9 0 1 115.09 155.04
  Q 109.90 154.17 107.24 156.16
  L 105.59 148.31
  Q 105.30 146.97 103.94 147.00
  L 102.94 147.02
  Q 101.55 147.04 102.21 148.27
  Q 103.93 151.50 102.04 151.79
  Q 95.32 152.81 97.59 160.03
  Q 96.74 159.11 95.82 160.61
  Q 95.63 160.94 95.28 160.78
  Q 95.10 160.70 95.11 160.54
  Q 95.14 160.25 94.87 160.16
  Q 94.37 160.00 94.04 160.28
  A 1.59 0.86 -38.3 0 1 92.13 160.61
  Q 91.65 159.82 90.76 159.36
  Q 90.35 159.15 90.02 159.48
  L 89.68 159.83
  Q 89.41 160.10 89.18 159.79
  L 88.76 159.24
  A 0.49 0.49 0.0 0 0 87.88 159.52
  Q 87.88 159.64 87.88 159.78
  Q 87.88 159.90 87.77 159.90
  Q 87.10 159.89 86.91 159.17
  A 0.42 0.42 0.0 0 0 86.14 159.06
  Q 85.73 159.75 85.88 160.57
  Q 85.90 160.69 85.80 160.74
  L 85.57 160.86
  Q 85.39 160.96 85.27 160.80
  Q 84.99 160.42 85.16 159.90
  Q 85.35 159.35 84.84 159.07
  Q 84.28 158.77 83.62 158.87
  Q 83.27 158.92 83.16 158.58
  Q 83.01 158.15 82.61 157.90
  A 0.87 0.84 51.0 0 0 81.88 157.81
  Q 80.65 158.21 79.91 157.43
  Q 79.50 157.00 79.15 157.49
  Q 78.91 157.83 78.87 158.23
  Q 78.81 158.78 78.26 158.86
  Q 76.89 159.08 75.88 158.16
  Q 75.53 157.84 75.14 158.12
  Q 74.93 158.28 74.87 158.55
  Q 74.82 158.75 74.63 158.83
  Q 73.34 159.32 72.97 158.29
  A 0.68 0.68 0.0 0 0 72.06 157.90
  Q 70.86 158.42 70.32 156.98
  Q 72.74 157.19 73.57 155.70
  C 75.78 151.75 67.22 150.11 68.34 155.54
  Q 66.59 156.58 66.15 155.25
  Q 65.73 153.99 64.99 153.30
  Q 64.65 152.98 64.18 152.94
  L 61.74 152.75
  Q 61.05 152.69 61.15 152.01
  Q 61.25 151.28 60.54 150.89
  Q 60.21 150.71 60.14 150.35
  Q 60.10 150.13 59.92 149.99
  Q 59.79 149.89 59.57 149.89
  Q 58.05 149.88 56.49 149.88
  Q 56.05 149.88 56.12 149.44
  Q 56.22 148.87 56.02 148.37
  Q 55.81 147.88 55.29 147.88
  L 54.54 147.88
  A 0.45 0.44 6.2 0 1 54.10 147.34
  Q 54.21 146.79 54.02 146.30
  Q 53.87 145.91 53.45 145.90
  L 52.00 145.83
  Q 51.63 145.82 51.63 146.19
  Q 51.64 146.33 51.63 146.46
  Q 51.63 146.79 51.30 146.74
  Q 50.99 146.69 50.77 146.73
  L 54.09 134.80
  A 1.28 1.28 0.0 0 0 53.26 133.24
  Q 52.58 133.01 52.06 132.49
  A 1.27 1.26 47.8 0 0 50.37 132.40
  L 43.60 137.93
  Q 43.07 136.83 41.76 137.48
  Q 41.09 137.82 41.48 137.23
  Q 41.63 137.01 41.56 136.67
  Q 41.35 135.64 40.32 135.90
  Q 38.95 136.25 39.12 134.83
  A 0.87 0.86 12.4 0 0 38.53 133.91
  Q 37.92 133.70 38.14 133.00
  A 0.81 0.81 0.0 0 0 37.86 132.10
  Q 37.39 131.75 36.75 131.89
  Q 36.24 132.00 36.11 131.49
  Q 36.04 131.22 35.79 131.06
  Q 35.50 130.88 35.15 130.88
  L 34.72 130.88
  Q 33.59 130.88 34.44 130.14
  Q 34.59 130.00 34.77 129.89
  Q 35.09 129.69 34.84 129.40
  Q 34.44 128.94 33.43 128.78
  L 43.54 122.72
  A 0.26 0.25 -32.8 0 0 43.62 122.36
  L 38.28 114.34
  A 1.13 1.13 0.0 0 0 36.84 113.95
  L 36.50 114.12
  A 1.07 1.06 -29.0 0 0 36.06 115.64
  L 39.63 121.29
  Q 39.81 121.57 39.53 121.74
  L 37.07 123.21
  Q 36.85 123.34 36.71 123.13
  L 34.08 119.23
  Q 33.76 118.76 33.20 118.88
  Q 32.25 119.08 32.08 119.89
  Q 31.95 120.50 32.47 121.34
  Q 33.43 122.92 34.48 124.08
  Q 34.87 124.51 34.38 124.83
  L 32.51 126.03
  A 0.66 0.65 55.7 0 1 31.62 125.85
  L 29.99 123.56
  L 30.07 120.45
  Q 30.09 119.89 29.52 119.89
  L 27.50 119.88
  Q 26.90 119.88 27.07 119.30
  Q 27.52 117.79 26.46 116.77
  Q 26.12 116.44 26.12 115.96
  L 26.12 113.78
  Q 26.12 113.29 25.71 113.05
  Q 24.69 112.43 25.18 111.00
  A 0.73 0.73 0.0 0 0 24.92 110.19
  Q 23.62 109.25 24.30 108.27
  L 33.29 107.01
  Q 34.02 106.91 34.02 106.17
  L 34.01 104.97
  A 0.95 0.94 -86.2 0 0 33.20 104.03
  Q 31.54 103.81 31.16 103.92
  Q 27.09 105.11 29.87 101.91
  Q 30.74 100.90 32.39 99.92
  Q 33.62 99.19 32.96 97.93
  L 32.13 96.34
  Q 31.62 95.37 30.93 96.21
  L 28.95 98.62
  A 0.97 0.97 0.0 0 1 28.06 98.96
  Q 26.70 98.76 25.58 97.98
  Q 25.93 96.49 22.74 96.84
  Q 22.22 96.89 21.99 96.42
  Q 21.85 96.12 21.97 95.79
  Q 22.08 95.44 21.87 95.14
  Q 21.72 94.91 21.47 94.88
  A 0.37 0.37 0.0 0 1 21.33 94.19
  L 21.69 93.99
  Q 22.20 93.72 21.92 93.21
  Q 21.78 92.96 21.50 92.88
  Q 20.81 92.71 21.36 92.37
  Q 22.25 91.81 22.12 90.73
  Q 22.06 90.24 22.54 90.10
  Q 22.70 90.06 22.81 89.94
  Q 23.15 89.61 22.82 89.25
  L 21.53 87.84
  A 1.95 1.87 51.8 0 1 21.82 84.95
  Q 22.41 84.57 22.15 83.16
  Q 25.98 82.90 27.53 79.71
  Q 28.54 77.66 30.53 78.00
  Q 31.03 78.08 31.04 78.60
  Q 31.05 80.96 29.60 82.86
  Q 29.04 83.60 29.73 84.21
  L 30.37 84.78
  Q 31.15 85.48 31.73 84.61
  C 34.10 81.05 36.12 75.77 30.06 74.43
  Q 29.88 73.97 29.88 73.56
  A 0.53 0.53 0.0 0 1 30.40 73.03
  L 31.64 73.00
  Q 32.47 72.98 31.98 72.32
  Q 31.72 71.97 31.31 71.91
  A 0.34 0.34 0.0 0 1 31.02 71.48
  Q 31.12 71.12 31.48 71.02
  Q 31.86 70.91 31.98 70.54
  Q 32.32 69.46 31.48 68.94
  Q 31.07 68.69 31.34 68.30
  Q 31.63 67.88 32.19 68.05
  Q 32.77 68.22 32.95 67.65
  Q 33.23 66.75 34.27 67.07
  A 0.59 0.58 7.9 0 0 35.03 66.50
  L 35.01 65.25
  Q 34.97 63.29 36.24 64.78
  Q 37.53 66.29 37.95 64.09
  L 44.12 56.45
  A 0.81 0.81 0.0 0 0 43.82 55.19
  L 43.32 54.97
  A 1.41 1.40 27.6 0 0 41.56 55.52
  Q 40.08 57.93 37.81 59.65
  Q 37.40 59.96 37.02 59.61
  L 35.33 58.12
  Q 34.91 57.75 35.28 57.34
  L 38.31 53.99
  Q 37.95 54.67 38.28 55.01
  A 0.36 0.36 0.0 0 0 38.89 54.86
  Q 39.08 54.22 39.70 54.00
  A 0.67 0.65 -13.7 0 0 40.14 53.30
  Q 40.02 52.37 40.23 51.50
  A 0.34 0.33 -45.8 0 1 40.88 51.49
  Q 40.95 51.74 41.14 51.88
  Q 41.52 52.15 41.84 51.81
  L 44.83 48.70
  Q 45.12 48.40 45.12 47.98
  L 45.12 47.71
  Q 45.12 47.33 45.49 47.26
  Q 46.95 47.00 47.89 45.80
  Q 48.17 45.43 48.08 44.97
  Q 47.97 44.43 48.35 44.20
  Q 48.82 43.92 48.89 44.46
  Q 48.93 44.79 49.25 44.95
  Q 49.72 45.17 49.98 44.72
  Q 50.22 44.32 50.13 43.78
  Q 50.05 43.31 50.49 43.12
  Q 51.30 42.77 51.12 41.84
  A 0.61 0.60 84.8 0 1 51.71 41.12
  L 52.50 41.12
  A 0.62 0.62 0.0 0 0 53.12 40.50
  L 53.12 39.75
  Q 53.12 39.12 53.75 39.12
  L 54.99 39.12
  Q 55.55 39.12 55.95 38.72
  L 58.27 36.34
  Q 58.56 36.05 58.95 36.12
  Q 59.91 36.28 60.14 35.37
  A 0.47 0.46 -74.1 0 1 60.74 35.03
  Q 62.77 35.67 64.22 34.42
  Q 64.87 33.85 64.88 34.72
  L 64.88 35.80
  Q 64.88 36.23 65.30 36.13
  L 65.73 36.02
  Q 66.12 35.93 66.12 35.52
  L 66.12 33.54
  Q 66.12 33.07 66.57 33.22
  C 68.42 33.82 69.14 32.45 70.34 31.42
  A 0.27 0.27 0.0 0 1 70.79 31.59
  Q 70.95 32.90 71.51 33.11
  Q 71.84 33.23 72.50 33.09
  Q 72.90 33.01 73.10 32.55
  Q 73.28 32.12 73.75 32.12
  L 75.13 32.12
  A 1.00 0.99 90.0 0 0 76.12 31.12
  L 76.12 30.73
  Q 76.12 30.08 76.77 30.09
  L 83.73 30.21
  Z
  M 101.65 70.44
  Q 101.55 69.48 100.49 69.36
  C 94.68 68.74 89.12 69.64 83.54 69.52
  Q 80.18 69.44 76.65 69.52
  Q 73.45 69.59 73.42 72.79
  L 73.19 92.64
  A 2.15 2.15 0.0 0 1 71.91 94.59
  L 71.54 94.76
  A 0.78 0.78 0.0 0 1 70.44 94.05
  L 70.14 72.94
  A 1.93 1.92 -2.4 0 0 68.08 71.05
  C 65.63 71.21 64.01 69.58 61.54 69.51
  Q 58.14 69.41 54.27 69.51
  A 2.86 2.85 89.2 0 0 51.50 72.37
  Q 51.49 80.19 51.48 88.10
  Q 51.48 96.15 52.67 99.29
  C 55.09 105.66 60.62 108.37 67.10 109.20
  C 71.84 109.80 82.00 110.95 85.67 106.99
  Q 86.92 105.63 86.94 107.48
  L 87.06 121.54
  A 3.17 3.16 -86.1 0 0 89.77 124.65
  C 94.58 125.34 99.40 126.28 104.42 125.79
  A 1.60 1.60 0.0 0 0 105.86 124.22
  L 106.05 109.22
  A 0.88 0.88 0.0 0 1 107.05 108.36
  C 114.42 109.42 121.42 110.31 126.87 104.14
  C 134.49 95.50 134.24 74.81 121.70 70.34
  C 114.43 67.75 108.67 66.02 102.03 70.61
  Q 101.69 70.85 101.65 70.44
  Z" fill="#ec7170"></path>
<path d="M 136.09 54.97
  Q 128.72 52.27 130.38 46.13
  C 133.73 41.59 139.07 36.85 143.82 43.44
  C 147.59 48.66 140.43 53.85 136.09 54.97
  Z
  M 141.2424 44.2564
  A 4.89 3.33 -39.7 0 0 135.3529 44.8179
  A 4.89 3.33 -39.7 0 0 133.7176 50.5036
  A 4.89 3.33 -39.7 0 0 139.6071 49.9421
  A 4.89 3.33 -39.7 0 0 141.2424 44.2564
  Z" fill="#ff9594"></path>
<ellipse ry="3.33" rx="4.89" transform="translate(137.48,47.38) rotate(-39.7)" cy="0.00" cx="0.00" fill="#eb6a6e"></ellipse>
<path d="M 38.31 53.99
  L 35.28 57.34
  Q 34.91 57.75 35.33 58.12
  L 37.02 59.61
  Q 37.40 59.96 37.81 59.65
  Q 40.08 57.93 41.56 55.52
  A 1.41 1.40 27.6 0 1 43.32 54.97
  L 43.82 55.19
  A 0.81 0.81 0.0 0 1 44.12 56.45
  L 37.95 64.09
  L 27.20 55.41
  A 0.82 0.82 0.0 0 1 27.08 54.25
  L 33.08 46.94
  A 0.37 0.36 55.5 0 1 33.71 47.06
  L 34.41 49.22
  Q 34.50 49.51 34.31 49.74
  L 31.13 53.53
  Q 30.49 54.28 31.26 54.91
  L 32.36 55.80
  Q 33.16 56.46 33.76 55.61
  L 35.87 52.66
  Q 36.20 52.20 36.73 52.39
  Q 38.04 52.85 38.31 53.99
  Z" fill="#ff9594"></path>
<path d="M 147.98 78.06
  Q 146.90 78.42 146.29 77.73
  Q 142.23 73.10 144.91 67.35
  C 149.42 63.76 157.20 63.22 158.81 70.31
  C 159.20 72.01 158.29 75.79 155.72 74.99
  A 0.72 0.71 10.8 0 1 155.22 74.26
  C 155.41 71.64 156.43 68.68 152.76 68.01
  C 146.26 66.81 145.13 73.82 149.19 77.33
  A 0.36 0.36 0.0 0 1 149.10 77.93
  Q 148.73 78.09 147.98 78.06
  Z" fill="#ff9594"></path>
<path d="M 102.03 70.61
  C 108.67 66.02 114.43 67.75 121.70 70.34
  C 134.24 74.81 134.49 95.50 126.87 104.14
  C 121.42 110.31 114.42 109.42 107.05 108.36
  A 0.88 0.88 0.0 0 0 106.05 109.22
  L 105.86 124.22
  A 1.60 1.60 0.0 0 1 104.42 125.79
  C 99.40 126.28 94.58 125.34 89.77 124.65
  A 3.17 3.16 -86.1 0 1 87.06 121.54
  L 86.94 107.48
  Q 86.92 105.63 85.67 106.99
  C 82.00 110.95 71.84 109.80 67.10 109.20
  C 60.62 108.37 55.09 105.66 52.67 99.29
  Q 51.48 96.15 51.48 88.10
  Q 51.49 80.19 51.50 72.37
  A 2.86 2.85 89.2 0 1 54.27 69.51
  Q 58.14 69.41 61.54 69.51
  C 64.01 69.58 65.63 71.21 68.08 71.05
  A 1.93 1.92 -2.4 0 1 70.14 72.94
  L 70.44 94.05
  A 0.78 0.78 0.0 0 0 71.54 94.76
  L 71.91 94.59
  A 2.15 2.15 0.0 0 0 73.19 92.64
  L 73.42 72.79
  Q 73.45 69.59 76.65 69.52
  Q 80.18 69.44 83.54 69.52
  C 89.12 69.64 94.68 68.74 100.49 69.36
  Q 101.55 69.48 101.65 70.44
  Q 101.69 70.85 102.03 70.61
  Z
  M 87.99 71.48
  L 88.11 120.55
  Q 88.12 123.49 91.05 123.48
  L 98.25 123.46
  A 1.71 1.71 0.0 0 0 99.96 121.76
  Q 99.99 115.48 100.22 108.75
  Q 100.35 105.10 103.56 105.91
  C 108.73 107.22 113.44 108.00 118.05 104.99
  C 125.76 99.98 126.63 91.92 125.77 83.25
  C 124.88 74.43 117.75 68.08 108.82 69.08
  Q 107.35 69.24 105.93 69.95
  C 104.30 70.76 101.29 73.87 99.95 70.75
  A 0.97 0.97 0.0 0 0 99.05 70.15
  Q 94.57 70.12 90.70 70.09
  C 89.53 70.08 88.64 70.61 87.50 70.86
  Q 87.34 70.89 87.47 71.00
  Q 87.57 71.09 87.70 71.12
  Q 87.99 71.18 87.99 71.48
  Z
  M 77.42 106.66
  Q 86.22 102.73 86.60 93.24
  Q 86.99 83.53 86.84 72.23
  A 1.44 1.44 0.0 0 0 85.41 70.81
  L 76.33 70.73
  A 1.57 1.56 0.2 0 0 74.75 72.29
  Q 74.74 80.47 74.74 89.00
  C 74.74 94.16 72.65 97.97 66.94 95.76
  Q 64.98 94.38 64.93 93.01
  Q 64.63 83.30 64.63 73.27
  Q 64.63 70.80 62.16 70.79
  L 54.31 70.79
  A 1.56 1.56 0.0 0 0 52.74 72.35
  Q 52.77 80.71 52.74 89.19
  Q 52.71 96.47 54.14 99.64
  C 57.98 108.19 69.29 109.61 77.42 106.66
  Z" fill="#1b1b1b"></path>
<path d="M 87.70 71.12
  Q 87.57 71.09 87.47 71.00
  Q 87.34 70.89 87.50 70.86
  C 88.64 70.61 89.53 70.08 90.70 70.09
  Q 94.57 70.12 99.05 70.15
  A 0.98 0.97 -57.5 0 1 99.95 70.75
  C 101.29 73.87 104.30 70.76 105.93 69.95
  Q 107.35 69.24 108.82 69.08
  C 117.75 68.08 124.88 74.43 125.77 83.25
  C 126.63 91.92 125.76 99.98 118.05 104.99
  C 113.44 108.00 108.73 107.22 103.56 105.91
  Q 100.35 105.10 100.22 108.75
  Q 99.99 115.48 99.96 121.76
  A 1.71 1.71 0.0 0 1 98.25 123.46
  L 91.05 123.48
  Q 88.12 123.49 88.11 120.55
  L 87.99 71.48
  Q 87.99 71.18 87.70 71.12
  Z
  M 115.23 72.00
  L 115.11 72.23
  Q 115.05 72.34 115.16 72.40
  C 123.22 76.72 123.22 84.75 123.20 92.68
  Q 123.20 92.76 123.28 92.79
  L 123.54 92.87
  Q 123.85 92.98 123.86 92.65
  C 124.05 84.11 124.16 76.82 115.86 71.83
  Q 115.46 71.58 115.23 72.00
  Z
  M 100.69 92.41
  C 102.23 94.88 106.28 95.61 109.00 95.20
  C 112.62 94.66 114.04 89.75 113.53 86.79
  C 112.73 82.15 108.18 79.42 103.84 82.08
  C 100.82 83.92 98.64 89.14 100.69 92.41
  Z
  M 121.07 99.42
  C 121.90 98.72 123.22 97.06 122.91 95.79
  Q 122.72 95.01 122.37 95.73
  L 120.72 99.16
  Q 120.27 100.11 121.07 99.42
  Z" fill="#3ccaad"></path>
<path d="M 66.94 95.76
  Q 65.95 97.03 66.67 98.18
  A 0.63 0.62 -41.4 0 1 66.62 98.91
  Q 66.20 99.43 66.55 99.94
  Q 66.82 100.35 66.63 100.80
  Q 66.13 101.98 67.19 103.06
  A 0.48 0.48 0.0 0 1 67.01 103.84
  Q 66.78 103.92 66.71 104.10
  Q 66.59 104.41 66.89 104.58
  Q 67.17 104.73 67.32 104.95
  Q 67.05 105.33 67.08 105.45
  A 0.81 0.81 0.0 0 0 67.73 106.05
  Q 72.71 106.89 77.14 105.13
  Q 76.76 106.88 77.42 106.66
  C 69.29 109.61 57.98 108.19 54.14 99.64
  Q 52.71 96.47 52.74 89.19
  Q 52.77 80.71 52.74 72.35
  A 1.56 1.56 0.0 0 1 54.31 70.79
  L 62.16 70.79
  Q 64.63 70.80 64.63 73.27
  Q 64.63 83.30 64.93 93.01
  Q 64.98 94.38 66.94 95.76
  Z" fill="#85cf96"></path>
<path d="M 77.42 106.66
  Q 76.76 106.88 77.14 105.13
  C 81.23 102.75 84.92 98.60 85.12 93.62
  Q 85.13 93.37 84.88 93.36
  L 84.63 93.35
  Q 84.13 93.34 84.13 93.84
  Q 84.11 95.20 83.75 96.03
  Q 79.10 106.72 67.32 104.95
  Q 67.17 104.73 66.89 104.58
  Q 66.59 104.41 66.71 104.10
  Q 66.78 103.92 67.01 103.84
  A 0.48 0.48 0.0 0 0 67.19 103.06
  Q 66.13 101.98 66.63 100.80
  Q 66.82 100.35 66.55 99.94
  Q 66.20 99.43 66.62 98.91
  A 0.63 0.62 -41.4 0 0 66.67 98.18
  Q 65.95 97.03 66.94 95.76
  C 72.65 97.97 74.74 94.16 74.74 89.00
  Q 74.74 80.47 74.75 72.29
  A 1.57 1.56 0.2 0 1 76.33 70.73
  L 85.41 70.81
  A 1.44 1.44 0.0 0 1 86.84 72.23
  Q 86.99 83.53 86.60 93.24
  Q 86.22 102.73 77.42 106.66
  Z
  M 84.6767 90.6890
  A 2.25 0.52 88.3 0 0 85.1298 88.4246
  A 2.25 0.52 88.3 0 0 84.5433 86.1910
  A 2.25 0.52 88.3 0 0 84.0902 88.4554
  A 2.25 0.52 88.3 0 0 84.6767 90.6890
  Z" fill="#65cda0"></path>
<path d="M 115.86 71.83
  C 124.16 76.82 124.05 84.11 123.86 92.65
  Q 123.85 92.98 123.54 92.87
  L 123.28 92.79
  Q 123.20 92.76 123.20 92.68
  C 123.22 84.75 123.22 76.72 115.16 72.40
  Q 115.05 72.34 115.11 72.23
  L 115.23 72.00
  Q 115.46 71.58 115.86 71.83
  Z" fill="#fffdfa"></path>
<path d="M 30.06 74.43
  C 36.12 75.77 34.10 81.05 31.73 84.61
  Q 31.15 85.48 30.37 84.78
  L 29.73 84.21
  Q 29.04 83.60 29.60 82.86
  Q 31.05 80.96 31.04 78.60
  Q 31.03 78.08 30.53 78.00
  Q 28.54 77.66 27.53 79.71
  Q 25.98 82.90 22.15 83.16
  Q 15.66 78.93 21.34 73.17
  A 0.92 0.90 -58.7 0 1 22.25 72.94
  Q 23.10 73.20 23.58 73.99
  Q 23.84 74.42 23.51 74.80
  C 22.48 75.98 20.87 78.44 22.45 79.75
  A 0.98 0.98 0.0 0 0 23.87 79.57
  C 25.47 77.31 26.87 74.46 30.06 74.43
  Z" fill="#ff9594"></path>
<path d="M 109.00 95.20
  C 106.28 95.61 102.23 94.88 100.69 92.41
  C 98.64 89.14 100.82 83.92 103.84 82.08
  C 108.18 79.42 112.73 82.15 113.53 86.79
  C 114.04 89.75 112.62 94.66 109.00 95.20
  Z
  M 107.8900 94.2622
  A 5.48 3.17 101.9 0 0 112.1219 89.5537
  A 5.48 3.17 101.9 0 0 110.1500 83.5378
  A 5.48 3.17 101.9 0 0 105.9181 88.2463
  A 5.48 3.17 101.9 0 0 107.8900 94.2622
  Z" fill="#1b1b1b"></path>
<ellipse ry="3.17" rx="5.48" transform="translate(109.02,88.90) rotate(101.9)" cy="0.00" cx="0.00" fill="#ec7170"></ellipse>
<ellipse ry="0.52" rx="2.25" transform="translate(84.61,88.44) rotate(88.3)" cy="0.00" cx="0.00" fill="#fffdfa"></ellipse>
<path d="M 149.98 91.87
  L 160.78 92.78
  Q 162.10 92.89 161.57 94.10
  L 161.15 95.04
  A 1.58 1.57 18.8 0 1 159.33 95.93
  L 155.82 95.05
  A 0.80 0.80 0.0 0 0 154.92 96.19
  C 155.92 98.13 158.10 99.06 159.74 100.05
  A 2.08 2.07 16.6 0 1 160.74 101.89
  L 160.70 103.04
  Q 160.64 104.74 159.30 103.69
  L 154.14 99.63
  A 0.82 0.81 -43.6 0 0 153.16 99.61
  L 147.51 103.60
  Q 145.87 104.53 146.09 102.26
  C 146.47 98.55 149.57 98.75 151.54 97.32
  Q 152.65 96.52 151.99 95.42
  Q 151.75 95.01 151.28 95.01
  L 147.74 94.95
  Q 146.78 94.93 146.90 93.99
  L 147.10 92.37
  A 0.67 0.67 0.0 0 1 148.02 91.83
  Q 148.86 92.18 149.98 91.87
  Z" fill="#ff9594"></path>
<path d="M 77.14 105.13
  Q 72.71 106.89 67.73 106.05
  A 0.81 0.81 0.0 0 1 67.08 105.45
  Q 67.05 105.33 67.32 104.95
  Q 79.10 106.72 83.75 96.03
  Q 84.11 95.20 84.13 93.84
  Q 84.13 93.34 84.63 93.35
  L 84.88 93.36
  Q 85.13 93.37 85.12 93.62
  C 84.92 98.60 81.23 102.75 77.14 105.13
  Z" fill="#fffdfa"></path>
<path d="M 122.91 95.79
  C 123.22 97.06 121.90 98.72 121.07 99.42
  Q 120.27 100.11 120.72 99.16
  L 122.37 95.73
  Q 122.72 95.01 122.91 95.79
  Z" fill="#fffdfa"></path>
<path d="M 24.30 108.27
  L 21.20 109.09
  A 1.59 1.59 0.0 0 1 19.24 107.90
  Q 18.74 105.58 19.04 102.51
  C 19.52 97.61 21.51 98.02 25.58 97.98
  Q 26.70 98.76 28.06 98.96
  A 0.97 0.97 0.0 0 0 28.95 98.62
  L 30.93 96.21
  Q 31.62 95.37 32.13 96.34
  L 32.96 97.93
  Q 33.62 99.19 32.39 99.92
  Q 30.74 100.90 29.87 101.91
  Q 27.09 105.11 31.16 103.92
  Q 31.54 103.81 33.20 104.03
  A 0.95 0.94 -86.2 0 1 34.01 104.97
  L 34.02 106.17
  Q 34.02 106.91 33.29 107.01
  L 24.30 108.27
  Z
  M 26.06 104.87
  A 0.68 0.68 0.0 0 0 26.53 104.03
  L 25.78 101.35
  A 0.68 0.68 0.0 0 0 25.04 100.86
  L 22.14 101.21
  A 0.68 0.68 0.0 0 0 21.54 101.92
  L 21.68 105.21
  A 0.68 0.68 0.0 0 0 22.53 105.83
  L 26.06 104.87
  Z" fill="#ff9594"></path>
<path d="M 26.06 104.87
  L 22.53 105.83
  A 0.68 0.68 0.0 0 1 21.68 105.21
  L 21.54 101.92
  A 0.68 0.68 0.0 0 1 22.14 101.21
  L 25.04 100.86
  A 0.68 0.68 0.0 0 1 25.78 101.35
  L 26.53 104.03
  A 0.68 0.68 0.0 0 1 26.06 104.87
  Z" fill="#eb6a6e"></path>
<path d="M 33.43 128.78
  Q 31.31 130.80 30.05 128.72
  Q 28.08 125.46 26.13 122.25
  A 0.86 0.86 0.0 0 1 26.76 120.95
  Q 28.86 120.71 29.99 123.56
  L 31.62 125.85
  A 0.66 0.65 55.7 0 0 32.51 126.03
  L 34.38 124.83
  Q 34.87 124.51 34.48 124.08
  Q 33.43 122.92 32.47 121.34
  Q 31.95 120.50 32.08 119.89
  Q 32.25 119.08 33.20 118.88
  Q 33.76 118.76 34.08 119.23
  L 36.71 123.13
  Q 36.85 123.34 37.07 123.21
  L 39.53 121.74
  Q 39.81 121.57 39.63 121.29
  L 36.06 115.64
  A 1.07 1.06 -29.0 0 1 36.50 114.12
  L 36.84 113.95
  A 1.13 1.13 0.0 0 1 38.28 114.34
  L 43.62 122.36
  A 0.26 0.25 -32.8 0 1 43.54 122.72
  L 33.43 128.78
  Z" fill="#ff9594"></path>
<circle r="2.84" cy="126.92" cx="148.35" fill="#ff9594"></circle>
<path d="M 50.77 146.73
  Q 49.37 149.25 47.80 147.25
  Q 47.48 146.84 47.63 146.35
  L 50.66 136.70
  Q 51.12 135.25 49.98 136.25
  L 42.57 142.72
  A 1.61 1.61 0.0 0 1 40.33 142.61
  L 40.08 142.34
  A 0.92 0.91 -42.6 0 1 40.14 141.03
  L 43.60 137.93
  L 50.37 132.40
  A 1.27 1.26 47.8 0 1 52.06 132.49
  Q 52.58 133.01 53.26 133.24
  A 1.28 1.28 0.0 0 1 54.09 134.80
  L 50.77 146.73
  Z" fill="#ff9594"></path>
<path d="M 128.52 136.21
  L 135.47 145.29
  Q 135.92 145.88 135.33 146.33
  L 134.08 147.28
  Q 133.57 147.66 133.20 147.15
  L 127.71 139.59
  A 2.33 2.33 0.0 0 0 124.73 138.90
  L 124.04 139.27
  A 2.31 2.30 -32.1 0 0 123.26 142.66
  L 128.63 150.04
  Q 129.08 150.66 128.49 151.16
  L 127.64 151.88
  Q 126.97 152.45 126.43 151.75
  L 125.07 149.95
  C 122.65 147.00 118.27 141.74 120.92 138.45
  Q 123.77 134.90 128.52 136.21
  Z" fill="#ff9594"></path>
<path d="M 107.24 156.16
  L 108.16 159.80
  A 0.71 0.70 68.8 0 1 107.81 160.60
  Q 101.06 164.18 97.59 160.03
  Q 95.32 152.81 102.04 151.79
  Q 103.93 151.50 102.21 148.27
  Q 101.55 147.04 102.94 147.02
  L 103.94 147.00
  Q 105.30 146.97 105.59 148.31
  L 107.24 156.16
  Z
  M 105.02 158.15
  L 103.92 154.48
  A 0.66 0.66 0.0 0 0 103.09 154.03
  L 101.53 154.50
  A 2.55 2.41 -16.7 0 0 99.78 157.54
  L 99.88 157.87
  A 2.55 2.41 -16.7 0 0 103.02 159.44
  L 104.58 158.98
  A 0.66 0.66 0.0 0 0 105.02 158.15
  Z" fill="#ff9594"></path>
<path d="M 70.32 156.98
  Q 68.95 156.70 68.34 155.54
  C 67.22 150.11 75.78 151.75 73.57 155.70
  Q 72.74 157.19 70.32 156.98
  Z" fill="#ff9594"></path>
<path d="M 105.02 158.15
  A 0.66 0.66 0.0 0 1 104.58 158.98
  L 103.02 159.44
  A 2.55 2.41 -16.7 0 1 99.88 157.87
  L 99.78 157.54
  A 2.55 2.41 -16.7 0 1 101.53 154.50
  L 103.09 154.03
  A 0.66 0.66 0.0 0 1 103.92 154.48
  L 105.02 158.15
  Z" fill="#eb6a6e"></path>
</svg>
