<svg viewBox="0.00 0.00 128.00 128.00" version="1.1" xmlns="http://www.w3.org/2000/svg">
<path d="M 61.57 0.00
  L 66.55 0.00
  C 77.25 2.21 84.45 10.61 88.96 20.03
  Q 89.17 20.47 89.67 20.46
  C 98.70 20.29 106.04 20.84 113.79 25.83
  Q 114.22 26.10 114.71 25.98
  C 124.12 23.54 129.78 34.38 122.54 40.91
  Q 122.15 41.26 122.13 41.78
  Q 121.53 53.39 114.85 62.86
  A 1.94 1.94 0.0 0 0 114.85 65.10
  Q 121.54 74.64 122.15 86.31
  Q 122.17 86.75 122.50 87.05
  C 129.70 93.54 124.22 104.29 114.75 102.07
  Q 114.26 101.96 113.84 102.23
  C 105.94 107.30 98.80 107.64 89.63 107.59
  Q 89.09 107.59 88.86 108.08
  C 84.49 117.44 77.00 126.05 66.38 128.00
  L 61.48 128.00
  C 50.98 126.00 43.32 117.28 39.15 108.07
  A 0.93 0.93 0.0 0 0 38.23 107.53
  C 30.12 108.11 21.79 107.02 14.81 102.54
  C 13.20 101.51 12.77 102.33 11.21 102.39
  C 2.70 102.69 -0.96 92.77 5.44 87.20
  Q 5.81 86.87 5.84 86.38
  Q 6.43 74.46 13.36 64.80
  A 1.37 1.37 0.0 0 0 13.36 63.22
  Q 6.44 53.56 5.76 41.66
  Q 5.73 41.15 5.34 40.81
  C -2.09 34.46 3.93 23.86 13.30 25.94
  Q 13.79 26.05 14.22 25.78
  C 22.03 20.84 29.30 20.35 38.31 20.46
  Q 38.83 20.46 39.05 20.00
  C 43.56 10.57 50.84 2.11 61.57 0.00
  Z
  M 64.35 26.07
  C 71.01 24.13 77.05 22.06 83.99 21.03
  Q 84.59 20.94 84.32 20.40
  C 73.70 -1.03 54.29 -0.59 43.56 20.51
  A 0.36 0.35 17.3 0 0 43.83 21.02
  Q 53.80 22.45 63.22 26.02
  Q 63.78 26.23 64.35 26.07
  Z
  M 10.77 42.70
  Q 10.23 42.74 10.28 43.29
  Q 11.16 52.25 16.09 59.75
  A 0.45 0.45 0.0 0 0 16.81 59.78
  Q 23.05 51.90 30.88 45.59
  A 1.37 1.36 -15.4 0 0 31.36 44.75
  Q 32.97 34.72 36.66 25.27
  Q 36.87 24.74 36.31 24.71
  Q 26.68 24.07 18.09 28.30
  A 0.83 0.83 0.0 0 0 17.77 29.51
  C 21.63 35.30 17.52 42.15 10.77 42.70
  Z
  M 97.07 45.48
  C 102.93 50.49 106.91 54.55 111.18 59.77
  A 0.47 0.47 0.0 0 0 111.95 59.73
  Q 116.85 52.21 117.73 43.27
  Q 117.78 42.78 117.29 42.73
  C 111.14 42.09 105.99 35.58 109.98 29.91
  Q 110.82 28.72 109.51 28.10
  Q 101.08 24.12 91.70 24.70
  Q 91.10 24.74 91.32 25.30
  Q 95.00 34.66 96.58 44.60
  Q 96.67 45.13 97.07 45.48
  Z
  M 41.84 25.08
  A 0.67 0.66 14.3 0 0 41.14 25.49
  Q 38.29 32.62 36.61 40.10
  Q 36.32 41.37 37.37 40.61
  Q 46.73 33.88 57.27 29.17
  Q 58.17 28.77 57.23 28.47
  Q 49.70 26.04 41.84 25.08
  Z
  M 71.26 28.27
  Q 69.77 28.73 71.19 29.37
  Q 81.54 34.06 90.76 40.69
  Q 91.67 41.34 91.42 40.26
  Q 89.71 32.72 86.85 25.53
  A 0.76 0.75 75.1 0 0 86.05 25.06
  Q 78.51 26.07 71.26 28.27
  Z
  M 14.87 34.15
  A 4.21 4.21 0.0 0 0 10.66 29.94
  A 4.21 4.21 0.0 0 0 6.45 34.15
  A 4.21 4.21 0.0 0 0 10.66 38.36
  A 4.21 4.21 0.0 0 0 14.87 34.15
  Z
  M 121.58 34.13
  A 4.25 4.25 0.0 0 0 117.33 29.88
  A 4.25 4.25 0.0 0 0 113.08 34.13
  A 4.25 4.25 0.0 0 0 117.33 38.38
  A 4.25 4.25 0.0 0 0 121.58 34.13
  Z
  M 92.87 78.87
  Q 94.85 63.45 92.77 48.18
  A 1.91 1.89 15.0 0 0 92.06 46.96
  Q 79.48 37.21 64.75 31.19
  A 2.01 2.01 0.0 0 0 63.23 31.19
  Q 48.52 37.23 35.95 46.94
  A 1.93 1.93 0.0 0 0 35.21 48.23
  Q 33.10 64.03 35.22 79.83
  Q 35.32 80.54 35.88 80.98
  Q 48.60 90.85 63.51 96.91
  Q 64.00 97.11 64.48 96.91
  Q 79.20 90.94 91.95 81.09
  C 92.78 80.45 92.75 79.85 92.87 78.87
  Z
  M 30.45 75.66
  C 29.16 68.58 29.70 59.58 30.43 52.55
  Q 30.55 51.42 29.71 52.19
  Q 24.09 57.36 19.40 63.38
  A 1.27 1.26 -47.7 0 0 19.47 65.01
  L 29.68 76.04
  A 0.45 0.45 0.0 0 0 30.45 75.66
  Z
  M 97.57 52.33
  C 98.24 60.16 98.31 67.91 97.59 75.71
  Q 97.48 76.98 98.34 76.04
  L 108.62 64.89
  Q 109.44 64.00 108.62 63.11
  L 98.33 51.99
  Q 97.46 51.04 97.57 52.33
  Z
  M 10.74 85.25
  C 17.20 85.87 21.92 92.74 17.71 98.54
  A 0.74 0.73 -59.1 0 0 17.98 99.63
  Q 26.73 103.96 36.53 103.29
  A 0.25 0.24 -12.0 0 0 36.75 102.96
  Q 33.03 93.53 31.42 83.52
  A 2.01 1.99 15.3 0 0 30.72 82.30
  Q 23.01 75.98 16.79 68.19
  A 0.46 0.46 0.0 0 0 16.04 68.22
  Q 11.17 75.75 10.28 84.69
  Q 10.23 85.20 10.74 85.25
  Z
  M 110.14 98.40
  C 105.87 92.54 110.96 86.03 117.25 85.24
  Q 117.72 85.18 117.67 84.71
  Q 116.85 75.75 111.93 68.23
  A 0.46 0.45 47.7 0 0 111.19 68.19
  Q 104.88 76.11 97.04 82.51
  A 1.24 1.22 75.8 0 0 96.60 83.26
  Q 95.03 93.42 91.23 102.96
  A 0.24 0.24 0.0 0 0 91.44 103.29
  Q 101.17 103.94 109.83 99.64
  Q 110.72 99.20 110.14 98.40
  Z
  M 56.70 98.46
  Q 46.15 93.68 37.06 87.21
  Q 36.34 86.70 36.53 87.56
  Q 38.24 95.27 41.20 102.59
  A 0.88 0.87 -16.8 0 0 42.20 103.12
  L 57.22 99.78
  Q 57.98 99.61 57.48 99.00
  Q 57.22 98.69 56.70 98.46
  Z
  M 71.65 100.04
  L 85.86 103.09
  A 0.82 0.81 -72.6 0 0 86.79 102.60
  Q 89.72 95.35 91.43 87.72
  Q 91.64 86.79 90.84 87.32
  C 86.84 89.94 83.45 92.31 78.67 94.73
  Q 74.84 96.66 71.48 99.34
  Q 70.83 99.86 71.65 100.04
  Z
  M 14.90 93.86
  A 4.25 4.25 0.0 0 0 10.65 89.61
  A 4.25 4.25 0.0 0 0 6.40 93.86
  A 4.25 4.25 0.0 0 0 10.65 98.11
  A 4.25 4.25 0.0 0 0 14.90 93.86
  Z
  M 121.58 93.88
  A 4.24 4.24 0.0 0 0 117.34 89.64
  A 4.24 4.24 0.0 0 0 113.10 93.88
  A 4.24 4.24 0.0 0 0 117.34 98.12
  A 4.24 4.24 0.0 0 0 121.58 93.88
  Z
  M 43.64 107.57
  C 54.14 128.63 73.65 128.94 84.36 107.58
  A 0.45 0.45 0.0 0 0 84.02 106.94
  Q 74.01 105.50 64.55 101.91
  A 1.73 1.73 0.0 0 0 63.33 101.91
  Q 53.94 105.52 43.97 106.93
  A 0.44 0.44 0.0 0 0 43.64 107.57
  Z" fill="#000000"></path>
<path d="M 58.47 70.44
  L 48.08 70.43
  Q 47.62 70.43 47.45 70.85
  L 44.48 77.92
  A 1.70 1.70 0.0 0 1 42.43 78.89
  L 41.96 78.75
  Q 39.80 78.12 40.66 76.05
  Q 45.87 63.56 50.95 50.96
  Q 51.80 48.87 53.78 49.05
  A 1.68 1.67 -8.7 0 1 55.18 50.07
  L 66.03 76.15
  A 1.94 1.94 0.0 0 1 64.82 78.74
  L 64.32 78.89
  A 1.79 1.79 0.0 0 1 62.13 77.87
  L 59.27 70.98
  A 0.87 0.86 78.9 0 0 58.47 70.44
  Z
  M 49.64 65.63
  A 0.35 0.35 0.0 0 0 49.97 66.11
  L 56.68 66.12
  A 0.35 0.35 0.0 0 0 57.01 65.64
  L 53.66 57.46
  A 0.35 0.35 0.0 0 0 53.02 57.46
  L 49.64 65.63
  Z" fill="#000000"></path>
<path d="M 78.95 53.95
  L 78.96 74.04
  Q 78.96 74.62 79.54 74.63
  L 83.66 74.71
  A 1.65 1.65 0.0 0 1 85.28 76.41
  L 85.26 77.01
  Q 85.20 78.97 83.24 78.96
  L 70.37 78.96
  Q 68.29 78.95 68.31 76.87
  L 68.31 76.33
  A 1.64 1.63 -90.0 0 1 69.92 74.71
  L 74.23 74.66
  A 0.43 0.43 0.0 0 0 74.65 74.23
  L 74.66 53.99
  A 0.68 0.67 0.4 0 0 73.99 53.32
  L 70.01 53.30
  A 1.77 1.77 0.0 0 1 68.28 51.25
  L 68.39 50.56
  A 1.80 1.79 4.5 0 1 70.17 49.05
  L 83.32 49.04
  A 1.94 1.94 0.0 0 1 85.26 51.07
  L 85.24 51.80
  A 1.54 1.54 0.0 0 1 83.71 53.28
  L 79.55 53.34
  Q 78.95 53.35 78.95 53.95
  Z" fill="#000000"></path>
</svg>
