<svg viewBox="0.00 0.00 48.00 48.00" version="1.1" xmlns="http://www.w3.org/2000/svg">
<g stroke-linecap="butt" fill="none" stroke-width="2.00">
<path d="M 22.81 28.07
  Q 23.37 27.25 24.00 26.95" stroke="#8682fe"></path>
<path d="M 24.00 26.95
  C 25.39 28.45 25.67 30.34 27.31 31.41
  Q 31.69 34.26 34.39 28.09" stroke="#a9a6ff"></path>
<path d="M 34.39 28.09
  L 37.58 22.35" stroke="#8682fe"></path>
<path d="M 37.58 22.35
  C 43.77 15.08 32.63 10.07 30.77 18.52" stroke="#a9a6ff"></path>
<path d="M 30.77 18.52
  Q 30.39 18.71 29.78 20.12" stroke="#8682fe"></path>
<path d="M 29.78 20.12
  Q 26.11 11.24 21.20 15.16
  Q 19.15 16.80 19.53 19.45" stroke="#a9a6ff"></path>
<path d="M 19.53 19.45
  Q 19.52 20.04 18.52 19.79" stroke="#8682fe"></path>
<path d="M 18.52 19.79
  C 17.19 18.15 16.40 15.78 14.81 14.73
  C 11.42 12.50 6.93 16.60 8.83 19.92
  C 10.36 22.57 14.09 30.60 16.57 31.84
  C 19.36 33.24 22.22 31.20 22.81 28.07" stroke="#a9a6ff"></path>
<path d="M 18.52 19.79
  L 22.81 28.07" stroke="#dddbfe"></path>
<path d="M 29.78 20.12
  L 34.39 28.09" stroke="#dddbfe"></path>
<path d="M 24.00 26.95
  L 19.53 19.45" stroke="#dddbfe"></path>
<path d="M 37.58 22.35
  Q 32.00 23.40 30.77 18.52" stroke="#dddbfe"></path>
</g>
<path d="M 0.00 0.00
  L 48.00 0.00
  L 48.00 48.00
  L 0.00 48.00
  L 0.00 0.00
  Z
  M 22.81 28.07
  Q 23.37 27.25 24.00 26.95
  C 25.39 28.45 25.67 30.34 27.31 31.41
  Q 31.69 34.26 34.39 28.09
  L 37.58 22.35
  C 43.77 15.08 32.63 10.07 30.77 18.52
  Q 30.39 18.71 29.78 20.12
  Q 26.11 11.24 21.20 15.16
  Q 19.15 16.80 19.53 19.45
  Q 19.52 20.04 18.52 19.79
  C 17.19 18.15 16.40 15.78 14.81 14.73
  C 11.42 12.50 6.93 16.60 8.83 19.92
  C 10.36 22.57 14.09 30.60 16.57 31.84
  C 19.36 33.24 22.22 31.20 22.81 28.07
  Z" fill="#524dff"></path>
<path d="M 18.52 19.79
  L 22.81 28.07
  C 22.22 31.20 19.36 33.24 16.57 31.84
  C 14.09 30.60 10.36 22.57 8.83 19.92
  C 6.93 16.60 11.42 12.50 14.81 14.73
  C 16.40 15.78 17.19 18.15 18.52 19.79
  Z" fill="#ffffff"></path>
<path d="M 29.78 20.12
  L 34.39 28.09
  Q 31.69 34.26 27.31 31.41
  C 25.67 30.34 25.39 28.45 24.00 26.95
  L 19.53 19.45
  Q 19.15 16.80 21.20 15.16
  Q 26.11 11.24 29.78 20.12
  Z" fill="#ffffff"></path>
<path d="M 37.58 22.35
  Q 32.00 23.40 30.77 18.52
  C 32.63 10.07 43.77 15.08 37.58 22.35
  Z" fill="#ffffff"></path>
<path d="M 30.77 18.52
  Q 32.00 23.40 37.58 22.35
  L 34.39 28.09
  L 29.78 20.12
  Q 30.39 18.71 30.77 18.52
  Z" fill="#bab7fd"></path>
<path d="M 19.53 19.45
  L 24.00 26.95
  Q 23.37 27.25 22.81 28.07
  L 18.52 19.79
  Q 19.52 20.04 19.53 19.45
  Z" fill="#bab7fd"></path>
</svg>
