<svg viewBox="0.00 0.00 180.00 180.00" version="1.1" xmlns="http://www.w3.org/2000/svg">
<g stroke-linecap="butt" fill="none" stroke-width="2.00">
<path d="M 179.42 1.56
  A 0.95 0.95 0.0 0 0 178.47 0.61
  L 1.51 0.61
  A 0.95 0.95 0.0 0 0 0.56 1.56
  L 0.56 178.52
  A 0.95 0.95 0.0 0 0 1.51 179.47
  L 178.47 179.47
  A 0.95 0.95 0.0 0 0 179.42 178.52
  L 179.42 1.56" stroke="#293d4b"></path>
<path d="M 117.9698 39.7687
  A 0.55 0.55 0.0 0 0 117.9698 38.9908
  L 99.5992 20.6202
  A 0.55 0.55 0.0 0 0 98.8213 20.6202
  L 62.4902 56.9513
  A 0.55 0.55 0.0 0 0 62.4902 57.7292
  L 80.8608 76.0998
  A 0.55 0.55 0.0 0 0 81.6387 76.0998
  L 117.9698 39.7687" stroke="#839099"></path>
<path d="M 43.49 103.10
  A 0.33 0.33 0.0 0 0 43.82 103.43
  L 98.45 103.46
  A 0.33 0.33 0.0 0 1 98.69 104.02
  L 62.32 140.36
  A 0.33 0.33 0.0 0 0 62.32 140.82
  L 80.99 159.51
  A 0.33 0.33 0.0 0 0 81.45 159.51
  L 118.11 122.85
  A 0.33 0.33 0.0 0 0 118.11 122.39
  L 99.74 104.02
  A 0.33 0.33 0.0 0 1 99.98 103.46
  L 136.18 103.43
  A 0.33 0.33 0.0 0 0 136.51 103.10
  L 136.51 76.89
  A 0.33 0.33 0.0 0 0 136.18 76.56
  L 43.82 76.55
  A 0.33 0.33 0.0 0 0 43.49 76.88
  L 43.49 103.10" stroke="#839099"></path>
</g>
<path d="M 0.00 0.00
  L 180.00 0.00
  L 180.00 180.00
  L 0.00 180.00
  L 0.00 0.00
  Z
  M 179.42 1.56
  A 0.95 0.95 0.0 0 0 178.47 0.61
  L 1.51 0.61
  A 0.95 0.95 0.0 0 0 0.56 1.56
  L 0.56 178.52
  A 0.95 0.95 0.0 0 0 1.51 179.47
  L 178.47 179.47
  A 0.95 0.95 0.0 0 0 179.42 178.52
  L 179.42 1.56
  Z" fill="#4c5a63"></path>
<path d="M 179.42 178.52
  A 0.95 0.95 0.0 0 1 178.47 179.47
  L 1.51 179.47
  A 0.95 0.95 0.0 0 1 0.56 178.52
  L 0.56 1.56
  A 0.95 0.95 0.0 0 1 1.51 0.61
  L 178.47 0.61
  A 0.95 0.95 0.0 0 1 179.42 1.56
  L 179.42 178.52
  Z
  M 117.9698 39.7687
  A 0.55 0.55 0.0 0 0 117.9698 38.9908
  L 99.5992 20.6202
  A 0.55 0.55 0.0 0 0 98.8213 20.6202
  L 62.4902 56.9513
  A 0.55 0.55 0.0 0 0 62.4902 57.7292
  L 80.8608 76.0998
  A 0.55 0.55 0.0 0 0 81.6387 76.0998
  L 117.9698 39.7687
  Z
  M 43.49 103.10
  A 0.33 0.33 0.0 0 0 43.82 103.43
  L 98.45 103.46
  A 0.33 0.33 0.0 0 1 98.69 104.02
  L 62.32 140.36
  A 0.33 0.33 0.0 0 0 62.32 140.82
  L 80.99 159.51
  A 0.33 0.33 0.0 0 0 81.45 159.51
  L 118.11 122.85
  A 0.33 0.33 0.0 0 0 118.11 122.39
  L 99.74 104.02
  A 0.33 0.33 0.0 0 1 99.98 103.46
  L 136.18 103.43
  A 0.33 0.33 0.0 0 0 136.51 103.10
  L 136.51 76.89
  A 0.33 0.33 0.0 0 0 136.18 76.56
  L 43.82 76.55
  A 0.33 0.33 0.0 0 0 43.49 76.88
  L 43.49 103.10
  Z" fill="#062032"></path>
<rect rx="0.55" height="52.48" width="27.08" transform="translate(90.23,48.36) rotate(45.0)" y="-26.24" x="-13.54" fill="#ffffff"></rect>
<path d="M 43.49 103.10
  L 43.49 76.88
  A 0.33 0.33 0.0 0 1 43.82 76.55
  L 136.18 76.56
  A 0.33 0.33 0.0 0 1 136.51 76.89
  L 136.51 103.10
  A 0.33 0.33 0.0 0 1 136.18 103.43
  L 99.98 103.46
  A 0.33 0.33 0.0 0 0 99.74 104.02
  L 118.11 122.39
  A 0.33 0.33 0.0 0 1 118.11 122.85
  L 81.45 159.51
  A 0.33 0.33 0.0 0 1 80.99 159.51
  L 62.32 140.82
  A 0.33 0.33 0.0 0 1 62.32 140.36
  L 98.69 104.02
  A 0.33 0.33 0.0 0 0 98.45 103.46
  L 43.82 103.43
  A 0.33 0.33 0.0 0 1 43.49 103.10
  Z" fill="#ffffff"></path>
</svg>
