<svg viewBox="0.00 0.00 256.00 256.00" version="1.1" xmlns="http://www.w3.org/2000/svg">
<g stroke-linecap="butt" fill="none" stroke-width="2.00">
<path d="M 29.61 0.00
  C 13.56 1.89 1.99 13.25 0.00 29.26" stroke-opacity="0.510" stroke="#4143c7"></path>
<path d="M 226.50 0.00
  C 242.38 1.79 254.45 13.66 256.00 29.63" stroke-opacity="0.510" stroke="#4143c7"></path>
<path d="M 256.00 226.50
  C 254.32 242.31 242.42 254.24 226.62 256.00" stroke-opacity="0.510" stroke="#4143c7"></path>
<path d="M 29.25 256.00
  C 13.57 254.17 1.74 242.32 0.00 226.62" stroke-opacity="0.510" stroke="#4143c7"></path>
<path d="M 149.70 121.75
  Q 149.96 120.91 150.22 121.75
  L 162.69 162.57
  Q 162.82 163.00 163.28 163.00
  L 182.78 163.00
  A 0.49 0.48 -79.3 0 0 183.23 162.69
  L 209.83 94.42
  A 0.31 0.31 0.0 0 0 209.54 94.00
  L 184.67 94.00
  Q 184.23 94.00 184.10 94.42
  L 172.14 132.46
  Q 171.84 133.41 171.54 132.46
  L 159.78 94.44
  Q 159.65 94.00 159.18 94.00
  L 141.01 94.00
  Q 140.47 94.00 140.31 94.51
  L 128.29 132.72
  Q 128.08 133.40 127.87 132.72
  L 116.06 94.45
  Q 115.92 94.00 115.45 94.00
  L 97.05 94.00
  Q 96.56 94.00 96.41 94.47
  L 84.46 132.46
  Q 84.16 133.40 83.87 132.46
  L 71.92 94.50
  A 0.72 0.71 81.0 0 0 71.24 94.00
  L 46.26 94.00
  A 0.18 0.17 79.5 0 0 46.10 94.24
  L 72.73 162.58
  Q 72.90 163.00 73.34 163.00
  L 92.92 163.00
  Q 93.38 163.00 93.51 162.56
  L 106.00 121.68
  Q 106.42 120.32 106.86 121.67
  L 120.04 162.79
  A 0.31 0.29 80.3 0 0 120.32 163.00
  L 136.66 163.00
  Q 137.09 163.00 137.22 162.58
  L 149.70 121.75" stroke="#a1a2e5"></path>
</g>
<path d="M 0.00 0.00
  L 29.61 0.00
  C 13.56 1.89 1.99 13.25 0.00 29.26
  L 0.00 0.00
  Z" fill-opacity="0.016" fill="#000000"></path>
<path d="M 29.61 0.00
  L 226.50 0.00
  C 242.38 1.79 254.45 13.66 256.00 29.63
  L 256.00 226.50
  C 254.32 242.31 242.42 254.24 226.62 256.00
  L 29.25 256.00
  C 13.57 254.17 1.74 242.32 0.00 226.62
  L 0.00 29.26
  C 1.99 13.25 13.56 1.89 29.61 0.00
  Z
  M 149.70 121.75
  Q 149.96 120.91 150.22 121.75
  L 162.69 162.57
  Q 162.82 163.00 163.28 163.00
  L 182.78 163.00
  A 0.49 0.48 -79.3 0 0 183.23 162.69
  L 209.83 94.42
  A 0.31 0.31 0.0 0 0 209.54 94.00
  L 184.67 94.00
  Q 184.23 94.00 184.10 94.42
  L 172.14 132.46
  Q 171.84 133.41 171.54 132.46
  L 159.78 94.44
  Q 159.65 94.00 159.18 94.00
  L 141.01 94.00
  Q 140.47 94.00 140.31 94.51
  L 128.29 132.72
  Q 128.08 133.40 127.87 132.72
  L 116.06 94.45
  Q 115.92 94.00 115.45 94.00
  L 97.05 94.00
  Q 96.56 94.00 96.41 94.47
  L 84.46 132.46
  Q 84.16 133.40 83.87 132.46
  L 71.92 94.50
  A 0.72 0.71 81.0 0 0 71.24 94.00
  L 46.26 94.00
  A 0.18 0.17 79.5 0 0 46.10 94.24
  L 72.73 162.58
  Q 72.90 163.00 73.34 163.00
  L 92.92 163.00
  Q 93.38 163.00 93.51 162.56
  L 106.00 121.68
  Q 106.42 120.32 106.86 121.67
  L 120.04 162.79
  A 0.31 0.29 80.3 0 0 120.32 163.00
  L 136.66 163.00
  Q 137.09 163.00 137.22 162.58
  L 149.70 121.75
  Z" fill="#4244ca"></path>
<path d="M 226.50 0.00
  L 256.00 0.00
  L 256.00 29.63
  C 254.45 13.66 242.38 1.79 226.50 0.00
  Z" fill-opacity="0.016" fill="#000000"></path>
<path d="M 149.70 121.75
  L 137.22 162.58
  Q 137.09 163.00 136.66 163.00
  L 120.32 163.00
  A 0.31 0.29 80.3 0 1 120.04 162.79
  L 106.86 121.67
  Q 106.42 120.32 106.00 121.68
  L 93.51 162.56
  Q 93.38 163.00 92.92 163.00
  L 73.34 163.00
  Q 72.90 163.00 72.73 162.58
  L 46.10 94.24
  A 0.18 0.17 79.5 0 1 46.26 94.00
  L 71.24 94.00
  A 0.72 0.71 81.0 0 1 71.92 94.50
  L 83.87 132.46
  Q 84.16 133.40 84.46 132.46
  L 96.41 94.47
  Q 96.56 94.00 97.05 94.00
  L 115.45 94.00
  Q 115.92 94.00 116.06 94.45
  L 127.87 132.72
  Q 128.08 133.40 128.29 132.72
  L 140.31 94.51
  Q 140.47 94.00 141.01 94.00
  L 159.18 94.00
  Q 159.65 94.00 159.78 94.44
  L 171.54 132.46
  Q 171.84 133.41 172.14 132.46
  L 184.10 94.42
  Q 184.23 94.00 184.67 94.00
  L 209.54 94.00
  A 0.31 0.31 0.0 0 1 209.83 94.42
  L 183.23 162.69
  A 0.49 0.48 -79.3 0 1 182.78 163.00
  L 163.28 163.00
  Q 162.82 163.00 162.69 162.57
  L 150.22 121.75
  Q 149.96 120.91 149.70 121.75
  Z" fill="#ffffff"></path>
<path d="M 256.00 226.50
  L 256.00 256.00
  L 226.62 256.00
  C 242.42 254.24 254.32 242.31 256.00 226.50
  Z" fill-opacity="0.016" fill="#000000"></path>
<path d="M 0.00 226.62
  C 1.74 242.32 13.57 254.17 29.25 256.00
  L 0.00 256.00
  L 0.00 226.62
  Z" fill-opacity="0.016" fill="#000000"></path>
</svg>
