<svg viewBox="0.00 0.00 256.00 256.00" version="1.1" xmlns="http://www.w3.org/2000/svg">
<g stroke-linecap="butt" fill="none" stroke-width="2.00">
<path d="M 22.01 76.54
  C 19.63 84.51 20.53 92.83 21.72 102.08" stroke="#78715b"></path>
<path d="M 21.72 102.08
  L 24.05 122.24" stroke="#726849"></path>
<path d="M 24.05 122.24
  L 25.60 132.14" stroke="#736147"></path>
<path d="M 25.60 132.14
  L 27.57 143.01" stroke="#745a47"></path>
<path d="M 27.57 143.01
  L 29.58 151.97" stroke="#755646"></path>
<path d="M 29.58 151.97
  L 32.41 162.33" stroke="#774d46"></path>
<path d="M 32.41 162.33
  L 35.61 171.98" stroke="#784846"></path>
<path d="M 35.61 171.98
  L 39.88 182.04" stroke="#794145"></path>
<path d="M 39.88 182.04
  Q 44.49 191.79 51.31 198.34" stroke="#7b3845"></path>
<path d="M 51.31 198.34
  C 66.74 211.80 83.02 202.51 91.03 186.96" stroke="#7e2744"></path>
<path d="M 91.03 186.96
  Q 95.16 179.68 97.82 171.82
  Q 98.16 170.83 98.58 171.78
  L 103.67 183.25" stroke="#7b3845"></path>
<path d="M 103.67 183.25
  C 108.79 194.11 118.43 205.49 131.97 204.40
  C 147.19 203.17 156.30 184.64 160.73 171.84
  Q 161.21 170.47 161.68 171.85
  C 166.44 185.74 177.00 205.54 194.68 204.42
  C 218.51 202.91 228.71 159.49 231.66 140.95" stroke="#7e2744"></path>
<path d="M 231.66 140.95
  L 234.45 123.22" stroke="#7b3845"></path>
<path d="M 234.45 123.22
  L 236.35 105.50" stroke="#794145"></path>
<path d="M 236.35 105.50
  L 237.60 84.40" stroke="#774d46"></path>
<path d="M 237.60 84.40
  Q 237.16 78.58 234.62 73.26" stroke="#755646"></path>
<path d="M 234.62 73.26
  Q 232.21 67.96 227.98 63.92" stroke="#745d47"></path>
<path d="M 227.98 63.92
  Q 217.94 54.55 204.00 54.58
  Q 189.72 54.62 175.12 54.62" stroke="#726849"></path>
<path d="M 175.12 54.62
  L 145.15 54.63" stroke="#5c213c"></path>
<path d="M 145.15 54.63
  L 112.14 54.63" stroke="#78715b"></path>
<path d="M 112.14 54.63
  L 82.19 54.67" stroke="#5c213c"></path>
<path d="M 82.19 54.67
  Q 69.73 54.55 57.25 54.68
  Q 47.81 54.77 42.92 56.32
  Q 28.14 60.97 22.01 76.54" stroke="#7f7b6e"></path>
<path d="M 82.19 54.67
  L 82.22 58.78" stroke="#da9caa"></path>
<path d="M 82.22 58.78
  Q 82.12 58.91 82.09 59.10
  A 0.25 0.25 0.0 0 1 81.79 59.30
  Q 79.03 58.69 76.85 60.36
  Q 76.44 60.68 75.97 60.46
  Q 75.33 60.17 74.86 60.75
  Q 74.53 61.16 74.00 61.12
  Q 72.79 61.01 71.88 61.81
  A 1.27 1.25 -63.5 0 1 70.98 62.12
  Q 69.75 62.05 68.81 62.82
  Q 68.46 63.11 68.00 63.11
  C 66.47 63.12 65.02 63.96 64.00 64.25
  Q 61.00 65.12 57.97 65.97
  A 1.21 0.12 -40.5 0 0 57.18 66.52
  Q 56.85 66.80 56.43 66.83
  Q 55.64 66.90 55.57 66.92
  Q 49.50 68.44 43.56 70.44
  Q 39.61 71.78 35.63 73.10
  Q 35.24 73.23 34.97 73.54
  Q 34.61 73.97 34.04 73.89
  Q 33.58 73.82 33.27 74.17
  Q 32.62 74.91 31.94 74.50
  Q 31.43 74.19 31.08 74.68
  Q 30.70 75.21 29.98 75.13
  Q 29.48 75.08 29.11 75.41
  C 27.83 76.53 26.82 75.47 25.55 76.10
  C 24.35 76.70 23.37 76.84 22.01 76.54" stroke="#f7ecc9"></path>
<path d="M 83.11 82.70
  Q 82.96 83.24 83.06 83.61" stroke="#cf949b"></path>
<path d="M 83.06 83.61
  Q 81.23 83.87 79.86 84.69
  Q 79.45 84.94 79.11 84.60
  L 78.75 84.25
  Q 78.62 84.12 78.50 84.25
  L 78.27 84.47
  Q 77.97 84.77 77.55 84.82
  C 75.83 85.02 74.67 86.10 73.10 86.39
  Q 70.09 86.94 67.19 87.96
  Q 59.94 90.50 52.61 92.86
  Q 51.39 93.25 50.92 93.59
  A 1.30 1.26 21.8 0 1 50.46 93.78
  C 47.13 94.37 44.01 95.95 40.73 96.37
  Q 40.28 96.43 39.89 96.67
  Q 38.59 97.49 37.11 97.12
  Q 36.56 96.99 36.22 97.43
  Q 35.41 98.46 34.08 98.11
  Q 33.51 97.96 33.18 98.44
  Q 32.50 99.43 31.33 99.12
  Q 30.81 98.99 30.35 99.26
  Q 28.94 100.12 27.28 100.12
  Q 26.81 100.12 26.43 100.41
  Q 24.76 101.71 21.72 102.08" stroke="#ead9a4"></path>
<path d="M 112.14 54.63
  L 112.09 71.78" stroke="#d49297"></path>
<path d="M 112.09 71.78
  L 111.62 85.53" stroke="#ce8985"></path>
<path d="M 111.62 85.53
  Q 108.79 84.69 106.40 85.59
  Q 105.88 85.79 105.88 85.23
  L 105.88 84.77
  Q 105.89 84.18 105.30 84.13
  Q 103.93 84.00 102.90 84.81
  Q 102.50 85.12 102.00 85.12
  L 100.50 85.12
  Q 99.92 85.12 99.89 84.54
  Q 99.87 84.18 99.55 84.13
  Q 99.16 84.06 99.13 84.45
  Q 99.08 84.90 98.29 85.09
  A 1.11 0.90 32.4 0 1 98.04 85.12
  Q 95.61 85.07 93.18 85.23
  Q 92.65 85.26 92.21 84.95
  Q 91.96 84.77 91.88 84.45
  A 0.39 0.39 0.0 0 0 91.11 84.46
  Q 91.05 84.77 90.76 84.99
  Q 90.23 85.39 90.00 84.77
  L 89.87 84.41
  A 0.35 0.34 -13.0 0 0 89.49 84.18
  Q 89.08 84.23 89.11 84.47
  Q 89.20 85.16 88.50 85.16
  L 84.97 85.14
  Q 84.60 85.13 84.45 85.46
  Q 84.36 85.65 84.23 85.81
  Q 83.88 86.27 83.89 85.69
  Q 83.91 83.94 83.11 82.70" stroke="#b2447c"></path>
<path d="M 83.11 82.70
  L 82.22 58.78" stroke="#d49297"></path>
<path d="M 110.94 97.75
  L 109.53 114.10" stroke="#ca8087"></path>
<path d="M 109.53 114.10
  L 109.28 115.89" stroke="#cc7986"></path>
<path d="M 109.28 115.89
  Q 107.63 116.14 106.87 115.51
  Q 106.50 115.20 106.04 115.08
  Q 105.30 114.89 104.84 115.42
  Q 104.50 115.82 104.12 115.45
  Q 103.04 114.38 101.36 115.07
  A 0.94 0.87 -79.0 0 0 101.03 115.31
  Q 100.42 116.07 99.58 116.61
  Q 98.93 117.03 99.11 116.28
  Q 99.24 115.74 98.88 115.38
  Q 98.50 115.01 98.12 115.38
  L 97.89 115.62
  Q 97.55 115.95 97.09 115.89
  Q 95.96 115.72 95.89 116.73
  A 0.34 0.34 0.0 0 1 95.29 116.92
  Q 94.20 115.59 92.78 116.45
  Q 92.39 116.68 92.06 116.39
  Q 91.10 115.56 89.97 116.52
  Q 89.90 116.57 89.87 116.50
  Q 89.80 116.36 89.73 116.23
  Q 89.60 115.95 89.36 116.15
  Q 88.48 116.89 87.64 116.36
  Q 87.18 116.07 86.97 116.57
  Q 86.75 117.09 86.89 117.60
  Q 86.91 117.69 86.91 117.60
  Q 86.89 115.43 86.04 114.88" stroke="#a34b89"></path>
<path d="M 86.04 114.88
  Q 85.80 114.71 85.78 114.03" stroke="#cb7d87"></path>
<path d="M 85.78 114.03
  L 84.59 102.97" stroke="#ca8487"></path>
<path d="M 84.59 102.97
  L 83.06 83.61" stroke="#c98b89"></path>
<path d="M 84.59 102.97
  L 79.82 104.16
  Q 79.34 104.28 79.06 104.70
  Q 78.73 105.22 78.12 105.16
  Q 77.67 105.11 77.27 105.34
  L 76.51 105.78
  Q 76.23 105.95 75.90 105.89
  Q 74.56 105.66 73.63 106.64
  A 0.85 0.85 0.0 0 1 72.81 106.88
  Q 71.83 106.61 71.61 107.47
  Q 71.54 107.77 71.25 107.88
  Q 71.02 107.96 71.14 107.67
  A 0.23 0.23 0.0 0 0 70.86 107.36
  L 64.15 109.33
  Q 63.82 109.42 63.89 109.76
  Q 63.92 109.94 63.84 110.13
  Q 63.71 110.44 63.38 110.40
  Q 63.11 110.37 62.93 110.22
  Q 62.53 109.87 62.03 110.02
  L 57.76 111.28
  Q 57.72 111.29 57.70 111.34
  Q 57.67 111.39 57.66 111.43
  Q 57.65 111.44 57.46 111.50
  L 39.33 117.17
  Q 39.07 117.25 38.84 117.10
  Q 38.70 117.01 38.54 117.01
  Q 38.30 117.01 38.07 117.30
  Q 37.97 117.44 37.87 117.58
  Q 37.65 117.89 37.27 117.88
  Q 35.97 117.86 34.90 118.57
  Q 34.51 118.83 34.04 118.87
  Q 33.90 118.88 33.76 118.90
  Q 33.76 118.90 33.03 119.46
  Q 31.41 120.72 29.49 119.82
  A 0.23 0.22 -68.5 0 0 29.18 119.96
  Q 28.78 121.12 27.52 121.36
  Q 27.05 121.45 26.65 121.70
  Q 25.49 122.42 24.05 122.24" stroke="#e5c88f"></path>
<path d="M 146.36 86.50
  Q 143.74 87.81 141.05 87.77
  Q 140.59 87.77 140.32 88.13
  Q 139.82 88.81 139.05 88.51
  Q 138.56 88.33 138.10 88.56
  L 135.56 89.85
  Q 135.42 89.93 135.30 89.81
  L 135.03 89.56
  Q 134.66 89.22 134.20 89.41
  L 130.15 91.06
  Q 130.08 91.10 130.05 91.18
  Q 129.97 91.37 129.90 91.55
  Q 129.76 91.92 129.39 91.78
  Q 128.05 91.30 127.13 92.41
  Q 126.85 92.76 126.40 92.81
  Q 121.97 93.31 120.64 93.92
  Q 117.34 95.45 115.68 95.69
  A 1.20 0.20 -34.2 0 0 115.00 96.00
  Q 114.75 96.14 114.87 96.42
  A 0.35 0.35 0.0 0 1 114.41 96.87
  Q 113.78 96.59 113.23 97.17
  Q 112.94 97.48 112.52 97.40
  Q 111.85 97.27 110.94 97.75" stroke="#e6c58f"></path>
<path d="M 110.94 97.75
  L 111.62 85.53" stroke="#c98b89"></path>
<path d="M 145.15 54.63
  L 145.33 61.00" stroke="#d49297"></path>
<path d="M 145.33 61.00
  Q 143.78 61.87 142.27 62.09
  Q 141.81 62.16 141.43 62.42
  Q 139.89 63.49 137.97 63.35
  Q 137.48 63.31 137.12 63.65
  Q 136.35 64.37 135.29 64.11
  Q 134.79 63.99 134.42 64.36
  Q 133.45 65.33 132.05 65.37
  Q 131.59 65.38 131.20 65.63
  Q 129.70 66.59 127.90 66.35
  Q 127.49 66.29 127.19 66.56
  C 125.18 68.40 122.96 67.80 120.56 68.92
  Q 120.12 69.13 119.62 69.15
  Q 118.70 69.18 117.94 69.71
  A 1.70 1.05 -58.3 0 1 117.68 69.84
  L 112.09 71.78" stroke="#ead9a4"></path>
<path d="M 85.78 114.03
  Q 85.60 114.03 85.48 113.98
  Q 85.24 113.88 85.00 113.95
  L 52.66 124.14
  A 1.15 1.12 10.7 0 0 52.10 124.51
  Q 51.68 125.01 51.11 124.82
  Q 50.75 124.71 50.39 124.82
  Q 48.06 125.56 45.76 126.32
  C 44.22 126.82 42.14 126.93 40.41 127.77
  Q 39.98 127.99 39.50 128.01
  Q 38.28 128.07 37.43 128.93
  Q 37.29 129.08 36.50 129.24
  Q 36.14 129.32 35.81 129.17
  Q 35.24 128.91 34.92 129.44
  Q 34.34 130.39 33.22 130.25
  Q 32.66 130.18 32.67 129.61
  Q 32.67 129.38 32.51 129.25
  Q 32.08 128.88 32.10 129.24
  Q 32.11 129.38 32.11 129.52
  Q 32.10 129.92 31.75 130.11
  Q 28.76 131.74 25.60 132.14" stroke="#e7bb8d"></path>
<path d="M 148.77 113.22
  Q 145.10 114.93 140.70 116.18
  C 139.83 116.43 138.90 116.17 137.99 116.74
  Q 137.54 117.03 137.02 117.11
  Q 134.76 117.46 132.89 118.75
  A 0.07 0.04 -58.3 0 1 132.85 118.77
  L 128.09 120.02
  Q 127.95 120.06 128.04 120.18
  Q 128.15 120.30 128.11 120.54
  Q 128.10 120.58 128.07 120.57
  Q 125.86 120.21 124.03 121.42
  Q 123.66 121.68 123.21 121.75
  L 119.86 122.29
  Q 119.36 122.38 119.01 122.74
  Q 118.53 123.24 117.84 123.12
  Q 117.45 123.05 117.16 123.33
  C 116.84 123.64 116.61 123.84 116.14 123.96
  Q 112.36 124.94 108.10 126.03" stroke="#eca38c"></path>
<path d="M 108.10 126.03
  L 109.28 115.89" stroke="#c27e8f"></path>
<path d="M 104.16 149.00
  L 100.99 162.02" stroke="#c6698e"></path>
<path d="M 100.99 162.02
  L 98.90 168.89
  Q 98.24 171.03 97.53 168.91
  L 95.59 163.12" stroke="#c85f8e"></path>
<path d="M 95.59 163.12
  L 92.92 153.76" stroke="#c6698e"></path>
<path d="M 92.92 153.76
  L 90.58 143.37" stroke="#c46f8f"></path>
<path d="M 90.58 143.37
  L 88.71 133.94" stroke="#c3748f"></path>
<path d="M 88.71 133.94
  L 87.10 123.38" stroke="#c27e8f"></path>
<path d="M 86.04 114.88
  L 87.10 123.38" stroke="#c18290"></path>
<path d="M 87.10 123.38
  Q 86.58 125.29 85.04 125.39
  C 83.00 125.54 81.31 126.03 79.42 126.77
  Q 77.59 127.50 75.43 127.96
  Q 73.17 128.44 71.02 129.38
  Q 70.92 129.43 70.85 129.35
  L 70.65 129.15
  Q 70.36 128.86 70.17 129.23
  L 69.96 129.61
  Q 69.81 129.88 69.50 129.94
  Q 65.54 130.71 63.48 132.45
  Q 62.28 133.46 61.14 132.91
  Q 60.71 132.70 60.25 132.84
  L 49.82 135.96
  Q 49.37 136.10 49.08 136.48
  Q 48.70 136.99 48.08 136.74
  A 1.05 1.01 44.4 0 0 47.31 136.73
  Q 45.49 137.44 43.62 137.93
  C 42.30 138.27 40.87 139.29 38.93 138.90
  Q 38.50 138.82 38.28 138.93
  Q 37.93 139.12 37.82 139.57
  Q 37.70 140.05 37.23 139.92
  Q 35.57 139.48 34.58 140.65
  A 0.83 0.81 28.6 0 1 33.70 140.90
  Q 32.43 140.49 31.79 141.51
  Q 31.56 141.86 31.14 141.85
  Q 29.33 141.79 27.57 143.01" stroke="#e9b08d"></path>
<path d="M 147.59 102.10
  Q 145.17 103.00 143.01 104.05
  C 140.87 105.09 138.83 105.39 136.59 105.89
  Q 136.43 105.93 136.31 105.81
  Q 136.18 105.69 136.04 105.57
  Q 135.80 105.35 135.49 105.45
  L 133.07 106.29
  Q 132.76 106.39 132.67 106.70
  Q 132.60 106.94 132.66 107.27
  Q 132.76 107.92 132.07 107.27
  Q 131.71 106.92 131.20 106.87
  Q 130.86 106.84 130.34 107.11
  Q 129.26 107.69 128.06 107.98
  Q 127.88 108.02 127.88 108.21
  Q 127.88 108.37 127.88 108.55
  Q 127.87 108.94 127.48 108.97
  Q 125.25 109.18 123.73 110.63
  Q 123.42 110.92 123.12 110.62
  L 122.86 110.37
  Q 122.44 109.94 122.08 110.43
  Q 121.61 111.09 120.76 110.86
  Q 120.47 110.79 120.25 111.00
  L 119.91 111.34
  Q 119.56 111.69 119.07 111.74
  L 115.75 112.07
  Q 115.10 112.13 114.96 112.76
  Q 114.86 113.21 114.49 113.52
  Q 114.22 113.74 114.09 113.42
  Q 114.04 113.29 113.94 113.18
  Q 113.60 112.81 113.23 113.15
  Q 111.85 114.44 109.53 114.10" stroke="#e9b38d"></path>
<path d="M 175.12 54.62
  L 174.93 79.69" stroke="#ce8985"></path>
<path d="M 174.93 79.69
  L 174.51 86.70" stroke="#cf7e83"></path>
<path d="M 174.51 86.70
  Q 173.72 86.01 173.01 85.91
  Q 172.49 85.84 172.18 86.26
  Q 171.49 87.22 170.40 86.86
  Q 170.19 86.79 170.11 86.58
  L 170.00 86.26
  Q 169.93 86.08 169.74 86.08
  L 164.20 86.10
  Q 163.92 86.10 163.65 86.04
  Q 162.92 85.89 162.88 85.45
  A 0.35 0.35 0.0 0 0 162.53 85.12
  L 157.72 85.18
  Q 157.38 85.18 157.20 85.45
  Q 156.68 86.21 155.71 86.13
  Q 155.51 86.11 155.33 86.00
  Q 155.18 85.90 155.04 85.78
  Q 154.73 85.53 154.33 85.57
  Q 152.54 85.78 150.94 86.55
  Q 150.54 86.74 150.21 86.43
  Q 149.68 85.94 149.08 86.08
  Q 148.55 86.21 148.14 85.86
  Q 147.90 85.65 147.88 85.38
  A 0.34 0.34 0.0 0 0 147.30 85.16
  Q 146.72 85.73 146.92 86.62
  Q 146.92 86.64 146.91 86.64
  Q 146.90 86.64 146.90 86.64
  Q 146.87 86.63 146.87 86.63
  L 146.67 85.75
  Q 146.60 85.39 146.57 85.76
  Q 146.54 86.14 146.41 86.47" stroke="#b2447c"></path>
<path d="M 146.41 86.47
  Q 146.39 86.48 146.36 86.50" stroke="#cf7e83"></path>
<path d="M 146.36 86.50
  L 145.33 61.00" stroke="#ce8985"></path>
<path d="M 172.25 116.39
  Q 170.66 116.98 169.15 116.96
  Q 169.02 116.96 168.94 117.06
  Q 168.84 117.19 168.67 117.28
  Q 168.37 117.46 168.05 117.30
  Q 167.37 116.99 166.80 117.50
  Q 166.44 117.82 166.11 117.46
  Q 165.63 116.93 164.51 117.69
  A 0.23 0.23 0.0 0 1 164.17 117.59
  Q 163.83 116.81 163.06 116.81
  C 162.16 116.81 161.24 117.91 160.25 117.90
  Q 155.02 117.87 149.47 118.25" stroke="#a34b89"></path>
<path d="M 149.47 118.25
  L 148.77 113.22" stroke="#cd7086"></path>
<path d="M 148.77 113.22
  L 147.59 102.10" stroke="#cc7986"></path>
<path d="M 147.59 102.10
  L 146.41 86.47" stroke="#ca8087"></path>
<path d="M 149.47 118.25
  L 152.12 135.63" stroke="#c3748f"></path>
<path d="M 152.12 135.63
  L 133.74 141.11
  Q 133.31 141.24 132.89 141.07
  Q 132.06 140.73 131.48 141.33
  Q 130.70 142.14 130.56 142.21
  Q 129.79 142.55 128.96 142.20
  Q 128.55 142.02 128.20 142.29
  Q 128.04 142.40 127.96 142.59
  Q 127.80 142.96 127.43 143.12
  Q 124.30 144.43 121.01 145.08
  Q 120.52 145.18 120.11 145.46
  Q 119.44 145.93 118.64 145.90
  Q 118.15 145.89 117.69 146.04
  L 113.77 147.30
  Q 113.73 147.31 113.72 147.33
  Q 113.72 147.40 113.74 147.46
  Q 113.79 147.62 113.75 147.62
  L 111.12 147.97
  Q 110.99 147.98 110.91 148.10
  L 110.62 148.52
  Q 110.52 148.66 110.38 148.58
  Q 110.19 148.47 109.99 148.37
  Q 109.89 148.33 109.80 148.38
  Q 107.23 149.97 104.16 149.00" stroke="#f08e8b"></path>
<path d="M 104.16 149.00
  L 108.10 126.03" stroke="#c3748f"></path>
<path d="M 91.03 186.96
  Q 90.83 186.72 90.77 186.46
  Q 90.73 186.29 90.56 186.28
  Q 89.93 186.21 89.78 186.62
  A 0.37 0.37 0.0 0 1 89.50 186.86
  Q 89.22 186.90 88.97 186.84
  Q 88.51 186.71 88.05 186.84
  L 85.52 187.53
  Q 85.15 187.63 84.82 187.82
  C 83.31 188.68 81.59 188.37 79.97 189.50
  Q 79.54 189.80 79.01 189.84
  L 74.74 190.16
  Q 74.34 190.19 74.15 190.55
  Q 73.65 191.51 72.42 191.06
  Q 72.12 190.94 72.12 191.27
  L 72.12 191.69
  Q 72.12 192.21 71.61 192.11
  Q 70.44 191.90 69.73 192.79
  Q 69.43 193.17 68.95 193.15
  Q 67.80 193.10 66.89 193.75
  Q 66.50 194.02 66.03 194.14
  Q 63.19 194.82 60.35 195.48
  Q 60.22 195.51 59.50 196.00
  Q 59.31 196.13 59.19 196.31
  Q 58.89 196.79 58.32 196.85
  L 55.03 197.15
  Q 54.53 197.20 54.22 197.59
  Q 53.52 198.48 51.31 198.34" stroke="#f95e88"></path>
<path d="M 39.88 182.04
  L 54.28 177.25
  Q 54.73 177.10 54.99 176.70
  C 56.16 174.86 57.81 175.45 59.24 175.07
  Q 61.52 174.47 63.66 173.44
  Q 63.89 173.33 63.87 173.58
  Q 63.86 173.75 63.93 173.89
  Q 64.12 174.25 64.51 174.13
  L 90.57 165.79
  Q 90.72 165.74 90.85 165.63
  Q 90.95 165.55 91.06 165.47
  Q 91.46 165.20 91.93 165.27
  Q 94.21 165.62 95.59 163.12" stroke="#f4798a"></path>
<path d="M 88.71 133.94
  Q 87.56 134.17 87.37 135.04
  Q 87.36 135.08 87.36 135.02
  Q 87.35 134.98 87.34 134.94
  Q 87.30 134.83 87.03 134.85
  Q 83.92 135.09 81.12 136.43
  Q 80.73 136.62 80.30 136.62
  C 78.83 136.61 77.42 137.53 76.47 137.80
  C 73.09 138.76 69.53 139.57 66.35 141.07
  Q 65.23 141.60 63.76 141.86
  Q 60.68 142.40 54.68 144.55
  Q 53.63 144.92 52.54 145.26
  Q 52.16 145.37 51.87 145.66
  Q 51.50 146.04 50.88 145.88
  Q 50.44 145.77 50.03 145.97
  Q 48.69 146.64 47.24 146.96
  C 44.49 147.57 42.70 148.79 39.50 148.87
  Q 39.01 148.88 38.63 149.18
  C 36.38 150.99 33.70 148.39 31.85 151.73
  Q 31.60 152.20 31.07 152.14
  L 29.58 151.97" stroke="#eca38c"></path>
<path d="M 154.19 145.98
  L 125.43 155.10
  Q 124.98 155.25 124.52 155.15
  Q 123.65 154.97 123.07 155.72
  Q 122.80 156.06 122.37 156.12
  L 119.46 156.52
  Q 119.21 156.55 119.12 156.78
  Q 119.03 156.99 118.74 157.08
  Q 116.01 157.89 113.38 158.95
  Q 112.92 159.14 112.42 159.11
  Q 111.10 159.03 110.02 159.75
  Q 109.63 160.01 109.18 160.11
  L 100.99 162.02" stroke="#f4798a"></path>
<path d="M 92.92 153.76
  L 77.07 158.91
  A 1.32 1.25 -42.7 0 1 76.23 158.90
  Q 75.62 158.69 75.35 158.98
  A 2.54 2.35 9.8 0 1 74.50 159.53
  L 71.83 160.53
  Q 71.39 160.70 70.92 160.73
  Q 69.72 160.83 68.77 161.60
  Q 68.35 161.94 67.81 161.95
  Q 66.81 161.97 65.94 162.48
  Q 65.70 162.62 65.25 162.69
  Q 65.07 162.72 64.94 162.65
  Q 64.57 162.45 64.25 162.74
  Q 63.86 163.10 63.90 163.62
  A 0.32 0.32 0.0 0 1 63.39 163.90
  L 63.11 163.69
  Q 62.75 163.43 62.33 163.57
  L 53.04 166.66
  Q 52.65 166.78 52.25 166.77
  C 50.79 166.73 47.46 167.89 46.37 168.88
  Q 46.11 169.11 46.11 168.77
  Q 46.11 168.62 46.10 168.47
  A 0.30 0.29 77.0 0 0 45.68 168.20
  Q 44.74 168.67 43.99 169.38
  Q 43.66 169.70 43.22 169.78
  L 42.01 170.01
  Q 41.10 170.18 41.77 169.77
  Q 41.99 169.63 41.86 169.36
  A 0.37 0.37 0.0 0 0 41.21 169.32
  Q 40.61 170.33 39.31 170.66
  Q 38.91 170.76 38.50 170.83
  Q 37.60 170.98 36.87 171.43
  Q 36.63 171.58 36.35 171.50
  Q 36.18 171.45 36.01 171.49
  Q 35.76 171.56 35.61 171.98" stroke="#f1898b"></path>
<path d="M 90.58 143.37
  Q 89.19 144.78 86.95 145.19
  Q 83.52 145.81 83.11 145.94
  Q 75.68 148.26 68.28 150.72
  Q 66.72 151.24 65.23 151.92
  A 2.32 2.27 -55.9 0 1 64.25 152.12
  Q 62.92 152.07 61.88 152.85
  Q 61.52 153.12 61.08 153.11
  Q 59.94 153.10 59.02 153.75
  Q 58.62 154.04 58.13 154.12
  Q 55.78 154.50 53.73 155.69
  Q 53.72 155.70 53.67 155.61
  Q 53.65 155.57 53.64 155.54
  Q 53.60 155.39 53.48 155.43
  Q 51.57 155.99 49.71 156.72
  C 48.38 157.23 46.94 157.10 45.53 157.88
  A 1.48 1.44 -57.9 0 1 44.74 158.07
  Q 42.21 157.95 40.78 159.87
  A 0.81 0.81 0.0 0 1 39.95 160.17
  Q 38.23 159.75 36.86 160.57
  Q 36.37 160.87 35.80 160.87
  L 35.02 160.87
  A 0.91 0.91 0.0 0 0 34.20 161.38
  Q 33.67 162.44 32.41 162.33" stroke="#ee948b"></path>
<path d="M 227.98 63.92
  Q 226.20 63.84 224.43 63.89
  Q 224.21 63.89 224.09 63.98
  Q 223.89 64.13 223.85 64.35
  Q 223.79 64.72 223.49 64.94
  Q 221.91 66.06 219.92 66.05
  Q 219.43 66.05 219.06 66.38
  Q 218.49 66.89 217.74 66.90
  Q 217.24 66.91 216.77 67.10
  L 213.90 68.29
  Q 213.38 68.50 213.07 68.99
  Q 212.54 69.81 211.48 69.80
  Q 210.70 69.79 210.11 70.31
  Q 209.84 70.55 209.49 70.63
  L 205.28 71.63
  A 0.84 0.84 0.0 0 0 204.66 72.21
  Q 204.42 72.95 203.51 72.50
  A 1.32 1.30 46.7 0 0 202.46 72.46
  Q 195.02 75.42 187.02 77.08
  Q 185.45 77.40 184.68 78.84
  Q 184.65 78.90 184.60 78.85
  L 184.42 78.67
  Q 184.36 78.61 184.27 78.62
  C 182.49 78.84 181.12 78.80 179.48 79.82
  Q 175.51 82.30 174.93 79.69" stroke="#e6c58f"></path>
<path d="M 234.62 73.26
  Q 233.57 74.02 232.20 73.97
  A 1.44 1.39 25.0 0 0 231.27 74.29
  Q 230.21 75.18 228.83 75.56
  Q 228.40 75.68 227.99 75.49
  Q 227.50 75.26 227.02 75.22
  Q 226.56 75.17 225.62 75.68
  Q 224.88 76.08 223.95 76.11
  Q 223.51 76.13 223.21 76.46
  Q 222.55 77.19 220.99 77.08
  Q 218.45 76.89 216.54 79.13
  Q 216.22 79.51 215.74 79.61
  Q 213.55 80.11 211.46 81.02
  Q 211.13 81.16 210.90 81.44
  Q 210.70 81.69 210.54 81.96
  Q 210.29 82.36 209.91 82.10
  Q 209.61 81.89 209.22 81.86
  Q 208.89 81.84 208.35 82.19
  Q 207.40 82.82 206.23 82.63
  A 1.46 1.45 33.8 0 0 205.26 82.82
  Q 203.36 83.94 201.18 84.13
  Q 200.65 84.17 200.41 84.36
  Q 199.97 84.69 200.10 85.21
  Q 200.13 85.30 200.14 85.21
  Q 200.16 85.07 200.09 84.95
  Q 200.03 84.83 199.89 84.84
  Q 196.91 85.03 194.29 86.32
  Q 193.06 86.93 192.10 87.02
  Q 190.93 87.14 189.75 87.15
  Q 187.84 87.16 186.37 87.74
  Q 183.47 88.88 180.58 90.03
  Q 180.12 90.21 179.63 90.19
  Q 178.96 90.15 177.86 90.63
  Q 174.40 92.14 174.40 90.62" stroke="#e9b38d"></path>
<path d="M 174.40 90.62
  L 174.51 86.70" stroke="#ca8087"></path>
<path d="M 236.35 105.50
  Q 235.97 105.05 235.41 105.65
  Q 235.10 105.98 234.66 105.89
  Q 233.68 105.69 232.91 106.29
  Q 232.57 106.55 232.16 106.67
  Q 230.89 107.03 229.57 106.88
  Q 229.07 106.83 228.89 107.28
  Q 228.62 107.95 227.92 107.90
  A 1.15 1.13 25.8 0 0 227.13 108.17
  Q 226.34 108.84 225.26 108.88
  A 1.66 1.61 23.8 0 0 224.29 109.24
  Q 223.62 109.77 222.77 109.64
  A 1.94 1.90 -51.5 0 0 221.74 109.77
  Q 220.65 110.25 218.00 111.14
  C 207.65 114.62 197.18 117.75 186.79 121.12
  C 184.86 121.75 182.62 122.18 180.53 122.84
  Q 178.28 123.55 175.87 124.14
  Q 173.51 124.71 171.16 125.57" stroke="#f08e8b"></path>
<path d="M 171.16 125.57
  L 172.25 116.39" stroke="#c3748f"></path>
<path d="M 172.25 116.39
  L 173.56 102.79" stroke="#cd7086"></path>
<path d="M 168.37 143.09
  L 163.71 163.04" stroke="#c85f8e"></path>
<path d="M 163.71 163.04
  L 161.88 168.91
  Q 161.25 170.93 160.55 168.93
  L 159.23 165.19" stroke="#cb4e8d"></path>
<path d="M 159.23 165.19
  L 154.19 145.98" stroke="#c85f8e"></path>
<path d="M 154.19 145.98
  L 152.12 135.63" stroke="#c6698e"></path>
<path d="M 237.60 84.40
  L 234.31 84.77
  Q 233.81 84.83 233.42 85.16
  Q 232.09 86.29 230.30 85.82
  A 0.76 0.76 0.0 0 0 229.57 86.02
  Q 228.50 87.10 226.89 87.12
  Q 226.50 87.13 226.18 87.35
  Q 224.73 88.37 222.90 88.07
  A 0.76 0.75 18.2 0 0 222.12 88.46
  Q 221.57 89.48 220.26 89.09
  A 0.81 0.81 0.0 0 0 219.39 89.36
  C 218.57 90.39 217.33 90.10 216.46 90.39
  Q 212.96 91.60 209.48 92.83
  Q 206.49 93.88 202.41 95.01
  C 198.35 96.14 194.45 97.58 190.29 98.61
  C 187.06 99.41 184.41 101.20 181.43 101.52
  Q 180.99 101.57 180.63 101.83
  Q 179.81 102.42 178.95 101.76
  Q 178.60 101.49 178.17 101.60
  L 173.56 102.79" stroke="#eca38c"></path>
<path d="M 173.56 102.79
  L 174.40 90.62" stroke="#cc7986"></path>
<path d="M 103.67 183.25
  Q 104.26 181.91 105.44 182.31
  Q 105.91 182.47 106.33 182.20
  Q 106.96 181.80 107.68 182.11
  Q 108.17 182.33 108.54 181.95
  L 109.14 181.36
  Q 109.44 181.05 109.86 181.13
  Q 110.63 181.26 111.09 180.64
  Q 111.11 180.61 111.14 180.63
  L 111.51 181.00
  A 0.36 0.36 0.0 0 0 112.12 180.75
  Q 112.12 180.61 112.12 180.46
  Q 112.14 180.04 112.55 180.12
  Q 113.62 180.32 114.21 179.54
  A 1.07 1.05 19.1 0 1 115.10 179.12
  Q 116.91 179.21 118.51 178.36
  Q 118.93 178.13 119.41 178.14
  Q 121.80 178.16 123.37 176.41
  Q 123.58 176.17 123.83 176.36
  Q 124.01 176.49 124.24 176.49
  A 2.22 0.58 5.4 0 0 125.77 176.24
  Q 126.33 175.84 127.03 175.68
  Q 127.44 175.58 127.76 175.85
  Q 128.33 176.33 128.76 175.99
  A 0.14 0.14 0.0 0 0 128.73 175.75
  Q 128.61 175.69 128.47 175.66
  A 0.26 0.26 0.0 0 1 128.47 175.16
  Q 135.87 173.15 142.99 170.30
  Q 143.04 170.28 143.08 170.32
  Q 143.18 170.42 143.28 170.53
  Q 143.46 170.71 143.69 170.62
  L 159.23 165.19" stroke="#f95e88"></path>
<path d="M 234.45 123.22
  Q 234.29 123.43 234.14 123.51
  A 0.32 0.31 72.7 0 1 233.67 123.26
  L 233.64 122.92
  A 0.25 0.25 0.0 0 0 233.28 122.72
  L 231.89 123.39
  Q 231.42 123.62 230.93 123.43
  Q 230.33 123.20 229.96 123.75
  Q 229.67 124.17 229.17 124.17
  Q 226.44 124.16 224.76 125.36
  Q 223.63 126.17 222.68 126.22
  Q 222.22 126.25 221.94 126.60
  Q 221.56 127.06 221.02 126.92
  Q 220.50 126.78 219.99 126.95
  L 192.97 135.58
  Q 192.87 135.62 192.80 135.54
  Q 192.62 135.36 192.40 135.20
  A 0.05 0.04 8.6 0 0 192.33 135.25
  Q 192.58 135.91 192.01 135.97
  C 190.17 136.17 188.19 137.11 187.00 137.47
  Q 177.95 140.19 168.37 143.09" stroke="#f4798a"></path>
<path d="M 168.37 143.09
  L 171.16 125.57" stroke="#c6698e"></path>
<path d="M 231.66 140.95
  Q 228.49 140.82 227.50 141.41
  Q 225.99 142.30 224.20 142.39
  A 0.39 0.30 -52.0 0 0 224.04 142.43
  L 220.26 144.27
  Q 220.08 144.35 220.07 144.55
  Q 220.07 144.71 219.96 144.83
  Q 219.83 144.98 219.46 145.05
  Q 218.65 145.20 217.96 145.64
  A 1.59 1.57 -58.2 0 1 217.01 145.87
  C 215.58 145.74 215.20 146.58 214.10 146.94
  Q 213.45 147.15 212.81 147.34
  Q 198.44 151.59 184.19 156.26
  C 182.50 156.81 180.28 157.26 178.35 157.98
  C 174.66 159.37 171.00 159.94 167.37 161.30
  Q 166.90 161.47 166.41 161.37
  Q 165.55 161.19 165.04 161.81
  A 2.73 0.64 -59.8 0 1 164.54 162.34
  L 163.71 163.04" stroke="#f95e88"></path>
</g>
<path d="M 0.00 0.00
  L 256.00 0.00
  L 256.00 256.00
  L 0.00 256.00
  L 0.00 0.00
  Z
  M 22.01 76.54
  C 19.63 84.51 20.53 92.83 21.72 102.08
  L 24.05 122.24
  L 25.60 132.14
  L 27.57 143.01
  L 29.58 151.97
  L 32.41 162.33
  L 35.61 171.98
  L 39.88 182.04
  Q 44.49 191.79 51.31 198.34
  C 66.74 211.80 83.02 202.51 91.03 186.96
  Q 95.16 179.68 97.82 171.82
  Q 98.16 170.83 98.58 171.78
  L 103.67 183.25
  C 108.79 194.11 118.43 205.49 131.97 204.40
  C 147.19 203.17 156.30 184.64 160.73 171.84
  Q 161.21 170.47 161.68 171.85
  C 166.44 185.74 177.00 205.54 194.68 204.42
  C 218.51 202.91 228.71 159.49 231.66 140.95
  L 234.45 123.22
  L 236.35 105.50
  L 237.60 84.40
  Q 237.16 78.58 234.62 73.26
  Q 232.21 67.96 227.98 63.92
  Q 217.94 54.55 204.00 54.58
  Q 189.72 54.62 175.12 54.62
  L 145.15 54.63
  L 112.14 54.63
  L 82.19 54.67
  Q 69.73 54.55 57.25 54.68
  Q 47.81 54.77 42.92 56.32
  Q 28.14 60.97 22.01 76.54
  Z" fill="#000000"></path>
<path d="M 82.19 54.67
  L 82.22 58.78
  Q 82.12 58.91 82.09 59.10
  A 0.25 0.25 0.0 0 1 81.79 59.30
  Q 79.03 58.69 76.85 60.36
  Q 76.44 60.68 75.97 60.46
  Q 75.33 60.17 74.86 60.75
  Q 74.53 61.16 74.00 61.12
  Q 72.79 61.01 71.88 61.81
  A 1.27 1.25 -63.5 0 1 70.98 62.12
  Q 69.75 62.05 68.81 62.82
  Q 68.46 63.11 68.00 63.11
  C 66.47 63.12 65.02 63.96 64.00 64.25
  Q 61.00 65.12 57.97 65.97
  A 1.21 0.12 -40.5 0 0 57.18 66.52
  Q 56.85 66.80 56.43 66.83
  Q 55.64 66.90 55.57 66.92
  Q 49.50 68.44 43.56 70.44
  Q 39.61 71.78 35.63 73.10
  Q 35.24 73.23 34.97 73.54
  Q 34.61 73.97 34.04 73.89
  Q 33.58 73.82 33.27 74.17
  Q 32.62 74.91 31.94 74.50
  Q 31.43 74.19 31.08 74.68
  Q 30.70 75.21 29.98 75.13
  Q 29.48 75.08 29.11 75.41
  C 27.83 76.53 26.82 75.47 25.55 76.10
  C 24.35 76.70 23.37 76.84 22.01 76.54
  Q 28.14 60.97 42.92 56.32
  Q 47.81 54.77 57.25 54.68
  Q 69.73 54.55 82.19 54.67
  Z" fill="#fdf5db"></path>
<path d="M 112.14 54.63
  L 112.09 71.78
  L 111.62 85.53
  Q 108.79 84.69 106.40 85.59
  Q 105.88 85.79 105.88 85.23
  L 105.88 84.77
  Q 105.89 84.18 105.30 84.13
  Q 103.93 84.00 102.90 84.81
  Q 102.50 85.12 102.00 85.12
  L 100.50 85.12
  Q 99.92 85.12 99.89 84.54
  Q 99.87 84.18 99.55 84.13
  Q 99.16 84.06 99.13 84.45
  Q 99.08 84.90 98.29 85.09
  A 1.11 0.90 32.4 0 1 98.04 85.12
  Q 95.61 85.07 93.18 85.23
  Q 92.65 85.26 92.21 84.95
  Q 91.96 84.77 91.88 84.45
  A 0.39 0.39 0.0 0 0 91.11 84.46
  Q 91.05 84.77 90.76 84.99
  Q 90.23 85.39 90.00 84.77
  L 89.87 84.41
  A 0.35 0.34 -13.0 0 0 89.49 84.18
  Q 89.08 84.23 89.11 84.47
  Q 89.20 85.16 88.50 85.16
  L 84.97 85.14
  Q 84.60 85.13 84.45 85.46
  Q 84.36 85.65 84.23 85.81
  Q 83.88 86.27 83.89 85.69
  Q 83.91 83.94 83.11 82.70
  L 82.22 58.78
  L 82.19 54.67
  L 112.14 54.63
  Z" fill="#b74278"></path>
<path d="M 112.14 54.63
  L 145.15 54.63
  L 145.33 61.00
  Q 143.78 61.87 142.27 62.09
  Q 141.81 62.16 141.43 62.42
  Q 139.89 63.49 137.97 63.35
  Q 137.48 63.31 137.12 63.65
  Q 136.35 64.37 135.29 64.11
  Q 134.79 63.99 134.42 64.36
  Q 133.45 65.33 132.05 65.37
  Q 131.59 65.38 131.20 65.63
  Q 129.70 66.59 127.90 66.35
  Q 127.49 66.29 127.19 66.56
  C 125.18 68.40 122.96 67.80 120.56 68.92
  Q 120.12 69.13 119.62 69.15
  Q 118.70 69.18 117.94 69.71
  A 1.70 1.05 -58.3 0 1 117.68 69.84
  L 112.09 71.78
  L 112.14 54.63
  Z" fill="#f0e2b6"></path>
<path d="M 175.12 54.62
  L 174.93 79.69
  L 174.51 86.70
  Q 173.72 86.01 173.01 85.91
  Q 172.49 85.84 172.18 86.26
  Q 171.49 87.22 170.40 86.86
  Q 170.19 86.79 170.11 86.58
  L 170.00 86.26
  Q 169.93 86.08 169.74 86.08
  L 164.20 86.10
  Q 163.92 86.10 163.65 86.04
  Q 162.92 85.89 162.88 85.45
  A 0.35 0.35 0.0 0 0 162.53 85.12
  L 157.72 85.18
  Q 157.38 85.18 157.20 85.45
  Q 156.68 86.21 155.71 86.13
  Q 155.51 86.11 155.33 86.00
  Q 155.18 85.90 155.04 85.78
  Q 154.73 85.53 154.33 85.57
  Q 152.54 85.78 150.94 86.55
  Q 150.54 86.74 150.21 86.43
  Q 149.68 85.94 149.08 86.08
  Q 148.55 86.21 148.14 85.86
  Q 147.90 85.65 147.88 85.38
  A 0.34 0.34 0.0 0 0 147.30 85.16
  Q 146.72 85.73 146.92 86.62
  Q 146.92 86.64 146.91 86.64
  Q 146.90 86.64 146.90 86.64
  Q 146.87 86.63 146.87 86.63
  L 146.67 85.75
  Q 146.60 85.39 146.57 85.76
  Q 146.54 86.14 146.41 86.47
  Q 146.39 86.48 146.36 86.50
  L 145.33 61.00
  L 145.15 54.63
  L 175.12 54.62
  Z" fill="#b74278"></path>
<path d="M 227.98 63.92
  Q 226.20 63.84 224.43 63.89
  Q 224.21 63.89 224.09 63.98
  Q 223.89 64.13 223.85 64.35
  Q 223.79 64.72 223.49 64.94
  Q 221.91 66.06 219.92 66.05
  Q 219.43 66.05 219.06 66.38
  Q 218.49 66.89 217.74 66.90
  Q 217.24 66.91 216.77 67.10
  L 213.90 68.29
  Q 213.38 68.50 213.07 68.99
  Q 212.54 69.81 211.48 69.80
  Q 210.70 69.79 210.11 70.31
  Q 209.84 70.55 209.49 70.63
  L 205.28 71.63
  A 0.84 0.84 0.0 0 0 204.66 72.21
  Q 204.42 72.95 203.51 72.50
  A 1.32 1.30 46.7 0 0 202.46 72.46
  Q 195.02 75.42 187.02 77.08
  Q 185.45 77.40 184.68 78.84
  Q 184.65 78.90 184.60 78.85
  L 184.42 78.67
  Q 184.36 78.61 184.27 78.62
  C 182.49 78.84 181.12 78.80 179.48 79.82
  Q 175.51 82.30 174.93 79.69
  L 175.12 54.62
  Q 189.72 54.62 204.00 54.58
  Q 217.94 54.55 227.98 63.92
  Z" fill="#e4cf91"></path>
<path d="M 82.22 58.78
  L 83.11 82.70
  Q 82.96 83.24 83.06 83.61
  Q 81.23 83.87 79.86 84.69
  Q 79.45 84.94 79.11 84.60
  L 78.75 84.25
  Q 78.62 84.12 78.50 84.25
  L 78.27 84.47
  Q 77.97 84.77 77.55 84.82
  C 75.83 85.02 74.67 86.10 73.10 86.39
  Q 70.09 86.94 67.19 87.96
  Q 59.94 90.50 52.61 92.86
  Q 51.39 93.25 50.92 93.59
  A 1.30 1.26 21.8 0 1 50.46 93.78
  C 47.13 94.37 44.01 95.95 40.73 96.37
  Q 40.28 96.43 39.89 96.67
  Q 38.59 97.49 37.11 97.12
  Q 36.56 96.99 36.22 97.43
  Q 35.41 98.46 34.08 98.11
  Q 33.51 97.96 33.18 98.44
  Q 32.50 99.43 31.33 99.12
  Q 30.81 98.99 30.35 99.26
  Q 28.94 100.12 27.28 100.12
  Q 26.81 100.12 26.43 100.41
  Q 24.76 101.71 21.72 102.08
  C 20.53 92.83 19.63 84.51 22.01 76.54
  C 23.37 76.84 24.35 76.70 25.55 76.10
  C 26.82 75.47 27.83 76.53 29.11 75.41
  Q 29.48 75.08 29.98 75.13
  Q 30.70 75.21 31.08 74.68
  Q 31.43 74.19 31.94 74.50
  Q 32.62 74.91 33.27 74.17
  Q 33.58 73.82 34.04 73.89
  Q 34.61 73.97 34.97 73.54
  Q 35.24 73.23 35.63 73.10
  Q 39.61 71.78 43.56 70.44
  Q 49.50 68.44 55.57 66.92
  Q 55.64 66.90 56.43 66.83
  Q 56.85 66.80 57.18 66.52
  A 1.21 0.12 -40.5 0 1 57.97 65.97
  Q 61.00 65.12 64.00 64.25
  C 65.02 63.96 66.47 63.12 68.00 63.11
  Q 68.46 63.11 68.81 62.82
  Q 69.75 62.05 70.98 62.12
  A 1.27 1.25 -63.5 0 0 71.88 61.81
  Q 72.79 61.01 74.00 61.12
  Q 74.53 61.16 74.86 60.75
  Q 75.33 60.17 75.97 60.46
  Q 76.44 60.68 76.85 60.36
  Q 79.03 58.69 81.79 59.30
  A 0.25 0.25 0.0 0 0 82.09 59.10
  Q 82.12 58.91 82.22 58.78
  Z" fill="#f0e2b6"></path>
<path d="M 145.33 61.00
  L 146.36 86.50
  Q 143.74 87.81 141.05 87.77
  Q 140.59 87.77 140.32 88.13
  Q 139.82 88.81 139.05 88.51
  Q 138.56 88.33 138.10 88.56
  L 135.56 89.85
  Q 135.42 89.93 135.30 89.81
  L 135.03 89.56
  Q 134.66 89.22 134.20 89.41
  L 130.15 91.06
  Q 130.08 91.10 130.05 91.18
  Q 129.97 91.37 129.90 91.55
  Q 129.76 91.92 129.39 91.78
  Q 128.05 91.30 127.13 92.41
  Q 126.85 92.76 126.40 92.81
  Q 121.97 93.31 120.64 93.92
  Q 117.34 95.45 115.68 95.69
  A 1.20 0.20 -34.2 0 0 115.00 96.00
  Q 114.75 96.14 114.87 96.42
  A 0.35 0.35 0.0 0 1 114.41 96.87
  Q 113.78 96.59 113.23 97.17
  Q 112.94 97.48 112.52 97.40
  Q 111.85 97.27 110.94 97.75
  L 111.62 85.53
  L 112.09 71.78
  L 117.68 69.84
  A 1.70 1.05 -58.3 0 0 117.94 69.71
  Q 118.70 69.18 119.62 69.15
  Q 120.12 69.13 120.56 68.92
  C 122.96 67.80 125.18 68.40 127.19 66.56
  Q 127.49 66.29 127.90 66.35
  Q 129.70 66.59 131.20 65.63
  Q 131.59 65.38 132.05 65.37
  Q 133.45 65.33 134.42 64.36
  Q 134.79 63.99 135.29 64.11
  Q 136.35 64.37 137.12 63.65
  Q 137.48 63.31 137.97 63.35
  Q 139.89 63.49 141.43 62.42
  Q 141.81 62.16 142.27 62.09
  Q 143.78 61.87 145.33 61.00
  Z" fill="#e4cf91"></path>
<path d="M 227.98 63.92
  Q 232.21 67.96 234.62 73.26
  Q 233.57 74.02 232.20 73.97
  A 1.44 1.39 25.0 0 0 231.27 74.29
  Q 230.21 75.18 228.83 75.56
  Q 228.40 75.68 227.99 75.49
  Q 227.50 75.26 227.02 75.22
  Q 226.56 75.17 225.62 75.68
  Q 224.88 76.08 223.95 76.11
  Q 223.51 76.13 223.21 76.46
  Q 222.55 77.19 220.99 77.08
  Q 218.45 76.89 216.54 79.13
  Q 216.22 79.51 215.74 79.61
  Q 213.55 80.11 211.46 81.02
  Q 211.13 81.16 210.90 81.44
  Q 210.70 81.69 210.54 81.96
  Q 210.29 82.36 209.91 82.10
  Q 209.61 81.89 209.22 81.86
  Q 208.89 81.84 208.35 82.19
  Q 207.40 82.82 206.23 82.63
  A 1.46 1.45 33.8 0 0 205.26 82.82
  Q 203.36 83.94 201.18 84.13
  Q 200.65 84.17 200.41 84.36
  Q 199.97 84.69 200.10 85.21
  Q 200.13 85.30 200.14 85.21
  Q 200.16 85.07 200.09 84.95
  Q 200.03 84.83 199.89 84.84
  Q 196.91 85.03 194.29 86.32
  Q 193.06 86.93 192.10 87.02
  Q 190.93 87.14 189.75 87.15
  Q 187.84 87.16 186.37 87.74
  Q 183.47 88.88 180.58 90.03
  Q 180.12 90.21 179.63 90.19
  Q 178.96 90.15 177.86 90.63
  Q 174.40 92.14 174.40 90.62
  L 174.51 86.70
  L 174.93 79.69
  Q 175.51 82.30 179.48 79.82
  C 181.12 78.80 182.49 78.84 184.27 78.62
  Q 184.36 78.61 184.42 78.67
  L 184.60 78.85
  Q 184.65 78.90 184.68 78.84
  Q 185.45 77.40 187.02 77.08
  Q 195.02 75.42 202.46 72.46
  A 1.32 1.30 46.7 0 1 203.51 72.50
  Q 204.42 72.95 204.66 72.21
  A 0.84 0.84 0.0 0 1 205.28 71.63
  L 209.49 70.63
  Q 209.84 70.55 210.11 70.31
  Q 210.70 69.79 211.48 69.80
  Q 212.54 69.81 213.07 68.99
  Q 213.38 68.50 213.90 68.29
  L 216.77 67.10
  Q 217.24 66.91 217.74 66.90
  Q 218.49 66.89 219.06 66.38
  Q 219.43 66.05 219.92 66.05
  Q 221.91 66.06 223.49 64.94
  Q 223.79 64.72 223.85 64.35
  Q 223.89 64.13 224.09 63.98
  Q 224.21 63.89 224.43 63.89
  Q 226.20 63.84 227.98 63.92
  Z" fill="#e7ba8d"></path>
<path d="M 234.62 73.26
  Q 237.16 78.58 237.60 84.40
  L 234.31 84.77
  Q 233.81 84.83 233.42 85.16
  Q 232.09 86.29 230.30 85.82
  A 0.76 0.76 0.0 0 0 229.57 86.02
  Q 228.50 87.10 226.89 87.12
  Q 226.50 87.13 226.18 87.35
  Q 224.73 88.37 222.90 88.07
  A 0.76 0.75 18.2 0 0 222.12 88.46
  Q 221.57 89.48 220.26 89.09
  A 0.81 0.81 0.0 0 0 219.39 89.36
  C 218.57 90.39 217.33 90.10 216.46 90.39
  Q 212.96 91.60 209.48 92.83
  Q 206.49 93.88 202.41 95.01
  C 198.35 96.14 194.45 97.58 190.29 98.61
  C 187.06 99.41 184.41 101.20 181.43 101.52
  Q 180.99 101.57 180.63 101.83
  Q 179.81 102.42 178.95 101.76
  Q 178.60 101.49 178.17 101.60
  L 173.56 102.79
  L 174.40 90.62
  Q 174.40 92.14 177.86 90.63
  Q 178.96 90.15 179.63 90.19
  Q 180.12 90.21 180.58 90.03
  Q 183.47 88.88 186.37 87.74
  Q 187.84 87.16 189.75 87.15
  Q 190.93 87.14 192.10 87.02
  Q 193.06 86.93 194.29 86.32
  Q 196.91 85.03 199.89 84.84
  Q 200.03 84.83 200.09 84.95
  Q 200.16 85.07 200.14 85.21
  Q 200.13 85.30 200.10 85.21
  Q 199.97 84.69 200.41 84.36
  Q 200.65 84.17 201.18 84.13
  Q 203.36 83.94 205.26 82.82
  A 1.46 1.45 33.8 0 1 206.23 82.63
  Q 207.40 82.82 208.35 82.19
  Q 208.89 81.84 209.22 81.86
  Q 209.61 81.89 209.91 82.10
  Q 210.29 82.36 210.54 81.96
  Q 210.70 81.69 210.90 81.44
  Q 211.13 81.16 211.46 81.02
  Q 213.55 80.11 215.74 79.61
  Q 216.22 79.51 216.54 79.13
  Q 218.45 76.89 220.99 77.08
  Q 222.55 77.19 223.21 76.46
  Q 223.51 76.13 223.95 76.11
  Q 224.88 76.08 225.62 75.68
  Q 226.56 75.17 227.02 75.22
  Q 227.50 75.26 227.99 75.49
  Q 228.40 75.68 228.83 75.56
  Q 230.21 75.18 231.27 74.29
  A 1.44 1.39 25.0 0 1 232.20 73.97
  Q 233.57 74.02 234.62 73.26
  Z" fill="#eaac8c"></path>
<path d="M 83.11 82.70
  Q 83.91 83.94 83.89 85.69
  Q 83.88 86.27 84.23 85.81
  Q 84.36 85.65 84.45 85.46
  Q 84.60 85.13 84.97 85.14
  L 88.50 85.16
  Q 89.20 85.16 89.11 84.47
  Q 89.08 84.23 89.49 84.18
  A 0.35 0.34 -13.0 0 1 89.87 84.41
  L 90.00 84.77
  Q 90.23 85.39 90.76 84.99
  Q 91.05 84.77 91.11 84.46
  A 0.39 0.39 0.0 0 1 91.88 84.45
  Q 91.96 84.77 92.21 84.95
  Q 92.65 85.26 93.18 85.23
  Q 95.61 85.07 98.04 85.12
  A 1.11 0.90 32.4 0 0 98.29 85.09
  Q 99.08 84.90 99.13 84.45
  Q 99.16 84.06 99.55 84.13
  Q 99.87 84.18 99.89 84.54
  Q 99.92 85.12 100.50 85.12
  L 102.00 85.12
  Q 102.50 85.12 102.90 84.81
  Q 103.93 84.00 105.30 84.13
  Q 105.89 84.18 105.88 84.77
  L 105.88 85.23
  Q 105.88 85.79 106.40 85.59
  Q 108.79 84.69 111.62 85.53
  L 110.94 97.75
  L 109.53 114.10
  L 109.28 115.89
  Q 107.63 116.14 106.87 115.51
  Q 106.50 115.20 106.04 115.08
  Q 105.30 114.89 104.84 115.42
  Q 104.50 115.82 104.12 115.45
  Q 103.04 114.38 101.36 115.07
  A 0.94 0.87 -79.0 0 0 101.03 115.31
  Q 100.42 116.07 99.58 116.61
  Q 98.93 117.03 99.11 116.28
  Q 99.24 115.74 98.88 115.38
  Q 98.50 115.01 98.12 115.38
  L 97.89 115.62
  Q 97.55 115.95 97.09 115.89
  Q 95.96 115.72 95.89 116.73
  A 0.34 0.34 0.0 0 1 95.29 116.92
  Q 94.20 115.59 92.78 116.45
  Q 92.39 116.68 92.06 116.39
  Q 91.10 115.56 89.97 116.52
  Q 89.90 116.57 89.87 116.50
  Q 89.80 116.36 89.73 116.23
  Q 89.60 115.95 89.36 116.15
  Q 88.48 116.89 87.64 116.36
  Q 87.18 116.07 86.97 116.57
  Q 86.75 117.09 86.89 117.60
  Q 86.91 117.69 86.91 117.60
  Q 86.89 115.43 86.04 114.88
  Q 85.80 114.71 85.78 114.03
  L 84.59 102.97
  L 83.06 83.61
  Q 82.96 83.24 83.11 82.70
  Z" fill="#ad4680"></path>
<path d="M 83.06 83.61
  L 84.59 102.97
  L 79.82 104.16
  Q 79.34 104.28 79.06 104.70
  Q 78.73 105.22 78.12 105.16
  Q 77.67 105.11 77.27 105.34
  L 76.51 105.78
  Q 76.23 105.95 75.90 105.89
  Q 74.56 105.66 73.63 106.64
  A 0.85 0.85 0.0 0 1 72.81 106.88
  Q 71.83 106.61 71.61 107.47
  Q 71.54 107.77 71.25 107.88
  Q 71.02 107.96 71.14 107.67
  A 0.23 0.23 0.0 0 0 70.86 107.36
  L 64.15 109.33
  Q 63.82 109.42 63.89 109.76
  Q 63.92 109.94 63.84 110.13
  Q 63.71 110.44 63.38 110.40
  Q 63.11 110.37 62.93 110.22
  Q 62.53 109.87 62.03 110.02
  L 57.76 111.28
  Q 57.72 111.29 57.70 111.34
  Q 57.67 111.39 57.66 111.43
  Q 57.65 111.44 57.46 111.50
  L 39.33 117.17
  Q 39.07 117.25 38.84 117.10
  Q 38.70 117.01 38.54 117.01
  Q 38.30 117.01 38.07 117.30
  Q 37.97 117.44 37.87 117.58
  Q 37.65 117.89 37.27 117.88
  Q 35.97 117.86 34.90 118.57
  Q 34.51 118.83 34.04 118.87
  Q 33.90 118.88 33.76 118.90
  Q 33.76 118.90 33.03 119.46
  Q 31.41 120.72 29.49 119.82
  A 0.23 0.22 -68.5 0 0 29.18 119.96
  Q 28.78 121.12 27.52 121.36
  Q 27.05 121.45 26.65 121.70
  Q 25.49 122.42 24.05 122.24
  L 21.72 102.08
  Q 24.76 101.71 26.43 100.41
  Q 26.81 100.12 27.28 100.12
  Q 28.94 100.12 30.35 99.26
  Q 30.81 98.99 31.33 99.12
  Q 32.50 99.43 33.18 98.44
  Q 33.51 97.96 34.08 98.11
  Q 35.41 98.46 36.22 97.43
  Q 36.56 96.99 37.11 97.12
  Q 38.59 97.49 39.89 96.67
  Q 40.28 96.43 40.73 96.37
  C 44.01 95.95 47.13 94.37 50.46 93.78
  A 1.30 1.26 21.8 0 0 50.92 93.59
  Q 51.39 93.25 52.61 92.86
  Q 59.94 90.50 67.19 87.96
  Q 70.09 86.94 73.10 86.39
  C 74.67 86.10 75.83 85.02 77.55 84.82
  Q 77.97 84.77 78.27 84.47
  L 78.50 84.25
  Q 78.62 84.12 78.75 84.25
  L 79.11 84.60
  Q 79.45 84.94 79.86 84.69
  Q 81.23 83.87 83.06 83.61
  Z" fill="#e4cf91"></path>
<path d="M 237.60 84.40
  L 236.35 105.50
  Q 235.97 105.05 235.41 105.65
  Q 235.10 105.98 234.66 105.89
  Q 233.68 105.69 232.91 106.29
  Q 232.57 106.55 232.16 106.67
  Q 230.89 107.03 229.57 106.88
  Q 229.07 106.83 228.89 107.28
  Q 228.62 107.95 227.92 107.90
  A 1.15 1.13 25.8 0 0 227.13 108.17
  Q 226.34 108.84 225.26 108.88
  A 1.66 1.61 23.8 0 0 224.29 109.24
  Q 223.62 109.77 222.77 109.64
  A 1.94 1.90 -51.5 0 0 221.74 109.77
  Q 220.65 110.25 218.00 111.14
  C 207.65 114.62 197.18 117.75 186.79 121.12
  C 184.86 121.75 182.62 122.18 180.53 122.84
  Q 178.28 123.55 175.87 124.14
  Q 173.51 124.71 171.16 125.57
  L 172.25 116.39
  L 173.56 102.79
  L 178.17 101.60
  Q 178.60 101.49 178.95 101.76
  Q 179.81 102.42 180.63 101.83
  Q 180.99 101.57 181.43 101.52
  C 184.41 101.20 187.06 99.41 190.29 98.61
  C 194.45 97.58 198.35 96.14 202.41 95.01
  Q 206.49 93.88 209.48 92.83
  Q 212.96 91.60 216.46 90.39
  C 217.33 90.10 218.57 90.39 219.39 89.36
  A 0.81 0.81 0.0 0 1 220.26 89.09
  Q 221.57 89.48 222.12 88.46
  A 0.76 0.75 18.2 0 1 222.90 88.07
  Q 224.73 88.37 226.18 87.35
  Q 226.50 87.13 226.89 87.12
  Q 228.50 87.10 229.57 86.02
  A 0.76 0.76 0.0 0 1 230.30 85.82
  Q 232.09 86.29 233.42 85.16
  Q 233.81 84.83 234.31 84.77
  L 237.60 84.40
  Z" fill="#ed998b"></path>
<path d="M 174.51 86.70
  L 174.40 90.62
  L 173.56 102.79
  L 172.25 116.39
  Q 170.66 116.98 169.15 116.96
  Q 169.02 116.96 168.94 117.06
  Q 168.84 117.19 168.67 117.28
  Q 168.37 117.46 168.05 117.30
  Q 167.37 116.99 166.80 117.50
  Q 166.44 117.82 166.11 117.46
  Q 165.63 116.93 164.51 117.69
  A 0.23 0.23 0.0 0 1 164.17 117.59
  Q 163.83 116.81 163.06 116.81
  C 162.16 116.81 161.24 117.91 160.25 117.90
  Q 155.02 117.87 149.47 118.25
  L 148.77 113.22
  L 147.59 102.10
  L 146.41 86.47
  Q 146.54 86.14 146.57 85.76
  Q 146.60 85.39 146.67 85.75
  L 146.87 86.63
  Q 146.87 86.63 146.90 86.64
  Q 146.90 86.64 146.91 86.64
  Q 146.92 86.64 146.92 86.62
  Q 146.72 85.73 147.30 85.16
  A 0.34 0.34 0.0 0 1 147.88 85.38
  Q 147.90 85.65 148.14 85.86
  Q 148.55 86.21 149.08 86.08
  Q 149.68 85.94 150.21 86.43
  Q 150.54 86.74 150.94 86.55
  Q 152.54 85.78 154.33 85.57
  Q 154.73 85.53 155.04 85.78
  Q 155.18 85.90 155.33 86.00
  Q 155.51 86.11 155.71 86.13
  Q 156.68 86.21 157.20 85.45
  Q 157.38 85.18 157.72 85.18
  L 162.53 85.12
  A 0.35 0.35 0.0 0 1 162.88 85.45
  Q 162.92 85.89 163.65 86.04
  Q 163.92 86.10 164.20 86.10
  L 169.74 86.08
  Q 169.93 86.08 170.00 86.26
  L 170.11 86.58
  Q 170.19 86.79 170.40 86.86
  Q 171.49 87.22 172.18 86.26
  Q 172.49 85.84 173.01 85.91
  Q 173.72 86.01 174.51 86.70
  Z" fill="#ad4680"></path>
<path d="M 146.36 86.50
  Q 146.39 86.48 146.41 86.47
  L 147.59 102.10
  Q 145.17 103.00 143.01 104.05
  C 140.87 105.09 138.83 105.39 136.59 105.89
  Q 136.43 105.93 136.31 105.81
  Q 136.18 105.69 136.04 105.57
  Q 135.80 105.35 135.49 105.45
  L 133.07 106.29
  Q 132.76 106.39 132.67 106.70
  Q 132.60 106.94 132.66 107.27
  Q 132.76 107.92 132.07 107.27
  Q 131.71 106.92 131.20 106.87
  Q 130.86 106.84 130.34 107.11
  Q 129.26 107.69 128.06 107.98
  Q 127.88 108.02 127.88 108.21
  Q 127.88 108.37 127.88 108.55
  Q 127.87 108.94 127.48 108.97
  Q 125.25 109.18 123.73 110.63
  Q 123.42 110.92 123.12 110.62
  L 122.86 110.37
  Q 122.44 109.94 122.08 110.43
  Q 121.61 111.09 120.76 110.86
  Q 120.47 110.79 120.25 111.00
  L 119.91 111.34
  Q 119.56 111.69 119.07 111.74
  L 115.75 112.07
  Q 115.10 112.13 114.96 112.76
  Q 114.86 113.21 114.49 113.52
  Q 114.22 113.74 114.09 113.42
  Q 114.04 113.29 113.94 113.18
  Q 113.60 112.81 113.23 113.15
  Q 111.85 114.44 109.53 114.10
  L 110.94 97.75
  Q 111.85 97.27 112.52 97.40
  Q 112.94 97.48 113.23 97.17
  Q 113.78 96.59 114.41 96.87
  A 0.35 0.35 0.0 0 0 114.87 96.42
  Q 114.75 96.14 115.00 96.00
  A 1.20 0.20 -34.2 0 1 115.68 95.69
  Q 117.34 95.45 120.64 93.92
  Q 121.97 93.31 126.40 92.81
  Q 126.85 92.76 127.13 92.41
  Q 128.05 91.30 129.39 91.78
  Q 129.76 91.92 129.90 91.55
  Q 129.97 91.37 130.05 91.18
  Q 130.08 91.10 130.15 91.06
  L 134.20 89.41
  Q 134.66 89.22 135.03 89.56
  L 135.30 89.81
  Q 135.42 89.93 135.56 89.85
  L 138.10 88.56
  Q 138.56 88.33 139.05 88.51
  Q 139.82 88.81 140.32 88.13
  Q 140.59 87.77 141.05 87.77
  Q 143.74 87.81 146.36 86.50
  Z" fill="#e7ba8d"></path>
<path d="M 147.59 102.10
  L 148.77 113.22
  Q 145.10 114.93 140.70 116.18
  C 139.83 116.43 138.90 116.17 137.99 116.74
  Q 137.54 117.03 137.02 117.11
  Q 134.76 117.46 132.89 118.75
  A 0.07 0.04 -58.3 0 1 132.85 118.77
  L 128.09 120.02
  Q 127.95 120.06 128.04 120.18
  Q 128.15 120.30 128.11 120.54
  Q 128.10 120.58 128.07 120.57
  Q 125.86 120.21 124.03 121.42
  Q 123.66 121.68 123.21 121.75
  L 119.86 122.29
  Q 119.36 122.38 119.01 122.74
  Q 118.53 123.24 117.84 123.12
  Q 117.45 123.05 117.16 123.33
  C 116.84 123.64 116.61 123.84 116.14 123.96
  Q 112.36 124.94 108.10 126.03
  L 109.28 115.89
  L 109.53 114.10
  Q 111.85 114.44 113.23 113.15
  Q 113.60 112.81 113.94 113.18
  Q 114.04 113.29 114.09 113.42
  Q 114.22 113.74 114.49 113.52
  Q 114.86 113.21 114.96 112.76
  Q 115.10 112.13 115.75 112.07
  L 119.07 111.74
  Q 119.56 111.69 119.91 111.34
  L 120.25 111.00
  Q 120.47 110.79 120.76 110.86
  Q 121.61 111.09 122.08 110.43
  Q 122.44 109.94 122.86 110.37
  L 123.12 110.62
  Q 123.42 110.92 123.73 110.63
  Q 125.25 109.18 127.48 108.97
  Q 127.87 108.94 127.88 108.55
  Q 127.88 108.37 127.88 108.21
  Q 127.88 108.02 128.06 107.98
  Q 129.26 107.69 130.34 107.11
  Q 130.86 106.84 131.20 106.87
  Q 131.71 106.92 132.07 107.27
  Q 132.76 107.92 132.66 107.27
  Q 132.60 106.94 132.67 106.70
  Q 132.76 106.39 133.07 106.29
  L 135.49 105.45
  Q 135.80 105.35 136.04 105.57
  Q 136.18 105.69 136.31 105.81
  Q 136.43 105.93 136.59 105.89
  C 138.83 105.39 140.87 105.09 143.01 104.05
  Q 145.17 103.00 147.59 102.10
  Z" fill="#eaac8c"></path>
<path d="M 84.59 102.97
  L 85.78 114.03
  Q 85.60 114.03 85.48 113.98
  Q 85.24 113.88 85.00 113.95
  L 52.66 124.14
  A 1.15 1.12 10.7 0 0 52.10 124.51
  Q 51.68 125.01 51.11 124.82
  Q 50.75 124.71 50.39 124.82
  Q 48.06 125.56 45.76 126.32
  C 44.22 126.82 42.14 126.93 40.41 127.77
  Q 39.98 127.99 39.50 128.01
  Q 38.28 128.07 37.43 128.93
  Q 37.29 129.08 36.50 129.24
  Q 36.14 129.32 35.81 129.17
  Q 35.24 128.91 34.92 129.44
  Q 34.34 130.39 33.22 130.25
  Q 32.66 130.18 32.67 129.61
  Q 32.67 129.38 32.51 129.25
  Q 32.08 128.88 32.10 129.24
  Q 32.11 129.38 32.11 129.52
  Q 32.10 129.92 31.75 130.11
  Q 28.76 131.74 25.60 132.14
  L 24.05 122.24
  Q 25.49 122.42 26.65 121.70
  Q 27.05 121.45 27.52 121.36
  Q 28.78 121.12 29.18 119.96
  A 0.23 0.22 -68.5 0 1 29.49 119.82
  Q 31.41 120.72 33.03 119.46
  Q 33.76 118.90 33.76 118.90
  Q 33.90 118.88 34.04 118.87
  Q 34.51 118.83 34.90 118.57
  Q 35.97 117.86 37.27 117.88
  Q 37.65 117.89 37.87 117.58
  Q 37.97 117.44 38.07 117.30
  Q 38.30 117.01 38.54 117.01
  Q 38.70 117.01 38.84 117.10
  Q 39.07 117.25 39.33 117.17
  L 57.46 111.50
  Q 57.65 111.44 57.66 111.43
  Q 57.67 111.39 57.70 111.34
  Q 57.72 111.29 57.76 111.28
  L 62.03 110.02
  Q 62.53 109.87 62.93 110.22
  Q 63.11 110.37 63.38 110.40
  Q 63.71 110.44 63.84 110.13
  Q 63.92 109.94 63.89 109.76
  Q 63.82 109.42 64.15 109.33
  L 70.86 107.36
  A 0.23 0.23 0.0 0 1 71.14 107.67
  Q 71.02 107.96 71.25 107.88
  Q 71.54 107.77 71.61 107.47
  Q 71.83 106.61 72.81 106.88
  A 0.85 0.85 0.0 0 0 73.63 106.64
  Q 74.56 105.66 75.90 105.89
  Q 76.23 105.95 76.51 105.78
  L 77.27 105.34
  Q 77.67 105.11 78.12 105.16
  Q 78.73 105.22 79.06 104.70
  Q 79.34 104.28 79.82 104.16
  L 84.59 102.97
  Z" fill="#e6c18d"></path>
<path d="M 236.35 105.50
  L 234.45 123.22
  Q 234.29 123.43 234.14 123.51
  A 0.32 0.31 72.7 0 1 233.67 123.26
  L 233.64 122.92
  A 0.25 0.25 0.0 0 0 233.28 122.72
  L 231.89 123.39
  Q 231.42 123.62 230.93 123.43
  Q 230.33 123.20 229.96 123.75
  Q 229.67 124.17 229.17 124.17
  Q 226.44 124.16 224.76 125.36
  Q 223.63 126.17 222.68 126.22
  Q 222.22 126.25 221.94 126.60
  Q 221.56 127.06 221.02 126.92
  Q 220.50 126.78 219.99 126.95
  L 192.97 135.58
  Q 192.87 135.62 192.80 135.54
  Q 192.62 135.36 192.40 135.20
  A 0.05 0.04 8.6 0 0 192.33 135.25
  Q 192.58 135.91 192.01 135.97
  C 190.17 136.17 188.19 137.11 187.00 137.47
  Q 177.95 140.19 168.37 143.09
  L 171.16 125.57
  Q 173.51 124.71 175.87 124.14
  Q 178.28 123.55 180.53 122.84
  C 182.62 122.18 184.86 121.75 186.79 121.12
  C 197.18 117.75 207.65 114.62 218.00 111.14
  Q 220.65 110.25 221.74 109.77
  A 1.94 1.90 -51.5 0 1 222.77 109.64
  Q 223.62 109.77 224.29 109.24
  A 1.66 1.61 23.8 0 1 225.26 108.88
  Q 226.34 108.84 227.13 108.17
  A 1.15 1.13 25.8 0 1 227.92 107.90
  Q 228.62 107.95 228.89 107.28
  Q 229.07 106.83 229.57 106.88
  Q 230.89 107.03 232.16 106.67
  Q 232.57 106.55 232.91 106.29
  Q 233.68 105.69 234.66 105.89
  Q 235.10 105.98 235.41 105.65
  Q 235.97 105.05 236.35 105.50
  Z" fill="#f2828a"></path>
<path d="M 148.77 113.22
  L 149.47 118.25
  L 152.12 135.63
  L 133.74 141.11
  Q 133.31 141.24 132.89 141.07
  Q 132.06 140.73 131.48 141.33
  Q 130.70 142.14 130.56 142.21
  Q 129.79 142.55 128.96 142.20
  Q 128.55 142.02 128.20 142.29
  Q 128.04 142.40 127.96 142.59
  Q 127.80 142.96 127.43 143.12
  Q 124.30 144.43 121.01 145.08
  Q 120.52 145.18 120.11 145.46
  Q 119.44 145.93 118.64 145.90
  Q 118.15 145.89 117.69 146.04
  L 113.77 147.30
  Q 113.73 147.31 113.72 147.33
  Q 113.72 147.40 113.74 147.46
  Q 113.79 147.62 113.75 147.62
  L 111.12 147.97
  Q 110.99 147.98 110.91 148.10
  L 110.62 148.52
  Q 110.52 148.66 110.38 148.58
  Q 110.19 148.47 109.99 148.37
  Q 109.89 148.33 109.80 148.38
  Q 107.23 149.97 104.16 149.00
  L 108.10 126.03
  Q 112.36 124.94 116.14 123.96
  C 116.61 123.84 116.84 123.64 117.16 123.33
  Q 117.45 123.05 117.84 123.12
  Q 118.53 123.24 119.01 122.74
  Q 119.36 122.38 119.86 122.29
  L 123.21 121.75
  Q 123.66 121.68 124.03 121.42
  Q 125.86 120.21 128.07 120.57
  Q 128.10 120.58 128.11 120.54
  Q 128.15 120.30 128.04 120.18
  Q 127.95 120.06 128.09 120.02
  L 132.85 118.77
  A 0.07 0.04 -58.3 0 0 132.89 118.75
  Q 134.76 117.46 137.02 117.11
  Q 137.54 117.03 137.99 116.74
  C 138.90 116.17 139.83 116.43 140.70 116.18
  Q 145.10 114.93 148.77 113.22
  Z" fill="#ed998b"></path>
<path d="M 85.78 114.03
  Q 85.80 114.71 86.04 114.88
  L 87.10 123.38
  Q 86.58 125.29 85.04 125.39
  C 83.00 125.54 81.31 126.03 79.42 126.77
  Q 77.59 127.50 75.43 127.96
  Q 73.17 128.44 71.02 129.38
  Q 70.92 129.43 70.85 129.35
  L 70.65 129.15
  Q 70.36 128.86 70.17 129.23
  L 69.96 129.61
  Q 69.81 129.88 69.50 129.94
  Q 65.54 130.71 63.48 132.45
  Q 62.28 133.46 61.14 132.91
  Q 60.71 132.70 60.25 132.84
  L 49.82 135.96
  Q 49.37 136.10 49.08 136.48
  Q 48.70 136.99 48.08 136.74
  A 1.05 1.01 44.4 0 0 47.31 136.73
  Q 45.49 137.44 43.62 137.93
  C 42.30 138.27 40.87 139.29 38.93 138.90
  Q 38.50 138.82 38.28 138.93
  Q 37.93 139.12 37.82 139.57
  Q 37.70 140.05 37.23 139.92
  Q 35.57 139.48 34.58 140.65
  A 0.83 0.81 28.6 0 1 33.70 140.90
  Q 32.43 140.49 31.79 141.51
  Q 31.56 141.86 31.14 141.85
  Q 29.33 141.79 27.57 143.01
  L 25.60 132.14
  Q 28.76 131.74 31.75 130.11
  Q 32.10 129.92 32.11 129.52
  Q 32.11 129.38 32.10 129.24
  Q 32.08 128.88 32.51 129.25
  Q 32.67 129.38 32.67 129.61
  Q 32.66 130.18 33.22 130.25
  Q 34.34 130.39 34.92 129.44
  Q 35.24 128.91 35.81 129.17
  Q 36.14 129.32 36.50 129.24
  Q 37.29 129.08 37.43 128.93
  Q 38.28 128.07 39.50 128.01
  Q 39.98 127.99 40.41 127.77
  C 42.14 126.93 44.22 126.82 45.76 126.32
  Q 48.06 125.56 50.39 124.82
  Q 50.75 124.71 51.11 124.82
  Q 51.68 125.01 52.10 124.51
  A 1.15 1.12 10.7 0 1 52.66 124.14
  L 85.00 113.95
  Q 85.24 113.88 85.48 113.98
  Q 85.60 114.03 85.78 114.03
  Z" fill="#e8b48d"></path>
<path d="M 86.04 114.88
  Q 86.89 115.43 86.91 117.60
  Q 86.91 117.69 86.89 117.60
  Q 86.75 117.09 86.97 116.57
  Q 87.18 116.07 87.64 116.36
  Q 88.48 116.89 89.36 116.15
  Q 89.60 115.95 89.73 116.23
  Q 89.80 116.36 89.87 116.50
  Q 89.90 116.57 89.97 116.52
  Q 91.10 115.56 92.06 116.39
  Q 92.39 116.68 92.78 116.45
  Q 94.20 115.59 95.29 116.92
  A 0.34 0.34 0.0 0 0 95.89 116.73
  Q 95.96 115.72 97.09 115.89
  Q 97.55 115.95 97.89 115.62
  L 98.12 115.38
  Q 98.50 115.01 98.88 115.38
  Q 99.24 115.74 99.11 116.28
  Q 98.93 117.03 99.58 116.61
  Q 100.42 116.07 101.03 115.31
  A 0.94 0.87 -79.0 0 1 101.36 115.07
  Q 103.04 114.38 104.12 115.45
  Q 104.50 115.82 104.84 115.42
  Q 105.30 114.89 106.04 115.08
  Q 106.50 115.20 106.87 115.51
  Q 107.63 116.14 109.28 115.89
  L 108.10 126.03
  L 104.16 149.00
  L 100.99 162.02
  L 98.90 168.89
  Q 98.24 171.03 97.53 168.91
  L 95.59 163.12
  L 92.92 153.76
  L 90.58 143.37
  L 88.71 133.94
  L 87.10 123.38
  L 86.04 114.88
  Z" fill="#994f92"></path>
<path d="M 172.25 116.39
  L 171.16 125.57
  L 168.37 143.09
  L 163.71 163.04
  L 161.88 168.91
  Q 161.25 170.93 160.55 168.93
  L 159.23 165.19
  L 154.19 145.98
  L 152.12 135.63
  L 149.47 118.25
  Q 155.02 117.87 160.25 117.90
  C 161.24 117.91 162.16 116.81 163.06 116.81
  Q 163.83 116.81 164.17 117.59
  A 0.23 0.23 0.0 0 0 164.51 117.69
  Q 165.63 116.93 166.11 117.46
  Q 166.44 117.82 166.80 117.50
  Q 167.37 116.99 168.05 117.30
  Q 168.37 117.46 168.67 117.28
  Q 168.84 117.19 168.94 117.06
  Q 169.02 116.96 169.15 116.96
  Q 170.66 116.98 172.25 116.39
  Z" fill="#994f92"></path>
<path d="M 234.45 123.22
  L 231.66 140.95
  Q 228.49 140.82 227.50 141.41
  Q 225.99 142.30 224.20 142.39
  A 0.39 0.30 -52.0 0 0 224.04 142.43
  L 220.26 144.27
  Q 220.08 144.35 220.07 144.55
  Q 220.07 144.71 219.96 144.83
  Q 219.83 144.98 219.46 145.05
  Q 218.65 145.20 217.96 145.64
  A 1.59 1.57 -58.2 0 1 217.01 145.87
  C 215.58 145.74 215.20 146.58 214.10 146.94
  Q 213.45 147.15 212.81 147.34
  Q 198.44 151.59 184.19 156.26
  C 182.50 156.81 180.28 157.26 178.35 157.98
  C 174.66 159.37 171.00 159.94 167.37 161.30
  Q 166.90 161.47 166.41 161.37
  Q 165.55 161.19 165.04 161.81
  A 2.73 0.64 -59.8 0 1 164.54 162.34
  L 163.71 163.04
  L 168.37 143.09
  Q 177.95 140.19 187.00 137.47
  C 188.19 137.11 190.17 136.17 192.01 135.97
  Q 192.58 135.91 192.33 135.25
  A 0.05 0.04 8.6 0 1 192.40 135.20
  Q 192.62 135.36 192.80 135.54
  Q 192.87 135.62 192.97 135.58
  L 219.99 126.95
  Q 220.50 126.78 221.02 126.92
  Q 221.56 127.06 221.94 126.60
  Q 222.22 126.25 222.68 126.22
  Q 223.63 126.17 224.76 125.36
  Q 226.44 124.16 229.17 124.17
  Q 229.67 124.17 229.96 123.75
  Q 230.33 123.20 230.93 123.43
  Q 231.42 123.62 231.89 123.39
  L 233.28 122.72
  A 0.25 0.25 0.0 0 1 233.64 122.92
  L 233.67 123.26
  A 0.32 0.31 72.7 0 0 234.14 123.51
  Q 234.29 123.43 234.45 123.22
  Z" fill="#f66f89"></path>
<path d="M 87.10 123.38
  L 88.71 133.94
  Q 87.56 134.17 87.37 135.04
  Q 87.36 135.08 87.36 135.02
  Q 87.35 134.98 87.34 134.94
  Q 87.30 134.83 87.03 134.85
  Q 83.92 135.09 81.12 136.43
  Q 80.73 136.62 80.30 136.62
  C 78.83 136.61 77.42 137.53 76.47 137.80
  C 73.09 138.76 69.53 139.57 66.35 141.07
  Q 65.23 141.60 63.76 141.86
  Q 60.68 142.40 54.68 144.55
  Q 53.63 144.92 52.54 145.26
  Q 52.16 145.37 51.87 145.66
  Q 51.50 146.04 50.88 145.88
  Q 50.44 145.77 50.03 145.97
  Q 48.69 146.64 47.24 146.96
  C 44.49 147.57 42.70 148.79 39.50 148.87
  Q 39.01 148.88 38.63 149.18
  C 36.38 150.99 33.70 148.39 31.85 151.73
  Q 31.60 152.20 31.07 152.14
  L 29.58 151.97
  L 27.57 143.01
  Q 29.33 141.79 31.14 141.85
  Q 31.56 141.86 31.79 141.51
  Q 32.43 140.49 33.70 140.90
  A 0.83 0.81 28.6 0 0 34.58 140.65
  Q 35.57 139.48 37.23 139.92
  Q 37.70 140.05 37.82 139.57
  Q 37.93 139.12 38.28 138.93
  Q 38.50 138.82 38.93 138.90
  C 40.87 139.29 42.30 138.27 43.62 137.93
  Q 45.49 137.44 47.31 136.73
  A 1.05 1.01 44.4 0 1 48.08 136.74
  Q 48.70 136.99 49.08 136.48
  Q 49.37 136.10 49.82 135.96
  L 60.25 132.84
  Q 60.71 132.70 61.14 132.91
  Q 62.28 133.46 63.48 132.45
  Q 65.54 130.71 69.50 129.94
  Q 69.81 129.88 69.96 129.61
  L 70.17 129.23
  Q 70.36 128.86 70.65 129.15
  L 70.85 129.35
  Q 70.92 129.43 71.02 129.38
  Q 73.17 128.44 75.43 127.96
  Q 77.59 127.50 79.42 126.77
  C 81.31 126.03 83.00 125.54 85.04 125.39
  Q 86.58 125.29 87.10 123.38
  Z" fill="#eaac8c"></path>
<path d="M 88.71 133.94
  L 90.58 143.37
  Q 89.19 144.78 86.95 145.19
  Q 83.52 145.81 83.11 145.94
  Q 75.68 148.26 68.28 150.72
  Q 66.72 151.24 65.23 151.92
  A 2.32 2.27 -55.9 0 1 64.25 152.12
  Q 62.92 152.07 61.88 152.85
  Q 61.52 153.12 61.08 153.11
  Q 59.94 153.10 59.02 153.75
  Q 58.62 154.04 58.13 154.12
  Q 55.78 154.50 53.73 155.69
  Q 53.72 155.70 53.67 155.61
  Q 53.65 155.57 53.64 155.54
  Q 53.60 155.39 53.48 155.43
  Q 51.57 155.99 49.71 156.72
  C 48.38 157.23 46.94 157.10 45.53 157.88
  A 1.48 1.44 -57.9 0 1 44.74 158.07
  Q 42.21 157.95 40.78 159.87
  A 0.81 0.81 0.0 0 1 39.95 160.17
  Q 38.23 159.75 36.86 160.57
  Q 36.37 160.87 35.80 160.87
  L 35.02 160.87
  A 0.91 0.91 0.0 0 0 34.20 161.38
  Q 33.67 162.44 32.41 162.33
  L 29.58 151.97
  L 31.07 152.14
  Q 31.60 152.20 31.85 151.73
  C 33.70 148.39 36.38 150.99 38.63 149.18
  Q 39.01 148.88 39.50 148.87
  C 42.70 148.79 44.49 147.57 47.24 146.96
  Q 48.69 146.64 50.03 145.97
  Q 50.44 145.77 50.88 145.88
  Q 51.50 146.04 51.87 145.66
  Q 52.16 145.37 52.54 145.26
  Q 53.63 144.92 54.68 144.55
  Q 60.68 142.40 63.76 141.86
  Q 65.23 141.60 66.35 141.07
  C 69.53 139.57 73.09 138.76 76.47 137.80
  C 77.42 137.53 78.83 136.61 80.30 136.62
  Q 80.73 136.62 81.12 136.43
  Q 83.92 135.09 87.03 134.85
  Q 87.30 134.83 87.34 134.94
  Q 87.35 134.98 87.36 135.02
  Q 87.36 135.08 87.37 135.04
  Q 87.56 134.17 88.71 133.94
  Z" fill="#ed998b"></path>
<path d="M 152.12 135.63
  L 154.19 145.98
  L 125.43 155.10
  Q 124.98 155.25 124.52 155.15
  Q 123.65 154.97 123.07 155.72
  Q 122.80 156.06 122.37 156.12
  L 119.46 156.52
  Q 119.21 156.55 119.12 156.78
  Q 119.03 156.99 118.74 157.08
  Q 116.01 157.89 113.38 158.95
  Q 112.92 159.14 112.42 159.11
  Q 111.10 159.03 110.02 159.75
  Q 109.63 160.01 109.18 160.11
  L 100.99 162.02
  L 104.16 149.00
  Q 107.23 149.97 109.80 148.38
  Q 109.89 148.33 109.99 148.37
  Q 110.19 148.47 110.38 148.58
  Q 110.52 148.66 110.62 148.52
  L 110.91 148.10
  Q 110.99 147.98 111.12 147.97
  L 113.75 147.62
  Q 113.79 147.62 113.74 147.46
  Q 113.72 147.40 113.72 147.33
  Q 113.73 147.31 113.77 147.30
  L 117.69 146.04
  Q 118.15 145.89 118.64 145.90
  Q 119.44 145.93 120.11 145.46
  Q 120.52 145.18 121.01 145.08
  Q 124.30 144.43 127.43 143.12
  Q 127.80 142.96 127.96 142.59
  Q 128.04 142.40 128.20 142.29
  Q 128.55 142.02 128.96 142.20
  Q 129.79 142.55 130.56 142.21
  Q 130.70 142.14 131.48 141.33
  Q 132.06 140.73 132.89 141.07
  Q 133.31 141.24 133.74 141.11
  L 152.12 135.63
  Z" fill="#f2828a"></path>
<path d="M 231.66 140.95
  C 228.71 159.49 218.51 202.91 194.68 204.42
  C 177.00 205.54 166.44 185.74 161.68 171.85
  Q 161.21 170.47 160.73 171.84
  C 156.30 184.64 147.19 203.17 131.97 204.40
  C 118.43 205.49 108.79 194.11 103.67 183.25
  Q 104.26 181.91 105.44 182.31
  Q 105.91 182.47 106.33 182.20
  Q 106.96 181.80 107.68 182.11
  Q 108.17 182.33 108.54 181.95
  L 109.14 181.36
  Q 109.44 181.05 109.86 181.13
  Q 110.63 181.26 111.09 180.64
  Q 111.11 180.61 111.14 180.63
  L 111.51 181.00
  A 0.36 0.36 0.0 0 0 112.12 180.75
  Q 112.12 180.61 112.12 180.46
  Q 112.14 180.04 112.55 180.12
  Q 113.62 180.32 114.21 179.54
  A 1.07 1.05 19.1 0 1 115.10 179.12
  Q 116.91 179.21 118.51 178.36
  Q 118.93 178.13 119.41 178.14
  Q 121.80 178.16 123.37 176.41
  Q 123.58 176.17 123.83 176.36
  Q 124.01 176.49 124.24 176.49
  A 2.22 0.58 5.4 0 0 125.77 176.24
  Q 126.33 175.84 127.03 175.68
  Q 127.44 175.58 127.76 175.85
  Q 128.33 176.33 128.76 175.99
  A 0.14 0.14 0.0 0 0 128.73 175.75
  Q 128.61 175.69 128.47 175.66
  A 0.26 0.26 0.0 0 1 128.47 175.16
  Q 135.87 173.15 142.99 170.30
  Q 143.04 170.28 143.08 170.32
  Q 143.18 170.42 143.28 170.53
  Q 143.46 170.71 143.69 170.62
  L 159.23 165.19
  L 160.55 168.93
  Q 161.25 170.93 161.88 168.91
  L 163.71 163.04
  L 164.54 162.34
  A 2.73 0.64 -59.8 0 0 165.04 161.81
  Q 165.55 161.19 166.41 161.37
  Q 166.90 161.47 167.37 161.30
  C 171.00 159.94 174.66 159.37 178.35 157.98
  C 180.28 157.26 182.50 156.81 184.19 156.26
  Q 198.44 151.59 212.81 147.34
  Q 213.45 147.15 214.10 146.94
  C 215.20 146.58 215.58 145.74 217.01 145.87
  A 1.59 1.57 -58.2 0 0 217.96 145.64
  Q 218.65 145.20 219.46 145.05
  Q 219.83 144.98 219.96 144.83
  Q 220.07 144.71 220.07 144.55
  Q 220.08 144.35 220.26 144.27
  L 224.04 142.43
  A 0.39 0.30 -52.0 0 1 224.20 142.39
  Q 225.99 142.30 227.50 141.41
  Q 228.49 140.82 231.66 140.95
  Z" fill="#fc4d87"></path>
<path d="M 90.58 143.37
  L 92.92 153.76
  L 77.07 158.91
  A 1.32 1.25 -42.7 0 1 76.23 158.90
  Q 75.62 158.69 75.35 158.98
  A 2.54 2.35 9.8 0 1 74.50 159.53
  L 71.83 160.53
  Q 71.39 160.70 70.92 160.73
  Q 69.72 160.83 68.77 161.60
  Q 68.35 161.94 67.81 161.95
  Q 66.81 161.97 65.94 162.48
  Q 65.70 162.62 65.25 162.69
  Q 65.07 162.72 64.94 162.65
  Q 64.57 162.45 64.25 162.74
  Q 63.86 163.10 63.90 163.62
  A 0.32 0.32 0.0 0 1 63.39 163.90
  L 63.11 163.69
  Q 62.75 163.43 62.33 163.57
  L 53.04 166.66
  Q 52.65 166.78 52.25 166.77
  C 50.79 166.73 47.46 167.89 46.37 168.88
  Q 46.11 169.11 46.11 168.77
  Q 46.11 168.62 46.10 168.47
  A 0.30 0.29 77.0 0 0 45.68 168.20
  Q 44.74 168.67 43.99 169.38
  Q 43.66 169.70 43.22 169.78
  L 42.01 170.01
  Q 41.10 170.18 41.77 169.77
  Q 41.99 169.63 41.86 169.36
  A 0.37 0.37 0.0 0 0 41.21 169.32
  Q 40.61 170.33 39.31 170.66
  Q 38.91 170.76 38.50 170.83
  Q 37.60 170.98 36.87 171.43
  Q 36.63 171.58 36.35 171.50
  Q 36.18 171.45 36.01 171.49
  Q 35.76 171.56 35.61 171.98
  L 32.41 162.33
  Q 33.67 162.44 34.20 161.38
  A 0.91 0.91 0.0 0 1 35.02 160.87
  L 35.80 160.87
  Q 36.37 160.87 36.86 160.57
  Q 38.23 159.75 39.95 160.17
  A 0.81 0.81 0.0 0 0 40.78 159.87
  Q 42.21 157.95 44.74 158.07
  A 1.48 1.44 -57.9 0 0 45.53 157.88
  C 46.94 157.10 48.38 157.23 49.71 156.72
  Q 51.57 155.99 53.48 155.43
  Q 53.60 155.39 53.64 155.54
  Q 53.65 155.57 53.67 155.61
  Q 53.72 155.70 53.73 155.69
  Q 55.78 154.50 58.13 154.12
  Q 58.62 154.04 59.02 153.75
  Q 59.94 153.10 61.08 153.11
  Q 61.52 153.12 61.88 152.85
  Q 62.92 152.07 64.25 152.12
  A 2.32 2.27 -55.9 0 0 65.23 151.92
  Q 66.72 151.24 68.28 150.72
  Q 75.68 148.26 83.11 145.94
  Q 83.52 145.81 86.95 145.19
  Q 89.19 144.78 90.58 143.37
  Z" fill="#ef8f8b"></path>
<path d="M 154.19 145.98
  L 159.23 165.19
  L 143.69 170.62
  Q 143.46 170.71 143.28 170.53
  Q 143.18 170.42 143.08 170.32
  Q 143.04 170.28 142.99 170.30
  Q 135.87 173.15 128.47 175.16
  A 0.26 0.26 0.0 0 0 128.47 175.66
  Q 128.61 175.69 128.73 175.75
  A 0.14 0.14 0.0 0 1 128.76 175.99
  Q 128.33 176.33 127.76 175.85
  Q 127.44 175.58 127.03 175.68
  Q 126.33 175.84 125.77 176.24
  A 2.22 0.58 5.4 0 1 124.24 176.49
  Q 124.01 176.49 123.83 176.36
  Q 123.58 176.17 123.37 176.41
  Q 121.80 178.16 119.41 178.14
  Q 118.93 178.13 118.51 178.36
  Q 116.91 179.21 115.10 179.12
  A 1.07 1.05 19.1 0 0 114.21 179.54
  Q 113.62 180.32 112.55 180.12
  Q 112.14 180.04 112.12 180.46
  Q 112.12 180.61 112.12 180.75
  A 0.36 0.36 0.0 0 1 111.51 181.00
  L 111.14 180.63
  Q 111.11 180.61 111.09 180.64
  Q 110.63 181.26 109.86 181.13
  Q 109.44 181.05 109.14 181.36
  L 108.54 181.95
  Q 108.17 182.33 107.68 182.11
  Q 106.96 181.80 106.33 182.20
  Q 105.91 182.47 105.44 182.31
  Q 104.26 181.91 103.67 183.25
  L 98.58 171.78
  Q 98.16 170.83 97.82 171.82
  Q 95.16 179.68 91.03 186.96
  Q 90.83 186.72 90.77 186.46
  Q 90.73 186.29 90.56 186.28
  Q 89.93 186.21 89.78 186.62
  A 0.37 0.37 0.0 0 1 89.50 186.86
  Q 89.22 186.90 88.97 186.84
  Q 88.51 186.71 88.05 186.84
  L 85.52 187.53
  Q 85.15 187.63 84.82 187.82
  C 83.31 188.68 81.59 188.37 79.97 189.50
  Q 79.54 189.80 79.01 189.84
  L 74.74 190.16
  Q 74.34 190.19 74.15 190.55
  Q 73.65 191.51 72.42 191.06
  Q 72.12 190.94 72.12 191.27
  L 72.12 191.69
  Q 72.12 192.21 71.61 192.11
  Q 70.44 191.90 69.73 192.79
  Q 69.43 193.17 68.95 193.15
  Q 67.80 193.10 66.89 193.75
  Q 66.50 194.02 66.03 194.14
  Q 63.19 194.82 60.35 195.48
  Q 60.22 195.51 59.50 196.00
  Q 59.31 196.13 59.19 196.31
  Q 58.89 196.79 58.32 196.85
  L 55.03 197.15
  Q 54.53 197.20 54.22 197.59
  Q 53.52 198.48 51.31 198.34
  Q 44.49 191.79 39.88 182.04
  L 54.28 177.25
  Q 54.73 177.10 54.99 176.70
  C 56.16 174.86 57.81 175.45 59.24 175.07
  Q 61.52 174.47 63.66 173.44
  Q 63.89 173.33 63.87 173.58
  Q 63.86 173.75 63.93 173.89
  Q 64.12 174.25 64.51 174.13
  L 90.57 165.79
  Q 90.72 165.74 90.85 165.63
  Q 90.95 165.55 91.06 165.47
  Q 91.46 165.20 91.93 165.27
  Q 94.21 165.62 95.59 163.12
  L 97.53 168.91
  Q 98.24 171.03 98.90 168.89
  L 100.99 162.02
  L 109.18 160.11
  Q 109.63 160.01 110.02 159.75
  Q 111.10 159.03 112.42 159.11
  Q 112.92 159.14 113.38 158.95
  Q 116.01 157.89 118.74 157.08
  Q 119.03 156.99 119.12 156.78
  Q 119.21 156.55 119.46 156.52
  L 122.37 156.12
  Q 122.80 156.06 123.07 155.72
  Q 123.65 154.97 124.52 155.15
  Q 124.98 155.25 125.43 155.10
  L 154.19 145.98
  Z" fill="#f66f89"></path>
<path d="M 92.92 153.76
  L 95.59 163.12
  Q 94.21 165.62 91.93 165.27
  Q 91.46 165.20 91.06 165.47
  Q 90.95 165.55 90.85 165.63
  Q 90.72 165.74 90.57 165.79
  L 64.51 174.13
  Q 64.12 174.25 63.93 173.89
  Q 63.86 173.75 63.87 173.58
  Q 63.89 173.33 63.66 173.44
  Q 61.52 174.47 59.24 175.07
  C 57.81 175.45 56.16 174.86 54.99 176.70
  Q 54.73 177.10 54.28 177.25
  L 39.88 182.04
  L 35.61 171.98
  Q 35.76 171.56 36.01 171.49
  Q 36.18 171.45 36.35 171.50
  Q 36.63 171.58 36.87 171.43
  Q 37.60 170.98 38.50 170.83
  Q 38.91 170.76 39.31 170.66
  Q 40.61 170.33 41.21 169.32
  A 0.37 0.37 0.0 0 1 41.86 169.36
  Q 41.99 169.63 41.77 169.77
  Q 41.10 170.18 42.01 170.01
  L 43.22 169.78
  Q 43.66 169.70 43.99 169.38
  Q 44.74 168.67 45.68 168.20
  A 0.30 0.29 77.0 0 1 46.10 168.47
  Q 46.11 168.62 46.11 168.77
  Q 46.11 169.11 46.37 168.88
  C 47.46 167.89 50.79 166.73 52.25 166.77
  Q 52.65 166.78 53.04 166.66
  L 62.33 163.57
  Q 62.75 163.43 63.11 163.69
  L 63.39 163.90
  A 0.32 0.32 0.0 0 0 63.90 163.62
  Q 63.86 163.10 64.25 162.74
  Q 64.57 162.45 64.94 162.65
  Q 65.07 162.72 65.25 162.69
  Q 65.70 162.62 65.94 162.48
  Q 66.81 161.97 67.81 161.95
  Q 68.35 161.94 68.77 161.60
  Q 69.72 160.83 70.92 160.73
  Q 71.39 160.70 71.83 160.53
  L 74.50 159.53
  A 2.54 2.35 9.8 0 0 75.35 158.98
  Q 75.62 158.69 76.23 158.90
  A 1.32 1.25 -42.7 0 0 77.07 158.91
  L 92.92 153.76
  Z" fill="#f2828a"></path>
<path d="M 91.03 186.96
  C 83.02 202.51 66.74 211.80 51.31 198.34
  Q 53.52 198.48 54.22 197.59
  Q 54.53 197.20 55.03 197.15
  L 58.32 196.85
  Q 58.89 196.79 59.19 196.31
  Q 59.31 196.13 59.50 196.00
  Q 60.22 195.51 60.35 195.48
  Q 63.19 194.82 66.03 194.14
  Q 66.50 194.02 66.89 193.75
  Q 67.80 193.10 68.95 193.15
  Q 69.43 193.17 69.73 192.79
  Q 70.44 191.90 71.61 192.11
  Q 72.12 192.21 72.12 191.69
  L 72.12 191.27
  Q 72.12 190.94 72.42 191.06
  Q 73.65 191.51 74.15 190.55
  Q 74.34 190.19 74.74 190.16
  L 79.01 189.84
  Q 79.54 189.80 79.97 189.50
  C 81.59 188.37 83.31 188.68 84.82 187.82
  Q 85.15 187.63 85.52 187.53
  L 88.05 186.84
  Q 88.51 186.71 88.97 186.84
  Q 89.22 186.90 89.50 186.86
  A 0.37 0.37 0.0 0 0 89.78 186.62
  Q 89.93 186.21 90.56 186.28
  Q 90.73 186.29 90.77 186.46
  Q 90.83 186.72 91.03 186.96
  Z" fill="#fc4d87"></path>
</svg>
