<svg viewBox="0.00 0.00 48.00 48.00" version="1.1" xmlns="http://www.w3.org/2000/svg">
<path d="M 9.72 10.01
  C 12.43 2.06 20.65 -0.91 27.67 4.22
  Q 28.05 4.50 28.53 4.51
  C 31.76 4.51 33.02 3.70 36.54 5.54
  Q 43.87 9.38 42.92 17.66
  Q 42.86 18.17 43.17 18.59
  C 48.40 25.57 47.20 33.53 38.91 37.24
  Q 38.45 37.45 38.24 37.91
  C 37.58 39.28 37.09 40.90 36.10 41.98
  Q 29.33 49.41 20.63 44.08
  Q 19.56 43.43 18.64 43.47
  C 14.73 43.64 12.18 43.79 8.78 40.72
  Q 4.20 36.58 4.97 30.48
  Q 5.03 29.98 4.79 29.54
  Q 4.08 28.24 3.30 27.00
  C -0.63 20.81 2.35 13.42 9.08 10.69
  A 1.10 1.10 0.0 0 0 9.72 10.01
  Z
  M 17.09 10.98
  L 25.35 6.12
  A 0.64 0.63 47.8 0 0 25.40 5.06
  C 21.46 2.15 15.34 4.21 12.97 7.83
  C 10.65 11.39 11.42 17.97 11.42 22.36
  Q 11.42 23.32 12.25 23.79
  L 15.27 25.52
  Q 16.20 26.06 16.20 24.98
  L 16.17 12.59
  A 1.89 1.87 -15.6 0 1 17.09 10.98
  Z
  M 41.08 15.30
  Q 40.09 8.68 34.48 6.82
  C 29.39 5.13 24.56 8.93 19.08 12.23
  Q 18.22 12.74 18.23 13.73
  L 18.25 17.21
  Q 18.25 18.28 19.18 17.74
  L 30.14 11.37
  A 1.32 1.31 44.4 0 1 31.45 11.36
  L 39.86 16.14
  Q 41.34 16.97 41.08 15.30
  Z
  M 9.37 23.94
  L 9.25 13.71
  Q 9.23 12.61 8.31 13.21
  Q 3.43 16.39 3.82 22.13
  C 4.26 28.70 10.94 31.05 15.83 33.86
  A 2.56 2.53 44.9 0 0 18.36 33.87
  L 20.88 32.42
  Q 22.01 31.78 20.89 31.14
  L 9.86 24.77
  A 0.98 0.96 -76.1 0 1 9.37 23.94
  Z
  M 37.31 22.70
  A 2.44 2.43 -75.4 0 1 38.52 24.77
  L 38.63 34.50
  A 0.47 0.46 73.6 0 0 39.34 34.89
  C 45.30 31.15 46.29 22.19 39.91 18.60
  Q 35.59 16.16 31.93 14.01
  Q 30.82 13.36 29.69 13.98
  L 27.00 15.47
  Q 25.89 16.09 26.99 16.73
  L 37.31 22.70
  Z
  M 18.21 26.14
  A 1.84 1.84 0.0 0 0 19.11 27.74
  L 22.99 30.04
  A 1.84 1.84 0.0 0 0 24.84 30.05
  L 28.71 27.86
  A 1.84 1.84 0.0 0 0 29.65 26.27
  L 29.67 21.74
  A 1.84 1.84 0.0 0 0 28.77 20.14
  L 24.90 17.86
  A 1.84 1.84 0.0 0 0 23.04 17.85
  L 19.17 20.09
  A 1.84 1.84 0.0 0 0 18.25 21.67
  L 18.21 26.14
  Z
  M 30.84 36.93
  L 23.15 41.44
  Q 20.82 42.81 23.45 43.44
  L 26.25 44.11
  A 6.62 6.58 -51.6 0 0 30.82 43.57
  C 38.37 39.71 36.58 31.64 36.43 24.83
  A 0.42 0.42 0.0 0 0 36.21 24.46
  L 31.99 21.98
  A 0.16 0.16 0.0 0 0 31.75 22.12
  L 31.77 35.31
  A 1.88 1.87 75.0 0 1 30.84 36.93
  Z
  M 16.24 36.42
  L 7.54 31.45
  Q 7.05 31.17 6.99 31.73
  C 6.40 37.43 11.62 42.15 17.01 41.49
  C 20.67 41.04 25.13 37.83 28.63 35.81
  Q 29.60 35.24 29.64 34.11
  L 29.74 30.78
  Q 29.78 29.61 28.76 30.19
  L 17.99 36.41
  A 1.76 1.74 -44.9 0 1 16.24 36.42
  Z" fill="#000000"></path>
</svg>
