<svg viewBox="0.00 0.00 32.00 32.00" version="1.1" xmlns="http://www.w3.org/2000/svg">
<path d="M 16.13 17.18
  Q 17.44 20.16 18.43 23.25
  Q 19.01 25.03 20.22 25.50
  A 1.84 1.83 -68.9 0 0 22.60 24.44
  L 26.91 13.04
  A 0.94 0.93 -73.8 0 0 26.23 11.79
  L 25.63 11.67
  Q 24.38 11.41 23.93 12.62
  L 21.22 20.02
  Q 20.73 21.36 20.27 20.01
  Q 19.19 16.81 17.76 13.01
  Q 17.28 11.72 16.04 11.64
  A 1.40 1.39 -78.1 0 0 14.65 12.55
  L 11.85 20.24
  Q 11.53 21.12 11.19 20.24
  L 8.40 12.90
  Q 7.86 11.47 6.36 11.77
  L 6.01 11.84
  A 1.05 1.05 0.0 0 0 5.22 13.20
  Q 7.08 18.71 9.16 23.77
  Q 9.91 25.57 11.68 25.59
  Q 12.20 25.60 12.53 25.19
  C 14.08 23.25 14.93 19.59 15.68 17.21
  Q 15.87 16.59 16.13 17.18" stroke-linecap="butt" fill="none" stroke-width="2.00" stroke="#ab8be9"></path>
<path d="M 0.00 0.00
  L 32.00 0.00
  L 32.00 32.00
  L 0.00 32.00
  L 0.00 0.00
  Z
  M 16.13 17.18
  Q 17.44 20.16 18.43 23.25
  Q 19.01 25.03 20.22 25.50
  A 1.84 1.83 -68.9 0 0 22.60 24.44
  L 26.91 13.04
  A 0.94 0.93 -73.8 0 0 26.23 11.79
  L 25.63 11.67
  Q 24.38 11.41 23.93 12.62
  L 21.22 20.02
  Q 20.73 21.36 20.27 20.01
  Q 19.19 16.81 17.76 13.01
  Q 17.28 11.72 16.04 11.64
  A 1.40 1.39 -78.1 0 0 14.65 12.55
  L 11.85 20.24
  Q 11.53 21.12 11.19 20.24
  L 8.40 12.90
  Q 7.86 11.47 6.36 11.77
  L 6.01 11.84
  A 1.05 1.05 0.0 0 0 5.22 13.20
  Q 7.08 18.71 9.16 23.77
  Q 9.91 25.57 11.68 25.59
  Q 12.20 25.60 12.53 25.19
  C 14.08 23.25 14.93 19.59 15.68 17.21
  Q 15.87 16.59 16.13 17.18
  Z" fill="#f1f5f9"></path>
<path d="M 15.68 17.21
  C 14.93 19.59 14.08 23.25 12.53 25.19
  Q 12.20 25.60 11.68 25.59
  Q 9.91 25.57 9.16 23.77
  Q 7.08 18.71 5.22 13.20
  A 1.05 1.05 0.0 0 1 6.01 11.84
  L 6.36 11.77
  Q 7.86 11.47 8.40 12.90
  L 11.19 20.24
  Q 11.53 21.12 11.85 20.24
  L 14.65 12.55
  A 1.40 1.39 -78.1 0 1 16.04 11.64
  Q 17.28 11.72 17.76 13.01
  Q 19.19 16.81 20.27 20.01
  Q 20.73 21.36 21.22 20.02
  L 23.93 12.62
  Q 24.38 11.41 25.63 11.67
  L 26.23 11.79
  A 0.94 0.93 -73.8 0 1 26.91 13.04
  L 22.60 24.44
  A 1.84 1.83 -68.9 0 1 20.22 25.50
  Q 19.01 25.03 18.43 23.25
  Q 17.44 20.16 16.13 17.18
  Q 15.87 16.59 15.68 17.21
  Z" fill="#6521d9"></path>
</svg>
