<svg viewBox="0.00 0.00 192.00 192.00" version="1.1" xmlns="http://www.w3.org/2000/svg">
<g stroke-linecap="butt" fill="none" stroke-width="2.00">
<path d="M 190.39 96.19
  A 94.42 94.42 0.0 0 0 95.97 1.77
  A 94.42 94.42 0.0 0 0 1.55 96.19
  A 94.42 94.42 0.0 0 0 95.97 190.61
  A 94.42 94.42 0.0 0 0 190.39 96.19" stroke="#808080"></path>
<path d="M 35.97 69.86
  Q 48.34 69.97 60.75 69.88
  Q 61.24 69.88 61.58 69.54
  L 64.47 66.67
  Q 64.95 66.19 64.48 65.70
  L 61.73 62.87
  Q 61.44 62.57 61.02 62.57
  L 33.68 62.57
  A 0.93 0.89 -66.6 0 0 33.04 62.84
  L 30.37 65.58
  A 0.75 0.73 -39.6 0 0 30.27 66.50
  C 31.74 68.75 33.11 69.83 35.97 69.86" stroke="#808080"></path>
<path d="M 78.08 62.57
  A 0.36 0.36 0.0 0 0 77.83 63.18
  L 84.34 69.77
  A 0.36 0.36 0.0 0 0 84.60 69.88
  L 108.66 69.88
  A 0.36 0.36 0.0 0 0 108.92 69.77
  L 115.49 63.18
  A 0.36 0.36 0.0 0 0 115.23 62.57
  L 78.08 62.57" stroke="#808080"></path>
<path d="M 161.77 65.83
  L 158.99 62.99
  Q 158.58 62.57 157.99 62.57
  L 135.92 62.58
  Q 135.42 62.58 135.06 62.93
  L 132.40 65.56
  Q 131.99 65.96 132.29 66.45
  C 133.70 68.72 135.19 69.94 138.07 69.92
  Q 148.02 69.84 157.99 69.90
  Q 158.51 69.91 158.88 69.54
  L 161.77 66.60
  A 0.55 0.54 45.4 0 0 161.77 65.83" stroke="#808080"></path>
<path d="M 82.91 70.56
  L 76.68 64.31
  A 0.36 0.36 0.0 0 0 76.06 64.56
  Q 76.05 77.38 76.08 90.34
  C 76.08 92.21 77.02 93.18 78.42 94.16
  Q 78.89 94.49 79.29 94.09
  L 82.90 90.46
  Q 83.28 90.07 83.28 89.54
  L 83.29 71.47
  A 1.28 1.25 -68.4 0 0 82.91 70.56" stroke="#808080"></path>
<path d="M 25.35 70.64
  A 0.95 0.93 67.4 0 0 25.09 71.29
  L 25.13 91.52
  Q 25.13 91.98 25.45 92.30
  L 27.32 94.17
  Q 27.74 94.59 28.16 94.17
  L 31.88 90.46
  Q 32.23 90.11 32.24 89.62
  Q 32.34 81.18 32.49 72.75
  C 32.53 70.77 30.38 68.86 28.91 67.74
  Q 28.47 67.40 28.09 67.80
  L 25.35 70.64" stroke="#808080"></path>
<path d="M 127.12 71.53
  L 127.13 91.49
  Q 127.13 91.94 127.45 92.26
  L 129.35 94.19
  Q 129.80 94.64 130.25 94.19
  L 133.84 90.58
  Q 134.26 90.16 134.26 89.57
  Q 134.30 81.39 134.32 73.17
  C 134.33 70.45 132.99 69.13 130.95 67.73
  Q 130.49 67.40 130.09 67.82
  L 127.51 70.55
  Q 127.12 70.96 127.12 71.53" stroke="#808080"></path>
<path d="M 159.87 70.85
  A 0.53 0.51 68.5 0 0 159.72 71.22
  L 159.73 89.59
  A 1.26 1.22 -68.1 0 0 160.09 90.47
  L 163.68 94.09
  Q 164.11 94.52 164.62 94.17
  C 166.14 93.12 166.98 92.17 166.96 90.14
  Q 166.91 80.82 166.97 71.47
  Q 166.97 70.96 166.61 70.60
  L 163.71 67.77
  Q 163.22 67.29 162.75 67.79
  L 159.87 70.85" stroke="#808080"></path>
<path d="M 34.02 92.24
  C 32.01 92.25 30.49 93.90 29.43 95.42
  Q 29.16 95.80 29.42 96.19
  C 30.81 98.29 32.19 99.49 34.92 99.47
  Q 45.08 99.42 55.28 99.45
  C 57.91 99.46 59.15 98.09 60.56 96.16
  Q 60.91 95.68 60.49 95.27
  L 57.80 92.64
  Q 57.39 92.25 56.83 92.25
  Q 45.42 92.23 34.02 92.24" stroke="#808080"></path>
<path d="M 111.68 95.37
  L 108.84 92.59
  Q 108.47 92.22 107.95 92.22
  L 84.02 92.24
  A 1.14 1.12 22.3 0 0 83.22 92.57
  L 80.58 95.23
  Q 80.21 95.59 80.46 96.05
  C 81.83 98.56 83.58 99.50 86.57 99.48
  Q 97.19 99.41 107.85 99.47
  Q 108.42 99.47 108.83 99.07
  L 111.68 96.23
  A 0.60 0.60 0.0 0 0 111.68 95.37" stroke="#808080"></path>
<path d="M 62.62 97.46
  A 0.60 0.60 0.0 0 0 61.77 97.45
  L 57.80 101.28
  A 0.60 0.60 0.0 0 0 57.62 101.71
  L 57.62 120.31
  A 0.60 0.60 0.0 0 0 57.78 120.72
  L 60.74 123.85
  A 0.60 0.60 0.0 0 0 61.60 123.86
  L 64.72 120.75
  A 0.60 0.60 0.0 0 0 64.90 120.32
  L 64.89 100.02
  A 0.60 0.60 0.0 0 0 64.72 99.59
  L 62.62 97.46" stroke="#808080"></path>
<path d="M 76.13 100.38
  Q 75.98 113.56 76.08 127.62
  A 0.11 0.10 65.8 0 0 76.26 127.69
  L 83.14 120.76
  Q 83.26 120.64 83.26 120.48
  L 83.25 102.01
  A 1.27 1.25 23.3 0 0 82.89 101.13
  L 79.30 97.52
  Q 78.96 97.18 78.55 97.44
  Q 76.14 98.95 76.13 100.38" stroke="#808080"></path>
<path d="M 131.02 123.96
  L 133.85 121.10
  Q 134.30 120.65 134.30 120.01
  L 134.28 101.96
  A 1.30 1.28 22.9 0 0 133.90 101.05
  L 130.21 97.33
  Q 129.85 96.97 129.45 97.30
  C 127.99 98.51 127.11 99.53 127.12 101.61
  Q 127.13 110.90 127.14 120.22
  Q 127.14 120.71 127.48 121.05
  L 130.35 123.96
  A 0.47 0.47 0.0 0 0 131.02 123.96" stroke="#808080"></path>
<path d="M 163.62 123.82
  C 165.66 122.29 166.99 121.11 166.98 118.32
  Q 166.98 109.31 166.94 100.26
  Q 166.94 99.77 166.59 99.41
  L 164.64 97.37
  A 0.55 0.54 -43.9 0 0 163.86 97.36
  L 160.09 101.04
  A 1.21 1.18 68.3 0 0 159.73 101.90
  L 159.72 120.07
  Q 159.72 120.62 160.10 121.01
  L 162.73 123.75
  A 0.68 0.67 -40.2 0 0 163.62 123.82" stroke="#808080"></path>
<path d="M 25.39 125.75
  C 26.37 127.02 27.89 129.02 29.59 129.02
  Q 42.81 129.06 56.05 129.02
  Q 56.58 129.02 56.95 128.64
  L 59.67 125.92
  Q 60.09 125.49 59.68 125.06
  L 56.81 122.13
  Q 56.46 121.77 55.96 121.77
  L 29.21 121.77
  Q 28.59 121.77 28.16 122.21
  L 25.44 124.93
  A 0.63 0.63 0.0 0 0 25.39 125.75" stroke="#808080"></path>
<path d="M 84.62 121.76
  A 0.33 0.33 0.0 0 0 84.38 121.86
  L 77.89 128.47
  A 0.33 0.33 0.0 0 0 78.13 129.03
  L 115.27 129.03
  A 0.33 0.33 0.0 0 0 115.51 128.47
  L 108.93 121.87
  A 0.33 0.33 0.0 0 0 108.69 121.77
  L 84.62 121.76" stroke="#808080"></path>
<path d="M 161.77 125.87
  A 0.54 0.54 0.0 0 0 161.78 125.11
  L 158.71 121.93
  A 0.54 0.54 0.0 0 0 158.32 121.77
  L 135.78 121.77
  A 0.54 0.54 0.0 0 0 135.40 121.93
  L 132.23 125.10
  A 0.54 0.54 0.0 0 0 132.23 125.86
  L 135.20 128.87
  A 0.54 0.54 0.0 0 0 135.59 129.03
  L 158.38 129.04
  A 0.54 0.54 0.0 0 0 158.76 128.88
  L 161.77 125.87" stroke="#808080"></path>
</g>
<path d="M 103.88 192.00
  L 87.78 192.00
  C 37.83 186.80 1.30 147.33 0.00 97.10
  L 0.00 95.02
  C 1.49 32.95 58.94 -12.14 119.51 3.05
  C 186.05 19.73 214.04 100.64 171.89 154.89
  Q 146.51 187.56 103.88 192.00
  Z
  M 190.39 96.19
  A 94.42 94.42 0.0 0 0 95.97 1.77
  A 94.42 94.42 0.0 0 0 1.55 96.19
  A 94.42 94.42 0.0 0 0 95.97 190.61
  A 94.42 94.42 0.0 0 0 190.39 96.19
  Z" fill="#ffffff"></path>
<path d="M 190.39 96.19
  A 94.42 94.42 0.0 0 1 95.97 190.61
  A 94.42 94.42 0.0 0 1 1.55 96.19
  A 94.42 94.42 0.0 0 1 95.97 1.77
  A 94.42 94.42 0.0 0 1 190.39 96.19
  Z
  M 35.97 69.86
  Q 48.34 69.97 60.75 69.88
  Q 61.24 69.88 61.58 69.54
  L 64.47 66.67
  Q 64.95 66.19 64.48 65.70
  L 61.73 62.87
  Q 61.44 62.57 61.02 62.57
  L 33.68 62.57
  A 0.93 0.89 -66.6 0 0 33.04 62.84
  L 30.37 65.58
  A 0.75 0.73 -39.6 0 0 30.27 66.50
  C 31.74 68.75 33.11 69.83 35.97 69.86
  Z
  M 78.08 62.57
  A 0.36 0.36 0.0 0 0 77.83 63.18
  L 84.34 69.77
  A 0.36 0.36 0.0 0 0 84.60 69.88
  L 108.66 69.88
  A 0.36 0.36 0.0 0 0 108.92 69.77
  L 115.49 63.18
  A 0.36 0.36 0.0 0 0 115.23 62.57
  L 78.08 62.57
  Z
  M 161.77 65.83
  L 158.99 62.99
  Q 158.58 62.57 157.99 62.57
  L 135.92 62.58
  Q 135.42 62.58 135.06 62.93
  L 132.40 65.56
  Q 131.99 65.96 132.29 66.45
  C 133.70 68.72 135.19 69.94 138.07 69.92
  Q 148.02 69.84 157.99 69.90
  Q 158.51 69.91 158.88 69.54
  L 161.77 66.60
  A 0.55 0.54 45.4 0 0 161.77 65.83
  Z
  M 82.91 70.56
  L 76.68 64.31
  A 0.36 0.36 0.0 0 0 76.06 64.56
  Q 76.05 77.38 76.08 90.34
  C 76.08 92.21 77.02 93.18 78.42 94.16
  Q 78.89 94.49 79.29 94.09
  L 82.90 90.46
  Q 83.28 90.07 83.28 89.54
  L 83.29 71.47
  A 1.28 1.25 -68.4 0 0 82.91 70.56
  Z
  M 25.35 70.64
  A 0.95 0.93 67.4 0 0 25.09 71.29
  L 25.13 91.52
  Q 25.13 91.98 25.45 92.30
  L 27.32 94.17
  Q 27.74 94.59 28.16 94.17
  L 31.88 90.46
  Q 32.23 90.11 32.24 89.62
  Q 32.34 81.18 32.49 72.75
  C 32.53 70.77 30.38 68.86 28.91 67.74
  Q 28.47 67.40 28.09 67.80
  L 25.35 70.64
  Z
  M 127.12 71.53
  L 127.13 91.49
  Q 127.13 91.94 127.45 92.26
  L 129.35 94.19
  Q 129.80 94.64 130.25 94.19
  L 133.84 90.58
  Q 134.26 90.16 134.26 89.57
  Q 134.30 81.39 134.32 73.17
  C 134.33 70.45 132.99 69.13 130.95 67.73
  Q 130.49 67.40 130.09 67.82
  L 127.51 70.55
  Q 127.12 70.96 127.12 71.53
  Z
  M 159.87 70.85
  A 0.53 0.51 68.5 0 0 159.72 71.22
  L 159.73 89.59
  A 1.26 1.22 -68.1 0 0 160.09 90.47
  L 163.68 94.09
  Q 164.11 94.52 164.62 94.17
  C 166.14 93.12 166.98 92.17 166.96 90.14
  Q 166.91 80.82 166.97 71.47
  Q 166.97 70.96 166.61 70.60
  L 163.71 67.77
  Q 163.22 67.29 162.75 67.79
  L 159.87 70.85
  Z
  M 34.02 92.24
  C 32.01 92.25 30.49 93.90 29.43 95.42
  Q 29.16 95.80 29.42 96.19
  C 30.81 98.29 32.19 99.49 34.92 99.47
  Q 45.08 99.42 55.28 99.45
  C 57.91 99.46 59.15 98.09 60.56 96.16
  Q 60.91 95.68 60.49 95.27
  L 57.80 92.64
  Q 57.39 92.25 56.83 92.25
  Q 45.42 92.23 34.02 92.24
  Z
  M 111.68 95.37
  L 108.84 92.59
  Q 108.47 92.22 107.95 92.22
  L 84.02 92.24
  A 1.14 1.12 22.3 0 0 83.22 92.57
  L 80.58 95.23
  Q 80.21 95.59 80.46 96.05
  C 81.83 98.56 83.58 99.50 86.57 99.48
  Q 97.19 99.41 107.85 99.47
  Q 108.42 99.47 108.83 99.07
  L 111.68 96.23
  A 0.60 0.60 0.0 0 0 111.68 95.37
  Z
  M 62.62 97.46
  A 0.60 0.60 0.0 0 0 61.77 97.45
  L 57.80 101.28
  A 0.60 0.60 0.0 0 0 57.62 101.71
  L 57.62 120.31
  A 0.60 0.60 0.0 0 0 57.78 120.72
  L 60.74 123.85
  A 0.60 0.60 0.0 0 0 61.60 123.86
  L 64.72 120.75
  A 0.60 0.60 0.0 0 0 64.90 120.32
  L 64.89 100.02
  A 0.60 0.60 0.0 0 0 64.72 99.59
  L 62.62 97.46
  Z
  M 76.13 100.38
  Q 75.98 113.56 76.08 127.62
  A 0.11 0.10 65.8 0 0 76.26 127.69
  L 83.14 120.76
  Q 83.26 120.64 83.26 120.48
  L 83.25 102.01
  A 1.27 1.25 23.3 0 0 82.89 101.13
  L 79.30 97.52
  Q 78.96 97.18 78.55 97.44
  Q 76.14 98.95 76.13 100.38
  Z
  M 131.02 123.96
  L 133.85 121.10
  Q 134.30 120.65 134.30 120.01
  L 134.28 101.96
  A 1.30 1.28 22.9 0 0 133.90 101.05
  L 130.21 97.33
  Q 129.85 96.97 129.45 97.30
  C 127.99 98.51 127.11 99.53 127.12 101.61
  Q 127.13 110.90 127.14 120.22
  Q 127.14 120.71 127.48 121.05
  L 130.35 123.96
  A 0.47 0.47 0.0 0 0 131.02 123.96
  Z
  M 163.62 123.82
  C 165.66 122.29 166.99 121.11 166.98 118.32
  Q 166.98 109.31 166.94 100.26
  Q 166.94 99.77 166.59 99.41
  L 164.64 97.37
  A 0.55 0.54 -43.9 0 0 163.86 97.36
  L 160.09 101.04
  A 1.21 1.18 68.3 0 0 159.73 101.90
  L 159.72 120.07
  Q 159.72 120.62 160.10 121.01
  L 162.73 123.75
  A 0.68 0.67 -40.2 0 0 163.62 123.82
  Z
  M 25.39 125.75
  C 26.37 127.02 27.89 129.02 29.59 129.02
  Q 42.81 129.06 56.05 129.02
  Q 56.58 129.02 56.95 128.64
  L 59.67 125.92
  Q 60.09 125.49 59.68 125.06
  L 56.81 122.13
  Q 56.46 121.77 55.96 121.77
  L 29.21 121.77
  Q 28.59 121.77 28.16 122.21
  L 25.44 124.93
  A 0.63 0.63 0.0 0 0 25.39 125.75
  Z
  M 84.62 121.76
  A 0.33 0.33 0.0 0 0 84.38 121.86
  L 77.89 128.47
  A 0.33 0.33 0.0 0 0 78.13 129.03
  L 115.27 129.03
  A 0.33 0.33 0.0 0 0 115.51 128.47
  L 108.93 121.87
  A 0.33 0.33 0.0 0 0 108.69 121.77
  L 84.62 121.76
  Z
  M 161.77 125.87
  A 0.54 0.54 0.0 0 0 161.78 125.11
  L 158.71 121.93
  A 0.54 0.54 0.0 0 0 158.32 121.77
  L 135.78 121.77
  A 0.54 0.54 0.0 0 0 135.40 121.93
  L 132.23 125.10
  A 0.54 0.54 0.0 0 0 132.23 125.86
  L 135.20 128.87
  A 0.54 0.54 0.0 0 0 135.59 129.03
  L 158.38 129.04
  A 0.54 0.54 0.0 0 0 158.76 128.88
  L 161.77 125.87
  Z" fill="#000000"></path>
<path d="M 35.97 69.86
  C 33.11 69.83 31.74 68.75 30.27 66.50
  A 0.75 0.73 -39.6 0 1 30.37 65.58
  L 33.04 62.84
  A 0.93 0.89 -66.6 0 1 33.68 62.57
  L 61.02 62.57
  Q 61.44 62.57 61.73 62.87
  L 64.48 65.70
  Q 64.95 66.19 64.47 66.67
  L 61.58 69.54
  Q 61.24 69.88 60.75 69.88
  Q 48.34 69.97 35.97 69.86
  Z" fill="#ffffff"></path>
<path d="M 78.08 62.57
  L 115.23 62.57
  A 0.36 0.36 0.0 0 1 115.49 63.18
  L 108.92 69.77
  A 0.36 0.36 0.0 0 1 108.66 69.88
  L 84.60 69.88
  A 0.36 0.36 0.0 0 1 84.34 69.77
  L 77.83 63.18
  A 0.36 0.36 0.0 0 1 78.08 62.57
  Z" fill="#ffffff"></path>
<path d="M 161.77 65.83
  A 0.55 0.54 45.4 0 1 161.77 66.60
  L 158.88 69.54
  Q 158.51 69.91 157.99 69.90
  Q 148.02 69.84 138.07 69.92
  C 135.19 69.94 133.70 68.72 132.29 66.45
  Q 131.99 65.96 132.40 65.56
  L 135.06 62.93
  Q 135.42 62.58 135.92 62.58
  L 157.99 62.57
  Q 158.58 62.57 158.99 62.99
  L 161.77 65.83
  Z" fill="#ffffff"></path>
<path d="M 82.91 70.56
  A 1.28 1.25 -68.4 0 1 83.29 71.47
  L 83.28 89.54
  Q 83.28 90.07 82.90 90.46
  L 79.29 94.09
  Q 78.89 94.49 78.42 94.16
  C 77.02 93.18 76.08 92.21 76.08 90.34
  Q 76.05 77.38 76.06 64.56
  A 0.36 0.36 0.0 0 1 76.68 64.31
  L 82.91 70.56
  Z" fill="#ffffff"></path>
<path d="M 25.35 70.64
  L 28.09 67.80
  Q 28.47 67.40 28.91 67.74
  C 30.38 68.86 32.53 70.77 32.49 72.75
  Q 32.34 81.18 32.24 89.62
  Q 32.23 90.11 31.88 90.46
  L 28.16 94.17
  Q 27.74 94.59 27.32 94.17
  L 25.45 92.30
  Q 25.13 91.98 25.13 91.52
  L 25.09 71.29
  A 0.95 0.93 67.4 0 1 25.35 70.64
  Z" fill="#ffffff"></path>
<path d="M 127.13 91.49
  L 127.12 71.53
  Q 127.12 70.96 127.51 70.55
  L 130.09 67.82
  Q 130.49 67.40 130.95 67.73
  C 132.99 69.13 134.33 70.45 134.32 73.17
  Q 134.30 81.39 134.26 89.57
  Q 134.26 90.16 133.84 90.58
  L 130.25 94.19
  Q 129.80 94.64 129.35 94.19
  L 127.45 92.26
  Q 127.13 91.94 127.13 91.49
  Z" fill="#ffffff"></path>
<path d="M 159.87 70.85
  L 162.75 67.79
  Q 163.22 67.29 163.71 67.77
  L 166.61 70.60
  Q 166.97 70.96 166.97 71.47
  Q 166.91 80.82 166.96 90.14
  C 166.98 92.17 166.14 93.12 164.62 94.17
  Q 164.11 94.52 163.68 94.09
  L 160.09 90.47
  A 1.26 1.22 -68.1 0 1 159.73 89.59
  L 159.72 71.22
  A 0.53 0.51 68.5 0 1 159.87 70.85
  Z" fill="#ffffff"></path>
<path d="M 29.43 95.42
  C 30.49 93.90 32.01 92.25 34.02 92.24
  Q 45.42 92.23 56.83 92.25
  Q 57.39 92.25 57.80 92.64
  L 60.49 95.27
  Q 60.91 95.68 60.56 96.16
  C 59.15 98.09 57.91 99.46 55.28 99.45
  Q 45.08 99.42 34.92 99.47
  C 32.19 99.49 30.81 98.29 29.42 96.19
  Q 29.16 95.80 29.43 95.42
  Z" fill="#ffffff"></path>
<path d="M 108.84 92.59
  L 111.68 95.37
  A 0.60 0.60 0.0 0 1 111.68 96.23
  L 108.83 99.07
  Q 108.42 99.47 107.85 99.47
  Q 97.19 99.41 86.57 99.48
  C 83.58 99.50 81.83 98.56 80.46 96.05
  Q 80.21 95.59 80.58 95.23
  L 83.22 92.57
  A 1.14 1.12 22.3 0 1 84.02 92.24
  L 107.95 92.22
  Q 108.47 92.22 108.84 92.59
  Z" fill="#ffffff"></path>
<path d="M 62.62 97.46
  L 64.72 99.59
  A 0.60 0.60 0.0 0 1 64.89 100.02
  L 64.90 120.32
  A 0.60 0.60 0.0 0 1 64.72 120.75
  L 61.60 123.86
  A 0.60 0.60 0.0 0 1 60.74 123.85
  L 57.78 120.72
  A 0.60 0.60 0.0 0 1 57.62 120.31
  L 57.62 101.71
  A 0.60 0.60 0.0 0 1 57.80 101.28
  L 61.77 97.45
  A 0.60 0.60 0.0 0 1 62.62 97.46
  Z" fill="#ffffff"></path>
<path d="M 76.13 100.38
  Q 76.14 98.95 78.55 97.44
  Q 78.96 97.18 79.30 97.52
  L 82.89 101.13
  A 1.27 1.25 23.3 0 1 83.25 102.01
  L 83.26 120.48
  Q 83.26 120.64 83.14 120.76
  L 76.26 127.69
  A 0.11 0.10 65.8 0 1 76.08 127.62
  Q 75.98 113.56 76.13 100.38
  Z" fill="#ffffff"></path>
<path d="M 131.02 123.96
  A 0.47 0.47 0.0 0 1 130.35 123.96
  L 127.48 121.05
  Q 127.14 120.71 127.14 120.22
  Q 127.13 110.90 127.12 101.61
  C 127.11 99.53 127.99 98.51 129.45 97.30
  Q 129.85 96.97 130.21 97.33
  L 133.90 101.05
  A 1.30 1.28 22.9 0 1 134.28 101.96
  L 134.30 120.01
  Q 134.30 120.65 133.85 121.10
  L 131.02 123.96
  Z" fill="#ffffff"></path>
<path d="M 163.62 123.82
  A 0.68 0.67 -40.2 0 1 162.73 123.75
  L 160.10 121.01
  Q 159.72 120.62 159.72 120.07
  L 159.73 101.90
  A 1.21 1.18 68.3 0 1 160.09 101.04
  L 163.86 97.36
  A 0.55 0.54 -43.9 0 1 164.64 97.37
  L 166.59 99.41
  Q 166.94 99.77 166.94 100.26
  Q 166.98 109.31 166.98 118.32
  C 166.99 121.11 165.66 122.29 163.62 123.82
  Z" fill="#ffffff"></path>
<path d="M 29.59 129.02
  C 27.89 129.02 26.37 127.02 25.39 125.75
  A 0.63 0.63 0.0 0 1 25.44 124.93
  L 28.16 122.21
  Q 28.59 121.77 29.21 121.77
  L 55.96 121.77
  Q 56.46 121.77 56.81 122.13
  L 59.68 125.06
  Q 60.09 125.49 59.67 125.92
  L 56.95 128.64
  Q 56.58 129.02 56.05 129.02
  Q 42.81 129.06 29.59 129.02
  Z" fill="#ffffff"></path>
<path d="M 84.62 121.76
  L 108.69 121.77
  A 0.33 0.33 0.0 0 1 108.93 121.87
  L 115.51 128.47
  A 0.33 0.33 0.0 0 1 115.27 129.03
  L 78.13 129.03
  A 0.33 0.33 0.0 0 1 77.89 128.47
  L 84.38 121.86
  A 0.33 0.33 0.0 0 1 84.62 121.76
  Z" fill="#ffffff"></path>
<path d="M 161.77 125.87
  L 158.76 128.88
  A 0.54 0.54 0.0 0 1 158.38 129.04
  L 135.59 129.03
  A 0.54 0.54 0.0 0 1 135.20 128.87
  L 132.23 125.86
  A 0.54 0.54 0.0 0 1 132.23 125.10
  L 135.40 121.93
  A 0.54 0.54 0.0 0 1 135.78 121.77
  L 158.32 121.77
  A 0.54 0.54 0.0 0 1 158.71 121.93
  L 161.78 125.11
  A 0.54 0.54 0.0 0 1 161.77 125.87
  Z" fill="#ffffff"></path>
</svg>
