<svg viewBox="0.00 0.00 256.00 256.00" version="1.1" xmlns="http://www.w3.org/2000/svg">
<g stroke-linecap="butt" fill="none" stroke-width="2.00">
<path d="M 138.65 77.66
  A 0.34 0.34 0.0 0 1 138.90 78.23
  L 77.83 144.29
  A 0.34 0.34 0.0 0 0 77.74 144.52
  L 77.74 163.07
  A 0.34 0.34 0.0 0 0 78.08 163.41
  L 170.12 163.40
  A 0.34 0.34 0.0 0 0 170.46 163.06
  L 170.47 144.62
  A 0.34 0.34 0.0 0 0 170.13 144.28
  L 109.04 144.37
  A 0.34 0.34 0.0 0 1 108.79 143.80
  L 169.84 77.77
  A 0.34 0.34 0.0 0 0 169.93 77.54
  L 169.93 59.08
  A 0.34 0.34 0.0 0 0 169.59 58.74
  L 79.35 58.76
  A 0.34 0.34 0.0 0 0 79.01 59.10
  L 79.00 77.32
  A 0.34 0.34 0.0 0 0 79.34 77.66
  L 138.65 77.66" stroke="#809e90"></path>
<path d="M 169.62 199.87
  C 180.01 201.26 186.96 206.25 189.03 216.47
  A 1.40 1.39 -25.0 0 0 191.27 217.28
  C 197.71 212.13 194.59 200.31 203.20 197.83
  C 205.42 197.20 208.51 196.37 209.76 194.46
  A 1.57 1.56 27.7 0 0 209.04 192.16
  C 205.03 190.53 197.76 186.09 196.92 181.51
  Q 196.27 177.97 195.34 174.50
  Q 194.55 171.59 192.50 172.27
  A 1.35 1.34 -78.9 0 0 191.88 172.69
  C 186.73 179.11 185.51 183.36 176.50 184.70
  Q 164.28 186.52 153.95 187.65
  C 140.66 189.10 125.29 189.46 110.67 190.43
  Q 107.85 190.62 106.39 193.04
  L 106.16 193.42
  A 1.46 1.46 0.0 0 0 107.32 195.63
  Q 115.95 196.13 135.75 196.73
  Q 149.13 197.14 169.62 199.87" stroke="#6c9d81"></path>
<path d="M 136.04 182.27
  Q 137.01 182.08 136.69 181.14
  A 0.59 0.58 -4.0 0 0 136.23 180.75
  Q 128.95 179.47 121.50 179.18
  Q 106.00 178.57 90.50 179.17
  Q 87.09 179.30 84.38 180.51
  Q 82.63 181.28 84.46 181.95
  Q 85.00 182.14 86.50 182.17
  Q 107.75 182.60 129.00 182.90
  Q 132.56 182.95 136.04 182.27" stroke="#6c9d81"></path>
<path d="M 94.56 193.09
  Q 95.23 192.88 95.48 192.42
  A 0.93 0.92 21.9 0 0 94.91 191.09
  Q 92.33 190.37 89.50 190.40
  Q 71.03 190.62 50.66 190.86
  A 4.99 4.97 15.5 0 0 46.48 193.21
  L 45.63 194.57
  Q 44.19 196.89 46.91 196.70
  Q 69.32 195.19 91.74 193.61
  Q 93.19 193.51 94.56 193.09" stroke="#6c9d81"></path>
<path d="M 168.87 193.31
  C 177.44 194.74 185.64 196.82 191.46 203.54
  Q 191.90 204.04 192.16 203.43
  Q 194.47 198.13 199.56 195.38
  A 0.53 0.53 0.0 0 0 199.57 194.45
  Q 193.23 190.86 190.86 183.92
  A 0.65 0.64 -38.6 0 0 189.70 183.79
  C 184.89 191.59 177.53 193.28 168.73 192.77
  Q 168.72 192.77 168.72 192.78
  L 168.69 193.08
  A 0.21 0.21 0.0 0 0 168.87 193.31" stroke="#6c9d81"></path>
</g>
<path d="M 47.11 0.00
  L 209.03 0.00
  C 234.70 2.69 253.77 21.41 256.00 47.12
  L 256.00 209.03
  C 253.33 234.74 234.54 253.76 208.87 256.00
  L 46.95 256.00
  C 21.32 253.38 2.25 234.54 0.00 208.90
  L 0.00 46.98
  C 2.31 21.33 21.41 2.57 47.11 0.00
  Z
  M 138.65 77.66
  A 0.34 0.34 0.0 0 1 138.90 78.23
  L 77.83 144.29
  A 0.34 0.34 0.0 0 0 77.74 144.52
  L 77.74 163.07
  A 0.34 0.34 0.0 0 0 78.08 163.41
  L 170.12 163.40
  A 0.34 0.34 0.0 0 0 170.46 163.06
  L 170.47 144.62
  A 0.34 0.34 0.0 0 0 170.13 144.28
  L 109.04 144.37
  A 0.34 0.34 0.0 0 1 108.79 143.80
  L 169.84 77.77
  A 0.34 0.34 0.0 0 0 169.93 77.54
  L 169.93 59.08
  A 0.34 0.34 0.0 0 0 169.59 58.74
  L 79.35 58.76
  A 0.34 0.34 0.0 0 0 79.01 59.10
  L 79.00 77.32
  A 0.34 0.34 0.0 0 0 79.34 77.66
  L 138.65 77.66
  Z
  M 169.62 199.87
  C 180.01 201.26 186.96 206.25 189.03 216.47
  A 1.40 1.39 -25.0 0 0 191.27 217.28
  C 197.71 212.13 194.59 200.31 203.20 197.83
  C 205.42 197.20 208.51 196.37 209.76 194.46
  A 1.57 1.56 27.7 0 0 209.04 192.16
  C 205.03 190.53 197.76 186.09 196.92 181.51
  Q 196.27 177.97 195.34 174.50
  Q 194.55 171.59 192.50 172.27
  A 1.35 1.34 -78.9 0 0 191.88 172.69
  C 186.73 179.11 185.51 183.36 176.50 184.70
  Q 164.28 186.52 153.95 187.65
  C 140.66 189.10 125.29 189.46 110.67 190.43
  Q 107.85 190.62 106.39 193.04
  L 106.16 193.42
  A 1.46 1.46 0.0 0 0 107.32 195.63
  Q 115.95 196.13 135.75 196.73
  Q 149.13 197.14 169.62 199.87
  Z
  M 136.04 182.27
  Q 137.01 182.08 136.69 181.14
  A 0.59 0.58 -4.0 0 0 136.23 180.75
  Q 128.95 179.47 121.50 179.18
  Q 106.00 178.57 90.50 179.17
  Q 87.09 179.30 84.38 180.51
  Q 82.63 181.28 84.46 181.95
  Q 85.00 182.14 86.50 182.17
  Q 107.75 182.60 129.00 182.90
  Q 132.56 182.95 136.04 182.27
  Z
  M 94.56 193.09
  Q 95.23 192.88 95.48 192.42
  A 0.93 0.92 21.9 0 0 94.91 191.09
  Q 92.33 190.37 89.50 190.40
  Q 71.03 190.62 50.66 190.86
  A 4.99 4.97 15.5 0 0 46.48 193.21
  L 45.63 194.57
  Q 44.19 196.89 46.91 196.70
  Q 69.32 195.19 91.74 193.61
  Q 93.19 193.51 94.56 193.09
  Z" fill="#00402f"></path>
<path d="M 138.65 77.66
  L 79.34 77.66
  A 0.34 0.34 0.0 0 1 79.00 77.32
  L 79.01 59.10
  A 0.34 0.34 0.0 0 1 79.35 58.76
  L 169.59 58.74
  A 0.34 0.34 0.0 0 1 169.93 59.08
  L 169.93 77.54
  A 0.34 0.34 0.0 0 1 169.84 77.77
  L 108.79 143.80
  A 0.34 0.34 0.0 0 0 109.04 144.37
  L 170.13 144.28
  A 0.34 0.34 0.0 0 1 170.47 144.62
  L 170.46 163.06
  A 0.34 0.34 0.0 0 1 170.12 163.40
  L 78.08 163.41
  A 0.34 0.34 0.0 0 1 77.74 163.07
  L 77.74 144.52
  A 0.34 0.34 0.0 0 1 77.83 144.29
  L 138.90 78.23
  A 0.34 0.34 0.0 0 0 138.65 77.66
  Z" fill="#fffbf1"></path>
<path d="M 189.03 216.47
  C 186.96 206.25 180.01 201.26 169.62 199.87
  Q 149.13 197.14 135.75 196.73
  Q 115.95 196.13 107.32 195.63
  A 1.46 1.46 0.0 0 1 106.16 193.42
  L 106.39 193.04
  Q 107.85 190.62 110.67 190.43
  C 125.29 189.46 140.66 189.10 153.95 187.65
  Q 164.28 186.52 176.50 184.70
  C 185.51 183.36 186.73 179.11 191.88 172.69
  A 1.35 1.34 -78.9 0 1 192.50 172.27
  Q 194.55 171.59 195.34 174.50
  Q 196.27 177.97 196.92 181.51
  C 197.76 186.09 205.03 190.53 209.04 192.16
  A 1.57 1.56 27.7 0 1 209.76 194.46
  C 208.51 196.37 205.42 197.20 203.20 197.83
  C 194.59 200.31 197.71 212.13 191.27 217.28
  A 1.40 1.39 -25.0 0 1 189.03 216.47
  Z
  M 168.87 193.31
  C 177.44 194.74 185.64 196.82 191.46 203.54
  Q 191.90 204.04 192.16 203.43
  Q 194.47 198.13 199.56 195.38
  A 0.53 0.53 0.0 0 0 199.57 194.45
  Q 193.23 190.86 190.86 183.92
  A 0.65 0.64 -38.6 0 0 189.70 183.79
  C 184.89 191.59 177.53 193.28 168.73 192.77
  Q 168.72 192.77 168.72 192.78
  L 168.69 193.08
  A 0.21 0.21 0.0 0 0 168.87 193.31
  Z" fill="#d7f9d2"></path>
<path d="M 136.04 182.27
  Q 132.56 182.95 129.00 182.90
  Q 107.75 182.60 86.50 182.17
  Q 85.00 182.14 84.46 181.95
  Q 82.63 181.28 84.38 180.51
  Q 87.09 179.30 90.50 179.17
  Q 106.00 178.57 121.50 179.18
  Q 128.95 179.47 136.23 180.75
  A 0.59 0.58 -4.0 0 1 136.69 181.14
  Q 137.01 182.08 136.04 182.27
  Z" fill="#d7f9d2"></path>
<path d="M 191.46 203.54
  C 185.64 196.82 177.44 194.74 168.87 193.31
  A 0.21 0.21 0.0 0 1 168.69 193.08
  L 168.72 192.78
  Q 168.72 192.77 168.73 192.77
  C 177.53 193.28 184.89 191.59 189.70 183.79
  A 0.65 0.64 -38.6 0 1 190.86 183.92
  Q 193.23 190.86 199.57 194.45
  A 0.53 0.53 0.0 0 1 199.56 195.38
  Q 194.47 198.13 192.16 203.43
  Q 191.90 204.04 191.46 203.54
  Z" fill="#00402f"></path>
<path d="M 94.56 193.09
  Q 93.19 193.51 91.74 193.61
  Q 69.32 195.19 46.91 196.70
  Q 44.19 196.89 45.63 194.57
  L 46.48 193.21
  A 4.99 4.97 15.5 0 1 50.66 190.86
  Q 71.03 190.62 89.50 190.40
  Q 92.33 190.37 94.91 191.09
  A 0.93 0.92 21.9 0 1 95.48 192.42
  Q 95.23 192.88 94.56 193.09
  Z" fill="#d7f9d2"></path>
</svg>
