<svg viewBox="0.00 0.00 256.00 256.00" version="1.1" xmlns="http://www.w3.org/2000/svg">
<path d="M 152.20 69.02
  L 73.59 200.04
  A 0.42 0.42 0.0 0 0 73.95 200.67
  Q 119.43 200.62 165.00 200.67
  Q 169.49 200.68 172.27 202.44
  C 173.14 203.00 173.75 204.23 174.54 205.04
  Q 174.96 205.46 175.48 205.19
  L 178.38 203.74
  A 0.69 0.68 -13.4 0 0 178.76 203.13
  L 178.75 169.74
  Q 178.75 169.19 178.23 169.03
  L 172.86 167.39
  A 0.79 0.78 16.6 0 0 171.87 167.92
  C 168.12 180.99 166.64 189.24 150.25 189.24
  Q 127.49 189.25 104.76 189.24
  A 0.33 0.32 15.6 0 1 104.48 188.75
  L 182.65 58.16
  A 0.44 0.44 0.0 0 0 182.27 57.50
  Q 146.58 57.66 110.75 57.76
  C 101.43 57.79 91.54 57.51 84.07 51.12
  A 0.70 0.69 43.4 0 0 83.14 51.14
  L 81.10 53.06
  Q 80.70 53.43 80.70 53.97
  L 80.67 88.22
  Q 80.67 88.87 81.28 89.10
  L 86.68 91.10
  Q 87.21 91.30 87.37 90.76
  C 91.78 75.92 92.61 68.55 110.25 68.61
  Q 131.06 68.69 151.95 68.59
  A 0.29 0.28 15.3 0 1 152.20 69.02" stroke-linecap="butt" fill="none" stroke-width="2.00" stroke="#aedceb"></path>
<path d="M 23.61 0.00
  L 232.75 0.00
  Q 252.91 3.45 256.00 23.61
  L 256.00 232.75
  Q 252.57 252.76 232.64 256.00
  L 23.49 256.00
  Q 3.35 252.82 0.00 232.63
  L 0.00 23.25
  Q 3.45 3.08 23.61 0.00
  Z
  M 152.20 69.02
  L 73.59 200.04
  A 0.42 0.42 0.0 0 0 73.95 200.67
  Q 119.43 200.62 165.00 200.67
  Q 169.49 200.68 172.27 202.44
  C 173.14 203.00 173.75 204.23 174.54 205.04
  Q 174.96 205.46 175.48 205.19
  L 178.38 203.74
  A 0.69 0.68 -13.4 0 0 178.76 203.13
  L 178.75 169.74
  Q 178.75 169.19 178.23 169.03
  L 172.86 167.39
  A 0.79 0.78 16.6 0 0 171.87 167.92
  C 168.12 180.99 166.64 189.24 150.25 189.24
  Q 127.49 189.25 104.76 189.24
  A 0.33 0.32 15.6 0 1 104.48 188.75
  L 182.65 58.16
  A 0.44 0.44 0.0 0 0 182.27 57.50
  Q 146.58 57.66 110.75 57.76
  C 101.43 57.79 91.54 57.51 84.07 51.12
  A 0.70 0.69 43.4 0 0 83.14 51.14
  L 81.10 53.06
  Q 80.70 53.43 80.70 53.97
  L 80.67 88.22
  Q 80.67 88.87 81.28 89.10
  L 86.68 91.10
  Q 87.21 91.30 87.37 90.76
  C 91.78 75.92 92.61 68.55 110.25 68.61
  Q 131.06 68.69 151.95 68.59
  A 0.29 0.28 15.3 0 1 152.20 69.02
  Z" fill="#5cb8d7"></path>
<path d="M 152.20 69.02
  A 0.29 0.28 15.3 0 0 151.95 68.59
  Q 131.06 68.69 110.25 68.61
  C 92.61 68.55 91.78 75.92 87.37 90.76
  Q 87.21 91.30 86.68 91.10
  L 81.28 89.10
  Q 80.67 88.87 80.67 88.22
  L 80.70 53.97
  Q 80.70 53.43 81.10 53.06
  L 83.14 51.14
  A 0.70 0.69 43.4 0 1 84.07 51.12
  C 91.54 57.51 101.43 57.79 110.75 57.76
  Q 146.58 57.66 182.27 57.50
  A 0.44 0.44 0.0 0 1 182.65 58.16
  L 104.48 188.75
  A 0.33 0.32 15.6 0 0 104.76 189.24
  Q 127.49 189.25 150.25 189.24
  C 166.64 189.24 168.12 180.99 171.87 167.92
  A 0.79 0.78 16.6 0 1 172.86 167.39
  L 178.23 169.03
  Q 178.75 169.19 178.75 169.74
  L 178.76 203.13
  A 0.69 0.68 -13.4 0 1 178.38 203.74
  L 175.48 205.19
  Q 174.96 205.46 174.54 205.04
  C 173.75 204.23 173.14 203.00 172.27 202.44
  Q 169.49 200.68 165.00 200.67
  Q 119.43 200.62 73.95 200.67
  A 0.42 0.42 0.0 0 1 73.59 200.04
  L 152.20 69.02
  Z" fill="#ffffff"></path>
</svg>
