<svg viewBox="0.00 0.00 91.00 72.00" version="1.1" xmlns="http://www.w3.org/2000/svg">
<path d="M 74.81 72.00
  L 9.86 72.00
  Q 2.98 70.61 3.25 65.04
  C 3.38 62.25 5.28 60.99 7.33 59.33
  Q 33.69 38.01 59.81 16.91
  Q 60.79 16.12 59.53 16.12
  L 4.70 16.16
  Q 3.04 16.16 3.49 14.56
  C 6.00 5.73 13.02 2.85 21.56 2.83
  Q 50.77 2.76 79.99 2.83
  C 84.32 2.84 89.38 4.94 89.07 9.90
  Q 88.93 12.19 87.41 13.43
  Q 59.77 35.92 32.43 57.89
  Q 31.38 58.74 32.72 58.74
  L 88.31 58.74
  Q 89.18 58.74 89.09 59.60
  C 88.33 66.80 81.57 71.17 74.81 72.00
  Z" fill="#f25f5c"></path>
</svg>
